<svg xmlns="http://www.w3.org/2000/svg" width="501" height="707" viewbox="0 0 501 707">
  <style type="text/css">
  <![CDATA[
  path{fill:#5C3566;fill-opacity:1;stroke:#292b2c;stroke-width:4;stroke-linecap:round;stroke-linejoin:round;stroke-opacity:1;}
  #inside{fill:#86739c;}
  #ribbing path{stroke-width:1;}
  ]]>
  </style>
  <g transform="translate(0,-172)">
    <path id="front" d="M 205.3501746,224.1529984 77.00378242,260.99605 C 77.00378242,779.5327748 63.96149132,792.2009394 77.00378242,796.3473839 L 83.79346332,796.3473839 83.79346332,850.3293878 416.8394954,850.3293878 416.8394954,796.3473839 423.6291763,796.3473839 C 430.8938577,795.7191554 423.6291763,768.7277183 423.6291763,260.99605 L 295.2828463,224.1529984 205.3501746,224.1529984 z" />
    <path id="pouch" d="M 143.9253025,612.8316467 C 139.4248198,655.2214399 141.6118727,705.7125568 128.1388813,737.2546736 L 150.2326513,763.9736277 187.4819523,763.9736277 310.5831454,763.9736277 347.8324464,763.9736277 369.9262164,737.2546736 C 356.4532871,705.7125568 358.6402778,655.2214399 354.1398573,612.8316467 L 319.4314519,612.8316467 178.6337079,612.8316467 143.9253025,612.8316467 z" />
    <path id="sleeves" d="M 203.7909165,224.1610074 74.76792042,260.5062509 C 33.19844432,273.594159 28.92047899,322.2167083 22.5121033,368.8145749 0.95304287,574.4091498 1.00491945,838.3522485 8.37671679,829.8147341 L 11.7852497,829.8147341 11.7852497,874.0862008 57.65006762,874.0862008 57.65006762,829.8147341 62.76286702,829.8147341 C 80.03058172,703.5841466 98.3516092,526.8211232 76.54737512,416.748157 69.91196842,383.2510764 158.0053987,279.7990644 203.7909165,224.1610074 z M 296.1972464,224.1610074 C 341.9828262,279.7990644 430.0761944,383.2510764 423.4407877,416.748157 401.6365536,526.8211232 419.9575811,703.5841466 437.2252958,829.8147341 L 442.3380952,829.8147341 442.3380952,874.0862008 488.2029131,874.0862008 488.2029131,829.8147341 491.6114461,829.8147341 C 498.9832434,838.3522485 499.0100572,574.4091498 477.4509968,368.8145749 471.042559,322.2167083 466.7897186,273.594159 425.2202424,260.5062509 L 296.1972464,224.1610074 z" />
    <path id="hoodfront" d="M 384.7940395,204.646446 267.274842,239.6873744 C 267.7013024,240.1028432 268.4254876,242.0544304 269.3550496,244.6788881 L 148.552633,205.5494334 C 154.9508638,213.8956257 158.2261658,223.3653381 148.4774448,230.6324172 141.2352352,236.0310443 157.2469139,244.4289349 168.6780149,248.4162527 174.1687603,251.8640783 174.2091874,252.3257325 178.0765431,255.6401521 191.0696877,263.1646722 232.7538688,274.4133144 264.267313,276.4841116 270.9842268,276.9254907 317.1716673,271.5406908 326.0469721,265.0964369 334.430483,262.2276165 337.7878303,256.349267 343.4154524,253.5331814 364.5968892,242.933902 375.7190384,246.5044297 380.9343772,238.9348848 383.5122847,235.193309 368.7501178,233.2775949 383.1148358,222.0540367 387.1868017,218.8724953 384.7940395,212.7866038 384.7940395,204.646446 z M 267.274842,239.6873744 C 267.1276462,239.5439723 267.0015643,239.5547162 266.9239637,239.7877063 L 267.274842,239.6873744 z" />
    <g id="ribbing">
      <path d="M 87.2, 797.8 87.2,848.8" />
      <path d="M 90.3, 797.8 90.3,848.8" />
      <path d="M 93.4, 797.8 93.4,848.8" />
      <path d="M 96.5, 797.8 96.5,848.8" />
      <path d="M 99.6, 797.8 99.6,848.8" />
      <path d="M 102.7,797.8 102.7,848.8" />
      <path d="M 105.8,797.8 105.8,848.8" />
      <path d="M 108.9,797.8 108.9,848.8" />
      <path d="M 112.0,797.8 112.0,848.8" />
      <path d="M 115.1,797.8 115.1,848.8" />
      <path d="M 118.2,797.8 118.2,848.8" />
      <path d="M 121.3,797.8 121.3,848.8" />
      <path d="M 124.5,797.8 124.5,848.8" />
      <path d="M 127.6,797.8 127.6,848.8" />
      <path d="M 130.7,797.8 130.7,848.8" />
      <path d="M 133.8,797.8 133.8,848.8" />
      <path d="M 136.9,797.8 136.9,848.8" />
      <path d="M 140.0,797.8 140.0,848.8" />
      <path d="M 143.1,797.8 143.1,848.8" />
      <path d="M 146.2,797.8 146.2,848.8" />
      <path d="M 149.3,797.8 149.3,848.8" />
      <path d="M 152.4,797.8 152.4,848.8" />
      <path d="M 155.5,797.8 155.5,848.8" />
      <path d="M 158.6,797.8 158.6,848.8" />
      <path d="M 161.7,797.8 161.7,848.8" />
      <path d="M 164.8,797.8 164.8,848.8" />
      <path d="M 167.9,797.8 167.9,848.8" />
      <path d="M 171.1,797.8 171.1,848.8" />
      <path d="M 174.2,797.8 174.2,848.8" />
      <path d="M 177.3,797.8 177.3,848.8" />
      <path d="M 180.4,797.8 180.4,848.8" />
      <path d="M 183.5,797.8 183.5,848.8" />
      <path d="M 186.6,797.8 186.6,848.8" />
      <path d="M 189.7,797.8 189.7,848.8" />
      <path d="M 192.8,797.8 192.8,848.8" />
      <path d="M 195.9,797.8 195.9,848.8" />
      <path d="M 199.0,797.8 199.0,848.8" />
      <path d="M 202.1,797.8 202.1,848.8" />
      <path d="M 205.2,797.8 205.2,848.8" />
      <path d="M 208.3,797.8 208.3,848.8" />
      <path d="M 211.4,797.8 211.4,848.8" />
      <path d="M 214.5,797.8 214.5,848.8" />
      <path d="M 217.7,797.8 217.7,848.8" />
      <path d="M 220.8,797.8 220.8,848.8" />
      <path d="M 223.9,797.8 223.9,848.8" />
      <path d="M 227.0,797.8 227.0,848.8" />
      <path d="M 230.1,797.8 230.1,848.8" />
      <path d="M 233.2,797.8 233.2,848.8" />
      <path d="M 236.3,797.8 236.3,848.8" />
      <path d="M 239.4,797.8 239.4,848.8" />
      <path d="M 242.5,797.8 242.5,848.8" />
      <path d="M 245.6,797.8 245.6,848.8" />
      <path d="M 248.7,797.8 248.7,848.8" />
      <path d="M 251.8,797.8 251.8,848.8" />
      <path d="M 254.9,797.8 254.9,848.8" />
      <path d="M 258.0,797.8 258.0,848.8" />
      <path d="M 261.1,797.8 261.1,848.8" />
      <path d="M 264.3,797.8 264.3,848.8" />
      <path d="M 267.4,797.8 267.4,848.8" />
      <path d="M 270.5,797.8 270.5,848.8" />
      <path d="M 273.6,797.8 273.6,848.8" />
      <path d="M 276.7,797.8 276.7,848.8" />
      <path d="M 279.8,797.8 279.8,848.8" />
      <path d="M 282.9,797.8 282.9,848.8" />
      <path d="M 286.0,797.8 286.0,848.8" />
      <path d="M 289.1,797.8 289.1,848.8" />
      <path d="M 292.2,797.8 292.2,848.8" />
      <path d="M 295.3,797.8 295.3,848.8" />
      <path d="M 298.4,797.8 298.4,848.8" />
      <path d="M 301.5,797.8 301.5,848.8" />
      <path d="M 304.6,797.8 304.6,848.8" />
      <path d="M 307.7,797.8 307.7,848.8" />
      <path d="M 310.9,797.8 310.9,848.8" />
      <path d="M 314.0,797.8 314.0,848.8" />
      <path d="M 317.1,797.8 317.1,848.8" />
      <path d="M 320.2,797.8 320.2,848.8" />
      <path d="M 323.3,797.8 323.3,848.8" />
      <path d="M 326.4,797.8 326.4,848.8" />
      <path d="M 329.5,797.8 329.5,848.8" />
      <path d="M 332.6,797.8 332.6,848.8" />
      <path d="M 335.7,797.8 335.7,848.8" />
      <path d="M 338.8,797.8 338.8,848.8" />
      <path d="M 341.9,797.8 341.9,848.8" />
      <path d="M 345.0,797.8 345.0,848.8" />
      <path d="M 348.1,797.8 348.1,848.8" />
      <path d="M 351.2,797.8 351.2,848.8" />
      <path d="M 354.3,797.8 354.3,848.8" />
      <path d="M 357.4,797.8 357.4,848.8" />
      <path d="M 360.6,797.8 360.6,848.8" />
      <path d="M 363.7,797.8 363.7,848.8" />
      <path d="M 366.8,797.8 366.8,848.8" />
      <path d="M 369.9,797.8 369.9,848.8" />
      <path d="M 373.0,797.8 373.0,848.8" />
      <path d="M 376.1,797.8 376.1,848.8" />
      <path d="M 379.2,797.8 379.2,848.8" />
      <path d="M 382.3,797.8 382.3,848.8" />
      <path d="M 385.4,797.8 385.4,848.8" />
      <path d="M 388.5,797.8 388.5,848.8" />
      <path d="M 391.6,797.8 391.6,848.8" />
      <path d="M 394.7,797.8 394.7,848.8" />
      <path d="M 397.8,797.8 397.8,848.8" />
      <path d="M 400.9,797.8 400.9,848.8" />
      <path d="M 404.0,797.8 404.0,848.8" />
      <path d="M 407.2,797.8 407.2,848.8" />
      <path d="M 410.3,797.8 410.3,848.8" />
      <path d="M 413.4,797.8 413.4,848.8" />
      <path d="M 445.0,831.4 445.0,872.2" />
      <path d="M 448.1,831.4 448.1,872.2" />
      <path d="M 451.2,831.4 451.2,872.2" />
      <path d="M 454.3,831.4 454.3,872.2" />
      <path d="M 457.5,831.4 457.5,872.2" />
      <path d="M 460.6,831.4 460.6,872.2" />
      <path d="M 463.7,831.4 463.7,872.2" />
      <path d="M 466.8,831.4 466.8,872.2" />
      <path d="M 469.9,831.4 469.9,872.2" />
      <path d="M 473.0,831.4 473.0,872.2" />
      <path d="M 476.1,831.4 476.1,872.2" />
      <path d="M 479.2,831.4 479.2,872.2" />
      <path d="M 482.3,831.4 482.3,872.2" />
      <path d="M 485.4,831.4 485.4,872.2" />
      <path d="M 14.4, 831.4 14.4, 872.2" />
      <path d="M 17.5, 831.4 17.5, 872.2" />
      <path d="M 20.6, 831.4 20.6, 872.2" />
      <path d="M 23.8, 831.4 23.8, 872.2" />
      <path d="M 26.9, 831.4 26.9, 872.2" />
      <path d="M 30.0, 831.4 30.0, 872.2" />
      <path d="M 33.1, 831.4 33.1, 872.2" />
      <path d="M 36.2, 831.4 36.2, 872.2" />
      <path d="M 39.3, 831.4 39.3, 872.2" />
      <path d="M 42.4, 831.4 42.4, 872.2" />
      <path d="M 45.5, 831.4 45.5, 872.2" />
      <path d="M 48.6, 831.4 48.6, 872.2" />
      <path d="M 51.7, 831.4 51.7, 872.2" />
      <path d="M 54.8, 831.4 54.8, 872.2" />
    </g> 
    <g transform="matrix(0.8020077453,0,0,0.8026554815,-53.05146034,69.399258)" id="seams">
      <path d="M 585.3616069,905.7101887 170.6291724,905.7101887" />
      <path d="M 617.2678801,947.3817342 675.9974895,947.3817342" />
      <path d="M 79.90226164,947.4821363 139.1075418,947.4821363" />
    </g>
    <path id="hood" d="M 236.250702,270.8511498 C 264.4666874,242.6294781 287.7305391,247.3720519 325.1087269,230.9913759 351.5168936,215.5766349 362.4345039,230.4930884 384.6028947,204.133194 386.0968631,199.6476442 386.1954224,191.9743732 382.3145664,190.7721856 363.2382565,171.5312746 156.7471329,165.9630725 148.5236512,204.3263753 166.4763644,246.5406348 221.7791134,237.8159469 263.0938011,251.1846083" />
    <path id="inside" d="M 319.5503249,232.5758108 C 263.1988795,218.5575571 237.1126459,227.6690329 201.1359737,238.7474805 L 263.7415995,251.0327711 319.5503249,232.5758108 z" />
  </g>
</svg>
