<?xml version="1.0" encoding="UTF-8" standalone="no"?>
<svg
    width ="4198.81890165"
    height ="2964.5078768485"
    viewbox ="0 0 4198.81890165 2964.5078768485" xmlns:dc="http://purl.org/dc/elements/1.1/"
    xmlns:cc="http://creativecommons.org/ns#"
    xmlns:rdf="http://www.w3.org/1999/02/22-rdf-syntax-ns#"
    xmlns:svg="http://www.w3.org/2000/svg"
    xmlns="http://www.w3.org/2000/svg"
    xmlns:xlink="http://www.w3.org/1999/xlink"
    xmlns:sodipodi="http://sodipodi.sourceforge.net/DTD/sodipodi-0.dtd"
    xmlns:inkscape="http://www.inkscape.org/namespaces/inkscape" 
>

<style type="text/css">
    <![CDATA[
    path { fill: none; stroke: #000000; stroke-opacity:1; stroke-width: 0.5; stroke-miterlimit:4; stroke-dashoffset:0; stroke-linecap:round; stroke-linejoin:round; }
    path.hidden { fill: none; stroke: none; }]]>
</style>


<!-- Start of group #patternScaleContainer -->
<g id="patternScaleContainer"  transform=" scale(3.54330709 ) " >
    
    <!-- Start of group #top -->
    <g id="top"  transform=" translate(5 451.65)  translate(0 0) " >
        <path class="hidden" id="2"  d=" M  0,-446.65  L  1175,-446.65  L  1175,380  L  0,380  z " />
<path transform="translate( 0, 0 )" style="stroke: hsl(26.9, 55%, 50%);" id="2"  d=" M  0,-446.65  L  0,380  100,380  C  100,380  119,340  195,340  C  271,340  290,380  290,380  L  675,380  L  675,-446.65  z " />
<path transform="translate( 0, 0 )" style="stroke: hsl(26.9, 55%, 50%);" id="3"  d=" M  140.764,-127.614  L  463.041,-419.784  M  73.799,337.414  L  100,380  M  5,0  L  5,50  M  100,380  C  100,380  119,340  195,340  C  271,340  290,380  290,380 " />
<path transform="translate( 0, 0 )" style="stroke: hsl(53.8, 55%, 50%);" id="4"  d=" M  0,-446.65  L  0,380  100,380  C  100,380  119,340  195,340  C  271,340  290,380  290,380  L  725,380  L  725,-446.65  z " />
<path transform="translate( 0, 0 )" style="stroke: hsl(53.8, 55%, 50%);" id="5"  d=" M  140.764,-127.614  L  463.041,-419.784  M  73.799,337.414  L  100,380  M  5,0  L  5,50  M  100,380  C  100,380  119,340  195,340  C  271,340  290,380  290,380 " />
<path transform="translate( 0, 0 )" style="stroke: hsl(80.7, 55%, 50%);" id="6"  d=" M  0,-446.65  L  0,380  100,380  C  100,380  119,340  195,340  C  271,340  290,380  290,380  L  775,380  L  775,-446.65  z " />
<path transform="translate( 0, 0 )" style="stroke: hsl(80.7, 55%, 50%);" id="7"  d=" M  140.764,-127.614  L  463.041,-419.784  M  73.799,337.414  L  100,380  M  5,0  L  5,50  M  100,380  C  100,380  119,340  195,340  C  271,340  290,380  290,380 " />
<path transform="translate( 0, 0 )" style="stroke: hsl(107.6, 55%, 50%);" id="8"  d=" M  0,-446.65  L  0,380  100,380  C  100,380  119,340  195,340  C  271,340  290,380  290,380  L  825,380  L  825,-446.65  z " />
<path transform="translate( 0, 0 )" style="stroke: hsl(107.6, 55%, 50%);" id="9"  d=" M  140.764,-127.614  L  463.041,-419.784  M  73.799,337.414  L  100,380  M  5,0  L  5,50  M  100,380  C  100,380  119,340  195,340  C  271,340  290,380  290,380 " />
<path transform="translate( 0, 0 )" style="stroke: hsl(134.5, 55%, 50%);" id="10"  d=" M  0,-446.65  L  0,380  100,380  C  100,380  119,340  195,340  C  271,340  290,380  290,380  L  875,380  L  875,-446.65  z " />
<path transform="translate( 0, 0 )" style="stroke: hsl(134.5, 55%, 50%);" id="11"  d=" M  140.764,-127.614  L  463.041,-419.784  M  73.799,337.414  L  100,380  M  5,0  L  5,50  M  100,380  C  100,380  119,340  195,340  C  271,340  290,380  290,380 " />
<path transform="translate( 0, 0 )" style="stroke: hsl(161.4, 55%, 50%);" id="12"  d=" M  0,-446.65  L  0,380  100,380  C  100,380  119,340  195,340  C  271,340  290,380  290,380  L  925,380  L  925,-446.65  z " />
<path transform="translate( 0, 0 )" style="stroke: hsl(161.4, 55%, 50%);" id="13"  d=" M  140.764,-127.614  L  463.041,-419.784  M  73.799,337.414  L  100,380  M  5,0  L  5,50  M  100,380  C  100,380  119,340  195,340  C  271,340  290,380  290,380 " />
<path transform="translate( 0, 0 )" style="stroke: hsl(188.3, 55%, 50%);" id="14"  d=" M  0,-446.65  L  0,380  100,380  C  100,380  119,340  195,340  C  271,340  290,380  290,380  L  975,380  L  975,-446.65  z " />
<path transform="translate( 0, 0 )" style="stroke: hsl(188.3, 55%, 50%);" id="15"  d=" M  140.764,-127.614  L  463.041,-419.784  M  73.799,337.414  L  100,380  M  5,0  L  5,50  M  100,380  C  100,380  119,340  195,340  C  271,340  290,380  290,380 " />
<path transform="translate( 0, 0 )" style="stroke: hsl(215.2, 55%, 50%);" id="16"  d=" M  0,-446.65  L  0,380  100,380  C  100,380  119,340  195,340  C  271,340  290,380  290,380  L  1025,380  L  1025,-446.65  z " />
<path transform="translate( 0, 0 )" style="stroke: hsl(215.2, 55%, 50%);" id="17"  d=" M  140.764,-127.614  L  463.041,-419.784  M  73.799,337.414  L  100,380  M  5,0  L  5,50  M  100,380  C  100,380  119,340  195,340  C  271,340  290,380  290,380 " />
<path transform="translate( 0, 0 )" style="stroke: hsl(242.1, 55%, 50%);" id="18"  d=" M  0,-446.65  L  0,380  100,380  C  100,380  119,340  195,340  C  271,340  290,380  290,380  L  1075,380  L  1075,-446.65  z " />
<path transform="translate( 0, 0 )" style="stroke: hsl(242.1, 55%, 50%);" id="19"  d=" M  140.764,-127.614  L  463.041,-419.784  M  73.799,337.414  L  100,380  M  5,0  L  5,50  M  100,380  C  100,380  119,340  195,340  C  271,340  290,380  290,380 " />
<path transform="translate( 0, 0 )" style="stroke: hsl(269, 55%, 50%);" id="20"  d=" M  0,-446.65  L  0,380  100,380  C  100,380  119,340  195,340  C  271,340  290,380  290,380  L  1125,380  L  1125,-446.65  z " />
<path transform="translate( 0, 0 )" style="stroke: hsl(269, 55%, 50%);" id="21"  d=" M  140.764,-127.614  L  463.041,-419.784  M  73.799,337.414  L  100,380  M  5,0  L  5,50  M  100,380  C  100,380  119,340  195,340  C  271,340  290,380  290,380 " />
<path transform="translate( 0, 0 )" style="stroke: hsl(295.9, 55%, 50%);" id="22"  d=" M  0,-446.65  L  0,380  100,380  C  100,380  119,340  195,340  C  271,340  290,380  290,380  L  1175,380  L  1175,-446.65  z " />
<path transform="translate( 0, 0 )" style="stroke: hsl(295.9, 55%, 50%);" id="23"  d=" M  140.764,-127.614  L  463.041,-419.784  M  73.799,337.414  L  100,380  M  5,0  L  5,50  M  100,380  C  100,380  119,340  195,340  C  271,340  290,380  290,380 " />
    </g>
    <!-- End of group #top -->
    
    <!-- Start of group #sampler-top -->
    <g id="sampler-top"  transform=" translate(0 0)  translate(1185 0) " >
    </g>
    <!-- End of group #sampler-top -->
</g>
<!-- End of group #patternScaleContainer -->

</svg>

