<?xml version="1.0" encoding="UTF-8" standalone="no"?>
<svg
    width ="1009.84252065"
    height ="2354.7011833524"
    viewbox ="0 0 1009.84252065 2354.7011833524" xmlns:dc="http://purl.org/dc/elements/1.1/"
    xmlns:cc="http://creativecommons.org/ns#"
    xmlns:rdf="http://www.w3.org/1999/02/22-rdf-syntax-ns#"
    xmlns:svg="http://www.w3.org/2000/svg"
    xmlns="http://www.w3.org/2000/svg"
    xmlns:xlink="http://www.w3.org/1999/xlink"
    xmlns:sodipodi="http://sodipodi.sourceforge.net/DTD/sodipodi-0.dtd"
    xmlns:inkscape="http://www.inkscape.org/namespaces/inkscape" 
>

<style type="text/css">
    <![CDATA[
    path { fill: none; stroke: #000000; stroke-opacity:1; stroke-width: 0.5; stroke-miterlimit:4; stroke-dashoffset:0; stroke-linecap:round; stroke-linejoin:round; }
    path.hidden { fill: none; stroke: none; }]]>
</style>


<!-- Start of group #patternScaleContainer -->
<g id="patternScaleContainer"  transform=" scale(3.54330709 ) " >
    
    <!-- Start of group #back -->
    <g id="back"  transform=" translate(5 4.549)  translate(0 0) " >
        <path class="hidden" id="2"  d=" M  0,0.451  L  275,0.451  L  275,655  L  0,655  z " />
<path transform="translate( 0, 0 )" style="stroke: hsl(26.9, 55%, 50%);" id="34"  d=" M  5,25  C  5,25  0,174.425  0,323.85  L  0,505  L  0,655  L  130.625,655  L  130.625,640  C  130.625,615  129.062,538.75  129.062,505  C  129.062,459.712  137.5,323.85  137.5,323.85  C  137.5,323.85  145.938,459.712  145.938,505  C  145.938,538.75  144.375,615  144.375,640  L  144.375,655  L  261.25,655  L  261.25,640  C  261.25,605  258.125,538.75  258.125,505  C  258.125,459.712  275,369.137  275,323.85  C  262.5,323.85  244.478,318.364  231.232,305.118  C  217.986,291.872  200,223.4  200,174.425  C  200,125.45  216.876,43.693  219.211,33.969  L  91.569,3.324  C  88.245,23.046  5,25  5,25  z " />
<path transform="translate( 0, 0 )" style="stroke: hsl(53.8, 55%, 50%);" id="67"  d=" M  7.773,23.786  C  7.773,23.786  0,174.425  0,323.85  L  0,505  L  0,655  L  130.625,655  L  130.625,640  C  130.625,615  129.062,538.75  129.062,505  C  129.062,459.712  137.5,323.85  137.5,323.85  C  137.5,323.85  145.938,459.712  145.938,505  C  145.938,538.75  144.375,615  144.375,640  L  144.375,655  L  261.25,655  L  261.25,640  C  261.25,605  258.125,538.75  258.125,505  C  258.125,459.712  275,369.137  275,323.85  C  262.5,323.85  244.478,318.364  231.232,305.118  C  217.986,291.872  200.927,223.983  201.381,175.01  C  201.834,126.037  219.467,44.44  221.892,34.738  L  94.539,2.912  C  91.033,22.603  7.773,23.786  7.773,23.786  z " />
<path transform="translate( 0, 0 )" style="stroke: hsl(80.7, 55%, 50%);" id="100"  d=" M  10.558,22.597  C  10.558,22.597  0,174.425  0,323.85  L  0,505  L  0,655  L  130.625,655  L  130.625,640  C  130.625,615  129.062,538.75  129.062,505  C  129.062,459.712  137.5,323.85  137.5,323.85  C  137.5,323.85  145.938,459.712  145.938,505  C  145.938,538.75  144.375,615  144.375,640  L  144.375,655  L  261.25,655  L  261.25,640  C  261.25,605  258.125,538.75  258.125,505  C  258.125,459.712  275,369.137  275,323.85  C  262.5,323.85  244.478,318.364  231.232,305.118  C  217.986,291.872  201.85,224.575  202.757,175.608  C  203.664,126.642  222.052,45.211  224.567,35.532  L  97.514,2.528  C  93.825,22.185  10.558,22.597  10.558,22.597  z " />
<path transform="translate( 0, 0 )" style="stroke: hsl(107.6, 55%, 50%);" id="133"  d=" M  13.353,21.435  C  13.353,21.435  0,174.425  0,323.85  L  0,505  L  0,655  L  130.625,655  L  130.625,640  C  130.625,615  129.062,538.75  129.062,505  C  129.062,459.712  137.5,323.85  137.5,323.85  C  137.5,323.85  145.938,459.712  145.938,505  C  145.938,538.75  144.375,615  144.375,640  L  144.375,655  L  261.25,655  L  261.25,640  C  261.25,605  258.125,538.75  258.125,505  C  258.125,459.712  275,369.137  275,323.85  C  262.5,323.85  244.478,318.364  231.232,305.118  C  217.986,291.872  202.766,225.175  204.127,176.219  C  205.487,127.263  224.628,46.006  227.232,36.351  L  100.491,2.172  C  96.62,21.794  13.353,21.435  13.353,21.435  z " />
<path transform="translate( 0, 0 )" style="stroke: hsl(134.5, 55%, 50%);" id="166"  d=" M  16.159,20.298  C  16.159,20.298  0,174.425  0,323.85  L  0,505  L  0,655  L  130.625,655  L  130.625,640  C  130.625,615  129.062,538.75  129.062,505  C  129.062,459.712  137.5,323.85  137.5,323.85  C  137.5,323.85  145.938,459.712  145.938,505  C  145.938,538.75  144.375,615  144.375,640  L  144.375,655  L  261.25,655  L  261.25,640  C  261.25,605  258.125,538.75  258.125,505  C  258.125,459.712  275,369.137  275,323.85  C  262.5,323.85  244.478,318.364  231.232,305.118  C  217.986,291.872  203.677,225.784  205.491,176.842  C  207.305,127.901  227.198,46.825  229.891,37.194  L  103.472,1.843  C  99.42,21.428  16.159,20.298  16.159,20.298  z " />
<path transform="translate( 0, 0 )" style="stroke: hsl(161.4, 55%, 50%);" id="199"  d=" M  18.974,19.188  C  18.974,19.188  0,174.425  0,323.85  L  0,505  L  0,655  L  130.625,655  L  130.625,640  C  130.625,615  129.062,538.75  129.062,505  C  129.062,459.712  137.5,323.85  137.5,323.85  C  137.5,323.85  145.938,459.712  145.938,505  C  145.938,538.75  144.375,615  144.375,640  L  144.375,655  L  261.25,655  L  261.25,640  C  261.25,605  258.125,538.75  258.125,505  C  258.125,459.712  275,369.137  275,323.85  C  262.5,323.85  244.478,318.364  231.232,305.118  C  217.986,291.872  204.582,226.4  206.849,177.478  C  209.116,128.555  229.758,47.667  232.541,38.062  L  106.454,1.542  C  102.221,21.089  18.974,19.188  18.974,19.188  z " />
<path transform="translate( 0, 0 )" style="stroke: hsl(188.3, 55%, 50%);" id="232"  d=" M  21.795,18.105  C  21.795,18.105  0,174.425  0,323.85  L  0,505  L  0,655  L  130.625,655  L  130.625,640  C  130.625,615  129.062,538.75  129.062,505  C  129.062,459.712  137.5,323.85  137.5,323.85  C  137.5,323.85  145.938,459.712  145.938,505  C  145.938,538.75  144.375,615  144.375,640  L  144.375,655  L  261.25,655  L  261.25,640  C  261.25,605  258.125,538.75  258.125,505  C  258.125,459.712  275,369.137  275,323.85  C  262.5,323.85  244.478,318.364  231.232,305.118  C  217.986,291.872  205.48,227.025  208.199,178.125  C  210.918,129.226  232.307,48.532  235.178,38.952  L  109.434,1.268  C  105.02,20.775  21.795,18.105  21.795,18.105  z " />
<path transform="translate( 0, 0 )" style="stroke: hsl(215.2, 55%, 50%);" id="265"  d=" M  24.63,17.047  C  24.63,17.047  0,174.425  0,323.85  L  0,505  L  0,655  L  130.625,655  L  130.625,640  C  130.625,615  129.062,538.75  129.062,505  C  129.062,459.712  137.5,323.85  137.5,323.85  C  137.5,323.85  145.938,459.712  145.938,505  C  145.938,538.75  144.375,615  144.375,640  L  144.375,655  L  261.25,655  L  261.25,640  C  261.25,605  258.125,538.75  258.125,505  C  258.125,459.712  275,369.137  275,323.85  C  262.5,323.85  244.478,318.364  231.232,305.118  C  217.986,291.872  206.373,227.658  209.545,178.786  C  212.716,129.914  234.851,49.421  237.811,39.869  L  112.421,1.022  C  107.827,20.488  24.63,17.047  24.63,17.047  z " />
<path transform="translate( 0, 0 )" style="stroke: hsl(242.1, 55%, 50%);" id="298"  d=" M  27.473,16.016  C  27.473,16.016  0,174.425  0,323.85  L  0,505  L  0,655  L  130.625,655  L  130.625,640  C  130.625,615  129.062,538.75  129.062,505  C  129.062,459.712  137.5,323.85  137.5,323.85  C  137.5,323.85  145.938,459.712  145.938,505  C  145.938,538.75  144.375,615  144.375,640  L  144.375,655  L  261.25,655  L  261.25,640  C  261.25,605  258.125,538.75  258.125,505  C  258.125,459.712  275,369.137  275,323.85  C  262.5,323.85  244.478,318.364  231.232,305.118  C  217.986,291.872  207.26,228.299  210.883,179.458  C  214.507,130.618  237.385,50.333  240.433,40.809  L  115.408,0.804  C  110.634,20.226  27.473,16.016  27.473,16.016  z " />
<path transform="translate( 0, 0 )" style="stroke: hsl(269, 55%, 50%);" id="331"  d=" M  30.325,15.012  C  30.325,15.012  0,174.425  0,323.85  L  0,505  L  0,655  L  130.625,655  L  130.625,640  C  130.625,615  129.062,538.75  129.062,505  C  129.062,459.712  137.5,323.85  137.5,323.85  C  137.5,323.85  145.938,459.712  145.938,505  C  145.938,538.75  144.375,615  144.375,640  L  144.375,655  L  261.25,655  L  261.25,640  C  261.25,605  258.125,538.75  258.125,505  C  258.125,459.712  275,369.137  275,323.85  C  262.5,323.85  244.478,318.364  231.232,305.118  C  217.986,291.872  208.141,228.949  212.216,180.143  C  216.291,131.338  239.911,51.269  243.047,41.773  L  118.397,0.614  C  113.444,19.991  30.325,15.012  30.325,15.012  z " />
<path transform="translate( 0, 0 )" style="stroke: hsl(295.9, 55%, 50%);" id="364"  d=" M  33.184,14.034  C  33.184,14.034  0,174.425  0,323.85  L  0,505  L  0,655  L  130.625,655  L  130.625,640  C  130.625,615  129.062,538.75  129.062,505  C  129.062,459.712  137.5,323.85  137.5,323.85  C  137.5,323.85  145.938,459.712  145.938,505  C  145.938,538.75  144.375,615  144.375,640  L  144.375,655  L  261.25,655  L  261.25,640  C  261.25,605  258.125,538.75  258.125,505  C  258.125,459.712  275,369.137  275,323.85  C  262.5,323.85  244.478,318.364  231.232,305.118  C  217.986,291.872  209.015,229.605  213.541,180.84  C  218.067,132.075  242.426,52.227  245.649,42.76  L  121.385,0.451  C  116.253,19.781  33.184,14.034  33.184,14.034  z " />
    </g>
    <!-- End of group #back -->
</g>
<!-- End of group #patternScaleContainer -->

</svg>

