<?xml version="1.0" encoding="UTF-8" standalone="no"?>
<svg
    width ="1009.84252065"
    height ="2349.2338605125"
    viewbox ="0 0 1009.84252065 2349.2338605125" xmlns:dc="http://purl.org/dc/elements/1.1/"
    xmlns:cc="http://creativecommons.org/ns#"
    xmlns:rdf="http://www.w3.org/1999/02/22-rdf-syntax-ns#"
    xmlns:svg="http://www.w3.org/2000/svg"
    xmlns="http://www.w3.org/2000/svg"
    xmlns:xlink="http://www.w3.org/1999/xlink"
    xmlns:sodipodi="http://sodipodi.sourceforge.net/DTD/sodipodi-0.dtd"
    xmlns:inkscape="http://www.inkscape.org/namespaces/inkscape" 
>

<style type="text/css">
    <![CDATA[
    path { fill: none; stroke: #000000; stroke-opacity:1; stroke-width: 0.5; stroke-miterlimit:4; stroke-dashoffset:0; stroke-linecap:round; stroke-linejoin:round; }
    path.hidden { fill: none; stroke: none; }]]>
</style>


<!-- Start of group #patternScaleContainer -->
<g id="patternScaleContainer"  transform=" scale(3.54330709 ) " >
    
    <!-- Start of group #back -->
    <g id="back"  transform=" translate(5 3.006)  translate(0 0) " >
        <path class="hidden" id="2"  d=" M  0,1.994  L  275,1.994  L  275,655  L  0,655  z " />
<path transform="translate( 0, 0 )" style="stroke: hsl(26.9, 55%, 50%);" id="34"  d=" M  14.054,21.148  C  14.054,21.148  0,174.425  0,323.85  L  0,505  L  0,655  L  130.625,655  L  130.625,640  C  130.625,615  129.062,538.75  129.062,505  C  129.062,459.712  137.5,323.85  137.5,323.85  C  137.5,323.85  145.938,459.712  145.938,505  C  145.938,538.75  144.375,615  144.375,640  L  144.375,655  L  261.25,655  L  261.25,640  C  261.25,605  258.125,538.75  258.125,505  C  258.125,459.712  275,369.137  275,323.85  C  262.5,323.85  249.478,318.364  236.232,305.118  C  222.986,291.872  212.99,225.627  214.464,176.675  C  215.938,127.722  225.271,46.209  227.898,36.559  L  101.236,2.087  C  97.32,21.7  14.054,21.148  14.054,21.148  z " />
<path transform="translate( 0, 0 )" style="stroke: hsl(53.8, 55%, 50%);" id="67"  d=" M  14.151,21.108  C  14.151,21.108  0,174.425  0,323.85  L  0,505  L  0,655  L  130.625,655  L  130.625,640  C  130.625,615  129.062,538.75  129.062,505  C  129.062,459.712  137.5,323.85  137.5,323.85  C  137.5,323.85  145.938,459.712  145.938,505  C  145.938,538.75  144.375,615  144.375,640  L  144.375,655  L  261.25,655  L  261.25,640  C  261.25,605  258.125,538.75  258.125,505  C  258.125,459.712  275,369.137  275,323.85  C  262.5,323.85  247.478,318.364  234.232,305.118  C  220.986,291.872  209.024,225.53  210.513,176.578  C  212.003,127.625  225.361,46.237  227.99,36.588  L  101.339,2.075  C  97.417,21.687  14.151,21.108  14.151,21.108  z " />
<path transform="translate( 0, 0 )" style="stroke: hsl(80.7, 55%, 50%);" id="100"  d=" M  14.241,21.072  C  14.241,21.072  0,174.425  0,323.85  L  0,505  L  0,655  L  130.625,655  L  130.625,640  C  130.625,615  129.062,538.75  129.062,505  C  129.062,459.712  137.5,323.85  137.5,323.85  C  137.5,323.85  145.938,459.712  145.938,505  C  145.938,538.75  144.375,615  144.375,640  L  144.375,655  L  261.25,655  L  261.25,640  C  261.25,605  258.125,538.75  258.125,505  C  258.125,459.712  275,369.137  275,323.85  C  262.5,323.85  245.478,318.364  232.232,305.118  C  218.986,291.872  205.055,225.428  206.559,176.476  C  208.063,127.525  225.443,46.263  228.075,36.615  L  101.435,2.065  C  97.507,21.675  14.241,21.072  14.241,21.072  z " />
<path transform="translate( 0, 0 )" style="stroke: hsl(107.6, 55%, 50%);" id="133"  d=" M  14.329,21.036  C  14.329,21.036  0,174.425  0,323.85  L  0,505  L  0,655  L  130.625,655  L  130.625,640  C  130.625,615  129.062,538.75  129.062,505  C  129.062,459.712  137.5,323.85  137.5,323.85  C  137.5,323.85  145.938,459.712  145.938,505  C  145.938,538.75  144.375,615  144.375,640  L  144.375,655  L  261.25,655  L  261.25,640  C  261.25,605  258.125,538.75  258.125,505  C  258.125,459.712  275,369.137  275,323.85  C  262.5,323.85  243.478,318.364  230.232,305.118  C  216.986,291.872  201.085,225.324  202.604,176.373  C  204.122,127.421  225.524,46.289  228.159,36.642  L  101.529,2.054  C  97.595,21.663  14.329,21.036  14.329,21.036  z " />
<path transform="translate( 0, 0 )" style="stroke: hsl(134.5, 55%, 50%);" id="166"  d=" M  14.415,21.001  C  14.415,21.001  0,174.425  0,323.85  L  0,505  L  0,655  L  130.625,655  L  130.625,640  C  130.625,615  129.062,538.75  129.062,505  C  129.062,459.712  137.5,323.85  137.5,323.85  C  137.5,323.85  145.938,459.712  145.938,505  C  145.938,538.75  144.375,615  144.375,640  L  144.375,655  L  261.25,655  L  261.25,640  C  261.25,605  258.125,538.75  258.125,505  C  258.125,459.712  275,369.137  275,323.85  C  262.5,323.85  241.478,318.364  228.232,305.118  C  214.986,291.872  197.115,225.217  198.647,176.266  C  200.179,127.315  225.602,46.313  228.24,36.667  L  101.619,2.044  C  97.68,21.652  14.415,21.001  14.415,21.001  z " />
<path transform="translate( 0, 0 )" style="stroke: hsl(161.4, 55%, 50%);" id="199"  d=" M  14.5,20.966  C  14.5,20.966  0,174.425  0,323.85  L  0,505  L  0,655  L  130.625,655  L  130.625,640  C  130.625,615  129.062,538.75  129.062,505  C  129.062,459.712  137.5,323.85  137.5,323.85  C  137.5,323.85  145.938,459.712  145.938,505  C  145.938,538.75  144.375,615  144.375,640  L  144.375,655  L  261.25,655  L  261.25,640  C  261.25,605  258.125,538.75  258.125,505  C  258.125,459.712  275,369.137  275,323.85  C  262.5,323.85  239.478,318.364  226.232,305.118  C  212.986,291.872  193.145,225.107  194.691,176.157  C  196.237,127.206  225.68,46.338  228.321,36.693  L  101.71,2.034  C  97.765,21.641  14.5,20.966  14.5,20.966  z " />
<path transform="translate( 0, 0 )" style="stroke: hsl(188.3, 55%, 50%);" id="232"  d=" M  14.577,20.935  C  14.577,20.935  0,174.425  0,323.85  L  0,505  L  0,655  L  130.625,655  L  130.625,640  C  130.625,615  129.062,538.75  129.062,505  C  129.062,459.712  137.5,323.85  137.5,323.85  C  137.5,323.85  145.938,459.712  145.938,505  C  145.938,538.75  144.375,615  144.375,640  L  144.375,655  L  261.25,655  L  261.25,640  C  261.25,605  258.125,538.75  258.125,505  C  258.125,459.712  275,369.137  275,323.85  C  262.5,323.85  237.478,318.364  224.232,305.118  C  210.986,291.872  189.172,224.994  190.73,176.044  C  192.289,127.094  225.751,46.361  228.394,36.716  L  101.792,2.025  C  97.842,21.631  14.577,20.935  14.577,20.935  z " />
<path transform="translate( 0, 0 )" style="stroke: hsl(215.2, 55%, 50%);" id="265"  d=" M  14.65,20.905  C  14.65,20.905  0,174.425  0,323.85  L  0,505  L  0,655  L  130.625,655  L  130.625,640  C  130.625,615  129.062,538.75  129.062,505  C  129.062,459.712  137.5,323.85  137.5,323.85  C  137.5,323.85  145.938,459.712  145.938,505  C  145.938,538.75  144.375,615  144.375,640  L  144.375,655  L  261.25,655  L  261.25,640  C  261.25,605  258.125,538.75  258.125,505  C  258.125,459.712  275,369.137  275,323.85  C  262.5,323.85  235.478,318.364  222.232,305.118  C  208.986,291.872  185.198,224.878  186.768,175.929  C  188.338,126.979  225.818,46.382  228.463,36.738  L  101.87,2.016  C  97.915,21.621  14.65,20.905  14.65,20.905  z " />
<path transform="translate( 0, 0 )" style="stroke: hsl(242.1, 55%, 50%);" id="298"  d=" M  14.719,20.878  C  14.719,20.878  0,174.425  0,323.85  L  0,505  L  0,655  L  130.625,655  L  130.625,640  C  130.625,615  129.062,538.75  129.062,505  C  129.062,459.712  137.5,323.85  137.5,323.85  C  137.5,323.85  145.938,459.712  145.938,505  C  145.938,538.75  144.375,615  144.375,640  L  144.375,655  L  261.25,655  L  261.25,640  C  261.25,605  258.125,538.75  258.125,505  C  258.125,459.712  275,369.137  275,323.85  C  262.5,323.85  233.478,318.364  220.232,305.118  C  206.986,291.872  181.222,224.76  182.804,175.811  C  184.385,126.861  225.881,46.402  228.528,36.758  L  101.942,2.008  C  97.983,21.612  14.719,20.878  14.719,20.878  z " />
<path transform="translate( 0, 0 )" style="stroke: hsl(269, 55%, 50%);" id="331"  d=" M  14.783,20.851  C  14.783,20.851  0,174.425  0,323.85  L  0,505  L  0,655  L  130.625,655  L  130.625,640  C  130.625,615  129.062,538.75  129.062,505  C  129.062,459.712  137.5,323.85  137.5,323.85  C  137.5,323.85  145.938,459.712  145.938,505  C  145.938,538.75  144.375,615  144.375,640  L  144.375,655  L  261.25,655  L  261.25,640  C  261.25,605  258.125,538.75  258.125,505  C  258.125,459.712  275,369.137  275,323.85  C  262.5,323.85  231.478,318.364  218.232,305.118  C  204.986,291.872  177.246,224.639  178.837,175.69  C  180.429,126.741  225.94,46.421  228.589,36.778  L  102.011,2.001  C  98.048,21.604  14.783,20.851  14.783,20.851  z " />
<path transform="translate( 0, 0 )" style="stroke: hsl(295.9, 55%, 50%);" id="364"  d=" M  14.84,20.828  C  14.84,20.828  0,174.425  0,323.85  L  0,505  L  0,655  L  130.625,655  L  130.625,640  C  130.625,615  129.062,538.75  129.062,505  C  129.062,459.712  137.5,323.85  137.5,323.85  C  137.5,323.85  145.938,459.712  145.938,505  C  145.938,538.75  144.375,615  144.375,640  L  144.375,655  L  261.25,655  L  261.25,640  C  261.25,605  258.125,538.75  258.125,505  C  258.125,459.712  275,369.137  275,323.85  C  262.5,323.85  229.478,318.364  216.232,305.118  C  202.986,291.872  173.266,224.516  174.867,175.567  C  176.468,126.618  225.992,46.437  228.643,36.795  L  102.071,1.994  C  98.104,21.597  14.84,20.828  14.84,20.828  z " />
    </g>
    <!-- End of group #back -->
</g>
<!-- End of group #patternScaleContainer -->

</svg>

