<?xml version="1.0" encoding="UTF-8" standalone="no"?>
<svg
    width ="2171.6114193979"
    height ="2470.7515771641"
    viewbox ="0 0 2171.6114193979 2470.7515771641" xmlns:dc="http://purl.org/dc/elements/1.1/"
    xmlns:cc="http://creativecommons.org/ns#"
    xmlns:rdf="http://www.w3.org/1999/02/22-rdf-syntax-ns#"
    xmlns:svg="http://www.w3.org/2000/svg"
    xmlns="http://www.w3.org/2000/svg"
    xmlns:xlink="http://www.w3.org/1999/xlink"
    xmlns:sodipodi="http://sodipodi.sourceforge.net/DTD/sodipodi-0.dtd"
    xmlns:inkscape="http://www.inkscape.org/namespaces/inkscape" 
>

<style type="text/css">
    <![CDATA[
    path { fill: none; stroke: #000000; stroke-opacity:1; stroke-width: 0.5; stroke-miterlimit:4; stroke-dashoffset:0; stroke-linecap:round; stroke-linejoin:round; }
    path.hidden { fill: none; stroke: none; }]]>
</style>


<!-- Start of group #patternScaleContainer -->
<g id="patternScaleContainer"  transform=" scale(3.54330709 ) " >
    
    <!-- Start of group #frontBlock -->
    <g id="frontBlock"  transform=" translate(0 0)  translate(612.877 0) " >
    </g>
    <!-- End of group #frontBlock -->
    
    <!-- Start of group #backBlock -->
    <g id="backBlock"  transform=" translate(0 0)  translate(612.877 0) " >
    </g>
    <!-- End of group #backBlock -->
    
    <!-- Start of group #waistcoatFrontBlock -->
    <g id="waistcoatFrontBlock"  transform=" translate(0 0)  translate(612.877 0) " >
    </g>
    <!-- End of group #waistcoatFrontBlock -->
    
    <!-- Start of group #front -->
    <g id="front"  transform=" translate(15 1.676)  translate(0 0) " >
        <path class="hidden" id="2"  d=" M  -10,3.324  L  307.877,3.324  L  307.877,690.625  L  -10,690.625  z " />
<path transform="translate( 0, 0 )" style="stroke: hsl(26.9, 55%, 50%);" id="32"  d=" M  171.003,565.378  L  220.029,555.557  222.976,570.265  172.657,580.287  M  128.533,582.53  L  79.995,586.401  78.82,571.447  128.666,567.531 " />
<path transform="translate( 0, 0 )" style="stroke: hsl(26.9, 55%, 50%);" id="33"  d=" M  -10,243.85  L  -10,621.719  L  56.563,688.282  C  62.917,681.928  88.744,672.731  128.125,665.661  L  128.125,640  C  128.125,615  129.062,538.75  129.062,505  C  129.062,459.712  137.5,323.85  137.5,323.85  C  137.5,323.85  159.674,458.156  164.267,503.21  C  167.69,536.786  176.356,612.548  178.891,637.419  L  181.184,659.909  C  211.271,652.319  247.876,645.464  289.224,641.249  L  287.702,626.326  C  284.153,591.506  279.299,525.408  275.876,491.832  C  271.282,446.777  278.884,354.958  274.291,309.904  C  261.855,311.172  240.883,307.796  226.362,295.962  C  211.841,284.127  190,223.4  190,174.425  C  190,125.45  217.193,42.7  219.45,32.958  L  91.569,3.324  C  88.245,23.046  91.847,104  -10,243.85  z " />
<path transform="translate( 0, 0 )" style="stroke: hsl(53.8, 55%, 50%);" id="65"  d=" M  170.567,565.272  L  219.683,555.911  222.491,570.647  172.08,580.196  M  129.097,582.381  L  80.597,586.707  79.282,571.765  129.089,567.381 " />
<path transform="translate( 0, 0 )" style="stroke: hsl(53.8, 55%, 50%);" id="66"  d=" M  -10,243.85  L  -10,621.469  L  57.063,688.532  C  63.465,682.13  88.85,672.865  129.125,665.59  L  129.125,640  C  129.125,615  129.062,538.75  129.062,505  C  129.062,459.712  137.5,323.85  137.5,323.85  C  137.5,323.85  159.674,458.156  164.267,503.21  C  167.69,536.786  175.361,612.649  177.896,637.52  L  180.213,660.248  C  209.707,652.669  247.613,645.491  291.213,641.046  L  289.692,626.123  C  286.142,591.304  279.299,525.408  275.876,491.832  C  271.282,446.777  278.884,354.958  274.291,309.904  C  261.855,311.172  240.883,307.796  226.362,295.962  C  211.841,284.127  190,223.4  190,174.425  C  190,125.45  217.193,42.7  219.45,32.958  L  91.569,3.324  C  88.245,23.046  91.847,104  -10,243.85  z " />
<path transform="translate( 0, 0 )" style="stroke: hsl(80.7, 55%, 50%);" id="98"  d=" M  170.135,565.165  L  219.338,556.273  222.006,571.034  171.506,580.102  M  129.659,582.23  L  81.203,587.019  79.745,572.09  129.508,567.231 " />
<path transform="translate( 0, 0 )" style="stroke: hsl(80.7, 55%, 50%);" id="99"  d=" M  -10,243.85  L  -10,621.219  L  57.563,688.782  C  64.132,682.213  89.887,672.651  130.125,665.519  L  130.125,640  C  130.125,615  129.062,538.75  129.062,505  C  129.062,459.712  137.5,323.85  137.5,323.85  C  137.5,323.85  159.674,458.156  164.267,503.21  C  167.69,536.786  174.366,612.751  176.902,637.622  L  179.243,660.59  C  210.066,652.658  248.439,645.406  293.203,640.843  L  291.682,625.92  C  288.132,591.101  279.299,525.408  275.876,491.832  C  271.282,446.777  278.884,354.958  274.291,309.904  C  261.855,311.172  240.883,307.796  226.362,295.962  C  211.841,284.127  190,223.4  190,174.425  C  190,125.45  217.193,42.7  219.45,32.958  L  91.569,3.324  C  88.245,23.046  91.847,104  -10,243.85  z " />
<path transform="translate( 0, 0 )" style="stroke: hsl(107.6, 55%, 50%);" id="131"  d=" M  169.705,565.058  L  218.989,556.63  221.518,571.415  170.936,580.008  M  130.217,582.078  L  81.808,587.323  80.21,572.408  129.925,567.081 " />
<path transform="translate( 0, 0 )" style="stroke: hsl(107.6, 55%, 50%);" id="132"  d=" M  -10,243.85  L  -10,620.969  L  58.063,689.032  C  64.681,682.414  89.977,672.781  131.125,665.447  L  131.125,640  C  131.125,615  129.062,538.75  129.062,505  C  129.062,459.712  137.5,323.85  137.5,323.85  C  137.5,323.85  159.674,458.156  164.267,503.21  C  167.69,536.786  173.371,612.852  175.907,637.723  L  178.273,660.935  C  208.436,653.023  248.087,645.442  295.193,640.64  L  293.671,625.717  C  290.122,590.898  279.299,525.408  275.876,491.832  C  271.282,446.777  278.884,354.958  274.291,309.904  C  261.855,311.172  240.883,307.796  226.362,295.962  C  211.841,284.127  190,223.4  190,174.425  C  190,125.45  217.193,42.7  219.45,32.958  L  91.569,3.324  C  88.245,23.046  91.847,104  -10,243.85  z " />
<path transform="translate( 0, 0 )" style="stroke: hsl(134.5, 55%, 50%);" id="164"  d=" M  169.278,564.951  L  218.64,556.986  221.029,571.794  170.368,579.912  M  130.772,581.925  L  82.414,587.624  80.676,572.725  130.339,566.931 " />
<path transform="translate( 0, 0 )" style="stroke: hsl(134.5, 55%, 50%);" id="165"  d=" M  -10,243.85  L  -10,620.719  L  58.563,689.282  C  65.23,682.615  90.067,672.912  132.125,665.375  L  132.125,640  C  132.125,615  129.062,538.75  129.062,505  C  129.062,459.712  137.5,323.85  137.5,323.85  C  137.5,323.85  159.674,458.156  164.267,503.21  C  167.69,536.786  172.376,612.954  174.912,637.825  L  177.304,661.284  C  208.771,653.015  248.883,645.361  297.182,640.437  L  295.661,625.514  C  292.111,590.695  279.299,525.408  275.876,491.832  C  271.282,446.777  278.884,354.958  274.291,309.904  C  261.855,311.172  240.883,307.796  226.362,295.962  C  211.841,284.127  190,223.4  190,174.425  C  190,125.45  217.193,42.7  219.45,32.958  L  91.569,3.324  C  88.245,23.046  91.847,104  -10,243.85  z " />
<path transform="translate( 0, 0 )" style="stroke: hsl(161.4, 55%, 50%);" id="197"  d=" M  168.854,564.844  L  218.288,557.346  220.538,572.177  169.802,579.814  M  131.325,581.77  L  83.023,587.927  81.144,573.045  130.75,566.781 " />
<path transform="translate( 0, 0 )" style="stroke: hsl(161.4, 55%, 50%);" id="198"  d=" M  -10,243.85  L  -10,620.469  L  59.063,689.532  C  65.9,682.695  91.049,672.686  133.125,665.303  L  133.125,640  C  133.125,615  129.062,538.75  129.062,505  C  129.062,459.712  137.5,323.85  137.5,323.85  C  137.5,323.85  159.674,458.156  164.267,503.21  C  167.69,536.786  171.382,613.055  173.917,637.926  L  176.334,661.637  C  207.084,653.394  248.441,645.406  299.172,640.234  L  297.651,625.312  C  294.101,590.492  279.299,525.408  275.876,491.832  C  271.282,446.777  278.884,354.958  274.291,309.904  C  261.855,311.172  240.883,307.796  226.362,295.962  C  211.841,284.127  190,223.4  190,174.425  C  190,125.45  217.193,42.7  219.45,32.958  L  91.569,3.324  C  88.245,23.046  91.847,104  -10,243.85  z " />
<path transform="translate( 0, 0 )" style="stroke: hsl(188.3, 55%, 50%);" id="230"  d=" M  168.433,564.736  L  217.935,557.7  220.046,572.55  169.241,579.714  M  131.873,581.614  L  83.631,588.222  81.613,573.358  131.158,566.631 " />
<path transform="translate( 0, 0 )" style="stroke: hsl(188.3, 55%, 50%);" id="231"  d=" M  -10,243.85  L  -10,620.219  L  59.563,689.782  C  66.449,682.896  91.122,672.814  134.125,665.231  L  134.125,640  C  134.125,615  129.062,538.75  129.062,505  C  129.062,459.712  137.5,323.85  137.5,323.85  C  137.5,323.85  159.674,458.156  164.267,503.21  C  167.69,536.786  170.387,613.156  172.922,638.027  L  175.366,661.994  C  207.396,653.39  249.207,645.328  301.162,640.031  L  299.64,625.109  C  296.091,590.289  279.299,525.408  275.876,491.832  C  271.282,446.777  278.884,354.958  274.291,309.904  C  261.855,311.172  240.883,307.796  226.362,295.962  C  211.841,284.127  190,223.4  190,174.425  C  190,125.45  217.193,42.7  219.45,32.958  L  91.569,3.324  C  88.245,23.046  91.847,104  -10,243.85  z " />
<path transform="translate( 0, 0 )" style="stroke: hsl(215.2, 55%, 50%);" id="263"  d=" M  168.014,564.628  L  217.58,558.059  219.55,572.929  168.681,579.613  M  132.42,581.457  L  84.242,588.518  82.084,573.674  131.564,566.481 " />
<path transform="translate( 0, 0 )" style="stroke: hsl(215.2, 55%, 50%);" id="264"  d=" M  -10,243.85  L  -10,619.969  L  60.063,690.032  C  66.999,683.096  91.196,672.942  135.125,665.159  L  135.125,640  C  135.125,615  129.062,538.75  129.062,505  C  129.062,459.712  137.5,323.85  137.5,323.85  C  137.5,323.85  159.674,458.156  164.267,503.21  C  167.69,536.786  169.392,613.258  171.927,638.129  L  174.397,662.355  C  205.653,653.784  248.677,645.382  303.151,639.829  L  301.63,624.906  C  298.08,590.086  279.299,525.408  275.876,491.832  C  271.282,446.777  278.884,354.958  274.291,309.904  C  261.855,311.172  240.883,307.796  226.362,295.962  C  211.841,284.127  190,223.4  190,174.425  C  190,125.45  217.193,42.7  219.45,32.958  L  91.569,3.324  C  88.245,23.046  91.847,104  -10,243.85  z " />
<path transform="translate( 0, 0 )" style="stroke: hsl(242.1, 55%, 50%);" id="296"  d=" M  167.598,564.519  L  217.224,558.417  219.055,573.305  168.125,579.51  M  132.963,581.298  L  84.854,588.813  82.556,573.99  131.966,566.331 " />
<path transform="translate( 0, 0 )" style="stroke: hsl(242.1, 55%, 50%);" id="297"  d=" M  -10,243.85  L  -10,619.719  L  60.563,690.282  C  67.673,683.172  92.121,672.704  136.125,665.087  L  136.125,640  C  136.125,615  129.062,538.75  129.062,505  C  129.062,459.712  137.5,323.85  137.5,323.85  C  137.5,323.85  159.674,458.156  164.267,503.21  C  167.69,536.786  168.397,613.359  170.933,638.23  L  173.429,662.72  C  205.944,653.783  249.413,645.307  305.141,639.626  L  303.62,624.703  C  300.07,589.884  279.299,525.408  275.876,491.832  C  271.282,446.777  278.884,354.958  274.291,309.904  C  261.855,311.172  240.883,307.796  226.362,295.962  C  211.841,284.127  190,223.4  190,174.425  C  190,125.45  217.193,42.7  219.45,32.958  L  91.569,3.324  C  88.245,23.046  91.847,104  -10,243.85  z " />
<path transform="translate( 0, 0 )" style="stroke: hsl(269, 55%, 50%);" id="329"  d=" M  167.185,564.411  L  216.867,558.777  218.557,573.681  167.57,579.406  M  133.504,581.138  L  85.467,589.106  83.03,574.305  132.366,566.181 " />
<path transform="translate( 0, 0 )" style="stroke: hsl(269, 55%, 50%);" id="330"  d=" M  -10,243.85  L  -10,619.469  L  61.063,690.532  C  68.223,683.372  92.177,672.83  137.125,665.016  L  137.125,640  C  137.125,615  129.062,538.75  129.062,505  C  129.062,459.712  137.5,323.85  137.5,323.85  C  137.5,323.85  159.674,458.156  164.267,503.21  C  167.69,536.786  167.402,613.461  169.938,638.332  L  172.462,663.089  C  204.151,654.191  248.792,645.37  307.131,639.423  L  305.609,624.5  C  302.06,589.681  279.299,525.408  275.876,491.832  C  271.282,446.777  278.884,354.958  274.291,309.904  C  261.855,311.172  240.883,307.796  226.362,295.962  C  211.841,284.127  190,223.4  190,174.425  C  190,125.45  217.193,42.7  219.45,32.958  L  91.569,3.324  C  88.245,23.046  91.847,104  -10,243.85  z " />
<path transform="translate( 0, 0 )" style="stroke: hsl(295.9, 55%, 50%);" id="362"  d=" M  167.03,564.37  L  216.73,558.905  218.37,573.816  167.364,579.367  M  133.705,581.078  L  85.696,589.209  83.208,574.417  132.516,566.125 " />
<path transform="translate( 0, 0 )" style="stroke: hsl(295.9, 55%, 50%);" id="363"  d=" M  -10,243.85  L  -10,619.375  L  61.25,690.625  C  68.43,683.445  92.198,672.876  137.5,664.988  L  137.5,640  C  137.5,615  129.062,538.75  129.062,505  C  129.062,459.712  137.5,323.85  137.5,323.85  C  137.5,323.85  159.674,458.156  164.267,503.21  C  167.69,536.786  167.029,613.499  169.565,638.37  L  172.099,663.229  C  204.252,654.191  249.057,645.343  307.877,639.347  L  306.356,624.424  C  302.806,589.605  279.299,525.408  275.876,491.832  C  271.282,446.777  278.884,354.958  274.291,309.904  C  261.855,311.172  240.883,307.796  226.362,295.962  C  211.841,284.127  190,223.4  190,174.425  C  190,125.45  217.193,42.7  219.45,32.958  L  91.569,3.324  C  88.245,23.046  91.847,104  -10,243.85  z " />
    </g>
    <!-- End of group #front -->
    
    <!-- Start of group #back -->
    <g id="back"  transform=" translate(5 2.941)  translate(327.877 0) " >
        <path class="hidden" id="3"  d=" M  0,2.059  L  275,2.059  L  275,655  L  0,655  z " />
<path transform="translate( 0, 0 )" style="stroke: hsl(26.9, 55%, 50%);" id="34"  d=" M  14.286,21.053  C  14.286,21.053  0,174.425  0,323.85  L  0,505  L  0,655  L  128.125,655  L  128.125,640  C  128.125,615  129.062,538.75  129.062,505  C  129.062,459.712  137.5,323.85  137.5,323.85  C  137.5,323.85  145.938,459.712  145.938,505  C  145.938,538.75  146.875,615  146.875,640  L  146.875,655  L  256.25,655  L  256.25,640  C  256.25,605  258.125,538.75  258.125,505  C  258.125,459.712  275,369.137  275,323.85  C  262.5,323.85  244.478,318.364  231.232,305.118  C  217.986,291.872  203.07,225.377  204.581,176.425  C  206.093,127.473  225.484,46.276  228.118,36.629  L  101.482,2.059  C  97.551,21.669  14.286,21.053  14.286,21.053  z " />
<path transform="translate( 0, 0 )" style="stroke: hsl(53.8, 55%, 50%);" id="67"  d=" M  14.286,21.053  C  14.286,21.053  0,174.425  0,323.85  L  0,505  L  0,655  L  129.125,655  L  129.125,640  C  129.125,615  129.062,538.75  129.062,505  C  129.062,459.712  137.5,323.85  137.5,323.85  C  137.5,323.85  145.938,459.712  145.938,505  C  145.938,538.75  145.875,615  145.875,640  L  145.875,655  L  258.25,655  L  258.25,640  C  258.25,605  258.125,538.75  258.125,505  C  258.125,459.712  275,369.137  275,323.85  C  262.5,323.85  244.478,318.364  231.232,305.118  C  217.986,291.872  203.07,225.377  204.581,176.425  C  206.093,127.473  225.484,46.276  228.118,36.629  L  101.482,2.059  C  97.551,21.669  14.286,21.053  14.286,21.053  z " />
<path transform="translate( 0, 0 )" style="stroke: hsl(80.7, 55%, 50%);" id="100"  d=" M  14.286,21.053  C  14.286,21.053  0,174.425  0,323.85  L  0,505  L  0,655  L  130.125,655  L  130.125,640  C  130.125,615  129.062,538.75  129.062,505  C  129.062,459.712  137.5,323.85  137.5,323.85  C  137.5,323.85  145.938,459.712  145.938,505  C  145.938,538.75  144.875,615  144.875,640  L  144.875,655  L  260.25,655  L  260.25,640  C  260.25,605  258.125,538.75  258.125,505  C  258.125,459.712  275,369.137  275,323.85  C  262.5,323.85  244.478,318.364  231.232,305.118  C  217.986,291.872  203.07,225.377  204.581,176.425  C  206.093,127.473  225.484,46.276  228.118,36.629  L  101.482,2.059  C  97.551,21.669  14.286,21.053  14.286,21.053  z " />
<path transform="translate( 0, 0 )" style="stroke: hsl(107.6, 55%, 50%);" id="133"  d=" M  14.286,21.053  C  14.286,21.053  0,174.425  0,323.85  L  0,505  L  0,655  L  131.125,655  L  131.125,640  C  131.125,615  129.062,538.75  129.062,505  C  129.062,459.712  137.5,323.85  137.5,323.85  C  137.5,323.85  145.938,459.712  145.938,505  C  145.938,538.75  143.875,615  143.875,640  L  143.875,655  L  262.25,655  L  262.25,640  C  262.25,605  258.125,538.75  258.125,505  C  258.125,459.712  275,369.137  275,323.85  C  262.5,323.85  244.478,318.364  231.232,305.118  C  217.986,291.872  203.07,225.377  204.581,176.425  C  206.093,127.473  225.484,46.276  228.118,36.629  L  101.482,2.059  C  97.551,21.669  14.286,21.053  14.286,21.053  z " />
<path transform="translate( 0, 0 )" style="stroke: hsl(134.5, 55%, 50%);" id="166"  d=" M  14.286,21.053  C  14.286,21.053  0,174.425  0,323.85  L  0,505  L  0,655  L  132.125,655  L  132.125,640  C  132.125,615  129.062,538.75  129.062,505  C  129.062,459.712  137.5,323.85  137.5,323.85  C  137.5,323.85  145.938,459.712  145.938,505  C  145.938,538.75  142.875,615  142.875,640  L  142.875,655  L  264.25,655  L  264.25,640  C  264.25,605  258.125,538.75  258.125,505  C  258.125,459.712  275,369.137  275,323.85  C  262.5,323.85  244.478,318.364  231.232,305.118  C  217.986,291.872  203.07,225.377  204.581,176.425  C  206.093,127.473  225.484,46.276  228.118,36.629  L  101.482,2.059  C  97.551,21.669  14.286,21.053  14.286,21.053  z " />
<path transform="translate( 0, 0 )" style="stroke: hsl(161.4, 55%, 50%);" id="199"  d=" M  14.286,21.053  C  14.286,21.053  0,174.425  0,323.85  L  0,505  L  0,655  L  133.125,655  L  133.125,640  C  133.125,615  129.062,538.75  129.062,505  C  129.062,459.712  137.5,323.85  137.5,323.85  C  137.5,323.85  145.938,459.712  145.938,505  C  145.938,538.75  141.875,615  141.875,640  L  141.875,655  L  266.25,655  L  266.25,640  C  266.25,605  258.125,538.75  258.125,505  C  258.125,459.712  275,369.137  275,323.85  C  262.5,323.85  244.478,318.364  231.232,305.118  C  217.986,291.872  203.07,225.377  204.581,176.425  C  206.093,127.473  225.484,46.276  228.118,36.629  L  101.482,2.059  C  97.551,21.669  14.286,21.053  14.286,21.053  z " />
<path transform="translate( 0, 0 )" style="stroke: hsl(188.3, 55%, 50%);" id="232"  d=" M  14.286,21.053  C  14.286,21.053  0,174.425  0,323.85  L  0,505  L  0,655  L  134.125,655  L  134.125,640  C  134.125,615  129.062,538.75  129.062,505  C  129.062,459.712  137.5,323.85  137.5,323.85  C  137.5,323.85  145.938,459.712  145.938,505  C  145.938,538.75  140.875,615  140.875,640  L  140.875,655  L  268.25,655  L  268.25,640  C  268.25,605  258.125,538.75  258.125,505  C  258.125,459.712  275,369.137  275,323.85  C  262.5,323.85  244.478,318.364  231.232,305.118  C  217.986,291.872  203.07,225.377  204.581,176.425  C  206.093,127.473  225.484,46.276  228.118,36.629  L  101.482,2.059  C  97.551,21.669  14.286,21.053  14.286,21.053  z " />
<path transform="translate( 0, 0 )" style="stroke: hsl(215.2, 55%, 50%);" id="265"  d=" M  14.286,21.053  C  14.286,21.053  0,174.425  0,323.85  L  0,505  L  0,655  L  135.125,655  L  135.125,640  C  135.125,615  129.062,538.75  129.062,505  C  129.062,459.712  137.5,323.85  137.5,323.85  C  137.5,323.85  145.938,459.712  145.938,505  C  145.938,538.75  139.875,615  139.875,640  L  139.875,655  L  270.25,655  L  270.25,640  C  270.25,605  258.125,538.75  258.125,505  C  258.125,459.712  275,369.137  275,323.85  C  262.5,323.85  244.478,318.364  231.232,305.118  C  217.986,291.872  203.07,225.377  204.581,176.425  C  206.093,127.473  225.484,46.276  228.118,36.629  L  101.482,2.059  C  97.551,21.669  14.286,21.053  14.286,21.053  z " />
<path transform="translate( 0, 0 )" style="stroke: hsl(242.1, 55%, 50%);" id="298"  d=" M  14.286,21.053  C  14.286,21.053  0,174.425  0,323.85  L  0,505  L  0,655  L  136.125,655  L  136.125,640  C  136.125,615  129.062,538.75  129.062,505  C  129.062,459.712  137.5,323.85  137.5,323.85  C  137.5,323.85  145.938,459.712  145.938,505  C  145.938,538.75  138.875,615  138.875,640  L  138.875,655  L  272.25,655  L  272.25,640  C  272.25,605  258.125,538.75  258.125,505  C  258.125,459.712  275,369.137  275,323.85  C  262.5,323.85  244.478,318.364  231.232,305.118  C  217.986,291.872  203.07,225.377  204.581,176.425  C  206.093,127.473  225.484,46.276  228.118,36.629  L  101.482,2.059  C  97.551,21.669  14.286,21.053  14.286,21.053  z " />
<path transform="translate( 0, 0 )" style="stroke: hsl(269, 55%, 50%);" id="331"  d=" M  14.286,21.053  C  14.286,21.053  0,174.425  0,323.85  L  0,505  L  0,655  L  137.125,655  L  137.125,640  C  137.125,615  129.062,538.75  129.062,505  C  129.062,459.712  137.5,323.85  137.5,323.85  C  137.5,323.85  145.938,459.712  145.938,505  C  145.938,538.75  137.875,615  137.875,640  L  137.875,655  L  274.25,655  L  274.25,640  C  274.25,605  258.125,538.75  258.125,505  C  258.125,459.712  275,369.137  275,323.85  C  262.5,323.85  244.478,318.364  231.232,305.118  C  217.986,291.872  203.07,225.377  204.581,176.425  C  206.093,127.473  225.484,46.276  228.118,36.629  L  101.482,2.059  C  97.551,21.669  14.286,21.053  14.286,21.053  z " />
<path transform="translate( 0, 0 )" style="stroke: hsl(295.9, 55%, 50%);" id="364"  d=" M  14.286,21.053  C  14.286,21.053  0,174.425  0,323.85  L  0,505  L  0,655  L  137.5,655  L  137.5,640  C  137.5,615  129.062,538.75  129.062,505  C  129.062,459.712  137.5,323.85  137.5,323.85  C  137.5,323.85  145.938,459.712  145.938,505  C  145.938,538.75  137.5,615  137.5,640  L  137.5,655  L  275,655  L  275,640  C  275,605  258.125,538.75  258.125,505  C  258.125,459.712  275,369.137  275,323.85  C  262.5,323.85  244.478,318.364  231.232,305.118  C  217.986,291.872  203.07,225.377  204.581,176.425  C  206.093,127.473  225.484,46.276  228.118,36.629  L  101.482,2.059  C  97.551,21.669  14.286,21.053  14.286,21.053  z " />
    </g>
    <!-- End of group #back -->
    
    <!-- Start of group #frontFacing -->
    <g id="frontFacing"  transform=" translate(0 0)  translate(612.877 0) " >
    </g>
    <!-- End of group #frontFacing -->
    
    <!-- Start of group #frontLining -->
    <g id="frontLining"  transform=" translate(0 0)  translate(612.877 0) " >
    </g>
    <!-- End of group #frontLining -->
    
    <!-- Start of group #pocketWelt -->
    <g id="pocketWelt"  transform=" translate(0 0)  translate(612.877 0) " >
    </g>
    <!-- End of group #pocketWelt -->
    
    <!-- Start of group #pocketFacing -->
    <g id="pocketFacing"  transform=" translate(0 0)  translate(612.877 0) " >
    </g>
    <!-- End of group #pocketFacing -->
    
    <!-- Start of group #pocketBag -->
    <g id="pocketBag"  transform=" translate(0 0)  translate(612.877 0) " >
    </g>
    <!-- End of group #pocketBag -->
    
    <!-- Start of group #pocketInterfacing -->
    <g id="pocketInterfacing"  transform=" translate(0 0)  translate(612.877 0) " >
    </g>
    <!-- End of group #pocketInterfacing -->
    
    <!-- Start of group #sampler-front -->
    <g id="sampler-front"  transform=" translate(0 0)  translate(612.877 0) " >
    </g>
    <!-- End of group #sampler-front -->
    
    <!-- Start of group #sampler-back -->
    <g id="sampler-back"  transform=" translate(0 0)  translate(612.877 0) " >
    </g>
    <!-- End of group #sampler-back -->
</g>
<!-- End of group #patternScaleContainer -->

</svg>

