<?xml version="1.0" encoding="UTF-8" standalone="no"?>
<svg
    width ="2148.2964587457"
    height ="2712.6956718835"
    viewbox ="0 0 2148.2964587457 2712.6956718835" xmlns:dc="http://purl.org/dc/elements/1.1/"
    xmlns:cc="http://creativecommons.org/ns#"
    xmlns:rdf="http://www.w3.org/1999/02/22-rdf-syntax-ns#"
    xmlns:svg="http://www.w3.org/2000/svg"
    xmlns="http://www.w3.org/2000/svg"
    xmlns:xlink="http://www.w3.org/1999/xlink"
    xmlns:sodipodi="http://sodipodi.sourceforge.net/DTD/sodipodi-0.dtd"
    xmlns:inkscape="http://www.inkscape.org/namespaces/inkscape" 
>

<style type="text/css">
    <![CDATA[
    path { fill: none; stroke: #000000; stroke-opacity:1; stroke-width: 0.5; stroke-miterlimit:4; stroke-dashoffset:0; stroke-linecap:round; stroke-linejoin:round; }
    path.hidden { fill: none; stroke: none; }]]>
</style>


<!-- Start of group #patternScaleContainer -->
<g id="patternScaleContainer"  transform=" scale(3.54330709 ) " >
    
    <!-- Start of group #frontBlock -->
    <g id="frontBlock"  transform=" translate(0 0)  translate(606.297 0) " >
    </g>
    <!-- End of group #frontBlock -->
    
    <!-- Start of group #backBlock -->
    <g id="backBlock"  transform=" translate(0 0)  translate(606.297 0) " >
    </g>
    <!-- End of group #backBlock -->
    
    <!-- Start of group #waistcoatFrontBlock -->
    <g id="waistcoatFrontBlock"  transform=" translate(0 0)  translate(606.297 0) " >
    </g>
    <!-- End of group #waistcoatFrontBlock -->
    
    <!-- Start of group #front -->
    <g id="front"  transform=" translate(15 101.676)  translate(0 0) " >
        <path class="hidden" id="2"  d=" M  -10,-96.676  L  301.297,-96.676  L  301.297,658.907  L  -10,658.907  z " />
<path transform="translate( 0, 0 )" style="stroke: hsl(26.9, 55%, 50%);" id="32"  d=" M  168.26,547.188  L  217.519,538.614  220.091,553.391  169.534,562.134  M  129.798,564.154  L  81.373,569.256  79.819,554.337  129.55,549.156 " />
<path transform="translate( 0, 0 )" style="stroke: hsl(26.9, 55%, 50%);" id="33"  d=" M  -10,243.85  L  -10,591.094  L  57.813,658.907  C  64.406,652.314  89.932,642.716  130.625,635.483  L  130.625,625  C  130.625,600  129.062,535  129.062,505  C  129.062,459.712  137.5,323.85  137.5,323.85  C  137.5,323.85  159.674,458.156  164.267,503.21  C  167.31,533.055  172.347,597.879  174.883,622.75  L  175.715,630.917  C  207.201,622.806  245.809,615.519  291.155,610.896  L  291.155,610.896  C  287.605,576.077  278.918,521.677  275.876,491.832  C  271.282,446.777  278.884,354.958  274.291,309.904  C  261.855,311.172  240.883,307.796  226.362,295.962  C  211.841,284.127  190,223.4  190,174.425  C  190,125.45  217.193,42.7  219.45,32.958  L  91.569,3.324  C  88.245,23.046  91.847,104  -10,243.85  z " />
<path transform="translate( 0, -10 )" style="stroke: hsl(53.8, 55%, 50%);" id="65"  d=" M  168.809,553.163  L  218.063,544.559  220.644,559.336  170.092,568.108  M  129.849,570.154  L  81.421,575.227  79.876,560.307  129.61,555.156 " />
<path transform="translate( 0, -10 )" style="stroke: hsl(53.8, 55%, 50%);" id="66"  d=" M  -10,243.85  L  -10,601.094  L  57.813,668.907  C  64.406,662.314  89.932,652.716  130.625,645.483  L  130.625,630  C  130.625,605  129.062,536.25  129.062,505  C  129.062,459.712  137.5,323.85  137.5,323.85  C  137.5,323.85  159.674,458.156  164.267,503.21  C  167.437,534.299  172.854,602.853  175.39,627.724  L  176.73,640.865  C  208.215,632.755  246.823,625.467  292.169,620.845  L  291.662,615.87  C  288.113,581.051  279.045,522.921  275.876,491.832  C  271.282,446.777  278.884,354.958  274.291,309.904  C  261.855,311.172  240.883,307.796  226.362,295.962  C  211.841,284.127  190,223.4  190,174.425  C  190,125.45  217.193,42.7  219.45,32.958  L  91.569,3.324  C  88.245,23.046  91.847,104  -10,243.85  z " />
<path transform="translate( 0, -20 )" style="stroke: hsl(80.7, 55%, 50%);" id="98"  d=" M  169.363,559.138  L  218.612,550.504  221.202,565.279  170.655,574.082  M  129.895,576.154  L  81.464,581.198  79.928,566.277  129.665,561.156 " />
<path transform="translate( 0, -20 )" style="stroke: hsl(80.7, 55%, 50%);" id="99"  d=" M  -10,243.85  L  -10,611.094  L  57.813,678.907  C  64.406,672.314  89.932,662.716  130.625,655.483  L  130.625,635  C  130.625,610  129.062,537.5  129.062,505  C  129.062,459.712  137.5,323.85  137.5,323.85  C  137.5,323.85  159.674,458.156  164.267,503.21  C  167.563,535.543  173.362,607.827  175.897,632.698  L  177.744,650.813  C  209.23,642.703  247.838,635.416  293.184,630.793  L  292.169,620.845  C  288.62,586.025  279.172,524.164  275.876,491.832  C  271.282,446.777  278.884,354.958  274.291,309.904  C  261.855,311.172  240.883,307.796  226.362,295.962  C  211.841,284.127  190,223.4  190,174.425  C  190,125.45  217.193,42.7  219.45,32.958  L  91.569,3.324  C  88.245,23.046  91.847,104  -10,243.85  z " />
<path transform="translate( 0, -30 )" style="stroke: hsl(107.6, 55%, 50%);" id="131"  d=" M  169.92,565.112  L  219.164,556.45  221.763,571.223  171.221,580.055  M  129.938,582.154  L  81.504,587.169  79.977,572.247  129.717,567.156 " />
<path transform="translate( 0, -30 )" style="stroke: hsl(107.6, 55%, 50%);" id="132"  d=" M  -10,243.85  L  -10,621.094  L  57.813,688.907  C  64.406,682.314  89.932,672.716  130.625,665.483  L  130.625,640  C  130.625,615  129.062,538.75  129.062,505  C  129.062,459.712  137.5,323.85  137.5,323.85  C  137.5,323.85  159.674,458.156  164.267,503.21  C  167.69,536.786  173.869,612.801  176.404,637.672  L  178.758,660.762  C  210.244,652.652  248.852,645.364  294.198,640.741  L  292.677,625.819  C  289.127,590.999  279.299,525.408  275.876,491.832  C  271.282,446.777  278.884,354.958  274.291,309.904  C  261.855,311.172  240.883,307.796  226.362,295.962  C  211.841,284.127  190,223.4  190,174.425  C  190,125.45  217.193,42.7  219.45,32.958  L  91.569,3.324  C  88.245,23.046  91.847,104  -10,243.85  z " />
<path transform="translate( 0, -40 )" style="stroke: hsl(134.5, 55%, 50%);" id="164"  d=" M  170.481,571.086  L  219.721,562.4  222.327,577.172  171.79,586.028  M  129.978,588.154  L  81.542,593.147  80.022,578.224  129.764,573.156 " />
<path transform="translate( 0, -40 )" style="stroke: hsl(134.5, 55%, 50%);" id="165"  d=" M  -10,243.85  L  -10,631.094  L  57.813,698.907  C  64.406,692.314  89.932,682.716  130.625,675.483  L  130.625,645  C  130.625,620  129.062,540  129.062,505  C  129.062,459.712  137.5,323.85  137.5,323.85  C  137.5,323.85  159.674,458.156  164.267,503.21  C  167.817,538.03  174.376,617.776  176.911,642.647  L  179.772,670.71  C  211.258,662.6  249.866,655.313  295.212,650.69  L  293.184,630.793  C  289.634,595.973  279.425,526.651  275.876,491.832  C  271.282,446.777  278.884,354.958  274.291,309.904  C  261.855,311.172  240.883,307.796  226.362,295.962  C  211.841,284.127  190,223.4  190,174.425  C  190,125.45  217.193,42.7  219.45,32.958  L  91.569,3.324  C  88.245,23.046  91.847,104  -10,243.85  z " />
<path transform="translate( 0, -50 )" style="stroke: hsl(161.4, 55%, 50%);" id="197"  d=" M  171.045,577.059  L  220.28,568.344  222.894,583.114  172.362,592.002  M  130.014,594.155  L  81.574,599.118  80.063,584.194  129.809,579.156 " />
<path transform="translate( 0, -50 )" style="stroke: hsl(161.4, 55%, 50%);" id="198"  d=" M  -10,243.85  L  -10,641.094  L  57.813,708.907  C  64.406,702.314  89.932,692.716  130.625,685.483  L  130.625,650  C  130.625,625  129.062,541.25  129.062,505  C  129.062,459.712  137.5,323.85  137.5,323.85  C  137.5,323.85  159.674,458.156  164.267,503.21  C  167.944,539.273  174.883,622.75  177.418,647.621  L  180.787,680.659  C  212.272,672.548  250.88,665.261  296.226,660.638  L  293.691,635.767  C  290.141,600.948  279.552,527.895  275.876,491.832  C  271.282,446.777  278.884,354.958  274.291,309.904  C  261.855,311.172  240.883,307.796  226.362,295.962  C  211.841,284.127  190,223.4  190,174.425  C  190,125.45  217.193,42.7  219.45,32.958  L  91.569,3.324  C  88.245,23.046  91.847,104  -10,243.85  z " />
<path transform="translate( 0, -60 )" style="stroke: hsl(188.3, 55%, 50%);" id="230"  d=" M  171.613,583.033  L  220.843,574.295  223.465,589.064  172.937,597.974  M  130.048,600.155  L  81.606,605.095  80.102,590.171  129.85,585.156 " />
<path transform="translate( 0, -60 )" style="stroke: hsl(188.3, 55%, 50%);" id="231"  d=" M  -10,243.85  L  -10,651.094  L  57.813,718.907  C  64.406,712.314  89.932,702.716  130.625,695.483  L  130.625,655  C  130.625,630  129.062,542.5  129.062,505  C  129.062,459.712  137.5,323.85  137.5,323.85  C  137.5,323.85  159.674,458.156  164.267,503.21  C  168.07,540.517  175.39,627.724  177.926,652.595  L  181.801,690.607  C  213.287,682.497  251.895,675.21  297.241,670.587  L  294.198,640.741  C  290.648,605.922  279.679,529.138  275.876,491.832  C  271.282,446.777  278.884,354.958  274.291,309.904  C  261.855,311.172  240.883,307.796  226.362,295.962  C  211.841,284.127  190,223.4  190,174.425  C  190,125.45  217.193,42.7  219.45,32.958  L  91.569,3.324  C  88.245,23.046  91.847,104  -10,243.85  z " />
<path transform="translate( 0, -70 )" style="stroke: hsl(215.2, 55%, 50%);" id="263"  d=" M  172.184,589.006  L  221.41,580.245  224.038,595.012  173.515,603.947  M  130.079,606.155  L  81.636,611.073  80.138,596.148  129.888,591.156 " />
<path transform="translate( 0, -70 )" style="stroke: hsl(215.2, 55%, 50%);" id="264"  d=" M  -10,243.85  L  -10,661.094  L  57.813,728.907  C  64.406,722.314  89.932,712.716  130.625,705.483  L  130.625,660  C  130.625,635  129.062,543.75  129.062,505  C  129.062,459.712  137.5,323.85  137.5,323.85  C  137.5,323.85  159.674,458.156  164.267,503.21  C  168.197,541.76  175.897,632.698  178.433,657.569  L  182.815,700.556  C  214.301,692.445  252.909,685.158  298.255,680.535  L  294.705,645.716  C  291.155,610.896  279.806,530.382  275.876,491.832  C  271.282,446.777  278.884,354.958  274.291,309.904  C  261.855,311.172  240.883,307.796  226.362,295.962  C  211.841,284.127  190,223.4  190,174.425  C  190,125.45  217.193,42.7  219.45,32.958  L  91.569,3.324  C  88.245,23.046  91.847,104  -10,243.85  z " />
<path transform="translate( 0, -80 )" style="stroke: hsl(242.1, 55%, 50%);" id="296"  d=" M  172.756,594.978  L  221.98,586.198  224.614,600.965  174.093,609.919  M  130.109,612.155  L  81.664,617.054  80.172,602.128  129.924,597.156 " />
<path transform="translate( 0, -80 )" style="stroke: hsl(242.1, 55%, 50%);" id="297"  d=" M  -10,243.85  L  -10,671.094  L  57.813,738.907  C  64.406,732.314  89.932,722.716  130.625,715.483  L  130.625,665  C  130.625,640  129.062,545  129.062,505  C  129.062,459.712  137.5,323.85  137.5,323.85  C  137.5,323.85  159.674,458.156  164.267,503.21  C  168.324,543.004  176.404,637.672  178.94,662.544  L  183.829,710.504  C  215.315,702.394  253.923,695.107  299.269,690.484  L  295.212,650.69  C  291.662,615.87  279.933,531.626  275.876,491.832  C  271.282,446.777  278.884,354.958  274.291,309.904  C  261.855,311.172  240.883,307.796  226.362,295.962  C  211.841,284.127  190,223.4  190,174.425  C  190,125.45  217.193,42.7  219.45,32.958  L  91.569,3.324  C  88.245,23.046  91.847,104  -10,243.85  z " />
<path transform="translate( 0, -90 )" style="stroke: hsl(269, 55%, 50%);" id="329"  d=" M  173.332,600.951  L  222.551,592.15  225.191,606.916  174.675,615.891  M  130.136,618.155  L  81.689,623.034  80.203,608.108  129.957,603.156 " />
<path transform="translate( 0, -90 )" style="stroke: hsl(269, 55%, 50%);" id="330"  d=" M  -10,243.85  L  -10,681.094  L  57.813,748.907  C  64.406,742.314  89.932,732.716  130.625,725.483  L  130.625,670  C  130.625,645  129.062,546.25  129.062,505  C  129.062,459.712  137.5,323.85  137.5,323.85  C  137.5,323.85  159.674,458.156  164.267,503.21  C  168.451,544.247  176.911,642.647  179.447,667.518  L  184.843,720.452  C  216.329,712.342  254.937,705.055  300.283,700.432  L  295.719,655.664  C  292.169,620.845  280.059,532.869  275.876,491.832  C  271.282,446.777  278.884,354.958  274.291,309.904  C  261.855,311.172  240.883,307.796  226.362,295.962  C  211.841,284.127  190,223.4  190,174.425  C  190,125.45  217.193,42.7  219.45,32.958  L  91.569,3.324  C  88.245,23.046  91.847,104  -10,243.85  z " />
<path transform="translate( 0, -100 )" style="stroke: hsl(295.9, 55%, 50%);" id="362"  d=" M  173.909,606.923  L  223.125,598.103  225.771,612.868  175.258,621.862  M  130.162,624.155  L  81.713,629.015  80.233,614.088  129.989,609.156 " />
<path transform="translate( 0, -100 )" style="stroke: hsl(295.9, 55%, 50%);" id="363"  d=" M  -10,243.85  L  -10,691.094  L  57.813,758.907  C  64.406,752.314  89.932,742.716  130.625,735.483  L  130.625,675  C  130.625,650  129.062,547.5  129.062,505  C  129.062,459.712  137.5,323.85  137.5,323.85  C  137.5,323.85  159.674,458.156  164.267,503.21  C  168.578,545.491  177.418,647.621  179.954,672.492  L  185.858,730.401  C  217.343,722.291  255.951,715.003  301.297,710.38  L  296.226,660.638  C  292.677,625.819  280.186,534.113  275.876,491.832  C  271.282,446.777  278.884,354.958  274.291,309.904  C  261.855,311.172  240.883,307.796  226.362,295.962  C  211.841,284.127  190,223.4  190,174.425  C  190,125.45  217.193,42.7  219.45,32.958  L  91.569,3.324  C  88.245,23.046  91.847,104  -10,243.85  z " />
    </g>
    <!-- End of group #front -->
    
    <!-- Start of group #back -->
    <g id="back"  transform=" translate(5 52.941)  translate(321.297 0) " >
        <path class="hidden" id="3"  d=" M  0,-47.941  L  275,-47.941  L  275,675  L  0,675  z " />
<path transform="translate( 0, 0 )" style="stroke: hsl(26.9, 55%, 50%);" id="34"  d=" M  14.286,21.053  C  14.286,21.053  0,174.425  0,323.85  L  0,505  L  0,625  L  130.625,625  L  130.625,625  C  130.625,600  129.062,535  129.062,505  C  129.062,459.712  137.5,323.85  137.5,323.85  C  137.5,323.85  145.938,459.712  145.938,505  C  145.938,535  144.375,600  144.375,625  L  144.375,625  L  261.25,625  L  261.25,625  C  261.25,590  258.125,535  258.125,505  C  258.125,459.712  275,369.137  275,323.85  C  262.5,323.85  244.478,318.364  231.232,305.118  C  217.986,291.872  203.07,225.377  204.581,176.425  C  206.093,127.473  225.484,46.276  228.118,36.629  L  101.482,2.059  C  97.551,21.669  14.286,21.053  14.286,21.053  z " />
<path transform="translate( 0, -5 )" style="stroke: hsl(53.8, 55%, 50%);" id="67"  d=" M  14.286,21.053  C  14.286,21.053  0,174.425  0,323.85  L  0,505  L  0,635  L  130.625,635  L  130.625,630  C  130.625,605  129.062,536.25  129.062,505  C  129.062,459.712  137.5,323.85  137.5,323.85  C  137.5,323.85  145.938,459.712  145.938,505  C  145.938,536.25  144.375,605  144.375,630  L  144.375,635  L  261.25,635  L  261.25,630  C  261.25,595  258.125,536.25  258.125,505  C  258.125,459.712  275,369.137  275,323.85  C  262.5,323.85  244.478,318.364  231.232,305.118  C  217.986,291.872  203.07,225.377  204.581,176.425  C  206.093,127.473  225.484,46.276  228.118,36.629  L  101.482,2.059  C  97.551,21.669  14.286,21.053  14.286,21.053  z " />
<path transform="translate( 0, -10 )" style="stroke: hsl(80.7, 55%, 50%);" id="100"  d=" M  14.286,21.053  C  14.286,21.053  0,174.425  0,323.85  L  0,505  L  0,645  L  130.625,645  L  130.625,635  C  130.625,610  129.062,537.5  129.062,505  C  129.062,459.712  137.5,323.85  137.5,323.85  C  137.5,323.85  145.938,459.712  145.938,505  C  145.938,537.5  144.375,610  144.375,635  L  144.375,645  L  261.25,645  L  261.25,635  C  261.25,600  258.125,537.5  258.125,505  C  258.125,459.712  275,369.137  275,323.85  C  262.5,323.85  244.478,318.364  231.232,305.118  C  217.986,291.872  203.07,225.377  204.581,176.425  C  206.093,127.473  225.484,46.276  228.118,36.629  L  101.482,2.059  C  97.551,21.669  14.286,21.053  14.286,21.053  z " />
<path transform="translate( 0, -15 )" style="stroke: hsl(107.6, 55%, 50%);" id="133"  d=" M  14.286,21.053  C  14.286,21.053  0,174.425  0,323.85  L  0,505  L  0,655  L  130.625,655  L  130.625,640  C  130.625,615  129.062,538.75  129.062,505  C  129.062,459.712  137.5,323.85  137.5,323.85  C  137.5,323.85  145.938,459.712  145.938,505  C  145.938,538.75  144.375,615  144.375,640  L  144.375,655  L  261.25,655  L  261.25,640  C  261.25,605  258.125,538.75  258.125,505  C  258.125,459.712  275,369.137  275,323.85  C  262.5,323.85  244.478,318.364  231.232,305.118  C  217.986,291.872  203.07,225.377  204.581,176.425  C  206.093,127.473  225.484,46.276  228.118,36.629  L  101.482,2.059  C  97.551,21.669  14.286,21.053  14.286,21.053  z " />
<path transform="translate( 0, -20 )" style="stroke: hsl(134.5, 55%, 50%);" id="166"  d=" M  14.286,21.053  C  14.286,21.053  0,174.425  0,323.85  L  0,505  L  0,665  L  130.625,665  L  130.625,645  C  130.625,620  129.062,540  129.062,505  C  129.062,459.712  137.5,323.85  137.5,323.85  C  137.5,323.85  145.938,459.712  145.938,505  C  145.938,540  144.375,620  144.375,645  L  144.375,665  L  261.25,665  L  261.25,645  C  261.25,610  258.125,540  258.125,505  C  258.125,459.712  275,369.137  275,323.85  C  262.5,323.85  244.478,318.364  231.232,305.118  C  217.986,291.872  203.07,225.377  204.581,176.425  C  206.093,127.473  225.484,46.276  228.118,36.629  L  101.482,2.059  C  97.551,21.669  14.286,21.053  14.286,21.053  z " />
<path transform="translate( 0, -25 )" style="stroke: hsl(161.4, 55%, 50%);" id="199"  d=" M  14.286,21.053  C  14.286,21.053  0,174.425  0,323.85  L  0,505  L  0,675  L  130.625,675  L  130.625,650  C  130.625,625  129.062,541.25  129.062,505  C  129.062,459.712  137.5,323.85  137.5,323.85  C  137.5,323.85  145.938,459.712  145.938,505  C  145.938,541.25  144.375,625  144.375,650  L  144.375,675  L  261.25,675  L  261.25,650  C  261.25,615  258.125,541.25  258.125,505  C  258.125,459.712  275,369.137  275,323.85  C  262.5,323.85  244.478,318.364  231.232,305.118  C  217.986,291.872  203.07,225.377  204.581,176.425  C  206.093,127.473  225.484,46.276  228.118,36.629  L  101.482,2.059  C  97.551,21.669  14.286,21.053  14.286,21.053  z " />
<path transform="translate( 0, -30 )" style="stroke: hsl(188.3, 55%, 50%);" id="232"  d=" M  14.286,21.053  C  14.286,21.053  0,174.425  0,323.85  L  0,505  L  0,685  L  130.625,685  L  130.625,655  C  130.625,630  129.062,542.5  129.062,505  C  129.062,459.712  137.5,323.85  137.5,323.85  C  137.5,323.85  145.938,459.712  145.938,505  C  145.938,542.5  144.375,630  144.375,655  L  144.375,685  L  261.25,685  L  261.25,655  C  261.25,620  258.125,542.5  258.125,505  C  258.125,459.712  275,369.137  275,323.85  C  262.5,323.85  244.478,318.364  231.232,305.118  C  217.986,291.872  203.07,225.377  204.581,176.425  C  206.093,127.473  225.484,46.276  228.118,36.629  L  101.482,2.059  C  97.551,21.669  14.286,21.053  14.286,21.053  z " />
<path transform="translate( 0, -35 )" style="stroke: hsl(215.2, 55%, 50%);" id="265"  d=" M  14.286,21.053  C  14.286,21.053  0,174.425  0,323.85  L  0,505  L  0,695  L  130.625,695  L  130.625,660  C  130.625,635  129.062,543.75  129.062,505  C  129.062,459.712  137.5,323.85  137.5,323.85  C  137.5,323.85  145.938,459.712  145.938,505  C  145.938,543.75  144.375,635  144.375,660  L  144.375,695  L  261.25,695  L  261.25,660  C  261.25,625  258.125,543.75  258.125,505  C  258.125,459.712  275,369.137  275,323.85  C  262.5,323.85  244.478,318.364  231.232,305.118  C  217.986,291.872  203.07,225.377  204.581,176.425  C  206.093,127.473  225.484,46.276  228.118,36.629  L  101.482,2.059  C  97.551,21.669  14.286,21.053  14.286,21.053  z " />
<path transform="translate( 0, -40 )" style="stroke: hsl(242.1, 55%, 50%);" id="298"  d=" M  14.286,21.053  C  14.286,21.053  0,174.425  0,323.85  L  0,505  L  0,705  L  130.625,705  L  130.625,665  C  130.625,640  129.062,545  129.062,505  C  129.062,459.712  137.5,323.85  137.5,323.85  C  137.5,323.85  145.938,459.712  145.938,505  C  145.938,545  144.375,640  144.375,665  L  144.375,705  L  261.25,705  L  261.25,665  C  261.25,630  258.125,545  258.125,505  C  258.125,459.712  275,369.137  275,323.85  C  262.5,323.85  244.478,318.364  231.232,305.118  C  217.986,291.872  203.07,225.377  204.581,176.425  C  206.093,127.473  225.484,46.276  228.118,36.629  L  101.482,2.059  C  97.551,21.669  14.286,21.053  14.286,21.053  z " />
<path transform="translate( 0, -45 )" style="stroke: hsl(269, 55%, 50%);" id="331"  d=" M  14.286,21.053  C  14.286,21.053  0,174.425  0,323.85  L  0,505  L  0,715  L  130.625,715  L  130.625,670  C  130.625,645  129.062,546.25  129.062,505  C  129.062,459.712  137.5,323.85  137.5,323.85  C  137.5,323.85  145.938,459.712  145.938,505  C  145.938,546.25  144.375,645  144.375,670  L  144.375,715  L  261.25,715  L  261.25,670  C  261.25,635  258.125,546.25  258.125,505  C  258.125,459.712  275,369.137  275,323.85  C  262.5,323.85  244.478,318.364  231.232,305.118  C  217.986,291.872  203.07,225.377  204.581,176.425  C  206.093,127.473  225.484,46.276  228.118,36.629  L  101.482,2.059  C  97.551,21.669  14.286,21.053  14.286,21.053  z " />
<path transform="translate( 0, -50 )" style="stroke: hsl(295.9, 55%, 50%);" id="364"  d=" M  14.286,21.053  C  14.286,21.053  0,174.425  0,323.85  L  0,505  L  0,725  L  130.625,725  L  130.625,675  C  130.625,650  129.062,547.5  129.062,505  C  129.062,459.712  137.5,323.85  137.5,323.85  C  137.5,323.85  145.938,459.712  145.938,505  C  145.938,547.5  144.375,650  144.375,675  L  144.375,725  L  261.25,725  L  261.25,675  C  261.25,640  258.125,547.5  258.125,505  C  258.125,459.712  275,369.137  275,323.85  C  262.5,323.85  244.478,318.364  231.232,305.118  C  217.986,291.872  203.07,225.377  204.581,176.425  C  206.093,127.473  225.484,46.276  228.118,36.629  L  101.482,2.059  C  97.551,21.669  14.286,21.053  14.286,21.053  z " />
    </g>
    <!-- End of group #back -->
    
    <!-- Start of group #frontFacing -->
    <g id="frontFacing"  transform=" translate(0 0)  translate(606.297 0) " >
    </g>
    <!-- End of group #frontFacing -->
    
    <!-- Start of group #frontLining -->
    <g id="frontLining"  transform=" translate(0 0)  translate(606.297 0) " >
    </g>
    <!-- End of group #frontLining -->
    
    <!-- Start of group #pocketWelt -->
    <g id="pocketWelt"  transform=" translate(0 0)  translate(606.297 0) " >
    </g>
    <!-- End of group #pocketWelt -->
    
    <!-- Start of group #pocketFacing -->
    <g id="pocketFacing"  transform=" translate(0 0)  translate(606.297 0) " >
    </g>
    <!-- End of group #pocketFacing -->
    
    <!-- Start of group #pocketBag -->
    <g id="pocketBag"  transform=" translate(0 0)  translate(606.297 0) " >
    </g>
    <!-- End of group #pocketBag -->
    
    <!-- Start of group #pocketInterfacing -->
    <g id="pocketInterfacing"  transform=" translate(0 0)  translate(606.297 0) " >
    </g>
    <!-- End of group #pocketInterfacing -->
    
    <!-- Start of group #sampler-front -->
    <g id="sampler-front"  transform=" translate(0 0)  translate(606.297 0) " >
    </g>
    <!-- End of group #sampler-front -->
    
    <!-- Start of group #sampler-back -->
    <g id="sampler-back"  transform=" translate(0 0)  translate(606.297 0) " >
    </g>
    <!-- End of group #sampler-back -->
</g>
<!-- End of group #patternScaleContainer -->

</svg>

