<?xml version="1.0" encoding="UTF-8" standalone="no"?>
<svg
    xmlns="http://www.w3.org/2000/svg"
    xmlns:svg="http://www.w3.org/2000/svg"
    xmlns:xlink="http://www.w3.org/1999/xlink"
    xmlns:freesewing="http://freesewing.org/namespaces/freesewing" viewBox ="0 0 1088 710"
    width ="1088mm"
    height ="710mm"
    freesewing:version ="1.5.0"
    freesewing:origin ="joost.core.freesewing.org" 
>

<style type="text/css">
    <![CDATA[
    path { fill: none; stroke: #000000; stroke-opacity:1; stroke-width: 0.5; stroke-miterlimit:4; stroke-dashoffset:0; stroke-linecap:round; stroke-linejoin:round; }
    path.hidden { fill: none; stroke: none; }]]>
</style>


<!-- Start of group #patternContainer -->
<g id="patternContainer" >
    
    <!-- Start of group #backBlock -->
    <g id="backBlock"  transform=" translate(5 5)  translate(488.188 0) " >
        <path class="hidden" id="2"  d=" M  0,0  L  290,0  L  290,620  L  0,620  z " />
<path transform="translate( 0, 0 )" style="stroke: hsl(26.9, 55%, 50%);" id="18"  d=" M  0,20  L  0,272.5  L  0,500  L  0,620  L  290,620  L  290,272.5  C  273.75,272.5  261.624,266.216  246.454,251.046  C  231.284,235.876  225,185.833  225,146.25  C  225,106.667  233.176,37.332  235,27.5  L  86.777,0  C  83.129,19.664  0,20  0,20  z " />
<path transform="translate( 0, 0 )" style="stroke: hsl(53.8, 55%, 50%);" id="38"  d=" M  0,20  L  0,276.1  L  0,500  L  0,620  L  290,620  L  290,276.1  C  273.75,276.1  261.8,269.786  246.557,254.543  C  231.314,239.3  225,188.233  225,148.05  C  225,107.867  233.176,37.332  235,27.5  L  86.777,0  C  83.129,19.664  0,20  0,20  z " />
<path transform="translate( 0, 0 )" style="stroke: hsl(80.7, 55%, 50%);" id="58"  d=" M  0,20  L  0,279.7  L  0,500  L  0,620  L  290,620  L  290,279.7  C  273.75,279.7  261.974,273.356  246.659,258.041  C  231.344,242.726  225,190.633  225,149.85  C  225,109.067  233.176,37.332  235,27.5  L  86.777,0  C  83.129,19.664  0,20  0,20  z " />
<path transform="translate( 0, 0 )" style="stroke: hsl(107.6, 55%, 50%);" id="78"  d=" M  0,20  L  0,283.3  L  0,500  L  0,620  L  290,620  L  290,283.3  C  273.75,283.3  262.143,276.927  246.758,261.542  C  231.373,246.157  225,193.033  225,151.65  C  225,110.267  233.176,37.332  235,27.5  L  86.777,0  C  83.129,19.664  0,20  0,20  z " />
<path transform="translate( 0, 0 )" style="stroke: hsl(134.5, 55%, 50%);" id="98"  d=" M  0,20  L  0,286.9  L  0,500  L  0,620  L  290,620  L  290,286.9  C  273.75,286.9  262.309,280.499  246.855,265.045  C  231.401,249.591  225,195.433  225,153.45  C  225,111.467  233.176,37.332  235,27.5  L  86.777,0  C  83.129,19.664  0,20  0,20  z " />
<path transform="translate( 0, 0 )" style="stroke: hsl(161.4, 55%, 50%);" id="118"  d=" M  0,20  L  0,290.5  L  0,500  L  0,620  L  290,620  L  290,290.5  C  273.75,290.5  262.473,284.071  246.951,268.549  C  231.429,253.027  225,197.833  225,155.25  C  225,112.667  233.176,37.332  235,27.5  L  86.777,0  C  83.129,19.664  0,20  0,20  z " />
<path transform="translate( 0, 0 )" style="stroke: hsl(188.3, 55%, 50%);" id="138"  d=" M  0,20  L  0,294.1  L  0,500  L  0,620  L  290,620  L  290,294.1  C  273.75,294.1  262.633,287.643  247.045,272.055  C  231.457,256.467  225,200.233  225,157.05  C  225,113.867  233.176,37.332  235,27.5  L  86.777,0  C  83.129,19.664  0,20  0,20  z " />
<path transform="translate( 0, 0 )" style="stroke: hsl(215.2, 55%, 50%);" id="158"  d=" M  0,20  L  0,297.7  L  0,500  L  0,620  L  290,620  L  290,297.7  C  273.75,297.7  262.79,291.216  247.137,275.563  C  231.484,259.91  225,202.633  225,158.85  C  225,115.067  233.176,37.332  235,27.5  L  86.777,0  C  83.129,19.664  0,20  0,20  z " />
<path transform="translate( 0, 0 )" style="stroke: hsl(242.1, 55%, 50%);" id="178"  d=" M  0,20  L  0,301.3  L  0,500  L  0,620  L  290,620  L  290,301.3  C  273.75,301.3  262.944,294.79  247.227,279.073  C  231.51,263.356  225,205.033  225,160.65  C  225,116.267  233.176,37.332  235,27.5  L  86.777,0  C  83.129,19.664  0,20  0,20  z " />
<path transform="translate( 0, 0 )" style="stroke: hsl(269, 55%, 50%);" id="198"  d=" M  0,20  L  0,304.9  L  0,500  L  0,620  L  290,620  L  290,304.9  C  273.75,304.9  263.098,298.364  247.317,282.583  C  231.536,266.802  225,207.433  225,162.45  C  225,117.467  233.176,37.332  235,27.5  L  86.777,0  C  83.129,19.664  0,20  0,20  z " />
<path transform="translate( 0, 0 )" style="stroke: hsl(295.9, 55%, 50%);" id="218"  d=" M  0,20  L  0,308.5  L  0,500  L  0,620  L  290,620  L  290,308.5  C  273.75,308.5  263.248,301.938  247.405,286.095  C  231.562,270.252  225,209.833  225,164.25  C  225,118.667  233.176,37.332  235,27.5  L  86.777,0  C  83.129,19.664  0,20  0,20  z " />
    </g>
    <!-- End of group #backBlock -->
    
    <!-- Start of group #frontBlock -->
    <g id="frontBlock"  transform=" translate(5 5)  translate(788.188 0) " >
        <path class="hidden" id="3"  d=" M  0,0  L  290,0  L  290,620  L  0,620  z " />
<path transform="translate( 0, 0 )" style="stroke: hsl(26.9, 55%, 50%);" id="19"  d=" M  0,99  L  0,272.5  L  0,500  L  0,620  L  290,620  L  290,272.5  C  273.75,272.5  261.624,266.216  246.454,251.046  C  231.284,235.876  220,185.833  220,146.25  C  220,106.667  233.176,37.332  235,27.5  L  86.777,0  C  83.129,19.664  86.777,99  0,99  z " />
<path transform="translate( 0, 0 )" style="stroke: hsl(53.8, 55%, 50%);" id="39"  d=" M  0,99  L  0,276.1  L  0,500  L  0,620  L  290,620  L  290,276.1  C  273.75,276.1  261.8,269.786  246.557,254.543  C  231.314,239.3  220,188.233  220,148.05  C  220,107.867  233.176,37.332  235,27.5  L  86.777,0  C  83.129,19.664  86.777,99  0,99  z " />
<path transform="translate( 0, 0 )" style="stroke: hsl(80.7, 55%, 50%);" id="59"  d=" M  0,99  L  0,279.7  L  0,500  L  0,620  L  290,620  L  290,279.7  C  273.75,279.7  261.974,273.356  246.659,258.041  C  231.344,242.726  220,190.633  220,149.85  C  220,109.067  233.176,37.332  235,27.5  L  86.777,0  C  83.129,19.664  86.777,99  0,99  z " />
<path transform="translate( 0, 0 )" style="stroke: hsl(107.6, 55%, 50%);" id="79"  d=" M  0,99  L  0,283.3  L  0,500  L  0,620  L  290,620  L  290,283.3  C  273.75,283.3  262.143,276.927  246.758,261.542  C  231.373,246.157  220,193.033  220,151.65  C  220,110.267  233.176,37.332  235,27.5  L  86.777,0  C  83.129,19.664  86.777,99  0,99  z " />
<path transform="translate( 0, 0 )" style="stroke: hsl(134.5, 55%, 50%);" id="99"  d=" M  0,99  L  0,286.9  L  0,500  L  0,620  L  290,620  L  290,286.9  C  273.75,286.9  262.309,280.499  246.855,265.045  C  231.401,249.591  220,195.433  220,153.45  C  220,111.467  233.176,37.332  235,27.5  L  86.777,0  C  83.129,19.664  86.777,99  0,99  z " />
<path transform="translate( 0, 0 )" style="stroke: hsl(161.4, 55%, 50%);" id="119"  d=" M  0,99  L  0,290.5  L  0,500  L  0,620  L  290,620  L  290,290.5  C  273.75,290.5  262.473,284.071  246.951,268.549  C  231.429,253.027  220,197.833  220,155.25  C  220,112.667  233.176,37.332  235,27.5  L  86.777,0  C  83.129,19.664  86.777,99  0,99  z " />
<path transform="translate( 0, 0 )" style="stroke: hsl(188.3, 55%, 50%);" id="139"  d=" M  0,99  L  0,294.1  L  0,500  L  0,620  L  290,620  L  290,294.1  C  273.75,294.1  262.633,287.643  247.045,272.055  C  231.457,256.467  220,200.233  220,157.05  C  220,113.867  233.176,37.332  235,27.5  L  86.777,0  C  83.129,19.664  86.777,99  0,99  z " />
<path transform="translate( 0, 0 )" style="stroke: hsl(215.2, 55%, 50%);" id="159"  d=" M  0,99  L  0,297.7  L  0,500  L  0,620  L  290,620  L  290,297.7  C  273.75,297.7  262.79,291.216  247.137,275.563  C  231.484,259.91  220,202.633  220,158.85  C  220,115.067  233.176,37.332  235,27.5  L  86.777,0  C  83.129,19.664  86.777,99  0,99  z " />
<path transform="translate( 0, 0 )" style="stroke: hsl(242.1, 55%, 50%);" id="179"  d=" M  0,99  L  0,301.3  L  0,500  L  0,620  L  290,620  L  290,301.3  C  273.75,301.3  262.944,294.79  247.227,279.073  C  231.51,263.356  220,205.033  220,160.65  C  220,116.267  233.176,37.332  235,27.5  L  86.777,0  C  83.129,19.664  86.777,99  0,99  z " />
<path transform="translate( 0, 0 )" style="stroke: hsl(269, 55%, 50%);" id="199"  d=" M  0,99  L  0,304.9  L  0,500  L  0,620  L  290,620  L  290,304.9  C  273.75,304.9  263.098,298.364  247.317,282.583  C  231.536,266.802  220,207.433  220,162.45  C  220,117.467  233.176,37.332  235,27.5  L  86.777,0  C  83.129,19.664  86.777,99  0,99  z " />
<path transform="translate( 0, 0 )" style="stroke: hsl(295.9, 55%, 50%);" id="219"  d=" M  0,99  L  0,308.5  L  0,500  L  0,620  L  290,620  L  290,308.5  C  273.75,308.5  263.248,301.938  247.405,286.095  C  231.562,270.252  220,209.833  220,164.25  C  220,118.667  233.176,37.332  235,27.5  L  86.777,0  C  83.129,19.664  86.777,99  0,99  z " />
    </g>
    <!-- End of group #frontBlock -->
    
    <!-- Start of group #sleeveBlock -->
    <g id="sleeveBlock" >
    </g>
    <!-- End of group #sleeveBlock -->
    
    <!-- Start of group #topsleeveBlock -->
    <g id="topsleeveBlock"  transform=" translate(156.661 5)  translate(0 0) " >
        <path class="hidden" id="4"  d=" M  -151.661,0  L  115.974,0  L  115.974,700  L  -151.661,700  z " />
<path transform="translate( 0, 0 )" style="stroke: hsl(26.9, 55%, 50%);" id="20"  d=" M  52.244,700  L  103.379,410  C  111.049,366.5  114.866,242.5  114.866,181.875  C  114.866,121.25  103.379,60.625  103.379,60.625  C  103.379,60.625  64.612,0  0,0  C  -64.612,0  -94.764,60.625  -103.379,109.125  C  -111.994,157.625  -116.302,181.875  -129.224,181.875  C  -129.224,181.875  -113.337,355.598  -114.866,410  L  -122.509,682.013  z " />
<path transform="translate( -1.109, 0 )" style="stroke: hsl(53.8, 55%, 50%);" id="40"  d=" M  53.353,700  L  104.488,410  C  112.158,366.5  116.098,246.38  116.098,184.785  C  116.098,123.19  104.488,61.595  104.488,61.595  C  104.488,61.595  65.305,0  0,0  C  -65.305,0  -95.781,61.595  -104.488,110.871  C  -113.195,160.147  -117.549,184.785  -130.61,184.785  C  -130.61,184.785  -114.981,355.476  -116.098,410  L  -121.684,682.622  z " />
<path transform="translate( -2.102, 0 )" style="stroke: hsl(80.7, 55%, 50%);" id="60"  d=" M  54.346,700  L  105.481,410  C  113.151,366.5  117.201,249.956  117.201,187.467  C  117.201,124.978  105.481,62.489  105.481,62.489  C  105.481,62.489  65.926,0  0,0  C  -65.926,0  -96.691,62.489  -105.481,112.48  C  -114.271,162.471  -118.666,187.467  -131.851,187.467  C  -131.851,187.467  -116.452,355.366  -117.201,410  L  -120.944,683.171  z " />
<path transform="translate( -3.094, 0 )" style="stroke: hsl(107.6, 55%, 50%);" id="80"  d=" M  55.338,700  L  106.473,410  C  114.143,366.5  118.303,253.523  118.303,190.142  C  118.303,126.761  106.473,63.381  106.473,63.381  C  106.473,63.381  66.546,0  0,0  C  -66.546,0  -97.6,63.38  -106.473,114.085  C  -115.346,164.79  -119.782,190.142  -133.091,190.142  C  -133.091,190.142  -117.923,355.256  -118.303,410  L  -120.204,683.721  z " />
<path transform="translate( -4.085, 0 )" style="stroke: hsl(134.5, 55%, 50%);" id="100"  d=" M  56.329,700  L  107.464,410  C  115.134,366.5  119.404,257.08  119.404,192.81  C  119.404,128.54  107.464,64.27  107.464,64.27  C  107.464,64.27  67.165,0  0,0  C  -67.165,0  -98.509,64.27  -107.464,115.686  C  -116.419,167.102  -120.897,192.81  -134.33,192.81  C  -134.33,192.81  -119.392,355.146  -119.404,410  L  -119.462,684.272  z " />
<path transform="translate( -5.074, 0 )" style="stroke: hsl(161.4, 55%, 50%);" id="120"  d=" M  57.318,700  L  108.453,410  C  116.123,366.5  120.503,260.63  120.503,195.472  C  120.503,130.314  108.453,65.157  108.453,65.157  C  108.453,65.157  67.783,0  0,0  C  -67.783,0  -99.415,65.157  -108.453,117.283  C  -117.491,169.409  -122.01,195.472  -135.566,195.472  C  -135.566,195.472  -120.86,355.035  -120.503,410  L  -118.72,684.823  z " />
<path transform="translate( -6.061, 0 )" style="stroke: hsl(188.3, 55%, 50%);" id="140"  d=" M  58.305,700  L  109.44,410  C  117.11,366.5  121.6,264.168  121.6,198.126  C  121.6,132.084  109.44,66.042  109.44,66.042  C  109.44,66.042  68.4,0  0,0  C  -68.4,0  -100.32,66.042  -109.44,118.876  C  -118.56,171.71  -123.12,198.126  -136.8,198.126  C  -136.8,198.126  -122.325,354.925  -121.6,410  L  -117.977,685.375  z " />
<path transform="translate( -7.047, 0 )" style="stroke: hsl(215.2, 55%, 50%);" id="160"  d=" M  59.291,700  L  110.426,410  C  118.096,366.5  122.696,267.699  122.696,200.774  C  122.696,133.849  110.426,66.925  110.426,66.925  C  110.426,66.925  69.016,0  0,0  C  -69.016,0  -101.224,66.924  -110.426,120.464  C  -119.628,174.004  -124.229,200.774  -138.032,200.774  C  -138.032,200.774  -123.788,354.814  -122.696,410  L  -117.234,685.929  z " />
<path transform="translate( -7.825, 0 )" style="stroke: hsl(242.1, 55%, 50%);" id="180"  d=" M  60.069,700  L  111.204,410  C  118.874,366.5  123.56,270.667  123.56,203  C  123.56,135.333  111.204,67.667  111.204,67.667  C  111.204,67.667  69.503,0  0,0  C  -69.503,0  -101.937,67.667  -111.204,121.8  C  -120.471,175.933  -125.105,203  -139.005,203  C  -139.005,203  -124.943,354.727  -123.56,410  L  -116.647,686.367  z " />
<path transform="translate( -8.93, 0 )" style="stroke: hsl(269, 55%, 50%);" id="200"  d=" M  61.174,700  L  112.309,410  C  119.979,366.5  124.788,274.507  124.788,205.88  C  124.788,137.253  112.309,68.627  112.309,68.627  C  112.309,68.627  70.193,0  0,0  C  -70.193,0  -102.95,68.627  -112.309,123.528  C  -121.668,178.429  -126.348,205.88  -140.386,205.88  C  -140.386,205.88  -126.584,354.602  -124.788,410  L  -115.81,686.99  z " />
<path transform="translate( -9.972, 0 )" style="stroke: hsl(295.9, 55%, 50%);" id="220"  d=" M  62.216,700  L  113.351,410  C  121.021,366.5  125.946,278.176  125.946,208.632  C  125.946,139.088  113.351,69.544  113.351,69.544  C  113.351,69.544  70.844,0  0,0  C  -70.844,0  -103.905,69.543  -113.351,125.179  C  -122.797,180.815  -127.52,208.632  -141.689,208.632  C  -141.689,208.632  -128.131,354.484  -125.946,410  L  -115.019,687.581  z " />
    </g>
    <!-- End of group #topsleeveBlock -->
    
    <!-- Start of group #undersleeveBlock -->
    <g id="undersleeveBlock"  transform=" translate(99.985 -55.625)  translate(277.635 0) " >
        <path class="hidden" id="5"  d=" M  -94.985,60.625  L  105.568,60.625  L  105.568,700  L  -94.985,700  z " />
<path transform="translate( 0, 0 )" style="stroke: hsl(26.9, 55%, 50%);" id="21"  d=" M  52.244,700  L  103.379,410  C  111.049,366.5  96.365,242.335  91.892,181.875  C  87.419,121.415  77.534,60.625  77.534,60.625  C  60.812,119.9  -12.922,181.875  -51.689,181.875  L  -77.534,181.875  C  -77.534,181.875  -56.159,355.351  -60.304,410  L  -81.031,683.246  L  52.244,700  z " />
<path transform="translate( -1.109, 0 )" style="stroke: hsl(53.8, 55%, 50%);" id="41"  d=" M  53.353,700  L  104.488,410  C  112.158,366.5  97.483,246.208  92.878,184.785  C  88.273,123.362  78.366,61.595  78.366,61.595  C  61.366,121.797  -13.061,184.785  -52.244,184.785  L  -78.366,184.785  C  -78.366,184.785  -57.19,355.255  -60.951,410  L  -79.757,683.721  L  53.353,700  z " />
<path transform="translate( -2.102, 0 )" style="stroke: hsl(80.7, 55%, 50%);" id="61"  d=" M  54.346,700  L  105.481,410  C  113.151,366.5  98.489,249.777  93.761,187.467  C  89.033,125.157  79.111,62.489  79.111,62.489  C  61.85,123.545  -13.185,187.467  -52.741,187.467  L  -79.111,187.467  C  -79.111,187.467  -58.114,355.171  -61.531,410  L  -78.616,684.145  L  54.346,700  z " />
<path transform="translate( -3.094, 0 )" style="stroke: hsl(107.6, 55%, 50%);" id="81"  d=" M  55.338,700  L  106.473,410  C  114.143,366.5  99.496,253.337  94.643,190.142  C  89.79,126.947  79.855,63.381  79.855,63.381  C  62.354,125.293  -13.309,190.142  -53.237,190.142  L  -79.855,190.142  C  -79.855,190.142  -59.036,355.086  -62.109,410  L  -77.473,684.568  L  55.338,700  z " />
<path transform="translate( -4.085, 0 )" style="stroke: hsl(134.5, 55%, 50%);" id="101"  d=" M  56.329,700  L  107.464,410  C  115.134,366.5  100.503,256.887  95.524,192.81  C  90.545,128.733  80.598,64.27  80.598,64.27  C  62.834,127.03  -13.433,192.81  -53.732,192.81  L  -80.598,192.81  C  -80.598,192.81  -59.958,355.002  -62.687,410  L  -76.331,684.989  L  56.329,700  z " />
<path transform="translate( -5.074, 0 )" style="stroke: hsl(161.4, 55%, 50%);" id="121"  d=" M  57.318,700  L  108.453,410  C  116.123,366.5  101.51,260.43  96.403,195.472  C  91.296,130.514  81.34,65.157  81.34,65.157  C  63.325,128.766  -13.557,195.472  -54.227,195.472  L  -81.34,195.472  C  -81.34,195.472  -60.879,354.918  -63.264,410  L  -75.19,685.409  L  57.318,700  z " />
<path transform="translate( -6.061, 0 )" style="stroke: hsl(188.3, 55%, 50%);" id="141"  d=" M  58.305,700  L  109.44,410  C  117.11,366.5  102.517,263.96  97.28,198.126  C  92.043,132.292  82.08,66.042  82.08,66.042  C  63.811,130.498  -13.68,198.126  -54.72,198.126  L  -82.08,198.126  C  -82.08,198.126  -61.798,354.835  -63.84,410  L  -74.05,685.828  L  58.305,700  z " />
<path transform="translate( -7.047, 0 )" style="stroke: hsl(215.2, 55%, 50%);" id="161"  d=" M  59.291,700  L  110.426,410  C  118.096,366.5  103.524,267.483  98.156,200.774  C  92.788,134.065  82.819,66.925  82.819,66.925  C  64.294,132.224  -13.803,200.774  -55.213,200.774  L  -82.82,200.774  C  -82.82,200.774  -62.716,354.751  -64.415,410  L  -72.91,686.246  L  59.291,700  z " />
<path transform="translate( -7.825, 0 )" style="stroke: hsl(242.1, 55%, 50%);" id="181"  d=" M  60.069,700  L  111.204,410  C  118.874,366.5  104.325,270.445  98.848,203  C  93.371,135.555  83.403,67.667  83.403,67.667  C  64.67,133.676  -13.901,203  -55.602,203  L  -83.403,203  C  -83.403,203  -63.441,354.686  -64.869,410  L  -72.009,686.574  L  60.069,700  z " />
<path transform="translate( -8.93, 0 )" style="stroke: hsl(269, 55%, 50%);" id="201"  d=" M  61.174,700  L  112.309,410  C  119.979,366.5  105.455,274.276  99.83,205.88  C  94.205,137.484  84.232,68.627  84.232,68.627  C  65.22,135.554  -14.039,205.88  -56.155,205.88  L  -84.232,205.88  C  -84.232,205.88  -64.471,354.592  -65.514,410  L  -70.729,687.04  L  61.174,700  z " />
<path transform="translate( -9.972, 0 )" style="stroke: hsl(295.9, 55%, 50%);" id="221"  d=" M  62.216,700  L  113.351,410  C  121.021,366.5  106.525,277.936  100.756,208.632  C  94.987,139.328  85.013,69.544  85.013,69.544  C  65.731,137.349  -14.169,208.632  -56.675,208.632  L  -85.013,208.632  C  -85.013,208.632  -65.441,354.504  -66.121,410  L  -69.52,687.479  L  62.216,700  z " />
    </g>
    <!-- End of group #undersleeveBlock -->
    
    <!-- Start of group #sampler-backBlock -->
    <g id="sampler-backBlock" >
    </g>
    <!-- End of group #sampler-backBlock -->
    
    <!-- Start of group #sampler-frontBlock -->
    <g id="sampler-frontBlock" >
    </g>
    <!-- End of group #sampler-frontBlock -->
    
    <!-- Start of group #sampler-topsleeveBlock -->
    <g id="sampler-topsleeveBlock" >
    </g>
    <!-- End of group #sampler-topsleeveBlock -->
    
    <!-- Start of group #sampler-undersleeveBlock -->
    <g id="sampler-undersleeveBlock" >
    </g>
    <!-- End of group #sampler-undersleeveBlock -->
</g>
<!-- End of group #patternContainer -->

</svg>

