<?xml version="1.0" encoding="UTF-8" standalone="no"?>
<svg
    xmlns="http://www.w3.org/2000/svg"
    xmlns:svg="http://www.w3.org/2000/svg"
    xmlns:xlink="http://www.w3.org/1999/xlink"
    xmlns:freesewing="http://freesewing.org/namespaces/freesewing" viewBox ="0 0 1084 710"
    width ="1084mm"
    height ="710mm"
    freesewing:version ="1.5.0"
    freesewing:origin ="joost.core.freesewing.org" 
>

<style type="text/css">
    <![CDATA[
    path { fill: none; stroke: #000000; stroke-opacity:1; stroke-width: 0.5; stroke-miterlimit:4; stroke-dashoffset:0; stroke-linecap:round; stroke-linejoin:round; }
    path.hidden { fill: none; stroke: none; }]]>
</style>


<!-- Start of group #patternContainer -->
<g id="patternContainer" >
    
    <!-- Start of group #backBlock -->
    <g id="backBlock"  transform=" translate(5 5)  translate(483.667 0) " >
        <path class="hidden" id="2"  d=" M  0,0  L  290,0  L  290,620  L  0,620  z " />
<path transform="translate( 0, 0 )" style="stroke: hsl(26.9, 55%, 50%);" id="18"  d=" M  0,20  L  0,290.5  L  0,500  L  0,620  L  290,620  L  290,290.5  C  273.75,290.5  262.473,284.071  246.951,268.549  C  231.429,253.027  225,197.833  225,155.25  C  225,112.667  233.176,37.332  235,27.5  L  86.777,0  C  83.129,19.664  0,20  0,20  z " />
<path transform="translate( 0, 0 )" style="stroke: hsl(53.8, 55%, 50%);" id="38"  d=" M  0,20  L  0,290.5  L  0,500  L  0,620  L  290,620  L  290,290.5  C  273.75,290.5  262.473,284.071  246.951,268.549  C  231.429,253.027  225,197.833  225,155.25  C  225,112.667  233.176,37.332  235,27.5  L  86.777,0  C  83.129,19.664  0,20  0,20  z " />
<path transform="translate( 0, 0 )" style="stroke: hsl(80.7, 55%, 50%);" id="58"  d=" M  0,20  L  0,290.5  L  0,500  L  0,620  L  290,620  L  290,290.5  C  273.75,290.5  262.473,284.071  246.951,268.549  C  231.429,253.027  225,197.833  225,155.25  C  225,112.667  233.176,37.332  235,27.5  L  86.777,0  C  83.129,19.664  0,20  0,20  z " />
<path transform="translate( 0, 0 )" style="stroke: hsl(107.6, 55%, 50%);" id="78"  d=" M  0,20  L  0,290.5  L  0,500  L  0,620  L  290,620  L  290,290.5  C  273.75,290.5  262.473,284.071  246.951,268.549  C  231.429,253.027  225,197.833  225,155.25  C  225,112.667  233.176,37.332  235,27.5  L  86.777,0  C  83.129,19.664  0,20  0,20  z " />
<path transform="translate( 0, 0 )" style="stroke: hsl(134.5, 55%, 50%);" id="98"  d=" M  0,20  L  0,290.5  L  0,500  L  0,620  L  290,620  L  290,290.5  C  273.75,290.5  262.473,284.071  246.951,268.549  C  231.429,253.027  225,197.833  225,155.25  C  225,112.667  233.176,37.332  235,27.5  L  86.777,0  C  83.129,19.664  0,20  0,20  z " />
<path transform="translate( 0, 0 )" style="stroke: hsl(161.4, 55%, 50%);" id="118"  d=" M  0,20  L  0,290.5  L  0,500  L  0,620  L  290,620  L  290,290.5  C  273.75,290.5  262.473,284.071  246.951,268.549  C  231.429,253.027  225,197.833  225,155.25  C  225,112.667  233.176,37.332  235,27.5  L  86.777,0  C  83.129,19.664  0,20  0,20  z " />
<path transform="translate( 0, 0 )" style="stroke: hsl(188.3, 55%, 50%);" id="138"  d=" M  0,20  L  0,290.5  L  0,500  L  0,620  L  290,620  L  290,290.5  C  273.75,290.5  262.473,284.071  246.951,268.549  C  231.429,253.027  225,197.833  225,155.25  C  225,112.667  233.176,37.332  235,27.5  L  86.777,0  C  83.129,19.664  0,20  0,20  z " />
<path transform="translate( 0, 0 )" style="stroke: hsl(215.2, 55%, 50%);" id="158"  d=" M  0,20  L  0,290.5  L  0,500  L  0,620  L  290,620  L  290,290.5  C  273.75,290.5  262.473,284.071  246.951,268.549  C  231.429,253.027  225,197.833  225,155.25  C  225,112.667  233.176,37.332  235,27.5  L  86.777,0  C  83.129,19.664  0,20  0,20  z " />
<path transform="translate( 0, 0 )" style="stroke: hsl(242.1, 55%, 50%);" id="178"  d=" M  0,20  L  0,290.5  L  0,500  L  0,620  L  290,620  L  290,290.5  C  273.75,290.5  262.473,284.071  246.951,268.549  C  231.429,253.027  225,197.833  225,155.25  C  225,112.667  233.176,37.332  235,27.5  L  86.777,0  C  83.129,19.664  0,20  0,20  z " />
<path transform="translate( 0, 0 )" style="stroke: hsl(269, 55%, 50%);" id="198"  d=" M  0,20  L  0,290.5  L  0,500  L  0,620  L  290,620  L  290,290.5  C  273.75,290.5  262.473,284.071  246.951,268.549  C  231.429,253.027  225,197.833  225,155.25  C  225,112.667  233.176,37.332  235,27.5  L  86.777,0  C  83.129,19.664  0,20  0,20  z " />
<path transform="translate( 0, 0 )" style="stroke: hsl(295.9, 55%, 50%);" id="218"  d=" M  0,20  L  0,290.5  L  0,500  L  0,620  L  290,620  L  290,290.5  C  273.75,290.5  262.473,284.071  246.951,268.549  C  231.429,253.027  225,197.833  225,155.25  C  225,112.667  233.176,37.332  235,27.5  L  86.777,0  C  83.129,19.664  0,20  0,20  z " />
    </g>
    <!-- End of group #backBlock -->
    
    <!-- Start of group #frontBlock -->
    <g id="frontBlock"  transform=" translate(5 5)  translate(783.667 0) " >
        <path class="hidden" id="3"  d=" M  0,0  L  290,0  L  290,620  L  0,620  z " />
<path transform="translate( 0, 0 )" style="stroke: hsl(26.9, 55%, 50%);" id="19"  d=" M  0,99  L  0,290.5  L  0,500  L  0,620  L  290,620  L  290,290.5  C  273.75,290.5  262.473,284.071  246.951,268.549  C  231.429,253.027  220,197.833  220,155.25  C  220,112.667  233.176,37.332  235,27.5  L  86.777,0  C  83.129,19.664  86.777,99  0,99  z " />
<path transform="translate( 0, 0 )" style="stroke: hsl(53.8, 55%, 50%);" id="39"  d=" M  0,99  L  0,290.5  L  0,500  L  0,620  L  290,620  L  290,290.5  C  273.75,290.5  262.473,284.071  246.951,268.549  C  231.429,253.027  220,197.833  220,155.25  C  220,112.667  233.176,37.332  235,27.5  L  86.777,0  C  83.129,19.664  86.777,99  0,99  z " />
<path transform="translate( 0, 0 )" style="stroke: hsl(80.7, 55%, 50%);" id="59"  d=" M  0,99  L  0,290.5  L  0,500  L  0,620  L  290,620  L  290,290.5  C  273.75,290.5  262.473,284.071  246.951,268.549  C  231.429,253.027  220,197.833  220,155.25  C  220,112.667  233.176,37.332  235,27.5  L  86.777,0  C  83.129,19.664  86.777,99  0,99  z " />
<path transform="translate( 0, 0 )" style="stroke: hsl(107.6, 55%, 50%);" id="79"  d=" M  0,99  L  0,290.5  L  0,500  L  0,620  L  290,620  L  290,290.5  C  273.75,290.5  262.473,284.071  246.951,268.549  C  231.429,253.027  220,197.833  220,155.25  C  220,112.667  233.176,37.332  235,27.5  L  86.777,0  C  83.129,19.664  86.777,99  0,99  z " />
<path transform="translate( 0, 0 )" style="stroke: hsl(134.5, 55%, 50%);" id="99"  d=" M  0,99  L  0,290.5  L  0,500  L  0,620  L  290,620  L  290,290.5  C  273.75,290.5  262.473,284.071  246.951,268.549  C  231.429,253.027  220,197.833  220,155.25  C  220,112.667  233.176,37.332  235,27.5  L  86.777,0  C  83.129,19.664  86.777,99  0,99  z " />
<path transform="translate( 0, 0 )" style="stroke: hsl(161.4, 55%, 50%);" id="119"  d=" M  0,99  L  0,290.5  L  0,500  L  0,620  L  290,620  L  290,290.5  C  273.75,290.5  262.473,284.071  246.951,268.549  C  231.429,253.027  220,197.833  220,155.25  C  220,112.667  233.176,37.332  235,27.5  L  86.777,0  C  83.129,19.664  86.777,99  0,99  z " />
<path transform="translate( 0, 0 )" style="stroke: hsl(188.3, 55%, 50%);" id="139"  d=" M  0,99  L  0,290.5  L  0,500  L  0,620  L  290,620  L  290,290.5  C  273.75,290.5  262.473,284.071  246.951,268.549  C  231.429,253.027  220,197.833  220,155.25  C  220,112.667  233.176,37.332  235,27.5  L  86.777,0  C  83.129,19.664  86.777,99  0,99  z " />
<path transform="translate( 0, 0 )" style="stroke: hsl(215.2, 55%, 50%);" id="159"  d=" M  0,99  L  0,290.5  L  0,500  L  0,620  L  290,620  L  290,290.5  C  273.75,290.5  262.473,284.071  246.951,268.549  C  231.429,253.027  220,197.833  220,155.25  C  220,112.667  233.176,37.332  235,27.5  L  86.777,0  C  83.129,19.664  86.777,99  0,99  z " />
<path transform="translate( 0, 0 )" style="stroke: hsl(242.1, 55%, 50%);" id="179"  d=" M  0,99  L  0,290.5  L  0,500  L  0,620  L  290,620  L  290,290.5  C  273.75,290.5  262.473,284.071  246.951,268.549  C  231.429,253.027  220,197.833  220,155.25  C  220,112.667  233.176,37.332  235,27.5  L  86.777,0  C  83.129,19.664  86.777,99  0,99  z " />
<path transform="translate( 0, 0 )" style="stroke: hsl(269, 55%, 50%);" id="199"  d=" M  0,99  L  0,290.5  L  0,500  L  0,620  L  290,620  L  290,290.5  C  273.75,290.5  262.473,284.071  246.951,268.549  C  231.429,253.027  220,197.833  220,155.25  C  220,112.667  233.176,37.332  235,27.5  L  86.777,0  C  83.129,19.664  86.777,99  0,99  z " />
<path transform="translate( 0, 0 )" style="stroke: hsl(295.9, 55%, 50%);" id="219"  d=" M  0,99  L  0,290.5  L  0,500  L  0,620  L  290,620  L  290,290.5  C  273.75,290.5  262.473,284.071  246.951,268.549  C  231.429,253.027  220,197.833  220,155.25  C  220,112.667  233.176,37.332  235,27.5  L  86.777,0  C  83.129,19.664  86.777,99  0,99  z " />
    </g>
    <!-- End of group #frontBlock -->
    
    <!-- Start of group #sleeveBlock -->
    <g id="sleeveBlock" >
    </g>
    <!-- End of group #sleeveBlock -->
    
    <!-- Start of group #topsleeveBlock -->
    <g id="topsleeveBlock"  transform=" translate(154.14 5)  translate(0 0) " >
        <path class="hidden" id="4"  d=" M  -149.14,0  L  115.888,0  L  115.888,700  L  -149.14,700  z " />
<path transform="translate( 0, 0 )" style="stroke: hsl(26.9, 55%, 50%);" id="20"  d=" M  52.281,700  L  103.416,410  C  111.086,366.5  114.907,255.65  114.907,191.737  C  114.907,127.824  103.416,63.912  103.416,63.912  C  103.416,63.912  64.635,0  0,0  C  -64.635,0  -94.798,63.912  -103.416,115.042  C  -112.034,166.172  -116.343,191.737  -129.27,191.737  C  -129.27,191.737  -113.392,355.594  -114.907,410  L  -122.481,682.033  z " />
<path transform="translate( -0.896, 0 )" style="stroke: hsl(53.8, 55%, 50%);" id="40"  d=" M  53.177,700  L  104.312,410  C  111.982,366.5  115.902,256.584  115.902,192.438  C  115.902,128.292  104.312,64.146  104.312,64.146  C  104.312,64.146  65.195,0  0,0  C  -65.195,0  -95.619,64.146  -104.312,115.463  C  -113.005,166.78  -117.351,192.438  -130.39,192.438  C  -130.39,192.438  -114.719,355.495  -115.902,410  L  -121.815,682.526  z " />
<path transform="translate( -1.76, 0 )" style="stroke: hsl(80.7, 55%, 50%);" id="60"  d=" M  54.041,700  L  105.176,410  C  112.846,366.5  116.862,257.422  116.862,193.066  C  116.862,128.71  105.176,64.355  105.176,64.355  C  105.176,64.355  65.735,0  0,0  C  -65.735,0  -96.411,64.356  -105.176,115.84  C  -113.941,167.324  -118.323,193.066  -131.47,193.066  C  -131.47,193.066  -116,355.4  -116.862,410  L  -121.171,683.002  z " />
<path transform="translate( -2.666, 0 )" style="stroke: hsl(107.6, 55%, 50%);" id="80"  d=" M  54.947,700  L  106.082,410  C  113.752,366.5  117.869,258.363  117.869,193.772  C  117.869,129.181  106.082,64.591  106.082,64.591  C  106.082,64.591  66.301,0  0,0  C  -66.301,0  -97.242,64.591  -106.082,116.263  C  -114.922,167.935  -119.342,193.772  -132.602,193.772  C  -132.602,193.772  -117.344,355.299  -117.869,410  L  -120.495,683.504  z " />
<path transform="translate( -3.518, 0 )" style="stroke: hsl(134.5, 55%, 50%);" id="100"  d=" M  55.799,700  L  106.934,410  C  114.604,366.5  118.816,259.15  118.816,194.362  C  118.816,129.574  106.934,64.787  106.934,64.787  C  106.934,64.787  66.834,0  0,0  C  -66.834,0  -98.023,64.787  -106.934,116.617  C  -115.845,168.447  -120.301,194.362  -133.667,194.362  C  -133.667,194.362  -118.607,355.204  -118.816,410  L  -119.859,683.977  z " />
<path transform="translate( -4.397, 0 )" style="stroke: hsl(161.4, 55%, 50%);" id="120"  d=" M  56.678,700  L  107.813,410  C  115.483,366.5  119.792,259.996  119.792,194.997  C  119.792,129.998  107.813,64.999  107.813,64.999  C  107.813,64.999  67.383,0  0,0  C  -67.383,0  -98.828,64.998  -107.813,116.998  C  -116.798,168.998  -121.29,194.997  -134.766,194.997  C  -134.766,194.997  -119.91,355.107  -119.792,410  L  -119.2,684.466  z " />
<path transform="translate( -5.258, 0 )" style="stroke: hsl(188.3, 55%, 50%);" id="140"  d=" M  57.539,700  L  108.674,410  C  116.344,366.5  120.749,260.787  120.749,195.59  C  120.749,130.393  108.674,65.197  108.674,65.197  C  108.674,65.197  67.921,0  0,0  C  -67.921,0  -99.618,65.196  -108.674,117.354  C  -117.73,169.512  -122.258,195.59  -135.842,195.59  C  -135.842,195.59  -121.188,355.011  -120.749,410  L  -118.554,684.946  z " />
<path transform="translate( -6.184, 0 )" style="stroke: hsl(215.2, 55%, 50%);" id="160"  d=" M  58.465,700  L  109.6,410  C  117.27,366.5  121.778,261.742  121.778,196.306  C  121.778,130.87  109.6,65.435  109.6,65.435  C  109.6,65.435  68.5,0  0,0  C  -68.5,0  -100.467,65.436  -109.6,117.784  C  -118.733,170.132  -123.3,196.306  -137,196.306  C  -137,196.306  -122.562,354.907  -121.778,410  L  -117.857,685.465  z " />
<path transform="translate( -6.811, 0 )" style="stroke: hsl(242.1, 55%, 50%);" id="180"  d=" M  59.092,700  L  110.227,410  C  117.897,366.5  122.474,261.9  122.474,196.425  C  122.474,130.95  110.227,65.475  110.227,65.475  C  110.227,65.475  68.892,0  0,0  C  -68.892,0  -101.041,65.475  -110.227,117.855  C  -119.413,170.235  -124.006,196.425  -137.784,196.425  C  -137.784,196.425  -123.492,354.836  -122.474,410  L  -117.384,685.816  z " />
<path transform="translate( -7.952, 0 )" style="stroke: hsl(269, 55%, 50%);" id="200"  d=" M  60.233,700  L  111.368,410  C  119.038,366.5  123.742,263.395  123.742,197.546  C  123.742,131.697  111.368,65.849  111.368,65.849  C  111.368,65.849  69.605,0  0,0  C  -69.605,0  -102.087,65.849  -111.368,118.528  C  -120.649,171.207  -125.289,197.546  -139.21,197.546  C  -139.21,197.546  -125.186,354.708  -123.742,410  L  -116.523,686.459  z " />
<path transform="translate( -8.831, 0 )" style="stroke: hsl(295.9, 55%, 50%);" id="220"  d=" M  61.112,700  L  112.247,410  C  119.917,366.5  124.719,264.198  124.719,198.148  C  124.719,132.098  112.247,66.049  112.247,66.049  C  112.247,66.049  70.154,0  0,0  C  -70.154,0  -102.893,66.05  -112.247,118.889  C  -121.601,171.728  -126.278,198.148  -140.309,198.148  C  -140.309,198.148  -126.491,354.609  -124.719,410  L  -115.857,686.955  z " />
    </g>
    <!-- End of group #topsleeveBlock -->
    
    <!-- Start of group #undersleeveBlock -->
    <g id="undersleeveBlock"  transform=" translate(98.016 -58.912)  translate(275.028 0) " >
        <path class="hidden" id="5"  d=" M  -93.016,63.912  L  105.623,63.912  L  105.623,700  L  -93.016,700  z " />
<path transform="translate( 0, 0 )" style="stroke: hsl(26.9, 55%, 50%);" id="21"  d=" M  52.281,700  L  103.416,410  C  111.086,366.5  96.686,255.472  91.925,191.737  C  87.164,128.002  77.562,63.912  77.562,63.912  C  60.231,126.357  -12.927,191.737  -51.708,191.737  L  -77.562,191.737  C  -77.562,191.737  -56.193,355.347  -60.326,410  L  -80.989,683.262  L  52.281,700  z " />
<path transform="translate( -0.896, 0 )" style="stroke: hsl(53.8, 55%, 50%);" id="41"  d=" M  53.177,700  L  104.312,410  C  111.982,366.5  97.545,256.402  92.722,192.438  C  87.899,128.474  78.234,64.146  78.234,64.146  C  60.767,126.807  -13.039,192.438  -52.156,192.438  L  -78.234,192.438  C  -78.234,192.438  -57.027,355.271  -60.849,410  L  -79.96,683.645  L  53.177,700  z " />
<path transform="translate( -1.76, 0 )" style="stroke: hsl(80.7, 55%, 50%);" id="61"  d=" M  54.041,700  L  105.176,410  C  112.846,366.5  98.372,257.237  93.49,193.066  C  88.608,128.895  78.882,64.355  78.882,64.355  C  61.304,127.212  -13.147,193.066  -52.588,193.066  L  -78.882,193.066  C  -78.882,193.066  -57.83,355.197  -61.353,410  L  -78.967,684.015  L  54.041,700  z " />
<path transform="translate( -2.666, 0 )" style="stroke: hsl(107.6, 55%, 50%);" id="81"  d=" M  54.947,700  L  106.082,410  C  113.752,366.5  99.24,258.173  94.295,193.772  C  89.35,129.371  79.561,64.591  79.561,64.591  C  61.858,127.669  -13.26,193.772  -53.041,193.772  L  -79.562,193.772  C  -79.562,193.772  -58.672,355.12  -61.881,410  L  -77.924,684.401  L  54.947,700  z " />
<path transform="translate( -3.518, 0 )" style="stroke: hsl(134.5, 55%, 50%);" id="101"  d=" M  55.799,700  L  106.934,410  C  114.604,366.5  100.054,258.957  95.052,194.362  C  90.05,129.767  80.2,64.787  80.2,64.787  C  62.388,128.05  -13.367,194.362  -53.467,194.362  L  -80.201,194.362  C  -80.201,194.362  -59.465,355.047  -62.378,410  L  -76.942,684.764  L  55.799,700  z " />
<path transform="translate( -4.397, 0 )" style="stroke: hsl(161.4, 55%, 50%);" id="121"  d=" M  56.678,700  L  107.813,410  C  115.483,366.5  100.897,259.799  95.834,194.997  C  90.771,130.195  80.86,64.999  80.86,64.999  C  62.941,128.463  -13.477,194.997  -53.907,194.997  L  -80.86,194.997  C  -80.86,194.997  -60.283,354.972  -62.891,410  L  -75.929,685.138  L  56.678,700  z " />
<path transform="translate( -5.258, 0 )" style="stroke: hsl(188.3, 55%, 50%);" id="141"  d=" M  57.539,700  L  108.674,410  C  116.344,366.5  101.72,260.586  96.599,195.59  C  91.478,130.594  81.505,65.197  81.505,65.197  C  63.459,128.841  -13.584,195.59  -54.337,195.59  L  -81.506,195.59  C  -81.506,195.59  -61.085,354.899  -63.393,410  L  -74.935,685.503  L  57.539,700  z " />
<path transform="translate( -6.184, 0 )" style="stroke: hsl(215.2, 55%, 50%);" id="161"  d=" M  58.465,700  L  109.6,410  C  117.27,366.5  102.609,261.536  97.422,196.306  C  92.235,131.076  82.2,65.435  82.2,65.435  C  64.046,129.309  -13.7,196.306  -54.8,196.306  L  -82.2,196.306  C  -82.2,196.306  -61.947,354.82  -63.933,410  L  -73.865,685.896  L  58.465,700  z " />
<path transform="translate( -6.811, 0 )" style="stroke: hsl(242.1, 55%, 50%);" id="181"  d=" M  59.092,700  L  110.227,410  C  117.897,366.5  103.2,261.692  97.98,196.425  C  92.76,131.158  82.67,65.475  82.67,65.475  C  64.451,129.382  -13.778,196.425  -55.113,196.425  L  -82.67,196.425  C  -82.67,196.425  -62.531,354.768  -64.299,410  L  -73.141,686.162  L  59.092,700  z " />
<path transform="translate( -7.952, 0 )" style="stroke: hsl(269, 55%, 50%);" id="201"  d=" M  60.233,700  L  111.368,410  C  119.038,366.5  104.304,263.181  98.994,197.546  C  93.684,131.911  83.526,65.849  83.526,65.849  C  65.122,130.104  -13.921,197.546  -55.684,197.546  L  -83.526,197.546  C  -83.526,197.546  -63.594,354.671  -64.965,410  L  -71.819,686.644  L  60.233,700  z " />
<path transform="translate( -8.831, 0 )" style="stroke: hsl(295.9, 55%, 50%);" id="221"  d=" M  61.112,700  L  112.247,410  C  119.917,366.5  105.146,263.979  99.775,198.148  C  94.404,132.317  84.185,66.049  84.185,66.049  C  65.675,130.495  -14.031,198.148  -56.123,198.148  L  -84.185,198.148  C  -84.185,198.148  -64.412,354.597  -65.477,410  L  -70.801,687.014  L  61.112,700  z " />
    </g>
    <!-- End of group #undersleeveBlock -->
    
    <!-- Start of group #sampler-backBlock -->
    <g id="sampler-backBlock" >
    </g>
    <!-- End of group #sampler-backBlock -->
    
    <!-- Start of group #sampler-frontBlock -->
    <g id="sampler-frontBlock" >
    </g>
    <!-- End of group #sampler-frontBlock -->
    
    <!-- Start of group #sampler-topsleeveBlock -->
    <g id="sampler-topsleeveBlock" >
    </g>
    <!-- End of group #sampler-topsleeveBlock -->
    
    <!-- Start of group #sampler-undersleeveBlock -->
    <g id="sampler-undersleeveBlock" >
    </g>
    <!-- End of group #sampler-undersleeveBlock -->
</g>
<!-- End of group #patternContainer -->

</svg>

