<?xml version="1.0" encoding="UTF-8" standalone="no"?>
<svg
    width ="1524.408662874"
    height ="4267.8248072277"
    viewbox ="0 0 1524.408662874 4267.8248072277" xmlns:dc="http://purl.org/dc/elements/1.1/"
    xmlns:cc="http://creativecommons.org/ns#"
    xmlns:rdf="http://www.w3.org/1999/02/22-rdf-syntax-ns#"
    xmlns:svg="http://www.w3.org/2000/svg"
    xmlns="http://www.w3.org/2000/svg"
    xmlns:xlink="http://www.w3.org/1999/xlink"
    xmlns:sodipodi="http://sodipodi.sourceforge.net/DTD/sodipodi-0.dtd"
    xmlns:inkscape="http://www.inkscape.org/namespaces/inkscape" 
>

<style type="text/css">
    <![CDATA[
    path { fill: none; stroke: #000000; stroke-opacity:1; stroke-width: 0.5; stroke-miterlimit:4; stroke-dashoffset:0; stroke-linecap:round; stroke-linejoin:round; }
    path.hidden { fill: none; stroke: none; }]]>
</style>


<!-- Start of group #patternScaleContainer -->
<g id="patternScaleContainer"  transform=" scale(3.54330709 ) " >
    
    <!-- Start of group #backBlock -->
    <g id="backBlock"  transform=" translate(355.382 54.875)  translate(0 0) " >
        <path class="hidden" id="2"  d=" M  -350.382,-49.875  L  69.84,-49.875  L  69.84,1144.6  L  -350.382,1144.6  z " />
<path transform="translate( 0, 0 )" style="stroke: hsl(26.9, 55%, 50%);" id="7"  d=" M  -262.885,150.085  L  -215.363,-49.875  L  -69.574,-24.38  L  -81.064,72.494  L  -47.428,-20.508  L  69.84,0  C  69.84,0  63.666,97.653  46.861,193.748  C  30.056,289.843  -23.605,380.2  -24.805,598.6  L  -27.805,1144.6  L  -287.805,1144.6  L  -297.805,598.6  C  -301.805,380.2  -350.382,234.784  -350.382,234.784  C  -350.382,234.784  -272.95,192.435  -262.885,150.085  z  M  -162.805,-40.684  L  -162.805,1144.6 " />
<path transform="translate( 0, 0 )" style="stroke: hsl(53.8, 55%, 50%);" id="13"  d=" M  -262.885,150.085  L  -215.363,-49.875  L  -69.574,-24.38  L  -81.064,72.494  L  -47.428,-20.508  L  69.84,0  C  69.84,0  63.666,97.653  46.861,193.748  C  30.056,289.843  -23.605,380.2  -24.805,598.6  L  -27.805,1144.6  L  -287.805,1144.6  L  -297.805,598.6  C  -301.805,380.2  -350.382,234.784  -350.382,234.784  C  -350.382,234.784  -273.956,196.669  -262.885,150.085  z  M  -162.805,-40.684  L  -162.805,1144.6 " />
<path transform="translate( 0, 0 )" style="stroke: hsl(80.7, 55%, 50%);" id="19"  d=" M  -262.885,150.085  L  -215.363,-49.875  L  -69.574,-24.38  L  -81.064,72.494  L  -47.428,-20.508  L  69.84,0  C  69.84,0  63.666,97.653  46.861,193.748  C  30.056,289.843  -23.605,380.2  -24.805,598.6  L  -27.805,1144.6  L  -287.805,1144.6  L  -297.805,598.6  C  -301.805,380.2  -350.382,234.784  -350.382,234.784  C  -350.382,234.784  -274.962,200.904  -262.885,150.085  z  M  -162.805,-40.684  L  -162.805,1144.6 " />
<path transform="translate( 0, 0 )" style="stroke: hsl(107.6, 55%, 50%);" id="25"  d=" M  -262.885,150.085  L  -215.363,-49.875  L  -69.574,-24.38  L  -81.064,72.494  L  -47.428,-20.508  L  69.84,0  C  69.84,0  63.666,97.653  46.861,193.748  C  30.056,289.843  -23.605,380.2  -24.805,598.6  L  -27.805,1144.6  L  -287.805,1144.6  L  -297.805,598.6  C  -301.805,380.2  -350.382,234.784  -350.382,234.784  C  -350.382,234.784  -275.969,205.139  -262.885,150.085  z  M  -162.805,-40.684  L  -162.805,1144.6 " />
<path transform="translate( 0, 0 )" style="stroke: hsl(134.5, 55%, 50%);" id="31"  d=" M  -262.885,150.085  L  -215.363,-49.875  L  -69.574,-24.38  L  -81.064,72.494  L  -47.428,-20.508  L  69.84,0  C  69.84,0  63.666,97.653  46.861,193.748  C  30.056,289.843  -23.605,380.2  -24.805,598.6  L  -27.805,1144.6  L  -287.805,1144.6  L  -297.805,598.6  C  -301.805,380.2  -350.382,234.784  -350.382,234.784  C  -350.382,234.784  -276.975,209.374  -262.885,150.085  z  M  -162.805,-40.684  L  -162.805,1144.6 " />
<path transform="translate( 0, 0 )" style="stroke: hsl(161.4, 55%, 50%);" id="37"  d=" M  -262.885,150.085  L  -215.363,-49.875  L  -69.574,-24.38  L  -81.064,72.494  L  -47.428,-20.508  L  69.84,0  C  69.84,0  63.666,97.653  46.861,193.748  C  30.056,289.843  -23.605,380.2  -24.805,598.6  L  -27.805,1144.6  L  -287.805,1144.6  L  -297.805,598.6  C  -301.805,380.2  -350.382,234.784  -350.382,234.784  C  -350.382,234.784  -277.982,213.609  -262.885,150.085  z  M  -162.805,-40.684  L  -162.805,1144.6 " />
<path transform="translate( 0, 0 )" style="stroke: hsl(188.3, 55%, 50%);" id="43"  d=" M  -262.885,150.085  L  -215.363,-49.875  L  -69.574,-24.38  L  -81.064,72.494  L  -47.428,-20.508  L  69.84,0  C  69.84,0  63.666,97.653  46.861,193.748  C  30.056,289.843  -23.605,380.2  -24.805,598.6  L  -27.805,1144.6  L  -287.805,1144.6  L  -297.805,598.6  C  -301.805,380.2  -350.382,234.784  -350.382,234.784  C  -350.382,234.784  -278.988,217.844  -262.885,150.085  z  M  -162.805,-40.684  L  -162.805,1144.6 " />
<path transform="translate( 0, 0 )" style="stroke: hsl(215.2, 55%, 50%);" id="49"  d=" M  -262.885,150.085  L  -215.363,-49.875  L  -69.574,-24.38  L  -81.064,72.494  L  -47.428,-20.508  L  69.84,0  C  69.84,0  63.666,97.653  46.861,193.748  C  30.056,289.843  -23.605,380.2  -24.805,598.6  L  -27.805,1144.6  L  -287.805,1144.6  L  -297.805,598.6  C  -301.805,380.2  -350.382,234.784  -350.382,234.784  C  -350.382,234.784  -279.995,222.079  -262.885,150.085  z  M  -162.805,-40.684  L  -162.805,1144.6 " />
<path transform="translate( 0, 0 )" style="stroke: hsl(242.1, 55%, 50%);" id="55"  d=" M  -262.885,150.085  L  -215.363,-49.875  L  -69.574,-24.38  L  -81.064,72.494  L  -47.428,-20.508  L  69.84,0  C  69.84,0  63.666,97.653  46.861,193.748  C  30.056,289.843  -23.605,380.2  -24.805,598.6  L  -27.805,1144.6  L  -287.805,1144.6  L  -297.805,598.6  C  -301.805,380.2  -350.382,234.784  -350.382,234.784  C  -350.382,234.784  -281.001,226.314  -262.885,150.085  z  M  -162.805,-40.684  L  -162.805,1144.6 " />
<path transform="translate( 0, 0 )" style="stroke: hsl(269, 55%, 50%);" id="61"  d=" M  -262.885,150.085  L  -215.363,-49.875  L  -69.574,-24.38  L  -81.064,72.494  L  -47.428,-20.508  L  69.84,0  C  69.84,0  63.666,97.653  46.861,193.748  C  30.056,289.843  -23.605,380.2  -24.805,598.6  L  -27.805,1144.6  L  -287.805,1144.6  L  -297.805,598.6  C  -301.805,380.2  -350.382,234.784  -350.382,234.784  C  -350.382,234.784  -282.008,230.549  -262.885,150.085  z  M  -162.805,-40.684  L  -162.805,1144.6 " />
<path transform="translate( 0, 0 )" style="stroke: hsl(295.9, 55%, 50%);" id="67"  d=" M  -262.885,150.085  L  -215.363,-49.875  L  -69.574,-24.38  L  -81.064,72.494  L  -47.428,-20.508  L  69.84,0  C  69.84,0  63.666,97.653  46.861,193.748  C  30.056,289.843  -23.605,380.2  -24.805,598.6  L  -27.805,1144.6  L  -287.805,1144.6  L  -297.805,598.6  C  -301.805,380.2  -350.382,234.784  -350.382,234.784  C  -350.382,234.784  -283.014,234.784  -262.885,150.085  z  M  -162.805,-40.684  L  -162.805,1144.6 " />
    </g>
    <!-- End of group #backBlock -->
</g>
<!-- End of group #patternScaleContainer -->

</svg>

