<?xml version="1.0" encoding="UTF-8" standalone="no"?>
<svg
    width ="1919.0232301802"
    height ="3037.9854359738"
    viewbox ="0 0 1919.0232301802 3037.9854359738" xmlns:dc="http://purl.org/dc/elements/1.1/"
    xmlns:cc="http://creativecommons.org/ns#"
    xmlns:rdf="http://www.w3.org/1999/02/22-rdf-syntax-ns#"
    xmlns:svg="http://www.w3.org/2000/svg"
    xmlns="http://www.w3.org/2000/svg"
    xmlns:xlink="http://www.w3.org/1999/xlink"
    xmlns:sodipodi="http://sodipodi.sourceforge.net/DTD/sodipodi-0.dtd"
    xmlns:inkscape="http://www.inkscape.org/namespaces/inkscape" 
>

<style type="text/css">
    <![CDATA[
    path { fill: none; stroke: #000000; stroke-opacity:1; stroke-width: 0.5; stroke-miterlimit:4; stroke-dashoffset:0; stroke-linecap:round; stroke-linejoin:round; }
    path.hidden { fill: none; stroke: none; }]]>
</style>


<!-- Start of group #patternScaleContainer -->
<g id="patternScaleContainer"  transform=" scale(3.54330709 ) " >
    
    <!-- Start of group #sleeve -->
    <g id="sleeve"  transform=" translate(272.334 178.451)  translate(0 0) " >
        <path class="hidden" id="2"  d=" M  -267.334,-173.451  L  264.257,-173.451  L  264.257,673.936  L  -267.334,673.936  z " />
<path transform="translate( 0, 0 )" style="stroke: hsl(26.9, 55%, 50%);" id="124"  d=" M  -142.5,673.936  L  -253.547,108.186  C  -217.849,108.186  -153.591,-41.945  -32.905,-173.451  C  -23.106,-138.076  -14.199,-130.753  0,-130.753  C  8.8,-130.753  30.605,-130.775  54.241,-138.269  C  164.751,-24.806  218.887,108.186  250.564,108.186  L  142.5,673.936  z " />
<path transform="translate( 0, 0 )" style="stroke: hsl(53.8, 55%, 50%);" id="254"  d=" M  -142.5,672.883  L  -254.981,107.133  C  -219.283,107.133  -153.591,-41.945  -32.905,-173.451  C  -23.106,-138.076  -14.199,-130.753  0,-130.753  C  8.8,-130.753  30.605,-130.775  54.241,-138.269  C  164.751,-24.806  220.318,107.133  251.995,107.133  L  142.5,672.883  z " />
<path transform="translate( 0, 0 )" style="stroke: hsl(80.7, 55%, 50%);" id="384"  d=" M  -142.5,671.826  L  -256.402,106.076  C  -220.704,106.076  -153.591,-41.945  -32.905,-173.451  C  -23.106,-138.076  -14.199,-130.753  0,-130.753  C  8.8,-130.753  30.605,-130.775  54.241,-138.269  C  164.751,-24.806  221.735,106.076  253.412,106.076  L  142.5,671.826  z " />
<path transform="translate( 0, 0 )" style="stroke: hsl(107.6, 55%, 50%);" id="514"  d=" M  -142.5,670.765  L  -257.811,105.015  C  -222.113,105.015  -153.591,-41.945  -32.905,-173.451  C  -23.106,-138.076  -14.199,-130.753  0,-130.753  C  8.8,-130.753  30.605,-130.775  54.241,-138.269  C  164.751,-24.806  223.139,105.015  254.816,105.015  L  142.5,670.765  z " />
<path transform="translate( 0, 0 )" style="stroke: hsl(134.5, 55%, 50%);" id="644"  d=" M  -142.5,669.702  L  -259.207,103.952  C  -223.509,103.952  -153.591,-41.945  -32.905,-173.451  C  -23.106,-138.076  -14.199,-130.753  0,-130.753  C  8.8,-130.753  30.605,-130.775  54.241,-138.269  C  164.751,-24.806  224.528,103.952  256.205,103.952  L  142.5,669.702  z " />
<path transform="translate( 0, 0 )" style="stroke: hsl(161.4, 55%, 50%);" id="774"  d=" M  -142.5,668.635  L  -260.592,102.885  C  -224.894,102.885  -153.591,-41.945  -32.905,-173.451  C  -23.106,-138.076  -14.199,-130.753  0,-130.753  C  8.8,-130.753  30.605,-130.775  54.241,-138.269  C  164.751,-24.806  225.904,102.885  257.581,102.885  L  142.5,668.635  z " />
<path transform="translate( 0, 0 )" style="stroke: hsl(188.3, 55%, 50%);" id="904"  d=" M  -142.5,666.545  L  -261.964,100.795  C  -226.266,100.795  -153.591,-41.945  -32.905,-173.451  C  -23.106,-138.076  -14.199,-130.753  0,-130.753  C  8.8,-130.753  30.605,-130.775  54.241,-138.269  C  164.751,-24.806  227.266,100.795  258.943,100.795  L  142.5,666.545  z " />
<path transform="translate( 0, 0 )" style="stroke: hsl(215.2, 55%, 50%);" id="1034"  d=" M  -142.5,665.432  L  -263.325,99.682  C  -227.627,99.682  -153.591,-41.945  -32.905,-173.451  C  -23.106,-138.076  -14.199,-130.753  0,-130.753  C  8.8,-130.753  30.605,-130.775  54.241,-138.269  C  164.751,-24.806  228.615,99.682  260.292,99.682  L  142.5,665.432  z " />
<path transform="translate( 0, 0 )" style="stroke: hsl(242.1, 55%, 50%);" id="1164"  d=" M  -142.5,664.316  L  -264.673,98.566  C  -228.975,98.566  -153.591,-41.945  -32.905,-173.451  C  -23.106,-138.076  -14.199,-130.753  0,-130.753  C  8.8,-130.753  30.605,-130.775  54.241,-138.269  C  164.751,-24.806  229.95,98.566  261.627,98.566  L  142.5,664.316  z " />
<path transform="translate( 0, 0 )" style="stroke: hsl(269, 55%, 50%);" id="1294"  d=" M  -142.5,663.197  L  -266.01,97.447  C  -230.312,97.447  -153.591,-41.945  -32.905,-173.451  C  -23.106,-138.076  -14.199,-130.753  0,-130.753  C  8.8,-130.753  30.605,-130.775  54.241,-138.269  C  164.751,-24.806  231.272,97.447  262.949,97.447  L  142.5,663.197  z " />
<path transform="translate( 0, 0 )" style="stroke: hsl(295.9, 55%, 50%);" id="1424"  d=" M  -142.5,662.075  L  -267.334,96.325  C  -231.636,96.325  -153.591,-41.945  -32.905,-173.451  C  -23.106,-138.076  -14.199,-130.753  0,-130.753  C  8.8,-130.753  30.605,-130.775  54.241,-138.269  C  164.751,-24.806  232.58,96.325  264.257,96.325  L  142.5,662.075  z " />
    </g>
    <!-- End of group #sleeve -->
</g>
<!-- End of group #patternScaleContainer -->

</svg>

