<?xml version="1.0" encoding="UTF-8" standalone="no"?>
<svg
    width ="1871.4791356466"
    height ="3302.6669322897"
    viewbox ="0 0 1871.4791356466 3302.6669322897" xmlns:dc="http://purl.org/dc/elements/1.1/"
    xmlns:cc="http://creativecommons.org/ns#"
    xmlns:rdf="http://www.w3.org/1999/02/22-rdf-syntax-ns#"
    xmlns:svg="http://www.w3.org/2000/svg"
    xmlns="http://www.w3.org/2000/svg"
    xmlns:xlink="http://www.w3.org/1999/xlink"
    xmlns:sodipodi="http://sodipodi.sourceforge.net/DTD/sodipodi-0.dtd"
    xmlns:inkscape="http://www.inkscape.org/namespaces/inkscape" 
>

<style type="text/css">
    <![CDATA[
    path { fill: none; stroke: #000000; stroke-opacity:1; stroke-width: 0.5; stroke-miterlimit:4; stroke-dashoffset:0; stroke-linecap:round; stroke-linejoin:round; }
    path.hidden { fill: none; stroke: none; }]]>
</style>


<!-- Start of group #patternScaleContainer -->
<g id="patternScaleContainer"  transform=" scale(3.54330709 ) " >
    
    <!-- Start of group #sleeve -->
    <g id="sleeve"  transform=" translate(265.592 178.451)  translate(0 0) " >
        <path class="hidden" id="2"  d=" M  -260.592,-173.451  L  257.581,-173.451  L  257.581,748.635  L  -260.592,748.635  z " />
<path transform="translate( 0, 0 )" style="stroke: hsl(26.9, 55%, 50%);" id="124"  d=" M  -142.5,628.635  L  -260.592,102.885  C  -224.894,102.885  -153.591,-41.945  -32.905,-173.451  C  -23.106,-138.076  -14.199,-130.753  0,-130.753  C  8.8,-130.753  30.605,-130.775  54.241,-138.269  C  164.751,-24.806  225.904,102.885  257.581,102.885  L  142.5,628.635  z " />
<path transform="translate( 0, 0 )" style="stroke: hsl(53.8, 55%, 50%);" id="254"  d=" M  -142.5,640.635  L  -260.592,102.885  C  -224.894,102.885  -153.591,-41.945  -32.905,-173.451  C  -23.106,-138.076  -14.199,-130.753  0,-130.753  C  8.8,-130.753  30.605,-130.775  54.241,-138.269  C  164.751,-24.806  225.904,102.885  257.581,102.885  L  142.5,640.635  z " />
<path transform="translate( 0, 0 )" style="stroke: hsl(80.7, 55%, 50%);" id="384"  d=" M  -142.5,652.635  L  -260.592,102.885  C  -224.894,102.885  -153.591,-41.945  -32.905,-173.451  C  -23.106,-138.076  -14.199,-130.753  0,-130.753  C  8.8,-130.753  30.605,-130.775  54.241,-138.269  C  164.751,-24.806  225.904,102.885  257.581,102.885  L  142.5,652.635  z " />
<path transform="translate( 0, 0 )" style="stroke: hsl(107.6, 55%, 50%);" id="514"  d=" M  -142.5,664.635  L  -260.592,102.885  C  -224.894,102.885  -153.591,-41.945  -32.905,-173.451  C  -23.106,-138.076  -14.199,-130.753  0,-130.753  C  8.8,-130.753  30.605,-130.775  54.241,-138.269  C  164.751,-24.806  225.904,102.885  257.581,102.885  L  142.5,664.635  z " />
<path transform="translate( 0, 0 )" style="stroke: hsl(134.5, 55%, 50%);" id="644"  d=" M  -142.5,676.635  L  -260.592,102.885  C  -224.894,102.885  -153.591,-41.945  -32.905,-173.451  C  -23.106,-138.076  -14.199,-130.753  0,-130.753  C  8.8,-130.753  30.605,-130.775  54.241,-138.269  C  164.751,-24.806  225.904,102.885  257.581,102.885  L  142.5,676.635  z " />
<path transform="translate( 0, 0 )" style="stroke: hsl(161.4, 55%, 50%);" id="774"  d=" M  -142.5,688.635  L  -260.592,102.885  C  -224.894,102.885  -153.591,-41.945  -32.905,-173.451  C  -23.106,-138.076  -14.199,-130.753  0,-130.753  C  8.8,-130.753  30.605,-130.775  54.241,-138.269  C  164.751,-24.806  225.904,102.885  257.581,102.885  L  142.5,688.635  z " />
<path transform="translate( 0, 0 )" style="stroke: hsl(188.3, 55%, 50%);" id="904"  d=" M  -142.5,700.635  L  -260.592,102.885  C  -224.894,102.885  -153.591,-41.945  -32.905,-173.451  C  -23.106,-138.076  -14.199,-130.753  0,-130.753  C  8.8,-130.753  30.605,-130.775  54.241,-138.269  C  164.751,-24.806  225.904,102.885  257.581,102.885  L  142.5,700.635  z " />
<path transform="translate( 0, 0 )" style="stroke: hsl(215.2, 55%, 50%);" id="1034"  d=" M  -142.5,712.635  L  -260.592,102.885  C  -224.894,102.885  -153.591,-41.945  -32.905,-173.451  C  -23.106,-138.076  -14.199,-130.753  0,-130.753  C  8.8,-130.753  30.605,-130.775  54.241,-138.269  C  164.751,-24.806  225.904,102.885  257.581,102.885  L  142.5,712.635  z " />
<path transform="translate( 0, 0 )" style="stroke: hsl(242.1, 55%, 50%);" id="1164"  d=" M  -142.5,724.635  L  -260.592,102.885  C  -224.894,102.885  -153.591,-41.945  -32.905,-173.451  C  -23.106,-138.076  -14.199,-130.753  0,-130.753  C  8.8,-130.753  30.605,-130.775  54.241,-138.269  C  164.751,-24.806  225.904,102.885  257.581,102.885  L  142.5,724.635  z " />
<path transform="translate( 0, 0 )" style="stroke: hsl(269, 55%, 50%);" id="1294"  d=" M  -142.5,736.635  L  -260.592,102.885  C  -224.894,102.885  -153.591,-41.945  -32.905,-173.451  C  -23.106,-138.076  -14.199,-130.753  0,-130.753  C  8.8,-130.753  30.605,-130.775  54.241,-138.269  C  164.751,-24.806  225.904,102.885  257.581,102.885  L  142.5,736.635  z " />
<path transform="translate( 0, 0 )" style="stroke: hsl(295.9, 55%, 50%);" id="1424"  d=" M  -142.5,748.635  L  -260.592,102.885  C  -224.894,102.885  -153.591,-41.945  -32.905,-173.451  C  -23.106,-138.076  -14.199,-130.753  0,-130.753  C  8.8,-130.753  30.605,-130.775  54.241,-138.269  C  164.751,-24.806  225.904,102.885  257.581,102.885  L  142.5,748.635  z " />
    </g>
    <!-- End of group #sleeve -->
</g>
<!-- End of group #patternScaleContainer -->

</svg>

