<?xml version="1.0" encoding="UTF-8" standalone="no"?>
<svg
    xmlns="http://www.w3.org/2000/svg"
    xmlns:svg="http://www.w3.org/2000/svg"
    xmlns:xlink="http://www.w3.org/1999/xlink"
    xmlns:freesewing="http://freesewing.org/namespaces/freesewing" viewBox ="0 0 815 355"
    width ="815mm"
    height ="355mm"
    freesewing:version ="1.5.0"
    freesewing:origin ="joost.core.freesewing.org" 
>

<style type="text/css">
    <![CDATA[
    path { fill: none; stroke: #000000; stroke-opacity:1; stroke-width: 0.5; stroke-miterlimit:4; stroke-dashoffset:0; stroke-linecap:round; stroke-linejoin:round; }
    path.hidden { fill: none; stroke: none; }]]>
</style>


<!-- Start of group #patternContainer -->
<g id="patternContainer" >
    
    <!-- Start of group #block -->
    <g id="block" >
    </g>
    <!-- End of group #block -->
    
    <!-- Start of group #front -->
    <g id="front"  transform=" translate(143.708 11.156)  translate(170.39 0) " >
        <path class="hidden" id="2"  d=" M  -138.708,-6.156  L  138.708,-6.156  L  138.708,270.886  L  -138.708,270.886  z " />
<path transform="translate( 0, 0 )" style="stroke: hsl(26.9, 55%, 50%);" id="18"  d=" M  -110.307,89.25  L  -105.844,-6.156  L  105.844,-6.156  L  110.307,89.25  C  25.026,89.25  26.24,148.341  26.24,233.622  L  -26.24,233.622  C  -26.24,148.341  -25.026,89.25  -110.307,89.25  z " />
<path transform="translate( 0, 0 )" style="stroke: hsl(53.8, 55%, 50%);" id="38"  d=" M  -110.307,89.25  L  -105.844,-6.156  C  -105.844,-6.156  -52.922,0  0,0  C  52.922,0  105.844,-6.156  105.844,-6.156  L  110.307,89.25  C  25.234,95.199  30.567,154.061  36.516,239.135  L  10.34,240.965  C  10.34,240.965  0.47,189.813  0,183.092  C  -0.47,189.813  -10.34,240.965  -10.34,240.965  L  -36.516,239.135  C  -30.567,154.061  -25.234,95.199  -110.307,89.25  z " />
<path transform="translate( 0, 0 )" style="stroke: hsl(80.7, 55%, 50%);" id="58"  d=" M  -110.307,89.25  L  -105.844,-6.156  C  -105.844,-6.156  -52.922,0  0,0  C  52.922,0  105.844,-6.156  105.844,-6.156  L  110.307,89.25  C  25.856,101.119  35.282,159.466  47.151,243.917  L  21.166,247.569  C  21.166,247.569  1.875,196.436  0,183.092  C  -1.875,196.436  -21.166,247.569  -21.166,247.569  L  -47.151,243.917  C  -35.282,159.466  -25.856,101.119  -110.307,89.25  z " />
<path transform="translate( 0, 0 )" style="stroke: hsl(107.6, 55%, 50%);" id="78"  d=" M  -110.307,89.25  L  -105.844,-6.156  C  -105.844,-6.156  -52.922,0  0,0  C  52.922,0  105.844,-6.156  105.844,-6.156  L  110.307,89.25  C  26.89,106.981  40.363,164.528  58.094,247.946  L  32.427,253.401  C  32.427,253.401  4.202,202.862  0,183.092  C  -4.202,202.862  -32.427,253.401  -32.427,253.401  L  -58.094,247.946  C  -40.363,164.528  -26.89,106.981  -110.307,89.25  z " />
<path transform="translate( 0, 0 )" style="stroke: hsl(134.5, 55%, 50%);" id="98"  d=" M  -110.307,89.25  L  -105.844,-6.156  C  -105.844,-6.156  -52.922,0  0,0  C  52.922,0  105.844,-6.156  105.844,-6.156  L  110.307,89.25  C  28.33,112.757  45.784,169.224  69.291,251.201  L  44.067,258.434  C  44.067,258.434  7.428,208.997  0,183.092  C  -7.428,208.997  -44.067,258.434  -44.067,258.434  L  -69.291,251.201  C  -45.784,169.224  -28.33,112.757  -110.307,89.25  z " />
<path transform="translate( 0, 0 )" style="stroke: hsl(161.4, 55%, 50%);" id="118"  d=" M  -110.307,89.25  L  -105.844,-6.156  C  -105.844,-6.156  -52.922,0  0,0  C  52.922,0  105.844,-6.156  105.844,-6.156  L  110.307,89.25  C  30.169,118.418  51.52,173.53  80.688,253.668  L  56.03,262.643  C  56.03,262.643  11.522,214.747  0,183.092  C  -11.522,214.747  -56.03,262.643  -56.03,262.643  L  -80.688,253.668  C  -51.52,173.53  -30.169,118.418  -110.307,89.25  z " />
<path transform="translate( 0, 0 )" style="stroke: hsl(188.3, 55%, 50%);" id="138"  d=" M  -110.307,89.25  L  -105.844,-6.156  C  -105.844,-6.156  -52.922,0  0,0  C  52.922,0  105.844,-6.156  105.844,-6.156  L  110.307,89.25  C  32.399,123.937  57.542,177.425  92.229,255.334  L  68.258,266.006  C  68.258,266.006  16.442,220.021  0,183.092  C  -16.442,220.021  -68.258,266.006  -68.258,266.006  L  -92.229,255.334  C  -57.542,177.425  -32.399,123.937  -110.307,89.25  z " />
<path transform="translate( 0, 0 )" style="stroke: hsl(215.2, 55%, 50%);" id="158"  d=" M  -110.307,89.25  L  -105.844,-6.156  C  -105.844,-6.156  -52.922,0  0,0  C  52.922,0  105.844,-6.156  105.844,-6.156  L  110.307,89.25  C  35.008,129.287  63.822,180.891  103.859,256.19  L  80.69,268.509  C  80.69,268.509  22.141,224.733  0,183.092  C  -22.141,224.733  -80.69,268.509  -80.69,268.509  L  -103.859,256.19  C  -63.822,180.891  -35.008,129.287  -110.307,89.25  z " />
<path transform="translate( 0, 0 )" style="stroke: hsl(242.1, 55%, 50%);" id="178"  d=" M  -110.307,89.25  L  -105.844,-6.156  C  -105.844,-6.156  -52.922,0  0,0  C  52.922,0  105.844,-6.156  105.844,-6.156  L  110.307,89.25  C  37.985,134.442  70.328,183.911  115.52,256.233  L  93.267,270.138  C  93.267,270.138  28.562,228.801  0,183.092  C  -28.562,228.801  -93.267,270.138  -93.267,270.138  L  -115.52,256.233  C  -70.328,183.911  -37.985,134.442  -110.307,89.25  z " />
<path transform="translate( 0, 0 )" style="stroke: hsl(269, 55%, 50%);" id="198"  d=" M  -110.307,89.25  L  -105.844,-6.156  C  -105.844,-6.156  -52.922,0  0,0  C  52.922,0  105.844,-6.156  105.844,-6.156  L  110.307,89.25  C  41.313,139.377  77.028,186.469  127.155,255.463  L  105.926,270.886  C  105.926,270.886  35.641,232.148  0,183.092  C  -35.641,232.148  -105.926,270.886  -105.926,270.886  L  -127.155,255.463  C  -77.028,186.469  -41.313,139.377  -110.307,89.25  z " />
<path transform="translate( 0, 0 )" style="stroke: hsl(295.9, 55%, 50%);" id="218"  d=" M  -110.307,89.25  L  -105.844,-6.156  C  -105.844,-6.156  -52.922,0  0,0  C  52.922,0  105.844,-6.156  105.844,-6.156  L  110.307,89.25  C  44.978,144.068  83.891,188.554  138.708,253.883  L  118.607,270.749  C  118.607,270.749  43.307,234.703  0,183.092  C  -43.307,234.703  -118.607,270.749  -118.607,270.749  L  -138.708,253.883  C  -83.891,188.554  -44.978,144.068  -110.307,89.25  z " />
    </g>
    <!-- End of group #front -->
    
    <!-- Start of group #back -->
    <g id="back"  transform=" translate(5 29.625)  translate(0 0) " >
        <path class="hidden" id="3"  d=" M  0,-24.625  L  160.39,-24.625  L  160.39,320.601  L  0,320.601  z " />
<path transform="translate( 0, 0 )" style="stroke: hsl(26.9, 55%, 50%);" id="19"  d=" M  0,255  C  32.801,255  32.801,320.601  32.801,320.601  L  160.39,253.839  L  136.086,-18.469  C  136.086,-18.469  68.043,-24.625  0,-24.625  L  0,255  z " />
<path transform="translate( 0, 0 )" style="stroke: hsl(53.8, 55%, 50%);" id="39"  d=" M  0,255  C  32.801,255  32.801,320.601  32.801,320.601  L  160.39,253.839  L  136.086,-18.469  C  136.086,-18.469  68.043,-24.625  0,-24.625  L  0,255  z " />
<path transform="translate( 0, 0 )" style="stroke: hsl(80.7, 55%, 50%);" id="59"  d=" M  0,255  C  32.801,255  32.801,320.601  32.801,320.601  L  160.39,253.839  L  136.086,-18.469  C  136.086,-18.469  68.043,-24.625  0,-24.625  L  0,255  z " />
<path transform="translate( 0, 0 )" style="stroke: hsl(107.6, 55%, 50%);" id="79"  d=" M  0,255  C  32.801,255  32.801,320.601  32.801,320.601  L  160.39,253.839  L  136.086,-18.469  C  136.086,-18.469  68.043,-24.625  0,-24.625  L  0,255  z " />
<path transform="translate( 0, 0 )" style="stroke: hsl(134.5, 55%, 50%);" id="99"  d=" M  0,255  C  32.801,255  32.801,320.601  32.801,320.601  L  160.39,253.839  L  136.086,-18.469  C  136.086,-18.469  68.043,-24.625  0,-24.625  L  0,255  z " />
<path transform="translate( 0, 0 )" style="stroke: hsl(161.4, 55%, 50%);" id="119"  d=" M  0,255  C  32.801,255  32.801,320.601  32.801,320.601  L  160.39,253.839  L  136.086,-18.469  C  136.086,-18.469  68.043,-24.625  0,-24.625  L  0,255  z " />
<path transform="translate( 0, 0 )" style="stroke: hsl(188.3, 55%, 50%);" id="139"  d=" M  0,255  C  32.801,255  32.801,320.601  32.801,320.601  L  160.39,253.839  L  136.086,-18.469  C  136.086,-18.469  68.043,-24.625  0,-24.625  L  0,255  z " />
<path transform="translate( 0, 0 )" style="stroke: hsl(215.2, 55%, 50%);" id="159"  d=" M  0,255  C  32.801,255  32.801,320.601  32.801,320.601  L  160.39,253.839  L  136.086,-18.469  C  136.086,-18.469  68.043,-24.625  0,-24.625  L  0,255  z " />
<path transform="translate( 0, 0 )" style="stroke: hsl(242.1, 55%, 50%);" id="179"  d=" M  0,255  C  32.801,255  32.801,320.601  32.801,320.601  L  160.39,253.839  L  136.086,-18.469  C  136.086,-18.469  68.043,-24.625  0,-24.625  L  0,255  z " />
<path transform="translate( 0, 0 )" style="stroke: hsl(269, 55%, 50%);" id="199"  d=" M  0,255  C  32.801,255  32.801,320.601  32.801,320.601  L  160.39,253.839  L  136.086,-18.469  C  136.086,-18.469  68.043,-24.625  0,-24.625  L  0,255  z " />
<path transform="translate( 0, 0 )" style="stroke: hsl(295.9, 55%, 50%);" id="219"  d=" M  0,255  C  32.801,255  32.801,320.601  32.801,320.601  L  160.39,253.839  L  136.086,-18.469  C  136.086,-18.469  68.043,-24.625  0,-24.625  L  0,255  z " />
    </g>
    <!-- End of group #back -->
    
    <!-- Start of group #side -->
    <g id="side"  transform=" translate(5 23.469)  translate(457.806 0) " >
        <path class="hidden" id="4"  d=" M  0,-18.469  L  190.088,-18.469  L  190.088,255  L  0,255  z " />
<path transform="translate( 0, 0 )" style="stroke: hsl(26.9, 55%, 50%);" id="20"  d=" M  0,-18.469  L  190.088,-6.156  L  190.088,255  L  19.089,254.284  z " />
<path transform="translate( 0, 0 )" style="stroke: hsl(53.8, 55%, 50%);" id="40"  d=" M  0,-18.469  L  190.088,-6.156  L  190.088,255  L  19.089,254.284  z " />
<path transform="translate( 0, 0 )" style="stroke: hsl(80.7, 55%, 50%);" id="60"  d=" M  0,-18.469  L  190.088,-6.156  L  190.088,255  L  19.089,254.284  z " />
<path transform="translate( 0, 0 )" style="stroke: hsl(107.6, 55%, 50%);" id="80"  d=" M  0,-18.469  L  190.088,-6.156  L  190.088,255  L  19.089,254.284  z " />
<path transform="translate( 0, 0 )" style="stroke: hsl(134.5, 55%, 50%);" id="100"  d=" M  0,-18.469  L  190.088,-6.156  L  190.088,255  L  19.089,254.284  z " />
<path transform="translate( 0, 0 )" style="stroke: hsl(161.4, 55%, 50%);" id="120"  d=" M  0,-18.469  L  190.088,-6.156  L  190.088,255  L  19.089,254.284  z " />
<path transform="translate( 0, 0 )" style="stroke: hsl(188.3, 55%, 50%);" id="140"  d=" M  0,-18.469  L  190.088,-6.156  L  190.088,255  L  19.089,254.284  z " />
<path transform="translate( 0, 0 )" style="stroke: hsl(215.2, 55%, 50%);" id="160"  d=" M  0,-18.469  L  190.088,-6.156  L  190.088,255  L  19.089,254.284  z " />
<path transform="translate( 0, 0 )" style="stroke: hsl(242.1, 55%, 50%);" id="180"  d=" M  0,-18.469  L  190.088,-6.156  L  190.088,255  L  19.089,254.284  z " />
<path transform="translate( 0, 0 )" style="stroke: hsl(269, 55%, 50%);" id="200"  d=" M  0,-18.469  L  190.088,-6.156  L  190.088,255  L  19.089,254.284  z " />
<path transform="translate( 0, 0 )" style="stroke: hsl(295.9, 55%, 50%);" id="220"  d=" M  0,-18.469  L  190.088,-6.156  L  190.088,255  L  19.089,254.284  z " />
    </g>
    <!-- End of group #side -->
    
    <!-- Start of group #inset -->
    <g id="inset"  transform=" translate(5 5)  translate(657.894 0) " >
        <path class="hidden" id="5"  d=" M  0,0  L  147.029,0  L  147.029,165.75  L  0,165.75  z " />
<path transform="translate( 0, 0 )" style="stroke: hsl(26.9, 55%, 50%);" id="21"  d=" M  0,0  L  0,165.75  L  135,165.75  L  147.029,113.09  C  51.098,91.177  78.721,0  0,0  z " />
<path transform="translate( 0, 0 )" style="stroke: hsl(53.8, 55%, 50%);" id="41"  d=" M  0,0  L  0,165.75  L  135,165.75  L  147.029,113.09  C  51.098,91.177  78.721,0  0,0  z " />
<path transform="translate( 0, 0 )" style="stroke: hsl(80.7, 55%, 50%);" id="61"  d=" M  0,0  L  0,165.75  L  135,165.75  L  147.029,113.09  C  51.098,91.177  78.721,0  0,0  z " />
<path transform="translate( 0, 0 )" style="stroke: hsl(107.6, 55%, 50%);" id="81"  d=" M  0,0  L  0,165.75  L  135,165.75  L  147.029,113.09  C  51.098,91.177  78.721,0  0,0  z " />
<path transform="translate( 0, 0 )" style="stroke: hsl(134.5, 55%, 50%);" id="101"  d=" M  0,0  L  0,165.75  L  135,165.75  L  147.029,113.09  C  51.098,91.177  78.721,0  0,0  z " />
<path transform="translate( 0, 0 )" style="stroke: hsl(161.4, 55%, 50%);" id="121"  d=" M  0,0  L  0,165.75  L  135,165.75  L  147.029,113.09  C  51.098,91.177  78.721,0  0,0  z " />
<path transform="translate( 0, 0 )" style="stroke: hsl(188.3, 55%, 50%);" id="141"  d=" M  0,0  L  0,165.75  L  135,165.75  L  147.029,113.09  C  51.098,91.177  78.721,0  0,0  z " />
<path transform="translate( 0, 0 )" style="stroke: hsl(215.2, 55%, 50%);" id="161"  d=" M  0,0  L  0,165.75  L  135,165.75  L  147.029,113.09  C  51.098,91.177  78.721,0  0,0  z " />
<path transform="translate( 0, 0 )" style="stroke: hsl(242.1, 55%, 50%);" id="181"  d=" M  0,0  L  0,165.75  L  135,165.75  L  147.029,113.09  C  51.098,91.177  78.721,0  0,0  z " />
<path transform="translate( 0, 0 )" style="stroke: hsl(269, 55%, 50%);" id="201"  d=" M  0,0  L  0,165.75  L  135,165.75  L  147.029,113.09  C  51.098,91.177  78.721,0  0,0  z " />
<path transform="translate( 0, 0 )" style="stroke: hsl(295.9, 55%, 50%);" id="221"  d=" M  0,0  L  0,165.75  L  135,165.75  L  147.029,113.09  C  51.098,91.177  78.721,0  0,0  z " />
    </g>
    <!-- End of group #inset -->
    
    <!-- Start of group #sampler-front -->
    <g id="sampler-front" >
    </g>
    <!-- End of group #sampler-front -->
    
    <!-- Start of group #sampler-back -->
    <g id="sampler-back" >
    </g>
    <!-- End of group #sampler-back -->
    
    <!-- Start of group #sampler-side -->
    <g id="sampler-side" >
    </g>
    <!-- End of group #sampler-side -->
    
    <!-- Start of group #sampler-inset -->
    <g id="sampler-inset" >
    </g>
    <!-- End of group #sampler-inset -->
</g>
<!-- End of group #patternContainer -->

</svg>

