<?xml version="1.0" encoding="UTF-8" standalone="no"?>
<svg
    width ="2787.1015774664"
    height ="1319.1129933865"
    viewbox ="0 0 2787.1015774664 1319.1129933865" xmlns:dc="http://purl.org/dc/elements/1.1/"
    xmlns:cc="http://creativecommons.org/ns#"
    xmlns:rdf="http://www.w3.org/1999/02/22-rdf-syntax-ns#"
    xmlns:svg="http://www.w3.org/2000/svg"
    xmlns="http://www.w3.org/2000/svg"
    xmlns:xlink="http://www.w3.org/1999/xlink"
    xmlns:sodipodi="http://sodipodi.sourceforge.net/DTD/sodipodi-0.dtd"
    xmlns:inkscape="http://www.inkscape.org/namespaces/inkscape" 
>

<style type="text/css">
    <![CDATA[
    path { fill: none; stroke: #000000; stroke-opacity:1; stroke-width: 0.5; stroke-miterlimit:4; stroke-dashoffset:0; stroke-linecap:round; stroke-linejoin:round; }
    path.hidden { fill: none; stroke: none; }]]>
</style>


<!-- Start of group #patternScaleContainer -->
<g id="patternScaleContainer"  transform=" scale(3.54330709 ) " >
    
    <!-- Start of group #block -->
    <g id="block"  transform=" translate(0 0)  translate(786.582 0) " >
    </g>
    <!-- End of group #block -->
    
    <!-- Start of group #front -->
    <g id="front"  transform=" translate(-240.265 -1.656)  translate(490.211 0) " >
        <path class="hidden" id="2"  d=" M  245.265,6.656  L  369.375,6.656  L  369.375,259.935  L  245.265,259.935  z " />
<path transform="translate( 0, 0 )" style="stroke: hsl(26.9, 55%, 50%);" id="18"  d=" M  265.95,6.656  L  265.95,86.16  C  326.216,86.16  311.924,163.582  260.567,241.668  L  288.342,259.935  C  288.342,259.935  369.375,201.175  369.375,119.404  L  369.375,13.5  C  345.122,13.5  308.925,10.634  265.95,6.656  z " />
<path transform="translate( -7.388, 0 )" style="stroke: hsl(53.8, 55%, 50%);" id="38"  d=" M  271.269,6.656  L  271.269,86.16  C  332.241,86.16  318.729,163.256  267.399,241.303  L  295.73,259.935  C  295.73,259.935  376.763,202.04  376.763,120.069  L  376.763,13.5  C  352.024,13.5  315.104,10.634  271.269,6.656  z " />
<path transform="translate( -14.775, 0 )" style="stroke: hsl(80.7, 55%, 50%);" id="58"  d=" M  276.588,6.656  L  276.588,86.16  C  338.265,86.16  325.536,162.932  274.231,240.937  L  303.117,259.935  C  303.117,259.935  384.15,202.904  384.15,120.734  L  384.15,13.5  C  358.927,13.5  321.282,10.634  276.588,6.656  z " />
<path transform="translate( -22.163, 0 )" style="stroke: hsl(107.6, 55%, 50%);" id="78"  d=" M  281.907,6.656  L  281.907,86.16  C  344.29,86.16  332.342,162.606  281.064,240.572  L  310.505,259.935  C  310.505,259.935  391.538,203.767  391.538,121.398  L  391.538,13.5  C  365.83,13.5  327.461,10.634  281.907,6.656  z " />
<path transform="translate( -29.55, 0 )" style="stroke: hsl(134.5, 55%, 50%);" id="98"  d=" M  287.226,6.656  L  287.226,86.16  C  350.314,86.16  339.146,162.281  287.895,240.207  L  317.892,259.935  C  317.892,259.935  398.925,204.632  398.925,122.063  L  398.925,13.5  C  372.732,13.5  333.639,10.634  287.226,6.656  z " />
<path transform="translate( -36.938, 0 )" style="stroke: hsl(161.4, 55%, 50%);" id="118"  d=" M  292.545,6.656  L  292.545,86.16  C  356.338,86.16  345.954,161.957  294.728,239.841  L  325.28,259.935  C  325.28,259.935  406.313,205.496  406.313,122.728  L  406.313,13.5  C  379.634,13.5  339.818,10.634  292.545,6.656  z " />
<path transform="translate( -44.325, 0 )" style="stroke: hsl(188.3, 55%, 50%);" id="138"  d=" M  297.864,6.656  L  297.864,86.16  C  362.362,86.16  352.757,161.632  301.559,239.476  L  332.667,259.935  C  332.667,259.935  413.7,206.361  413.7,123.393  L  413.7,13.5  C  386.536,13.5  345.996,10.634  297.864,6.656  z " />
<path transform="translate( -51.713, 0 )" style="stroke: hsl(215.2, 55%, 50%);" id="158"  d=" M  303.183,6.656  L  303.183,86.16  C  368.387,86.16  359.565,161.306  308.392,239.11  L  340.055,259.935  C  340.055,259.935  421.088,207.225  421.088,124.058  L  421.088,13.5  C  393.439,13.5  352.175,10.634  303.183,6.656  z " />
<path transform="translate( -59.1, 0 )" style="stroke: hsl(242.1, 55%, 50%);" id="178"  d=" M  308.502,6.656  L  308.502,86.16  C  374.411,86.16  366.369,160.981  315.223,238.745  L  347.442,259.935  C  347.442,259.935  428.475,208.09  428.475,124.723  L  428.475,13.5  C  400.341,13.5  358.353,10.634  308.502,6.656  z " />
<path transform="translate( -66.488, 0 )" style="stroke: hsl(269, 55%, 50%);" id="198"  d=" M  313.821,6.656  L  313.821,86.16  C  380.435,86.16  373.174,160.655  322.055,238.38  L  354.83,259.935  C  354.83,259.935  435.863,208.954  435.863,125.388  L  435.863,13.5  C  407.244,13.5  364.532,10.634  313.821,6.656  z " />
<path transform="translate( -73.875, 0 )" style="stroke: hsl(295.9, 55%, 50%);" id="218"  d=" M  319.14,6.656  L  319.14,86.16  C  386.459,86.16  379.98,160.331  328.887,238.014  L  362.217,259.935  C  362.217,259.935  443.25,209.819  443.25,126.053  L  443.25,13.5  C  414.146,13.5  370.711,10.634  319.14,6.656  z " />
    </g>
    <!-- End of group #front -->
    
    <!-- Start of group #back -->
    <g id="back"  transform=" translate(5 18.095)  translate(0 0) " >
        <path class="hidden" id="3"  d=" M  0,-13.095  L  257.421,-13.095  L  257.421,349.188  L  0,349.188  z " />
<path transform="translate( 0, 0 )" style="stroke: hsl(26.9, 55%, 50%);" id="19"  d=" M  0,-13.095  L  0,275.4  C  16.622,275.4  28.588,292.687  33.244,308.644  L  43.048,342.243  L  215.618,292.667  L  125.588,-6.454  C  81.181,-10.199  36.568,-13.095  0,-13.095  z " />
<path transform="translate( 0, 0 )" style="stroke: hsl(53.8, 55%, 50%);" id="39"  d=" M  0,-13.095  L  0,275.4  C  16.954,275.4  29.221,293.016  33.909,309.309  L  43.586,342.945  L  219.787,293.008  L  128.099,-6.454  C  82.805,-10.199  37.3,-13.095  0,-13.095  z " />
<path transform="translate( 0, 0 )" style="stroke: hsl(80.7, 55%, 50%);" id="59"  d=" M  0,-13.095  L  0,275.4  C  17.287,275.4  29.855,293.344  34.574,309.974  L  44.129,343.644  L  223.96,293.348  L  130.611,-6.454  C  84.428,-10.199  38.031,-13.095  0,-13.095  z " />
<path transform="translate( 0, 0 )" style="stroke: hsl(107.6, 55%, 50%);" id="79"  d=" M  0,-13.095  L  0,275.4  C  17.619,275.4  30.487,293.672  35.238,310.638  L  44.676,344.342  L  228.134,293.688  L  133.123,-6.454  C  86.052,-10.199  38.762,-13.095  0,-13.095  z " />
<path transform="translate( 0, 0 )" style="stroke: hsl(134.5, 55%, 50%);" id="99"  d=" M  0,-13.095  L  0,275.4  C  17.952,275.4  31.12,294  35.903,311.303  L  45.227,345.038  L  232.311,294.027  L  135.635,-6.454  C  87.676,-10.199  39.494,-13.095  0,-13.095  z " />
<path transform="translate( 0, 0 )" style="stroke: hsl(161.4, 55%, 50%);" id="119"  d=" M  0,-13.095  L  0,275.4  C  18.284,275.4  31.754,294.329  36.568,311.968  L  45.783,345.733  L  236.491,294.365  L  138.146,-6.454  C  89.299,-10.199  40.225,-13.095  0,-13.095  z " />
<path transform="translate( 0, 0 )" style="stroke: hsl(188.3, 55%, 50%);" id="139"  d=" M  0,-13.095  L  0,275.4  C  18.617,275.4  32.387,294.658  37.233,312.633  L  46.343,346.427  L  240.673,294.702  L  140.658,-6.454  C  90.923,-10.199  40.956,-13.095  0,-13.095  z " />
<path transform="translate( 0, 0 )" style="stroke: hsl(215.2, 55%, 50%);" id="159"  d=" M  0,-13.095  L  0,275.4  C  18.949,275.4  33.021,294.987  37.898,313.298  L  46.907,347.119  L  244.858,295.039  L  143.17,-6.454  C  92.547,-10.199  41.688,-13.095  0,-13.095  z " />
<path transform="translate( 0, 0 )" style="stroke: hsl(242.1, 55%, 50%);" id="179"  d=" M  0,-13.095  L  0,275.4  C  19.281,275.4  33.654,295.317  38.563,313.963  L  47.474,347.81  L  249.044,295.375  L  145.682,-6.454  C  94.17,-10.199  42.419,-13.095  0,-13.095  z " />
<path transform="translate( 0, 0 )" style="stroke: hsl(269, 55%, 50%);" id="199"  d=" M  0,-13.095  L  0,275.4  C  19.614,275.4  34.287,295.646  39.228,314.628  L  48.044,348.499  L  253.231,295.71  L  148.193,-6.454  C  95.794,-10.199  43.15,-13.095  0,-13.095  z " />
<path transform="translate( 0, 0 )" style="stroke: hsl(295.9, 55%, 50%);" id="219"  d=" M  0,-13.095  L  0,275.4  C  19.946,275.4  34.921,295.977  39.893,315.293  L  48.618,349.188  L  257.421,296.045  L  150.705,-6.454  C  97.417,-10.199  43.882,-13.095  0,-13.095  z " />
    </g>
    <!-- End of group #back -->
    
    <!-- Start of group #side -->
    <g id="side"  transform=" translate(-97.067 11.454)  translate(267.421 0) " >
        <path class="hidden" id="4"  d=" M  102.067,-6.454  L  314.857,-6.454  L  314.857,312.383  L  102.067,312.383  z " />
<path transform="translate( 0, 0 )" style="stroke: hsl(26.9, 55%, 50%);" id="20"  d=" M  125.588,-6.454  C  125.588,-6.454  95.323,243.72  117.527,304.663  C  117.527,304.663  231.589,249.619  286.784,244.79  L  265.95,6.656  C  223.63,2.742  174.064,-2.366  125.588,-6.454  z " />
<path transform="translate( -2.511, 0 )" style="stroke: hsl(53.8, 55%, 50%);" id="40"  d=" M  128.099,-6.454  C  128.099,-6.454  96.812,243.7  119.327,305.46  C  119.327,305.46  235.804,249.716  292.103,244.79  L  271.269,6.656  C  228.102,2.742  177.545,-2.366  128.099,-6.454  z " />
<path transform="translate( -5.023, 0 )" style="stroke: hsl(80.7, 55%, 50%);" id="60"  d=" M  130.611,-6.454  C  130.611,-6.454  98.303,243.678  121.126,306.237  C  121.126,306.237  240.019,249.812  297.422,244.79  L  276.588,6.656  C  232.574,2.742  181.026,-2.366  130.611,-6.454  z " />
<path transform="translate( -7.535, 0 )" style="stroke: hsl(107.6, 55%, 50%);" id="80"  d=" M  133.123,-6.454  C  133.123,-6.454  99.812,241.888  122.852,306.9  C  122.852,306.9  244.234,249.909  302.741,244.79  L  281.907,6.656  C  237.047,2.742  184.508,-2.366  133.123,-6.454  z " />
<path transform="translate( -10.047, 0 )" style="stroke: hsl(134.5, 55%, 50%);" id="100"  d=" M  135.635,-6.454  C  135.635,-6.454  101.3,241.833  124.637,307.65  C  124.637,307.65  248.449,250.005  308.06,244.79  L  287.226,6.656  C  241.52,2.742  187.989,-2.366  135.635,-6.454  z " />
<path transform="translate( -12.558, 0 )" style="stroke: hsl(161.4, 55%, 50%);" id="120"  d=" M  138.146,-6.454  C  138.146,-6.454  102.792,241.777  126.491,308.596  C  126.491,308.596  252.664,250.102  313.379,244.79  L  292.545,6.656  C  245.992,2.742  191.47,-2.366  138.146,-6.454  z " />
<path transform="translate( -15.07, 0 )" style="stroke: hsl(188.3, 55%, 50%);" id="140"  d=" M  140.658,-6.454  C  140.658,-6.454  104.277,241.724  128.266,309.316  C  128.266,309.316  256.879,250.198  318.698,244.79  L  297.864,6.656  C  250.465,2.742  194.951,-2.366  140.658,-6.454  z " />
<path transform="translate( -17.582, 0 )" style="stroke: hsl(215.2, 55%, 50%);" id="160"  d=" M  143.17,-6.454  C  143.17,-6.454  105.77,241.664  130.044,310.009  C  130.044,310.009  261.094,250.295  324.017,244.79  L  303.183,6.656  C  254.937,2.742  198.433,-2.366  143.17,-6.454  z " />
<path transform="translate( -20.094, 0 )" style="stroke: hsl(242.1, 55%, 50%);" id="180"  d=" M  145.682,-6.454  C  145.682,-6.454  107.296,239.675  131.815,310.816  C  131.815,310.816  265.309,250.392  329.336,244.79  L  308.502,6.656  C  259.41,2.742  201.914,-2.366  145.682,-6.454  z " />
<path transform="translate( -22.605, 0 )" style="stroke: hsl(269, 55%, 50%);" id="200"  d=" M  148.193,-6.454  C  148.193,-6.454  108.784,239.587  133.652,311.724  C  133.652,311.724  269.524,250.488  334.655,244.79  L  313.821,6.656  C  263.883,2.742  205.395,-2.366  148.193,-6.454  z " />
<path transform="translate( -25.117, 0 )" style="stroke: hsl(295.9, 55%, 50%);" id="220"  d=" M  150.705,-6.454  C  150.705,-6.454  110.279,239.496  135.421,312.383  C  135.421,312.383  273.74,250.585  339.974,244.79  L  319.14,6.656  C  268.356,2.742  208.877,-2.366  150.705,-6.454  z " />
    </g>
    <!-- End of group #side -->
    
    <!-- Start of group #inset -->
    <g id="inset"  transform=" translate(-260.95 -81.16)  translate(624.321 0) " >
        <path class="hidden" id="5"  d=" M  265.95,86.16  L  418.211,86.16  L  418.211,245.7  L  265.95,245.7  z " />
<path transform="translate( 0, 0 )" style="stroke: hsl(26.9, 55%, 50%);" id="21"  d=" M  265.95,86.16  C  380.95,86.16  278.789,183.901  393.331,193.908  L  388.8,245.7  L  265.95,245.7  z " />
<path transform="translate( -5.319, 0 )" style="stroke: hsl(53.8, 55%, 50%);" id="41"  d=" M  271.269,86.16  C  383.269,86.16  289.584,183.807  401.138,193.553  L  396.576,245.7  L  271.269,245.7  z " />
<path transform="translate( -10.638, 0 )" style="stroke: hsl(80.7, 55%, 50%);" id="61"  d=" M  276.588,86.16  C  386.588,86.16  299.383,183.629  408.945,193.201  L  404.352,245.7  L  276.588,245.7  z " />
<path transform="translate( -15.957, 0 )" style="stroke: hsl(107.6, 55%, 50%);" id="81"  d=" M  281.907,86.16  C  388.907,86.16  310.178,183.536  416.752,192.847  L  412.128,245.7  L  281.907,245.7  z " />
<path transform="translate( -21.276, 0 )" style="stroke: hsl(134.5, 55%, 50%);" id="101"  d=" M  287.226,86.16  C  391.226,86.16  320.973,183.443  424.559,192.493  L  419.904,245.7  L  287.226,245.7  z " />
<path transform="translate( -26.595, 0 )" style="stroke: hsl(161.4, 55%, 50%);" id="121"  d=" M  292.545,86.16  C  392.545,86.16  332.764,183.437  432.366,192.139  L  427.68,245.7  L  292.545,245.7  z " />
<path transform="translate( -31.914, 0 )" style="stroke: hsl(188.3, 55%, 50%);" id="141"  d=" M  297.864,86.16  C  393.864,86.16  344.555,183.43  440.173,191.784  L  435.456,245.7  L  297.864,245.7  z " />
<path transform="translate( -37.233, 0 )" style="stroke: hsl(215.2, 55%, 50%);" id="161"  d=" M  303.183,86.16  C  394.183,86.16  357.342,183.511  447.98,191.43  L  443.232,245.7  L  303.183,245.7  z " />
<path transform="translate( -42.552, 0 )" style="stroke: hsl(242.1, 55%, 50%);" id="181"  d=" M  308.502,86.16  C  394.502,86.16  370.129,183.593  455.787,191.077  L  451.008,245.7  L  308.502,245.7  z " />
<path transform="translate( -47.871, 0 )" style="stroke: hsl(269, 55%, 50%);" id="201"  d=" M  313.821,86.16  C  392.821,86.16  384.908,183.848  463.594,190.723  L  458.784,245.7  L  313.821,245.7  z " />
<path transform="translate( -53.19, 0 )" style="stroke: hsl(295.9, 55%, 50%);" id="221"  d=" M  319.14,86.16  C  390.14,86.16  400.683,184.189  471.401,190.368  L  466.56,245.7  L  319.14,245.7  z " />
    </g>
    <!-- End of group #inset -->
    
    <!-- Start of group #sampler-front -->
    <g id="sampler-front"  transform=" translate(0 0)  translate(786.582 0) " >
    </g>
    <!-- End of group #sampler-front -->
    
    <!-- Start of group #sampler-back -->
    <g id="sampler-back"  transform=" translate(0 0)  translate(786.582 0) " >
    </g>
    <!-- End of group #sampler-back -->
    
    <!-- Start of group #sampler-side -->
    <g id="sampler-side"  transform=" translate(0 0)  translate(786.582 0) " >
    </g>
    <!-- End of group #sampler-side -->
    
    <!-- Start of group #sampler-inset -->
    <g id="sampler-inset"  transform=" translate(0 0)  translate(786.582 0) " >
    </g>
    <!-- End of group #sampler-inset -->
</g>
<!-- End of group #patternScaleContainer -->

</svg>

