<?xml version="1.0" encoding="UTF-8" standalone="no"?>
<!-- Created with Inkscape (http://www.inkscape.org/) -->

<svg
   xmlns:dc="http://purl.org/dc/elements/1.1/"
   xmlns:cc="http://creativecommons.org/ns#"
   xmlns:rdf="http://www.w3.org/1999/02/22-rdf-syntax-ns#"
   xmlns:svg="http://www.w3.org/2000/svg"
   xmlns="http://www.w3.org/2000/svg"
   xmlns:sodipodi="http://sodipodi.sourceforge.net/DTD/sodipodi-0.dtd"
   xmlns:inkscape="http://www.inkscape.org/namespaces/inkscape"
   width="329.8138732910156"
   height="193.5437164306641"
   id="svg2"
   version="1.1"
   inkscape:version="0.47 r22583"
   sodipodi:docname="florent.svg">
  <defs
     id="defs4" />
  <sodipodi:namedview
     id="base"
     pagecolor="#ffffff"
     bordercolor="#666666"
     borderopacity="1.0"
     inkscape:pageopacity="0.0"
     inkscape:pageshadow="2"
     inkscape:zoom="1.23"
     inkscape:cx="118.085"
     inkscape:cy="-5.87475"
     inkscape:document-units="px"
     inkscape:current-layer="layer1"
     showgrid="false"
     fit-margin-top="0"
     fit-margin-left="0"
     fit-margin-right="0"
     fit-margin-bottom="0"
     inkscape:window-width="1832"
     inkscape:window-height="1057"
     inkscape:window-x="-8"
     inkscape:window-y="-8"
     inkscape:window-maximized="0" />
  <metadata
     id="metadata7">
    <rdf:RDF>
      <cc:Work
         rdf:about="">
        <dc:format>image/svg+xml</dc:format>
        <dc:type
           rdf:resource="http://purl.org/dc/dcmitype/StillImage" />
        <dc:title />
      </cc:Work>
    </rdf:RDF>
  </metadata>
  <g
     inkscape:label="Layer 1"
     inkscape:groupmode="layer"
     id="layer1"
     transform="translate(-786.8749846857375,-646.5578838679941)">
    <path
       style="fill:#212121;stroke:#545454;stroke-width:2;stroke-miterlimit:4;stroke-dasharray:none"
       d="m 999.96875,647.5625 c -22.6500693971172,0.1794013651266 -46.8850142514474,5.6127046747672 -72.125,16.375 -49.4896696682162,21.1023273080918 -96.6313482802798,63.0189102214759 -123.5,109.78125 -8.4551927112803,14.7154609238388 -16.4346256861833,33.464878420072 -16.46875,38.65625 -0.00233798248,0.3556799956975 0.1279756700246,0.6419513523786 0.4375,0.90625 -0.048063523425,2.1096350498711 0.8172547863547,4.5993312497746 2,5.90625 2.7249350226225,3.0110193075614 8.8945795239606,3.9755964098126 20.53125,3.21875 0.8508979072398,-0.055342206994 2.0285165080548,-0.1087535616545 3.09375,-0.15625 -5.3442018074524,2.0683690665433 -9.7465659183295,4.0786982313969 -12.0625,5.09375 -5.7162269897142,2.5053676447728 -9.0312500000005,5.6018566896265 -9.03125,8.46875 0,1.9597254283128 0.7072268628867,2.51494491463 4.03125,3.28125 0.2767502776014,0.063800742761 3.6176412135088,-0.7826185437065 7.4375,-1.875 15.7436966571983,-4.5022926875361 27.6117163216599,-4.5647120431825 71.53125,-0.46875 23.6857282501481,2.2089452175943 64.6221328359507,2.9960260334793 80.78125,1.5625 20.924485886944,-1.856276859162 38.6530355403326,-7.0149652863957 51.21875,-14.90625 6.135133895074,-3.8528719140897 14.213063288097,-11.9041107971201 15.28125,-13.75 7.029021694812,2.0328461173669 14.490169400216,3.8971615018131 21.21875,4.625 10.666377276925,1.153794608417 43.013446467365,0.7678035326545 44.3125,-0.53125 -0.165037695369,-0.081969500842 -0.273058718284,-0.137088938484 -0.4375,-0.21875 l 9.96875,-0.8125 c 3.93750104352,-0.3812908863863 7.553250088546,-1.0812418983052 8.03125,-1.53125 1.511875811079,-1.4233399367635 6.416406382847,-23.2499487643136 8.0625,-35.9375 3.515195746415,-27.0939791463747 0.424060074037,-50.3416242790875 -9.375,-70.53125 -6.063972603867,-12.493987824231 -14.611908621264,-22.701868918324 -26.625,-31.78125 -22.669931280337,-17.1337200975536 -49.190982203707,-25.6056588980204 -78.3125,-25.375 z"
       id="path3052"
       inkscape:connector-curvature="0" />
    <path
       style="fill:none;stroke:#545454;stroke-width:2;stroke-linecap:butt;stroke-linejoin:miter;stroke-miterlimit:4;stroke-opacity:1;stroke-dasharray:none"
       d="m 1090.131473684212,812.8884984066611 c 0.750627162012,-12.0496687082774 -0.279574672243,-26.2509728096953 -0.09810323217,-34.9784142526147 0.688858285098,-33.1290165727836 -13.351438696995,-40.8847837523814 -35.439554923118,-34.028064437671 -48.499338343208,15.055441874905 -95.3456675012036,41.3207228156296 -111.8644513760999,47.8006242652528 -68.4287649651828,26.8428751566697 -92.8293616023451,29.0190792919379 -155.8873641528248,23.8374333724011"
       id="path3058"
       inkscape:connector-curvature="0"
       sodipodi:nodetypes="csssc" />
    <path
       style="fill:none;stroke:#545454;stroke-width:2;stroke-linecap:butt;stroke-linejoin:miter;stroke-miterlimit:4;stroke-opacity:1;stroke-dasharray:none"
       d="m 1022.368421052632,812.8884984066611 -19.736842105263,-5.263157894737 c -78.3910494476268,27.4760590195591 -128.2262126922357,13.9030316222809 -188.815789473685,15.7894736842103"
       id="path3828"
       inkscape:connector-curvature="0"
       sodipodi:nodetypes="ccc" />
  </g>
</svg>
