<?xml version="1.0" encoding="UTF-8" standalone="no"?>
<svg
    xmlns="http://www.w3.org/2000/svg"
    xmlns:svg="http://www.w3.org/2000/svg"
    xmlns:xlink="http://www.w3.org/1999/xlink"
    xmlns:freesewing="http://freesewing.org/namespaces/freesewing" viewBox ="0 0 1003 931"
    width ="1003mm"
    height ="931mm"
    freesewing:version ="1.5.0"
    freesewing:origin ="joost.core.freesewing.org" 
>

<style type="text/css">
    <![CDATA[
    path { fill: none; stroke: #000000; stroke-opacity:1; stroke-width: 0.5; stroke-miterlimit:4; stroke-dashoffset:0; stroke-linecap:round; stroke-linejoin:round; }
    path.hidden { fill: none; stroke: none; }]]>
</style>


<!-- Start of group #patternContainer -->
<g id="patternContainer" >
    
    <!-- Start of group #interfacingTip -->
    <g id="interfacingTip"  transform=" translate(65 55)  translate(495 0) " >
        <path class="hidden" id="2"  d=" M  -60,-50  L  60,-50  L  60,782.676  L  -60,782.676  z " />
<path transform="translate( 0, 0 )" style="stroke: hsl(26.9, 55%, 50%);" id="38"  d=" M  0,0  L  10,10  L  17.328,747.672  L  -17.676,782.676  L  -10,10  z " />
<path transform="translate( 0, -5 )" style="stroke: hsl(53.8, 55%, 50%);" id="80"  d=" M  0,0  L  15,15  L  17.442,747.558  L  -17.559,782.559  L  -15,15  z " />
<path transform="translate( 0, -10 )" style="stroke: hsl(80.7, 55%, 50%);" id="122"  d=" M  0,0  L  20,20  L  17.559,747.441  L  -17.441,782.441  L  -20,20  z " />
<path transform="translate( 0, -15 )" style="stroke: hsl(107.6, 55%, 50%);" id="164"  d=" M  0,0  L  25,25  L  17.679,747.321  L  -17.324,782.324  L  -25,25  z " />
<path transform="translate( 0, -20 )" style="stroke: hsl(134.5, 55%, 50%);" id="206"  d=" M  0,0  L  30,30  L  17.803,747.197  L  -17.207,782.207  L  -30,30  z " />
<path transform="translate( 0, -25 )" style="stroke: hsl(161.4, 55%, 50%);" id="248"  d=" M  0,0  L  35,35  L  17.93,747.07  L  -17.09,782.09  L  -35,35  z " />
<path transform="translate( 0, -30 )" style="stroke: hsl(188.3, 55%, 50%);" id="290"  d=" M  0,0  L  40,40  L  18.06,746.94  L  -16.973,781.973  L  -40,40  z " />
<path transform="translate( 0, -35 )" style="stroke: hsl(215.2, 55%, 50%);" id="332"  d=" M  0,0  L  45,45  L  18.195,746.805  L  -16.856,781.856  L  -45,45  z " />
<path transform="translate( 0, -40 )" style="stroke: hsl(242.1, 55%, 50%);" id="374"  d=" M  0,0  L  50,50  L  18.333,746.667  L  -16.739,781.739  L  -50,50  z " />
<path transform="translate( 0, -45 )" style="stroke: hsl(269, 55%, 50%);" id="416"  d=" M  0,0  L  55,55  L  18.476,746.524  L  -16.622,781.622  L  -55,55  z " />
<path transform="translate( 0, -50 )" style="stroke: hsl(295.9, 55%, 50%);" id="458"  d=" M  0,0  L  60,60  L  18.623,746.377  L  -16.505,781.505  L  -60,60  z " />
    </g>
    <!-- End of group #interfacingTip -->
    
    <!-- Start of group #interfacingTail -->
    <g id="interfacingTail"  transform=" translate(43.75 30)  translate(625 0) " >
        <path class="hidden" id="3"  d=" M  -38.75,-25  L  38.75,-25  L  38.75,782.588  L  -38.75,782.588  z " />
<path transform="translate( 0, 0 )" style="stroke: hsl(26.9, 55%, 50%);" id="39"  d=" M  0,0  L  13.75,13.75  L  17.413,747.587  L  -17.588,782.588  L  -13.75,13.75  z " />
<path transform="translate( 0, -2.5 )" style="stroke: hsl(53.8, 55%, 50%);" id="81"  d=" M  0,0  L  16.25,16.25  L  17.471,747.529  L  -17.529,782.529  L  -16.25,16.25  z " />
<path transform="translate( 0, -5 )" style="stroke: hsl(80.7, 55%, 50%);" id="123"  d=" M  0,0  L  18.75,18.75  L  17.529,747.471  L  -17.471,782.471  L  -18.75,18.75  z " />
<path transform="translate( 0, -7.5 )" style="stroke: hsl(107.6, 55%, 50%);" id="165"  d=" M  0,0  L  21.25,21.25  L  17.589,747.411  L  -17.412,782.412  L  -21.25,21.25  z " />
<path transform="translate( 0, -10 )" style="stroke: hsl(134.5, 55%, 50%);" id="207"  d=" M  0,0  L  23.75,23.75  L  17.649,747.351  L  -17.354,782.354  L  -23.75,23.75  z " />
<path transform="translate( 0, -12.5 )" style="stroke: hsl(161.4, 55%, 50%);" id="249"  d=" M  0,0  L  26.25,26.25  L  17.71,747.29  L  -17.295,782.295  L  -26.25,26.25  z " />
<path transform="translate( 0, -15 )" style="stroke: hsl(188.3, 55%, 50%);" id="291"  d=" M  0,0  L  28.75,28.75  L  17.772,747.228  L  -17.237,782.237  L  -28.75,28.75  z " />
<path transform="translate( 0, -17.5 )" style="stroke: hsl(215.2, 55%, 50%);" id="333"  d=" M  0,0  L  31.25,31.25  L  17.834,747.166  L  -17.178,782.178  L  -31.25,31.25  z " />
<path transform="translate( 0, -20 )" style="stroke: hsl(242.1, 55%, 50%);" id="375"  d=" M  0,0  L  33.75,33.75  L  17.898,747.102  L  -17.12,782.12  L  -33.75,33.75  z " />
<path transform="translate( 0, -22.5 )" style="stroke: hsl(269, 55%, 50%);" id="417"  d=" M  0,0  L  36.25,36.25  L  17.962,747.038  L  -17.061,782.061  L  -36.25,36.25  z " />
<path transform="translate( 0, -25 )" style="stroke: hsl(295.9, 55%, 50%);" id="459"  d=" M  0,0  L  38.75,38.75  L  18.027,746.973  L  -17.003,782.003  L  -38.75,38.75  z " />
    </g>
    <!-- End of group #interfacingTail -->
    
    <!-- Start of group #fabricTip -->
    <g id="fabricTip"  transform=" translate(145 105)  translate(0 0) " >
        <path class="hidden" id="4"  d=" M  -140,-100  L  140,-100  L  140,821.162  L  -140,821.162  z " />
<path transform="translate( 0, 0 )" style="stroke: hsl(26.9, 55%, 50%);" id="40"  d=" M  0,0  L  40,40  L  53.885,711.115  L  -56.162,821.162  L  -40,40  z " />
<path transform="translate( 0, -10 )" style="stroke: hsl(53.8, 55%, 50%);" id="82"  d=" M  0,0  L  50,50  L  54.618,710.382  L  -55.387,820.387  L  -50,50  z " />
<path transform="translate( 0, -20 )" style="stroke: hsl(80.7, 55%, 50%);" id="124"  d=" M  0,0  L  60,60  L  55.393,709.607  L  -54.613,819.613  L  -60,60  z " />
<path transform="translate( 0, -30 )" style="stroke: hsl(107.6, 55%, 50%);" id="166"  d=" M  0,0  L  70,70  L  56.213,708.787  L  -53.838,818.838  L  -70,70  z " />
<path transform="translate( 0, -40 )" style="stroke: hsl(134.5, 55%, 50%);" id="208"  d=" M  0,0  L  80,80  L  57.083,707.917  L  -53.063,818.063  L  -80,80  z " />
<path transform="translate( 0, -50 )" style="stroke: hsl(161.4, 55%, 50%);" id="250"  d=" M  0,0  L  90,90  L  58.008,706.992  L  -52.289,817.289  L  -90,90  z " />
<path transform="translate( 0, -60 )" style="stroke: hsl(188.3, 55%, 50%);" id="292"  d=" M  0,0  L  100,100  L  58.992,706.008  L  -51.514,816.514  L  -100,100  z " />
<path transform="translate( 0, -70 )" style="stroke: hsl(215.2, 55%, 50%);" id="334"  d=" M  0,0  L  110,110  L  60.042,704.958  L  -50.739,815.739  L  -110,110  z " />
<path transform="translate( 0, -80 )" style="stroke: hsl(242.1, 55%, 50%);" id="376"  d=" M  0,0  L  120,120  L  61.164,703.836  L  -49.965,814.965  L  -120,120  z " />
<path transform="translate( 0, -90 )" style="stroke: hsl(269, 55%, 50%);" id="418"  d=" M  0,0  L  130,130  L  62.366,702.634  L  -49.19,814.19  L  -130,130  z " />
<path transform="translate( 0, -100 )" style="stroke: hsl(295.9, 55%, 50%);" id="460"  d=" M  0,0  L  140,140  L  63.657,701.343  L  -48.415,813.415  L  -140,140  z " />
    </g>
    <!-- End of group #fabricTip -->
    
    <!-- Start of group #fabricTail -->
    <g id="fabricTail"  transform=" translate(102.5 55)  translate(290 0) " >
        <path class="hidden" id="5"  d=" M  -97.5,-50  L  97.5,-50  L  97.5,820.581  L  -97.5,820.581  z " />
<path transform="translate( 0, 0 )" style="stroke: hsl(26.9, 55%, 50%);" id="41"  d=" M  0,0  L  47.5,47.5  L  54.431,710.569  L  -55.581,820.581  L  -47.5,47.5  z " />
<path transform="translate( 0, -5 )" style="stroke: hsl(53.8, 55%, 50%);" id="83"  d=" M  0,0  L  52.5,52.5  L  54.808,710.192  L  -55.194,820.194  L  -52.5,52.5  z " />
<path transform="translate( 0, -10 )" style="stroke: hsl(80.7, 55%, 50%);" id="125"  d=" M  0,0  L  57.5,57.5  L  55.195,709.805  L  -54.806,819.806  L  -57.5,57.5  z " />
<path transform="translate( 0, -15 )" style="stroke: hsl(107.6, 55%, 50%);" id="167"  d=" M  0,0  L  62.5,62.5  L  55.594,709.406  L  -54.419,819.419  L  -62.5,62.5  z " />
<path transform="translate( 0, -20 )" style="stroke: hsl(134.5, 55%, 50%);" id="209"  d=" M  0,0  L  67.5,67.5  L  56.004,708.996  L  -54.032,819.032  L  -67.5,67.5  z " />
<path transform="translate( 0, -25 )" style="stroke: hsl(161.4, 55%, 50%);" id="251"  d=" M  0,0  L  72.5,72.5  L  56.426,708.574  L  -53.644,818.644  L  -72.5,72.5  z " />
<path transform="translate( 0, -30 )" style="stroke: hsl(188.3, 55%, 50%);" id="293"  d=" M  0,0  L  77.5,77.5  L  56.861,708.139  L  -53.257,818.257  L  -77.5,77.5  z " />
<path transform="translate( 0, -35 )" style="stroke: hsl(215.2, 55%, 50%);" id="335"  d=" M  0,0  L  82.5,82.5  L  57.309,707.691  L  -52.87,817.87  L  -82.5,82.5  z " />
<path transform="translate( 0, -40 )" style="stroke: hsl(242.1, 55%, 50%);" id="377"  d=" M  0,0  L  87.5,87.5  L  57.771,707.229  L  -52.482,817.482  L  -87.5,87.5  z " />
<path transform="translate( 0, -45 )" style="stroke: hsl(269, 55%, 50%);" id="419"  d=" M  0,0  L  92.5,92.5  L  58.248,706.752  L  -52.095,817.095  L  -92.5,92.5  z " />
<path transform="translate( 0, -50 )" style="stroke: hsl(295.9, 55%, 50%);" id="461"  d=" M  0,0  L  97.5,97.5  L  58.74,706.26  L  -51.708,816.708  L  -97.5,97.5  z " />
    </g>
    <!-- End of group #fabricTail -->
    
    <!-- Start of group #liningTip -->
    <g id="liningTip"  transform=" translate(145 105)  translate(712.5 0) " >
        <path class="hidden" id="6"  d=" M  -140,-100  L  140,-100  L  140,334.276  L  -140,334.276  z " />
<path transform="translate( 0, 0 )" style="stroke: hsl(26.9, 55%, 50%);" id="42"  d=" M  0,0  L  40,40  L  41.755,124.835  L  -41.755,124.835  L  -40,40  z " />
<path transform="translate( 0, -10 )" style="stroke: hsl(53.8, 55%, 50%);" id="84"  d=" M  0,0  L  50,50  L  50.742,156.063  L  -50.742,156.063  L  -50,50  z " />
<path transform="translate( 0, -20 )" style="stroke: hsl(80.7, 55%, 50%);" id="126"  d=" M  0,0  L  60,60  L  59.097,187.276  L  -59.097,187.276  L  -60,60  z " />
<path transform="translate( 0, -30 )" style="stroke: hsl(107.6, 55%, 50%);" id="168"  d=" M  0,0  L  70,70  L  66.796,218.457  L  -66.796,218.457  L  -70,70  z " />
<path transform="translate( 0, -40 )" style="stroke: hsl(134.5, 55%, 50%);" id="210"  d=" M  0,0  L  80,80  L  73.81,249.593  L  -73.81,249.593  L  -80,80  z " />
<path transform="translate( 0, -50 )" style="stroke: hsl(161.4, 55%, 50%);" id="252"  d=" M  0,0  L  90,90  L  80.114,280.663  L  -80.114,280.663  L  -90,90  z " />
<path transform="translate( 0, -60 )" style="stroke: hsl(188.3, 55%, 50%);" id="294"  d=" M  0,0  L  100,100  L  85.678,311.648  L  -85.678,311.648  L  -100,100  z " />
<path transform="translate( 0, -70 )" style="stroke: hsl(215.2, 55%, 50%);" id="336"  d=" M  0,0  L  110,110  L  90.475,342.527  L  -90.475,342.527  L  -110,110  z " />
<path transform="translate( 0, -80 )" style="stroke: hsl(242.1, 55%, 50%);" id="378"  d=" M  0,0  L  120,120  L  94.476,373.275  L  -94.476,373.275  L  -120,120  z " />
<path transform="translate( 0, -90 )" style="stroke: hsl(269, 55%, 50%);" id="420"  d=" M  0,0  L  130,130  L  97.653,403.868  L  -97.653,403.868  L  -130,130  z " />
<path transform="translate( 0, -100 )" style="stroke: hsl(295.9, 55%, 50%);" id="462"  d=" M  0,0  L  140,140  L  99.978,434.276  L  -99.978,434.276  L  -140,140  z " />
    </g>
    <!-- End of group #liningTip -->
    
    <!-- Start of group #liningTail -->
    <g id="liningTail"  transform=" translate(102.5 55)  translate(712.5 444.276) " >
        <path class="hidden" id="7"  d=" M  -97.5,-50  L  97.5,-50  L  97.5,253.911  L  -97.5,253.911  z " />
<path transform="translate( 0, 0 )" style="stroke: hsl(26.9, 55%, 50%);" id="43"  d=" M  0,0  L  47.5,47.5  L  48.553,148.257  L  -48.553,148.257  L  -47.5,47.5  z " />
<path transform="translate( 0, -5 )" style="stroke: hsl(53.8, 55%, 50%);" id="85"  d=" M  0,0  L  52.5,52.5  L  52.891,163.868  L  -52.891,163.868  L  -52.5,52.5  z " />
<path transform="translate( 0, -10 )" style="stroke: hsl(80.7, 55%, 50%);" id="127"  d=" M  0,0  L  57.5,57.5  L  57.069,179.475  L  -57.069,179.475  L  -57.5,57.5  z " />
<path transform="translate( 0, -15 )" style="stroke: hsl(107.6, 55%, 50%);" id="169"  d=" M  0,0  L  62.5,62.5  L  61.085,195.075  L  -61.085,195.075  L  -62.5,62.5  z " />
<path transform="translate( 0, -20 )" style="stroke: hsl(134.5, 55%, 50%);" id="211"  d=" M  0,0  L  67.5,67.5  L  64.934,210.666  L  -64.934,210.666  L  -67.5,67.5  z " />
<path transform="translate( 0, -25 )" style="stroke: hsl(161.4, 55%, 50%);" id="253"  d=" M  0,0  L  72.5,72.5  L  68.615,226.247  L  -68.615,226.247  L  -72.5,72.5  z " />
<path transform="translate( 0, -30 )" style="stroke: hsl(188.3, 55%, 50%);" id="295"  d=" M  0,0  L  77.5,77.5  L  72.122,241.814  L  -72.122,241.814  L  -77.5,77.5  z " />
<path transform="translate( 0, -35 )" style="stroke: hsl(215.2, 55%, 50%);" id="337"  d=" M  0,0  L  82.5,82.5  L  75.454,257.367  L  -75.454,257.367  L  -82.5,82.5  z " />
<path transform="translate( 0, -40 )" style="stroke: hsl(242.1, 55%, 50%);" id="379"  d=" M  0,0  L  87.5,87.5  L  78.606,272.903  L  -78.606,272.903  L  -87.5,87.5  z " />
<path transform="translate( 0, -45 )" style="stroke: hsl(269, 55%, 50%);" id="421"  d=" M  0,0  L  92.5,92.5  L  81.575,288.418  L  -81.575,288.418  L  -92.5,92.5  z " />
<path transform="translate( 0, -50 )" style="stroke: hsl(295.9, 55%, 50%);" id="463"  d=" M  0,0  L  97.5,97.5  L  84.358,303.911  L  -84.358,303.911  L  -97.5,97.5  z " />
    </g>
    <!-- End of group #liningTail -->
    
    <!-- Start of group #loop -->
    <g id="loop" >
    </g>
    <!-- End of group #loop -->
    
    <!-- Start of group #sampler-interfacingTip -->
    <g id="sampler-interfacingTip" >
    </g>
    <!-- End of group #sampler-interfacingTip -->
    
    <!-- Start of group #sampler-interfacingTail -->
    <g id="sampler-interfacingTail" >
    </g>
    <!-- End of group #sampler-interfacingTail -->
    
    <!-- Start of group #sampler-fabricTip -->
    <g id="sampler-fabricTip" >
    </g>
    <!-- End of group #sampler-fabricTip -->
    
    <!-- Start of group #sampler-fabricTail -->
    <g id="sampler-fabricTail" >
    </g>
    <!-- End of group #sampler-fabricTail -->
    
    <!-- Start of group #sampler-liningTip -->
    <g id="sampler-liningTip" >
    </g>
    <!-- End of group #sampler-liningTip -->
    
    <!-- Start of group #sampler-liningTail -->
    <g id="sampler-liningTail" >
    </g>
    <!-- End of group #sampler-liningTail -->
</g>
<!-- End of group #patternContainer -->

</svg>

