<?xml version="1.0" encoding="UTF-8" standalone="no"?>
<svg
    width ="1143.0177176276"
    height ="4110.2362244"
    viewbox ="0 0 1143.0177176276 4110.2362244" xmlns:dc="http://purl.org/dc/elements/1.1/"
    xmlns:cc="http://creativecommons.org/ns#"
    xmlns:rdf="http://www.w3.org/1999/02/22-rdf-syntax-ns#"
    xmlns:svg="http://www.w3.org/2000/svg"
    xmlns="http://www.w3.org/2000/svg"
    xmlns:xlink="http://www.w3.org/1999/xlink"
    xmlns:sodipodi="http://sodipodi.sourceforge.net/DTD/sodipodi-0.dtd"
    xmlns:inkscape="http://www.inkscape.org/namespaces/inkscape" 
>

<style type="text/css">
    <![CDATA[
    path { fill: none; stroke: #000000; stroke-opacity:1; stroke-width: 0.5; stroke-miterlimit:4; stroke-dashoffset:0; stroke-linecap:round; stroke-linejoin:round; }
    path.hidden { fill: none; stroke: none; }]]>
</style>


<!-- Start of group #patternScaleContainer -->
<g id="patternScaleContainer"  transform=" scale(3.54330709 ) " >
    
    <!-- Start of group #frontBlock -->
    <g id="frontBlock"  transform=" translate(317.585 5)  translate(0 0) " >
        <path class="hidden" id="2"  d=" M  -312.585,0  L  0,0  L  0,1150  L  -312.585,1150  z " />
<path transform="translate( 0, 0 )" style="stroke: hsl(26.9, 55%, 50%);" id="6"  d=" M  -18.769,-0  C  -18.769,-0  0,70  0,140  C  0,240  -39.805,440.2  -42.805,604  L  -52.805,1150  L  -272.805,1150  L  -272.805,604  C  -272.805,312.8  -312.585,240  -312.585,240  C  -312.585,240  -260.488,205  -260.488,140  L  -260.488,-0  L  -172.189,-0  L  -162.805,105  L  -153.421,0  z  M  -162.805,0  L  -162.805,1150 " />
<path transform="translate( 0, 0 )" style="stroke: hsl(53.8, 55%, 50%);" id="12"  d=" M  -18.769,-0  C  -18.769,-0  0,70  0,140  C  0,240  -39.805,440.2  -42.805,604  L  -52.805,1150  L  -272.805,1150  L  -272.805,604  C  -272.805,312.8  -312.585,240  -312.585,240  C  -312.585,240  -260.488,208.5  -260.488,140  L  -260.488,-0  L  -172.189,-0  L  -162.805,105  L  -153.421,0  z  M  -162.805,0  L  -162.805,1150 " />
<path transform="translate( 0, 0 )" style="stroke: hsl(80.7, 55%, 50%);" id="18"  d=" M  -18.769,-0  C  -18.769,-0  0,70  0,140  C  0,240  -39.805,440.2  -42.805,604  L  -52.805,1150  L  -272.805,1150  L  -272.805,604  C  -272.805,312.8  -312.585,240  -312.585,240  C  -312.585,240  -260.488,212  -260.488,140  L  -260.488,-0  L  -172.189,-0  L  -162.805,105  L  -153.421,0  z  M  -162.805,0  L  -162.805,1150 " />
<path transform="translate( 0, 0 )" style="stroke: hsl(107.6, 55%, 50%);" id="24"  d=" M  -18.769,-0  C  -18.769,-0  0,70  0,140  C  0,240  -39.805,440.2  -42.805,604  L  -52.805,1150  L  -272.805,1150  L  -272.805,604  C  -272.805,312.8  -312.585,240  -312.585,240  C  -312.585,240  -260.488,215.5  -260.488,140  L  -260.488,-0  L  -172.189,-0  L  -162.805,105  L  -153.421,0  z  M  -162.805,0  L  -162.805,1150 " />
<path transform="translate( 0, 0 )" style="stroke: hsl(134.5, 55%, 50%);" id="30"  d=" M  -18.769,-0  C  -18.769,-0  0,70  0,140  C  0,240  -39.805,440.2  -42.805,604  L  -52.805,1150  L  -272.805,1150  L  -272.805,604  C  -272.805,312.8  -312.585,240  -312.585,240  C  -312.585,240  -260.488,219  -260.488,140  L  -260.488,-0  L  -172.189,-0  L  -162.805,105  L  -153.421,0  z  M  -162.805,0  L  -162.805,1150 " />
<path transform="translate( 0, 0 )" style="stroke: hsl(161.4, 55%, 50%);" id="36"  d=" M  -18.769,-0  C  -18.769,-0  0,70  0,140  C  0,240  -39.805,440.2  -42.805,604  L  -52.805,1150  L  -272.805,1150  L  -272.805,604  C  -272.805,312.8  -312.585,240  -312.585,240  C  -312.585,240  -260.488,222.5  -260.488,140  L  -260.488,-0  L  -172.189,-0  L  -162.805,105  L  -153.421,0  z  M  -162.805,0  L  -162.805,1150 " />
<path transform="translate( 0, 0 )" style="stroke: hsl(188.3, 55%, 50%);" id="42"  d=" M  -18.769,-0  C  -18.769,-0  0,70  0,140  C  0,240  -39.805,440.2  -42.805,604  L  -52.805,1150  L  -272.805,1150  L  -272.805,604  C  -272.805,312.8  -312.585,240  -312.585,240  C  -312.585,240  -260.488,226  -260.488,140  L  -260.488,-0  L  -172.189,-0  L  -162.805,105  L  -153.421,0  z  M  -162.805,0  L  -162.805,1150 " />
<path transform="translate( 0, 0 )" style="stroke: hsl(215.2, 55%, 50%);" id="48"  d=" M  -18.769,-0  C  -18.769,-0  0,70  0,140  C  0,240  -39.805,440.2  -42.805,604  L  -52.805,1150  L  -272.805,1150  L  -272.805,604  C  -272.805,312.8  -312.585,240  -312.585,240  C  -312.585,240  -260.488,229.5  -260.488,140  L  -260.488,-0  L  -172.189,-0  L  -162.805,105  L  -153.421,0  z  M  -162.805,0  L  -162.805,1150 " />
<path transform="translate( 0, 0 )" style="stroke: hsl(242.1, 55%, 50%);" id="54"  d=" M  -18.769,-0  C  -18.769,-0  0,70  0,140  C  0,240  -39.805,440.2  -42.805,604  L  -52.805,1150  L  -272.805,1150  L  -272.805,604  C  -272.805,312.8  -312.585,240  -312.585,240  C  -312.585,240  -260.488,233  -260.488,140  L  -260.488,-0  L  -172.189,-0  L  -162.805,105  L  -153.421,0  z  M  -162.805,0  L  -162.805,1150 " />
<path transform="translate( 0, 0 )" style="stroke: hsl(269, 55%, 50%);" id="60"  d=" M  -18.769,-0  C  -18.769,-0  0,70  0,140  C  0,240  -39.805,440.2  -42.805,604  L  -52.805,1150  L  -272.805,1150  L  -272.805,604  C  -272.805,312.8  -312.585,240  -312.585,240  C  -312.585,240  -260.488,236.5  -260.488,140  L  -260.488,-0  L  -172.189,-0  L  -162.805,105  L  -153.421,0  z  M  -162.805,0  L  -162.805,1150 " />
<path transform="translate( 0, 0 )" style="stroke: hsl(295.9, 55%, 50%);" id="66"  d=" M  -18.769,-0  C  -18.769,-0  0,70  0,140  C  0,240  -39.805,440.2  -42.805,604  L  -52.805,1150  L  -272.805,1150  L  -272.805,604  C  -272.805,312.8  -312.585,240  -312.585,240  C  -312.585,240  -260.488,240  -260.488,140  L  -260.488,-0  L  -172.189,-0  L  -162.805,105  L  -153.421,0  z  M  -162.805,0  L  -162.805,1150 " />
    </g>
    <!-- End of group #frontBlock -->
</g>
<!-- End of group #patternScaleContainer -->

</svg>

