<?xml version="1.0" encoding="UTF-8" standalone="no"?>
<svg
    width ="2755.0311049948"
    height ="4269.1712639219"
    viewbox ="0 0 2755.0311049948 4269.1712639219" xmlns:dc="http://purl.org/dc/elements/1.1/"
    xmlns:cc="http://creativecommons.org/ns#"
    xmlns:rdf="http://www.w3.org/1999/02/22-rdf-syntax-ns#"
    xmlns:svg="http://www.w3.org/2000/svg"
    xmlns="http://www.w3.org/2000/svg"
    xmlns:xlink="http://www.w3.org/1999/xlink"
    xmlns:sodipodi="http://sodipodi.sourceforge.net/DTD/sodipodi-0.dtd"
    xmlns:inkscape="http://www.inkscape.org/namespaces/inkscape" 
>

<style type="text/css">
    <![CDATA[
    path { fill: none; stroke: #000000; stroke-opacity:1; stroke-width: 0.5; stroke-miterlimit:4; stroke-dashoffset:0; stroke-linecap:round; stroke-linejoin:round; }
    path.hidden { fill: none; stroke: none; }]]>
</style>


<!-- Start of group #patternScaleContainer -->
<g id="patternScaleContainer"  transform=" scale(3.54330709 ) " >
    
    <!-- Start of group #frame -->
    <g id="frame"  transform=" translate(0 0)  translate(777.531 0) " >
    </g>
    <!-- End of group #frame -->
    
    <!-- Start of group #frontBlock -->
    <g id="frontBlock"  transform=" translate(311.215 5)  translate(438.566 0) " >
        <path class="hidden" id="2"  d=" M  -306.215,0  L  22.75,0  L  22.75,1150  L  -306.215,1150  z " />
<path transform="translate( 0, 0 )" style="stroke: hsl(26.9, 55%, 50%);" id="6"  d=" M  -14.219,-0  C  -14.219,-0  0,70  0,140  C  0,240  -34.118,440.2  -37.118,604  L  -47.118,1150  L  -267.118,1150  L  -267.118,604  C  -267.118,312.8  -301.665,240  -301.665,240  C  -301.665,240  -251.388,225  -251.388,140  L  -251.388,-0  L  -164.227,-0  L  -157.118,105  L  -150.009,0  z  M  -157.118,0  L  -157.118,1150 " />
<path transform="translate( 2.275, 0 )" style="stroke: hsl(53.8, 55%, 50%);" id="12"  d=" M  -15.357,-0  C  -15.357,-0  0,70  0,140  C  0,240  -35.54,440.2  -38.54,604  L  -48.54,1150  L  -268.54,1150  L  -268.54,604  C  -268.54,312.8  -304.395,240  -304.395,240  C  -304.395,240  -253.663,225  -253.663,140  L  -253.663,-0  L  -166.218,-0  L  -158.54,105  L  -150.862,0  z  M  -158.54,0  L  -158.54,1150 " />
<path transform="translate( 4.55, 0 )" style="stroke: hsl(80.7, 55%, 50%);" id="18"  d=" M  -16.494,-0  C  -16.494,-0  0,70  0,140  C  0,240  -36.961,440.2  -39.961,604  L  -49.961,1150  L  -269.961,1150  L  -269.961,604  C  -269.961,312.8  -307.125,240  -307.125,240  C  -307.125,240  -255.938,225  -255.938,140  L  -255.938,-0  L  -168.208,-0  L  -159.961,105  L  -151.714,0  z  M  -159.961,0  L  -159.961,1150 " />
<path transform="translate( 6.825, 0 )" style="stroke: hsl(107.6, 55%, 50%);" id="24"  d=" M  -17.632,-0  C  -17.632,-0  0,70  0,140  C  0,240  -38.383,440.2  -41.383,604  L  -51.383,1150  L  -271.383,1150  L  -271.383,604  C  -271.383,312.8  -309.855,240  -309.855,240  C  -309.855,240  -258.213,225  -258.213,140  L  -258.213,-0  L  -170.199,-0  L  -161.383,105  L  -152.567,0  z  M  -161.383,0  L  -161.383,1150 " />
<path transform="translate( 9.1, 0 )" style="stroke: hsl(134.5, 55%, 50%);" id="30"  d=" M  -18.769,-0  C  -18.769,-0  0,70  0,140  C  0,240  -39.805,440.2  -42.805,604  L  -52.805,1150  L  -272.805,1150  L  -272.805,604  C  -272.805,312.8  -312.585,240  -312.585,240  C  -312.585,240  -260.488,225  -260.488,140  L  -260.488,-0  L  -172.189,-0  L  -162.805,105  L  -153.421,0  z  M  -162.805,0  L  -162.805,1150 " />
<path transform="translate( 11.375, 0 )" style="stroke: hsl(161.4, 55%, 50%);" id="36"  d=" M  -19.907,-0  C  -19.907,-0  0,70  0,140  C  0,240  -41.227,440.2  -44.227,604  L  -54.227,1150  L  -274.227,1150  L  -274.227,604  C  -274.227,312.8  -315.315,240  -315.315,240  C  -315.315,240  -262.763,225  -262.763,140  L  -262.763,-0  L  -174.18,-0  L  -164.227,105  L  -154.274,0  z  M  -164.227,0  L  -164.227,1150 " />
<path transform="translate( 13.65, 0 )" style="stroke: hsl(188.3, 55%, 50%);" id="42"  d=" M  -21.044,-0  C  -21.044,-0  0,70  0,140  C  0,240  -42.649,440.2  -45.649,604  L  -55.649,1150  L  -275.649,1150  L  -275.649,604  C  -275.649,312.8  -318.045,240  -318.045,240  C  -318.045,240  -265.038,225  -265.038,140  L  -265.038,-0  L  -176.171,-0  L  -165.649,105  L  -155.127,0  z  M  -165.649,0  L  -165.649,1150 " />
<path transform="translate( 15.925, 0 )" style="stroke: hsl(215.2, 55%, 50%);" id="48"  d=" M  -22.182,-0  C  -22.182,-0  0,70  0,140  C  0,240  -44.071,440.2  -47.071,604  L  -57.071,1150  L  -277.071,1150  L  -277.071,604  C  -277.071,312.8  -320.775,240  -320.775,240  C  -320.775,240  -267.313,225  -267.313,140  L  -267.313,-0  L  -178.162,-0  L  -167.071,105  L  -155.98,0  z  M  -167.071,0  L  -167.071,1150 " />
<path transform="translate( 18.2, 0 )" style="stroke: hsl(242.1, 55%, 50%);" id="54"  d=" M  -23.319,-0  C  -23.319,-0  0,70  0,140  C  0,240  -45.493,440.2  -48.493,604  L  -58.493,1150  L  -278.493,1150  L  -278.493,604  C  -278.493,312.8  -323.505,240  -323.505,240  C  -323.505,240  -269.588,225  -269.588,140  L  -269.588,-0  L  -180.152,-0  L  -168.493,105  L  -156.834,0  z  M  -168.493,0  L  -168.493,1150 " />
<path transform="translate( 20.475, 0 )" style="stroke: hsl(269, 55%, 50%);" id="60"  d=" M  -24.457,-0  C  -24.457,-0  0,70  0,140  C  0,240  -46.915,440.2  -49.915,604  L  -59.915,1150  L  -279.915,1150  L  -279.915,604  C  -279.915,312.8  -326.235,240  -326.235,240  C  -326.235,240  -271.863,225  -271.863,140  L  -271.863,-0  L  -182.143,-0  L  -169.915,105  L  -157.687,0  z  M  -169.915,0  L  -169.915,1150 " />
<path transform="translate( 22.75, 0 )" style="stroke: hsl(295.9, 55%, 50%);" id="66"  d=" M  -25.594,-0  C  -25.594,-0  0,70  0,140  C  0,240  -48.336,440.2  -51.336,604  L  -61.336,1150  L  -281.336,1150  L  -281.336,604  C  -281.336,312.8  -328.965,240  -328.965,240  C  -328.965,240  -274.138,225  -274.138,140  L  -274.138,-0  L  -184.133,-0  L  -171.336,105  L  -158.539,0  z  M  -171.336,0  L  -171.336,1150 " />
    </g>
    <!-- End of group #frontBlock -->
    
    <!-- Start of group #backBlock -->
    <g id="backBlock"  transform=" translate(346.295 54.875)  translate(0 0) " >
        <path class="hidden" id="3"  d=" M  -341.295,-49.875  L  87.271,-49.875  L  87.271,1144.98  L  -341.295,1144.98  z " />
<path transform="translate( 0, 0 )" style="stroke: hsl(26.9, 55%, 50%);" id="7"  d=" M  -253.848,150.352  L  -206.263,-49.875  L  -60.828,-23.939  L  -75.008,72.494  L  -44.062,-20.949  L  73.406,0  C  73.406,0  62.16,96.91  45.048,192.865  C  27.936,288.82  -17.918,379.819  -19.118,598.219  L  -22.118,1144.219  L  -282.118,1144.219  L  -292.118,598.219  C  -296.118,379.819  -341.293,234.757  -341.293,234.757  C  -341.293,234.757  -268.892,213.656  -253.848,150.352  z  M  -157.118,-41.111  L  -157.118,1144.219 " />
<path transform="translate( 2.275, 0 )" style="stroke: hsl(53.8, 55%, 50%);" id="13"  d=" M  -256.111,150.3  L  -208.538,-49.875  L  -63.014,-24.051  L  -76.522,72.494  L  -44.904,-20.837  L  72.515,0  C  72.515,0  62.534,97.104  45.501,193.089  C  28.468,289.074  -19.34,379.924  -20.54,598.324  L  -23.54,1144.324  L  -283.54,1144.324  L  -293.54,598.324  C  -297.54,379.924  -343.57,234.78  -343.57,234.78  C  -343.57,234.78  -271.169,213.66  -256.111,150.3  z  M  -158.54,-41.002  L  -158.54,1144.324 " />
<path transform="translate( 4.55, 0 )" style="stroke: hsl(80.7, 55%, 50%);" id="19"  d=" M  -258.371,150.238  L  -210.813,-49.875  L  -65.201,-24.162  L  -78.036,72.494  L  -45.745,-20.726  L  71.623,0  C  71.623,0  62.91,97.293  45.954,193.311  C  28.998,289.329  -20.761,380.022  -21.961,598.422  L  -24.961,1144.422  L  -284.961,1144.422  L  -294.961,598.422  C  -298.961,380.022  -345.843,234.792  -345.843,234.792  C  -345.843,234.792  -273.442,213.654  -258.371,150.238  z  M  -159.961,-40.895  L  -159.961,1144.422 " />
<path transform="translate( 6.825, 0 )" style="stroke: hsl(107.6, 55%, 50%);" id="25"  d=" M  -260.629,150.167  L  -213.088,-49.875  L  -67.387,-24.272  L  -79.55,72.494  L  -46.587,-20.616  L  70.732,0  C  70.732,0  63.286,97.475  46.407,193.53  C  29.528,289.585  -22.183,380.114  -23.383,598.514  L  -26.383,1144.514  L  -286.383,1144.514  L  -296.383,598.514  C  -300.383,380.114  -348.114,234.794  -348.114,234.794  C  -348.114,234.794  -275.713,213.637  -260.629,150.167  z  M  -161.383,-40.789  L  -161.383,1144.514 " />
<path transform="translate( 9.1, 0 )" style="stroke: hsl(134.5, 55%, 50%);" id="31"  d=" M  -262.885,150.085  L  -215.363,-49.875  L  -69.574,-24.38  L  -81.064,72.494  L  -47.428,-20.508  L  69.84,0  C  69.84,0  63.666,97.653  46.861,193.748  C  30.056,289.843  -23.605,380.2  -24.805,598.6  L  -27.805,1144.6  L  -287.805,1144.6  L  -297.805,598.6  C  -301.805,380.2  -350.382,234.784  -350.382,234.784  C  -350.382,234.784  -277.982,213.609  -262.885,150.085  z  M  -162.805,-40.684  L  -162.805,1144.6 " />
<path transform="translate( 11.375, 0 )" style="stroke: hsl(161.4, 55%, 50%);" id="37"  d=" M  -265.138,149.993  L  -217.638,-49.875  L  -71.761,-24.488  L  -82.579,72.494  L  -48.271,-20.4  L  68.948,0  C  68.948,0  64.045,97.825  47.314,193.963  C  30.583,290.101  -25.027,380.28  -26.227,598.68  L  -29.227,1144.68  L  -289.227,1144.68  L  -299.227,598.68  C  -303.227,380.28  -352.648,234.764  -352.648,234.764  C  -352.648,234.764  -280.248,213.571  -265.138,149.993  z  M  -164.227,-40.58  L  -164.227,1144.68 " />
<path transform="translate( 13.65, 0 )" style="stroke: hsl(188.3, 55%, 50%);" id="43"  d=" M  -267.388,149.889  L  -219.913,-49.875  L  -73.948,-24.595  L  -84.093,72.494  L  -49.112,-20.293  L  68.056,0  C  68.056,0  64.427,97.992  47.768,194.177  C  31.109,290.362  -26.449,380.352  -27.649,598.752  L  -30.649,1144.752  L  -290.649,1144.752  L  -300.649,598.752  C  -304.649,380.352  -354.91,234.731  -354.91,234.731  C  -354.91,234.731  -282.51,213.521  -267.388,149.889  z  M  -165.649,-40.477  L  -165.649,1144.752 " />
<path transform="translate( 15.925, 0 )" style="stroke: hsl(215.2, 55%, 50%);" id="49"  d=" M  -269.636,149.776  L  -222.188,-49.875  L  -76.135,-24.7  L  -85.607,72.494  L  -49.953,-20.187  L  67.164,0  C  67.164,0  64.81,98.153  48.222,194.388  C  31.634,290.623  -27.871,380.419  -29.071,598.819  L  -32.071,1144.819  L  -292.071,1144.819  L  -302.071,598.819  C  -306.071,380.419  -357.17,234.688  -357.17,234.688  C  -357.17,234.688  -284.771,213.46  -269.636,149.776  z  M  -167.071,-40.375  L  -167.071,1144.819 " />
<path transform="translate( 18.2, 0 )" style="stroke: hsl(242.1, 55%, 50%);" id="55"  d=" M  -271.882,149.652  L  -224.463,-49.875  L  -78.324,-24.805  L  -87.122,72.494  L  -50.794,-20.083  L  66.271,0  C  66.271,0  65.194,98.309  48.676,194.598  C  32.158,290.887  -29.293,380.479  -30.493,598.879  L  -33.493,1144.879  L  -293.493,1144.879  L  -303.493,598.879  C  -307.493,380.479  -359.428,234.634  -359.428,234.634  C  -359.428,234.634  -287.03,213.389  -271.882,149.652  z  M  -168.493,-40.273  L  -168.493,1144.879 " />
<path transform="translate( 20.475, 0 )" style="stroke: hsl(269, 55%, 50%);" id="61"  d=" M  -274.125,149.518  L  -226.738,-49.875  L  -80.512,-24.909  L  -88.637,72.494  L  -51.636,-19.979  L  65.379,0  C  65.379,0  65.58,98.458  49.13,194.805  C  32.68,291.152  -30.715,380.533  -31.915,598.933  L  -34.915,1144.933  L  -294.915,1144.933  L  -304.915,598.933  C  -308.915,380.533  -361.683,234.569  -361.683,234.569  C  -361.683,234.569  -289.285,213.306  -274.125,149.518  z  M  -169.915,-40.173  L  -169.915,1144.933 " />
<path transform="translate( 22.75, 0 )" style="stroke: hsl(295.9, 55%, 50%);" id="67"  d=" M  -276.366,149.374  L  -229.013,-49.875  L  -82.7,-25.012  L  -90.152,72.494  L  -52.478,-19.876  L  64.486,0  C  64.486,0  65.967,98.603  49.584,195.011  C  33.201,291.419  -32.136,380.58  -33.336,598.98  L  -36.336,1144.98  L  -296.336,1144.98  L  -306.336,598.98  C  -310.336,380.58  -363.936,234.493  -363.936,234.493  C  -363.936,234.493  -291.538,213.213  -276.366,149.374  z  M  -171.336,-40.074  L  -171.336,1144.98 " />
    </g>
    <!-- End of group #backBlock -->
    
    <!-- Start of group #sampler-frontBlock -->
    <g id="sampler-frontBlock"  transform=" translate(0 0)  translate(777.531 0) " >
    </g>
    <!-- End of group #sampler-frontBlock -->
    
    <!-- Start of group #sampler-backBlock -->
    <g id="sampler-backBlock"  transform=" translate(0 0)  translate(777.531 0) " >
    </g>
    <!-- End of group #sampler-backBlock -->
</g>
<!-- End of group #patternScaleContainer -->

</svg>

