<?xml version="1.0" encoding="UTF-8" standalone="no"?>
<!-- Created with Inkscape (http://www.inkscape.org/) -->

<svg
   xmlns:svg="http://www.w3.org/2000/svg"
   xmlns="http://www.w3.org/2000/svg"
   version="1.1"
   width="277.857"
   height="227.5"
   viewBox="0 0 78.4175 64.2055"
   id="svg8">
  <defs
     id="defs2" />
  <g
     transform="translate(-53.424,-75.1634)"
     id="layer1">
    <g
       transform="translate(-0.576029,-0.726862)"
       id="g4612">
      <path
         d="M 87.5613,102.293 C 87.5613,93.4732 88.3145,87.761 83.7709,80.812 80.8058,80.4165 62.6079,80.1776 60.1356,80.779 55.5921,87.728 56.4397,93.3457 56.4397,102.166 56.4559,110.624 57.9307,135.636 58.532,137.173 60.6702,139.01 84.3542,138.074 85.3745,137.206 86.5772,132.027 87.8286,110.846 87.5613,102.293 z"
         id="path817"
         style="fill:#212121;fill-opacity:1;stroke:#545454;stroke-width:0.865;stroke-linecap:butt;stroke-linejoin:miter;stroke-miterlimit:4;stroke-opacity:1;stroke-dasharray:none" />
      <path
         d="M 63.8106,80.5785 63.8774,86.0899"
         id="path842"
         style="fill:none;stroke:#545454;stroke-width:0.264583px;stroke-linecap:butt;stroke-linejoin:miter;stroke-opacity:1" />
      <path
         d="M 66.951,80.7121 67.0455,87.8792"
         id="path844"
         style="fill:none;stroke:#545454;stroke-width:0.264583px;stroke-linecap:butt;stroke-linejoin:miter;stroke-opacity:1" />
      <path
         d="M 76.8637,80.4481 76.9499,87.8921"
         id="path855"
         style="fill:none;stroke:#545454;stroke-width:0.307795px;stroke-linecap:butt;stroke-linejoin:miter;stroke-opacity:1" />
      <path
         d="M 80.114,80.7121 80.2754,85.9401"
         id="path857"
         style="fill:none;stroke:#545454;stroke-width:0.264583px;stroke-linecap:butt;stroke-linejoin:miter;stroke-opacity:1" />
      <path
         d="M 59.9795,80.4111 C 60.9366,80.6115 82.643,81.0625 83.7709,80.812 83.9247,80.1772 83.9288,78.5631 83.7921,77.8281 82.5445,77.5942 61.0733,77.5212 59.9112,77.7384 59.7745,78.3898 59.8257,79.9143 59.9795,80.4111 z"
         id="path859"
         style="fill:#212121;fill-opacity:1;stroke:#545454;stroke-width:0.773775;stroke-linecap:butt;stroke-linejoin:miter;stroke-miterlimit:4;stroke-opacity:1;stroke-dasharray:none" />
    </g>
    <g
       transform="translate(41.8581,-0.726862)"
       id="g2915">
      <path
         d="M 87.5613,102.293 C 87.5613,93.4732 88.3145,87.761 83.7709,80.812 80.8058,80.4165 62.6079,80.1776 60.1356,80.779 55.5921,87.728 56.4397,93.3457 56.4397,102.166 56.4559,110.624 57.9307,135.636 58.532,137.173 60.6702,139.01 84.3542,138.074 85.3745,137.206 86.5772,132.027 87.8286,110.846 87.5613,102.293 z"
         id="path2917"
         style="fill:#212121;fill-opacity:1;stroke:#545454;stroke-width:0.865;stroke-linecap:butt;stroke-linejoin:miter;stroke-miterlimit:4;stroke-opacity:1;stroke-dasharray:none" />
      <path
         d="M 63.8106,80.5785 63.8774,86.0899"
         id="path2919"
         style="fill:none;stroke:#545454;stroke-width:0.264583px;stroke-linecap:butt;stroke-linejoin:miter;stroke-opacity:1" />
      <path
         d="M 66.951,80.7121 67.0455,87.8792"
         id="path2921"
         style="fill:none;stroke:#545454;stroke-width:0.264583px;stroke-linecap:butt;stroke-linejoin:miter;stroke-opacity:1" />
      <path
         d="M 76.8637,80.4481 76.9499,87.8921"
         id="path2923"
         style="fill:none;stroke:#545454;stroke-width:0.307795px;stroke-linecap:butt;stroke-linejoin:miter;stroke-opacity:1" />
      <path
         d="M 80.114,80.7121 80.2754,85.9401"
         id="path2925"
         style="fill:none;stroke:#545454;stroke-width:0.264583px;stroke-linecap:butt;stroke-linejoin:miter;stroke-opacity:1" />
      <path
         d="M 59.9795,80.4111 C 60.9366,80.6115 82.643,81.0625 83.7709,80.812 83.9247,80.1772 83.9288,78.5631 83.7921,77.8281 82.5445,77.5942 61.0733,77.5212 59.9112,77.7384 59.7745,78.3898 59.8257,79.9143 59.9795,80.4111 z"
         id="path2927"
         style="fill:#212121;fill-opacity:1;stroke:#545454;stroke-width:0.773775;stroke-linecap:butt;stroke-linejoin:miter;stroke-miterlimit:4;stroke-opacity:1;stroke-dasharray:none" />
    </g>
    <path
       d="M 71.4165,137.454 71.4165,122.99"
       id="path2952"
       style="fill:#ff9900;fill-opacity:1;stroke:#545454;stroke-width:0.282223" />
    <path
       d="M 113.851,137.454 113.851,122.99"
       id="path2954"
       style="fill:#ff9900;fill-opacity:1;stroke:#545454;stroke-width:0.282223" />
    <path
       d="M 62.0924,136.648 62.0924,85.4191 C 62.0924,82.4426 63.1507,80.3038 63.1507,80.3038"
       id="path3040"
       style="fill:none;stroke:#ff5b77;stroke-width:0.282222;stroke-linecap:round;stroke-linejoin:round;stroke-miterlimit:4;stroke-opacity:1;stroke-dasharray:1.12889, 0.564445;stroke-dashoffset:0" />
    <path
       d="M 64.3852,136.698 64.3852,85.4191 C 64.3852,82.4426 63.3269,80.3038 63.3269,80.3038"
       id="path3816"
       style="fill:none;stroke:#ff5b77;stroke-width:0.282222;stroke-linecap:round;stroke-linejoin:round;stroke-miterlimit:4;stroke-opacity:1;stroke-dasharray:1.12889, 0.564445;stroke-dashoffset:0" />
    <path
       d="M 68.0642,136.799 68.0642,87.3342 C 68.0642,84.3577 67.0059,80.3038 67.0059,80.3038"
       id="path3818"
       style="fill:none;stroke:#ff5b77;stroke-width:0.282222;stroke-linecap:round;stroke-linejoin:round;stroke-miterlimit:4;stroke-opacity:1;stroke-dasharray:1.12889, 0.564445;stroke-dashoffset:0" />
    <path
       d="M 65.1159,136.799 65.1159,87.3342 C 65.1159,84.3577 66.1742,80.3038 66.1742,80.3038"
       id="path3820"
       style="fill:none;stroke:#ff5b77;stroke-width:0.282222;stroke-linecap:round;stroke-linejoin:round;stroke-miterlimit:4;stroke-opacity:1;stroke-dasharray:1.12889, 0.564445;stroke-dashoffset:0" />
    <path
       d="M 77.6144,136.698 77.6144,87.3342 C 77.6144,84.3577 76.5561,80.3038 76.5561,80.3038"
       id="path3824"
       style="fill:none;stroke:#ff5b77;stroke-width:0.282222;stroke-linecap:round;stroke-linejoin:round;stroke-miterlimit:4;stroke-opacity:1;stroke-dasharray:1.12889, 0.564445;stroke-dashoffset:0" />
    <path
       d="M 74.9181,136.648 74.9181,87.3342 C 74.9181,84.3577 75.9764,80.3038 75.9764,80.3038"
       id="path3828"
       style="fill:none;stroke:#ff5b77;stroke-width:0.282222;stroke-linecap:round;stroke-linejoin:round;stroke-miterlimit:4;stroke-opacity:1;stroke-dasharray:1.12889, 0.564445;stroke-dashoffset:0" />
    <path
       d="M 78.295,136.547 78.295,85.4191 C 78.295,82.4426 79.3533,80.3038 79.3533,80.3038"
       id="path3832"
       style="fill:none;stroke:#ff5b77;stroke-width:0.282222;stroke-linecap:round;stroke-linejoin:round;stroke-miterlimit:4;stroke-opacity:1;stroke-dasharray:1.12889, 0.564445;stroke-dashoffset:0" />
    <path
       d="M 80.9153,136.396 80.9153,85.4191 C 80.9153,82.4426 79.857,80.3038 79.857,80.3038"
       id="path3834"
       style="fill:none;stroke:#ff5b77;stroke-width:0.282222;stroke-linecap:round;stroke-linejoin:round;stroke-miterlimit:4;stroke-opacity:1;stroke-dasharray:1.12889, 0.564445;stroke-dashoffset:0" />
    <path
       d="M 58.6187,136.043 58.6187,91.8336 C 58.6187,83.7548 60.069,80.5533 60.069,80.5533"
       id="path3838"
       style="fill:none;stroke:#ff5b77;stroke-width:0.282222;stroke-linecap:round;stroke-linejoin:round;stroke-miterlimit:4;stroke-opacity:1;stroke-dasharray:1.12889, 0.564445;stroke-dashoffset:0" />
    <path
       d="M 84.2598,135.993 84.2598,91.8336 C 84.2598,83.7548 82.8095,80.5533 82.8095,80.5533"
       id="path3840"
       style="fill:none;stroke:#ff5b77;stroke-width:0.282222;stroke-linecap:round;stroke-linejoin:round;stroke-miterlimit:4;stroke-opacity:1;stroke-dasharray:1.12889, 0.564445;stroke-dashoffset:0" />
    <path
       d="M 104.503,136.648 104.503,85.4191 C 104.503,82.4426 104.957,80.3038 104.957,80.3038"
       id="path3844"
       style="fill:none;stroke:#ff5b77;stroke-width:0.282222;stroke-linecap:round;stroke-linejoin:round;stroke-miterlimit:4;stroke-opacity:1;stroke-dasharray:1.12889, 0.564445;stroke-dashoffset:0" />
    <path
       d="M 106.796,136.698 106.796,85.4191 C 106.796,82.4426 106.393,80.3038 106.393,80.3038"
       id="path3846"
       style="fill:none;stroke:#ff5b77;stroke-width:0.282222;stroke-linecap:round;stroke-linejoin:round;stroke-miterlimit:4;stroke-opacity:1;stroke-dasharray:1.12889, 0.564445;stroke-dashoffset:0" />
    <path
       d="M 110.475,136.799 110.475,87.3342 C 110.475,84.3577 110.072,80.3038 110.072,80.3038"
       id="path3848"
       style="fill:none;stroke:#ff5b77;stroke-width:0.282222;stroke-linecap:round;stroke-linejoin:round;stroke-miterlimit:4;stroke-opacity:1;stroke-dasharray:1.12889, 0.564445;stroke-dashoffset:0" />
    <path
       d="M 107.527,136.799 107.527,87.3342 C 107.527,84.3577 108.031,80.3038 108.031,80.3038"
       id="path3850"
       style="fill:none;stroke:#ff5b77;stroke-width:0.282222;stroke-linecap:round;stroke-linejoin:round;stroke-miterlimit:4;stroke-opacity:1;stroke-dasharray:1.12889, 0.564445;stroke-dashoffset:0" />
    <path
       d="M 120.025,136.698 120.025,87.3342 C 120.025,84.3577 119.572,80.3038 119.572,80.3038"
       id="path3852"
       style="fill:none;stroke:#ff5b77;stroke-width:0.282222;stroke-linecap:round;stroke-linejoin:round;stroke-miterlimit:4;stroke-opacity:1;stroke-dasharray:1.12889, 0.564445;stroke-dashoffset:0" />
    <path
       d="M 117.329,136.648 117.329,87.3342 C 117.329,84.3577 117.833,80.3038 117.833,80.3038"
       id="path3854"
       style="fill:none;stroke:#ff5b77;stroke-width:0.282222;stroke-linecap:round;stroke-linejoin:round;stroke-miterlimit:4;stroke-opacity:1;stroke-dasharray:1.12889, 0.564445;stroke-dashoffset:0" />
    <path
       d="M 120.706,136.547 120.706,85.4191 C 120.706,82.4426 121.008,80.3038 121.008,80.3038"
       id="path3856"
       style="fill:none;stroke:#ff5b77;stroke-width:0.282222;stroke-linecap:round;stroke-linejoin:round;stroke-miterlimit:4;stroke-opacity:1;stroke-dasharray:1.12889, 0.564445;stroke-dashoffset:0" />
    <path
       d="M 123.326,136.396 123.326,85.4191 C 123.326,82.4426 123.125,80.3038 123.125,80.3038"
       id="path3858"
       style="fill:none;stroke:#ff5b77;stroke-width:0.282222;stroke-linecap:round;stroke-linejoin:round;stroke-miterlimit:4;stroke-opacity:1;stroke-dasharray:1.12889, 0.564445;stroke-dashoffset:0" />
    <path
       d="M 101.03,136.043 101.03,91.8336 C 101.03,83.7548 103.589,80.5533 103.589,80.5533"
       id="path3860"
       style="fill:none;stroke:#ff5b77;stroke-width:0.282222;stroke-linecap:round;stroke-linejoin:round;stroke-miterlimit:4;stroke-opacity:1;stroke-dasharray:1.12889, 0.564445;stroke-dashoffset:0" />
    <path
       d="M 126.671,135.993 126.671,91.8336 C 126.671,83.7548 124.111,80.5533 124.111,80.5533"
       id="path3862"
       style="fill:none;stroke:#ff5b77;stroke-width:0.282222;stroke-linecap:round;stroke-linejoin:round;stroke-miterlimit:4;stroke-opacity:1;stroke-dasharray:1.12889, 0.564445;stroke-dashoffset:0" />
  </g>
</svg>
