<?xml version="1.0" encoding="UTF-8" standalone="no"?>
<!-- Created with Inkscape (http://www.inkscape.org/) -->

<svg
   xmlns:svg="http://www.w3.org/2000/svg"
   xmlns="http://www.w3.org/2000/svg"
   version="1.1"
   width="277.857"
   height="227.5"
   viewBox="0 0 78.4175 64.2055"
   id="svg8">
  <defs
     id="defs2" />
  <g
     transform="translate(-53.424,-75.1634)"
     id="layer1">
    <path
       d="M 71.4165,137.454 71.4165,122.99"
       id="path2952"
       style="fill:#ff9900;fill-opacity:1;stroke:#545454;stroke-width:0.282223" />
    <path
       d="M 113.851,137.454 113.851,122.99"
       id="path2954"
       style="fill:#ff9900;fill-opacity:1;stroke:#545454;stroke-width:0.282223" />
    <g
       transform="translate(-0.576029,-0.726862)"
       id="g4612">
      <path
         d="M 87.5613,102.293 C 87.5613,93.4732 88.3145,87.761 83.7709,80.812 80.8058,80.4165 62.6079,80.1776 60.1356,80.779 55.5921,87.728 56.4397,93.3457 56.4397,102.166 56.4559,110.624 57.9307,135.636 58.532,137.173 60.6702,139.01 84.3542,138.074 85.3745,137.206 86.5772,132.027 87.8286,110.846 87.5613,102.293 z"
         id="path817"
         style="fill:#212121;fill-opacity:1;stroke:#545454;stroke-width:0.865;stroke-linecap:butt;stroke-linejoin:miter;stroke-miterlimit:4;stroke-opacity:1;stroke-dasharray:none" />
      <path
         d="M 63.8106,80.5785 63.8774,86.0899"
         id="path842"
         style="fill:none;stroke:#545454;stroke-width:0.264583px;stroke-linecap:butt;stroke-linejoin:miter;stroke-opacity:1" />
      <path
         d="M 66.951,80.7121 67.0455,87.8792"
         id="path844"
         style="fill:none;stroke:#545454;stroke-width:0.264583px;stroke-linecap:butt;stroke-linejoin:miter;stroke-opacity:1" />
      <path
         d="M 76.8637,80.4481 76.9499,87.8921"
         id="path855"
         style="fill:none;stroke:#545454;stroke-width:0.307795px;stroke-linecap:butt;stroke-linejoin:miter;stroke-opacity:1" />
      <path
         d="M 80.114,80.7121 80.2754,85.9401"
         id="path857"
         style="fill:none;stroke:#545454;stroke-width:0.264583px;stroke-linecap:butt;stroke-linejoin:miter;stroke-opacity:1" />
      <path
         d="M 59.9795,80.4111 C 60.9366,80.6115 82.643,81.0625 83.7709,80.812 83.9247,80.1772 83.9288,78.5631 83.7921,77.8281 82.5445,77.5942 61.0733,77.5212 59.9112,77.7384 59.7745,78.3898 59.8257,79.9143 59.9795,80.4111 z"
         id="path859"
         style="fill:#212121;fill-opacity:1;stroke:#545454;stroke-width:0.773775;stroke-linecap:butt;stroke-linejoin:miter;stroke-miterlimit:4;stroke-opacity:1;stroke-dasharray:none" />
    </g>
    <g
       transform="translate(41.8581,-0.726862)"
       id="g2915">
      <path
         d="M 87.5613,102.293 C 87.5613,93.4732 88.3145,87.761 83.7709,80.812 80.8058,80.4165 62.6079,80.1776 60.1356,80.779 55.5921,87.728 56.4397,93.3457 56.4397,102.166 56.4559,110.624 56.5196,135.636 57.1209,137.173 59.2591,139.01 85.7653,138.074 86.7856,137.206 87.9883,132.027 87.8286,110.846 87.5613,102.293 z"
         id="path2917"
         style="fill:#212121;fill-opacity:1;stroke:#545454;stroke-width:0.865;stroke-linecap:butt;stroke-linejoin:miter;stroke-miterlimit:4;stroke-opacity:1;stroke-dasharray:none" />
      <path
         d="M 63.8106,80.5785 63.8774,86.0899"
         id="path2919"
         style="fill:none;stroke:#545454;stroke-width:0.264583px;stroke-linecap:butt;stroke-linejoin:miter;stroke-opacity:1" />
      <path
         d="M 66.951,80.7121 67.0455,87.8792"
         id="path2921"
         style="fill:none;stroke:#545454;stroke-width:0.264583px;stroke-linecap:butt;stroke-linejoin:miter;stroke-opacity:1" />
      <path
         d="M 76.8637,80.4481 76.9499,87.8921"
         id="path2923"
         style="fill:none;stroke:#545454;stroke-width:0.307795px;stroke-linecap:butt;stroke-linejoin:miter;stroke-opacity:1" />
      <path
         d="M 80.114,80.7121 80.2754,85.9401"
         id="path2925"
         style="fill:none;stroke:#545454;stroke-width:0.264583px;stroke-linecap:butt;stroke-linejoin:miter;stroke-opacity:1" />
      <path
         d="M 59.9795,80.4111 C 60.9366,80.6115 82.643,81.0625 83.7709,80.812 83.9247,80.1772 83.9288,78.5631 83.7921,77.8281 82.5445,77.5942 61.0733,77.5212 59.9112,77.7384 59.7745,78.3898 59.8257,79.9143 59.9795,80.4111 z"
         id="path2927"
         style="fill:#212121;fill-opacity:1;stroke:#545454;stroke-width:0.773775;stroke-linecap:butt;stroke-linejoin:miter;stroke-miterlimit:4;stroke-opacity:1;stroke-dasharray:none" />
    </g>
  </g>
</svg>
