<?xml version="1.0" encoding="UTF-8" standalone="no"?>
<!-- Created with Inkscape (http://www.inkscape.org/) -->

<svg
   xmlns:svg="http://www.w3.org/2000/svg"
   xmlns="http://www.w3.org/2000/svg"
   version="1.1"
   width="277.857"
   height="227.5"
   viewBox="0 0 78.4175 64.2055"
   id="svg8">
  <defs
     id="defs2">
    <marker
       refX="0"
       refY="0"
       orient="auto"
       id="Arrow1Mstartz"
       style="overflow:visible">
      <path
         d="M 0,0 5,-5 -12.5,0 5,5 0,0 z"
         transform="matrix(0.4,0,0,0.4,4,0)"
         id="path5479"
         style="fill:#ff5b77;fill-rule:evenodd;stroke:#ff5b77;stroke-width:1pt;marker-start:none" />
    </marker>
    <marker
       refX="0"
       refY="0"
       orient="auto"
       id="Arrow1Mends"
       style="overflow:visible">
      <path
         d="M 0,0 5,-5 -12.5,0 5,5 0,0 z"
         transform="matrix(-0.4,0,0,-0.4,-4,0)"
         id="path5482"
         style="fill:#ff5b77;fill-rule:evenodd;stroke:#ff5b77;stroke-width:1pt;marker-start:none" />
    </marker>
  </defs>
  <g
     transform="translate(-53.424,-75.1634)"
     id="layer1">
    <g
       transform="translate(41.8581,-0.726862)"
       id="g2915">
      <path
         d="M 87.5613,102.293 C 87.5613,93.4732 88.3145,87.761 83.7709,80.812 80.8058,80.4165 62.6079,80.1776 60.1356,80.779 55.5921,87.728 56.4397,93.3457 56.4397,102.166 56.4559,110.624 57.9307,135.636 58.532,137.173 60.6702,139.01 84.3542,138.074 85.3745,137.206 86.5772,132.027 87.8286,110.846 87.5613,102.293 z"
         id="path2917"
         style="fill:#212121;fill-opacity:1;stroke:#545454;stroke-width:0.865;stroke-linecap:butt;stroke-linejoin:miter;stroke-miterlimit:4;stroke-opacity:1;stroke-dasharray:none" />
      <path
         d="M 63.8106,80.5785 63.8774,86.0899"
         id="path2919"
         style="fill:none;stroke:#545454;stroke-width:0.264583px;stroke-linecap:butt;stroke-linejoin:miter;stroke-opacity:1" />
      <path
         d="M 66.951,80.7121 67.0455,87.8792"
         id="path2921"
         style="fill:none;stroke:#545454;stroke-width:0.264583px;stroke-linecap:butt;stroke-linejoin:miter;stroke-opacity:1" />
      <path
         d="M 76.8637,80.4481 76.9499,87.8921"
         id="path2923"
         style="fill:none;stroke:#545454;stroke-width:0.307795px;stroke-linecap:butt;stroke-linejoin:miter;stroke-opacity:1" />
      <path
         d="M 80.114,80.7121 80.2754,85.9401"
         id="path2925"
         style="fill:none;stroke:#545454;stroke-width:0.264583px;stroke-linecap:butt;stroke-linejoin:miter;stroke-opacity:1" />
      <path
         d="M 59.9795,80.4111 C 60.9366,80.6115 82.643,81.0625 83.7709,80.812 83.9247,80.1772 83.9288,78.5631 83.7921,77.8281 82.5445,77.5942 61.0733,77.5212 59.9112,77.7384 59.7745,78.3898 59.8257,79.9143 59.9795,80.4111 z"
         id="path2927"
         style="fill:#212121;fill-opacity:1;stroke:#545454;stroke-width:0.773775;stroke-linecap:butt;stroke-linejoin:miter;stroke-miterlimit:4;stroke-opacity:1;stroke-dasharray:none" />
    </g>
    <g
       transform="translate(-0.576106,-0.726862)"
       id="g4747">
      <path
         d="M 87.5613,102.293 C 87.5613,93.4732 88.3145,87.761 83.7709,80.812 80.8058,80.4165 62.6079,80.1776 60.1356,80.779 55.5921,87.728 56.4397,93.3457 56.4397,102.166 56.4559,110.624 57.9307,135.636 58.532,137.173 60.6702,139.01 84.3542,138.074 85.3745,137.206 86.5772,132.027 87.8286,110.846 87.5613,102.293 z"
         id="path4749"
         style="fill:#212121;fill-opacity:1;stroke:#545454;stroke-width:0.865;stroke-linecap:butt;stroke-linejoin:miter;stroke-miterlimit:4;stroke-opacity:1;stroke-dasharray:none" />
      <path
         d="M 63.8106,80.5785 63.8774,86.0899"
         id="path4751"
         style="fill:none;stroke:#545454;stroke-width:0.264583px;stroke-linecap:butt;stroke-linejoin:miter;stroke-opacity:1" />
      <path
         d="M 66.951,80.7121 67.0455,87.8792"
         id="path4753"
         style="fill:none;stroke:#545454;stroke-width:0.264583px;stroke-linecap:butt;stroke-linejoin:miter;stroke-opacity:1" />
      <path
         d="M 76.8637,80.4481 76.9499,87.8921"
         id="path4755"
         style="fill:none;stroke:#545454;stroke-width:0.307795px;stroke-linecap:butt;stroke-linejoin:miter;stroke-opacity:1" />
      <path
         d="M 80.114,80.7121 80.2754,85.9401"
         id="path4757"
         style="fill:none;stroke:#545454;stroke-width:0.264583px;stroke-linecap:butt;stroke-linejoin:miter;stroke-opacity:1" />
      <path
         d="M 59.9795,80.4111 C 60.9366,80.6115 82.643,81.0625 83.7709,80.812 83.9247,80.1772 83.9288,78.5631 83.7921,77.8281 82.5445,77.5942 61.0733,77.5212 59.9112,77.7384 59.7745,78.3898 59.8257,79.9143 59.9795,80.4111 z"
         id="path4759"
         style="fill:#212121;fill-opacity:1;stroke:#545454;stroke-width:0.773775;stroke-linecap:butt;stroke-linejoin:miter;stroke-miterlimit:4;stroke-opacity:1;stroke-dasharray:none" />
    </g>
    <path
       d="M 71.4164,137.656 71.4164,127.274"
       id="path4870"
       style="fill:none;stroke:#545454;stroke-width:0.282222;stroke-linecap:round;stroke-linejoin:round;stroke-miterlimit:4;stroke-opacity:1;stroke-dasharray:none;stroke-dashoffset:0" />
    <path
       d="M 113.851,137.656 113.851,127.274"
       id="path4872"
       style="fill:none;stroke:#545454;stroke-width:0.282222;stroke-linecap:round;stroke-linejoin:round;stroke-miterlimit:4;stroke-opacity:1;stroke-dasharray:none;stroke-dashoffset:0" />
    <path
       d="M 125.745,76.8264 125.745,80.4046 C 127.97,83.1372 128.965,87.5922 129.222,89.98"
       id="path4874"
       style="fill:none;stroke:#ff5b77;stroke-width:0.282223;stroke-linecap:square;stroke-linejoin:miter;stroke-miterlimit:4;stroke-opacity:1;stroke-dasharray:0.282223, 0.564446;stroke-dashoffset:0" />
    <path
       d="M 71.4164,76.6752 71.4164,89.7784"
       id="path4876"
       style="fill:none;stroke:#ff5b77;stroke-width:0.282223;stroke-linecap:square;stroke-linejoin:miter;stroke-miterlimit:4;stroke-opacity:1;stroke-dasharray:0.282223, 0.564446;stroke-dashoffset:0" />
  </g>
</svg>
