<?xml version="1.0" encoding="UTF-8" standalone="no"?>
<svg
    width ="1813.3511828351"
    height ="3629.526381421"
    viewbox ="0 0 1813.3511828351 3629.526381421" xmlns:dc="http://purl.org/dc/elements/1.1/"
    xmlns:cc="http://creativecommons.org/ns#"
    xmlns:rdf="http://www.w3.org/1999/02/22-rdf-syntax-ns#"
    xmlns:svg="http://www.w3.org/2000/svg"
    xmlns="http://www.w3.org/2000/svg"
    xmlns:xlink="http://www.w3.org/1999/xlink"
    xmlns:sodipodi="http://sodipodi.sourceforge.net/DTD/sodipodi-0.dtd"
    xmlns:inkscape="http://www.inkscape.org/namespaces/inkscape" 
>

<style type="text/css">
    <![CDATA[
    path { fill: none; stroke: #000000; stroke-opacity:1; stroke-width: 0.5; stroke-miterlimit:4; stroke-dashoffset:0; stroke-linecap:round; stroke-linejoin:round; }
    path.hidden { fill: none; stroke: none; }]]>
</style>


<!-- Start of group #patternScaleContainer -->
<g id="patternScaleContainer"  transform=" scale(3.54330709 ) " >
    
    <!-- Start of group #frontBlock -->
    <g id="frontBlock"  transform=" translate(0 0)  translate(511.768 0) " >
    </g>
    <!-- End of group #frontBlock -->
    
    <!-- Start of group #backBlock -->
    <g id="backBlock"  transform=" translate(0 0)  translate(511.768 0) " >
    </g>
    <!-- End of group #backBlock -->
    
    <!-- Start of group #front -->
    <g id="front"  transform=" translate(5 -0.667)  translate(255.884 0) " >
        <path class="hidden" id="2"  d=" M  0,5.667  L  245.884,5.667  L  245.884,1020  L  0,1020  z " />
<path transform="translate( 0, 0 )" style="stroke: hsl(26.9, 55%, 50%);" id="8"  d=" M  0,500  L  0,500  L  227.25,500  L  227.25,500  C  227.25,415.333  245.884,276  245.884,276  C  157.775,276  143.452,127.393  157.775,10.533  L  118.073,5.667  C  101.609,140  101.609,140  0,140  z " />
<path transform="translate( 0, 0 )" style="stroke: hsl(53.8, 55%, 50%);" id="16"  d=" M  0,500  L  0,552  L  227.25,552  L  227.25,500  C  227.25,415.333  245.884,276  245.884,276  C  157.775,276  143.452,127.393  157.775,10.533  L  118.073,5.667  C  101.609,140  101.609,140  0,140  z " />
<path transform="translate( 0, 0 )" style="stroke: hsl(80.7, 55%, 50%);" id="24"  d=" M  0,500  L  0,604  L  227.25,604  L  227.25,500  C  227.25,415.333  245.884,276  245.884,276  C  157.775,276  143.452,127.393  157.775,10.533  L  118.073,5.667  C  101.609,140  101.609,140  0,140  z " />
<path transform="translate( 0, 0 )" style="stroke: hsl(107.6, 55%, 50%);" id="32"  d=" M  0,500  L  0,656  L  227.25,656  L  227.25,500  C  227.25,415.333  245.884,276  245.884,276  C  157.775,276  143.452,127.393  157.775,10.533  L  118.073,5.667  C  101.609,140  101.609,140  0,140  z " />
<path transform="translate( 0, 0 )" style="stroke: hsl(134.5, 55%, 50%);" id="40"  d=" M  0,500  L  0,708  L  227.25,708  L  227.25,500  C  227.25,415.333  245.884,276  245.884,276  C  157.775,276  143.452,127.393  157.775,10.533  L  118.073,5.667  C  101.609,140  101.609,140  0,140  z " />
<path transform="translate( 0, 0 )" style="stroke: hsl(161.4, 55%, 50%);" id="48"  d=" M  0,500  L  0,760  L  227.25,760  L  227.25,500  C  227.25,415.333  245.884,276  245.884,276  C  157.775,276  143.452,127.393  157.775,10.533  L  118.073,5.667  C  101.609,140  101.609,140  0,140  z " />
<path transform="translate( 0, 0 )" style="stroke: hsl(188.3, 55%, 50%);" id="56"  d=" M  0,500  L  0,812  L  227.25,812  L  227.25,500  C  227.25,415.333  245.884,276  245.884,276  C  157.775,276  143.452,127.393  157.775,10.533  L  118.073,5.667  C  101.609,140  101.609,140  0,140  z " />
<path transform="translate( 0, 0 )" style="stroke: hsl(215.2, 55%, 50%);" id="64"  d=" M  0,500  L  0,864  L  227.25,864  L  227.25,500  C  227.25,415.333  245.884,276  245.884,276  C  157.775,276  143.452,127.393  157.775,10.533  L  118.073,5.667  C  101.609,140  101.609,140  0,140  z " />
<path transform="translate( 0, 0 )" style="stroke: hsl(242.1, 55%, 50%);" id="72"  d=" M  0,500  L  0,916  L  227.25,916  L  227.25,500  C  227.25,415.333  245.884,276  245.884,276  C  157.775,276  143.452,127.393  157.775,10.533  L  118.073,5.667  C  101.609,140  101.609,140  0,140  z " />
<path transform="translate( 0, 0 )" style="stroke: hsl(269, 55%, 50%);" id="80"  d=" M  0,500  L  0,968  L  227.25,968  L  227.25,500  C  227.25,415.333  245.884,276  245.884,276  C  157.775,276  143.452,127.393  157.775,10.533  L  118.073,5.667  C  101.609,140  101.609,140  0,140  z " />
<path transform="translate( 0, 0 )" style="stroke: hsl(295.9, 55%, 50%);" id="88"  d=" M  0,500  L  0,1020  L  227.25,1020  L  227.25,500  C  227.25,415.333  245.884,276  245.884,276  C  157.775,276  143.452,127.393  157.775,10.533  L  118.073,5.667  C  101.609,140  101.609,140  0,140  z " />
    </g>
    <!-- End of group #front -->
    
    <!-- Start of group #back -->
    <g id="back"  transform=" translate(5 -0.667)  translate(0 0) " >
        <path class="hidden" id="3"  d=" M  0,5.667  L  245.884,5.667  L  245.884,1020  L  0,1020  z " />
<path transform="translate( 0, 0 )" style="stroke: hsl(26.9, 55%, 50%);" id="9"  d=" M  0,500  L  0,500  L  227.25,500  L  227.25,500  C  227.25,415.333  245.884,276  245.884,276  C  171.083,276  137.602,175.123  157.775,10.533  L  118.073,5.667  C  114.784,32.5  59.037,32.5  0,32.5  z " />
<path transform="translate( 0, 0 )" style="stroke: hsl(53.8, 55%, 50%);" id="17"  d=" M  0,500  L  0,552  L  227.25,552  L  227.25,500  C  227.25,415.333  245.884,276  245.884,276  C  171.083,276  137.602,175.123  157.775,10.533  L  118.073,5.667  C  114.784,32.5  59.037,32.5  0,32.5  z " />
<path transform="translate( 0, 0 )" style="stroke: hsl(80.7, 55%, 50%);" id="25"  d=" M  0,500  L  0,604  L  227.25,604  L  227.25,500  C  227.25,415.333  245.884,276  245.884,276  C  171.083,276  137.602,175.123  157.775,10.533  L  118.073,5.667  C  114.784,32.5  59.037,32.5  0,32.5  z " />
<path transform="translate( 0, 0 )" style="stroke: hsl(107.6, 55%, 50%);" id="33"  d=" M  0,500  L  0,656  L  227.25,656  L  227.25,500  C  227.25,415.333  245.884,276  245.884,276  C  171.083,276  137.602,175.123  157.775,10.533  L  118.073,5.667  C  114.784,32.5  59.037,32.5  0,32.5  z " />
<path transform="translate( 0, 0 )" style="stroke: hsl(134.5, 55%, 50%);" id="41"  d=" M  0,500  L  0,708  L  227.25,708  L  227.25,500  C  227.25,415.333  245.884,276  245.884,276  C  171.083,276  137.602,175.123  157.775,10.533  L  118.073,5.667  C  114.784,32.5  59.037,32.5  0,32.5  z " />
<path transform="translate( 0, 0 )" style="stroke: hsl(161.4, 55%, 50%);" id="49"  d=" M  0,500  L  0,760  L  227.25,760  L  227.25,500  C  227.25,415.333  245.884,276  245.884,276  C  171.083,276  137.602,175.123  157.775,10.533  L  118.073,5.667  C  114.784,32.5  59.037,32.5  0,32.5  z " />
<path transform="translate( 0, 0 )" style="stroke: hsl(188.3, 55%, 50%);" id="57"  d=" M  0,500  L  0,812  L  227.25,812  L  227.25,500  C  227.25,415.333  245.884,276  245.884,276  C  171.083,276  137.602,175.123  157.775,10.533  L  118.073,5.667  C  114.784,32.5  59.037,32.5  0,32.5  z " />
<path transform="translate( 0, 0 )" style="stroke: hsl(215.2, 55%, 50%);" id="65"  d=" M  0,500  L  0,864  L  227.25,864  L  227.25,500  C  227.25,415.333  245.884,276  245.884,276  C  171.083,276  137.602,175.123  157.775,10.533  L  118.073,5.667  C  114.784,32.5  59.037,32.5  0,32.5  z " />
<path transform="translate( 0, 0 )" style="stroke: hsl(242.1, 55%, 50%);" id="73"  d=" M  0,500  L  0,916  L  227.25,916  L  227.25,500  C  227.25,415.333  245.884,276  245.884,276  C  171.083,276  137.602,175.123  157.775,10.533  L  118.073,5.667  C  114.784,32.5  59.037,32.5  0,32.5  z " />
<path transform="translate( 0, 0 )" style="stroke: hsl(269, 55%, 50%);" id="81"  d=" M  0,500  L  0,968  L  227.25,968  L  227.25,500  C  227.25,415.333  245.884,276  245.884,276  C  171.083,276  137.602,175.123  157.775,10.533  L  118.073,5.667  C  114.784,32.5  59.037,32.5  0,32.5  z " />
<path transform="translate( 0, 0 )" style="stroke: hsl(295.9, 55%, 50%);" id="89"  d=" M  0,500  L  0,1020  L  227.25,1020  L  227.25,500  C  227.25,415.333  245.884,276  245.884,276  C  171.083,276  137.602,175.123  157.775,10.533  L  118.073,5.667  C  114.784,32.5  59.037,32.5  0,32.5  z " />
    </g>
    <!-- End of group #back -->
    
    <!-- Start of group #sampler-front -->
    <g id="sampler-front"  transform=" translate(0 0)  translate(511.768 0) " >
    </g>
    <!-- End of group #sampler-front -->
    
    <!-- Start of group #sampler-back -->
    <g id="sampler-back"  transform=" translate(0 0)  translate(511.768 0) " >
    </g>
    <!-- End of group #sampler-back -->
</g>
<!-- End of group #patternScaleContainer -->

</svg>

