<?xml version="1.0" encoding="UTF-8" standalone="no"?>
<svg
    xmlns="http://www.w3.org/2000/svg"
    xmlns:svg="http://www.w3.org/2000/svg"
    xmlns:xlink="http://www.w3.org/1999/xlink"
    xmlns:freesewing="http://freesewing.org/namespaces/freesewing" viewBox ="0 0 566 746"
    width ="566mm"
    height ="746mm"
    freesewing:version ="1.5.0"
    freesewing:origin ="joost.core.freesewing.org" 
>

<style type="text/css">
    <![CDATA[
    path { fill: none; stroke: #000000; stroke-opacity:1; stroke-width: 0.5; stroke-miterlimit:4; stroke-dashoffset:0; stroke-linecap:round; stroke-linejoin:round; }
    path.hidden { fill: none; stroke: none; }]]>
</style>


<!-- Start of group #patternContainer -->
<g id="patternContainer" >
    
    <!-- Start of group #frontBlock -->
    <g id="frontBlock" >
    </g>
    <!-- End of group #frontBlock -->
    
    <!-- Start of group #backBlock -->
    <g id="backBlock" >
    </g>
    <!-- End of group #backBlock -->
    
    <!-- Start of group #front -->
    <g id="front"  transform=" translate(5 0.867)  translate(0 0) " >
        <path class="hidden" id="2"  d=" M  0,4.133  L  273.204,4.133  L  273.204,740  L  0,740  z " />
<path transform="translate( 0, 0 )" style="stroke: hsl(26.9, 55%, 50%);" id="8"  d=" M  0,500  L  0,740  L  252.5,740  L  252.5,500  C  252.5,415.333  273.204,276  273.204,276  C  150.228,276  135.856,126.927  150.228,9.608  L  140.302,8.392  C  124.985,133.419  124.179,140  0,140  z " />
<path transform="translate( 0, 0 )" style="stroke: hsl(53.8, 55%, 50%);" id="16"  d=" M  0,500  L  0,740  L  252.5,740  L  252.5,500  C  252.5,415.333  273.204,276  273.204,276  C  153.702,276  139.35,127.141  153.702,10.034  L  136.828,7.966  C  121.455,133.398  120.646,140  0,140  z " />
<path transform="translate( 0, 0 )" style="stroke: hsl(80.7, 55%, 50%);" id="24"  d=" M  0,500  L  0,740  L  252.5,740  L  252.5,500  C  252.5,415.333  273.204,276  273.204,276  C  157.176,276  142.847,127.355  157.176,10.46  L  133.354,7.54  C  117.931,133.377  117.119,140  0,140  z " />
<path transform="translate( 0, 0 )" style="stroke: hsl(107.6, 55%, 50%);" id="32"  d=" M  0,500  L  0,740  L  252.5,740  L  252.5,500  C  252.5,415.333  273.204,276  273.204,276  C  160.65,276  146.346,127.57  160.65,10.886  L  129.88,7.114  C  114.401,133.356  113.586,140  0,140  z " />
<path transform="translate( 0, 0 )" style="stroke: hsl(134.5, 55%, 50%);" id="40"  d=" M  0,500  L  0,740  L  252.5,740  L  252.5,500  C  252.5,415.333  273.204,276  273.204,276  C  164.124,276  149.845,127.784  164.124,11.312  L  126.406,6.688  C  110.877,133.335  110.06,140  0,140  z " />
<path transform="translate( 0, 0 )" style="stroke: hsl(161.4, 55%, 50%);" id="48"  d=" M  0,500  L  0,740  L  252.5,740  L  252.5,500  C  252.5,415.333  273.204,276  273.204,276  C  167.598,276  153.345,127.999  167.598,11.738  L  122.932,6.262  C  107.354,133.314  106.534,140  0,140  z " />
<path transform="translate( 0, 0 )" style="stroke: hsl(188.3, 55%, 50%);" id="56"  d=" M  0,500  L  0,740  L  252.5,740  L  252.5,500  C  252.5,415.333  273.204,276  273.204,276  C  171.072,276  156.846,128.213  171.072,12.163  L  119.458,5.836  C  103.836,133.292  103.014,140  0,140  z " />
<path transform="translate( 0, 0 )" style="stroke: hsl(215.2, 55%, 50%);" id="64"  d=" M  0,500  L  0,740  L  252.5,740  L  252.5,500  C  252.5,415.333  273.204,276  273.204,276  C  174.546,276  160.347,128.428  174.546,12.589  L  115.984,5.411  C  100.313,133.27  99.488,140  0,140  z " />
<path transform="translate( 0, 0 )" style="stroke: hsl(242.1, 55%, 50%);" id="72"  d=" M  0,500  L  0,740  L  252.5,740  L  252.5,500  C  252.5,415.333  273.204,276  273.204,276  C  178.02,276  163.847,128.643  178.02,13.015  L  112.51,4.985  C  96.789,133.249  95.962,140  0,140  z " />
<path transform="translate( 0, 0 )" style="stroke: hsl(269, 55%, 50%);" id="80"  d=" M  0,500  L  0,740  L  252.5,740  L  252.5,500  C  252.5,415.333  273.204,276  273.204,276  C  181.494,276  167.346,128.857  181.494,13.441  L  109.036,4.559  C  93.266,133.228  92.436,140  0,140  z " />
<path transform="translate( 0, 0 )" style="stroke: hsl(295.9, 55%, 50%);" id="88"  d=" M  0,500  L  0,740  L  252.5,740  L  252.5,500  C  252.5,415.333  273.204,276  273.204,276  C  184.968,276  170.846,129.072  184.968,13.867  L  105.562,4.133  C  89.743,133.206  88.91,140  0,140  z " />
    </g>
    <!-- End of group #front -->
    
    <!-- Start of group #back -->
    <g id="back"  transform=" translate(5 0.867)  translate(283.204 0) " >
        <path class="hidden" id="3"  d=" M  0,4.133  L  273.204,4.133  L  273.204,740  L  0,740  z " />
<path transform="translate( 0, 0 )" style="stroke: hsl(26.9, 55%, 50%);" id="9"  d=" M  0,500  L  0,740  L  252.5,740  L  252.5,500  C  252.5,415.333  273.204,276  273.204,276  C  176.726,276  129.995,174.771  150.228,9.608  L  140.302,8.392  C  137.349,32.5  70.151,32.5  0,32.5  z " />
<path transform="translate( 0, 0 )" style="stroke: hsl(53.8, 55%, 50%);" id="17"  d=" M  0,500  L  0,740  L  252.5,740  L  252.5,500  C  252.5,415.333  273.204,276  273.204,276  C  178.904,276  133.493,174.933  153.702,10.034  L  136.828,7.966  C  133.821,32.5  68.414,32.5  0,32.5  z " />
<path transform="translate( 0, 0 )" style="stroke: hsl(80.7, 55%, 50%);" id="25"  d=" M  0,500  L  0,740  L  252.5,740  L  252.5,500  C  252.5,415.333  273.204,276  273.204,276  C  181.086,276  136.995,175.095  157.176,10.46  L  133.354,7.54  C  130.295,32.5  66.677,32.5  0,32.5  z " />
<path transform="translate( 0, 0 )" style="stroke: hsl(107.6, 55%, 50%);" id="33"  d=" M  0,500  L  0,740  L  252.5,740  L  252.5,500  C  252.5,415.333  273.204,276  273.204,276  C  183.271,276  140.5,175.257  160.65,10.886  L  129.88,7.114  C  126.767,32.5  64.94,32.5  0,32.5  z " />
<path transform="translate( 0, 0 )" style="stroke: hsl(134.5, 55%, 50%);" id="41"  d=" M  0,500  L  0,740  L  252.5,740  L  252.5,500  C  252.5,415.333  273.204,276  273.204,276  C  185.455,276  144.005,175.418  164.124,11.312  L  126.406,6.688  C  123.241,32.5  63.203,32.5  0,32.5  z " />
<path transform="translate( 0, 0 )" style="stroke: hsl(161.4, 55%, 50%);" id="49"  d=" M  0,500  L  0,740  L  252.5,740  L  252.5,500  C  252.5,415.333  273.204,276  273.204,276  C  187.642,276  147.512,175.58  167.598,11.738  L  122.932,6.262  C  119.715,32.5  61.466,32.5  0,32.5  z " />
<path transform="translate( 0, 0 )" style="stroke: hsl(188.3, 55%, 50%);" id="57"  d=" M  0,500  L  0,740  L  252.5,740  L  252.5,500  C  252.5,415.333  273.204,276  273.204,276  C  189.83,276  151.02,175.742  171.072,12.163  L  119.458,5.836  C  116.19,32.5  59.729,32.5  0,32.5  z " />
<path transform="translate( 0, 0 )" style="stroke: hsl(215.2, 55%, 50%);" id="65"  d=" M  0,500  L  0,740  L  252.5,740  L  252.5,500  C  252.5,415.333  273.204,276  273.204,276  C  192.017,276  154.527,175.904  174.546,12.589  L  115.984,5.411  C  112.664,32.5  57.992,32.5  0,32.5  z " />
<path transform="translate( 0, 0 )" style="stroke: hsl(242.1, 55%, 50%);" id="73"  d=" M  0,500  L  0,740  L  252.5,740  L  252.5,500  C  252.5,415.333  273.204,276  273.204,276  C  194.204,276  158.034,176.066  178.02,13.015  L  112.51,4.985  C  109.138,32.5  56.255,32.5  0,32.5  z " />
<path transform="translate( 0, 0 )" style="stroke: hsl(269, 55%, 50%);" id="81"  d=" M  0,500  L  0,740  L  252.5,740  L  252.5,500  C  252.5,415.333  273.204,276  273.204,276  C  196.389,276  161.539,176.228  181.494,13.441  L  109.036,4.559  C  105.611,32.5  54.518,32.5  0,32.5  z " />
<path transform="translate( 0, 0 )" style="stroke: hsl(295.9, 55%, 50%);" id="89"  d=" M  0,500  L  0,740  L  252.5,740  L  252.5,500  C  252.5,415.333  273.204,276  273.204,276  C  198.575,276  165.046,176.389  184.968,13.867  L  105.562,4.133  C  102.085,32.5  52.781,32.5  0,32.5  z " />
    </g>
    <!-- End of group #back -->
    
    <!-- Start of group #sampler-front -->
    <g id="sampler-front" >
    </g>
    <!-- End of group #sampler-front -->
    
    <!-- Start of group #sampler-back -->
    <g id="sampler-back" >
    </g>
    <!-- End of group #sampler-back -->
</g>
<!-- End of group #patternContainer -->

</svg>

