<?xml version="1.0" encoding="UTF-8" standalone="no"?>
<svg
    width ="1813.3511828351"
    height ="2666.0303175082"
    viewbox ="0 0 1813.3511828351 2666.0303175082" xmlns:dc="http://purl.org/dc/elements/1.1/"
    xmlns:cc="http://creativecommons.org/ns#"
    xmlns:rdf="http://www.w3.org/1999/02/22-rdf-syntax-ns#"
    xmlns:svg="http://www.w3.org/2000/svg"
    xmlns="http://www.w3.org/2000/svg"
    xmlns:xlink="http://www.w3.org/1999/xlink"
    xmlns:sodipodi="http://sodipodi.sourceforge.net/DTD/sodipodi-0.dtd"
    xmlns:inkscape="http://www.inkscape.org/namespaces/inkscape" 
>

<style type="text/css">
    <![CDATA[
    path { fill: none; stroke: #000000; stroke-opacity:1; stroke-width: 0.5; stroke-miterlimit:4; stroke-dashoffset:0; stroke-linecap:round; stroke-linejoin:round; }
    path.hidden { fill: none; stroke: none; }]]>
</style>


<!-- Start of group #patternScaleContainer -->
<g id="patternScaleContainer"  transform=" scale(3.54330709 ) " >
    
    <!-- Start of group #frontBlock -->
    <g id="frontBlock"  transform=" translate(0 0)  translate(511.768 0) " >
    </g>
    <!-- End of group #frontBlock -->
    
    <!-- Start of group #backBlock -->
    <g id="backBlock"  transform=" translate(0 0)  translate(511.768 0) " >
    </g>
    <!-- End of group #backBlock -->
    
    <!-- Start of group #front -->
    <g id="front"  transform=" translate(5 7.413)  translate(255.884 0) " >
        <path class="hidden" id="2"  d=" M  0,-2.413  L  245.884,-2.413  L  245.884,740  L  0,740  z " />
<path transform="translate( 0, 0 )" style="stroke: hsl(26.9, 55%, 50%);" id="8"  d=" M  0,500  L  0,740  L  227.25,740  L  227.25,500  C  227.25,415.333  245.884,276  245.884,276  C  91.845,276  77.037,123.322  91.845,2.451  L  52.142,-2.413  C  34.695,140  34.695,140  0,140  z " />
<path transform="translate( 0, 0 )" style="stroke: hsl(53.8, 55%, 50%);" id="16"  d=" M  0,500  L  0,740  L  227.25,740  L  227.25,500  C  227.25,415.333  245.884,276  245.884,276  C  106.382,276  91.676,124.219  106.382,4.233  L  66.68,-0.633  C  49.444,140  49.444,140  0,140  z " />
<path transform="translate( 0, 0 )" style="stroke: hsl(80.7, 55%, 50%);" id="24"  d=" M  0,500  L  0,740  L  227.25,740  L  227.25,500  C  227.25,415.333  245.884,276  245.884,276  C  121.066,276  106.47,125.126  121.066,6.033  L  81.364,1.167  C  64.348,140  64.348,140  0,140  z " />
<path transform="translate( 0, 0 )" style="stroke: hsl(107.6, 55%, 50%);" id="32"  d=" M  0,500  L  0,740  L  227.25,740  L  227.25,500  C  227.25,415.333  245.884,276  245.884,276  C  135.749,276  121.262,126.033  135.749,7.833  L  96.047,2.967  C  79.252,140  79.252,140  0,140  z " />
<path transform="translate( 0, 0 )" style="stroke: hsl(134.5, 55%, 50%);" id="40"  d=" M  0,500  L  0,740  L  227.25,740  L  227.25,500  C  227.25,415.333  245.884,276  245.884,276  C  150.433,276  136.056,126.939  150.433,9.633  L  110.731,4.767  C  94.156,140  94.156,140  0,140  z " />
<path transform="translate( 0, 0 )" style="stroke: hsl(161.4, 55%, 50%);" id="48"  d=" M  0,500  L  0,740  L  227.25,740  L  227.25,500  C  227.25,415.333  245.884,276  245.884,276  C  165.117,276  150.849,127.846  165.117,11.433  L  125.415,6.567  C  109.061,140  109.061,140  0,140  z " />
<path transform="translate( 0, 0 )" style="stroke: hsl(188.3, 55%, 50%);" id="56"  d=" M  0,500  L  0,740  L  227.25,740  L  227.25,500  C  227.25,415.333  245.884,276  245.884,276  C  179.801,276  165.643,128.753  179.801,13.233  L  140.099,8.367  C  123.966,140  123.966,140  0,140  z " />
<path transform="translate( 0, 0 )" style="stroke: hsl(215.2, 55%, 50%);" id="64"  d=" M  0,500  L  0,740  L  227.25,740  L  227.25,500  C  227.25,415.333  245.884,276  245.884,276  C  194.484,276  180.435,129.659  194.484,15.033  L  154.782,10.167  C  138.869,140  138.869,140  0,140  z " />
<path transform="translate( 0, 0 )" style="stroke: hsl(242.1, 55%, 50%);" id="72"  d=" M  0,500  L  0,740  L  227.25,740  L  227.25,500  C  227.25,415.333  245.884,276  245.884,276  C  209.168,276  195.229,130.566  209.168,16.833  L  169.466,11.967  C  153.774,140  153.774,140  0,140  z " />
<path transform="translate( 0, 0 )" style="stroke: hsl(269, 55%, 50%);" id="80"  d=" M  0,500  L  0,740  L  227.25,740  L  227.25,500  C  227.25,415.333  245.884,276  245.884,276  C  223.852,276  210.022,131.473  223.852,18.633  L  184.15,13.767  C  168.678,140  168.678,140  0,140  z " />
<path transform="translate( 0, 0 )" style="stroke: hsl(295.9, 55%, 50%);" id="88"  d=" M  0,500  L  0,740  L  227.25,740  L  227.25,500  C  227.25,415.333  245.884,276  245.884,276  C  238.536,276  224.813,132.379  238.536,20.434  L  198.834,15.567  C  183.577,140  183.577,140  0,140  z " />
    </g>
    <!-- End of group #front -->
    
    <!-- Start of group #back -->
    <g id="back"  transform=" translate(5 7.413)  translate(0 0) " >
        <path class="hidden" id="3"  d=" M  0,-2.413  L  245.884,-2.413  L  245.884,740  L  0,740  z " />
<path transform="translate( 0, 0 )" style="stroke: hsl(26.9, 55%, 50%);" id="9"  d=" M  0,500  L  0,740  L  227.25,740  L  227.25,500  C  227.25,415.333  245.884,276  245.884,276  C  129.602,276  71.067,172.051  91.845,2.451  L  52.142,-2.413  C  47.865,32.5  26.071,32.5  0,32.5  z " />
<path transform="translate( 0, 0 )" style="stroke: hsl(53.8, 55%, 50%);" id="17"  d=" M  0,500  L  0,740  L  227.25,740  L  227.25,500  C  227.25,415.333  245.884,276  245.884,276  C  138.741,276  85.73,172.729  106.382,4.233  L  66.68,-0.633  C  62.619,32.5  33.34,32.5  0,32.5  z " />
<path transform="translate( 0, 0 )" style="stroke: hsl(80.7, 55%, 50%);" id="25"  d=" M  0,500  L  0,740  L  227.25,740  L  227.25,500  C  227.25,415.333  245.884,276  245.884,276  C  147.983,276  100.552,173.413  121.066,6.033  L  81.364,1.167  C  77.524,32.5  40.682,32.5  0,32.5  z " />
<path transform="translate( 0, 0 )" style="stroke: hsl(107.6, 55%, 50%);" id="33"  d=" M  0,500  L  0,740  L  227.25,740  L  227.25,500  C  227.25,415.333  245.884,276  245.884,276  C  157.223,276  115.371,174.097  135.749,7.833  L  96.047,2.967  C  92.427,32.5  48.024,32.5  0,32.5  z " />
<path transform="translate( 0, 0 )" style="stroke: hsl(134.5, 55%, 50%);" id="41"  d=" M  0,500  L  0,740  L  227.25,740  L  227.25,500  C  227.25,415.333  245.884,276  245.884,276  C  166.464,276  130.192,174.781  150.433,9.633  L  110.731,4.767  C  107.332,32.5  55.366,32.5  0,32.5  z " />
<path transform="translate( 0, 0 )" style="stroke: hsl(161.4, 55%, 50%);" id="49"  d=" M  0,500  L  0,740  L  227.25,740  L  227.25,500  C  227.25,415.333  245.884,276  245.884,276  C  175.704,276  145.013,175.465  165.117,11.433  L  125.415,6.567  C  122.237,32.5  62.708,32.5  0,32.5  z " />
<path transform="translate( 0, 0 )" style="stroke: hsl(188.3, 55%, 50%);" id="57"  d=" M  0,500  L  0,740  L  227.25,740  L  227.25,500  C  227.25,415.333  245.884,276  245.884,276  C  184.946,276  159.835,176.149  179.801,13.233  L  140.099,8.367  C  137.141,32.5  70.05,32.5  0,32.5  z " />
<path transform="translate( 0, 0 )" style="stroke: hsl(215.2, 55%, 50%);" id="65"  d=" M  0,500  L  0,740  L  227.25,740  L  227.25,500  C  227.25,415.333  245.884,276  245.884,276  C  194.185,276  174.653,176.833  194.484,15.033  L  154.782,10.167  C  152.045,32.5  77.391,32.5  0,32.5  z " />
<path transform="translate( 0, 0 )" style="stroke: hsl(242.1, 55%, 50%);" id="73"  d=" M  0,500  L  0,740  L  227.25,740  L  227.25,500  C  227.25,415.333  245.884,276  245.884,276  C  203.427,276  189.475,177.517  209.168,16.833  L  169.466,11.967  C  166.949,32.5  84.733,32.5  0,32.5  z " />
<path transform="translate( 0, 0 )" style="stroke: hsl(269, 55%, 50%);" id="81"  d=" M  0,500  L  0,740  L  227.25,740  L  227.25,500  C  227.25,415.333  245.884,276  245.884,276  C  212.667,276  204.295,178.201  223.852,18.633  L  184.15,13.767  C  181.854,32.5  92.075,32.5  0,32.5  z " />
<path transform="translate( 0, 0 )" style="stroke: hsl(295.9, 55%, 50%);" id="89"  d=" M  0,500  L  0,740  L  227.25,740  L  227.25,500  C  227.25,415.333  245.884,276  245.884,276  C  221.904,276  219.112,178.885  238.536,20.434  L  198.834,15.567  C  196.758,32.5  99.417,32.5  0,32.5  z " />
    </g>
    <!-- End of group #back -->
    
    <!-- Start of group #sampler-front -->
    <g id="sampler-front"  transform=" translate(0 0)  translate(511.768 0) " >
    </g>
    <!-- End of group #sampler-front -->
    
    <!-- Start of group #sampler-back -->
    <g id="sampler-back"  transform=" translate(0 0)  translate(511.768 0) " >
    </g>
    <!-- End of group #sampler-back -->
</g>
<!-- End of group #patternScaleContainer -->

</svg>

