<?xml version="1.0" encoding="UTF-8" standalone="no"?>
<!-- Created with Inkscape (http://www.inkscape.org/) -->

<svg
   xmlns:dc="http://purl.org/dc/elements/1.1/"
   xmlns:cc="http://creativecommons.org/ns#"
   xmlns:rdf="http://www.w3.org/1999/02/22-rdf-syntax-ns#"
   xmlns:svg="http://www.w3.org/2000/svg"
   xmlns="http://www.w3.org/2000/svg"
   xmlns:sodipodi="http://sodipodi.sourceforge.net/DTD/sodipodi-0.dtd"
   xmlns:inkscape="http://www.inkscape.org/namespaces/inkscape"
   width="998.401"
   height="886.374"
   id="svg2"
   version="1.1"
   inkscape:version="0.47 r22583"
   sodipodi:docname="armholedepthfactor.svg">
  <defs
     id="defs4">
    <marker
       inkscape:stockid="Arrow1MstartQR"
       orient="auto"
       refY="0"
       refX="0"
       id="Arrow1MstartQR"
       style="overflow:visible">
      <path
         id="path5084"
         d="M 0,0 5,-5 -12.5,0 5,5 0,0 z"
         style="fill:#ff5b77;fill-rule:evenodd;stroke:#ff5b77;stroke-width:1pt;marker-start:none"
         transform="matrix(0.4,0,0,0.4,4,0)" />
    </marker>
    <marker
       style="overflow:visible"
       id="Arrow1Mend3"
       refX="0"
       refY="0"
       orient="auto"
       inkscape:stockid="Arrow1Mend3">
      <path
         transform="matrix(-0.4,0,0,-0.4,-4,0)"
         style="fill:#ff5b77;fill-rule:evenodd;stroke:#ff5b77;stroke-width:1pt;marker-start:none"
         d="M 0,0 5,-5 -12.5,0 5,5 0,0 z"
         id="path5087" />
    </marker>
    <inkscape:perspective
       id="perspective4716"
       inkscape:persp3d-origin="0.5 : 0.333333 : 1"
       inkscape:vp_z="1 : 0.5 : 1"
       inkscape:vp_y="0 : 1000 : 0"
       inkscape:vp_x="0 : 0.5 : 1"
       sodipodi:type="inkscape:persp3d" />
    <marker
       style="overflow:visible"
       id="Arrow1Sstart6"
       refX="0"
       refY="0"
       orient="auto"
       inkscape:stockid="Arrow1Sstart6">
      <path
         transform="matrix(0.2,0,0,0.2,1.2,0)"
         style="fill:#ff5b77;fill-rule:evenodd;stroke:#ff5b77;stroke-width:1pt;marker-start:none"
         d="M 0,0 5,-5 -12.5,0 5,5 0,0 z"
         id="path8850" />
    </marker>
    <marker
       style="overflow:visible"
       id="Arrow1SendT"
       refX="0"
       refY="0"
       orient="auto"
       inkscape:stockid="Arrow1SendT">
      <path
         transform="matrix(-0.2,0,0,-0.2,-1.2,0)"
         style="fill:#ff5b77;fill-rule:evenodd;stroke:#ff5b77;stroke-width:1pt;marker-start:none"
         d="M 0,0 5,-5 -12.5,0 5,5 0,0 z"
         id="path8853" />
    </marker>
    <inkscape:perspective
       id="perspective5442"
       inkscape:persp3d-origin="0.5 : 0.333333 : 1"
       inkscape:vp_z="1 : 0.5 : 1"
       inkscape:vp_y="0 : 1000 : 0"
       inkscape:vp_x="0 : 0.5 : 1"
       sodipodi:type="inkscape:persp3d" />
  </defs>
  <sodipodi:namedview
     id="base"
     pagecolor="#ffffff"
     bordercolor="#666666"
     borderopacity="1.0"
     inkscape:pageopacity="0.0"
     inkscape:pageshadow="2"
     inkscape:zoom="0.7"
     inkscape:cx="170.961"
     inkscape:cy="725.528"
     inkscape:document-units="px"
     inkscape:current-layer="layer1"
     showgrid="false"
     inkscape:window-width="1832"
     inkscape:window-height="1057"
     inkscape:window-x="-8"
     inkscape:window-y="-8"
     inkscape:window-maximized="0" />
  <metadata
     id="metadata7">
    <rdf:RDF>
      <cc:Work
         rdf:about="">
        <dc:format>image/svg+xml</dc:format>
        <dc:type
           rdf:resource="http://purl.org/dc/dcmitype/StillImage" />
        <dc:title></dc:title>
      </cc:Work>
    </rdf:RDF>
  </metadata>
  <g
     inkscape:label="Layer 1"
     inkscape:groupmode="layer"
     id="layer1"
     transform="translate(-27.7797,276.938)">
    <g
       id="g5259">
      <g
         transform="matrix(2.40693,0,0,2.40693,-37.8682,-857.427)"
         id="g3783">
        <g
           id="g3854">
          <rect
             y="259.046"
             x="98.2143"
             height="349.388"
             width="58.5714"
             id="rect3781"
             style="fill:#8e8e8e;fill-opacity:1;stroke:none" />
          <path
             style="fill:#212121;fill-opacity:1;stroke:#545454;stroke-width:1.5;stroke-linecap:square;stroke-linejoin:round;stroke-miterlimit:4;stroke-opacity:1;stroke-dasharray:none;stroke-dashoffset:0"
             d="M 100.471,262.005 68.1093,270.576 C 71.5623,293.029 70.3543,311.442 66.6803,327.719 69.1843,353.334 70.4243,380.208 70.0393,408.255 69.6363,437.562 65.9853,467.569 64.8403,497.882 63.4403,534.941 64.5473,572.368 64.5373,608.434 L 126.186,608.434 126.186,375.219 C 117.532,337.533 100.722,304.998 100.471,262.005 z"
             id="path3852"
             sodipodi:nodetypes="cccsscccc" />
          <path
             sodipodi:nodetypes="cccsscccc"
             id="path2913"
             d="M 158.929,262.005 191.291,270.576 C 187.838,293.029 189.046,311.442 192.72,327.719 190.216,353.334 188.976,380.208 189.361,408.255 189.764,437.562 193.415,467.569 194.56,497.882 195.96,534.941 194.853,572.368 194.863,608.434 L 133.214,608.434 133.214,375.219 C 141.868,337.533 158.678,304.998 158.929,262.005 z"
             style="fill:#212121;fill-opacity:1;stroke:#545454;stroke-width:1.5;stroke-linecap:square;stroke-linejoin:round;stroke-miterlimit:4;stroke-opacity:1;stroke-dasharray:none;stroke-dashoffset:0" />
          <path
             sodipodi:nodetypes="csccccc"
             id="path3687"
             d="M 191.618,270.576 C 215.705,269.755 215.197,294.625 217.689,306.826 226.685,350.865 226.127,386.554 228.76,428.255 L 196.439,429.862 190.368,378.791 C 190.387,361.148 190.847,343.769 193.225,327.541 188.088,308.107 189.487,289.306 191.618,270.576 z"
             style="fill:#212121;stroke:#545454;stroke-width:1.5;stroke-linecap:square;stroke-linejoin:round;stroke-miterlimit:4;stroke-opacity:1;stroke-dasharray:none;stroke-dashoffset:0" />
          <path
             style="fill:none;stroke:#545454;stroke-width:1.5;stroke-linecap:square;stroke-linejoin:round;stroke-miterlimit:4;stroke-opacity:1;stroke-dasharray:none;stroke-dashoffset:0"
             d="M 162.178,426.29 C 162.178,426.876 162.153,466.017 162.153,466.739 162.153,474.553 166.554,479.968 173.364,479.968 L 191.918,479.951"
             id="path3712"
             sodipodi:nodetypes="cscc" />
          <path
             sodipodi:nodetypes="cccc"
             id="path3710"
             d="M 188.553,422.005 162.178,422.005 C 162.178,431.036 160.482,442.027 168.364,442.022 L 189.774,442.005"
             style="fill:#212121;stroke:#545454;stroke-width:1.5;stroke-linecap:square;stroke-linejoin:round;stroke-miterlimit:4;stroke-opacity:1;stroke-dasharray:none;stroke-dashoffset:0" />
          <path
             id="path3716"
             d="M 137.5,378.969 143.125,378.969"
             style="fill:none;stroke:#545454;stroke-width:1.5;stroke-linecap:square;stroke-linejoin:round;stroke-miterlimit:4;stroke-opacity:1;stroke-dasharray:none;stroke-dashoffset:0" />
          <path
             style="fill:none;stroke:#545454;stroke-width:1.5;stroke-linecap:square;stroke-linejoin:round;stroke-miterlimit:4;stroke-opacity:1;stroke-dasharray:none;stroke-dashoffset:0"
             d="M 137.5,402.987 143.125,402.987"
             id="path3718" />
          <path
             id="path3720"
             d="M 137.5,427.183 143.125,427.183"
             style="fill:none;stroke:#545454;stroke-width:1.5;stroke-linecap:square;stroke-linejoin:round;stroke-miterlimit:4;stroke-opacity:1;stroke-dasharray:none;stroke-dashoffset:0" />
          <path
             sodipodi:nodetypes="cccccc"
             id="path3722"
             d="M 198.64,452.898 231.051,452.094 231.855,432.63 C 232.143,427.499 229.988,426.185 224.801,426.737 L 195.873,427.898 198.64,452.898 z"
             style="fill:#212121;stroke:#545454;stroke-width:1.5;stroke-linecap:square;stroke-linejoin:round;stroke-miterlimit:4;stroke-opacity:1;stroke-dasharray:none;stroke-dashoffset:0" />
          <path
             style="fill:#212121;stroke:#545454;stroke-width:1.5;stroke-linecap:square;stroke-linejoin:round;stroke-miterlimit:4;stroke-opacity:1;stroke-dasharray:none;stroke-dashoffset:0"
             d="M 67.7819,270.576 C 43.6949,269.755 44.2029,294.625 41.7109,306.826 32.7149,350.865 33.2729,386.554 30.6399,428.255 L 62.9609,429.862 69.0319,378.791 C 69.0129,361.148 68.5529,343.769 66.1749,327.541 71.3119,308.107 69.9129,289.306 67.7819,270.576 z"
             id="path3742"
             sodipodi:nodetypes="csccccc" />
          <path
             sodipodi:nodetypes="cscc"
             id="path3744"
             d="M 93.686,426.29 C 93.686,426.876 93.711,466.017 93.711,466.739 93.711,474.553 89.31,479.968 82.5,479.968 L 66.8107,479.951"
             style="fill:none;stroke:#545454;stroke-width:1.5;stroke-linecap:square;stroke-linejoin:round;stroke-miterlimit:4;stroke-opacity:1;stroke-dasharray:none;stroke-dashoffset:0" />
          <path
             style="fill:#212121;stroke:#545454;stroke-width:1.5;stroke-linecap:square;stroke-linejoin:round;stroke-miterlimit:4;stroke-opacity:1;stroke-dasharray:none;stroke-dashoffset:0"
             d="M 70.65,422.005 93.686,422.005 C 93.686,431.036 95.382,442.027 87.5,442.022 L 69.6671,442.005"
             id="path3746"
             sodipodi:nodetypes="cccc" />
          <path
             style="fill:none;stroke:#545454;stroke-width:1.5;stroke-linecap:square;stroke-linejoin:round;stroke-miterlimit:4;stroke-opacity:1;stroke-dasharray:none;stroke-dashoffset:0"
             d="M 121.9,378.969 116.275,378.969"
             id="path3750" />
          <path
             id="path3752"
             d="M 121.9,402.987 116.275,402.987"
             style="fill:none;stroke:#545454;stroke-width:1.5;stroke-linecap:square;stroke-linejoin:round;stroke-miterlimit:4;stroke-opacity:1;stroke-dasharray:none;stroke-dashoffset:0" />
          <path
             style="fill:none;stroke:#545454;stroke-width:1.5;stroke-linecap:square;stroke-linejoin:round;stroke-miterlimit:4;stroke-opacity:1;stroke-dasharray:none;stroke-dashoffset:0"
             d="M 121.9,427.183 116.275,427.183"
             id="path3754" />
          <path
             style="fill:#212121;stroke:#545454;stroke-width:1.5;stroke-linecap:square;stroke-linejoin:round;stroke-miterlimit:4;stroke-opacity:1;stroke-dasharray:none;stroke-dashoffset:0"
             d="M 61.2649,452.898 28.8539,452.094 28.0499,432.63 C 27.7619,427.499 29.9169,426.185 35.1039,426.737 L 64.0319,427.898 61.2649,452.898 z"
             id="path3756"
             sodipodi:nodetypes="cccccc" />
          <path
             id="path3724"
             d="M 124.094,241.924 124.094,242.331 C 82.5299,245.315 82.3399,275.772 81.1875,286.281 L 101,288.438 81.5312,297.906 126.375,380.219 C 125.882,365.518 124.429,348.552 106.188,291.812 101.273,276.977 111.559,262.637 129.688,262.299 147.835,262.633 158.137,276.968 153.219,291.812 134.977,348.552 133.524,365.518 133.031,380.219 L 177.844,297.906 158.406,288.438 178.219,286.281 C 177.066,275.771 176.865,245.279 135.281,242.299 L 135.281,241.924 C 133.334,241.924 131.494,241.959 129.688,242.018 127.891,241.959 126.029,241.924 124.094,241.924 z"
             style="fill:#212121;stroke:#545454;stroke-width:1.5;stroke-linecap:square;stroke-linejoin:round;stroke-miterlimit:4;stroke-opacity:1;stroke-dasharray:none;stroke-dashoffset:0"
             sodipodi:nodetypes="ccccccccccccccccc" />
        </g>
      </g>
      <g
         transform="matrix(2.40693,0,0,2.40693,-39.0839,-857.427)"
         id="g4107">
        <rect
           transform="translate(0.5051,0)"
           style="fill:none;stroke:#545454;stroke-width:1.5;stroke-linecap:square;stroke-linejoin:round;stroke-miterlimit:4;stroke-opacity:1;stroke-dasharray:none;stroke-dashoffset:0"
           id="rect3714"
           width="10.2679"
           height="43.9286"
           x="158.121"
           y="369.34" />
        <path
           style="fill:none;stroke:#545454;stroke-width:1.5;stroke-linecap:square;stroke-linejoin:round;stroke-miterlimit:4;stroke-opacity:1;stroke-dasharray:none;stroke-dashoffset:0"
           d="M 163.14,84.8789 C 138.212,99.6844 130.31,117.326 130.31,146.96 L 130.31,376.308"
           id="path4104"
           transform="translate(27.7796,232.375)"
           sodipodi:nodetypes="ccc" />
      </g>
      <g
         transform="matrix(-2.40693,0,0,2.40693,586.996,-857.427)"
         id="g4111">
        <rect
           y="369.34"
           x="158.121"
           height="43.9286"
           width="10.2679"
           id="rect4113"
           style="fill:none;stroke:#545454;stroke-width:1.5;stroke-linecap:square;stroke-linejoin:round;stroke-miterlimit:4;stroke-opacity:1;stroke-dasharray:none;stroke-dashoffset:0"
           transform="translate(0.5051,0)" />
        <path
           sodipodi:nodetypes="ccc"
           transform="translate(27.7796,232.375)"
           id="path4115"
           d="M 163.14,84.8789 C 138.212,99.6844 130.31,117.326 130.31,146.96 L 130.31,376.308"
           style="fill:none;stroke:#545454;stroke-width:1.5;stroke-linecap:square;stroke-linejoin:round;stroke-miterlimit:4;stroke-opacity:1;stroke-dasharray:none;stroke-dashoffset:0" />
      </g>
    </g>
    <g
       id="g5362"
       transform="translate(501.429,0)">
      <g
         id="g5364"
         transform="matrix(2.40693,0,0,2.40693,-37.8682,-857.427)">
        <g
           id="g5366">
          <rect
             style="fill:#8e8e8e;fill-opacity:1;stroke:none"
             id="rect5368"
             width="58.5714"
             height="349.388"
             x="98.2143"
             y="259.046" />
          <path
             sodipodi:nodetypes="cccsscccc"
             id="path5370"
             d="M 100.471,262.005 68.1093,270.576 C 71.5623,293.029 70.3543,311.442 66.6803,327.719 69.1843,353.334 70.4243,380.208 70.0393,408.255 69.6363,437.562 65.9853,467.569 64.8403,497.882 63.4403,534.941 64.5473,572.368 64.5373,608.434 L 126.186,608.434 126.186,375.219 C 117.532,337.533 100.722,304.998 100.471,262.005 z"
             style="fill:#212121;fill-opacity:1;stroke:#545454;stroke-width:1.5;stroke-linecap:square;stroke-linejoin:round;stroke-miterlimit:4;stroke-opacity:1;stroke-dasharray:none;stroke-dashoffset:0" />
          <path
             style="fill:#212121;fill-opacity:1;stroke:#545454;stroke-width:1.5;stroke-linecap:square;stroke-linejoin:round;stroke-miterlimit:4;stroke-opacity:1;stroke-dasharray:none;stroke-dashoffset:0"
             d="M 158.929,262.005 191.291,270.576 C 187.838,293.029 189.046,311.442 192.72,327.719 190.216,353.334 188.976,380.208 189.361,408.255 189.764,437.562 193.415,467.569 194.56,497.882 195.96,534.941 194.853,572.368 194.863,608.434 L 133.214,608.434 133.214,375.219 C 141.868,337.533 158.678,304.998 158.929,262.005 z"
             id="path5372"
             sodipodi:nodetypes="cccsscccc" />
          <path
             style="fill:#212121;stroke:#545454;stroke-width:1.5;stroke-linecap:square;stroke-linejoin:round;stroke-miterlimit:4;stroke-opacity:1;stroke-dasharray:none;stroke-dashoffset:0"
             d="M 191.618,270.576 C 194.888,265.502 200.87,271.418 204.054,273.249 215.625,279.9 215.735,297.258 217.689,306.826 226.685,350.865 226.127,386.554 228.76,428.255 L 196.439,429.862 190.368,378.791 C 190.387,361.148 190.847,343.769 193.225,327.541 188.088,308.107 189.487,289.306 191.618,270.576 z"
             id="path5374"
             sodipodi:nodetypes="cssccccc" />
          <path
             sodipodi:nodetypes="cscc"
             id="path5376"
             d="M 162.178,426.29 C 162.178,426.876 162.153,466.017 162.153,466.739 162.153,474.553 166.554,479.968 173.364,479.968 L 191.918,479.951"
             style="fill:none;stroke:#545454;stroke-width:1.5;stroke-linecap:square;stroke-linejoin:round;stroke-miterlimit:4;stroke-opacity:1;stroke-dasharray:none;stroke-dashoffset:0" />
          <path
             style="fill:#212121;stroke:#545454;stroke-width:1.5;stroke-linecap:square;stroke-linejoin:round;stroke-miterlimit:4;stroke-opacity:1;stroke-dasharray:none;stroke-dashoffset:0"
             d="M 188.553,422.005 162.178,422.005 C 162.178,431.036 160.482,442.027 168.364,442.022 L 189.774,442.005"
             id="path5378"
             sodipodi:nodetypes="cccc" />
          <path
             style="fill:none;stroke:#545454;stroke-width:1.5;stroke-linecap:square;stroke-linejoin:round;stroke-miterlimit:4;stroke-opacity:1;stroke-dasharray:none;stroke-dashoffset:0"
             d="M 137.5,378.969 143.125,378.969"
             id="path5380" />
          <path
             id="path5382"
             d="M 137.5,402.987 143.125,402.987"
             style="fill:none;stroke:#545454;stroke-width:1.5;stroke-linecap:square;stroke-linejoin:round;stroke-miterlimit:4;stroke-opacity:1;stroke-dasharray:none;stroke-dashoffset:0" />
          <path
             style="fill:none;stroke:#545454;stroke-width:1.5;stroke-linecap:square;stroke-linejoin:round;stroke-miterlimit:4;stroke-opacity:1;stroke-dasharray:none;stroke-dashoffset:0"
             d="M 137.5,427.183 143.125,427.183"
             id="path5384" />
          <path
             style="fill:#212121;stroke:#545454;stroke-width:1.5;stroke-linecap:square;stroke-linejoin:round;stroke-miterlimit:4;stroke-opacity:1;stroke-dasharray:none;stroke-dashoffset:0"
             d="M 198.64,452.898 231.051,452.094 231.855,432.63 C 232.143,427.499 229.988,426.185 224.801,426.737 L 195.873,427.898 198.64,452.898 z"
             id="path5386"
             sodipodi:nodetypes="cccccc" />
          <path
             sodipodi:nodetypes="cssccccc"
             id="path5388"
             d="M 67.7819,270.576 C 66.6107,265.432 55.5034,272.412 51.9569,275.778 43.7288,283.587 43.4525,298.3 41.7109,306.826 32.7151,350.865 33.2729,386.554 30.6399,428.255 L 62.9609,429.862 69.0319,378.791 C 69.0129,361.148 68.5529,343.769 66.1749,327.541 71.3119,308.107 69.9129,289.306 67.7819,270.576 z"
             style="fill:#212121;stroke:#545454;stroke-width:1.5;stroke-linecap:square;stroke-linejoin:round;stroke-miterlimit:4;stroke-opacity:1;stroke-dasharray:none;stroke-dashoffset:0" />
          <path
             style="fill:none;stroke:#545454;stroke-width:1.5;stroke-linecap:square;stroke-linejoin:round;stroke-miterlimit:4;stroke-opacity:1;stroke-dasharray:none;stroke-dashoffset:0"
             d="M 93.686,426.29 C 93.686,426.876 93.711,466.017 93.711,466.739 93.711,474.553 89.31,479.968 82.5,479.968 L 66.8107,479.951"
             id="path5390"
             sodipodi:nodetypes="cscc" />
          <path
             sodipodi:nodetypes="cccc"
             id="path5392"
             d="M 70.65,422.005 93.686,422.005 C 93.686,431.036 95.382,442.027 87.5,442.022 L 69.6671,442.005"
             style="fill:#212121;stroke:#545454;stroke-width:1.5;stroke-linecap:square;stroke-linejoin:round;stroke-miterlimit:4;stroke-opacity:1;stroke-dasharray:none;stroke-dashoffset:0" />
          <path
             id="path5394"
             d="M 121.9,378.969 116.275,378.969"
             style="fill:none;stroke:#545454;stroke-width:1.5;stroke-linecap:square;stroke-linejoin:round;stroke-miterlimit:4;stroke-opacity:1;stroke-dasharray:none;stroke-dashoffset:0" />
          <path
             style="fill:none;stroke:#545454;stroke-width:1.5;stroke-linecap:square;stroke-linejoin:round;stroke-miterlimit:4;stroke-opacity:1;stroke-dasharray:none;stroke-dashoffset:0"
             d="M 121.9,402.987 116.275,402.987"
             id="path5396" />
          <path
             id="path5398"
             d="M 121.9,427.183 116.275,427.183"
             style="fill:none;stroke:#545454;stroke-width:1.5;stroke-linecap:square;stroke-linejoin:round;stroke-miterlimit:4;stroke-opacity:1;stroke-dasharray:none;stroke-dashoffset:0" />
          <path
             sodipodi:nodetypes="cccccc"
             id="path5400"
             d="M 61.2649,452.898 28.8539,452.094 28.0499,432.63 C 27.7619,427.499 29.9169,426.185 35.1039,426.737 L 64.0319,427.898 61.2649,452.898 z"
             style="fill:#212121;stroke:#545454;stroke-width:1.5;stroke-linecap:square;stroke-linejoin:round;stroke-miterlimit:4;stroke-opacity:1;stroke-dasharray:none;stroke-dashoffset:0" />
          <path
             sodipodi:nodetypes="ccccccccccccccccc"
             style="fill:#212121;stroke:#545454;stroke-width:1.5;stroke-linecap:square;stroke-linejoin:round;stroke-miterlimit:4;stroke-opacity:1;stroke-dasharray:none;stroke-dashoffset:0"
             d="M 124.094,241.924 124.094,242.331 C 82.5299,245.315 82.3399,275.772 81.1875,286.281 L 101,288.438 81.5312,297.906 126.375,380.219 C 125.882,365.518 124.429,348.552 106.188,291.812 101.273,276.977 111.559,262.637 129.688,262.299 147.835,262.633 158.137,276.968 153.219,291.812 134.977,348.552 133.524,365.518 133.031,380.219 L 177.844,297.906 158.406,288.438 178.219,286.281 C 177.066,275.771 176.865,245.279 135.281,242.299 L 135.281,241.924 C 133.334,241.924 131.494,241.959 129.688,242.018 127.891,241.959 126.029,241.924 124.094,241.924 z"
             id="path5402" />
        </g>
      </g>
      <g
         id="g5404"
         transform="matrix(2.40693,0,0,2.40693,-39.0839,-857.427)">
        <rect
           y="369.34"
           x="158.121"
           height="43.9286"
           width="10.2679"
           id="rect5406"
           style="fill:none;stroke:#545454;stroke-width:1.5;stroke-linecap:square;stroke-linejoin:round;stroke-miterlimit:4;stroke-opacity:1;stroke-dasharray:none;stroke-dashoffset:0"
           transform="translate(0.5051,0)" />
        <path
           sodipodi:nodetypes="ccc"
           transform="translate(27.7796,232.375)"
           id="path5408"
           d="M 163.14,84.8789 C 138.212,99.6844 130.31,117.326 130.31,146.96 L 130.31,376.308"
           style="fill:none;stroke:#545454;stroke-width:1.5;stroke-linecap:square;stroke-linejoin:round;stroke-miterlimit:4;stroke-opacity:1;stroke-dasharray:none;stroke-dashoffset:0" />
      </g>
      <g
         id="g5410"
         transform="matrix(-2.40693,0,0,2.40693,586.996,-857.427)">
        <rect
           transform="translate(0.5051,0)"
           style="fill:none;stroke:#545454;stroke-width:1.5;stroke-linecap:square;stroke-linejoin:round;stroke-miterlimit:4;stroke-opacity:1;stroke-dasharray:none;stroke-dashoffset:0"
           id="rect5412"
           width="10.2679"
           height="43.9286"
           x="158.121"
           y="369.34" />
        <path
           style="fill:none;stroke:#545454;stroke-width:1.5;stroke-linecap:square;stroke-linejoin:round;stroke-miterlimit:4;stroke-opacity:1;stroke-dasharray:none;stroke-dashoffset:0"
           d="M 163.14,84.8789 C 138.212,99.6844 130.31,117.326 130.31,146.96 L 130.31,376.308"
           id="path5414"
           transform="translate(27.7796,232.375)"
           sodipodi:nodetypes="ccc" />
      </g>
    </g>
    <path
       style="fill:none;stroke:#ff5b77;stroke-width:2.440242;stroke-linecap:square;stroke-linejoin:round;stroke-miterlimit:4;stroke-opacity:1;stroke-dashoffset:0"
       d="M 591.174,-203.383 C 591.174,-222.636 598.648,-238.244 617.904,-238.244 637.154,-238.244 651.604,-227.284 651.604,-208.031 651.604,-188.779 637.154,-172.009 617.904,-172.009 603.644,-172.009 590.827,-180.687 585.533,-193.923"
       id="path9144"
       sodipodi:nodetypes="csssc" />
    <path
       sodipodi:nodetypes="csssc"
       id="path9147"
       d="M 403.382,-217.472 C 412.145,-234.615 425.904,-245.111 443.049,-236.346 460.19,-227.585 468.068,-211.249 459.305,-194.106 450.542,-176.963 430.043,-168.608 412.902,-177.37 400.206,-183.86 392.742,-197.421 394.053,-211.616"
       style="fill:none;stroke:#ff5b77;stroke-width:2.440242;stroke-linecap:square;stroke-linejoin:round;stroke-miterlimit:4;stroke-opacity:1;stroke-dashoffset:0" />
  </g>
</svg>
