<?xml version="1.0" encoding="UTF-8" standalone="no"?>
<svg
    xmlns="http://www.w3.org/2000/svg"
    xmlns:svg="http://www.w3.org/2000/svg"
    xmlns:xlink="http://www.w3.org/1999/xlink"
    xmlns:freesewing="http://freesewing.org/namespaces/freesewing" viewBox ="0 0 1635 1186"
    width ="1635mm"
    height ="1186mm"
    freesewing:version ="1.6.0"
    freesewing:origin ="joost.core.freesewing.org" 
>

<style type="text/css">
    <![CDATA[
    path { fill: none; stroke: #000000; stroke-opacity:1; stroke-width: 0.5; stroke-miterlimit:4; stroke-dashoffset:0; stroke-linecap:round; stroke-linejoin:round; }
    path.hidden { fill: none; stroke: none; }]]>
</style>


<!-- Start of group #patternContainer -->
<g id="patternContainer" >
    
    <!-- Start of group #backBlock -->
    <g id="backBlock" >
    </g>
    <!-- End of group #backBlock -->
    
    <!-- Start of group #frontBlock -->
    <g id="frontBlock" >
    </g>
    <!-- End of group #frontBlock -->
    
    <!-- Start of group #sleeveBlock -->
    <g id="sleeveBlock" >
    </g>
    <!-- End of group #sleeveBlock -->
    
    <!-- Start of group #topsleeveBlock -->
    <g id="topsleeveBlock" >
    </g>
    <!-- End of group #topsleeveBlock -->
    
    <!-- Start of group #undersleeveBlock -->
    <g id="undersleeveBlock" >
    </g>
    <!-- End of group #undersleeveBlock -->
    
    <!-- Start of group #front -->
    <g id="front" >
    </g>
    <!-- End of group #front -->
    
    <!-- Start of group #frontPs -->
    <g id="frontPs" >
    </g>
    <!-- End of group #frontPs -->
    
    <!-- Start of group #frontPanel -->
    <g id="frontPanel"  transform=" translate(76.113 5)  translate(0 0) " >
        <path class="hidden" id="2"  d=" M  -71.113,0  L  217.5,0  L  217.5,1175.9  L  -71.113,1175.9  z " />
<path transform="translate( 0, 0 )" style="stroke: hsl(26.9, 55%, 50%);" id="268"  d=" M  -67.103,87  C  -67.103,87  -71.113,127.1  -71.113,287.5  L  -71.113,1175.9  L  96.087,1175.9  L  96.087,285  C  96.087,230.593  163.922,185.816  212.5,153.75  C  212.5,109.167  216.116,29.904  217.5,20  L  74.38,0  C  71.612,19.808  74.38,87  0,87  L  -67.103,87  z " />
<path transform="translate( 0, 0 )" style="stroke: hsl(53.8, 55%, 50%);" id="548"  d=" M  -67.103,87  C  -67.103,87  -71.113,127.1  -71.113,287.5  L  -71.113,1175.9  L  96.087,1175.9  L  96.087,285  C  96.087,230.593  163.922,185.816  212.5,153.75  C  212.5,109.167  216.116,29.904  217.5,20  L  74.38,0  C  71.612,19.808  74.38,87  0,87  L  -67.103,87  z " />
<path transform="translate( 0, 0 )" style="stroke: hsl(80.7, 55%, 50%);" id="828"  d=" M  -67.103,87  C  -67.103,87  -71.113,127.1  -71.113,287.5  L  -71.113,1175.9  L  96.087,1175.9  L  96.087,285  C  96.087,230.593  163.922,185.816  212.5,153.75  C  212.5,109.167  216.116,29.904  217.5,20  L  74.38,0  C  71.612,19.808  74.38,87  0,87  L  -67.103,87  z " />
<path transform="translate( 0, 0 )" style="stroke: hsl(107.6, 55%, 50%);" id="1108"  d=" M  -67.103,87  C  -67.103,87  -71.113,127.1  -71.113,287.5  L  -71.113,1175.9  L  96.087,1175.9  L  96.087,285  C  96.087,230.593  163.922,185.816  212.5,153.75  C  212.5,109.167  216.116,29.904  217.5,20  L  74.38,0  C  71.612,19.808  74.38,87  0,87  L  -67.103,87  z " />
<path transform="translate( 0, 0 )" style="stroke: hsl(134.5, 55%, 50%);" id="1388"  d=" M  -67.103,87  C  -67.103,87  -71.113,127.1  -71.113,287.5  L  -71.113,1175.9  L  96.087,1175.9  L  96.087,285  C  96.087,230.593  163.922,185.816  212.5,153.75  C  212.5,109.167  216.116,29.904  217.5,20  L  74.38,0  C  71.612,19.808  74.38,87  0,87  L  -67.103,87  z " />
<path transform="translate( 0, 0 )" style="stroke: hsl(161.4, 55%, 50%);" id="1668"  d=" M  -67.103,87  C  -67.103,87  -71.113,127.1  -71.113,287.5  L  -71.113,1175.9  L  96.087,1175.9  L  96.087,285  C  96.087,230.593  163.922,185.816  212.5,153.75  C  212.5,109.167  216.116,29.904  217.5,20  L  74.38,0  C  71.612,19.808  74.38,87  0,87  L  -67.103,87  z " />
<path transform="translate( 0, 0 )" style="stroke: hsl(188.3, 55%, 50%);" id="1948"  d=" M  -67.103,87  C  -67.103,87  -71.113,127.1  -71.113,287.5  L  -71.113,1175.9  L  96.087,1175.9  L  96.087,285  C  96.087,230.593  163.922,185.816  212.5,153.75  C  212.5,109.167  216.116,29.904  217.5,20  L  74.38,0  C  71.612,19.808  74.38,87  0,87  L  -67.103,87  z " />
<path transform="translate( 0, 0 )" style="stroke: hsl(215.2, 55%, 50%);" id="2228"  d=" M  -67.103,87  C  -67.103,87  -71.113,127.1  -71.113,287.5  L  -71.113,1175.9  L  96.087,1175.9  L  96.087,285  C  96.087,230.593  163.922,185.816  212.5,153.75  C  212.5,109.167  216.116,29.904  217.5,20  L  74.38,0  C  71.612,19.808  74.38,87  0,87  L  -67.103,87  z " />
<path transform="translate( 0, 0 )" style="stroke: hsl(242.1, 55%, 50%);" id="2508"  d=" M  -67.103,87  C  -67.103,87  -71.113,127.1  -71.113,287.5  L  -71.113,1175.9  L  96.087,1175.9  L  96.087,285  C  96.087,230.593  163.922,185.816  212.5,153.75  C  212.5,109.167  216.116,29.904  217.5,20  L  74.38,0  C  71.612,19.808  74.38,87  0,87  L  -67.103,87  z " />
<path transform="translate( 0, 0 )" style="stroke: hsl(269, 55%, 50%);" id="2788"  d=" M  -67.103,87  C  -67.103,87  -71.113,127.1  -71.113,287.5  L  -71.113,1175.9  L  96.087,1175.9  L  96.087,285  C  96.087,230.593  163.922,185.816  212.5,153.75  C  212.5,109.167  216.116,29.904  217.5,20  L  74.38,0  C  71.612,19.808  74.38,87  0,87  L  -67.103,87  z " />
<path transform="translate( 0, 0 )" style="stroke: hsl(295.9, 55%, 50%);" id="3068"  d=" M  -67.103,87  C  -67.103,87  -71.113,127.1  -71.113,287.5  L  -71.113,1175.9  L  96.087,1175.9  L  96.087,285  C  96.087,230.593  163.922,185.816  212.5,153.75  C  212.5,109.167  216.116,29.904  217.5,20  L  74.38,0  C  71.612,19.808  74.38,87  0,87  L  -67.103,87  z " />
    </g>
    <!-- End of group #frontPanel -->
    
    <!-- Start of group #sidePanel -->
    <g id="sidePanel"  transform=" translate(-95.048 -171.055)  translate(298.613 0) " >
        <path class="hidden" id="3"  d=" M  100.048,176.055  L  332.094,176.055  L  332.094,1165.341  L  100.048,1165.341  z " />
<path transform="translate( 0, 0 )" style="stroke: hsl(26.9, 55%, 50%);" id="269"  d=" M  307.113,308.942  C  293.365,309.136  285.3,303.543  271.328,289.96  C  257.354,276.378  245.856,220.635  245.224,176.055  C  190.691,196.408  114.542,224.83  102.338,277.85  C  90.134,330.87  130.683,330.87  130.683,511.687  L  130.683,1165.34  L  332.094,1165.341  L  332.094,793.942  C  332.095,678.941  288.97,495.191  288.971,433.941  C  288.969,372.691  307.095,319.097  307.113,308.942  z " />
<path transform="translate( 0, 0 )" style="stroke: hsl(53.8, 55%, 50%);" id="549"  d=" M  307.113,308.942  C  293.365,309.136  285.3,303.543  271.328,289.96  C  257.354,276.378  245.856,220.635  245.224,176.055  C  190.691,196.408  114.542,224.83  102.338,277.85  C  90.134,330.87  130.683,330.87  130.683,511.687  L  130.683,1165.34  L  332.094,1165.341  L  332.094,793.942  C  332.095,678.941  288.97,495.191  288.971,433.941  C  288.969,372.691  307.095,319.097  307.113,308.942  z " />
<path transform="translate( 0, 0 )" style="stroke: hsl(80.7, 55%, 50%);" id="829"  d=" M  307.113,308.942  C  293.365,309.136  285.3,303.543  271.328,289.96  C  257.354,276.378  245.856,220.635  245.224,176.055  C  190.691,196.408  114.542,224.83  102.338,277.85  C  90.134,330.87  130.683,330.87  130.683,511.687  L  130.683,1165.34  L  332.094,1165.341  L  332.094,793.942  C  332.095,678.941  288.97,495.191  288.971,433.941  C  288.969,372.691  307.095,319.097  307.113,308.942  z " />
<path transform="translate( 0, 0 )" style="stroke: hsl(107.6, 55%, 50%);" id="1109"  d=" M  307.113,308.942  C  293.365,309.136  285.3,303.543  271.328,289.96  C  257.354,276.378  245.856,220.635  245.224,176.055  C  190.691,196.408  114.542,224.83  102.338,277.85  C  90.134,330.87  130.683,330.87  130.683,511.687  L  130.683,1165.34  L  332.094,1165.341  L  332.094,793.942  C  332.095,678.941  288.97,495.191  288.971,433.941  C  288.969,372.691  307.095,319.097  307.113,308.942  z " />
<path transform="translate( 0, 0 )" style="stroke: hsl(134.5, 55%, 50%);" id="1389"  d=" M  307.113,308.942  C  293.365,309.136  285.3,303.543  271.328,289.96  C  257.354,276.378  245.856,220.635  245.224,176.055  C  190.691,196.408  114.542,224.83  102.338,277.85  C  90.134,330.87  130.683,330.87  130.683,511.687  L  130.683,1165.34  L  332.094,1165.341  L  332.094,793.942  C  332.095,678.941  288.97,495.191  288.971,433.941  C  288.969,372.691  307.095,319.097  307.113,308.942  z " />
<path transform="translate( 0, 0 )" style="stroke: hsl(161.4, 55%, 50%);" id="1669"  d=" M  307.113,308.942  C  293.365,309.136  285.3,303.543  271.328,289.96  C  257.354,276.378  245.856,220.635  245.224,176.055  C  190.691,196.408  114.542,224.83  102.338,277.85  C  90.134,330.87  130.683,330.87  130.683,511.687  L  130.683,1165.34  L  332.094,1165.341  L  332.094,793.942  C  332.095,678.941  288.97,495.191  288.971,433.941  C  288.969,372.691  307.095,319.097  307.113,308.942  z " />
<path transform="translate( 0, 0 )" style="stroke: hsl(188.3, 55%, 50%);" id="1949"  d=" M  307.113,308.942  C  293.365,309.136  285.3,303.543  271.328,289.96  C  257.354,276.378  245.856,220.635  245.224,176.055  C  190.691,196.408  114.542,224.83  102.338,277.85  C  90.134,330.87  130.683,330.87  130.683,511.687  L  130.683,1165.34  L  332.094,1165.341  L  332.094,793.942  C  332.095,678.941  288.97,495.191  288.971,433.941  C  288.969,372.691  307.095,319.097  307.113,308.942  z " />
<path transform="translate( 0, 0 )" style="stroke: hsl(215.2, 55%, 50%);" id="2229"  d=" M  307.113,308.942  C  293.365,309.136  285.3,303.543  271.328,289.96  C  257.354,276.378  245.856,220.635  245.224,176.055  C  190.691,196.408  114.542,224.83  102.338,277.85  C  90.134,330.87  130.683,330.87  130.683,511.687  L  130.683,1165.34  L  332.094,1165.341  L  332.094,793.942  C  332.095,678.941  288.97,495.191  288.971,433.941  C  288.969,372.691  307.095,319.097  307.113,308.942  z " />
<path transform="translate( 0, 0 )" style="stroke: hsl(242.1, 55%, 50%);" id="2509"  d=" M  307.113,308.942  C  293.365,309.136  285.3,303.543  271.328,289.96  C  257.354,276.378  245.856,220.635  245.224,176.055  C  190.691,196.408  114.542,224.83  102.338,277.85  C  90.134,330.87  130.683,330.87  130.683,511.687  L  130.683,1165.34  L  332.094,1165.341  L  332.094,793.942  C  332.095,678.941  288.97,495.191  288.971,433.941  C  288.969,372.691  307.095,319.097  307.113,308.942  z " />
<path transform="translate( 0, 0 )" style="stroke: hsl(269, 55%, 50%);" id="2789"  d=" M  307.113,308.942  C  293.365,309.136  285.3,303.543  271.328,289.96  C  257.354,276.378  245.856,220.635  245.224,176.055  C  190.691,196.408  114.542,224.83  102.338,277.85  C  90.134,330.87  130.683,330.87  130.683,511.687  L  130.683,1165.34  L  332.094,1165.341  L  332.094,793.942  C  332.095,678.941  288.97,495.191  288.971,433.941  C  288.969,372.691  307.095,319.097  307.113,308.942  z " />
<path transform="translate( 0, 0 )" style="stroke: hsl(295.9, 55%, 50%);" id="3069"  d=" M  307.113,308.942  C  293.365,309.136  285.3,303.543  271.328,289.96  C  257.354,276.378  245.856,220.635  245.224,176.055  C  190.691,196.408  114.542,224.83  102.338,277.85  C  90.134,330.87  130.683,330.87  130.683,511.687  L  130.683,1165.34  L  332.094,1165.341  L  332.094,793.942  C  332.095,678.941  288.97,495.191  288.971,433.941  C  288.969,372.691  307.095,319.097  307.113,308.942  z " />
    </g>
    <!-- End of group #sidePanel -->
    
    <!-- Start of group #back -->
    <g id="back"  transform=" translate(45.8 5)  translate(1248.267 140) " >
        <path class="hidden" id="4"  d=" M  -40.8,0  L  272.5,0  L  272.5,375  L  -40.8,375  z " />
<path transform="translate( 0, 0 )" style="stroke: hsl(26.9, 55%, 50%);" id="270"  d=" M  0,20  L  0,153.75  L  -40.8,153.75  L  -40.8,375  L  83.625,375  C  83.625,331.25  101.75,287.5  101.75,287.5  C  101.75,287.5  119.875,331.25  119.875,375  L  254.375,375  C  254.375,348.75  272.5,295.156  272.5,287.5  C  258.75,287.5  250.766,281.792  236.987,268.013  C  223.208,254.234  217.5,198.333  217.5,153.75  C  217.5,109.167  216.116,29.904  217.5,20  L  74.38,0  C  71.612,19.808  0,20  0,20  z " />
<path transform="translate( 0, 0 )" style="stroke: hsl(53.8, 55%, 50%);" id="550"  d=" M  0,20  L  0,153.75  L  -40.8,153.75  L  -40.8,375  L  83.625,375  C  83.625,331.25  101.75,287.5  101.75,287.5  C  101.75,287.5  119.875,331.25  119.875,375  L  254.375,375  C  254.375,348.75  272.5,295.156  272.5,287.5  C  258.75,287.5  250.766,281.792  236.987,268.013  C  223.208,254.234  217.5,198.333  217.5,153.75  C  217.5,109.167  216.116,29.904  217.5,20  L  74.38,0  C  71.612,19.808  0,20  0,20  z " />
<path transform="translate( 0, 0 )" style="stroke: hsl(80.7, 55%, 50%);" id="830"  d=" M  0,20  L  0,153.75  L  -40.8,153.75  L  -40.8,375  L  83.625,375  C  83.625,331.25  101.75,287.5  101.75,287.5  C  101.75,287.5  119.875,331.25  119.875,375  L  254.375,375  C  254.375,348.75  272.5,295.156  272.5,287.5  C  258.75,287.5  250.766,281.792  236.987,268.013  C  223.208,254.234  217.5,198.333  217.5,153.75  C  217.5,109.167  216.116,29.904  217.5,20  L  74.38,0  C  71.612,19.808  0,20  0,20  z " />
<path transform="translate( 0, 0 )" style="stroke: hsl(107.6, 55%, 50%);" id="1110"  d=" M  0,20  L  0,153.75  L  -40.8,153.75  L  -40.8,375  L  83.625,375  C  83.625,331.25  101.75,287.5  101.75,287.5  C  101.75,287.5  119.875,331.25  119.875,375  L  254.375,375  C  254.375,348.75  272.5,295.156  272.5,287.5  C  258.75,287.5  250.766,281.792  236.987,268.013  C  223.208,254.234  217.5,198.333  217.5,153.75  C  217.5,109.167  216.116,29.904  217.5,20  L  74.38,0  C  71.612,19.808  0,20  0,20  z " />
<path transform="translate( 0, 0 )" style="stroke: hsl(134.5, 55%, 50%);" id="1390"  d=" M  0,20  L  0,153.75  L  -40.8,153.75  L  -40.8,375  L  83.625,375  C  83.625,331.25  101.75,287.5  101.75,287.5  C  101.75,287.5  119.875,331.25  119.875,375  L  254.375,375  C  254.375,348.75  272.5,295.156  272.5,287.5  C  258.75,287.5  250.766,281.792  236.987,268.013  C  223.208,254.234  217.5,198.333  217.5,153.75  C  217.5,109.167  216.116,29.904  217.5,20  L  74.38,0  C  71.612,19.808  0,20  0,20  z " />
<path transform="translate( 0, 0 )" style="stroke: hsl(161.4, 55%, 50%);" id="1670"  d=" M  0,20  L  0,153.75  L  -40.8,153.75  L  -40.8,375  L  83.625,375  C  83.625,331.25  101.75,287.5  101.75,287.5  C  101.75,287.5  119.875,331.25  119.875,375  L  254.375,375  C  254.375,348.75  272.5,295.156  272.5,287.5  C  258.75,287.5  250.766,281.792  236.987,268.013  C  223.208,254.234  217.5,198.333  217.5,153.75  C  217.5,109.167  216.116,29.904  217.5,20  L  74.38,0  C  71.612,19.808  0,20  0,20  z " />
<path transform="translate( 0, 0 )" style="stroke: hsl(188.3, 55%, 50%);" id="1950"  d=" M  0,20  L  0,153.75  L  -40.8,153.75  L  -40.8,375  L  83.625,375  C  83.625,331.25  101.75,287.5  101.75,287.5  C  101.75,287.5  119.875,331.25  119.875,375  L  254.375,375  C  254.375,348.75  272.5,295.156  272.5,287.5  C  258.75,287.5  250.766,281.792  236.987,268.013  C  223.208,254.234  217.5,198.333  217.5,153.75  C  217.5,109.167  216.116,29.904  217.5,20  L  74.38,0  C  71.612,19.808  0,20  0,20  z " />
<path transform="translate( 0, 0 )" style="stroke: hsl(215.2, 55%, 50%);" id="2230"  d=" M  0,20  L  0,153.75  L  -40.8,153.75  L  -40.8,375  L  83.625,375  C  83.625,331.25  101.75,287.5  101.75,287.5  C  101.75,287.5  119.875,331.25  119.875,375  L  254.375,375  C  254.375,348.75  272.5,295.156  272.5,287.5  C  258.75,287.5  250.766,281.792  236.987,268.013  C  223.208,254.234  217.5,198.333  217.5,153.75  C  217.5,109.167  216.116,29.904  217.5,20  L  74.38,0  C  71.612,19.808  0,20  0,20  z " />
<path transform="translate( 0, 0 )" style="stroke: hsl(242.1, 55%, 50%);" id="2510"  d=" M  0,20  L  0,153.75  L  -40.8,153.75  L  -40.8,375  L  83.625,375  C  83.625,331.25  101.75,287.5  101.75,287.5  C  101.75,287.5  119.875,331.25  119.875,375  L  254.375,375  C  254.375,348.75  272.5,295.156  272.5,287.5  C  258.75,287.5  250.766,281.792  236.987,268.013  C  223.208,254.234  217.5,198.333  217.5,153.75  C  217.5,109.167  216.116,29.904  217.5,20  L  74.38,0  C  71.612,19.808  0,20  0,20  z " />
<path transform="translate( 0, 0 )" style="stroke: hsl(269, 55%, 50%);" id="2790"  d=" M  0,20  L  0,153.75  L  -40.8,153.75  L  -40.8,375  L  83.625,375  C  83.625,331.25  101.75,287.5  101.75,287.5  C  101.75,287.5  119.875,331.25  119.875,375  L  254.375,375  C  254.375,348.75  272.5,295.156  272.5,287.5  C  258.75,287.5  250.766,281.792  236.987,268.013  C  223.208,254.234  217.5,198.333  217.5,153.75  C  217.5,109.167  216.116,29.904  217.5,20  L  74.38,0  C  71.612,19.808  0,20  0,20  z " />
<path transform="translate( 0, 0 )" style="stroke: hsl(295.9, 55%, 50%);" id="3070"  d=" M  0,20  L  0,153.75  L  -40.8,153.75  L  -40.8,375  L  83.625,375  C  83.625,331.25  101.75,287.5  101.75,287.5  C  101.75,287.5  119.875,331.25  119.875,375  L  254.375,375  C  254.375,348.75  272.5,295.156  272.5,287.5  C  258.75,287.5  250.766,281.792  236.987,268.013  C  223.208,254.234  217.5,198.333  217.5,153.75  C  217.5,109.167  216.116,29.904  217.5,20  L  74.38,0  C  71.612,19.808  0,20  0,20  z " />
    </g>
    <!-- End of group #back -->
    
    <!-- Start of group #tail -->
    <g id="tail"  transform=" translate(164.04 5)  translate(1248.267 0) " >
        <path class="hidden" id="5"  d=" M  -159.04,0  L  218.125,0  L  218.125,130  L  -159.04,130  z " />
<path transform="translate( 0, 0 )" style="stroke: hsl(26.9, 55%, 50%);" id="271"  d=" M  -159.04,50  -159.04,0  L  0,0  L  218.125,0  L  218.125,50 " />
<path transform="translate( 0, 0 )" style="stroke: hsl(26.9, 55%, 50%);" id="272"  d=" M  -159.04,80  -159.04,130  L  -0,130  L  218.125,130  L  218.125,80 " />
<path transform="translate( 0, 0 )" style="stroke: hsl(53.8, 55%, 50%);" id="551"  d=" M  -159.04,50  -159.04,0  L  0,0  L  218.125,0  L  218.125,50 " />
<path transform="translate( 0, 0 )" style="stroke: hsl(53.8, 55%, 50%);" id="552"  d=" M  -159.04,80  -159.04,130  L  -0,130  L  218.125,130  L  218.125,80 " />
<path transform="translate( 0, 0 )" style="stroke: hsl(80.7, 55%, 50%);" id="831"  d=" M  -159.04,50  -159.04,0  L  0,0  L  218.125,0  L  218.125,50 " />
<path transform="translate( 0, 0 )" style="stroke: hsl(80.7, 55%, 50%);" id="832"  d=" M  -159.04,80  -159.04,130  L  -0,130  L  218.125,130  L  218.125,80 " />
<path transform="translate( 0, 0 )" style="stroke: hsl(107.6, 55%, 50%);" id="1111"  d=" M  -159.04,50  -159.04,0  L  0,0  L  218.125,0  L  218.125,50 " />
<path transform="translate( 0, 0 )" style="stroke: hsl(107.6, 55%, 50%);" id="1112"  d=" M  -159.04,80  -159.04,130  L  -0,130  L  218.125,130  L  218.125,80 " />
<path transform="translate( 0, 0 )" style="stroke: hsl(134.5, 55%, 50%);" id="1391"  d=" M  -159.04,50  -159.04,0  L  0,0  L  218.125,0  L  218.125,50 " />
<path transform="translate( 0, 0 )" style="stroke: hsl(134.5, 55%, 50%);" id="1392"  d=" M  -159.04,80  -159.04,130  L  -0,130  L  218.125,130  L  218.125,80 " />
<path transform="translate( 0, 0 )" style="stroke: hsl(161.4, 55%, 50%);" id="1671"  d=" M  -159.04,50  -159.04,0  L  0,0  L  218.125,0  L  218.125,50 " />
<path transform="translate( 0, 0 )" style="stroke: hsl(161.4, 55%, 50%);" id="1672"  d=" M  -159.04,80  -159.04,130  L  -0,130  L  218.125,130  L  218.125,80 " />
<path transform="translate( 0, 0 )" style="stroke: hsl(188.3, 55%, 50%);" id="1951"  d=" M  -159.04,50  -159.04,0  L  0,0  L  218.125,0  L  218.125,50 " />
<path transform="translate( 0, 0 )" style="stroke: hsl(188.3, 55%, 50%);" id="1952"  d=" M  -159.04,80  -159.04,130  L  -0,130  L  218.125,130  L  218.125,80 " />
<path transform="translate( 0, 0 )" style="stroke: hsl(215.2, 55%, 50%);" id="2231"  d=" M  -159.04,50  -159.04,0  L  0,0  L  218.125,0  L  218.125,50 " />
<path transform="translate( 0, 0 )" style="stroke: hsl(215.2, 55%, 50%);" id="2232"  d=" M  -159.04,80  -159.04,130  L  -0,130  L  218.125,130  L  218.125,80 " />
<path transform="translate( 0, 0 )" style="stroke: hsl(242.1, 55%, 50%);" id="2511"  d=" M  -159.04,50  -159.04,0  L  0,0  L  218.125,0  L  218.125,50 " />
<path transform="translate( 0, 0 )" style="stroke: hsl(242.1, 55%, 50%);" id="2512"  d=" M  -159.04,80  -159.04,130  L  -0,130  L  218.125,130  L  218.125,80 " />
<path transform="translate( 0, 0 )" style="stroke: hsl(269, 55%, 50%);" id="2791"  d=" M  -159.04,50  -159.04,0  L  0,0  L  218.125,0  L  218.125,50 " />
<path transform="translate( 0, 0 )" style="stroke: hsl(269, 55%, 50%);" id="2792"  d=" M  -159.04,80  -159.04,130  L  -0,130  L  218.125,130  L  218.125,80 " />
<path transform="translate( 0, 0 )" style="stroke: hsl(295.9, 55%, 50%);" id="3071"  d=" M  -159.04,50  -159.04,0  L  0,0  L  218.125,0  L  218.125,50 " />
<path transform="translate( 0, 0 )" style="stroke: hsl(295.9, 55%, 50%);" id="3072"  d=" M  -159.04,80  -159.04,130  L  -0,130  L  218.125,130  L  218.125,80 " />
    </g>
    <!-- End of group #tail -->
    
    <!-- Start of group #topsleeve -->
    <g id="topsleeve"  transform=" translate(143.469 5)  translate(540.659 0) " >
        <path class="hidden" id="6"  d=" M  -138.469,0  L  236.488,0  L  236.488,752.773  L  -138.469,752.773  z " />
<path transform="translate( 0, 0 )" style="stroke: hsl(26.9, 55%, 50%);" id="273"  d=" M  110.775,340  C  110.775,293.5  123.083,220  123.083,165  C  123.083,110  110.775,55  110.775,55  C  110.775,55  69.234,0  0,0  C  -69.234,0  -101.544,55  -110.775,99  C  -120.006,143  -124.622,165  -138.469,165  C  -138.469,165  -134.571,274.773  -123.083,340  L  -65.644,666.135  L  -57.72,752.773  L  97.039,738.619  C  109.001,737.525  117.812,726.94  116.718,714.978  L  110.775,650  z " />
<path transform="translate( 10.826, 0 )" style="stroke: hsl(53.8, 55%, 50%);" id="553"  d=" M  110.775,340  C  112.399,293.5  123.083,220  123.083,165  C  123.083,110  110.775,55  110.775,55  C  110.775,55  69.234,0  0,0  C  -69.234,0  -101.544,55  -110.775,99  C  -120.006,143  -124.622,165  -138.469,165  C  -138.469,165  -132.315,276  -123.083,340  L  -76.924,660  L  -72.013,746.861  L  83.145,738.089  C  95.138,737.411  104.31,727.139  103.632,715.146  L  99.949,650  z " />
<path transform="translate( 21.678, 0 )" style="stroke: hsl(80.7, 55%, 50%);" id="833"  d=" M  110.775,340  C  114.027,293.5  123.083,220  123.083,165  C  123.083,110  110.775,55  110.775,55  C  110.775,55  69.234,0  0,0  C  -69.234,0  -101.544,55  -110.775,99  C  -120.006,143  -124.622,165  -138.469,165  C  -138.469,165  -130.096,277.238  -123.083,340  L  -88.017,653.813  L  -86.144,740.793  L  69.225,737.448  C  81.234,737.19  90.76,727.244  90.502,715.235  L  89.097,650  z " />
<path transform="translate( 32.582, 0 )" style="stroke: hsl(107.6, 55%, 50%);" id="1113"  d=" M  110.775,340  C  115.662,293.5  123.083,220  123.083,165  C  123.083,110  110.775,55  110.775,55  C  110.775,55  69.234,0  0,0  C  -69.234,0  -101.544,55  -110.775,99  C  -120.006,143  -124.622,165  -138.469,165  C  -138.469,165  -127.91,278.484  -123.083,340  L  -98.946,647.582  L  -100.133,734.574  L  55.258,736.695  C  67.269,736.859  77.139,727.255  77.303,715.244  L  78.193,650  z " />
<path transform="translate( 43.568, 0 )" style="stroke: hsl(134.5, 55%, 50%);" id="1393"  d=" M  110.775,340  C  117.31,293.5  123.083,220  123.083,165  C  123.083,110  110.775,55  110.775,55  C  110.775,55  69.234,0  0,0  C  -69.234,0  -101.544,55  -110.775,99  C  -120.006,143  -124.622,165  -138.469,165  C  -138.469,165  -125.753,279.738  -123.083,340  L  -109.735,641.314  L  -114.001,728.209  L  41.217,735.828  C  53.215,736.417  63.419,727.169  64.008,715.171  L  67.207,650  z " />
<path transform="translate( 54.662, 0 )" style="stroke: hsl(161.4, 55%, 50%);" id="1673"  d=" M  110.775,340  C  118.974,293.5  123.083,220  123.083,165  C  123.083,110  110.775,55  110.775,55  C  110.775,55  69.234,0  0,0  C  -69.234,0  -101.544,55  -110.775,99  C  -120.006,143  -124.622,165  -138.469,165  C  -138.469,165  -123.618,280.997  -123.083,340  L  -120.407,635.018  L  -127.765,721.706  L  27.083,734.848  C  39.052,735.864  49.579,726.985  50.595,715.016  L  56.113,650  z " />
<path transform="translate( 65.893, 0 )" style="stroke: hsl(188.3, 55%, 50%);" id="1953"  d=" M  110.775,340  C  120.659,293.5  123.083,220  123.083,165  C  123.083,110  110.775,55  110.775,55  C  110.775,55  69.234,0  0,0  C  -69.234,0  -101.544,55  -110.775,99  C  -120.006,143  -124.622,165  -138.469,165  C  -138.469,165  -121.502,282.26  -123.083,340  L  -130.988,628.702  L  -141.447,715.071  L  12.831,733.754  C  24.756,735.198  35.594,726.702  37.038,714.777  L  44.882,650  z " />
<path transform="translate( 77.292, 0 )" style="stroke: hsl(215.2, 55%, 50%);" id="2233"  d=" M  110.775,340  C  122.369,293.5  123.083,220  123.083,165  C  123.083,110  110.775,55  110.775,55  C  110.775,55  69.234,0  0,0  C  -69.234,0  -101.544,55  -110.775,99  C  -120.006,143  -124.622,165  -138.469,165  C  -138.469,165  -119.399,283.525  -123.083,340  L  -141.505,622.374  L  -155.072,708.31  L  -1.568,732.544  C  10.297,734.417  21.435,726.317  23.308,714.452  L  33.483,650  z " />
<path transform="translate( 88.892, 0 )" style="stroke: hsl(242.1, 55%, 50%);" id="2513"  d=" M  110.775,340  C  124.109,293.5  123.083,220  123.083,165  C  123.083,110  110.775,55  110.775,55  C  110.775,55  69.234,0  0,0  C  -69.234,0  -101.544,55  -110.775,99  C  -120.006,143  -124.622,165  -138.469,165  C  -138.469,165  -117.302,284.791  -123.083,340  L  -151.987,616.044  L  -168.663,701.431  L  -16.14,731.218  C  -4.351,733.52  7.074,725.829  9.376,714.04  L  21.883,650  z " />
<path transform="translate( 100.725, 0 )" style="stroke: hsl(269, 55%, 50%);" id="2793"  d=" M  110.775,340  C  125.884,293.5  123.083,220  123.083,165  C  123.083,110  110.775,55  110.775,55  C  110.775,55  69.234,0  0,0  C  -69.234,0  -101.544,55  -110.775,99  C  -120.006,143  -124.622,165  -138.469,165  C  -138.469,165  -115.206,286.055  -123.083,340  L  -162.466,609.724  L  -182.245,694.446  L  -30.909,729.777  C  -19.212,732.508  -7.515,725.239  -4.784,713.542  L  10.05,650  z " />
<path transform="translate( 112.83, 0 )" style="stroke: hsl(295.9, 55%, 50%);" id="3073"  d=" M  110.775,340  C  127.699,293.5  123.083,220  123.083,165  C  123.083,110  110.775,55  110.775,55  C  110.775,55  69.234,0  0,0  C  -69.234,0  -101.544,55  -110.775,99  C  -120.006,143  -124.622,165  -138.469,165  C  -138.469,165  -113.104,287.315  -123.083,340  L  -172.977,603.422  L  -195.851,687.361  L  -45.914,728.22  C  -34.325,731.378  -22.368,724.543  -19.21,712.954  L  -2.055,650  z " />
    </g>
    <!-- End of group #topsleeve -->
    
    <!-- Start of group #undersleeve -->
    <g id="undersleeve"  transform=" translate(88.081 -50)  translate(925.616 0) " >
        <path class="hidden" id="7"  d=" M  -83.081,55  L  229.57,55  L  229.57,745.892  L  -83.081,745.892  z " />
<path transform="translate( 0, 0 )" style="stroke: hsl(26.9, 55%, 50%);" id="274"  d=" M  110.775,340  C  110.775,293.5  103.786,219.742  98.467,165  C  93.148,110.258  83.081,55  83.081,55  C  66.118,108.545  -13.847,165  -55.387,165  L  -83.081,165  C  -83.081,165  -73.191,276.181  -64.619,340  L  -21.758,659.096  L  -15.801,745.892  L  95.033,738.285  C  107.017,737.463  116.065,727.081  115.243,715.097  L  110.775,650  z " />
<path transform="translate( 10.826, 0 )" style="stroke: hsl(53.8, 55%, 50%);" id="554"  d=" M  110.775,340  C  112.399,293.5  103.786,219.742  98.467,165  C  93.148,110.258  83.081,55  83.081,55  C  66.118,108.545  -13.847,165  -55.387,165  L  -83.081,165  C  -83.081,165  -70.979,277.105  -64.619,340  L  -32.821,654.475  L  -29.89,741.426  L  81.142,737.684  C  93.147,737.279  102.552,727.218  102.147,715.213  L  99.949,650  z " />
<path transform="translate( 21.678, 0 )" style="stroke: hsl(80.7, 55%, 50%);" id="834"  d=" M  110.775,340  C  114.027,293.5  103.786,219.742  98.467,165  C  93.148,110.258  83.081,55  83.081,55  C  66.118,108.545  -13.847,165  -55.387,165  L  -83.081,165  C  -83.081,165  -68.793,278.035  -64.619,340  L  -43.748,649.827  L  -43.861,736.827  L  67.234,736.972  C  79.246,736.987  88.997,727.262  89.012,715.25  L  89.097,650  z " />
<path transform="translate( 32.582, 0 )" style="stroke: hsl(107.6, 55%, 50%);" id="1114"  d=" M  110.775,340  C  115.662,293.5  103.786,219.742  98.467,165  C  93.148,110.258  83.081,55  83.081,55  C  66.118,108.545  -13.847,165  -55.387,165  L  -83.081,165  C  -83.081,165  -66.63,278.969  -64.619,340  L  -54.564,645.158  L  -57.735,732.1  L  53.286,736.149  C  65.29,736.587  75.377,727.21  75.815,715.206  L  78.193,650  z " />
<path transform="translate( 43.568, 0 )" style="stroke: hsl(134.5, 55%, 50%);" id="1394"  d=" M  110.775,340  C  117.31,293.5  103.786,219.742  98.467,165  C  93.148,110.258  83.081,55  83.081,55  C  66.118,108.545  -13.847,165  -55.387,165  L  -83.081,165  C  -83.081,165  -64.484,279.906  -64.619,340  L  -65.296,640.471  L  -71.537,727.247  L  39.272,735.216  C  51.253,736.078  61.664,727.063  62.526,715.082  L  67.207,650  z " />
<path transform="translate( 54.662, 0 )" style="stroke: hsl(161.4, 55%, 50%);" id="1674"  d=" M  110.775,340  C  118.974,293.5  103.786,219.742  98.467,165  C  93.148,110.258  83.081,55  83.081,55  C  66.118,108.545  -13.847,165  -55.387,165  L  -83.081,165  C  -83.081,165  -62.349,280.845  -64.619,340  L  -75.968,635.774  L  -85.285,722.274  L  25.171,734.171  C  37.114,735.457  47.839,726.818  49.125,714.875  L  56.113,650  z " />
<path transform="translate( 65.893, 0 )" style="stroke: hsl(188.3, 55%, 50%);" id="1954"  d=" M  110.775,340  C  120.659,293.5  103.786,219.742  98.467,165  C  93.148,110.258  83.081,55  83.081,55  C  66.118,108.545  -13.847,165  -55.387,165  L  -83.081,165  C  -83.081,165  -60.221,281.785  -64.619,340  L  -86.608,631.074  L  -99.003,717.187  L  10.959,733.014  C  22.848,734.726  33.874,726.474  35.586,714.585  L  44.882,650  z " />
<path transform="translate( 77.292, 0 )" style="stroke: hsl(215.2, 55%, 50%);" id="2234"  d=" M  110.775,340  C  122.369,293.5  103.786,219.742  98.467,165  C  93.148,110.258  83.081,55  83.081,55  C  66.118,108.545  -13.847,165  -55.387,165  L  -83.081,165  C  -83.081,165  -58.094,282.725  -64.619,340  L  -97.245,626.377  L  -112.716,711.99  L  -3.391,731.745  C  8.43,733.881  19.744,726.031  21.88,714.21  L  33.483,650  z " />
<path transform="translate( 88.892, 0 )" style="stroke: hsl(242.1, 55%, 50%);" id="2514"  d=" M  110.775,340  C  124.109,293.5  103.786,219.742  98.467,165  C  93.148,110.258  83.081,55  83.081,55  C  66.118,108.545  -13.847,165  -55.387,165  L  -83.081,165  C  -83.081,165  -55.961,283.663  -64.619,340  L  -107.91,621.689  L  -126.451,706.69  L  -17.908,730.366  C  -6.172,732.926  5.417,725.487  7.977,713.751  L  21.883,650  z " />
<path transform="translate( 100.725, 0 )" style="stroke: hsl(269, 55%, 50%);" id="2794"  d=" M  110.775,340  C  125.884,293.5  103.786,219.742  98.467,165  C  93.148,110.258  83.081,55  83.081,55  C  66.118,108.545  -13.847,165  -55.387,165  L  -83.081,165  C  -83.081,165  -53.816,284.596  -64.619,340  L  -118.636,617.019  L  -140.235,701.295  L  -32.618,728.876  C  -20.982,731.858  -9.131,724.843  -6.149,713.207  L  10.05,650  z " />
<path transform="translate( 112.83, 0 )" style="stroke: hsl(295.9, 55%, 50%);" id="3074"  d=" M  110.775,340  C  127.699,293.5  103.786,219.742  98.467,165  C  93.148,110.258  83.081,55  83.081,55  C  66.118,108.545  -13.847,165  -55.387,165  L  -83.081,165  C  -83.081,165  -51.651,285.526  -64.619,340  L  -129.46,612.372  L  -154.102,695.809  L  -47.556,727.276  C  -36.036,730.679  -23.939,724.098  -20.536,712.578  L  -2.055,650  z " />
    </g>
    <!-- End of group #undersleeve -->
    
    <!-- Start of group #belt -->
    <g id="belt"  transform=" translate(5 5)  translate(1248.267 584.803) " >
        <path class="hidden" id="8"  d=" M  0,0  L  317.645,0  L  317.645,70  L  0,70  z " />
<path transform="translate( 0, 0 )" style="stroke: hsl(26.9, 55%, 50%);" id="275"  d=" M  317.645,0  L  10,0  C  4.477,0  0,4.477  0,10  L  0,60  C  0,65.523  4.477,70  10,70  L  317.645,70  L  317.645,0  z " />
<path transform="translate( 0, 0 )" style="stroke: hsl(53.8, 55%, 50%);" id="555"  d=" M  317.645,0  L  10,0  C  4.477,0  0,4.477  0,10  L  0,60  C  0,65.523  4.477,70  10,70  L  317.645,70  L  317.645,0  z " />
<path transform="translate( 0, 0 )" style="stroke: hsl(80.7, 55%, 50%);" id="835"  d=" M  317.645,0  L  10,0  C  4.477,0  0,4.477  0,10  L  0,60  C  0,65.523  4.477,70  10,70  L  317.645,70  L  317.645,0  z " />
<path transform="translate( 0, 0 )" style="stroke: hsl(107.6, 55%, 50%);" id="1115"  d=" M  317.645,0  L  10,0  C  4.477,0  0,4.477  0,10  L  0,60  C  0,65.523  4.477,70  10,70  L  317.645,70  L  317.645,0  z " />
<path transform="translate( 0, 0 )" style="stroke: hsl(134.5, 55%, 50%);" id="1395"  d=" M  317.645,0  L  10,0  C  4.477,0  0,4.477  0,10  L  0,60  C  0,65.523  4.477,70  10,70  L  317.645,70  L  317.645,0  z " />
<path transform="translate( 0, 0 )" style="stroke: hsl(161.4, 55%, 50%);" id="1675"  d=" M  317.645,0  L  10,0  C  4.477,0  0,4.477  0,10  L  0,60  C  0,65.523  4.477,70  10,70  L  317.645,70  L  317.645,0  z " />
<path transform="translate( 0, 0 )" style="stroke: hsl(188.3, 55%, 50%);" id="1955"  d=" M  317.645,0  L  10,0  C  4.477,0  0,4.477  0,10  L  0,60  C  0,65.523  4.477,70  10,70  L  317.645,70  L  317.645,0  z " />
<path transform="translate( 0, 0 )" style="stroke: hsl(215.2, 55%, 50%);" id="2235"  d=" M  317.645,0  L  10,0  C  4.477,0  0,4.477  0,10  L  0,60  C  0,65.523  4.477,70  10,70  L  317.645,70  L  317.645,0  z " />
<path transform="translate( 0, 0 )" style="stroke: hsl(242.1, 55%, 50%);" id="2515"  d=" M  317.645,0  L  10,0  C  4.477,0  0,4.477  0,10  L  0,60  C  0,65.523  4.477,70  10,70  L  317.645,70  L  317.645,0  z " />
<path transform="translate( 0, 0 )" style="stroke: hsl(269, 55%, 50%);" id="2795"  d=" M  317.645,0  L  10,0  C  4.477,0  0,4.477  0,10  L  0,60  C  0,65.523  4.477,70  10,70  L  317.645,70  L  317.645,0  z " />
<path transform="translate( 0, 0 )" style="stroke: hsl(295.9, 55%, 50%);" id="3075"  d=" M  317.645,0  L  10,0  C  4.477,0  0,4.477  0,10  L  0,60  C  0,65.523  4.477,70  10,70  L  317.645,70  L  317.645,0  z " />
    </g>
    <!-- End of group #belt -->
    
    <!-- Start of group #collarStand -->
    <g id="collarStand"  transform=" translate(165.228 -51.6)  translate(1248.267 525) " >
        <path class="hidden" id="9"  d=" M  -160.228,56.6  L  160.228,56.6  L  160.228,106.403  L  -160.228,106.403  z " />
<path transform="translate( 0, 0 )" style="stroke: hsl(26.9, 55%, 50%);" id="276"  d=" M  -160.228,106.403  C  -160.228,106.403  -144.205,56.6  0,56.6  C  144.205,56.6  160.228,106.403  160.228,106.403  C  134.929,106.403  80.114,81.6  0,81.6  C  -80.114,81.6  -134.929,106.403  -160.228,106.403  z " />
<path transform="translate( 0, 0 )" style="stroke: hsl(53.8, 55%, 50%);" id="556"  d=" M  -160.228,106.403  C  -160.228,106.403  -144.205,56.6  0,56.6  C  144.205,56.6  160.228,106.403  160.228,106.403  C  134.929,106.403  80.114,81.6  0,81.6  C  -80.114,81.6  -134.929,106.403  -160.228,106.403  z " />
<path transform="translate( 0, 0 )" style="stroke: hsl(80.7, 55%, 50%);" id="836"  d=" M  -160.228,106.403  C  -160.228,106.403  -144.205,56.6  0,56.6  C  144.205,56.6  160.228,106.403  160.228,106.403  C  134.929,106.403  80.114,81.6  0,81.6  C  -80.114,81.6  -134.929,106.403  -160.228,106.403  z " />
<path transform="translate( 0, 0 )" style="stroke: hsl(107.6, 55%, 50%);" id="1116"  d=" M  -160.228,106.403  C  -160.228,106.403  -144.205,56.6  0,56.6  C  144.205,56.6  160.228,106.403  160.228,106.403  C  134.929,106.403  80.114,81.6  0,81.6  C  -80.114,81.6  -134.929,106.403  -160.228,106.403  z " />
<path transform="translate( 0, 0 )" style="stroke: hsl(134.5, 55%, 50%);" id="1396"  d=" M  -160.228,106.403  C  -160.228,106.403  -144.205,56.6  0,56.6  C  144.205,56.6  160.228,106.403  160.228,106.403  C  134.929,106.403  80.114,81.6  0,81.6  C  -80.114,81.6  -134.929,106.403  -160.228,106.403  z " />
<path transform="translate( 0, 0 )" style="stroke: hsl(161.4, 55%, 50%);" id="1676"  d=" M  -160.228,106.403  C  -160.228,106.403  -144.205,56.6  0,56.6  C  144.205,56.6  160.228,106.403  160.228,106.403  C  134.929,106.403  80.114,81.6  0,81.6  C  -80.114,81.6  -134.929,106.403  -160.228,106.403  z " />
<path transform="translate( 0, 0 )" style="stroke: hsl(188.3, 55%, 50%);" id="1956"  d=" M  -160.228,106.403  C  -160.228,106.403  -144.205,56.6  0,56.6  C  144.205,56.6  160.228,106.403  160.228,106.403  C  134.929,106.403  80.114,81.6  0,81.6  C  -80.114,81.6  -134.929,106.403  -160.228,106.403  z " />
<path transform="translate( 0, 0 )" style="stroke: hsl(215.2, 55%, 50%);" id="2236"  d=" M  -160.228,106.403  C  -160.228,106.403  -144.205,56.6  0,56.6  C  144.205,56.6  160.228,106.403  160.228,106.403  C  134.929,106.403  80.114,81.6  0,81.6  C  -80.114,81.6  -134.929,106.403  -160.228,106.403  z " />
<path transform="translate( 0, 0 )" style="stroke: hsl(242.1, 55%, 50%);" id="2516"  d=" M  -160.228,106.403  C  -160.228,106.403  -144.205,56.6  0,56.6  C  144.205,56.6  160.228,106.403  160.228,106.403  C  134.929,106.403  80.114,81.6  0,81.6  C  -80.114,81.6  -134.929,106.403  -160.228,106.403  z " />
<path transform="translate( 0, 0 )" style="stroke: hsl(269, 55%, 50%);" id="2796"  d=" M  -160.228,106.403  C  -160.228,106.403  -144.205,56.6  0,56.6  C  144.205,56.6  160.228,106.403  160.228,106.403  C  134.929,106.403  80.114,81.6  0,81.6  C  -80.114,81.6  -134.929,106.403  -160.228,106.403  z " />
<path transform="translate( 0, 0 )" style="stroke: hsl(295.9, 55%, 50%);" id="3076"  d=" M  -160.228,106.403  C  -160.228,106.403  -144.205,56.6  0,56.6  C  144.205,56.6  160.228,106.403  160.228,106.403  C  134.929,106.403  80.114,81.6  0,81.6  C  -80.114,81.6  -134.929,106.403  -160.228,106.403  z " />
    </g>
    <!-- End of group #collarStand -->
    
    <!-- Start of group #collar -->
    <g id="collar"  transform=" translate(5 5)  translate(1248.267 805.303) " >
        <path class="hidden" id="10"  d=" M  0,0  L  242.212,0  L  242.212,130.664  L  0,130.664  z " />
<path transform="translate( 0, 0 )" style="stroke: hsl(26.9, 55%, 50%);" id="277"  d=" M  0,56.6  C  16.223,56.6  30.824,57.23  43.787,58.334  C  60.043,61.19  73.933,64.566  86.202,68.342  C  102.654,75.021  114.956,82.023  124.384,88.975  C  146.02,112.314  146.795,127.976  146.795,127.976  L  196.106,130.664  L  242.212,62.284  C  182.48,27.382  126.496,0  0,0  z " />
<path transform="translate( 0, 0 )" style="stroke: hsl(53.8, 55%, 50%);" id="557"  d=" M  0,56.6  C  16.223,56.6  30.824,57.23  43.787,58.334  C  60.043,61.19  73.933,64.566  86.202,68.342  C  102.654,75.021  114.956,82.023  124.384,88.975  C  146.02,112.314  146.795,127.976  146.795,127.976  L  196.106,130.664  L  242.212,62.284  C  182.48,27.382  126.496,0  0,0  z " />
<path transform="translate( 0, 0 )" style="stroke: hsl(80.7, 55%, 50%);" id="837"  d=" M  0,56.6  C  16.223,56.6  30.824,57.23  43.787,58.334  C  60.043,61.19  73.933,64.566  86.202,68.342  C  102.654,75.021  114.956,82.023  124.384,88.975  C  146.02,112.314  146.795,127.976  146.795,127.976  L  196.106,130.664  L  242.212,62.284  C  182.48,27.382  126.496,0  0,0  z " />
<path transform="translate( 0, 0 )" style="stroke: hsl(107.6, 55%, 50%);" id="1117"  d=" M  0,56.6  C  16.223,56.6  30.824,57.23  43.787,58.334  C  60.043,61.19  73.933,64.566  86.202,68.342  C  102.654,75.021  114.956,82.023  124.384,88.975  C  146.02,112.314  146.795,127.976  146.795,127.976  L  196.106,130.664  L  242.212,62.284  C  182.48,27.382  126.496,0  0,0  z " />
<path transform="translate( 0, 0 )" style="stroke: hsl(134.5, 55%, 50%);" id="1397"  d=" M  0,56.6  C  16.223,56.6  30.824,57.23  43.787,58.334  C  60.043,61.19  73.933,64.566  86.202,68.342  C  102.654,75.021  114.956,82.023  124.384,88.975  C  146.02,112.314  146.795,127.976  146.795,127.976  L  196.106,130.664  L  242.212,62.284  C  182.48,27.382  126.496,0  0,0  z " />
<path transform="translate( 0, 0 )" style="stroke: hsl(161.4, 55%, 50%);" id="1677"  d=" M  0,56.6  C  16.223,56.6  30.824,57.23  43.787,58.334  C  60.043,61.19  73.933,64.566  86.202,68.342  C  102.654,75.021  114.956,82.023  124.384,88.975  C  146.02,112.314  146.795,127.976  146.795,127.976  L  196.106,130.664  L  242.212,62.284  C  182.48,27.382  126.496,0  0,0  z " />
<path transform="translate( 0, 0 )" style="stroke: hsl(188.3, 55%, 50%);" id="1957"  d=" M  0,56.6  C  16.223,56.6  30.824,57.23  43.787,58.334  C  60.043,61.19  73.933,64.566  86.202,68.342  C  102.654,75.021  114.956,82.023  124.384,88.975  C  146.02,112.314  146.795,127.976  146.795,127.976  L  196.106,130.664  L  242.212,62.284  C  182.48,27.382  126.496,0  0,0  z " />
<path transform="translate( 0, 0 )" style="stroke: hsl(215.2, 55%, 50%);" id="2237"  d=" M  0,56.6  C  16.223,56.6  30.824,57.23  43.787,58.334  C  60.043,61.19  73.933,64.566  86.202,68.342  C  102.654,75.021  114.956,82.023  124.384,88.975  C  146.02,112.314  146.795,127.976  146.795,127.976  L  196.106,130.664  L  242.212,62.284  C  182.48,27.382  126.496,0  0,0  z " />
<path transform="translate( 0, 0 )" style="stroke: hsl(242.1, 55%, 50%);" id="2517"  d=" M  0,56.6  C  16.223,56.6  30.824,57.23  43.787,58.334  C  60.043,61.19  73.933,64.566  86.202,68.342  C  102.654,75.021  114.956,82.023  124.384,88.975  C  146.02,112.314  146.795,127.976  146.795,127.976  L  196.106,130.664  L  242.212,62.284  C  182.48,27.382  126.496,0  0,0  z " />
<path transform="translate( 0, 0 )" style="stroke: hsl(269, 55%, 50%);" id="2797"  d=" M  0,56.6  C  16.223,56.6  30.824,57.23  43.787,58.334  C  60.043,61.19  73.933,64.566  86.202,68.342  C  102.654,75.021  114.956,82.023  124.384,88.975  C  146.02,112.314  146.795,127.976  146.795,127.976  L  196.106,130.664  L  242.212,62.284  C  182.48,27.382  126.496,0  0,0  z " />
<path transform="translate( 0, 0 )" style="stroke: hsl(295.9, 55%, 50%);" id="3077"  d=" M  0,56.6  C  16.223,56.6  30.824,57.23  43.787,58.334  C  60.043,61.19  73.933,64.566  86.202,68.342  C  102.654,75.021  114.956,82.023  124.384,88.975  C  146.02,112.314  146.795,127.976  146.795,127.976  L  196.106,130.664  L  242.212,62.284  C  182.48,27.382  126.496,0  0,0  z " />
    </g>
    <!-- End of group #collar -->
    
    <!-- Start of group #cuffFacing -->
    <g id="cuffFacing"  transform=" translate(5.001 5)  translate(1248.267 664.803) " >
        <path class="hidden" id="11"  d=" M  -0.001,0  L  310,0  L  310,130.5  L  -0.001,130.5  z " />
<path transform="translate( 0, 0 )" style="stroke: hsl(26.9, 55%, 50%);" id="278"  d=" M  0,0  L  0,108.75  C  -0,120.762  9.738,130.5  21.75,130.5  L  288.25,130.5  C  300.262,130.5  310,120.762  310,108.75  L  310,0  z " />
<path transform="translate( -0.0010000000000048, 0 )" style="stroke: hsl(53.8, 55%, 50%);" id="558"  d=" M  0,0  L  0,108.75  C  -0,120.762  9.738,130.5  21.75,130.5  L  288.251,130.5  C  300.263,130.5  310.001,120.762  310.001,108.75  L  310.001,0  z " />
<path transform="translate( 0, 0 )" style="stroke: hsl(80.7, 55%, 50%);" id="838"  d=" M  0,0  L  0,108.75  C  -0,120.762  9.738,130.5  21.75,130.5  L  288.25,130.5  C  300.262,130.5  310,120.762  310,108.75  L  310,0  z " />
<path transform="translate( -0.0010000000000048, 0 )" style="stroke: hsl(107.6, 55%, 50%);" id="1118"  d=" M  0,0  L  0,108.75  C  -0,120.762  9.738,130.5  21.75,130.5  L  288.251,130.5  C  300.263,130.5  310.001,120.762  310.001,108.75  L  310.001,0  z " />
<path transform="translate( 0, 0 )" style="stroke: hsl(134.5, 55%, 50%);" id="1398"  d=" M  0,0  L  0,108.75  C  -0,120.762  9.738,130.5  21.75,130.5  L  288.25,130.5  C  300.262,130.5  310,120.762  310,108.75  L  310,0  z " />
<path transform="translate( 0, 0 )" style="stroke: hsl(161.4, 55%, 50%);" id="1678"  d=" M  0,0  L  0,108.75  C  -0,120.762  9.738,130.5  21.75,130.5  L  288.25,130.5  C  300.262,130.5  310,120.762  310,108.75  L  310,0  z " />
<path transform="translate( 0, 0 )" style="stroke: hsl(188.3, 55%, 50%);" id="1958"  d=" M  0,0  L  0,108.75  C  -0,120.762  9.738,130.5  21.75,130.5  L  288.25,130.5  C  300.262,130.5  310,120.762  310,108.75  L  310,0  z " />
<path transform="translate( -0.0010000000000048, 0 )" style="stroke: hsl(215.2, 55%, 50%);" id="2238"  d=" M  0,0  L  0,108.75  C  -0,120.762  9.738,130.5  21.75,130.5  L  288.251,130.5  C  300.263,130.5  310.001,120.762  310.001,108.75  L  310.001,0  z " />
<path transform="translate( 0, 0 )" style="stroke: hsl(242.1, 55%, 50%);" id="2518"  d=" M  0,0  L  0,108.75  C  -0,120.762  9.738,130.5  21.75,130.5  L  288.249,130.5  C  300.261,130.5  309.999,120.762  309.999,108.75  L  309.999,0  z " />
<path transform="translate( 0, 0 )" style="stroke: hsl(269, 55%, 50%);" id="2798"  d=" M  0,0  L  0,108.75  C  -0,120.762  9.738,130.5  21.75,130.5  L  288.25,130.5  C  300.262,130.5  310,120.762  310,108.75  L  310,0  z " />
<path transform="translate( 0, 0 )" style="stroke: hsl(295.9, 55%, 50%);" id="3078"  d=" M  0,0  L  0,108.75  C  -0,120.762  9.738,130.5  21.75,130.5  L  288.25,130.5  C  300.262,130.5  310,120.762  310,108.75  L  310,0  z " />
    </g>
    <!-- End of group #cuffFacing -->
    
    <!-- Start of group #pocket -->
    <g id="pocket"  transform=" translate(-66.113 -522.5)  translate(1248.267 945.967) " >
        <path class="hidden" id="12"  d=" M  71.113,527.5  L  231.338,527.5  L  231.338,710.25  L  71.113,710.25  z " />
<path transform="translate( 0, 0 )" style="stroke: hsl(26.9, 55%, 50%);" id="279"  d=" M  71.113,527.5  L  71.113,660.25  C  71.113,687.864  93.499,710.25  121.113,710.25  L  181.338,710.25  C  208.952,710.25  231.338,687.864  231.338,660.25  L  231.338,527.5  L  71.113,527.5  z " />
<path transform="translate( 0, 0 )" style="stroke: hsl(53.8, 55%, 50%);" id="559"  d=" M  71.113,527.5  L  71.113,660.25  C  71.113,687.864  93.499,710.25  121.113,710.25  L  181.338,710.25  C  208.952,710.25  231.338,687.864  231.338,660.25  L  231.338,527.5  L  71.113,527.5  z " />
<path transform="translate( 0, 0 )" style="stroke: hsl(80.7, 55%, 50%);" id="839"  d=" M  71.113,527.5  L  71.113,660.25  C  71.113,687.864  93.499,710.25  121.113,710.25  L  181.338,710.25  C  208.952,710.25  231.338,687.864  231.338,660.25  L  231.338,527.5  L  71.113,527.5  z " />
<path transform="translate( 0, 0 )" style="stroke: hsl(107.6, 55%, 50%);" id="1119"  d=" M  71.113,527.5  L  71.113,660.25  C  71.113,687.864  93.499,710.25  121.113,710.25  L  181.338,710.25  C  208.952,710.25  231.338,687.864  231.338,660.25  L  231.338,527.5  L  71.113,527.5  z " />
<path transform="translate( 0, 0 )" style="stroke: hsl(134.5, 55%, 50%);" id="1399"  d=" M  71.113,527.5  L  71.113,660.25  C  71.113,687.864  93.499,710.25  121.113,710.25  L  181.338,710.25  C  208.952,710.25  231.338,687.864  231.338,660.25  L  231.338,527.5  L  71.113,527.5  z " />
<path transform="translate( 0, 0 )" style="stroke: hsl(161.4, 55%, 50%);" id="1679"  d=" M  71.113,527.5  L  71.113,660.25  C  71.113,687.864  93.499,710.25  121.113,710.25  L  181.338,710.25  C  208.952,710.25  231.338,687.864  231.338,660.25  L  231.338,527.5  L  71.113,527.5  z " />
<path transform="translate( 0, 0 )" style="stroke: hsl(188.3, 55%, 50%);" id="1959"  d=" M  71.113,527.5  L  71.113,660.25  C  71.113,687.864  93.499,710.25  121.113,710.25  L  181.338,710.25  C  208.952,710.25  231.338,687.864  231.338,660.25  L  231.338,527.5  L  71.113,527.5  z " />
<path transform="translate( 0, 0 )" style="stroke: hsl(215.2, 55%, 50%);" id="2239"  d=" M  71.113,527.5  L  71.113,660.25  C  71.113,687.864  93.499,710.25  121.113,710.25  L  181.338,710.25  C  208.952,710.25  231.338,687.864  231.338,660.25  L  231.338,527.5  L  71.113,527.5  z " />
<path transform="translate( 0, 0 )" style="stroke: hsl(242.1, 55%, 50%);" id="2519"  d=" M  71.113,527.5  L  71.113,660.25  C  71.113,687.864  93.499,710.25  121.113,710.25  L  181.338,710.25  C  208.952,710.25  231.338,687.864  231.338,660.25  L  231.338,527.5  L  71.113,527.5  z " />
<path transform="translate( 0, 0 )" style="stroke: hsl(269, 55%, 50%);" id="2799"  d=" M  71.113,527.5  L  71.113,660.25  C  71.113,687.864  93.499,710.25  121.113,710.25  L  181.338,710.25  C  208.952,710.25  231.338,687.864  231.338,660.25  L  231.338,527.5  L  71.113,527.5  z " />
<path transform="translate( 0, 0 )" style="stroke: hsl(295.9, 55%, 50%);" id="3079"  d=" M  71.113,527.5  L  71.113,660.25  C  71.113,687.864  93.499,710.25  121.113,710.25  L  181.338,710.25  C  208.952,710.25  231.338,687.864  231.338,660.25  L  231.338,527.5  L  71.113,527.5  z " />
    </g>
    <!-- End of group #pocket -->
    
    <!-- Start of group #pocketFlap -->
    <g id="pocketFlap"  transform=" translate(-65.059 -510.045)  translate(1418.492 945.967) " >
        <path class="hidden" id="13"  d=" M  70.059,515.045  L  232.392,515.045  L  232.392,581.13  L  70.059,581.13  z " />
<path transform="translate( 0, 0 )" style="stroke: hsl(26.9, 55%, 50%);" id="280"  d=" M  70.059,515.045  L  73.113,551.13  C  74.51,567.64  86.544,581.13  103.113,581.13  L  199.338,581.13  C  215.907,581.13  227.941,567.64  229.338,551.13  L  232.392,515.045  z " />
<path transform="translate( 0, 0 )" style="stroke: hsl(53.8, 55%, 50%);" id="560"  d=" M  70.059,515.045  L  73.113,551.13  C  74.51,567.64  86.544,581.13  103.113,581.13  L  199.338,581.13  C  215.907,581.13  227.941,567.64  229.338,551.13  L  232.392,515.045  z " />
<path transform="translate( 0, 0 )" style="stroke: hsl(80.7, 55%, 50%);" id="840"  d=" M  70.059,515.045  L  73.113,551.13  C  74.51,567.64  86.544,581.13  103.113,581.13  L  199.338,581.13  C  215.907,581.13  227.941,567.64  229.338,551.13  L  232.392,515.045  z " />
<path transform="translate( 0, 0 )" style="stroke: hsl(107.6, 55%, 50%);" id="1120"  d=" M  70.059,515.045  L  73.113,551.13  C  74.51,567.64  86.544,581.13  103.113,581.13  L  199.338,581.13  C  215.907,581.13  227.941,567.64  229.338,551.13  L  232.392,515.045  z " />
<path transform="translate( 0, 0 )" style="stroke: hsl(134.5, 55%, 50%);" id="1400"  d=" M  70.059,515.045  L  73.113,551.13  C  74.51,567.64  86.544,581.13  103.113,581.13  L  199.338,581.13  C  215.907,581.13  227.941,567.64  229.338,551.13  L  232.392,515.045  z " />
<path transform="translate( 0, 0 )" style="stroke: hsl(161.4, 55%, 50%);" id="1680"  d=" M  70.059,515.045  L  73.113,551.13  C  74.51,567.64  86.544,581.13  103.113,581.13  L  199.338,581.13  C  215.907,581.13  227.941,567.64  229.338,551.13  L  232.392,515.045  z " />
<path transform="translate( 0, 0 )" style="stroke: hsl(188.3, 55%, 50%);" id="1960"  d=" M  70.059,515.045  L  73.113,551.13  C  74.51,567.64  86.544,581.13  103.113,581.13  L  199.338,581.13  C  215.907,581.13  227.941,567.64  229.338,551.13  L  232.392,515.045  z " />
<path transform="translate( 0, 0 )" style="stroke: hsl(215.2, 55%, 50%);" id="2240"  d=" M  70.059,515.045  L  73.113,551.13  C  74.51,567.64  86.544,581.13  103.113,581.13  L  199.338,581.13  C  215.907,581.13  227.941,567.64  229.338,551.13  L  232.392,515.045  z " />
<path transform="translate( 0, 0 )" style="stroke: hsl(242.1, 55%, 50%);" id="2520"  d=" M  70.059,515.045  L  73.113,551.13  C  74.51,567.64  86.544,581.13  103.113,581.13  L  199.338,581.13  C  215.907,581.13  227.941,567.64  229.338,551.13  L  232.392,515.045  z " />
<path transform="translate( 0, 0 )" style="stroke: hsl(269, 55%, 50%);" id="2800"  d=" M  70.059,515.045  L  73.113,551.13  C  74.51,567.64  86.544,581.13  103.113,581.13  L  199.338,581.13  C  215.907,581.13  227.941,567.64  229.338,551.13  L  232.392,515.045  z " />
<path transform="translate( 0, 0 )" style="stroke: hsl(295.9, 55%, 50%);" id="3080"  d=" M  70.059,515.045  L  73.113,551.13  C  74.51,567.64  86.544,581.13  103.113,581.13  L  199.338,581.13  C  215.907,581.13  227.941,567.64  229.338,551.13  L  232.392,515.045  z " />
    </g>
    <!-- End of group #pocketFlap -->
    
    <!-- Start of group #chestPocketWelt -->
    <g id="chestPocketWelt"  transform=" translate(5 5)  translate(1571.567 140) " >
        <path class="hidden" id="14"  d=" M  0,0  L  33.15,0  L  33.15,147.56  L  0,147.56  z " />
<path transform="translate( 0, 0 )" style="stroke: hsl(26.9, 55%, 50%);" id="281"  d=" M  0,0  L  33.15,0  L  33.15,147.56  L  0,147.56  L  0,0  z " />
<path transform="translate( 0, 0 )" style="stroke: hsl(53.8, 55%, 50%);" id="561"  d=" M  0,0  L  33.15,0  L  33.15,147.56  L  0,147.56  L  0,0  z " />
<path transform="translate( 0, 0 )" style="stroke: hsl(80.7, 55%, 50%);" id="841"  d=" M  0,0  L  33.15,0  L  33.15,147.56  L  0,147.56  L  0,0  z " />
<path transform="translate( 0, 0 )" style="stroke: hsl(107.6, 55%, 50%);" id="1121"  d=" M  0,0  L  33.15,0  L  33.15,147.56  L  0,147.56  L  0,0  z " />
<path transform="translate( 0, 0 )" style="stroke: hsl(134.5, 55%, 50%);" id="1401"  d=" M  0,0  L  33.15,0  L  33.15,147.56  L  0,147.56  L  0,0  z " />
<path transform="translate( 0, 0 )" style="stroke: hsl(161.4, 55%, 50%);" id="1681"  d=" M  0,0  L  33.15,0  L  33.15,147.56  L  0,147.56  L  0,0  z " />
<path transform="translate( 0, 0 )" style="stroke: hsl(188.3, 55%, 50%);" id="1961"  d=" M  0,0  L  33.15,0  L  33.15,147.56  L  0,147.56  L  0,0  z " />
<path transform="translate( 0, 0 )" style="stroke: hsl(215.2, 55%, 50%);" id="2241"  d=" M  0,0  L  33.15,0  L  33.15,147.56  L  0,147.56  L  0,0  z " />
<path transform="translate( 0, 0 )" style="stroke: hsl(242.1, 55%, 50%);" id="2521"  d=" M  0,0  L  33.15,0  L  33.15,147.56  L  0,147.56  L  0,0  z " />
<path transform="translate( 0, 0 )" style="stroke: hsl(269, 55%, 50%);" id="2801"  d=" M  0,0  L  33.15,0  L  33.15,147.56  L  0,147.56  L  0,0  z " />
<path transform="translate( 0, 0 )" style="stroke: hsl(295.9, 55%, 50%);" id="3081"  d=" M  0,0  L  33.15,0  L  33.15,147.56  L  0,147.56  L  0,0  z " />
    </g>
    <!-- End of group #chestPocketWelt -->
    
    <!-- Start of group #sampler-frontPanel -->
    <g id="sampler-frontPanel" >
    </g>
    <!-- End of group #sampler-frontPanel -->
    
    <!-- Start of group #sampler-sidePanel -->
    <g id="sampler-sidePanel" >
    </g>
    <!-- End of group #sampler-sidePanel -->
    
    <!-- Start of group #sampler-back -->
    <g id="sampler-back" >
    </g>
    <!-- End of group #sampler-back -->
    
    <!-- Start of group #sampler-tail -->
    <g id="sampler-tail" >
    </g>
    <!-- End of group #sampler-tail -->
    
    <!-- Start of group #sampler-topsleeve -->
    <g id="sampler-topsleeve" >
    </g>
    <!-- End of group #sampler-topsleeve -->
    
    <!-- Start of group #sampler-undersleeve -->
    <g id="sampler-undersleeve" >
    </g>
    <!-- End of group #sampler-undersleeve -->
    
    <!-- Start of group #sampler-belt -->
    <g id="sampler-belt" >
    </g>
    <!-- End of group #sampler-belt -->
    
    <!-- Start of group #sampler-collarStand -->
    <g id="sampler-collarStand" >
    </g>
    <!-- End of group #sampler-collarStand -->
    
    <!-- Start of group #sampler-collar -->
    <g id="sampler-collar" >
    </g>
    <!-- End of group #sampler-collar -->
    
    <!-- Start of group #sampler-cuffFacing -->
    <g id="sampler-cuffFacing" >
    </g>
    <!-- End of group #sampler-cuffFacing -->
    
    <!-- Start of group #sampler-pocket -->
    <g id="sampler-pocket" >
    </g>
    <!-- End of group #sampler-pocket -->
    
    <!-- Start of group #sampler-pocketFlap -->
    <g id="sampler-pocketFlap" >
    </g>
    <!-- End of group #sampler-pocketFlap -->
    
    <!-- Start of group #sampler-chestPocketWelt -->
    <g id="sampler-chestPocketWelt" >
    </g>
    <!-- End of group #sampler-chestPocketWelt -->
</g>
<!-- End of group #patternContainer -->

</svg>

