<?xml version="1.0" encoding="UTF-8" standalone="no"?>
<!-- Created with Inkscape (http://www.inkscape.org/) -->

<svg
   xmlns:dc="http://purl.org/dc/elements/1.1/"
   xmlns:cc="http://creativecommons.org/ns#"
   xmlns:rdf="http://www.w3.org/1999/02/22-rdf-syntax-ns#"
   xmlns:svg="http://www.w3.org/2000/svg"
   xmlns="http://www.w3.org/2000/svg"
   xmlns:sodipodi="http://sodipodi.sourceforge.net/DTD/sodipodi-0.dtd"
   xmlns:inkscape="http://www.inkscape.org/namespaces/inkscape"
   width="500"
   height="542.886"
   id="svg2916"
   version="1.1"
   inkscape:version="0.47 r22583"
   sodipodi:docname="charles-white.svg">
  <defs
     id="defs2918">
    <inkscape:perspective
       sodipodi:type="inkscape:persp3d"
       inkscape:vp_x="0 : 526.181 : 1"
       inkscape:vp_y="0 : 1000 : 0"
       inkscape:vp_z="744.094 : 526.181 : 1"
       inkscape:persp3d-origin="372.047 : 350.787 : 1"
       id="perspective2924" />
    <inkscape:perspective
       id="perspective2911"
       inkscape:persp3d-origin="0.5 : 0.333333 : 1"
       inkscape:vp_z="1 : 0.5 : 1"
       inkscape:vp_y="0 : 1000 : 0"
       inkscape:vp_x="0 : 0.5 : 1"
       sodipodi:type="inkscape:persp3d" />
    <inkscape:perspective
       id="perspective3757"
       inkscape:persp3d-origin="0.5 : 0.333333 : 1"
       inkscape:vp_z="1 : 0.5 : 1"
       inkscape:vp_y="0 : 1000 : 0"
       inkscape:vp_x="0 : 0.5 : 1"
       sodipodi:type="inkscape:persp3d" />
  </defs>
  <sodipodi:namedview
     id="base"
     pagecolor="#ffffff"
     bordercolor="#666666"
     borderopacity="1.0"
     inkscape:pageopacity="0.0"
     inkscape:pageshadow="2"
     inkscape:zoom="0.35"
     inkscape:cx="-599.863"
     inkscape:cy="142.4"
     inkscape:document-units="px"
     inkscape:current-layer="layer1"
     showgrid="false"
     inkscape:window-width="1920"
     inkscape:window-height="1061"
     inkscape:window-x="-4"
     inkscape:window-y="-4"
     inkscape:window-maximized="0" />
  <metadata
     id="metadata2921">
    <rdf:RDF>
      <cc:Work
         rdf:about="">
        <dc:format>image/svg+xml</dc:format>
        <dc:type
           rdf:resource="http://purl.org/dc/dcmitype/StillImage" />
        <dc:title></dc:title>
      </cc:Work>
    </rdf:RDF>
  </metadata>
  <g
     inkscape:label="Layer 1"
     inkscape:groupmode="layer"
     id="layer1"
     transform="translate(-447.72,-131.876)">
    <path
       inkscape:export-ydpi="84.36"
       inkscape:export-xdpi="84.36"
       inkscape:export-filename="/home/comadmin/joost/sidebyside.png"
       id="path9184-0"
       d="M 824.638,131.867 C 813.448,139.817 814.022,138.808 804.994,141.756 784.272,148.527 764.396,144.804 740.818,142.84 733.718,142.044 726.686,141.582 719.819,141.529 685.153,141.306 655.724,151.474 650.134,179.858 639.856,186.087 630.406,193.64 621.041,201.185 601.038,216.962 585.994,236.256 575.716,259.488 561.692,293.815 574.362,330.66 580.636,365.449 582.136,373.593 583.685,381.35 584.534,384.344 585.721,388.567 587.818,392.599 590.086,396.209 590.615,396.305 593.414,391.984 594.088,390.06 595.063,387.281 594.957,382.829 593.899,378.967 591.548,370.324 589.3,363.294 589.111,359.768 588.768,353.136 590.06,347.026 592.478,343.987 593.346,342.917 595.3,348.46 594.806,350.526 594.194,352.994 593.751,357.234 593.94,359.192 594.469,365.824 595.444,372.913 596.654,379.102 598.198,387.103 598.879,392.245 598.58,394.232 598.391,395.68 597.711,397.139 595.107,401.621 592.84,405.547 591.673,408.725 591.484,411.522 591.291,414.266 592.12,421.105 592.882,422.781 594.007,425.389 597.372,428.135 600.319,428.809 603.137,429.898 604.555,432.123 605.998,434.627 609.513,441.327 612.229,449.49 614.916,461.805 616.231,467.689 617.331,472.945 617.674,475.715 595.974,475.729 568.154,475.742 542.813,475.742 534.296,475.878 518.89,471.88 504.758,470.949 502.705,448.844 493.001,423.179 476.408,421.679 465.073,420.662 455.663,424.963 447.72,442.861 L 447.951,443.825 C 452.636,439.907 457.594,427.913 475.434,428.733 489.142,429.358 493.719,455.298 495.073,470.905 486.729,471.517 479.631,474.089 475.921,480.495 L 475.838,480.495 C 475.838,480.514 475.838,480.533 475.877,480.552 475.838,480.571 475.838,480.594 475.838,480.615 L 475.921,480.615 C 479.737,487.188 487.11,489.73 495.753,490.241 501.537,653.68 655.154,674.762 697.15,674.762 853.771,674.762 908.605,568.333 916.847,526.174 920.705,544.137 908.567,567.02 905.662,583.906 938.692,545.705 932.721,508.992 926.683,472.039 931.702,478.02 938.503,481.723 947.72,479.664 941.152,475.28 932.234,478.357 926.894,459.841 924.56,451.844 922.549,445.859 920.557,440.825 916.235,424.614 910.09,409.125 902.567,394.04 896.21,377.674 900.405,367.063 899.77,353.009 911.213,390.726 918.351,400.762 931.702,404.708 898.138,364.262 909.622,301.641 890.657,245.741 899.242,250.786 909.029,252.305 919.457,246.133 909.372,243.262 899.306,250.85 884.832,229.571 872.609,205.794 854.894,188.221 833.407,172.728 821.885,165.225 809.107,160.178 796.263,155.487 809.34,152.212 823.957,140.565 824.638,131.867 z M 802.689,257.496 C 819.913,263.785 838.92,287.67 838.708,311.108 L 838.708,312.074 838.708,312.407 C 838.24,344.242 823.771,361.357 824.383,382.549 825.169,407.515 835.909,416.219 838.052,420.382 834.386,404.996 832.244,385.622 837.073,370.286 843.304,350.568 849.574,334.228 849.131,318.778 848.9,315.161 847.351,301.627 846.334,295.626 864.81,322.293 842.329,361.088 848.792,386.456 860.045,430.671 910.427,436.267 895.428,525.347 882.226,603.653 791.798,663.087 699.097,663.087 630.364,663.087 511.284,625.055 505.396,490.124 519.377,489.133 534.383,485.245 542.813,485.374 568.279,485.374 597.372,485.393 619.304,485.404 623.414,503.977 626.505,508.463 642.123,520.824 659.495,534.486 663.542,536.159 689.245,536.409 714.948,536.659 722.578,531.153 747.514,507.56 752.895,501.252 755.226,492.978 757.832,485.211 783.486,484.974 802.202,484.52 820.593,483.673 839.344,482.815 841.992,483.662 872.185,480.552 841.992,477.441 839.344,478.289 820.593,477.431 802.689,476.611 784.548,476.157 760.012,475.926 762.068,466.693 765.015,457.656 768.149,448.734 770.079,443.477 772.346,438.354 774.674,433.256 L 777.217,432.455 C 782.133,430.72 786.478,426.991 788.213,421.936 790.438,415.266 788.851,407.75 784.548,402.282 783.067,400.246 781.219,397.631 780.459,396.466 778.192,392.881 778.128,390.874 780.058,377.505 781.668,366.3 781.857,360.45 780.734,354.774 780.501,351.524 780.482,344.852 780.376,343.051 781.245,343.534 783.107,347.778 784.993,353.528 786.879,359.315 787.177,360.516 787.601,365.436 788.088,371.021 785.991,375.172 784.272,383.501 783.406,387.798 782.662,391.792 782.662,392.332 782.662,392.91 783.067,394.131 783.486,395.09 784.506,397.211 786.391,400.188 786.732,400.188 792.898,393.402 796.519,385.005 799.742,376.492 803.132,366.841 804.126,356.622 806.499,346.71 808.427,338.063 810.651,329.41 811.332,320.543 812.73,303.237 811.906,291.022 808.09,273.006 807.179,268.927 804.53,261.158 802.689,257.496 z M 742.068,342.746 C 748.681,342.659 755.226,343.464 761.455,345.263 769.928,348.5 771.115,356.077 772.683,364.569 773.551,369.991 773.509,373.898 772.534,380.274 771.835,389.518 768.17,396.69 760.137,401.722 748.024,403.958 735.074,406.117 724.8,398.091 716.177,386.225 710.988,371.216 712.975,356.584 714.227,350.579 717.026,347.447 722.766,345.581 728.953,343.816 735.498,342.837 742.068,342.746 z M 641.591,343.816 C 647.78,343.748 654.031,344.405 657.465,346.604 672.233,356.592 667.487,372.843 661.66,387.103 653.162,405.78 634.792,405.1 616.994,404.934 607.14,402.053 606.229,393.982 604.811,385.357 603.58,377.017 600.995,368.082 603.156,359.703 608.731,346.223 629.114,344.668 641.591,343.816 z M 866.695,346.136 C 866.782,382.02 872.903,399.656 885.212,425.071 877.967,411.242 867.609,403.362 863.75,386.834 856.379,354.91 864.322,356.694 866.695,346.136 z M 687.846,372.123 C 689.794,374.093 690.73,376.812 692.423,378.967 693.715,376.744 695.052,374.534 696.726,372.557 697.593,372.572 698.654,374.292 699.629,377.365 703.737,388.745 704.545,401.265 709.882,412.198 714.861,420.122 708.06,424.737 700.585,425.099 695.139,425.088 692.828,421.361 689.626,417.675 688.8,420.084 687.234,421.639 685.348,423.264 680.577,427.271 671.216,425.79 669.773,419.48 671.703,407.42 677.848,396.341 681.869,384.797 683.861,380.573 683.886,377.337 687.846,372.123 z M 617.818,433.03 C 620.234,433.03 626.847,437.526 628.184,440.068 629.114,441.75 631.232,448.3 631.381,449.897 631.612,451.806 631.044,456.307 630.451,457.523 630.025,458.4 629.684,458.521 629.196,457.961 628.777,457.482 623.226,446.848 619.704,439.812 616.907,434.174 616.613,433.03 617.818,433.03 z M 756.054,436.555 C 756.137,436.566 756.285,436.595 756.393,436.634 757.152,436.941 756.624,439.581 753.828,449.202 753.296,452.094 752.003,454.378 750.118,456.287 749.486,456.287 749.211,455.554 748.232,451.541 747.408,448.117 747.325,445.06 747.895,442.329 748.893,438.901 752.914,437.841 756.054,436.555 z M 739.269,457.508 C 739.507,457.474 739.738,457.599 740.032,457.826 741.049,458.544 741.2,460.415 740.52,464.095 739.695,468.822 739.507,469.348 738.297,469.835 737.765,470.062 736.816,470.244 736.178,470.244 735.036,470.036 734.737,469.106 735.011,467.699 735.011,464.767 735.879,462.209 737.81,459.194 738.551,458.052 738.933,457.565 739.269,457.508 z M 641.636,457.735 C 642.422,457.735 644.769,459.427 645.638,460.599 646.613,461.843 647.717,469.252 647.1,470.53 646.382,472.132 642.909,471.335 641.934,469.339 641.36,468.142 639.962,461.669 639.962,460.131 639.962,458.703 640.642,457.735 641.636,457.735 z M 730.883,459.692 C 731.832,461.042 732.089,462.788 731.877,466.608 L 731.688,470.091 730.69,471.089 C 730.097,471.634 729.078,472.318 728.466,472.608 727.112,473.231 726.093,473.289 725.9,472.778 725.669,472.102 726.05,467.786 726.474,466.324 726.961,464.813 729.142,460.339 729.864,459.375 730.203,458.51 730.585,459.599 730.883,459.692 z M 674.096,459.48 C 676.149,460.004 677.043,461.849 678.166,463.521 L 678.928,465.013 677.867,468.706 C 677.297,470.742 676.704,472.575 676.511,472.778 676.318,473.013 675.555,473.13 674.437,473.104 671.447,473.032 671.11,472.907 670.305,471.691 L 669.561,470.572 670.197,467.473 C 671.11,462.991 671.553,461.635 672.57,460.493 673.102,459.862 673.632,459.527 674.096,459.48 z M 655.198,462.678 656.891,464.366 657.166,468.18 C 657.315,470.265 657.378,472.189 657.272,472.43 657.166,472.767 656.554,472.85 654.668,472.85 L 652.208,472.85 C 650.895,471.422 650.49,469.653 649.941,467.848 648.649,462.413 648.649,459.928 649.984,459.601 652.164,459.741 653.607,461.328 655.198,462.678 z M 720.794,460.067 C 723.465,460.779 722.934,465.027 722.915,468.055 722.722,472.96 722.533,473.977 721.897,474.615 720.794,475.715 717.745,475.096 716.259,473.467 715.772,472.892 715.734,472.704 716.115,470.318 716.558,467.413 717.128,465.6 718.38,463.116 719.293,461.322 720.16,460.203 720.794,460.067 z M 660.556,460.294 C 660.707,460.286 660.938,460.29 661.169,460.309 662.866,460.445 664.453,461.563 665.851,463.599 L 666.976,465.267 C 667.082,467.994 666.976,470.854 666.489,473.395 666.195,473.543 664.985,473.765 663.779,473.878 661.698,474.07 661.512,474.026 660.787,473.395 659.775,472.53 659.495,470.935 659.245,465.644 659.094,461.322 659.2,460.362 660.556,460.294 z M 686.215,461.201 C 688.039,461.582 689.2,462.557 689.694,464.152 690.114,465.519 690.368,473.183 689.967,473.708 689.819,473.939 688.969,474.223 687.995,474.344 684.329,474.804 681.088,474.465 680.77,473.587 680.369,472.589 683.081,462.735 684.098,461.502 684.522,460.55 685.56,461.294 686.215,461.201 z M 709.945,461.275 C 710.751,461.192 711.619,461.964 712.448,463.599 713.124,464.972 713.23,465.436 713.23,468.509 713.23,470.954 713.081,472.005 712.829,472.231 712.594,472.405 711.683,472.738 710.708,472.983 709.015,473.433 708.634,473.471 708.102,473.289 L 705.562,472.82 705.75,471.316 C 705.943,469.339 707.235,464.953 708.147,463.04 708.695,461.921 709.31,461.341 709.945,461.275 z M 698.885,461.303 C 699.417,461.284 699.671,461.409 700.01,461.771 700.816,462.731 701.833,465.538 702.47,468.538 703.337,472.748 703.337,472.744 701.491,473.289 700.684,473.539 698.991,473.799 697.786,473.863 693.779,474.07 693.485,473.837 693.972,470.303 694.353,467.159 695.9,462.209 696.576,461.847 697.298,461.462 698.125,461.468 698.885,461.303 z M 495.374,477.238 C 495.416,477.234 495.461,477.238 495.461,477.238 495.56,479.452 495.56,481.668 495.605,483.885 490.015,483.465 485.901,482.128 485.901,480.552 485.901,478.999 489.865,477.677 495.374,477.238 z M 505.165,477.431 C 509.697,477.99 512.832,479.177 512.769,480.552 512.769,481.927 509.737,483.107 505.245,483.673 505.203,481.592 505.203,479.511 505.165,477.431 z M 716.959,483.463 C 717.34,483.433 717.514,483.382 718.107,483.446 720.455,483.688 720.794,483.832 720.794,484.622 720.794,485.669 719.014,488.794 717.808,489.885 717.234,490.43 716.452,490.879 716.177,490.879 714.821,490.879 714.035,488.023 714.672,485.374 715.054,483.961 715.753,483.516 716.959,483.463 z M 708.422,484.395 C 709.484,484.308 710.496,484.584 711.513,484.728 711.219,487.701 709.882,490.141 707.403,491.752 706.791,491.752 706.492,490.584 706.492,488.042 706.492,485.008 706.642,484.425 708.422,484.395 z M 699.055,485.495 C 701.239,485.495 703.163,485.597 703.25,485.722 703.657,486.103 702.489,489.025 700.752,491.991 699.267,494.631 699.055,494.809 698.144,494.885 694.546,494.481 694.646,490.264 694.097,487.366 694.097,485.65 694.478,485.495 699.055,485.495 z M 665.027,485.828 C 667.525,485.861 668.5,486.239 668.5,487.198 668.5,488.427 667.57,490.858 667.038,491.163 666.233,491.601 666.171,491.582 664.584,489.927 662.08,487.124 661.807,486.607 665.027,485.828 z M 677.062,485.948 C 677.104,486.016 677.592,486.893 678.079,487.893 679.14,489.957 679.223,490.868 678.46,491.553 676.68,492.572 676.299,492.002 674.689,490.966 672.803,489.194 671.322,486.806 671.809,486.311 673.483,485.713 675.324,485.938 677.062,485.948 z M 681.831,485.997 686.302,486.084 C 688.039,486.084 689.544,486.179 689.626,486.311 689.925,486.59 688.95,492.402 688.421,493.709 687.806,495.18 685.666,495.193 684.56,493.447 682.975,490.953 681.937,488.847 681.895,487.402 L 681.831,485.997 z"
       style="fill:#000000;fill-opacity:1;stroke:none"
       sodipodi:nodetypes="ccccccccccccccccccccccccccccccccccscccsccccccccccccccccccccccccccsccccsccccccccccccccccccsccccccccccccccccccccccccccccccccccccccccccccccsccccccccccccccccsscccccsccccccccccccccccccccccccccccccccsccccccccccssccccscccccccccccsccccccscccccccscscccccsccccccccscccccccccccccccc" />
  </g>
</svg>
