<svg xmlns="http://www.w3.org/2000/svg" width="500" height="623" viewbox="0 0 500 623">
  <style type="text/css">
  <![CDATA[
  path{fill:#5C3566;fill-opacity:1;stroke:#292b2c;stroke-width:4;stroke-linecap:round;stroke-linejoin:round;stroke-opacity:1;}
  .sm{stroke-width:2;}
  #inside{fill:#86739c;}
  .no-fill{fill:none;}
  #buttons circle{stroke:none;fill:#292b2c;}
  ]]>
  </style>
    <rect width="92.5" height="56.6" x="204.3" y="21" id="inside"/>
  <g id="fabric">
    <path        d="M 299.2527058,13.3013857 C 299.2527058,-4.1479016 199.2295944,0.8167492 199.2295944,13.3013857 L 199.2295944,34.4011516 C 242.3052409,15.7107015 271.5090691,23.6687447 299.2527058,34.4011516 L 299.2527058,13.3013857 z" />
    <path        d="M 250.3362937,65.7952668 264.9382078,65.7952668 C 267.1284949,65.7952668 270.0488777,65.5762381 272.2391648,65.1381807 274.4294519,65.5762381 276.619739,65.7952668 279.5401218,65.7952668 L 286.1109832,65.7952668 286.1109832,600.8093985 114.5384927,600.8093985 C 109.4278228,600.8093985 81.68455112,600.8093185 81.68455112,600.8093185 81.68455112,600.8093185 78.7641683,550.2137664 81.68455112,524.3683785 83.14474252,508.7443304 94.82590874,457.5646216 94.82590874,394.5573623 94.82590874,305.901841 86.794856,243.1793191 86.794856,221.0136135 93.36571733,221.0136135 75.11332473,203.1262687 80.22399466,195.5332734 89.71523881,180.2012636 91.90552592,155.5240288 91.90552592,126.7582581 91.90552592,97.8464682 93.36571733,55.06286 92.63562163,47.9809316 L 198.4994987,31.8458166 C 198.4994987,46.228702 208.7208385,65.7952668 250.3362937,65.7952668 z"
 />
    <path d="M 243.7654323,61.1956639 243.7654323,600.8093985 386.1340946,600.8093985 C 391.2447645,600.8093985 420.4483007,600.8093185 420.4483007,600.8093185 420.4483007,600.8093185 423.3686835,550.4327951 420.4483007,524.5874072 418.2580136,508.9633592 406.5767743,446.1751286 406.5767743,383.1678694 406.5767743,294.512348 413.8777314,247.0415253 413.8777314,224.6786939 418.9884013,225.8979538 424.8291669,203.1262687 420.4485927,195.5332734 410.9573486,180.2012636 408.0369657,155.5240288 408.0369657,126.7582581 408.0369657,97.8464682 406.5767743,55.06286 408.0369657,47.9809316 L 301.442993,31.8458166 C 301.442993,45.8636541 283.1906004,57.3991662 244.495528,58.4213002 243.0353366,58.4213002 245.2256237,61.1956639 243.7654323,61.1956639 z"
  />
    <path d="M 302.9031844,35.7883334 299.2527058,13.7394431 C 299.2527058,22.7196203 290.4915574,41.8481277 253.9867722,58.2022715 L 269.318782,86.7490135 C 286.8410789,69.2267166 300.7128972,49.7331613 302.9031844,35.7883334 z" />
    <path d="M 196.3092116,35.7883334 200.6897858,11.9872134 C 200.6897858,27.2462137 210.18103,41.8481277 247.4159109,58.2022715 L 229.893614,86.7490135 C 212.3713171,69.2267166 198.4994987,49.7331613 196.3092116,35.7883334 z" />
    <path d="M 407.1477092,47.0056698 C 421.1775933,47.0056698 441.7140903,75.065438 452.8973313,114.8371095 484.0070743,226.1001903 506.7802195,544.9242232 495.8003102,573.7973175 495.8003102,588.4371975 495.3936469,607.7537045 495.1903152,621.1735935 L 442.1207537,621.1735935 C 442.1207537,607.5503725 442.1207537,589.0471915 442.1207537,574.4073125 434.8008141,537.1976203 434.1908192,467.8615265 421.5842566,335.0859567 420.1609351,299.9095806 416.5009653,225.4901954 409.1810258,196.6577669 389.661187,163.0063782 401.2510913,71.2021366 407.1477092,47.0056698 z" />
    <path d="M 93.52487815,47.0056698 C 79.49499405,47.0056698 58.95849704,75.065438 47.77525609,114.8371095 16.66551309,226.1001903 -6.310963765,554.8874742 4.872277183,573.7973175 4.872277183,588.4371975 5.27894049,607.7537045 5.48227214,621.1735935 L 58.55183373,621.1735935 C 58.55183373,607.5503725 58.55183373,589.0471915 58.55183373,574.4073125 66.88843153,554.4808109 69.32841137,467.0481998 81.73164224,335.0859567 83.15496382,299.9095806 84.17162209,225.4901954 91.49156162,196.6577669 111.0114003,163.0063782 99.4214961,71.2021366 93.52487815,47.0056698 z" />
  </g>
  <path id="seams" d="M 4.875,574.4062505 58.34375,574.4062505 4.875,574.4062505 z M 442.3125,574.4062505 495.8125,574.4062505 442.3125,574.4062505 z" />
  <g id="buttons">
    <circle cx="250" cy="65"  r="3" />
    <circle cx="250" cy="115"  r="3" />
    <circle cx="250" cy="165"  r="3" />
    <circle cx="250" cy="215"  r="3" />
    <circle cx="250" cy="265"  r="3" />
    <circle cx="250" cy="315"  r="3" />
    <circle cx="250" cy="365"  r="3" />
    <circle cx="250" cy="415"  r="3" />
    <circle cx="250" cy="465"  r="3" />
  </g>
</svg>
