<?xml version="1.0" encoding="UTF-8" standalone="no"?>
<svg
    xmlns="http://www.w3.org/2000/svg"
    xmlns:svg="http://www.w3.org/2000/svg"
    xmlns:xlink="http://www.w3.org/1999/xlink"
    xmlns:freesewing="http://freesewing.org/namespaces/freesewing" viewBox ="0 0 595 696"
    width ="595mm"
    height ="696mm"
    freesewing:version ="1.8.0"
    freesewing:origin ="core.she.freesewing.org" 
>

<style type="text/css">
    <![CDATA[
    path { fill: none; stroke: #000000; stroke-opacity:1; stroke-width: 0.5; stroke-miterlimit:4; stroke-dashoffset:0; stroke-linecap:round; stroke-linejoin:round; }
    path.hidden { fill: none; stroke: none; }]]>
</style>


<!-- Start of group #patternContainer -->
<g id="patternContainer" >
    
    <!-- Start of group #frontBlock -->
    <g id="frontBlock" >
    </g>
    <!-- End of group #frontBlock -->
    
    <!-- Start of group #backBlock -->
    <g id="backBlock" >
    </g>
    <!-- End of group #backBlock -->
    
    <!-- Start of group #waistcoatFrontBlock -->
    <g id="waistcoatFrontBlock" >
    </g>
    <!-- End of group #waistcoatFrontBlock -->
    
    <!-- Start of group #front -->
    <g id="front"  transform=" translate(15 1.676)  translate(0 0) " >
        <path class="hidden" id="2"  d=" M  -10,3.324  L  289.94,3.324  L  289.94,688.907  L  -10,688.907  z " />
<path transform="translate( 0, 0 )" style="stroke: hsl(26.9, 55%, 50%);" id="32"  d=" M  162.214,525.831  L  211.435,517.037  214.073,531.803  163.555,540.771  M  129.376,542.499  L  80.927,547.359  79.447,532.432  129.203,527.5 " />
<path transform="translate( 0, 0 )" style="stroke: hsl(26.9, 55%, 50%);" id="33"  d=" M  -10,284.35  L  -10,621.094  L  57.813,688.907  C  64.406,682.314  89.932,672.716  130.625,665.483  L  130.625,640  C  130.625,615  129.062,538.75  129.062,505  C  129.062,469.837  137.5,364.35  137.5,364.35  C  137.5,364.35  156.537,468.448  160.084,503.431  C  163.489,537.009  169.626,613.028  172.148,637.9  L  174.49,660.991  C  205.98,652.898  244.592,645.631  289.94,641.033  L  288.427,626.11  C  284.896,591.288  275.104,525.691  271.699,492.114  C  268.151,457.13  277.846,385.461  274.299,350.479  C  260.258,351.902  238.558,347.868  222.147,334.479  C  205.737,321.09  183.55,250.4  183.55,194.675  C  183.55,138.95  216.835,42.84  219.109,33.102  L  91.569,3.324  C  88.245,23.046  91.847,104  -10,284.35  z " />
<path transform="translate( 0, 0 )" style="stroke: hsl(53.8, 55%, 50%);" id="65"  d=" M  161.986,525.865  L  211.219,517.141  213.837,531.911  163.306,540.807  M  129.376,542.499  L  80.927,547.359  79.447,532.432  129.203,527.5 " />
<path transform="translate( 0, 0 )" style="stroke: hsl(53.8, 55%, 50%);" id="66"  d=" M  -10,284.35  L  -10,621.094  L  57.813,688.907  C  64.406,682.314  89.932,672.716  130.625,665.483  L  130.625,640  C  130.625,615  129.062,538.75  129.062,505  C  129.062,469.837  137.5,364.35  137.5,364.35  C  137.5,364.35  156.39,468.474  159.888,503.463  C  163.245,537.046  169.275,613.073  171.762,637.949  L  174.071,661.043  C  205.573,652.994  244.195,645.782  289.55,641.248  L  288.058,626.322  C  284.576,591.496  274.876,525.885  271.518,492.303  C  268.02,457.314  277.816,385.659  274.318,350.672  C  260.626,352.04  239.318,348.054  223.235,334.895  C  207.152,321.736  184.96,250.4  184.96,194.675  C  184.96,138.95  216.897,42.84  219.17,33.102  L  91.569,3.324  C  88.245,23.046  91.847,104  -10,284.35  z " />
<path transform="translate( 0, 0 )" style="stroke: hsl(80.7, 55%, 50%);" id="98"  d=" M  161.763,525.899  L  211.009,517.243  213.606,532.016  163.063,540.843  M  129.376,542.499  L  80.927,547.359  79.447,532.432  129.203,527.5 " />
<path transform="translate( 0, 0 )" style="stroke: hsl(80.7, 55%, 50%);" id="99"  d=" M  -10,284.35  L  -10,621.094  L  57.813,688.907  C  64.406,682.314  89.932,672.716  130.625,665.483  L  130.625,640  C  130.625,615  129.062,538.75  129.062,505  C  129.062,469.837  137.5,364.35  137.5,364.35  C  137.5,364.35  156.246,468.5  159.696,503.494  C  163.007,537.081  168.933,613.116  171.385,637.996  L  173.662,661.093  C  205.175,653.087  243.807,645.929  289.168,641.457  L  287.697,626.529  C  284.263,591.698  274.653,526.074  271.342,492.487  C  267.892,457.494  277.786,385.852  274.337,350.86  C  260.993,352.176  240.066,348.242  224.316,335.318  C  208.565,322.394  186.37,250.4  186.37,194.675  C  186.37,138.95  216.96,42.841  219.232,33.102  L  91.569,3.324  C  88.245,23.046  91.847,104  -10,284.35  z " />
<path transform="translate( 0, 0 )" style="stroke: hsl(107.6, 55%, 50%);" id="131"  d=" M  161.543,525.932  L  210.8,517.343  213.376,532.12  162.822,540.877  M  129.376,542.499  L  80.927,547.359  79.447,532.432  129.203,527.5 " />
<path transform="translate( 0, 0 )" style="stroke: hsl(107.6, 55%, 50%);" id="132"  d=" M  -10,284.35  L  -10,621.094  L  57.813,688.907  C  64.406,682.314  89.932,672.716  130.625,665.483  L  130.625,640  C  130.625,615  129.062,538.75  129.062,505  C  129.062,469.837  137.5,364.35  137.5,364.35  C  137.5,364.35  156.104,468.526  159.506,503.524  C  162.771,537.115  168.593,613.159  171.011,638.042  L  173.257,661.142  C  204.78,653.18  243.422,646.074  288.789,641.664  L  287.338,626.734  C  283.952,591.898  274.432,526.262  271.167,492.67  C  267.765,457.672  277.757,386.044  274.355,351.047  C  261.361,352.31  240.807,348.433  225.39,335.748  C  209.973,323.063  187.78,250.4  187.78,194.675  C  187.78,138.95  217.022,42.841  219.293,33.102  L  91.569,3.324  C  88.245,23.046  91.847,104  -10,284.35  z " />
<path transform="translate( 0, 0 )" style="stroke: hsl(134.5, 55%, 50%);" id="164"  d=" M  161.327,525.964  L  210.595,517.441  213.152,532.221  162.586,540.911  M  129.376,542.499  L  80.927,547.359  79.447,532.432  129.203,527.5 " />
<path transform="translate( 0, 0 )" style="stroke: hsl(134.5, 55%, 50%);" id="165"  d=" M  -10,284.35  L  -10,621.094  L  57.813,688.907  C  64.406,682.314  89.932,672.716  130.625,665.483  L  130.625,640  C  130.625,615  129.062,538.75  129.062,505  C  129.062,469.837  137.5,364.35  137.5,364.35  C  137.5,364.35  155.965,468.551  159.32,503.553  C  162.541,537.149  168.261,613.2  170.646,638.086  L  172.861,661.189  C  204.395,653.269  243.046,646.215  288.419,641.866  L  286.988,626.934  C  283.648,592.094  274.216,526.444  270.995,492.848  C  267.64,457.846  277.728,386.231  274.373,351.23  C  261.728,352.442  241.54,348.625  226.459,336.182  C  211.378,323.739  189.19,250.4  189.19,194.675  C  189.19,138.95  217.086,42.841  219.355,33.102  L  91.569,3.324  C  88.245,23.046  91.847,104  -10,284.35  z " />
<path transform="translate( 0, 0 )" style="stroke: hsl(161.4, 55%, 50%);" id="197"  d=" M  161.115,525.995  L  210.395,517.536  212.933,532.32  162.355,540.944  M  129.376,542.499  L  80.927,547.359  79.447,532.432  129.203,527.5 " />
<path transform="translate( 0, 0 )" style="stroke: hsl(161.4, 55%, 50%);" id="198"  d=" M  -10,284.35  L  -10,621.094  L  57.813,688.907  C  64.406,682.314  89.932,672.716  130.625,665.483  L  130.625,640  C  130.625,615  129.062,538.75  129.062,505  C  129.062,469.837  137.5,364.35  137.5,364.35  C  137.5,364.35  155.829,468.575  159.138,503.582  C  162.314,537.182  167.935,613.24  170.288,638.129  L  172.472,661.235  C  204.016,653.357  242.677,646.353  288.056,642.063  L  286.644,627.13  C  283.35,592.285  274.003,526.623  270.827,493.023  C  267.518,458.016  277.699,386.415  274.39,351.409  C  262.094,352.571  242.262,348.818  227.521,336.624  C  212.78,324.429  190.6,250.4  190.6,194.675  C  190.6,138.95  217.142,42.743  219.403,33.002  L  91.569,3.324  C  88.245,23.046  91.847,104  -10,284.35  z " />
<path transform="translate( 0, 0 )" style="stroke: hsl(188.3, 55%, 50%);" id="230"  d=" M  160.905,526.025  L  210.196,517.631  212.714,532.418  162.125,540.976  M  129.376,542.499  L  80.927,547.359  79.447,532.432  129.203,527.5 " />
<path transform="translate( 0, 0 )" style="stroke: hsl(188.3, 55%, 50%);" id="231"  d=" M  -10,284.35  L  -10,621.094  L  57.813,688.907  C  64.406,682.314  89.932,672.716  130.625,665.483  L  130.625,640  C  130.625,615  129.062,538.75  129.062,505  C  129.062,469.837  137.5,364.35  137.5,364.35  C  137.5,364.35  155.693,468.598  158.957,503.61  C  162.09,537.214  167.611,613.28  169.932,638.172  L  172.086,661.281  C  203.641,653.443  242.31,646.489  287.695,642.258  L  286.302,627.323  C  283.053,592.474  273.792,526.8  270.66,493.196  C  267.396,458.185  277.67,386.597  274.406,351.587  C  262.46,352.701  242.972,349.016  228.575,337.074  C  214.179,325.133  192.01,250.4  192.01,194.675  C  192.01,138.95  217.203,42.743  219.463,33.002  L  91.569,3.324  C  88.245,23.046  91.847,104  -10,284.35  z " />
<path transform="translate( 0, 0 )" style="stroke: hsl(215.2, 55%, 50%);" id="263"  d=" M  160.699,526.055  L  210,517.724  212.5,532.514  161.9,541.007  M  129.376,542.499  L  80.927,547.359  79.447,532.432  129.203,527.5 " />
<path transform="translate( 0, 0 )" style="stroke: hsl(215.2, 55%, 50%);" id="264"  d=" M  -10,284.35  L  -10,621.094  L  57.813,688.907  C  64.406,682.314  89.932,672.716  130.625,665.483  L  130.625,640  C  130.625,615  129.062,538.75  129.062,505  C  129.062,469.837  137.5,364.35  137.5,364.35  C  137.5,364.35  155.56,468.621  158.779,503.637  C  161.869,537.245  167.294,613.318  169.583,638.213  L  171.707,661.324  C  203.272,653.527  241.95,646.623  287.34,642.45  L  285.967,627.513  C  282.762,592.66  273.585,526.974  270.495,493.366  C  267.276,458.35  277.642,386.776  274.423,351.762  C  262.826,352.828  243.676,349.214  229.625,337.529  C  215.575,325.844  193.42,250.4  193.42,194.675  C  193.42,138.95  217.265,42.743  219.524,33.002  L  91.569,3.324  C  88.245,23.046  91.847,104  -10,284.35  z " />
<path transform="translate( 0, 0 )" style="stroke: hsl(242.1, 55%, 50%);" id="296"  d=" M  160.498,526.084  L  209.809,517.814  212.29,532.607  161.68,541.037  M  129.376,542.499  L  80.927,547.359  79.447,532.432  129.203,527.5 " />
<path transform="translate( 0, 0 )" style="stroke: hsl(242.1, 55%, 50%);" id="297"  d=" M  -10,284.35  L  -10,621.094  L  57.813,688.907  C  64.406,682.314  89.932,672.716  130.625,665.483  L  130.625,640  C  130.625,615  129.062,538.75  129.062,505  C  129.062,469.837  137.5,364.35  137.5,364.35  C  137.5,364.35  155.43,468.644  158.606,503.663  C  161.654,537.275  166.984,613.355  169.242,638.253  L  171.338,661.367  C  202.912,653.609  241.599,646.753  286.994,642.636  L  285.639,627.697  C  282.478,592.84  273.383,527.143  270.334,493.531  C  267.159,458.512  277.614,386.95  274.438,351.932  C  263.191,352.952  244.368,349.413  230.667,337.991  C  216.967,326.569  194.83,250.4  194.83,194.675  C  194.83,138.95  217.327,42.744  219.585,33.002  L  91.569,3.324  C  88.245,23.046  91.847,104  -10,284.35  z " />
<path transform="translate( 0, 0 )" style="stroke: hsl(269, 55%, 50%);" id="329"  d=" M  160.299,526.112  L  209.621,517.902  212.084,532.699  161.463,541.067  M  129.376,542.499  L  80.927,547.359  79.447,532.432  129.203,527.5 " />
<path transform="translate( 0, 0 )" style="stroke: hsl(269, 55%, 50%);" id="330"  d=" M  -10,284.35  L  -10,621.094  L  57.813,688.907  C  64.406,682.314  89.932,672.716  130.625,665.483  L  130.625,640  C  130.625,615  129.062,538.75  129.062,505  C  129.062,469.837  137.5,364.35  137.5,364.35  C  137.5,364.35  155.302,468.666  158.435,503.689  C  161.441,537.305  166.678,613.391  168.905,638.291  L  170.973,661.408  C  202.556,653.689  241.252,646.88  286.652,642.82  L  285.315,627.879  C  282.197,593.018  273.182,527.31  270.176,493.694  C  267.043,458.671  277.586,387.123  274.453,352.1  C  263.557,353.075  245.048,349.615  231.702,338.461  C  218.356,327.306  196.24,250.4  196.24,194.675  C  196.24,138.95  217.388,42.744  219.645,33.002  L  91.569,3.324  C  88.245,23.046  91.847,104  -10,284.35  z " />
<path transform="translate( 0, 0 )" style="stroke: hsl(295.9, 55%, 50%);" id="362"  d=" M  160.104,526.139  L  209.435,517.989  211.88,532.789  161.25,541.096  M  129.376,542.499  L  80.927,547.359  79.447,532.432  129.203,527.5 " />
<path transform="translate( 0, 0 )" style="stroke: hsl(295.9, 55%, 50%);" id="363"  d=" M  -10,284.35  L  -10,621.094  L  57.813,688.907  C  64.406,682.314  89.932,672.716  130.625,665.483  L  130.625,640  C  130.625,615  129.062,538.75  129.062,505  C  129.062,469.837  137.5,364.35  137.5,364.35  C  137.5,364.35  155.176,468.687  158.267,503.714  C  161.233,537.334  166.377,613.426  168.574,638.329  L  170.614,661.448  C  202.207,653.767  240.911,647.005  286.316,642.999  L  284.997,628.057  C  281.921,593.193  272.986,527.474  270.02,493.854  C  266.929,458.827  277.558,387.291  274.468,352.266  C  263.921,353.196  245.721,349.82  232.731,338.936  C  219.741,328.053  197.65,250.4  197.65,194.675  C  197.65,138.95  217.438,42.647  219.688,32.903  L  91.569,3.324  C  88.245,23.046  91.847,104  -10,284.35  z " />
    </g>
    <!-- End of group #front -->
    
    <!-- Start of group #back -->
    <g id="back"  transform=" translate(5 2.82)  translate(309.94 0) " >
        <path class="hidden" id="3"  d=" M  0,2.18  L  275,2.18  L  275,655  L  0,655  z " />
<path transform="translate( 0, 0 )" style="stroke: hsl(26.9, 55%, 50%);" id="34"  d=" M  14.546,21.426  C  14.546,21.426  0,194.675  0,364.35  L  0,505  L  0,655  L  130.625,655  L  130.625,640  C  130.625,615  129.062,538.75  129.062,505  C  129.062,469.837  137.5,364.35  137.5,364.35  C  137.5,364.35  145.938,469.837  145.938,505  C  145.938,538.75  144.375,615  144.375,640  L  144.375,655  L  261.25,655  L  261.25,640  C  261.25,605  258.125,538.75  258.125,505  C  258.125,469.837  275,399.512  275,364.35  C  260.887,364.35  242.205,358.147  227.229,343.171  C  212.253,328.195  196.716,252.013  198.275,196.31  C  199.834,140.606  225.527,45.961  228.133,36.306  L  101.687,2.18  C  97.813,21.802  14.546,21.426  14.546,21.426  z " />
<path transform="translate( 0, 0 )" style="stroke: hsl(53.8, 55%, 50%);" id="67"  d=" M  14.522,21.434  C  14.522,21.434  0,194.675  0,364.35  L  0,505  L  0,655  L  130.625,655  L  130.625,640  C  130.625,615  129.062,538.75  129.062,505  C  129.062,469.837  137.5,364.35  137.5,364.35  C  137.5,364.35  145.938,469.837  145.938,505  C  145.938,538.75  144.375,615  144.375,640  L  144.375,655  L  261.25,655  L  261.25,640  C  261.25,605  258.125,538.75  258.125,505  C  258.125,469.837  275,399.512  275,364.35  C  261.24,364.35  242.934,358.264  228.24,343.57  C  213.546,328.876  198.118,252.048  199.673,196.345  C  201.228,140.641  225.562,45.971  228.168,36.316  L  101.662,2.183  C  97.789,21.804  14.522,21.434  14.522,21.434  z " />
<path transform="translate( 0, 0 )" style="stroke: hsl(80.7, 55%, 50%);" id="100"  d=" M  14.497,21.443  C  14.497,21.443  0,194.675  0,364.35  L  0,505  L  0,655  L  130.625,655  L  130.625,640  C  130.625,615  129.062,538.75  129.062,505  C  129.062,469.837  137.5,364.35  137.5,364.35  C  137.5,364.35  145.938,469.837  145.938,505  C  145.938,538.75  144.375,615  144.375,640  L  144.375,655  L  261.25,655  L  261.25,640  C  261.25,605  258.125,538.75  258.125,505  C  258.125,469.837  275,399.512  275,364.35  C  261.592,364.35  243.652,358.382  229.245,343.975  C  214.838,329.568  199.519,252.083  201.07,196.379  C  202.621,140.676  225.599,45.98  228.202,36.325  L  101.636,2.185  C  97.764,21.807  14.497,21.443  14.497,21.443  z " />
<path transform="translate( 0, 0 )" style="stroke: hsl(107.6, 55%, 50%);" id="133"  d=" M  14.473,21.452  C  14.473,21.452  0,194.675  0,364.35  L  0,505  L  0,655  L  130.625,655  L  130.625,640  C  130.625,615  129.062,538.75  129.062,505  C  129.062,469.837  137.5,364.35  137.5,364.35  C  137.5,364.35  145.938,469.837  145.938,505  C  145.938,538.75  144.375,615  144.375,640  L  144.375,655  L  261.25,655  L  261.25,640  C  261.25,605  258.125,538.75  258.125,505  C  258.125,469.837  275,399.512  275,364.35  C  261.945,364.35  244.362,358.502  230.245,344.385  C  216.128,330.268  200.921,252.118  202.468,196.414  C  204.015,140.711  225.632,45.989  228.236,36.334  L  101.611,2.188  C  97.74,21.81  14.473,21.452  14.473,21.452  z " />
<path transform="translate( 0, 0 )" style="stroke: hsl(134.5, 55%, 50%);" id="166"  d=" M  14.449,21.461  C  14.449,21.461  0,194.675  0,364.35  L  0,505  L  0,655  L  130.625,655  L  130.625,640  C  130.625,615  129.062,538.75  129.062,505  C  129.062,469.837  137.5,364.35  137.5,364.35  C  137.5,364.35  145.938,469.837  145.938,505  C  145.938,538.75  144.375,615  144.375,640  L  144.375,655  L  261.25,655  L  261.25,640  C  261.25,605  258.125,538.75  258.125,505  C  258.125,469.837  275,399.512  275,364.35  C  262.297,364.35  245.066,358.624  231.241,344.799  C  217.416,330.974  202.322,252.152  203.865,196.448  C  205.408,140.745  225.668,45.999  228.271,36.343  L  101.585,2.19  C  97.716,21.813  14.449,21.461  14.449,21.461  z " />
<path transform="translate( 0, 0 )" style="stroke: hsl(161.4, 55%, 50%);" id="199"  d=" M  14.42,21.471  C  14.42,21.471  0,194.675  0,364.35  L  0,505  L  0,655  L  130.625,655  L  130.625,640  C  130.625,615  129.062,538.75  129.062,505  C  129.062,469.837  137.5,364.35  137.5,364.35  C  137.5,364.35  145.938,469.837  145.938,505  C  145.938,538.75  144.375,615  144.375,640  L  144.375,655  L  261.25,655  L  261.25,640  C  261.25,605  258.125,538.75  258.125,505  C  258.125,469.837  275,399.512  275,364.35  C  262.65,364.35  245.759,358.747  232.231,345.219  C  218.703,331.691  203.722,252.186  205.261,196.482  C  206.799,140.778  225.666,45.998  228.268,36.342  L  101.555,2.193  C  97.688,21.816  14.42,21.471  14.42,21.471  z " />
<path transform="translate( 0, 0 )" style="stroke: hsl(188.3, 55%, 50%);" id="232"  d=" M  14.396,21.48  C  14.396,21.48  0,194.675  0,364.35  L  0,505  L  0,655  L  130.625,655  L  130.625,640  C  130.625,615  129.062,538.75  129.062,505  C  129.062,469.837  137.5,364.35  137.5,364.35  C  137.5,364.35  145.938,469.837  145.938,505  C  145.938,538.75  144.375,615  144.375,640  L  144.375,655  L  261.25,655  L  261.25,640  C  261.25,605  258.125,538.75  258.125,505  C  258.125,469.837  275,399.512  275,364.35  C  263.002,364.35  246.44,358.872  233.214,345.646  C  219.988,332.42  205.124,252.22  206.658,196.516  C  208.193,140.812  225.698,46.007  228.3,36.351  L  101.529,2.196  C  97.663,21.819  14.396,21.48  14.396,21.48  z " />
<path transform="translate( 0, 0 )" style="stroke: hsl(215.2, 55%, 50%);" id="265"  d=" M  14.368,21.49  C  14.368,21.49  0,194.675  0,364.35  L  0,505  L  0,655  L  130.625,655  L  130.625,640  C  130.625,615  129.062,538.75  129.062,505  C  129.062,469.837  137.5,364.35  137.5,364.35  C  137.5,364.35  145.938,469.837  145.938,505  C  145.938,538.75  144.375,615  144.375,640  L  144.375,655  L  261.25,655  L  261.25,640  C  261.25,605  258.125,538.75  258.125,505  C  258.125,469.837  275,399.512  275,364.35  C  263.355,364.35  247.116,358.998  234.194,346.076  C  221.272,333.154  206.524,252.253  208.054,196.549  C  209.584,140.845  225.73,46.016  228.331,36.359  L  101.499,2.199  C  97.635,21.822  14.368,21.49  14.368,21.49  z " />
<path transform="translate( 0, 0 )" style="stroke: hsl(242.1, 55%, 50%);" id="298"  d=" M  14.344,21.498  C  14.344,21.498  0,194.675  0,364.35  L  0,505  L  0,655  L  130.625,655  L  130.625,640  C  130.625,615  129.062,538.75  129.062,505  C  129.062,469.837  137.5,364.35  137.5,364.35  C  137.5,364.35  145.938,469.837  145.938,505  C  145.938,538.75  144.375,615  144.375,640  L  144.375,655  L  261.25,655  L  261.25,640  C  261.25,605  258.125,538.75  258.125,505  C  258.125,469.837  275,399.512  275,364.35  C  263.707,364.35  247.78,359.126  235.167,346.513  C  222.554,333.9  207.926,252.287  209.452,196.583  C  210.978,140.879  225.765,46.024  228.366,36.368  L  101.474,2.201  C  97.611,21.825  14.344,21.498  14.344,21.498  z " />
<path transform="translate( 0, 0 )" style="stroke: hsl(269, 55%, 50%);" id="331"  d=" M  14.316,21.508  C  14.316,21.508  0,194.675  0,364.35  L  0,505  L  0,655  L  130.625,655  L  130.625,640  C  130.625,615  129.062,538.75  129.062,505  C  129.062,469.837  137.5,364.35  137.5,364.35  C  137.5,364.35  145.938,469.837  145.938,505  C  145.938,538.75  144.375,615  144.375,640  L  144.375,655  L  261.25,655  L  261.25,640  C  261.25,605  258.125,538.75  258.125,505  C  258.125,469.837  275,399.512  275,364.35  C  264.06,364.35  248.433,359.255  236.134,346.956  C  223.835,334.657  209.326,252.32  210.848,196.615  C  212.369,140.911  225.796,46.032  228.396,36.376  L  101.445,2.204  C  97.583,21.828  14.316,21.508  14.316,21.508  z " />
<path transform="translate( 0, 0 )" style="stroke: hsl(295.9, 55%, 50%);" id="364"  d=" M  14.287,21.519  C  14.287,21.519  0,194.675  0,364.35  L  0,505  L  0,655  L  130.625,655  L  130.625,640  C  130.625,615  129.062,538.75  129.062,505  C  129.062,469.837  137.5,364.35  137.5,364.35  C  137.5,364.35  145.938,469.837  145.938,505  C  145.938,538.75  144.375,615  144.375,640  L  144.375,655  L  261.25,655  L  261.25,640  C  261.25,605  258.125,538.75  258.125,505  C  258.125,469.837  275,399.512  275,364.35  C  264.412,364.35  249.079,359.387  237.096,347.404  C  225.113,335.421  210.726,252.352  212.243,196.648  C  213.76,140.943  225.788,46.031  228.387,36.374  L  101.414,2.207  C  97.555,21.832  14.287,21.519  14.287,21.519  z " />
    </g>
    <!-- End of group #back -->
    
    <!-- Start of group #frontFacing -->
    <g id="frontFacing" >
    </g>
    <!-- End of group #frontFacing -->
    
    <!-- Start of group #frontLining -->
    <g id="frontLining" >
    </g>
    <!-- End of group #frontLining -->
    
    <!-- Start of group #pocketWelt -->
    <g id="pocketWelt" >
    </g>
    <!-- End of group #pocketWelt -->
    
    <!-- Start of group #pocketFacing -->
    <g id="pocketFacing" >
    </g>
    <!-- End of group #pocketFacing -->
    
    <!-- Start of group #pocketBag -->
    <g id="pocketBag" >
    </g>
    <!-- End of group #pocketBag -->
    
    <!-- Start of group #pocketInterfacing -->
    <g id="pocketInterfacing" >
    </g>
    <!-- End of group #pocketInterfacing -->
    
    <!-- Start of group #sampler-front -->
    <g id="sampler-front" >
    </g>
    <!-- End of group #sampler-front -->
    
    <!-- Start of group #sampler-back -->
    <g id="sampler-back" >
    </g>
    <!-- End of group #sampler-back -->
</g>
<!-- End of group #patternContainer -->

</svg>

