<?xml version="1.0" encoding="UTF-8" standalone="no"?>
<svg
    width ="1009.84252065"
    height ="2349.0035455517"
    viewbox ="0 0 1009.84252065 2349.0035455517" xmlns:dc="http://purl.org/dc/elements/1.1/"
    xmlns:cc="http://creativecommons.org/ns#"
    xmlns:rdf="http://www.w3.org/1999/02/22-rdf-syntax-ns#"
    xmlns:svg="http://www.w3.org/2000/svg"
    xmlns="http://www.w3.org/2000/svg"
    xmlns:xlink="http://www.w3.org/1999/xlink"
    xmlns:sodipodi="http://sodipodi.sourceforge.net/DTD/sodipodi-0.dtd"
    xmlns:inkscape="http://www.inkscape.org/namespaces/inkscape" 
>

<style type="text/css">
    <![CDATA[
    path { fill: none; stroke: #000000; stroke-opacity:1; stroke-width: 0.5; stroke-miterlimit:4; stroke-dashoffset:0; stroke-linecap:round; stroke-linejoin:round; }
    path.hidden { fill: none; stroke: none; }]]>
</style>


<!-- Start of group #patternScaleContainer -->
<g id="patternScaleContainer"  transform=" scale(3.54330709 ) " >
    
    <!-- Start of group #back -->
    <g id="back"  transform=" translate(5 2.941)  translate(0 0) " >
        <path class="hidden" id="2"  d=" M  0,2.059  L  275,2.059  L  275,655  L  0,655  z " />
<path transform="translate( 0, 0 )" style="stroke: hsl(26.9, 55%, 50%);" id="34"  d=" M  9.288,20.899  C  9.288,20.899  0,174.425  0,323.85  L  0,505  L  0,655  L  130.625,655  L  130.625,640  C  130.625,615  129.062,538.75  129.062,505  C  129.062,459.712  137.5,323.85  137.5,323.85  C  137.5,323.85  145.938,459.712  145.938,505  C  145.938,538.75  144.375,615  144.375,640  L  144.375,655  L  261.25,655  L  261.25,640  C  261.25,605  258.125,538.75  258.125,505  C  258.125,459.712  275,369.137  275,323.85  C  262.5,323.85  244.478,318.364  231.232,305.118  C  217.986,291.872  203.07,225.377  204.581,176.425  C  206.093,127.473  225.484,46.276  228.118,36.629  L  101.482,2.059  C  97.551,21.669  9.288,20.899  9.288,20.899  z " />
<path transform="translate( 0, 0 )" style="stroke: hsl(53.8, 55%, 50%);" id="67"  d=" M  11.287,20.961  C  11.287,20.961  0,174.425  0,323.85  L  0,505  L  0,655  L  130.625,655  L  130.625,640  C  130.625,615  129.062,538.75  129.062,505  C  129.062,459.712  137.5,323.85  137.5,323.85  C  137.5,323.85  145.938,459.712  145.938,505  C  145.938,538.75  144.375,615  144.375,640  L  144.375,655  L  261.25,655  L  261.25,640  C  261.25,605  258.125,538.75  258.125,505  C  258.125,459.712  275,369.137  275,323.85  C  262.5,323.85  244.478,318.364  231.232,305.118  C  217.986,291.872  203.07,225.377  204.581,176.425  C  206.093,127.473  225.484,46.276  228.118,36.629  L  101.482,2.059  C  97.551,21.669  11.287,20.961  11.287,20.961  z " />
<path transform="translate( 0, 0 )" style="stroke: hsl(80.7, 55%, 50%);" id="100"  d=" M  13.286,21.023  C  13.286,21.023  0,174.425  0,323.85  L  0,505  L  0,655  L  130.625,655  L  130.625,640  C  130.625,615  129.062,538.75  129.062,505  C  129.062,459.712  137.5,323.85  137.5,323.85  C  137.5,323.85  145.938,459.712  145.938,505  C  145.938,538.75  144.375,615  144.375,640  L  144.375,655  L  261.25,655  L  261.25,640  C  261.25,605  258.125,538.75  258.125,505  C  258.125,459.712  275,369.137  275,323.85  C  262.5,323.85  244.478,318.364  231.232,305.118  C  217.986,291.872  203.07,225.377  204.581,176.425  C  206.093,127.473  225.484,46.276  228.118,36.629  L  101.482,2.059  C  97.551,21.669  13.286,21.023  13.286,21.023  z " />
<path transform="translate( 0, 0 )" style="stroke: hsl(107.6, 55%, 50%);" id="133"  d=" M  15.285,21.084  C  15.285,21.084  0,174.425  0,323.85  L  0,505  L  0,655  L  130.625,655  L  130.625,640  C  130.625,615  129.062,538.75  129.062,505  C  129.062,459.712  137.5,323.85  137.5,323.85  C  137.5,323.85  145.938,459.712  145.938,505  C  145.938,538.75  144.375,615  144.375,640  L  144.375,655  L  261.25,655  L  261.25,640  C  261.25,605  258.125,538.75  258.125,505  C  258.125,459.712  275,369.137  275,323.85  C  262.5,323.85  244.478,318.364  231.232,305.118  C  217.986,291.872  203.07,225.377  204.581,176.425  C  206.093,127.473  225.484,46.276  228.118,36.629  L  101.482,2.059  C  97.551,21.669  15.285,21.084  15.285,21.084  z " />
<path transform="translate( 0, 0 )" style="stroke: hsl(134.5, 55%, 50%);" id="166"  d=" M  17.284,21.146  C  17.284,21.146  0,174.425  0,323.85  L  0,505  L  0,655  L  130.625,655  L  130.625,640  C  130.625,615  129.062,538.75  129.062,505  C  129.062,459.712  137.5,323.85  137.5,323.85  C  137.5,323.85  145.938,459.712  145.938,505  C  145.938,538.75  144.375,615  144.375,640  L  144.375,655  L  261.25,655  L  261.25,640  C  261.25,605  258.125,538.75  258.125,505  C  258.125,459.712  275,369.137  275,323.85  C  262.5,323.85  244.478,318.364  231.232,305.118  C  217.986,291.872  203.07,225.377  204.581,176.425  C  206.093,127.473  225.484,46.276  228.118,36.629  L  101.482,2.059  C  97.551,21.669  17.284,21.146  17.284,21.146  z " />
<path transform="translate( 0, 0 )" style="stroke: hsl(161.4, 55%, 50%);" id="199"  d=" M  19.283,21.208  C  19.283,21.208  0,174.425  0,323.85  L  0,505  L  0,655  L  130.625,655  L  130.625,640  C  130.625,615  129.062,538.75  129.062,505  C  129.062,459.712  137.5,323.85  137.5,323.85  C  137.5,323.85  145.938,459.712  145.938,505  C  145.938,538.75  144.375,615  144.375,640  L  144.375,655  L  261.25,655  L  261.25,640  C  261.25,605  258.125,538.75  258.125,505  C  258.125,459.712  275,369.137  275,323.85  C  262.5,323.85  244.478,318.364  231.232,305.118  C  217.986,291.872  203.07,225.377  204.581,176.425  C  206.093,127.473  225.484,46.276  228.118,36.629  L  101.482,2.059  C  97.551,21.669  19.283,21.208  19.283,21.208  z " />
<path transform="translate( 0, 0 )" style="stroke: hsl(188.3, 55%, 50%);" id="232"  d=" M  21.282,21.269  C  21.282,21.269  0,174.425  0,323.85  L  0,505  L  0,655  L  130.625,655  L  130.625,640  C  130.625,615  129.062,538.75  129.062,505  C  129.062,459.712  137.5,323.85  137.5,323.85  C  137.5,323.85  145.938,459.712  145.938,505  C  145.938,538.75  144.375,615  144.375,640  L  144.375,655  L  261.25,655  L  261.25,640  C  261.25,605  258.125,538.75  258.125,505  C  258.125,459.712  275,369.137  275,323.85  C  262.5,323.85  244.478,318.364  231.232,305.118  C  217.986,291.872  203.07,225.377  204.581,176.425  C  206.093,127.473  225.484,46.276  228.118,36.629  L  101.482,2.059  C  97.551,21.669  21.282,21.269  21.282,21.269  z " />
<path transform="translate( 0, 0 )" style="stroke: hsl(215.2, 55%, 50%);" id="265"  d=" M  23.281,21.331  C  23.281,21.331  0,174.425  0,323.85  L  0,505  L  0,655  L  130.625,655  L  130.625,640  C  130.625,615  129.062,538.75  129.062,505  C  129.062,459.712  137.5,323.85  137.5,323.85  C  137.5,323.85  145.938,459.712  145.938,505  C  145.938,538.75  144.375,615  144.375,640  L  144.375,655  L  261.25,655  L  261.25,640  C  261.25,605  258.125,538.75  258.125,505  C  258.125,459.712  275,369.137  275,323.85  C  262.5,323.85  244.478,318.364  231.232,305.118  C  217.986,291.872  203.07,225.377  204.581,176.425  C  206.093,127.473  225.484,46.276  228.118,36.629  L  101.482,2.059  C  97.551,21.669  23.281,21.331  23.281,21.331  z " />
<path transform="translate( 0, 0 )" style="stroke: hsl(242.1, 55%, 50%);" id="298"  d=" M  25.28,21.393  C  25.28,21.393  0,174.425  0,323.85  L  0,505  L  0,655  L  130.625,655  L  130.625,640  C  130.625,615  129.062,538.75  129.062,505  C  129.062,459.712  137.5,323.85  137.5,323.85  C  137.5,323.85  145.938,459.712  145.938,505  C  145.938,538.75  144.375,615  144.375,640  L  144.375,655  L  261.25,655  L  261.25,640  C  261.25,605  258.125,538.75  258.125,505  C  258.125,459.712  275,369.137  275,323.85  C  262.5,323.85  244.478,318.364  231.232,305.118  C  217.986,291.872  203.07,225.377  204.581,176.425  C  206.093,127.473  225.484,46.276  228.118,36.629  L  101.482,2.059  C  97.551,21.669  25.28,21.393  25.28,21.393  z " />
<path transform="translate( 0, 0 )" style="stroke: hsl(269, 55%, 50%);" id="331"  d=" M  27.279,21.455  C  27.279,21.455  0,174.425  0,323.85  L  0,505  L  0,655  L  130.625,655  L  130.625,640  C  130.625,615  129.062,538.75  129.062,505  C  129.062,459.712  137.5,323.85  137.5,323.85  C  137.5,323.85  145.938,459.712  145.938,505  C  145.938,538.75  144.375,615  144.375,640  L  144.375,655  L  261.25,655  L  261.25,640  C  261.25,605  258.125,538.75  258.125,505  C  258.125,459.712  275,369.137  275,323.85  C  262.5,323.85  244.478,318.364  231.232,305.118  C  217.986,291.872  203.07,225.377  204.581,176.425  C  206.093,127.473  225.484,46.276  228.118,36.629  L  101.482,2.059  C  97.551,21.669  27.279,21.455  27.279,21.455  z " />
<path transform="translate( 0, 0 )" style="stroke: hsl(295.9, 55%, 50%);" id="364"  d=" M  29.278,21.516  C  29.278,21.516  0,174.425  0,323.85  L  0,505  L  0,655  L  130.625,655  L  130.625,640  C  130.625,615  129.062,538.75  129.062,505  C  129.062,459.712  137.5,323.85  137.5,323.85  C  137.5,323.85  145.938,459.712  145.938,505  C  145.938,538.75  144.375,615  144.375,640  L  144.375,655  L  261.25,655  L  261.25,640  C  261.25,605  258.125,538.75  258.125,505  C  258.125,459.712  275,369.137  275,323.85  C  262.5,323.85  244.478,318.364  231.232,305.118  C  217.986,291.872  203.07,225.377  204.581,176.425  C  206.093,127.473  225.484,46.276  228.118,36.629  L  101.482,2.059  C  97.551,21.669  29.278,21.516  29.278,21.516  z " />
    </g>
    <!-- End of group #back -->
</g>
<!-- End of group #patternScaleContainer -->

</svg>

