<?xml version="1.0" encoding="UTF-8" standalone="no"?>
<svg
    width ="1128.4547254878"
    height ="2464.6641755835"
    viewbox ="0 0 1128.4547254878 2464.6641755835" xmlns:dc="http://purl.org/dc/elements/1.1/"
    xmlns:cc="http://creativecommons.org/ns#"
    xmlns:rdf="http://www.w3.org/1999/02/22-rdf-syntax-ns#"
    xmlns:svg="http://www.w3.org/2000/svg"
    xmlns="http://www.w3.org/2000/svg"
    xmlns:xlink="http://www.w3.org/1999/xlink"
    xmlns:sodipodi="http://sodipodi.sourceforge.net/DTD/sodipodi-0.dtd"
    xmlns:inkscape="http://www.inkscape.org/namespaces/inkscape" 
>

<style type="text/css">
    <![CDATA[
    path { fill: none; stroke: #000000; stroke-opacity:1; stroke-width: 0.5; stroke-miterlimit:4; stroke-dashoffset:0; stroke-linecap:round; stroke-linejoin:round; }
    path.hidden { fill: none; stroke: none; }]]>
</style>


<!-- Start of group #patternScaleContainer -->
<g id="patternScaleContainer"  transform=" scale(3.54330709 ) " >
    
    <!-- Start of group #front -->
    <g id="front"  transform=" translate(15 1.676)  translate(0 0) " >
        <path class="hidden" id="2"  d=" M  -10,3.324  L  298.475,3.324  L  298.475,688.907  L  -10,688.907  z " />
<path transform="translate( 0, 0 )" style="stroke: hsl(26.9, 55%, 50%);" id="32"  d=" M  166.98,565.489  L  216.326,557.427  218.745,572.231  168.099,580.447  M  129.938,582.154  L  81.504,587.169  79.977,572.247  129.717,567.156 " />
<path transform="translate( 0, 0 )" style="stroke: hsl(26.9, 55%, 50%);" id="33"  d=" M  -10,243.85  L  -10,621.094  L  57.813,688.907  C  64.406,682.314  89.932,672.716  130.625,665.483  L  130.625,640  C  130.625,615  129.062,538.75  129.062,505  C  129.062,459.712  137.5,323.85  137.5,323.85  C  137.5,323.85  158.037,458.416  162.081,503.523  C  165.095,537.138  170.348,613.223  172.58,638.123  L  174.653,661.239  C  206.235,653.513  244.929,646.696  290.328,642.626  L  288.988,627.686  C  285.863,592.826  276.834,527.119  273.82,493.504  C  269.776,448.397  278.495,356.677  274.451,311.571  C  262.001,312.687  248.541,308.386  234.165,296.376  C  219.789,284.366  205,223.4  205,174.425  C  205,125.45  217.878,42.52  220.111,32.773  L  91.569,3.324  C  88.245,23.046  91.847,104  -10,243.85  z " />
<path transform="translate( 0, 0 )" style="stroke: hsl(53.8, 55%, 50%);" id="65"  d=" M  167.544,565.419  L  216.871,557.242  219.324,572.041  168.698,580.375  M  129.938,582.154  L  81.504,587.169  79.977,572.247  129.717,567.156 " />
<path transform="translate( 0, 0 )" style="stroke: hsl(53.8, 55%, 50%);" id="66"  d=" M  -10,243.85  L  -10,621.094  L  57.813,688.907  C  64.406,682.314  89.932,672.716  130.625,665.483  L  130.625,640  C  130.625,615  129.062,538.75  129.062,505  C  129.062,459.712  137.5,323.85  137.5,323.85  C  137.5,323.85  158.351,458.367  162.501,503.465  C  165.593,537.073  171.023,613.145  173.314,638.04  L  175.44,661.152  C  207.005,653.352  245.682,646.445  291.072,642.268  L  289.697,627.331  C  286.49,592.478  277.308,526.794  274.216,493.185  C  270.066,448.088  278.571,356.348  274.422,311.251  C  261.974,312.397  247.011,308.264  232.607,296.288  C  218.203,284.311  202,223.4  202,174.425  C  202,125.45  217.739,42.52  219.974,32.773  L  91.569,3.324  C  88.245,23.046  91.847,104  -10,243.85  z " />
<path transform="translate( 0, 0 )" style="stroke: hsl(80.7, 55%, 50%);" id="98"  d=" M  168.12,565.347  L  217.427,557.052  219.916,571.845  169.309,580.299  M  129.938,582.154  L  81.504,587.169  79.977,572.247  129.717,567.156 " />
<path transform="translate( 0, 0 )" style="stroke: hsl(80.7, 55%, 50%);" id="99"  d=" M  -10,243.85  L  -10,621.094  L  57.813,688.907  C  64.406,682.314  89.932,672.716  130.625,665.483  L  130.625,640  C  130.625,615  129.062,538.75  129.062,505  C  129.062,459.712  137.5,323.85  137.5,323.85  C  137.5,323.85  158.672,458.317  162.929,503.405  C  166.102,537.005  171.713,613.065  174.063,637.954  L  176.245,661.06  C  207.79,653.185  246.451,646.186  291.831,641.901  L  290.421,626.967  C  287.131,592.122  277.792,526.46  274.619,492.859  C  270.362,447.771  278.648,356.011  274.391,310.925  C  261.947,312.1  245.48,308.144  231.047,296.202  C  216.615,284.26  199,223.4  199,174.425  C  199,125.45  217.611,42.61  219.855,32.865  L  91.569,3.324  C  88.245,23.046  91.847,104  -10,243.85  z " />
<path transform="translate( 0, 0 )" style="stroke: hsl(107.6, 55%, 50%);" id="131"  d=" M  168.707,565.272  L  217.994,556.857  220.519,571.644  169.933,580.221  M  129.938,582.154  L  81.504,587.169  79.977,572.247  129.717,567.156 " />
<path transform="translate( 0, 0 )" style="stroke: hsl(107.6, 55%, 50%);" id="132"  d=" M  -10,243.85  L  -10,621.094  L  57.813,688.907  C  64.406,682.314  89.932,672.716  130.625,665.483  L  130.625,640  C  130.625,615  129.062,538.75  129.062,505  C  129.062,459.712  137.5,323.85  137.5,323.85  C  137.5,323.85  158.999,458.265  163.366,503.342  C  166.62,536.935  172.416,612.98  174.827,637.864  L  177.065,660.965  C  208.591,653.013  247.235,645.92  292.604,641.525  L  291.157,626.595  C  287.782,591.758  278.284,526.118  275.03,492.525  C  270.663,447.448  278.726,355.668  274.359,310.592  C  261.918,311.797  243.948,308.026  229.487,296.119  C  215.025,284.212  196,223.4  196,174.425  C  196,125.45  217.47,42.609  219.716,32.865  L  91.569,3.324  C  88.245,23.046  91.847,104  -10,243.85  z " />
<path transform="translate( 0, 0 )" style="stroke: hsl(134.5, 55%, 50%);" id="164"  d=" M  169.309,565.193  L  218.575,556.656  221.136,571.436  170.572,580.14  M  129.938,582.154  L  81.504,587.169  79.977,572.247  129.717,567.156 " />
<path transform="translate( 0, 0 )" style="stroke: hsl(134.5, 55%, 50%);" id="165"  d=" M  -10,243.85  L  -10,621.094  L  57.813,688.907  C  64.406,682.314  89.932,672.716  130.625,665.483  L  130.625,640  C  130.625,615  129.062,538.75  129.062,505  C  129.062,459.712  137.5,323.85  137.5,323.85  C  137.5,323.85  159.334,458.211  163.813,503.277  C  167.151,536.862  173.137,612.893  175.61,637.77  L  177.905,660.865  C  209.412,652.835  248.038,645.645  293.395,641.137  L  291.912,626.211  C  288.45,591.382  278.788,525.766  275.45,492.182  C  270.971,447.116  278.805,355.316  274.326,310.251  C  261.887,311.487  242.416,307.909  227.925,296.038  C  213.434,284.167  193,223.4  193,174.425  C  193,125.45  217.336,42.7  219.591,32.958  L  91.569,3.324  C  88.245,23.046  91.847,104  -10,243.85  z " />
<path transform="translate( 0, 0 )" style="stroke: hsl(161.4, 55%, 50%);" id="197"  d=" M  169.92,565.112  L  219.164,556.45  221.763,571.223  171.221,580.055  M  129.938,582.154  L  81.504,587.169  79.977,572.247  129.717,567.156 " />
<path transform="translate( 0, 0 )" style="stroke: hsl(161.4, 55%, 50%);" id="198"  d=" M  -10,243.85  L  -10,621.094  L  57.813,688.907  C  64.406,682.314  89.932,672.716  130.625,665.483  L  130.625,640  C  130.625,615  129.062,538.75  129.062,505  C  129.062,459.712  137.5,323.85  137.5,323.85  C  137.5,323.85  159.674,458.156  164.267,503.21  C  167.69,536.786  173.869,612.801  176.404,637.672  L  178.758,660.762  C  210.244,652.652  248.852,645.364  294.198,640.741  L  292.677,625.819  C  289.127,590.999  279.299,525.408  275.876,491.832  C  271.282,446.777  278.884,354.958  274.291,309.904  C  261.855,311.172  240.883,307.796  226.362,295.962  C  211.841,284.127  190,223.4  190,174.425  C  190,125.45  217.193,42.7  219.45,32.958  L  91.569,3.324  C  88.245,23.046  91.847,104  -10,243.85  z " />
<path transform="translate( 0, 0 )" style="stroke: hsl(188.3, 55%, 50%);" id="230"  d=" M  170.546,565.027  L  219.768,556.237  222.405,571.004  171.886,579.967  M  129.938,582.154  L  81.504,587.169  79.977,572.247  129.717,567.156 " />
<path transform="translate( 0, 0 )" style="stroke: hsl(188.3, 55%, 50%);" id="231"  d=" M  -10,243.85  L  -10,621.094  L  57.813,688.907  C  64.406,682.314  89.932,672.716  130.625,665.483  L  130.625,640  C  130.625,615  129.062,538.75  129.062,505  C  129.062,459.712  137.5,323.85  137.5,323.85  C  137.5,323.85  160.023,458.098  164.733,503.14  C  168.243,536.707  174.619,612.706  177.219,637.57  L  179.633,660.654  C  211.097,652.462  249.686,645.074  295.02,640.334  L  293.46,625.415  C  289.82,590.605  279.821,525.039  276.311,491.472  C  271.601,446.43  278.964,354.591  274.254,309.549  C  261.822,310.849  239.349,307.684  224.797,295.887  C  210.245,284.091  187,223.4  187,174.425  C  187,125.45  217.052,42.79  219.318,33.05  L  91.569,3.324  C  88.245,23.046  91.847,104  -10,243.85  z " />
<path transform="translate( 0, 0 )" style="stroke: hsl(215.2, 55%, 50%);" id="263"  d=" M  171.184,564.939  L  220.382,556.019  223.058,570.778  172.563,579.875  M  129.938,582.154  L  81.504,587.169  79.977,572.247  129.717,567.156 " />
<path transform="translate( 0, 0 )" style="stroke: hsl(215.2, 55%, 50%);" id="264"  d=" M  -10,243.85  L  -10,621.094  L  57.813,688.907  C  64.406,682.314  89.932,672.716  130.625,665.483  L  130.625,640  C  130.625,615  129.062,538.75  129.062,505  C  129.062,459.712  137.5,323.85  137.5,323.85  C  137.5,323.85  160.378,458.038  165.207,503.067  C  168.806,536.625  175.383,612.607  178.049,637.464  L  180.524,660.541  C  211.967,652.266  250.536,644.776  295.857,639.916  L  294.257,625.001  C  290.525,590.201  280.353,524.662  276.754,491.104  C  271.925,446.074  279.045,354.216  274.216,309.188  C  261.787,310.521  237.814,307.574  223.231,295.816  C  208.648,284.058  184,223.4  184,174.425  C  184,125.45  216.906,42.789  219.175,33.05  L  91.569,3.324  C  88.245,23.046  91.847,104  -10,243.85  z " />
<path transform="translate( 0, 0 )" style="stroke: hsl(242.1, 55%, 50%);" id="296"  d=" M  171.837,564.847  L  221.011,555.793  223.727,570.546  173.257,579.779  M  129.938,582.154  L  81.504,587.169  79.977,572.247  129.717,567.156 " />
<path transform="translate( 0, 0 )" style="stroke: hsl(242.1, 55%, 50%);" id="297"  d=" M  -10,243.85  L  -10,621.094  L  57.813,688.907  C  64.406,682.314  89.932,672.716  130.625,665.483  L  130.625,640  C  130.625,615  129.062,538.75  129.062,505  C  129.062,459.712  137.5,323.85  137.5,323.85  C  137.5,323.85  160.741,457.975  165.693,502.992  C  169.383,536.539  176.166,612.503  178.899,637.353  L  181.436,660.423  C  212.857,652.063  251.405,644.469  296.713,639.485  L  295.073,624.575  C  291.247,589.785  280.897,524.274  277.207,490.726  C  272.256,445.709  279.127,353.832  274.176,308.817  C  261.751,310.184  236.279,307.466  221.664,295.748  C  207.049,284.029  181,223.4  181,174.425  C  181,125.45  216.759,42.881  219.037,33.144  L  91.569,3.324  C  88.245,23.046  91.847,104  -10,243.85  z " />
<path transform="translate( 0, 0 )" style="stroke: hsl(269, 55%, 50%);" id="329"  d=" M  172.505,564.75  L  221.654,555.561  224.411,570.306  173.966,579.679  M  129.938,582.154  L  81.504,587.169  79.977,572.247  129.717,567.156 " />
<path transform="translate( 0, 0 )" style="stroke: hsl(269, 55%, 50%);" id="330"  d=" M  -10,243.85  L  -10,621.094  L  57.813,688.907  C  64.406,682.314  89.932,672.716  130.625,665.483  L  130.625,640  C  130.625,615  129.062,538.75  129.062,505  C  129.062,459.712  137.5,323.85  137.5,323.85  C  137.5,323.85  161.113,457.91  166.189,502.913  C  169.972,536.45  176.965,612.395  179.767,637.237  L  182.369,660.3  C  213.766,651.853  252.293,644.152  297.587,639.043  L  295.906,624.137  C  291.983,589.358  281.452,523.876  277.669,490.338  C  272.593,445.336  279.21,353.44  274.134,308.438  C  261.712,309.839  234.743,307.361  220.095,295.683  C  205.448,284.005  178,223.4  178,174.425  C  178,125.45  216.612,42.881  218.892,33.144  L  91.569,3.324  C  88.245,23.046  91.847,104  -10,243.85  z " />
<path transform="translate( 0, 0 )" style="stroke: hsl(295.9, 55%, 50%);" id="362"  d=" M  173.184,564.651  L  222.306,555.323  225.105,570.06  174.687,579.575  M  129.938,582.154  L  81.504,587.169  79.977,572.247  129.717,567.156 " />
<path transform="translate( 0, 0 )" style="stroke: hsl(295.9, 55%, 50%);" id="363"  d=" M  -10,243.85  L  -10,621.094  L  57.813,688.907  C  64.406,682.314  89.932,672.716  130.625,665.483  L  130.625,640  C  130.625,615  129.062,538.75  129.062,505  C  129.062,459.712  137.5,323.85  137.5,323.85  C  137.5,323.85  161.491,457.843  166.694,502.831  C  170.571,536.358  177.778,612.282  180.65,637.117  L  183.317,660.172  C  214.69,651.636  253.196,643.827  298.475,638.59  L  296.752,623.69  C  292.731,588.921  282.015,523.469  278.138,489.943  C  272.935,444.954  279.292,353.04  274.09,308.053  C  261.672,309.489  233.206,307.259  218.526,295.622  C  203.845,283.986  175,223.4  175,174.425  C  175,125.45  216.457,42.971  218.747,33.237  L  91.569,3.324  C  88.245,23.046  91.847,104  -10,243.85  z " />
    </g>
    <!-- End of group #front -->
</g>
<!-- End of group #patternScaleContainer -->

</svg>

