<?xml version="1.0" encoding="UTF-8" standalone="no"?>
<svg
    width ="1222.1362216403"
    height ="2464.6641755835"
    viewbox ="0 0 1222.1362216403 2464.6641755835" xmlns:dc="http://purl.org/dc/elements/1.1/"
    xmlns:cc="http://creativecommons.org/ns#"
    xmlns:rdf="http://www.w3.org/1999/02/22-rdf-syntax-ns#"
    xmlns:svg="http://www.w3.org/2000/svg"
    xmlns="http://www.w3.org/2000/svg"
    xmlns:xlink="http://www.w3.org/1999/xlink"
    xmlns:sodipodi="http://sodipodi.sourceforge.net/DTD/sodipodi-0.dtd"
    xmlns:inkscape="http://www.inkscape.org/namespaces/inkscape" 
>

<style type="text/css">
    <![CDATA[
    path { fill: none; stroke: #000000; stroke-opacity:1; stroke-width: 0.5; stroke-miterlimit:4; stroke-dashoffset:0; stroke-linecap:round; stroke-linejoin:round; }
    path.hidden { fill: none; stroke: none; }]]>
</style>


<!-- Start of group #patternScaleContainer -->
<g id="patternScaleContainer"  transform=" scale(3.54330709 ) " >
    
    <!-- Start of group #front -->
    <g id="front"  transform=" translate(15 1.676)  translate(0 0) " >
        <path class="hidden" id="2"  d=" M  -10,3.324  L  324.914,3.324  L  324.914,688.907  L  -10,688.907  z " />
<path transform="translate( 0, 0 )" style="stroke: hsl(26.9, 55%, 50%);" id="32"  d=" M  145.282,567.156  L  195.151,563.533  196.238,578.494  145.061,582.154  M  129.938,582.154  L  81.504,587.169  79.977,572.247  129.717,567.156 " />
<path transform="translate( 0, 0 )" style="stroke: hsl(26.9, 55%, 50%);" id="33"  d=" M  -10,243.85  L  -10,621.094  L  57.813,688.907  C  64.406,682.314  89.932,672.716  130.625,665.483  L  130.625,640  C  130.625,615  129.062,538.75  129.062,505  C  129.062,459.712  137.5,323.85  137.5,323.85  C  137.5,323.85  145.938,459.712  145.938,505  C  145.937,538.75  144.374,615  144.374,640  L  144.374,663.209  C  176.52,658.334  215.668,655  261.249,655  L  261.249,640  C  261.249,605  258.124,538.75  258.125,505  C  258.125,459.712  275,369.137  275,323.85  C  262.5,323.85  241.978,318.364  228.732,305.118  C  215.486,291.872  190,223.4  190,174.425  C  190,125.45  217.193,42.7  219.45,32.958  L  91.569,3.324  C  88.245,23.046  91.847,104  -10,243.85  z " />
<path transform="translate( 0, 0 )" style="stroke: hsl(53.8, 55%, 50%);" id="65"  d=" M  150.241,566.947  L  200.026,562.308  201.417,577.244  150.326,581.946  M  129.938,582.154  L  81.504,587.169  79.977,572.247  129.717,567.156 " />
<path transform="translate( 0, 0 )" style="stroke: hsl(53.8, 55%, 50%);" id="66"  d=" M  -10,243.85  L  -10,621.094  L  57.813,688.907  C  64.406,682.314  89.932,672.716  130.625,665.483  L  130.625,640  C  130.625,615  129.062,538.75  129.062,505  C  129.062,459.712  137.5,323.85  137.5,323.85  C  137.5,323.85  148.706,459.512  149.629,504.79  C  150.317,538.533  150.308,614.799  150.818,639.794  L  151.291,662.998  C  183.331,657.469  222.403,653.338  267.974,652.409  L  267.669,637.412  C  266.955,602.419  262.48,536.247  261.792,502.504  C  260.869,457.225  275.895,366.325  274.971,321.047  C  262.474,321.302  241.844,316.236  228.331,303.262  C  214.818,290.289  190,223.4  190,174.425  C  190,125.45  217.193,42.7  219.45,32.958  L  91.569,3.324  C  88.245,23.046  91.847,104  -10,243.85  z " />
<path transform="translate( 0, 0 )" style="stroke: hsl(80.7, 55%, 50%);" id="98"  d=" M  155.19,566.637  L  204.87,560.985  206.565,575.889  155.58,581.631  M  129.938,582.154  L  81.504,587.169  79.977,572.247  129.717,567.156 " />
<path transform="translate( 0, 0 )" style="stroke: hsl(80.7, 55%, 50%);" id="99"  d=" M  -10,243.85  L  -10,621.094  L  57.813,688.907  C  64.406,682.314  89.932,672.716  130.625,665.483  L  130.625,640  C  130.625,615  129.062,538.75  129.062,505  C  129.062,459.712  137.5,323.85  137.5,323.85  C  137.5,323.85  151.466,459.255  153.312,504.506  C  154.687,538.228  156.232,614.478  157.25,639.457  L  158.196,662.647  C  190.117,656.466  229.096,651.54  274.639,649.683  L  274.028,634.696  C  272.602,599.725  266.781,533.657  265.405,499.935  C  263.56,454.685  276.731,363.497  274.886,318.248  C  262.396,318.757  241.668,314.112  227.893,301.416  C  214.118,288.721  190,223.4  190,174.425  C  190,125.45  217.193,42.7  219.45,32.958  L  91.569,3.324  C  88.245,23.046  91.847,104  -10,243.85  z " />
<path transform="translate( 0, 0 )" style="stroke: hsl(107.6, 55%, 50%);" id="131"  d=" M  160.123,566.227  L  209.678,559.566  211.676,574.433  160.818,581.21  M  129.938,582.154  L  81.504,587.169  79.977,572.247  129.717,567.156 " />
<path transform="translate( 0, 0 )" style="stroke: hsl(107.6, 55%, 50%);" id="132"  d=" M  -10,243.85  L  -10,621.094  L  57.813,688.907  C  64.406,682.314  89.932,672.716  130.625,665.483  L  130.625,640  C  130.625,615  129.062,538.75  129.062,505  C  129.062,459.712  137.5,323.85  137.5,323.85  C  137.5,323.85  154.217,458.943  156.982,504.147  C  159.043,537.834  162.138,614.037  163.664,638.99  L  165.081,662.156  C  196.869,655.328  235.741,649.61  281.237,646.827  L  280.321,631.855  C  278.184,596.92  271.02,530.985  268.96,497.298  C  266.195,452.094  277.508,360.658  274.743,315.455  C  262.267,316.218  241.448,311.996  227.418,299.583  C  213.388,287.17  190,223.4  190,174.425  C  190,125.45  217.193,42.7  219.45,32.958  L  91.569,3.324  C  88.245,23.046  91.847,104  -10,243.85  z " />
<path transform="translate( 0, 0 )" style="stroke: hsl(134.5, 55%, 50%);" id="164"  d=" M  165.035,565.718  L  214.444,558.053  216.744,572.877  166.034,580.684  M  129.938,582.154  L  81.504,587.169  79.977,572.247  129.717,567.156 " />
<path transform="translate( 0, 0 )" style="stroke: hsl(134.5, 55%, 50%);" id="165"  d=" M  -10,243.85  L  -10,621.094  L  57.813,688.907  C  64.406,682.314  89.932,672.716  130.625,665.483  L  130.625,640  C  130.625,615  129.062,538.75  129.062,505  C  129.062,459.712  137.5,323.85  137.5,323.85  C  137.5,323.85  156.954,458.576  160.635,503.715  C  163.379,537.353  168.019,613.478  170.051,638.395  L  171.938,661.527  C  203.581,654.055  242.329,647.55  287.759,643.845  L  286.54,628.894  C  283.694,594.01  275.195,528.234  272.451,494.595  C  268.77,449.457  278.226,357.81  274.545,312.673  C  262.086,313.689  241.186,309.889  226.907,297.764  C  212.629,285.639  190,223.4  190,174.425  C  190,125.45  217.193,42.7  219.45,32.958  L  91.569,3.324  C  88.245,23.046  91.847,104  -10,243.85  z " />
<path transform="translate( 0, 0 )" style="stroke: hsl(161.4, 55%, 50%);" id="197"  d=" M  169.92,565.112  L  219.164,556.45  221.763,571.223  171.221,580.055  M  129.938,582.154  L  81.504,587.169  79.977,572.247  129.717,567.156 " />
<path transform="translate( 0, 0 )" style="stroke: hsl(161.4, 55%, 50%);" id="198"  d=" M  -10,243.85  L  -10,621.094  L  57.813,688.907  C  64.406,682.314  89.932,672.716  130.625,665.483  L  130.625,640  C  130.625,615  129.062,538.75  129.062,505  C  129.062,459.712  137.5,323.85  137.5,323.85  C  137.5,323.85  159.674,458.156  164.267,503.21  C  167.69,536.786  173.869,612.801  176.404,637.672  L  178.758,660.762  C  210.244,652.652  248.852,645.364  294.198,640.741  L  292.677,625.819  C  289.127,590.999  279.299,525.408  275.876,491.832  C  271.282,446.777  278.884,354.958  274.291,309.904  C  261.855,311.172  240.883,307.796  226.362,295.962  C  211.841,284.127  190,223.4  190,174.425  C  190,125.45  217.193,42.7  219.45,32.958  L  91.569,3.324  C  88.245,23.046  91.847,104  -10,243.85  z " />
<path transform="translate( 0, 0 )" style="stroke: hsl(188.3, 55%, 50%);" id="230"  d=" M  174.77,564.41  L  223.83,554.759  226.726,569.477  176.372,579.324  M  129.938,582.154  L  81.504,587.169  79.977,572.247  129.717,567.156 " />
<path transform="translate( 0, 0 )" style="stroke: hsl(188.3, 55%, 50%);" id="231"  d=" M  -10,243.85  L  -10,621.094  L  57.813,688.907  C  64.406,682.314  89.932,672.716  130.625,665.483  L  130.625,640  C  130.625,615  129.062,538.75  129.062,505  C  129.062,459.712  137.5,323.85  137.5,323.85  C  137.5,323.85  162.373,457.682  167.873,502.635  C  171.971,536.135  179.679,612.011  182.715,636.826  L  185.533,659.863  C  216.849,651.12  255.302,643.057  300.546,637.522  L  298.725,622.633  C  294.475,587.892  283.328,522.512  279.23,489.012  C  273.73,444.059  279.482,352.105  273.982,307.153  C  261.575,308.671  240.539,305.718  225.782,294.178  C  211.026,282.639  190,223.4  190,174.425  C  190,125.45  217.193,42.7  219.45,32.958  L  91.569,3.324  C  88.245,23.046  91.847,104  -10,243.85  z " />
<path transform="translate( 0, 0 )" style="stroke: hsl(215.2, 55%, 50%);" id="263"  d=" M  179.583,563.615  L  228.44,552.982  231.63,567.64  181.483,578.494  M  129.938,582.154  L  81.504,587.169  79.977,572.247  129.717,567.156 " />
<path transform="translate( 0, 0 )" style="stroke: hsl(215.2, 55%, 50%);" id="264"  d=" M  -10,243.85  L  -10,621.094  L  57.813,688.907  C  64.406,682.314  89.932,672.716  130.625,665.483  L  130.625,640  C  130.625,615  129.062,538.75  129.062,505  C  129.062,459.712  137.5,323.85  137.5,323.85  C  137.5,323.85  165.05,457.157  171.449,501.99  C  176.218,535.402  185.444,611.108  188.976,635.857  L  192.256,658.833  C  223.39,649.465  261.675,640.633  306.798,634.193  L  304.679,619.343  C  299.734,584.694  287.279,519.55  282.51,486.139  C  276.111,441.305  280.019,349.255  273.621,304.422  C  261.246,306.188  240.155,303.657  225.17,292.415  C  210.185,281.174  190,223.4  190,174.425  C  190,125.45  217.193,42.7  219.45,32.958  L  91.569,3.324  C  88.245,23.046  91.847,104  -10,243.85  z " />
<path transform="translate( 0, 0 )" style="stroke: hsl(242.1, 55%, 50%);" id="296"  d=" M  184.351,562.729  L  232.987,551.125  236.468,565.716  186.548,577.567  M  129.938,582.154  L  81.504,587.169  79.977,572.247  129.717,567.156 " />
<path transform="translate( 0, 0 )" style="stroke: hsl(242.1, 55%, 50%);" id="297"  d=" M  -10,243.85  L  -10,621.094  L  57.813,688.907  C  64.406,682.314  89.932,672.716  130.625,665.483  L  130.625,640  C  130.625,615  129.062,538.75  129.062,505  C  129.062,459.712  137.5,323.85  137.5,323.85  C  137.5,323.85  167.7,456.581  174.991,501.279  C  180.425,534.588  191.157,610.095  195.182,634.769  L  198.919,657.676  C  229.861,647.689  267.961,638.096  312.948,630.758  L  310.533,615.954  C  304.898,581.41  291.148,516.527  285.715,483.218  C  278.424,438.52  280.497,346.41  273.206,301.714  C  260.87,303.726  239.732,301.616  224.526,290.675  C  209.321,279.734  190,223.4  190,174.425  C  190,125.45  217.193,42.7  219.45,32.958  L  91.569,3.324  C  88.245,23.046  91.847,104  -10,243.85  z " />
<path transform="translate( 0, 0 )" style="stroke: hsl(269, 55%, 50%);" id="329"  d=" M  189.069,561.756  L  237.465,549.191  241.234,563.711  191.558,576.547  M  129.938,582.154  L  81.504,587.169  79.977,572.247  129.717,567.156 " />
<path transform="translate( 0, 0 )" style="stroke: hsl(269, 55%, 50%);" id="330"  d=" M  -10,243.85  L  -10,621.094  L  57.813,688.907  C  64.406,682.314  89.932,672.716  130.625,665.483  L  130.625,640  C  130.625,615  129.062,538.75  129.062,505  C  129.062,459.712  137.5,323.85  137.5,323.85  C  137.5,323.85  170.321,455.958  178.494,500.502  C  184.586,533.698  196.811,608.978  201.323,633.567  L  205.512,656.395  C  236.25,645.798  274.153,635.453  318.986,627.227  L  316.278,612.473  C  309.961,578.048  294.93,513.45  288.839,480.254  C  280.665,435.71  280.916,343.576  272.742,299.033  C  260.447,301.289  239.272,299.597  223.853,288.96  C  208.434,278.322  190,223.4  190,174.425  C  190,125.45  217.193,42.7  219.45,32.958  L  91.569,3.324  C  88.245,23.046  91.847,104  -10,243.85  z " />
<path transform="translate( 0, 0 )" style="stroke: hsl(295.9, 55%, 50%);" id="362"  d=" M  193.735,560.696  L  241.875,547.183  245.929,561.625  196.515,575.436  M  129.938,582.154  L  81.504,587.169  79.977,572.247  129.717,567.156 " />
<path transform="translate( 0, 0 )" style="stroke: hsl(295.9, 55%, 50%);" id="363"  d=" M  -10,243.85  L  -10,621.094  L  57.813,688.907  C  64.406,682.314  89.932,672.716  130.625,665.483  L  130.625,640  C  130.625,615  129.062,538.75  129.062,505  C  129.062,459.712  137.5,323.85  137.5,323.85  C  137.5,323.85  172.911,455.287  181.959,499.662  C  188.702,532.732  202.404,607.757  207.398,632.253  L  212.035,654.994  C  242.559,643.795  280.252,632.707  324.914,623.601  L  321.917,608.903  C  314.925,574.609  298.627,510.318  291.884,477.249  C  282.836,432.874  281.276,340.754  272.228,296.38  C  259.98,298.877  238.776,297.601  223.15,287.269  C  207.525,276.936  190,223.4  190,174.425  C  190,125.45  217.193,42.7  219.45,32.958  L  91.569,3.324  C  88.245,23.046  91.847,104  -10,243.85  z " />
    </g>
    <!-- End of group #front -->
</g>
<!-- End of group #patternScaleContainer -->

</svg>

