<?xml version="1.0" encoding="UTF-8" standalone="no"?>
<svg
    width ="1113.3000010638"
    height ="2464.6641755835"
    viewbox ="0 0 1113.3000010638 2464.6641755835" xmlns:dc="http://purl.org/dc/elements/1.1/"
    xmlns:cc="http://creativecommons.org/ns#"
    xmlns:rdf="http://www.w3.org/1999/02/22-rdf-syntax-ns#"
    xmlns:svg="http://www.w3.org/2000/svg"
    xmlns="http://www.w3.org/2000/svg"
    xmlns:xlink="http://www.w3.org/1999/xlink"
    xmlns:sodipodi="http://sodipodi.sourceforge.net/DTD/sodipodi-0.dtd"
    xmlns:inkscape="http://www.inkscape.org/namespaces/inkscape" 
>

<style type="text/css">
    <![CDATA[
    path { fill: none; stroke: #000000; stroke-opacity:1; stroke-width: 0.5; stroke-miterlimit:4; stroke-dashoffset:0; stroke-linecap:round; stroke-linejoin:round; }
    path.hidden { fill: none; stroke: none; }]]>
</style>


<!-- Start of group #patternScaleContainer -->
<g id="patternScaleContainer"  transform=" scale(3.54330709 ) " >
    
    <!-- Start of group #front -->
    <g id="front"  transform=" translate(15 1.676)  translate(0 0) " >
        <path class="hidden" id="2"  d=" M  -10,3.324  L  294.198,3.324  L  294.198,688.907  L  -10,688.907  z " />
<path transform="translate( 0, 0 )" style="stroke: hsl(26.9, 55%, 50%);" id="32"  d=" M  169.92,565.112  L  219.164,556.45  221.763,571.223  171.221,580.055  M  129.938,582.154  L  81.504,587.169  79.977,572.247  129.717,567.156 " />
<path transform="translate( 0, 0 )" style="stroke: hsl(26.9, 55%, 50%);" id="33"  d=" M  -10,203.85  L  -10,621.094  L  57.813,688.907  C  64.406,682.314  89.932,672.716  130.625,665.483  L  130.625,640  C  130.625,615  129.062,538.75  129.062,505  C  129.062,459.712  137.5,323.85  137.5,323.85  C  137.5,323.85  159.674,458.156  164.267,503.21  C  167.69,536.786  173.869,612.801  176.404,637.672  L  178.758,660.762  C  210.244,652.652  248.852,645.364  294.198,640.741  L  292.677,625.819  C  289.127,590.999  279.299,525.408  275.876,491.832  C  271.282,446.777  278.884,354.958  274.291,309.904  C  261.855,311.172  240.883,307.796  226.362,295.962  C  211.841,284.127  190,223.4  190,174.425  C  190,125.45  217.193,42.7  219.45,32.958  L  91.569,3.324  C  88.245,23.046  91.847,104  -10,203.85  z " />
<path transform="translate( 0, 0 )" style="stroke: hsl(53.8, 55%, 50%);" id="65"  d=" M  169.92,565.112  L  219.164,556.45  221.763,571.223  171.221,580.055  M  129.938,582.154  L  81.504,587.169  79.977,572.247  129.717,567.156 " />
<path transform="translate( 0, 0 )" style="stroke: hsl(53.8, 55%, 50%);" id="66"  d=" M  -10,227.85  L  -10,621.094  L  57.813,688.907  C  64.406,682.314  89.932,672.716  130.625,665.483  L  130.625,640  C  130.625,615  129.062,538.75  129.062,505  C  129.062,459.712  137.5,323.85  137.5,323.85  C  137.5,323.85  159.674,458.156  164.267,503.21  C  167.69,536.786  173.869,612.801  176.404,637.672  L  178.758,660.762  C  210.244,652.652  248.852,645.364  294.198,640.741  L  292.677,625.819  C  289.127,590.999  279.299,525.408  275.876,491.832  C  271.282,446.777  278.884,354.958  274.291,309.904  C  261.855,311.172  240.883,307.796  226.362,295.962  C  211.841,284.127  190,223.4  190,174.425  C  190,125.45  217.193,42.7  219.45,32.958  L  91.569,3.324  C  88.245,23.046  91.847,104  -10,227.85  z " />
<path transform="translate( 0, 0 )" style="stroke: hsl(80.7, 55%, 50%);" id="98"  d=" M  169.92,565.112  L  219.164,556.45  221.763,571.223  171.221,580.055  M  129.938,582.154  L  81.504,587.169  79.977,572.247  129.717,567.156 " />
<path transform="translate( 0, 0 )" style="stroke: hsl(80.7, 55%, 50%);" id="99"  d=" M  -10,251.85  L  -10,621.094  L  57.813,688.907  C  64.406,682.314  89.932,672.716  130.625,665.483  L  130.625,640  C  130.625,615  129.062,538.75  129.062,505  C  129.062,459.712  137.5,323.85  137.5,323.85  C  137.5,323.85  159.674,458.156  164.267,503.21  C  167.69,536.786  173.869,612.801  176.404,637.672  L  178.758,660.762  C  210.244,652.652  248.852,645.364  294.198,640.741  L  292.677,625.819  C  289.127,590.999  279.299,525.408  275.876,491.832  C  271.282,446.777  278.884,354.958  274.291,309.904  C  261.855,311.172  240.883,307.796  226.362,295.962  C  211.841,284.127  190,223.4  190,174.425  C  190,125.45  217.193,42.7  219.45,32.958  L  91.569,3.324  C  88.245,23.046  91.847,104  -10,251.85  z " />
<path transform="translate( 0, 0 )" style="stroke: hsl(107.6, 55%, 50%);" id="131"  d=" M  169.92,565.112  L  219.164,556.45  221.763,571.223  171.221,580.055  M  129.938,582.154  L  81.504,587.169  79.977,572.247  129.717,567.156 " />
<path transform="translate( 0, 0 )" style="stroke: hsl(107.6, 55%, 50%);" id="132"  d=" M  -10,275.85  L  -10,621.094  L  57.813,688.907  C  64.406,682.314  89.932,672.716  130.625,665.483  L  130.625,640  C  130.625,615  129.062,538.75  129.062,505  C  129.062,459.712  137.5,323.85  137.5,323.85  C  137.5,323.85  159.674,458.156  164.267,503.21  C  167.69,536.786  173.869,612.801  176.404,637.672  L  178.758,660.762  C  210.244,652.652  248.852,645.364  294.198,640.741  L  292.677,625.819  C  289.127,590.999  279.299,525.408  275.876,491.832  C  271.282,446.777  278.884,354.958  274.291,309.904  C  261.855,311.172  240.883,307.796  226.362,295.962  C  211.841,284.127  190,223.4  190,174.425  C  190,125.45  217.193,42.7  219.45,32.958  L  91.569,3.324  C  88.245,23.046  91.847,104  -10,275.85  z " />
<path transform="translate( 0, 0 )" style="stroke: hsl(134.5, 55%, 50%);" id="164"  d=" M  169.92,565.112  L  219.164,556.45  221.763,571.223  171.221,580.055  M  129.938,582.154  L  81.504,587.169  79.977,572.247  129.717,567.156 " />
<path transform="translate( 0, 0 )" style="stroke: hsl(134.5, 55%, 50%);" id="165"  d=" M  -10,299.85  L  -10,621.094  L  57.813,688.907  C  64.406,682.314  89.932,672.716  130.625,665.483  L  130.625,640  C  130.625,615  129.062,538.75  129.062,505  C  129.062,459.712  137.5,323.85  137.5,323.85  C  137.5,323.85  159.674,458.156  164.267,503.21  C  167.69,536.786  173.869,612.801  176.404,637.672  L  178.758,660.762  C  210.244,652.652  248.852,645.364  294.198,640.741  L  292.677,625.819  C  289.127,590.999  279.299,525.408  275.876,491.832  C  271.282,446.777  278.884,354.958  274.291,309.904  C  261.855,311.172  240.883,307.796  226.362,295.962  C  211.841,284.127  190,223.4  190,174.425  C  190,125.45  217.193,42.7  219.45,32.958  L  91.569,3.324  C  88.245,23.046  91.847,104  -10,299.85  z " />
<path transform="translate( 0, 0 )" style="stroke: hsl(161.4, 55%, 50%);" id="197"  d=" M  169.92,565.112  L  219.164,556.45  221.763,571.223  171.221,580.055  M  129.938,582.154  L  81.504,587.169  79.977,572.247  129.717,567.156 " />
<path transform="translate( 0, 0 )" style="stroke: hsl(161.4, 55%, 50%);" id="198"  d=" M  -10,323.85  L  -10,621.094  L  57.813,688.907  C  64.406,682.314  89.932,672.716  130.625,665.483  L  130.625,640  C  130.625,615  129.062,538.75  129.062,505  C  129.062,459.712  137.5,323.85  137.5,323.85  C  137.5,323.85  159.674,458.156  164.267,503.21  C  167.69,536.786  173.869,612.801  176.404,637.672  L  178.758,660.762  C  210.244,652.652  248.852,645.364  294.198,640.741  L  292.677,625.819  C  289.127,590.999  279.299,525.408  275.876,491.832  C  271.282,446.777  278.884,354.958  274.291,309.904  C  261.855,311.172  240.883,307.796  226.362,295.962  C  211.841,284.127  190,223.4  190,174.425  C  190,125.45  217.193,42.7  219.45,32.958  L  91.569,3.324  C  88.245,23.046  91.847,104  -10,323.85  z " />
<path transform="translate( 0, 0 )" style="stroke: hsl(188.3, 55%, 50%);" id="230"  d=" M  169.92,565.112  L  219.164,556.45  221.763,571.223  171.221,580.055  M  129.938,582.154  L  81.504,587.169  79.977,572.247  129.717,567.156 " />
<path transform="translate( 0, 0 )" style="stroke: hsl(188.3, 55%, 50%);" id="231"  d=" M  -10,347.85  L  -10,621.094  L  57.813,688.907  C  64.406,682.314  89.932,672.716  130.625,665.483  L  130.625,640  C  130.625,615  129.062,538.75  129.062,505  C  129.062,459.712  137.5,323.85  137.5,323.85  C  137.5,323.85  159.674,458.156  164.267,503.21  C  167.69,536.786  173.869,612.801  176.404,637.672  L  178.758,660.762  C  210.244,652.652  248.852,645.364  294.198,640.741  L  292.677,625.819  C  289.127,590.999  279.299,525.408  275.876,491.832  C  271.282,446.777  278.884,354.958  274.291,309.904  C  261.855,311.172  240.883,307.796  226.362,295.962  C  211.841,284.127  190,223.4  190,174.425  C  190,125.45  217.193,42.7  219.45,32.958  L  91.569,3.324  C  88.245,23.046  91.847,104  -10,347.85  z " />
<path transform="translate( 0, 0 )" style="stroke: hsl(215.2, 55%, 50%);" id="263"  d=" M  169.92,565.112  L  219.164,556.45  221.763,571.223  171.221,580.055  M  129.938,582.154  L  81.504,587.169  79.977,572.247  129.717,567.156 " />
<path transform="translate( 0, 0 )" style="stroke: hsl(215.2, 55%, 50%);" id="264"  d=" M  -10,371.85  L  -10,621.094  L  57.813,688.907  C  64.406,682.314  89.932,672.716  130.625,665.483  L  130.625,640  C  130.625,615  129.062,538.75  129.062,505  C  129.062,459.712  137.5,323.85  137.5,323.85  C  137.5,323.85  159.674,458.156  164.267,503.21  C  167.69,536.786  173.869,612.801  176.404,637.672  L  178.758,660.762  C  210.244,652.652  248.852,645.364  294.198,640.741  L  292.677,625.819  C  289.127,590.999  279.299,525.408  275.876,491.832  C  271.282,446.777  278.884,354.958  274.291,309.904  C  261.855,311.172  240.883,307.796  226.362,295.962  C  211.841,284.127  190,223.4  190,174.425  C  190,125.45  217.193,42.7  219.45,32.958  L  91.569,3.324  C  88.245,23.046  91.847,104  -10,371.85  z " />
<path transform="translate( 0, 0 )" style="stroke: hsl(242.1, 55%, 50%);" id="296"  d=" M  169.92,565.112  L  219.164,556.45  221.763,571.223  171.221,580.055  M  129.938,582.154  L  81.504,587.169  79.977,572.247  129.717,567.156 " />
<path transform="translate( 0, 0 )" style="stroke: hsl(242.1, 55%, 50%);" id="297"  d=" M  -10,395.85  L  -10,621.094  L  57.813,688.907  C  64.406,682.314  89.932,672.716  130.625,665.483  L  130.625,640  C  130.625,615  129.062,538.75  129.062,505  C  129.062,459.712  137.5,323.85  137.5,323.85  C  137.5,323.85  159.674,458.156  164.267,503.21  C  167.69,536.786  173.869,612.801  176.404,637.672  L  178.758,660.762  C  210.244,652.652  248.852,645.364  294.198,640.741  L  292.677,625.819  C  289.127,590.999  279.299,525.408  275.876,491.832  C  271.282,446.777  278.884,354.958  274.291,309.904  C  261.855,311.172  240.883,307.796  226.362,295.962  C  211.841,284.127  190,223.4  190,174.425  C  190,125.45  217.193,42.7  219.45,32.958  L  91.569,3.324  C  88.245,23.046  91.847,104  -10,395.85  z " />
<path transform="translate( 0, 0 )" style="stroke: hsl(269, 55%, 50%);" id="329"  d=" M  169.92,565.112  L  219.164,556.45  221.763,571.223  171.221,580.055  M  129.938,582.154  L  81.504,587.169  79.977,572.247  129.717,567.156 " />
<path transform="translate( 0, 0 )" style="stroke: hsl(269, 55%, 50%);" id="330"  d=" M  -10,419.85  L  -10,621.094  L  57.813,688.907  C  64.406,682.314  89.932,672.716  130.625,665.483  L  130.625,640  C  130.625,615  129.062,538.75  129.062,505  C  129.062,459.712  137.5,323.85  137.5,323.85  C  137.5,323.85  159.674,458.156  164.267,503.21  C  167.69,536.786  173.869,612.801  176.404,637.672  L  178.758,660.762  C  210.244,652.652  248.852,645.364  294.198,640.741  L  292.677,625.819  C  289.127,590.999  279.299,525.408  275.876,491.832  C  271.282,446.777  278.884,354.958  274.291,309.904  C  261.855,311.172  240.883,307.796  226.362,295.962  C  211.841,284.127  190,223.4  190,174.425  C  190,125.45  217.193,42.7  219.45,32.958  L  91.569,3.324  C  88.245,23.046  91.847,104  -10,419.85  z " />
<path transform="translate( 0, 0 )" style="stroke: hsl(295.9, 55%, 50%);" id="362"  d=" M  169.92,565.112  L  219.164,556.45  221.763,571.223  171.221,580.055  M  129.938,582.154  L  81.504,587.169  79.977,572.247  129.717,567.156 " />
<path transform="translate( 0, 0 )" style="stroke: hsl(295.9, 55%, 50%);" id="363"  d=" M  -10,443.85  L  -10,621.094  L  57.813,688.907  C  64.406,682.314  89.932,672.716  130.625,665.483  L  130.625,640  C  130.625,615  129.062,538.75  129.062,505  C  129.062,459.712  137.5,323.85  137.5,323.85  C  137.5,323.85  159.674,458.156  164.267,503.21  C  167.69,536.786  173.869,612.801  176.404,637.672  L  178.758,660.762  C  210.244,652.652  248.852,645.364  294.198,640.741  L  292.677,625.819  C  289.127,590.999  279.299,525.408  275.876,491.832  C  271.282,446.777  278.884,354.958  274.291,309.904  C  261.855,311.172  240.883,307.796  226.362,295.962  C  211.841,284.127  190,223.4  190,174.425  C  190,125.45  217.193,42.7  219.45,32.958  L  91.569,3.324  C  88.245,23.046  91.847,104  -10,443.85  z " />
    </g>
    <!-- End of group #front -->
</g>
<!-- End of group #patternScaleContainer -->

</svg>

