<?xml version="1.0" encoding="UTF-8" standalone="no"?>
<svg
    width ="1113.3000010638"
    height ="2344.5212620828"
    viewbox ="0 0 1113.3000010638 2344.5212620828" xmlns:dc="http://purl.org/dc/elements/1.1/"
    xmlns:cc="http://creativecommons.org/ns#"
    xmlns:rdf="http://www.w3.org/1999/02/22-rdf-syntax-ns#"
    xmlns:svg="http://www.w3.org/2000/svg"
    xmlns="http://www.w3.org/2000/svg"
    xmlns:xlink="http://www.w3.org/1999/xlink"
    xmlns:sodipodi="http://sodipodi.sourceforge.net/DTD/sodipodi-0.dtd"
    xmlns:inkscape="http://www.inkscape.org/namespaces/inkscape" 
>

<style type="text/css">
    <![CDATA[
    path { fill: none; stroke: #000000; stroke-opacity:1; stroke-width: 0.5; stroke-miterlimit:4; stroke-dashoffset:0; stroke-linecap:round; stroke-linejoin:round; }
    path.hidden { fill: none; stroke: none; }]]>
</style>


<!-- Start of group #patternScaleContainer -->
<g id="patternScaleContainer"  transform=" scale(3.54330709 ) " >
    
    <!-- Start of group #front -->
    <g id="front"  transform=" translate(15 1.676)  translate(0 0) " >
        <path class="hidden" id="2"  d=" M  -10,3.324  L  294.198,3.324  L  294.198,655  L  -10,655  z " />
<path transform="translate( 0, 0 )" style="stroke: hsl(26.9, 55%, 50%);" id="32"  d=" M  171.684,585.382  L  220.927,576.713  223.528,591.485  172.988,600.324  M  130.236,602.498  L  81.801,607.507  80.276,592.585  130.017,587.5 " />
<path transform="translate( 0, 0 )" style="stroke: hsl(26.9, 55%, 50%);" id="33"  d=" M  -10,243.85  L  -10,655  C  -10,655  -10,655  -10,655  L  130.625,655  L  130.625,640  C  130.625,615  129.062,538.75  129.062,505  C  129.062,459.712  137.5,323.85  137.5,323.85  C  137.5,323.85  159.674,458.156  164.267,503.21  C  167.69,536.786  173.869,612.801  176.404,637.672  L  177.926,652.595  L  294.198,640.741  L  292.677,625.819  C  289.127,590.999  279.299,525.408  275.876,491.832  C  271.282,446.777  278.884,354.958  274.291,309.904  C  261.855,311.172  240.883,307.796  226.362,295.962  C  211.841,284.127  190,223.4  190,174.425  C  190,125.45  217.193,42.7  219.45,32.958  L  91.569,3.324  C  88.245,23.046  91.847,104  -10,243.85  z " />
<path transform="translate( 0, 0 )" style="stroke: hsl(53.8, 55%, 50%);" id="65"  d=" M  171.164,579.403  L  220.409,570.741  223.008,585.515  172.466,594.347  M  130.149,596.498  L  81.715,601.513  80.188,586.591  129.928,581.5 " />
<path transform="translate( 0, 0 )" style="stroke: hsl(53.8, 55%, 50%);" id="66"  d=" M  -10,243.85  L  -10,645  C  -10,650.523  -5.523,655  0,655  L  130.625,655  L  130.625,640  C  130.625,615  129.062,538.75  129.062,505  C  129.062,459.712  137.5,323.85  137.5,323.85  C  137.5,323.85  159.674,458.156  164.267,503.21  C  167.69,536.786  173.869,612.801  176.404,637.672  L  177.926,652.595  L  294.198,640.741  L  292.677,625.819  C  289.127,590.999  279.299,525.408  275.876,491.832  C  271.282,446.777  278.884,354.958  274.291,309.904  C  261.855,311.172  240.883,307.796  226.362,295.962  C  211.841,284.127  190,223.4  190,174.425  C  190,125.45  217.193,42.7  219.45,32.958  L  91.569,3.324  C  88.245,23.046  91.847,104  -10,243.85  z " />
<path transform="translate( 0, 0 )" style="stroke: hsl(80.7, 55%, 50%);" id="98"  d=" M  170.644,573.425  L  219.889,564.769  222.486,579.543  171.944,588.369  M  130.062,590.498  L  81.629,595.52  80.1,580.598  129.839,575.5 " />
<path transform="translate( 0, 0 )" style="stroke: hsl(80.7, 55%, 50%);" id="99"  d=" M  -10,243.85  L  -10,635  C  -10,646.046  -1.046,655  10,655  L  130.625,655  L  130.625,640  C  130.625,615  129.062,538.75  129.062,505  C  129.062,459.712  137.5,323.85  137.5,323.85  C  137.5,323.85  159.674,458.156  164.267,503.21  C  167.69,536.786  173.869,612.801  176.404,637.672  L  177.926,652.595  L  294.198,640.741  L  292.677,625.819  C  289.127,590.999  279.299,525.408  275.876,491.832  C  271.282,446.777  278.884,354.958  274.291,309.904  C  261.855,311.172  240.883,307.796  226.362,295.962  C  211.841,284.127  190,223.4  190,174.425  C  190,125.45  217.193,42.7  219.45,32.958  L  91.569,3.324  C  88.245,23.046  91.847,104  -10,243.85  z " />
<path transform="translate( 0, 0 )" style="stroke: hsl(107.6, 55%, 50%);" id="131"  d=" M  170.123,567.447  L  219.368,558.788  221.966,573.562  171.424,582.391  M  129.973,584.498  L  81.539,589.517  80.011,574.595  129.751,569.5 " />
<path transform="translate( 0, 0 )" style="stroke: hsl(107.6, 55%, 50%);" id="132"  d=" M  -10,243.85  L  -10,625  C  -10,641.569  3.431,655  20,655  L  130.625,655  L  130.625,640  C  130.625,615  129.062,538.75  129.062,505  C  129.062,459.712  137.5,323.85  137.5,323.85  C  137.5,323.85  159.674,458.156  164.267,503.21  C  167.69,536.786  173.869,612.801  176.404,637.672  L  177.926,652.595  L  294.198,640.741  L  292.677,625.819  C  289.127,590.999  279.299,525.408  275.876,491.832  C  271.282,446.777  278.884,354.958  274.291,309.904  C  261.855,311.172  240.883,307.796  226.362,295.962  C  211.841,284.127  190,223.4  190,174.425  C  190,125.45  217.193,42.7  219.45,32.958  L  91.569,3.324  C  88.245,23.046  91.847,104  -10,243.85  z " />
<path transform="translate( 0, 0 )" style="stroke: hsl(134.5, 55%, 50%);" id="164"  d=" M  169.601,561.469  L  218.844,552.803  221.444,567.576  170.904,576.412  M  129.884,578.498  L  81.45,583.51  79.924,568.588  129.664,563.5 " />
<path transform="translate( 0, 0 )" style="stroke: hsl(134.5, 55%, 50%);" id="165"  d=" M  -10,243.85  L  -10,615  C  -10,637.091  7.909,655  30,655  L  130.625,655  L  130.625,640  C  130.625,615  129.062,538.75  129.062,505  C  129.062,459.712  137.5,323.85  137.5,323.85  C  137.5,323.85  159.674,458.156  164.267,503.21  C  167.69,536.786  173.869,612.801  176.404,637.672  L  177.926,652.595  L  294.198,640.741  L  292.677,625.819  C  289.127,590.999  279.299,525.408  275.876,491.832  C  271.282,446.777  278.884,354.958  274.291,309.904  C  261.855,311.172  240.883,307.796  226.362,295.962  C  211.841,284.127  190,223.4  190,174.425  C  190,125.45  217.193,42.7  219.45,32.958  L  91.569,3.324  C  88.245,23.046  91.847,104  -10,243.85  z " />
<path transform="translate( 0, 0 )" style="stroke: hsl(161.4, 55%, 50%);" id="197"  d=" M  169.078,555.492  L  218.32,546.816  220.923,561.588  170.384,570.434  M  129.795,572.498  L  81.36,577.5  79.837,562.578  129.578,557.5 " />
<path transform="translate( 0, 0 )" style="stroke: hsl(161.4, 55%, 50%);" id="198"  d=" M  -10,243.85  L  -10,605  C  -10,632.614  12.386,655  40,655  L  130.625,655  L  130.625,640  C  130.625,615  129.062,538.75  129.062,505  C  129.062,459.712  137.5,323.85  137.5,323.85  C  137.5,323.85  159.674,458.156  164.267,503.21  C  167.69,536.786  173.869,612.801  176.404,637.672  L  177.926,652.595  L  294.198,640.741  L  292.677,625.819  C  289.127,590.999  279.299,525.408  275.876,491.832  C  271.282,446.777  278.884,354.958  274.291,309.904  C  261.855,311.172  240.883,307.796  226.362,295.962  C  211.841,284.127  190,223.4  190,174.425  C  190,125.45  217.193,42.7  219.45,32.958  L  91.569,3.324  C  88.245,23.046  91.847,104  -10,243.85  z " />
<path transform="translate( 0, 0 )" style="stroke: hsl(188.3, 55%, 50%);" id="230"  d=" M  168.552,549.514  L  217.791,540.823  220.398,555.594  169.863,564.457  M  129.707,566.499  L  81.27,571.484  79.752,556.561  129.495,551.5 " />
<path transform="translate( 0, 0 )" style="stroke: hsl(188.3, 55%, 50%);" id="231"  d=" M  -10,243.85  L  -10,595  C  -10,628.137  16.863,655  50,655  L  130.625,655  L  130.625,640  C  130.625,615  129.062,538.75  129.062,505  C  129.062,459.712  137.5,323.85  137.5,323.85  C  137.5,323.85  159.674,458.156  164.267,503.21  C  167.69,536.786  173.869,612.801  176.404,637.672  L  177.926,652.595  L  294.198,640.741  L  292.677,625.819  C  289.127,590.999  279.299,525.408  275.876,491.832  C  271.282,446.777  278.884,354.958  274.291,309.904  C  261.855,311.172  240.883,307.796  226.362,295.962  C  211.841,284.127  190,223.4  190,174.425  C  190,125.45  217.193,42.7  219.45,32.958  L  91.569,3.324  C  88.245,23.046  91.847,104  -10,243.85  z " />
<path transform="translate( 0, 0 )" style="stroke: hsl(215.2, 55%, 50%);" id="263"  d=" M  168.024,543.537  L  217.259,534.826  219.872,549.596  169.34,558.48  M  129.621,560.499  L  81.182,565.465  79.67,550.541  129.415,545.5 " />
<path transform="translate( 0, 0 )" style="stroke: hsl(215.2, 55%, 50%);" id="264"  d=" M  -10,243.85  L  -10,585  C  -10,623.66  21.34,655  60,655  L  130.625,655  L  130.625,640  C  130.625,615  129.062,538.75  129.062,505  C  129.062,459.712  137.5,323.85  137.5,323.85  C  137.5,323.85  159.674,458.156  164.267,503.21  C  167.69,536.786  173.869,612.801  176.404,637.672  L  177.926,652.595  L  294.198,640.741  L  292.677,625.819  C  289.127,590.999  279.299,525.408  275.876,491.832  C  271.282,446.777  278.884,354.958  274.291,309.904  C  261.855,311.172  240.883,307.796  226.362,295.962  C  211.841,284.127  190,223.4  190,174.425  C  190,125.45  217.193,42.7  219.45,32.958  L  91.569,3.324  C  88.245,23.046  91.847,104  -10,243.85  z " />
<path transform="translate( 0, 0 )" style="stroke: hsl(242.1, 55%, 50%);" id="296"  d=" M  167.491,537.56  L  216.721,528.819  219.343,543.588  168.816,552.502  M  129.536,554.499  L  81.094,559.436  79.591,544.512  129.339,539.5 " />
<path transform="translate( 0, 0 )" style="stroke: hsl(242.1, 55%, 50%);" id="297"  d=" M  -10,243.85  L  -10,575  C  -10,619.183  25.817,655  70,655  L  130.625,655  L  130.625,640  C  130.625,615  129.062,538.75  129.062,505  C  129.062,459.712  137.5,323.85  137.5,323.85  C  137.5,323.85  159.674,458.156  164.267,503.21  C  167.69,536.786  173.869,612.801  176.404,637.672  L  177.926,652.595  L  294.198,640.741  L  292.677,625.819  C  289.127,590.999  279.299,525.408  275.876,491.832  C  271.282,446.777  278.884,354.958  274.291,309.904  C  261.855,311.172  240.883,307.796  226.362,295.962  C  211.841,284.127  190,223.4  190,174.425  C  190,125.45  217.193,42.7  219.45,32.958  L  91.569,3.324  C  88.245,23.046  91.847,104  -10,243.85  z " />
<path transform="translate( 0, 0 )" style="stroke: hsl(269, 55%, 50%);" id="329"  d=" M  166.953,531.584  L  216.177,522.81  218.809,537.578  168.288,546.525  M  129.455,548.499  L  81.01,553.403  79.516,538.478  129.268,533.5 " />
<path transform="translate( 0, 0 )" style="stroke: hsl(269, 55%, 50%);" id="330"  d=" M  -10,243.85  L  -10,565  C  -10,614.706  30.294,655  80,655  L  130.625,655  L  130.625,640  C  130.625,615  129.062,538.75  129.062,505  C  129.062,459.712  137.5,323.85  137.5,323.85  C  137.5,323.85  159.674,458.156  164.267,503.21  C  167.69,536.786  173.869,612.801  176.404,637.672  L  177.926,652.595  L  294.198,640.741  L  292.677,625.819  C  289.127,590.999  279.299,525.408  275.876,491.832  C  271.282,446.777  278.884,354.958  274.291,309.904  C  261.855,311.172  240.883,307.796  226.362,295.962  C  211.841,284.127  190,223.4  190,174.425  C  190,125.45  217.193,42.7  219.45,32.958  L  91.569,3.324  C  88.245,23.046  91.847,104  -10,243.85  z " />
<path transform="translate( 0, 0 )" style="stroke: hsl(295.9, 55%, 50%);" id="362"  d=" M  166.409,525.608  L  215.625,516.788  218.271,531.553  167.758,540.548  M  129.376,542.499  L  80.927,547.359  79.447,532.432  129.203,527.5 " />
<path transform="translate( 0, 0 )" style="stroke: hsl(295.9, 55%, 50%);" id="363"  d=" M  -10,243.85  L  -10,555  C  -10,610.228  34.772,655  90,655  L  130.625,655  L  130.625,640  C  130.625,615  129.062,538.75  129.062,505  C  129.062,459.712  137.5,323.85  137.5,323.85  C  137.5,323.85  159.674,458.156  164.267,503.21  C  167.69,536.786  173.869,612.801  176.404,637.672  L  177.926,652.595  L  294.198,640.741  L  292.677,625.819  C  289.127,590.999  279.299,525.408  275.876,491.832  C  271.282,446.777  278.884,354.958  274.291,309.904  C  261.855,311.172  240.883,307.796  226.362,295.962  C  211.841,284.127  190,223.4  190,174.425  C  190,125.45  217.193,42.7  219.45,32.958  L  91.569,3.324  C  88.245,23.046  91.847,104  -10,243.85  z " />
    </g>
    <!-- End of group #front -->
</g>
<!-- End of group #patternScaleContainer -->

</svg>

