<?xml version="1.0" encoding="UTF-8" standalone="no"?>
<svg
    xmlns="http://www.w3.org/2000/svg"
    xmlns:svg="http://www.w3.org/2000/svg"
    xmlns:xlink="http://www.w3.org/1999/xlink"
    xmlns:freesewing="http://freesewing.org/namespaces/freesewing" viewBox ="0 0 600 766"
    width ="600mm"
    height ="766mm"
    freesewing:version ="1.5.0"
    freesewing:origin ="joost.core.freesewing.org" 
>

<style type="text/css">
    <![CDATA[
    path { fill: none; stroke: #000000; stroke-opacity:1; stroke-width: 0.5; stroke-miterlimit:4; stroke-dashoffset:0; stroke-linecap:round; stroke-linejoin:round; }
    path.hidden { fill: none; stroke: none; }]]>
</style>


<!-- Start of group #patternContainer -->
<g id="patternContainer" >
    
    <!-- Start of group #frontBlock -->
    <g id="frontBlock" >
    </g>
    <!-- End of group #frontBlock -->
    
    <!-- Start of group #backBlock -->
    <g id="backBlock" >
    </g>
    <!-- End of group #backBlock -->
    
    <!-- Start of group #waistcoatFrontBlock -->
    <g id="waistcoatFrontBlock" >
    </g>
    <!-- End of group #waistcoatFrontBlock -->
    
    <!-- Start of group #front -->
    <g id="front"  transform=" translate(15 101.676)  translate(0 0) " >
        <path class="hidden" id="2"  d=" M  -10,-96.676  L  294.837,-96.676  L  294.837,658.907  L  -10,658.907  z " />
<path transform="translate( 0, 0 )" style="stroke: hsl(26.9, 55%, 50%);" id="32"  d=" M  160.674,520.005  L  209.959,511.579  212.487,526.364  161.904,534.955  M  129.357,536.499  L  80.914,541.417  79.416,526.492  129.166,521.5 " />
<path transform="translate( 0, 0 )" style="stroke: hsl(26.9, 55%, 50%);" id="33"  d=" M  -10,284.35  L  -10,591.094  L  57.813,658.907  C  64.406,652.314  89.932,642.716  130.625,635.483  L  130.625,625  C  130.625,600  129.062,535  129.062,505  C  129.062,469.837  137.5,364.35  137.5,364.35  C  137.5,364.35  155.887,468.564  159.215,503.569  C  162.056,533.435  166.653,598.291  169.02,623.178  L  169.797,631.351  C  201.337,623.454  239.994,616.429  285.37,612.114  L  285.37,612.114  C  282.056,577.271  273.739,522.814  270.899,492.949  C  267.57,457.944  277.711,386.337  274.382,351.333  C  261.939,352.516  241.955,348.735  227.07,336.435  C  212.184,324.135  190,250.4  190,194.675  C  190,138.95  217.121,42.841  219.39,33.102  L  91.569,3.324  C  88.245,23.046  91.847,104  -10,284.35  z " />
<path transform="translate( 0, -10 )" style="stroke: hsl(53.8, 55%, 50%);" id="65"  d=" M  160.85,521.997  L  210.132,513.551  212.666,528.336  162.086,536.947  M  129.364,538.499  L  80.919,543.398  79.427,528.472  129.179,523.5 " />
<path transform="translate( 0, -10 )" style="stroke: hsl(53.8, 55%, 50%);" id="66"  d=" M  -10,284.35  L  -10,601.094  L  57.813,668.907  C  64.406,662.314  89.932,652.716  130.625,645.483  L  130.625,630  C  130.625,605  129.062,536.25  129.062,505  C  129.062,469.837  137.5,364.35  137.5,364.35  C  137.5,364.35  155.887,468.564  159.215,503.569  C  162.174,534.679  167.126,603.268  169.493,628.156  L  170.744,641.306  C  202.284,633.409  240.94,626.384  286.317,622.069  L  285.843,617.092  C  282.53,582.249  273.857,524.058  270.899,492.949  C  267.57,457.944  277.711,386.337  274.382,351.333  C  261.939,352.516  241.955,348.735  227.07,336.435  C  212.184,324.135  190,250.4  190,194.675  C  190,138.95  217.121,42.841  219.39,33.102  L  91.569,3.324  C  88.245,23.046  91.847,104  -10,284.35  z " />
<path transform="translate( 0, -20 )" style="stroke: hsl(80.7, 55%, 50%);" id="98"  d=" M  161.028,523.99  L  210.306,515.523  212.845,530.306  162.269,538.938  M  129.37,540.499  L  80.923,545.378  79.437,530.452  129.191,525.5 " />
<path transform="translate( 0, -20 )" style="stroke: hsl(80.7, 55%, 50%);" id="99"  d=" M  -10,284.35  L  -10,611.094  L  57.813,678.907  C  64.406,672.314  89.932,662.716  130.625,655.483  L  130.625,635  C  130.625,610  129.062,537.5  129.062,505  C  129.062,469.837  137.5,364.35  137.5,364.35  C  137.5,364.35  155.887,468.564  159.215,503.569  C  162.292,535.924  167.6,608.246  169.967,633.134  L  171.69,651.261  C  203.23,643.364  241.887,636.339  287.263,632.024  L  286.317,622.069  C  283.003,587.226  273.975,525.303  270.899,492.949  C  267.57,457.944  277.711,386.337  274.382,351.333  C  261.939,352.516  241.955,348.735  227.07,336.435  C  212.184,324.135  190,250.4  190,194.675  C  190,138.95  217.121,42.841  219.39,33.102  L  91.569,3.324  C  88.245,23.046  91.847,104  -10,284.35  z " />
<path transform="translate( 0, -30 )" style="stroke: hsl(107.6, 55%, 50%);" id="131"  d=" M  161.205,525.982  L  210.48,517.496  213.026,532.278  162.453,540.93  M  129.376,542.499  L  80.927,547.359  79.447,532.432  129.203,527.5 " />
<path transform="translate( 0, -30 )" style="stroke: hsl(107.6, 55%, 50%);" id="132"  d=" M  -10,284.35  L  -10,621.094  L  57.813,688.907  C  64.406,682.314  89.932,672.716  130.625,665.483  L  130.625,640  C  130.625,615  129.062,538.75  129.062,505  C  129.062,469.837  137.5,364.35  137.5,364.35  C  137.5,364.35  155.887,468.564  159.215,503.569  C  162.411,537.168  168.073,613.223  170.44,638.111  L  172.637,661.216  C  204.177,653.32  242.834,646.294  288.21,641.979  L  286.79,627.047  C  283.477,592.204  274.094,526.547  270.899,492.949  C  267.57,457.944  277.711,386.337  274.382,351.333  C  261.939,352.516  241.955,348.735  227.07,336.435  C  212.184,324.135  190,250.4  190,194.675  C  190,138.95  217.121,42.841  219.39,33.102  L  91.569,3.324  C  88.245,23.046  91.847,104  -10,284.35  z " />
<path transform="translate( 0, -40 )" style="stroke: hsl(134.5, 55%, 50%);" id="164"  d=" M  161.385,527.974  L  210.657,519.475  213.207,534.257  162.636,542.921  M  129.382,544.499  L  80.932,549.346  79.456,534.419  129.213,529.5 " />
<path transform="translate( 0, -40 )" style="stroke: hsl(134.5, 55%, 50%);" id="165"  d=" M  -10,284.35  L  -10,631.094  L  57.813,698.907  C  64.406,692.314  89.932,682.716  130.625,675.483  L  130.625,645  C  130.625,620  129.062,540  129.062,505  C  129.062,469.837  137.5,364.35  137.5,364.35  C  137.5,364.35  155.887,468.564  159.215,503.569  C  162.529,538.412  168.546,618.201  170.913,643.089  L  173.584,671.171  C  205.124,663.275  243.78,656.249  289.157,651.934  L  287.263,632.024  C  283.95,597.181  274.212,527.792  270.899,492.949  C  267.57,457.944  277.711,386.337  274.382,351.333  C  261.939,352.516  241.955,348.735  227.07,336.435  C  212.184,324.135  190,250.4  190,194.675  C  190,138.95  217.121,42.841  219.39,33.102  L  91.569,3.324  C  88.245,23.046  91.847,104  -10,284.35  z " />
<path transform="translate( 0, -50 )" style="stroke: hsl(161.4, 55%, 50%);" id="197"  d=" M  161.563,529.966  L  210.832,521.447  213.387,536.228  162.821,544.913  M  129.387,546.499  L  80.935,551.327  79.465,536.399  129.224,531.5 " />
<path transform="translate( 0, -50 )" style="stroke: hsl(161.4, 55%, 50%);" id="198"  d=" M  -10,284.35  L  -10,641.094  L  57.813,708.907  C  64.406,702.314  89.932,692.716  130.625,685.483  L  130.625,650  C  130.625,625  129.062,541.25  129.062,505  C  129.062,469.837  137.5,364.35  137.5,364.35  C  137.5,364.35  155.887,468.564  159.215,503.569  C  162.647,539.657  169.02,623.178  171.387,648.066  L  174.53,681.126  C  206.071,673.23  244.727,666.205  290.103,661.889  L  287.737,637.002  C  284.423,602.159  274.33,529.036  270.899,492.949  C  267.57,457.944  277.711,386.337  274.382,351.333  C  261.939,352.516  241.955,348.735  227.07,336.435  C  212.184,324.135  190,250.4  190,194.675  C  190,138.95  217.121,42.841  219.39,33.102  L  91.569,3.324  C  88.245,23.046  91.847,104  -10,284.35  z " />
<path transform="translate( 0, -60 )" style="stroke: hsl(188.3, 55%, 50%);" id="230"  d=" M  161.743,531.958  L  211.01,523.422  213.57,538.202  163.006,546.904  M  129.391,548.499  L  80.937,553.31  79.472,538.382  129.233,533.5 " />
<path transform="translate( 0, -60 )" style="stroke: hsl(188.3, 55%, 50%);" id="231"  d=" M  -10,284.35  L  -10,651.094  L  57.813,718.907  C  64.406,712.314  89.932,702.716  130.625,695.483  L  130.625,655  C  130.625,630  129.062,542.5  129.062,505  C  129.062,469.837  137.5,364.35  137.5,364.35  C  137.5,364.35  155.887,468.564  159.215,503.569  C  162.766,540.901  169.493,628.156  171.86,653.044  L  175.477,691.081  C  207.017,683.185  245.674,676.16  291.05,671.844  L  288.21,641.979  C  284.897,607.136  274.449,530.28  270.899,492.949  C  267.57,457.944  277.711,386.337  274.382,351.333  C  261.939,352.516  241.955,348.735  227.07,336.435  C  212.184,324.135  190,250.4  190,194.675  C  190,138.95  217.121,42.841  219.39,33.102  L  91.569,3.324  C  88.245,23.046  91.847,104  -10,284.35  z " />
<path transform="translate( 0, -70 )" style="stroke: hsl(215.2, 55%, 50%);" id="263"  d=" M  161.924,533.95  L  211.188,525.401  213.752,540.181  163.19,548.896  M  129.396,550.499  L  80.941,555.298  79.48,540.369  129.242,535.5 " />
<path transform="translate( 0, -70 )" style="stroke: hsl(215.2, 55%, 50%);" id="264"  d=" M  -10,284.35  L  -10,661.094  L  57.813,728.907  C  64.406,722.314  89.932,712.716  130.625,705.483  L  130.625,660  C  130.625,635  129.062,543.75  129.062,505  C  129.062,469.837  137.5,364.35  137.5,364.35  C  137.5,364.35  155.887,468.564  159.215,503.569  C  162.884,542.145  169.967,633.134  172.333,658.021  L  176.424,701.036  C  207.964,693.14  246.621,686.115  291.997,681.8  L  288.683,646.957  C  285.37,612.114  274.567,531.525  270.899,492.949  C  267.57,457.944  277.711,386.337  274.382,351.333  C  261.939,352.516  241.955,348.735  227.07,336.435  C  212.184,324.135  190,250.4  190,194.675  C  190,138.95  217.121,42.841  219.39,33.102  L  91.569,3.324  C  88.245,23.046  91.847,104  -10,284.35  z " />
<path transform="translate( 0, -80 )" style="stroke: hsl(242.1, 55%, 50%);" id="296"  d=" M  162.104,535.941  L  211.365,527.376  213.935,542.154  163.376,550.887  M  129.4,552.499  L  80.943,557.281  79.487,542.352  129.251,537.5 " />
<path transform="translate( 0, -80 )" style="stroke: hsl(242.1, 55%, 50%);" id="297"  d=" M  -10,284.35  L  -10,671.094  L  57.813,738.907  C  64.406,732.314  89.932,722.716  130.625,715.483  L  130.625,665  C  130.625,640  129.062,545  129.062,505  C  129.062,469.837  137.5,364.35  137.5,364.35  C  137.5,364.35  155.887,468.564  159.215,503.569  C  163.002,543.39  170.44,638.111  172.807,662.999  L  177.371,710.991  C  208.911,703.095  247.567,696.07  292.943,691.755  L  289.157,651.934  C  285.843,617.092  274.685,532.769  270.899,492.949  C  267.57,457.944  277.711,386.337  274.382,351.333  C  261.939,352.516  241.955,348.735  227.07,336.435  C  212.184,324.135  190,250.4  190,194.675  C  190,138.95  217.121,42.841  219.39,33.102  L  91.569,3.324  C  88.245,23.046  91.847,104  -10,284.35  z " />
<path transform="translate( 0, -90 )" style="stroke: hsl(269, 55%, 50%);" id="329"  d=" M  162.285,537.933  L  211.545,529.355  214.118,544.133  163.561,552.879  M  129.404,554.499  L  80.946,559.269  79.494,544.339  129.259,539.5 " />
<path transform="translate( 0, -90 )" style="stroke: hsl(269, 55%, 50%);" id="330"  d=" M  -10,284.35  L  -10,681.094  L  57.813,748.907  C  64.406,742.314  89.932,732.716  130.625,725.483  L  130.625,670  C  130.625,645  129.062,546.25  129.062,505  C  129.062,469.837  137.5,364.35  137.5,364.35  C  137.5,364.35  155.887,468.564  159.215,503.569  C  163.121,544.634  170.913,643.089  173.28,667.976  L  178.317,720.946  C  209.857,713.05  248.514,706.025  293.89,701.71  L  289.63,656.912  C  286.317,622.069  274.804,534.013  270.899,492.949  C  267.57,457.944  277.711,386.337  274.382,351.333  C  261.939,352.516  241.955,348.735  227.07,336.435  C  212.184,324.135  190,250.4  190,194.675  C  190,138.95  217.121,42.841  219.39,33.102  L  91.569,3.324  C  88.245,23.046  91.847,104  -10,284.35  z " />
<path transform="translate( 0, -100 )" style="stroke: hsl(295.9, 55%, 50%);" id="362"  d=" M  162.468,539.925  L  211.724,531.334  214.301,546.112  163.747,554.87  M  129.407,556.499  L  80.947,561.256  79.499,546.326  129.266,541.5 " />
<path transform="translate( 0, -100 )" style="stroke: hsl(295.9, 55%, 50%);" id="363"  d=" M  -10,284.35  L  -10,691.094  L  57.813,758.907  C  64.406,752.314  89.932,742.716  130.625,735.483  L  130.625,675  C  130.625,650  129.062,547.5  129.062,505  C  129.062,469.837  137.5,364.35  137.5,364.35  C  137.5,364.35  155.887,468.564  159.215,503.569  C  163.239,545.879  171.387,648.066  173.753,672.954  L  179.264,730.901  C  210.804,723.005  249.461,715.98  294.837,711.665  L  290.103,661.889  C  286.79,627.047  274.922,535.258  270.899,492.949  C  267.57,457.944  277.711,386.337  274.382,351.333  C  261.939,352.516  241.955,348.735  227.07,336.435  C  212.184,324.135  190,250.4  190,194.675  C  190,138.95  217.121,42.841  219.39,33.102  L  91.569,3.324  C  88.245,23.046  91.847,104  -10,284.35  z " />
    </g>
    <!-- End of group #front -->
    
    <!-- Start of group #back -->
    <g id="back"  transform=" translate(5 52.808)  translate(314.837 0) " >
        <path class="hidden" id="3"  d=" M  0,-47.808  L  275,-47.808  L  275,675  L  0,675  z " />
<path transform="translate( 0, 0 )" style="stroke: hsl(26.9, 55%, 50%);" id="34"  d=" M  14.433,21.466  C  14.433,21.466  0,194.675  0,364.35  L  0,505  L  0,625  L  130.625,625  L  130.625,625  C  130.625,600  129.062,535  129.062,505  C  129.062,469.837  137.5,364.35  137.5,364.35  C  137.5,364.35  145.938,469.837  145.938,505  C  145.938,535  144.375,600  144.375,625  L  144.375,625  L  261.25,625  L  261.25,625  C  261.25,590  258.125,535  258.125,505  C  258.125,469.837  275,399.512  275,364.35  C  262.5,364.35  245.464,358.694  231.81,345.04  C  218.156,331.386  203.126,252.171  204.667,196.468  C  206.208,140.764  225.686,46.003  228.289,36.348  L  101.568,2.192  C  97.7,21.815  14.433,21.466  14.433,21.466  z " />
<path transform="translate( 0, -5 )" style="stroke: hsl(53.8, 55%, 50%);" id="67"  d=" M  14.433,21.466  C  14.433,21.466  0,194.675  0,364.35  L  0,505  L  0,635  L  130.625,635  L  130.625,630  C  130.625,605  129.062,536.25  129.062,505  C  129.062,469.837  137.5,364.35  137.5,364.35  C  137.5,364.35  145.938,469.837  145.938,505  C  145.938,536.25  144.375,605  144.375,630  L  144.375,635  L  261.25,635  L  261.25,630  C  261.25,595  258.125,536.25  258.125,505  C  258.125,469.837  275,399.512  275,364.35  C  262.5,364.35  245.464,358.694  231.81,345.04  C  218.156,331.386  203.126,252.171  204.667,196.468  C  206.208,140.764  225.686,46.003  228.289,36.348  L  101.568,2.192  C  97.7,21.815  14.433,21.466  14.433,21.466  z " />
<path transform="translate( 0, -10 )" style="stroke: hsl(80.7, 55%, 50%);" id="100"  d=" M  14.433,21.466  C  14.433,21.466  0,194.675  0,364.35  L  0,505  L  0,645  L  130.625,645  L  130.625,635  C  130.625,610  129.062,537.5  129.062,505  C  129.062,469.837  137.5,364.35  137.5,364.35  C  137.5,364.35  145.938,469.837  145.938,505  C  145.938,537.5  144.375,610  144.375,635  L  144.375,645  L  261.25,645  L  261.25,635  C  261.25,600  258.125,537.5  258.125,505  C  258.125,469.837  275,399.512  275,364.35  C  262.5,364.35  245.464,358.694  231.81,345.04  C  218.156,331.386  203.126,252.171  204.667,196.468  C  206.208,140.764  225.686,46.003  228.289,36.348  L  101.568,2.192  C  97.7,21.815  14.433,21.466  14.433,21.466  z " />
<path transform="translate( 0, -15 )" style="stroke: hsl(107.6, 55%, 50%);" id="133"  d=" M  14.433,21.466  C  14.433,21.466  0,194.675  0,364.35  L  0,505  L  0,655  L  130.625,655  L  130.625,640  C  130.625,615  129.062,538.75  129.062,505  C  129.062,469.837  137.5,364.35  137.5,364.35  C  137.5,364.35  145.938,469.837  145.938,505  C  145.938,538.75  144.375,615  144.375,640  L  144.375,655  L  261.25,655  L  261.25,640  C  261.25,605  258.125,538.75  258.125,505  C  258.125,469.837  275,399.512  275,364.35  C  262.5,364.35  245.464,358.694  231.81,345.04  C  218.156,331.386  203.126,252.171  204.667,196.468  C  206.208,140.764  225.686,46.003  228.289,36.348  L  101.568,2.192  C  97.7,21.815  14.433,21.466  14.433,21.466  z " />
<path transform="translate( 0, -20 )" style="stroke: hsl(134.5, 55%, 50%);" id="166"  d=" M  14.433,21.466  C  14.433,21.466  0,194.675  0,364.35  L  0,505  L  0,665  L  130.625,665  L  130.625,645  C  130.625,620  129.062,540  129.062,505  C  129.062,469.837  137.5,364.35  137.5,364.35  C  137.5,364.35  145.938,469.837  145.938,505  C  145.938,540  144.375,620  144.375,645  L  144.375,665  L  261.25,665  L  261.25,645  C  261.25,610  258.125,540  258.125,505  C  258.125,469.837  275,399.512  275,364.35  C  262.5,364.35  245.464,358.694  231.81,345.04  C  218.156,331.386  203.126,252.171  204.667,196.468  C  206.208,140.764  225.686,46.003  228.289,36.348  L  101.568,2.192  C  97.7,21.815  14.433,21.466  14.433,21.466  z " />
<path transform="translate( 0, -25 )" style="stroke: hsl(161.4, 55%, 50%);" id="199"  d=" M  14.433,21.466  C  14.433,21.466  0,194.675  0,364.35  L  0,505  L  0,675  L  130.625,675  L  130.625,650  C  130.625,625  129.062,541.25  129.062,505  C  129.062,469.837  137.5,364.35  137.5,364.35  C  137.5,364.35  145.938,469.837  145.938,505  C  145.938,541.25  144.375,625  144.375,650  L  144.375,675  L  261.25,675  L  261.25,650  C  261.25,615  258.125,541.25  258.125,505  C  258.125,469.837  275,399.512  275,364.35  C  262.5,364.35  245.464,358.694  231.81,345.04  C  218.156,331.386  203.126,252.171  204.667,196.468  C  206.208,140.764  225.686,46.003  228.289,36.348  L  101.568,2.192  C  97.7,21.815  14.433,21.466  14.433,21.466  z " />
<path transform="translate( 0, -30 )" style="stroke: hsl(188.3, 55%, 50%);" id="232"  d=" M  14.433,21.466  C  14.433,21.466  0,194.675  0,364.35  L  0,505  L  0,685  L  130.625,685  L  130.625,655  C  130.625,630  129.062,542.5  129.062,505  C  129.062,469.837  137.5,364.35  137.5,364.35  C  137.5,364.35  145.938,469.837  145.938,505  C  145.938,542.5  144.375,630  144.375,655  L  144.375,685  L  261.25,685  L  261.25,655  C  261.25,620  258.125,542.5  258.125,505  C  258.125,469.837  275,399.512  275,364.35  C  262.5,364.35  245.464,358.694  231.81,345.04  C  218.156,331.386  203.126,252.171  204.667,196.468  C  206.208,140.764  225.686,46.003  228.289,36.348  L  101.568,2.192  C  97.7,21.815  14.433,21.466  14.433,21.466  z " />
<path transform="translate( 0, -35 )" style="stroke: hsl(215.2, 55%, 50%);" id="265"  d=" M  14.433,21.466  C  14.433,21.466  0,194.675  0,364.35  L  0,505  L  0,695  L  130.625,695  L  130.625,660  C  130.625,635  129.062,543.75  129.062,505  C  129.062,469.837  137.5,364.35  137.5,364.35  C  137.5,364.35  145.938,469.837  145.938,505  C  145.938,543.75  144.375,635  144.375,660  L  144.375,695  L  261.25,695  L  261.25,660  C  261.25,625  258.125,543.75  258.125,505  C  258.125,469.837  275,399.512  275,364.35  C  262.5,364.35  245.464,358.694  231.81,345.04  C  218.156,331.386  203.126,252.171  204.667,196.468  C  206.208,140.764  225.686,46.003  228.289,36.348  L  101.568,2.192  C  97.7,21.815  14.433,21.466  14.433,21.466  z " />
<path transform="translate( 0, -40 )" style="stroke: hsl(242.1, 55%, 50%);" id="298"  d=" M  14.433,21.466  C  14.433,21.466  0,194.675  0,364.35  L  0,505  L  0,705  L  130.625,705  L  130.625,665  C  130.625,640  129.062,545  129.062,505  C  129.062,469.837  137.5,364.35  137.5,364.35  C  137.5,364.35  145.938,469.837  145.938,505  C  145.938,545  144.375,640  144.375,665  L  144.375,705  L  261.25,705  L  261.25,665  C  261.25,630  258.125,545  258.125,505  C  258.125,469.837  275,399.512  275,364.35  C  262.5,364.35  245.464,358.694  231.81,345.04  C  218.156,331.386  203.126,252.171  204.667,196.468  C  206.208,140.764  225.686,46.003  228.289,36.348  L  101.568,2.192  C  97.7,21.815  14.433,21.466  14.433,21.466  z " />
<path transform="translate( 0, -45 )" style="stroke: hsl(269, 55%, 50%);" id="331"  d=" M  14.433,21.466  C  14.433,21.466  0,194.675  0,364.35  L  0,505  L  0,715  L  130.625,715  L  130.625,670  C  130.625,645  129.062,546.25  129.062,505  C  129.062,469.837  137.5,364.35  137.5,364.35  C  137.5,364.35  145.938,469.837  145.938,505  C  145.938,546.25  144.375,645  144.375,670  L  144.375,715  L  261.25,715  L  261.25,670  C  261.25,635  258.125,546.25  258.125,505  C  258.125,469.837  275,399.512  275,364.35  C  262.5,364.35  245.464,358.694  231.81,345.04  C  218.156,331.386  203.126,252.171  204.667,196.468  C  206.208,140.764  225.686,46.003  228.289,36.348  L  101.568,2.192  C  97.7,21.815  14.433,21.466  14.433,21.466  z " />
<path transform="translate( 0, -50 )" style="stroke: hsl(295.9, 55%, 50%);" id="364"  d=" M  14.433,21.466  C  14.433,21.466  0,194.675  0,364.35  L  0,505  L  0,725  L  130.625,725  L  130.625,675  C  130.625,650  129.062,547.5  129.062,505  C  129.062,469.837  137.5,364.35  137.5,364.35  C  137.5,364.35  145.938,469.837  145.938,505  C  145.938,547.5  144.375,650  144.375,675  L  144.375,725  L  261.25,725  L  261.25,675  C  261.25,640  258.125,547.5  258.125,505  C  258.125,469.837  275,399.512  275,364.35  C  262.5,364.35  245.464,358.694  231.81,345.04  C  218.156,331.386  203.126,252.171  204.667,196.468  C  206.208,140.764  225.686,46.003  228.289,36.348  L  101.568,2.192  C  97.7,21.815  14.433,21.466  14.433,21.466  z " />
    </g>
    <!-- End of group #back -->
    
    <!-- Start of group #frontFacing -->
    <g id="frontFacing" >
    </g>
    <!-- End of group #frontFacing -->
    
    <!-- Start of group #frontLining -->
    <g id="frontLining" >
    </g>
    <!-- End of group #frontLining -->
    
    <!-- Start of group #pocketWelt -->
    <g id="pocketWelt" >
    </g>
    <!-- End of group #pocketWelt -->
    
    <!-- Start of group #pocketFacing -->
    <g id="pocketFacing" >
    </g>
    <!-- End of group #pocketFacing -->
    
    <!-- Start of group #pocketBag -->
    <g id="pocketBag" >
    </g>
    <!-- End of group #pocketBag -->
    
    <!-- Start of group #pocketInterfacing -->
    <g id="pocketInterfacing" >
    </g>
    <!-- End of group #pocketInterfacing -->
    
    <!-- Start of group #sampler-front -->
    <g id="sampler-front" >
    </g>
    <!-- End of group #sampler-front -->
    
    <!-- Start of group #sampler-back -->
    <g id="sampler-back" >
    </g>
    <!-- End of group #sampler-back -->
</g>
<!-- End of group #patternContainer -->

</svg>

