<?xml version="1.0" encoding="UTF-8" standalone="no"?>
<svg
    xmlns="http://www.w3.org/2000/svg"
    xmlns:svg="http://www.w3.org/2000/svg"
    xmlns:xlink="http://www.w3.org/1999/xlink"
    xmlns:freesewing="http://freesewing.org/namespaces/freesewing" viewBox ="0 0 593 699"
    width ="593mm"
    height ="699mm"
    freesewing:version ="1.5.0"
    freesewing:origin ="joost.core.freesewing.org" 
>

<style type="text/css">
    <![CDATA[
    path { fill: none; stroke: #000000; stroke-opacity:1; stroke-width: 0.5; stroke-miterlimit:4; stroke-dashoffset:0; stroke-linecap:round; stroke-linejoin:round; }
    path.hidden { fill: none; stroke: none; }]]>
</style>


<!-- Start of group #patternContainer -->
<g id="patternContainer" >
    
    <!-- Start of group #frontBlock -->
    <g id="frontBlock" >
    </g>
    <!-- End of group #frontBlock -->
    
    <!-- Start of group #backBlock -->
    <g id="backBlock" >
    </g>
    <!-- End of group #backBlock -->
    
    <!-- Start of group #waistcoatFrontBlock -->
    <g id="waistcoatFrontBlock" >
    </g>
    <!-- End of group #waistcoatFrontBlock -->
    
    <!-- Start of group #front -->
    <g id="front"  transform=" translate(15 5)  translate(0 0) " >
        <path class="hidden" id="2"  d=" M  -10,0  L  288.21,0  L  288.21,688.907  L  -10,688.907  z " />
<path transform="translate( 0, 0 )" style="stroke: hsl(26.9, 55%, 50%);" id="32"  d=" M  161.205,525.982  L  210.48,517.496  213.026,532.278  162.453,540.93  M  129.376,542.499  L  80.927,547.359  79.447,532.432  129.203,527.5 " />
<path transform="translate( 0, 0 )" style="stroke: hsl(26.9, 55%, 50%);" id="33"  d=" M  -10,284.35  L  -10,621.094  L  57.813,688.907  C  64.406,682.314  89.932,672.716  130.625,665.483  L  130.625,640  C  130.625,615  129.062,538.75  129.062,505  C  129.062,469.837  137.5,364.35  137.5,364.35  C  137.5,364.35  155.887,468.564  159.215,503.569  C  162.411,537.168  168.073,613.223  170.44,638.111  L  172.637,661.216  C  204.177,653.32  242.834,646.294  288.21,641.979  L  286.79,627.047  C  283.477,592.204  274.094,526.547  270.899,492.949  C  267.57,457.944  277.711,386.337  274.382,351.333  C  261.939,352.516  241.955,348.735  227.07,336.435  C  212.184,324.135  190,250.4  190,194.675  C  190,138.95  217.201,42.859  219.39,33.102  L  71.847,0  C  68.523,19.722  91.847,104  -10,284.35  z " />
<path transform="translate( 0, 0 )" style="stroke: hsl(53.8, 55%, 50%);" id="65"  d=" M  161.205,525.982  L  210.48,517.496  213.026,532.278  162.453,540.93  M  129.376,542.499  L  80.927,547.359  79.447,532.432  129.203,527.5 " />
<path transform="translate( 0, 0 )" style="stroke: hsl(53.8, 55%, 50%);" id="66"  d=" M  -10,284.35  L  -10,621.094  L  57.813,688.907  C  64.406,682.314  89.932,672.716  130.625,665.483  L  130.625,640  C  130.625,615  129.062,538.75  129.062,505  C  129.062,469.837  137.5,364.35  137.5,364.35  C  137.5,364.35  155.887,468.564  159.215,503.569  C  162.411,537.168  168.073,613.223  170.44,638.111  L  172.637,661.216  C  204.177,653.32  242.834,646.294  288.21,641.979  L  286.79,627.047  C  283.477,592.204  274.094,526.547  270.899,492.949  C  267.57,457.944  277.711,386.337  274.382,351.333  C  261.939,352.516  241.955,348.735  227.07,336.435  C  212.184,324.135  190,250.4  190,194.675  C  190,138.95  217.188,42.857  219.39,33.102  L  75.298,0.582  C  71.974,20.304  91.847,104  -10,284.35  z " />
<path transform="translate( 0, 0 )" style="stroke: hsl(80.7, 55%, 50%);" id="98"  d=" M  161.205,525.982  L  210.48,517.496  213.026,532.278  162.453,540.93  M  129.376,542.499  L  80.927,547.359  79.447,532.432  129.203,527.5 " />
<path transform="translate( 0, 0 )" style="stroke: hsl(80.7, 55%, 50%);" id="99"  d=" M  -10,284.35  L  -10,621.094  L  57.813,688.907  C  64.406,682.314  89.932,672.716  130.625,665.483  L  130.625,640  C  130.625,615  129.062,538.75  129.062,505  C  129.062,469.837  137.5,364.35  137.5,364.35  C  137.5,364.35  155.887,468.564  159.215,503.569  C  162.411,537.168  168.073,613.223  170.44,638.111  L  172.637,661.216  C  204.177,653.32  242.834,646.294  288.21,641.979  L  286.79,627.047  C  283.477,592.204  274.094,526.547  270.899,492.949  C  267.57,457.944  277.711,386.337  274.382,351.333  C  261.939,352.516  241.955,348.735  227.07,336.435  C  212.184,324.135  190,250.4  190,194.675  C  190,138.95  217.175,42.854  219.39,33.102  L  78.75,1.163  C  75.426,20.885  91.847,104  -10,284.35  z " />
<path transform="translate( 0, 0 )" style="stroke: hsl(107.6, 55%, 50%);" id="131"  d=" M  161.205,525.982  L  210.48,517.496  213.026,532.278  162.453,540.93  M  129.376,542.499  L  80.927,547.359  79.447,532.432  129.203,527.5 " />
<path transform="translate( 0, 0 )" style="stroke: hsl(107.6, 55%, 50%);" id="132"  d=" M  -10,284.35  L  -10,621.094  L  57.813,688.907  C  64.406,682.314  89.932,672.716  130.625,665.483  L  130.625,640  C  130.625,615  129.062,538.75  129.062,505  C  129.062,469.837  137.5,364.35  137.5,364.35  C  137.5,364.35  155.887,468.564  159.215,503.569  C  162.411,537.168  168.073,613.223  170.44,638.111  L  172.637,661.216  C  204.177,653.32  242.834,646.294  288.21,641.979  L  286.79,627.047  C  283.477,592.204  274.094,526.547  270.899,492.949  C  267.57,457.944  277.711,386.337  274.382,351.333  C  261.939,352.516  241.955,348.735  227.07,336.435  C  212.184,324.135  190,250.4  190,194.675  C  190,138.95  217.162,42.851  219.39,33.102  L  82.201,1.745  C  78.877,21.467  91.847,104  -10,284.35  z " />
<path transform="translate( 0, 0 )" style="stroke: hsl(134.5, 55%, 50%);" id="164"  d=" M  161.205,525.982  L  210.48,517.496  213.026,532.278  162.453,540.93  M  129.376,542.499  L  80.927,547.359  79.447,532.432  129.203,527.5 " />
<path transform="translate( 0, 0 )" style="stroke: hsl(134.5, 55%, 50%);" id="165"  d=" M  -10,284.35  L  -10,621.094  L  57.813,688.907  C  64.406,682.314  89.932,672.716  130.625,665.483  L  130.625,640  C  130.625,615  129.062,538.75  129.062,505  C  129.062,469.837  137.5,364.35  137.5,364.35  C  137.5,364.35  155.887,468.564  159.215,503.569  C  162.411,537.168  168.073,613.223  170.44,638.111  L  172.637,661.216  C  204.177,653.32  242.834,646.294  288.21,641.979  L  286.79,627.047  C  283.477,592.204  274.094,526.547  270.899,492.949  C  267.57,457.944  277.711,386.337  274.382,351.333  C  261.939,352.516  241.955,348.735  227.07,336.435  C  212.184,324.135  190,250.4  190,194.675  C  190,138.95  217.147,42.847  219.39,33.102  L  85.652,2.327  C  82.328,22.049  91.847,104  -10,284.35  z " />
<path transform="translate( 0, 0 )" style="stroke: hsl(161.4, 55%, 50%);" id="197"  d=" M  161.205,525.982  L  210.48,517.496  213.026,532.278  162.453,540.93  M  129.376,542.499  L  80.927,547.359  79.447,532.432  129.203,527.5 " />
<path transform="translate( 0, 0 )" style="stroke: hsl(161.4, 55%, 50%);" id="198"  d=" M  -10,284.35  L  -10,621.094  L  57.813,688.907  C  64.406,682.314  89.932,672.716  130.625,665.483  L  130.625,640  C  130.625,615  129.062,538.75  129.062,505  C  129.062,469.837  137.5,364.35  137.5,364.35  C  137.5,364.35  155.887,468.564  159.215,503.569  C  162.411,537.168  168.073,613.223  170.44,638.111  L  172.637,661.216  C  204.177,653.32  242.834,646.294  288.21,641.979  L  286.79,627.047  C  283.477,592.204  274.094,526.547  270.899,492.949  C  267.57,457.944  277.711,386.337  274.382,351.333  C  261.939,352.516  241.955,348.735  227.07,336.435  C  212.184,324.135  190,250.4  190,194.675  C  190,138.95  217.132,42.844  219.39,33.102  L  89.104,2.909  C  85.78,22.631  91.847,104  -10,284.35  z " />
<path transform="translate( 0, 0 )" style="stroke: hsl(188.3, 55%, 50%);" id="230"  d=" M  161.205,525.982  L  210.48,517.496  213.026,532.278  162.453,540.93  M  129.376,542.499  L  80.927,547.359  79.447,532.432  129.203,527.5 " />
<path transform="translate( 0, 0 )" style="stroke: hsl(188.3, 55%, 50%);" id="231"  d=" M  -10,284.35  L  -10,621.094  L  57.813,688.907  C  64.406,682.314  89.932,672.716  130.625,665.483  L  130.625,640  C  130.625,615  129.062,538.75  129.062,505  C  129.062,469.837  137.5,364.35  137.5,364.35  C  137.5,364.35  155.887,468.564  159.215,503.569  C  162.411,537.168  168.073,613.223  170.44,638.111  L  172.637,661.216  C  204.177,653.32  242.834,646.294  288.21,641.979  L  286.79,627.047  C  283.477,592.204  274.094,526.547  270.899,492.949  C  267.57,457.944  277.711,386.337  274.382,351.333  C  261.939,352.516  241.955,348.735  227.07,336.435  C  212.184,324.135  190,250.4  190,194.675  C  190,138.95  217.116,42.84  219.39,33.102  L  92.555,3.49  C  89.231,23.212  91.847,104  -10,284.35  z " />
<path transform="translate( 0, 0 )" style="stroke: hsl(215.2, 55%, 50%);" id="263"  d=" M  161.205,525.982  L  210.48,517.496  213.026,532.278  162.453,540.93  M  129.376,542.499  L  80.927,547.359  79.447,532.432  129.203,527.5 " />
<path transform="translate( 0, 0 )" style="stroke: hsl(215.2, 55%, 50%);" id="264"  d=" M  -10,284.35  L  -10,621.094  L  57.813,688.907  C  64.406,682.314  89.932,672.716  130.625,665.483  L  130.625,640  C  130.625,615  129.062,538.75  129.062,505  C  129.062,469.837  137.5,364.35  137.5,364.35  C  137.5,364.35  155.887,468.564  159.215,503.569  C  162.411,537.168  168.073,613.223  170.44,638.111  L  172.637,661.216  C  204.177,653.32  242.834,646.294  288.21,641.979  L  286.79,627.047  C  283.477,592.204  274.094,526.547  270.899,492.949  C  267.57,457.944  277.711,386.337  274.382,351.333  C  261.939,352.516  241.955,348.735  227.07,336.435  C  212.184,324.135  190,250.4  190,194.675  C  190,138.95  217.1,42.836  219.39,33.102  L  96.006,4.072  C  92.682,23.794  91.847,104  -10,284.35  z " />
<path transform="translate( 0, 0 )" style="stroke: hsl(242.1, 55%, 50%);" id="296"  d=" M  161.205,525.982  L  210.48,517.496  213.026,532.278  162.453,540.93  M  129.376,542.499  L  80.927,547.359  79.447,532.432  129.203,527.5 " />
<path transform="translate( 0, 0 )" style="stroke: hsl(242.1, 55%, 50%);" id="297"  d=" M  -10,284.35  L  -10,621.094  L  57.813,688.907  C  64.406,682.314  89.932,672.716  130.625,665.483  L  130.625,640  C  130.625,615  129.062,538.75  129.062,505  C  129.062,469.837  137.5,364.35  137.5,364.35  C  137.5,364.35  155.887,468.564  159.215,503.569  C  162.411,537.168  168.073,613.223  170.44,638.111  L  172.637,661.216  C  204.177,653.32  242.834,646.294  288.21,641.979  L  286.79,627.047  C  283.477,592.204  274.094,526.547  270.899,492.949  C  267.57,457.944  277.711,386.337  274.382,351.333  C  261.939,352.516  241.955,348.735  227.07,336.435  C  212.184,324.135  190,250.4  190,194.675  C  190,138.95  217.082,42.832  219.39,33.102  L  99.458,4.654  C  96.134,24.376  91.847,104  -10,284.35  z " />
<path transform="translate( 0, 0 )" style="stroke: hsl(269, 55%, 50%);" id="329"  d=" M  161.205,525.982  L  210.48,517.496  213.026,532.278  162.453,540.93  M  129.376,542.499  L  80.927,547.359  79.447,532.432  129.203,527.5 " />
<path transform="translate( 0, 0 )" style="stroke: hsl(269, 55%, 50%);" id="330"  d=" M  -10,284.35  L  -10,621.094  L  57.813,688.907  C  64.406,682.314  89.932,672.716  130.625,665.483  L  130.625,640  C  130.625,615  129.062,538.75  129.062,505  C  129.062,469.837  137.5,364.35  137.5,364.35  C  137.5,364.35  155.887,468.564  159.215,503.569  C  162.411,537.168  168.073,613.223  170.44,638.111  L  172.637,661.216  C  204.177,653.32  242.834,646.294  288.21,641.979  L  286.79,627.047  C  283.477,592.204  274.094,526.547  270.899,492.949  C  267.57,457.944  277.711,386.337  274.382,351.333  C  261.939,352.516  241.955,348.735  227.07,336.435  C  212.184,324.135  190,250.4  190,194.675  C  190,138.95  217.063,42.828  219.39,33.102  L  102.909,5.236  C  99.585,24.958  91.847,104  -10,284.35  z " />
<path transform="translate( 0, 0 )" style="stroke: hsl(295.9, 55%, 50%);" id="362"  d=" M  161.205,525.982  L  210.48,517.496  213.026,532.278  162.453,540.93  M  129.376,542.499  L  80.927,547.359  79.447,532.432  129.203,527.5 " />
<path transform="translate( 0, 0 )" style="stroke: hsl(295.9, 55%, 50%);" id="363"  d=" M  -10,284.35  L  -10,621.094  L  57.813,688.907  C  64.406,682.314  89.932,672.716  130.625,665.483  L  130.625,640  C  130.625,615  129.062,538.75  129.062,505  C  129.062,469.837  137.5,364.35  137.5,364.35  C  137.5,364.35  155.887,468.564  159.215,503.569  C  162.411,537.168  168.073,613.223  170.44,638.111  L  172.637,661.216  C  204.177,653.32  242.834,646.294  288.21,641.979  L  286.79,627.047  C  283.477,592.204  274.094,526.547  270.899,492.949  C  267.57,457.944  277.711,386.337  274.382,351.333  C  261.939,352.516  241.955,348.735  227.07,336.435  C  212.184,324.135  190,250.4  190,194.675  C  190,138.95  217.043,42.823  219.39,33.102  L  106.36,5.817  C  103.036,25.539  91.847,104  -10,284.35  z " />
    </g>
    <!-- End of group #front -->
    
    <!-- Start of group #back -->
    <g id="back"  transform=" translate(5 6.676)  translate(308.21 0) " >
        <path class="hidden" id="3"  d=" M  0,-1.676  L  275,-1.676  L  275,655  L  0,655  z " />
<path transform="translate( 0, 0 )" style="stroke: hsl(26.9, 55%, 50%);" id="34"  d=" M  14.433,21.466  C  14.433,21.466  0,194.675  0,364.35  L  0,505  L  0,655  L  130.625,655  L  130.625,640  C  130.625,615  129.062,538.75  129.062,505  C  129.062,469.837  137.5,364.35  137.5,364.35  C  137.5,364.35  145.938,469.837  145.938,505  C  145.938,538.75  144.375,615  144.375,640  L  144.375,655  L  261.25,655  L  261.25,640  C  261.25,605  258.125,538.75  258.125,505  C  258.125,469.837  275,399.512  275,364.35  C  262.5,364.35  245.464,358.694  231.81,345.04  C  218.156,331.386  203.126,252.171  204.667,196.468  C  206.208,140.764  225.744,46.143  228.267,36.466  L  81.945,-1.676  C  78.077,17.947  14.433,21.466  14.433,21.466  z " />
<path transform="translate( 0, 0 )" style="stroke: hsl(53.8, 55%, 50%);" id="67"  d=" M  14.433,21.466  C  14.433,21.466  0,194.675  0,364.35  L  0,505  L  0,655  L  130.625,655  L  130.625,640  C  130.625,615  129.062,538.75  129.062,505  C  129.062,469.837  137.5,364.35  137.5,364.35  C  137.5,364.35  145.938,469.837  145.938,505  C  145.938,538.75  144.375,615  144.375,640  L  144.375,655  L  261.25,655  L  261.25,640  C  261.25,605  258.125,538.75  258.125,505  C  258.125,469.837  275,399.512  275,364.35  C  262.5,364.35  245.464,358.694  231.81,345.04  C  218.156,331.386  203.126,252.171  204.667,196.468  C  206.208,140.764  225.734,46.122  228.269,36.448  L  85.379,-0.999  C  81.511,18.624  14.433,21.466  14.433,21.466  z " />
<path transform="translate( 0, 0 )" style="stroke: hsl(80.7, 55%, 50%);" id="100"  d=" M  14.433,21.466  C  14.433,21.466  0,194.675  0,364.35  L  0,505  L  0,655  L  130.625,655  L  130.625,640  C  130.625,615  129.062,538.75  129.062,505  C  129.062,469.837  137.5,364.35  137.5,364.35  C  137.5,364.35  145.938,469.837  145.938,505  C  145.938,538.75  144.375,615  144.375,640  L  144.375,655  L  261.25,655  L  261.25,640  C  261.25,605  258.125,538.75  258.125,505  C  258.125,469.837  275,399.512  275,364.35  C  262.5,364.35  245.464,358.694  231.81,345.04  C  218.156,331.386  203.126,252.171  204.667,196.468  C  206.208,140.764  225.725,46.099  228.274,36.428  L  88.813,-0.322  C  84.946,19.3  14.433,21.466  14.433,21.466  z " />
<path transform="translate( 0, 0 )" style="stroke: hsl(107.6, 55%, 50%);" id="133"  d=" M  14.433,21.466  C  14.433,21.466  0,194.675  0,364.35  L  0,505  L  0,655  L  130.625,655  L  130.625,640  C  130.625,615  129.062,538.75  129.062,505  C  129.062,469.837  137.5,364.35  137.5,364.35  C  137.5,364.35  145.938,469.837  145.938,505  C  145.938,538.75  144.375,615  144.375,640  L  144.375,655  L  261.25,655  L  261.25,640  C  261.25,605  258.125,538.75  258.125,505  C  258.125,469.837  275,399.512  275,364.35  C  262.5,364.35  245.464,358.694  231.81,345.04  C  218.156,331.386  203.126,252.171  204.667,196.468  C  206.208,140.764  225.715,46.074  228.277,36.408  L  92.247,0.355  C  88.379,19.977  14.433,21.466  14.433,21.466  z " />
<path transform="translate( 0, 0 )" style="stroke: hsl(134.5, 55%, 50%);" id="166"  d=" M  14.433,21.466  C  14.433,21.466  0,194.675  0,364.35  L  0,505  L  0,655  L  130.625,655  L  130.625,640  C  130.625,615  129.062,538.75  129.062,505  C  129.062,469.837  137.5,364.35  137.5,364.35  C  137.5,364.35  145.938,469.837  145.938,505  C  145.938,538.75  144.375,615  144.375,640  L  144.375,655  L  261.25,655  L  261.25,640  C  261.25,605  258.125,538.75  258.125,505  C  258.125,469.837  275,399.512  275,364.35  C  262.5,364.35  245.464,358.694  231.81,345.04  C  218.156,331.386  203.126,252.171  204.667,196.468  C  206.208,140.764  225.705,46.05  228.281,36.387  L  95.681,1.032  C  91.813,20.655  14.433,21.466  14.433,21.466  z " />
<path transform="translate( 0, 0 )" style="stroke: hsl(161.4, 55%, 50%);" id="199"  d=" M  14.433,21.466  C  14.433,21.466  0,194.675  0,364.35  L  0,505  L  0,655  L  130.625,655  L  130.625,640  C  130.625,615  129.062,538.75  129.062,505  C  129.062,469.837  137.5,364.35  137.5,364.35  C  137.5,364.35  145.938,469.837  145.938,505  C  145.938,538.75  144.375,615  144.375,640  L  144.375,655  L  261.25,655  L  261.25,640  C  261.25,605  258.125,538.75  258.125,505  C  258.125,469.837  275,399.512  275,364.35  C  262.5,364.35  245.464,358.694  231.81,345.04  C  218.156,331.386  203.126,252.171  204.667,196.468  C  206.208,140.764  225.696,46.023  228.287,36.365  L  99.115,1.709  C  95.247,21.332  14.433,21.466  14.433,21.466  z " />
<path transform="translate( 0, 0 )" style="stroke: hsl(188.3, 55%, 50%);" id="232"  d=" M  14.433,21.466  C  14.433,21.466  0,194.675  0,364.35  L  0,505  L  0,655  L  130.625,655  L  130.625,640  C  130.625,615  129.062,538.75  129.062,505  C  129.062,469.837  137.5,364.35  137.5,364.35  C  137.5,364.35  145.938,469.837  145.938,505  C  145.938,538.75  144.375,615  144.375,640  L  144.375,655  L  261.25,655  L  261.25,640  C  261.25,605  258.125,538.75  258.125,505  C  258.125,469.837  275,399.512  275,364.35  C  262.5,364.35  245.464,358.694  231.81,345.04  C  218.156,331.386  203.126,252.171  204.667,196.468  C  206.208,140.764  225.684,45.996  228.291,36.342  L  102.549,2.385  C  98.681,22.008  14.433,21.466  14.433,21.466  z " />
<path transform="translate( 0, 0 )" style="stroke: hsl(215.2, 55%, 50%);" id="265"  d=" M  14.433,21.466  C  14.433,21.466  0,194.675  0,364.35  L  0,505  L  0,655  L  130.625,655  L  130.625,640  C  130.625,615  129.062,538.75  129.062,505  C  129.062,469.837  137.5,364.35  137.5,364.35  C  137.5,364.35  145.938,469.837  145.938,505  C  145.938,538.75  144.375,615  144.375,640  L  144.375,655  L  261.25,655  L  261.25,640  C  261.25,605  258.125,538.75  258.125,505  C  258.125,469.837  275,399.512  275,364.35  C  262.5,364.35  245.464,358.694  231.81,345.04  C  218.156,331.386  203.126,252.171  204.667,196.468  C  206.208,140.764  225.672,45.966  228.296,36.316  L  105.982,3.063  C  102.114,22.685  14.433,21.466  14.433,21.466  z " />
<path transform="translate( 0, 0 )" style="stroke: hsl(242.1, 55%, 50%);" id="298"  d=" M  14.433,21.466  C  14.433,21.466  0,194.675  0,364.35  L  0,505  L  0,655  L  130.625,655  L  130.625,640  C  130.625,615  129.062,538.75  129.062,505  C  129.062,469.837  137.5,364.35  137.5,364.35  C  137.5,364.35  145.938,469.837  145.938,505  C  145.938,538.75  144.375,615  144.375,640  L  144.375,655  L  261.25,655  L  261.25,640  C  261.25,605  258.125,538.75  258.125,505  C  258.125,469.837  275,399.512  275,364.35  C  262.5,364.35  245.464,358.694  231.81,345.04  C  218.156,331.386  203.126,252.171  204.667,196.468  C  206.208,140.764  225.66,45.937  228.301,36.292  L  109.417,3.74  C  105.549,23.362  14.433,21.466  14.433,21.466  z " />
<path transform="translate( 0, 0 )" style="stroke: hsl(269, 55%, 50%);" id="331"  d=" M  14.433,21.466  C  14.433,21.466  0,194.675  0,364.35  L  0,505  L  0,655  L  130.625,655  L  130.625,640  C  130.625,615  129.062,538.75  129.062,505  C  129.062,469.837  137.5,364.35  137.5,364.35  C  137.5,364.35  145.938,469.837  145.938,505  C  145.938,538.75  144.375,615  144.375,640  L  144.375,655  L  261.25,655  L  261.25,640  C  261.25,605  258.125,538.75  258.125,505  C  258.125,469.837  275,399.512  275,364.35  C  262.5,364.35  245.464,358.694  231.81,345.04  C  218.156,331.386  203.126,252.171  204.667,196.468  C  206.208,140.764  225.647,45.904  228.306,36.264  L  112.851,4.417  C  108.983,24.039  14.433,21.466  14.433,21.466  z " />
<path transform="translate( 0, 0 )" style="stroke: hsl(295.9, 55%, 50%);" id="364"  d=" M  14.433,21.466  C  14.433,21.466  0,194.675  0,364.35  L  0,505  L  0,655  L  130.625,655  L  130.625,640  C  130.625,615  129.062,538.75  129.062,505  C  129.062,469.837  137.5,364.35  137.5,364.35  C  137.5,364.35  145.938,469.837  145.938,505  C  145.938,538.75  144.375,615  144.375,640  L  144.375,655  L  261.25,655  L  261.25,640  C  261.25,605  258.125,538.75  258.125,505  C  258.125,469.837  275,399.512  275,364.35  C  262.5,364.35  245.464,358.694  231.81,345.04  C  218.156,331.386  203.126,252.171  204.667,196.468  C  206.208,140.764  225.635,45.87  228.313,36.235  L  116.284,5.093  C  112.416,24.716  14.433,21.466  14.433,21.466  z " />
    </g>
    <!-- End of group #back -->
    
    <!-- Start of group #frontFacing -->
    <g id="frontFacing" >
    </g>
    <!-- End of group #frontFacing -->
    
    <!-- Start of group #frontLining -->
    <g id="frontLining" >
    </g>
    <!-- End of group #frontLining -->
    
    <!-- Start of group #pocketWelt -->
    <g id="pocketWelt" >
    </g>
    <!-- End of group #pocketWelt -->
    
    <!-- Start of group #pocketFacing -->
    <g id="pocketFacing" >
    </g>
    <!-- End of group #pocketFacing -->
    
    <!-- Start of group #pocketBag -->
    <g id="pocketBag" >
    </g>
    <!-- End of group #pocketBag -->
    
    <!-- Start of group #pocketInterfacing -->
    <g id="pocketInterfacing" >
    </g>
    <!-- End of group #pocketInterfacing -->
    
    <!-- Start of group #sampler-front -->
    <g id="sampler-front" >
    </g>
    <!-- End of group #sampler-front -->
    
    <!-- Start of group #sampler-back -->
    <g id="sampler-back" >
    </g>
    <!-- End of group #sampler-back -->
</g>
<!-- End of group #patternContainer -->

</svg>

