<?xml version="1.0" encoding="UTF-8" standalone="no"?>
<svg
    xmlns="http://www.w3.org/2000/svg"
    xmlns:svg="http://www.w3.org/2000/svg"
    xmlns:xlink="http://www.w3.org/1999/xlink"
    xmlns:freesewing="http://freesewing.org/namespaces/freesewing" viewBox ="0 0 395 325"
    width ="395mm"
    height ="325mm"
    freesewing:version ="1.5.0"
    freesewing:origin ="joost.core.freesewing.org" 
>

<style type="text/css">
    <![CDATA[
    path { fill: none; stroke: #000000; stroke-opacity:1; stroke-width: 0.5; stroke-miterlimit:4; stroke-dashoffset:0; stroke-linecap:round; stroke-linejoin:round; }
    path.hidden { fill: none; stroke: none; }]]>
</style>


<!-- Start of group #patternContainer -->
<g id="patternContainer" >
    
    <!-- Start of group #base -->
    <g id="base" >
    </g>
    <!-- End of group #base -->
    
    <!-- Start of group #panels -->
    <g id="panels"  transform=" translate(5 30)  translate(0 0) " >
        <path class="hidden" id="2"  d=" M  0,-25  L  385,-25  L  385,290  L  0,290  z " />
<path transform="translate( 0, 0 )" style="stroke: hsl(26.9, 55%, 50%);" id="9"  d=" M  0,-25  L  -0,285  C  7.623,285  14.997,283.218  23.1,280.117  L  38.35,-9.692  C  31.585,-16.59  22.243,-25  0,-25  z " />
<path transform="translate( 0, 0 )" style="stroke: hsl(26.9, 55%, 50%);" id="10"  d=" M  38.35,-9.692  L  23.1,280.117  C  33.747,276.045  44.97,269.682  57.75,263.057  L  57.75,260  C  57.75,260  45.75,120  45.75,100  C  45.75,80  53.75,15  53.75,-0  C  47.282,0  43.531,-4.41  38.35,-9.692  z " />
<path transform="translate( 0, 0 )" style="stroke: hsl(26.9, 55%, 50%);" id="11"  d=" M  61.75,0  C  61.75,15  69.75,80  69.75,100  C  69.75,120  57.75,260  57.75,260  L  57.75,263.057  C  71.22,256.105  86.62,248.715  104.397,242.542  C  104.397,242.542  93.875,120  93.875,100  C  93.875,80  101.875,15  101.875,-0  z " />
<path transform="translate( 0, 0 )" style="stroke: hsl(26.9, 55%, 50%);" id="12"  d=" M  109.875,0  C  109.875,15  117.875,80  117.875,100  C  117.875,120  107.353,242.542  107.353,242.542  C  119.643,238.14  135.473,234.442  151.658,232.217  C  151.658,149.581  142,120  142,100  C  142,80  150,15  150,-0  z " />
<path transform="translate( 0, 0 )" style="stroke: hsl(26.9, 55%, 50%);" id="13"  d=" M  219,100  C  219,80  227,15  227,-0  L  227,0  C  218.68,0  207.9,0  192.5,0  L  158,0  C  158,15  166,80  166,100  C  166,120  156.342,232.217  156.342,232.217  C  165.656,230.81  178.483,230  192.5,230  C  207.9,230  220.22,230  228.473,230  C  228.473,230  219,120  219,100  z " />
<path transform="translate( 0, 0 )" style="stroke: hsl(26.9, 55%, 50%);" id="14"  d=" M  276.75,100  C  276.75,80  284.75,15  284.75,-0  L  235,0  C  235,15  243,80  243,100  C  243,120  233.527,148.75  233.527,230  C  252.129,230  267.342,230  286.223,230  C  286.223,230  276.75,120  276.75,100  z " />
<path transform="translate( 0, 0 )" style="stroke: hsl(26.9, 55%, 50%);" id="15"  d=" M  385,0  C  340.626,0  312.234,0  292.75,0  L  292.75,0  C  292.75,15  300.75,80  300.75,100  C  300.75,120  291.277,230  291.277,230  C  309.979,230  337.876,230  385,230  z " />
<path transform="translate( 0, 0 )" style="stroke: hsl(53.8, 55%, 50%);" id="23"  d=" M  0,-25  L  -0,285  C  7.623,285  14.997,283.218  23.1,280.117  L  38.35,-9.692  C  31.585,-16.59  22.243,-25  0,-25  z " />
<path transform="translate( 0, 0 )" style="stroke: hsl(53.8, 55%, 50%);" id="24"  d=" M  38.35,-9.692  L  23.1,280.117  C  33.747,276.045  44.97,269.682  57.75,263.057  L  57.75,260  C  57.75,260  45.75,120  45.75,100  C  45.75,80  53.75,15  53.75,-0  C  47.282,0  43.531,-4.41  38.35,-9.692  z " />
<path transform="translate( 0, 0 )" style="stroke: hsl(53.8, 55%, 50%);" id="25"  d=" M  61.75,0  C  61.75,15  69.75,80  69.75,100  C  69.75,120  57.75,260  57.75,260  L  57.75,263.057  C  71.22,256.105  86.62,248.715  104.397,242.542  C  104.397,242.542  93.875,120  93.875,100  C  93.875,80  101.875,15  101.875,-0  z " />
<path transform="translate( 0, 0 )" style="stroke: hsl(53.8, 55%, 50%);" id="26"  d=" M  109.875,0  C  109.875,15  117.875,80  117.875,100  C  117.875,120  107.353,242.542  107.353,242.542  C  119.643,238.14  135.473,234.442  151.658,232.217  C  151.658,149.581  142,120  142,100  C  142,80  150,15  150,-0  z " />
<path transform="translate( 0, 0 )" style="stroke: hsl(53.8, 55%, 50%);" id="27"  d=" M  219,100  C  219,80  227,15  227,-0  L  227,0  C  218.68,0  207.9,0  192.5,0  L  158,0  C  158,15  166,80  166,100  C  166,120  156.342,232.217  156.342,232.217  C  165.656,230.81  178.483,230  192.5,230  C  207.9,230  220.22,230.24  228.525,230.624  C  228.525,230.624  219,120  219,100  z " />
<path transform="translate( 0, 0 )" style="stroke: hsl(53.8, 55%, 50%);" id="28"  d=" M  276.75,100  C  276.75,80  284.75,15  284.75,-0  L  235,0  C  235,15  243,80  243,100  C  243,120  233.475,148.984  233.475,230.624  C  252.129,231.377  267.342,232.682  286.544,233.847  C  286.544,233.847  276.75,120  276.75,100  z " />
<path transform="translate( 0, 0 )" style="stroke: hsl(53.8, 55%, 50%);" id="29"  d=" M  385,0  C  340.626,0  312.234,0  292.75,0  L  292.75,0  C  292.75,15  300.75,80  300.75,100  C  300.75,120  290.956,233.847  290.956,233.847  C  309.979,235.001  337.876,236  385,236  z " />
<path transform="translate( 0, 0 )" style="stroke: hsl(80.7, 55%, 50%);" id="37"  d=" M  0,-25  L  -0,285  C  7.623,285  14.997,283.218  23.1,280.117  L  38.35,-9.692  C  31.585,-16.59  22.243,-25  0,-25  z " />
<path transform="translate( 0, 0 )" style="stroke: hsl(80.7, 55%, 50%);" id="38"  d=" M  38.35,-9.692  L  23.1,280.117  C  33.747,276.045  44.97,269.682  57.75,263.057  L  57.75,260  C  57.75,260  45.75,120  45.75,100  C  45.75,80  53.75,15  53.75,-0  C  47.282,0  43.531,-4.41  38.35,-9.692  z " />
<path transform="translate( 0, 0 )" style="stroke: hsl(80.7, 55%, 50%);" id="39"  d=" M  61.75,0  C  61.75,15  69.75,80  69.75,100  C  69.75,120  57.75,260  57.75,260  L  57.75,263.057  C  71.22,256.105  86.62,248.715  104.397,242.542  C  104.397,242.542  93.875,120  93.875,100  C  93.875,80  101.875,15  101.875,-0  z " />
<path transform="translate( 0, 0 )" style="stroke: hsl(80.7, 55%, 50%);" id="40"  d=" M  109.875,0  C  109.875,15  117.875,80  117.875,100  C  117.875,120  107.353,242.542  107.353,242.542  C  119.643,238.14  135.473,234.442  151.658,232.217  C  151.658,149.581  142,120  142,100  C  142,80  150,15  150,-0  z " />
<path transform="translate( 0, 0 )" style="stroke: hsl(80.7, 55%, 50%);" id="41"  d=" M  219,100  C  219,80  227,15  227,-0  L  227,0  C  218.68,0  207.9,0  192.5,0  L  158,0  C  158,15  166,80  166,100  C  166,120  156.342,232.217  156.342,232.217  C  165.656,230.81  178.483,230  192.5,230  C  207.9,230  220.22,230.48  228.577,231.248  C  228.577,231.248  219,120  219,100  z " />
<path transform="translate( 0, 0 )" style="stroke: hsl(80.7, 55%, 50%);" id="42"  d=" M  276.75,100  C  276.75,80  284.75,15  284.75,-0  L  235,0  C  235,15  243,80  243,100  C  243,120  233.423,149.218  233.423,231.248  C  252.129,232.753  267.342,235.365  286.865,237.693  C  286.865,237.693  276.75,120  276.75,100  z " />
<path transform="translate( 0, 0 )" style="stroke: hsl(80.7, 55%, 50%);" id="43"  d=" M  385,0  C  340.626,0  312.234,0  292.75,0  L  292.75,0  C  292.75,15  300.75,80  300.75,100  C  300.75,120  290.635,237.693  290.635,237.693  C  309.979,240.002  337.876,242  385,242  z " />
<path transform="translate( 0, 0 )" style="stroke: hsl(107.6, 55%, 50%);" id="51"  d=" M  0,-25  L  -0,285  C  7.623,285  14.997,283.218  23.1,280.117  L  38.35,-9.692  C  31.585,-16.59  22.243,-25  0,-25  z " />
<path transform="translate( 0, 0 )" style="stroke: hsl(107.6, 55%, 50%);" id="52"  d=" M  38.35,-9.692  L  23.1,280.117  C  33.747,276.045  44.97,269.682  57.75,263.057  L  57.75,260  C  57.75,260  45.75,120  45.75,100  C  45.75,80  53.75,15  53.75,-0  C  47.282,0  43.531,-4.41  38.35,-9.692  z " />
<path transform="translate( 0, 0 )" style="stroke: hsl(107.6, 55%, 50%);" id="53"  d=" M  61.75,0  C  61.75,15  69.75,80  69.75,100  C  69.75,120  57.75,260  57.75,260  L  57.75,263.057  C  71.22,256.105  86.62,248.715  104.397,242.542  C  104.397,242.542  93.875,120  93.875,100  C  93.875,80  101.875,15  101.875,-0  z " />
<path transform="translate( 0, 0 )" style="stroke: hsl(107.6, 55%, 50%);" id="54"  d=" M  109.875,0  C  109.875,15  117.875,80  117.875,100  C  117.875,120  107.353,242.542  107.353,242.542  C  119.643,238.14  135.473,234.442  151.658,232.217  C  151.658,149.581  142,120  142,100  C  142,80  150,15  150,-0  z " />
<path transform="translate( 0, 0 )" style="stroke: hsl(107.6, 55%, 50%);" id="55"  d=" M  219,100  C  219,80  227,15  227,-0  L  227,0  C  218.68,0  207.9,0  192.5,0  L  158,0  C  158,15  166,80  166,100  C  166,120  156.342,232.217  156.342,232.217  C  165.656,230.81  178.483,230  192.5,230  C  207.9,230  220.22,230.72  228.629,231.872  C  228.629,231.872  219,120  219,100  z " />
<path transform="translate( 0, 0 )" style="stroke: hsl(107.6, 55%, 50%);" id="56"  d=" M  276.75,100  C  276.75,80  284.75,15  284.75,-0  L  235,0  C  235,15  243,80  243,100  C  243,120  233.371,149.452  233.371,231.872  C  252.129,234.13  267.342,238.047  287.188,241.54  C  287.188,241.54  276.75,120  276.75,100  z " />
<path transform="translate( 0, 0 )" style="stroke: hsl(107.6, 55%, 50%);" id="57"  d=" M  385,0  C  340.626,0  312.234,0  292.75,0  L  292.75,0  C  292.75,15  300.75,80  300.75,100  C  300.75,120  290.312,241.54  290.312,241.54  C  309.979,245.004  337.876,248  385,248  z " />
<path transform="translate( 0, 0 )" style="stroke: hsl(134.5, 55%, 50%);" id="65"  d=" M  0,-25  L  -0,285  C  7.623,285  14.997,283.218  23.1,280.117  L  38.35,-9.692  C  31.585,-16.59  22.243,-25  0,-25  z " />
<path transform="translate( 0, 0 )" style="stroke: hsl(134.5, 55%, 50%);" id="66"  d=" M  38.35,-9.692  L  23.1,280.117  C  33.747,276.045  44.97,269.682  57.75,263.057  L  57.75,260  C  57.75,260  45.75,120  45.75,100  C  45.75,80  53.75,15  53.75,-0  C  47.282,0  43.531,-4.41  38.35,-9.692  z " />
<path transform="translate( 0, 0 )" style="stroke: hsl(134.5, 55%, 50%);" id="67"  d=" M  61.75,0  C  61.75,15  69.75,80  69.75,100  C  69.75,120  57.75,260  57.75,260  L  57.75,263.057  C  71.22,256.105  86.62,248.715  104.397,242.542  C  104.397,242.542  93.875,120  93.875,100  C  93.875,80  101.875,15  101.875,-0  z " />
<path transform="translate( 0, 0 )" style="stroke: hsl(134.5, 55%, 50%);" id="68"  d=" M  109.875,0  C  109.875,15  117.875,80  117.875,100  C  117.875,120  107.353,242.542  107.353,242.542  C  119.643,238.14  135.473,234.442  151.658,232.217  C  151.658,149.581  142,120  142,100  C  142,80  150,15  150,-0  z " />
<path transform="translate( 0, 0 )" style="stroke: hsl(134.5, 55%, 50%);" id="69"  d=" M  219,100  C  219,80  227,15  227,-0  L  227,0  C  218.68,0  207.9,0  192.5,0  L  158,0  C  158,15  166,80  166,100  C  166,120  156.342,232.217  156.342,232.217  C  165.656,230.81  178.483,230  192.5,230  C  207.9,230  220.22,230.96  228.681,232.496  C  228.681,232.496  219,120  219,100  z " />
<path transform="translate( 0, 0 )" style="stroke: hsl(134.5, 55%, 50%);" id="70"  d=" M  276.75,100  C  276.75,80  284.75,15  284.75,-0  L  235,0  C  235,15  243,80  243,100  C  243,120  233.319,149.686  233.319,232.496  C  252.129,235.507  267.342,240.73  287.511,245.387  C  287.511,245.387  276.75,120  276.75,100  z " />
<path transform="translate( 0, 0 )" style="stroke: hsl(134.5, 55%, 50%);" id="71"  d=" M  385,0  C  340.626,0  312.234,0  292.75,0  L  292.75,0  C  292.75,15  300.75,80  300.75,100  C  300.75,120  289.989,245.387  289.989,245.387  C  309.979,250.005  337.876,254  385,254  z " />
<path transform="translate( 0, 0 )" style="stroke: hsl(161.4, 55%, 50%);" id="79"  d=" M  0,-25  L  -0,285  C  7.623,285  14.997,283.218  23.1,280.117  L  38.35,-9.692  C  31.585,-16.59  22.243,-25  0,-25  z " />
<path transform="translate( 0, 0 )" style="stroke: hsl(161.4, 55%, 50%);" id="80"  d=" M  38.35,-9.692  L  23.1,280.117  C  33.747,276.045  44.97,269.682  57.75,263.057  L  57.75,260  C  57.75,260  45.75,120  45.75,100  C  45.75,80  53.75,15  53.75,-0  C  47.282,0  43.531,-4.41  38.35,-9.692  z " />
<path transform="translate( 0, 0 )" style="stroke: hsl(161.4, 55%, 50%);" id="81"  d=" M  61.75,0  C  61.75,15  69.75,80  69.75,100  C  69.75,120  57.75,260  57.75,260  L  57.75,263.057  C  71.22,256.105  86.62,248.715  104.397,242.542  C  104.397,242.542  93.875,120  93.875,100  C  93.875,80  101.875,15  101.875,-0  z " />
<path transform="translate( 0, 0 )" style="stroke: hsl(161.4, 55%, 50%);" id="82"  d=" M  109.875,0  C  109.875,15  117.875,80  117.875,100  C  117.875,120  107.353,242.542  107.353,242.542  C  119.643,238.14  135.473,234.442  151.658,232.217  C  151.658,149.581  142,120  142,100  C  142,80  150,15  150,-0  z " />
<path transform="translate( 0, 0 )" style="stroke: hsl(161.4, 55%, 50%);" id="83"  d=" M  219,100  C  219,80  227,15  227,-0  L  227,0  C  218.68,0  207.9,0  192.5,0  L  158,0  C  158,15  166,80  166,100  C  166,120  156.342,232.217  156.342,232.217  C  165.656,230.81  178.483,230  192.5,230  C  207.9,230  220.22,231.2  228.733,233.12  C  228.733,233.12  219,120  219,100  z " />
<path transform="translate( 0, 0 )" style="stroke: hsl(161.4, 55%, 50%);" id="84"  d=" M  276.75,100  C  276.75,80  284.75,15  284.75,-0  L  235,0  C  235,15  243,80  243,100  C  243,120  233.267,149.92  233.267,233.12  C  252.129,236.883  267.342,243.412  287.835,249.233  C  287.835,249.233  276.75,120  276.75,100  z " />
<path transform="translate( 0, 0 )" style="stroke: hsl(161.4, 55%, 50%);" id="85"  d=" M  385,0  C  340.626,0  312.234,0  292.75,0  L  292.75,0  C  292.75,15  300.75,80  300.75,100  C  300.75,120  289.665,249.233  289.665,249.233  C  309.979,255.006  337.876,260  385,260  z " />
<path transform="translate( 0, 0 )" style="stroke: hsl(188.3, 55%, 50%);" id="93"  d=" M  0,-25  L  -0,285  C  7.623,285  14.997,283.218  23.1,280.117  L  38.35,-9.692  C  31.585,-16.59  22.243,-25  0,-25  z " />
<path transform="translate( 0, 0 )" style="stroke: hsl(188.3, 55%, 50%);" id="94"  d=" M  38.35,-9.692  L  23.1,280.117  C  33.747,276.045  44.97,269.682  57.75,263.057  L  57.75,260  C  57.75,260  45.75,120  45.75,100  C  45.75,80  53.75,15  53.75,-0  C  47.282,0  43.531,-4.41  38.35,-9.692  z " />
<path transform="translate( 0, 0 )" style="stroke: hsl(188.3, 55%, 50%);" id="95"  d=" M  61.75,0  C  61.75,15  69.75,80  69.75,100  C  69.75,120  57.75,260  57.75,260  L  57.75,263.057  C  71.22,256.105  86.62,248.715  104.397,242.542  C  104.397,242.542  93.875,120  93.875,100  C  93.875,80  101.875,15  101.875,-0  z " />
<path transform="translate( 0, 0 )" style="stroke: hsl(188.3, 55%, 50%);" id="96"  d=" M  109.875,0  C  109.875,15  117.875,80  117.875,100  C  117.875,120  107.353,242.542  107.353,242.542  C  119.643,238.14  135.473,234.442  151.658,232.217  C  151.658,149.581  142,120  142,100  C  142,80  150,15  150,-0  z " />
<path transform="translate( 0, 0 )" style="stroke: hsl(188.3, 55%, 50%);" id="97"  d=" M  219,100  C  219,80  227,15  227,-0  L  227,0  C  218.68,0  207.9,0  192.5,0  L  158,0  C  158,15  166,80  166,100  C  166,120  156.342,232.217  156.342,232.217  C  165.656,230.81  178.483,230  192.5,230  C  207.9,230  220.22,231.44  228.785,233.744  C  228.785,233.744  219,120  219,100  z " />
<path transform="translate( 0, 0 )" style="stroke: hsl(188.3, 55%, 50%);" id="98"  d=" M  276.75,100  C  276.75,80  284.75,15  284.75,-0  L  235,0  C  235,15  243,80  243,100  C  243,120  233.215,150.154  233.215,233.744  C  252.129,238.26  267.342,246.095  288.161,253.08  C  288.161,253.08  276.75,120  276.75,100  z " />
<path transform="translate( 0, 0 )" style="stroke: hsl(188.3, 55%, 50%);" id="99"  d=" M  385,0  C  340.626,0  312.234,0  292.75,0  L  292.75,0  C  292.75,15  300.75,80  300.75,100  C  300.75,120  289.339,253.08  289.339,253.08  C  309.979,260.007  337.876,266  385,266  z " />
<path transform="translate( 0, 0 )" style="stroke: hsl(215.2, 55%, 50%);" id="107"  d=" M  0,-25  L  -0,285  C  7.623,285  14.997,283.218  23.1,280.117  L  38.35,-9.692  C  31.585,-16.59  22.243,-25  0,-25  z " />
<path transform="translate( 0, 0 )" style="stroke: hsl(215.2, 55%, 50%);" id="108"  d=" M  38.35,-9.692  L  23.1,280.117  C  33.747,276.045  44.97,269.682  57.75,263.057  L  57.75,260  C  57.75,260  45.75,120  45.75,100  C  45.75,80  53.75,15  53.75,-0  C  47.282,0  43.531,-4.41  38.35,-9.692  z " />
<path transform="translate( 0, 0 )" style="stroke: hsl(215.2, 55%, 50%);" id="109"  d=" M  61.75,0  C  61.75,15  69.75,80  69.75,100  C  69.75,120  57.75,260  57.75,260  L  57.75,263.057  C  71.22,256.105  86.62,248.715  104.397,242.542  C  104.397,242.542  93.875,120  93.875,100  C  93.875,80  101.875,15  101.875,-0  z " />
<path transform="translate( 0, 0 )" style="stroke: hsl(215.2, 55%, 50%);" id="110"  d=" M  109.875,0  C  109.875,15  117.875,80  117.875,100  C  117.875,120  107.353,242.542  107.353,242.542  C  119.643,238.14  135.473,234.442  151.658,232.217  C  151.658,149.581  142,120  142,100  C  142,80  150,15  150,-0  z " />
<path transform="translate( 0, 0 )" style="stroke: hsl(215.2, 55%, 50%);" id="111"  d=" M  219,100  C  219,80  227,15  227,-0  L  227,0  C  218.68,0  207.9,0  192.5,0  L  158,0  C  158,15  166,80  166,100  C  166,120  156.342,232.217  156.342,232.217  C  165.656,230.81  178.483,230  192.5,230  C  207.9,230  220.22,231.68  228.837,234.368  C  228.837,234.368  219,120  219,100  z " />
<path transform="translate( 0, 0 )" style="stroke: hsl(215.2, 55%, 50%);" id="112"  d=" M  276.75,100  C  276.75,80  284.75,15  284.75,-0  L  235,0  C  235,15  243,80  243,100  C  243,120  233.163,150.388  233.163,234.368  C  252.129,239.636  267.342,248.777  288.488,256.926  C  288.488,256.926  276.75,120  276.75,100  z " />
<path transform="translate( 0, 0 )" style="stroke: hsl(215.2, 55%, 50%);" id="113"  d=" M  385,0  C  340.626,0  312.234,0  292.75,0  L  292.75,0  C  292.75,15  300.75,80  300.75,100  C  300.75,120  289.012,256.926  289.012,256.926  C  309.979,265.009  337.876,272  385,272  z " />
<path transform="translate( 0, 0 )" style="stroke: hsl(242.1, 55%, 50%);" id="121"  d=" M  0,-25  L  -0,285  C  7.623,285  14.997,283.218  23.1,280.117  L  38.35,-9.692  C  31.585,-16.59  22.243,-25  0,-25  z " />
<path transform="translate( 0, 0 )" style="stroke: hsl(242.1, 55%, 50%);" id="122"  d=" M  38.35,-9.692  L  23.1,280.117  C  33.747,276.045  44.97,269.682  57.75,263.057  L  57.75,260  C  57.75,260  45.75,120  45.75,100  C  45.75,80  53.75,15  53.75,-0  C  47.282,0  43.531,-4.41  38.35,-9.692  z " />
<path transform="translate( 0, 0 )" style="stroke: hsl(242.1, 55%, 50%);" id="123"  d=" M  61.75,0  C  61.75,15  69.75,80  69.75,100  C  69.75,120  57.75,260  57.75,260  L  57.75,263.057  C  71.22,256.105  86.62,248.715  104.397,242.542  C  104.397,242.542  93.875,120  93.875,100  C  93.875,80  101.875,15  101.875,-0  z " />
<path transform="translate( 0, 0 )" style="stroke: hsl(242.1, 55%, 50%);" id="124"  d=" M  109.875,0  C  109.875,15  117.875,80  117.875,100  C  117.875,120  107.353,242.542  107.353,242.542  C  119.643,238.14  135.473,234.442  151.658,232.217  C  151.658,149.581  142,120  142,100  C  142,80  150,15  150,-0  z " />
<path transform="translate( 0, 0 )" style="stroke: hsl(242.1, 55%, 50%);" id="125"  d=" M  219,100  C  219,80  227,15  227,-0  L  227,0  C  218.68,0  207.9,0  192.5,0  L  158,0  C  158,15  166,80  166,100  C  166,120  156.342,232.217  156.342,232.217  C  165.656,230.81  178.483,230  192.5,230  C  207.9,230  220.22,231.92  228.889,234.992  C  228.889,234.992  219,120  219,100  z " />
<path transform="translate( 0, 0 )" style="stroke: hsl(242.1, 55%, 50%);" id="126"  d=" M  276.75,100  C  276.75,80  284.75,15  284.75,-0  L  235,0  C  235,15  243,80  243,100  C  243,120  233.111,150.622  233.111,234.992  C  252.129,241.013  267.342,251.46  288.75,260.773  L  288.75,260  C  288.75,260  276.75,80  276.75,100  z " />
<path transform="translate( 0, 0 )" style="stroke: hsl(242.1, 55%, 50%);" id="127"  d=" M  385,0  C  340.626,0  312.234,0  292.75,0  L  292.75,0  C  292.75,15  300.75,80  300.75,100  C  300.75,120  288.75,260  288.75,260  L  288.75,260.773  C  309.979,270.01  337.876,278  385,278  z " />
<path transform="translate( 0, 0 )" style="stroke: hsl(269, 55%, 50%);" id="135"  d=" M  0,-25  L  -0,285  C  7.623,285  14.997,283.218  23.1,280.117  L  38.35,-9.692  C  31.585,-16.59  22.243,-25  0,-25  z " />
<path transform="translate( 0, 0 )" style="stroke: hsl(269, 55%, 50%);" id="136"  d=" M  38.35,-9.692  L  23.1,280.117  C  33.747,276.045  44.97,269.682  57.75,263.057  L  57.75,260  C  57.75,260  45.75,120  45.75,100  C  45.75,80  53.75,15  53.75,-0  C  47.282,0  43.531,-4.41  38.35,-9.692  z " />
<path transform="translate( 0, 0 )" style="stroke: hsl(269, 55%, 50%);" id="137"  d=" M  61.75,0  C  61.75,15  69.75,80  69.75,100  C  69.75,120  57.75,260  57.75,260  L  57.75,263.057  C  71.22,256.105  86.62,248.715  104.397,242.542  C  104.397,242.542  93.875,120  93.875,100  C  93.875,80  101.875,15  101.875,-0  z " />
<path transform="translate( 0, 0 )" style="stroke: hsl(269, 55%, 50%);" id="138"  d=" M  109.875,0  C  109.875,15  117.875,80  117.875,100  C  117.875,120  107.353,242.542  107.353,242.542  C  119.643,238.14  135.473,234.442  151.658,232.217  C  151.658,149.581  142,120  142,100  C  142,80  150,15  150,-0  z " />
<path transform="translate( 0, 0 )" style="stroke: hsl(269, 55%, 50%);" id="139"  d=" M  219,100  C  219,80  227,15  227,-0  L  227,0  C  218.68,0  207.9,0  192.5,0  L  158,0  C  158,15  166,80  166,100  C  166,120  156.342,232.217  156.342,232.217  C  165.656,230.81  178.483,230  192.5,230  C  207.9,230  220.22,232.16  228.941,235.616  C  228.941,235.616  219,120  219,100  z " />
<path transform="translate( 0, 0 )" style="stroke: hsl(269, 55%, 50%);" id="140"  d=" M  276.75,100  C  276.75,80  284.75,15  284.75,-0  L  235,0  C  235,15  243,80  243,100  C  243,120  233.059,150.856  233.059,235.616  C  252.129,242.39  267.342,254.142  288.75,264.62  L  288.75,260  C  288.75,260  276.75,80  276.75,100  z " />
<path transform="translate( 0, 0 )" style="stroke: hsl(269, 55%, 50%);" id="141"  d=" M  385,0  C  340.626,0  312.234,0  292.75,0  L  292.75,0  C  292.75,15  300.75,80  300.75,100  C  300.75,120  288.75,260  288.75,260  L  288.75,264.62  C  309.979,275.011  337.876,284  385,284  z " />
<path transform="translate( 0, 0 )" style="stroke: hsl(295.9, 55%, 50%);" id="149"  d=" M  0,-25  L  -0,285  C  7.623,285  14.997,283.218  23.1,280.117  L  38.35,-9.692  C  31.585,-16.59  22.243,-25  0,-25  z " />
<path transform="translate( 0, 0 )" style="stroke: hsl(295.9, 55%, 50%);" id="150"  d=" M  38.35,-9.692  L  23.1,280.117  C  33.747,276.045  44.97,269.682  57.75,263.057  L  57.75,260  C  57.75,260  45.75,120  45.75,100  C  45.75,80  53.75,15  53.75,-0  C  47.282,0  43.531,-4.41  38.35,-9.692  z " />
<path transform="translate( 0, 0 )" style="stroke: hsl(295.9, 55%, 50%);" id="151"  d=" M  61.75,0  C  61.75,15  69.75,80  69.75,100  C  69.75,120  57.75,260  57.75,260  L  57.75,263.057  C  71.22,256.105  86.62,248.715  104.397,242.542  C  104.397,242.542  93.875,120  93.875,100  C  93.875,80  101.875,15  101.875,-0  z " />
<path transform="translate( 0, 0 )" style="stroke: hsl(295.9, 55%, 50%);" id="152"  d=" M  109.875,0  C  109.875,15  117.875,80  117.875,100  C  117.875,120  107.353,242.542  107.353,242.542  C  119.643,238.14  135.473,234.442  151.658,232.217  C  151.658,149.581  142,120  142,100  C  142,80  150,15  150,-0  z " />
<path transform="translate( 0, 0 )" style="stroke: hsl(295.9, 55%, 50%);" id="153"  d=" M  219,100  C  219,80  227,15  227,-0  L  227,0  C  218.68,0  207.9,0  192.5,0  L  158,0  C  158,15  166,80  166,100  C  166,120  156.342,232.217  156.342,232.217  C  165.656,230.81  178.483,230  192.5,230  C  207.9,230  220.22,232.4  228.993,236.24  C  228.993,236.24  219,120  219,100  z " />
<path transform="translate( 0, 0 )" style="stroke: hsl(295.9, 55%, 50%);" id="154"  d=" M  276.75,100  C  276.75,80  284.75,15  284.75,-0  L  235,0  C  235,15  243,80  243,100  C  243,120  233.007,151.09  233.007,236.24  C  252.129,243.766  267.342,256.825  288.75,268.466  L  288.75,260  C  288.75,260  276.75,80  276.75,100  z " />
<path transform="translate( 0, 0 )" style="stroke: hsl(295.9, 55%, 50%);" id="155"  d=" M  385,0  C  340.626,0  312.234,0  292.75,0  L  292.75,0  C  292.75,15  300.75,80  300.75,100  C  300.75,120  288.75,260  288.75,260  L  288.75,268.466  C  309.979,280.012  337.876,290  385,290  z " />
    </g>
    <!-- End of group #panels -->
    
    <!-- Start of group #sampler-panels -->
    <g id="sampler-panels" >
    </g>
    <!-- End of group #sampler-panels -->
</g>
<!-- End of group #patternContainer -->

</svg>

