<?xml version="1.0" encoding="UTF-8" standalone="no"?>
<svg
    width ="1399.60630055"
    height ="1222.44094605"
    viewbox ="0 0 1399.60630055 1222.44094605" xmlns:dc="http://purl.org/dc/elements/1.1/"
    xmlns:cc="http://creativecommons.org/ns#"
    xmlns:rdf="http://www.w3.org/1999/02/22-rdf-syntax-ns#"
    xmlns:svg="http://www.w3.org/2000/svg"
    xmlns="http://www.w3.org/2000/svg"
    xmlns:xlink="http://www.w3.org/1999/xlink"
    xmlns:sodipodi="http://sodipodi.sourceforge.net/DTD/sodipodi-0.dtd"
    xmlns:inkscape="http://www.inkscape.org/namespaces/inkscape" 
>

<style type="text/css">
    <![CDATA[
    path { fill: none; stroke: #000000; stroke-opacity:1; stroke-width: 0.5; stroke-miterlimit:4; stroke-dashoffset:0; stroke-linecap:round; stroke-linejoin:round; }
    path.hidden { fill: none; stroke: none; }]]>
</style>


<!-- Start of group #patternScaleContainer -->
<g id="patternScaleContainer"  transform=" scale(3.54330709 ) " >
    
    <!-- Start of group #base -->
    <g id="base"  transform=" translate(0 0)  translate(395 0) " >
    </g>
    <!-- End of group #base -->
    
    <!-- Start of group #panels -->
    <g id="panels"  transform=" translate(5 55)  translate(0 0) " >
        <path class="hidden" id="2"  d=" M  0,-50  L  385,-50  L  385,285  L  0,285  z " />
<path transform="translate( 0, 0 )" style="stroke: hsl(26.9, 55%, 50%);" id="9"  d=" M  -0,50  L  0,285  C  7.623,285  14.997,283.218  23.1,280.117  L  38.35,19.384  C  31.585,33.18  22.243,50  -0,50  z " />
<path transform="translate( 0, 0 )" style="stroke: hsl(26.9, 55%, 50%);" id="10"  d=" M  38.35,19.384  L  23.1,280.117  C  33.747,276.045  44.97,269.682  57.75,263.057  L  57.75,260  C  57.75,260  45.75,120  45.75,100  C  45.75,80  53.75,15  53.75,-0  C  47.282,0  43.531,8.82  38.35,19.384  z " />
<path transform="translate( 0, 0 )" style="stroke: hsl(26.9, 55%, 50%);" id="11"  d=" M  61.75,0  C  61.75,15  69.75,80  69.75,100  C  69.75,120  57.75,260  57.75,260  L  57.75,263.057  C  71.22,256.105  86.62,248.715  104.397,242.542  C  104.397,242.542  93.875,120  93.875,100  C  93.875,80  101.875,15  101.875,-0  z " />
<path transform="translate( 0, 0 )" style="stroke: hsl(26.9, 55%, 50%);" id="12"  d=" M  109.875,0  C  109.875,15  117.875,80  117.875,100  C  117.875,120  107.353,242.542  107.353,242.542  C  119.643,238.14  135.473,234.442  151.658,232.217  C  151.658,149.581  142,120  142,100  C  142,80  150,15  150,-0  z " />
<path transform="translate( 0, 0 )" style="stroke: hsl(26.9, 55%, 50%);" id="13"  d=" M  219,100  C  219,80  227,15  227,-0  L  227,0  C  218.68,0  207.9,0  192.5,0  L  158,0  C  158,15  166,80  166,100  C  166,120  156.342,232.217  156.342,232.217  C  165.656,230.81  178.483,230  192.5,230  C  207.9,230  220.22,231.2  228.733,233.12  C  228.733,233.12  219,120  219,100  z " />
<path transform="translate( 0, 0 )" style="stroke: hsl(26.9, 55%, 50%);" id="14"  d=" M  276.75,100  C  276.75,80  284.75,15  284.75,-0  L  235,0  C  235,15  243,80  243,100  C  243,120  233.267,149.92  233.267,233.12  C  252.129,236.883  267.342,243.412  287.835,249.233  C  287.835,249.233  276.75,120  276.75,100  z " />
<path transform="translate( 0, 0 )" style="stroke: hsl(26.9, 55%, 50%);" id="15"  d=" M  385,0  C  340.626,0  312.234,0  292.75,0  L  292.75,0  C  292.75,15  300.75,80  300.75,100  C  300.75,120  289.665,249.233  289.665,249.233  C  309.979,255.006  337.876,260  385,260  z " />
<path transform="translate( 0, 0 )" style="stroke: hsl(53.8, 55%, 50%);" id="23"  d=" M  -0,40  L  0,285  C  7.623,285  14.997,283.218  23.1,280.117  L  38.35,15.507  C  31.585,26.544  22.243,40  -0,40  z " />
<path transform="translate( 0, 0 )" style="stroke: hsl(53.8, 55%, 50%);" id="24"  d=" M  38.35,15.507  L  23.1,280.117  C  33.747,276.045  44.97,269.682  57.75,263.057  L  57.75,260  C  57.75,260  45.75,120  45.75,100  C  45.75,80  53.75,15  53.75,-0  C  47.282,0  43.531,7.056  38.35,15.507  z " />
<path transform="translate( 0, 0 )" style="stroke: hsl(53.8, 55%, 50%);" id="25"  d=" M  61.75,0  C  61.75,15  69.75,80  69.75,100  C  69.75,120  57.75,260  57.75,260  L  57.75,263.057  C  71.22,256.105  86.62,248.715  104.397,242.542  C  104.397,242.542  93.875,120  93.875,100  C  93.875,80  101.875,15  101.875,-0  z " />
<path transform="translate( 0, 0 )" style="stroke: hsl(53.8, 55%, 50%);" id="26"  d=" M  109.875,0  C  109.875,15  117.875,80  117.875,100  C  117.875,120  107.353,242.542  107.353,242.542  C  119.643,238.14  135.473,234.442  151.658,232.217  C  151.658,149.581  142,120  142,100  C  142,80  150,15  150,-0  z " />
<path transform="translate( 0, 0 )" style="stroke: hsl(53.8, 55%, 50%);" id="27"  d=" M  219,100  C  219,80  227,15  227,-0  L  227,0  C  218.68,0  207.9,0  192.5,0  L  158,0  C  158,15  166,80  166,100  C  166,120  156.342,232.217  156.342,232.217  C  165.656,230.81  178.483,230  192.5,230  C  207.9,230  220.22,231.2  228.733,233.12  C  228.733,233.12  219,120  219,100  z " />
<path transform="translate( 0, 0 )" style="stroke: hsl(53.8, 55%, 50%);" id="28"  d=" M  276.75,100  C  276.75,80  284.75,15  284.75,-0  L  235,0  C  235,15  243,80  243,100  C  243,120  233.267,149.92  233.267,233.12  C  252.129,236.883  267.342,243.412  287.835,249.233  C  287.835,249.233  276.75,120  276.75,100  z " />
<path transform="translate( 0, 0 )" style="stroke: hsl(53.8, 55%, 50%);" id="29"  d=" M  385,0  C  340.626,0  312.234,0  292.75,0  L  292.75,0  C  292.75,15  300.75,80  300.75,100  C  300.75,120  289.665,249.233  289.665,249.233  C  309.979,255.006  337.876,260  385,260  z " />
<path transform="translate( 0, 0 )" style="stroke: hsl(80.7, 55%, 50%);" id="37"  d=" M  -0,30  L  0,285  C  7.623,285  14.997,283.218  23.1,280.117  L  38.35,11.63  C  31.585,19.908  22.243,30  -0,30  z " />
<path transform="translate( 0, 0 )" style="stroke: hsl(80.7, 55%, 50%);" id="38"  d=" M  38.35,11.63  L  23.1,280.117  C  33.747,276.045  44.97,269.682  57.75,263.057  L  57.75,260  C  57.75,260  45.75,120  45.75,100  C  45.75,80  53.75,15  53.75,-0  C  47.282,0  43.531,5.292  38.35,11.63  z " />
<path transform="translate( 0, 0 )" style="stroke: hsl(80.7, 55%, 50%);" id="39"  d=" M  61.75,0  C  61.75,15  69.75,80  69.75,100  C  69.75,120  57.75,260  57.75,260  L  57.75,263.057  C  71.22,256.105  86.62,248.715  104.397,242.542  C  104.397,242.542  93.875,120  93.875,100  C  93.875,80  101.875,15  101.875,-0  z " />
<path transform="translate( 0, 0 )" style="stroke: hsl(80.7, 55%, 50%);" id="40"  d=" M  109.875,0  C  109.875,15  117.875,80  117.875,100  C  117.875,120  107.353,242.542  107.353,242.542  C  119.643,238.14  135.473,234.442  151.658,232.217  C  151.658,149.581  142,120  142,100  C  142,80  150,15  150,-0  z " />
<path transform="translate( 0, 0 )" style="stroke: hsl(80.7, 55%, 50%);" id="41"  d=" M  219,100  C  219,80  227,15  227,-0  L  227,0  C  218.68,0  207.9,0  192.5,0  L  158,0  C  158,15  166,80  166,100  C  166,120  156.342,232.217  156.342,232.217  C  165.656,230.81  178.483,230  192.5,230  C  207.9,230  220.22,231.2  228.733,233.12  C  228.733,233.12  219,120  219,100  z " />
<path transform="translate( 0, 0 )" style="stroke: hsl(80.7, 55%, 50%);" id="42"  d=" M  276.75,100  C  276.75,80  284.75,15  284.75,-0  L  235,0  C  235,15  243,80  243,100  C  243,120  233.267,149.92  233.267,233.12  C  252.129,236.883  267.342,243.412  287.835,249.233  C  287.835,249.233  276.75,120  276.75,100  z " />
<path transform="translate( 0, 0 )" style="stroke: hsl(80.7, 55%, 50%);" id="43"  d=" M  385,0  C  340.626,0  312.234,0  292.75,0  L  292.75,0  C  292.75,15  300.75,80  300.75,100  C  300.75,120  289.665,249.233  289.665,249.233  C  309.979,255.006  337.876,260  385,260  z " />
<path transform="translate( 0, 0 )" style="stroke: hsl(107.6, 55%, 50%);" id="51"  d=" M  -0,20  L  0,285  C  7.623,285  14.997,283.218  23.1,280.117  L  38.35,7.754  C  31.585,13.272  22.243,20  -0,20  z " />
<path transform="translate( 0, 0 )" style="stroke: hsl(107.6, 55%, 50%);" id="52"  d=" M  38.35,7.754  L  23.1,280.117  C  33.747,276.045  44.97,269.682  57.75,263.057  L  57.75,260  C  57.75,260  45.75,120  45.75,100  C  45.75,80  53.75,15  53.75,-0  C  47.282,0  43.531,3.528  38.35,7.754  z " />
<path transform="translate( 0, 0 )" style="stroke: hsl(107.6, 55%, 50%);" id="53"  d=" M  61.75,0  C  61.75,15  69.75,80  69.75,100  C  69.75,120  57.75,260  57.75,260  L  57.75,263.057  C  71.22,256.105  86.62,248.715  104.397,242.542  C  104.397,242.542  93.875,120  93.875,100  C  93.875,80  101.875,15  101.875,-0  z " />
<path transform="translate( 0, 0 )" style="stroke: hsl(107.6, 55%, 50%);" id="54"  d=" M  109.875,0  C  109.875,15  117.875,80  117.875,100  C  117.875,120  107.353,242.542  107.353,242.542  C  119.643,238.14  135.473,234.442  151.658,232.217  C  151.658,149.581  142,120  142,100  C  142,80  150,15  150,-0  z " />
<path transform="translate( 0, 0 )" style="stroke: hsl(107.6, 55%, 50%);" id="55"  d=" M  219,100  C  219,80  227,15  227,-0  L  227,0  C  218.68,0  207.9,0  192.5,0  L  158,0  C  158,15  166,80  166,100  C  166,120  156.342,232.217  156.342,232.217  C  165.656,230.81  178.483,230  192.5,230  C  207.9,230  220.22,231.2  228.733,233.12  C  228.733,233.12  219,120  219,100  z " />
<path transform="translate( 0, 0 )" style="stroke: hsl(107.6, 55%, 50%);" id="56"  d=" M  276.75,100  C  276.75,80  284.75,15  284.75,-0  L  235,0  C  235,15  243,80  243,100  C  243,120  233.267,149.92  233.267,233.12  C  252.129,236.883  267.342,243.412  287.835,249.233  C  287.835,249.233  276.75,120  276.75,100  z " />
<path transform="translate( 0, 0 )" style="stroke: hsl(107.6, 55%, 50%);" id="57"  d=" M  385,0  C  340.626,0  312.234,0  292.75,0  L  292.75,0  C  292.75,15  300.75,80  300.75,100  C  300.75,120  289.665,249.233  289.665,249.233  C  309.979,255.006  337.876,260  385,260  z " />
<path transform="translate( 0, 0 )" style="stroke: hsl(134.5, 55%, 50%);" id="65"  d=" M  -0,10  L  0,285  C  7.623,285  14.997,283.218  23.1,280.117  L  38.35,3.877  C  31.585,6.636  22.243,10  -0,10  z " />
<path transform="translate( 0, 0 )" style="stroke: hsl(134.5, 55%, 50%);" id="66"  d=" M  38.35,3.877  L  23.1,280.117  C  33.747,276.045  44.97,269.682  57.75,263.057  L  57.75,260  C  57.75,260  45.75,120  45.75,100  C  45.75,80  53.75,15  53.75,-0  C  47.282,0  43.531,1.764  38.35,3.877  z " />
<path transform="translate( 0, 0 )" style="stroke: hsl(134.5, 55%, 50%);" id="67"  d=" M  61.75,0  C  61.75,15  69.75,80  69.75,100  C  69.75,120  57.75,260  57.75,260  L  57.75,263.057  C  71.22,256.105  86.62,248.715  104.397,242.542  C  104.397,242.542  93.875,120  93.875,100  C  93.875,80  101.875,15  101.875,-0  z " />
<path transform="translate( 0, 0 )" style="stroke: hsl(134.5, 55%, 50%);" id="68"  d=" M  109.875,0  C  109.875,15  117.875,80  117.875,100  C  117.875,120  107.353,242.542  107.353,242.542  C  119.643,238.14  135.473,234.442  151.658,232.217  C  151.658,149.581  142,120  142,100  C  142,80  150,15  150,-0  z " />
<path transform="translate( 0, 0 )" style="stroke: hsl(134.5, 55%, 50%);" id="69"  d=" M  219,100  C  219,80  227,15  227,-0  L  227,0  C  218.68,0  207.9,0  192.5,0  L  158,0  C  158,15  166,80  166,100  C  166,120  156.342,232.217  156.342,232.217  C  165.656,230.81  178.483,230  192.5,230  C  207.9,230  220.22,231.2  228.733,233.12  C  228.733,233.12  219,120  219,100  z " />
<path transform="translate( 0, 0 )" style="stroke: hsl(134.5, 55%, 50%);" id="70"  d=" M  276.75,100  C  276.75,80  284.75,15  284.75,-0  L  235,0  C  235,15  243,80  243,100  C  243,120  233.267,149.92  233.267,233.12  C  252.129,236.883  267.342,243.412  287.835,249.233  C  287.835,249.233  276.75,120  276.75,100  z " />
<path transform="translate( 0, 0 )" style="stroke: hsl(134.5, 55%, 50%);" id="71"  d=" M  385,0  C  340.626,0  312.234,0  292.75,0  L  292.75,0  C  292.75,15  300.75,80  300.75,100  C  300.75,120  289.665,249.233  289.665,249.233  C  309.979,255.006  337.876,260  385,260  z " />
<path transform="translate( 0, 0 )" style="stroke: hsl(161.4, 55%, 50%);" id="79"  d=" M  0,0  L  0,285  C  7.623,285  14.997,283.218  23.1,280.117  L  38.35,0  C  31.585,0  22.243,0  0,0  z " />
<path transform="translate( 0, 0 )" style="stroke: hsl(161.4, 55%, 50%);" id="80"  d=" M  38.35,0  L  23.1,280.117  C  33.747,276.045  44.97,269.682  57.75,263.057  L  57.75,260  C  57.75,260  45.75,120  45.75,100  C  45.75,80  53.75,15  53.75,-0  C  47.282,0  43.531,0  38.35,0  z " />
<path transform="translate( 0, 0 )" style="stroke: hsl(161.4, 55%, 50%);" id="81"  d=" M  61.75,0  C  61.75,15  69.75,80  69.75,100  C  69.75,120  57.75,260  57.75,260  L  57.75,263.057  C  71.22,256.105  86.62,248.715  104.397,242.542  C  104.397,242.542  93.875,120  93.875,100  C  93.875,80  101.875,15  101.875,-0  z " />
<path transform="translate( 0, 0 )" style="stroke: hsl(161.4, 55%, 50%);" id="82"  d=" M  109.875,0  C  109.875,15  117.875,80  117.875,100  C  117.875,120  107.353,242.542  107.353,242.542  C  119.643,238.14  135.473,234.442  151.658,232.217  C  151.658,149.581  142,120  142,100  C  142,80  150,15  150,-0  z " />
<path transform="translate( 0, 0 )" style="stroke: hsl(161.4, 55%, 50%);" id="83"  d=" M  219,100  C  219,80  227,15  227,-0  L  227,0  C  218.68,0  207.9,0  192.5,0  L  158,0  C  158,15  166,80  166,100  C  166,120  156.342,232.217  156.342,232.217  C  165.656,230.81  178.483,230  192.5,230  C  207.9,230  220.22,231.2  228.733,233.12  C  228.733,233.12  219,120  219,100  z " />
<path transform="translate( 0, 0 )" style="stroke: hsl(161.4, 55%, 50%);" id="84"  d=" M  276.75,100  C  276.75,80  284.75,15  284.75,-0  L  235,0  C  235,15  243,80  243,100  C  243,120  233.267,149.92  233.267,233.12  C  252.129,236.883  267.342,243.412  287.835,249.233  C  287.835,249.233  276.75,120  276.75,100  z " />
<path transform="translate( 0, 0 )" style="stroke: hsl(161.4, 55%, 50%);" id="85"  d=" M  385,0  C  340.626,0  312.234,0  292.75,0  L  292.75,0  C  292.75,15  300.75,80  300.75,100  C  300.75,120  289.665,249.233  289.665,249.233  C  309.979,255.006  337.876,260  385,260  z " />
<path transform="translate( 0, 0 )" style="stroke: hsl(188.3, 55%, 50%);" id="93"  d=" M  0,-10  L  0,285  C  7.623,285  14.997,283.218  23.1,280.117  L  38.35,-3.877  C  31.585,-6.636  22.243,-10  0,-10  z " />
<path transform="translate( 0, 0 )" style="stroke: hsl(188.3, 55%, 50%);" id="94"  d=" M  38.35,-3.877  L  23.1,280.117  C  33.747,276.045  44.97,269.682  57.75,263.057  L  57.75,260  C  57.75,260  45.75,120  45.75,100  C  45.75,80  53.75,15  53.75,-0  C  47.282,0  43.531,-1.764  38.35,-3.877  z " />
<path transform="translate( 0, 0 )" style="stroke: hsl(188.3, 55%, 50%);" id="95"  d=" M  61.75,0  C  61.75,15  69.75,80  69.75,100  C  69.75,120  57.75,260  57.75,260  L  57.75,263.057  C  71.22,256.105  86.62,248.715  104.397,242.542  C  104.397,242.542  93.875,120  93.875,100  C  93.875,80  101.875,15  101.875,-0  z " />
<path transform="translate( 0, 0 )" style="stroke: hsl(188.3, 55%, 50%);" id="96"  d=" M  109.875,0  C  109.875,15  117.875,80  117.875,100  C  117.875,120  107.353,242.542  107.353,242.542  C  119.643,238.14  135.473,234.442  151.658,232.217  C  151.658,149.581  142,120  142,100  C  142,80  150,15  150,-0  z " />
<path transform="translate( 0, 0 )" style="stroke: hsl(188.3, 55%, 50%);" id="97"  d=" M  219,100  C  219,80  227,15  227,-0  L  227,0  C  218.68,0  207.9,0  192.5,0  L  158,0  C  158,15  166,80  166,100  C  166,120  156.342,232.217  156.342,232.217  C  165.656,230.81  178.483,230  192.5,230  C  207.9,230  220.22,231.2  228.733,233.12  C  228.733,233.12  219,120  219,100  z " />
<path transform="translate( 0, 0 )" style="stroke: hsl(188.3, 55%, 50%);" id="98"  d=" M  276.75,100  C  276.75,80  284.75,15  284.75,-0  L  235,0  C  235,15  243,80  243,100  C  243,120  233.267,149.92  233.267,233.12  C  252.129,236.883  267.342,243.412  287.835,249.233  C  287.835,249.233  276.75,120  276.75,100  z " />
<path transform="translate( 0, 0 )" style="stroke: hsl(188.3, 55%, 50%);" id="99"  d=" M  385,0  C  340.626,0  312.234,0  292.75,0  L  292.75,0  C  292.75,15  300.75,80  300.75,100  C  300.75,120  289.665,249.233  289.665,249.233  C  309.979,255.006  337.876,260  385,260  z " />
<path transform="translate( 0, 0 )" style="stroke: hsl(215.2, 55%, 50%);" id="107"  d=" M  0,-20  L  0,285  C  7.623,285  14.997,283.218  23.1,280.117  L  38.35,-7.754  C  31.585,-13.272  22.243,-20  0,-20  z " />
<path transform="translate( 0, 0 )" style="stroke: hsl(215.2, 55%, 50%);" id="108"  d=" M  38.35,-7.754  L  23.1,280.117  C  33.747,276.045  44.97,269.682  57.75,263.057  L  57.75,260  C  57.75,260  45.75,120  45.75,100  C  45.75,80  53.75,15  53.75,-0  C  47.282,0  43.531,-3.528  38.35,-7.754  z " />
<path transform="translate( 0, 0 )" style="stroke: hsl(215.2, 55%, 50%);" id="109"  d=" M  61.75,0  C  61.75,15  69.75,80  69.75,100  C  69.75,120  57.75,260  57.75,260  L  57.75,263.057  C  71.22,256.105  86.62,248.715  104.397,242.542  C  104.397,242.542  93.875,120  93.875,100  C  93.875,80  101.875,15  101.875,-0  z " />
<path transform="translate( 0, 0 )" style="stroke: hsl(215.2, 55%, 50%);" id="110"  d=" M  109.875,0  C  109.875,15  117.875,80  117.875,100  C  117.875,120  107.353,242.542  107.353,242.542  C  119.643,238.14  135.473,234.442  151.658,232.217  C  151.658,149.581  142,120  142,100  C  142,80  150,15  150,-0  z " />
<path transform="translate( 0, 0 )" style="stroke: hsl(215.2, 55%, 50%);" id="111"  d=" M  219,100  C  219,80  227,15  227,-0  L  227,0  C  218.68,0  207.9,0  192.5,0  L  158,0  C  158,15  166,80  166,100  C  166,120  156.342,232.217  156.342,232.217  C  165.656,230.81  178.483,230  192.5,230  C  207.9,230  220.22,231.2  228.733,233.12  C  228.733,233.12  219,120  219,100  z " />
<path transform="translate( 0, 0 )" style="stroke: hsl(215.2, 55%, 50%);" id="112"  d=" M  276.75,100  C  276.75,80  284.75,15  284.75,-0  L  235,0  C  235,15  243,80  243,100  C  243,120  233.267,149.92  233.267,233.12  C  252.129,236.883  267.342,243.412  287.835,249.233  C  287.835,249.233  276.75,120  276.75,100  z " />
<path transform="translate( 0, 0 )" style="stroke: hsl(215.2, 55%, 50%);" id="113"  d=" M  385,0  C  340.626,0  312.234,0  292.75,0  L  292.75,0  C  292.75,15  300.75,80  300.75,100  C  300.75,120  289.665,249.233  289.665,249.233  C  309.979,255.006  337.876,260  385,260  z " />
<path transform="translate( 0, 0 )" style="stroke: hsl(242.1, 55%, 50%);" id="121"  d=" M  0,-30  L  0,285  C  7.623,285  14.997,283.218  23.1,280.117  L  38.35,-11.63  C  31.585,-19.908  22.243,-30  0,-30  z " />
<path transform="translate( 0, 0 )" style="stroke: hsl(242.1, 55%, 50%);" id="122"  d=" M  38.35,-11.63  L  23.1,280.117  C  33.747,276.045  44.97,269.682  57.75,263.057  L  57.75,260  C  57.75,260  45.75,120  45.75,100  C  45.75,80  53.75,15  53.75,-0  C  47.282,0  43.531,-5.292  38.35,-11.63  z " />
<path transform="translate( 0, 0 )" style="stroke: hsl(242.1, 55%, 50%);" id="123"  d=" M  61.75,0  C  61.75,15  69.75,80  69.75,100  C  69.75,120  57.75,260  57.75,260  L  57.75,263.057  C  71.22,256.105  86.62,248.715  104.397,242.542  C  104.397,242.542  93.875,120  93.875,100  C  93.875,80  101.875,15  101.875,-0  z " />
<path transform="translate( 0, 0 )" style="stroke: hsl(242.1, 55%, 50%);" id="124"  d=" M  109.875,0  C  109.875,15  117.875,80  117.875,100  C  117.875,120  107.353,242.542  107.353,242.542  C  119.643,238.14  135.473,234.442  151.658,232.217  C  151.658,149.581  142,120  142,100  C  142,80  150,15  150,-0  z " />
<path transform="translate( 0, 0 )" style="stroke: hsl(242.1, 55%, 50%);" id="125"  d=" M  219,100  C  219,80  227,15  227,-0  L  227,0  C  218.68,0  207.9,0  192.5,0  L  158,0  C  158,15  166,80  166,100  C  166,120  156.342,232.217  156.342,232.217  C  165.656,230.81  178.483,230  192.5,230  C  207.9,230  220.22,231.2  228.733,233.12  C  228.733,233.12  219,120  219,100  z " />
<path transform="translate( 0, 0 )" style="stroke: hsl(242.1, 55%, 50%);" id="126"  d=" M  276.75,100  C  276.75,80  284.75,15  284.75,-0  L  235,0  C  235,15  243,80  243,100  C  243,120  233.267,149.92  233.267,233.12  C  252.129,236.883  267.342,243.412  287.835,249.233  C  287.835,249.233  276.75,120  276.75,100  z " />
<path transform="translate( 0, 0 )" style="stroke: hsl(242.1, 55%, 50%);" id="127"  d=" M  385,0  C  340.626,0  312.234,0  292.75,0  L  292.75,0  C  292.75,15  300.75,80  300.75,100  C  300.75,120  289.665,249.233  289.665,249.233  C  309.979,255.006  337.876,260  385,260  z " />
<path transform="translate( 0, 0 )" style="stroke: hsl(269, 55%, 50%);" id="135"  d=" M  0,-40  L  0,285  C  7.623,285  14.997,283.218  23.1,280.117  L  38.35,-15.507  C  31.585,-26.544  22.243,-40  0,-40  z " />
<path transform="translate( 0, 0 )" style="stroke: hsl(269, 55%, 50%);" id="136"  d=" M  38.35,-15.507  L  23.1,280.117  C  33.747,276.045  44.97,269.682  57.75,263.057  L  57.75,260  C  57.75,260  45.75,120  45.75,100  C  45.75,80  53.75,15  53.75,-0  C  47.282,0  43.531,-7.056  38.35,-15.507  z " />
<path transform="translate( 0, 0 )" style="stroke: hsl(269, 55%, 50%);" id="137"  d=" M  61.75,0  C  61.75,15  69.75,80  69.75,100  C  69.75,120  57.75,260  57.75,260  L  57.75,263.057  C  71.22,256.105  86.62,248.715  104.397,242.542  C  104.397,242.542  93.875,120  93.875,100  C  93.875,80  101.875,15  101.875,-0  z " />
<path transform="translate( 0, 0 )" style="stroke: hsl(269, 55%, 50%);" id="138"  d=" M  109.875,0  C  109.875,15  117.875,80  117.875,100  C  117.875,120  107.353,242.542  107.353,242.542  C  119.643,238.14  135.473,234.442  151.658,232.217  C  151.658,149.581  142,120  142,100  C  142,80  150,15  150,-0  z " />
<path transform="translate( 0, 0 )" style="stroke: hsl(269, 55%, 50%);" id="139"  d=" M  219,100  C  219,80  227,15  227,-0  L  227,0  C  218.68,0  207.9,0  192.5,0  L  158,0  C  158,15  166,80  166,100  C  166,120  156.342,232.217  156.342,232.217  C  165.656,230.81  178.483,230  192.5,230  C  207.9,230  220.22,231.2  228.733,233.12  C  228.733,233.12  219,120  219,100  z " />
<path transform="translate( 0, 0 )" style="stroke: hsl(269, 55%, 50%);" id="140"  d=" M  276.75,100  C  276.75,80  284.75,15  284.75,-0  L  235,0  C  235,15  243,80  243,100  C  243,120  233.267,149.92  233.267,233.12  C  252.129,236.883  267.342,243.412  287.835,249.233  C  287.835,249.233  276.75,120  276.75,100  z " />
<path transform="translate( 0, 0 )" style="stroke: hsl(269, 55%, 50%);" id="141"  d=" M  385,0  C  340.626,0  312.234,0  292.75,0  L  292.75,0  C  292.75,15  300.75,80  300.75,100  C  300.75,120  289.665,249.233  289.665,249.233  C  309.979,255.006  337.876,260  385,260  z " />
<path transform="translate( 0, 0 )" style="stroke: hsl(295.9, 55%, 50%);" id="149"  d=" M  0,-50  L  0,285  C  7.623,285  14.997,283.218  23.1,280.117  L  38.35,-19.384  C  31.585,-33.18  22.243,-50  0,-50  z " />
<path transform="translate( 0, 0 )" style="stroke: hsl(295.9, 55%, 50%);" id="150"  d=" M  38.35,-19.384  L  23.1,280.117  C  33.747,276.045  44.97,269.682  57.75,263.057  L  57.75,260  C  57.75,260  45.75,120  45.75,100  C  45.75,80  53.75,15  53.75,-0  C  47.282,0  43.531,-8.82  38.35,-19.384  z " />
<path transform="translate( 0, 0 )" style="stroke: hsl(295.9, 55%, 50%);" id="151"  d=" M  61.75,0  C  61.75,15  69.75,80  69.75,100  C  69.75,120  57.75,260  57.75,260  L  57.75,263.057  C  71.22,256.105  86.62,248.715  104.397,242.542  C  104.397,242.542  93.875,120  93.875,100  C  93.875,80  101.875,15  101.875,-0  z " />
<path transform="translate( 0, 0 )" style="stroke: hsl(295.9, 55%, 50%);" id="152"  d=" M  109.875,0  C  109.875,15  117.875,80  117.875,100  C  117.875,120  107.353,242.542  107.353,242.542  C  119.643,238.14  135.473,234.442  151.658,232.217  C  151.658,149.581  142,120  142,100  C  142,80  150,15  150,-0  z " />
<path transform="translate( 0, 0 )" style="stroke: hsl(295.9, 55%, 50%);" id="153"  d=" M  219,100  C  219,80  227,15  227,-0  L  227,0  C  218.68,0  207.9,0  192.5,0  L  158,0  C  158,15  166,80  166,100  C  166,120  156.342,232.217  156.342,232.217  C  165.656,230.81  178.483,230  192.5,230  C  207.9,230  220.22,231.2  228.733,233.12  C  228.733,233.12  219,120  219,100  z " />
<path transform="translate( 0, 0 )" style="stroke: hsl(295.9, 55%, 50%);" id="154"  d=" M  276.75,100  C  276.75,80  284.75,15  284.75,-0  L  235,0  C  235,15  243,80  243,100  C  243,120  233.267,149.92  233.267,233.12  C  252.129,236.883  267.342,243.412  287.835,249.233  C  287.835,249.233  276.75,120  276.75,100  z " />
<path transform="translate( 0, 0 )" style="stroke: hsl(295.9, 55%, 50%);" id="155"  d=" M  385,0  C  340.626,0  312.234,0  292.75,0  L  292.75,0  C  292.75,15  300.75,80  300.75,100  C  300.75,120  289.665,249.233  289.665,249.233  C  309.979,255.006  337.876,260  385,260  z " />
    </g>
    <!-- End of group #panels -->
    
    <!-- Start of group #sampler-panels -->
    <g id="sampler-panels"  transform=" translate(0 0)  translate(395 0) " >
    </g>
    <!-- End of group #sampler-panels -->
</g>
<!-- End of group #patternScaleContainer -->

</svg>

