<?xml version="1.0" encoding="UTF-8" standalone="no"?>
<svg
    xmlns="http://www.w3.org/2000/svg"
    xmlns:svg="http://www.w3.org/2000/svg"
    xmlns:xlink="http://www.w3.org/1999/xlink"
    xmlns:freesewing="http://freesewing.org/namespaces/freesewing" viewBox ="0 0 395 345"
    width ="395mm"
    height ="345mm"
    freesewing:version ="1.5.0"
    freesewing:origin ="joost.core.freesewing.org" 
>

<style type="text/css">
    <![CDATA[
    path { fill: none; stroke: #000000; stroke-opacity:1; stroke-width: 0.5; stroke-miterlimit:4; stroke-dashoffset:0; stroke-linecap:round; stroke-linejoin:round; }
    path.hidden { fill: none; stroke: none; }]]>
</style>


<!-- Start of group #patternContainer -->
<g id="patternContainer" >
    
    <!-- Start of group #base -->
    <g id="base" >
    </g>
    <!-- End of group #base -->
    
    <!-- Start of group #panels -->
    <g id="panels"  transform=" translate(5 30)  translate(0 0) " >
        <path class="hidden" id="2"  d=" M  0,-25  L  385,-25  L  385,310  L  0,310  z " />
<path transform="translate( 0, 0 )" style="stroke: hsl(26.9, 55%, 50%);" id="9"  d=" M  0,-25  L  -0,230  C  7.623,230  14.997,230  23.1,230  L  38.35,-9.692  C  31.585,-16.59  22.243,-25  0,-25  z " />
<path transform="translate( 0, 0 )" style="stroke: hsl(26.9, 55%, 50%);" id="10"  d=" M  38.35,-9.692  L  23.1,230  C  33.747,230  44.97,230  55.223,230  C  55.223,230  45.75,120  45.75,100  C  45.75,80  53.75,15  53.75,-0  C  47.282,0  43.531,-4.41  38.35,-9.692  z " />
<path transform="translate( 0, 0 )" style="stroke: hsl(26.9, 55%, 50%);" id="11"  d=" M  61.75,0  C  61.75,15  69.75,80  69.75,100  C  69.75,120  60.277,230  60.277,230  C  71.22,230  86.62,230  103.348,230  C  103.348,230  93.875,120  93.875,100  C  93.875,80  101.875,15  101.875,-0  z " />
<path transform="translate( 0, 0 )" style="stroke: hsl(26.9, 55%, 50%);" id="12"  d=" M  109.875,0  C  109.875,15  117.875,80  117.875,100  C  117.875,120  108.402,230  108.402,230  C  119.643,230  135.473,230  151.473,230  C  151.473,148.75  142,120  142,100  C  142,80  150,15  150,-0  z " />
<path transform="translate( 0, 0 )" style="stroke: hsl(26.9, 55%, 50%);" id="13"  d=" M  219,100  C  219,80  227,15  227,-0  L  227,0  C  218.68,0  207.9,0  192.5,0  L  158,0  C  158,15  166,80  166,100  C  166,120  156.527,230  156.527,230  C  165.656,230  178.483,230  192.5,230  C  207.9,230  220.22,231.2  228.733,233.12  C  228.733,233.12  219,120  219,100  z " />
<path transform="translate( 0, 0 )" style="stroke: hsl(26.9, 55%, 50%);" id="14"  d=" M  276.75,100  C  276.75,80  284.75,15  284.75,-0  L  235,0  C  235,15  243,80  243,100  C  243,120  233.267,149.92  233.267,233.12  C  252.129,236.883  267.342,243.412  287.835,249.233  C  287.835,249.233  276.75,120  276.75,100  z " />
<path transform="translate( 0, 0 )" style="stroke: hsl(26.9, 55%, 50%);" id="15"  d=" M  385,0  C  340.626,0  312.234,0  292.75,0  L  292.75,0  C  292.75,15  300.75,80  300.75,100  C  300.75,120  289.665,249.233  289.665,249.233  C  309.979,255.006  337.876,260  385,260  z " />
<path transform="translate( 0, 0 )" style="stroke: hsl(53.8, 55%, 50%);" id="23"  d=" M  0,-25  L  -0,238  C  7.623,238  14.997,237.741  23.1,237.29  L  38.35,-9.692  C  31.585,-16.59  22.243,-25  0,-25  z " />
<path transform="translate( 0, 0 )" style="stroke: hsl(53.8, 55%, 50%);" id="24"  d=" M  38.35,-9.692  L  23.1,237.29  C  33.747,236.698  44.97,235.772  55.624,234.808  C  55.624,234.808  45.75,120  45.75,100  C  45.75,80  53.75,15  53.75,-0  C  47.282,0  43.531,-4.41  38.35,-9.692  z " />
<path transform="translate( 0, 0 )" style="stroke: hsl(53.8, 55%, 50%);" id="25"  d=" M  61.75,0  C  61.75,15  69.75,80  69.75,100  C  69.75,120  59.876,234.808  59.876,234.808  C  71.22,233.797  86.62,232.722  103.5,231.824  C  103.5,231.824  93.875,120  93.875,100  C  93.875,80  101.875,15  101.875,-0  z " />
<path transform="translate( 0, 0 )" style="stroke: hsl(53.8, 55%, 50%);" id="26"  d=" M  109.875,0  C  109.875,15  117.875,80  117.875,100  C  117.875,120  108.25,231.824  108.25,231.824  C  119.643,231.184  135.473,230.646  151.5,230.322  C  151.5,148.871  142,120  142,100  C  142,80  150,15  150,-0  z " />
<path transform="translate( 0, 0 )" style="stroke: hsl(53.8, 55%, 50%);" id="27"  d=" M  219,100  C  219,80  227,15  227,-0  L  227,0  C  218.68,0  207.9,0  192.5,0  L  158,0  C  158,15  166,80  166,100  C  166,120  156.5,230.322  156.5,230.322  C  165.656,230.118  178.483,230  192.5,230  C  207.9,230  220.22,231.2  228.733,233.12  C  228.733,233.12  219,120  219,100  z " />
<path transform="translate( 0, 0 )" style="stroke: hsl(53.8, 55%, 50%);" id="28"  d=" M  276.75,100  C  276.75,80  284.75,15  284.75,-0  L  235,0  C  235,15  243,80  243,100  C  243,120  233.267,149.92  233.267,233.12  C  252.129,236.883  267.342,243.412  287.835,249.233  C  287.835,249.233  276.75,120  276.75,100  z " />
<path transform="translate( 0, 0 )" style="stroke: hsl(53.8, 55%, 50%);" id="29"  d=" M  385,0  C  340.626,0  312.234,0  292.75,0  L  292.75,0  C  292.75,15  300.75,80  300.75,100  C  300.75,120  289.665,249.233  289.665,249.233  C  309.979,255.006  337.876,260  385,260  z " />
<path transform="translate( 0, 0 )" style="stroke: hsl(80.7, 55%, 50%);" id="37"  d=" M  0,-25  L  -0,246  C  7.623,246  14.997,245.482  23.1,244.58  L  38.35,-9.692  C  31.585,-16.59  22.243,-25  0,-25  z " />
<path transform="translate( 0, 0 )" style="stroke: hsl(80.7, 55%, 50%);" id="38"  d=" M  38.35,-9.692  L  23.1,244.58  C  33.747,243.395  44.97,241.544  56.026,239.616  C  56.026,239.616  45.75,120  45.75,100  C  45.75,80  53.75,15  53.75,-0  C  47.282,0  43.531,-4.41  38.35,-9.692  z " />
<path transform="translate( 0, 0 )" style="stroke: hsl(80.7, 55%, 50%);" id="39"  d=" M  61.75,0  C  61.75,15  69.75,80  69.75,100  C  69.75,120  59.474,239.616  59.474,239.616  C  71.22,237.594  86.62,235.444  103.652,233.648  C  103.652,233.648  93.875,120  93.875,100  C  93.875,80  101.875,15  101.875,-0  z " />
<path transform="translate( 0, 0 )" style="stroke: hsl(80.7, 55%, 50%);" id="40"  d=" M  109.875,0  C  109.875,15  117.875,80  117.875,100  C  117.875,120  108.098,233.648  108.098,233.648  C  119.643,232.368  135.473,231.292  151.527,230.645  C  151.527,148.992  142,120  142,100  C  142,80  150,15  150,-0  z " />
<path transform="translate( 0, 0 )" style="stroke: hsl(80.7, 55%, 50%);" id="41"  d=" M  219,100  C  219,80  227,15  227,-0  L  227,0  C  218.68,0  207.9,0  192.5,0  L  158,0  C  158,15  166,80  166,100  C  166,120  156.473,230.645  156.473,230.645  C  165.656,230.236  178.483,230  192.5,230  C  207.9,230  220.22,231.2  228.733,233.12  C  228.733,233.12  219,120  219,100  z " />
<path transform="translate( 0, 0 )" style="stroke: hsl(80.7, 55%, 50%);" id="42"  d=" M  276.75,100  C  276.75,80  284.75,15  284.75,-0  L  235,0  C  235,15  243,80  243,100  C  243,120  233.267,149.92  233.267,233.12  C  252.129,236.883  267.342,243.412  287.835,249.233  C  287.835,249.233  276.75,120  276.75,100  z " />
<path transform="translate( 0, 0 )" style="stroke: hsl(80.7, 55%, 50%);" id="43"  d=" M  385,0  C  340.626,0  312.234,0  292.75,0  L  292.75,0  C  292.75,15  300.75,80  300.75,100  C  300.75,120  289.665,249.233  289.665,249.233  C  309.979,255.006  337.876,260  385,260  z " />
<path transform="translate( 0, 0 )" style="stroke: hsl(107.6, 55%, 50%);" id="51"  d=" M  0,-25  L  -0,254  C  7.623,254  14.997,253.222  23.1,251.869  L  38.35,-9.692  C  31.585,-16.59  22.243,-25  0,-25  z " />
<path transform="translate( 0, 0 )" style="stroke: hsl(107.6, 55%, 50%);" id="52"  d=" M  38.35,-9.692  L  23.1,251.869  C  33.747,250.092  44.97,247.316  56.43,244.425  C  56.43,244.425  45.75,120  45.75,100  C  45.75,80  53.75,15  53.75,-0  C  47.282,0  43.531,-4.41  38.35,-9.692  z " />
<path transform="translate( 0, 0 )" style="stroke: hsl(107.6, 55%, 50%);" id="53"  d=" M  61.75,0  C  61.75,15  69.75,80  69.75,100  C  69.75,120  59.07,244.425  59.07,244.425  C  71.22,241.391  86.62,238.167  103.804,235.473  C  103.804,235.473  93.875,120  93.875,100  C  93.875,80  101.875,15  101.875,-0  z " />
<path transform="translate( 0, 0 )" style="stroke: hsl(107.6, 55%, 50%);" id="54"  d=" M  109.875,0  C  109.875,15  117.875,80  117.875,100  C  117.875,120  107.946,235.473  107.946,235.473  C  119.643,233.552  135.473,231.938  151.553,230.967  C  151.553,149.113  142,120  142,100  C  142,80  150,15  150,-0  z " />
<path transform="translate( 0, 0 )" style="stroke: hsl(107.6, 55%, 50%);" id="55"  d=" M  219,100  C  219,80  227,15  227,-0  L  227,0  C  218.68,0  207.9,0  192.5,0  L  158,0  C  158,15  166,80  166,100  C  166,120  156.447,230.967  156.447,230.967  C  165.656,230.353  178.483,230  192.5,230  C  207.9,230  220.22,231.2  228.733,233.12  C  228.733,233.12  219,120  219,100  z " />
<path transform="translate( 0, 0 )" style="stroke: hsl(107.6, 55%, 50%);" id="56"  d=" M  276.75,100  C  276.75,80  284.75,15  284.75,-0  L  235,0  C  235,15  243,80  243,100  C  243,120  233.267,149.92  233.267,233.12  C  252.129,236.883  267.342,243.412  287.835,249.233  C  287.835,249.233  276.75,120  276.75,100  z " />
<path transform="translate( 0, 0 )" style="stroke: hsl(107.6, 55%, 50%);" id="57"  d=" M  385,0  C  340.626,0  312.234,0  292.75,0  L  292.75,0  C  292.75,15  300.75,80  300.75,100  C  300.75,120  289.665,249.233  289.665,249.233  C  309.979,255.006  337.876,260  385,260  z " />
<path transform="translate( 0, 0 )" style="stroke: hsl(134.5, 55%, 50%);" id="65"  d=" M  0,-25  L  -0,262  C  7.623,262  14.997,260.963  23.1,259.159  L  38.35,-9.692  C  31.585,-16.59  22.243,-25  0,-25  z " />
<path transform="translate( 0, 0 )" style="stroke: hsl(134.5, 55%, 50%);" id="66"  d=" M  38.35,-9.692  L  23.1,259.159  C  33.747,256.79  44.97,253.088  56.835,249.233  C  56.835,249.233  45.75,120  45.75,100  C  45.75,80  53.75,15  53.75,-0  C  47.282,0  43.531,-4.41  38.35,-9.692  z " />
<path transform="translate( 0, 0 )" style="stroke: hsl(134.5, 55%, 50%);" id="67"  d=" M  61.75,0  C  61.75,15  69.75,80  69.75,100  C  69.75,120  58.665,249.233  58.665,249.233  C  71.22,245.188  86.62,240.889  103.957,237.297  C  103.957,237.297  93.875,120  93.875,100  C  93.875,80  101.875,15  101.875,-0  z " />
<path transform="translate( 0, 0 )" style="stroke: hsl(134.5, 55%, 50%);" id="68"  d=" M  109.875,0  C  109.875,15  117.875,80  117.875,100  C  117.875,120  107.793,237.297  107.793,237.297  C  119.643,234.736  135.473,232.584  151.58,231.29  C  151.58,149.234  142,120  142,100  C  142,80  150,15  150,-0  z " />
<path transform="translate( 0, 0 )" style="stroke: hsl(134.5, 55%, 50%);" id="69"  d=" M  219,100  C  219,80  227,15  227,-0  L  227,0  C  218.68,0  207.9,0  192.5,0  L  158,0  C  158,15  166,80  166,100  C  166,120  156.42,231.29  156.42,231.29  C  165.656,230.471  178.483,230  192.5,230  C  207.9,230  220.22,231.2  228.733,233.12  C  228.733,233.12  219,120  219,100  z " />
<path transform="translate( 0, 0 )" style="stroke: hsl(134.5, 55%, 50%);" id="70"  d=" M  276.75,100  C  276.75,80  284.75,15  284.75,-0  L  235,0  C  235,15  243,80  243,100  C  243,120  233.267,149.92  233.267,233.12  C  252.129,236.883  267.342,243.412  287.835,249.233  C  287.835,249.233  276.75,120  276.75,100  z " />
<path transform="translate( 0, 0 )" style="stroke: hsl(134.5, 55%, 50%);" id="71"  d=" M  385,0  C  340.626,0  312.234,0  292.75,0  L  292.75,0  C  292.75,15  300.75,80  300.75,100  C  300.75,120  289.665,249.233  289.665,249.233  C  309.979,255.006  337.876,260  385,260  z " />
<path transform="translate( 0, 0 )" style="stroke: hsl(161.4, 55%, 50%);" id="79"  d=" M  0,-25  L  -0,270  C  7.623,270  14.997,268.704  23.1,266.449  L  38.35,-9.692  C  31.585,-16.59  22.243,-25  0,-25  z " />
<path transform="translate( 0, 0 )" style="stroke: hsl(161.4, 55%, 50%);" id="80"  d=" M  38.35,-9.692  L  23.1,266.449  C  33.747,263.488  44.97,258.859  57.242,254.041  C  57.242,254.041  45.75,120  45.75,100  C  45.75,80  53.75,15  53.75,-0  C  47.282,0  43.531,-4.41  38.35,-9.692  z " />
<path transform="translate( 0, 0 )" style="stroke: hsl(161.4, 55%, 50%);" id="81"  d=" M  61.75,0  C  61.75,15  69.75,80  69.75,100  C  69.75,120  58.258,254.041  58.258,254.041  C  71.22,248.985  86.62,243.611  104.11,239.121  C  104.11,239.121  93.875,120  93.875,100  C  93.875,80  101.875,15  101.875,-0  z " />
<path transform="translate( 0, 0 )" style="stroke: hsl(161.4, 55%, 50%);" id="82"  d=" M  109.875,0  C  109.875,15  117.875,80  117.875,100  C  117.875,120  107.64,239.121  107.64,239.121  C  119.643,235.92  135.473,233.231  151.607,231.612  C  151.607,149.354  142,120  142,100  C  142,80  150,15  150,-0  z " />
<path transform="translate( 0, 0 )" style="stroke: hsl(161.4, 55%, 50%);" id="83"  d=" M  219,100  C  219,80  227,15  227,-0  L  227,0  C  218.68,0  207.9,0  192.5,0  L  158,0  C  158,15  166,80  166,100  C  166,120  156.393,231.612  156.393,231.612  C  165.656,230.589  178.483,230  192.5,230  C  207.9,230  220.22,231.2  228.733,233.12  C  228.733,233.12  219,120  219,100  z " />
<path transform="translate( 0, 0 )" style="stroke: hsl(161.4, 55%, 50%);" id="84"  d=" M  276.75,100  C  276.75,80  284.75,15  284.75,-0  L  235,0  C  235,15  243,80  243,100  C  243,120  233.267,149.92  233.267,233.12  C  252.129,236.883  267.342,243.412  287.835,249.233  C  287.835,249.233  276.75,120  276.75,100  z " />
<path transform="translate( 0, 0 )" style="stroke: hsl(161.4, 55%, 50%);" id="85"  d=" M  385,0  C  340.626,0  312.234,0  292.75,0  L  292.75,0  C  292.75,15  300.75,80  300.75,100  C  300.75,120  289.665,249.233  289.665,249.233  C  309.979,255.006  337.876,260  385,260  z " />
<path transform="translate( 0, 0 )" style="stroke: hsl(188.3, 55%, 50%);" id="93"  d=" M  0,-25  L  -0,278  C  7.623,278  14.997,276.445  23.1,273.739  L  38.35,-9.692  C  31.585,-16.59  22.243,-25  0,-25  z " />
<path transform="translate( 0, 0 )" style="stroke: hsl(188.3, 55%, 50%);" id="94"  d=" M  38.35,-9.692  L  23.1,273.739  C  33.747,270.185  44.97,264.631  57.652,258.849  C  57.652,258.849  45.75,120  45.75,100  C  45.75,80  53.75,15  53.75,-0  C  47.282,0  43.531,-4.41  38.35,-9.692  z " />
<path transform="translate( 0, 0 )" style="stroke: hsl(188.3, 55%, 50%);" id="95"  d=" M  61.75,0  C  61.75,15  69.75,80  69.75,100  C  69.75,120  57.848,258.849  57.848,258.849  C  71.22,252.782  86.62,246.333  104.263,240.945  C  104.263,240.945  93.875,120  93.875,100  C  93.875,80  101.875,15  101.875,-0  z " />
<path transform="translate( 0, 0 )" style="stroke: hsl(188.3, 55%, 50%);" id="96"  d=" M  109.875,0  C  109.875,15  117.875,80  117.875,100  C  117.875,120  107.487,240.945  107.487,240.945  C  119.643,237.104  135.473,233.876  151.634,231.935  C  151.634,149.476  142,120  142,100  C  142,80  150,15  150,-0  z " />
<path transform="translate( 0, 0 )" style="stroke: hsl(188.3, 55%, 50%);" id="97"  d=" M  219,100  C  219,80  227,15  227,-0  L  227,0  C  218.68,0  207.9,0  192.5,0  L  158,0  C  158,15  166,80  166,100  C  166,120  156.366,231.935  156.366,231.935  C  165.656,230.707  178.483,230  192.5,230  C  207.9,230  220.22,231.2  228.733,233.12  C  228.733,233.12  219,120  219,100  z " />
<path transform="translate( 0, 0 )" style="stroke: hsl(188.3, 55%, 50%);" id="98"  d=" M  276.75,100  C  276.75,80  284.75,15  284.75,-0  L  235,0  C  235,15  243,80  243,100  C  243,120  233.267,149.92  233.267,233.12  C  252.129,236.883  267.342,243.412  287.835,249.233  C  287.835,249.233  276.75,120  276.75,100  z " />
<path transform="translate( 0, 0 )" style="stroke: hsl(188.3, 55%, 50%);" id="99"  d=" M  385,0  C  340.626,0  312.234,0  292.75,0  L  292.75,0  C  292.75,15  300.75,80  300.75,100  C  300.75,120  289.665,249.233  289.665,249.233  C  309.979,255.006  337.876,260  385,260  z " />
<path transform="translate( 0, 0 )" style="stroke: hsl(215.2, 55%, 50%);" id="107"  d=" M  0,-25  L  -0,286  C  7.623,286  14.997,284.186  23.1,281.028  L  38.35,-9.692  C  31.585,-16.59  22.243,-25  0,-25  z " />
<path transform="translate( 0, 0 )" style="stroke: hsl(215.2, 55%, 50%);" id="108"  d=" M  38.35,-9.692  L  23.1,281.028  C  33.747,276.882  44.97,270.403  57.75,263.658  L  57.75,260  C  57.75,260  45.75,120  45.75,100  C  45.75,80  53.75,15  53.75,-0  C  47.282,0  43.531,-4.41  38.35,-9.692  z " />
<path transform="translate( 0, 0 )" style="stroke: hsl(215.2, 55%, 50%);" id="109"  d=" M  61.75,0  C  61.75,15  69.75,80  69.75,100  C  69.75,120  57.75,260  57.75,260  L  57.75,263.658  C  71.22,256.579  86.62,249.055  104.416,242.77  C  104.416,242.77  93.875,120  93.875,100  C  93.875,80  101.875,15  101.875,-0  z " />
<path transform="translate( 0, 0 )" style="stroke: hsl(215.2, 55%, 50%);" id="110"  d=" M  109.875,0  C  109.875,15  117.875,80  117.875,100  C  117.875,120  107.334,242.77  107.334,242.77  C  119.643,238.288  135.473,234.523  151.661,232.257  C  151.661,149.596  142,120  142,100  C  142,80  150,15  150,-0  z " />
<path transform="translate( 0, 0 )" style="stroke: hsl(215.2, 55%, 50%);" id="111"  d=" M  219,100  C  219,80  227,15  227,-0  L  227,0  C  218.68,0  207.9,0  192.5,0  L  158,0  C  158,15  166,80  166,100  C  166,120  156.339,232.257  156.339,232.257  C  165.656,230.825  178.483,230  192.5,230  C  207.9,230  220.22,231.2  228.733,233.12  C  228.733,233.12  219,120  219,100  z " />
<path transform="translate( 0, 0 )" style="stroke: hsl(215.2, 55%, 50%);" id="112"  d=" M  276.75,100  C  276.75,80  284.75,15  284.75,-0  L  235,0  C  235,15  243,80  243,100  C  243,120  233.267,149.92  233.267,233.12  C  252.129,236.883  267.342,243.412  287.835,249.233  C  287.835,249.233  276.75,120  276.75,100  z " />
<path transform="translate( 0, 0 )" style="stroke: hsl(215.2, 55%, 50%);" id="113"  d=" M  385,0  C  340.626,0  312.234,0  292.75,0  L  292.75,0  C  292.75,15  300.75,80  300.75,100  C  300.75,120  289.665,249.233  289.665,249.233  C  309.979,255.006  337.876,260  385,260  z " />
<path transform="translate( 0, 0 )" style="stroke: hsl(242.1, 55%, 50%);" id="121"  d=" M  0,-25  L  -0,294  C  7.623,294  14.997,291.926  23.1,288.318  L  38.35,-9.692  C  31.585,-16.59  22.243,-25  0,-25  z " />
<path transform="translate( 0, 0 )" style="stroke: hsl(242.1, 55%, 50%);" id="122"  d=" M  38.35,-9.692  L  23.1,288.318  C  33.747,283.58  44.97,276.175  57.75,268.466  L  57.75,260  C  57.75,260  45.75,120  45.75,100  C  45.75,80  53.75,15  53.75,-0  C  47.282,0  43.531,-4.41  38.35,-9.692  z " />
<path transform="translate( 0, 0 )" style="stroke: hsl(242.1, 55%, 50%);" id="123"  d=" M  61.75,0  C  61.75,15  69.75,80  69.75,100  C  69.75,120  57.75,260  57.75,260  L  57.75,268.466  C  71.22,260.376  86.62,251.778  104.569,244.594  C  104.569,244.594  93.875,120  93.875,100  C  93.875,80  101.875,15  101.875,-0  z " />
<path transform="translate( 0, 0 )" style="stroke: hsl(242.1, 55%, 50%);" id="124"  d=" M  109.875,0  C  109.875,15  117.875,80  117.875,100  C  117.875,120  107.181,244.594  107.181,244.594  C  119.643,239.472  135.473,235.169  151.688,232.58  C  151.688,149.717  142,120  142,100  C  142,80  150,15  150,-0  z " />
<path transform="translate( 0, 0 )" style="stroke: hsl(242.1, 55%, 50%);" id="125"  d=" M  219,100  C  219,80  227,15  227,-0  L  227,0  C  218.68,0  207.9,0  192.5,0  L  158,0  C  158,15  166,80  166,100  C  166,120  156.312,232.58  156.312,232.58  C  165.656,230.943  178.483,230  192.5,230  C  207.9,230  220.22,231.2  228.733,233.12  C  228.733,233.12  219,120  219,100  z " />
<path transform="translate( 0, 0 )" style="stroke: hsl(242.1, 55%, 50%);" id="126"  d=" M  276.75,100  C  276.75,80  284.75,15  284.75,-0  L  235,0  C  235,15  243,80  243,100  C  243,120  233.267,149.92  233.267,233.12  C  252.129,236.883  267.342,243.412  287.835,249.233  C  287.835,249.233  276.75,120  276.75,100  z " />
<path transform="translate( 0, 0 )" style="stroke: hsl(242.1, 55%, 50%);" id="127"  d=" M  385,0  C  340.626,0  312.234,0  292.75,0  L  292.75,0  C  292.75,15  300.75,80  300.75,100  C  300.75,120  289.665,249.233  289.665,249.233  C  309.979,255.006  337.876,260  385,260  z " />
<path transform="translate( 0, 0 )" style="stroke: hsl(269, 55%, 50%);" id="135"  d=" M  0,-25  L  -0,302  C  7.623,302  14.997,299.667  23.1,295.608  L  38.35,-9.692  C  31.585,-16.59  22.243,-25  0,-25  z " />
<path transform="translate( 0, 0 )" style="stroke: hsl(269, 55%, 50%);" id="136"  d=" M  38.35,-9.692  L  23.1,295.608  C  33.747,290.278  44.97,281.947  57.75,273.274  L  57.75,260  C  57.75,260  45.75,120  45.75,100  C  45.75,80  53.75,15  53.75,-0  C  47.282,0  43.531,-4.41  38.35,-9.692  z " />
<path transform="translate( 0, 0 )" style="stroke: hsl(269, 55%, 50%);" id="137"  d=" M  61.75,0  C  61.75,15  69.75,80  69.75,100  C  69.75,120  57.75,260  57.75,260  L  57.75,273.274  C  71.22,264.173  86.62,254.5  104.723,246.418  C  104.723,246.418  93.875,120  93.875,100  C  93.875,80  101.875,15  101.875,-0  z " />
<path transform="translate( 0, 0 )" style="stroke: hsl(269, 55%, 50%);" id="138"  d=" M  109.875,0  C  109.875,15  117.875,80  117.875,100  C  117.875,120  107.027,246.418  107.027,246.418  C  119.643,240.656  135.473,235.814  151.715,232.902  C  151.715,149.838  142,120  142,100  C  142,80  150,15  150,-0  z " />
<path transform="translate( 0, 0 )" style="stroke: hsl(269, 55%, 50%);" id="139"  d=" M  219,100  C  219,80  227,15  227,-0  L  227,0  C  218.68,0  207.9,0  192.5,0  L  158,0  C  158,15  166,80  166,100  C  166,120  156.285,232.902  156.285,232.902  C  165.656,231.06  178.483,230  192.5,230  C  207.9,230  220.22,231.2  228.733,233.12  C  228.733,233.12  219,120  219,100  z " />
<path transform="translate( 0, 0 )" style="stroke: hsl(269, 55%, 50%);" id="140"  d=" M  276.75,100  C  276.75,80  284.75,15  284.75,-0  L  235,0  C  235,15  243,80  243,100  C  243,120  233.267,149.92  233.267,233.12  C  252.129,236.883  267.342,243.412  287.835,249.233  C  287.835,249.233  276.75,120  276.75,100  z " />
<path transform="translate( 0, 0 )" style="stroke: hsl(269, 55%, 50%);" id="141"  d=" M  385,0  C  340.626,0  312.234,0  292.75,0  L  292.75,0  C  292.75,15  300.75,80  300.75,100  C  300.75,120  289.665,249.233  289.665,249.233  C  309.979,255.006  337.876,260  385,260  z " />
<path transform="translate( 0, 0 )" style="stroke: hsl(295.9, 55%, 50%);" id="149"  d=" M  0,-25  L  -0,310  C  7.623,310  14.997,307.408  23.1,302.898  L  38.35,-9.692  C  31.585,-16.59  22.243,-25  0,-25  z " />
<path transform="translate( 0, 0 )" style="stroke: hsl(295.9, 55%, 50%);" id="150"  d=" M  38.35,-9.692  L  23.1,302.898  C  33.747,296.975  44.97,287.719  57.75,278.082  L  57.75,260  C  57.75,260  45.75,120  45.75,100  C  45.75,80  53.75,15  53.75,-0  C  47.282,0  43.531,-4.41  38.35,-9.692  z " />
<path transform="translate( 0, 0 )" style="stroke: hsl(295.9, 55%, 50%);" id="151"  d=" M  61.75,0  C  61.75,15  69.75,80  69.75,100  C  69.75,120  57.75,260  57.75,260  L  57.75,278.082  C  71.22,267.97  86.62,257.222  104.877,248.242  C  104.877,248.242  93.875,120  93.875,100  C  93.875,80  101.875,15  101.875,-0  z " />
<path transform="translate( 0, 0 )" style="stroke: hsl(295.9, 55%, 50%);" id="152"  d=" M  109.875,0  C  109.875,15  117.875,80  117.875,100  C  117.875,120  106.873,248.242  106.873,248.242  C  119.643,241.84  135.473,236.461  151.742,233.225  C  151.742,149.959  142,120  142,100  C  142,80  150,15  150,-0  z " />
<path transform="translate( 0, 0 )" style="stroke: hsl(295.9, 55%, 50%);" id="153"  d=" M  219,100  C  219,80  227,15  227,-0  L  227,0  C  218.68,0  207.9,0  192.5,0  L  158,0  C  158,15  166,80  166,100  C  166,120  156.258,233.225  156.258,233.225  C  165.656,231.178  178.483,230  192.5,230  C  207.9,230  220.22,231.2  228.733,233.12  C  228.733,233.12  219,120  219,100  z " />
<path transform="translate( 0, 0 )" style="stroke: hsl(295.9, 55%, 50%);" id="154"  d=" M  276.75,100  C  276.75,80  284.75,15  284.75,-0  L  235,0  C  235,15  243,80  243,100  C  243,120  233.267,149.92  233.267,233.12  C  252.129,236.883  267.342,243.412  287.835,249.233  C  287.835,249.233  276.75,120  276.75,100  z " />
<path transform="translate( 0, 0 )" style="stroke: hsl(295.9, 55%, 50%);" id="155"  d=" M  385,0  C  340.626,0  312.234,0  292.75,0  L  292.75,0  C  292.75,15  300.75,80  300.75,100  C  300.75,120  289.665,249.233  289.665,249.233  C  309.979,255.006  337.876,260  385,260  z " />
    </g>
    <!-- End of group #panels -->
    
    <!-- Start of group #sampler-panels -->
    <g id="sampler-panels" >
    </g>
    <!-- End of group #sampler-panels -->
</g>
<!-- End of group #patternContainer -->

</svg>

