<?xml version="1.0" encoding="UTF-8" standalone="no"?>
<!-- Created with Inkscape (http://www.inkscape.org/) -->

<svg
   xmlns:dc="http://purl.org/dc/elements/1.1/"
   xmlns:cc="http://creativecommons.org/ns#"
   xmlns:rdf="http://www.w3.org/1999/02/22-rdf-syntax-ns#"
   xmlns:svg="http://www.w3.org/2000/svg"
   xmlns="http://www.w3.org/2000/svg"
   xmlns:xlink="http://www.w3.org/1999/xlink"
   xmlns:sodipodi="http://sodipodi.sourceforge.net/DTD/sodipodi-0.dtd"
   xmlns:inkscape="http://www.inkscape.org/namespaces/inkscape"
   version="1.1"
   width="1022.45"
   height="803.61"
   id="svg2"
   inkscape:version="0.47 r22583"
   sodipodi:docname="tamika.svg">
  <metadata
     id="metadata7901">
    <rdf:RDF>
      <cc:Work
         rdf:about="">
        <dc:format>image/svg+xml</dc:format>
        <dc:type
           rdf:resource="http://purl.org/dc/dcmitype/StillImage" />
      </cc:Work>
    </rdf:RDF>
  </metadata>
  <sodipodi:namedview
     pagecolor="#ffffff"
     bordercolor="#666666"
     borderopacity="1"
     objecttolerance="10"
     gridtolerance="10"
     guidetolerance="10"
     inkscape:pageopacity="0"
     inkscape:pageshadow="2"
     inkscape:window-width="1832"
     inkscape:window-height="1057"
     id="namedview7899"
     showgrid="false"
     inkscape:zoom="0.475153"
     inkscape:cx="722.89"
     inkscape:cy="423.56"
     inkscape:window-x="-8"
     inkscape:window-y="-8"
     inkscape:window-maximized="0"
     inkscape:current-layer="g8744" />
  <defs
     id="defs4">
    <linearGradient
       id="linearGradient3676">
      <stop
         id="stop3678"
         style="stop-color:#000000;stop-opacity:1"
         offset="0" />
      <stop
         id="stop3680"
         style="stop-color:#000000;stop-opacity:0"
         offset="1" />
    </linearGradient>
    <linearGradient
       x1="559.714"
       y1="433.434"
       x2="427.608"
       y2="432.683"
       id="linearGradient4367"
       xlink:href="#linearGradient3676"
       gradientUnits="userSpaceOnUse"
       gradientTransform="matrix(1.39797,0,0,1.39797,58.6283,-728.249)"
       spreadMethod="pad" />
    <linearGradient
       x1="483.286"
       y1="435.576"
       x2="438.929"
       y2="430.576"
       id="linearGradient4369"
       xlink:href="#linearGradient3676"
       gradientUnits="userSpaceOnUse"
       gradientTransform="matrix(1.39797,0,0,1.39797,-131.211,-392.38)"
       spreadMethod="pad" />
    <linearGradient
       x1="483.286"
       y1="435.576"
       x2="438.214"
       y2="435.576"
       id="linearGradient4371"
       xlink:href="#linearGradient3676"
       gradientUnits="userSpaceOnUse"
       gradientTransform="matrix(1.39797,0,0,1.39797,-211.095,-454.29)"
       spreadMethod="pad" />
    <linearGradient
       x1="483.286"
       y1="435.576"
       x2="437.857"
       y2="433.434"
       id="linearGradient4373"
       xlink:href="#linearGradient3676"
       gradientUnits="userSpaceOnUse"
       gradientTransform="matrix(1.39797,0,0,1.39797,-273.005,-470.267)"
       spreadMethod="pad" />
    <linearGradient
       x1="483.286"
       y1="435.576"
       x2="438.929"
       y2="430.576"
       id="linearGradient4375"
       xlink:href="#linearGradient3676"
       gradientUnits="userSpaceOnUse"
       gradientTransform="matrix(1.39797,0,0,1.39797,83.4774,-736.879)"
       spreadMethod="pad" />
    <linearGradient
       x1="483.286"
       y1="435.576"
       x2="443.929"
       y2="429.148"
       id="linearGradient4377"
       xlink:href="#linearGradient3676"
       gradientUnits="userSpaceOnUse"
       gradientTransform="matrix(1.39797,0,0,1.39797,95.46,-767.834)"
       spreadMethod="pad" />
    <linearGradient
       inkscape:collect="always"
       xlink:href="#linearGradient3676"
       id="linearGradient8784"
       gradientUnits="userSpaceOnUse"
       gradientTransform="matrix(1.39797,0,0,1.39797,58.6283,-728.249)"
       spreadMethod="pad"
       x1="559.714"
       y1="433.434"
       x2="427.608"
       y2="432.683" />
    <linearGradient
       inkscape:collect="always"
       xlink:href="#linearGradient3676"
       id="linearGradient8786"
       gradientUnits="userSpaceOnUse"
       gradientTransform="matrix(1.39797,0,0,1.39797,-131.211,-392.38)"
       spreadMethod="pad"
       x1="483.286"
       y1="435.576"
       x2="438.929"
       y2="430.576" />
    <linearGradient
       inkscape:collect="always"
       xlink:href="#linearGradient3676"
       id="linearGradient8788"
       gradientUnits="userSpaceOnUse"
       gradientTransform="matrix(1.39797,0,0,1.39797,-211.095,-454.29)"
       spreadMethod="pad"
       x1="483.286"
       y1="435.576"
       x2="438.214"
       y2="435.576" />
    <linearGradient
       inkscape:collect="always"
       xlink:href="#linearGradient3676"
       id="linearGradient8790"
       gradientUnits="userSpaceOnUse"
       gradientTransform="matrix(1.39797,0,0,1.39797,-273.005,-470.267)"
       spreadMethod="pad"
       x1="483.286"
       y1="435.576"
       x2="437.857"
       y2="433.434" />
    <linearGradient
       inkscape:collect="always"
       xlink:href="#linearGradient3676"
       id="linearGradient8792"
       gradientUnits="userSpaceOnUse"
       gradientTransform="matrix(1.39797,0,0,1.39797,83.4774,-736.879)"
       spreadMethod="pad"
       x1="483.286"
       y1="435.576"
       x2="438.929"
       y2="430.576" />
    <linearGradient
       inkscape:collect="always"
       xlink:href="#linearGradient3676"
       id="linearGradient8794"
       gradientUnits="userSpaceOnUse"
       gradientTransform="matrix(1.39797,0,0,1.39797,95.46,-767.834)"
       spreadMethod="pad"
       x1="483.286"
       y1="435.576"
       x2="443.929"
       y2="429.148" />
    <linearGradient
       inkscape:collect="always"
       xlink:href="#linearGradient3676"
       id="linearGradient8815"
       gradientUnits="userSpaceOnUse"
       gradientTransform="matrix(1.39797,0,0,1.39797,58.6283,-728.249)"
       spreadMethod="pad"
       x1="559.714"
       y1="433.434"
       x2="427.608"
       y2="432.683" />
    <linearGradient
       inkscape:collect="always"
       xlink:href="#linearGradient3676"
       id="linearGradient8817"
       gradientUnits="userSpaceOnUse"
       gradientTransform="matrix(1.39797,0,0,1.39797,-131.211,-392.38)"
       spreadMethod="pad"
       x1="483.286"
       y1="435.576"
       x2="438.929"
       y2="430.576" />
    <linearGradient
       inkscape:collect="always"
       xlink:href="#linearGradient3676"
       id="linearGradient8819"
       gradientUnits="userSpaceOnUse"
       gradientTransform="matrix(1.39797,0,0,1.39797,-211.095,-454.29)"
       spreadMethod="pad"
       x1="483.286"
       y1="435.576"
       x2="438.214"
       y2="435.576" />
    <linearGradient
       inkscape:collect="always"
       xlink:href="#linearGradient3676"
       id="linearGradient8821"
       gradientUnits="userSpaceOnUse"
       gradientTransform="matrix(1.39797,0,0,1.39797,-273.005,-470.267)"
       spreadMethod="pad"
       x1="483.286"
       y1="435.576"
       x2="437.857"
       y2="433.434" />
    <linearGradient
       inkscape:collect="always"
       xlink:href="#linearGradient3676"
       id="linearGradient8823"
       gradientUnits="userSpaceOnUse"
       gradientTransform="matrix(1.39797,0,0,1.39797,83.4774,-736.879)"
       spreadMethod="pad"
       x1="483.286"
       y1="435.576"
       x2="438.929"
       y2="430.576" />
    <linearGradient
       inkscape:collect="always"
       xlink:href="#linearGradient3676"
       id="linearGradient8825"
       gradientUnits="userSpaceOnUse"
       gradientTransform="matrix(1.39797,0,0,1.39797,95.46,-767.834)"
       spreadMethod="pad"
       x1="483.286"
       y1="435.576"
       x2="443.929"
       y2="429.148" />
  </defs>
  <g
     transform="translate(239.407,522.028)"
     id="layer1">
    <g
       id="g4313">
      <g
         id="g4346">
        <path
           d="M 447.07,-504.95 C 502.235,-455.294 569.516,-484.383 631.357,-478.119 L 646.184,-501.419 C 609.13,-519.532 606.489,-520.781 538.154,-519.777 526.544,-519.607 487.29,-519.209 457.526,-515.111 L 448.482,-505.656"
           id="path3715"
           style="opacity:0.98;fill:#8e8e8e;fill-opacity:1;stroke:#545454;stroke-width:4;stroke-linecap:round;stroke-linejoin:round;stroke-miterlimit:4;stroke-opacity:1;stroke-dasharray:none;stroke-dashoffset:0" />
        <path
           d="M 441.388,-505.943 C 413.985,-505.727 392.349,-500.347 365.099,-494.412 375.557,-453.211 373.912,-410.593 361.739,-366.729 356.248,-323.491 369.723,-282.422 358.455,-248.363 317.548,-124.715 301.902,-37.2062 288.047,56.9448 288.594,57.0691 289.091,57.2249 289.345,57.403 292.286,59.4679 284.962,62.2897 294.614,66.0322 308.32,71.3468 320.195,82.1085 335.393,81.2289 360.558,79.7725 353.598,89.2931 376.019,93.371 394.644,96.7585 405.925,96.9884 418.173,99.7093 417.815,145.79 423.639,137.644 454.599,144.383 497.36,153.691 498.906,162.369 498.204,178.365 497.13,202.8 632.008,244.216 710.041,278.786 700.339,167.872 712.316,50.1102 711.033,-52.563 L 719.739,-55.3885 C 719.739,-55.3885 720.212,-77.6863 719.51,-83.2618 722.432,-83.1004 726.684,-83.6198 731.652,-84.6363 727.149,-214.249 735.822,-466.971 703.55,-486.928 L 646.199,-499.91 C 620.772,-482.781 464.261,-479.694 446.963,-505.943 445.081,-505.976 443.215,-505.958 441.388,-505.943 z"
           id="path3717"
           style="fill:#212121;fill-opacity:1;stroke:#2e3436;stroke-width:5.591876;stroke-miterlimit:4;stroke-dasharray:none" />
        <path
           d="M 688.713,-27.9596 688.533,-28.7452 C 665.03,-89.34 666.249,-155.64 666.544,-221.726 665.832,-266.601 692.3,-333.903 696.158,-412.539 696.845,-257.623 689.936,-164.36 688.713,-27.9596 z"
           id="path3719"
           style="fill:url(#linearGradient4367);fill-opacity:1;stroke:none" />
        <path
           d="M 503.428,185.373 477.267,149.55 486.891,-23.6085 510.857,-26.6041 503.428,185.373 z"
           id="path3721"
           style="fill:url(#linearGradient4369);fill-opacity:1;stroke:none" />
        <path
           d="M 420.521,98.9638 394.961,93.5049 377.051,-191.365 401.016,-194.36 C 413.001,-50.0355 421.744,-37.4365 420.521,98.9638 z"
           id="path3723"
           style="fill:url(#linearGradient4371);fill-opacity:1;stroke:none" />
        <path
           d="M 359.543,86.2502 337.713,80.7913 334.113,-180.381 358.078,-183.376 C 353.088,-35.0572 360.766,-50.1501 359.543,86.2502 z"
           id="path3725"
           style="fill:url(#linearGradient4373);fill-opacity:1;stroke:none" />
        <path
           d="M 717.556,-85.5185 717.556,-282.233"
           id="path3727"
           style="fill:none;stroke:#2e3436;stroke-width:2.795938;stroke-miterlimit:4;stroke-dasharray:none" />
        <path
           d="M 689.299,-29.7503 696.587,-416.038"
           id="path3729"
           style="fill:none;stroke:#292b2c;stroke-width:2.795938;stroke-linecap:round;stroke-linejoin:round;stroke-miterlimit:4;stroke-opacity:1;stroke-dasharray:none;stroke-dashoffset:0" />
        <path
           d="M 731.62,-93.3045 781.046,-107.426 718.911,-456.23"
           id="path3731"
           style="opacity:0.98;fill:#212121;fill-opacity:1;stroke:#545454;stroke-width:4;stroke-linecap:round;stroke-linejoin:round;stroke-miterlimit:4;stroke-opacity:1;stroke-dasharray:none;stroke-dashoffset:0" />
        <path
           d="M 365.87,-492.946 418.12,-447.051 C 427.646,-454.558 423.655,-462.131 440.28,-461.472 456.475,-460.83 465.936,-487.356 492.965,-488.004"
           id="path3733"
           style="opacity:0.98;fill:none;stroke:#545454;stroke-width:4;stroke-linecap:round;stroke-linejoin:round;stroke-miterlimit:4;stroke-opacity:1;stroke-dasharray:none;stroke-dashoffset:0" />
        <path
           d="M 364.458,-495.771 C 386.172,-507.117 401.421,-512.169 457.661,-516.247 L 449.188,-505.656 364.458,-495.771 z"
           id="path3735"
           style="opacity:0.98;fill:#212121;fill-opacity:1;stroke:#545454;stroke-width:4;stroke-linecap:round;stroke-linejoin:round;stroke-miterlimit:4;stroke-opacity:1;stroke-dasharray:none;stroke-dashoffset:0" />
        <path
           d="M 418.12,-449.169 C 410.714,-464.366 436.419,-475.19 447.07,-502.831"
           id="path3737"
           style="opacity:0.98;fill:none;stroke:#545454;stroke-width:2.795938;stroke-linecap:round;stroke-linejoin:round;stroke-miterlimit:4;stroke-opacity:1;stroke-dasharray:none;stroke-dashoffset:0" />
        <path
           d="M 719.553,-56.5606 710.509,-54.0934 700.622,-52.5989 690.298,-51.0383 693.591,-273.246 717.556,-276.241 719.553,-56.5606 z"
           id="path3739"
           style="fill:url(#linearGradient4375);fill-opacity:1;stroke:none" />
        <path
           d="M 706.572,228.026 C 695.855,120.909 691.08,40.4353 689.047,-30.6365 671.224,-48.914 655.181,-243.046 677.115,-292.181 687.474,-315.386 693.353,-369.269 695.588,-413.043"
           id="path3741"
           style="fill:none;stroke:#545454;stroke-width:2.795938;stroke-linecap:round;stroke-linejoin:round;stroke-miterlimit:4;stroke-opacity:1;stroke-dasharray:none;stroke-dashoffset:0" />
        <path
           d="M 731.536,-87.5156 719.553,-83.5214 714.561,-306.198 729.539,-307.196 731.536,-87.5156 z"
           id="path3743"
           style="fill:url(#linearGradient4377);fill-opacity:1;stroke:none" />
        <path
           d="M 420.121,98.0047 C 417.971,8.78986 413.328,-95.5694 400.018,-200.352"
           id="path3745"
           style="fill:none;stroke:#545454;stroke-width:2.795938;stroke-linecap:round;stroke-linejoin:round;stroke-miterlimit:4;stroke-opacity:1;stroke-dasharray:none;stroke-dashoffset:0" />
        <path
           d="M 503.789,184.76 512.854,-27.6027"
           id="path3747"
           style="fill:none;stroke:#545454;stroke-width:2.795938;stroke-linecap:round;stroke-linejoin:round;stroke-miterlimit:4;stroke-opacity:1;stroke-dasharray:none;stroke-dashoffset:0" />
        <path
           d="M 359.918,86.4575 C 357.889,-0.015148 353.849,-95.9158 360.575,-184.874"
           id="path3749"
           style="fill:none;stroke:#545454;stroke-width:2.795938;stroke-linecap:round;stroke-linejoin:round;stroke-miterlimit:4;stroke-opacity:1;stroke-dasharray:none;stroke-dashoffset:0" />
        <path
           d="M 365.068,-494.424 C 394.135,-500.755 416.851,-506.432 446.949,-505.91 464.248,-479.661 620.788,-482.793 646.216,-499.922 L 703.577,-486.935 C 735.849,-466.978 727.162,-214.251 731.665,-84.6389 726.696,-83.6224 722.467,-83.1216 719.545,-83.2829 720.247,-77.7075 719.756,-55.3764 719.756,-55.3764 L 711.066,-52.5664 C 712.864,91.365 704.282,135.861 710.095,275.108 631.474,241.129 496.921,199.286 498.169,174.671 498.979,158.68 497.335,150.831 454.574,141.523 423.614,134.784 421.03,143.599 421.388,97.5186 409.14,94.7977 394.181,93.7561 375.555,90.3686 353.135,86.2907 360.99,76.9544 335.826,78.4108 320.628,79.2904 307.837,68.3722 294.131,63.0576 284.479,59.3151 292.274,55.7742 289.333,53.7093 281.583,48.2693 293.569,57.0454 288.16,53.917 310.815,-95.0756 301.127,-75.1756 358.432,-248.392 369.7,-282.45 356.273,-323.504 361.764,-366.743 373.937,-410.606 375.527,-453.224 365.068,-494.424 z"
           id="path3753"
           style="fill:none;stroke:#545454;stroke-width:4;stroke-miterlimit:4;stroke-opacity:1;stroke-dasharray:none" />
      </g>
    </g>
  </g>
  <g
     id="g8740"
     transform="matrix(-1,0,0,1,783.046,522.028)">
    <g
       id="g8742">
      <g
         id="g8744">
        <g
           id="g8796">
          <path
             d="M 447.07,-504.95 C 502.235,-455.294 569.516,-484.383 631.357,-478.119 L 646.184,-501.419 C 609.13,-519.532 606.489,-520.781 538.154,-519.777 526.544,-519.607 487.29,-519.209 457.526,-515.111 L 448.482,-505.656"
             id="path8746"
             style="opacity:0.98;fill:#8e8e8e;fill-opacity:1;stroke:#545454;stroke-width:4;stroke-linecap:round;stroke-linejoin:round;stroke-miterlimit:4;stroke-opacity:1;stroke-dasharray:none;stroke-dashoffset:0" />
          <path
             d="M 441.388,-505.943 C 413.985,-505.727 392.349,-500.347 365.099,-494.412 375.557,-453.211 373.912,-410.593 361.739,-366.729 356.248,-323.491 369.723,-282.422 358.455,-248.363 317.548,-124.715 301.902,-37.2062 288.047,56.9448 288.594,57.0691 289.091,57.2249 289.345,57.403 292.286,59.4679 284.962,62.2897 294.614,66.0322 308.32,71.3468 320.195,82.1085 335.393,81.2289 360.558,79.7725 353.598,89.2931 376.019,93.371 394.644,96.7585 405.925,96.9884 418.173,99.7093 417.815,145.79 423.639,137.644 454.599,144.383 497.36,153.691 498.906,162.369 498.204,178.365 497.13,202.8 632.008,244.216 710.041,278.786 700.339,167.872 712.316,50.1102 711.033,-52.563 L 719.739,-55.3885 C 719.739,-55.3885 720.212,-77.6863 719.51,-83.2618 722.432,-83.1004 726.684,-83.6198 731.652,-84.6363 727.149,-214.249 735.822,-466.971 703.55,-486.928 L 646.199,-499.91 C 620.772,-482.781 464.261,-479.694 446.963,-505.943 445.081,-505.976 443.215,-505.958 441.388,-505.943 z"
             id="path8748"
             style="fill:#212121;fill-opacity:1;stroke:#2e3436;stroke-width:5.591876;stroke-miterlimit:4;stroke-dasharray:none" />
          <path
             d="M 688.713,-27.9596 688.533,-28.7452 C 665.03,-89.34 666.249,-155.64 666.544,-221.726 665.832,-266.601 692.3,-333.903 696.158,-412.539 696.845,-257.623 689.936,-164.36 688.713,-27.9596 z"
             id="path8750"
             style="fill:url(#linearGradient8815);fill-opacity:1;stroke:none" />
          <path
             d="M 503.428,185.373 477.267,149.55 486.891,-23.6085 510.857,-26.6041 503.428,185.373 z"
             id="path8752"
             style="fill:url(#linearGradient8817);fill-opacity:1;stroke:none" />
          <path
             d="M 420.521,98.9638 394.961,93.5049 377.051,-191.365 401.016,-194.36 C 413.001,-50.0355 421.744,-37.4365 420.521,98.9638 z"
             id="path8754"
             style="fill:url(#linearGradient8819);fill-opacity:1;stroke:none" />
          <path
             d="M 359.543,86.2502 337.713,80.7913 334.113,-180.381 358.078,-183.376 C 353.088,-35.0572 360.766,-50.1501 359.543,86.2502 z"
             id="path8756"
             style="fill:url(#linearGradient8821);fill-opacity:1;stroke:none" />
          <path
             d="M 717.556,-85.5185 717.556,-282.233"
             id="path8758"
             style="fill:none;stroke:#2e3436;stroke-width:2.795938;stroke-miterlimit:4;stroke-dasharray:none" />
          <path
             d="M 689.299,-29.7503 696.587,-416.038"
             id="path8760"
             style="fill:none;stroke:#292b2c;stroke-width:2.795938;stroke-linecap:round;stroke-linejoin:round;stroke-miterlimit:4;stroke-opacity:1;stroke-dasharray:none;stroke-dashoffset:0" />
          <path
             d="M 731.62,-93.3045 781.046,-107.426 718.911,-456.23"
             id="path8762"
             style="opacity:0.98;fill:#212121;fill-opacity:1;stroke:#545454;stroke-width:4;stroke-linecap:round;stroke-linejoin:round;stroke-miterlimit:4;stroke-opacity:1;stroke-dasharray:none;stroke-dashoffset:0" />
          <path
             d="M 364.458,-495.771 C 386.172,-507.117 401.421,-512.169 457.661,-516.247 L 449.188,-505.656 364.458,-495.771 z"
             id="path8766"
             style="opacity:0.98;fill:#212121;fill-opacity:1;stroke:#545454;stroke-width:4;stroke-linecap:round;stroke-linejoin:round;stroke-miterlimit:4;stroke-opacity:1;stroke-dasharray:none;stroke-dashoffset:0" />
          <path
             d="M 719.553,-56.5606 710.509,-54.0934 700.622,-52.5989 690.298,-51.0383 693.591,-273.246 717.556,-276.241 719.553,-56.5606 z"
             id="path8770"
             style="fill:url(#linearGradient8823);fill-opacity:1;stroke:none" />
          <path
             d="M 706.572,228.026 C 695.855,120.909 691.08,40.4353 689.047,-30.6365 671.224,-48.914 655.181,-243.046 677.115,-292.181 687.474,-315.386 693.353,-369.269 695.588,-413.043"
             id="path8772"
             style="fill:none;stroke:#545454;stroke-width:2.795938;stroke-linecap:round;stroke-linejoin:round;stroke-miterlimit:4;stroke-opacity:1;stroke-dasharray:none;stroke-dashoffset:0" />
          <path
             d="M 731.536,-87.5156 719.553,-83.5214 714.561,-306.198 729.539,-307.196 731.536,-87.5156 z"
             id="path8774"
             style="fill:url(#linearGradient8825);fill-opacity:1;stroke:none" />
          <path
             d="M 420.121,98.0047 C 417.971,8.78986 413.328,-95.5694 400.018,-200.352"
             id="path8776"
             style="fill:none;stroke:#545454;stroke-width:2.795938;stroke-linecap:round;stroke-linejoin:round;stroke-miterlimit:4;stroke-opacity:1;stroke-dasharray:none;stroke-dashoffset:0" />
          <path
             d="M 503.789,184.76 512.854,-27.6027"
             id="path8778"
             style="fill:none;stroke:#545454;stroke-width:2.795938;stroke-linecap:round;stroke-linejoin:round;stroke-miterlimit:4;stroke-opacity:1;stroke-dasharray:none;stroke-dashoffset:0" />
          <path
             d="M 359.918,86.4575 C 357.889,-0.015148 353.849,-95.9158 360.575,-184.874"
             id="path8780"
             style="fill:none;stroke:#545454;stroke-width:2.795938;stroke-linecap:round;stroke-linejoin:round;stroke-miterlimit:4;stroke-opacity:1;stroke-dasharray:none;stroke-dashoffset:0" />
          <path
             d="M 365.068,-494.424 C 394.135,-500.755 416.851,-506.432 446.949,-505.91 464.248,-479.661 620.788,-482.793 646.216,-499.922 L 703.577,-486.935 C 735.849,-466.978 727.162,-214.251 731.665,-84.6389 726.696,-83.6224 722.467,-83.1216 719.545,-83.2829 720.247,-77.7075 719.756,-55.3764 719.756,-55.3764 L 711.066,-52.5664 C 712.864,91.365 704.282,135.861 710.095,275.108 631.474,241.129 496.921,199.286 498.169,174.671 498.979,158.68 497.335,150.831 454.574,141.523 423.614,134.784 421.03,143.599 421.388,97.5186 409.14,94.7977 394.181,93.7561 375.555,90.3686 353.135,86.2907 360.99,76.9544 335.826,78.4108 320.628,79.2904 307.837,68.3722 294.131,63.0576 284.479,59.3151 292.274,55.7742 289.333,53.7093 281.583,48.2693 293.569,57.0454 288.16,53.917 310.815,-95.0756 301.127,-75.1756 358.432,-248.392 369.7,-282.45 356.273,-323.504 361.764,-366.743 373.937,-410.606 375.527,-453.224 365.068,-494.424 z"
             id="path8782"
             style="fill:none;stroke:#545454;stroke-width:4;stroke-miterlimit:4;stroke-opacity:1;stroke-dasharray:none" />
        </g>
      </g>
    </g>
  </g>
</svg>
