<?xml version="1.0" encoding="UTF-8" standalone="no"?>
<svg
    width ="2473.8413409466"
    height ="3019.2023650897"
    viewbox ="0 0 2473.8413409466 3019.2023650897" xmlns:dc="http://purl.org/dc/elements/1.1/"
    xmlns:cc="http://creativecommons.org/ns#"
    xmlns:rdf="http://www.w3.org/1999/02/22-rdf-syntax-ns#"
    xmlns:svg="http://www.w3.org/2000/svg"
    xmlns="http://www.w3.org/2000/svg"
    xmlns:xlink="http://www.w3.org/1999/xlink"
    xmlns:sodipodi="http://sodipodi.sourceforge.net/DTD/sodipodi-0.dtd"
    xmlns:inkscape="http://www.inkscape.org/namespaces/inkscape" 
>

<style type="text/css">
    <![CDATA[
    path { fill: none; stroke: #000000; stroke-opacity:1; stroke-width: 0.5; stroke-miterlimit:4; stroke-dashoffset:0; stroke-linecap:round; stroke-linejoin:round; }
    path.hidden { fill: none; stroke: none; }]]>
</style>


<!-- Start of group #patternScaleContainer -->
<g id="patternScaleContainer"  transform=" scale(3.54330709 ) " >
    
    <!-- Start of group #sleeve -->
    <g id="sleeve"  transform=" translate(265.592 178.451)  translate(0 0) " >
        <path class="hidden" id="2"  d=" M  -260.592,-173.451  L  257.581,-173.451  L  257.581,668.635  L  -260.592,668.635  z " />
<path transform="translate( 0, 0 )" style="stroke: hsl(26.9, 55%, 50%);" id="124"  d=" M  -125,668.635  L  -260.592,102.885  C  -224.894,102.885  -153.591,-41.945  -32.905,-173.451  C  -23.106,-138.076  -14.199,-130.753  0,-130.753  C  8.8,-130.753  30.605,-130.775  54.241,-138.269  C  164.751,-24.806  225.904,102.885  257.581,102.885  L  125,668.635  z " />
<path transform="translate( 0, 0 )" style="stroke: hsl(53.8, 55%, 50%);" id="254"  d=" M  -130,668.635  L  -260.592,102.885  C  -224.894,102.885  -153.591,-41.945  -32.905,-173.451  C  -23.106,-138.076  -14.199,-130.753  0,-130.753  C  8.8,-130.753  30.605,-130.775  54.241,-138.269  C  164.751,-24.806  225.904,102.885  257.581,102.885  L  130,668.635  z " />
<path transform="translate( 0, 0 )" style="stroke: hsl(80.7, 55%, 50%);" id="384"  d=" M  -135,668.635  L  -260.592,102.885  C  -224.894,102.885  -153.591,-41.945  -32.905,-173.451  C  -23.106,-138.076  -14.199,-130.753  0,-130.753  C  8.8,-130.753  30.605,-130.775  54.241,-138.269  C  164.751,-24.806  225.904,102.885  257.581,102.885  L  135,668.635  z " />
<path transform="translate( 0, 0 )" style="stroke: hsl(107.6, 55%, 50%);" id="514"  d=" M  -140,668.635  L  -260.592,102.885  C  -224.894,102.885  -153.591,-41.945  -32.905,-173.451  C  -23.106,-138.076  -14.199,-130.753  0,-130.753  C  8.8,-130.753  30.605,-130.775  54.241,-138.269  C  164.751,-24.806  225.904,102.885  257.581,102.885  L  140,668.635  z " />
<path transform="translate( 0, 0 )" style="stroke: hsl(134.5, 55%, 50%);" id="644"  d=" M  -145,668.635  L  -260.592,102.885  C  -224.894,102.885  -153.591,-41.945  -32.905,-173.451  C  -23.106,-138.076  -14.199,-130.753  0,-130.753  C  8.8,-130.753  30.605,-130.775  54.241,-138.269  C  164.751,-24.806  225.904,102.885  257.581,102.885  L  145,668.635  z " />
<path transform="translate( 0, 0 )" style="stroke: hsl(161.4, 55%, 50%);" id="774"  d=" M  -150,668.635  L  -260.592,102.885  C  -224.894,102.885  -153.591,-41.945  -32.905,-173.451  C  -23.106,-138.076  -14.199,-130.753  0,-130.753  C  8.8,-130.753  30.605,-130.775  54.241,-138.269  C  164.751,-24.806  225.904,102.885  257.581,102.885  L  150,668.635  z " />
<path transform="translate( 0, 0 )" style="stroke: hsl(188.3, 55%, 50%);" id="904"  d=" M  -155,668.635  L  -260.592,102.885  C  -224.894,102.885  -153.591,-41.945  -32.905,-173.451  C  -23.106,-138.076  -14.199,-130.753  0,-130.753  C  8.8,-130.753  30.605,-130.775  54.241,-138.269  C  164.751,-24.806  225.904,102.885  257.581,102.885  L  155,668.635  z " />
<path transform="translate( 0, 0 )" style="stroke: hsl(215.2, 55%, 50%);" id="1034"  d=" M  -160,668.635  L  -260.592,102.885  C  -224.894,102.885  -153.591,-41.945  -32.905,-173.451  C  -23.106,-138.076  -14.199,-130.753  0,-130.753  C  8.8,-130.753  30.605,-130.775  54.241,-138.269  C  164.751,-24.806  225.904,102.885  257.581,102.885  L  160,668.635  z " />
<path transform="translate( 0, 0 )" style="stroke: hsl(242.1, 55%, 50%);" id="1164"  d=" M  -165,668.635  L  -260.592,102.885  C  -224.894,102.885  -153.591,-41.945  -32.905,-173.451  C  -23.106,-138.076  -14.199,-130.753  0,-130.753  C  8.8,-130.753  30.605,-130.775  54.241,-138.269  C  164.751,-24.806  225.904,102.885  257.581,102.885  L  165,668.635  z " />
<path transform="translate( 0, 0 )" style="stroke: hsl(269, 55%, 50%);" id="1294"  d=" M  -170,668.635  L  -260.592,102.885  C  -224.894,102.885  -153.591,-41.945  -32.905,-173.451  C  -23.106,-138.076  -14.199,-130.753  0,-130.753  C  8.8,-130.753  30.605,-130.775  54.241,-138.269  C  164.751,-24.806  225.904,102.885  257.581,102.885  L  170,668.635  z " />
<path transform="translate( 0, 0 )" style="stroke: hsl(295.9, 55%, 50%);" id="1424"  d=" M  -175,668.635  L  -260.592,102.885  C  -224.894,102.885  -153.591,-41.945  -32.905,-173.451  C  -23.106,-138.076  -14.199,-130.753  0,-130.753  C  8.8,-130.753  30.605,-130.775  54.241,-138.269  C  164.751,-24.806  225.904,102.885  257.581,102.885  L  175,668.635  z " />
    </g>
    <!-- End of group #sleeve -->
    
    <!-- Start of group #cuff -->
    <g id="cuff"  transform=" translate(5 5)  translate(528.173 0) " >
        <path class="hidden" id="3"  d=" M  0,0  L  160,0  L  160,315  L  0,315  z " />
<path transform="translate( 0, 0 )" style="stroke: hsl(26.9, 55%, 50%);" id="129"  d=" M  0,0  L  160,0  L  160,225  L  0,225  z " />
<path transform="translate( 0, 0 )" style="stroke: hsl(53.8, 55%, 50%);" id="259"  d=" M  0,0  L  160,0  L  160,234  L  0,234  z " />
<path transform="translate( 0, 0 )" style="stroke: hsl(80.7, 55%, 50%);" id="389"  d=" M  0,0  L  160,0  L  160,243  L  0,243  z " />
<path transform="translate( 0, 0 )" style="stroke: hsl(107.6, 55%, 50%);" id="519"  d=" M  0,0  L  160,0  L  160,252  L  0,252  z " />
<path transform="translate( 0, 0 )" style="stroke: hsl(134.5, 55%, 50%);" id="649"  d=" M  0,0  L  160,0  L  160,261  L  0,261  z " />
<path transform="translate( 0, 0 )" style="stroke: hsl(161.4, 55%, 50%);" id="779"  d=" M  0,0  L  160,0  L  160,270  L  0,270  z " />
<path transform="translate( 0, 0 )" style="stroke: hsl(188.3, 55%, 50%);" id="909"  d=" M  0,0  L  160,0  L  160,279  L  0,279  z " />
<path transform="translate( 0, 0 )" style="stroke: hsl(215.2, 55%, 50%);" id="1039"  d=" M  0,0  L  160,0  L  160,288  L  0,288  z " />
<path transform="translate( 0, 0 )" style="stroke: hsl(242.1, 55%, 50%);" id="1169"  d=" M  0,0  L  160,0  L  160,297  L  0,297  z " />
<path transform="translate( 0, 0 )" style="stroke: hsl(269, 55%, 50%);" id="1299"  d=" M  0,0  L  160,0  L  160,306  L  0,306  z " />
<path transform="translate( 0, 0 )" style="stroke: hsl(295.9, 55%, 50%);" id="1429"  d=" M  0,0  L  160,0  L  160,315  L  0,315  z " />
    </g>
    <!-- End of group #cuff -->
</g>
<!-- End of group #patternScaleContainer -->

</svg>

