<?xml version="1.0" encoding="UTF-8" standalone="no"?>
<svg
    width ="2090.5511831"
    height ="2982.7133886769"
    viewbox ="0 0 2090.5511831 2982.7133886769" xmlns:dc="http://purl.org/dc/elements/1.1/"
    xmlns:cc="http://creativecommons.org/ns#"
    xmlns:rdf="http://www.w3.org/1999/02/22-rdf-syntax-ns#"
    xmlns:svg="http://www.w3.org/2000/svg"
    xmlns="http://www.w3.org/2000/svg"
    xmlns:xlink="http://www.w3.org/1999/xlink"
    xmlns:sodipodi="http://sodipodi.sourceforge.net/DTD/sodipodi-0.dtd"
    xmlns:inkscape="http://www.inkscape.org/namespaces/inkscape" 
>

<style type="text/css">
    <![CDATA[
    path { fill: none; stroke: #000000; stroke-opacity:1; stroke-width: 0.5; stroke-miterlimit:4; stroke-dashoffset:0; stroke-linecap:round; stroke-linejoin:round; }
    path.hidden { fill: none; stroke: none; }]]>
</style>


<!-- Start of group #patternScaleContainer -->
<g id="patternScaleContainer"  transform=" scale(3.54330709 ) " >
    
    <!-- Start of group #front -->
    <g id="front"  transform=" translate(5 129.392)  translate(295 0) " >
        <path class="hidden" id="2"  d=" M  0,-124.392  L  285,-124.392  L  285,680  L  0,680  z " />
<path transform="translate( 0, 0 )" style="stroke: hsl(26.9, 55%, 50%);" id="122"  d=" M  0,109  L  0,298.5  L  0,500  L  0,680  L  285,680  L  285,298.5  C  270,298.5  260.791,292.359  245.966,277.534  C  231.141,262.709  89.156,55.608  89.156,55.608  C  75,82.128  48.595,109  0,109  z " />
<path transform="translate( 0, -18 )" style="stroke: hsl(53.8, 55%, 50%);" id="252"  d=" M  0,109  L  0,298.5  L  0,500  L  0,698  L  285,698  L  285,298.5  C  270,298.5  260.791,292.359  245.966,277.534  C  231.141,262.709  89.156,55.608  89.156,55.608  C  75,82.128  48.595,109  0,109  z " />
<path transform="translate( 0, -36 )" style="stroke: hsl(80.7, 55%, 50%);" id="382"  d=" M  0,109  L  0,298.5  L  0,500  L  0,716  L  285,716  L  285,298.5  C  270,298.5  260.791,292.359  245.966,277.534  C  231.141,262.709  89.156,55.608  89.156,55.608  C  75,82.128  48.595,109  0,109  z " />
<path transform="translate( 0, -54 )" style="stroke: hsl(107.6, 55%, 50%);" id="512"  d=" M  0,109  L  0,298.5  L  0,500  L  0,734  L  285,734  L  285,298.5  C  270,298.5  260.791,292.359  245.966,277.534  C  231.141,262.709  89.156,55.608  89.156,55.608  C  75,82.128  48.595,109  0,109  z " />
<path transform="translate( 0, -72 )" style="stroke: hsl(134.5, 55%, 50%);" id="642"  d=" M  0,109  L  0,298.5  L  0,500  L  0,752  L  285,752  L  285,298.5  C  270,298.5  260.791,292.359  245.966,277.534  C  231.141,262.709  89.156,55.608  89.156,55.608  C  75,82.128  48.595,109  0,109  z " />
<path transform="translate( 0, -90 )" style="stroke: hsl(161.4, 55%, 50%);" id="772"  d=" M  0,109  L  0,298.5  L  0,500  L  0,770  L  285,770  L  285,298.5  C  270,298.5  260.791,292.359  245.966,277.534  C  231.141,262.709  89.156,55.608  89.156,55.608  C  75,82.128  48.595,109  0,109  z " />
<path transform="translate( 0, -108 )" style="stroke: hsl(188.3, 55%, 50%);" id="902"  d=" M  0,109  L  0,298.5  L  0,500  L  0,788  L  285,788  L  285,298.5  C  270,298.5  260.791,292.359  245.966,277.534  C  231.141,262.709  89.156,55.608  89.156,55.608  C  75,82.128  48.595,109  0,109  z " />
<path transform="translate( 0, -126 )" style="stroke: hsl(215.2, 55%, 50%);" id="1032"  d=" M  0,109  L  0,298.5  L  0,500  L  0,806  L  285,806  L  285,298.5  C  270,298.5  260.791,292.359  245.966,277.534  C  231.141,262.709  89.156,55.608  89.156,55.608  C  75,82.128  48.595,109  0,109  z " />
<path transform="translate( 0, -144 )" style="stroke: hsl(242.1, 55%, 50%);" id="1162"  d=" M  0,109  L  0,298.5  L  0,500  L  0,824  L  285,824  L  285,298.5  C  270,298.5  260.791,292.359  245.966,277.534  C  231.141,262.709  89.156,55.608  89.156,55.608  C  75,82.128  48.595,109  0,109  z " />
<path transform="translate( 0, -162 )" style="stroke: hsl(269, 55%, 50%);" id="1292"  d=" M  0,109  L  0,298.5  L  0,500  L  0,842  L  285,842  L  285,298.5  C  270,298.5  260.791,292.359  245.966,277.534  C  231.141,262.709  89.156,55.608  89.156,55.608  C  75,82.128  48.595,109  0,109  z " />
<path transform="translate( 0, -180 )" style="stroke: hsl(295.9, 55%, 50%);" id="1422"  d=" M  0,109  L  0,298.5  L  0,500  L  0,860  L  285,860  L  285,298.5  C  270,298.5  260.791,292.359  245.966,277.534  C  231.141,262.709  89.156,55.608  89.156,55.608  C  75,82.128  48.595,109  0,109  z " />
    </g>
    <!-- End of group #front -->
    
    <!-- Start of group #back -->
    <g id="back"  transform=" translate(5 156.788)  translate(0 0) " >
        <path class="hidden" id="3"  d=" M  0,-151.788  L  285,-151.788  L  285,680  L  0,680  z " />
<path transform="translate( 0, 0 )" style="stroke: hsl(26.9, 55%, 50%);" id="123"  d=" M  0,30  L  0,298.5  L  0,500  L  0,680  L  285,680  L  285,298.5  C  270,298.5  260.791,292.359  245.966,277.534  C  231.141,262.709  58.457,28.212  58.457,28.212  C  44.38,29.438  25.165,30  0,30  z " />
<path transform="translate( 0, -18 )" style="stroke: hsl(53.8, 55%, 50%);" id="253"  d=" M  0,30  L  0,298.5  L  0,500  L  0,698  L  285,698  L  285,298.5  C  270,298.5  260.791,292.359  245.966,277.534  C  231.141,262.709  58.457,28.212  58.457,28.212  C  44.38,29.438  25.165,30  0,30  z " />
<path transform="translate( 0, -36 )" style="stroke: hsl(80.7, 55%, 50%);" id="383"  d=" M  0,30  L  0,298.5  L  0,500  L  0,716  L  285,716  L  285,298.5  C  270,298.5  260.791,292.359  245.966,277.534  C  231.141,262.709  58.457,28.212  58.457,28.212  C  44.38,29.438  25.165,30  0,30  z " />
<path transform="translate( 0, -54 )" style="stroke: hsl(107.6, 55%, 50%);" id="513"  d=" M  0,30  L  0,298.5  L  0,500  L  0,734  L  285,734  L  285,298.5  C  270,298.5  260.791,292.359  245.966,277.534  C  231.141,262.709  58.457,28.212  58.457,28.212  C  44.38,29.438  25.165,30  0,30  z " />
<path transform="translate( 0, -72 )" style="stroke: hsl(134.5, 55%, 50%);" id="643"  d=" M  0,30  L  0,298.5  L  0,500  L  0,752  L  285,752  L  285,298.5  C  270,298.5  260.791,292.359  245.966,277.534  C  231.141,262.709  58.457,28.212  58.457,28.212  C  44.38,29.438  25.165,30  0,30  z " />
<path transform="translate( 0, -90 )" style="stroke: hsl(161.4, 55%, 50%);" id="773"  d=" M  0,30  L  0,298.5  L  0,500  L  0,770  L  285,770  L  285,298.5  C  270,298.5  260.791,292.359  245.966,277.534  C  231.141,262.709  58.457,28.212  58.457,28.212  C  44.38,29.438  25.165,30  0,30  z " />
<path transform="translate( 0, -108 )" style="stroke: hsl(188.3, 55%, 50%);" id="903"  d=" M  0,30  L  0,298.5  L  0,500  L  0,788  L  285,788  L  285,298.5  C  270,298.5  260.791,292.359  245.966,277.534  C  231.141,262.709  58.457,28.212  58.457,28.212  C  44.38,29.438  25.165,30  0,30  z " />
<path transform="translate( 0, -126 )" style="stroke: hsl(215.2, 55%, 50%);" id="1033"  d=" M  0,30  L  0,298.5  L  0,500  L  0,806  L  285,806  L  285,298.5  C  270,298.5  260.791,292.359  245.966,277.534  C  231.141,262.709  58.457,28.212  58.457,28.212  C  44.38,29.438  25.165,30  0,30  z " />
<path transform="translate( 0, -144 )" style="stroke: hsl(242.1, 55%, 50%);" id="1163"  d=" M  0,30  L  0,298.5  L  0,500  L  0,824  L  285,824  L  285,298.5  C  270,298.5  260.791,292.359  245.966,277.534  C  231.141,262.709  58.457,28.212  58.457,28.212  C  44.38,29.438  25.165,30  0,30  z " />
<path transform="translate( 0, -162 )" style="stroke: hsl(269, 55%, 50%);" id="1293"  d=" M  0,30  L  0,298.5  L  0,500  L  0,842  L  285,842  L  285,298.5  C  270,298.5  260.791,292.359  245.966,277.534  C  231.141,262.709  58.457,28.212  58.457,28.212  C  44.38,29.438  25.165,30  0,30  z " />
<path transform="translate( 0, -180 )" style="stroke: hsl(295.9, 55%, 50%);" id="1423"  d=" M  0,30  L  0,298.5  L  0,500  L  0,860  L  285,860  L  285,298.5  C  270,298.5  260.791,292.359  245.966,277.534  C  231.141,262.709  58.457,28.212  58.457,28.212  C  44.38,29.438  25.165,30  0,30  z " />
    </g>
    <!-- End of group #back -->
</g>
<!-- End of group #patternScaleContainer -->

</svg>

