<?xml version="1.0" encoding="UTF-8" standalone="no"?>
<svg
    width ="2817.7263806452"
    height ="1258.6748043523"
    viewbox ="0 0 2817.7263806452 1258.6748043523" xmlns:dc="http://purl.org/dc/elements/1.1/"
    xmlns:cc="http://creativecommons.org/ns#"
    xmlns:rdf="http://www.w3.org/1999/02/22-rdf-syntax-ns#"
    xmlns:svg="http://www.w3.org/2000/svg"
    xmlns="http://www.w3.org/2000/svg"
    xmlns:xlink="http://www.w3.org/1999/xlink"
    xmlns:sodipodi="http://sodipodi.sourceforge.net/DTD/sodipodi-0.dtd"
    xmlns:inkscape="http://www.inkscape.org/namespaces/inkscape" 
>

<style type="text/css">
    <![CDATA[
    path { fill: none; stroke: #000000; stroke-opacity:1; stroke-width: 0.5; stroke-miterlimit:4; stroke-dashoffset:0; stroke-linecap:round; stroke-linejoin:round; }
    path.hidden { fill: none; stroke: none; }]]>
</style>


<!-- Start of group #patternScaleContainer -->
<g id="patternScaleContainer"  transform=" scale(3.54330709 ) " >
    
    <!-- Start of group #block -->
    <g id="block"  transform=" translate(0 0)  translate(795.225 0) " >
    </g>
    <!-- End of group #block -->
    
    <!-- Start of group #front -->
    <g id="front"  transform=" translate(115.307 11.156)  translate(188.503 0) " >
        <path class="hidden" id="2"  d=" M  -110.307,-6.156  L  110.307,-6.156  L  110.307,276.848  L  -110.307,276.848  z " />
<path transform="translate( 0, 0 )" style="stroke: hsl(26.9, 55%, 50%);" id="18"  d=" M  -110.307,89.25  L  -105.844,-6.156  C  -105.844,-6.156  -52.922,0  0,0  C  52.922,0  105.844,-6.156  105.844,-6.156  L  110.307,89.25  C  30.169,118.418  56.69,187.735  85.858,267.873  L  61.201,276.848  C  61.201,276.848  12.728,227.888  0,192.918  C  -12.728,227.888  -61.201,276.848  -61.201,276.848  L  -85.858,267.873  C  -56.69,187.735  -30.169,118.418  -110.307,89.25  z " />
<path transform="translate( 0, 0 )" style="stroke: hsl(53.8, 55%, 50%);" id="38"  d=" M  -110.307,89.25  L  -105.844,-6.156  C  -105.844,-6.156  -52.922,0  0,0  C  52.922,0  105.844,-6.156  105.844,-6.156  L  110.307,89.25  C  30.169,118.418  55.896,185.553  85.064,265.691  L  60.407,274.666  C  60.407,274.666  12.543,225.869  0,191.409  C  -12.543,225.869  -60.407,274.666  -60.407,274.666  L  -85.064,265.691  C  -55.896,185.553  -30.169,118.418  -110.307,89.25  z " />
<path transform="translate( 0, 0 )" style="stroke: hsl(80.7, 55%, 50%);" id="58"  d=" M  -110.307,89.25  L  -105.844,-6.156  C  -105.844,-6.156  -52.922,0  0,0  C  52.922,0  105.844,-6.156  105.844,-6.156  L  110.307,89.25  C  30.169,118.418  55.164,183.541  84.332,263.679  L  59.674,272.654  C  59.674,272.654  12.372,224.009  0,190.017  C  -12.372,224.009  -59.674,272.654  -59.674,272.654  L  -84.332,263.679  C  -55.164,183.541  -30.169,118.418  -110.307,89.25  z " />
<path transform="translate( 0, 0 )" style="stroke: hsl(107.6, 55%, 50%);" id="78"  d=" M  -110.307,89.25  L  -105.844,-6.156  C  -105.844,-6.156  -52.922,0  0,0  C  52.922,0  105.844,-6.156  105.844,-6.156  L  110.307,89.25  C  30.169,118.418  54.461,181.609  83.629,261.747  L  58.971,270.722  C  58.971,270.722  12.208,222.221  0,188.681  C  -12.208,222.221  -58.971,270.722  -58.971,270.722  L  -83.629,261.747  C  -54.461,181.609  -30.169,118.418  -110.307,89.25  z " />
<path transform="translate( 0, 0 )" style="stroke: hsl(134.5, 55%, 50%);" id="98"  d=" M  -110.307,89.25  L  -105.844,-6.156  C  -105.844,-6.156  -52.922,0  0,0  C  52.922,0  105.844,-6.156  105.844,-6.156  L  110.307,89.25  C  30.169,118.418  53.758,179.678  82.926,259.816  L  58.268,268.791  C  58.268,268.791  12.044,220.434  0,187.345  C  -12.044,220.434  -58.268,268.791  -58.268,268.791  L  -82.926,259.816  C  -53.758,179.678  -30.169,118.418  -110.307,89.25  z " />
<path transform="translate( 0, 0 )" style="stroke: hsl(161.4, 55%, 50%);" id="118"  d=" M  -110.307,89.25  L  -105.844,-6.156  C  -105.844,-6.156  -52.922,0  0,0  C  52.922,0  105.844,-6.156  105.844,-6.156  L  110.307,89.25  C  30.169,118.418  53.091,177.845  82.259,257.983  L  57.601,266.958  C  57.601,266.958  11.888,218.739  0,186.077  C  -11.888,218.739  -57.601,266.958  -57.601,266.958  L  -82.259,257.983  C  -53.091,177.845  -30.169,118.418  -110.307,89.25  z " />
<path transform="translate( 0, 0 )" style="stroke: hsl(188.3, 55%, 50%);" id="138"  d=" M  -110.307,89.25  L  -105.844,-6.156  C  -105.844,-6.156  -52.922,0  0,0  C  52.922,0  105.844,-6.156  105.844,-6.156  L  110.307,89.25  C  30.169,118.418  52.428,176.025  81.596,256.163  L  56.939,265.137  C  56.939,265.137  11.733,217.055  0,184.818  C  -11.733,217.055  -56.939,265.137  -56.939,265.137  L  -81.596,256.163  C  -52.428,176.025  -30.169,118.418  -110.307,89.25  z " />
<path transform="translate( 0, 0 )" style="stroke: hsl(215.2, 55%, 50%);" id="158"  d=" M  -110.307,89.25  L  -105.844,-6.156  C  -105.844,-6.156  -52.922,0  0,0  C  52.922,0  105.844,-6.156  105.844,-6.156  L  110.307,89.25  C  30.169,118.418  51.853,174.445  81.021,254.583  L  56.364,263.558  C  56.364,263.558  11.599,215.594  0,183.725  C  -11.599,215.594  -56.364,263.558  -56.364,263.558  L  -81.021,254.583  C  -51.853,174.445  -30.169,118.418  -110.307,89.25  z " />
<path transform="translate( 0, 0 )" style="stroke: hsl(242.1, 55%, 50%);" id="178"  d=" M  -110.307,89.25  L  -105.844,-6.156  C  -105.844,-6.156  -52.922,0  0,0  C  52.922,0  105.844,-6.156  105.844,-6.156  L  110.307,89.25  C  30.169,118.418  51.245,172.773  80.412,252.911  L  55.755,261.885  C  55.755,261.885  11.457,214.047  0,182.568  C  -11.457,214.047  -55.755,261.885  -55.755,261.885  L  -80.412,252.911  C  -51.245,172.773  -30.169,118.418  -110.307,89.25  z " />
<path transform="translate( 0, 0 )" style="stroke: hsl(269, 55%, 50%);" id="198"  d=" M  -110.307,89.25  L  -105.844,-6.156  C  -105.844,-6.156  -52.922,0  0,0  C  52.922,0  105.844,-6.156  105.844,-6.156  L  110.307,89.25  C  30.169,118.418  50.709,171.301  79.877,251.439  L  55.219,260.414  C  55.219,260.414  11.332,212.685  0,181.55  C  -11.332,212.685  -55.219,260.414  -55.219,260.414  L  -79.877,251.439  C  -50.709,171.301  -30.169,118.418  -110.307,89.25  z " />
<path transform="translate( 0, 0 )" style="stroke: hsl(295.9, 55%, 50%);" id="218"  d=" M  -110.307,89.25  L  -105.844,-6.156  C  -105.844,-6.156  -52.922,0  0,0  C  52.922,0  105.844,-6.156  105.844,-6.156  L  110.307,89.25  C  30.169,118.418  50.122,169.689  79.29,249.826  L  54.632,258.801  C  54.632,258.801  11.195,211.194  0,180.435  C  -11.195,211.194  -54.632,258.801  -54.632,258.801  L  -79.29,249.826  C  -50.122,169.689  -30.169,118.418  -110.307,89.25  z " />
    </g>
    <!-- End of group #front -->
    
    <!-- Start of group #back -->
    <g id="back"  transform=" translate(5 29.625)  translate(0 0) " >
        <path class="hidden" id="3"  d=" M  0,-24.625  L  178.503,-24.625  L  178.503,320.601  L  0,320.601  z " />
<path transform="translate( 0, 0 )" style="stroke: hsl(26.9, 55%, 50%);" id="19"  d=" M  0,255  C  32.801,255  32.801,320.601  32.801,320.601  L  178.503,251.447  L  136.086,-18.469  C  136.086,-18.469  68.043,-24.625  0,-24.625  L  0,255  z " />
<path transform="translate( 0, 0 )" style="stroke: hsl(53.8, 55%, 50%);" id="39"  d=" M  0,255  C  32.801,255  32.801,320.601  32.801,320.601  L  175.892,251.874  L  136.086,-18.469  C  136.086,-18.469  68.043,-24.625  0,-24.625  L  0,255  z " />
<path transform="translate( 0, 0 )" style="stroke: hsl(80.7, 55%, 50%);" id="59"  d=" M  0,255  C  32.801,255  32.801,320.601  32.801,320.601  L  173.347,252.263  L  136.086,-18.469  C  136.086,-18.469  68.043,-24.625  0,-24.625  L  0,255  z " />
<path transform="translate( 0, 0 )" style="stroke: hsl(107.6, 55%, 50%);" id="79"  d=" M  0,255  C  32.801,255  32.801,320.601  32.801,320.601  L  170.864,252.617  L  136.086,-18.469  C  136.086,-18.469  68.043,-24.625  0,-24.625  L  0,255  z " />
<path transform="translate( 0, 0 )" style="stroke: hsl(134.5, 55%, 50%);" id="99"  d=" M  0,255  C  32.801,255  32.801,320.601  32.801,320.601  L  168.44,252.939  L  136.086,-18.469  C  136.086,-18.469  68.043,-24.625  0,-24.625  L  0,255  z " />
<path transform="translate( 0, 0 )" style="stroke: hsl(161.4, 55%, 50%);" id="119"  d=" M  0,255  C  32.801,255  32.801,320.601  32.801,320.601  L  166.074,253.231  L  136.086,-18.469  C  136.086,-18.469  68.043,-24.625  0,-24.625  L  0,255  z " />
<path transform="translate( 0, 0 )" style="stroke: hsl(188.3, 55%, 50%);" id="139"  d=" M  0,255  C  32.801,255  32.801,320.601  32.801,320.601  L  163.762,253.494  L  136.086,-18.469  C  136.086,-18.469  68.043,-24.625  0,-24.625  L  0,255  z " />
<path transform="translate( 0, 0 )" style="stroke: hsl(215.2, 55%, 50%);" id="159"  d=" M  0,255  C  32.801,255  32.801,320.601  32.801,320.601  L  161.501,253.73  L  136.086,-18.469  C  136.086,-18.469  68.043,-24.625  0,-24.625  L  0,255  z " />
<path transform="translate( 0, 0 )" style="stroke: hsl(242.1, 55%, 50%);" id="179"  d=" M  0,255  C  32.801,255  32.801,320.601  32.801,320.601  L  159.29,253.942  L  136.086,-18.469  C  136.086,-18.469  68.043,-24.625  0,-24.625  L  0,255  z " />
<path transform="translate( 0, 0 )" style="stroke: hsl(269, 55%, 50%);" id="199"  d=" M  0,255  C  32.801,255  32.801,320.601  32.801,320.601  L  157.126,254.13  L  136.086,-18.469  C  136.086,-18.469  68.043,-24.625  0,-24.625  L  0,255  z " />
<path transform="translate( 0, 0 )" style="stroke: hsl(295.9, 55%, 50%);" id="219"  d=" M  0,255  C  32.801,255  32.801,320.601  32.801,320.601  L  155.007,254.297  L  136.086,-18.469  C  136.086,-18.469  68.043,-24.625  0,-24.625  L  0,255  z " />
    </g>
    <!-- End of group #back -->
    
    <!-- Start of group #side -->
    <g id="side"  transform=" translate(6.432 23.469)  translate(419.117 0) " >
        <path class="hidden" id="4"  d=" M  -1.432,-18.469  L  190.088,-18.469  L  190.088,255  L  -1.432,255  z " />
<path transform="translate( 0, 0 )" style="stroke: hsl(26.9, 55%, 50%);" id="20"  d=" M  0,-18.469  L  190.088,-6.156  L  190.088,255  L  -1.432,254.996  z " />
<path transform="translate( 0, 0 )" style="stroke: hsl(53.8, 55%, 50%);" id="40"  d=" M  0,-18.469  L  190.088,-6.156  L  190.088,255  L  1.584,254.995  z " />
<path transform="translate( 0, 0 )" style="stroke: hsl(80.7, 55%, 50%);" id="60"  d=" M  0,-18.469  L  190.088,-6.156  L  190.088,255  L  4.507,254.96  z " />
<path transform="translate( 0, 0 )" style="stroke: hsl(107.6, 55%, 50%);" id="80"  d=" M  0,-18.469  L  190.088,-6.156  L  190.088,255  L  7.34,254.894  z " />
<path transform="translate( 0, 0 )" style="stroke: hsl(134.5, 55%, 50%);" id="100"  d=" M  0,-18.469  L  190.088,-6.156  L  190.088,255  L  10.088,254.8  z " />
<path transform="translate( 0, 0 )" style="stroke: hsl(161.4, 55%, 50%);" id="120"  d=" M  0,-18.469  L  190.088,-6.156  L  190.088,255  L  12.755,254.681  z " />
<path transform="translate( 0, 0 )" style="stroke: hsl(188.3, 55%, 50%);" id="140"  d=" M  0,-18.469  L  190.088,-6.156  L  190.088,255  L  15.344,254.538  z " />
<path transform="translate( 0, 0 )" style="stroke: hsl(215.2, 55%, 50%);" id="160"  d=" M  0,-18.469  L  190.088,-6.156  L  190.088,255  L  17.859,254.374  z " />
<path transform="translate( 0, 0 )" style="stroke: hsl(242.1, 55%, 50%);" id="180"  d=" M  0,-18.469  L  190.088,-6.156  L  190.088,255  L  20.303,254.19  z " />
<path transform="translate( 0, 0 )" style="stroke: hsl(269, 55%, 50%);" id="200"  d=" M  0,-18.469  L  190.088,-6.156  L  190.088,255  L  22.678,253.989  z " />
<path transform="translate( 0, 0 )" style="stroke: hsl(295.9, 55%, 50%);" id="220"  d=" M  0,-18.469  L  190.088,-6.156  L  190.088,255  L  24.989,253.773  z " />
    </g>
    <!-- End of group #side -->
    
    <!-- Start of group #inset -->
    <g id="inset"  transform=" translate(5 5)  translate(620.637 0) " >
        <path class="hidden" id="5"  d=" M  0,0  L  164.588,0  L  164.588,165.75  L  0,165.75  z " />
<path transform="translate( 0, 0 )" style="stroke: hsl(26.9, 55%, 50%);" id="21"  d=" M  0,0  L  0,165.75  L  151.2,165.75  L  164.588,113.42  C  69.256,89.031  78.721,0  0,0  z " />
<path transform="translate( 0, 0 )" style="stroke: hsl(53.8, 55%, 50%);" id="41"  d=" M  0,0  L  0,165.75  L  148.819,165.75  L  162.009,113.369  C  66.586,89.341  78.721,0  0,0  z " />
<path transform="translate( 0, 0 )" style="stroke: hsl(80.7, 55%, 50%);" id="61"  d=" M  0,0  L  0,165.75  L  146.512,165.75  L  159.509,113.321  C  63.998,89.644  78.721,0  0,0  z " />
<path transform="translate( 0, 0 )" style="stroke: hsl(107.6, 55%, 50%);" id="81"  d=" M  0,0  L  0,165.75  L  144.275,165.75  L  157.086,113.275  C  61.492,89.937  78.721,0  0,0  z " />
<path transform="translate( 0, 0 )" style="stroke: hsl(134.5, 55%, 50%);" id="101"  d=" M  0,0  L  0,165.75  L  142.105,165.75  L  154.733,113.231  C  59.058,90.226  78.721,0  0,0  z " />
<path transform="translate( 0, 0 )" style="stroke: hsl(161.4, 55%, 50%);" id="121"  d=" M  0,0  L  0,165.75  L  140,165.75  L  152.451,113.189  C  56.699,90.507  78.721,0  0,0  z " />
<path transform="translate( 0, 0 )" style="stroke: hsl(188.3, 55%, 50%);" id="141"  d=" M  0,0  L  0,165.75  L  137.956,165.75  L  150.235,113.148  C  54.409,90.779  78.721,0  0,0  z " />
<path transform="translate( 0, 0 )" style="stroke: hsl(215.2, 55%, 50%);" id="161"  d=" M  0,0  L  0,165.75  L  135.971,165.75  L  148.082,113.11  C  52.185,91.047  78.721,0  0,0  z " />
<path transform="translate( 0, 0 )" style="stroke: hsl(242.1, 55%, 50%);" id="181"  d=" M  0,0  L  0,165.75  L  134.043,165.75  L  145.991,113.072  C  50.026,91.306  78.721,0  0,0  z " />
<path transform="translate( 0, 0 )" style="stroke: hsl(269, 55%, 50%);" id="201"  d=" M  0,0  L  0,165.75  L  132.168,165.75  L  143.957,113.036  C  47.927,91.56  78.721,0  0,0  z " />
<path transform="translate( 0, 0 )" style="stroke: hsl(295.9, 55%, 50%);" id="221"  d=" M  0,0  L  0,165.75  L  130.345,165.75  L  141.978,113.002  C  45.885,91.81  78.721,0  0,0  z " />
    </g>
    <!-- End of group #inset -->
    
    <!-- Start of group #sampler-front -->
    <g id="sampler-front"  transform=" translate(0 0)  translate(795.225 0) " >
    </g>
    <!-- End of group #sampler-front -->
    
    <!-- Start of group #sampler-back -->
    <g id="sampler-back"  transform=" translate(0 0)  translate(795.225 0) " >
    </g>
    <!-- End of group #sampler-back -->
    
    <!-- Start of group #sampler-side -->
    <g id="sampler-side"  transform=" translate(0 0)  translate(795.225 0) " >
    </g>
    <!-- End of group #sampler-side -->
    
    <!-- Start of group #sampler-inset -->
    <g id="sampler-inset"  transform=" translate(0 0)  translate(795.225 0) " >
    </g>
    <!-- End of group #sampler-inset -->
</g>
<!-- End of group #patternScaleContainer -->

</svg>

