<?xml version="1.0" encoding="UTF-8" standalone="no"?>
<!-- Created with Inkscape (http://www.inkscape.org/) -->

<svg
   xmlns:svg="http://www.w3.org/2000/svg"
   xmlns="http://www.w3.org/2000/svg"
   xmlns:xlink="http://www.w3.org/1999/xlink"
   version="1.1"
   width="501"
   height="754"
   viewbox="0 0 501 754"
   id="svg15277">
  <defs
     id="defs15279" />
  <g
     transform="translate(1787.597917,1122.115789)"
     id="layer1">
    <g
       transform="matrix(1.095164323,0,0,1.095164323,170.095312,35.10546557)"
       id="g16833"
       style="stroke:#292b2c;stroke-width:3.6524200439;stroke-miterlimit:4;stroke-opacity:1;stroke-dasharray:none">
      <g
         id="g17400">
        <path
           d="M -1633.606056,-1116.203642 -1746.442151,-1091.785134 C -1744.221818,-1081.527147 -1598.493528,-802.3124033 -1598.493528,-802.3124033 -1598.493528,-802.3124033 -1429.769351,-805.6343815 -1429.769351,-805.6343815 -1429.769351,-805.6343815 -1330.558025,-1081.527147 -1328.337695,-1091.785134 L -1441.173758,-1116.203642 C -1443.395363,-1105.965729 -1460.401961,-1095.243837 -1537.209415,-1095.21002 -1537.331481,-1095.21002 -1537.448662,-1095.209967 -1537.570431,-1095.21002 -1614.377083,-1095.243927 -1631.384481,-1105.965769 -1633.606056,-1116.203642 z"
           transform="matrix(0.9131049825,0,0,0.9131049825,-155.3148769,-32.05497553)"
           id="path4799"
           style="fill:#86739c;fill-opacity:1;stroke:#292b2c;stroke-width:3.5544762611;stroke-linecap:round;stroke-linejoin:round;stroke-miterlimit:4;stroke-opacity:1;stroke-dasharray:none;stroke-dashoffset:0" />
        <g
           transform="matrix(1.43785863,0,0,1.43785863,23953.07167,5204.894731)"
           id="g5898"
           style="stroke:#292b2c;stroke-width:2.5401802063;stroke-miterlimit:4;stroke-opacity:1;stroke-dasharray:none">
          <g
             transform="matrix(0.6703171,0,0,0.6703171,-17887.577,-4366.9171)"
             id="g5900"
             style="stroke:#292b2c;stroke-width:3.7895200253;stroke-miterlimit:4;stroke-opacity:1;stroke-dasharray:none">
            <g
               id="g5902"
               style="stroke:#292b2c;stroke-width:3.7895200253;stroke-miterlimit:4;stroke-opacity:1;stroke-dasharray:none">
              <g
                 id="g5904"
                 style="stroke:#292b2c;stroke-width:3.7895200253;stroke-miterlimit:4;stroke-opacity:1;stroke-dasharray:none">
                <path
                   d="M 0,20"
                   id="path5906"
                   style="fill:#ffffff;fill-opacity:1;stroke:#292b2c;stroke-width:3.7895200253;stroke-linecap:round;stroke-linejoin:round;stroke-miterlimit:4;stroke-opacity:1;stroke-dasharray:none;stroke-dashoffset:0" />
                <text
                   id="text5908"
                   xml:space="default"
                   style="stroke:#292b2c;stroke-width:3.7895200253;stroke-miterlimit:4;stroke-opacity:1;stroke-dasharray:none">
                  <tspan
                     id="tspan5910"
                     style="font-size:42px;font-weight:800;text-align:center;text-anchor:middle;fill:none;stroke:#292b2c;stroke-width:3.7895200253;stroke-miterlimit:4;stroke-opacity:1;stroke-dasharray:none;font-family:Open Sans;-inkscape-font-specification:Open Sans" />
                  <tspan
                     dy="7"
                     id="tspan5912"
                     style="font-size:6px;font-style:normal;font-weight:normal;text-align:center;text-anchor:middle;fill:#000000;fill-opacity:1;stroke:#292b2c;stroke-width:3.7895200253;stroke-miterlimit:4;stroke-opacity:1;stroke-dasharray:none;font-family:Dosis;-inkscape-font-specification:Dosis" />
                </text>
              </g>
            </g>
          </g>
          <g
             transform="matrix(0.6703171,0,0,0.6703171,-17887.577,-4366.9171)"
             id="g5914"
             style="stroke:#292b2c;stroke-width:3.7895200253;stroke-miterlimit:4;stroke-opacity:1;stroke-dasharray:none">
            <g
               id="g5916"
               style="stroke:#292b2c;stroke-width:3.7895200253;stroke-miterlimit:4;stroke-opacity:1;stroke-dasharray:none">
              <g
                 id="g5918"
                 style="stroke:#292b2c;stroke-width:3.7895200253;stroke-miterlimit:4;stroke-opacity:1;stroke-dasharray:none">
                <path
                   d="M 0,20"
                   id="path5920"
                   style="fill:#ffffff;fill-opacity:1;stroke:#292b2c;stroke-width:3.7895200253;stroke-linecap:round;stroke-linejoin:round;stroke-miterlimit:4;stroke-opacity:1;stroke-dasharray:none;stroke-dashoffset:0" />
                <text
                   id="text5922"
                   xml:space="default"
                   style="stroke:#292b2c;stroke-width:3.7895200253;stroke-miterlimit:4;stroke-opacity:1;stroke-dasharray:none">
                  <tspan
                     id="tspan5924"
                     style="font-size:42px;font-weight:800;text-align:center;text-anchor:middle;fill:none;stroke:#292b2c;stroke-width:3.7895200253;stroke-miterlimit:4;stroke-opacity:1;stroke-dasharray:none;font-family:Open Sans;-inkscape-font-specification:Open Sans" />
                  <tspan
                     dy="7"
                     id="tspan5926"
                     style="font-size:6px;font-style:normal;font-weight:normal;text-align:center;text-anchor:middle;fill:#000000;fill-opacity:1;stroke:#292b2c;stroke-width:3.7895200253;stroke-miterlimit:4;stroke-opacity:1;stroke-dasharray:none;font-family:Dosis;-inkscape-font-specification:Dosis" />
                </text>
              </g>
            </g>
          </g>
          <g
             transform="matrix(0.18917838,0,0,0.18917838,-18189.058,-4363.5655)"
             id="g5928"
             style="stroke:#292b2c;stroke-width:13.4274339676;stroke-miterlimit:4;stroke-opacity:1;stroke-dasharray:none">
            <g
               id="g5930"
               style="stroke:#292b2c;stroke-width:13.4274339676;stroke-miterlimit:4;stroke-opacity:1;stroke-dasharray:none">
              <g
                 id="g5932"
                 style="fill:#729fcf;stroke:#292b2c;stroke-width:13.4274339676;stroke-miterlimit:4;stroke-opacity:1;stroke-dasharray:none">
                <path
                   d="M 2391.7322,2320.8661 2195.9906,2568.8976 C 2175.0182,2552.3334 1997.7843,2484.9697 1590.4772,2457.7012 L 1523.7176,2444.5424 C 1523.7175,2373.676 1614.4079,2133.8398 1614.4079,1823.8005 1614.4079,1458.631 1553.2879,1178.0094 1553.2879,872.85839 1615.9254,810.22087 1718.5039,679.42914 1718.5039,537.69685 1718.5039,395.96457 1659.7908,163.11722 1652.2949,128.486 L 2035.6011,65.010203 C 2035.6011,65.010203 2030.8569,393.30709 2391.7322,951.37796 L 2391.7322,2320.8661 z"
                   id="path5934"
                   style="fill:#5c3566;fill-opacity:1;stroke:#292b2c;stroke-width:13.4274339676;stroke-linecap:round;stroke-linejoin:round;stroke-miterlimit:4;stroke-opacity:1;stroke-dasharray:none;stroke-dashoffset:0" />
              </g>
              <g
                 id="g5936"
                 style="stroke:#292b2c;stroke-width:13.4274339676;stroke-miterlimit:4;stroke-opacity:1;stroke-dasharray:none">
                <use
                   transform="matrix(3.5433071,0,0,3.5433071,265.74798,53.149606)"
                   id="use5938"
                   style="stroke:#292b2c;stroke-width:3.7895200253;stroke-miterlimit:4;stroke-opacity:1;stroke-dasharray:none"
                   x="590"
                   y="336.7999878"
                   width="2444.881836"
                   height="2622.047363"
                   xlink:href="#button">
                  <title
                     id="title5940" />
                </use>
                <use
                   transform="matrix(3.5433071,0,0,3.5433071,265.74798,53.149606)"
                   id="use5942"
                   style="stroke:#292b2c;stroke-width:3.7895200253;stroke-miterlimit:4;stroke-opacity:1;stroke-dasharray:none"
                   x="590"
                   y="410.1000061"
                   width="2444.881836"
                   height="2622.047363"
                   xlink:href="#button">
                  <title
                     id="title5944" />
                </use>
                <use
                   transform="matrix(3.5433071,0,0,3.5433071,265.74798,53.149606)"
                   id="use5946"
                   style="stroke:#292b2c;stroke-width:3.7895200253;stroke-miterlimit:4;stroke-opacity:1;stroke-dasharray:none"
                   x="590"
                   y="483.3999939"
                   width="2444.881836"
                   height="2622.047363"
                   xlink:href="#button">
                  <title
                     id="title5948" />
                </use>
                <use
                   transform="matrix(3.5433071,0,0,3.5433071,265.74798,53.149606)"
                   id="use5950"
                   style="stroke:#292b2c;stroke-width:3.7895200253;stroke-miterlimit:4;stroke-opacity:1;stroke-dasharray:none"
                   x="590"
                   y="556.7000122"
                   width="2444.881836"
                   height="2622.047363"
                   xlink:href="#button">
                  <title
                     id="title5952" />
                </use>
                <use
                   transform="matrix(3.5433071,0,0,3.5433071,265.74798,53.149606)"
                   id="use5954"
                   style="stroke:#292b2c;stroke-width:3.7895200253;stroke-miterlimit:4;stroke-opacity:1;stroke-dasharray:none"
                   x="590"
                   y="263.5"
                   width="2444.881836"
                   height="2622.047363"
                   xlink:href="#button">
                  <title
                     id="title5956" />
                </use>
                <use
                   transform="matrix(3.5433071,0,0,3.5433071,265.74798,53.149606)"
                   id="use5958"
                   style="stroke:#292b2c;stroke-width:3.7895200253;stroke-miterlimit:4;stroke-opacity:1;stroke-dasharray:none"
                   x="590"
                   y="630"
                   width="2444.881836"
                   height="2622.047363"
                   xlink:href="#button">
                  <title
                     id="title5960" />
                </use>
              </g>
            </g>
            <g
               transform="matrix(-1,0,0,1,4717.2191,0)"
               id="g5962"
               style="stroke:#292b2c;stroke-width:13.4274339676;stroke-miterlimit:4;stroke-opacity:1;stroke-dasharray:none">
              <g
                 id="g5964"
                 style="fill:#729fcf;stroke:#292b2c;stroke-width:13.4274339676;stroke-miterlimit:4;stroke-opacity:1;stroke-dasharray:none">
                <path
                   d="M 2391.7322,2320.8661 2195.9906,2568.8976 C 2175.0182,2552.3334 2001.139,2478.2603 1593.8319,2450.9918 L 1527.0723,2437.833 C 1527.0722,2366.9666 1611.0532,2127.1304 1611.0532,1817.0911 1611.0532,1451.9216 1563.3519,1184.7188 1563.3519,879.56775 1625.9894,816.93023 1718.5039,679.42914 1718.5039,537.69685 1718.5039,395.96457 1659.7908,163.11722 1652.2949,128.486 L 2035.6011,65.010203 C 2035.6011,65.010203 2030.8569,393.30709 2391.7322,951.37796 L 2391.7322,2320.8661 z"
                   id="path5966"
                   style="fill:#5c3566;fill-opacity:1;stroke:#292b2c;stroke-width:13.4274339676;stroke-linecap:round;stroke-linejoin:round;stroke-miterlimit:4;stroke-opacity:1;stroke-dasharray:none;stroke-dashoffset:0" />
              </g>
              <g
                 id="g5968"
                 style="stroke:#292b2c;stroke-width:13.4274339676;stroke-miterlimit:4;stroke-opacity:1;stroke-dasharray:none">
                <use
                   transform="matrix(3.5433071,0,0,3.5433071,265.74798,53.149606)"
                   id="use5970"
                   style="stroke:#292b2c;stroke-width:3.7895200253;stroke-miterlimit:4;stroke-opacity:1;stroke-dasharray:none"
                   x="590"
                   y="336.7999878"
                   width="2444.881836"
                   height="2622.047363"
                   xlink:href="#button">
                  <title
                     id="title5972" />
                </use>
                <use
                   transform="matrix(3.5433071,0,0,3.5433071,265.74798,53.149606)"
                   id="use5974"
                   style="stroke:#292b2c;stroke-width:3.7895200253;stroke-miterlimit:4;stroke-opacity:1;stroke-dasharray:none"
                   x="590"
                   y="410.1000061"
                   width="2444.881836"
                   height="2622.047363"
                   xlink:href="#button">
                  <title
                     id="title5976" />
                </use>
                <use
                   transform="matrix(3.5433071,0,0,3.5433071,265.74798,53.149606)"
                   id="use5978"
                   style="stroke:#292b2c;stroke-width:3.7895200253;stroke-miterlimit:4;stroke-opacity:1;stroke-dasharray:none"
                   x="590"
                   y="483.3999939"
                   width="2444.881836"
                   height="2622.047363"
                   xlink:href="#button">
                  <title
                     id="title5980" />
                </use>
                <use
                   transform="matrix(3.5433071,0,0,3.5433071,265.74798,53.149606)"
                   id="use5982"
                   style="stroke:#292b2c;stroke-width:3.7895200253;stroke-miterlimit:4;stroke-opacity:1;stroke-dasharray:none"
                   x="590"
                   y="556.7000122"
                   width="2444.881836"
                   height="2622.047363"
                   xlink:href="#button">
                  <title
                     id="title5984" />
                </use>
                <use
                   transform="matrix(3.5433071,0,0,3.5433071,265.74798,53.149606)"
                   id="use5986"
                   style="stroke:#292b2c;stroke-width:3.7895200253;stroke-miterlimit:4;stroke-opacity:1;stroke-dasharray:none"
                   x="590"
                   y="263.5"
                   width="2444.881836"
                   height="2622.047363"
                   xlink:href="#button">
                  <title
                     id="title5988" />
                </use>
                <use
                   transform="matrix(3.5433071,0,0,3.5433071,265.74798,53.149606)"
                   id="use5990"
                   style="stroke:#292b2c;stroke-width:3.7895200253;stroke-miterlimit:4;stroke-opacity:1;stroke-dasharray:none"
                   x="590"
                   y="630"
                   width="2444.881836"
                   height="2622.047363"
                   xlink:href="#button">
                  <title
                     id="title5992" />
                </use>
              </g>
            </g>
          </g>
        </g>
        <g
           transform="matrix(1.675341154,0,0,1.675341154,29137.33579,6329.381184)"
           id="g7058"
           style="stroke:#292b2c;stroke-width:1.0900526047;stroke-miterlimit:4;stroke-opacity:1;stroke-dasharray:none">
          <path
             d="M -18407.775,-4016.4294 C -18400.19,-4086.1881 -18393.08,-4156.4221 -18396.881,-4237.5667"
             id="path7060"
             style="fill:none;stroke:#292b2c;stroke-width:1.0900526047;stroke-linecap:round;stroke-linejoin:round;stroke-miterlimit:4;stroke-opacity:1;stroke-dasharray:none;stroke-dashoffset:0" />
          <path
             d="M -18244.405,-4013.1614 C -18251.99,-4082.9201 -18259.1,-4153.1541 -18255.299,-4234.2987"
             id="path7062"
             style="fill:none;stroke:#292b2c;stroke-width:1.0900526047;stroke-linecap:round;stroke-linejoin:round;stroke-miterlimit:4;stroke-opacity:1;stroke-dasharray:none;stroke-dashoffset:0" />
        </g>
        <g
           transform="matrix(1.675341154,0,0,1.675341154,29134.11796,6329.381184)"
           id="g7114"
           style="stroke:#292b2c;stroke-width:2.1801052094;stroke-miterlimit:4;stroke-opacity:1;stroke-dasharray:none">
          <rect
             width="51.92023087"
             height="12.52748299"
             x="-18340.41211"
             y="-5582.601074"
             transform="matrix(0.99660484,-0.08233345,0,1,0,0)"
             id="rect7116"
             style="fill:#5c3566;stroke:#292b2c;stroke-width:2.1838154793;stroke-linecap:round;stroke-linejoin:round;stroke-miterlimit:4;stroke-opacity:1;stroke-dasharray:none;stroke-dashoffset:0" />
          <rect
             width="51.92023087"
             height="12.52748299"
             x="18432.77734"
             y="-2554.937744"
             transform="matrix(-0.99660484,-0.08233345,0,1,0,0)"
             id="rect7118"
             style="fill:#5c3566;stroke:#292b2c;stroke-width:2.1838154793;stroke-linecap:round;stroke-linejoin:round;stroke-miterlimit:4;stroke-opacity:1;stroke-dasharray:none;stroke-dashoffset:0" />
        </g>
      </g>
      <path
         d="M 261.0125594,283.6126099 A 4.745683193,4.745683193 0 1 1 251.521193,283.6126099 4.745683193,4.745683193 0 1 1 261.0125594,283.6126099 z"
         transform="matrix(1.278346968,0,0,1.278346968,-1884.64551,-1165.451694)"
         id="path17478"
         style="fill:#292b2c;fill-opacity:1;stroke:none" />
      <path
         d="M 261.0125594,283.6126099 A 4.745683193,4.745683193 0 1 1 251.521193,283.6126099 4.745683193,4.745683193 0 1 1 261.0125594,283.6126099 z"
         transform="matrix(1.278346968,0,0,1.278346968,-1884.64551,-806.6538845)"
         id="path17480"
         style="fill:#292b2c;fill-opacity:1;stroke:none" />
      <path
         d="M 261.0125594,283.6126099 A 4.745683193,4.745683193 0 1 1 251.521193,283.6126099 4.745683193,4.745683193 0 1 1 261.0125594,283.6126099 z"
         transform="matrix(1.278346968,0,0,1.278346968,-1884.64551,-878.4134464)"
         id="path17482"
         style="fill:#292b2c;fill-opacity:1;stroke:none" />
      <path
         d="M 261.0125594,283.6126099 A 4.745683193,4.745683193 0 1 1 251.521193,283.6126099 4.745683193,4.745683193 0 1 1 261.0125594,283.6126099 z"
         transform="matrix(1.278346968,0,0,1.278346968,-1884.64551,-950.1730132)"
         id="path17484"
         style="fill:#292b2c;fill-opacity:1;stroke:none" />
      <path
         d="M 261.0125594,283.6126099 A 4.745683193,4.745683193 0 1 1 251.521193,283.6126099 4.745683193,4.745683193 0 1 1 261.0125594,283.6126099 z"
         transform="matrix(1.278346968,0,0,1.278346968,-1884.64551,-1021.9326)"
         id="path17486"
         style="fill:#292b2c;fill-opacity:1;stroke:none" />
      <path
         d="M 261.0125594,283.6126099 A 4.745683193,4.745683193 0 1 1 251.521193,283.6126099 4.745683193,4.745683193 0 1 1 261.0125594,283.6126099 z"
         transform="matrix(1.278346968,0,0,1.278346968,-1884.64551,-1093.692153)"
         id="path17490"
         style="fill:#292b2c;fill-opacity:1;stroke:none" />
    </g>
  </g>
</svg>
