<?xml version="1.0" encoding="UTF-8" standalone="no"?>
<svg
    width ="906.67559141756"
    height ="2637.400396221"
    viewbox ="0 0 906.67559141756 2637.400396221" xmlns:dc="http://purl.org/dc/elements/1.1/"
    xmlns:cc="http://creativecommons.org/ns#"
    xmlns:rdf="http://www.w3.org/1999/02/22-rdf-syntax-ns#"
    xmlns:svg="http://www.w3.org/2000/svg"
    xmlns="http://www.w3.org/2000/svg"
    xmlns:xlink="http://www.w3.org/1999/xlink"
    xmlns:sodipodi="http://sodipodi.sourceforge.net/DTD/sodipodi-0.dtd"
    xmlns:inkscape="http://www.inkscape.org/namespaces/inkscape" 
>

<style type="text/css">
    <![CDATA[
    path { fill: none; stroke: #000000; stroke-opacity:1; stroke-width: 0.5; stroke-miterlimit:4; stroke-dashoffset:0; stroke-linecap:round; stroke-linejoin:round; }
    path.hidden { fill: none; stroke: none; }]]>
</style>


<!-- Start of group #patternScaleContainer -->
<g id="patternScaleContainer"  transform=" scale(3.54330709 ) " >
    
    <!-- Start of group #front -->
    <g id="front"  transform=" translate(5 -0.667)  translate(0 0) " >
        <path class="hidden" id="2"  d=" M  0,5.667  L  245.884,5.667  L  245.884,740  L  0,740  z " />
<path transform="translate( 0, 0 )" style="stroke: hsl(26.9, 55%, 50%);" id="8"  d=" M  0,500  L  0,740  L  227.25,740  L  227.25,500  C  227.25,415.333  245.884,276  245.884,276  C  157.775,276  143.452,127.393  157.775,10.533  L  118.073,5.667  C  117.908,7.01  101.609,140  0,140  z " />
<path transform="translate( 0, 0 )" style="stroke: hsl(53.8, 55%, 50%);" id="16"  d=" M  0,500  L  0,740  L  227.25,740  L  227.25,500  C  227.25,415.333  245.884,276  245.884,276  C  157.775,276  143.452,127.393  157.775,10.533  L  118.073,5.667  C  116.427,19.1  101.609,140  0,140  z " />
<path transform="translate( 0, 0 )" style="stroke: hsl(80.7, 55%, 50%);" id="24"  d=" M  0,500  L  0,740  L  227.25,740  L  227.25,500  C  227.25,415.333  245.884,276  245.884,276  C  157.775,276  143.452,127.393  157.775,10.533  L  118.073,5.667  C  114.78,32.534  101.609,140  0,140  z " />
<path transform="translate( 0, 0 )" style="stroke: hsl(107.6, 55%, 50%);" id="32"  d=" M  0,500  L  0,740  L  227.25,740  L  227.25,500  C  227.25,415.333  245.884,276  245.884,276  C  157.775,276  143.452,127.393  157.775,10.533  L  118.073,5.667  C  113.134,45.967  101.609,140  0,140  z " />
<path transform="translate( 0, 0 )" style="stroke: hsl(134.5, 55%, 50%);" id="40"  d=" M  0,500  L  0,740  L  227.25,740  L  227.25,500  C  227.25,415.333  245.884,276  245.884,276  C  157.775,276  143.452,127.393  157.775,10.533  L  118.073,5.667  C  111.487,59.4  101.609,140  0,140  z " />
<path transform="translate( 0, 0 )" style="stroke: hsl(161.4, 55%, 50%);" id="48"  d=" M  0,500  L  0,740  L  227.25,740  L  227.25,500  C  227.25,415.333  245.884,276  245.884,276  C  157.775,276  143.452,127.393  157.775,10.533  L  118.073,5.667  C  109.841,72.834  101.609,140  0,140  z " />
<path transform="translate( 0, 0 )" style="stroke: hsl(188.3, 55%, 50%);" id="56"  d=" M  0,500  L  0,740  L  227.25,740  L  227.25,500  C  227.25,415.333  245.884,276  245.884,276  C  157.775,276  143.452,127.393  157.775,10.533  L  118.073,5.667  C  108.195,86.267  101.609,140  0,140  z " />
<path transform="translate( 0, 0 )" style="stroke: hsl(215.2, 55%, 50%);" id="64"  d=" M  0,500  L  0,740  L  227.25,740  L  227.25,500  C  227.25,415.333  245.884,276  245.884,276  C  157.775,276  143.452,127.393  157.775,10.533  L  118.073,5.667  C  106.548,99.7  101.609,140  0,140  z " />
<path transform="translate( 0, 0 )" style="stroke: hsl(242.1, 55%, 50%);" id="72"  d=" M  0,500  L  0,740  L  227.25,740  L  227.25,500  C  227.25,415.333  245.884,276  245.884,276  C  157.775,276  143.452,127.393  157.775,10.533  L  118.073,5.667  C  104.902,113.133  101.609,140  0,140  z " />
<path transform="translate( 0, 0 )" style="stroke: hsl(269, 55%, 50%);" id="80"  d=" M  0,500  L  0,740  L  227.25,740  L  227.25,500  C  227.25,415.333  245.884,276  245.884,276  C  157.775,276  143.452,127.393  157.775,10.533  L  118.073,5.667  C  103.255,126.567  101.609,140  0,140  z " />
<path transform="translate( 0, 0 )" style="stroke: hsl(295.9, 55%, 50%);" id="88"  d=" M  0,500  L  0,740  L  227.25,740  L  227.25,500  C  227.25,415.333  245.884,276  245.884,276  C  157.775,276  143.452,127.393  157.775,10.533  L  118.073,5.667  C  101.609,140  101.609,140  0,140  z " />
    </g>
    <!-- End of group #front -->
</g>
<!-- End of group #patternScaleContainer -->

</svg>

