<?xml version="1.0" encoding="UTF-8" standalone="no"?>
<svg
    xmlns="http://www.w3.org/2000/svg"
    xmlns:svg="http://www.w3.org/2000/svg"
    xmlns:xlink="http://www.w3.org/1999/xlink"
    xmlns:freesewing="http://freesewing.org/namespaces/freesewing" viewBox ="0 0 566 746"
    width ="566mm"
    height ="746mm"
    freesewing:version ="1.5.0"
    freesewing:origin ="joost.core.freesewing.org" 
>

<style type="text/css">
    <![CDATA[
    path { fill: none; stroke: #000000; stroke-opacity:1; stroke-width: 0.5; stroke-miterlimit:4; stroke-dashoffset:0; stroke-linecap:round; stroke-linejoin:round; }
    path.hidden { fill: none; stroke: none; }]]>
</style>


<!-- Start of group #patternContainer -->
<g id="patternContainer" >
    
    <!-- Start of group #frontBlock -->
    <g id="frontBlock" >
    </g>
    <!-- End of group #frontBlock -->
    
    <!-- Start of group #backBlock -->
    <g id="backBlock" >
    </g>
    <!-- End of group #backBlock -->
    
    <!-- Start of group #front -->
    <g id="front"  transform=" translate(5 0.51)  translate(0 0) " >
        <path class="hidden" id="2"  d=" M  0,4.49  L  273.204,4.49  L  273.204,740  L  0,740  z " />
<path transform="translate( 0, 0 )" style="stroke: hsl(26.9, 55%, 50%);" id="8"  d=" M  0,500  L  0,740  L  252.5,740  L  252.5,500  C  252.5,415.333  273.204,276  273.204,276  C  165.116,276  150.848,127.846  165.116,11.433  L  125.414,6.567  C  109.878,133.328  109.06,140  0,140  z " />
<path transform="translate( 0, 0 )" style="stroke: hsl(53.8, 55%, 50%);" id="16"  d=" M  0,500  L  0,740  L  245.146,740  L  245.146,500  C  245.146,415.333  265.247,276  265.247,276  C  162.978,276  148.691,127.714  162.978,11.171  L  123.276,6.304  C  107.703,133.315  106.883,140  0,140  z " />
<path transform="translate( 0, 0 )" style="stroke: hsl(80.7, 55%, 50%);" id="24"  d=" M  0,500  L  0,740  L  238.208,740  L  238.208,500  C  238.208,415.333  257.74,276  257.74,276  C  160.962,276  146.66,127.589  160.962,10.924  L  121.26,6.057  C  105.658,133.303  104.837,140  0,140  z " />
<path transform="translate( 0, 0 )" style="stroke: hsl(107.6, 55%, 50%);" id="32"  d=" M  0,500  L  0,740  L  231.651,740  L  231.651,500  C  231.651,415.333  250.646,276  250.646,276  C  159.055,276  144.742,127.471  159.055,10.69  L  119.353,5.824  C  103.73,133.291  102.908,140  0,140  z " />
<path transform="translate( 0, 0 )" style="stroke: hsl(134.5, 55%, 50%);" id="40"  d=" M  0,500  L  0,740  L  225.446,740  L  225.446,500  C  225.446,415.333  243.932,276  243.932,276  C  157.25,276  142.921,127.36  157.25,10.469  L  117.548,5.602  C  101.893,133.28  101.069,140  0,140  z " />
<path transform="translate( 0, 0 )" style="stroke: hsl(161.4, 55%, 50%);" id="48"  d=" M  0,500  L  0,740  L  219.565,740  L  219.565,500  C  219.565,415.333  237.569,276  237.569,276  C  155.54,276  141.201,127.255  155.54,10.259  L  115.838,5.393  C  100.165,133.27  99.34,140  0,140  z " />
<path transform="translate( 0, 0 )" style="stroke: hsl(188.3, 55%, 50%);" id="56"  d=" M  0,500  L  0,740  L  213.983,740  L  213.983,500  C  213.983,415.333  231.529,276  231.529,276  C  153.917,276  139.566,127.154  153.917,10.06  L  114.215,5.194  C  98.519,133.26  97.693,140  0,140  z " />
<path transform="translate( 0, 0 )" style="stroke: hsl(215.2, 55%, 50%);" id="64"  d=" M  0,500  L  0,740  L  208.678,740  L  208.678,500  C  208.678,415.333  225.789,276  225.789,276  C  152.375,276  138.012,127.059  152.375,9.871  L  112.673,5.005  C  96.955,133.25  96.128,140  0,140  z " />
<path transform="translate( 0, 0 )" style="stroke: hsl(242.1, 55%, 50%);" id="72"  d=" M  0,500  L  0,740  L  203.629,740  L  203.629,500  C  203.629,415.333  220.326,276  220.326,276  C  150.907,276  136.533,126.968  150.907,9.691  L  111.205,4.825  C  95.466,133.241  94.638,140  0,140  z " />
<path transform="translate( 0, 0 )" style="stroke: hsl(269, 55%, 50%);" id="80"  d=" M  0,500  L  0,740  L  198.819,740  L  198.819,500  C  198.819,415.333  215.122,276  215.122,276  C  149.508,276  135.121,126.881  149.508,9.52  L  109.806,4.653  C  94.041,133.233  93.211,140  0,140  z " />
<path transform="translate( 0, 0 )" style="stroke: hsl(295.9, 55%, 50%);" id="88"  d=" M  0,500  L  0,740  L  194.231,740  L  194.231,500  C  194.231,415.333  210.158,276  210.158,276  C  148.174,276  133.78,126.799  148.174,9.356  L  108.472,4.49  C  92.693,133.225  91.863,140  0,140  z " />
    </g>
    <!-- End of group #front -->
    
    <!-- Start of group #back -->
    <g id="back"  transform=" translate(5 0.51)  translate(283.204 0) " >
        <path class="hidden" id="3"  d=" M  0,4.49  L  273.204,4.49  L  273.204,740  L  0,740  z " />
<path transform="translate( 0, 0 )" style="stroke: hsl(26.9, 55%, 50%);" id="9"  d=" M  0,500  L  0,740  L  252.5,740  L  252.5,500  C  252.5,415.333  273.204,276  273.204,276  C  186.085,276  145.012,175.465  165.116,11.433  L  125.414,6.567  C  122.236,32.5  62.707,32.5  0,32.5  z " />
<path transform="translate( 0, 0 )" style="stroke: hsl(53.8, 55%, 50%);" id="17"  d=" M  0,500  L  0,740  L  245.146,740  L  245.146,500  C  245.146,415.333  265.247,276  265.247,276  C  181.712,276  142.85,175.365  162.978,11.171  L  123.276,6.304  C  120.064,32.5  61.638,32.5  0,32.5  z " />
<path transform="translate( 0, 0 )" style="stroke: hsl(80.7, 55%, 50%);" id="25"  d=" M  0,500  L  0,740  L  238.208,740  L  238.208,500  C  238.208,415.333  257.74,276  257.74,276  C  177.59,276  140.815,175.271  160.962,10.924  L  121.26,6.057  C  118.018,32.5  60.63,32.5  0,32.5  z " />
<path transform="translate( 0, 0 )" style="stroke: hsl(107.6, 55%, 50%);" id="33"  d=" M  0,500  L  0,740  L  231.651,740  L  231.651,500  C  231.651,415.333  250.646,276  250.646,276  C  173.699,276  138.894,175.182  159.055,10.69  L  119.353,5.824  C  116.083,32.5  59.677,32.5  0,32.5  z " />
<path transform="translate( 0, 0 )" style="stroke: hsl(134.5, 55%, 50%);" id="41"  d=" M  0,500  L  0,740  L  225.446,740  L  225.446,500  C  225.446,415.333  243.932,276  243.932,276  C  170.008,276  137.069,175.099  157.25,10.469  L  117.548,5.602  C  114.25,32.5  58.774,32.5  0,32.5  z " />
<path transform="translate( 0, 0 )" style="stroke: hsl(161.4, 55%, 50%);" id="49"  d=" M  0,500  L  0,740  L  219.565,740  L  219.565,500  C  219.565,415.333  237.569,276  237.569,276  C  166.518,276  135.347,175.018  155.54,10.259  L  115.838,5.393  C  112.516,32.5  57.919,32.5  0,32.5  z " />
<path transform="translate( 0, 0 )" style="stroke: hsl(188.3, 55%, 50%);" id="57"  d=" M  0,500  L  0,740  L  213.983,740  L  213.983,500  C  213.983,415.333  231.529,276  231.529,276  C  163.201,276  133.709,174.943  153.917,10.06  L  114.215,5.194  C  110.868,32.5  57.108,32.5  0,32.5  z " />
<path transform="translate( 0, 0 )" style="stroke: hsl(215.2, 55%, 50%);" id="65"  d=" M  0,500  L  0,740  L  208.678,740  L  208.678,500  C  208.678,415.333  225.789,276  225.789,276  C  160.049,276  132.152,174.871  152.375,9.871  L  112.673,5.005  C  109.303,32.5  56.337,32.5  0,32.5  z " />
<path transform="translate( 0, 0 )" style="stroke: hsl(242.1, 55%, 50%);" id="73"  d=" M  0,500  L  0,740  L  203.629,740  L  203.629,500  C  203.629,415.333  220.326,276  220.326,276  C  157.049,276  130.67,174.802  150.907,9.691  L  111.205,4.825  C  107.813,32.5  55.603,32.5  0,32.5  z " />
<path transform="translate( 0, 0 )" style="stroke: hsl(269, 55%, 50%);" id="81"  d=" M  0,500  L  0,740  L  198.819,740  L  198.819,500  C  198.819,415.333  215.122,276  215.122,276  C  154.188,276  129.255,174.737  149.508,9.52  L  109.806,4.653  C  106.392,32.5  54.903,32.5  0,32.5  z " />
<path transform="translate( 0, 0 )" style="stroke: hsl(295.9, 55%, 50%);" id="89"  d=" M  0,500  L  0,740  L  194.231,740  L  194.231,500  C  194.231,415.333  210.158,276  210.158,276  C  151.466,276  127.912,174.675  148.174,9.356  L  108.472,4.49  C  105.039,32.5  54.236,32.5  0,32.5  z " />
    </g>
    <!-- End of group #back -->
    
    <!-- Start of group #sampler-front -->
    <g id="sampler-front" >
    </g>
    <!-- End of group #sampler-front -->
    
    <!-- Start of group #sampler-back -->
    <g id="sampler-back" >
    </g>
    <!-- End of group #sampler-back -->
</g>
<!-- End of group #patternContainer -->

</svg>

