<svg xmlns="http://www.w3.org/2000/svg" width="501" height="558" viewbox="0 0 501 558">
  <style type="text/css">
  <![CDATA[
  path{fill:#5C3566;fill-opacity:1;stroke:#292b2c;stroke-width:4;stroke-linecap:round;stroke-linejoin:round;stroke-opacity:1;}
  .sm{stroke-width:2;}
  .back{fill:#86739c;}
  .no-fill{fill:none;}
  .no-stroke{stroke:none;}
  ]]>
  </style>
  <g transform="translate(-100.99851,-445.8439102)">
      <path id="back" class="back" d="M 299.499442,458.6996172 246.5612416,488.0842609 C 242.4965214,509.424042 451.9610998,528.4147606 458.5419494,493.8653002 L 401.601491,458.6996172 C 392.164035,468.1370732 372.0546957,467.5024864 350.5504665,467.5024864 325.8256735,467.6467245 308.8040405,468.0042158 299.499442,458.6996172 z" />
      <path id="front" d="M 299.499442,458.6996172 193.6424966,474.2987054 C 194.3725916,481.1481468 192.9031906,522.5250707 192.9031906,550.4877385 192.9031906,578.3091806 190.7211728,602.1762731 181.2299381,617.0049605 176.1192732,624.3486914 194.3572698,641.654907 187.7864149,641.654907 187.7864149,663.0929522 186.4829017,723.7552242 186.4829017,809.5003441 186.4829017,870.4391882 184.1492846,959.0677713 182.6890946,974.17891 345.2432167,974.17891 378.5174398,974.17891 518.4118384,974.17891 516.9516484,959.0677713 514.6180313,870.4391882 514.6180313,809.5003441 514.6180313,723.7552242 513.3145181,663.0929522 513.3145181,641.654907 506.7436632,641.654907 524.9816598,624.3486914 519.8709949,617.0049605 510.3797602,602.1762731 508.1977424,578.3091806 508.1977424,550.4877385 508.1977424,522.5250707 506.7283414,481.1481468 507.4584364,474.2987054 L 401.601491,458.6996172 C 401.601491,472.5216087 391.503353,491.2771258 350.5504665,491.5160345 309.59758,491.2771258 299.499442,472.5216087 299.499442,458.6996172 z" />
      <path id="sleeves" transform="translate(100.99851,445.8439102)" d="M 93.53125,28 C 79.5013798,28 58.9644799,56.0721178 47.78125,95.84375 16.6715377,207.1067208 -6.30822986,535.9026745 4.875,554.8125 36.4055371,554.8125 25.6546447,555.40625 58.5625,555.40625 66.8990895,535.4797676 69.3155314,448.0558627 81.71875,316.09375 83.1420701,280.9174088 84.1800677,206.48865 91.5,177.65625 111.0198194,144.0048947 99.4278621,52.1964428 93.53125,28 z M 407.15625,28 C 401.2596379,52.1964428 389.6676806,144.0048947 409.1875,177.65625 416.5074323,206.48865 420.1704298,280.9174088 421.59375,316.09375 434.2003001,448.8691885 434.8050677,518.1965942 442.125,555.40625 484.0220845,555.40625 471.1458492,554.8125 495.8125,554.8125 506.7923984,525.9394333 484.0159623,207.1067208 452.90625,95.84375 441.7230201,56.0721178 421.1861202,28 407.15625,28 z" />
    </g>
</svg>
