<?xml version="1.0" encoding="UTF-8" standalone="no"?>
<svg
    xmlns="http://www.w3.org/2000/svg"
    xmlns:svg="http://www.w3.org/2000/svg"
    xmlns:xlink="http://www.w3.org/1999/xlink"
    xmlns:freesewing="http://freesewing.org/namespaces/freesewing" viewBox ="0 0 1021 710"
    width ="1021mm"
    height ="710mm"
    freesewing:version ="1.8.0"
    freesewing:origin ="core.she.freesewing.org" 
>

<style type="text/css">
    <![CDATA[
    path { fill: none; stroke: #000000; stroke-opacity:1; stroke-width: 0.5; stroke-miterlimit:4; stroke-dashoffset:0; stroke-linecap:round; stroke-linejoin:round; }
    path.hidden { fill: none; stroke: none; }]]>
</style>


<!-- Start of group #patternContainer -->
<g id="patternContainer" >
    
    <!-- Start of group #backBlock -->
    <g id="backBlock" >
    </g>
    <!-- End of group #backBlock -->
    
    <!-- Start of group #frontBlock -->
    <g id="frontBlock" >
    </g>
    <!-- End of group #frontBlock -->
    
    <!-- Start of group #sleeveBlock -->
    <g id="sleeveBlock" >
    </g>
    <!-- End of group #sleeveBlock -->
    
    <!-- Start of group #back -->
    <g id="back"  transform=" translate(5 5)  translate(420.644 0) " >
        <path class="hidden" id="2"  d=" M  0,0  L  290,0  L  290,680  L  0,680  z " />
<path transform="translate( 0, 0 )" style="stroke: hsl(26.9, 55%, 50%);" id="23"  d=" M  0,20  L  0,275.75  L  0,500  L  0,680  L  275,680  C  275,620  258.75,560  258.75,500  C  258.75,387.875  290,275.75  290,275.75  C  272.137,275.75  257.675,269.037  241.469,252.831  C  225.263,236.625  218.55,188  218.55,147.875  C  218.55,107.75  232.944,37.286  235,27.5  L  104.132,0  C  100.019,19.573  0,20  0,20  z " />
<path transform="translate( 0, 0 )" style="stroke: hsl(53.8, 55%, 50%);" id="47"  d=" M  0,20  L  0,275.75  L  0,500  L  0,680  L  275,680  C  275,620  258.75,560  258.75,500  C  258.75,387.875  290,275.75  290,275.75  C  272.49,275.75  258.587,269.123  242.587,253.123  C  226.587,237.123  219.96,188  219.96,147.875  C  219.96,107.75  232.944,37.286  235,27.5  L  104.132,0  C  100.019,19.573  0,20  0,20  z " />
<path transform="translate( 0, 0 )" style="stroke: hsl(80.7, 55%, 50%);" id="71"  d=" M  0,20  L  0,275.75  L  0,500  L  0,680  L  275,680  C  275,620  258.75,560  258.75,500  C  258.75,387.875  290,275.75  290,275.75  C  272.842,275.75  259.49,269.21  243.7,253.42  C  227.91,237.63  221.37,188  221.37,147.875  C  221.37,107.75  232.944,37.286  235,27.5  L  104.132,0  C  100.019,19.573  0,20  0,20  z " />
<path transform="translate( 0, 0 )" style="stroke: hsl(107.6, 55%, 50%);" id="95"  d=" M  0,20  L  0,275.75  L  0,500  L  0,680  L  275,680  C  275,620  258.75,560  258.75,500  C  258.75,387.875  290,275.75  290,275.75  C  273.195,275.75  260.386,269.298  244.809,253.721  C  229.232,238.144  222.78,188  222.78,147.875  C  222.78,107.75  232.944,37.286  235,27.5  L  104.132,0  C  100.019,19.573  0,20  0,20  z " />
<path transform="translate( 0, 0 )" style="stroke: hsl(134.5, 55%, 50%);" id="119"  d=" M  0,20  L  0,275.75  L  0,500  L  0,680  L  275,680  C  275,620  258.75,560  258.75,500  C  258.75,387.875  290,275.75  290,275.75  C  273.547,275.75  261.275,269.387  245.914,254.026  C  230.553,238.665  224.19,188  224.19,147.875  C  224.19,107.75  232.944,37.286  235,27.5  L  104.132,0  C  100.019,19.573  0,20  0,20  z " />
<path transform="translate( 0, 0 )" style="stroke: hsl(161.4, 55%, 50%);" id="143"  d=" M  0,20  L  0,275.75  L  0,500  L  0,680  L  275,680  C  275,620  258.75,560  258.75,500  C  258.75,387.875  290,275.75  290,275.75  C  273.9,275.75  262.158,269.478  247.015,254.335  C  231.872,239.192  225.6,188  225.6,147.875  C  225.6,107.75  232.944,37.286  235,27.5  L  104.132,0  C  100.019,19.573  0,20  0,20  z " />
<path transform="translate( 0, 0 )" style="stroke: hsl(188.3, 55%, 50%);" id="167"  d=" M  0,20  L  0,275.75  L  0,500  L  0,680  L  275,680  C  275,620  258.75,560  258.75,500  C  258.75,387.875  290,275.75  290,275.75  C  274.252,275.75  263.032,269.57  248.111,254.649  C  233.19,239.728  227.01,188  227.01,147.875  C  227.01,107.75  232.944,37.286  235,27.5  L  104.132,0  C  100.019,19.573  0,20  0,20  z " />
<path transform="translate( 0, 0 )" style="stroke: hsl(215.2, 55%, 50%);" id="191"  d=" M  0,20  L  0,275.75  L  0,500  L  0,680  L  275,680  C  275,620  258.75,560  258.75,500  C  258.75,387.875  290,275.75  290,275.75  C  274.605,275.75  263.897,269.663  249.202,254.968  C  234.507,240.273  228.42,188  228.42,147.875  C  228.42,107.75  232.944,37.286  235,27.5  L  104.132,0  C  100.019,19.573  0,20  0,20  z " />
<path transform="translate( 0, 0 )" style="stroke: hsl(242.1, 55%, 50%);" id="215"  d=" M  0,20  L  0,275.75  L  0,500  L  0,680  L  275,680  C  275,620  258.75,560  258.75,500  C  258.75,387.875  290,275.75  290,275.75  C  274.957,275.75  264.756,269.758  250.289,255.291  C  235.822,240.824  229.83,188  229.83,147.875  C  229.83,107.75  232.944,37.286  235,27.5  L  104.132,0  C  100.019,19.573  0,20  0,20  z " />
<path transform="translate( 0, 0 )" style="stroke: hsl(269, 55%, 50%);" id="239"  d=" M  0,20  L  0,275.75  L  0,500  L  0,680  L  275,680  C  275,620  258.75,560  258.75,500  C  258.75,387.875  290,275.75  290,275.75  C  275.31,275.75  265.604,269.854  251.37,255.62  C  237.136,241.386  231.24,188  231.24,147.875  C  231.24,107.75  232.944,37.286  235,27.5  L  104.132,0  C  100.019,19.573  0,20  0,20  z " />
<path transform="translate( 0, 0 )" style="stroke: hsl(295.9, 55%, 50%);" id="263"  d=" M  0,20  L  0,275.75  L  0,500  L  0,680  L  275,680  C  275,620  258.75,560  258.75,500  C  258.75,387.875  290,275.75  290,275.75  C  275.662,275.75  266.444,269.952  252.446,255.954  C  238.448,241.956  232.65,188  232.65,147.875  C  232.65,107.75  232.944,37.286  235,27.5  L  104.132,0  C  100.019,19.573  0,20  0,20  z " />
    </g>
    <!-- End of group #back -->
    
    <!-- Start of group #front -->
    <g id="front"  transform=" translate(5 5)  translate(720.644 0) " >
        <path class="hidden" id="3"  d=" M  0,0  L  290,0  L  290,680  L  0,680  z " />
<path transform="translate( 0, 0 )" style="stroke: hsl(26.9, 55%, 50%);" id="24"  d=" M  0,99.167  L  0,275.75  L  0,500  L  0,680  L  275,680  C  275,620  258.75,560  258.75,500  C  258.75,387.875  290,275.75  290,275.75  C  272.137,275.75  257.675,269.037  241.469,252.831  C  225.263,236.625  224.275,188  224.275,147.875  C  224.275,107.75  232.944,37.286  235,27.5  L  104.132,0  C  100.019,19.573  104.132,99.167  0,99.167  z " />
<path transform="translate( 0, 0 )" style="stroke: hsl(53.8, 55%, 50%);" id="48"  d=" M  0,99.167  L  0,275.75  L  0,500  L  0,680  L  275,680  C  275,620  258.75,560  258.75,500  C  258.75,387.875  290,275.75  290,275.75  C  272.49,275.75  258.587,269.123  242.587,253.123  C  226.587,237.123  224.98,188  224.98,147.875  C  224.98,107.75  232.944,37.286  235,27.5  L  104.132,0  C  100.019,19.573  104.132,99.167  0,99.167  z " />
<path transform="translate( 0, 0 )" style="stroke: hsl(80.7, 55%, 50%);" id="72"  d=" M  0,99.167  L  0,275.75  L  0,500  L  0,680  L  275,680  C  275,620  258.75,560  258.75,500  C  258.75,387.875  290,275.75  290,275.75  C  272.842,275.75  259.49,269.21  243.7,253.42  C  227.91,237.63  225.685,188  225.685,147.875  C  225.685,107.75  232.944,37.286  235,27.5  L  104.132,0  C  100.019,19.573  104.132,99.167  0,99.167  z " />
<path transform="translate( 0, 0 )" style="stroke: hsl(107.6, 55%, 50%);" id="96"  d=" M  0,99.167  L  0,275.75  L  0,500  L  0,680  L  275,680  C  275,620  258.75,560  258.75,500  C  258.75,387.875  290,275.75  290,275.75  C  273.195,275.75  260.386,269.298  244.809,253.721  C  229.232,238.144  226.39,188  226.39,147.875  C  226.39,107.75  232.944,37.286  235,27.5  L  104.132,0  C  100.019,19.573  104.132,99.167  0,99.167  z " />
<path transform="translate( 0, 0 )" style="stroke: hsl(134.5, 55%, 50%);" id="120"  d=" M  0,99.167  L  0,275.75  L  0,500  L  0,680  L  275,680  C  275,620  258.75,560  258.75,500  C  258.75,387.875  290,275.75  290,275.75  C  273.547,275.75  261.275,269.387  245.914,254.026  C  230.553,238.665  227.095,188  227.095,147.875  C  227.095,107.75  232.944,37.286  235,27.5  L  104.132,0  C  100.019,19.573  104.132,99.167  0,99.167  z " />
<path transform="translate( 0, 0 )" style="stroke: hsl(161.4, 55%, 50%);" id="144"  d=" M  0,99.167  L  0,275.75  L  0,500  L  0,680  L  275,680  C  275,620  258.75,560  258.75,500  C  258.75,387.875  290,275.75  290,275.75  C  273.9,275.75  262.158,269.478  247.015,254.335  C  231.872,239.192  227.8,188  227.8,147.875  C  227.8,107.75  232.944,37.286  235,27.5  L  104.132,0  C  100.019,19.573  104.132,99.167  0,99.167  z " />
<path transform="translate( 0, 0 )" style="stroke: hsl(188.3, 55%, 50%);" id="168"  d=" M  0,99.167  L  0,275.75  L  0,500  L  0,680  L  275,680  C  275,620  258.75,560  258.75,500  C  258.75,387.875  290,275.75  290,275.75  C  274.252,275.75  263.032,269.57  248.111,254.649  C  233.19,239.728  228.505,188  228.505,147.875  C  228.505,107.75  232.944,37.286  235,27.5  L  104.132,0  C  100.019,19.573  104.132,99.167  0,99.167  z " />
<path transform="translate( 0, 0 )" style="stroke: hsl(215.2, 55%, 50%);" id="192"  d=" M  0,99.167  L  0,275.75  L  0,500  L  0,680  L  275,680  C  275,620  258.75,560  258.75,500  C  258.75,387.875  290,275.75  290,275.75  C  274.605,275.75  263.897,269.663  249.202,254.968  C  234.507,240.273  229.21,188  229.21,147.875  C  229.21,107.75  232.944,37.286  235,27.5  L  104.132,0  C  100.019,19.573  104.132,99.167  0,99.167  z " />
<path transform="translate( 0, 0 )" style="stroke: hsl(242.1, 55%, 50%);" id="216"  d=" M  0,99.167  L  0,275.75  L  0,500  L  0,680  L  275,680  C  275,620  258.75,560  258.75,500  C  258.75,387.875  290,275.75  290,275.75  C  274.957,275.75  264.756,269.758  250.289,255.291  C  235.822,240.824  229.915,188  229.915,147.875  C  229.915,107.75  232.944,37.286  235,27.5  L  104.132,0  C  100.019,19.573  104.132,99.167  0,99.167  z " />
<path transform="translate( 0, 0 )" style="stroke: hsl(269, 55%, 50%);" id="240"  d=" M  0,99.167  L  0,275.75  L  0,500  L  0,680  L  275,680  C  275,620  258.75,560  258.75,500  C  258.75,387.875  290,275.75  290,275.75  C  275.31,275.75  265.604,269.854  251.37,255.62  C  237.136,241.386  230.62,188  230.62,147.875  C  230.62,107.75  232.944,37.286  235,27.5  L  104.132,0  C  100.019,19.573  104.132,99.167  0,99.167  z " />
<path transform="translate( 0, 0 )" style="stroke: hsl(295.9, 55%, 50%);" id="264"  d=" M  0,99.167  L  0,275.75  L  0,500  L  0,680  L  275,680  C  275,620  258.75,560  258.75,500  C  258.75,387.875  290,275.75  290,275.75  C  275.662,275.75  266.444,269.952  252.446,255.954  C  238.448,241.956  231.325,188  231.325,147.875  C  231.325,107.75  232.944,37.286  235,27.5  L  104.132,0  C  100.019,19.573  104.132,99.167  0,99.167  z " />
    </g>
    <!-- End of group #front -->
    
    <!-- Start of group #sleeve -->
    <g id="sleeve"  transform=" translate(210.322 5)  translate(0 0) " >
        <path class="hidden" id="4"  d=" M  -205.322,0  L  205.322,0  L  205.322,700  L  -205.322,700  z " />
<path transform="translate( 0, 0 )" style="stroke: hsl(26.9, 55%, 50%);" id="25"  d=" M  -125,700  L  -205.322,178.911  C  -205.322,178.911  -168.796,145.734  -150.272,125.115  C  -131.748,104.496  -102.661,64.637  -102.661,64.637  C  -102.661,64.637  -82.779,34.393  -59.323,19.625  C  -35.867,4.857  -27.718,-0  5,0  C  27.718,0  45.225,4.844  67.509,21.328  C  89.793,37.812  107.661,79.637  107.661,79.637  C  107.661,79.637  126.36,120.034  145.798,139.793  C  165.236,159.552  205.322,178.911  205.322,178.911  L  125,700  z " />
<path transform="translate( 0, 0 )" style="stroke: hsl(53.8, 55%, 50%);" id="49"  d=" M  -125,700  L  -204.906,177.413  C  -204.906,177.413  -168.527,144.645  -149.972,124.13  C  -131.417,103.615  -102.453,64.138  -102.453,64.138  C  -102.453,64.138  -82.632,34.033  -59.185,19.355  C  -35.738,4.677  -27.662,-0  5,0  C  27.662,0  45.092,4.646  67.365,21.05  C  89.638,37.454  107.453,79.138  107.453,79.138  C  107.453,79.138  126.051,119.196  145.529,138.838  C  165.007,158.48  204.906,177.413  204.906,177.413  L  125,700  z " />
<path transform="translate( 0, 0 )" style="stroke: hsl(80.7, 55%, 50%);" id="73"  d=" M  -125,700  L  -204.603,176.322  C  -204.603,176.322  -168.331,143.851  -149.752,123.411  C  -131.173,102.971  -102.302,63.774  -102.302,63.774  C  -102.302,63.774  -82.526,33.77  -59.086,19.158  C  -35.646,4.546  -27.622,-0  5,0  C  27.622,0  44.996,4.501  67.262,20.847  C  89.528,37.193  107.302,78.774  107.302,78.774  C  107.302,78.774  125.826,118.585  145.333,138.141  C  164.84,157.697  204.603,176.322  204.603,176.322  L  125,700  z " />
<path transform="translate( 0, 0 )" style="stroke: hsl(107.6, 55%, 50%);" id="97"  d=" M  -125,700  L  -204.343,175.385  C  -204.343,175.385  -168.163,143.169  -149.565,122.795  C  -130.967,102.421  -102.172,63.462  -102.172,63.462  C  -102.172,63.462  -82.434,33.544  -59,18.989  C  -35.566,4.434  -27.586,-0  5,0  C  27.586,0  44.915,4.377  67.173,20.673  C  89.431,36.969  107.172,78.462  107.172,78.462  C  107.172,78.462  125.634,118.063  145.165,137.544  C  164.696,157.025  204.343,175.385  204.343,175.385  L  125,700  z " />
<path transform="translate( 0, 0 )" style="stroke: hsl(134.5, 55%, 50%);" id="121"  d=" M  -125,700  L  -203.861,173.649  C  -203.861,173.649  -167.853,141.903  -149.217,121.652  C  -130.581,101.401  -101.931,62.883  -101.931,62.883  C  -101.931,62.883  -82.263,33.125  -58.841,18.675  C  -35.419,4.225  -27.521,-0  5,0  C  27.521,0  44.761,4.148  67.007,20.351  C  89.253,36.554  106.931,77.883  106.931,77.883  C  106.931,77.883  125.277,117.094  144.854,136.436  C  164.431,155.778  203.861,173.649  203.861,173.649  L  125,700  z " />
<path transform="translate( 0, 0 )" style="stroke: hsl(161.4, 55%, 50%);" id="145"  d=" M  -125,700  L  -203.712,173.114  C  -203.712,173.114  -167.756,141.512  -149.109,121.299  C  -130.462,101.086  -101.856,62.705  -101.856,62.705  C  -101.856,62.705  -82.211,32.996  -58.792,18.579  C  -35.373,4.162  -27.501,-0  5,0  C  27.501,0  44.713,4.076  66.955,20.25  C  89.197,36.424  106.856,77.705  106.856,77.705  C  106.856,77.705  125.166,116.797  144.758,136.096  C  164.35,155.395  203.712,173.114  203.712,173.114  L  125,700  z " />
<path transform="translate( 0, 0 )" style="stroke: hsl(188.3, 55%, 50%);" id="169"  d=" M  -125,700  L  -203.383,171.93  C  -203.383,171.93  -167.545,140.649  -148.872,120.52  C  -130.199,100.391  -101.692,62.31  -101.692,62.31  C  -101.692,62.31  -82.095,32.71  -58.683,18.365  C  -35.271,4.02  -27.457,-0  5,0  C  27.457,0  44.607,3.92  66.841,20.031  C  89.075,36.142  106.692,77.31  106.692,77.31  C  106.692,77.31  124.923,116.137  144.547,135.341  C  164.171,154.545  203.383,171.93  203.383,171.93  L  125,700  z " />
<path transform="translate( 0, 0 )" style="stroke: hsl(215.2, 55%, 50%);" id="193"  d=" M  -125,700  L  -202.91,170.227  C  -202.91,170.227  -167.241,139.406  -148.53,119.399  C  -129.819,99.392  -101.455,61.742  -101.455,61.742  C  -101.455,61.742  -81.925,32.298  -58.525,18.057  C  -35.125,3.816  -27.393,-0  5,0  C  27.393,0  44.456,3.695  66.677,19.714  C  88.898,35.733  106.455,76.742  106.455,76.742  C  106.455,76.742  124.573,115.19  144.243,134.255  C  163.913,153.32  202.91,170.227  202.91,170.227  L  125,700  z " />
<path transform="translate( 0, 0 )" style="stroke: hsl(242.1, 55%, 50%);" id="217"  d=" M  -125,700  L  -202.765,169.703  C  -202.765,169.703  -167.148,139.024  -148.426,119.055  C  -129.704,99.086  -101.383,61.568  -101.383,61.568  C  -101.383,61.568  -81.874,32.171  -58.477,17.963  C  -35.08,3.755  -27.373,-0  5,0  C  27.373,0  44.41,3.626  66.627,19.616  C  88.844,35.606  106.383,76.568  106.383,76.568  C  106.383,76.568  124.467,114.901  144.151,133.922  C  163.835,152.943  202.765,169.703  202.765,169.703  L  125,700  z " />
<path transform="translate( 0, 0 )" style="stroke: hsl(269, 55%, 50%);" id="241"  d=" M  -125,700  L  -202.442,168.542  C  -202.442,168.542  -166.941,138.176  -148.193,118.291  C  -129.445,98.406  -101.221,61.181  -101.221,61.181  C  -101.221,61.181  -81.759,31.891  -58.37,17.754  C  -34.981,3.617  -27.33,-0  5,0  C  27.33,0  44.306,3.473  66.515,19.401  C  88.724,35.329  106.221,76.181  106.221,76.181  C  106.221,76.181  124.228,114.257  143.945,133.183  C  163.662,152.109  202.442,168.542  202.442,168.542  L  125,700  z " />
<path transform="translate( 0, 0 )" style="stroke: hsl(295.9, 55%, 50%);" id="265"  d=" M  -125,700  L  -202.226,167.764  C  -202.226,167.764  -166.804,137.609  -148.038,117.78  C  -129.272,97.951  -101.113,60.921  -101.113,60.921  C  -101.113,60.921  -81.682,31.701  -58.297,17.612  C  -34.912,3.523  -27.301,-0  5,0  C  27.301,0  44.237,3.37  66.44,19.256  C  88.643,35.142  106.113,75.921  106.113,75.921  C  106.113,75.921  124.069,113.827  143.807,132.688  C  163.545,151.549  202.226,167.764  202.226,167.764  L  125,700  z " />
    </g>
    <!-- End of group #sleeve -->
    
    <!-- Start of group #hemRibbing -->
    <g id="hemRibbing" >
    </g>
    <!-- End of group #hemRibbing -->
    
    <!-- Start of group #sleeveRibbing -->
    <g id="sleeveRibbing" >
    </g>
    <!-- End of group #sleeveRibbing -->
    
    <!-- Start of group #sampler-back -->
    <g id="sampler-back" >
    </g>
    <!-- End of group #sampler-back -->
    
    <!-- Start of group #sampler-front -->
    <g id="sampler-front" >
    </g>
    <!-- End of group #sampler-front -->
    
    <!-- Start of group #sampler-sleeve -->
    <g id="sampler-sleeve" >
    </g>
    <!-- End of group #sampler-sleeve -->
</g>
<!-- End of group #patternContainer -->

</svg>

