<?xml version="1.0" encoding="UTF-8" standalone="no"?>
<svg
    width ="2775.2740184"
    height ="1125.7051191859"
    viewbox ="0 0 2775.2740184 1125.7051191859" xmlns:dc="http://purl.org/dc/elements/1.1/"
    xmlns:cc="http://creativecommons.org/ns#"
    xmlns:rdf="http://www.w3.org/1999/02/22-rdf-syntax-ns#"
    xmlns:svg="http://www.w3.org/2000/svg"
    xmlns="http://www.w3.org/2000/svg"
    xmlns:xlink="http://www.w3.org/1999/xlink"
    xmlns:sodipodi="http://sodipodi.sourceforge.net/DTD/sodipodi-0.dtd"
    xmlns:inkscape="http://www.inkscape.org/namespaces/inkscape" 
>

<style type="text/css">
    <![CDATA[
    path { fill: none; stroke: #000000; stroke-opacity:1; stroke-width: 0.5; stroke-miterlimit:4; stroke-dashoffset:0; stroke-linecap:round; stroke-linejoin:round; }
    path.hidden { fill: none; stroke: none; }
    path.compare { fill: #000000; fill-opacity: 0.05; stroke: #000000; stroke-opacity:0.5; stroke-width: 1; stroke-linecap:round; stroke-linejoin:round; }]]>
</style>


<!-- Start of group #patternScaleContainer -->
<g id="patternScaleContainer"  transform=" scale(3.54330709 ) " >
    
    <!-- Start of group #block -->
    <g id="block"  transform=" translate(0 0)  translate(783.244 0) " >
    </g>
    <!-- End of group #block -->
    
    <!-- Start of group #front -->
    <g id="front"  transform=" translate(118.121 11.325)  translate(389.973 0) " >
        <path class="hidden" id="2"  d=" M  -113.121,-6.325  L  113.121,-6.325  L  113.121,254.243  L  -113.121,254.243  z " />
<path transform="translate( 0, 0 )" style="stroke: hsl(0, 55%, 50%);" id="18"  d=" M  -81.083,70  L  -77.583,-4.512  C  -77.583,-4.512  -38.792,0  0,0  C  38.792,0  77.583,-4.513  77.583,-4.513  L  81.083,70  C  22.342,91.38  43.428,147.379  64.808,206.12  L  46.734,212.699  C  46.734,212.699  9.764,176.349  0,149.524  C  -9.764,176.349  -46.734,212.699  -46.734,212.699  L  -64.808,206.12  C  -43.428,147.379  -22.342,91.38  -81.083,70  z " />
<path transform="translate( 0, 0 )" style="stroke: hsl(44.833333333333, 55%, 50%);" id="38"  d=" M  -87.491,73.5  L  -83.816,-4.875  C  -83.816,-4.875  -41.908,0  0,0  C  41.908,0  83.816,-4.875  83.816,-4.875  L  87.491,73.5  C  24.032,96.597  44.97,151.729  68.068,215.188  L  48.542,222.295  C  48.542,222.295  10.095,183.462  0,155.725  C  -10.095,183.462  -48.542,222.295  -48.542,222.295  L  -68.068,215.188  C  -44.97,151.729  -24.032,96.597  -87.491,73.5  z " />
<path transform="translate( 0, 0 )" style="stroke: hsl(89.666666666667, 55%, 50%);" id="58"  d=" M  -93.898,77  L  -90.048,-5.237  C  -90.048,-5.237  -45.024,0  0,0  C  45.024,0  90.048,-5.238  90.048,-5.238  L  93.898,77  C  25.72,101.815  46.057,154.825  70.872,223.004  L  49.894,230.639  C  49.894,230.639  10.32,189.415  0,161.06  C  -10.32,189.415  -49.894,230.639  -49.894,230.639  L  -70.872,223.004  C  -46.057,154.825  -25.72,101.815  -93.898,77  z " />
<path transform="translate( 0, 0 )" style="stroke: hsl(134.5, 55%, 50%);" id="78"  d=" M  -100.306,80.5  L  -96.281,-5.6  C  -96.281,-5.6  -48.141,0  0,0  C  48.141,0  96.281,-5.6  96.281,-5.6  L  100.306,80.5  C  27.408,107.033  46.984,157.485  73.516,230.383  L  51.087,238.546  C  51.087,238.546  10.509,194.965  0,166.093  C  -10.509,194.965  -51.087,238.546  -51.087,238.546  L  -73.516,230.383  C  -46.984,157.485  -27.408,107.033  -100.306,80.5  z " />
<path transform="translate( 0, 0 )" style="stroke: hsl(179.33333333333, 55%, 50%);" id="98"  d=" M  -106.713,84  L  -102.513,-5.962  C  -102.513,-5.962  -51.257,0  0,0  C  51.257,0  102.513,-5.963  102.513,-5.963  L  106.713,84  C  29.097,112.25  47.922,160.173  76.172,237.789  L  52.29,246.482  C  52.29,246.482  10.699,200.541  0,171.145  C  -10.699,200.541  -52.29,246.482  -52.29,246.482  L  -76.172,237.789  C  -47.922,160.173  -29.097,112.25  -106.713,84  z " />
<path transform="translate( 0, 0 )" style="stroke: hsl(224.16666666667, 55%, 50%);" id="118"  d=" M  -113.121,87.5  L  -108.746,-6.325  C  -108.746,-6.325  -54.373,0  0,0  C  54.373,0  108.746,-6.325  108.746,-6.325  L  113.121,87.5  C  30.786,117.467  48.796,162.687  78.764,245.022  L  53.429,254.243  C  53.429,254.243  10.875,205.955  0,176.076  C  -10.875,205.955  -53.429,254.243  -53.429,254.243  L  -78.764,245.022  C  -48.796,162.687  -30.786,117.467  -113.121,87.5  z " />
<path transform="translate( 0, 0 )" class="compare" id="138"  d=" M  -110.044,84  L  -105.844,-6.156  C  -105.844,-6.156  -52.922,0  0,0  C  52.922,0  105.844,-6.156  105.844,-6.156  L  110.044,84  C  29.906,113.168  48.662,160.38  77.83,240.518  L  53.172,249.493  C  53.172,249.493  10.858,202.272  0,172.44  C  -10.858,202.272  -53.172,249.493  -53.172,249.493  L  -77.83,240.518  C  -48.662,160.38  -29.906,113.168  -110.044,84  z " />
    </g>
    <!-- End of group #front -->
    
    <!-- Start of group #back -->
    <g id="back"  transform=" translate(5 5.3)  translate(0 0) " >
        <path class="hidden" id="3"  d=" M  0,-0.3  L  172.865,-0.3  L  172.865,307.399  L  0,307.399  z " />
<path transform="translate( 0, 0 )" style="stroke: hsl(0, 55%, 50%);" id="19"  d=" M  0,190  C  24.043,190  24.043,238.085  24.043,238.085  L  141.603,220.572  L  99.75,11.462  C  99.75,11.462  49.875,6.95  0,6.95  L  0,190  z " />
<path transform="translate( 0, 0 )" style="stroke: hsl(44.833333333333, 55%, 50%);" id="39"  d=" M  0,200  C  25.974,200  25.974,251.948  25.974,251.948  L  147.643,231.179  L  107.763,10.375  C  107.763,10.375  53.882,5.5  0,5.5  L  0,200  z " />
<path transform="translate( 0, 0 )" style="stroke: hsl(89.666666666667, 55%, 50%);" id="59"  d=" M  0,210  C  27.905,210  27.905,265.811  27.905,265.811  L  153.618,241.721  L  115.776,9.287  C  115.776,9.287  57.888,4.05  0,4.05  L  0,210  z " />
<path transform="translate( 0, 0 )" style="stroke: hsl(134.5, 55%, 50%);" id="79"  d=" M  0,220  C  29.837,220  29.837,279.674  29.837,279.674  L  159.532,252.206  L  123.789,8.2  C  123.789,8.2  61.895,2.6  0,2.6  L  0,220  z " />
<path transform="translate( 0, 0 )" style="stroke: hsl(179.33333333333, 55%, 50%);" id="99"  d=" M  0,230  C  31.768,230  31.768,293.536  31.768,293.536  L  165.385,262.639  L  131.803,7.112  C  131.803,7.112  65.902,1.15  0,1.15  L  0,230  z " />
<path transform="translate( 0, 0 )" style="stroke: hsl(224.16666666667, 55%, 50%);" id="119"  d=" M  0,240  C  33.7,240  33.7,307.399  33.7,307.399  L  171.182,273.025  L  139.816,6.025  C  139.816,6.025  69.908,-0.3  0,-0.3  L  0,240  z " />
<path transform="translate( 0, 0 )" class="compare" id="139"  d=" M  0,230  C  32.801,230  32.801,295.601  32.801,295.601  L  172.865,262.165  L  136.086,6.531  C  136.086,6.531  68.043,0.375  0,0.375  L  0,230  z " />
    </g>
    <!-- End of group #back -->
    
    <!-- Start of group #side -->
    <g id="side"  transform=" translate(6.81 -1.025)  translate(182.865 0) " >
        <path class="hidden" id="4"  d=" M  -1.81,6.025  L  195.298,6.025  L  195.298,275  L  -1.81,275  z " />
<path transform="translate( 0, 0 )" style="stroke: hsl(0, 55%, 50%);" id="20"  d=" M  0,11.462  L  139.333,20.487  L  139.333,225  L  -1.81,224.992  z " />
<path transform="translate( 0, 0 )" style="stroke: hsl(44.833333333333, 55%, 50%);" id="40"  d=" M  0,10.375  L  150.526,20.125  L  150.526,235  L  3.955,234.963  z " />
<path transform="translate( 0, 0 )" style="stroke: hsl(89.666666666667, 55%, 50%);" id="60"  d=" M  0,9.287  L  161.719,19.762  L  161.719,245  L  9.719,244.785  z " />
<path transform="translate( 0, 0 )" style="stroke: hsl(134.5, 55%, 50%);" id="80"  d=" M  0,8.2  L  172.912,19.4  L  172.912,255  L  15.484,254.478  z " />
<path transform="translate( 0, 0 )" style="stroke: hsl(179.33333333333, 55%, 50%);" id="100"  d=" M  0,7.112  L  184.105,19.037  L  184.105,265  L  21.251,264.057  z " />
<path transform="translate( 0, 0 )" style="stroke: hsl(224.16666666667, 55%, 50%);" id="120"  d=" M  0,6.025  L  195.298,18.675  L  195.298,275  L  27.019,273.536  z " />
<path transform="translate( 0, 0 )" class="compare" id="140"  d=" M  0,6.531  L  190.088,18.844  L  190.088,265  L  19.09,264.239  z " />
    </g>
    <!-- End of group #side -->
    
    <!-- Start of group #inset -->
    <g id="inset"  transform=" translate(5 5)  translate(626.215 0) " >
        <path class="hidden" id="5"  d=" M  0,0  L  147.029,0  L  147.029,162.5  L  0,162.5  z " />
<path transform="translate( 0, 0 )" style="stroke: hsl(0, 55%, 50%);" id="21"  d=" M  0,0  L  0,130  L  111.429,130  L  121.293,91.655  C  51.439,73.686  57.702,0  0,0  z " />
<path transform="translate( 0, 0 )" style="stroke: hsl(44.833333333333, 55%, 50%);" id="41"  d=" M  0,0  L  0,136.5  L  115.714,136.5  L  125.981,94.977  C  50.337,76.273  62.338,0  0,0  z " />
<path transform="translate( 0, 0 )" style="stroke: hsl(89.666666666667, 55%, 50%);" id="61"  d=" M  0,0  L  0,143  L  120,143  L  130.668,98.301  C  49.239,78.867  66.973,0  0,0  z " />
<path transform="translate( 0, 0 )" style="stroke: hsl(134.5, 55%, 50%);" id="81"  d=" M  0,0  L  0,149.5  L  124.286,149.5  L  135.354,101.627  C  48.144,81.465  71.608,0  0,0  z " />
<path transform="translate( 0, 0 )" style="stroke: hsl(179.33333333333, 55%, 50%);" id="101"  d=" M  0,0  L  0,156  L  128.571,156  L  140.036,104.957  C  47.048,84.071  76.244,0  0,0  z " />
<path transform="translate( 0, 0 )" style="stroke: hsl(224.16666666667, 55%, 50%);" id="121"  d=" M  0,0  L  0,162.5  L  132.857,162.5  L  144.719,108.286  C  45.956,86.677  80.879,0  0,0  z " />
<path transform="translate( 0, 0 )" class="compare" id="141"  d=" M  0,0  L  0,156  L  135,156  L  147.029,103.341  C  51.098,81.427  78.721,0  0,0  z " />
    </g>
    <!-- End of group #inset -->
    
    <!-- Start of group #sampler-front -->
    <g id="sampler-front"  transform=" translate(0 0)  translate(783.244 0) " >
    </g>
    <!-- End of group #sampler-front -->
    
    <!-- Start of group #sampler-back -->
    <g id="sampler-back"  transform=" translate(0 0)  translate(783.244 0) " >
    </g>
    <!-- End of group #sampler-back -->
    
    <!-- Start of group #sampler-side -->
    <g id="sampler-side"  transform=" translate(0 0)  translate(783.244 0) " >
    </g>
    <!-- End of group #sampler-side -->
    
    <!-- Start of group #sampler-inset -->
    <g id="sampler-inset"  transform=" translate(0 0)  translate(783.244 0) " >
    </g>
    <!-- End of group #sampler-inset -->
</g>
<!-- End of group #patternScaleContainer -->

</svg>

