<?xml version="1.0" encoding="UTF-8" standalone="no"?>
<svg
    width ="2716.3523648003"
    height ="1302.8704736859"
    viewbox ="0 0 2716.3523648003 1302.8704736859" xmlns:dc="http://purl.org/dc/elements/1.1/"
    xmlns:cc="http://creativecommons.org/ns#"
    xmlns:rdf="http://www.w3.org/1999/02/22-rdf-syntax-ns#"
    xmlns:svg="http://www.w3.org/2000/svg"
    xmlns="http://www.w3.org/2000/svg"
    xmlns:xlink="http://www.w3.org/1999/xlink"
    xmlns:sodipodi="http://sodipodi.sourceforge.net/DTD/sodipodi-0.dtd"
    xmlns:inkscape="http://www.inkscape.org/namespaces/inkscape" 
>

<style type="text/css">
    <![CDATA[
    path { fill: none; stroke: #000000; stroke-opacity:1; stroke-width: 0.5; stroke-miterlimit:4; stroke-dashoffset:0; stroke-linecap:round; stroke-linejoin:round; }
    path.hidden { fill: none; stroke: none; }
    path.compare { fill: #000000; fill-opacity: 0.05; stroke: #000000; stroke-opacity:0.5; stroke-width: 1; stroke-linecap:round; stroke-linejoin:round; }]]>
</style>


<!-- Start of group #patternScaleContainer -->
<g id="patternScaleContainer"  transform=" scale(3.54330709 ) " >
    
    <!-- Start of group #block -->
    <g id="block"  transform=" translate(0 0)  translate(766.615 0) " >
    </g>
    <!-- End of group #block -->
    
    <!-- Start of group #front -->
    <g id="front"  transform=" translate(118.384 11.325)  translate(375.128 0) " >
        <path class="hidden" id="2"  d=" M  -113.384,-6.325  L  113.384,-6.325  L  113.384,267.811  L  -113.384,267.811  z " />
<path transform="translate( 0, 0 )" style="stroke: hsl(0, 55%, 50%);" id="18"  d=" M  -81.346,75.25  L  -77.583,-4.512  C  -77.583,-4.512  -38.792,0  0,0  C  38.792,0  77.583,-4.513  77.583,-4.513  L  81.346,75.25  C  22.605,96.63  46.879,162.157  68.26,220.899  L  50.185,227.477  C  50.185,227.477  10.565,190.331  0,161.303  C  -10.565,190.331  -50.185,227.477  -50.185,227.477  L  -68.26,220.899  C  -46.879,162.157  -22.605,96.63  -81.346,75.25  z " />
<path transform="translate( 0, 0 )" style="stroke: hsl(44.833333333333, 55%, 50%);" id="38"  d=" M  -87.754,78.75  L  -83.816,-4.875  C  -83.816,-4.875  -41.908,0  0,0  C  41.908,0  83.816,-4.875  83.816,-4.875  L  87.754,78.75  C  24.295,101.847  47.937,165.176  71.035,228.636  L  51.509,235.742  C  51.509,235.742  10.784,196.212  0,166.583  C  -10.784,196.212  -51.509,235.742  -51.509,235.742  L  -71.035,228.636  C  -47.937,165.176  -24.295,101.847  -87.754,78.75  z " />
<path transform="translate( 0, 0 )" style="stroke: hsl(89.666666666667, 55%, 50%);" id="58"  d=" M  -94.161,82.25  L  -90.048,-5.237  C  -90.048,-5.237  -45.024,0  0,0  C  45.024,0  90.048,-5.238  90.048,-5.238  L  94.161,82.25  C  25.983,107.065  48.934,168.027  73.749,236.205  L  52.771,243.84  C  52.771,243.84  10.988,201.938  0,171.748  C  -10.988,201.938  -52.771,243.84  -52.771,243.84  L  -73.749,236.205  C  -48.934,168.027  -25.983,107.065  -94.161,82.25  z " />
<path transform="translate( 0, 0 )" style="stroke: hsl(134.5, 55%, 50%);" id="78"  d=" M  -100.569,85.75  L  -96.281,-5.6  C  -96.281,-5.6  -48.141,0  0,0  C  48.141,0  96.281,-5.6  96.281,-5.6  L  100.569,85.75  C  27.671,112.283  49.887,170.758  76.419,243.655  L  53.99,251.819  C  53.99,251.819  11.182,207.553  0,176.83  C  -11.182,207.553  -53.99,251.819  -53.99,251.819  L  -76.419,243.655  C  -49.887,170.758  -27.671,112.283  -100.569,85.75  z " />
<path transform="translate( 0, 0 )" style="stroke: hsl(179.33333333333, 55%, 50%);" id="98"  d=" M  -106.976,89.25  L  -102.513,-5.962  C  -102.513,-5.962  -51.257,0  0,0  C  51.257,0  102.513,-5.963  102.513,-5.963  L  106.976,89.25  C  29.36,117.5  50.871,173.571  79.121,251.187  L  55.239,259.879  C  55.239,259.879  11.383,213.245  0,181.969  C  -11.383,213.245  -55.239,259.879  -55.239,259.879  L  -79.121,251.187  C  -50.871,173.571  -29.36,117.5  -106.976,89.25  z " />
<path transform="translate( 0, 0 )" style="stroke: hsl(224.16666666667, 55%, 50%);" id="118"  d=" M  -113.384,92.75  L  -108.746,-6.325  C  -108.746,-6.325  -54.373,0  0,0  C  54.373,0  108.746,-6.325  108.746,-6.325  L  113.384,92.75  C  31.049,122.717  51.807,176.256  81.775,258.59  L  56.44,267.811  C  56.44,267.811  11.574,218.817  0,187.018  C  -11.574,218.817  -56.44,267.811  -56.44,267.811  L  -81.775,258.59  C  -51.807,176.256  -31.049,122.717  -113.384,92.75  z " />
<path transform="translate( 0, 0 )" class="compare" id="138"  d=" M  -110.845,89.25  L  -106.382,-6.187  C  -106.382,-6.187  -53.191,0  0,0  C  53.191,0  106.382,-6.188  106.382,-6.188  L  110.845,89.25  C  30.3,118.566  49.428,167.486  78.744,248.031  L  53.961,257.051  C  53.961,257.051  11.031,209.405  0,179.097  C  -11.031,209.405  -53.961,257.051  -53.961,257.051  L  -78.744,248.031  C  -49.428,167.486  -30.3,118.566  -110.845,89.25  z " />
    </g>
    <!-- End of group #front -->
    
    <!-- Start of group #back -->
    <g id="back"  transform=" translate(5 30.3)  translate(0 0) " >
        <path class="hidden" id="3"  d=" M  0,-25.3  L  158.02,-25.3  L  158.02,332.399  L  0,332.399  z " />
<path transform="translate( 0, 0 )" style="stroke: hsl(0, 55%, 50%);" id="19"  d=" M  0,215  C  24.043,215  24.043,263.085  24.043,263.085  L  131.655,212.62  L  99.75,-13.538  C  99.75,-13.538  49.875,-18.05  0,-18.05  L  0,215  z " />
<path transform="translate( 0, 0 )" style="stroke: hsl(44.833333333333, 55%, 50%);" id="39"  d=" M  0,225  C  25.974,225  25.974,276.948  25.974,276.948  L  137.031,223.088  L  107.763,-14.625  C  107.763,-14.625  53.882,-19.5  0,-19.5  L  0,225  z " />
<path transform="translate( 0, 0 )" style="stroke: hsl(89.666666666667, 55%, 50%);" id="59"  d=" M  0,235  C  27.905,235  27.905,290.811  27.905,290.811  L  142.354,233.492  L  115.776,-15.713  C  115.776,-15.713  57.888,-20.95  0,-20.95  L  0,235  z " />
<path transform="translate( 0, 0 )" style="stroke: hsl(134.5, 55%, 50%);" id="79"  d=" M  0,245  C  29.837,245  29.837,304.674  29.837,304.674  L  147.625,243.838  L  123.789,-16.8  C  123.789,-16.8  61.895,-22.4  0,-22.4  L  0,245  z " />
<path transform="translate( 0, 0 )" style="stroke: hsl(179.33333333333, 55%, 50%);" id="99"  d=" M  0,255  C  31.768,255  31.768,318.536  31.768,318.536  L  152.847,254.13  L  131.803,-17.888  C  131.803,-17.888  65.902,-23.85  0,-23.85  L  0,255  z " />
<path transform="translate( 0, 0 )" style="stroke: hsl(224.16666666667, 55%, 50%);" id="119"  d=" M  0,265  C  33.7,265  33.7,332.399  33.7,332.399  L  158.02,264.374  L  139.816,-18.975  C  139.816,-18.975  69.908,-25.3  0,-25.3  L  0,265  z " />
<path transform="translate( 0, 0 )" class="compare" id="139"  d=" M  0,255  C  32.967,255  32.967,320.934  32.967,320.934  L  152.938,254.487  L  136.776,-18.563  C  136.776,-18.563  68.388,-24.75  0,-24.75  L  0,255  z " />
    </g>
    <!-- End of group #back -->
    
    <!-- Start of group #side -->
    <g id="side"  transform=" translate(6.81 23.975)  translate(168.02 0) " >
        <path class="hidden" id="4"  d=" M  -1.81,-18.975  L  195.298,-18.975  L  195.298,265  L  -1.81,265  z " />
<path transform="translate( 0, 0 )" style="stroke: hsl(0, 55%, 50%);" id="20"  d=" M  0,-13.538  L  139.333,-4.513  L  139.333,215  L  -1.81,214.993  z " />
<path transform="translate( 0, 0 )" style="stroke: hsl(44.833333333333, 55%, 50%);" id="40"  d=" M  0,-14.625  L  150.526,-4.875  L  150.526,225  L  3.955,224.965  z " />
<path transform="translate( 0, 0 )" style="stroke: hsl(89.666666666667, 55%, 50%);" id="60"  d=" M  0,-15.713  L  161.719,-5.238  L  161.719,235  L  9.719,234.799  z " />
<path transform="translate( 0, 0 )" style="stroke: hsl(134.5, 55%, 50%);" id="80"  d=" M  0,-16.8  L  172.912,-5.6  L  172.912,245  L  15.484,244.51  z " />
<path transform="translate( 0, 0 )" style="stroke: hsl(179.33333333333, 55%, 50%);" id="100"  d=" M  0,-17.888  L  184.105,-5.963  L  184.105,255  L  21.25,254.113  z " />
<path transform="translate( 0, 0 )" style="stroke: hsl(224.16666666667, 55%, 50%);" id="120"  d=" M  0,-18.975  L  195.298,-6.325  L  195.298,265  L  27.018,263.619  z " />
<path transform="translate( 0, 0 )" class="compare" id="140"  d=" M  0,-18.563  L  191.053,-6.188  L  191.053,255  L  28.203,253.435  z " />
    </g>
    <!-- End of group #side -->
    
    <!-- Start of group #inset -->
    <g id="inset"  transform=" translate(5 5)  translate(611.896 0) " >
        <path class="hidden" id="5"  d=" M  0,0  L  144.719,0  L  144.719,172.25  L  0,172.25  z " />
<path transform="translate( 0, 0 )" style="stroke: hsl(0, 55%, 50%);" id="21"  d=" M  0,0  L  0,139.75  L  111.429,139.75  L  121.293,101.405  C  51.439,83.436  57.702,0  0,0  z " />
<path transform="translate( 0, 0 )" style="stroke: hsl(44.833333333333, 55%, 50%);" id="41"  d=" M  0,0  L  0,146.25  L  115.714,146.25  L  125.981,104.727  C  50.337,86.023  62.338,0  0,0  z " />
<path transform="translate( 0, 0 )" style="stroke: hsl(89.666666666667, 55%, 50%);" id="61"  d=" M  0,0  L  0,152.75  L  120,152.75  L  130.668,108.051  C  49.239,88.617  66.973,0  0,0  z " />
<path transform="translate( 0, 0 )" style="stroke: hsl(134.5, 55%, 50%);" id="81"  d=" M  0,0  L  0,159.25  L  124.286,159.25  L  135.354,111.377  C  48.144,91.215  71.608,0  0,0  z " />
<path transform="translate( 0, 0 )" style="stroke: hsl(179.33333333333, 55%, 50%);" id="101"  d=" M  0,0  L  0,165.75  L  128.571,165.75  L  140.036,114.707  C  47.048,93.821  76.244,0  0,0  z " />
<path transform="translate( 0, 0 )" style="stroke: hsl(224.16666666667, 55%, 50%);" id="121"  d=" M  0,0  L  0,172.25  L  132.857,172.25  L  144.719,118.036  C  45.956,96.427  80.879,0  0,0  z " />
<path transform="translate( 0, 0 )" class="compare" id="141"  d=" M  0,0  L  0,165.75  L  128.571,165.75  L  140.056,112.689  C  43.393,91.766  79.121,0  0,0  z " />
    </g>
    <!-- End of group #inset -->
    
    <!-- Start of group #sampler-front -->
    <g id="sampler-front"  transform=" translate(0 0)  translate(766.615 0) " >
    </g>
    <!-- End of group #sampler-front -->
    
    <!-- Start of group #sampler-back -->
    <g id="sampler-back"  transform=" translate(0 0)  translate(766.615 0) " >
    </g>
    <!-- End of group #sampler-back -->
    
    <!-- Start of group #sampler-side -->
    <g id="sampler-side"  transform=" translate(0 0)  translate(766.615 0) " >
    </g>
    <!-- End of group #sampler-side -->
    
    <!-- Start of group #sampler-inset -->
    <g id="sampler-inset"  transform=" translate(0 0)  translate(766.615 0) " >
    </g>
    <!-- End of group #sampler-inset -->
</g>
<!-- End of group #patternScaleContainer -->

</svg>

