<svg xmlns="http://www.w3.org/2000/svg" width="510" height="725" viewbox="0 0 510 725">
  <style type="text/css">
  <![CDATA[
  path{fill:#5C3566;fill-opacity:1;stroke:#292b2c;stroke-width:4;stroke-linecap:round;stroke-linejoin:round;stroke-opacity:1;}
  .sm{stroke-width:2;}
  .back{fill:#86739c;}
  .no-fill{fill:none;}
  .no-stroke{stroke:none;}
  ]]>
  </style>
  <g transform="translate(3,3)">
    <path id="back" class="back" d="M 142.8865961,2.00904761 102.6603573,9.51482081 C 128.6930346,148.996723 90.4497057,234.4805253 2,234.4805253 2,234.4805253 31.9148364,416.2118936 31.9148364,507.0790068 L 31.9148364,716.7715454 250.5475534,716.7715454 250.5655673,716.7715454 469.1982901,716.7715454 469.1982901,507.0790068 C 469.1982901,416.2118936 499.1131265,234.4805253 499.1131265,234.4805253 410.6634208,234.4805253 372.4200919,148.996723 398.4527692,9.51482081 L 358.226516,2.00904761 C 353.210734,28.87780741 312.1469548,28.87466371 250.5655673,28.87466371 250.5594472,28.87466371 250.5536735,28.87466371 250.5475534,28.87466371 188.9661486,28.87466371 147.9023868,28.87780741 142.8865961,2.00904761 z" />
    <path id="backbinding" class="sm" d="M 143.4100421,0.7805847 127.8390558,3.6859572 C 134.7541824,44.6367626 153.0036038,44.9887661 255.1552688,44.9887661 357.3069482,44.9887661 366.3529956,43.5870773 373.8156943,3.5916832 L 358.749962,0.7805847 C 353.73418,27.6493445 312.6704008,27.6462008 251.0890133,27.6462008 251.0828932,27.6462008 251.0771195,27.6462008 251.0709994,27.6462008 189.4895946,27.6462008 148.4258328,27.6493445 143.4100421,0.7805847 z" />
    <path id="front" class="no-stroke" d="M 143.4100421,0.7805847 103.1928102,8.2953792 C 124.1621507,120.7830973 97.5912517,233.2520624 2.5234171,233.2520624 2.5234171,233.2520624 32.4472605,414.9924954 32.4472605,505.8596086 L 32.4472605,715.5521472 251.080015,715.5521472 251.0890219,715.5521472 469.7217448,715.5521472 469.7217448,505.8596086 C 469.7217448,414.9924954 499.6365812,233.2520624 499.6365812,233.2520624 404.5687755,233.2520624 378.0068834,120.7830973 398.976195,8.2953792 L 358.7499562,0.7805847 C 332.2886126,142.7225762 337.784946,142.731716 251.0890219,142.731716 251.0859042,142.731716 251.0831039,142.731716 251.080015,142.731716 164.3840592,142.731716 169.8713857,142.722582 143.4100421,0.7805847 z" />
    <path id="armholebinding" class="sm no-fill" d="M 499.6365812,233.2520624 C 404.5687755,233.2520624 378.0068834,120.7830973 398.976195,8.2953792 L 383.0112624,5.3129181 C 359.4895029,130.9113126 392.5714927,249.2148703 497.3789457,249.2148703 498.3280305,243.4904913 498.9234288,238.2762971 499.6365812,233.2520624 z M 2.5234171,233.2520624 C 97.5912228,233.2520624 124.1531149,120.7830973 103.1838033,8.2953792 L 119.1487561,5.3129181 C 142.6704925,130.9113126 109.5885084,249.2148703 4.7810671,249.2148703 3.8319909,243.4904913 3.236581,238.2762971 2.5234171,233.2520624 z" />
    <path id="hembinding" class="sm" d="M 33.15416,698.7406586 467.9978341,698.7406586" />
    <path id="outline" class="no-fill"
       d="M 143.4100421,0.7805847 103.1928102,8.2953792 C 124.1621507,120.7830973 97.5912517,233.2520624 2.5234171,233.2520624 2.5234171,233.2520624 32.4472605,414.9924954 32.4472605,505.8596086 L 32.4472605,715.5521472 251.080015,715.5521472 251.0890219,715.5521472 469.7217448,715.5521472 469.7217448,505.8596086 C 469.7217448,414.9924954 499.6365812,233.2520624 499.6365812,233.2520624 404.5687755,233.2520624 378.0068834,120.7830973 398.976195,8.2953792 L 358.7499562,0.7805847 C 332.2886126,142.7225762 337.784946,142.731716 251.0890219,142.731716 251.0859042,142.731716 251.0831039,142.731716 251.080015,142.731716 164.3840592,142.731716 169.8713857,142.722582 143.4100421,0.7805847 z"
    />
    <path id="neckbinding" class="sm no-fill" d="M 143.4100421,0.7805847 128.0246793,3.6554202 C 154.4253705,168.254835 158.429152,159.1093246 251.6992413,159.1093246 344.9693162,159.1093246 354.1709092,158.9807623 372.9694039,3.4369662 L 358.7499562,0.7805847 C 332.2886126,142.7225762 337.784946,142.731716 251.0890219,142.731716 251.0859042,142.731716 251.0831039,142.731716 251.080015,142.731716 164.3840592,142.731716 169.8713857,142.722582 143.4100421,0.7805847 z" />
  </g>
</svg>
