<?xml version="1.0" encoding="UTF-8" standalone="no"?>
<svg
    xmlns="http://www.w3.org/2000/svg"
    xmlns:svg="http://www.w3.org/2000/svg"
    xmlns:xlink="http://www.w3.org/1999/xlink"
    xmlns:freesewing="http://freesewing.org/namespaces/freesewing" viewBox ="0 0 1017 710"
    width ="1017mm"
    height ="710mm"
    freesewing:version ="1.5.0"
    freesewing:origin ="joost.core.freesewing.org" 
>

<style type="text/css">
    <![CDATA[
    path { fill: none; stroke: #000000; stroke-opacity:1; stroke-width: 0.5; stroke-miterlimit:4; stroke-dashoffset:0; stroke-linecap:round; stroke-linejoin:round; }
    path.hidden { fill: none; stroke: none; }]]>
</style>


<!-- Start of group #patternContainer -->
<g id="patternContainer" >
    
    <!-- Start of group #backBlock -->
    <g id="backBlock"  transform=" translate(5 5)  translate(376.784 0) " >
        <path class="hidden" id="2"  d=" M  0,0  L  310,0  L  310,620  L  0,620  z " />
<path transform="translate( 0, 0 )" style="stroke: hsl(26.9, 55%, 50%);" id="8"  d=" M  0,20  L  0,240  L  0,500  L  0,620  L  260,620  L  260,240  C  251.25,240  247.664,236.112  238.276,226.724  C  228.888,217.336  225,164.167  225,130  C  225,95.833  233.176,37.332  235,27.5  L  86.777,0  C  83.129,19.664  0,20  0,20  z " />
<path transform="translate( 0, 0 )" style="stroke: hsl(53.8, 55%, 50%);" id="17"  d=" M  0,20  L  0,240  L  0,500  L  0,620  L  265,620  L  265,240  C  255,240  250.038,235.704  239.667,225.333  C  229.296,214.962  225,164.167  225,130  C  225,95.833  233.176,37.332  235,27.5  L  86.777,0  C  83.129,19.664  0,20  0,20  z " />
<path transform="translate( 0, 0 )" style="stroke: hsl(80.7, 55%, 50%);" id="26"  d=" M  0,20  L  0,240  L  0,500  L  0,620  L  270,620  L  270,240  C  258.75,240  252.257,235.323  240.967,224.033  C  229.677,212.743  225,164.167  225,130  C  225,95.833  233.176,37.332  235,27.5  L  86.777,0  C  83.129,19.664  0,20  0,20  z " />
<path transform="translate( 0, 0 )" style="stroke: hsl(107.6, 55%, 50%);" id="35"  d=" M  0,20  L  0,240  L  0,500  L  0,620  L  275,620  L  275,240  C  262.5,240  254.342,234.966  242.188,222.812  C  230.034,210.658  225,164.167  225,130  C  225,95.833  233.176,37.332  235,27.5  L  86.777,0  C  83.129,19.664  0,20  0,20  z " />
<path transform="translate( 0, 0 )" style="stroke: hsl(134.5, 55%, 50%);" id="44"  d=" M  0,20  L  0,240  L  0,500  L  0,620  L  280,620  L  280,240  C  266.25,240  256.296,234.63  243.333,221.667  C  230.37,208.704  225,164.167  225,130  C  225,95.833  233.176,37.332  235,27.5  L  86.777,0  C  83.129,19.664  0,20  0,20  z " />
<path transform="translate( 0, 0 )" style="stroke: hsl(161.4, 55%, 50%);" id="53"  d=" M  0,20  L  0,240  L  0,500  L  0,620  L  285,620  L  285,240  C  270,240  258.138,234.314  244.412,220.588  C  230.686,206.862  225,164.167  225,130  C  225,95.833  233.176,37.332  235,27.5  L  86.777,0  C  83.129,19.664  0,20  0,20  z " />
<path transform="translate( 0, 0 )" style="stroke: hsl(188.3, 55%, 50%);" id="62"  d=" M  0,20  L  0,240  L  0,500  L  0,620  L  290,620  L  290,240  C  273.75,240  259.873,234.017  245.428,219.572  C  230.983,205.127  225,164.167  225,130  C  225,95.833  233.176,37.332  235,27.5  L  86.777,0  C  83.129,19.664  0,20  0,20  z " />
<path transform="translate( 0, 0 )" style="stroke: hsl(215.2, 55%, 50%);" id="71"  d=" M  0,20  L  0,240  L  0,500  L  0,620  L  295,620  L  295,240  C  277.5,240  261.513,233.735  246.389,218.611  C  231.265,203.487  225,164.167  225,130  C  225,95.833  233.176,37.332  235,27.5  L  86.777,0  C  83.129,19.664  0,20  0,20  z " />
<path transform="translate( 0, 0 )" style="stroke: hsl(242.1, 55%, 50%);" id="80"  d=" M  0,20  L  0,240  L  0,500  L  0,620  L  300,620  L  300,240  C  281.25,240  263.063,233.469  247.297,217.703  C  231.531,201.937  225,164.167  225,130  C  225,95.833  233.176,37.332  235,27.5  L  86.777,0  C  83.129,19.664  0,20  0,20  z " />
<path transform="translate( 0, 0 )" style="stroke: hsl(269, 55%, 50%);" id="89"  d=" M  0,20  L  0,240  L  0,500  L  0,620  L  305,620  L  305,240  C  285,240  264.533,233.217  248.158,216.842  C  231.783,200.467  225,164.167  225,130  C  225,95.833  233.176,37.332  235,27.5  L  86.777,0  C  83.129,19.664  0,20  0,20  z " />
<path transform="translate( 0, 0 )" style="stroke: hsl(295.9, 55%, 50%);" id="98"  d=" M  0,20  L  0,240  L  0,500  L  0,620  L  310,620  L  310,240  C  288.75,240  265.926,232.978  248.974,216.026  C  232.022,199.074  225,164.167  225,130  C  225,95.833  233.176,37.332  235,27.5  L  86.777,0  C  83.129,19.664  0,20  0,20  z " />
    </g>
    <!-- End of group #backBlock -->
    
    <!-- Start of group #frontBlock -->
    <g id="frontBlock"  transform=" translate(5 5)  translate(696.784 0) " >
        <path class="hidden" id="3"  d=" M  0,0  L  310,0  L  310,620  L  0,620  z " />
<path transform="translate( 0, 0 )" style="stroke: hsl(26.9, 55%, 50%);" id="9"  d=" M  0,99  L  0,240  L  0,500  L  0,620  L  260,620  L  260,240  C  251.25,240  247.664,236.112  238.276,226.724  C  228.888,217.336  220,164.167  220,130  C  220,95.833  233.176,37.332  235,27.5  L  86.777,0  C  83.129,19.664  86.777,99  0,99  z " />
<path transform="translate( 0, 0 )" style="stroke: hsl(53.8, 55%, 50%);" id="18"  d=" M  0,99  L  0,240  L  0,500  L  0,620  L  265,620  L  265,240  C  255,240  250.038,235.704  239.667,225.333  C  229.296,214.962  220,164.167  220,130  C  220,95.833  233.176,37.332  235,27.5  L  86.777,0  C  83.129,19.664  86.777,99  0,99  z " />
<path transform="translate( 0, 0 )" style="stroke: hsl(80.7, 55%, 50%);" id="27"  d=" M  0,99  L  0,240  L  0,500  L  0,620  L  270,620  L  270,240  C  258.75,240  252.257,235.323  240.967,224.033  C  229.677,212.743  220,164.167  220,130  C  220,95.833  233.176,37.332  235,27.5  L  86.777,0  C  83.129,19.664  86.777,99  0,99  z " />
<path transform="translate( 0, 0 )" style="stroke: hsl(107.6, 55%, 50%);" id="36"  d=" M  0,99  L  0,240  L  0,500  L  0,620  L  275,620  L  275,240  C  262.5,240  254.342,234.966  242.188,222.812  C  230.034,210.658  220,164.167  220,130  C  220,95.833  233.176,37.332  235,27.5  L  86.777,0  C  83.129,19.664  86.777,99  0,99  z " />
<path transform="translate( 0, 0 )" style="stroke: hsl(134.5, 55%, 50%);" id="45"  d=" M  0,99  L  0,240  L  0,500  L  0,620  L  280,620  L  280,240  C  266.25,240  256.296,234.63  243.333,221.667  C  230.37,208.704  220,164.167  220,130  C  220,95.833  233.176,37.332  235,27.5  L  86.777,0  C  83.129,19.664  86.777,99  0,99  z " />
<path transform="translate( 0, 0 )" style="stroke: hsl(161.4, 55%, 50%);" id="54"  d=" M  0,99  L  0,240  L  0,500  L  0,620  L  285,620  L  285,240  C  270,240  258.138,234.314  244.412,220.588  C  230.686,206.862  220,164.167  220,130  C  220,95.833  233.176,37.332  235,27.5  L  86.777,0  C  83.129,19.664  86.777,99  0,99  z " />
<path transform="translate( 0, 0 )" style="stroke: hsl(188.3, 55%, 50%);" id="63"  d=" M  0,99  L  0,240  L  0,500  L  0,620  L  290,620  L  290,240  C  273.75,240  259.873,234.017  245.428,219.572  C  230.983,205.127  220,164.167  220,130  C  220,95.833  233.176,37.332  235,27.5  L  86.777,0  C  83.129,19.664  86.777,99  0,99  z " />
<path transform="translate( 0, 0 )" style="stroke: hsl(215.2, 55%, 50%);" id="72"  d=" M  0,99  L  0,240  L  0,500  L  0,620  L  295,620  L  295,240  C  277.5,240  261.513,233.735  246.389,218.611  C  231.265,203.487  220,164.167  220,130  C  220,95.833  233.176,37.332  235,27.5  L  86.777,0  C  83.129,19.664  86.777,99  0,99  z " />
<path transform="translate( 0, 0 )" style="stroke: hsl(242.1, 55%, 50%);" id="81"  d=" M  0,99  L  0,240  L  0,500  L  0,620  L  300,620  L  300,240  C  281.25,240  263.063,233.469  247.297,217.703  C  231.531,201.937  220,164.167  220,130  C  220,95.833  233.176,37.332  235,27.5  L  86.777,0  C  83.129,19.664  86.777,99  0,99  z " />
<path transform="translate( 0, 0 )" style="stroke: hsl(269, 55%, 50%);" id="90"  d=" M  0,99  L  0,240  L  0,500  L  0,620  L  305,620  L  305,240  C  285,240  264.533,233.217  248.158,216.842  C  231.783,200.467  220,164.167  220,130  C  220,95.833  233.176,37.332  235,27.5  L  86.777,0  C  83.129,19.664  86.777,99  0,99  z " />
<path transform="translate( 0, 0 )" style="stroke: hsl(295.9, 55%, 50%);" id="99"  d=" M  0,99  L  0,240  L  0,500  L  0,620  L  310,620  L  310,240  C  288.75,240  265.926,232.978  248.974,216.026  C  232.022,199.074  220,164.167  220,130  C  220,95.833  233.176,37.332  235,27.5  L  86.777,0  C  83.129,19.664  86.777,99  0,99  z " />
    </g>
    <!-- End of group #frontBlock -->
    
    <!-- Start of group #sleeveBlock -->
    <g id="sleeveBlock"  transform=" translate(188.392 5.006)  translate(0 0) " >
        <path class="hidden" id="4"  d=" M  -183.392,-0.006  L  183.392,-0.006  L  183.392,700  L  -183.392,700  z " />
<path transform="translate( 0, 0 )" style="stroke: hsl(26.9, 55%, 50%);" id="10"  d=" M  -117.5,700  L  -173.768,129.331  C  -173.768,129.331  -144.049,108.393  -126.912,92.373  C  -109.775,76.353  -86.884,48.11  -86.884,48.11  C  -86.884,48.11  -71.231,22.296  -50.708,10.932  C  -30.185,-0.432  -23.459,-0  5,0  C  23.459,0  39.627,-0.686  58.964,12.596  C  78.301,25.878  91.884,63.11  91.884,63.11  C  91.884,63.11  105.153,93.132  123.394,107.883  C  141.635,122.634  173.768,129.331  173.768,129.331  L  117.5,700  z " />
<path transform="translate( 0, 0 )" style="stroke: hsl(53.8, 55%, 50%);" id="19"  d=" M  -117.5,700  L  -174.706,133.455  C  -174.706,133.455  -144.567,111.42  -127.564,95.075  C  -110.561,78.73  -87.353,49.485  -87.353,49.485  C  -87.353,49.485  -71.59,23.316  -51.069,11.691  C  -30.548,0.066  -23.585,-0  5,0  C  23.585,0  40.005,-0.118  59.343,13.384  C  78.681,26.886  92.353,64.485  92.353,64.485  C  92.353,64.485  105.818,95.327  123.899,110.47  C  141.98,125.613  174.706,133.455  174.706,133.455  L  117.5,700  z " />
<path transform="translate( 0, 0 )" style="stroke: hsl(80.7, 55%, 50%);" id="28"  d=" M  -117.5,700  L  -175.625,137.499  C  -175.625,137.499  -145.082,114.38  -128.207,97.725  C  -111.332,81.07  -87.813,50.833  -87.813,50.833  C  -87.813,50.833  -71.942,24.314  -51.422,12.435  C  -30.902,0.556  -23.71,-0  5,0  C  23.71,0  40.374,0.439  59.713,14.156  C  79.052,27.873  92.813,65.833  92.813,65.833  C  92.813,65.833  106.474,97.493  124.403,113.008  C  142.332,128.523  175.625,137.499  175.625,137.499  L  117.5,700  z " />
<path transform="translate( 0, 0 )" style="stroke: hsl(107.6, 55%, 50%);" id="37"  d=" M  -117.5,700  L  -176.302,140.479  C  -176.302,140.479  -145.462,116.555  -128.68,99.677  C  -111.898,82.799  -88.151,51.826  -88.151,51.826  C  -88.151,51.826  -72.195,25.045  -51.677,12.982  C  -31.159,0.919  -23.801,-0  5,0  C  23.801,0  40.643,0.851  59.982,14.725  C  79.321,28.599  93.151,66.826  93.151,66.826  C  93.151,66.826  106.963,99.099  124.78,114.88  C  142.597,130.661  176.302,140.479  176.302,140.479  L  117.5,700  z " />
<path transform="translate( 0, 0 )" style="stroke: hsl(134.5, 55%, 50%);" id="46"  d=" M  -117.5,700  L  -177.27,144.736  C  -177.27,144.736  -146.013,119.658  -129.362,102.47  C  -112.711,85.282  -88.635,53.245  -88.635,53.245  C  -88.635,53.245  -72.556,26.088  -52.042,13.765  C  -31.528,1.442  -23.931,-0  5,0  C  23.931,0  41.026,1.441  60.365,15.536  C  79.704,29.631  93.635,68.245  93.635,68.245  C  93.635,68.245  107.67,101.408  125.329,117.559  C  142.988,133.71  177.27,144.736  177.27,144.736  L  117.5,700  z " />
<path transform="translate( 0, 0 )" style="stroke: hsl(161.4, 55%, 50%);" id="55"  d=" M  -117.5,700  L  -178.319,149.352  C  -178.319,149.352  -146.616,123.014  -130.102,105.498  C  -113.588,87.982  -89.16,54.784  -89.16,54.784  C  -89.16,54.784  -72.944,27.215  -52.433,14.612  C  -31.922,2.009  -24.073,-0  5,0  C  24.073,0  41.434,2.08  60.775,16.414  C  80.116,30.748  94.16,69.784  94.16,69.784  C  94.16,69.784  108.442,103.93  125.935,120.468  C  143.428,137.006  178.319,149.352  178.319,149.352  L  117.5,700  z " />
<path transform="translate( 0, 0 )" style="stroke: hsl(188.3, 55%, 50%);" id="64"  d=" M  -117.5,700  L  -179.347,153.877  C  -179.347,153.877  -147.21,126.295  -130.828,108.467  C  -114.446,90.639  -89.674,56.292  -89.674,56.292  C  -89.674,56.292  -73.318,28.315  -52.812,15.442  C  -32.306,2.569  -24.212,-0  5,0  C  24.212,0  41.832,2.708  61.173,17.273  C  80.514,31.838  94.674,71.292  94.674,71.292  C  94.674,71.292  109.204,106.417  126.537,123.322  C  143.87,140.227  179.347,153.877  179.347,153.877  L  117.5,700  z " />
<path transform="translate( 0, 0 )" style="stroke: hsl(215.2, 55%, 50%);" id="73"  d=" M  -117.5,700  L  -180.407,158.54  C  -180.407,158.54  -147.832,129.67  -131.581,111.529  C  -115.33,93.388  -90.204,57.847  -90.204,57.847  C  -90.204,57.847  -73.7,29.444  -53.199,16.297  C  -32.698,3.15  -24.355,-0  5,0  C  24.355,0  42.237,3.357  61.579,18.157  C  80.921,32.957  95.204,72.847  95.204,72.847  C  95.204,72.847  109.996,108.998  127.168,126.269  C  144.34,143.54  180.407,158.54  180.407,158.54  L  117.5,700  z " />
<path transform="translate( 0, 0 )" style="stroke: hsl(242.1, 55%, 50%);" id="82"  d=" M  -117.5,700  L  -181.188,161.976  C  -181.188,161.976  -148.293,132.151  -132.137,113.786  C  -115.981,95.421  -90.594,58.992  -90.594,58.992  C  -90.594,58.992  -73.979,30.273  -53.482,16.926  C  -32.985,3.579  -24.46,-0  5,0  C  24.46,0  42.532,3.836  61.875,18.808  C  81.218,33.78  95.594,73.992  95.594,73.992  C  95.594,73.992  110.583,110.912  127.639,128.444  C  144.695,145.976  181.188,161.976  181.188,161.976  L  117.5,700  z " />
<path transform="translate( 0, 0 )" style="stroke: hsl(269, 55%, 50%);" id="91"  d=" M  -117.5,700  L  -182.362,167.141  C  -182.362,167.141  -148.992,135.876  -132.974,117.18  C  -116.956,98.484  -91.181,60.714  -91.181,60.714  C  -91.181,60.714  -74.396,31.517  -53.904,17.872  C  -33.412,4.227  -24.619,-0  5,0  C  24.619,0  42.973,4.557  62.317,19.785  C  81.661,35.013  96.181,75.714  96.181,75.714  C  96.181,75.714  111.469,113.801  128.356,131.716  C  145.243,149.631  182.362,167.141  182.362,167.141  L  117.5,700  z " />
<path transform="translate( 0, 0 )" style="stroke: hsl(295.9, 55%, 50%);" id="100"  d=" M  -117.5,700  L  -183.392,171.676  C  -183.392,171.676  -149.61,139.139  -133.711,120.161  C  -117.812,101.183  -91.696,62.225  -91.696,62.225  C  -91.696,62.225  -74.757,32.602  -54.271,18.7  C  -33.785,4.798  -24.758,-0  5,0  C  24.758,0  43.355,5.191  62.701,20.641  C  82.047,36.091  96.696,77.225  96.696,77.225  C  96.696,77.225  112.251,116.355  128.993,134.594  C  145.735,152.833  183.392,171.676  183.392,171.676  L  117.5,700  z " />
    </g>
    <!-- End of group #sleeveBlock -->
    
    <!-- Start of group #sampler-backBlock -->
    <g id="sampler-backBlock" >
    </g>
    <!-- End of group #sampler-backBlock -->
    
    <!-- Start of group #sampler-frontBlock -->
    <g id="sampler-frontBlock" >
    </g>
    <!-- End of group #sampler-frontBlock -->
    
    <!-- Start of group #sampler-sleeveBlock -->
    <g id="sampler-sleeveBlock" >
    </g>
    <!-- End of group #sampler-sleeveBlock -->
</g>
<!-- End of group #patternContainer -->

</svg>

