<?xml version="1.0" encoding="UTF-8" standalone="no"?>
<svg
    width ="2037.40157675"
    height ="2657.4803175"
    viewbox ="0 0 2037.40157675 2657.4803175" xmlns:dc="http://purl.org/dc/elements/1.1/"
    xmlns:cc="http://creativecommons.org/ns#"
    xmlns:rdf="http://www.w3.org/1999/02/22-rdf-syntax-ns#"
    xmlns:svg="http://www.w3.org/2000/svg"
    xmlns="http://www.w3.org/2000/svg"
    xmlns:xlink="http://www.w3.org/1999/xlink"
    xmlns:sodipodi="http://sodipodi.sourceforge.net/DTD/sodipodi-0.dtd"
    xmlns:inkscape="http://www.inkscape.org/namespaces/inkscape" 
>

<style type="text/css">
    <![CDATA[
    path { fill: none; stroke: #000000; stroke-opacity:1; stroke-width: 0.5; stroke-miterlimit:4; stroke-dashoffset:0; stroke-linecap:round; stroke-linejoin:round; }
    path.hidden { fill: none; stroke: none; }]]>
</style>


<!-- Start of group #patternScaleContainer -->
<g id="patternScaleContainer"  transform=" scale(3.54330709 ) " >
    
    <!-- Start of group #backBlock -->
    <g id="backBlock"  transform=" translate(5 5)  translate(287.5 0) " >
        <path class="hidden" id="2"  d=" M  0,0  L  277.5,0  L  277.5,740  L  0,740  z " />
<path transform="translate( 0, 0 )" style="stroke: hsl(26.9, 55%, 50%);" id="8"  d=" M  0,20  L  0,248.5  L  0,500  L  0,580  L  277.5,580  L  277.5,248.5  C  264.375,248.5  255.703,243.232  242.986,230.515  C  230.269,217.798  225,169.833  225,134.25  C  225,98.667  233.176,37.332  235,27.5  L  86.777,0  C  83.129,19.664  0,20  0,20  z " />
<path transform="translate( 0, 0 )" style="stroke: hsl(53.8, 55%, 50%);" id="17"  d=" M  0,20  L  0,248.5  L  0,500  L  0,596  L  277.5,596  L  277.5,248.5  C  264.375,248.5  255.703,243.232  242.986,230.515  C  230.269,217.798  225,169.833  225,134.25  C  225,98.667  233.176,37.332  235,27.5  L  86.777,0  C  83.129,19.664  0,20  0,20  z " />
<path transform="translate( 0, 0 )" style="stroke: hsl(80.7, 55%, 50%);" id="26"  d=" M  0,20  L  0,248.5  L  0,500  L  0,612  L  277.5,612  L  277.5,248.5  C  264.375,248.5  255.703,243.232  242.986,230.515  C  230.269,217.798  225,169.833  225,134.25  C  225,98.667  233.176,37.332  235,27.5  L  86.777,0  C  83.129,19.664  0,20  0,20  z " />
<path transform="translate( 0, 0 )" style="stroke: hsl(107.6, 55%, 50%);" id="35"  d=" M  0,20  L  0,248.5  L  0,500  L  0,628  L  277.5,628  L  277.5,248.5  C  264.375,248.5  255.703,243.232  242.986,230.515  C  230.269,217.798  225,169.833  225,134.25  C  225,98.667  233.176,37.332  235,27.5  L  86.777,0  C  83.129,19.664  0,20  0,20  z " />
<path transform="translate( 0, 0 )" style="stroke: hsl(134.5, 55%, 50%);" id="44"  d=" M  0,20  L  0,248.5  L  0,500  L  0,644  L  277.5,644  L  277.5,248.5  C  264.375,248.5  255.703,243.232  242.986,230.515  C  230.269,217.798  225,169.833  225,134.25  C  225,98.667  233.176,37.332  235,27.5  L  86.777,0  C  83.129,19.664  0,20  0,20  z " />
<path transform="translate( 0, 0 )" style="stroke: hsl(161.4, 55%, 50%);" id="53"  d=" M  0,20  L  0,248.5  L  0,500  L  0,660  L  277.5,660  L  277.5,248.5  C  264.375,248.5  255.703,243.232  242.986,230.515  C  230.269,217.798  225,169.833  225,134.25  C  225,98.667  233.176,37.332  235,27.5  L  86.777,0  C  83.129,19.664  0,20  0,20  z " />
<path transform="translate( 0, 0 )" style="stroke: hsl(188.3, 55%, 50%);" id="62"  d=" M  0,20  L  0,248.5  L  0,500  L  0,676  L  277.5,676  L  277.5,248.5  C  264.375,248.5  255.703,243.232  242.986,230.515  C  230.269,217.798  225,169.833  225,134.25  C  225,98.667  233.176,37.332  235,27.5  L  86.777,0  C  83.129,19.664  0,20  0,20  z " />
<path transform="translate( 0, 0 )" style="stroke: hsl(215.2, 55%, 50%);" id="71"  d=" M  0,20  L  0,248.5  L  0,500  L  0,692  L  277.5,692  L  277.5,248.5  C  264.375,248.5  255.703,243.232  242.986,230.515  C  230.269,217.798  225,169.833  225,134.25  C  225,98.667  233.176,37.332  235,27.5  L  86.777,0  C  83.129,19.664  0,20  0,20  z " />
<path transform="translate( 0, 0 )" style="stroke: hsl(242.1, 55%, 50%);" id="80"  d=" M  0,20  L  0,248.5  L  0,500  L  0,708  L  277.5,708  L  277.5,248.5  C  264.375,248.5  255.703,243.232  242.986,230.515  C  230.269,217.798  225,169.833  225,134.25  C  225,98.667  233.176,37.332  235,27.5  L  86.777,0  C  83.129,19.664  0,20  0,20  z " />
<path transform="translate( 0, 0 )" style="stroke: hsl(269, 55%, 50%);" id="89"  d=" M  0,20  L  0,248.5  L  0,500  L  0,724  L  277.5,724  L  277.5,248.5  C  264.375,248.5  255.703,243.232  242.986,230.515  C  230.269,217.798  225,169.833  225,134.25  C  225,98.667  233.176,37.332  235,27.5  L  86.777,0  C  83.129,19.664  0,20  0,20  z " />
<path transform="translate( 0, 0 )" style="stroke: hsl(295.9, 55%, 50%);" id="98"  d=" M  0,20  L  0,248.5  L  0,500  L  0,740  L  277.5,740  L  277.5,248.5  C  264.375,248.5  255.703,243.232  242.986,230.515  C  230.269,217.798  225,169.833  225,134.25  C  225,98.667  233.176,37.332  235,27.5  L  86.777,0  C  83.129,19.664  0,20  0,20  z " />
    </g>
    <!-- End of group #backBlock -->
    
    <!-- Start of group #frontBlock -->
    <g id="frontBlock"  transform=" translate(5 5)  translate(0 0) " >
        <path class="hidden" id="3"  d=" M  0,0  L  277.5,0  L  277.5,740  L  0,740  z " />
<path transform="translate( 0, 0 )" style="stroke: hsl(26.9, 55%, 50%);" id="9"  d=" M  0,99  L  0,248.5  L  0,500  L  0,580  L  277.5,580  L  277.5,248.5  C  264.375,248.5  255.703,243.232  242.986,230.515  C  230.269,217.798  220,169.833  220,134.25  C  220,98.667  233.176,37.332  235,27.5  L  86.777,0  C  83.129,19.664  86.777,99  0,99  z " />
<path transform="translate( 0, 0 )" style="stroke: hsl(53.8, 55%, 50%);" id="18"  d=" M  0,99  L  0,248.5  L  0,500  L  0,596  L  277.5,596  L  277.5,248.5  C  264.375,248.5  255.703,243.232  242.986,230.515  C  230.269,217.798  220,169.833  220,134.25  C  220,98.667  233.176,37.332  235,27.5  L  86.777,0  C  83.129,19.664  86.777,99  0,99  z " />
<path transform="translate( 0, 0 )" style="stroke: hsl(80.7, 55%, 50%);" id="27"  d=" M  0,99  L  0,248.5  L  0,500  L  0,612  L  277.5,612  L  277.5,248.5  C  264.375,248.5  255.703,243.232  242.986,230.515  C  230.269,217.798  220,169.833  220,134.25  C  220,98.667  233.176,37.332  235,27.5  L  86.777,0  C  83.129,19.664  86.777,99  0,99  z " />
<path transform="translate( 0, 0 )" style="stroke: hsl(107.6, 55%, 50%);" id="36"  d=" M  0,99  L  0,248.5  L  0,500  L  0,628  L  277.5,628  L  277.5,248.5  C  264.375,248.5  255.703,243.232  242.986,230.515  C  230.269,217.798  220,169.833  220,134.25  C  220,98.667  233.176,37.332  235,27.5  L  86.777,0  C  83.129,19.664  86.777,99  0,99  z " />
<path transform="translate( 0, 0 )" style="stroke: hsl(134.5, 55%, 50%);" id="45"  d=" M  0,99  L  0,248.5  L  0,500  L  0,644  L  277.5,644  L  277.5,248.5  C  264.375,248.5  255.703,243.232  242.986,230.515  C  230.269,217.798  220,169.833  220,134.25  C  220,98.667  233.176,37.332  235,27.5  L  86.777,0  C  83.129,19.664  86.777,99  0,99  z " />
<path transform="translate( 0, 0 )" style="stroke: hsl(161.4, 55%, 50%);" id="54"  d=" M  0,99  L  0,248.5  L  0,500  L  0,660  L  277.5,660  L  277.5,248.5  C  264.375,248.5  255.703,243.232  242.986,230.515  C  230.269,217.798  220,169.833  220,134.25  C  220,98.667  233.176,37.332  235,27.5  L  86.777,0  C  83.129,19.664  86.777,99  0,99  z " />
<path transform="translate( 0, 0 )" style="stroke: hsl(188.3, 55%, 50%);" id="63"  d=" M  0,99  L  0,248.5  L  0,500  L  0,676  L  277.5,676  L  277.5,248.5  C  264.375,248.5  255.703,243.232  242.986,230.515  C  230.269,217.798  220,169.833  220,134.25  C  220,98.667  233.176,37.332  235,27.5  L  86.777,0  C  83.129,19.664  86.777,99  0,99  z " />
<path transform="translate( 0, 0 )" style="stroke: hsl(215.2, 55%, 50%);" id="72"  d=" M  0,99  L  0,248.5  L  0,500  L  0,692  L  277.5,692  L  277.5,248.5  C  264.375,248.5  255.703,243.232  242.986,230.515  C  230.269,217.798  220,169.833  220,134.25  C  220,98.667  233.176,37.332  235,27.5  L  86.777,0  C  83.129,19.664  86.777,99  0,99  z " />
<path transform="translate( 0, 0 )" style="stroke: hsl(242.1, 55%, 50%);" id="81"  d=" M  0,99  L  0,248.5  L  0,500  L  0,708  L  277.5,708  L  277.5,248.5  C  264.375,248.5  255.703,243.232  242.986,230.515  C  230.269,217.798  220,169.833  220,134.25  C  220,98.667  233.176,37.332  235,27.5  L  86.777,0  C  83.129,19.664  86.777,99  0,99  z " />
<path transform="translate( 0, 0 )" style="stroke: hsl(269, 55%, 50%);" id="90"  d=" M  0,99  L  0,248.5  L  0,500  L  0,724  L  277.5,724  L  277.5,248.5  C  264.375,248.5  255.703,243.232  242.986,230.515  C  230.269,217.798  220,169.833  220,134.25  C  220,98.667  233.176,37.332  235,27.5  L  86.777,0  C  83.129,19.664  86.777,99  0,99  z " />
<path transform="translate( 0, 0 )" style="stroke: hsl(295.9, 55%, 50%);" id="99"  d=" M  0,99  L  0,248.5  L  0,500  L  0,740  L  277.5,740  L  277.5,248.5  C  264.375,248.5  255.703,243.232  242.986,230.515  C  230.269,217.798  220,169.833  220,134.25  C  220,98.667  233.176,37.332  235,27.5  L  86.777,0  C  83.129,19.664  86.777,99  0,99  z " />
    </g>
    <!-- End of group #frontBlock -->
</g>
<!-- End of group #patternScaleContainer -->

</svg>

