<?xml version="1.0" encoding="UTF-8" standalone="no"?>
<svg
   xmlns:dc="http://purl.org/dc/elements/1.1/"
   xmlns:cc="http://creativecommons.org/ns#"
   xmlns:rdf="http://www.w3.org/1999/02/22-rdf-syntax-ns#"
   xmlns:svg="http://www.w3.org/2000/svg"
   xmlns="http://www.w3.org/2000/svg"
   version="1.1"
   id="svg13134"
   height="547.08307"
   width="1133.1094">
  <defs
     id="defs13136" />
  <g
     transform="translate(-101.00175,-456.16694)"
     id="layer1">
    <g
       id="g14301">
      <path
         style="fill:#8e8e8e;stroke:#545454;stroke-width:4;stroke-miterlimit:4;stroke-dasharray:none"
         id="back"
         d="m 299.499,458.7 -52.938,29.384 c -4.064,21.34 205.4,40.331 211.981,5.781 L 401.601,458.7 c -9.437,9.437 -29.546,8.802 -51.051,8.802 -24.724,0.145 -41.746,0.502 -51.051,-8.802 z" />
      <path
         style="fill:#212121;stroke:#545454;stroke-width:4;stroke-miterlimit:4;stroke-dasharray:none"
         d="m 299.499,458.7 -105.857,15.599 c 0.731,6.849 -0.739,48.226 -0.739,76.189 0,27.821 -2.182,51.688 -11.673,66.517 -5.111,7.344 13.127,24.65 6.556,24.65 0,21.438 -1.303,82.1 -1.303,167.845 0,60.939 -2.334,149.568 -3.794,164.679 162.554,0 195.828,0 335.723,0 -1.46,-15.111 -3.794,-103.74 -3.794,-164.679 0,-85.745 -1.303,-146.407 -1.303,-167.845 -6.571,0 11.667,-17.306 6.556,-24.65 -9.491,-14.829 -11.673,-38.696 -11.673,-66.517 0,-27.963 -1.47,-69.34 -0.74,-76.189 L 401.601,458.7 c 0,13.822 -10.098,32.577 -51.051,32.816 -40.952,-0.239 -51.051,-18.994 -51.051,-32.816 z"
         id="front" />
      <path
         style="fill:#212121;stroke:#545454;stroke-width:4;stroke-miterlimit:4;stroke-dasharray:none"
         id="sleeves"
         transform="translate(100.999,445.844)"
         d="M 93.5313,28 C 79.5014,28 58.9645,56.0721 47.7813,95.8438 16.6715,207.107 -6.30823,535.903 4.875,554.812 c 31.5305,0 20.7796,0.594 53.6875,0.594 C 66.8991,535.48 69.3155,448.056 81.7188,316.094 83.1421,280.917 84.1801,206.489 91.5,177.656 111.02,144.005 99.4279,52.1964 93.5313,28 Z m 313.6247,0 c -5.896,24.1964 -17.488,116.005 2.031,149.656 7.32,28.833 10.983,103.261 12.407,138.438 12.606,132.775 13.211,202.103 20.531,239.312 41.897,0 29.021,-0.594 53.687,-0.594 C 506.792,525.939 484.016,207.107 452.906,95.8438 441.723,56.0721 421.186,28 407.156,28 Z" />
      <path
         style="fill:#8e8e8e;stroke:#545454;stroke-width:4;stroke-miterlimit:4;stroke-dasharray:none"
         id="back-3"
         d="m 883.214,458.701 -52.938,29.384 c -4.064,21.34 205.4,40.331 211.981,5.781 l -56.941,-35.165 c -9.437,9.437 -29.546,8.802 -51.051,8.802 -24.724,0.145 -41.746,0.502 -51.051,-8.802 z" />
      <path
         style="fill:#212121;stroke:#545454;stroke-width:4;stroke-miterlimit:4;stroke-dasharray:none"
         d="M 883.214,458.701 777.357,474.3 c 0.731,6.849 -0.739,48.226 -0.739,76.189 0,27.821 -2.182,51.688 -11.673,66.517 -5.111,7.344 13.127,24.65 6.556,24.65 0,21.43796 -1.303,82.09996 -1.303,167.84496 0,60.939 -2.334,149.568 -3.794,164.679 162.554,0 195.828,0 335.723,0 -1.46,-15.111 -3.794,-103.74 -3.794,-164.679 0,-85.745 -1.303,-146.407 -1.303,-167.84496 -6.571,0 11.667,-17.306 6.556,-24.65 -9.491,-14.829 -11.673,-38.696 -11.673,-66.517 0,-27.963 -1.47,-69.34 -0.74,-76.189 L 985.316,458.701 c 0,13.822 -10.098,32.577 -51.051,32.816 -40.952,-0.239 -51.051,-18.994 -51.051,-32.816 z"
         id="front-6" />
      <path
         d="m 778.244,473.844 c -14.03,0 -42.49578,17.29066 -61.75,53.844 -63.83781,121.19343 -87.11956,431.04678 -76.906,452.972 25.93061,3.73293 27.00055,3.47923 53.687,6.59 3.35895,-26.76782 10.74552,-91.91626 35.157,-243.312 5.52596,-34.27105 35.73539,-107.61331 47.781,-114.438 19.52,-33.651 7.928,-131.46 2.031,-155.656 z m 313.626,0 c -5.9,24.196 -17.49,122.005 2.03,155.656 14.8961,9.45943 43.6787,80.42075 50.41,114.438 23.5691,119.10812 34.5423,206.103 32.53,243.312 26.3361,-3.11077 30.8865,-3.47923 53.69,-6.59 7.0926,-28.10407 -8.1563,-333.44366 -76.91,-452.972 -20.5992,-35.8117 -47.72,-53.844 -61.75,-53.844 z"
         id="path7497"
         style="fill:#212121;stroke:#545454;stroke-width:4;stroke-miterlimit:4;stroke-dasharray:none" />
    </g>
  </g>
  <metadata
     id="metadata14382">
    <rdf:RDF>
      <cc:Work
         rdf:about="">
        <dc:title></dc:title>
        <dc:format>image/svg+xml</dc:format>
        <dc:type
           rdf:resource="http://purl.org/dc/dcmitype/StillImage" />
      </cc:Work>
    </rdf:RDF>
  </metadata>
</svg>
