<?xml version="1.0" encoding="UTF-8" standalone="no"?>
<svg
    xmlns="http://www.w3.org/2000/svg"
    xmlns:svg="http://www.w3.org/2000/svg"
    xmlns:xlink="http://www.w3.org/1999/xlink"
    xmlns:freesewing="http://freesewing.org/namespaces/freesewing" viewBox ="0 0 964 710"
    width ="964mm"
    height ="710mm"
    freesewing:version ="1.5.0"
    freesewing:origin ="joost.core.freesewing.org" 
>

<style type="text/css">
    <![CDATA[
    path { fill: none; stroke: #000000; stroke-opacity:1; stroke-width: 0.5; stroke-miterlimit:4; stroke-dashoffset:0; stroke-linecap:round; stroke-linejoin:round; }
    path.hidden { fill: none; stroke: none; }]]>
</style>


<!-- Start of group #patternContainer -->
<g id="patternContainer" >
    
    <!-- Start of group #backBlock -->
    <g id="backBlock"  transform=" translate(5 5)  translate(389.142 0) " >
        <path class="hidden" id="2"  d=" M  0,0  L  277.5,0  L  277.5,620  L  0,620  z " />
<path transform="translate( 0, 0 )" style="stroke: hsl(26.9, 55%, 50%);" id="8"  d=" M  0,20  L  0,240  L  0,500  L  0,620  L  277.5,620  L  277.5,240  C  264.375,240  255.334,234.796  242.769,222.231  C  230.204,209.666  225,164.167  225,130  C  225,95.833  233.176,37.332  235,27.5  L  86.777,0  C  83.129,19.664  0,20  0,20  z " />
<path transform="translate( 0, 0 )" style="stroke: hsl(53.8, 55%, 50%);" id="17"  d=" M  0,20  L  0,240  L  0,500  L  0,620  L  277.5,620  L  277.5,240  C  264.375,240  255.334,234.796  242.769,222.231  C  230.204,209.666  225,164.167  225,130  C  225,95.833  233.176,37.332  235,27.5  L  86.777,0  C  83.129,19.664  0,20  0,20  z " />
<path transform="translate( 0, 0 )" style="stroke: hsl(80.7, 55%, 50%);" id="26"  d=" M  0,20  L  0,240  L  0,500  L  0,620  L  277.5,620  L  277.5,240  C  264.375,240  255.334,234.796  242.769,222.231  C  230.204,209.666  225,164.167  225,130  C  225,95.833  233.176,37.332  235,27.5  L  86.777,0  C  83.129,19.664  0,20  0,20  z " />
<path transform="translate( 0, 0 )" style="stroke: hsl(107.6, 55%, 50%);" id="35"  d=" M  0,20  L  0,240  L  0,500  L  0,620  L  277.5,620  L  277.5,240  C  264.375,240  255.334,234.796  242.769,222.231  C  230.204,209.666  225,164.167  225,130  C  225,95.833  233.176,37.332  235,27.5  L  86.777,0  C  83.129,19.664  0,20  0,20  z " />
<path transform="translate( 0, 0 )" style="stroke: hsl(134.5, 55%, 50%);" id="44"  d=" M  0,20  L  0,240  L  0,500  L  0,620  L  277.5,620  L  277.5,240  C  264.375,240  255.334,234.796  242.769,222.231  C  230.204,209.666  225,164.167  225,130  C  225,95.833  233.176,37.332  235,27.5  L  86.777,0  C  83.129,19.664  0,20  0,20  z " />
<path transform="translate( 0, 0 )" style="stroke: hsl(161.4, 55%, 50%);" id="53"  d=" M  0,20  L  0,240  L  0,500  L  0,620  L  277.5,620  L  277.5,240  C  264.375,240  255.334,234.796  242.769,222.231  C  230.204,209.666  225,164.167  225,130  C  225,95.833  233.176,37.332  235,27.5  L  86.777,0  C  83.129,19.664  0,20  0,20  z " />
<path transform="translate( 0, 0 )" style="stroke: hsl(188.3, 55%, 50%);" id="62"  d=" M  0,20  L  0,240  L  0,500  L  0,620  L  277.5,620  L  277.5,240  C  264.375,240  255.334,234.796  242.769,222.231  C  230.204,209.666  225,164.167  225,130  C  225,95.833  233.176,37.332  235,27.5  L  86.777,0  C  83.129,19.664  0,20  0,20  z " />
<path transform="translate( 0, 0 )" style="stroke: hsl(215.2, 55%, 50%);" id="71"  d=" M  0,20  L  0,240  L  0,500  L  0,620  L  277.5,620  L  277.5,240  C  264.375,240  255.334,234.796  242.769,222.231  C  230.204,209.666  225,164.167  225,130  C  225,95.833  233.176,37.332  235,27.5  L  86.777,0  C  83.129,19.664  0,20  0,20  z " />
<path transform="translate( 0, 0 )" style="stroke: hsl(242.1, 55%, 50%);" id="80"  d=" M  0,20  L  0,240  L  0,500  L  0,620  L  277.5,620  L  277.5,240  C  264.375,240  255.334,234.796  242.769,222.231  C  230.204,209.666  225,164.167  225,130  C  225,95.833  233.176,37.332  235,27.5  L  86.777,0  C  83.129,19.664  0,20  0,20  z " />
<path transform="translate( 0, 0 )" style="stroke: hsl(269, 55%, 50%);" id="89"  d=" M  0,20  L  0,240  L  0,500  L  0,620  L  277.5,620  L  277.5,240  C  264.375,240  255.334,234.796  242.769,222.231  C  230.204,209.666  225,164.167  225,130  C  225,95.833  233.176,37.332  235,27.5  L  86.777,0  C  83.129,19.664  0,20  0,20  z " />
<path transform="translate( 0, 0 )" style="stroke: hsl(295.9, 55%, 50%);" id="98"  d=" M  0,20  L  0,240  L  0,500  L  0,620  L  277.5,620  L  277.5,240  C  264.375,240  255.334,234.796  242.769,222.231  C  230.204,209.666  225,164.167  225,130  C  225,95.833  233.176,37.332  235,27.5  L  86.777,0  C  83.129,19.664  0,20  0,20  z " />
    </g>
    <!-- End of group #backBlock -->
    
    <!-- Start of group #frontBlock -->
    <g id="frontBlock"  transform=" translate(5 5)  translate(676.642 0) " >
        <path class="hidden" id="3"  d=" M  0,0  L  277.5,0  L  277.5,620  L  0,620  z " />
<path transform="translate( 0, 0 )" style="stroke: hsl(26.9, 55%, 50%);" id="9"  d=" M  0,99  L  0,240  L  0,500  L  0,620  L  277.5,620  L  277.5,240  C  264.375,240  255.334,234.796  242.769,222.231  C  230.204,209.666  220,164.167  220,130  C  220,95.833  233.176,37.332  235,27.5  L  86.777,0  C  83.129,19.664  86.777,99  0,99  z " />
<path transform="translate( 0, 0 )" style="stroke: hsl(53.8, 55%, 50%);" id="18"  d=" M  0,99  L  0,240  L  0,500  L  0,620  L  277.5,620  L  277.5,240  C  264.375,240  255.334,234.796  242.769,222.231  C  230.204,209.666  220,164.167  220,130  C  220,95.833  233.176,37.332  235,27.5  L  86.777,0  C  83.129,19.664  86.777,99  0,99  z " />
<path transform="translate( 0, 0 )" style="stroke: hsl(80.7, 55%, 50%);" id="27"  d=" M  0,99  L  0,240  L  0,500  L  0,620  L  277.5,620  L  277.5,240  C  264.375,240  255.334,234.796  242.769,222.231  C  230.204,209.666  220,164.167  220,130  C  220,95.833  233.176,37.332  235,27.5  L  86.777,0  C  83.129,19.664  86.777,99  0,99  z " />
<path transform="translate( 0, 0 )" style="stroke: hsl(107.6, 55%, 50%);" id="36"  d=" M  0,99  L  0,240  L  0,500  L  0,620  L  277.5,620  L  277.5,240  C  264.375,240  255.334,234.796  242.769,222.231  C  230.204,209.666  220,164.167  220,130  C  220,95.833  233.176,37.332  235,27.5  L  86.777,0  C  83.129,19.664  86.777,99  0,99  z " />
<path transform="translate( 0, 0 )" style="stroke: hsl(134.5, 55%, 50%);" id="45"  d=" M  0,99  L  0,240  L  0,500  L  0,620  L  277.5,620  L  277.5,240  C  264.375,240  255.334,234.796  242.769,222.231  C  230.204,209.666  220,164.167  220,130  C  220,95.833  233.176,37.332  235,27.5  L  86.777,0  C  83.129,19.664  86.777,99  0,99  z " />
<path transform="translate( 0, 0 )" style="stroke: hsl(161.4, 55%, 50%);" id="54"  d=" M  0,99  L  0,240  L  0,500  L  0,620  L  277.5,620  L  277.5,240  C  264.375,240  255.334,234.796  242.769,222.231  C  230.204,209.666  220,164.167  220,130  C  220,95.833  233.176,37.332  235,27.5  L  86.777,0  C  83.129,19.664  86.777,99  0,99  z " />
<path transform="translate( 0, 0 )" style="stroke: hsl(188.3, 55%, 50%);" id="63"  d=" M  0,99  L  0,240  L  0,500  L  0,620  L  277.5,620  L  277.5,240  C  264.375,240  255.334,234.796  242.769,222.231  C  230.204,209.666  220,164.167  220,130  C  220,95.833  233.176,37.332  235,27.5  L  86.777,0  C  83.129,19.664  86.777,99  0,99  z " />
<path transform="translate( 0, 0 )" style="stroke: hsl(215.2, 55%, 50%);" id="72"  d=" M  0,99  L  0,240  L  0,500  L  0,620  L  277.5,620  L  277.5,240  C  264.375,240  255.334,234.796  242.769,222.231  C  230.204,209.666  220,164.167  220,130  C  220,95.833  233.176,37.332  235,27.5  L  86.777,0  C  83.129,19.664  86.777,99  0,99  z " />
<path transform="translate( 0, 0 )" style="stroke: hsl(242.1, 55%, 50%);" id="81"  d=" M  0,99  L  0,240  L  0,500  L  0,620  L  277.5,620  L  277.5,240  C  264.375,240  255.334,234.796  242.769,222.231  C  230.204,209.666  220,164.167  220,130  C  220,95.833  233.176,37.332  235,27.5  L  86.777,0  C  83.129,19.664  86.777,99  0,99  z " />
<path transform="translate( 0, 0 )" style="stroke: hsl(269, 55%, 50%);" id="90"  d=" M  0,99  L  0,240  L  0,500  L  0,620  L  277.5,620  L  277.5,240  C  264.375,240  255.334,234.796  242.769,222.231  C  230.204,209.666  220,164.167  220,130  C  220,95.833  233.176,37.332  235,27.5  L  86.777,0  C  83.129,19.664  86.777,99  0,99  z " />
<path transform="translate( 0, 0 )" style="stroke: hsl(295.9, 55%, 50%);" id="99"  d=" M  0,99  L  0,240  L  0,500  L  0,620  L  277.5,620  L  277.5,240  C  264.375,240  255.334,234.796  242.769,222.231  C  230.204,209.666  220,164.167  220,130  C  220,95.833  233.176,37.332  235,27.5  L  86.777,0  C  83.129,19.664  86.777,99  0,99  z " />
    </g>
    <!-- End of group #frontBlock -->
    
    <!-- Start of group #sleeveBlock -->
    <g id="sleeveBlock"  transform=" translate(194.571 5.099)  translate(0 0) " >
        <path class="hidden" id="4"  d=" M  -189.571,-0.099  L  189.571,-0.099  L  189.571,700  L  -189.571,700  z " />
<path transform="translate( 0, 0 )" style="stroke: hsl(26.9, 55%, 50%);" id="10"  d=" M  -117.5,700  L  -189.571,126.55  C  -189.571,126.55  -158.59,107.13  -138.968,90.7  C  -119.346,74.27  -94.786,47.183  -94.786,47.183  C  -94.786,47.183  -76.987,21.568  -54.077,10.164  C  -31.167,-1.24  -25.592,-0  5,0  C  25.592,0  40.337,-1.963  62.057,11.572  C  83.777,25.107  99.786,62.183  99.786,62.183  C  99.786,62.183  115.14,91.647  135.939,106.558  C  156.738,121.469  189.571,126.55  189.571,126.55  L  117.5,700  z " />
<path transform="translate( 0, 0 )" style="stroke: hsl(53.8, 55%, 50%);" id="19"  d=" M  -117.5,700  L  -186.466,131.322  C  -186.466,131.322  -155.381,110.479  -136.534,93.792  C  -117.687,77.105  -93.233,48.774  -93.233,48.774  C  -93.233,48.774  -75.875,22.765  -53.57,11.096  C  -31.265,-0.573  -25.173,-0  5,0  C  25.173,0  40.526,-1.111  61.64,12.596  C  82.754,26.303  98.233,63.774  98.233,63.774  C  98.233,63.774  113.243,94.156  133.231,109.458  C  153.219,124.76  186.466,131.322  186.466,131.322  L  117.5,700  z " />
<path transform="translate( 0, 0 )" style="stroke: hsl(80.7, 55%, 50%);" id="28"  d=" M  -117.5,700  L  -183.573,134.842  C  -183.573,134.842  -152.478,112.892  -134.285,96.065  C  -116.092,79.238  -91.787,49.947  -91.787,49.947  C  -91.787,49.947  -74.832,23.643  -53.064,11.798  C  -31.296,-0.047  -24.782,-0  5,0  C  24.782,0  40.631,-0.435  61.209,13.374  C  81.787,27.183  96.787,64.947  96.787,64.947  C  96.787,64.947  111.47,96.032  130.771,111.576  C  150.072,127.12  183.573,134.842  183.573,134.842  L  117.5,700  z " />
<path transform="translate( 0, 0 )" style="stroke: hsl(107.6, 55%, 50%);" id="37"  d=" M  -117.5,700  L  -181.188,138.416  C  -181.188,138.416  -150.037,115.348  -132.422,98.378  C  -114.807,81.408  -90.594,51.139  -90.594,51.139  C  -90.594,51.139  -73.972,24.53  -52.671,12.506  C  -31.37,0.482  -24.46,-0  5,0  C  24.46,0  40.768,0.239  60.883,14.156  C  80.998,28.073  95.594,66.139  95.594,66.139  C  95.594,66.139  110.025,97.957  128.713,113.738  C  147.401,129.519  181.188,138.416  181.188,138.416  L  117.5,700  z " />
<path transform="translate( 0, 0 )" style="stroke: hsl(134.5, 55%, 50%);" id="46"  d=" M  -117.5,700  L  -179.001,141.273  C  -179.001,141.273  -147.84,117.281  -130.722,100.224  C  -113.604,83.167  -89.501,52.091  -89.501,52.091  C  -89.501,52.091  -73.181,25.238  -52.296,13.082  C  -31.411,0.926  -24.165,-0  5,0  C  24.165,0  40.861,0.802  60.565,14.791  C  80.269,28.78  94.501,67.091  94.501,67.091  C  94.501,67.091  108.695,99.511  126.855,115.454  C  145.015,131.397  179.001,141.273  179.001,141.273  L  117.5,700  z " />
<path transform="translate( 0, 0 )" style="stroke: hsl(161.4, 55%, 50%);" id="55"  d=" M  -117.5,700  L  -176.944,143.303  C  -176.944,143.303  -145.827,118.614  -129.132,101.53  C  -112.437,84.446  -88.472,52.768  -88.472,52.768  C  -88.472,52.768  -72.435,25.737  -51.92,13.501  C  -31.405,1.265  -23.887,-0  5,0  C  23.887,0  40.897,1.242  60.236,15.263  C  79.575,29.284  93.472,67.768  93.472,67.768  C  93.472,67.768  107.431,100.629  125.143,116.657  C  142.855,132.685  176.944,143.303  176.944,143.303  L  117.5,700  z " />
<path transform="translate( 0, 0 )" style="stroke: hsl(188.3, 55%, 50%);" id="64"  d=" M  -117.5,700  L  -175.009,144.593  C  -175.009,144.593  -143.984,119.419  -127.645,102.354  C  -111.306,85.289  -87.505,53.198  -87.505,53.198  C  -87.505,53.198  -71.733,26.055  -51.545,13.782  C  -31.357,1.509  -23.626,-0  5,0  C  23.626,0  40.883,1.566  59.9,15.586  C  78.917,29.606  92.505,68.198  92.505,68.198  C  92.505,68.198  106.23,101.35  123.566,117.402  C  140.902,133.454  175.009,144.593  175.009,144.593  L  117.5,700  z " />
<path transform="translate( 0, 0 )" style="stroke: hsl(215.2, 55%, 50%);" id="73"  d=" M  -117.5,700  L  -173.477,146.676  C  -173.477,146.676  -142.449,120.807  -126.455,103.699  C  -110.461,86.591  -86.739,53.892  -86.739,53.892  C  -86.739,53.892  -71.178,26.565  -51.285,14.205  C  -31.392,1.845  -23.42,-0  5,0  C  23.42,0  40.953,1.991  59.68,16.054  C  78.407,30.117  91.739,68.892  91.739,68.892  C  91.739,68.892  105.301,102.505  122.267,118.65  C  139.233,134.795  173.477,146.676  173.477,146.676  L  117.5,700  z " />
<path transform="translate( 0, 0 )" style="stroke: hsl(242.1, 55%, 50%);" id="82"  d=" M  -117.5,700  L  -172.022,148.189  C  -172.022,148.189  -141.027,121.787  -125.331,104.671  C  -109.635,87.555  -86.011,54.396  -86.011,54.396  C  -86.011,54.396  -70.651,26.934  -51.024,14.521  C  -31.397,2.108  -23.223,-0  5,0  C  23.223,0  40.984,2.327  59.451,16.408  C  77.918,30.489  91.011,69.396  91.011,69.396  C  91.011,69.396  104.412,103.354  121.059,119.546  C  137.706,135.738  172.022,148.189  172.022,148.189  L  117.5,700  z " />
<path transform="translate( 0, 0 )" style="stroke: hsl(269, 55%, 50%);" id="91"  d=" M  -117.5,700  L  -170.903,150.676  C  -170.903,150.676  -139.842,123.476  -124.453,106.286  C  -109.064,89.096  -85.452,55.225  -85.452,55.225  C  -85.452,55.225  -70.246,27.538  -50.868,15.015  C  -31.49,2.492  -23.072,-0  5,0  C  23.072,0  41.107,2.796  59.331,16.945  C  77.555,31.094  90.452,70.225  90.452,70.225  C  90.452,70.225  103.756,104.743  120.07,121.057  C  136.384,137.371  170.903,150.676  170.903,150.676  L  117.5,700  z " />
<path transform="translate( 0, 0 )" style="stroke: hsl(295.9, 55%, 50%);" id="100"  d=" M  -117.5,700  L  -169.576,151.207  C  -169.576,151.207  -138.61,123.761  -123.438,106.618  C  -108.266,89.475  -84.788,55.402  -84.788,55.402  C  -84.788,55.402  -69.764,27.666  -50.599,15.144  C  -31.434,2.622  -22.893,-0  5,0  C  22.893,0  41.071,2.975  59.086,17.101  C  77.101,31.227  89.788,70.402  89.788,70.402  C  89.788,70.402  102.923,105.053  119.008,121.343  C  135.093,137.633  169.576,151.207  169.576,151.207  L  117.5,700  z " />
    </g>
    <!-- End of group #sleeveBlock -->
    
    <!-- Start of group #sampler-backBlock -->
    <g id="sampler-backBlock" >
    </g>
    <!-- End of group #sampler-backBlock -->
    
    <!-- Start of group #sampler-frontBlock -->
    <g id="sampler-frontBlock" >
    </g>
    <!-- End of group #sampler-frontBlock -->
    
    <!-- Start of group #sampler-sleeveBlock -->
    <g id="sampler-sleeveBlock" >
    </g>
    <!-- End of group #sampler-sleeveBlock -->
</g>
<!-- End of group #patternContainer -->

</svg>

