<?xml version="1.0" encoding="UTF-8" standalone="no"?>
<svg
    width ="1452.7559069"
    height ="1133.8582688"
    viewbox ="0 0 1452.7559069 1133.8582688" xmlns:dc="http://purl.org/dc/elements/1.1/"
    xmlns:cc="http://creativecommons.org/ns#"
    xmlns:rdf="http://www.w3.org/1999/02/22-rdf-syntax-ns#"
    xmlns:svg="http://www.w3.org/2000/svg"
    xmlns="http://www.w3.org/2000/svg"
    xmlns:xlink="http://www.w3.org/1999/xlink"
    xmlns:sodipodi="http://sodipodi.sourceforge.net/DTD/sodipodi-0.dtd"
    xmlns:inkscape="http://www.inkscape.org/namespaces/inkscape" 
>

<style type="text/css">
    <![CDATA[
    path { fill: none; stroke: #000000; stroke-opacity:1; stroke-width: 0.5; stroke-miterlimit:4; stroke-dashoffset:0; stroke-linecap:round; stroke-linejoin:round; }
    path.hidden { fill: none; stroke: none; }]]>
</style>


<!-- Start of group #patternScaleContainer -->
<g id="patternScaleContainer"  transform=" scale(3.54330709 ) " >
    
    <!-- Start of group #base -->
    <g id="base"  transform=" translate(0 0)  translate(410 0) " >
    </g>
    <!-- End of group #base -->
    
    <!-- Start of group #panels -->
    <g id="panels"  transform=" translate(5 30)  translate(0 0) " >
        <path class="hidden" id="2"  d=" M  0,-25  L  400,-25  L  400,285  L  0,285  z " />
<path transform="translate( 0, 0 )" style="stroke: hsl(26.9, 55%, 50%);" id="9"  d=" M  0,-25  L  0,285  C  7.92,285  15.581,283.218  24,280.117  L  40,-9.68  C  32.944,-16.59  23.2,-25  0,-25  z " />
<path transform="translate( 0, 0 )" style="stroke: hsl(26.9, 55%, 50%);" id="10"  d=" M  40,-9.68  L  24,280.117  C  35.061,276.045  46.722,269.682  60,263.057  L  60,260  C  60,260  48,120  48,100  C  48,80  56,15  56,-0  C  49.28,0  45.382,-4.41  40,-9.68  z " />
<path transform="translate( 0, 0 )" style="stroke: hsl(26.9, 55%, 50%);" id="11"  d=" M  64,0  C  64,15  72,80  72,100  C  72,120  60,260  60,260  L  60,263.057  C  73.995,256.105  89.995,248.715  108.522,242.542  C  108.522,242.542  98,120  98,100  C  98,80  106,15  106,-0  z " />
<path transform="translate( 0, 0 )" style="stroke: hsl(26.9, 55%, 50%);" id="12"  d=" M  114,0  C  114,15  122,80  122,100  C  122,120  111.478,242.542  111.478,242.542  C  124.304,238.14  140.751,234.442  157.658,232.217  C  157.658,149.581  148,120  148,100  C  148,80  156,15  156,-0  z " />
<path transform="translate( 0, 0 )" style="stroke: hsl(26.9, 55%, 50%);" id="13"  d=" M  228,100  C  228,80  236,15  236,-0  L  236,0  C  227.2,0  216,0  200,0  L  164,0  C  164,15  172,80  172,100  C  172,120  162.342,232.217  162.342,232.217  C  172.11,230.81  185.436,230  200,230  C  216,230  228.8,231.2  237.733,233.12  C  237.733,233.12  228,120  228,100  z " />
<path transform="translate( 0, 0 )" style="stroke: hsl(26.9, 55%, 50%);" id="14"  d=" M  288,100  C  288,80  296,15  296,-0  L  244,0  C  244,15  252,80  252,100  C  252,120  242.267,149.92  242.267,233.12  C  261.952,236.883  277.757,243.412  299.085,249.233  C  299.085,249.233  288,120  288,100  z " />
<path transform="translate( 0, 0 )" style="stroke: hsl(26.9, 55%, 50%);" id="15"  d=" M  400,0  C  354.404,0  325.05,0  304,0  L  304,0  C  304,15  312,80  312,100  C  312,120  300.915,249.233  300.915,249.233  C  322.056,255.006  351.04,260  400,260  z " />
<path transform="translate( 0, 0 )" style="stroke: hsl(53.8, 55%, 50%);" id="23"  d=" M  0,-25  L  0,285  C  7.841,285  15.425,283.218  23.76,280.117  L  39.56,-9.683  C  32.582,-16.59  22.945,-25  0,-25  z " />
<path transform="translate( 0, 0 )" style="stroke: hsl(53.8, 55%, 50%);" id="24"  d=" M  39.56,-9.683  L  23.76,280.117  C  34.711,276.045  46.255,269.682  59.4,263.057  L  59.4,260  C  59.4,260  47.4,120  47.4,100  C  47.4,80  55.4,15  55.4,-0  C  48.747,0  44.889,-4.41  39.56,-9.683  z " />
<path transform="translate( 0, 0 )" style="stroke: hsl(53.8, 55%, 50%);" id="25"  d=" M  63.4,0  C  63.4,15  71.4,80  71.4,100  C  71.4,120  59.4,260  59.4,260  L  59.4,263.057  C  73.255,256.105  89.095,248.715  107.422,242.542  C  107.422,242.542  96.9,120  96.9,100  C  96.9,80  104.9,15  104.9,-0  z " />
<path transform="translate( 0, 0 )" style="stroke: hsl(53.8, 55%, 50%);" id="26"  d=" M  112.9,0  C  112.9,15  120.9,80  120.9,100  C  120.9,120  110.378,242.542  110.378,242.542  C  123.061,238.14  139.343,234.442  156.058,232.217  C  156.058,149.581  146.4,120  146.4,100  C  146.4,80  154.4,15  154.4,-0  z " />
<path transform="translate( 0, 0 )" style="stroke: hsl(53.8, 55%, 50%);" id="27"  d=" M  225.6,100  C  225.6,80  233.6,15  233.6,-0  L  233.6,0  C  224.928,0  213.84,0  198,0  L  162.4,0  C  162.4,15  170.4,80  170.4,100  C  170.4,120  160.742,232.217  160.742,232.217  C  170.389,230.81  183.582,230  198,230  C  213.84,230  226.512,231.2  235.333,233.12  C  235.333,233.12  225.6,120  225.6,100  z " />
<path transform="translate( 0, 0 )" style="stroke: hsl(53.8, 55%, 50%);" id="28"  d=" M  285,100  C  285,80  293,15  293,-0  L  241.6,0  C  241.6,15  249.6,80  249.6,100  C  249.6,120  239.867,149.92  239.867,233.12  C  259.332,236.883  274.98,243.412  296.085,249.233  C  296.085,249.233  285,120  285,100  z " />
<path transform="translate( 0, 0 )" style="stroke: hsl(53.8, 55%, 50%);" id="29"  d=" M  396,0  C  350.86,0  321.799,0  301,0  L  301,0  C  301,15  309,80  309,100  C  309,120  297.915,249.233  297.915,249.233  C  318.835,255.006  347.53,260  396,260  z " />
<path transform="translate( 0, 0 )" style="stroke: hsl(80.7, 55%, 50%);" id="37"  d=" M  0,-25  L  0,285  C  7.762,285  15.269,283.218  23.52,280.117  L  39.12,-9.686  C  32.219,-16.59  22.69,-25  0,-25  z " />
<path transform="translate( 0, 0 )" style="stroke: hsl(80.7, 55%, 50%);" id="38"  d=" M  39.12,-9.686  L  23.52,280.117  C  34.36,276.045  45.788,269.682  58.8,263.057  L  58.8,260  C  58.8,260  46.8,120  46.8,100  C  46.8,80  54.8,15  54.8,-0  C  48.214,0  44.395,-4.41  39.12,-9.686  z " />
<path transform="translate( 0, 0 )" style="stroke: hsl(80.7, 55%, 50%);" id="39"  d=" M  62.8,0  C  62.8,15  70.8,80  70.8,100  C  70.8,120  58.8,260  58.8,260  L  58.8,263.057  C  72.515,256.105  88.195,248.715  106.322,242.542  C  106.322,242.542  95.8,120  95.8,100  C  95.8,80  103.8,15  103.8,-0  z " />
<path transform="translate( 0, 0 )" style="stroke: hsl(80.7, 55%, 50%);" id="40"  d=" M  111.8,0  C  111.8,15  119.8,80  119.8,100  C  119.8,120  109.278,242.542  109.278,242.542  C  121.818,238.14  137.936,234.442  154.458,232.217  C  154.458,149.581  144.8,120  144.8,100  C  144.8,80  152.8,15  152.8,-0  z " />
<path transform="translate( 0, 0 )" style="stroke: hsl(80.7, 55%, 50%);" id="41"  d=" M  223.2,100  C  223.2,80  231.2,15  231.2,-0  L  231.2,0  C  222.656,0  211.68,0  196,0  L  160.8,0  C  160.8,15  168.8,80  168.8,100  C  168.8,120  159.142,232.217  159.142,232.217  C  168.668,230.81  181.728,230  196,230  C  211.68,230  224.224,231.2  232.933,233.12  C  232.933,233.12  223.2,120  223.2,100  z " />
<path transform="translate( 0, 0 )" style="stroke: hsl(80.7, 55%, 50%);" id="42"  d=" M  282,100  C  282,80  290,15  290,-0  L  239.2,0  C  239.2,15  247.2,80  247.2,100  C  247.2,120  237.467,149.92  237.467,233.12  C  256.713,236.883  272.202,243.412  293.085,249.233  C  293.085,249.233  282,120  282,100  z " />
<path transform="translate( 0, 0 )" style="stroke: hsl(80.7, 55%, 50%);" id="43"  d=" M  392,0  C  347.315,0  318.549,0  298,0  L  298,0  C  298,15  306,80  306,100  C  306,120  294.915,249.233  294.915,249.233  C  315.615,255.006  344.019,260  392,260  z " />
<path transform="translate( 0, 0 )" style="stroke: hsl(107.6, 55%, 50%);" id="51"  d=" M  0,-25  L  0,285  C  7.682,285  15.113,283.218  23.28,280.117  L  38.68,-9.69  C  31.857,-16.59  22.434,-25  0,-25  z " />
<path transform="translate( 0, 0 )" style="stroke: hsl(107.6, 55%, 50%);" id="52"  d=" M  38.68,-9.69  L  23.28,280.117  C  34.009,276.045  45.32,269.682  58.2,263.057  L  58.2,260  C  58.2,260  46.2,120  46.2,100  C  46.2,80  54.2,15  54.2,-0  C  47.682,0  43.901,-4.41  38.68,-9.69  z " />
<path transform="translate( 0, 0 )" style="stroke: hsl(107.6, 55%, 50%);" id="53"  d=" M  62.2,0  C  62.2,15  70.2,80  70.2,100  C  70.2,120  58.2,260  58.2,260  L  58.2,263.057  C  71.775,256.105  87.295,248.715  105.222,242.542  C  105.222,242.542  94.7,120  94.7,100  C  94.7,80  102.7,15  102.7,-0  z " />
<path transform="translate( 0, 0 )" style="stroke: hsl(107.6, 55%, 50%);" id="54"  d=" M  110.7,0  C  110.7,15  118.7,80  118.7,100  C  118.7,120  108.178,242.542  108.178,242.542  C  120.575,238.14  136.529,234.442  152.858,232.217  C  152.858,149.581  143.2,120  143.2,100  C  143.2,80  151.2,15  151.2,-0  z " />
<path transform="translate( 0, 0 )" style="stroke: hsl(107.6, 55%, 50%);" id="55"  d=" M  220.8,100  C  220.8,80  228.8,15  228.8,-0  L  228.8,0  C  220.384,0  209.52,0  194,0  L  159.2,0  C  159.2,15  167.2,80  167.2,100  C  167.2,120  157.542,232.217  157.542,232.217  C  166.947,230.81  179.873,230  194,230  C  209.52,230  221.936,231.2  230.533,233.12  C  230.533,233.12  220.8,120  220.8,100  z " />
<path transform="translate( 0, 0 )" style="stroke: hsl(107.6, 55%, 50%);" id="56"  d=" M  279,100  C  279,80  287,15  287,-0  L  236.8,0  C  236.8,15  244.8,80  244.8,100  C  244.8,120  235.067,149.92  235.067,233.12  C  254.093,236.883  269.425,243.412  290.085,249.233  C  290.085,249.233  279,120  279,100  z " />
<path transform="translate( 0, 0 )" style="stroke: hsl(107.6, 55%, 50%);" id="57"  d=" M  388,0  C  343.28,0  314.667,0  295,0  L  295,0  C  295,15  303,80  303,100  C  303,120  291.915,249.233  291.915,249.233  C  312.394,255.006  340.509,260  388,260  z " />
<path transform="translate( 0, 0 )" style="stroke: hsl(134.5, 55%, 50%);" id="65"  d=" M  0,-25  L  0,285  C  7.603,285  14.958,283.218  23.04,280.117  L  38.24,-9.693  C  31.494,-16.59  22.179,-25  0,-25  z " />
<path transform="translate( 0, 0 )" style="stroke: hsl(134.5, 55%, 50%);" id="66"  d=" M  38.24,-9.693  L  23.04,280.117  C  33.659,276.045  44.853,269.682  57.6,263.057  L  57.6,260  C  57.6,260  45.6,120  45.6,100  C  45.6,80  53.6,15  53.6,-0  C  47.149,0  43.407,-4.41  38.24,-9.693  z " />
<path transform="translate( 0, 0 )" style="stroke: hsl(134.5, 55%, 50%);" id="67"  d=" M  61.6,0  C  61.6,15  69.6,80  69.6,100  C  69.6,120  57.6,260  57.6,260  L  57.6,263.057  C  71.035,256.105  86.395,248.715  104.122,242.542  C  104.122,242.542  93.6,120  93.6,100  C  93.6,80  101.6,15  101.6,-0  z " />
<path transform="translate( 0, 0 )" style="stroke: hsl(134.5, 55%, 50%);" id="68"  d=" M  109.6,0  C  109.6,15  117.6,80  117.6,100  C  117.6,120  107.078,242.542  107.078,242.542  C  119.332,238.14  135.121,234.442  151.258,232.217  C  151.258,149.581  141.6,120  141.6,100  C  141.6,80  149.6,15  149.6,-0  z " />
<path transform="translate( 0, 0 )" style="stroke: hsl(134.5, 55%, 50%);" id="69"  d=" M  218.4,100  C  218.4,80  226.4,15  226.4,-0  L  226.4,0  C  218.112,0  207.36,0  192,0  L  157.6,0  C  157.6,15  165.6,80  165.6,100  C  165.6,120  155.942,232.217  155.942,232.217  C  165.226,230.81  178.019,230  192,230  C  207.36,230  219.648,231.2  228.133,233.12  C  228.133,233.12  218.4,120  218.4,100  z " />
<path transform="translate( 0, 0 )" style="stroke: hsl(134.5, 55%, 50%);" id="70"  d=" M  276,100  C  276,80  284,15  284,-0  L  234.4,0  C  234.4,15  242.4,80  242.4,100  C  242.4,120  232.667,149.92  232.667,233.12  C  251.474,236.883  266.647,243.412  287.085,249.233  C  287.085,249.233  276,120  276,100  z " />
<path transform="translate( 0, 0 )" style="stroke: hsl(134.5, 55%, 50%);" id="71"  d=" M  384,0  C  339.741,0  311.423,0  292,0  L  292,0  C  292,15  300,80  300,100  C  300,120  288.915,249.233  288.915,249.233  C  309.173,255.006  336.998,260  384,260  z " />
<path transform="translate( 0, 0 )" style="stroke: hsl(161.4, 55%, 50%);" id="79"  d=" M  0,-25  L  0,285  C  7.524,285  14.802,283.218  22.8,280.117  L  37.8,-9.696  C  31.132,-16.59  21.924,-25  0,-25  z " />
<path transform="translate( 0, 0 )" style="stroke: hsl(161.4, 55%, 50%);" id="80"  d=" M  37.8,-9.696  L  22.8,280.117  C  33.308,276.045  44.386,269.682  57,263.057  L  57,260  C  57,260  45,120  45,100  C  45,80  53,15  53,-0  C  46.616,0  42.913,-4.41  37.8,-9.696  z " />
<path transform="translate( 0, 0 )" style="stroke: hsl(161.4, 55%, 50%);" id="81"  d=" M  61,0  C  61,15  69,80  69,100  C  69,120  57,260  57,260  L  57,263.057  C  70.295,256.105  85.495,248.715  103.022,242.542  C  103.022,242.542  92.5,120  92.5,100  C  92.5,80  100.5,15  100.5,-0  z " />
<path transform="translate( 0, 0 )" style="stroke: hsl(161.4, 55%, 50%);" id="82"  d=" M  108.5,0  C  108.5,15  116.5,80  116.5,100  C  116.5,120  105.978,242.542  105.978,242.542  C  118.089,238.14  133.713,234.442  149.658,232.217  C  149.658,149.581  140,120  140,100  C  140,80  148,15  148,-0  z " />
<path transform="translate( 0, 0 )" style="stroke: hsl(161.4, 55%, 50%);" id="83"  d=" M  216,100  C  216,80  224,15  224,-0  L  224,0  C  215.84,0  205.2,0  190,0  L  156,0  C  156,15  164,80  164,100  C  164,120  154.342,232.217  154.342,232.217  C  163.504,230.81  176.164,230  190,230  C  205.2,230  217.36,231.2  225.733,233.12  C  225.733,233.12  216,120  216,100  z " />
<path transform="translate( 0, 0 )" style="stroke: hsl(161.4, 55%, 50%);" id="84"  d=" M  273,100  C  273,80  281,15  281,-0  L  232,0  C  232,15  240,80  240,100  C  240,120  230.267,149.92  230.267,233.12  C  248.854,236.883  263.87,243.412  284.085,249.233  C  284.085,249.233  273,120  273,100  z " />
<path transform="translate( 0, 0 )" style="stroke: hsl(161.4, 55%, 50%);" id="85"  d=" M  380,0  C  336.202,0  308.179,0  289,0  L  289,0  C  289,15  297,80  297,100  C  297,120  285.915,249.233  285.915,249.233  C  305.953,255.006  333.488,260  380,260  z " />
<path transform="translate( 0, 0 )" style="stroke: hsl(188.3, 55%, 50%);" id="93"  d=" M  0,-25  L  0,285  C  7.445,285  14.646,283.218  22.56,280.117  L  37.36,-9.7  C  30.77,-16.59  21.669,-25  0,-25  z " />
<path transform="translate( 0, 0 )" style="stroke: hsl(188.3, 55%, 50%);" id="94"  d=" M  37.36,-9.7  L  22.56,280.117  C  32.958,276.045  43.919,269.682  56.4,263.057  L  56.4,260  C  56.4,260  44.4,120  44.4,100  C  44.4,80  52.4,15  52.4,-0  C  46.083,0  42.419,-4.41  37.36,-9.7  z " />
<path transform="translate( 0, 0 )" style="stroke: hsl(188.3, 55%, 50%);" id="95"  d=" M  60.4,0  C  60.4,15  68.4,80  68.4,100  C  68.4,120  56.4,260  56.4,260  L  56.4,263.057  C  69.555,256.105  84.595,248.715  101.922,242.542  C  101.922,242.542  91.4,120  91.4,100  C  91.4,80  99.4,15  99.4,-0  z " />
<path transform="translate( 0, 0 )" style="stroke: hsl(188.3, 55%, 50%);" id="96"  d=" M  107.4,0  C  107.4,15  115.4,80  115.4,100  C  115.4,120  104.878,242.542  104.878,242.542  C  116.846,238.14  132.306,234.442  148.058,232.217  C  148.058,149.581  138.4,120  138.4,100  C  138.4,80  146.4,15  146.4,-0  z " />
<path transform="translate( 0, 0 )" style="stroke: hsl(188.3, 55%, 50%);" id="97"  d=" M  213.6,100  C  213.6,80  221.6,15  221.6,-0  L  221.6,0  C  213.568,0  203.04,0  188,0  L  154.4,0  C  154.4,15  162.4,80  162.4,100  C  162.4,120  152.742,232.217  152.742,232.217  C  161.783,230.81  174.31,230  188,230  C  203.04,230  215.072,231.2  223.333,233.12  C  223.333,233.12  213.6,120  213.6,100  z " />
<path transform="translate( 0, 0 )" style="stroke: hsl(188.3, 55%, 50%);" id="98"  d=" M  270,100  C  270,80  278,15  278,-0  L  229.6,0  C  229.6,15  237.6,80  237.6,100  C  237.6,120  227.867,149.92  227.867,233.12  C  246.235,236.883  261.092,243.412  281.085,249.233  C  281.085,249.233  270,120  270,100  z " />
<path transform="translate( 0, 0 )" style="stroke: hsl(188.3, 55%, 50%);" id="99"  d=" M  376,0  C  332.664,0  304.936,0  286,0  L  286,0  C  286,15  294,80  294,100  C  294,120  282.915,249.233  282.915,249.233  C  302.732,255.006  329.978,260  376,260  z " />
<path transform="translate( 0, 0 )" style="stroke: hsl(215.2, 55%, 50%);" id="107"  d=" M  0,-25  L  0,285  C  7.366,285  14.49,283.218  22.32,280.117  L  36.92,-9.703  C  30.407,-16.59  21.414,-25  0,-25  z " />
<path transform="translate( 0, 0 )" style="stroke: hsl(215.2, 55%, 50%);" id="108"  d=" M  36.92,-9.703  L  22.32,280.117  C  32.607,276.045  43.451,269.682  55.8,263.057  L  55.8,260  C  55.8,260  43.8,120  43.8,100  C  43.8,80  51.8,15  51.8,-0  C  45.55,0  41.926,-4.41  36.92,-9.703  z " />
<path transform="translate( 0, 0 )" style="stroke: hsl(215.2, 55%, 50%);" id="109"  d=" M  59.8,0  C  59.8,15  67.8,80  67.8,100  C  67.8,120  55.8,260  55.8,260  L  55.8,263.057  C  68.815,256.105  83.695,248.715  100.822,242.542  C  100.822,242.542  90.3,120  90.3,100  C  90.3,80  98.3,15  98.3,-0  z " />
<path transform="translate( 0, 0 )" style="stroke: hsl(215.2, 55%, 50%);" id="110"  d=" M  106.3,0  C  106.3,15  114.3,80  114.3,100  C  114.3,120  103.778,242.542  103.778,242.542  C  115.603,238.14  130.898,234.442  146.458,232.217  C  146.458,149.581  136.8,120  136.8,100  C  136.8,80  144.8,15  144.8,-0  z " />
<path transform="translate( 0, 0 )" style="stroke: hsl(215.2, 55%, 50%);" id="111"  d=" M  211.2,100  C  211.2,80  219.2,15  219.2,-0  L  219.2,0  C  211.296,0  200.88,0  186,0  L  152.8,0  C  152.8,15  160.8,80  160.8,100  C  160.8,120  151.142,232.217  151.142,232.217  C  160.062,230.81  172.456,230  186,230  C  200.88,230  212.784,231.2  220.933,233.12  C  220.933,233.12  211.2,120  211.2,100  z " />
<path transform="translate( 0, 0 )" style="stroke: hsl(215.2, 55%, 50%);" id="112"  d=" M  267,100  C  267,80  275,15  275,-0  L  227.2,0  C  227.2,15  235.2,80  235.2,100  C  235.2,120  225.467,149.92  225.467,233.12  C  243.615,236.883  258.314,243.412  278.085,249.233  C  278.085,249.233  267,120  267,100  z " />
<path transform="translate( 0, 0 )" style="stroke: hsl(215.2, 55%, 50%);" id="113"  d=" M  372,0  C  329.59,0  302.289,0  283,0  L  283,0  C  283,15  291,80  291,100  C  291,120  279.915,249.233  279.915,249.233  C  299.512,255.006  326.467,260  372,260  z " />
<path transform="translate( 0, 0 )" style="stroke: hsl(242.1, 55%, 50%);" id="121"  d=" M  0,-25  L  0,285  C  7.286,285  14.334,283.218  22.08,280.117  L  36.48,-9.706  C  30.045,-16.59  21.158,-25  0,-25  z " />
<path transform="translate( 0, 0 )" style="stroke: hsl(242.1, 55%, 50%);" id="122"  d=" M  36.48,-9.706  L  22.08,280.117  C  32.256,276.045  42.984,269.682  55.2,263.057  L  55.2,260  C  55.2,260  43.2,120  43.2,100  C  43.2,80  51.2,15  51.2,-0  C  45.018,0  41.432,-4.41  36.48,-9.706  z " />
<path transform="translate( 0, 0 )" style="stroke: hsl(242.1, 55%, 50%);" id="123"  d=" M  59.2,0  C  59.2,15  67.2,80  67.2,100  C  67.2,120  55.2,260  55.2,260  L  55.2,263.057  C  68.075,256.105  82.795,248.715  99.722,242.542  C  99.722,242.542  89.2,120  89.2,100  C  89.2,80  97.2,15  97.2,-0  z " />
<path transform="translate( 0, 0 )" style="stroke: hsl(242.1, 55%, 50%);" id="124"  d=" M  105.2,0  C  105.2,15  113.2,80  113.2,100  C  113.2,120  102.678,242.542  102.678,242.542  C  114.36,238.14  129.491,234.442  144.858,232.217  C  144.858,149.581  135.2,120  135.2,100  C  135.2,80  143.2,15  143.2,-0  z " />
<path transform="translate( 0, 0 )" style="stroke: hsl(242.1, 55%, 50%);" id="125"  d=" M  208.8,100  C  208.8,80  216.8,15  216.8,-0  L  216.8,0  C  209.024,0  198.72,0  184,0  L  151.2,0  C  151.2,15  159.2,80  159.2,100  C  159.2,120  149.542,232.217  149.542,232.217  C  158.341,230.81  170.602,230  184,230  C  198.72,230  210.496,231.2  218.533,233.12  C  218.533,233.12  208.8,120  208.8,100  z " />
<path transform="translate( 0, 0 )" style="stroke: hsl(242.1, 55%, 50%);" id="126"  d=" M  264,100  C  264,80  272,15  272,-0  L  224.8,0  C  224.8,15  232.8,80  232.8,100  C  232.8,120  223.067,149.92  223.067,233.12  C  240.996,236.883  255.537,243.412  275.085,249.233  C  275.085,249.233  264,120  264,100  z " />
<path transform="translate( 0, 0 )" style="stroke: hsl(242.1, 55%, 50%);" id="127"  d=" M  368,0  C  326.046,0  299.039,0  280,0  L  280,0  C  280,15  288,80  288,100  C  288,120  276.915,249.233  276.915,249.233  C  296.291,255.006  322.957,260  368,260  z " />
<path transform="translate( 0, 0 )" style="stroke: hsl(269, 55%, 50%);" id="135"  d=" M  0,-25  L  0,285  C  7.207,285  14.179,283.218  21.84,280.117  L  36.04,-9.71  C  29.376,-16.878  20.543,-25  0,-25  z " />
<path transform="translate( 0, 0 )" style="stroke: hsl(269, 55%, 50%);" id="136"  d=" M  36.04,-9.71  L  21.84,280.117  C  31.906,276.045  42.517,269.682  54.6,263.057  L  54.6,260  C  54.6,260  42.6,120  42.6,100  C  42.6,80  50.6,15  50.6,-0  C  44.339,0  40.771,-4.623  36.04,-9.71  z " />
<path transform="translate( 0, 0 )" style="stroke: hsl(269, 55%, 50%);" id="137"  d=" M  58.6,0  C  58.6,15  66.6,80  66.6,100  C  66.6,120  54.6,260  54.6,260  L  54.6,263.057  C  67.335,256.105  81.896,248.715  98.622,242.542  C  98.622,242.542  88.1,120  88.1,100  C  88.1,80  96.1,15  96.1,-0  z " />
<path transform="translate( 0, 0 )" style="stroke: hsl(269, 55%, 50%);" id="138"  d=" M  104.1,0  C  104.1,15  112.1,80  112.1,100  C  112.1,120  101.578,242.542  101.578,242.542  C  113.117,238.14  128.083,234.442  143.258,232.217  C  143.258,149.581  133.6,120  133.6,100  C  133.6,80  141.6,15  141.6,-0  z " />
<path transform="translate( 0, 0 )" style="stroke: hsl(269, 55%, 50%);" id="139"  d=" M  206.4,100  C  206.4,80  214.4,15  214.4,-0  L  214.4,0  C  206.752,0  196.56,0  182,0  L  149.6,0  C  149.6,15  157.6,80  157.6,100  C  157.6,120  147.942,232.217  147.942,232.217  C  156.62,230.81  168.747,230  182,230  C  196.56,230  208.208,231.2  216.133,233.12  C  216.133,233.12  206.4,120  206.4,100  z " />
<path transform="translate( 0, 0 )" style="stroke: hsl(269, 55%, 50%);" id="140"  d=" M  261,100  C  261,80  269,15  269,-0  L  222.4,0  C  222.4,15  230.4,80  230.4,100  C  230.4,120  220.667,149.92  220.667,233.12  C  238.376,236.883  252.759,243.412  272.085,249.233  C  272.085,249.233  261,120  261,100  z " />
<path transform="translate( 0, 0 )" style="stroke: hsl(269, 55%, 50%);" id="141"  d=" M  364,0  C  322.502,0  295.788,0  277,0  L  277,0  C  277,15  285,80  285,100  C  285,120  273.915,249.233  273.915,249.233  C  293.071,255.006  319.446,260  364,260  z " />
<path transform="translate( 0, 0 )" style="stroke: hsl(295.9, 55%, 50%);" id="149"  d=" M  0,-25  L  0,285  C  7.128,285  14.023,283.218  21.6,280.117  L  35.6,-9.714  C  29.018,-16.878  20.292,-25  0,-25  z " />
<path transform="translate( 0, 0 )" style="stroke: hsl(295.9, 55%, 50%);" id="150"  d=" M  35.6,-9.714  L  21.6,280.117  C  31.555,276.045  42.05,269.682  54,263.057  L  54,260  C  54,260  42,120  42,100  C  42,80  50,15  50,-0  C  43.808,0  40.279,-4.623  35.6,-9.714  z " />
<path transform="translate( 0, 0 )" style="stroke: hsl(295.9, 55%, 50%);" id="151"  d=" M  58,0  C  58,15  66,80  66,100  C  66,120  54,260  54,260  L  54,263.057  C  66.595,256.105  80.996,248.715  97.522,242.542  C  97.522,242.542  87,120  87,100  C  87,80  95,15  95,-0  z " />
<path transform="translate( 0, 0 )" style="stroke: hsl(295.9, 55%, 50%);" id="152"  d=" M  103,0  C  103,15  111,80  111,100  C  111,120  100.478,242.542  100.478,242.542  C  111.873,238.14  126.676,234.442  141.658,232.217  C  141.658,149.581  132,120  132,100  C  132,80  140,15  140,-0  z " />
<path transform="translate( 0, 0 )" style="stroke: hsl(295.9, 55%, 50%);" id="153"  d=" M  204,100  C  204,80  212,15  212,-0  L  212,0  C  204.48,0  194.4,0  180,0  L  148,0  C  148,15  156,80  156,100  C  156,120  146.342,232.217  146.342,232.217  C  154.899,230.81  166.893,230  180,230  C  194.4,230  205.92,231.2  213.733,233.12  C  213.733,233.12  204,120  204,100  z " />
<path transform="translate( 0, 0 )" style="stroke: hsl(295.9, 55%, 50%);" id="154"  d=" M  258,100  C  258,80  266,15  266,-0  L  220,0  C  220,15  228,80  228,100  C  228,120  218.267,149.92  218.267,233.12  C  235.757,236.883  249.982,243.412  269.085,249.233  C  269.085,249.233  258,120  258,100  z " />
<path transform="translate( 0, 0 )" style="stroke: hsl(295.9, 55%, 50%);" id="155"  d=" M  360,0  C  318.959,0  292.538,0  274,0  L  274,0  C  274,15  282,80  282,100  C  282,120  270.915,249.233  270.915,249.233  C  289.85,255.006  315.936,260  360,260  z " />
    </g>
    <!-- End of group #panels -->
    
    <!-- Start of group #sampler-panels -->
    <g id="sampler-panels"  transform=" translate(0 0)  translate(410 0) " >
    </g>
    <!-- End of group #sampler-panels -->
</g>
<!-- End of group #patternScaleContainer -->

</svg>

