<?xml version="1.0" encoding="UTF-8" standalone="no"?>
<svg
    xmlns="http://www.w3.org/2000/svg"
    xmlns:svg="http://www.w3.org/2000/svg"
    xmlns:xlink="http://www.w3.org/1999/xlink"
    xmlns:freesewing="http://freesewing.org/namespaces/freesewing" viewBox ="0 0 395 320"
    width ="395mm"
    height ="320mm"
    freesewing:version ="1.5.0"
    freesewing:origin ="joost.core.freesewing.org" 
>

<style type="text/css">
    <![CDATA[
    path { fill: none; stroke: #000000; stroke-opacity:1; stroke-width: 0.5; stroke-miterlimit:4; stroke-dashoffset:0; stroke-linecap:round; stroke-linejoin:round; }
    path.hidden { fill: none; stroke: none; }]]>
</style>


<!-- Start of group #patternContainer -->
<g id="patternContainer" >
    
    <!-- Start of group #base -->
    <g id="base" >
    </g>
    <!-- End of group #base -->
    
    <!-- Start of group #panels -->
    <g id="panels"  transform=" translate(5 30)  translate(0 0) " >
        <path class="hidden" id="2"  d=" M  0,-25  L  385,-25  L  385,285  L  0,285  z " />
<path transform="translate( 0, 0 )" style="stroke: hsl(26.9, 55%, 50%);" id="9"  d=" M  0,-25  L  -0,285  C  7.623,285  14.997,283.218  23.1,280.117  L  38.35,-9.692  C  31.585,-16.59  22.243,-25  0,-25  z " />
<path transform="translate( 0, 0 )" style="stroke: hsl(26.9, 55%, 50%);" id="10"  d=" M  38.35,-9.692  L  23.1,280.117  C  33.747,276.045  44.97,269.682  57.75,263.057  L  57.75,260  C  57.75,260  49.75,120  49.75,100  C  49.75,80  53.75,15  53.75,-0  C  47.282,0  43.531,-4.41  38.35,-9.692  z " />
<path transform="translate( 0, 0 )" style="stroke: hsl(26.9, 55%, 50%);" id="11"  d=" M  61.75,0  C  61.75,15  65.75,80  65.75,100  C  65.75,120  57.75,260  57.75,260  L  57.75,263.057  C  71.22,256.105  86.62,248.715  104.889,242.542  C  104.889,242.542  97.875,120  97.875,100  C  97.875,80  101.875,15  101.875,-0  z " />
<path transform="translate( 0, 0 )" style="stroke: hsl(26.9, 55%, 50%);" id="12"  d=" M  109.875,0  C  109.875,15  113.875,80  113.875,100  C  113.875,120  106.861,242.542  106.861,242.542  C  119.643,238.14  135.473,234.442  152.438,232.217  C  152.438,149.581  146,120  146,100  C  146,80  150,15  150,-0  z " />
<path transform="translate( 0, 0 )" style="stroke: hsl(26.9, 55%, 50%);" id="13"  d=" M  223,100  C  223,80  227,15  227,-0  L  227,0  C  218.68,0  207.9,0  192.5,0  L  158,0  C  158,15  162,80  162,100  C  162,120  155.562,232.217  155.562,232.217  C  165.656,230.81  178.483,230  192.5,230  C  207.9,230  220.22,231.2  229.489,233.12  C  229.489,233.12  223,120  223,100  z " />
<path transform="translate( 0, 0 )" style="stroke: hsl(26.9, 55%, 50%);" id="14"  d=" M  280.75,100  C  280.75,80  284.75,15  284.75,-0  L  235,0  C  235,15  239,80  239,100  C  239,120  232.511,149.92  232.511,233.12  C  252.129,236.883  267.342,243.412  288.14,249.233  C  288.14,249.233  280.75,120  280.75,100  z " />
<path transform="translate( 0, 0 )" style="stroke: hsl(26.9, 55%, 50%);" id="15"  d=" M  385,0  C  340.626,0  312.234,0  292.75,0  L  292.75,0  C  292.75,15  296.75,80  296.75,100  C  296.75,120  289.36,249.233  289.36,249.233  C  309.979,255.006  337.876,260  385,260  z " />
<path transform="translate( 0, 0 )" style="stroke: hsl(53.8, 55%, 50%);" id="23"  d=" M  0,-25  L  -0,285  C  7.623,285  14.997,283.218  23.1,280.117  L  38.35,-9.692  C  31.585,-16.59  22.243,-25  0,-25  z " />
<path transform="translate( 0, 0 )" style="stroke: hsl(53.8, 55%, 50%);" id="24"  d=" M  38.35,-9.692  L  23.1,280.117  C  33.747,276.045  44.97,269.682  57.75,263.057  L  57.75,260  C  57.75,260  49.125,120  49.125,100  C  49.125,80  53.75,15  53.75,-0  C  47.282,0  43.531,-4.41  38.35,-9.692  z " />
<path transform="translate( 0, 0 )" style="stroke: hsl(53.8, 55%, 50%);" id="25"  d=" M  61.75,0  C  61.75,15  66.375,80  66.375,100  C  66.375,120  57.75,260  57.75,260  L  57.75,263.057  C  71.22,256.105  86.62,248.715  104.812,242.542  C  104.812,242.542  97.25,120  97.25,100  C  97.25,80  101.875,15  101.875,-0  z " />
<path transform="translate( 0, 0 )" style="stroke: hsl(53.8, 55%, 50%);" id="26"  d=" M  109.875,0  C  109.875,15  114.5,80  114.5,100  C  114.5,120  106.938,242.542  106.938,242.542  C  119.643,238.14  135.473,234.442  152.316,232.217  C  152.316,149.581  145.375,120  145.375,100  C  145.375,80  150,15  150,-0  z " />
<path transform="translate( 0, 0 )" style="stroke: hsl(53.8, 55%, 50%);" id="27"  d=" M  222.375,100  C  222.375,80  227,15  227,-0  L  227,0  C  218.68,0  207.9,0  192.5,0  L  158,0  C  158,15  162.625,80  162.625,100  C  162.625,120  155.684,232.217  155.684,232.217  C  165.656,230.81  178.483,230  192.5,230  C  207.9,230  220.22,231.2  229.37,233.12  C  229.37,233.12  222.375,120  222.375,100  z " />
<path transform="translate( 0, 0 )" style="stroke: hsl(53.8, 55%, 50%);" id="28"  d=" M  280.125,100  C  280.125,80  284.75,15  284.75,-0  L  235,0  C  235,15  239.625,80  239.625,100  C  239.625,120  232.63,149.92  232.63,233.12  C  252.129,236.883  267.342,243.412  288.093,249.233  C  288.093,249.233  280.125,120  280.125,100  z " />
<path transform="translate( 0, 0 )" style="stroke: hsl(53.8, 55%, 50%);" id="29"  d=" M  385,0  C  340.626,0  312.234,0  292.75,0  L  292.75,0  C  292.75,15  297.375,80  297.375,100  C  297.375,120  289.407,249.233  289.407,249.233  C  309.979,255.006  337.876,260  385,260  z " />
<path transform="translate( 0, 0 )" style="stroke: hsl(80.7, 55%, 50%);" id="37"  d=" M  0,-25  L  -0,285  C  7.623,285  14.997,283.218  23.1,280.117  L  38.35,-9.692  C  31.585,-16.59  22.243,-25  0,-25  z " />
<path transform="translate( 0, 0 )" style="stroke: hsl(80.7, 55%, 50%);" id="38"  d=" M  38.35,-9.692  L  23.1,280.117  C  33.747,276.045  44.97,269.682  57.75,263.057  L  57.75,260  C  57.75,260  48.5,120  48.5,100  C  48.5,80  53.75,15  53.75,-0  C  47.282,0  43.531,-4.41  38.35,-9.692  z " />
<path transform="translate( 0, 0 )" style="stroke: hsl(80.7, 55%, 50%);" id="39"  d=" M  61.75,0  C  61.75,15  67,80  67,100  C  67,120  57.75,260  57.75,260  L  57.75,263.057  C  71.22,256.105  86.62,248.715  104.735,242.542  C  104.735,242.542  96.625,120  96.625,100  C  96.625,80  101.875,15  101.875,-0  z " />
<path transform="translate( 0, 0 )" style="stroke: hsl(80.7, 55%, 50%);" id="40"  d=" M  109.875,0  C  109.875,15  115.125,80  115.125,100  C  115.125,120  107.015,242.542  107.015,242.542  C  119.643,238.14  135.473,234.442  152.194,232.217  C  152.194,149.581  144.75,120  144.75,100  C  144.75,80  150,15  150,-0  z " />
<path transform="translate( 0, 0 )" style="stroke: hsl(80.7, 55%, 50%);" id="41"  d=" M  221.75,100  C  221.75,80  227,15  227,-0  L  227,0  C  218.68,0  207.9,0  192.5,0  L  158,0  C  158,15  163.25,80  163.25,100  C  163.25,120  155.806,232.217  155.806,232.217  C  165.656,230.81  178.483,230  192.5,230  C  207.9,230  220.22,231.2  229.252,233.12  C  229.252,233.12  221.75,120  221.75,100  z " />
<path transform="translate( 0, 0 )" style="stroke: hsl(80.7, 55%, 50%);" id="42"  d=" M  279.5,100  C  279.5,80  284.75,15  284.75,-0  L  235,0  C  235,15  240.25,80  240.25,100  C  240.25,120  232.748,149.92  232.748,233.12  C  252.129,236.883  267.342,243.412  288.045,249.233  C  288.045,249.233  279.5,120  279.5,100  z " />
<path transform="translate( 0, 0 )" style="stroke: hsl(80.7, 55%, 50%);" id="43"  d=" M  385,0  C  340.626,0  312.234,0  292.75,0  L  292.75,0  C  292.75,15  298,80  298,100  C  298,120  289.455,249.233  289.455,249.233  C  309.979,255.006  337.876,260  385,260  z " />
<path transform="translate( 0, 0 )" style="stroke: hsl(107.6, 55%, 50%);" id="51"  d=" M  0,-25  L  -0,285  C  7.623,285  14.997,283.218  23.1,280.117  L  38.35,-9.692  C  31.585,-16.59  22.243,-25  0,-25  z " />
<path transform="translate( 0, 0 )" style="stroke: hsl(107.6, 55%, 50%);" id="52"  d=" M  38.35,-9.692  L  23.1,280.117  C  33.747,276.045  44.97,269.682  57.75,263.057  L  57.75,260  C  57.75,260  47.875,120  47.875,100  C  47.875,80  53.75,15  53.75,-0  C  47.282,0  43.531,-4.41  38.35,-9.692  z " />
<path transform="translate( 0, 0 )" style="stroke: hsl(107.6, 55%, 50%);" id="53"  d=" M  61.75,0  C  61.75,15  67.625,80  67.625,100  C  67.625,120  57.75,260  57.75,260  L  57.75,263.057  C  71.22,256.105  86.62,248.715  104.658,242.542  C  104.658,242.542  96,120  96,100  C  96,80  101.875,15  101.875,-0  z " />
<path transform="translate( 0, 0 )" style="stroke: hsl(107.6, 55%, 50%);" id="54"  d=" M  109.875,0  C  109.875,15  115.75,80  115.75,100  C  115.75,120  107.092,242.542  107.092,242.542  C  119.643,238.14  135.473,234.442  152.072,232.217  C  152.072,149.581  144.125,120  144.125,100  C  144.125,80  150,15  150,-0  z " />
<path transform="translate( 0, 0 )" style="stroke: hsl(107.6, 55%, 50%);" id="55"  d=" M  221.125,100  C  221.125,80  227,15  227,-0  L  227,0  C  218.68,0  207.9,0  192.5,0  L  158,0  C  158,15  163.875,80  163.875,100  C  163.875,120  155.928,232.217  155.928,232.217  C  165.656,230.81  178.483,230  192.5,230  C  207.9,230  220.22,231.2  229.134,233.12  C  229.134,233.12  221.125,120  221.125,100  z " />
<path transform="translate( 0, 0 )" style="stroke: hsl(107.6, 55%, 50%);" id="56"  d=" M  278.875,100  C  278.875,80  284.75,15  284.75,-0  L  235,0  C  235,15  240.875,80  240.875,100  C  240.875,120  232.866,149.92  232.866,233.12  C  252.129,236.883  267.342,243.412  287.997,249.233  C  287.997,249.233  278.875,120  278.875,100  z " />
<path transform="translate( 0, 0 )" style="stroke: hsl(107.6, 55%, 50%);" id="57"  d=" M  385,0  C  340.626,0  312.234,0  292.75,0  L  292.75,0  C  292.75,15  298.625,80  298.625,100  C  298.625,120  289.503,249.233  289.503,249.233  C  309.979,255.006  337.876,260  385,260  z " />
<path transform="translate( 0, 0 )" style="stroke: hsl(134.5, 55%, 50%);" id="65"  d=" M  0,-25  L  -0,285  C  7.623,285  14.997,283.218  23.1,280.117  L  38.35,-9.692  C  31.585,-16.59  22.243,-25  0,-25  z " />
<path transform="translate( 0, 0 )" style="stroke: hsl(134.5, 55%, 50%);" id="66"  d=" M  38.35,-9.692  L  23.1,280.117  C  33.747,276.045  44.97,269.682  57.75,263.057  L  57.75,260  C  57.75,260  47.25,120  47.25,100  C  47.25,80  53.75,15  53.75,-0  C  47.282,0  43.531,-4.41  38.35,-9.692  z " />
<path transform="translate( 0, 0 )" style="stroke: hsl(134.5, 55%, 50%);" id="67"  d=" M  61.75,0  C  61.75,15  68.25,80  68.25,100  C  68.25,120  57.75,260  57.75,260  L  57.75,263.057  C  71.22,256.105  86.62,248.715  104.581,242.542  C  104.581,242.542  95.375,120  95.375,100  C  95.375,80  101.875,15  101.875,-0  z " />
<path transform="translate( 0, 0 )" style="stroke: hsl(134.5, 55%, 50%);" id="68"  d=" M  109.875,0  C  109.875,15  116.375,80  116.375,100  C  116.375,120  107.169,242.542  107.169,242.542  C  119.643,238.14  135.473,234.442  151.95,232.217  C  151.95,149.581  143.5,120  143.5,100  C  143.5,80  150,15  150,-0  z " />
<path transform="translate( 0, 0 )" style="stroke: hsl(134.5, 55%, 50%);" id="69"  d=" M  220.5,100  C  220.5,80  227,15  227,-0  L  227,0  C  218.68,0  207.9,0  192.5,0  L  158,0  C  158,15  164.5,80  164.5,100  C  164.5,120  156.05,232.217  156.05,232.217  C  165.656,230.81  178.483,230  192.5,230  C  207.9,230  220.22,231.2  229.016,233.12  C  229.016,233.12  220.5,120  220.5,100  z " />
<path transform="translate( 0, 0 )" style="stroke: hsl(134.5, 55%, 50%);" id="70"  d=" M  278.25,100  C  278.25,80  284.75,15  284.75,-0  L  235,0  C  235,15  241.5,80  241.5,100  C  241.5,120  232.984,149.92  232.984,233.12  C  252.129,236.883  267.342,243.412  287.95,249.233  C  287.95,249.233  278.25,120  278.25,100  z " />
<path transform="translate( 0, 0 )" style="stroke: hsl(134.5, 55%, 50%);" id="71"  d=" M  385,0  C  340.626,0  312.234,0  292.75,0  L  292.75,0  C  292.75,15  299.25,80  299.25,100  C  299.25,120  289.55,249.233  289.55,249.233  C  309.979,255.006  337.876,260  385,260  z " />
<path transform="translate( 0, 0 )" style="stroke: hsl(161.4, 55%, 50%);" id="79"  d=" M  0,-25  L  -0,285  C  7.623,285  14.997,283.218  23.1,280.117  L  38.35,-9.692  C  31.585,-16.59  22.243,-25  0,-25  z " />
<path transform="translate( 0, 0 )" style="stroke: hsl(161.4, 55%, 50%);" id="80"  d=" M  38.35,-9.692  L  23.1,280.117  C  33.747,276.045  44.97,269.682  57.75,263.057  L  57.75,260  C  57.75,260  46.625,120  46.625,100  C  46.625,80  53.75,15  53.75,-0  C  47.282,0  43.531,-4.41  38.35,-9.692  z " />
<path transform="translate( 0, 0 )" style="stroke: hsl(161.4, 55%, 50%);" id="81"  d=" M  61.75,0  C  61.75,15  68.875,80  68.875,100  C  68.875,120  57.75,260  57.75,260  L  57.75,263.057  C  71.22,256.105  86.62,248.715  104.504,242.542  C  104.504,242.542  94.75,120  94.75,100  C  94.75,80  101.875,15  101.875,-0  z " />
<path transform="translate( 0, 0 )" style="stroke: hsl(161.4, 55%, 50%);" id="82"  d=" M  109.875,0  C  109.875,15  117,80  117,100  C  117,120  107.246,242.542  107.246,242.542  C  119.643,238.14  135.473,234.442  151.828,232.217  C  151.828,149.581  142.875,120  142.875,100  C  142.875,80  150,15  150,-0  z " />
<path transform="translate( 0, 0 )" style="stroke: hsl(161.4, 55%, 50%);" id="83"  d=" M  219.875,100  C  219.875,80  227,15  227,-0  L  227,0  C  218.68,0  207.9,0  192.5,0  L  158,0  C  158,15  165.125,80  165.125,100  C  165.125,120  156.172,232.217  156.172,232.217  C  165.656,230.81  178.483,230  192.5,230  C  207.9,230  220.22,231.2  228.898,233.12  C  228.898,233.12  219.875,120  219.875,100  z " />
<path transform="translate( 0, 0 )" style="stroke: hsl(161.4, 55%, 50%);" id="84"  d=" M  277.625,100  C  277.625,80  284.75,15  284.75,-0  L  235,0  C  235,15  242.125,80  242.125,100  C  242.125,120  233.102,149.92  233.102,233.12  C  252.129,236.883  267.342,243.412  287.902,249.233  C  287.902,249.233  277.625,120  277.625,100  z " />
<path transform="translate( 0, 0 )" style="stroke: hsl(161.4, 55%, 50%);" id="85"  d=" M  385,0  C  340.626,0  312.234,0  292.75,0  L  292.75,0  C  292.75,15  299.875,80  299.875,100  C  299.875,120  289.598,249.233  289.598,249.233  C  309.979,255.006  337.876,260  385,260  z " />
<path transform="translate( 0, 0 )" style="stroke: hsl(188.3, 55%, 50%);" id="93"  d=" M  0,-25  L  -0,285  C  7.623,285  14.997,283.218  23.1,280.117  L  38.35,-9.692  C  31.585,-16.59  22.243,-25  0,-25  z " />
<path transform="translate( 0, 0 )" style="stroke: hsl(188.3, 55%, 50%);" id="94"  d=" M  38.35,-9.692  L  23.1,280.117  C  33.747,276.045  44.97,269.682  57.75,263.057  L  57.75,260  C  57.75,260  46,120  46,100  C  46,80  53.75,15  53.75,-0  C  47.282,0  43.531,-4.41  38.35,-9.692  z " />
<path transform="translate( 0, 0 )" style="stroke: hsl(188.3, 55%, 50%);" id="95"  d=" M  61.75,0  C  61.75,15  69.5,80  69.5,100  C  69.5,120  57.75,260  57.75,260  L  57.75,263.057  C  71.22,256.105  86.62,248.715  104.427,242.542  C  104.427,242.542  94.125,120  94.125,100  C  94.125,80  101.875,15  101.875,-0  z " />
<path transform="translate( 0, 0 )" style="stroke: hsl(188.3, 55%, 50%);" id="96"  d=" M  109.875,0  C  109.875,15  117.625,80  117.625,100  C  117.625,120  107.323,242.542  107.323,242.542  C  119.643,238.14  135.473,234.442  151.706,232.217  C  151.706,149.581  142.25,120  142.25,100  C  142.25,80  150,15  150,-0  z " />
<path transform="translate( 0, 0 )" style="stroke: hsl(188.3, 55%, 50%);" id="97"  d=" M  219.25,100  C  219.25,80  227,15  227,-0  L  227,0  C  218.68,0  207.9,0  192.5,0  L  158,0  C  158,15  165.75,80  165.75,100  C  165.75,120  156.294,232.217  156.294,232.217  C  165.656,230.81  178.483,230  192.5,230  C  207.9,230  220.22,231.2  228.78,233.12  C  228.78,233.12  219.25,120  219.25,100  z " />
<path transform="translate( 0, 0 )" style="stroke: hsl(188.3, 55%, 50%);" id="98"  d=" M  277,100  C  277,80  284.75,15  284.75,-0  L  235,0  C  235,15  242.75,80  242.75,100  C  242.75,120  233.22,149.92  233.22,233.12  C  252.129,236.883  267.342,243.412  287.854,249.233  C  287.854,249.233  277,120  277,100  z " />
<path transform="translate( 0, 0 )" style="stroke: hsl(188.3, 55%, 50%);" id="99"  d=" M  385,0  C  340.626,0  312.234,0  292.75,0  L  292.75,0  C  292.75,15  300.5,80  300.5,100  C  300.5,120  289.646,249.233  289.646,249.233  C  309.979,255.006  337.876,260  385,260  z " />
<path transform="translate( 0, 0 )" style="stroke: hsl(215.2, 55%, 50%);" id="107"  d=" M  0,-25  L  -0,285  C  7.623,285  14.997,283.218  23.1,280.117  L  38.35,-9.692  C  31.585,-16.59  22.243,-25  0,-25  z " />
<path transform="translate( 0, 0 )" style="stroke: hsl(215.2, 55%, 50%);" id="108"  d=" M  38.35,-9.692  L  23.1,280.117  C  33.747,276.045  44.97,269.682  57.75,263.057  L  57.75,260  C  57.75,260  45.375,120  45.375,100  C  45.375,80  53.75,15  53.75,-0  C  47.282,0  43.531,-4.41  38.35,-9.692  z " />
<path transform="translate( 0, 0 )" style="stroke: hsl(215.2, 55%, 50%);" id="109"  d=" M  61.75,0  C  61.75,15  70.125,80  70.125,100  C  70.125,120  57.75,260  57.75,260  L  57.75,263.057  C  71.22,256.105  86.62,248.715  104.35,242.542  C  104.35,242.542  93.5,120  93.5,100  C  93.5,80  101.875,15  101.875,-0  z " />
<path transform="translate( 0, 0 )" style="stroke: hsl(215.2, 55%, 50%);" id="110"  d=" M  109.875,0  C  109.875,15  118.25,80  118.25,100  C  118.25,120  107.4,242.542  107.4,242.542  C  119.643,238.14  135.473,234.442  151.584,232.217  C  151.584,149.581  141.625,120  141.625,100  C  141.625,80  150,15  150,-0  z " />
<path transform="translate( 0, 0 )" style="stroke: hsl(215.2, 55%, 50%);" id="111"  d=" M  218.625,100  C  218.625,80  227,15  227,-0  L  227,0  C  218.68,0  207.9,0  192.5,0  L  158,0  C  158,15  166.375,80  166.375,100  C  166.375,120  156.416,232.217  156.416,232.217  C  165.656,230.81  178.483,230  192.5,230  C  207.9,230  220.22,231.2  228.662,233.12  C  228.662,233.12  218.625,120  218.625,100  z " />
<path transform="translate( 0, 0 )" style="stroke: hsl(215.2, 55%, 50%);" id="112"  d=" M  276.375,100  C  276.375,80  284.75,15  284.75,-0  L  235,0  C  235,15  243.375,80  243.375,100  C  243.375,120  233.338,149.92  233.338,233.12  C  252.129,236.883  267.342,243.412  287.807,249.233  C  287.807,249.233  276.375,120  276.375,100  z " />
<path transform="translate( 0, 0 )" style="stroke: hsl(215.2, 55%, 50%);" id="113"  d=" M  385,0  C  340.626,0  312.234,0  292.75,0  L  292.75,0  C  292.75,15  301.125,80  301.125,100  C  301.125,120  289.693,249.233  289.693,249.233  C  309.979,255.006  337.876,260  385,260  z " />
<path transform="translate( 0, 0 )" style="stroke: hsl(242.1, 55%, 50%);" id="121"  d=" M  0,-25  L  -0,285  C  7.623,285  14.997,283.218  23.1,280.117  L  38.35,-9.692  C  31.585,-16.59  22.243,-25  0,-25  z " />
<path transform="translate( 0, 0 )" style="stroke: hsl(242.1, 55%, 50%);" id="122"  d=" M  38.35,-9.692  L  23.1,280.117  C  33.747,276.045  44.97,269.682  57.75,263.057  L  57.75,260  C  57.75,260  44.75,120  44.75,100  C  44.75,80  53.75,15  53.75,-0  C  47.282,0  43.531,-4.41  38.35,-9.692  z " />
<path transform="translate( 0, 0 )" style="stroke: hsl(242.1, 55%, 50%);" id="123"  d=" M  61.75,0  C  61.75,15  70.75,80  70.75,100  C  70.75,120  57.75,260  57.75,260  L  57.75,263.057  C  71.22,256.105  86.62,248.715  104.273,242.542  C  104.273,242.542  92.875,120  92.875,100  C  92.875,80  101.875,15  101.875,-0  z " />
<path transform="translate( 0, 0 )" style="stroke: hsl(242.1, 55%, 50%);" id="124"  d=" M  109.875,0  C  109.875,15  118.875,80  118.875,100  C  118.875,120  107.477,242.542  107.477,242.542  C  119.643,238.14  135.473,234.442  151.462,232.217  C  151.462,149.581  141,120  141,100  C  141,80  150,15  150,-0  z " />
<path transform="translate( 0, 0 )" style="stroke: hsl(242.1, 55%, 50%);" id="125"  d=" M  218,100  C  218,80  227,15  227,-0  L  227,0  C  218.68,0  207.9,0  192.5,0  L  158,0  C  158,15  167,80  167,100  C  167,120  156.538,232.217  156.538,232.217  C  165.656,230.81  178.483,230  192.5,230  C  207.9,230  220.22,231.2  228.544,233.12  C  228.544,233.12  218,120  218,100  z " />
<path transform="translate( 0, 0 )" style="stroke: hsl(242.1, 55%, 50%);" id="126"  d=" M  275.75,100  C  275.75,80  284.75,15  284.75,-0  L  235,0  C  235,15  244,80  244,100  C  244,120  233.456,149.92  233.456,233.12  C  252.129,236.883  267.342,243.412  287.759,249.233  C  287.759,249.233  275.75,120  275.75,100  z " />
<path transform="translate( 0, 0 )" style="stroke: hsl(242.1, 55%, 50%);" id="127"  d=" M  385,0  C  340.626,0  312.234,0  292.75,0  L  292.75,0  C  292.75,15  301.75,80  301.75,100  C  301.75,120  289.741,249.233  289.741,249.233  C  309.979,255.006  337.876,260  385,260  z " />
<path transform="translate( 0, 0 )" style="stroke: hsl(269, 55%, 50%);" id="135"  d=" M  0,-25  L  -0,285  C  7.623,285  14.997,283.218  23.1,280.117  L  38.35,-9.692  C  31.585,-16.59  22.243,-25  0,-25  z " />
<path transform="translate( 0, 0 )" style="stroke: hsl(269, 55%, 50%);" id="136"  d=" M  38.35,-9.692  L  23.1,280.117  C  33.747,276.045  44.97,269.682  57.75,263.057  L  57.75,260  C  57.75,260  44.125,120  44.125,100  C  44.125,80  53.75,15  53.75,-0  C  47.282,0  43.531,-4.41  38.35,-9.692  z " />
<path transform="translate( 0, 0 )" style="stroke: hsl(269, 55%, 50%);" id="137"  d=" M  61.75,0  C  61.75,15  71.375,80  71.375,100  C  71.375,120  57.75,260  57.75,260  L  57.75,263.057  C  71.22,256.105  86.62,248.715  104.196,242.542  C  104.196,242.542  92.25,120  92.25,100  C  92.25,80  101.875,15  101.875,-0  z " />
<path transform="translate( 0, 0 )" style="stroke: hsl(269, 55%, 50%);" id="138"  d=" M  109.875,0  C  109.875,15  119.5,80  119.5,100  C  119.5,120  107.554,242.542  107.554,242.542  C  119.643,238.14  135.473,234.442  151.34,232.217  C  151.34,149.581  140.375,120  140.375,100  C  140.375,80  150,15  150,-0  z " />
<path transform="translate( 0, 0 )" style="stroke: hsl(269, 55%, 50%);" id="139"  d=" M  217.375,100  C  217.375,80  227,15  227,-0  L  227,0  C  218.68,0  207.9,0  192.5,0  L  158,0  C  158,15  167.625,80  167.625,100  C  167.625,120  156.66,232.217  156.66,232.217  C  165.656,230.81  178.483,230  192.5,230  C  207.9,230  220.22,231.2  228.426,233.12  C  228.426,233.12  217.375,120  217.375,100  z " />
<path transform="translate( 0, 0 )" style="stroke: hsl(269, 55%, 50%);" id="140"  d=" M  275.125,100  C  275.125,80  284.75,15  284.75,-0  L  235,0  C  235,15  244.625,80  244.625,100  C  244.625,120  233.574,149.92  233.574,233.12  C  252.129,236.883  267.342,243.412  287.712,249.233  C  287.712,249.233  275.125,120  275.125,100  z " />
<path transform="translate( 0, 0 )" style="stroke: hsl(269, 55%, 50%);" id="141"  d=" M  385,0  C  340.626,0  312.234,0  292.75,0  L  292.75,0  C  292.75,15  302.375,80  302.375,100  C  302.375,120  289.788,249.233  289.788,249.233  C  309.979,255.006  337.876,260  385,260  z " />
<path transform="translate( 0, 0 )" style="stroke: hsl(295.9, 55%, 50%);" id="149"  d=" M  0,-25  L  -0,285  C  7.623,285  14.997,283.218  23.1,280.117  L  38.35,-9.692  C  31.585,-16.59  22.243,-25  0,-25  z " />
<path transform="translate( 0, 0 )" style="stroke: hsl(295.9, 55%, 50%);" id="150"  d=" M  38.35,-9.692  L  23.1,280.117  C  33.747,276.045  44.97,269.682  57.75,263.057  L  57.75,260  C  57.75,260  43.5,120  43.5,100  C  43.5,80  53.75,15  53.75,-0  C  47.282,0  43.531,-4.41  38.35,-9.692  z " />
<path transform="translate( 0, 0 )" style="stroke: hsl(295.9, 55%, 50%);" id="151"  d=" M  61.75,0  C  61.75,15  72,80  72,100  C  72,120  57.75,260  57.75,260  L  57.75,263.057  C  71.22,256.105  86.62,248.715  104.119,242.542  C  104.119,242.542  91.625,120  91.625,100  C  91.625,80  101.875,15  101.875,-0  z " />
<path transform="translate( 0, 0 )" style="stroke: hsl(295.9, 55%, 50%);" id="152"  d=" M  109.875,0  C  109.875,15  120.125,80  120.125,100  C  120.125,120  107.631,242.542  107.631,242.542  C  119.643,238.14  135.473,234.442  151.218,232.217  C  151.218,149.581  139.75,120  139.75,100  C  139.75,80  150,15  150,-0  z " />
<path transform="translate( 0, 0 )" style="stroke: hsl(295.9, 55%, 50%);" id="153"  d=" M  216.75,100  C  216.75,80  227,15  227,-0  L  227,0  C  218.68,0  207.9,0  192.5,0  L  158,0  C  158,15  168.25,80  168.25,100  C  168.25,120  156.782,232.217  156.782,232.217  C  165.656,230.81  178.483,230  192.5,230  C  207.9,230  220.22,231.2  228.308,233.12  C  228.308,233.12  216.75,120  216.75,100  z " />
<path transform="translate( 0, 0 )" style="stroke: hsl(295.9, 55%, 50%);" id="154"  d=" M  274.5,100  C  274.5,80  284.75,15  284.75,-0  L  235,0  C  235,15  245.25,80  245.25,100  C  245.25,120  233.692,149.92  233.692,233.12  C  252.129,236.883  267.342,243.412  287.664,249.233  C  287.664,249.233  274.5,120  274.5,100  z " />
<path transform="translate( 0, 0 )" style="stroke: hsl(295.9, 55%, 50%);" id="155"  d=" M  385,0  C  340.626,0  312.234,0  292.75,0  L  292.75,0  C  292.75,15  303,80  303,100  C  303,120  289.836,249.233  289.836,249.233  C  309.979,255.006  337.876,260  385,260  z " />
    </g>
    <!-- End of group #panels -->
    
    <!-- Start of group #sampler-panels -->
    <g id="sampler-panels" >
    </g>
    <!-- End of group #sampler-panels -->
</g>
<!-- End of group #patternContainer -->

</svg>

