<?xml version="1.0" encoding="UTF-8" standalone="no"?>
<svg
    width ="2764.3464593344"
    height ="4178.7531535993"
    viewbox ="0 0 2764.3464593344 4178.7531535993" xmlns:dc="http://purl.org/dc/elements/1.1/"
    xmlns:cc="http://creativecommons.org/ns#"
    xmlns:rdf="http://www.w3.org/1999/02/22-rdf-syntax-ns#"
    xmlns:svg="http://www.w3.org/2000/svg"
    xmlns="http://www.w3.org/2000/svg"
    xmlns:xlink="http://www.w3.org/1999/xlink"
    xmlns:sodipodi="http://sodipodi.sourceforge.net/DTD/sodipodi-0.dtd"
    xmlns:inkscape="http://www.inkscape.org/namespaces/inkscape" 
>

<style type="text/css">
    <![CDATA[
    path { fill: none; stroke: #000000; stroke-opacity:1; stroke-width: 0.5; stroke-miterlimit:4; stroke-dashoffset:0; stroke-linecap:round; stroke-linejoin:round; }
    path.hidden { fill: none; stroke: none; }]]>
</style>


<!-- Start of group #patternScaleContainer -->
<g id="patternScaleContainer"  transform=" scale(3.54330709 ) " >
    
    <!-- Start of group #back -->
    <g id="back"  transform=" translate(223.406 64.337)  translate(0 0) " >
        <path class="hidden" id="2"  d=" M  -218.406,-59.337  L  212.144,-59.337  L  212.144,1110  L  -218.406,1110  z " />
<path transform="translate( 0, 0 )" style="stroke: hsl(26.9, 55%, 50%);" id="34"  d=" M  123.007,1101.229  C  123.007,1101.229  56.5,1110  0,1110  C  -56.5,1110  -123.007,1101.229  -123.007,1101.229  C  -123,1050  -138.007,694.63  -138.007,694.63  C  -146.991,452.074  -218.406,203.518  -218.406,203.518  C  -218.406,203.518  -157.038,197.071  -125.218,165.251  C  -107.54,147.573  -83.282,97.606  -76.103,73.659  L  -36.385,-59.337  L  74.664,-28.305  L  52.945,100.402  L  101.096,-20.919  L  212.144,10.114  L  190.851,138.816  C  181.848,193.172  146.991,452.074  138.007,694.63  C  138.007,694.63  123,1050  123.007,1101.229  z " />
<path transform="translate( 0, 0 )" style="stroke: hsl(53.8, 55%, 50%);" id="68"  d=" M  123.007,1097.229  C  123.007,1097.229  56.5,1106  0,1106  C  -56.5,1106  -123.007,1097.229  -123.007,1097.229  C  -123,1046  -138.007,690.63  -138.007,690.63  C  -146.991,448.074  -218.406,199.518  -218.406,199.518  C  -218.406,199.518  -157.038,193.071  -125.218,161.251  C  -107.54,143.573  -83.566,95.608  -76.283,71.693  L  -36.556,-59.302  L  74.401,-28.296  L  52.684,100.402  L  100.831,-20.91  L  211.787,10.097  L  190.851,134.817  C  181.991,187.536  146.991,448.074  138.007,690.63  C  138.007,690.63  123,1046  123.007,1097.229  z " />
<path transform="translate( 0, 0 )" style="stroke: hsl(80.7, 55%, 50%);" id="102"  d=" M  123.007,1093.229  C  123.007,1093.229  56.5,1102  0,1102  C  -56.5,1102  -123.007,1093.229  -123.007,1093.229  C  -123,1042  -138.007,686.63  -138.007,686.63  C  -146.991,444.074  -218.406,195.518  -218.406,195.518  C  -218.406,195.518  -157.038,189.071  -125.218,157.251  C  -107.54,139.573  -83.854,93.611  -76.464,69.729  L  -36.714,-59.263  L  74.142,-28.285  L  52.428,100.402  L  100.572,-20.899  L  211.427,10.079  L  190.851,130.817  C  182.133,181.897  146.991,444.074  138.007,686.63  C  138.007,686.63  123,1042  123.007,1093.229  z " />
<path transform="translate( 0, 0 )" style="stroke: hsl(107.6, 55%, 50%);" id="136"  d=" M  123.007,1089.229  C  123.007,1089.229  56.5,1098  0,1098  C  -56.5,1098  -123.007,1089.229  -123.007,1089.229  C  -123,1038  -138.007,682.63  -138.007,682.63  C  -146.991,440.074  -218.406,191.518  -218.406,191.518  C  -218.406,191.518  -157.038,185.071  -125.218,153.251  C  -107.54,135.573  -84.148,91.614  -76.645,67.767  L  -36.869,-59.221  L  73.883,-28.274  L  52.174,100.403  L  100.315,-20.888  L  211.066,10.06  L  190.851,126.817  C  182.277,176.257  146.991,440.074  138.007,682.63  C  138.007,682.63  123,1038  123.007,1089.229  z " />
<path transform="translate( 0, 0 )" style="stroke: hsl(134.5, 55%, 50%);" id="170"  d=" M  123.007,1085.229  C  123.007,1085.229  56.5,1094  0,1094  C  -56.5,1094  -123.007,1085.229  -123.007,1085.229  C  -123,1034  -138.007,678.63  -138.007,678.63  C  -146.991,436.074  -218.406,187.518  -218.406,187.518  C  -218.406,187.518  -157.038,181.071  -125.218,149.251  C  -107.54,131.573  -84.448,89.617  -76.827,65.808  L  -37.02,-59.177  L  73.627,-28.26  L  51.922,100.406  L  100.057,-20.876  L  210.704,10.042  L  190.851,122.817  C  182.421,170.613  146.991,436.074  138.007,678.63  C  138.007,678.63  123,1034  123.007,1085.229  z " />
<path transform="translate( 0, 0 )" style="stroke: hsl(161.4, 55%, 50%);" id="204"  d=" M  123.007,1081.229  C  123.007,1081.229  56.5,1090  0,1090  C  -56.5,1090  -123.007,1081.229  -123.007,1081.229  C  -123,1030  -138.007,674.63  -138.007,674.63  C  -146.991,432.074  -218.406,183.518  -218.406,183.518  C  -218.406,183.518  -157.038,177.071  -125.218,145.251  C  -107.54,127.573  -84.753,87.619  -77.011,63.849  L  -37.162,-59.129  L  73.376,-28.245  L  51.675,100.409  L  99.802,-20.861  L  210.34,10.023  L  190.851,118.818  C  182.567,164.967  146.991,432.074  138.007,674.63  C  138.007,674.63  123,1030  123.007,1081.229  z " />
<path transform="translate( 0, 0 )" style="stroke: hsl(188.3, 55%, 50%);" id="238"  d=" M  123.007,1077.229  C  123.007,1077.229  56.5,1086  0,1086  C  -56.5,1086  -123.007,1077.229  -123.007,1077.229  C  -123,1026  -138.007,670.63  -138.007,670.63  C  -146.991,428.074  -218.406,179.518  -218.406,179.518  C  -218.406,179.518  -157.038,173.071  -125.218,141.251  C  -107.54,123.573  -85.063,85.621  -77.194,61.893  L  -37.29,-59.075  L  73.128,-28.228  L  51.434,100.413  L  99.556,-20.844  L  209.973,10.004  L  190.851,114.818  C  182.713,159.317  146.991,428.074  138.007,670.63  C  138.007,670.63  123,1026  123.007,1077.229  z " />
<path transform="translate( 0, 0 )" style="stroke: hsl(215.2, 55%, 50%);" id="272"  d=" M  123.007,1073.229  C  123.007,1073.229  56.5,1082  0,1082  C  -56.5,1082  -123.007,1073.229  -123.007,1073.229  C  -123,1022  -138.007,666.63  -138.007,666.63  C  -146.991,424.074  -218.406,175.518  -218.406,175.518  C  -218.406,175.518  -157.038,169.071  -125.218,137.251  C  -107.54,119.573  -85.382,83.623  -77.38,59.939  L  -37.412,-59.018  L  72.884,-28.208  L  51.197,100.419  L  99.31,-20.826  L  209.605,9.984  L  190.851,110.819  C  182.861,153.662  146.991,424.074  138.007,666.63  C  138.007,666.63  123,1022  123.007,1073.229  z " />
<path transform="translate( 0, 0 )" style="stroke: hsl(242.1, 55%, 50%);" id="306"  d=" M  123.007,1069.229  C  123.007,1069.229  56.5,1078  0,1078  C  -56.5,1078  -123.007,1069.229  -123.007,1069.229  C  -123,1018  -138.007,662.63  -138.007,662.63  C  -146.991,420.074  -218.406,171.518  -218.406,171.518  C  -218.406,171.518  -157.038,165.071  -125.218,133.251  C  -107.54,115.573  -85.708,81.624  -77.566,57.988  L  -37.526,-58.958  L  72.639,-28.188  L  50.963,100.424  L  99.069,-20.806  L  209.234,9.964  L  190.851,106.819  C  183.01,148.003  146.991,420.074  138.007,662.63  C  138.007,662.63  123,1018  123.007,1069.229  z " />
<path transform="translate( 0, 0 )" style="stroke: hsl(269, 55%, 50%);" id="340"  d=" M  123.007,1065.229  C  123.007,1065.229  56.5,1074  0,1074  C  -56.5,1074  -123.007,1065.229  -123.007,1065.229  C  -123,1014  -138.007,658.63  -138.007,658.63  C  -146.991,416.074  -218.406,167.518  -218.406,167.518  C  -218.406,167.518  -157.038,161.071  -125.218,129.251  C  -107.54,111.573  -85.998,79.125  -77.669,55.553  L  -37.342,-59.307  L  72.634,-28.388  L  50.742,100.171  L  99.048,-20.962  L  209.024,9.957  L  190.853,102.802  C  183.093,142.309  146.991,416.074  138.007,658.63  C  138.007,658.63  123,1014  123.007,1065.229  z " />
<path transform="translate( 0, 0 )" style="stroke: hsl(295.9, 55%, 50%);" id="374"  d=" M  123.007,1061.229  C  123.007,1061.229  56.5,1070  0,1070  C  -56.5,1070  -123.007,1061.229  -123.007,1061.229  C  -123,1010  -138.007,654.63  -138.007,654.63  C  -146.991,412.074  -218.406,163.518  -218.406,163.518  C  -218.406,163.518  -157.038,157.071  -125.218,125.251  C  -107.54,107.573  -86.344,77.124  -77.862,53.607  L  -37.436,-59.233  L  72.397,-28.362  L  50.516,100.181  L  98.809,-20.938  L  208.641,9.934  L  190.853,98.803  C  183.249,136.64  146.991,412.074  138.007,654.63  C  138.007,654.63  123,1010  123.007,1061.229  z " />
    </g>
    <!-- End of group #back -->
    
    <!-- Start of group #front -->
    <g id="front"  transform=" translate(183.985 -5.516)  translate(440.55 0) " >
        <path class="hidden" id="3"  d=" M  -178.985,10.516  L  150.625,10.516  L  150.625,1100  L  -178.985,1100  z " />
<path transform="translate( 0, 0 )" style="stroke: hsl(26.9, 55%, 50%);" id="35"  d=" M  103,1100  L  -103,1100  C  -103,1050  -118.007,694.63  -118.007,694.63  C  -127.352,442.303  -178.985,198.686  -178.985,198.686  C  -178.985,198.686  -155.98,197.071  -134.767,175.858  C  -113.554,154.645  -111.163,147.81  -110.65,140.713  L  -101.925,19.924  C  -0,19.975  142.707,10.676  142.707,10.676  C  142.707,10.676  150.625,90  150.625,140  C  150.625,190  127.352,442.303  118.007,694.63  C  118.007,694.63  103,1050  103,1100  z " />
<path transform="translate( 0, 0 )" style="stroke: hsl(53.8, 55%, 50%);" id="69"  d=" M  103,1096  L  -103,1096  C  -103,1046  -118.007,690.63  -118.007,690.63  C  -127.352,438.303  -178.985,194.686  -178.985,194.686  C  -178.985,194.686  -155.98,193.071  -134.767,171.858  C  -113.554,150.645  -111.179,143.819  -110.652,136.733  L  -101.965,19.92  C  -0,19.973  142.742,10.61  142.742,10.61  C  142.742,10.61  150.625,86  150.625,136  C  150.625,186  127.352,438.303  118.007,690.63  C  118.007,690.63  103,1046  103,1096  z " />
<path transform="translate( 0, 0 )" style="stroke: hsl(80.7, 55%, 50%);" id="103"  d=" M  103,1092  L  -103,1092  C  -103,1042  -118.007,686.63  -118.007,686.63  C  -127.352,434.303  -178.985,190.686  -178.985,190.686  C  -178.985,190.686  -155.98,189.071  -134.767,167.858  C  -113.554,146.645  -111.196,139.829  -110.654,132.755  L  -102.007,19.916  C  -0,19.971  142.785,10.607  142.785,10.607  C  142.785,10.607  150.625,82  150.625,132  C  150.625,182  127.352,434.303  118.007,686.63  C  118.007,686.63  103,1042  103,1092  z " />
<path transform="translate( 0, 0 )" style="stroke: hsl(107.6, 55%, 50%);" id="137"  d=" M  103,1088  L  -103,1088  C  -103,1038  -118.007,682.63  -118.007,682.63  C  -127.352,430.303  -178.985,186.686  -178.985,186.686  C  -178.985,186.686  -155.98,185.071  -134.767,163.858  C  -113.554,142.645  -111.213,135.84  -110.655,128.779  L  -102.053,19.914  C  -0,19.97  142.838,10.659  142.838,10.659  C  142.838,10.659  150.625,78  150.625,128  C  150.625,178  127.352,430.303  118.007,682.63  C  118.007,682.63  103,1038  103,1088  z " />
<path transform="translate( 0, 0 )" style="stroke: hsl(134.5, 55%, 50%);" id="171"  d=" M  103,1084  L  -103,1084  C  -103,1034  -118.007,678.63  -118.007,678.63  C  -127.352,426.303  -178.985,182.686  -178.985,182.686  C  -178.985,182.686  -155.98,181.071  -134.767,159.858  C  -113.554,138.645  -111.232,131.851  -110.657,124.804  L  -102.1,19.91  C  -0,19.968  142.883,10.589  142.883,10.589  C  142.883,10.589  150.625,74  150.625,124  C  150.625,174  127.352,426.303  118.007,678.63  C  118.007,678.63  103,1034  103,1084  z " />
<path transform="translate( 0, 0 )" style="stroke: hsl(161.4, 55%, 50%);" id="205"  d=" M  103,1080  L  -103,1080  C  -103,1030  -118.007,674.63  -118.007,674.63  C  -127.352,422.303  -178.985,178.686  -178.985,178.686  C  -178.985,178.686  -155.98,177.071  -134.767,155.858  C  -113.554,134.645  -111.253,127.862  -110.66,120.83  L  -102.15,19.904  C  -0,19.965  142.938,10.568  142.938,10.568  C  142.938,10.568  150.625,70  150.625,120  C  150.625,170  127.352,422.303  118.007,674.63  C  118.007,674.63  103,1030  103,1080  z " />
<path transform="translate( 0, 0 )" style="stroke: hsl(188.3, 55%, 50%);" id="239"  d=" M  103,1076  L  -103,1076  C  -103,1026  -118.007,670.63  -118.007,670.63  C  -127.352,418.303  -178.985,174.686  -178.985,174.686  C  -178.985,174.686  -155.98,173.071  -134.767,151.858  C  -113.554,130.645  -111.274,123.875  -110.662,116.859  L  -102.206,19.9  C  -0,19.963  143.004,10.586  143.004,10.586  C  143.004,10.586  150.625,66  150.625,116  C  150.625,166  127.352,418.303  118.007,670.63  C  118.007,670.63  103,1026  103,1076  z " />
<path transform="translate( 0, 0 )" style="stroke: hsl(215.2, 55%, 50%);" id="273"  d=" M  103,1072  L  -103,1072  C  -103,1022  -118.007,666.63  -118.007,666.63  C  -127.352,414.303  -178.985,170.686  -178.985,170.686  C  -178.985,170.686  -155.98,169.071  -134.767,147.858  C  -113.554,126.645  -111.297,119.889  -110.665,112.889  L  -102.263,19.894  C  -0,19.96  143.07,10.557  143.07,10.557  C  143.07,10.557  150.625,62  150.625,112  C  150.625,162  127.352,414.303  118.007,666.63  C  118.007,666.63  103,1022  103,1072  z " />
<path transform="translate( 0, 0 )" style="stroke: hsl(242.1, 55%, 50%);" id="307"  d=" M  103,1068  L  -103,1068  C  -103,1018  -118.007,662.63  -118.007,662.63  C  -127.352,410.303  -178.985,166.686  -178.985,166.686  C  -178.985,166.686  -155.98,165.071  -134.767,143.858  C  -113.554,122.645  -111.322,115.903  -110.668,108.922  L  -102.326,19.888  C  -0,19.957  143.148,10.554  143.148,10.554  C  143.148,10.554  150.625,58  150.625,108  C  150.625,158  127.352,410.303  118.007,662.63  C  118.007,662.63  103,1018  103,1068  z " />
<path transform="translate( 0, 0 )" style="stroke: hsl(269, 55%, 50%);" id="341"  d=" M  103,1064  L  -103,1064  C  -103,1014  -118.007,658.63  -118.007,658.63  C  -127.352,406.303  -178.985,162.686  -178.985,162.686  C  -178.985,162.686  -155.98,161.071  -134.767,139.858  C  -113.554,118.645  -111.348,111.918  -110.671,104.957  L  -102.393,19.882  C  -0,19.954  143.238,10.567  143.238,10.567  C  143.238,10.567  150.625,54  150.625,104  C  150.625,154  127.352,406.303  118.007,658.63  C  118.007,658.63  103,1014  103,1064  z " />
<path transform="translate( 0, 0 )" style="stroke: hsl(295.9, 55%, 50%);" id="375"  d=" M  103,1060  L  -103,1060  C  -103,1010  -118.007,654.63  -118.007,654.63  C  -127.352,402.303  -178.985,158.686  -178.985,158.686  C  -178.985,158.686  -155.98,157.071  -134.767,135.858  C  -113.554,114.645  -111.377,107.935  -110.675,100.995  L  -102.466,19.874  C  -0,19.95  143.33,10.516  143.33,10.516  C  143.33,10.516  150.625,50  150.625,100  C  150.625,150  127.352,402.303  118.007,654.63  C  118.007,654.63  103,1010  103,1060  z " />
    </g>
    <!-- End of group #front -->
    
    <!-- Start of group #waistbandInterfacingLeft -->
    <g id="waistbandInterfacingLeft"  transform=" translate(0 0)  translate(780.16 0) " >
    </g>
    <!-- End of group #waistbandInterfacingLeft -->
    
    <!-- Start of group #waistbandInterfacingRight -->
    <g id="waistbandInterfacingRight"  transform=" translate(0 0)  translate(780.16 0) " >
    </g>
    <!-- End of group #waistbandInterfacingRight -->
    
    <!-- Start of group #waistbandLeft -->
    <g id="waistbandLeft"  transform=" translate(0 0)  translate(780.16 0) " >
    </g>
    <!-- End of group #waistbandLeft -->
    
    <!-- Start of group #waistbandRight -->
    <g id="waistbandRight"  transform=" translate(0 0)  translate(780.16 0) " >
    </g>
    <!-- End of group #waistbandRight -->
    
    <!-- Start of group #waistbandLiningLeft -->
    <g id="waistbandLiningLeft"  transform=" translate(0 0)  translate(780.16 0) " >
    </g>
    <!-- End of group #waistbandLiningLeft -->
    
    <!-- Start of group #waistbandLiningRight -->
    <g id="waistbandLiningRight"  transform=" translate(0 0)  translate(780.16 0) " >
    </g>
    <!-- End of group #waistbandLiningRight -->
    
    <!-- Start of group #flyPiece -->
    <g id="flyPiece"  transform=" translate(0 0)  translate(780.16 0) " >
    </g>
    <!-- End of group #flyPiece -->
    
    <!-- Start of group #flyShield -->
    <g id="flyShield"  transform=" translate(0 0)  translate(780.16 0) " >
    </g>
    <!-- End of group #flyShield -->
    
    <!-- Start of group #sidePiece -->
    <g id="sidePiece"  transform=" translate(0 0)  translate(780.16 0) " >
    </g>
    <!-- End of group #sidePiece -->
    
    <!-- Start of group #frontPocketBag -->
    <g id="frontPocketBag"  transform=" translate(0 0)  translate(780.16 0) " >
    </g>
    <!-- End of group #frontPocketBag -->
    
    <!-- Start of group #backInnerPocketBag -->
    <g id="backInnerPocketBag"  transform=" translate(0 0)  translate(780.16 0) " >
    </g>
    <!-- End of group #backInnerPocketBag -->
    
    <!-- Start of group #backOuterPocketBag -->
    <g id="backOuterPocketBag"  transform=" translate(0 0)  translate(780.16 0) " >
    </g>
    <!-- End of group #backOuterPocketBag -->
    
    <!-- Start of group #backPocketFacing -->
    <g id="backPocketFacing"  transform=" translate(0 0)  translate(780.16 0) " >
    </g>
    <!-- End of group #backPocketFacing -->
    
    <!-- Start of group #backPocketInterfacing -->
    <g id="backPocketInterfacing"  transform=" translate(0 0)  translate(780.16 0) " >
    </g>
    <!-- End of group #backPocketInterfacing -->
    
    <!-- Start of group #beltLoop -->
    <g id="beltLoop"  transform=" translate(0 0)  translate(780.16 0) " >
    </g>
    <!-- End of group #beltLoop -->
    
    <!-- Start of group #sampler-back -->
    <g id="sampler-back"  transform=" translate(0 0)  translate(780.16 0) " >
    </g>
    <!-- End of group #sampler-back -->
    
    <!-- Start of group #sampler-front -->
    <g id="sampler-front"  transform=" translate(0 0)  translate(780.16 0) " >
    </g>
    <!-- End of group #sampler-front -->
</g>
<!-- End of group #patternScaleContainer -->

</svg>

