<?xml version="1.0" encoding="UTF-8" standalone="no"?>
<svg
    xmlns="http://www.w3.org/2000/svg"
    xmlns:svg="http://www.w3.org/2000/svg"
    xmlns:xlink="http://www.w3.org/1999/xlink"
    xmlns:freesewing="http://freesewing.org/namespaces/freesewing" viewBox ="0 0 1902 1494"
    width ="1902mm"
    height ="1494mm"
    freesewing:version ="1.5.0"
    freesewing:origin ="joost.core.freesewing.org" 
>

<style type="text/css">
    <![CDATA[
    path { fill: none; stroke: #000000; stroke-opacity:1; stroke-width: 0.5; stroke-miterlimit:4; stroke-dashoffset:0; stroke-linecap:round; stroke-linejoin:round; }
    path.hidden { fill: none; stroke: none; }]]>
</style>


<!-- Start of group #patternContainer -->
<g id="patternContainer" >
    
    <!-- Start of group #backBlock -->
    <g id="backBlock" >
    </g>
    <!-- End of group #backBlock -->
    
    <!-- Start of group #frontBlock -->
    <g id="frontBlock" >
    </g>
    <!-- End of group #frontBlock -->
    
    <!-- Start of group #sleeveBlock -->
    <g id="sleeveBlock" >
    </g>
    <!-- End of group #sleeveBlock -->
    
    <!-- Start of group #topsleeveBlock -->
    <g id="topsleeveBlock" >
    </g>
    <!-- End of group #topsleeveBlock -->
    
    <!-- Start of group #undersleeveBlock -->
    <g id="undersleeveBlock" >
    </g>
    <!-- End of group #undersleeveBlock -->
    
    <!-- Start of group #front -->
    <g id="front"  transform=" translate(87.505 5)  translate(0 0) " >
        <path class="hidden" id="2"  d=" M  -82.505,0  L  342.5,0  L  342.5,1483.9  L  -82.505,1483.9  z " />
<path transform="translate( 0, 0 )" style="stroke: hsl(26.9, 55%, 50%);" id="210"  d=" M  0,93  L  -77.505,93  C  -77.505,93  -82.505,137.2  -82.505,314  L  -82.505,1483.9  L  342.5,1483.9  L  342.5,1010  C  342.5,870  308.125,713  308.125,580  C  308.125,447  325,330.625  325,314  C  303.125,314  284.319,305.967  264.926,286.574  C  245.533,267.181  232.5,213.5  232.5,167  C  232.5,120.5  240.826,37.359  242.5,27.5  L  80.579,0  C  77.23,19.718  80.579,93  0,93  z " />
<path transform="translate( 0, 0 )" style="stroke: hsl(53.8, 55%, 50%);" id="431"  d=" M  0,93  L  -77.505,93  C  -77.505,93  -82.505,138.02  -82.505,318.1  L  -82.505,1483.9  L  342.5,1483.9  L  342.5,1010  C  342.5,870  308.125,710.95  308.125,580  C  308.125,449.05  325,334.469  325,318.1  C  303.125,318.1  284.56,310.026  265.067,290.533  C  245.574,271.04  232.5,216.233  232.5,169.05  C  232.5,121.867  240.826,37.359  242.5,27.5  L  80.579,0  C  77.23,19.718  80.579,93  0,93  z " />
<path transform="translate( 0, 0 )" style="stroke: hsl(80.7, 55%, 50%);" id="652"  d=" M  0,93  L  -77.505,93  C  -77.505,93  -82.505,138.84  -82.505,322.2  L  -82.505,1483.9  L  342.5,1483.9  L  342.5,1010  C  342.5,870  308.125,708.9  308.125,580  C  308.125,451.1  325,338.313  325,322.2  C  303.125,322.2  284.797,314.085  265.206,294.494  C  245.615,274.903  232.5,218.967  232.5,171.1  C  232.5,123.233  240.826,37.359  242.5,27.5  L  80.579,0  C  77.23,19.718  80.579,93  0,93  z " />
<path transform="translate( 0, 0 )" style="stroke: hsl(107.6, 55%, 50%);" id="873"  d=" M  0,93  L  -77.505,93  C  -77.505,93  -82.505,139.66  -82.505,326.3  L  -82.505,1483.9  L  342.5,1483.9  L  342.5,1010  C  342.5,870  308.125,706.85  308.125,580  C  308.125,453.15  325,342.156  325,326.3  C  303.125,326.3  285.029,318.145  265.342,298.458  C  245.655,278.771  232.5,221.7  232.5,173.15  C  232.5,124.6  240.826,37.359  242.5,27.5  L  80.579,0  C  77.23,19.718  80.579,93  0,93  z " />
<path transform="translate( 0, 0 )" style="stroke: hsl(134.5, 55%, 50%);" id="1094"  d=" M  0,93  L  -77.505,93  C  -77.505,93  -82.505,140.48  -82.505,330.4  L  -82.505,1483.9  L  342.5,1483.9  L  342.5,1010  C  342.5,870  308.125,704.8  308.125,580  C  308.125,455.2  325,346  325,330.4  C  303.125,330.4  285.26,322.206  265.477,302.423  C  245.694,282.64  232.5,224.433  232.5,175.2  C  232.5,125.967  240.826,37.359  242.5,27.5  L  80.579,0  C  77.23,19.718  80.579,93  0,93  z " />
<path transform="translate( 0, 0 )" style="stroke: hsl(161.4, 55%, 50%);" id="1315"  d=" M  0,93  L  -77.505,93  C  -77.505,93  -82.505,141.3  -82.505,334.5  L  -82.505,1483.9  L  342.5,1483.9  L  342.5,1010  C  342.5,870  308.125,702.75  308.125,580  C  308.125,457.25  325,349.844  325,334.5  C  303.125,334.5  285.485,326.267  265.609,306.391  C  245.733,286.515  232.5,227.167  232.5,177.25  C  232.5,127.333  240.826,37.359  242.5,27.5  L  80.579,0  C  77.23,19.718  80.579,93  0,93  z " />
<path transform="translate( 0, 0 )" style="stroke: hsl(188.3, 55%, 50%);" id="1536"  d=" M  0,93  L  -77.505,93  C  -77.505,93  -82.505,142.12  -82.505,338.6  L  -82.505,1483.9  L  342.5,1483.9  L  342.5,1010  C  342.5,870  308.125,700.7  308.125,580  C  308.125,459.3  325,353.688  325,338.6  C  303.125,338.6  285.707,330.329  265.739,310.361  C  245.771,290.393  232.5,229.9  232.5,179.3  C  232.5,128.7  240.826,37.359  242.5,27.5  L  80.579,0  C  77.23,19.718  80.579,93  0,93  z " />
<path transform="translate( 0, 0 )" style="stroke: hsl(215.2, 55%, 50%);" id="1757"  d=" M  0,93  L  -77.505,93  C  -77.505,93  -82.505,142.94  -82.505,342.7  L  -82.505,1483.9  L  342.5,1483.9  L  342.5,1010  C  342.5,870  308.125,698.65  308.125,580  C  308.125,461.35  325,357.531  325,342.7  C  303.125,342.7  285.924,334.392  265.866,314.334  C  245.808,294.276  232.5,232.633  232.5,181.35  C  232.5,130.067  240.826,37.359  242.5,27.5  L  80.579,0  C  77.23,19.718  80.579,93  0,93  z " />
<path transform="translate( 0, 0 )" style="stroke: hsl(242.1, 55%, 50%);" id="1978"  d=" M  0,93  L  -77.505,93  C  -77.505,93  -82.505,143.76  -82.505,346.8  L  -82.505,1483.9  L  342.5,1483.9  L  342.5,1010  C  342.5,870  308.125,696.6  308.125,580  C  308.125,463.4  325,361.375  325,346.8  C  303.125,346.8  286.139,338.455  265.992,318.308  C  245.845,298.161  232.5,235.367  232.5,183.4  C  232.5,131.433  240.826,37.359  242.5,27.5  L  80.579,0  C  77.23,19.718  80.579,93  0,93  z " />
<path transform="translate( 0, 0 )" style="stroke: hsl(269, 55%, 50%);" id="2199"  d=" M  0,93  L  -77.505,93  C  -77.505,93  -82.505,144.58  -82.505,350.9  L  -82.505,1483.9  L  342.5,1483.9  L  342.5,1010  C  342.5,870  308.125,694.55  308.125,580  C  308.125,465.45  325,365.219  325,350.9  C  303.125,350.9  286.351,342.519  266.116,322.284  C  245.881,302.049  232.5,238.1  232.5,185.45  C  232.5,132.8  240.826,37.359  242.5,27.5  L  80.579,0  C  77.23,19.718  80.579,93  0,93  z " />
<path transform="translate( 0, 0 )" style="stroke: hsl(295.9, 55%, 50%);" id="2420"  d=" M  0,93  L  -77.505,93  C  -77.505,93  -82.505,145.4  -82.505,355  L  -82.505,1483.9  L  342.5,1483.9  L  342.5,1010  C  342.5,870  308.125,692.5  308.125,580  C  308.125,467.5  325,369.063  325,355  C  303.125,355  286.559,346.583  266.238,326.262  C  245.917,305.941  232.5,240.833  232.5,187.5  C  232.5,134.167  240.826,37.359  242.5,27.5  L  80.579,0  C  77.23,19.718  80.579,93  0,93  z " />
    </g>
    <!-- End of group #front -->
    
    <!-- Start of group #back -->
    <g id="back"  transform=" translate(55.88 5)  translate(1020.849 0) " >
        <path class="hidden" id="3"  d=" M  -50.88,0  L  325,0  L  325,545  L  -50.88,545  z " />
<path transform="translate( 0, 0 )" style="stroke: hsl(26.9, 55%, 50%);" id="211"  d=" M  0,20  L  0,167  L  -50.88,167  L  -50.88,545  L  106.375,545  C  106.375,429.5  123.25,314  123.25,314  C  123.25,314  140.125,429.5  140.125,545  L  308.125,545  C  308.125,447  325,330.625  325,314  C  303.125,314  284.319,305.967  264.926,286.574  C  245.533,267.181  237.5,213.5  237.5,167  C  237.5,120.5  240.826,37.359  242.5,27.5  L  80.579,0  C  77.23,19.718  0,20  0,20  z " />
<path transform="translate( 0, 0 )" style="stroke: hsl(53.8, 55%, 50%);" id="432"  d=" M  0,20  L  0,169.05  L  -50.88,169.05  L  -50.88,545  L  106.375,545  C  106.375,431.55  123.25,318.1  123.25,318.1  C  123.25,318.1  140.125,431.55  140.125,545  L  308.125,545  C  308.125,449.05  325,334.469  325,318.1  C  303.125,318.1  284.56,310.026  265.067,290.533  C  245.574,271.04  237.5,216.233  237.5,169.05  C  237.5,121.867  240.826,37.359  242.5,27.5  L  80.579,0  C  77.23,19.718  0,20  0,20  z " />
<path transform="translate( 0, 0 )" style="stroke: hsl(80.7, 55%, 50%);" id="653"  d=" M  0,20  L  0,171.1  L  -50.88,171.1  L  -50.88,545  L  106.375,545  C  106.375,433.6  123.25,322.2  123.25,322.2  C  123.25,322.2  140.125,433.6  140.125,545  L  308.125,545  C  308.125,451.1  325,338.313  325,322.2  C  303.125,322.2  284.797,314.085  265.206,294.494  C  245.615,274.903  237.5,218.967  237.5,171.1  C  237.5,123.233  240.826,37.359  242.5,27.5  L  80.579,0  C  77.23,19.718  0,20  0,20  z " />
<path transform="translate( 0, 0 )" style="stroke: hsl(107.6, 55%, 50%);" id="874"  d=" M  0,20  L  0,173.15  L  -50.88,173.15  L  -50.88,545  L  106.375,545  C  106.375,435.65  123.25,326.3  123.25,326.3  C  123.25,326.3  140.125,435.65  140.125,545  L  308.125,545  C  308.125,453.15  325,342.156  325,326.3  C  303.125,326.3  285.029,318.145  265.342,298.458  C  245.655,278.771  237.5,221.7  237.5,173.15  C  237.5,124.6  240.826,37.359  242.5,27.5  L  80.579,0  C  77.23,19.718  0,20  0,20  z " />
<path transform="translate( 0, 0 )" style="stroke: hsl(134.5, 55%, 50%);" id="1095"  d=" M  0,20  L  0,175.2  L  -50.88,175.2  L  -50.88,545  L  106.375,545  C  106.375,437.7  123.25,330.4  123.25,330.4  C  123.25,330.4  140.125,437.7  140.125,545  L  308.125,545  C  308.125,455.2  325,346  325,330.4  C  303.125,330.4  285.26,322.206  265.477,302.423  C  245.694,282.64  237.5,224.433  237.5,175.2  C  237.5,125.967  240.826,37.359  242.5,27.5  L  80.579,0  C  77.23,19.718  0,20  0,20  z " />
<path transform="translate( 0, 0 )" style="stroke: hsl(161.4, 55%, 50%);" id="1316"  d=" M  0,20  L  0,177.25  L  -50.88,177.25  L  -50.88,545  L  106.375,545  C  106.375,439.75  123.25,334.5  123.25,334.5  C  123.25,334.5  140.125,439.75  140.125,545  L  308.125,545  C  308.125,457.25  325,349.844  325,334.5  C  303.125,334.5  285.485,326.267  265.609,306.391  C  245.733,286.515  237.5,227.167  237.5,177.25  C  237.5,127.333  240.826,37.359  242.5,27.5  L  80.579,0  C  77.23,19.718  0,20  0,20  z " />
<path transform="translate( 0, 0 )" style="stroke: hsl(188.3, 55%, 50%);" id="1537"  d=" M  0,20  L  0,179.3  L  -50.88,179.3  L  -50.88,545  L  106.375,545  C  106.375,441.8  123.25,338.6  123.25,338.6  C  123.25,338.6  140.125,441.8  140.125,545  L  308.125,545  C  308.125,459.3  325,353.688  325,338.6  C  303.125,338.6  285.707,330.329  265.739,310.361  C  245.771,290.393  237.5,229.9  237.5,179.3  C  237.5,128.7  240.826,37.359  242.5,27.5  L  80.579,0  C  77.23,19.718  0,20  0,20  z " />
<path transform="translate( 0, 0 )" style="stroke: hsl(215.2, 55%, 50%);" id="1758"  d=" M  0,20  L  0,181.35  L  -50.88,181.35  L  -50.88,545  L  106.375,545  C  106.375,443.85  123.25,342.7  123.25,342.7  C  123.25,342.7  140.125,443.85  140.125,545  L  308.125,545  C  308.125,461.35  325,357.531  325,342.7  C  303.125,342.7  285.924,334.392  265.866,314.334  C  245.808,294.276  237.5,232.633  237.5,181.35  C  237.5,130.067  240.826,37.359  242.5,27.5  L  80.579,0  C  77.23,19.718  0,20  0,20  z " />
<path transform="translate( 0, 0 )" style="stroke: hsl(242.1, 55%, 50%);" id="1979"  d=" M  0,20  L  0,183.4  L  -50.88,183.4  L  -50.88,545  L  106.375,545  C  106.375,445.9  123.25,346.8  123.25,346.8  C  123.25,346.8  140.125,445.9  140.125,545  L  308.125,545  C  308.125,463.4  325,361.375  325,346.8  C  303.125,346.8  286.139,338.455  265.992,318.308  C  245.845,298.161  237.5,235.367  237.5,183.4  C  237.5,131.433  240.826,37.359  242.5,27.5  L  80.579,0  C  77.23,19.718  0,20  0,20  z " />
<path transform="translate( 0, 0 )" style="stroke: hsl(269, 55%, 50%);" id="2200"  d=" M  0,20  L  0,185.45  L  -50.88,185.45  L  -50.88,545  L  106.375,545  C  106.375,447.95  123.25,350.9  123.25,350.9  C  123.25,350.9  140.125,447.95  140.125,545  L  308.125,545  C  308.125,465.45  325,365.219  325,350.9  C  303.125,350.9  286.351,342.519  266.116,322.284  C  245.881,302.049  237.5,238.1  237.5,185.45  C  237.5,132.8  240.826,37.359  242.5,27.5  L  80.579,0  C  77.23,19.718  0,20  0,20  z " />
<path transform="translate( 0, 0 )" style="stroke: hsl(295.9, 55%, 50%);" id="2421"  d=" M  0,20  L  0,187.5  L  -50.88,187.5  L  -50.88,545  L  106.375,545  C  106.375,450  123.25,355  123.25,355  C  123.25,355  140.125,450  140.125,545  L  308.125,545  C  308.125,467.5  325,369.063  325,355  C  303.125,355  286.559,346.583  266.238,326.262  C  245.917,305.941  237.5,240.833  237.5,187.5  C  237.5,134.167  240.826,37.359  242.5,27.5  L  80.579,0  C  77.23,19.718  0,20  0,20  z " />
    </g>
    <!-- End of group #back -->
    
    <!-- Start of group #tail -->
    <g id="tail"  transform=" translate(216.296 5)  translate(1406.729 0) " >
        <path class="hidden" id="4"  d=" M  -211.296,0  L  274.375,0  L  274.375,130  L  -211.296,130  z " />
<path transform="translate( 0, 0 )" style="stroke: hsl(26.9, 55%, 50%);" id="212"  d=" M  -211.296,50  -211.296,0  L  0,0  L  274.375,0  L  274.375,50 " />
<path transform="translate( 0, 0 )" style="stroke: hsl(26.9, 55%, 50%);" id="213"  d=" M  -211.296,80  -211.296,130  L  -0,130  L  274.375,130  L  274.375,80 " />
<path transform="translate( 0, 0 )" style="stroke: hsl(53.8, 55%, 50%);" id="433"  d=" M  -211.296,50  -211.296,0  L  0,0  L  274.375,0  L  274.375,50 " />
<path transform="translate( 0, 0 )" style="stroke: hsl(53.8, 55%, 50%);" id="434"  d=" M  -211.296,80  -211.296,130  L  -0,130  L  274.375,130  L  274.375,80 " />
<path transform="translate( 0, 0 )" style="stroke: hsl(80.7, 55%, 50%);" id="654"  d=" M  -211.296,50  -211.296,0  L  0,0  L  274.375,0  L  274.375,50 " />
<path transform="translate( 0, 0 )" style="stroke: hsl(80.7, 55%, 50%);" id="655"  d=" M  -211.296,80  -211.296,130  L  -0,130  L  274.375,130  L  274.375,80 " />
<path transform="translate( 0, 0 )" style="stroke: hsl(107.6, 55%, 50%);" id="875"  d=" M  -211.296,50  -211.296,0  L  0,0  L  274.375,0  L  274.375,50 " />
<path transform="translate( 0, 0 )" style="stroke: hsl(107.6, 55%, 50%);" id="876"  d=" M  -211.296,80  -211.296,130  L  -0,130  L  274.375,130  L  274.375,80 " />
<path transform="translate( 0, 0 )" style="stroke: hsl(134.5, 55%, 50%);" id="1096"  d=" M  -211.296,50  -211.296,0  L  0,0  L  274.375,0  L  274.375,50 " />
<path transform="translate( 0, 0 )" style="stroke: hsl(134.5, 55%, 50%);" id="1097"  d=" M  -211.296,80  -211.296,130  L  -0,130  L  274.375,130  L  274.375,80 " />
<path transform="translate( 0, 0 )" style="stroke: hsl(161.4, 55%, 50%);" id="1317"  d=" M  -211.296,50  -211.296,0  L  0,0  L  274.375,0  L  274.375,50 " />
<path transform="translate( 0, 0 )" style="stroke: hsl(161.4, 55%, 50%);" id="1318"  d=" M  -211.296,80  -211.296,130  L  -0,130  L  274.375,130  L  274.375,80 " />
<path transform="translate( 0, 0 )" style="stroke: hsl(188.3, 55%, 50%);" id="1538"  d=" M  -211.296,50  -211.296,0  L  0,0  L  274.375,0  L  274.375,50 " />
<path transform="translate( 0, 0 )" style="stroke: hsl(188.3, 55%, 50%);" id="1539"  d=" M  -211.296,80  -211.296,130  L  -0,130  L  274.375,130  L  274.375,80 " />
<path transform="translate( 0, 0 )" style="stroke: hsl(215.2, 55%, 50%);" id="1759"  d=" M  -211.296,50  -211.296,0  L  0,0  L  274.375,0  L  274.375,50 " />
<path transform="translate( 0, 0 )" style="stroke: hsl(215.2, 55%, 50%);" id="1760"  d=" M  -211.296,80  -211.296,130  L  -0,130  L  274.375,130  L  274.375,80 " />
<path transform="translate( 0, 0 )" style="stroke: hsl(242.1, 55%, 50%);" id="1980"  d=" M  -211.296,50  -211.296,0  L  0,0  L  274.375,0  L  274.375,50 " />
<path transform="translate( 0, 0 )" style="stroke: hsl(242.1, 55%, 50%);" id="1981"  d=" M  -211.296,80  -211.296,130  L  -0,130  L  274.375,130  L  274.375,80 " />
<path transform="translate( 0, 0 )" style="stroke: hsl(269, 55%, 50%);" id="2201"  d=" M  -211.296,50  -211.296,0  L  0,0  L  274.375,0  L  274.375,50 " />
<path transform="translate( 0, 0 )" style="stroke: hsl(269, 55%, 50%);" id="2202"  d=" M  -211.296,80  -211.296,130  L  -0,130  L  274.375,130  L  274.375,80 " />
<path transform="translate( 0, 0 )" style="stroke: hsl(295.9, 55%, 50%);" id="2422"  d=" M  -211.296,50  -211.296,0  L  0,0  L  274.375,0  L  274.375,50 " />
<path transform="translate( 0, 0 )" style="stroke: hsl(295.9, 55%, 50%);" id="2423"  d=" M  -211.296,80  -211.296,130  L  -0,130  L  274.375,130  L  274.375,80 " />
    </g>
    <!-- End of group #tail -->
    
    <!-- Start of group #topsleeve -->
    <g id="topsleeve"  transform=" translate(189.217 5)  translate(435.005 0) " >
        <path class="hidden" id="5"  d=" M  -184.217,0  L  139.225,0  L  139.225,816.824  L  -184.217,816.824  z " />
<path transform="translate( 0, 0 )" style="stroke: hsl(26.9, 55%, 50%);" id="214"  d=" M  124.004,380  C  132.997,329  137.782,273.334  137.782,205  C  137.782,136.666  124.004,68.333  124.004,68.333  C  124.004,68.333  77.503,0  0,0  C  -77.503,0  -113.67,68.333  -124.004,123  C  -134.338,177.667  -139.505,205  -155.005,205  C  -155.005,205  -141.262,314.328  -137.782,380  L  -120.381,708.36  L  -126.522,805.666  L  33.585,815.771  C  47.02,816.619  58.599,806.414  59.447,792.979  L  64.053,720  z " />
<path transform="translate( -1.293, 0 )" style="stroke: hsl(53.8, 55%, 50%);" id="435"  d=" M  125.297,380  C  134.29,329  139.219,273.334  139.219,205  C  139.219,136.666  125.297,68.333  125.297,68.333  C  125.297,68.333  78.311,0  0,0  C  -78.311,0  -114.856,68.333  -125.297,123  C  -135.738,177.667  -140.959,205  -156.621,205  C  -156.621,205  -143.185,314.198  -139.219,380  L  -119.387,709.012  L  -125.176,806.34  L  35.225,815.881  C  48.663,816.68  60.205,806.434  61.004,792.996  L  65.346,720  z " />
<path transform="translate( -2.587, 0 )" style="stroke: hsl(80.7, 55%, 50%);" id="656"  d=" M  126.591,380  C  135.584,329  140.657,273.334  140.657,205  C  140.657,136.666  126.591,68.333  126.591,68.333  C  126.591,68.333  79.119,0  0,0  C  -79.119,0  -116.042,68.334  -126.591,123  C  -137.14,177.666  -142.415,205  -158.239,205  C  -158.239,205  -145.11,314.066  -140.657,380  L  -118.39,709.668  L  -123.826,807.016  L  36.867,815.989  C  50.308,816.74  61.812,806.452  62.563,793.011  L  66.64,720  z " />
<path transform="translate( -3.883, 0 )" style="stroke: hsl(107.6, 55%, 50%);" id="877"  d=" M  127.887,380  C  136.88,329  142.097,273.334  142.097,205  C  142.097,136.666  127.887,68.333  127.887,68.333  C  127.887,68.333  79.929,0  0,0  C  -79.929,0  -117.23,68.333  -127.887,123  C  -138.544,177.667  -143.873,205  -159.859,205  C  -159.859,205  -147.039,313.934  -142.097,380  L  -117.389,710.326  L  -122.472,807.693  L  38.511,816.096  C  51.955,816.798  63.422,806.469  64.124,793.025  L  67.936,720  z " />
<path transform="translate( -5.179, 0 )" style="stroke: hsl(134.5, 55%, 50%);" id="1098"  d=" M  129.183,380  C  138.176,329  143.537,273.334  143.537,205  C  143.537,136.666  129.183,68.333  129.183,68.333  C  129.183,68.333  80.739,0  0,0  C  -80.739,0  -118.418,68.333  -129.183,123  C  -139.948,177.667  -145.331,205  -161.479,205  C  -161.479,205  -148.967,313.803  -143.537,380  L  -116.386,710.987  L  -121.115,808.372  L  40.157,816.203  C  53.603,816.856  65.032,806.485  65.685,793.039  L  69.232,720  z " />
<path transform="translate( -6.477, 0 )" style="stroke: hsl(161.4, 55%, 50%);" id="1319"  d=" M  130.481,380  C  139.474,329  144.979,273.334  144.979,205  C  144.979,136.666  130.481,68.333  130.481,68.333  C  130.481,68.333  81.551,0  0,0  C  -81.551,0  -119.608,68.333  -130.481,123  C  -141.354,177.667  -146.791,205  -163.101,205  C  -163.101,205  -150.899,313.67  -144.979,380  L  -115.379,711.651  L  -119.753,809.053  L  41.806,816.309  C  55.254,816.913  66.645,806.5  67.249,793.052  L  70.53,720  z " />
<path transform="translate( -7.776, 0 )" style="stroke: hsl(188.3, 55%, 50%);" id="1540"  d=" M  131.78,380  C  140.773,329  146.422,273.334  146.422,205  C  146.422,136.666  131.78,68.333  131.78,68.333  C  131.78,68.333  82.363,0  0,0  C  -82.363,0  -120.798,68.333  -131.78,123  C  -142.762,177.667  -148.253,205  -164.725,205  C  -164.725,205  -152.833,313.537  -146.422,380  L  -114.369,712.318  L  -118.388,809.735  L  43.456,816.412  C  56.907,816.967  68.26,806.514  68.815,793.063  L  71.829,720  z " />
<path transform="translate( -9.076, 0 )" style="stroke: hsl(215.2, 55%, 50%);" id="1761"  d=" M  133.08,380  C  142.073,329  147.867,273.334  147.867,205  C  147.867,136.666  133.08,68.333  133.08,68.333  C  133.08,68.333  83.175,0  0,0  C  -83.175,0  -121.99,68.334  -133.08,123  C  -144.17,177.666  -149.715,205  -166.35,205  C  -166.35,205  -154.769,313.402  -147.867,380  L  -113.355,712.987  L  -117.019,810.418  L  45.107,816.515  C  58.559,817.021  69.875,806.525  70.381,793.073  L  73.129,720  z " />
<path transform="translate( -10.377, 0 )" style="stroke: hsl(242.1, 55%, 50%);" id="1982"  d=" M  134.381,380  C  143.374,329  149.312,273.334  149.312,205  C  149.312,136.666  134.381,68.333  134.381,68.333  C  134.381,68.333  83.988,0  0,0  C  -83.988,0  -123.182,68.333  -134.381,123  C  -145.58,177.667  -151.179,205  -167.976,205  C  -167.976,205  -156.707,313.268  -149.312,380  L  -112.338,713.66  L  -115.646,811.104  L  46.761,816.617  C  60.215,817.074  71.492,806.537  71.949,793.083  L  74.43,720  z " />
<path transform="translate( -11.679, 0 )" style="stroke: hsl(269, 55%, 50%);" id="2203"  d=" M  135.683,380  C  144.676,329  150.759,273.334  150.759,205  C  150.759,136.666  135.683,68.333  135.683,68.333  C  135.683,68.333  84.802,0  0,0  C  -84.802,0  -124.376,68.333  -135.683,123  C  -146.99,177.667  -152.644,205  -169.604,205  C  -169.604,205  -158.647,313.133  -150.759,380  L  -111.319,714.335  L  -114.271,811.79  L  48.416,816.717  C  61.872,817.125  73.11,806.547  73.518,793.091  L  75.732,720  z " />
<path transform="translate( -12.983, 0 )" style="stroke: hsl(295.9, 55%, 50%);" id="2424"  d=" M  136.987,380  C  145.98,329  152.208,273.334  152.208,205  C  152.208,136.666  136.987,68.333  136.987,68.333  C  136.987,68.333  85.617,0  0,0  C  -85.617,0  -125.571,68.333  -136.987,123  C  -148.403,177.667  -154.111,205  -171.234,205  C  -171.234,205  -160.591,312.997  -152.208,380  L  -110.295,715.013  L  -112.89,812.478  L  50.075,816.816  C  63.532,817.174  74.732,806.556  75.09,793.099  L  77.036,720  z " />
    </g>
    <!-- End of group #topsleeve -->
    
    <!-- Start of group #undersleeve -->
    <g id="undersleeve"  transform=" translate(120.723 -63.333)  translate(768.447 0) " >
        <path class="hidden" id="6"  d=" M  -115.723,68.333  L  126.679,68.333  L  126.679,816.127  L  -115.723,816.127  z " />
<path transform="translate( 0, 0 )" style="stroke: hsl(26.9, 55%, 50%);" id="215"  d=" M  124.004,380  C  132.997,329  116.99,272.998  110.226,205  C  103.462,137.002  93.003,68.333  93.003,68.333  C  72.504,134.7  -15.501,205  -62.002,205  L  -93.003,205  C  -93.003,205  -72.674,314.328  -72.336,380  L  -70.644,708.36  L  -79.038,805.498  L  31.375,815.04  C  44.787,816.199  56.598,806.266  57.757,792.854  L  64.053,720  z " />
<path transform="translate( -1.293, 0 )" style="stroke: hsl(53.8, 55%, 50%);" id="436"  d=" M  125.297,380  C  134.29,329  118.208,272.991  111.375,205  C  104.542,137.009  93.973,68.333  93.973,68.333  C  73.362,134.69  -15.662,205  -62.649,205  L  -93.973,205  C  -93.973,205  -73.882,314.233  -73.09,380  L  -69.132,708.835  L  -77.199,806.001  L  32.988,815.149  C  46.404,816.263  58.182,806.291  59.296,792.875  L  65.346,720  z " />
<path transform="translate( -2.587, 0 )" style="stroke: hsl(80.7, 55%, 50%);" id="657"  d=" M  126.591,380  C  135.584,329  119.428,272.984  112.525,205  C  105.622,137.016  94.943,68.333  94.943,68.333  C  74.257,134.692  -15.824,205  -63.295,205  L  -94.943,205  C  -94.943,205  -75.091,314.139  -73.845,380  L  -67.617,709.309  L  -75.357,806.501  L  34.602,815.257  C  48.022,816.326  59.766,806.314  60.835,792.894  L  66.64,720  z " />
<path transform="translate( -3.883, 0 )" style="stroke: hsl(107.6, 55%, 50%);" id="878"  d=" M  127.887,380  C  136.88,329  120.65,272.977  113.677,205  C  106.704,137.023  95.915,68.333  95.915,68.333  C  75.124,134.684  -15.986,205  -63.943,205  L  -95.915,205  C  -95.915,205  -76.302,314.044  -74.601,380  L  -66.098,709.783  L  -73.509,807.001  L  36.221,815.365  C  49.644,816.388  61.355,806.337  62.378,792.914  L  67.936,720  z " />
<path transform="translate( -5.179, 0 )" style="stroke: hsl(134.5, 55%, 50%);" id="1099"  d=" M  129.183,380  C  138.176,329  121.872,272.97  114.829,205  C  107.786,137.03  96.887,68.333  96.887,68.333  C  75.998,134.679  -16.148,205  -64.591,205  L  -96.887,205  C  -96.887,205  -77.513,313.949  -75.357,380  L  -64.577,710.254  L  -71.66,807.496  L  37.838,815.471  C  51.264,816.449  62.942,806.357  63.92,792.931  L  69.232,720  z " />
<path transform="translate( -6.477, 0 )" style="stroke: hsl(161.4, 55%, 50%);" id="1320"  d=" M  130.481,380  C  139.474,329  123.096,272.963  115.983,205  C  108.87,137.037  97.861,68.333  97.861,68.333  C  76.891,134.678  -16.31,205  -65.241,205  L  -97.861,205  C  -97.861,205  -78.726,313.855  -76.114,380  L  -63.052,710.725  L  -69.805,807.991  L  39.461,815.578  C  52.891,816.51  64.533,806.38  65.465,792.95  L  70.53,720  z " />
<path transform="translate( -7.776, 0 )" style="stroke: hsl(188.3, 55%, 50%);" id="1541"  d=" M  131.78,380  C  140.773,329  124.321,272.955  117.138,205  C  109.955,137.045  98.835,68.333  98.835,68.333  C  77.768,134.674  -16.473,205  -65.89,205  L  -98.835,205  C  -98.835,205  -79.941,313.76  -76.872,380  L  -61.525,711.196  L  -67.948,808.484  L  41.084,815.682  C  54.517,816.569  66.125,806.399  67.012,792.966  L  71.829,720  z " />
<path transform="translate( -9.076, 0 )" style="stroke: hsl(215.2, 55%, 50%);" id="1762"  d=" M  133.08,380  C  142.073,329  125.546,272.948  118.293,205  C  111.04,137.052  99.81,68.333  99.81,68.333  C  78.647,134.67  -16.635,205  -66.54,205  L  -99.81,205  C  -99.81,205  -81.157,313.667  -77.63,380  L  -59.994,711.665  L  -66.087,808.974  L  42.709,815.786  C  56.145,816.627  67.718,806.418  68.559,792.982  L  73.129,720  z " />
<path transform="translate( -10.377, 0 )" style="stroke: hsl(242.1, 55%, 50%);" id="1983"  d=" M  134.381,380  C  143.374,329  126.773,272.94  119.45,205  C  112.127,137.06  100.786,68.333  100.786,68.333  C  79.527,134.666  -16.798,205  -67.191,205  L  -100.786,205  C  -100.786,205  -82.375,313.574  -78.389,380  L  -58.461,712.133  L  -64.223,809.463  L  44.336,815.89  C  57.774,816.685  69.313,806.436  70.108,792.998  L  74.43,720  z " />
<path transform="translate( -11.679, 0 )" style="stroke: hsl(269, 55%, 50%);" id="2204"  d=" M  135.683,380  C  144.676,329  128.001,272.933  120.607,205  C  113.213,137.067  101.762,68.333  101.762,68.333  C  80.429,134.668  -16.96,205  -67.841,205  L  -101.762,205  C  -101.762,205  -83.593,313.48  -79.148,380  L  -56.925,712.599  L  -62.356,809.948  L  45.964,815.991  C  59.405,816.741  70.909,806.453  71.659,793.012  L  75.732,720  z " />
<path transform="translate( -12.983, 0 )" style="stroke: hsl(295.9, 55%, 50%);" id="2425"  d=" M  136.987,380  C  145.98,329  129.23,272.925  121.766,205  C  114.302,137.075  102.74,68.333  102.74,68.333  C  81.324,134.669  -17.123,205  -68.493,205  L  -102.74,205  C  -102.74,205  -84.814,313.387  -79.909,380  L  -55.386,713.066  L  -60.484,810.433  L  47.596,816.093  C  61.04,816.797  72.508,806.469  73.212,793.025  L  77.036,720  z " />
    </g>
    <!-- End of group #undersleeve -->
    
    <!-- Start of group #belt -->
    <g id="belt"  transform=" translate(5 5)  translate(1406.729 140) " >
        <path class="hidden" id="7"  d=" M  0,0  L  400.023,0  L  400.023,70  L  0,70  z " />
<path transform="translate( 0, 0 )" style="stroke: hsl(26.9, 55%, 50%);" id="216"  d=" M  400.023,0  L  10,0  C  4.477,0  0,4.477  0,10  L  0,60  C  0,65.523  4.477,70  10,70  L  400.023,70  L  400.023,0  z " />
<path transform="translate( 0, 0 )" style="stroke: hsl(53.8, 55%, 50%);" id="437"  d=" M  400.023,0  L  10,0  C  4.477,0  0,4.477  0,10  L  0,60  C  0,65.523  4.477,70  10,70  L  400.023,70  L  400.023,0  z " />
<path transform="translate( 0, 0 )" style="stroke: hsl(80.7, 55%, 50%);" id="658"  d=" M  400.023,0  L  10,0  C  4.477,0  0,4.477  0,10  L  0,60  C  0,65.523  4.477,70  10,70  L  400.023,70  L  400.023,0  z " />
<path transform="translate( 0, 0 )" style="stroke: hsl(107.6, 55%, 50%);" id="879"  d=" M  400.023,0  L  10,0  C  4.477,0  0,4.477  0,10  L  0,60  C  0,65.523  4.477,70  10,70  L  400.023,70  L  400.023,0  z " />
<path transform="translate( 0, 0 )" style="stroke: hsl(134.5, 55%, 50%);" id="1100"  d=" M  400.023,0  L  10,0  C  4.477,0  0,4.477  0,10  L  0,60  C  0,65.523  4.477,70  10,70  L  400.023,70  L  400.023,0  z " />
<path transform="translate( 0, 0 )" style="stroke: hsl(161.4, 55%, 50%);" id="1321"  d=" M  400.023,0  L  10,0  C  4.477,0  0,4.477  0,10  L  0,60  C  0,65.523  4.477,70  10,70  L  400.023,70  L  400.023,0  z " />
<path transform="translate( 0, 0 )" style="stroke: hsl(188.3, 55%, 50%);" id="1542"  d=" M  400.023,0  L  10,0  C  4.477,0  0,4.477  0,10  L  0,60  C  0,65.523  4.477,70  10,70  L  400.023,70  L  400.023,0  z " />
<path transform="translate( 0, 0 )" style="stroke: hsl(215.2, 55%, 50%);" id="1763"  d=" M  400.023,0  L  10,0  C  4.477,0  0,4.477  0,10  L  0,60  C  0,65.523  4.477,70  10,70  L  400.023,70  L  400.023,0  z " />
<path transform="translate( 0, 0 )" style="stroke: hsl(242.1, 55%, 50%);" id="1984"  d=" M  400.023,0  L  10,0  C  4.477,0  0,4.477  0,10  L  0,60  C  0,65.523  4.477,70  10,70  L  400.023,70  L  400.023,0  z " />
<path transform="translate( 0, 0 )" style="stroke: hsl(269, 55%, 50%);" id="2205"  d=" M  400.023,0  L  10,0  C  4.477,0  0,4.477  0,10  L  0,60  C  0,65.523  4.477,70  10,70  L  400.023,70  L  400.023,0  z " />
<path transform="translate( 0, 0 )" style="stroke: hsl(295.9, 55%, 50%);" id="2426"  d=" M  400.023,0  L  10,0  C  4.477,0  0,4.477  0,10  L  0,60  C  0,65.523  4.477,70  10,70  L  400.023,70  L  400.023,0  z " />
    </g>
    <!-- End of group #belt -->
    
    <!-- Start of group #collarStand -->
    <g id="collarStand"  transform=" translate(176.885 -71.76)  translate(1406.729 220) " >
        <path class="hidden" id="8"  d=" M  -171.885,76.76  L  171.885,76.76  L  171.885,128.368  L  -171.885,128.368  z " />
<path transform="translate( 0, 0 )" style="stroke: hsl(26.9, 55%, 50%);" id="217"  d=" M  -171.885,128.368  C  -171.885,128.368  -154.697,76.76  0,76.76  C  154.697,76.76  171.885,128.368  171.885,128.368  C  144.745,128.368  85.943,101.76  0,101.76  C  -85.943,101.76  -144.745,128.368  -171.885,128.368  z " />
<path transform="translate( 0, 0 )" style="stroke: hsl(53.8, 55%, 50%);" id="438"  d=" M  -171.885,128.368  C  -171.885,128.368  -154.697,76.76  0,76.76  C  154.697,76.76  171.885,128.368  171.885,128.368  C  144.745,128.368  85.943,101.76  0,101.76  C  -85.943,101.76  -144.745,128.368  -171.885,128.368  z " />
<path transform="translate( 0, 0 )" style="stroke: hsl(80.7, 55%, 50%);" id="659"  d=" M  -171.885,128.368  C  -171.885,128.368  -154.697,76.76  0,76.76  C  154.697,76.76  171.885,128.368  171.885,128.368  C  144.745,128.368  85.943,101.76  0,101.76  C  -85.943,101.76  -144.745,128.368  -171.885,128.368  z " />
<path transform="translate( 0, 0 )" style="stroke: hsl(107.6, 55%, 50%);" id="880"  d=" M  -171.885,128.368  C  -171.885,128.368  -154.697,76.76  0,76.76  C  154.697,76.76  171.885,128.368  171.885,128.368  C  144.745,128.368  85.943,101.76  0,101.76  C  -85.943,101.76  -144.745,128.368  -171.885,128.368  z " />
<path transform="translate( 0, 0 )" style="stroke: hsl(134.5, 55%, 50%);" id="1101"  d=" M  -171.885,128.368  C  -171.885,128.368  -154.697,76.76  0,76.76  C  154.697,76.76  171.885,128.368  171.885,128.368  C  144.745,128.368  85.943,101.76  0,101.76  C  -85.943,101.76  -144.745,128.368  -171.885,128.368  z " />
<path transform="translate( 0, 0 )" style="stroke: hsl(161.4, 55%, 50%);" id="1322"  d=" M  -171.885,128.368  C  -171.885,128.368  -154.697,76.76  0,76.76  C  154.697,76.76  171.885,128.368  171.885,128.368  C  144.745,128.368  85.943,101.76  0,101.76  C  -85.943,101.76  -144.745,128.368  -171.885,128.368  z " />
<path transform="translate( 0, 0 )" style="stroke: hsl(188.3, 55%, 50%);" id="1543"  d=" M  -171.885,128.368  C  -171.885,128.368  -154.697,76.76  0,76.76  C  154.697,76.76  171.885,128.368  171.885,128.368  C  144.745,128.368  85.943,101.76  0,101.76  C  -85.943,101.76  -144.745,128.368  -171.885,128.368  z " />
<path transform="translate( 0, 0 )" style="stroke: hsl(215.2, 55%, 50%);" id="1764"  d=" M  -171.885,128.368  C  -171.885,128.368  -154.697,76.76  0,76.76  C  154.697,76.76  171.885,128.368  171.885,128.368  C  144.745,128.368  85.943,101.76  0,101.76  C  -85.943,101.76  -144.745,128.368  -171.885,128.368  z " />
<path transform="translate( 0, 0 )" style="stroke: hsl(242.1, 55%, 50%);" id="1985"  d=" M  -171.885,128.368  C  -171.885,128.368  -154.697,76.76  0,76.76  C  154.697,76.76  171.885,128.368  171.885,128.368  C  144.745,128.368  85.943,101.76  0,101.76  C  -85.943,101.76  -144.745,128.368  -171.885,128.368  z " />
<path transform="translate( 0, 0 )" style="stroke: hsl(269, 55%, 50%);" id="2206"  d=" M  -171.885,128.368  C  -171.885,128.368  -154.697,76.76  0,76.76  C  154.697,76.76  171.885,128.368  171.885,128.368  C  144.745,128.368  85.943,101.76  0,101.76  C  -85.943,101.76  -144.745,128.368  -171.885,128.368  z " />
<path transform="translate( 0, 0 )" style="stroke: hsl(295.9, 55%, 50%);" id="2427"  d=" M  -171.885,128.368  C  -171.885,128.368  -154.697,76.76  0,76.76  C  154.697,76.76  171.885,128.368  171.885,128.368  C  144.745,128.368  85.943,101.76  0,101.76  C  -85.943,101.76  -144.745,128.368  -171.885,128.368  z " />
    </g>
    <!-- End of group #collarStand -->
    
    <!-- Start of group #collar -->
    <g id="collar"  transform=" translate(5 5)  translate(1406.729 437.858) " >
        <path class="hidden" id="9"  d=" M  0,0  L  263.948,0  L  263.948,154.668  L  0,154.668  z " />
<path transform="translate( 0, 0 )" style="stroke: hsl(26.9, 55%, 50%);" id="218"  d=" M  0,76.76  C  17.017,76.76  32.369,77.385  46.596,78.526  C  63.764,81.44  78.839,85.001  91.945,88.932  C  109.76,96.022  123.091,103.403  133.078,110.475  C  156.879,135.404  157.852,151.68  157.852,151.68  L  210.935,154.668  L  263.948,67.319  C  199.814,30.027  135.699,0  0,0  z " />
<path transform="translate( 0, 0 )" style="stroke: hsl(53.8, 55%, 50%);" id="439"  d=" M  0,76.76  C  17.017,76.76  32.369,77.385  46.596,78.526  C  63.764,81.44  78.839,85.001  91.945,88.932  C  109.76,96.022  123.091,103.403  133.078,110.475  C  156.879,135.404  157.852,151.68  157.852,151.68  L  210.935,154.668  L  263.948,67.319  C  199.814,30.027  135.699,0  0,0  z " />
<path transform="translate( 0, 0 )" style="stroke: hsl(80.7, 55%, 50%);" id="660"  d=" M  0,76.76  C  17.017,76.76  32.369,77.385  46.596,78.526  C  63.764,81.44  78.839,85.001  91.945,88.932  C  109.76,96.022  123.091,103.403  133.078,110.475  C  156.879,135.404  157.852,151.68  157.852,151.68  L  210.935,154.668  L  263.948,67.319  C  199.814,30.027  135.699,0  0,0  z " />
<path transform="translate( 0, 0 )" style="stroke: hsl(107.6, 55%, 50%);" id="881"  d=" M  0,76.76  C  17.017,76.76  32.369,77.385  46.596,78.526  C  63.764,81.44  78.839,85.001  91.945,88.932  C  109.76,96.022  123.091,103.403  133.078,110.475  C  156.879,135.404  157.852,151.68  157.852,151.68  L  210.935,154.668  L  263.948,67.319  C  199.814,30.027  135.699,0  0,0  z " />
<path transform="translate( 0, 0 )" style="stroke: hsl(134.5, 55%, 50%);" id="1102"  d=" M  0,76.76  C  17.017,76.76  32.369,77.385  46.596,78.526  C  63.764,81.44  78.839,85.001  91.945,88.932  C  109.76,96.022  123.091,103.403  133.078,110.475  C  156.879,135.404  157.852,151.68  157.852,151.68  L  210.935,154.668  L  263.948,67.319  C  199.814,30.027  135.699,0  0,0  z " />
<path transform="translate( 0, 0 )" style="stroke: hsl(161.4, 55%, 50%);" id="1323"  d=" M  0,76.76  C  17.017,76.76  32.369,77.385  46.596,78.526  C  63.764,81.44  78.839,85.001  91.945,88.932  C  109.76,96.022  123.091,103.403  133.078,110.475  C  156.879,135.404  157.852,151.68  157.852,151.68  L  210.935,154.668  L  263.948,67.319  C  199.814,30.027  135.699,0  0,0  z " />
<path transform="translate( 0, 0 )" style="stroke: hsl(188.3, 55%, 50%);" id="1544"  d=" M  0,76.76  C  17.017,76.76  32.369,77.385  46.596,78.526  C  63.764,81.44  78.839,85.001  91.945,88.932  C  109.76,96.022  123.091,103.403  133.078,110.475  C  156.879,135.404  157.852,151.68  157.852,151.68  L  210.935,154.668  L  263.948,67.319  C  199.814,30.027  135.699,0  0,0  z " />
<path transform="translate( 0, 0 )" style="stroke: hsl(215.2, 55%, 50%);" id="1765"  d=" M  0,76.76  C  17.017,76.76  32.369,77.385  46.596,78.526  C  63.764,81.44  78.839,85.001  91.945,88.932  C  109.76,96.022  123.091,103.403  133.078,110.475  C  156.879,135.404  157.852,151.68  157.852,151.68  L  210.935,154.668  L  263.948,67.319  C  199.814,30.027  135.699,0  0,0  z " />
<path transform="translate( 0, 0 )" style="stroke: hsl(242.1, 55%, 50%);" id="1986"  d=" M  0,76.76  C  17.017,76.76  32.369,77.385  46.596,78.526  C  63.764,81.44  78.839,85.001  91.945,88.932  C  109.76,96.022  123.091,103.403  133.078,110.475  C  156.879,135.404  157.852,151.68  157.852,151.68  L  210.935,154.668  L  263.948,67.319  C  199.814,30.027  135.699,0  0,0  z " />
<path transform="translate( 0, 0 )" style="stroke: hsl(269, 55%, 50%);" id="2207"  d=" M  0,76.76  C  17.017,76.76  32.369,77.385  46.596,78.526  C  63.764,81.44  78.839,85.001  91.945,88.932  C  109.76,96.022  123.091,103.403  133.078,110.475  C  156.879,135.404  157.852,151.68  157.852,151.68  L  210.935,154.668  L  263.948,67.319  C  199.814,30.027  135.699,0  0,0  z " />
<path transform="translate( 0, 0 )" style="stroke: hsl(295.9, 55%, 50%);" id="2428"  d=" M  0,76.76  C  17.017,76.76  32.369,77.385  46.596,78.526  C  63.764,81.44  78.839,85.001  91.945,88.932  C  109.76,96.022  123.091,103.403  133.078,110.475  C  156.879,135.404  157.852,151.68  157.852,151.68  L  210.935,154.668  L  263.948,67.319  C  199.814,30.027  135.699,0  0,0  z " />
    </g>
    <!-- End of group #collar -->
    
    <!-- Start of group #cuffFacing -->
    <g id="cuffFacing"  transform=" translate(5.001 5)  translate(1406.729 281.608) " >
        <path class="hidden" id="10"  d=" M  -0.001,0  L  320,0  L  320,146.25  L  -0.001,146.25  z " />
<path transform="translate( 0, 0 )" style="stroke: hsl(26.9, 55%, 50%);" id="219"  d=" M  0,0  L  0,121.875  C  -0,135.337  10.913,146.25  24.375,146.25  L  295.625,146.25  C  309.087,146.25  320,135.337  320,121.875  L  320,0  z " />
<path transform="translate( 0, 0 )" style="stroke: hsl(53.8, 55%, 50%);" id="440"  d=" M  0,0  L  0,121.875  C  -0,135.337  10.913,146.25  24.375,146.25  L  295.625,146.25  C  309.087,146.25  320,135.337  320,121.875  L  320,0  z " />
<path transform="translate( 0, 0 )" style="stroke: hsl(80.7, 55%, 50%);" id="661"  d=" M  0,0  L  0,121.875  C  -0,135.337  10.913,146.25  24.375,146.25  L  295.625,146.25  C  309.087,146.25  320,135.337  320,121.875  L  320,0  z " />
<path transform="translate( 0, 0 )" style="stroke: hsl(107.6, 55%, 50%);" id="882"  d=" M  0,0  L  0,121.875  C  -0,135.337  10.913,146.25  24.375,146.25  L  295.625,146.25  C  309.087,146.25  320,135.337  320,121.875  L  320,0  z " />
<path transform="translate( 0, 0 )" style="stroke: hsl(134.5, 55%, 50%);" id="1103"  d=" M  0,0  L  0,121.875  C  -0,135.337  10.913,146.25  24.375,146.25  L  295.625,146.25  C  309.087,146.25  320,135.337  320,121.875  L  320,0  z " />
<path transform="translate( 0, 0 )" style="stroke: hsl(161.4, 55%, 50%);" id="1324"  d=" M  0,0  L  0,121.875  C  -0,135.337  10.913,146.25  24.375,146.25  L  295.625,146.25  C  309.087,146.25  320,135.337  320,121.875  L  320,0  z " />
<path transform="translate( -0.0010000000000048, 0 )" style="stroke: hsl(188.3, 55%, 50%);" id="1545"  d=" M  0,0  L  0,121.875  C  -0,135.337  10.913,146.25  24.375,146.25  L  295.626,146.25  C  309.088,146.25  320.001,135.337  320.001,121.875  L  320.001,0  z " />
<path transform="translate( 0, 0 )" style="stroke: hsl(215.2, 55%, 50%);" id="1766"  d=" M  0,0  L  0,121.875  C  -0,135.337  10.913,146.25  24.375,146.25  L  295.624,146.25  C  309.086,146.25  319.999,135.337  319.999,121.875  L  319.999,0  z " />
<path transform="translate( 0, 0 )" style="stroke: hsl(242.1, 55%, 50%);" id="1987"  d=" M  0,0  L  0,121.875  C  -0,135.337  10.913,146.25  24.375,146.25  L  295.624,146.25  C  309.086,146.25  319.999,135.337  319.999,121.875  L  319.999,0  z " />
<path transform="translate( 0, 0 )" style="stroke: hsl(269, 55%, 50%);" id="2208"  d=" M  0,0  L  0,121.875  C  -0,135.337  10.913,146.25  24.375,146.25  L  295.625,146.25  C  309.087,146.25  320,135.337  320,121.875  L  320,0  z " />
<path transform="translate( -0.0010000000000048, 0 )" style="stroke: hsl(295.9, 55%, 50%);" id="2429"  d=" M  0,0  L  0,121.875  C  -0,135.337  10.913,146.25  24.375,146.25  L  295.626,146.25  C  309.088,146.25  320.001,135.337  320.001,121.875  L  320.001,0  z " />
    </g>
    <!-- End of group #cuffFacing -->
    
    <!-- Start of group #pocket -->
    <g id="pocket"  transform=" translate(-77.505 -712.5)  translate(1406.729 602.526) " >
        <path class="hidden" id="11"  d=" M  82.505,717.5  L  282.315,717.5  L  282.315,945.4  L  82.505,945.4  z " />
<path transform="translate( 0, 0 )" style="stroke: hsl(26.9, 55%, 50%);" id="220"  d=" M  82.505,717.5  L  82.505,895.4  C  82.505,923.014  104.891,945.4  132.505,945.4  L  232.315,945.4  C  259.929,945.4  282.315,923.014  282.315,895.4  L  282.315,717.5  L  82.505,717.5  z " />
<path transform="translate( 0, 0 )" style="stroke: hsl(53.8, 55%, 50%);" id="441"  d=" M  82.505,717.5  L  82.505,895.4  C  82.505,923.014  104.891,945.4  132.505,945.4  L  232.315,945.4  C  259.929,945.4  282.315,923.014  282.315,895.4  L  282.315,717.5  L  82.505,717.5  z " />
<path transform="translate( 0, 0 )" style="stroke: hsl(80.7, 55%, 50%);" id="662"  d=" M  82.505,717.5  L  82.505,895.4  C  82.505,923.014  104.891,945.4  132.505,945.4  L  232.315,945.4  C  259.929,945.4  282.315,923.014  282.315,895.4  L  282.315,717.5  L  82.505,717.5  z " />
<path transform="translate( 0, 0 )" style="stroke: hsl(107.6, 55%, 50%);" id="883"  d=" M  82.505,717.5  L  82.505,895.4  C  82.505,923.014  104.891,945.4  132.505,945.4  L  232.315,945.4  C  259.929,945.4  282.315,923.014  282.315,895.4  L  282.315,717.5  L  82.505,717.5  z " />
<path transform="translate( 0, 0 )" style="stroke: hsl(134.5, 55%, 50%);" id="1104"  d=" M  82.505,717.5  L  82.505,895.4  C  82.505,923.014  104.891,945.4  132.505,945.4  L  232.315,945.4  C  259.929,945.4  282.315,923.014  282.315,895.4  L  282.315,717.5  L  82.505,717.5  z " />
<path transform="translate( 0, 0 )" style="stroke: hsl(161.4, 55%, 50%);" id="1325"  d=" M  82.505,717.5  L  82.505,895.4  C  82.505,923.014  104.891,945.4  132.505,945.4  L  232.315,945.4  C  259.929,945.4  282.315,923.014  282.315,895.4  L  282.315,717.5  L  82.505,717.5  z " />
<path transform="translate( 0, 0 )" style="stroke: hsl(188.3, 55%, 50%);" id="1546"  d=" M  82.505,717.5  L  82.505,895.4  C  82.505,923.014  104.891,945.4  132.505,945.4  L  232.315,945.4  C  259.929,945.4  282.315,923.014  282.315,895.4  L  282.315,717.5  L  82.505,717.5  z " />
<path transform="translate( 0, 0 )" style="stroke: hsl(215.2, 55%, 50%);" id="1767"  d=" M  82.505,717.5  L  82.505,895.4  C  82.505,923.014  104.891,945.4  132.505,945.4  L  232.315,945.4  C  259.929,945.4  282.315,923.014  282.315,895.4  L  282.315,717.5  L  82.505,717.5  z " />
<path transform="translate( 0, 0 )" style="stroke: hsl(242.1, 55%, 50%);" id="1988"  d=" M  82.505,717.5  L  82.505,895.4  C  82.505,923.014  104.891,945.4  132.505,945.4  L  232.315,945.4  C  259.929,945.4  282.315,923.014  282.315,895.4  L  282.315,717.5  L  82.505,717.5  z " />
<path transform="translate( 0, 0 )" style="stroke: hsl(269, 55%, 50%);" id="2209"  d=" M  82.505,717.5  L  82.505,895.4  C  82.505,923.014  104.891,945.4  132.505,945.4  L  232.315,945.4  C  259.929,945.4  282.315,923.014  282.315,895.4  L  282.315,717.5  L  82.505,717.5  z " />
<path transform="translate( 0, 0 )" style="stroke: hsl(295.9, 55%, 50%);" id="2430"  d=" M  82.505,717.5  L  82.505,895.4  C  82.505,923.014  104.891,945.4  132.505,945.4  L  232.315,945.4  C  259.929,945.4  282.315,923.014  282.315,895.4  L  282.315,717.5  L  82.505,717.5  z " />
    </g>
    <!-- End of group #pocket -->
    
    <!-- Start of group #pocketFlap -->
    <g id="pocketFlap"  transform=" translate(-76.88 -700.016)  translate(1680.677 437.858) " >
        <path class="hidden" id="12"  d=" M  81.88,705.016  L  282.94,705.016  L  282.94,787.468  L  81.88,787.468  z " />
<path transform="translate( 0, 0 )" style="stroke: hsl(26.9, 55%, 50%);" id="221"  d=" M  81.88,705.016  L  84.505,757.468  C  85.333,774.016  97.936,787.468  114.505,787.468  L  250.315,787.468  C  266.884,787.468  279.487,774.016  280.315,757.468  L  282.94,705.016  z " />
<path transform="translate( 0, 0 )" style="stroke: hsl(53.8, 55%, 50%);" id="442"  d=" M  81.88,705.016  L  84.505,757.468  C  85.333,774.016  97.936,787.468  114.505,787.468  L  250.315,787.468  C  266.884,787.468  279.487,774.016  280.315,757.468  L  282.94,705.016  z " />
<path transform="translate( 0, 0 )" style="stroke: hsl(80.7, 55%, 50%);" id="663"  d=" M  81.88,705.016  L  84.505,757.468  C  85.333,774.016  97.936,787.468  114.505,787.468  L  250.315,787.468  C  266.884,787.468  279.487,774.016  280.315,757.468  L  282.94,705.016  z " />
<path transform="translate( 0, 0 )" style="stroke: hsl(107.6, 55%, 50%);" id="884"  d=" M  81.88,705.016  L  84.505,757.468  C  85.333,774.016  97.936,787.468  114.505,787.468  L  250.315,787.468  C  266.884,787.468  279.487,774.016  280.315,757.468  L  282.94,705.016  z " />
<path transform="translate( 0, 0 )" style="stroke: hsl(134.5, 55%, 50%);" id="1105"  d=" M  81.88,705.016  L  84.505,757.468  C  85.333,774.016  97.936,787.468  114.505,787.468  L  250.315,787.468  C  266.884,787.468  279.487,774.016  280.315,757.468  L  282.94,705.016  z " />
<path transform="translate( 0, 0 )" style="stroke: hsl(161.4, 55%, 50%);" id="1326"  d=" M  81.88,705.016  L  84.505,757.468  C  85.333,774.016  97.936,787.468  114.505,787.468  L  250.315,787.468  C  266.884,787.468  279.487,774.016  280.315,757.468  L  282.94,705.016  z " />
<path transform="translate( 0, 0 )" style="stroke: hsl(188.3, 55%, 50%);" id="1547"  d=" M  81.88,705.016  L  84.505,757.468  C  85.333,774.016  97.936,787.468  114.505,787.468  L  250.315,787.468  C  266.884,787.468  279.487,774.016  280.315,757.468  L  282.94,705.016  z " />
<path transform="translate( 0, 0 )" style="stroke: hsl(215.2, 55%, 50%);" id="1768"  d=" M  81.88,705.016  L  84.505,757.468  C  85.333,774.016  97.936,787.468  114.505,787.468  L  250.315,787.468  C  266.884,787.468  279.487,774.016  280.315,757.468  L  282.94,705.016  z " />
<path transform="translate( 0, 0 )" style="stroke: hsl(242.1, 55%, 50%);" id="1989"  d=" M  81.88,705.016  L  84.505,757.468  C  85.333,774.016  97.936,787.468  114.505,787.468  L  250.315,787.468  C  266.884,787.468  279.487,774.016  280.315,757.468  L  282.94,705.016  z " />
<path transform="translate( 0, 0 )" style="stroke: hsl(269, 55%, 50%);" id="2210"  d=" M  81.88,705.016  L  84.505,757.468  C  85.333,774.016  97.936,787.468  114.505,787.468  L  250.315,787.468  C  266.884,787.468  279.487,774.016  280.315,757.468  L  282.94,705.016  z " />
<path transform="translate( 0, 0 )" style="stroke: hsl(295.9, 55%, 50%);" id="2431"  d=" M  81.88,705.016  L  84.505,757.468  C  85.333,774.016  97.936,787.468  114.505,787.468  L  250.315,787.468  C  266.884,787.468  279.487,774.016  280.315,757.468  L  282.94,705.016  z " />
    </g>
    <!-- End of group #pocketFlap -->
    
    <!-- Start of group #chestPocketWelt -->
    <g id="chestPocketWelt"  transform=" translate(5 5)  translate(1616.539 602.526) " >
        <path class="hidden" id="13"  d=" M  0,0  L  41.34,0  L  41.34,184.016  L  0,184.016  z " />
<path transform="translate( 0, 0 )" style="stroke: hsl(26.9, 55%, 50%);" id="222"  d=" M  0,0  L  41.34,0  L  41.34,184.016  L  0,184.016  L  0,0  z " />
<path transform="translate( 0, 0 )" style="stroke: hsl(53.8, 55%, 50%);" id="443"  d=" M  0,0  L  41.34,0  L  41.34,184.016  L  0,184.016  L  0,0  z " />
<path transform="translate( 0, 0 )" style="stroke: hsl(80.7, 55%, 50%);" id="664"  d=" M  0,0  L  41.34,0  L  41.34,184.016  L  0,184.016  L  0,0  z " />
<path transform="translate( 0, 0 )" style="stroke: hsl(107.6, 55%, 50%);" id="885"  d=" M  0,0  L  41.34,0  L  41.34,184.016  L  0,184.016  L  0,0  z " />
<path transform="translate( 0, 0 )" style="stroke: hsl(134.5, 55%, 50%);" id="1106"  d=" M  0,0  L  41.34,0  L  41.34,184.016  L  0,184.016  L  0,0  z " />
<path transform="translate( 0, 0 )" style="stroke: hsl(161.4, 55%, 50%);" id="1327"  d=" M  0,0  L  41.34,0  L  41.34,184.016  L  0,184.016  L  0,0  z " />
<path transform="translate( 0, 0 )" style="stroke: hsl(188.3, 55%, 50%);" id="1548"  d=" M  0,0  L  41.34,0  L  41.34,184.016  L  0,184.016  L  0,0  z " />
<path transform="translate( 0, 0 )" style="stroke: hsl(215.2, 55%, 50%);" id="1769"  d=" M  0,0  L  41.34,0  L  41.34,184.016  L  0,184.016  L  0,0  z " />
<path transform="translate( 0, 0 )" style="stroke: hsl(242.1, 55%, 50%);" id="1990"  d=" M  0,0  L  41.34,0  L  41.34,184.016  L  0,184.016  L  0,0  z " />
<path transform="translate( 0, 0 )" style="stroke: hsl(269, 55%, 50%);" id="2211"  d=" M  0,0  L  41.34,0  L  41.34,184.016  L  0,184.016  L  0,0  z " />
<path transform="translate( 0, 0 )" style="stroke: hsl(295.9, 55%, 50%);" id="2432"  d=" M  0,0  L  41.34,0  L  41.34,184.016  L  0,184.016  L  0,0  z " />
    </g>
    <!-- End of group #chestPocketWelt -->
    
    <!-- Start of group #sampler-front -->
    <g id="sampler-front" >
    </g>
    <!-- End of group #sampler-front -->
    
    <!-- Start of group #sampler-back -->
    <g id="sampler-back" >
    </g>
    <!-- End of group #sampler-back -->
    
    <!-- Start of group #sampler-tail -->
    <g id="sampler-tail" >
    </g>
    <!-- End of group #sampler-tail -->
    
    <!-- Start of group #sampler-topsleeve -->
    <g id="sampler-topsleeve" >
    </g>
    <!-- End of group #sampler-topsleeve -->
    
    <!-- Start of group #sampler-undersleeve -->
    <g id="sampler-undersleeve" >
    </g>
    <!-- End of group #sampler-undersleeve -->
    
    <!-- Start of group #sampler-belt -->
    <g id="sampler-belt" >
    </g>
    <!-- End of group #sampler-belt -->
    
    <!-- Start of group #sampler-collarStand -->
    <g id="sampler-collarStand" >
    </g>
    <!-- End of group #sampler-collarStand -->
    
    <!-- Start of group #sampler-collar -->
    <g id="sampler-collar" >
    </g>
    <!-- End of group #sampler-collar -->
    
    <!-- Start of group #sampler-cuffFacing -->
    <g id="sampler-cuffFacing" >
    </g>
    <!-- End of group #sampler-cuffFacing -->
    
    <!-- Start of group #sampler-pocket -->
    <g id="sampler-pocket" >
    </g>
    <!-- End of group #sampler-pocket -->
    
    <!-- Start of group #sampler-pocketFlap -->
    <g id="sampler-pocketFlap" >
    </g>
    <!-- End of group #sampler-pocketFlap -->
    
    <!-- Start of group #sampler-chestPocketWelt -->
    <g id="sampler-chestPocketWelt" >
    </g>
    <!-- End of group #sampler-chestPocketWelt -->
</g>
<!-- End of group #patternContainer -->

</svg>

