<?xml version="1.0" encoding="UTF-8" standalone="no"?>
<svg
    xmlns="http://www.w3.org/2000/svg"
    xmlns:svg="http://www.w3.org/2000/svg"
    xmlns:xlink="http://www.w3.org/1999/xlink"
    xmlns:freesewing="http://freesewing.org/namespaces/freesewing" viewBox ="0 0 1881 1494"
    width ="1881mm"
    height ="1494mm"
    freesewing:version ="1.5.0"
    freesewing:origin ="joost.core.freesewing.org" 
>

<style type="text/css">
    <![CDATA[
    path { fill: none; stroke: #000000; stroke-opacity:1; stroke-width: 0.5; stroke-miterlimit:4; stroke-dashoffset:0; stroke-linecap:round; stroke-linejoin:round; }
    path.hidden { fill: none; stroke: none; }]]>
</style>


<!-- Start of group #patternContainer -->
<g id="patternContainer" >
    
    <!-- Start of group #backBlock -->
    <g id="backBlock" >
    </g>
    <!-- End of group #backBlock -->
    
    <!-- Start of group #frontBlock -->
    <g id="frontBlock" >
    </g>
    <!-- End of group #frontBlock -->
    
    <!-- Start of group #sleeveBlock -->
    <g id="sleeveBlock" >
    </g>
    <!-- End of group #sleeveBlock -->
    
    <!-- Start of group #topsleeveBlock -->
    <g id="topsleeveBlock" >
    </g>
    <!-- End of group #topsleeveBlock -->
    
    <!-- Start of group #undersleeveBlock -->
    <g id="undersleeveBlock" >
    </g>
    <!-- End of group #undersleeveBlock -->
    
    <!-- Start of group #front -->
    <g id="front"  transform=" translate(87.505 5)  translate(0 0) " >
        <path class="hidden" id="2"  d=" M  -82.505,0  L  342.5,0  L  342.5,1483.9  L  -82.505,1483.9  z " />
<path transform="translate( 0, 0 )" style="stroke: hsl(26.9, 55%, 50%);" id="210"  d=" M  0,93  L  -77.505,93  C  -77.505,93  -82.505,142.12  -82.505,338.6  L  -82.505,1483.9  L  342.5,1483.9  L  342.5,1010  C  342.5,870  308.125,700.7  308.125,580  C  308.125,459.3  325,353.688  325,338.6  C  303.125,338.6  285.707,330.329  265.739,310.361  C  245.771,290.393  232.5,229.9  232.5,179.3  C  232.5,128.7  240.826,37.359  242.5,27.5  L  80.579,0  C  77.23,19.718  80.579,93  0,93  z " />
<path transform="translate( 0, 0 )" style="stroke: hsl(53.8, 55%, 50%);" id="431"  d=" M  0,93  L  -77.505,93  C  -77.505,93  -82.505,142.12  -82.505,338.6  L  -82.505,1483.9  L  342.5,1483.9  L  342.5,1010  C  342.5,870  308.125,700.7  308.125,580  C  308.125,459.3  325,353.688  325,338.6  C  303.125,338.6  285.707,330.329  265.739,310.361  C  245.771,290.393  232.5,229.9  232.5,179.3  C  232.5,128.7  240.826,37.359  242.5,27.5  L  80.579,0  C  77.23,19.718  80.579,93  0,93  z " />
<path transform="translate( 0, 0 )" style="stroke: hsl(80.7, 55%, 50%);" id="652"  d=" M  0,93  L  -77.505,93  C  -77.505,93  -82.505,142.12  -82.505,338.6  L  -82.505,1483.9  L  342.5,1483.9  L  342.5,1010  C  342.5,870  308.125,700.7  308.125,580  C  308.125,459.3  325,353.688  325,338.6  C  303.125,338.6  285.707,330.329  265.739,310.361  C  245.771,290.393  232.5,229.9  232.5,179.3  C  232.5,128.7  240.826,37.359  242.5,27.5  L  80.579,0  C  77.23,19.718  80.579,93  0,93  z " />
<path transform="translate( 0, 0 )" style="stroke: hsl(107.6, 55%, 50%);" id="873"  d=" M  0,93  L  -77.505,93  C  -77.505,93  -82.505,142.12  -82.505,338.6  L  -82.505,1483.9  L  342.5,1483.9  L  342.5,1010  C  342.5,870  308.125,700.7  308.125,580  C  308.125,459.3  325,353.688  325,338.6  C  303.125,338.6  285.707,330.329  265.739,310.361  C  245.771,290.393  232.5,229.9  232.5,179.3  C  232.5,128.7  240.826,37.359  242.5,27.5  L  80.579,0  C  77.23,19.718  80.579,93  0,93  z " />
<path transform="translate( 0, 0 )" style="stroke: hsl(134.5, 55%, 50%);" id="1094"  d=" M  0,93  L  -77.505,93  C  -77.505,93  -82.505,142.12  -82.505,338.6  L  -82.505,1483.9  L  342.5,1483.9  L  342.5,1010  C  342.5,870  308.125,700.7  308.125,580  C  308.125,459.3  325,353.688  325,338.6  C  303.125,338.6  285.707,330.329  265.739,310.361  C  245.771,290.393  232.5,229.9  232.5,179.3  C  232.5,128.7  240.826,37.359  242.5,27.5  L  80.579,0  C  77.23,19.718  80.579,93  0,93  z " />
<path transform="translate( 0, 0 )" style="stroke: hsl(161.4, 55%, 50%);" id="1315"  d=" M  0,93  L  -77.505,93  C  -77.505,93  -82.505,142.12  -82.505,338.6  L  -82.505,1483.9  L  342.5,1483.9  L  342.5,1010  C  342.5,870  308.125,700.7  308.125,580  C  308.125,459.3  325,353.688  325,338.6  C  303.125,338.6  285.707,330.329  265.739,310.361  C  245.771,290.393  232.5,229.9  232.5,179.3  C  232.5,128.7  240.826,37.359  242.5,27.5  L  80.579,0  C  77.23,19.718  80.579,93  0,93  z " />
<path transform="translate( 0, 0 )" style="stroke: hsl(188.3, 55%, 50%);" id="1536"  d=" M  0,93  L  -77.505,93  C  -77.505,93  -82.505,142.12  -82.505,338.6  L  -82.505,1483.9  L  342.5,1483.9  L  342.5,1010  C  342.5,870  308.125,700.7  308.125,580  C  308.125,459.3  325,353.688  325,338.6  C  303.125,338.6  285.707,330.329  265.739,310.361  C  245.771,290.393  232.5,229.9  232.5,179.3  C  232.5,128.7  240.826,37.359  242.5,27.5  L  80.579,0  C  77.23,19.718  80.579,93  0,93  z " />
<path transform="translate( 0, 0 )" style="stroke: hsl(215.2, 55%, 50%);" id="1757"  d=" M  0,93  L  -77.505,93  C  -77.505,93  -82.505,142.12  -82.505,338.6  L  -82.505,1483.9  L  342.5,1483.9  L  342.5,1010  C  342.5,870  308.125,700.7  308.125,580  C  308.125,459.3  325,353.688  325,338.6  C  303.125,338.6  285.707,330.329  265.739,310.361  C  245.771,290.393  232.5,229.9  232.5,179.3  C  232.5,128.7  240.826,37.359  242.5,27.5  L  80.579,0  C  77.23,19.718  80.579,93  0,93  z " />
<path transform="translate( 0, 0 )" style="stroke: hsl(242.1, 55%, 50%);" id="1978"  d=" M  0,93  L  -77.505,93  C  -77.505,93  -82.505,142.12  -82.505,338.6  L  -82.505,1483.9  L  342.5,1483.9  L  342.5,1010  C  342.5,870  308.125,700.7  308.125,580  C  308.125,459.3  325,353.688  325,338.6  C  303.125,338.6  285.707,330.329  265.739,310.361  C  245.771,290.393  232.5,229.9  232.5,179.3  C  232.5,128.7  240.826,37.359  242.5,27.5  L  80.579,0  C  77.23,19.718  80.579,93  0,93  z " />
<path transform="translate( 0, 0 )" style="stroke: hsl(269, 55%, 50%);" id="2199"  d=" M  0,93  L  -77.505,93  C  -77.505,93  -82.505,142.12  -82.505,338.6  L  -82.505,1483.9  L  342.5,1483.9  L  342.5,1010  C  342.5,870  308.125,700.7  308.125,580  C  308.125,459.3  325,353.688  325,338.6  C  303.125,338.6  285.707,330.329  265.739,310.361  C  245.771,290.393  232.5,229.9  232.5,179.3  C  232.5,128.7  240.826,37.359  242.5,27.5  L  80.579,0  C  77.23,19.718  80.579,93  0,93  z " />
<path transform="translate( 0, 0 )" style="stroke: hsl(295.9, 55%, 50%);" id="2420"  d=" M  0,93  L  -77.505,93  C  -77.505,93  -82.505,142.12  -82.505,338.6  L  -82.505,1483.9  L  342.5,1483.9  L  342.5,1010  C  342.5,870  308.125,700.7  308.125,580  C  308.125,459.3  325,353.688  325,338.6  C  303.125,338.6  285.707,330.329  265.739,310.361  C  245.771,290.393  232.5,229.9  232.5,179.3  C  232.5,128.7  240.826,37.359  242.5,27.5  L  80.579,0  C  77.23,19.718  80.579,93  0,93  z " />
    </g>
    <!-- End of group #front -->
    
    <!-- Start of group #back -->
    <g id="back"  transform=" translate(55.88 5)  translate(999.481 0) " >
        <path class="hidden" id="3"  d=" M  -50.88,0  L  325,0  L  325,545  L  -50.88,545  z " />
<path transform="translate( 0, 0 )" style="stroke: hsl(26.9, 55%, 50%);" id="211"  d=" M  0,20  L  0,179.3  L  -50.88,179.3  L  -50.88,545  L  106.375,545  C  106.375,441.8  123.25,338.6  123.25,338.6  C  123.25,338.6  140.125,441.8  140.125,545  L  308.125,545  C  308.125,459.3  325,353.688  325,338.6  C  303.125,338.6  285.707,330.329  265.739,310.361  C  245.771,290.393  237.5,229.9  237.5,179.3  C  237.5,128.7  240.826,37.359  242.5,27.5  L  80.579,0  C  77.23,19.718  0,20  0,20  z " />
<path transform="translate( 0, 0 )" style="stroke: hsl(53.8, 55%, 50%);" id="432"  d=" M  0,20  L  0,179.3  L  -50.88,179.3  L  -50.88,545  L  106.375,545  C  106.375,441.8  123.25,338.6  123.25,338.6  C  123.25,338.6  140.125,441.8  140.125,545  L  308.125,545  C  308.125,459.3  325,353.688  325,338.6  C  303.125,338.6  285.707,330.329  265.739,310.361  C  245.771,290.393  237.5,229.9  237.5,179.3  C  237.5,128.7  240.826,37.359  242.5,27.5  L  80.579,0  C  77.23,19.718  0,20  0,20  z " />
<path transform="translate( 0, 0 )" style="stroke: hsl(80.7, 55%, 50%);" id="653"  d=" M  0,20  L  0,179.3  L  -50.88,179.3  L  -50.88,545  L  106.375,545  C  106.375,441.8  123.25,338.6  123.25,338.6  C  123.25,338.6  140.125,441.8  140.125,545  L  308.125,545  C  308.125,459.3  325,353.688  325,338.6  C  303.125,338.6  285.707,330.329  265.739,310.361  C  245.771,290.393  237.5,229.9  237.5,179.3  C  237.5,128.7  240.826,37.359  242.5,27.5  L  80.579,0  C  77.23,19.718  0,20  0,20  z " />
<path transform="translate( 0, 0 )" style="stroke: hsl(107.6, 55%, 50%);" id="874"  d=" M  0,20  L  0,179.3  L  -50.88,179.3  L  -50.88,545  L  106.375,545  C  106.375,441.8  123.25,338.6  123.25,338.6  C  123.25,338.6  140.125,441.8  140.125,545  L  308.125,545  C  308.125,459.3  325,353.688  325,338.6  C  303.125,338.6  285.707,330.329  265.739,310.361  C  245.771,290.393  237.5,229.9  237.5,179.3  C  237.5,128.7  240.826,37.359  242.5,27.5  L  80.579,0  C  77.23,19.718  0,20  0,20  z " />
<path transform="translate( 0, 0 )" style="stroke: hsl(134.5, 55%, 50%);" id="1095"  d=" M  0,20  L  0,179.3  L  -50.88,179.3  L  -50.88,545  L  106.375,545  C  106.375,441.8  123.25,338.6  123.25,338.6  C  123.25,338.6  140.125,441.8  140.125,545  L  308.125,545  C  308.125,459.3  325,353.688  325,338.6  C  303.125,338.6  285.707,330.329  265.739,310.361  C  245.771,290.393  237.5,229.9  237.5,179.3  C  237.5,128.7  240.826,37.359  242.5,27.5  L  80.579,0  C  77.23,19.718  0,20  0,20  z " />
<path transform="translate( 0, 0 )" style="stroke: hsl(161.4, 55%, 50%);" id="1316"  d=" M  0,20  L  0,179.3  L  -50.88,179.3  L  -50.88,545  L  106.375,545  C  106.375,441.8  123.25,338.6  123.25,338.6  C  123.25,338.6  140.125,441.8  140.125,545  L  308.125,545  C  308.125,459.3  325,353.688  325,338.6  C  303.125,338.6  285.707,330.329  265.739,310.361  C  245.771,290.393  237.5,229.9  237.5,179.3  C  237.5,128.7  240.826,37.359  242.5,27.5  L  80.579,0  C  77.23,19.718  0,20  0,20  z " />
<path transform="translate( 0, 0 )" style="stroke: hsl(188.3, 55%, 50%);" id="1537"  d=" M  0,20  L  0,179.3  L  -50.88,179.3  L  -50.88,545  L  106.375,545  C  106.375,441.8  123.25,338.6  123.25,338.6  C  123.25,338.6  140.125,441.8  140.125,545  L  308.125,545  C  308.125,459.3  325,353.688  325,338.6  C  303.125,338.6  285.707,330.329  265.739,310.361  C  245.771,290.393  237.5,229.9  237.5,179.3  C  237.5,128.7  240.826,37.359  242.5,27.5  L  80.579,0  C  77.23,19.718  0,20  0,20  z " />
<path transform="translate( 0, 0 )" style="stroke: hsl(215.2, 55%, 50%);" id="1758"  d=" M  0,20  L  0,179.3  L  -50.88,179.3  L  -50.88,545  L  106.375,545  C  106.375,441.8  123.25,338.6  123.25,338.6  C  123.25,338.6  140.125,441.8  140.125,545  L  308.125,545  C  308.125,459.3  325,353.688  325,338.6  C  303.125,338.6  285.707,330.329  265.739,310.361  C  245.771,290.393  237.5,229.9  237.5,179.3  C  237.5,128.7  240.826,37.359  242.5,27.5  L  80.579,0  C  77.23,19.718  0,20  0,20  z " />
<path transform="translate( 0, 0 )" style="stroke: hsl(242.1, 55%, 50%);" id="1979"  d=" M  0,20  L  0,179.3  L  -50.88,179.3  L  -50.88,545  L  106.375,545  C  106.375,441.8  123.25,338.6  123.25,338.6  C  123.25,338.6  140.125,441.8  140.125,545  L  308.125,545  C  308.125,459.3  325,353.688  325,338.6  C  303.125,338.6  285.707,330.329  265.739,310.361  C  245.771,290.393  237.5,229.9  237.5,179.3  C  237.5,128.7  240.826,37.359  242.5,27.5  L  80.579,0  C  77.23,19.718  0,20  0,20  z " />
<path transform="translate( 0, 0 )" style="stroke: hsl(269, 55%, 50%);" id="2200"  d=" M  0,20  L  0,179.3  L  -50.88,179.3  L  -50.88,545  L  106.375,545  C  106.375,441.8  123.25,338.6  123.25,338.6  C  123.25,338.6  140.125,441.8  140.125,545  L  308.125,545  C  308.125,459.3  325,353.688  325,338.6  C  303.125,338.6  285.707,330.329  265.739,310.361  C  245.771,290.393  237.5,229.9  237.5,179.3  C  237.5,128.7  240.826,37.359  242.5,27.5  L  80.579,0  C  77.23,19.718  0,20  0,20  z " />
<path transform="translate( 0, 0 )" style="stroke: hsl(295.9, 55%, 50%);" id="2421"  d=" M  0,20  L  0,179.3  L  -50.88,179.3  L  -50.88,545  L  106.375,545  C  106.375,441.8  123.25,338.6  123.25,338.6  C  123.25,338.6  140.125,441.8  140.125,545  L  308.125,545  C  308.125,459.3  325,353.688  325,338.6  C  303.125,338.6  285.707,330.329  265.739,310.361  C  245.771,290.393  237.5,229.9  237.5,179.3  C  237.5,128.7  240.826,37.359  242.5,27.5  L  80.579,0  C  77.23,19.718  0,20  0,20  z " />
    </g>
    <!-- End of group #back -->
    
    <!-- Start of group #tail -->
    <g id="tail"  transform=" translate(216.296 5)  translate(1385.361 0) " >
        <path class="hidden" id="4"  d=" M  -211.296,0  L  274.375,0  L  274.375,130  L  -211.296,130  z " />
<path transform="translate( 0, 0 )" style="stroke: hsl(26.9, 55%, 50%);" id="212"  d=" M  -211.296,50  -211.296,0  L  0,0  L  274.375,0  L  274.375,50 " />
<path transform="translate( 0, 0 )" style="stroke: hsl(26.9, 55%, 50%);" id="213"  d=" M  -211.296,80  -211.296,130  L  -0,130  L  274.375,130  L  274.375,80 " />
<path transform="translate( 0, 0 )" style="stroke: hsl(53.8, 55%, 50%);" id="433"  d=" M  -211.296,50  -211.296,0  L  0,0  L  274.375,0  L  274.375,50 " />
<path transform="translate( 0, 0 )" style="stroke: hsl(53.8, 55%, 50%);" id="434"  d=" M  -211.296,80  -211.296,130  L  -0,130  L  274.375,130  L  274.375,80 " />
<path transform="translate( 0, 0 )" style="stroke: hsl(80.7, 55%, 50%);" id="654"  d=" M  -211.296,50  -211.296,0  L  0,0  L  274.375,0  L  274.375,50 " />
<path transform="translate( 0, 0 )" style="stroke: hsl(80.7, 55%, 50%);" id="655"  d=" M  -211.296,80  -211.296,130  L  -0,130  L  274.375,130  L  274.375,80 " />
<path transform="translate( 0, 0 )" style="stroke: hsl(107.6, 55%, 50%);" id="875"  d=" M  -211.296,50  -211.296,0  L  0,0  L  274.375,0  L  274.375,50 " />
<path transform="translate( 0, 0 )" style="stroke: hsl(107.6, 55%, 50%);" id="876"  d=" M  -211.296,80  -211.296,130  L  -0,130  L  274.375,130  L  274.375,80 " />
<path transform="translate( 0, 0 )" style="stroke: hsl(134.5, 55%, 50%);" id="1096"  d=" M  -211.296,50  -211.296,0  L  0,0  L  274.375,0  L  274.375,50 " />
<path transform="translate( 0, 0 )" style="stroke: hsl(134.5, 55%, 50%);" id="1097"  d=" M  -211.296,80  -211.296,130  L  -0,130  L  274.375,130  L  274.375,80 " />
<path transform="translate( 0, 0 )" style="stroke: hsl(161.4, 55%, 50%);" id="1317"  d=" M  -211.296,50  -211.296,0  L  0,0  L  274.375,0  L  274.375,50 " />
<path transform="translate( 0, 0 )" style="stroke: hsl(161.4, 55%, 50%);" id="1318"  d=" M  -211.296,80  -211.296,130  L  -0,130  L  274.375,130  L  274.375,80 " />
<path transform="translate( 0, 0 )" style="stroke: hsl(188.3, 55%, 50%);" id="1538"  d=" M  -211.296,50  -211.296,0  L  0,0  L  274.375,0  L  274.375,50 " />
<path transform="translate( 0, 0 )" style="stroke: hsl(188.3, 55%, 50%);" id="1539"  d=" M  -211.296,80  -211.296,130  L  -0,130  L  274.375,130  L  274.375,80 " />
<path transform="translate( 0, 0 )" style="stroke: hsl(215.2, 55%, 50%);" id="1759"  d=" M  -211.296,50  -211.296,0  L  0,0  L  274.375,0  L  274.375,50 " />
<path transform="translate( 0, 0 )" style="stroke: hsl(215.2, 55%, 50%);" id="1760"  d=" M  -211.296,80  -211.296,130  L  -0,130  L  274.375,130  L  274.375,80 " />
<path transform="translate( 0, 0 )" style="stroke: hsl(242.1, 55%, 50%);" id="1980"  d=" M  -211.296,50  -211.296,0  L  0,0  L  274.375,0  L  274.375,50 " />
<path transform="translate( 0, 0 )" style="stroke: hsl(242.1, 55%, 50%);" id="1981"  d=" M  -211.296,80  -211.296,130  L  -0,130  L  274.375,130  L  274.375,80 " />
<path transform="translate( 0, 0 )" style="stroke: hsl(269, 55%, 50%);" id="2201"  d=" M  -211.296,50  -211.296,0  L  0,0  L  274.375,0  L  274.375,50 " />
<path transform="translate( 0, 0 )" style="stroke: hsl(269, 55%, 50%);" id="2202"  d=" M  -211.296,80  -211.296,130  L  -0,130  L  274.375,130  L  274.375,80 " />
<path transform="translate( 0, 0 )" style="stroke: hsl(295.9, 55%, 50%);" id="2422"  d=" M  -211.296,50  -211.296,0  L  0,0  L  274.375,0  L  274.375,50 " />
<path transform="translate( 0, 0 )" style="stroke: hsl(295.9, 55%, 50%);" id="2423"  d=" M  -211.296,80  -211.296,130  L  -0,130  L  274.375,130  L  274.375,80 " />
    </g>
    <!-- End of group #tail -->
    
    <!-- Start of group #topsleeve -->
    <g id="topsleeve"  transform=" translate(169.725 5)  translate(435.005 0) " >
        <path class="hidden" id="5"  d=" M  -164.725,0  L  146.422,0  L  146.422,816.432  L  -164.725,816.432  z " />
<path transform="translate( 0, 0 )" style="stroke: hsl(26.9, 55%, 50%);" id="214"  d=" M  131.78,380  C  140.773,329  146.422,246  146.422,184.5  C  146.422,123  131.78,61.5  131.78,61.5  C  131.78,61.5  82.363,0  0,0  C  -82.363,0  -120.798,61.5  -131.78,110.7  C  -142.762,159.9  -148.253,184.5  -164.725,184.5  C  -164.725,184.5  -152.833,313.537  -146.422,380  L  -114.369,712.318  L  -118.388,809.735  L  43.456,816.412  C  56.907,816.967  68.26,806.514  68.815,793.063  L  71.829,720  z " />
<path transform="translate( 0, 0 )" style="stroke: hsl(53.8, 55%, 50%);" id="435"  d=" M  131.78,380  C  140.773,329  146.422,251.467  146.422,188.6  C  146.422,125.733  131.78,62.867  131.78,62.867  C  131.78,62.867  82.363,0  0,0  C  -82.363,0  -120.798,62.867  -131.78,113.16  C  -142.762,163.453  -148.253,188.6  -164.725,188.6  C  -164.725,188.6  -152.833,313.537  -146.422,380  L  -114.369,712.318  L  -118.388,809.735  L  43.456,816.412  C  56.907,816.967  68.26,806.514  68.815,793.063  L  71.829,720  z " />
<path transform="translate( 0, 0 )" style="stroke: hsl(80.7, 55%, 50%);" id="656"  d=" M  131.78,380  C  140.773,329  146.422,256.934  146.422,192.7  C  146.422,128.466  131.78,64.233  131.78,64.233  C  131.78,64.233  82.363,0  0,0  C  -82.363,0  -120.798,64.233  -131.78,115.62  C  -142.762,167.007  -148.253,192.7  -164.725,192.7  C  -164.725,192.7  -152.833,313.537  -146.422,380  L  -114.369,712.318  L  -118.388,809.735  L  43.456,816.412  C  56.907,816.967  68.26,806.514  68.815,793.063  L  71.829,720  z " />
<path transform="translate( 0, 0 )" style="stroke: hsl(107.6, 55%, 50%);" id="877"  d=" M  131.78,380  C  140.773,329  146.422,262.4  146.422,196.8  C  146.422,131.2  131.78,65.6  131.78,65.6  C  131.78,65.6  82.363,0  0,0  C  -82.363,0  -120.798,65.6  -131.78,118.08  C  -142.762,170.56  -148.253,196.8  -164.725,196.8  C  -164.725,196.8  -152.833,313.537  -146.422,380  L  -114.369,712.318  L  -118.388,809.735  L  43.456,816.412  C  56.907,816.967  68.26,806.514  68.815,793.063  L  71.829,720  z " />
<path transform="translate( 0, 0 )" style="stroke: hsl(134.5, 55%, 50%);" id="1098"  d=" M  131.78,380  C  140.773,329  146.422,267.867  146.422,200.9  C  146.422,133.933  131.78,66.967  131.78,66.967  C  131.78,66.967  82.363,0  0,0  C  -82.363,0  -120.798,66.967  -131.78,120.54  C  -142.762,174.113  -148.253,200.9  -164.725,200.9  C  -164.725,200.9  -152.833,313.537  -146.422,380  L  -114.369,712.318  L  -118.388,809.735  L  43.456,816.412  C  56.907,816.967  68.26,806.514  68.815,793.063  L  71.829,720  z " />
<path transform="translate( 0, 0 )" style="stroke: hsl(161.4, 55%, 50%);" id="1319"  d=" M  131.78,380  C  140.773,329  146.422,273.334  146.422,205  C  146.422,136.666  131.78,68.333  131.78,68.333  C  131.78,68.333  82.363,0  0,0  C  -82.363,0  -120.798,68.333  -131.78,123  C  -142.762,177.667  -148.253,205  -164.725,205  C  -164.725,205  -152.833,313.537  -146.422,380  L  -114.369,712.318  L  -118.388,809.735  L  43.456,816.412  C  56.907,816.967  68.26,806.514  68.815,793.063  L  71.829,720  z " />
<path transform="translate( 0, 0 )" style="stroke: hsl(188.3, 55%, 50%);" id="1540"  d=" M  131.78,380  C  140.773,329  146.422,278.8  146.422,209.1  C  146.422,139.4  131.78,69.7  131.78,69.7  C  131.78,69.7  82.363,0  0,0  C  -82.363,0  -120.798,69.7  -131.78,125.46  C  -142.762,181.22  -148.253,209.1  -164.725,209.1  C  -164.725,209.1  -152.833,313.537  -146.422,380  L  -114.369,712.318  L  -118.388,809.735  L  43.456,816.412  C  56.907,816.967  68.26,806.514  68.815,793.063  L  71.829,720  z " />
<path transform="translate( 0, 0 )" style="stroke: hsl(215.2, 55%, 50%);" id="1761"  d=" M  131.78,380  C  140.773,329  146.422,284.267  146.422,213.2  C  146.422,142.133  131.78,71.067  131.78,71.067  C  131.78,71.067  82.363,0  0,0  C  -82.363,0  -120.798,71.067  -131.78,127.92  C  -142.762,184.773  -148.253,213.2  -164.725,213.2  C  -164.725,213.2  -152.833,313.537  -146.422,380  L  -114.369,712.318  L  -118.388,809.735  L  43.456,816.412  C  56.907,816.967  68.26,806.514  68.815,793.063  L  71.829,720  z " />
<path transform="translate( 0, 0 )" style="stroke: hsl(242.1, 55%, 50%);" id="1982"  d=" M  131.78,380  C  140.773,329  146.422,289.734  146.422,217.3  C  146.422,144.866  131.78,72.433  131.78,72.433  C  131.78,72.433  82.363,0  0,0  C  -82.363,0  -120.798,72.433  -131.78,130.38  C  -142.762,188.327  -148.253,217.3  -164.725,217.3  C  -164.725,217.3  -152.833,313.537  -146.422,380  L  -114.369,712.318  L  -118.388,809.735  L  43.456,816.412  C  56.907,816.967  68.26,806.514  68.815,793.063  L  71.829,720  z " />
<path transform="translate( 0, 0 )" style="stroke: hsl(269, 55%, 50%);" id="2203"  d=" M  131.78,380  C  140.773,329  146.422,295.2  146.422,221.4  C  146.422,147.6  131.78,73.8  131.78,73.8  C  131.78,73.8  82.363,0  0,0  C  -82.363,0  -120.798,73.8  -131.78,132.84  C  -142.762,191.88  -148.253,221.4  -164.725,221.4  C  -164.725,221.4  -152.833,313.537  -146.422,380  L  -114.369,712.318  L  -118.388,809.735  L  43.456,816.412  C  56.907,816.967  68.26,806.514  68.815,793.063  L  71.829,720  z " />
<path transform="translate( 0, 0 )" style="stroke: hsl(295.9, 55%, 50%);" id="2424"  d=" M  131.78,380  C  140.773,329  146.422,300.667  146.422,225.5  C  146.422,150.333  131.78,75.167  131.78,75.167  C  131.78,75.167  82.363,0  0,0  C  -82.363,0  -120.798,75.167  -131.78,135.3  C  -142.762,195.433  -148.253,225.5  -164.725,225.5  C  -164.725,225.5  -152.833,313.537  -146.422,380  L  -114.369,712.318  L  -118.388,809.735  L  43.456,816.412  C  56.907,816.967  68.26,806.514  68.815,793.063  L  71.829,720  z " />
    </g>
    <!-- End of group #topsleeve -->
    
    <!-- Start of group #undersleeve -->
    <g id="undersleeve"  transform=" translate(103.835 -56.5)  translate(756.152 0) " >
        <path class="hidden" id="6"  d=" M  -98.835,61.5  L  134.494,61.5  L  134.494,815.736  L  -98.835,815.736  z " />
<path transform="translate( 0, 0 )" style="stroke: hsl(26.9, 55%, 50%);" id="215"  d=" M  131.78,380  C  140.773,329  123.466,245.674  117.138,184.5  C  110.81,123.326  98.835,61.5  98.835,61.5  C  79.668,121.487  -16.473,184.5  -65.89,184.5  L  -98.835,184.5  C  -98.835,184.5  -79.941,313.76  -76.872,380  L  -61.525,711.196  L  -67.948,808.484  L  41.084,815.682  C  54.517,816.569  66.125,806.399  67.012,792.966  L  71.829,720  z " />
<path transform="translate( 0, 0 )" style="stroke: hsl(53.8, 55%, 50%);" id="436"  d=" M  131.78,380  C  140.773,329  123.634,251.13  117.138,188.6  C  110.642,126.07  98.835,62.867  98.835,62.867  C  79.272,124.115  -16.473,188.6  -65.89,188.6  L  -98.835,188.6  C  -98.835,188.6  -79.941,313.76  -76.872,380  L  -61.525,711.196  L  -67.948,808.484  L  41.084,815.682  C  54.517,816.569  66.125,806.399  67.012,792.966  L  71.829,720  z " />
<path transform="translate( 0, 0 )" style="stroke: hsl(80.7, 55%, 50%);" id="657"  d=" M  131.78,380  C  140.773,329  123.804,256.587  117.138,192.7  C  110.472,128.813  98.835,64.233  98.835,64.233  C  78.882,126.746  -16.473,192.7  -65.89,192.7  L  -98.835,192.7  C  -98.835,192.7  -79.941,313.76  -76.872,380  L  -61.525,711.196  L  -67.948,808.484  L  41.084,815.682  C  54.517,816.569  66.125,806.399  67.012,792.966  L  71.829,720  z " />
<path transform="translate( 0, 0 )" style="stroke: hsl(107.6, 55%, 50%);" id="878"  d=" M  131.78,380  C  140.773,329  123.975,262.043  117.138,196.8  C  110.301,131.557  98.835,65.6  98.835,65.6  C  78.497,129.382  -16.473,196.8  -65.89,196.8  L  -98.835,196.8  C  -98.835,196.8  -79.941,313.76  -76.872,380  L  -61.525,711.196  L  -67.948,808.484  L  41.084,815.682  C  54.517,816.569  66.125,806.399  67.012,792.966  L  71.829,720  z " />
<path transform="translate( 0, 0 )" style="stroke: hsl(134.5, 55%, 50%);" id="1099"  d=" M  131.78,380  C  140.773,329  124.147,267.499  117.138,200.9  C  110.129,134.301  98.835,66.967  98.835,66.967  C  78.133,132.027  -16.473,200.9  -65.89,200.9  L  -98.835,200.9  C  -98.835,200.9  -79.941,313.76  -76.872,380  L  -61.525,711.196  L  -67.948,808.484  L  41.084,815.682  C  54.517,816.569  66.125,806.399  67.012,792.966  L  71.829,720  z " />
<path transform="translate( 0, 0 )" style="stroke: hsl(161.4, 55%, 50%);" id="1320"  d=" M  131.78,380  C  140.773,329  124.321,272.955  117.138,205  C  109.955,137.045  98.835,68.333  98.835,68.333  C  77.768,134.674  -16.473,205  -65.89,205  L  -98.835,205  C  -98.835,205  -79.941,313.76  -76.872,380  L  -61.525,711.196  L  -67.948,808.484  L  41.084,815.682  C  54.517,816.569  66.125,806.399  67.012,792.966  L  71.829,720  z " />
<path transform="translate( 0, 0 )" style="stroke: hsl(188.3, 55%, 50%);" id="1541"  d=" M  131.78,380  C  140.773,329  124.497,278.41  117.138,209.1  C  109.779,139.79  98.835,69.7  98.835,69.7  C  77.402,137.324  -16.473,209.1  -65.89,209.1  L  -98.835,209.1  C  -98.835,209.1  -79.941,313.76  -76.872,380  L  -61.525,711.196  L  -67.948,808.484  L  41.084,815.682  C  54.517,816.569  66.125,806.399  67.012,792.966  L  71.829,720  z " />
<path transform="translate( 0, 0 )" style="stroke: hsl(215.2, 55%, 50%);" id="1762"  d=" M  131.78,380  C  140.773,329  124.674,283.866  117.138,213.2  C  109.602,142.534  98.835,71.067  98.835,71.067  C  77.065,139.984  -16.473,213.2  -65.89,213.2  L  -98.835,213.2  C  -98.835,213.2  -79.941,313.76  -76.872,380  L  -61.525,711.196  L  -67.948,808.484  L  41.084,815.682  C  54.517,816.569  66.125,806.399  67.012,792.966  L  71.829,720  z " />
<path transform="translate( 0, 0 )" style="stroke: hsl(242.1, 55%, 50%);" id="1983"  d=" M  131.78,380  C  140.773,329  124.853,289.322  117.138,217.3  C  109.423,145.278  98.835,72.433  98.835,72.433  C  76.713,142.641  -16.473,217.3  -65.89,217.3  L  -98.835,217.3  C  -98.835,217.3  -79.941,313.76  -76.872,380  L  -61.525,711.196  L  -67.948,808.484  L  41.084,815.682  C  54.517,816.569  66.125,806.399  67.012,792.966  L  71.829,720  z " />
<path transform="translate( 0, 0 )" style="stroke: hsl(269, 55%, 50%);" id="2204"  d=" M  131.78,380  C  140.773,329  125.033,294.777  117.138,221.4  C  109.243,148.023  98.835,73.8  98.835,73.8  C  76.356,145.299  -16.473,221.4  -65.89,221.4  L  -98.835,221.4  C  -98.835,221.4  -79.941,313.76  -76.872,380  L  -61.525,711.196  L  -67.948,808.484  L  41.084,815.682  C  54.517,816.569  66.125,806.399  67.012,792.966  L  71.829,720  z " />
<path transform="translate( 0, 0 )" style="stroke: hsl(295.9, 55%, 50%);" id="2425"  d=" M  131.78,380  C  140.773,329  125.215,300.232  117.138,225.5  C  109.061,150.768  98.835,75.167  98.835,75.167  C  76.023,147.966  -16.473,225.5  -65.89,225.5  L  -98.835,225.5  C  -98.835,225.5  -79.941,313.76  -76.872,380  L  -61.525,711.196  L  -67.948,808.484  L  41.084,815.682  C  54.517,816.569  66.125,806.399  67.012,792.966  L  71.829,720  z " />
    </g>
    <!-- End of group #undersleeve -->
    
    <!-- Start of group #belt -->
    <g id="belt"  transform=" translate(5 5)  translate(1385.361 140) " >
        <path class="hidden" id="7"  d=" M  0,0  L  400.023,0  L  400.023,70  L  0,70  z " />
<path transform="translate( 0, 0 )" style="stroke: hsl(26.9, 55%, 50%);" id="216"  d=" M  400.023,0  L  10,0  C  4.477,0  0,4.477  0,10  L  0,60  C  0,65.523  4.477,70  10,70  L  400.023,70  L  400.023,0  z " />
<path transform="translate( 0, 0 )" style="stroke: hsl(53.8, 55%, 50%);" id="437"  d=" M  400.023,0  L  10,0  C  4.477,0  0,4.477  0,10  L  0,60  C  0,65.523  4.477,70  10,70  L  400.023,70  L  400.023,0  z " />
<path transform="translate( 0, 0 )" style="stroke: hsl(80.7, 55%, 50%);" id="658"  d=" M  400.023,0  L  10,0  C  4.477,0  0,4.477  0,10  L  0,60  C  0,65.523  4.477,70  10,70  L  400.023,70  L  400.023,0  z " />
<path transform="translate( 0, 0 )" style="stroke: hsl(107.6, 55%, 50%);" id="879"  d=" M  400.023,0  L  10,0  C  4.477,0  0,4.477  0,10  L  0,60  C  0,65.523  4.477,70  10,70  L  400.023,70  L  400.023,0  z " />
<path transform="translate( 0, 0 )" style="stroke: hsl(134.5, 55%, 50%);" id="1100"  d=" M  400.023,0  L  10,0  C  4.477,0  0,4.477  0,10  L  0,60  C  0,65.523  4.477,70  10,70  L  400.023,70  L  400.023,0  z " />
<path transform="translate( 0, 0 )" style="stroke: hsl(161.4, 55%, 50%);" id="1321"  d=" M  400.023,0  L  10,0  C  4.477,0  0,4.477  0,10  L  0,60  C  0,65.523  4.477,70  10,70  L  400.023,70  L  400.023,0  z " />
<path transform="translate( 0, 0 )" style="stroke: hsl(188.3, 55%, 50%);" id="1542"  d=" M  400.023,0  L  10,0  C  4.477,0  0,4.477  0,10  L  0,60  C  0,65.523  4.477,70  10,70  L  400.023,70  L  400.023,0  z " />
<path transform="translate( 0, 0 )" style="stroke: hsl(215.2, 55%, 50%);" id="1763"  d=" M  400.023,0  L  10,0  C  4.477,0  0,4.477  0,10  L  0,60  C  0,65.523  4.477,70  10,70  L  400.023,70  L  400.023,0  z " />
<path transform="translate( 0, 0 )" style="stroke: hsl(242.1, 55%, 50%);" id="1984"  d=" M  400.023,0  L  10,0  C  4.477,0  0,4.477  0,10  L  0,60  C  0,65.523  4.477,70  10,70  L  400.023,70  L  400.023,0  z " />
<path transform="translate( 0, 0 )" style="stroke: hsl(269, 55%, 50%);" id="2205"  d=" M  400.023,0  L  10,0  C  4.477,0  0,4.477  0,10  L  0,60  C  0,65.523  4.477,70  10,70  L  400.023,70  L  400.023,0  z " />
<path transform="translate( 0, 0 )" style="stroke: hsl(295.9, 55%, 50%);" id="2426"  d=" M  400.023,0  L  10,0  C  4.477,0  0,4.477  0,10  L  0,60  C  0,65.523  4.477,70  10,70  L  400.023,70  L  400.023,0  z " />
    </g>
    <!-- End of group #belt -->
    
    <!-- Start of group #collarStand -->
    <g id="collarStand"  transform=" translate(176.885 -71.76)  translate(1385.361 220) " >
        <path class="hidden" id="8"  d=" M  -171.885,76.76  L  171.885,76.76  L  171.885,128.368  L  -171.885,128.368  z " />
<path transform="translate( 0, 0 )" style="stroke: hsl(26.9, 55%, 50%);" id="217"  d=" M  -171.885,128.368  C  -171.885,128.368  -154.697,76.76  0,76.76  C  154.697,76.76  171.885,128.368  171.885,128.368  C  144.745,128.368  85.943,101.76  0,101.76  C  -85.943,101.76  -144.745,128.368  -171.885,128.368  z " />
<path transform="translate( 0, 0 )" style="stroke: hsl(53.8, 55%, 50%);" id="438"  d=" M  -171.885,128.368  C  -171.885,128.368  -154.697,76.76  0,76.76  C  154.697,76.76  171.885,128.368  171.885,128.368  C  144.745,128.368  85.943,101.76  0,101.76  C  -85.943,101.76  -144.745,128.368  -171.885,128.368  z " />
<path transform="translate( 0, 0 )" style="stroke: hsl(80.7, 55%, 50%);" id="659"  d=" M  -171.885,128.368  C  -171.885,128.368  -154.697,76.76  0,76.76  C  154.697,76.76  171.885,128.368  171.885,128.368  C  144.745,128.368  85.943,101.76  0,101.76  C  -85.943,101.76  -144.745,128.368  -171.885,128.368  z " />
<path transform="translate( 0, 0 )" style="stroke: hsl(107.6, 55%, 50%);" id="880"  d=" M  -171.885,128.368  C  -171.885,128.368  -154.697,76.76  0,76.76  C  154.697,76.76  171.885,128.368  171.885,128.368  C  144.745,128.368  85.943,101.76  0,101.76  C  -85.943,101.76  -144.745,128.368  -171.885,128.368  z " />
<path transform="translate( 0, 0 )" style="stroke: hsl(134.5, 55%, 50%);" id="1101"  d=" M  -171.885,128.368  C  -171.885,128.368  -154.697,76.76  0,76.76  C  154.697,76.76  171.885,128.368  171.885,128.368  C  144.745,128.368  85.943,101.76  0,101.76  C  -85.943,101.76  -144.745,128.368  -171.885,128.368  z " />
<path transform="translate( 0, 0 )" style="stroke: hsl(161.4, 55%, 50%);" id="1322"  d=" M  -171.885,128.368  C  -171.885,128.368  -154.697,76.76  0,76.76  C  154.697,76.76  171.885,128.368  171.885,128.368  C  144.745,128.368  85.943,101.76  0,101.76  C  -85.943,101.76  -144.745,128.368  -171.885,128.368  z " />
<path transform="translate( 0, 0 )" style="stroke: hsl(188.3, 55%, 50%);" id="1543"  d=" M  -171.885,128.368  C  -171.885,128.368  -154.697,76.76  0,76.76  C  154.697,76.76  171.885,128.368  171.885,128.368  C  144.745,128.368  85.943,101.76  0,101.76  C  -85.943,101.76  -144.745,128.368  -171.885,128.368  z " />
<path transform="translate( 0, 0 )" style="stroke: hsl(215.2, 55%, 50%);" id="1764"  d=" M  -171.885,128.368  C  -171.885,128.368  -154.697,76.76  0,76.76  C  154.697,76.76  171.885,128.368  171.885,128.368  C  144.745,128.368  85.943,101.76  0,101.76  C  -85.943,101.76  -144.745,128.368  -171.885,128.368  z " />
<path transform="translate( 0, 0 )" style="stroke: hsl(242.1, 55%, 50%);" id="1985"  d=" M  -171.885,128.368  C  -171.885,128.368  -154.697,76.76  0,76.76  C  154.697,76.76  171.885,128.368  171.885,128.368  C  144.745,128.368  85.943,101.76  0,101.76  C  -85.943,101.76  -144.745,128.368  -171.885,128.368  z " />
<path transform="translate( 0, 0 )" style="stroke: hsl(269, 55%, 50%);" id="2206"  d=" M  -171.885,128.368  C  -171.885,128.368  -154.697,76.76  0,76.76  C  154.697,76.76  171.885,128.368  171.885,128.368  C  144.745,128.368  85.943,101.76  0,101.76  C  -85.943,101.76  -144.745,128.368  -171.885,128.368  z " />
<path transform="translate( 0, 0 )" style="stroke: hsl(295.9, 55%, 50%);" id="2427"  d=" M  -171.885,128.368  C  -171.885,128.368  -154.697,76.76  0,76.76  C  154.697,76.76  171.885,128.368  171.885,128.368  C  144.745,128.368  85.943,101.76  0,101.76  C  -85.943,101.76  -144.745,128.368  -171.885,128.368  z " />
    </g>
    <!-- End of group #collarStand -->
    
    <!-- Start of group #collar -->
    <g id="collar"  transform=" translate(5 5)  translate(1385.361 437.858) " >
        <path class="hidden" id="9"  d=" M  0,0  L  263.948,0  L  263.948,154.668  L  0,154.668  z " />
<path transform="translate( 0, 0 )" style="stroke: hsl(26.9, 55%, 50%);" id="218"  d=" M  0,76.76  C  17.017,76.76  32.369,77.385  46.596,78.526  C  63.764,81.44  78.839,85.001  91.945,88.932  C  109.76,96.022  123.091,103.403  133.078,110.475  C  156.879,135.404  157.852,151.68  157.852,151.68  L  210.935,154.668  L  263.948,67.319  C  199.814,30.027  135.699,0  0,0  z " />
<path transform="translate( 0, 0 )" style="stroke: hsl(53.8, 55%, 50%);" id="439"  d=" M  0,76.76  C  17.017,76.76  32.369,77.385  46.596,78.526  C  63.764,81.44  78.839,85.001  91.945,88.932  C  109.76,96.022  123.091,103.403  133.078,110.475  C  156.879,135.404  157.852,151.68  157.852,151.68  L  210.935,154.668  L  263.948,67.319  C  199.814,30.027  135.699,0  0,0  z " />
<path transform="translate( 0, 0 )" style="stroke: hsl(80.7, 55%, 50%);" id="660"  d=" M  0,76.76  C  17.017,76.76  32.369,77.385  46.596,78.526  C  63.764,81.44  78.839,85.001  91.945,88.932  C  109.76,96.022  123.091,103.403  133.078,110.475  C  156.879,135.404  157.852,151.68  157.852,151.68  L  210.935,154.668  L  263.948,67.319  C  199.814,30.027  135.699,0  0,0  z " />
<path transform="translate( 0, 0 )" style="stroke: hsl(107.6, 55%, 50%);" id="881"  d=" M  0,76.76  C  17.017,76.76  32.369,77.385  46.596,78.526  C  63.764,81.44  78.839,85.001  91.945,88.932  C  109.76,96.022  123.091,103.403  133.078,110.475  C  156.879,135.404  157.852,151.68  157.852,151.68  L  210.935,154.668  L  263.948,67.319  C  199.814,30.027  135.699,0  0,0  z " />
<path transform="translate( 0, 0 )" style="stroke: hsl(134.5, 55%, 50%);" id="1102"  d=" M  0,76.76  C  17.017,76.76  32.369,77.385  46.596,78.526  C  63.764,81.44  78.839,85.001  91.945,88.932  C  109.76,96.022  123.091,103.403  133.078,110.475  C  156.879,135.404  157.852,151.68  157.852,151.68  L  210.935,154.668  L  263.948,67.319  C  199.814,30.027  135.699,0  0,0  z " />
<path transform="translate( 0, 0 )" style="stroke: hsl(161.4, 55%, 50%);" id="1323"  d=" M  0,76.76  C  17.017,76.76  32.369,77.385  46.596,78.526  C  63.764,81.44  78.839,85.001  91.945,88.932  C  109.76,96.022  123.091,103.403  133.078,110.475  C  156.879,135.404  157.852,151.68  157.852,151.68  L  210.935,154.668  L  263.948,67.319  C  199.814,30.027  135.699,0  0,0  z " />
<path transform="translate( 0, 0 )" style="stroke: hsl(188.3, 55%, 50%);" id="1544"  d=" M  0,76.76  C  17.017,76.76  32.369,77.385  46.596,78.526  C  63.764,81.44  78.839,85.001  91.945,88.932  C  109.76,96.022  123.091,103.403  133.078,110.475  C  156.879,135.404  157.852,151.68  157.852,151.68  L  210.935,154.668  L  263.948,67.319  C  199.814,30.027  135.699,0  0,0  z " />
<path transform="translate( 0, 0 )" style="stroke: hsl(215.2, 55%, 50%);" id="1765"  d=" M  0,76.76  C  17.017,76.76  32.369,77.385  46.596,78.526  C  63.764,81.44  78.839,85.001  91.945,88.932  C  109.76,96.022  123.091,103.403  133.078,110.475  C  156.879,135.404  157.852,151.68  157.852,151.68  L  210.935,154.668  L  263.948,67.319  C  199.814,30.027  135.699,0  0,0  z " />
<path transform="translate( 0, 0 )" style="stroke: hsl(242.1, 55%, 50%);" id="1986"  d=" M  0,76.76  C  17.017,76.76  32.369,77.385  46.596,78.526  C  63.764,81.44  78.839,85.001  91.945,88.932  C  109.76,96.022  123.091,103.403  133.078,110.475  C  156.879,135.404  157.852,151.68  157.852,151.68  L  210.935,154.668  L  263.948,67.319  C  199.814,30.027  135.699,0  0,0  z " />
<path transform="translate( 0, 0 )" style="stroke: hsl(269, 55%, 50%);" id="2207"  d=" M  0,76.76  C  17.017,76.76  32.369,77.385  46.596,78.526  C  63.764,81.44  78.839,85.001  91.945,88.932  C  109.76,96.022  123.091,103.403  133.078,110.475  C  156.879,135.404  157.852,151.68  157.852,151.68  L  210.935,154.668  L  263.948,67.319  C  199.814,30.027  135.699,0  0,0  z " />
<path transform="translate( 0, 0 )" style="stroke: hsl(295.9, 55%, 50%);" id="2428"  d=" M  0,76.76  C  17.017,76.76  32.369,77.385  46.596,78.526  C  63.764,81.44  78.839,85.001  91.945,88.932  C  109.76,96.022  123.091,103.403  133.078,110.475  C  156.879,135.404  157.852,151.68  157.852,151.68  L  210.935,154.668  L  263.948,67.319  C  199.814,30.027  135.699,0  0,0  z " />
    </g>
    <!-- End of group #collar -->
    
    <!-- Start of group #cuffFacing -->
    <g id="cuffFacing"  transform=" translate(5 5)  translate(1385.361 281.608) " >
        <path class="hidden" id="10"  d=" M  0,0  L  320.001,0  L  320.001,146.25  L  0,146.25  z " />
<path transform="translate( 0, 0 )" style="stroke: hsl(26.9, 55%, 50%);" id="219"  d=" M  0,0  L  0,121.875  C  -0,135.337  10.913,146.25  24.375,146.25  L  295.626,146.25  C  309.088,146.25  320.001,135.337  320.001,121.875  L  320.001,0  z " />
<path transform="translate( 0, 0 )" style="stroke: hsl(53.8, 55%, 50%);" id="440"  d=" M  0,0  L  0,121.875  C  -0,135.337  10.913,146.25  24.375,146.25  L  295.626,146.25  C  309.088,146.25  320.001,135.337  320.001,121.875  L  320.001,0  z " />
<path transform="translate( 0, 0 )" style="stroke: hsl(80.7, 55%, 50%);" id="661"  d=" M  0,0  L  0,121.875  C  -0,135.337  10.913,146.25  24.375,146.25  L  295.626,146.25  C  309.088,146.25  320.001,135.337  320.001,121.875  L  320.001,0  z " />
<path transform="translate( 0, 0 )" style="stroke: hsl(107.6, 55%, 50%);" id="882"  d=" M  0,0  L  0,121.875  C  -0,135.337  10.913,146.25  24.375,146.25  L  295.626,146.25  C  309.088,146.25  320.001,135.337  320.001,121.875  L  320.001,0  z " />
<path transform="translate( 0, 0 )" style="stroke: hsl(134.5, 55%, 50%);" id="1103"  d=" M  0,0  L  0,121.875  C  -0,135.337  10.913,146.25  24.375,146.25  L  295.626,146.25  C  309.088,146.25  320.001,135.337  320.001,121.875  L  320.001,0  z " />
<path transform="translate( 0, 0 )" style="stroke: hsl(161.4, 55%, 50%);" id="1324"  d=" M  0,0  L  0,121.875  C  -0,135.337  10.913,146.25  24.375,146.25  L  295.626,146.25  C  309.088,146.25  320.001,135.337  320.001,121.875  L  320.001,0  z " />
<path transform="translate( 0, 0 )" style="stroke: hsl(188.3, 55%, 50%);" id="1545"  d=" M  0,0  L  0,121.875  C  -0,135.337  10.913,146.25  24.375,146.25  L  295.626,146.25  C  309.088,146.25  320.001,135.337  320.001,121.875  L  320.001,0  z " />
<path transform="translate( 0, 0 )" style="stroke: hsl(215.2, 55%, 50%);" id="1766"  d=" M  0,0  L  0,121.875  C  -0,135.337  10.913,146.25  24.375,146.25  L  295.626,146.25  C  309.088,146.25  320.001,135.337  320.001,121.875  L  320.001,0  z " />
<path transform="translate( 0, 0 )" style="stroke: hsl(242.1, 55%, 50%);" id="1987"  d=" M  0,0  L  0,121.875  C  -0,135.337  10.913,146.25  24.375,146.25  L  295.626,146.25  C  309.088,146.25  320.001,135.337  320.001,121.875  L  320.001,0  z " />
<path transform="translate( 0, 0 )" style="stroke: hsl(269, 55%, 50%);" id="2208"  d=" M  0,0  L  0,121.875  C  -0,135.337  10.913,146.25  24.375,146.25  L  295.626,146.25  C  309.088,146.25  320.001,135.337  320.001,121.875  L  320.001,0  z " />
<path transform="translate( 0, 0 )" style="stroke: hsl(295.9, 55%, 50%);" id="2429"  d=" M  0,0  L  0,121.875  C  -0,135.337  10.913,146.25  24.375,146.25  L  295.626,146.25  C  309.088,146.25  320.001,135.337  320.001,121.875  L  320.001,0  z " />
    </g>
    <!-- End of group #cuffFacing -->
    
    <!-- Start of group #pocket -->
    <g id="pocket"  transform=" translate(-77.505 -712.5)  translate(1385.361 602.526) " >
        <path class="hidden" id="11"  d=" M  82.505,717.5  L  282.315,717.5  L  282.315,945.4  L  82.505,945.4  z " />
<path transform="translate( 0, 0 )" style="stroke: hsl(26.9, 55%, 50%);" id="220"  d=" M  82.505,717.5  L  82.505,895.4  C  82.505,923.014  104.891,945.4  132.505,945.4  L  232.315,945.4  C  259.929,945.4  282.315,923.014  282.315,895.4  L  282.315,717.5  L  82.505,717.5  z " />
<path transform="translate( 0, 0 )" style="stroke: hsl(53.8, 55%, 50%);" id="441"  d=" M  82.505,717.5  L  82.505,895.4  C  82.505,923.014  104.891,945.4  132.505,945.4  L  232.315,945.4  C  259.929,945.4  282.315,923.014  282.315,895.4  L  282.315,717.5  L  82.505,717.5  z " />
<path transform="translate( 0, 0 )" style="stroke: hsl(80.7, 55%, 50%);" id="662"  d=" M  82.505,717.5  L  82.505,895.4  C  82.505,923.014  104.891,945.4  132.505,945.4  L  232.315,945.4  C  259.929,945.4  282.315,923.014  282.315,895.4  L  282.315,717.5  L  82.505,717.5  z " />
<path transform="translate( 0, 0 )" style="stroke: hsl(107.6, 55%, 50%);" id="883"  d=" M  82.505,717.5  L  82.505,895.4  C  82.505,923.014  104.891,945.4  132.505,945.4  L  232.315,945.4  C  259.929,945.4  282.315,923.014  282.315,895.4  L  282.315,717.5  L  82.505,717.5  z " />
<path transform="translate( 0, 0 )" style="stroke: hsl(134.5, 55%, 50%);" id="1104"  d=" M  82.505,717.5  L  82.505,895.4  C  82.505,923.014  104.891,945.4  132.505,945.4  L  232.315,945.4  C  259.929,945.4  282.315,923.014  282.315,895.4  L  282.315,717.5  L  82.505,717.5  z " />
<path transform="translate( 0, 0 )" style="stroke: hsl(161.4, 55%, 50%);" id="1325"  d=" M  82.505,717.5  L  82.505,895.4  C  82.505,923.014  104.891,945.4  132.505,945.4  L  232.315,945.4  C  259.929,945.4  282.315,923.014  282.315,895.4  L  282.315,717.5  L  82.505,717.5  z " />
<path transform="translate( 0, 0 )" style="stroke: hsl(188.3, 55%, 50%);" id="1546"  d=" M  82.505,717.5  L  82.505,895.4  C  82.505,923.014  104.891,945.4  132.505,945.4  L  232.315,945.4  C  259.929,945.4  282.315,923.014  282.315,895.4  L  282.315,717.5  L  82.505,717.5  z " />
<path transform="translate( 0, 0 )" style="stroke: hsl(215.2, 55%, 50%);" id="1767"  d=" M  82.505,717.5  L  82.505,895.4  C  82.505,923.014  104.891,945.4  132.505,945.4  L  232.315,945.4  C  259.929,945.4  282.315,923.014  282.315,895.4  L  282.315,717.5  L  82.505,717.5  z " />
<path transform="translate( 0, 0 )" style="stroke: hsl(242.1, 55%, 50%);" id="1988"  d=" M  82.505,717.5  L  82.505,895.4  C  82.505,923.014  104.891,945.4  132.505,945.4  L  232.315,945.4  C  259.929,945.4  282.315,923.014  282.315,895.4  L  282.315,717.5  L  82.505,717.5  z " />
<path transform="translate( 0, 0 )" style="stroke: hsl(269, 55%, 50%);" id="2209"  d=" M  82.505,717.5  L  82.505,895.4  C  82.505,923.014  104.891,945.4  132.505,945.4  L  232.315,945.4  C  259.929,945.4  282.315,923.014  282.315,895.4  L  282.315,717.5  L  82.505,717.5  z " />
<path transform="translate( 0, 0 )" style="stroke: hsl(295.9, 55%, 50%);" id="2430"  d=" M  82.505,717.5  L  82.505,895.4  C  82.505,923.014  104.891,945.4  132.505,945.4  L  232.315,945.4  C  259.929,945.4  282.315,923.014  282.315,895.4  L  282.315,717.5  L  82.505,717.5  z " />
    </g>
    <!-- End of group #pocket -->
    
    <!-- Start of group #pocketFlap -->
    <g id="pocketFlap"  transform=" translate(-76.88 -700.016)  translate(1659.309 437.858) " >
        <path class="hidden" id="12"  d=" M  81.88,705.016  L  282.94,705.016  L  282.94,787.468  L  81.88,787.468  z " />
<path transform="translate( 0, 0 )" style="stroke: hsl(26.9, 55%, 50%);" id="221"  d=" M  81.88,705.016  L  84.505,757.468  C  85.333,774.016  97.936,787.468  114.505,787.468  L  250.315,787.468  C  266.884,787.468  279.487,774.016  280.315,757.468  L  282.94,705.016  z " />
<path transform="translate( 0, 0 )" style="stroke: hsl(53.8, 55%, 50%);" id="442"  d=" M  81.88,705.016  L  84.505,757.468  C  85.333,774.016  97.936,787.468  114.505,787.468  L  250.315,787.468  C  266.884,787.468  279.487,774.016  280.315,757.468  L  282.94,705.016  z " />
<path transform="translate( 0, 0 )" style="stroke: hsl(80.7, 55%, 50%);" id="663"  d=" M  81.88,705.016  L  84.505,757.468  C  85.333,774.016  97.936,787.468  114.505,787.468  L  250.315,787.468  C  266.884,787.468  279.487,774.016  280.315,757.468  L  282.94,705.016  z " />
<path transform="translate( 0, 0 )" style="stroke: hsl(107.6, 55%, 50%);" id="884"  d=" M  81.88,705.016  L  84.505,757.468  C  85.333,774.016  97.936,787.468  114.505,787.468  L  250.315,787.468  C  266.884,787.468  279.487,774.016  280.315,757.468  L  282.94,705.016  z " />
<path transform="translate( 0, 0 )" style="stroke: hsl(134.5, 55%, 50%);" id="1105"  d=" M  81.88,705.016  L  84.505,757.468  C  85.333,774.016  97.936,787.468  114.505,787.468  L  250.315,787.468  C  266.884,787.468  279.487,774.016  280.315,757.468  L  282.94,705.016  z " />
<path transform="translate( 0, 0 )" style="stroke: hsl(161.4, 55%, 50%);" id="1326"  d=" M  81.88,705.016  L  84.505,757.468  C  85.333,774.016  97.936,787.468  114.505,787.468  L  250.315,787.468  C  266.884,787.468  279.487,774.016  280.315,757.468  L  282.94,705.016  z " />
<path transform="translate( 0, 0 )" style="stroke: hsl(188.3, 55%, 50%);" id="1547"  d=" M  81.88,705.016  L  84.505,757.468  C  85.333,774.016  97.936,787.468  114.505,787.468  L  250.315,787.468  C  266.884,787.468  279.487,774.016  280.315,757.468  L  282.94,705.016  z " />
<path transform="translate( 0, 0 )" style="stroke: hsl(215.2, 55%, 50%);" id="1768"  d=" M  81.88,705.016  L  84.505,757.468  C  85.333,774.016  97.936,787.468  114.505,787.468  L  250.315,787.468  C  266.884,787.468  279.487,774.016  280.315,757.468  L  282.94,705.016  z " />
<path transform="translate( 0, 0 )" style="stroke: hsl(242.1, 55%, 50%);" id="1989"  d=" M  81.88,705.016  L  84.505,757.468  C  85.333,774.016  97.936,787.468  114.505,787.468  L  250.315,787.468  C  266.884,787.468  279.487,774.016  280.315,757.468  L  282.94,705.016  z " />
<path transform="translate( 0, 0 )" style="stroke: hsl(269, 55%, 50%);" id="2210"  d=" M  81.88,705.016  L  84.505,757.468  C  85.333,774.016  97.936,787.468  114.505,787.468  L  250.315,787.468  C  266.884,787.468  279.487,774.016  280.315,757.468  L  282.94,705.016  z " />
<path transform="translate( 0, 0 )" style="stroke: hsl(295.9, 55%, 50%);" id="2431"  d=" M  81.88,705.016  L  84.505,757.468  C  85.333,774.016  97.936,787.468  114.505,787.468  L  250.315,787.468  C  266.884,787.468  279.487,774.016  280.315,757.468  L  282.94,705.016  z " />
    </g>
    <!-- End of group #pocketFlap -->
    
    <!-- Start of group #chestPocketWelt -->
    <g id="chestPocketWelt"  transform=" translate(5 5)  translate(1595.171 602.526) " >
        <path class="hidden" id="13"  d=" M  0,0  L  41.34,0  L  41.34,184.016  L  0,184.016  z " />
<path transform="translate( 0, 0 )" style="stroke: hsl(26.9, 55%, 50%);" id="222"  d=" M  0,0  L  41.34,0  L  41.34,184.016  L  0,184.016  L  0,0  z " />
<path transform="translate( 0, 0 )" style="stroke: hsl(53.8, 55%, 50%);" id="443"  d=" M  0,0  L  41.34,0  L  41.34,184.016  L  0,184.016  L  0,0  z " />
<path transform="translate( 0, 0 )" style="stroke: hsl(80.7, 55%, 50%);" id="664"  d=" M  0,0  L  41.34,0  L  41.34,184.016  L  0,184.016  L  0,0  z " />
<path transform="translate( 0, 0 )" style="stroke: hsl(107.6, 55%, 50%);" id="885"  d=" M  0,0  L  41.34,0  L  41.34,184.016  L  0,184.016  L  0,0  z " />
<path transform="translate( 0, 0 )" style="stroke: hsl(134.5, 55%, 50%);" id="1106"  d=" M  0,0  L  41.34,0  L  41.34,184.016  L  0,184.016  L  0,0  z " />
<path transform="translate( 0, 0 )" style="stroke: hsl(161.4, 55%, 50%);" id="1327"  d=" M  0,0  L  41.34,0  L  41.34,184.016  L  0,184.016  L  0,0  z " />
<path transform="translate( 0, 0 )" style="stroke: hsl(188.3, 55%, 50%);" id="1548"  d=" M  0,0  L  41.34,0  L  41.34,184.016  L  0,184.016  L  0,0  z " />
<path transform="translate( 0, 0 )" style="stroke: hsl(215.2, 55%, 50%);" id="1769"  d=" M  0,0  L  41.34,0  L  41.34,184.016  L  0,184.016  L  0,0  z " />
<path transform="translate( 0, 0 )" style="stroke: hsl(242.1, 55%, 50%);" id="1990"  d=" M  0,0  L  41.34,0  L  41.34,184.016  L  0,184.016  L  0,0  z " />
<path transform="translate( 0, 0 )" style="stroke: hsl(269, 55%, 50%);" id="2211"  d=" M  0,0  L  41.34,0  L  41.34,184.016  L  0,184.016  L  0,0  z " />
<path transform="translate( 0, 0 )" style="stroke: hsl(295.9, 55%, 50%);" id="2432"  d=" M  0,0  L  41.34,0  L  41.34,184.016  L  0,184.016  L  0,0  z " />
    </g>
    <!-- End of group #chestPocketWelt -->
    
    <!-- Start of group #sampler-front -->
    <g id="sampler-front" >
    </g>
    <!-- End of group #sampler-front -->
    
    <!-- Start of group #sampler-back -->
    <g id="sampler-back" >
    </g>
    <!-- End of group #sampler-back -->
    
    <!-- Start of group #sampler-tail -->
    <g id="sampler-tail" >
    </g>
    <!-- End of group #sampler-tail -->
    
    <!-- Start of group #sampler-topsleeve -->
    <g id="sampler-topsleeve" >
    </g>
    <!-- End of group #sampler-topsleeve -->
    
    <!-- Start of group #sampler-undersleeve -->
    <g id="sampler-undersleeve" >
    </g>
    <!-- End of group #sampler-undersleeve -->
    
    <!-- Start of group #sampler-belt -->
    <g id="sampler-belt" >
    </g>
    <!-- End of group #sampler-belt -->
    
    <!-- Start of group #sampler-collarStand -->
    <g id="sampler-collarStand" >
    </g>
    <!-- End of group #sampler-collarStand -->
    
    <!-- Start of group #sampler-collar -->
    <g id="sampler-collar" >
    </g>
    <!-- End of group #sampler-collar -->
    
    <!-- Start of group #sampler-cuffFacing -->
    <g id="sampler-cuffFacing" >
    </g>
    <!-- End of group #sampler-cuffFacing -->
    
    <!-- Start of group #sampler-pocket -->
    <g id="sampler-pocket" >
    </g>
    <!-- End of group #sampler-pocket -->
    
    <!-- Start of group #sampler-pocketFlap -->
    <g id="sampler-pocketFlap" >
    </g>
    <!-- End of group #sampler-pocketFlap -->
    
    <!-- Start of group #sampler-chestPocketWelt -->
    <g id="sampler-chestPocketWelt" >
    </g>
    <!-- End of group #sampler-chestPocketWelt -->
</g>
<!-- End of group #patternContainer -->

</svg>

