<?xml version="1.0" encoding="UTF-8" standalone="no"?>
<svg
    width ="6084.9921317988"
    height ="3668.2086649225"
    viewbox ="0 0 6084.9921317988 3668.2086649225" xmlns:dc="http://purl.org/dc/elements/1.1/"
    xmlns:cc="http://creativecommons.org/ns#"
    xmlns:rdf="http://www.w3.org/1999/02/22-rdf-syntax-ns#"
    xmlns:svg="http://www.w3.org/2000/svg"
    xmlns="http://www.w3.org/2000/svg"
    xmlns:xlink="http://www.w3.org/1999/xlink"
    xmlns:sodipodi="http://sodipodi.sourceforge.net/DTD/sodipodi-0.dtd"
    xmlns:inkscape="http://www.inkscape.org/namespaces/inkscape" 
>

<style type="text/css">
    <![CDATA[
    path { fill: none; stroke: #000000; stroke-opacity:1; stroke-width: 0.5; stroke-miterlimit:4; stroke-dashoffset:0; stroke-linecap:round; stroke-linejoin:round; }
    path.hidden { fill: none; stroke: none; }]]>
</style>


<!-- Start of group #patternScaleContainer -->
<g id="patternScaleContainer"  transform=" scale(3.54330709 ) " >
    
    <!-- Start of group #backBlock -->
    <g id="backBlock"  transform=" translate(0 0)  translate(1717.32 0) " >
    </g>
    <!-- End of group #backBlock -->
    
    <!-- Start of group #frontBlock -->
    <g id="frontBlock"  transform=" translate(0 0)  translate(1717.32 0) " >
    </g>
    <!-- End of group #frontBlock -->
    
    <!-- Start of group #sleeveBlock -->
    <g id="sleeveBlock"  transform=" translate(0 0)  translate(1717.32 0) " >
    </g>
    <!-- End of group #sleeveBlock -->
    
    <!-- Start of group #block -->
    <g id="block"  transform=" translate(0 0)  translate(1717.32 0) " >
    </g>
    <!-- End of group #block -->
    
    <!-- Start of group #frontAndBackBlock -->
    <g id="frontAndBackBlock"  transform=" translate(0 0)  translate(1717.32 0) " >
    </g>
    <!-- End of group #frontAndBackBlock -->
    
    <!-- Start of group #frontRight -->
    <g id="frontRight"  transform=" translate(300 55.25)  translate(392.5 0) " >
        <path class="hidden" id="2"  d=" M  -295,-50.25  L  30,-50.25  L  30,770  L  -295,770  z " />
<path transform="translate( 0, 0 )" style="stroke: hsl(26.9, 55%, 50%);" id="200"  d=" M  -290,215  C  -273.75,215  -258.289,209.289  -244.5,195.5  C  -230.711,181.711  -220,147.5  -220,117.5  C  -220,87.5  -233.338,37.361  -235,27.5  L  -71.847,0  C  -68.523,19.722  -71.847,100.842  0,100.842  L  20,100.842  C  23.592,100.842  26.997,100.639  30,100.278  L  30,100.842  L  30,770  L  -262.5,770  C  -262.5,770  -295,770  -295,770  C  -295,770  -295,690  -295,690  C  -295,669  -294.838,640.435  -290,620  C  -286.449,605  -263.75,560  -263.75,500  C  -263.75,357.5  -290,250.625  -290,215 " />
<path transform="translate( 0, -5.025 )" style="stroke: hsl(53.8, 55%, 50%);" id="409"  d=" M  -290,220.025  C  -273.75,220.025  -258.627,214.256  -244.698,200.327  C  -230.769,186.398  -220,150.851  -220,120.013  C  -220,89.175  -233.338,37.361  -235,27.5  L  -71.847,0  C  -68.523,19.722  -71.847,100.842  0,100.842  L  20,100.842  C  23.592,100.842  26.997,100.639  30,100.278  L  30,100.842  L  30,770  L  -262.5,770  C  -262.5,770  -295,770  -295,770  C  -295,770  -295,690  -295,690  C  -295,669  -294.838,640.435  -290,620  C  -286.449,605  -263.75,560  -263.75,500  C  -263.75,360.013  -290,255.022  -290,220.025 " />
<path transform="translate( 0, -10.05 )" style="stroke: hsl(80.7, 55%, 50%);" id="618"  d=" M  -290,225.05  C  -273.75,225.05  -258.954,219.224  -244.89,205.16  C  -230.826,191.096  -220,154.2  -220,122.525  C  -220,90.85  -233.338,37.361  -235,27.5  L  -71.847,0  C  -68.523,19.722  -71.847,100.842  0,100.842  L  20,100.842  C  23.592,100.842  26.997,100.639  30,100.278  L  30,100.842  L  30,770  L  -262.5,770  C  -262.5,770  -295,770  -295,770  C  -295,770  -295,690  -295,690  C  -295,669  -294.838,640.435  -290,620  C  -286.449,605  -263.75,560  -263.75,500  C  -263.75,362.525  -290,259.419  -290,225.05 " />
<path transform="translate( 0, -15.075 )" style="stroke: hsl(107.6, 55%, 50%);" id="827"  d=" M  -290,230.075  C  -273.75,230.075  -259.272,224.195  -245.076,209.999  C  -230.88,195.803  -220,157.551  -220,125.038  C  -220,92.525  -233.338,37.361  -235,27.5  L  -71.847,0  C  -68.523,19.722  -71.847,100.842  0,100.842  L  20,100.842  C  23.592,100.842  26.997,100.639  30,100.278  L  30,100.842  L  30,770  L  -262.5,770  C  -262.5,770  -295,770  -295,770  C  -295,770  -295,690  -295,690  C  -295,669  -294.838,640.435  -290,620  C  -286.449,605  -263.75,560  -263.75,500  C  -263.75,365.038  -290,263.816  -290,230.075 " />
<path transform="translate( 0, -20.1 )" style="stroke: hsl(134.5, 55%, 50%);" id="1036"  d=" M  -290,235.1  C  -273.75,235.1  -259.581,229.167  -245.257,214.843  C  -230.933,200.519  -220,160.9  -220,127.55  C  -220,94.2  -233.338,37.361  -235,27.5  L  -71.847,0  C  -68.523,19.722  -71.847,100.842  0,100.842  L  20,100.842  C  23.592,100.842  26.997,100.639  30,100.278  L  30,100.842  L  30,770  L  -262.5,770  C  -262.5,770  -295,770  -295,770  C  -295,770  -295,690  -295,690  C  -295,669  -294.838,640.435  -290,620  C  -286.449,605  -263.75,560  -263.75,500  C  -263.75,367.55  -290,268.212  -290,235.1 " />
<path transform="translate( 0, -25.125 )" style="stroke: hsl(161.4, 55%, 50%);" id="1245"  d=" M  -290,240.125  C  -273.75,240.125  -259.881,234.14  -245.433,219.692  C  -230.985,205.244  -220,164.251  -220,130.063  C  -220,95.875  -233.338,37.361  -235,27.5  L  -71.847,0  C  -68.523,19.722  -71.847,100.842  0,100.842  L  20,100.842  C  23.592,100.842  26.997,100.639  30,100.278  L  30,100.842  L  30,770  L  -262.5,770  C  -262.5,770  -295,770  -295,770  C  -295,770  -295,690  -295,690  C  -295,669  -294.838,640.435  -290,620  C  -286.449,605  -263.75,560  -263.75,500  C  -263.75,370.063  -290,272.609  -290,240.125 " />
<path transform="translate( 0, -30.15 )" style="stroke: hsl(188.3, 55%, 50%);" id="1454"  d=" M  -290,245.15  C  -273.75,245.15  -260.173,239.116  -245.604,224.547  C  -231.035,209.978  -220,167.6  -220,132.575  C  -220,97.55  -233.338,37.361  -235,27.5  L  -71.847,0  C  -68.523,19.722  -71.847,100.842  0,100.842  L  20,100.842  C  23.592,100.842  26.997,100.639  30,100.278  L  30,100.842  L  30,770  L  -262.5,770  C  -262.5,770  -295,770  -295,770  C  -295,770  -295,690  -295,690  C  -295,669  -294.838,640.435  -290,620  C  -286.449,605  -263.75,560  -263.75,500  C  -263.75,372.575  -290,277.006  -290,245.15 " />
<path transform="translate( 0, -35.175 )" style="stroke: hsl(215.2, 55%, 50%);" id="1663"  d=" M  -290,250.175  C  -273.75,250.175  -260.456,244.092  -245.77,229.406  C  -231.084,214.72  -220,170.951  -220,135.088  C  -220,99.225  -233.338,37.361  -235,27.5  L  -71.847,0  C  -68.523,19.722  -71.847,100.842  0,100.842  L  20,100.842  C  23.592,100.842  26.997,100.639  30,100.278  L  30,100.842  L  30,770  L  -262.5,770  C  -262.5,770  -295,770  -295,770  C  -295,770  -295,690  -295,690  C  -295,669  -294.838,640.435  -290,620  C  -286.449,605  -263.75,560  -263.75,500  C  -263.75,375.088  -290,281.403  -290,250.175 " />
<path transform="translate( 0, -40.2 )" style="stroke: hsl(242.1, 55%, 50%);" id="1872"  d=" M  -290,255.2  C  -273.75,255.2  -260.731,249.069  -245.931,234.269  C  -231.131,219.469  -220,174.3  -220,137.6  C  -220,100.9  -233.338,37.361  -235,27.5  L  -71.847,0  C  -68.523,19.722  -71.847,100.842  0,100.842  L  20,100.842  C  23.592,100.842  26.997,100.639  30,100.278  L  30,100.842  L  30,770  L  -262.5,770  C  -262.5,770  -295,770  -295,770  C  -295,770  -295,690  -295,690  C  -295,669  -294.838,640.435  -290,620  C  -286.449,605  -263.75,560  -263.75,500  C  -263.75,377.6  -290,285.8  -290,255.2 " />
<path transform="translate( 0, -45.225 )" style="stroke: hsl(269, 55%, 50%);" id="2081"  d=" M  -290,260.225  C  -273.75,260.225  -260.999,254.048  -246.088,239.137  C  -231.177,224.226  -220,177.651  -220,140.113  C  -220,102.575  -233.338,37.361  -235,27.5  L  -71.847,0  C  -68.523,19.722  -71.847,100.842  0,100.842  L  20,100.842  C  23.592,100.842  26.997,100.639  30,100.278  L  30,100.842  L  30,770  L  -262.5,770  C  -262.5,770  -295,770  -295,770  C  -295,770  -295,690  -295,690  C  -295,669  -294.838,640.435  -290,620  C  -286.449,605  -263.75,560  -263.75,500  C  -263.75,380.113  -290,290.197  -290,260.225 " />
<path transform="translate( 0, -50.25 )" style="stroke: hsl(295.9, 55%, 50%);" id="2290"  d=" M  -290,265.25  C  -273.75,265.25  -261.261,259.029  -246.241,244.009  C  -231.221,228.989  -220,181  -220,142.625  C  -220,104.25  -233.338,37.361  -235,27.5  L  -71.847,0  C  -68.523,19.722  -71.847,100.842  0,100.842  L  20,100.842  C  23.592,100.842  26.997,100.639  30,100.278  L  30,100.842  L  30,770  L  -262.5,770  C  -262.5,770  -295,770  -295,770  C  -295,770  -295,690  -295,690  C  -295,669  -294.838,640.435  -290,620  C  -286.449,605  -263.75,560  -263.75,500  C  -263.75,382.625  -290,294.594  -290,265.25 " />
    </g>
    <!-- End of group #frontRight -->
    
    <!-- Start of group #frontLeft -->
    <g id="frontLeft"  transform=" translate(92.5 55.25)  translate(0 0) " >
        <path class="hidden" id="3"  d=" M  -87.5,-50.25  L  295,-50.25  L  295,770  L  -87.5,770  z " />
<path transform="translate( 0, 0 )" style="stroke: hsl(26.9, 55%, 50%);" id="201"  d=" M  290,215  C  273.75,215  258.289,209.289  244.5,195.5  C  230.711,181.711  220,147.5  220,117.5  C  220,87.5  233.338,37.361  235,27.5  L  71.847,0  C  68.523,19.722  71.847,100.842  0,100.842  L  -35,100.842  C  -47.324,100.185  -41.466,100.842  -52.5,99.005  C  -63.534,100.842  -57.676,100.185  -70,100.842  L  -87.5,100.842  L  -87.5,770  L  262.5,770  C  262.5,770  295,770  295,770  C  295,770  295,690  295,690  C  295,669  294.838,640.435  290,620  C  286.449,605  263.75,560  263.75,500  C  263.75,357.5  290,250.625  290,215 " />
<path transform="translate( 0, -5.025 )" style="stroke: hsl(53.8, 55%, 50%);" id="410"  d=" M  290,220.025  C  273.75,220.025  258.627,214.256  244.698,200.327  C  230.769,186.398  220,150.851  220,120.013  C  220,89.175  233.338,37.361  235,27.5  L  71.847,0  C  68.523,19.722  71.847,100.842  0,100.842  L  -35,100.842  C  -47.324,100.185  -41.466,100.842  -52.5,99.005  C  -63.534,100.842  -57.676,100.185  -70,100.842  L  -87.5,100.842  L  -87.5,770  L  262.5,770  C  262.5,770  295,770  295,770  C  295,770  295,690  295,690  C  295,669  294.838,640.435  290,620  C  286.449,605  263.75,560  263.75,500  C  263.75,360.013  290,255.022  290,220.025 " />
<path transform="translate( 0, -10.05 )" style="stroke: hsl(80.7, 55%, 50%);" id="619"  d=" M  290,225.05  C  273.75,225.05  258.954,219.224  244.89,205.16  C  230.826,191.096  220,154.2  220,122.525  C  220,90.85  233.338,37.361  235,27.5  L  71.847,0  C  68.523,19.722  71.847,100.842  0,100.842  L  -35,100.842  C  -47.324,100.185  -41.466,100.842  -52.5,99.005  C  -63.534,100.842  -57.676,100.185  -70,100.842  L  -87.5,100.842  L  -87.5,770  L  262.5,770  C  262.5,770  295,770  295,770  C  295,770  295,690  295,690  C  295,669  294.838,640.435  290,620  C  286.449,605  263.75,560  263.75,500  C  263.75,362.525  290,259.419  290,225.05 " />
<path transform="translate( 0, -15.075 )" style="stroke: hsl(107.6, 55%, 50%);" id="828"  d=" M  290,230.075  C  273.75,230.075  259.272,224.195  245.076,209.999  C  230.88,195.803  220,157.551  220,125.038  C  220,92.525  233.338,37.361  235,27.5  L  71.847,0  C  68.523,19.722  71.847,100.842  0,100.842  L  -35,100.842  C  -47.324,100.185  -41.466,100.842  -52.5,99.005  C  -63.534,100.842  -57.676,100.185  -70,100.842  L  -87.5,100.842  L  -87.5,770  L  262.5,770  C  262.5,770  295,770  295,770  C  295,770  295,690  295,690  C  295,669  294.838,640.435  290,620  C  286.449,605  263.75,560  263.75,500  C  263.75,365.038  290,263.816  290,230.075 " />
<path transform="translate( 0, -20.1 )" style="stroke: hsl(134.5, 55%, 50%);" id="1037"  d=" M  290,235.1  C  273.75,235.1  259.581,229.167  245.257,214.843  C  230.933,200.519  220,160.9  220,127.55  C  220,94.2  233.338,37.361  235,27.5  L  71.847,0  C  68.523,19.722  71.847,100.842  0,100.842  L  -35,100.842  C  -47.324,100.185  -41.466,100.842  -52.5,99.005  C  -63.534,100.842  -57.676,100.185  -70,100.842  L  -87.5,100.842  L  -87.5,770  L  262.5,770  C  262.5,770  295,770  295,770  C  295,770  295,690  295,690  C  295,669  294.838,640.435  290,620  C  286.449,605  263.75,560  263.75,500  C  263.75,367.55  290,268.212  290,235.1 " />
<path transform="translate( 0, -25.125 )" style="stroke: hsl(161.4, 55%, 50%);" id="1246"  d=" M  290,240.125  C  273.75,240.125  259.881,234.14  245.433,219.692  C  230.985,205.244  220,164.251  220,130.063  C  220,95.875  233.338,37.361  235,27.5  L  71.847,0  C  68.523,19.722  71.847,100.842  0,100.842  L  -35,100.842  C  -47.324,100.185  -41.466,100.842  -52.5,99.005  C  -63.534,100.842  -57.676,100.185  -70,100.842  L  -87.5,100.842  L  -87.5,770  L  262.5,770  C  262.5,770  295,770  295,770  C  295,770  295,690  295,690  C  295,669  294.838,640.435  290,620  C  286.449,605  263.75,560  263.75,500  C  263.75,370.063  290,272.609  290,240.125 " />
<path transform="translate( 0, -30.15 )" style="stroke: hsl(188.3, 55%, 50%);" id="1455"  d=" M  290,245.15  C  273.75,245.15  260.173,239.116  245.604,224.547  C  231.035,209.978  220,167.6  220,132.575  C  220,97.55  233.338,37.361  235,27.5  L  71.847,0  C  68.523,19.722  71.847,100.842  0,100.842  L  -35,100.842  C  -47.324,100.185  -41.466,100.842  -52.5,99.005  C  -63.534,100.842  -57.676,100.185  -70,100.842  L  -87.5,100.842  L  -87.5,770  L  262.5,770  C  262.5,770  295,770  295,770  C  295,770  295,690  295,690  C  295,669  294.838,640.435  290,620  C  286.449,605  263.75,560  263.75,500  C  263.75,372.575  290,277.006  290,245.15 " />
<path transform="translate( 0, -35.175 )" style="stroke: hsl(215.2, 55%, 50%);" id="1664"  d=" M  290,250.175  C  273.75,250.175  260.456,244.092  245.77,229.406  C  231.084,214.72  220,170.951  220,135.088  C  220,99.225  233.338,37.361  235,27.5  L  71.847,0  C  68.523,19.722  71.847,100.842  0,100.842  L  -35,100.842  C  -47.324,100.185  -41.466,100.842  -52.5,99.005  C  -63.534,100.842  -57.676,100.185  -70,100.842  L  -87.5,100.842  L  -87.5,770  L  262.5,770  C  262.5,770  295,770  295,770  C  295,770  295,690  295,690  C  295,669  294.838,640.435  290,620  C  286.449,605  263.75,560  263.75,500  C  263.75,375.088  290,281.403  290,250.175 " />
<path transform="translate( 0, -40.2 )" style="stroke: hsl(242.1, 55%, 50%);" id="1873"  d=" M  290,255.2  C  273.75,255.2  260.731,249.069  245.931,234.269  C  231.131,219.469  220,174.3  220,137.6  C  220,100.9  233.338,37.361  235,27.5  L  71.847,0  C  68.523,19.722  71.847,100.842  0,100.842  L  -35,100.842  C  -47.324,100.185  -41.466,100.842  -52.5,99.005  C  -63.534,100.842  -57.676,100.185  -70,100.842  L  -87.5,100.842  L  -87.5,770  L  262.5,770  C  262.5,770  295,770  295,770  C  295,770  295,690  295,690  C  295,669  294.838,640.435  290,620  C  286.449,605  263.75,560  263.75,500  C  263.75,377.6  290,285.8  290,255.2 " />
<path transform="translate( 0, -45.225 )" style="stroke: hsl(269, 55%, 50%);" id="2082"  d=" M  290,260.225  C  273.75,260.225  260.999,254.048  246.088,239.137  C  231.177,224.226  220,177.651  220,140.113  C  220,102.575  233.338,37.361  235,27.5  L  71.847,0  C  68.523,19.722  71.847,100.842  0,100.842  L  -35,100.842  C  -47.324,100.185  -41.466,100.842  -52.5,99.005  C  -63.534,100.842  -57.676,100.185  -70,100.842  L  -87.5,100.842  L  -87.5,770  L  262.5,770  C  262.5,770  295,770  295,770  C  295,770  295,690  295,690  C  295,669  294.838,640.435  290,620  C  286.449,605  263.75,560  263.75,500  C  263.75,380.113  290,290.197  290,260.225 " />
<path transform="translate( 0, -50.25 )" style="stroke: hsl(295.9, 55%, 50%);" id="2291"  d=" M  290,265.25  C  273.75,265.25  261.261,259.029  246.241,244.009  C  231.221,228.989  220,181  220,142.625  C  220,104.25  233.338,37.361  235,27.5  L  71.847,0  C  68.523,19.722  71.847,100.842  0,100.842  L  -35,100.842  C  -47.324,100.185  -41.466,100.842  -52.5,99.005  C  -63.534,100.842  -57.676,100.185  -70,100.842  L  -87.5,100.842  L  -87.5,770  L  262.5,770  C  262.5,770  295,770  295,770  C  295,770  295,690  295,690  C  295,669  294.838,640.435  290,620  C  286.449,605  263.75,560  263.75,500  C  263.75,382.625  290,294.594  290,265.25 " />
    </g>
    <!-- End of group #frontLeft -->
    
    <!-- Start of group #buttonPlacket -->
    <g id="buttonPlacket"  transform=" translate(0 0)  translate(1717.32 0) " >
    </g>
    <!-- End of group #buttonPlacket -->
    
    <!-- Start of group #buttonholePlacket -->
    <g id="buttonholePlacket"  transform=" translate(0 0)  translate(1717.32 0) " >
    </g>
    <!-- End of group #buttonholePlacket -->
    
    <!-- Start of group #yoke -->
    <g id="yoke"  transform=" translate(240 5)  translate(1117.32 662.5) " >
        <path class="hidden" id="4"  d=" M  -235,0  L  235,0  L  235,142.625  L  -235,142.625  z " />
<path transform="translate( 0, 0 )" style="stroke: hsl(26.9, 55%, 50%);" id="202"  d=" M  225,117.5  C  225,87.5  233.338,37.361  235,27.5  L  71.847,0  C  68.523,19.722  0,20  0,20  C  0,20  -68.523,19.722  -71.847,0  L  -235,27.5  C  -233.338,37.361  -225,87.5  -225,117.5  z " />
<path transform="translate( 0, 0 )" style="stroke: hsl(53.8, 55%, 50%);" id="411"  d=" M  225,120.013  C  225,89.175  233.338,37.361  235,27.5  L  71.847,0  C  68.523,19.722  0,20  0,20  C  0,20  -68.523,19.722  -71.847,0  L  -235,27.5  C  -233.338,37.361  -225,89.175  -225,120.013  z " />
<path transform="translate( 0, 0 )" style="stroke: hsl(80.7, 55%, 50%);" id="620"  d=" M  225,122.525  C  225,90.85  233.338,37.361  235,27.5  L  71.847,0  C  68.523,19.722  0,20  0,20  C  0,20  -68.523,19.722  -71.847,0  L  -235,27.5  C  -233.338,37.361  -225,90.85  -225,122.525  z " />
<path transform="translate( 0, 0 )" style="stroke: hsl(107.6, 55%, 50%);" id="829"  d=" M  225,125.038  C  225,92.525  233.338,37.361  235,27.5  L  71.847,0  C  68.523,19.722  0,20  0,20  C  0,20  -68.523,19.722  -71.847,0  L  -235,27.5  C  -233.338,37.361  -225,92.525  -225,125.038  z " />
<path transform="translate( 0, 0 )" style="stroke: hsl(134.5, 55%, 50%);" id="1038"  d=" M  225,127.55  C  225,94.2  233.338,37.361  235,27.5  L  71.847,0  C  68.523,19.722  0,20  0,20  C  0,20  -68.523,19.722  -71.847,0  L  -235,27.5  C  -233.338,37.361  -225,94.2  -225,127.55  z " />
<path transform="translate( 0, 0 )" style="stroke: hsl(161.4, 55%, 50%);" id="1247"  d=" M  225,130.063  C  225,95.875  233.338,37.361  235,27.5  L  71.847,0  C  68.523,19.722  0,20  0,20  C  0,20  -68.523,19.722  -71.847,0  L  -235,27.5  C  -233.338,37.361  -225,95.875  -225,130.063  z " />
<path transform="translate( 0, 0 )" style="stroke: hsl(188.3, 55%, 50%);" id="1456"  d=" M  225,132.575  C  225,97.55  233.338,37.361  235,27.5  L  71.847,0  C  68.523,19.722  0,20  0,20  C  0,20  -68.523,19.722  -71.847,0  L  -235,27.5  C  -233.338,37.361  -225,97.55  -225,132.575  z " />
<path transform="translate( 0, 0 )" style="stroke: hsl(215.2, 55%, 50%);" id="1665"  d=" M  225,135.088  C  225,99.225  233.338,37.361  235,27.5  L  71.847,0  C  68.523,19.722  0,20  0,20  C  0,20  -68.523,19.722  -71.847,0  L  -235,27.5  C  -233.338,37.361  -225,99.225  -225,135.088  z " />
<path transform="translate( 0, 0 )" style="stroke: hsl(242.1, 55%, 50%);" id="1874"  d=" M  225,137.6  C  225,100.9  233.338,37.361  235,27.5  L  71.847,0  C  68.523,19.722  0,20  0,20  C  0,20  -68.523,19.722  -71.847,0  L  -235,27.5  C  -233.338,37.361  -225,100.9  -225,137.6  z " />
<path transform="translate( 0, 0 )" style="stroke: hsl(269, 55%, 50%);" id="2083"  d=" M  225,140.113  C  225,102.575  233.338,37.361  235,27.5  L  71.847,0  C  68.523,19.722  0,20  0,20  C  0,20  -68.523,19.722  -71.847,0  L  -235,27.5  C  -233.338,37.361  -225,102.575  -225,140.113  z " />
<path transform="translate( 0, 0 )" style="stroke: hsl(295.9, 55%, 50%);" id="2292"  d=" M  225,142.625  C  225,104.25  233.338,37.361  235,27.5  L  71.847,0  C  68.523,19.722  0,20  0,20  C  0,20  -68.523,19.722  -71.847,0  L  -235,27.5  C  -233.338,37.361  -225,104.25  -225,142.625  z " />
    </g>
    <!-- End of group #yoke -->
    
    <!-- Start of group #back -->
    <g id="back"  transform=" translate(300 -112.5)  translate(1117.32 0) " >
        <path class="hidden" id="5"  d=" M  -295,117.5  L  295,117.5  L  295,770  L  -295,770  z " />
<path transform="translate( 0, 0 )" style="stroke: hsl(26.9, 55%, 50%);" id="203"  d=" M  295,770  L  295,690  C  295,669  294.838,640.435  290,620  C  286.449,605  263.75,560  263.75,500  C  263.75,357.5  290,272  290,215  C  273.75,215  258.289,209.289  244.5,195.5  C  230.711,181.711  225,147.5  225.053,122.5  C  225.053,122.5  180,117.5  135.438,117.5  L  -135.438,117.5  C  -180,117.5  -225.053,122.5  -225.053,122.5  C  -225,147.5  -230.711,181.711  -244.5,195.5  C  -258.289,209.289  -273.75,215  -290,215  C  -290,272  -263.75,357.5  -263.75,500  C  -263.75,560  -286.449,605  -290,620  C  -294.838,640.435  -295,669  -295,690  L  -295,770  C  -295,770  -265.5,770  -265.5,770  L  0,770  L  265.5,770  C  265.5,770  295,770  295,770  C  295,770  295,690  295,690  z " />
<path transform="translate( 0, -2.513 )" style="stroke: hsl(53.8, 55%, 50%);" id="412"  d=" M  295,770  L  295,690  C  295,669  294.838,640.435  290,620  C  286.449,605  263.75,560  263.75,500  C  263.75,360.013  290,276.02  290,220.025  C  273.75,220.025  258.627,214.256  244.698,200.327  C  230.769,186.398  225,150.851  225.05,125.013  C  225.05,125.013  180,120.013  135.438,120.013  L  -135.438,120.013  C  -180,120.013  -225.05,125.013  -225.05,125.013  C  -225,150.851  -230.769,186.398  -244.698,200.327  C  -258.627,214.256  -273.75,220.025  -290,220.025  C  -290,276.02  -263.75,360.013  -263.75,500  C  -263.75,560  -286.449,605  -290,620  C  -294.838,640.435  -295,669  -295,690  L  -295,770  C  -295,770  -265.5,770  -265.5,770  L  0,770  L  265.5,770  C  265.5,770  295,770  295,770  C  295,770  295,690  295,690  z " />
<path transform="translate( 0, -5.025 )" style="stroke: hsl(80.7, 55%, 50%);" id="621"  d=" M  295,770  L  295,690  C  295,669  294.838,640.435  290,620  C  286.449,605  263.75,560  263.75,500  C  263.75,362.525  290,280.04  290,225.05  C  273.75,225.05  258.954,219.224  244.89,205.16  C  230.826,191.096  225,154.2  225.048,127.525  C  225.048,127.525  180,122.525  135.438,122.525  L  -135.438,122.525  C  -180,122.525  -225.048,127.525  -225.048,127.525  C  -225,154.2  -230.826,191.096  -244.89,205.16  C  -258.954,219.224  -273.75,225.05  -290,225.05  C  -290,280.04  -263.75,362.525  -263.75,500  C  -263.75,560  -286.449,605  -290,620  C  -294.838,640.435  -295,669  -295,690  L  -295,770  C  -295,770  -265.5,770  -265.5,770  L  0,770  L  265.5,770  C  265.5,770  295,770  295,770  C  295,770  295,690  295,690  z " />
<path transform="translate( 0, -7.538 )" style="stroke: hsl(107.6, 55%, 50%);" id="830"  d=" M  295,770  L  295,690  C  295,669  294.838,640.435  290,620  C  286.449,605  263.75,560  263.75,500  C  263.75,365.038  290,284.06  290,230.075  C  273.75,230.075  259.272,224.195  245.076,209.999  C  230.88,195.803  225,157.551  225.046,130.038  C  225.046,130.038  180,125.038  135.438,125.038  L  -135.438,125.038  C  -180,125.038  -225.046,130.038  -225.046,130.038  C  -225,157.551  -230.88,195.803  -245.076,209.999  C  -259.272,224.195  -273.75,230.075  -290,230.075  C  -290,284.06  -263.75,365.038  -263.75,500  C  -263.75,560  -286.449,605  -290,620  C  -294.838,640.435  -295,669  -295,690  L  -295,770  C  -295,770  -265.5,770  -265.5,770  L  0,770  L  265.5,770  C  265.5,770  295,770  295,770  C  295,770  295,690  295,690  z " />
<path transform="translate( 0, -10.05 )" style="stroke: hsl(134.5, 55%, 50%);" id="1039"  d=" M  295,770  L  295,690  C  295,669  294.838,640.435  290,620  C  286.449,605  263.75,560  263.75,500  C  263.75,367.55  290,288.08  290,235.1  C  273.75,235.1  259.581,229.167  245.257,214.843  C  230.933,200.519  225,160.9  225.044,132.55  C  225.044,132.55  180,127.55  135.438,127.55  L  -135.438,127.55  C  -180,127.55  -225.044,132.55  -225.044,132.55  C  -225,160.9  -230.933,200.519  -245.257,214.843  C  -259.581,229.167  -273.75,235.1  -290,235.1  C  -290,288.08  -263.75,367.55  -263.75,500  C  -263.75,560  -286.449,605  -290,620  C  -294.838,640.435  -295,669  -295,690  L  -295,770  C  -295,770  -265.5,770  -265.5,770  L  0,770  L  265.5,770  C  265.5,770  295,770  295,770  C  295,770  295,690  295,690  z " />
<path transform="translate( 0, -12.563 )" style="stroke: hsl(161.4, 55%, 50%);" id="1248"  d=" M  295,770  L  295,690  C  295,669  294.838,640.435  290,620  C  286.449,605  263.75,560  263.75,500  C  263.75,370.063  290,292.1  290,240.125  C  273.75,240.125  259.881,234.14  245.433,219.692  C  230.985,205.244  225,164.251  225.042,135.063  C  225.042,135.063  180,130.063  135.438,130.063  L  -135.438,130.063  C  -180,130.063  -225.042,135.063  -225.042,135.063  C  -225,164.251  -230.985,205.244  -245.433,219.692  C  -259.881,234.14  -273.75,240.125  -290,240.125  C  -290,292.1  -263.75,370.063  -263.75,500  C  -263.75,560  -286.449,605  -290,620  C  -294.838,640.435  -295,669  -295,690  L  -295,770  C  -295,770  -265.5,770  -265.5,770  L  0,770  L  265.5,770  C  265.5,770  295,770  295,770  C  295,770  295,690  295,690  z " />
<path transform="translate( 0, -15.075 )" style="stroke: hsl(188.3, 55%, 50%);" id="1457"  d=" M  295,770  L  295,690  C  295,669  294.838,640.435  290,620  C  286.449,605  263.75,560  263.75,500  C  263.75,372.575  290,296.12  290,245.15  C  273.75,245.15  260.173,239.116  245.604,224.547  C  231.035,209.978  225,167.6  225.041,137.575  C  225.041,137.575  180,132.575  135.438,132.575  L  -135.438,132.575  C  -180,132.575  -225.041,137.575  -225.041,137.575  C  -225,167.6  -231.035,209.978  -245.604,224.547  C  -260.173,239.116  -273.75,245.15  -290,245.15  C  -290,296.12  -263.75,372.575  -263.75,500  C  -263.75,560  -286.449,605  -290,620  C  -294.838,640.435  -295,669  -295,690  L  -295,770  C  -295,770  -265.5,770  -265.5,770  L  0,770  L  265.5,770  C  265.5,770  295,770  295,770  C  295,770  295,690  295,690  z " />
<path transform="translate( 0, -17.588 )" style="stroke: hsl(215.2, 55%, 50%);" id="1666"  d=" M  295,770  L  295,690  C  295,669  294.838,640.435  290,620  C  286.449,605  263.75,560  263.75,500  C  263.75,375.088  290,300.14  290,250.175  C  273.75,250.175  260.456,244.092  245.77,229.406  C  231.084,214.72  225,170.951  225.039,140.088  C  225.039,140.088  180,135.088  135.438,135.088  L  -135.438,135.088  C  -180,135.088  -225.039,140.088  -225.039,140.088  C  -225,170.951  -231.084,214.72  -245.77,229.406  C  -260.456,244.092  -273.75,250.175  -290,250.175  C  -290,300.14  -263.75,375.088  -263.75,500  C  -263.75,560  -286.449,605  -290,620  C  -294.838,640.435  -295,669  -295,690  L  -295,770  C  -295,770  -265.5,770  -265.5,770  L  0,770  L  265.5,770  C  265.5,770  295,770  295,770  C  295,770  295,690  295,690  z " />
<path transform="translate( 0, -20.1 )" style="stroke: hsl(242.1, 55%, 50%);" id="1875"  d=" M  295,770  L  295,690  C  295,669  294.838,640.435  290,620  C  286.449,605  263.75,560  263.75,500  C  263.75,377.6  290,304.16  290,255.2  C  273.75,255.2  260.731,249.069  245.931,234.269  C  231.131,219.469  225,174.3  225.037,142.6  C  225.037,142.6  180,137.6  135.438,137.6  L  -135.438,137.6  C  -180,137.6  -225.037,142.6  -225.037,142.6  C  -225,174.3  -231.131,219.469  -245.931,234.269  C  -260.731,249.069  -273.75,255.2  -290,255.2  C  -290,304.16  -263.75,377.6  -263.75,500  C  -263.75,560  -286.449,605  -290,620  C  -294.838,640.435  -295,669  -295,690  L  -295,770  C  -295,770  -265.5,770  -265.5,770  L  0,770  L  265.5,770  C  265.5,770  295,770  295,770  C  295,770  295,690  295,690  z " />
<path transform="translate( 0, -22.613 )" style="stroke: hsl(269, 55%, 50%);" id="2084"  d=" M  295,770  L  295,690  C  295,669  294.838,640.435  290,620  C  286.449,605  263.75,560  263.75,500  C  263.75,380.113  290,308.18  290,260.225  C  273.75,260.225  260.999,254.048  246.088,239.137  C  231.177,224.226  225,177.651  225.036,145.113  C  225.036,145.113  180,140.113  135.438,140.113  L  -135.438,140.113  C  -180,140.113  -225.036,145.113  -225.036,145.113  C  -225,177.651  -231.177,224.226  -246.088,239.137  C  -260.999,254.048  -273.75,260.225  -290,260.225  C  -290,308.18  -263.75,380.113  -263.75,500  C  -263.75,560  -286.449,605  -290,620  C  -294.838,640.435  -295,669  -295,690  L  -295,770  C  -295,770  -265.5,770  -265.5,770  L  0,770  L  265.5,770  C  265.5,770  295,770  295,770  C  295,770  295,690  295,690  z " />
<path transform="translate( 0, -25.125 )" style="stroke: hsl(295.9, 55%, 50%);" id="2293"  d=" M  295,770  L  295,690  C  295,669  294.838,640.435  290,620  C  286.449,605  263.75,560  263.75,500  C  263.75,382.625  290,312.2  290,265.25  C  273.75,265.25  261.261,259.029  246.241,244.009  C  231.221,228.989  225,181  225.035,147.625  C  225.035,147.625  180,142.625  135.438,142.625  L  -135.438,142.625  C  -180,142.625  -225.035,147.625  -225.035,147.625  C  -225,181  -231.221,228.989  -246.241,244.009  C  -261.261,259.029  -273.75,265.25  -290,265.25  C  -290,312.2  -263.75,382.625  -263.75,500  C  -263.75,560  -286.449,605  -290,620  C  -294.838,640.435  -295,669  -295,690  L  -295,770  C  -295,770  -265.5,770  -265.5,770  L  0,770  L  265.5,770  C  265.5,770  295,770  295,770  C  295,770  295,690  295,690  z " />
    </g>
    <!-- End of group #back -->
    
    <!-- Start of group #sleeve -->
    <g id="sleeve"  transform=" translate(194.91 37.052)  translate(727.5 0) " >
        <path class="hidden" id="6"  d=" M  -189.91,-32.052  L  189.91,-32.052  L  189.91,763  L  -189.91,763  z " />
<path transform="translate( 0, 0 )" style="stroke: hsl(26.9, 55%, 50%);" id="204"  d=" M  -154.988,142.249  C  -154.988,142.249  -126.122,116.442  -112.455,100.599  C  -98.788,84.756  -77.494,52.416  -77.494,52.416  C  -77.494,52.416  -64.482,25.505  -47.151,13.783  C  -29.82,2.061  -20.923,-0  5,0  C  20.923,0  39.6,2.659  55.801,15.899  C  72.002,29.139  82.494,67.416  82.494,67.416  C  82.494,67.416  93.409,100.242  107.967,115.27  C  122.525,130.298  154.988,142.249  154.988,142.249  L  142.5,760  C  142.5,760  111.875,763  81.25,763  C  65.827,762.471  50.625,761.845  50.625,761.845  L  30.625,761.845  C  10.302,761.009  0,760  0,760  L  -20,760  C  -20,760  -50.625,757  -81.25,757  C  -111.875,757  -142.5,760  -142.5,760  z " />
<path transform="translate( 0, -3.266 )" style="stroke: hsl(53.8, 55%, 50%);" id="413"  d=" M  -158.546,145.515  C  -158.546,145.515  -129.093,118.99  -115.122,102.774  C  -101.151,86.558  -79.273,53.505  -79.273,53.505  C  -79.273,53.505  -65.77,26.294  -48.029,14.32  C  -30.288,2.346  -21.404,-0  5,0  C  21.404,0  40.036,2.905  56.645,16.406  C  73.254,29.907  84.273,68.505  84.273,68.505  C  84.273,68.505  95.754,102.017  110.613,117.423  C  125.472,132.829  158.546,145.515  158.546,145.515  L  142.5,760  C  142.5,760  111.875,763  81.25,763  C  65.827,762.471  50.625,761.845  50.625,761.845  L  30.625,761.845  C  10.302,761.009  0,760  0,760  L  -20,760  C  -20,760  -50.625,757  -81.25,757  C  -111.875,757  -142.5,760  -142.5,760  z " />
<path transform="translate( 0, -6.22 )" style="stroke: hsl(80.7, 55%, 50%);" id="622"  d=" M  -161.765,148.469  C  -161.765,148.469  -131.779,121.294  -117.534,104.742  C  -103.289,88.19  -80.883,54.49  -80.883,54.49  C  -80.883,54.49  -66.934,27.006  -48.823,14.805  C  -30.712,2.604  -21.838,-0  5,0  C  21.838,0  40.432,3.129  57.409,16.865  C  74.386,30.601  85.883,69.49  85.883,69.49  C  85.883,69.49  97.877,103.625  113.007,119.372  C  128.137,135.119  161.765,148.469  161.765,148.469  L  142.5,760  C  142.5,760  111.875,763  81.25,763  C  65.827,762.471  50.625,761.845  50.625,761.845  L  30.625,761.845  C  10.302,761.009  0,760  0,760  L  -20,760  C  -20,760  -50.625,757  -81.25,757  C  -111.875,757  -142.5,760  -142.5,760  z " />
<path transform="translate( 0, -9.235 )" style="stroke: hsl(107.6, 55%, 50%);" id="831"  d=" M  -165.05,151.484  C  -165.05,151.484  -134.523,123.646  -119.997,106.75  C  -105.471,89.854  -82.525,55.495  -82.525,55.495  C  -82.525,55.495  -68.123,27.735  -49.633,15.301  C  -31.143,2.867  -22.282,-0  5,0  C  22.282,0  40.837,3.359  58.19,17.336  C  75.543,31.313  87.525,70.495  87.525,70.495  C  87.525,70.495  100.044,105.266  115.452,121.362  C  130.86,137.458  165.05,151.484  165.05,151.484  L  142.5,760  C  142.5,760  111.875,763  81.25,763  C  65.827,762.471  50.625,761.845  50.625,761.845  L  30.625,761.845  C  10.302,761.009  0,760  0,760  L  -20,760  C  -20,760  -50.625,757  -81.25,757  C  -111.875,757  -142.5,760  -142.5,760  z " />
<path transform="translate( 0, -13.047 )" style="stroke: hsl(134.5, 55%, 50%);" id="1040"  d=" M  -169.203,155.296  C  -169.203,155.296  -137.99,126.619  -123.109,109.288  C  -108.228,91.957  -84.602,56.765  -84.602,56.765  C  -84.602,56.765  -69.628,28.654  -50.659,15.927  C  -31.69,3.2  -22.843,-0  5,0  C  22.843,0  41.35,3.651  59.179,17.931  C  77.008,32.211  89.602,71.765  89.602,71.765  C  89.602,71.765  102.785,107.342  118.544,123.879  C  134.303,140.416  169.203,155.296  169.203,155.296  L  142.5,760  C  142.5,760  111.875,763  81.25,763  C  65.827,762.471  50.625,761.845  50.625,761.845  L  30.625,761.845  C  10.302,761.009  0,760  0,760  L  -20,760  C  -20,760  -50.625,757  -81.25,757  C  -111.875,757  -142.5,760  -142.5,760  z " />
<path transform="translate( 0, -16.311 )" style="stroke: hsl(161.4, 55%, 50%);" id="1249"  d=" M  -172.759,158.56  C  -172.759,158.56  -140.959,129.165  -125.775,111.462  C  -110.591,93.759  -86.38,57.853  -86.38,57.853  C  -86.38,57.853  -70.915,29.443  -51.537,16.464  C  -32.159,3.485  -23.323,-0  5,0  C  23.323,0  41.791,3.904  60.028,18.443  C  78.265,32.982  91.38,72.853  91.38,72.853  C  91.38,72.853  105.133,109.122  121.192,126.035  C  137.251,142.948  172.759,158.56  172.759,158.56  L  142.5,760  C  142.5,760  111.875,763  81.25,763  C  65.827,762.471  50.625,761.845  50.625,761.845  L  30.625,761.845  C  10.302,761.009  0,760  0,760  L  -20,760  C  -20,760  -50.625,757  -81.25,757  C  -111.875,757  -142.5,760  -142.5,760  z " />
<path transform="translate( 0, -19.579 )" style="stroke: hsl(188.3, 55%, 50%);" id="1458"  d=" M  -176.32,161.828  C  -176.32,161.828  -143.931,131.714  -128.443,113.639  C  -112.955,95.564  -88.16,58.943  -88.16,58.943  C  -88.16,58.943  -72.205,30.232  -52.417,17.002  C  -32.629,3.772  -23.803,-0  5,0  C  23.803,0  42.235,4.159  60.879,18.957  C  79.523,33.755  93.16,73.943  93.16,73.943  C  93.16,73.943  107.485,110.906  123.845,128.196  C  140.205,145.486  176.32,161.828  176.32,161.828  L  142.5,760  C  142.5,760  111.875,763  81.25,763  C  65.827,762.471  50.625,761.845  50.625,761.845  L  30.625,761.845  C  10.302,761.009  0,760  0,760  L  -20,760  C  -20,760  -50.625,757  -81.25,757  C  -111.875,757  -142.5,760  -142.5,760  z " />
<path transform="translate( 0, -22.848 )" style="stroke: hsl(215.2, 55%, 50%);" id="1667"  d=" M  -179.882,165.097  C  -179.882,165.097  -146.906,134.265  -131.114,115.817  C  -115.322,97.369  -89.941,60.032  -89.941,60.032  C  -89.941,60.032  -73.496,31.021  -53.298,17.54  C  -33.1,4.059  -24.284,-0  5,0  C  24.284,0  42.68,4.414  61.732,19.471  C  80.784,34.528  94.941,75.032  94.941,75.032  C  94.941,75.032  109.839,112.69  126.5,130.357  C  143.161,148.024  179.882,165.097  179.882,165.097  L  142.5,760  C  142.5,760  111.875,763  81.25,763  C  65.827,762.471  50.625,761.845  50.625,761.845  L  30.625,761.845  C  10.302,761.009  0,760  0,760  L  -20,760  C  -20,760  -50.625,757  -81.25,757  C  -111.875,757  -142.5,760  -142.5,760  z " />
<path transform="translate( 0, -26.116 )" style="stroke: hsl(242.1, 55%, 50%);" id="1876"  d=" M  -183.442,168.365  C  -183.442,168.365  -149.878,136.814  -133.782,117.994  C  -117.686,99.174  -91.721,61.122  -91.721,61.122  C  -91.721,61.122  -74.787,31.812  -54.179,18.079  C  -33.571,4.346  -24.765,-0  5,0  C  24.765,0  43.125,4.671  62.586,19.987  C  82.047,35.303  96.721,76.122  96.721,76.122  C  96.721,76.122  112.19,114.475  129.153,132.518  C  146.116,150.561  183.442,168.365  183.442,168.365  L  142.5,760  C  142.5,760  111.875,763  81.25,763  C  65.827,762.471  50.625,761.845  50.625,761.845  L  30.625,761.845  C  10.302,761.009  0,760  0,760  L  -20,760  C  -20,760  -50.625,757  -81.25,757  C  -111.875,757  -142.5,760  -142.5,760  z " />
<path transform="translate( 0, -29.397 )" style="stroke: hsl(269, 55%, 50%);" id="2085"  d=" M  -187.017,171.646  C  -187.017,171.646  -152.863,139.373  -136.462,120.179  C  -120.061,100.985  -93.509,62.215  -93.509,62.215  C  -93.509,62.215  -76.084,32.605  -55.064,18.62  C  -34.044,4.635  -25.247,-0  5,0  C  25.247,0  43.574,4.931  63.444,20.506  C  83.314,36.081  98.509,77.215  98.509,77.215  C  98.509,77.215  114.554,116.268  131.819,134.689  C  149.084,153.11  187.017,171.646  187.017,171.646  L  142.5,760  C  142.5,760  111.875,763  81.25,763  C  65.827,762.471  50.625,761.845  50.625,761.845  L  30.625,761.845  C  10.302,761.009  0,760  0,760  L  -20,760  C  -20,760  -50.625,757  -81.25,757  C  -111.875,757  -142.5,760  -142.5,760  z " />
<path transform="translate( 0, -32.052 )" style="stroke: hsl(295.9, 55%, 50%);" id="2294"  d=" M  -189.91,174.301  C  -189.91,174.301  -155.28,141.445  -138.631,121.948  C  -121.982,102.451  -94.955,63.1  -94.955,63.1  C  -94.955,63.1  -77.133,33.247  -55.78,19.057  C  -34.427,4.867  -25.638,-0  5,0  C  25.638,0  43.937,5.141  64.139,20.926  C  84.341,36.711  99.955,78.1  99.955,78.1  C  99.955,78.1  116.466,117.719  133.977,136.446  C  151.488,155.173  189.91,174.301  189.91,174.301  L  142.5,760  C  142.5,760  111.875,763  81.25,763  C  65.827,762.471  50.625,761.845  50.625,761.845  L  30.625,761.845  C  10.302,761.009  0,760  0,760  L  -20,760  C  -20,760  -50.625,757  -81.25,757  C  -111.875,757  -142.5,760  -142.5,760  z " />
    </g>
    <!-- End of group #sleeve -->
    
    <!-- Start of group #collarStand -->
    <g id="collarStand"  transform=" translate(232.46 10)  translate(0 830.25) " >
        <path class="hidden" id="7"  d=" M  -227.46,-5  L  234.932,-5  L  234.932,35  L  -227.46,35  z " />
<path transform="translate( 0, 0 )" style="stroke: hsl(26.9, 55%, 50%);" id="205"  d=" M  0,30  C  86.389,30  129.584,35  161.98,35  C  205.174,35  207.536,33.305  217.498,32.433  L  234.932,30.908  C  233.407,13.475  231.881,-3.959  214.448,-2.433  C  204.486,-1.561  205.174,0  161.98,0  C  129.584,0  86.389,-5  0,-5  C  -86.389,-5  -129.584,0  -161.98,0  C  -205.174,0  -204.486,-1.561  -214.448,-2.433  C  -224.41,-3.305  -225.935,14.129  -227.46,31.562  L  -217.498,32.433  C  -207.536,33.305  -205.174,35  -161.98,35  C  -129.584,35  -86.389,30  0,30  z " />
<path transform="translate( 0, 0 )" style="stroke: hsl(53.8, 55%, 50%);" id="414"  d=" M  0,30  C  86.389,30  129.584,35  161.98,35  C  205.174,35  207.536,33.305  217.498,32.433  L  234.932,30.908  C  233.407,13.475  231.881,-3.959  214.448,-2.433  C  204.486,-1.561  205.174,0  161.98,0  C  129.584,0  86.389,-5  0,-5  C  -86.389,-5  -129.584,0  -161.98,0  C  -205.174,0  -204.486,-1.561  -214.448,-2.433  C  -224.41,-3.305  -225.935,14.129  -227.46,31.562  L  -217.498,32.433  C  -207.536,33.305  -205.174,35  -161.98,35  C  -129.584,35  -86.389,30  0,30  z " />
<path transform="translate( 0, 0 )" style="stroke: hsl(80.7, 55%, 50%);" id="623"  d=" M  0,30  C  86.389,30  129.584,35  161.98,35  C  205.174,35  207.536,33.305  217.498,32.433  L  234.932,30.908  C  233.407,13.475  231.881,-3.959  214.448,-2.433  C  204.486,-1.561  205.174,0  161.98,0  C  129.584,0  86.389,-5  0,-5  C  -86.389,-5  -129.584,0  -161.98,0  C  -205.174,0  -204.486,-1.561  -214.448,-2.433  C  -224.41,-3.305  -225.935,14.129  -227.46,31.562  L  -217.498,32.433  C  -207.536,33.305  -205.174,35  -161.98,35  C  -129.584,35  -86.389,30  0,30  z " />
<path transform="translate( 0, 0 )" style="stroke: hsl(107.6, 55%, 50%);" id="832"  d=" M  0,30  C  86.389,30  129.584,35  161.98,35  C  205.174,35  207.536,33.305  217.498,32.433  L  234.932,30.908  C  233.407,13.475  231.881,-3.959  214.448,-2.433  C  204.486,-1.561  205.174,0  161.98,0  C  129.584,0  86.389,-5  0,-5  C  -86.389,-5  -129.584,0  -161.98,0  C  -205.174,0  -204.486,-1.561  -214.448,-2.433  C  -224.41,-3.305  -225.935,14.129  -227.46,31.562  L  -217.498,32.433  C  -207.536,33.305  -205.174,35  -161.98,35  C  -129.584,35  -86.389,30  0,30  z " />
<path transform="translate( 0, 0 )" style="stroke: hsl(134.5, 55%, 50%);" id="1041"  d=" M  0,30  C  86.389,30  129.584,35  161.98,35  C  205.174,35  207.536,33.305  217.498,32.433  L  234.932,30.908  C  233.407,13.475  231.881,-3.959  214.448,-2.433  C  204.486,-1.561  205.174,0  161.98,0  C  129.584,0  86.389,-5  0,-5  C  -86.389,-5  -129.584,0  -161.98,0  C  -205.174,0  -204.486,-1.561  -214.448,-2.433  C  -224.41,-3.305  -225.935,14.129  -227.46,31.562  L  -217.498,32.433  C  -207.536,33.305  -205.174,35  -161.98,35  C  -129.584,35  -86.389,30  0,30  z " />
<path transform="translate( 0, 0 )" style="stroke: hsl(161.4, 55%, 50%);" id="1250"  d=" M  0,30  C  86.389,30  129.584,35  161.98,35  C  205.174,35  207.536,33.305  217.498,32.433  L  234.932,30.908  C  233.407,13.475  231.881,-3.959  214.448,-2.433  C  204.486,-1.561  205.174,0  161.98,0  C  129.584,0  86.389,-5  0,-5  C  -86.389,-5  -129.584,0  -161.98,0  C  -205.174,0  -204.486,-1.561  -214.448,-2.433  C  -224.41,-3.305  -225.935,14.129  -227.46,31.562  L  -217.498,32.433  C  -207.536,33.305  -205.174,35  -161.98,35  C  -129.584,35  -86.389,30  0,30  z " />
<path transform="translate( 0, 0 )" style="stroke: hsl(188.3, 55%, 50%);" id="1459"  d=" M  0,30  C  86.389,30  129.584,35  161.98,35  C  205.174,35  207.536,33.305  217.498,32.433  L  234.932,30.908  C  233.407,13.475  231.881,-3.959  214.448,-2.433  C  204.486,-1.561  205.174,0  161.98,0  C  129.584,0  86.389,-5  0,-5  C  -86.389,-5  -129.584,0  -161.98,0  C  -205.174,0  -204.486,-1.561  -214.448,-2.433  C  -224.41,-3.305  -225.935,14.129  -227.46,31.562  L  -217.498,32.433  C  -207.536,33.305  -205.174,35  -161.98,35  C  -129.584,35  -86.389,30  0,30  z " />
<path transform="translate( 0, 0 )" style="stroke: hsl(215.2, 55%, 50%);" id="1668"  d=" M  0,30  C  86.389,30  129.584,35  161.98,35  C  205.174,35  207.536,33.305  217.498,32.433  L  234.932,30.908  C  233.407,13.475  231.881,-3.959  214.448,-2.433  C  204.486,-1.561  205.174,0  161.98,0  C  129.584,0  86.389,-5  0,-5  C  -86.389,-5  -129.584,0  -161.98,0  C  -205.174,0  -204.486,-1.561  -214.448,-2.433  C  -224.41,-3.305  -225.935,14.129  -227.46,31.562  L  -217.498,32.433  C  -207.536,33.305  -205.174,35  -161.98,35  C  -129.584,35  -86.389,30  0,30  z " />
<path transform="translate( 0, 0 )" style="stroke: hsl(242.1, 55%, 50%);" id="1877"  d=" M  0,30  C  86.389,30  129.584,35  161.98,35  C  205.174,35  207.536,33.305  217.498,32.433  L  234.932,30.908  C  233.407,13.475  231.881,-3.959  214.448,-2.433  C  204.486,-1.561  205.174,0  161.98,0  C  129.584,0  86.389,-5  0,-5  C  -86.389,-5  -129.584,0  -161.98,0  C  -205.174,0  -204.486,-1.561  -214.448,-2.433  C  -224.41,-3.305  -225.935,14.129  -227.46,31.562  L  -217.498,32.433  C  -207.536,33.305  -205.174,35  -161.98,35  C  -129.584,35  -86.389,30  0,30  z " />
<path transform="translate( 0, 0 )" style="stroke: hsl(269, 55%, 50%);" id="2086"  d=" M  0,30  C  86.389,30  129.584,35  161.98,35  C  205.174,35  207.536,33.305  217.498,32.433  L  234.932,30.908  C  233.407,13.475  231.881,-3.959  214.448,-2.433  C  204.486,-1.561  205.174,0  161.98,0  C  129.584,0  86.389,-5  0,-5  C  -86.389,-5  -129.584,0  -161.98,0  C  -205.174,0  -204.486,-1.561  -214.448,-2.433  C  -224.41,-3.305  -225.935,14.129  -227.46,31.562  L  -217.498,32.433  C  -207.536,33.305  -205.174,35  -161.98,35  C  -129.584,35  -86.389,30  0,30  z " />
<path transform="translate( 0, 0 )" style="stroke: hsl(295.9, 55%, 50%);" id="2295"  d=" M  0,30  C  86.389,30  129.584,35  161.98,35  C  205.174,35  207.536,33.305  217.498,32.433  L  234.932,30.908  C  233.407,13.475  231.881,-3.959  214.448,-2.433  C  204.486,-1.561  205.174,0  161.98,0  C  129.584,0  86.389,-5  0,-5  C  -86.389,-5  -129.584,0  -161.98,0  C  -205.174,0  -204.486,-1.561  -214.448,-2.433  C  -224.41,-3.305  -225.935,14.129  -227.46,31.562  L  -217.498,32.433  C  -207.536,33.305  -205.174,35  -161.98,35  C  -129.584,35  -86.389,30  0,30  z " />
    </g>
    <!-- End of group #collarStand -->
    
    <!-- Start of group #collar -->
    <g id="collar"  transform=" translate(214.741 72)  translate(0 880.25) " >
        <path class="hidden" id="8"  d=" M  -209.741,-67  L  209.741,-67  L  209.741,0  L  -209.741,0  z " />
<path transform="translate( 0, 0 )" style="stroke: hsl(26.9, 55%, 50%);" id="206"  d=" M  0,-15  C  173.104,-15  203.88,0  203.88,0  L  209.741,-67  C  209.741,-67  151.466,-57  104.871,-57  L  -104.871,-57  C  -151.466,-57  -209.741,-67  -209.741,-67  L  -203.88,0  C  -203.88,0  -173.104,-15  0,-15  z " />
<path transform="translate( 0, 0 )" style="stroke: hsl(53.8, 55%, 50%);" id="415"  d=" M  0,-15  C  173.104,-15  203.88,0  203.88,0  L  209.741,-67  C  209.741,-67  151.466,-57  104.871,-57  L  -104.871,-57  C  -151.466,-57  -209.741,-67  -209.741,-67  L  -203.88,0  C  -203.88,0  -173.104,-15  0,-15  z " />
<path transform="translate( 0, 0 )" style="stroke: hsl(80.7, 55%, 50%);" id="624"  d=" M  0,-15  C  173.104,-15  203.88,0  203.88,0  L  209.741,-67  C  209.741,-67  151.466,-57  104.871,-57  L  -104.871,-57  C  -151.466,-57  -209.741,-67  -209.741,-67  L  -203.88,0  C  -203.88,0  -173.104,-15  0,-15  z " />
<path transform="translate( 0, 0 )" style="stroke: hsl(107.6, 55%, 50%);" id="833"  d=" M  0,-15  C  173.104,-15  203.88,0  203.88,0  L  209.741,-67  C  209.741,-67  151.466,-57  104.871,-57  L  -104.871,-57  C  -151.466,-57  -209.741,-67  -209.741,-67  L  -203.88,0  C  -203.88,0  -173.104,-15  0,-15  z " />
<path transform="translate( 0, 0 )" style="stroke: hsl(134.5, 55%, 50%);" id="1042"  d=" M  0,-15  C  173.104,-15  203.88,0  203.88,0  L  209.741,-67  C  209.741,-67  151.466,-57  104.871,-57  L  -104.871,-57  C  -151.466,-57  -209.741,-67  -209.741,-67  L  -203.88,0  C  -203.88,0  -173.104,-15  0,-15  z " />
<path transform="translate( 0, 0 )" style="stroke: hsl(161.4, 55%, 50%);" id="1251"  d=" M  0,-15  C  173.104,-15  203.88,0  203.88,0  L  209.741,-67  C  209.741,-67  151.466,-57  104.871,-57  L  -104.871,-57  C  -151.466,-57  -209.741,-67  -209.741,-67  L  -203.88,0  C  -203.88,0  -173.104,-15  0,-15  z " />
<path transform="translate( 0, 0 )" style="stroke: hsl(188.3, 55%, 50%);" id="1460"  d=" M  0,-15  C  173.104,-15  203.88,0  203.88,0  L  209.741,-67  C  209.741,-67  151.466,-57  104.871,-57  L  -104.871,-57  C  -151.466,-57  -209.741,-67  -209.741,-67  L  -203.88,0  C  -203.88,0  -173.104,-15  0,-15  z " />
<path transform="translate( 0, 0 )" style="stroke: hsl(215.2, 55%, 50%);" id="1669"  d=" M  0,-15  C  173.104,-15  203.88,0  203.88,0  L  209.741,-67  C  209.741,-67  151.466,-57  104.871,-57  L  -104.871,-57  C  -151.466,-57  -209.741,-67  -209.741,-67  L  -203.88,0  C  -203.88,0  -173.104,-15  0,-15  z " />
<path transform="translate( 0, 0 )" style="stroke: hsl(242.1, 55%, 50%);" id="1878"  d=" M  0,-15  C  173.104,-15  203.88,0  203.88,0  L  209.741,-67  C  209.741,-67  151.466,-57  104.871,-57  L  -104.871,-57  C  -151.466,-57  -209.741,-67  -209.741,-67  L  -203.88,0  C  -203.88,0  -173.104,-15  0,-15  z " />
<path transform="translate( 0, 0 )" style="stroke: hsl(269, 55%, 50%);" id="2087"  d=" M  0,-15  C  173.104,-15  203.88,0  203.88,0  L  209.741,-67  C  209.741,-67  151.466,-57  104.871,-57  L  -104.871,-57  C  -151.466,-57  -209.741,-67  -209.741,-67  L  -203.88,0  C  -203.88,0  -173.104,-15  0,-15  z " />
<path transform="translate( 0, 0 )" style="stroke: hsl(295.9, 55%, 50%);" id="2296"  d=" M  0,-15  C  173.104,-15  203.88,0  203.88,0  L  209.741,-67  C  209.741,-67  151.466,-57  104.871,-57  L  -104.871,-57  C  -151.466,-57  -209.741,-67  -209.741,-67  L  -203.88,0  C  -203.88,0  -173.104,-15  0,-15  z " />
    </g>
    <!-- End of group #collar -->
    
    <!-- Start of group #undercollar -->
    <g id="undercollar"  transform=" translate(214.741 72)  translate(429.482 880.25) " >
        <path class="hidden" id="9"  d=" M  -209.741,-67  L  209.741,-67  L  209.741,0  L  -209.741,0  z " />
<path transform="translate( 0, 0 )" style="stroke: hsl(26.9, 55%, 50%);" id="207"  d=" M  203.88,0  L  209.741,-67  C  209.741,-67  151.466,-57  104.871,-57  L  -104.871,-57  C  -151.466,-57  -209.741,-67  -209.741,-67  L  -203.88,0  C  -203.88,0  -173.104,-17  0,-18  C  173.104,-17  203.88,0  203.88,0  z " />
<path transform="translate( 0, 0 )" style="stroke: hsl(53.8, 55%, 50%);" id="416"  d=" M  203.88,0  L  209.741,-67  C  209.741,-67  151.466,-57  104.871,-57  L  -104.871,-57  C  -151.466,-57  -209.741,-67  -209.741,-67  L  -203.88,0  C  -203.88,0  -173.104,-17  0,-18  C  173.104,-17  203.88,0  203.88,0  z " />
<path transform="translate( 0, 0 )" style="stroke: hsl(80.7, 55%, 50%);" id="625"  d=" M  203.88,0  L  209.741,-67  C  209.741,-67  151.466,-57  104.871,-57  L  -104.871,-57  C  -151.466,-57  -209.741,-67  -209.741,-67  L  -203.88,0  C  -203.88,0  -173.104,-17  0,-18  C  173.104,-17  203.88,0  203.88,0  z " />
<path transform="translate( 0, 0 )" style="stroke: hsl(107.6, 55%, 50%);" id="834"  d=" M  203.88,0  L  209.741,-67  C  209.741,-67  151.466,-57  104.871,-57  L  -104.871,-57  C  -151.466,-57  -209.741,-67  -209.741,-67  L  -203.88,0  C  -203.88,0  -173.104,-17  0,-18  C  173.104,-17  203.88,0  203.88,0  z " />
<path transform="translate( 0, 0 )" style="stroke: hsl(134.5, 55%, 50%);" id="1043"  d=" M  203.88,0  L  209.741,-67  C  209.741,-67  151.466,-57  104.871,-57  L  -104.871,-57  C  -151.466,-57  -209.741,-67  -209.741,-67  L  -203.88,0  C  -203.88,0  -173.104,-17  0,-18  C  173.104,-17  203.88,0  203.88,0  z " />
<path transform="translate( 0, 0 )" style="stroke: hsl(161.4, 55%, 50%);" id="1252"  d=" M  203.88,0  L  209.741,-67  C  209.741,-67  151.466,-57  104.871,-57  L  -104.871,-57  C  -151.466,-57  -209.741,-67  -209.741,-67  L  -203.88,0  C  -203.88,0  -173.104,-17  0,-18  C  173.104,-17  203.88,0  203.88,0  z " />
<path transform="translate( 0, 0 )" style="stroke: hsl(188.3, 55%, 50%);" id="1461"  d=" M  203.88,0  L  209.741,-67  C  209.741,-67  151.466,-57  104.871,-57  L  -104.871,-57  C  -151.466,-57  -209.741,-67  -209.741,-67  L  -203.88,0  C  -203.88,0  -173.104,-17  0,-18  C  173.104,-17  203.88,0  203.88,0  z " />
<path transform="translate( 0, 0 )" style="stroke: hsl(215.2, 55%, 50%);" id="1670"  d=" M  203.88,0  L  209.741,-67  C  209.741,-67  151.466,-57  104.871,-57  L  -104.871,-57  C  -151.466,-57  -209.741,-67  -209.741,-67  L  -203.88,0  C  -203.88,0  -173.104,-17  0,-18  C  173.104,-17  203.88,0  203.88,0  z " />
<path transform="translate( 0, 0 )" style="stroke: hsl(242.1, 55%, 50%);" id="1879"  d=" M  203.88,0  L  209.741,-67  C  209.741,-67  151.466,-57  104.871,-57  L  -104.871,-57  C  -151.466,-57  -209.741,-67  -209.741,-67  L  -203.88,0  C  -203.88,0  -173.104,-17  0,-18  C  173.104,-17  203.88,0  203.88,0  z " />
<path transform="translate( 0, 0 )" style="stroke: hsl(269, 55%, 50%);" id="2088"  d=" M  203.88,0  L  209.741,-67  C  209.741,-67  151.466,-57  104.871,-57  L  -104.871,-57  C  -151.466,-57  -209.741,-67  -209.741,-67  L  -203.88,0  C  -203.88,0  -173.104,-17  0,-18  C  173.104,-17  203.88,0  203.88,0  z " />
<path transform="translate( 0, 0 )" style="stroke: hsl(295.9, 55%, 50%);" id="2297"  d=" M  203.88,0  L  209.741,-67  C  209.741,-67  151.466,-57  104.871,-57  L  -104.871,-57  C  -151.466,-57  -209.741,-67  -209.741,-67  L  -203.88,0  C  -203.88,0  -173.104,-17  0,-18  C  173.104,-17  203.88,0  203.88,0  z " />
    </g>
    <!-- End of group #undercollar -->
    
    <!-- Start of group #sleevePlacketUnderlap -->
    <g id="sleevePlacketUnderlap"  transform=" translate(-5 5)  translate(472.392 830.25) " >
        <path class="hidden" id="10"  d=" M  10,0  L  196.25,0  L  196.25,36  L  10,36  z " />
<path transform="translate( 0, 0 )" style="stroke: hsl(26.9, 55%, 50%);" id="208"  d=" M  10,0  L  196.25,0  L  196.25,36  L  10,36  z " />
<path transform="translate( 0, 0 )" style="stroke: hsl(53.8, 55%, 50%);" id="417"  d=" M  10,0  L  196.25,0  L  196.25,36  L  10,36  z " />
<path transform="translate( 0, 0 )" style="stroke: hsl(80.7, 55%, 50%);" id="626"  d=" M  10,0  L  196.25,0  L  196.25,36  L  10,36  z " />
<path transform="translate( 0, 0 )" style="stroke: hsl(107.6, 55%, 50%);" id="835"  d=" M  10,0  L  196.25,0  L  196.25,36  L  10,36  z " />
<path transform="translate( 0, 0 )" style="stroke: hsl(134.5, 55%, 50%);" id="1044"  d=" M  10,0  L  196.25,0  L  196.25,36  L  10,36  z " />
<path transform="translate( 0, 0 )" style="stroke: hsl(161.4, 55%, 50%);" id="1253"  d=" M  10,0  L  196.25,0  L  196.25,36  L  10,36  z " />
<path transform="translate( 0, 0 )" style="stroke: hsl(188.3, 55%, 50%);" id="1462"  d=" M  10,0  L  196.25,0  L  196.25,36  L  10,36  z " />
<path transform="translate( 0, 0 )" style="stroke: hsl(215.2, 55%, 50%);" id="1671"  d=" M  10,0  L  196.25,0  L  196.25,36  L  10,36  z " />
<path transform="translate( 0, 0 )" style="stroke: hsl(242.1, 55%, 50%);" id="1880"  d=" M  10,0  L  196.25,0  L  196.25,36  L  10,36  z " />
<path transform="translate( 0, 0 )" style="stroke: hsl(269, 55%, 50%);" id="2089"  d=" M  10,0  L  196.25,0  L  196.25,36  L  10,36  z " />
<path transform="translate( 0, 0 )" style="stroke: hsl(295.9, 55%, 50%);" id="2298"  d=" M  10,0  L  196.25,0  L  196.25,36  L  10,36  z " />
    </g>
    <!-- End of group #sleevePlacketUnderlap -->
    
    <!-- Start of group #sleevePlacketOverlap -->
    <g id="sleevePlacketOverlap"  transform=" translate(-5 5)  translate(0 957.25) " >
        <path class="hidden" id="11"  d=" M  10,0  L  245,0  L  245,68  L  10,68  z " />
<path transform="translate( 0, 0 )" style="stroke: hsl(26.9, 55%, 50%);" id="209"  d=" M  10,0  L  245,0  L  245,41.333  L  226.25,41.333  L  211.25,49.667  L  198.75,49.667  L  198.75,68  L  10,68  z " />
<path transform="translate( 0, 0 )" style="stroke: hsl(53.8, 55%, 50%);" id="418"  d=" M  10,0  L  245,0  L  245,41.333  L  226.25,41.333  L  211.25,49.667  L  198.75,49.667  L  198.75,68  L  10,68  z " />
<path transform="translate( 0, 0 )" style="stroke: hsl(80.7, 55%, 50%);" id="627"  d=" M  10,0  L  245,0  L  245,41.333  L  226.25,41.333  L  211.25,49.667  L  198.75,49.667  L  198.75,68  L  10,68  z " />
<path transform="translate( 0, 0 )" style="stroke: hsl(107.6, 55%, 50%);" id="836"  d=" M  10,0  L  245,0  L  245,41.333  L  226.25,41.333  L  211.25,49.667  L  198.75,49.667  L  198.75,68  L  10,68  z " />
<path transform="translate( 0, 0 )" style="stroke: hsl(134.5, 55%, 50%);" id="1045"  d=" M  10,0  L  245,0  L  245,41.333  L  226.25,41.333  L  211.25,49.667  L  198.75,49.667  L  198.75,68  L  10,68  z " />
<path transform="translate( 0, 0 )" style="stroke: hsl(161.4, 55%, 50%);" id="1254"  d=" M  10,0  L  245,0  L  245,41.333  L  226.25,41.333  L  211.25,49.667  L  198.75,49.667  L  198.75,68  L  10,68  z " />
<path transform="translate( 0, 0 )" style="stroke: hsl(188.3, 55%, 50%);" id="1463"  d=" M  10,0  L  245,0  L  245,41.333  L  226.25,41.333  L  211.25,49.667  L  198.75,49.667  L  198.75,68  L  10,68  z " />
<path transform="translate( 0, 0 )" style="stroke: hsl(215.2, 55%, 50%);" id="1672"  d=" M  10,0  L  245,0  L  245,41.333  L  226.25,41.333  L  211.25,49.667  L  198.75,49.667  L  198.75,68  L  10,68  z " />
<path transform="translate( 0, 0 )" style="stroke: hsl(242.1, 55%, 50%);" id="1881"  d=" M  10,0  L  245,0  L  245,41.333  L  226.25,41.333  L  211.25,49.667  L  198.75,49.667  L  198.75,68  L  10,68  z " />
<path transform="translate( 0, 0 )" style="stroke: hsl(269, 55%, 50%);" id="2090"  d=" M  10,0  L  245,0  L  245,41.333  L  226.25,41.333  L  211.25,49.667  L  198.75,49.667  L  198.75,68  L  10,68  z " />
<path transform="translate( 0, 0 )" style="stroke: hsl(295.9, 55%, 50%);" id="2299"  d=" M  10,0  L  245,0  L  245,41.333  L  226.25,41.333  L  211.25,49.667  L  198.75,49.667  L  198.75,68  L  10,68  z " />
    </g>
    <!-- End of group #sleevePlacketOverlap -->
    
    <!-- Start of group #barrelCuff -->
    <g id="barrelCuff"  transform=" translate(127.5 5)  translate(858.964 880.25) " >
        <path class="hidden" id="12"  d=" M  -122.5,0  L  122.5,0  L  122.5,65  L  -122.5,65  z " />
<path transform="translate( 0, 0 )" style="stroke: hsl(26.9, 55%, 50%);" id="210"  d=" M  0,0  L  106.25,-0  L  122.5,16.25  L  122.5,65  L  -122.5,65  L  -122.5,16.25  L  -106.25,0  z " />
<path transform="translate( 0, 0 )" style="stroke: hsl(53.8, 55%, 50%);" id="419"  d=" M  0,0  L  106.25,-0  L  122.5,16.25  L  122.5,65  L  -122.5,65  L  -122.5,16.25  L  -106.25,0  z " />
<path transform="translate( 0, 0 )" style="stroke: hsl(80.7, 55%, 50%);" id="628"  d=" M  0,0  L  106.25,-0  L  122.5,16.25  L  122.5,65  L  -122.5,65  L  -122.5,16.25  L  -106.25,0  z " />
<path transform="translate( 0, 0 )" style="stroke: hsl(107.6, 55%, 50%);" id="837"  d=" M  0,0  L  106.25,-0  L  122.5,16.25  L  122.5,65  L  -122.5,65  L  -122.5,16.25  L  -106.25,0  z " />
<path transform="translate( 0, 0 )" style="stroke: hsl(134.5, 55%, 50%);" id="1046"  d=" M  0,0  L  106.25,-0  L  122.5,16.25  L  122.5,65  L  -122.5,65  L  -122.5,16.25  L  -106.25,0  z " />
<path transform="translate( 0, 0 )" style="stroke: hsl(161.4, 55%, 50%);" id="1255"  d=" M  0,0  L  106.25,-0  L  122.5,16.25  L  122.5,65  L  -122.5,65  L  -122.5,16.25  L  -106.25,0  z " />
<path transform="translate( 0, 0 )" style="stroke: hsl(188.3, 55%, 50%);" id="1464"  d=" M  0,0  L  106.25,-0  L  122.5,16.25  L  122.5,65  L  -122.5,65  L  -122.5,16.25  L  -106.25,0  z " />
<path transform="translate( 0, 0 )" style="stroke: hsl(215.2, 55%, 50%);" id="1673"  d=" M  0,0  L  106.25,-0  L  122.5,16.25  L  122.5,65  L  -122.5,65  L  -122.5,16.25  L  -106.25,0  z " />
<path transform="translate( 0, 0 )" style="stroke: hsl(242.1, 55%, 50%);" id="1882"  d=" M  0,0  L  106.25,-0  L  122.5,16.25  L  122.5,65  L  -122.5,65  L  -122.5,16.25  L  -106.25,0  z " />
<path transform="translate( 0, 0 )" style="stroke: hsl(269, 55%, 50%);" id="2091"  d=" M  0,0  L  106.25,-0  L  122.5,16.25  L  122.5,65  L  -122.5,65  L  -122.5,16.25  L  -106.25,0  z " />
<path transform="translate( 0, 0 )" style="stroke: hsl(295.9, 55%, 50%);" id="2300"  d=" M  0,0  L  106.25,-0  L  122.5,16.25  L  122.5,65  L  -122.5,65  L  -122.5,16.25  L  -106.25,0  z " />
    </g>
    <!-- End of group #barrelCuff -->
    
    <!-- Start of group #frenchCuff -->
    <g id="frenchCuff"  transform=" translate(0 0)  translate(1717.32 0) " >
    </g>
    <!-- End of group #frenchCuff -->
    
    <!-- Start of group #sampler-frontRight -->
    <g id="sampler-frontRight"  transform=" translate(0 0)  translate(1717.32 0) " >
    </g>
    <!-- End of group #sampler-frontRight -->
    
    <!-- Start of group #sampler-frontLeft -->
    <g id="sampler-frontLeft"  transform=" translate(0 0)  translate(1717.32 0) " >
    </g>
    <!-- End of group #sampler-frontLeft -->
    
    <!-- Start of group #sampler-yoke -->
    <g id="sampler-yoke"  transform=" translate(0 0)  translate(1717.32 0) " >
    </g>
    <!-- End of group #sampler-yoke -->
    
    <!-- Start of group #sampler-back -->
    <g id="sampler-back"  transform=" translate(0 0)  translate(1717.32 0) " >
    </g>
    <!-- End of group #sampler-back -->
    
    <!-- Start of group #sampler-sleeve -->
    <g id="sampler-sleeve"  transform=" translate(0 0)  translate(1717.32 0) " >
    </g>
    <!-- End of group #sampler-sleeve -->
    
    <!-- Start of group #sampler-collarStand -->
    <g id="sampler-collarStand"  transform=" translate(0 0)  translate(1717.32 0) " >
    </g>
    <!-- End of group #sampler-collarStand -->
    
    <!-- Start of group #sampler-collar -->
    <g id="sampler-collar"  transform=" translate(0 0)  translate(1717.32 0) " >
    </g>
    <!-- End of group #sampler-collar -->
    
    <!-- Start of group #sampler-undercollar -->
    <g id="sampler-undercollar"  transform=" translate(0 0)  translate(1717.32 0) " >
    </g>
    <!-- End of group #sampler-undercollar -->
    
    <!-- Start of group #sampler-sleevePlacketUnderlap -->
    <g id="sampler-sleevePlacketUnderlap"  transform=" translate(0 0)  translate(1717.32 0) " >
    </g>
    <!-- End of group #sampler-sleevePlacketUnderlap -->
    
    <!-- Start of group #sampler-sleevePlacketOverlap -->
    <g id="sampler-sleevePlacketOverlap"  transform=" translate(0 0)  translate(1717.32 0) " >
    </g>
    <!-- End of group #sampler-sleevePlacketOverlap -->
    
    <!-- Start of group #sampler-barrelCuff -->
    <g id="sampler-barrelCuff"  transform=" translate(0 0)  translate(1717.32 0) " >
    </g>
    <!-- End of group #sampler-barrelCuff -->
</g>
<!-- End of group #patternScaleContainer -->

</svg>

