<?xml version="1.0" encoding="UTF-8" standalone="no"?>
<svg
    width ="5950.2685096228"
    height ="3465.35433402"
    viewbox ="0 0 5950.2685096228 3465.35433402" xmlns:dc="http://purl.org/dc/elements/1.1/"
    xmlns:cc="http://creativecommons.org/ns#"
    xmlns:rdf="http://www.w3.org/1999/02/22-rdf-syntax-ns#"
    xmlns:svg="http://www.w3.org/2000/svg"
    xmlns="http://www.w3.org/2000/svg"
    xmlns:xlink="http://www.w3.org/1999/xlink"
    xmlns:sodipodi="http://sodipodi.sourceforge.net/DTD/sodipodi-0.dtd"
    xmlns:inkscape="http://www.inkscape.org/namespaces/inkscape" 
>

<style type="text/css">
    <![CDATA[
    path { fill: none; stroke: #000000; stroke-opacity:1; stroke-width: 0.5; stroke-miterlimit:4; stroke-dashoffset:0; stroke-linecap:round; stroke-linejoin:round; }
    path.hidden { fill: none; stroke: none; }]]>
</style>


<!-- Start of group #patternScaleContainer -->
<g id="patternScaleContainer"  transform=" scale(3.54330709 ) " >
    
    <!-- Start of group #backBlock -->
    <g id="backBlock"  transform=" translate(0 0)  translate(1679.298 0) " >
    </g>
    <!-- End of group #backBlock -->
    
    <!-- Start of group #frontBlock -->
    <g id="frontBlock"  transform=" translate(0 0)  translate(1679.298 0) " >
    </g>
    <!-- End of group #frontBlock -->
    
    <!-- Start of group #sleeveBlock -->
    <g id="sleeveBlock"  transform=" translate(0 0)  translate(1679.298 0) " >
    </g>
    <!-- End of group #sleeveBlock -->
    
    <!-- Start of group #block -->
    <g id="block"  transform=" translate(0 0)  translate(1679.298 0) " >
    </g>
    <!-- End of group #block -->
    
    <!-- Start of group #frontAndBackBlock -->
    <g id="frontAndBackBlock"  transform=" translate(0 0)  translate(1679.298 0) " >
    </g>
    <!-- End of group #frontAndBackBlock -->
    
    <!-- Start of group #frontRight -->
    <g id="frontRight"  transform=" translate(300 5)  translate(336.798 0) " >
        <path class="hidden" id="2"  d=" M  -295,0  L  45,0  L  45,750  L  -295,750  z " />
<path transform="translate( 0, 0 )" style="stroke: hsl(26.9, 55%, 50%);" id="200"  d=" M  -290,228.5  C  -273.75,228.5  -260.363,222.433  -245.715,207.785  C  -231.067,193.137  -220,143.167  -220,114.25  C  -220,85.333  -233.338,37.361  -235,27.5  L  -71.847,0  C  -71.847,0  -71.847,109.662  0,109.662  L  10,109.662  C  11.437,109.662  12.845,109.618  15,109.479  L  15,109.662  L  15,750  L  -264,750  C  -264,750  -295,750  -295,750  C  -295,750  -295,670  -295,670  C  -295,649  -294.838,620.435  -290,600  C  -286.449,585  -263.75,540  -263.75,480  C  -263.75,354.25  -290,259.937  -290,228.5 " />
<path transform="translate( 0, 0 )" style="stroke: hsl(53.8, 55%, 50%);" id="409"  d=" M  -290,228.5  C  -273.75,228.5  -260.363,222.433  -245.715,207.785  C  -231.067,193.137  -220,143.167  -220,114.25  C  -220,85.333  -233.338,37.361  -235,27.5  L  -71.847,0  C  -71.847,0  -71.847,109.662  0,109.662  L  12,109.662  C  14.155,109.662  16.246,109.563  18,109.397  L  18,109.662  L  18,750  L  -263.7,750  C  -263.7,750  -295,750  -295,750  C  -295,750  -295,670  -295,670  C  -295,649  -294.838,620.435  -290,600  C  -286.449,585  -263.75,540  -263.75,480  C  -263.75,354.25  -290,259.937  -290,228.5 " />
<path transform="translate( 0, 0 )" style="stroke: hsl(80.7, 55%, 50%);" id="618"  d=" M  -290,228.5  C  -273.75,228.5  -260.363,222.433  -245.715,207.785  C  -231.067,193.137  -220,143.167  -220,114.25  C  -220,85.333  -233.338,37.361  -235,27.5  L  -71.847,0  C  -71.847,0  -71.847,109.662  0,109.662  L  14,109.662  C  16.155,109.662  18.246,109.563  21,109.299  L  21,109.662  L  21,750  L  -263.4,750  C  -263.4,750  -295,750  -295,750  C  -295,750  -295,670  -295,670  C  -295,649  -294.838,620.435  -290,600  C  -286.449,585  -263.75,540  -263.75,480  C  -263.75,354.25  -290,259.937  -290,228.5 " />
<path transform="translate( 0, 0 )" style="stroke: hsl(107.6, 55%, 50%);" id="827"  d=" M  -290,228.5  C  -273.75,228.5  -260.363,222.433  -245.715,207.785  C  -231.067,193.137  -220,143.167  -220,114.25  C  -220,85.333  -233.338,37.361  -235,27.5  L  -71.847,0  C  -71.847,0  -71.847,109.662  0,109.662  L  16,109.662  C  18.874,109.662  21.633,109.487  24,109.185  L  24,109.662  L  24,750  L  -263.1,750  C  -263.1,750  -295,750  -295,750  C  -295,750  -295,670  -295,670  C  -295,649  -294.838,620.435  -290,600  C  -286.449,585  -263.75,540  -263.75,480  C  -263.75,354.25  -290,259.937  -290,228.5 " />
<path transform="translate( 0, 0 )" style="stroke: hsl(134.5, 55%, 50%);" id="1036"  d=" M  -290,228.5  C  -273.75,228.5  -260.363,222.433  -245.715,207.785  C  -231.067,193.137  -220,143.167  -220,114.25  C  -220,85.333  -233.338,37.361  -235,27.5  L  -71.847,0  C  -71.847,0  -71.847,109.662  0,109.662  L  18,109.662  C  20.874,109.662  23.633,109.487  27,109.054  L  27,109.662  L  27,750  L  -262.8,750  C  -262.8,750  -295,750  -295,750  C  -295,750  -295,670  -295,670  C  -295,649  -294.838,620.435  -290,600  C  -286.449,585  -263.75,540  -263.75,480  C  -263.75,354.25  -290,259.937  -290,228.5 " />
<path transform="translate( 0, 0 )" style="stroke: hsl(161.4, 55%, 50%);" id="1245"  d=" M  -290,228.5  C  -273.75,228.5  -260.363,222.433  -245.715,207.785  C  -231.067,193.137  -220,143.167  -220,114.25  C  -220,85.333  -233.338,37.361  -235,27.5  L  -71.847,0  C  -71.847,0  -71.847,109.662  0,109.662  L  20,109.662  C  23.592,109.662  27.005,109.388  30,108.906  L  30,109.662  L  30,750  L  -262.5,750  C  -262.5,750  -295,750  -295,750  C  -295,750  -295,670  -295,670  C  -295,649  -294.838,620.435  -290,600  C  -286.449,585  -263.75,540  -263.75,480  C  -263.75,354.25  -290,259.937  -290,228.5 " />
<path transform="translate( 0, 0 )" style="stroke: hsl(188.3, 55%, 50%);" id="1454"  d=" M  -290,228.5  C  -273.75,228.5  -260.363,222.433  -245.715,207.785  C  -231.067,193.137  -220,143.167  -220,114.25  C  -220,85.333  -233.338,37.361  -235,27.5  L  -71.847,0  C  -71.847,0  -71.847,109.662  0,109.662  L  22,109.662  C  25.592,109.662  29.005,109.388  33,108.741  L  33,109.662  L  33,750  L  -262.2,750  C  -262.2,750  -295,750  -295,750  C  -295,750  -295,670  -295,670  C  -295,649  -294.838,620.435  -290,600  C  -286.449,585  -263.75,540  -263.75,480  C  -263.75,354.25  -290,259.937  -290,228.5 " />
<path transform="translate( 0, 0 )" style="stroke: hsl(215.2, 55%, 50%);" id="1663"  d=" M  -290,228.5  C  -273.75,228.5  -260.363,222.433  -245.715,207.785  C  -231.067,193.137  -220,143.167  -220,114.25  C  -220,85.333  -233.338,37.361  -235,27.5  L  -71.847,0  C  -71.847,0  -71.847,109.662  0,109.662  L  24,109.662  C  28.311,109.662  32.363,109.267  36,108.558  L  36,109.662  L  36,750  L  -261.9,750  C  -261.9,750  -295,750  -295,750  C  -295,750  -295,670  -295,670  C  -295,649  -294.838,620.435  -290,600  C  -286.449,585  -263.75,540  -263.75,480  C  -263.75,354.25  -290,259.937  -290,228.5 " />
<path transform="translate( 0, 0 )" style="stroke: hsl(242.1, 55%, 50%);" id="1872"  d=" M  -290,228.5  C  -273.75,228.5  -260.363,222.433  -245.715,207.785  C  -231.067,193.137  -220,143.167  -220,114.25  C  -220,85.333  -233.338,37.361  -235,27.5  L  -71.847,0  C  -71.847,0  -71.847,109.662  0,109.662  L  26,109.662  C  30.311,109.662  34.363,109.267  39,108.357  L  39,109.662  L  39,750  L  -261.6,750  C  -261.6,750  -295,750  -295,750  C  -295,750  -295,670  -295,670  C  -295,649  -294.838,620.435  -290,600  C  -286.449,585  -263.75,540  -263.75,480  C  -263.75,354.25  -290,259.937  -290,228.5 " />
<path transform="translate( 0, 0 )" style="stroke: hsl(269, 55%, 50%);" id="2081"  d=" M  -290,228.5  C  -273.75,228.5  -260.363,222.433  -245.715,207.785  C  -231.067,193.137  -220,143.167  -220,114.25  C  -220,85.333  -233.338,37.361  -235,27.5  L  -71.847,0  C  -71.847,0  -71.847,109.662  0,109.662  L  28,109.662  C  33.029,109.662  37.707,109.125  42,108.138  L  42,109.662  L  42,750  L  -261.3,750  C  -261.3,750  -295,750  -295,750  C  -295,750  -295,670  -295,670  C  -295,649  -294.838,620.435  -290,600  C  -286.449,585  -263.75,540  -263.75,480  C  -263.75,354.25  -290,259.937  -290,228.5 " />
<path transform="translate( 0, 0 )" style="stroke: hsl(295.9, 55%, 50%);" id="2290"  d=" M  -290,228.5  C  -273.75,228.5  -260.363,222.433  -245.715,207.785  C  -231.067,193.137  -220,143.167  -220,114.25  C  -220,85.333  -233.338,37.361  -235,27.5  L  -71.847,0  C  -71.847,0  -71.847,109.662  0,109.662  L  30,109.662  C  35.748,109.662  41.036,108.96  45,107.9  L  45,109.662  L  45,750  L  -261,750  C  -261,750  -295,750  -295,750  C  -295,750  -295,670  -295,670  C  -295,649  -294.838,620.435  -290,600  C  -286.449,585  -263.75,540  -263.75,480  C  -263.75,354.25  -290,259.937  -290,228.5 " />
    </g>
    <!-- End of group #frontRight -->
    
    <!-- Start of group #frontLeft -->
    <g id="frontLeft"  transform=" translate(92.5 5)  translate(686.798 0) " >
        <path class="hidden" id="3"  d=" M  -87.5,0  L  295,0  L  295,750  L  -87.5,750  z " />
<path transform="translate( 0, 0 )" style="stroke: hsl(26.9, 55%, 50%);" id="201"  d=" M  290,228.5  C  273.75,228.5  260.363,222.433  245.715,207.785  C  231.067,193.137  220,143.167  220,114.25  C  220,85.333  233.338,37.361  235,27.5  L  71.847,0  C  71.847,0  71.847,109.662  0,109.662  L  -35,109.662  C  -47.35,108.774  -41.466,109.662  -52.5,107.219  C  -63.534,109.662  -57.65,108.774  -70,109.662  L  -87.5,109.662  L  -87.5,750  L  264,750  C  264,750  295,750  295,750  C  295,750  295,670  295,670  C  295,649  294.838,620.435  290,600  C  286.449,585  263.75,540  263.75,480  C  263.75,354.25  290,259.937  290,228.5 " />
<path transform="translate( 0, 0 )" style="stroke: hsl(53.8, 55%, 50%);" id="410"  d=" M  290,228.5  C  273.75,228.5  260.363,222.433  245.715,207.785  C  231.067,193.137  220,143.167  220,114.25  C  220,85.333  233.338,37.361  235,27.5  L  71.847,0  C  71.847,0  71.847,109.662  0,109.662  L  -35,109.662  C  -47.35,108.774  -41.466,109.662  -52.5,107.219  C  -63.534,109.662  -57.65,108.774  -70,109.662  L  -87.5,109.662  L  -87.5,750  L  263.7,750  C  263.7,750  295,750  295,750  C  295,750  295,670  295,670  C  295,649  294.838,620.435  290,600  C  286.449,585  263.75,540  263.75,480  C  263.75,354.25  290,259.937  290,228.5 " />
<path transform="translate( 0, 0 )" style="stroke: hsl(80.7, 55%, 50%);" id="619"  d=" M  290,228.5  C  273.75,228.5  260.363,222.433  245.715,207.785  C  231.067,193.137  220,143.167  220,114.25  C  220,85.333  233.338,37.361  235,27.5  L  71.847,0  C  71.847,0  71.847,109.662  0,109.662  L  -35,109.662  C  -47.35,108.774  -41.466,109.662  -52.5,107.219  C  -63.534,109.662  -57.65,108.774  -70,109.662  L  -87.5,109.662  L  -87.5,750  L  263.4,750  C  263.4,750  295,750  295,750  C  295,750  295,670  295,670  C  295,649  294.838,620.435  290,600  C  286.449,585  263.75,540  263.75,480  C  263.75,354.25  290,259.937  290,228.5 " />
<path transform="translate( 0, 0 )" style="stroke: hsl(107.6, 55%, 50%);" id="828"  d=" M  290,228.5  C  273.75,228.5  260.363,222.433  245.715,207.785  C  231.067,193.137  220,143.167  220,114.25  C  220,85.333  233.338,37.361  235,27.5  L  71.847,0  C  71.847,0  71.847,109.662  0,109.662  L  -35,109.662  C  -47.35,108.774  -41.466,109.662  -52.5,107.219  C  -63.534,109.662  -57.65,108.774  -70,109.662  L  -87.5,109.662  L  -87.5,750  L  263.1,750  C  263.1,750  295,750  295,750  C  295,750  295,670  295,670  C  295,649  294.838,620.435  290,600  C  286.449,585  263.75,540  263.75,480  C  263.75,354.25  290,259.937  290,228.5 " />
<path transform="translate( 0, 0 )" style="stroke: hsl(134.5, 55%, 50%);" id="1037"  d=" M  290,228.5  C  273.75,228.5  260.363,222.433  245.715,207.785  C  231.067,193.137  220,143.167  220,114.25  C  220,85.333  233.338,37.361  235,27.5  L  71.847,0  C  71.847,0  71.847,109.662  0,109.662  L  -35,109.662  C  -47.35,108.774  -41.466,109.662  -52.5,107.219  C  -63.534,109.662  -57.65,108.774  -70,109.662  L  -87.5,109.662  L  -87.5,750  L  262.8,750  C  262.8,750  295,750  295,750  C  295,750  295,670  295,670  C  295,649  294.838,620.435  290,600  C  286.449,585  263.75,540  263.75,480  C  263.75,354.25  290,259.937  290,228.5 " />
<path transform="translate( 0, 0 )" style="stroke: hsl(161.4, 55%, 50%);" id="1246"  d=" M  290,228.5  C  273.75,228.5  260.363,222.433  245.715,207.785  C  231.067,193.137  220,143.167  220,114.25  C  220,85.333  233.338,37.361  235,27.5  L  71.847,0  C  71.847,0  71.847,109.662  0,109.662  L  -35,109.662  C  -47.35,108.774  -41.466,109.662  -52.5,107.219  C  -63.534,109.662  -57.65,108.774  -70,109.662  L  -87.5,109.662  L  -87.5,750  L  262.5,750  C  262.5,750  295,750  295,750  C  295,750  295,670  295,670  C  295,649  294.838,620.435  290,600  C  286.449,585  263.75,540  263.75,480  C  263.75,354.25  290,259.937  290,228.5 " />
<path transform="translate( 0, 0 )" style="stroke: hsl(188.3, 55%, 50%);" id="1455"  d=" M  290,228.5  C  273.75,228.5  260.363,222.433  245.715,207.785  C  231.067,193.137  220,143.167  220,114.25  C  220,85.333  233.338,37.361  235,27.5  L  71.847,0  C  71.847,0  71.847,109.662  0,109.662  L  -35,109.662  C  -47.35,108.774  -41.466,109.662  -52.5,107.219  C  -63.534,109.662  -57.65,108.774  -70,109.662  L  -87.5,109.662  L  -87.5,750  L  262.2,750  C  262.2,750  295,750  295,750  C  295,750  295,670  295,670  C  295,649  294.838,620.435  290,600  C  286.449,585  263.75,540  263.75,480  C  263.75,354.25  290,259.937  290,228.5 " />
<path transform="translate( 0, 0 )" style="stroke: hsl(215.2, 55%, 50%);" id="1664"  d=" M  290,228.5  C  273.75,228.5  260.363,222.433  245.715,207.785  C  231.067,193.137  220,143.167  220,114.25  C  220,85.333  233.338,37.361  235,27.5  L  71.847,0  C  71.847,0  71.847,109.662  0,109.662  L  -35,109.662  C  -47.35,108.774  -41.466,109.662  -52.5,107.219  C  -63.534,109.662  -57.65,108.774  -70,109.662  L  -87.5,109.662  L  -87.5,750  L  261.9,750  C  261.9,750  295,750  295,750  C  295,750  295,670  295,670  C  295,649  294.838,620.435  290,600  C  286.449,585  263.75,540  263.75,480  C  263.75,354.25  290,259.937  290,228.5 " />
<path transform="translate( 0, 0 )" style="stroke: hsl(242.1, 55%, 50%);" id="1873"  d=" M  290,228.5  C  273.75,228.5  260.363,222.433  245.715,207.785  C  231.067,193.137  220,143.167  220,114.25  C  220,85.333  233.338,37.361  235,27.5  L  71.847,0  C  71.847,0  71.847,109.662  0,109.662  L  -35,109.662  C  -47.35,108.774  -41.466,109.662  -52.5,107.219  C  -63.534,109.662  -57.65,108.774  -70,109.662  L  -87.5,109.662  L  -87.5,750  L  261.6,750  C  261.6,750  295,750  295,750  C  295,750  295,670  295,670  C  295,649  294.838,620.435  290,600  C  286.449,585  263.75,540  263.75,480  C  263.75,354.25  290,259.937  290,228.5 " />
<path transform="translate( 0, 0 )" style="stroke: hsl(269, 55%, 50%);" id="2082"  d=" M  290,228.5  C  273.75,228.5  260.363,222.433  245.715,207.785  C  231.067,193.137  220,143.167  220,114.25  C  220,85.333  233.338,37.361  235,27.5  L  71.847,0  C  71.847,0  71.847,109.662  0,109.662  L  -35,109.662  C  -47.35,108.774  -41.466,109.662  -52.5,107.219  C  -63.534,109.662  -57.65,108.774  -70,109.662  L  -87.5,109.662  L  -87.5,750  L  261.3,750  C  261.3,750  295,750  295,750  C  295,750  295,670  295,670  C  295,649  294.838,620.435  290,600  C  286.449,585  263.75,540  263.75,480  C  263.75,354.25  290,259.937  290,228.5 " />
<path transform="translate( 0, 0 )" style="stroke: hsl(295.9, 55%, 50%);" id="2291"  d=" M  290,228.5  C  273.75,228.5  260.363,222.433  245.715,207.785  C  231.067,193.137  220,143.167  220,114.25  C  220,85.333  233.338,37.361  235,27.5  L  71.847,0  C  71.847,0  71.847,109.662  0,109.662  L  -35,109.662  C  -47.35,108.774  -41.466,109.662  -52.5,107.219  C  -63.534,109.662  -57.65,108.774  -70,109.662  L  -87.5,109.662  L  -87.5,750  L  261,750  C  261,750  295,750  295,750  C  295,750  295,670  295,670  C  295,649  294.838,620.435  290,600  C  286.449,585  263.75,540  263.75,480  C  263.75,354.25  290,259.937  290,228.5 " />
    </g>
    <!-- End of group #frontLeft -->
    
    <!-- Start of group #buttonPlacket -->
    <g id="buttonPlacket"  transform=" translate(0 0)  translate(1679.298 0) " >
    </g>
    <!-- End of group #buttonPlacket -->
    
    <!-- Start of group #buttonholePlacket -->
    <g id="buttonholePlacket"  transform=" translate(0 0)  translate(1679.298 0) " >
    </g>
    <!-- End of group #buttonholePlacket -->
    
    <!-- Start of group #yoke -->
    <g id="yoke"  transform=" translate(240 5)  translate(1079.298 645.75) " >
        <path class="hidden" id="4"  d=" M  -235,0  L  235,0  L  235,114.25  L  -235,114.25  z " />
<path transform="translate( 0, 0 )" style="stroke: hsl(26.9, 55%, 50%);" id="202"  d=" M  225,114.25  C  225,85.333  233.338,37.361  235,27.5  L  71.847,0  C  71.847,0  0,  0,  C  0,  -71.847,0  -71.847,0  L  -235,27.5  C  -233.338,37.361  -225,85.333  -225,114.25  z " />
<path transform="translate( 0, 0 )" style="stroke: hsl(53.8, 55%, 50%);" id="411"  d=" M  225,114.25  C  225,85.333  233.338,37.361  235,27.5  L  71.847,0  C  71.847,0  0,  0,  C  0,  -71.847,0  -71.847,0  L  -235,27.5  C  -233.338,37.361  -225,85.333  -225,114.25  z " />
<path transform="translate( 0, 0 )" style="stroke: hsl(80.7, 55%, 50%);" id="620"  d=" M  225,114.25  C  225,85.333  233.338,37.361  235,27.5  L  71.847,0  C  71.847,0  0,  0,  C  0,  -71.847,0  -71.847,0  L  -235,27.5  C  -233.338,37.361  -225,85.333  -225,114.25  z " />
<path transform="translate( 0, 0 )" style="stroke: hsl(107.6, 55%, 50%);" id="829"  d=" M  225,114.25  C  225,85.333  233.338,37.361  235,27.5  L  71.847,0  C  71.847,0  0,  0,  C  0,  -71.847,0  -71.847,0  L  -235,27.5  C  -233.338,37.361  -225,85.333  -225,114.25  z " />
<path transform="translate( 0, 0 )" style="stroke: hsl(134.5, 55%, 50%);" id="1038"  d=" M  225,114.25  C  225,85.333  233.338,37.361  235,27.5  L  71.847,0  C  71.847,0  0,  0,  C  0,  -71.847,0  -71.847,0  L  -235,27.5  C  -233.338,37.361  -225,85.333  -225,114.25  z " />
<path transform="translate( 0, 0 )" style="stroke: hsl(161.4, 55%, 50%);" id="1247"  d=" M  225,114.25  C  225,85.333  233.338,37.361  235,27.5  L  71.847,0  C  71.847,0  0,  0,  C  0,  -71.847,0  -71.847,0  L  -235,27.5  C  -233.338,37.361  -225,85.333  -225,114.25  z " />
<path transform="translate( 0, 0 )" style="stroke: hsl(188.3, 55%, 50%);" id="1456"  d=" M  225,114.25  C  225,85.333  233.338,37.361  235,27.5  L  71.847,0  C  71.847,0  0,  0,  C  0,  -71.847,0  -71.847,0  L  -235,27.5  C  -233.338,37.361  -225,85.333  -225,114.25  z " />
<path transform="translate( 0, 0 )" style="stroke: hsl(215.2, 55%, 50%);" id="1665"  d=" M  225,114.25  C  225,85.333  233.338,37.361  235,27.5  L  71.847,0  C  71.847,0  0,  0,  C  0,  -71.847,0  -71.847,0  L  -235,27.5  C  -233.338,37.361  -225,85.333  -225,114.25  z " />
<path transform="translate( 0, 0 )" style="stroke: hsl(242.1, 55%, 50%);" id="1874"  d=" M  225,114.25  C  225,85.333  233.338,37.361  235,27.5  L  71.847,0  C  71.847,0  0,  0,  C  0,  -71.847,0  -71.847,0  L  -235,27.5  C  -233.338,37.361  -225,85.333  -225,114.25  z " />
<path transform="translate( 0, 0 )" style="stroke: hsl(269, 55%, 50%);" id="2083"  d=" M  225,114.25  C  225,85.333  233.338,37.361  235,27.5  L  71.847,0  C  71.847,0  0,  0,  C  0,  -71.847,0  -71.847,0  L  -235,27.5  C  -233.338,37.361  -225,85.333  -225,114.25  z " />
<path transform="translate( 0, 0 )" style="stroke: hsl(295.9, 55%, 50%);" id="2292"  d=" M  225,114.25  C  225,85.333  233.338,37.361  235,27.5  L  71.847,0  C  71.847,0  0,  0,  C  0,  -71.847,0  -71.847,0  L  -235,27.5  C  -233.338,37.361  -225,85.333  -225,114.25  z " />
    </g>
    <!-- End of group #yoke -->
    
    <!-- Start of group #back -->
    <g id="back"  transform=" translate(300 -109.25)  translate(1079.298 0) " >
        <path class="hidden" id="5"  d=" M  -295,114.25  L  295,114.25  L  295,750  L  -295,750  z " />
<path transform="translate( 0, 0 )" style="stroke: hsl(26.9, 55%, 50%);" id="203"  d=" M  295,750  L  295,670  C  295,649  294.838,620.435  290,600  C  286.449,585  263.75,540  263.75,480  C  263.75,354.25  290,278.8  290,228.5  C  273.75,228.5  260.363,222.433  245.715,207.785  C  231.067,193.137  225,143.167  225.057,119.25  C  225.057,119.25  180,114.25  135.438,114.25  L  -135.438,114.25  C  -180,114.25  -225.057,119.25  -225.057,119.25  C  -225,143.167  -231.067,193.137  -245.715,207.785  C  -260.363,222.433  -273.75,228.5  -290,228.5  C  -290,278.8  -263.75,354.25  -263.75,480  C  -263.75,540  -286.449,585  -290,600  C  -294.838,620.435  -295,649  -295,670  L  -295,750  C  -295,750  -265.5,750  -265.5,750  L  0,750  L  265.5,750  C  265.5,750  295,750  295,750  C  295,750  295,670  295,670  z " />
<path transform="translate( 0, 0 )" style="stroke: hsl(53.8, 55%, 50%);" id="412"  d=" M  295,750  L  295,670  C  295,649  294.838,620.435  290,600  C  286.449,585  263.75,540  263.75,480  C  263.75,354.25  290,278.8  290,228.5  C  273.75,228.5  260.363,222.433  245.715,207.785  C  231.067,193.137  225,143.167  225.057,119.25  C  225.057,119.25  180,114.25  135.438,114.25  L  -135.438,114.25  C  -180,114.25  -225.057,119.25  -225.057,119.25  C  -225,143.167  -231.067,193.137  -245.715,207.785  C  -260.363,222.433  -273.75,228.5  -290,228.5  C  -290,278.8  -263.75,354.25  -263.75,480  C  -263.75,540  -286.449,585  -290,600  C  -294.838,620.435  -295,649  -295,670  L  -295,750  C  -295,750  -265.5,750  -265.5,750  L  0,750  L  265.5,750  C  265.5,750  295,750  295,750  C  295,750  295,670  295,670  z " />
<path transform="translate( 0, 0 )" style="stroke: hsl(80.7, 55%, 50%);" id="621"  d=" M  295,750  L  295,670  C  295,649  294.838,620.435  290,600  C  286.449,585  263.75,540  263.75,480  C  263.75,354.25  290,278.8  290,228.5  C  273.75,228.5  260.363,222.433  245.715,207.785  C  231.067,193.137  225,143.167  225.057,119.25  C  225.057,119.25  180,114.25  135.438,114.25  L  -135.438,114.25  C  -180,114.25  -225.057,119.25  -225.057,119.25  C  -225,143.167  -231.067,193.137  -245.715,207.785  C  -260.363,222.433  -273.75,228.5  -290,228.5  C  -290,278.8  -263.75,354.25  -263.75,480  C  -263.75,540  -286.449,585  -290,600  C  -294.838,620.435  -295,649  -295,670  L  -295,750  C  -295,750  -265.5,750  -265.5,750  L  0,750  L  265.5,750  C  265.5,750  295,750  295,750  C  295,750  295,670  295,670  z " />
<path transform="translate( 0, 0 )" style="stroke: hsl(107.6, 55%, 50%);" id="830"  d=" M  295,750  L  295,670  C  295,649  294.838,620.435  290,600  C  286.449,585  263.75,540  263.75,480  C  263.75,354.25  290,278.8  290,228.5  C  273.75,228.5  260.363,222.433  245.715,207.785  C  231.067,193.137  225,143.167  225.057,119.25  C  225.057,119.25  180,114.25  135.438,114.25  L  -135.438,114.25  C  -180,114.25  -225.057,119.25  -225.057,119.25  C  -225,143.167  -231.067,193.137  -245.715,207.785  C  -260.363,222.433  -273.75,228.5  -290,228.5  C  -290,278.8  -263.75,354.25  -263.75,480  C  -263.75,540  -286.449,585  -290,600  C  -294.838,620.435  -295,649  -295,670  L  -295,750  C  -295,750  -265.5,750  -265.5,750  L  0,750  L  265.5,750  C  265.5,750  295,750  295,750  C  295,750  295,670  295,670  z " />
<path transform="translate( 0, 0 )" style="stroke: hsl(134.5, 55%, 50%);" id="1039"  d=" M  295,750  L  295,670  C  295,649  294.838,620.435  290,600  C  286.449,585  263.75,540  263.75,480  C  263.75,354.25  290,278.8  290,228.5  C  273.75,228.5  260.363,222.433  245.715,207.785  C  231.067,193.137  225,143.167  225.057,119.25  C  225.057,119.25  180,114.25  135.438,114.25  L  -135.438,114.25  C  -180,114.25  -225.057,119.25  -225.057,119.25  C  -225,143.167  -231.067,193.137  -245.715,207.785  C  -260.363,222.433  -273.75,228.5  -290,228.5  C  -290,278.8  -263.75,354.25  -263.75,480  C  -263.75,540  -286.449,585  -290,600  C  -294.838,620.435  -295,649  -295,670  L  -295,750  C  -295,750  -265.5,750  -265.5,750  L  0,750  L  265.5,750  C  265.5,750  295,750  295,750  C  295,750  295,670  295,670  z " />
<path transform="translate( 0, 0 )" style="stroke: hsl(161.4, 55%, 50%);" id="1248"  d=" M  295,750  L  295,670  C  295,649  294.838,620.435  290,600  C  286.449,585  263.75,540  263.75,480  C  263.75,354.25  290,278.8  290,228.5  C  273.75,228.5  260.363,222.433  245.715,207.785  C  231.067,193.137  225,143.167  225.057,119.25  C  225.057,119.25  180,114.25  135.438,114.25  L  -135.438,114.25  C  -180,114.25  -225.057,119.25  -225.057,119.25  C  -225,143.167  -231.067,193.137  -245.715,207.785  C  -260.363,222.433  -273.75,228.5  -290,228.5  C  -290,278.8  -263.75,354.25  -263.75,480  C  -263.75,540  -286.449,585  -290,600  C  -294.838,620.435  -295,649  -295,670  L  -295,750  C  -295,750  -265.5,750  -265.5,750  L  0,750  L  265.5,750  C  265.5,750  295,750  295,750  C  295,750  295,670  295,670  z " />
<path transform="translate( 0, 0 )" style="stroke: hsl(188.3, 55%, 50%);" id="1457"  d=" M  295,750  L  295,670  C  295,649  294.838,620.435  290,600  C  286.449,585  263.75,540  263.75,480  C  263.75,354.25  290,278.8  290,228.5  C  273.75,228.5  260.363,222.433  245.715,207.785  C  231.067,193.137  225,143.167  225.057,119.25  C  225.057,119.25  180,114.25  135.438,114.25  L  -135.438,114.25  C  -180,114.25  -225.057,119.25  -225.057,119.25  C  -225,143.167  -231.067,193.137  -245.715,207.785  C  -260.363,222.433  -273.75,228.5  -290,228.5  C  -290,278.8  -263.75,354.25  -263.75,480  C  -263.75,540  -286.449,585  -290,600  C  -294.838,620.435  -295,649  -295,670  L  -295,750  C  -295,750  -265.5,750  -265.5,750  L  0,750  L  265.5,750  C  265.5,750  295,750  295,750  C  295,750  295,670  295,670  z " />
<path transform="translate( 0, 0 )" style="stroke: hsl(215.2, 55%, 50%);" id="1666"  d=" M  295,750  L  295,670  C  295,649  294.838,620.435  290,600  C  286.449,585  263.75,540  263.75,480  C  263.75,354.25  290,278.8  290,228.5  C  273.75,228.5  260.363,222.433  245.715,207.785  C  231.067,193.137  225,143.167  225.057,119.25  C  225.057,119.25  180,114.25  135.438,114.25  L  -135.438,114.25  C  -180,114.25  -225.057,119.25  -225.057,119.25  C  -225,143.167  -231.067,193.137  -245.715,207.785  C  -260.363,222.433  -273.75,228.5  -290,228.5  C  -290,278.8  -263.75,354.25  -263.75,480  C  -263.75,540  -286.449,585  -290,600  C  -294.838,620.435  -295,649  -295,670  L  -295,750  C  -295,750  -265.5,750  -265.5,750  L  0,750  L  265.5,750  C  265.5,750  295,750  295,750  C  295,750  295,670  295,670  z " />
<path transform="translate( 0, 0 )" style="stroke: hsl(242.1, 55%, 50%);" id="1875"  d=" M  295,750  L  295,670  C  295,649  294.838,620.435  290,600  C  286.449,585  263.75,540  263.75,480  C  263.75,354.25  290,278.8  290,228.5  C  273.75,228.5  260.363,222.433  245.715,207.785  C  231.067,193.137  225,143.167  225.057,119.25  C  225.057,119.25  180,114.25  135.438,114.25  L  -135.438,114.25  C  -180,114.25  -225.057,119.25  -225.057,119.25  C  -225,143.167  -231.067,193.137  -245.715,207.785  C  -260.363,222.433  -273.75,228.5  -290,228.5  C  -290,278.8  -263.75,354.25  -263.75,480  C  -263.75,540  -286.449,585  -290,600  C  -294.838,620.435  -295,649  -295,670  L  -295,750  C  -295,750  -265.5,750  -265.5,750  L  0,750  L  265.5,750  C  265.5,750  295,750  295,750  C  295,750  295,670  295,670  z " />
<path transform="translate( 0, 0 )" style="stroke: hsl(269, 55%, 50%);" id="2084"  d=" M  295,750  L  295,670  C  295,649  294.838,620.435  290,600  C  286.449,585  263.75,540  263.75,480  C  263.75,354.25  290,278.8  290,228.5  C  273.75,228.5  260.363,222.433  245.715,207.785  C  231.067,193.137  225,143.167  225.057,119.25  C  225.057,119.25  180,114.25  135.438,114.25  L  -135.438,114.25  C  -180,114.25  -225.057,119.25  -225.057,119.25  C  -225,143.167  -231.067,193.137  -245.715,207.785  C  -260.363,222.433  -273.75,228.5  -290,228.5  C  -290,278.8  -263.75,354.25  -263.75,480  C  -263.75,540  -286.449,585  -290,600  C  -294.838,620.435  -295,649  -295,670  L  -295,750  C  -295,750  -265.5,750  -265.5,750  L  0,750  L  265.5,750  C  265.5,750  295,750  295,750  C  295,750  295,670  295,670  z " />
<path transform="translate( 0, 0 )" style="stroke: hsl(295.9, 55%, 50%);" id="2293"  d=" M  295,750  L  295,670  C  295,649  294.838,620.435  290,600  C  286.449,585  263.75,540  263.75,480  C  263.75,354.25  290,278.8  290,228.5  C  273.75,228.5  260.363,222.433  245.715,207.785  C  231.067,193.137  225,143.167  225.057,119.25  C  225.057,119.25  180,114.25  135.438,114.25  L  -135.438,114.25  C  -180,114.25  -225.057,119.25  -225.057,119.25  C  -225,143.167  -231.067,193.137  -245.715,207.785  C  -260.363,222.433  -273.75,228.5  -290,228.5  C  -290,278.8  -263.75,354.25  -263.75,480  C  -263.75,540  -286.449,585  -290,600  C  -294.838,620.435  -295,649  -295,670  L  -295,750  C  -295,750  -265.5,750  -265.5,750  L  0,750  L  265.5,750  C  265.5,750  295,750  295,750  C  295,750  295,670  295,670  z " />
    </g>
    <!-- End of group #back -->
    
    <!-- Start of group #sleeve -->
    <g id="sleeve"  transform=" translate(168.399 5)  translate(0 0) " >
        <path class="hidden" id="6"  d=" M  -163.399,0  L  163.399,0  L  163.399,763  L  -163.399,763  z " />
<path transform="translate( 0, 0 )" style="stroke: hsl(26.9, 55%, 50%);" id="204"  d=" M  -163.399,149.969  C  -163.399,149.969  -133.144,122.464  -118.759,105.741  C  -104.374,89.018  -81.7,54.99  -81.7,54.99  C  -81.7,54.99  -67.526,27.368  -49.226,15.051  C  -30.926,2.734  -22.059,-0  5,0  C  22.059,0  40.633,3.243  57.797,17.099  C  74.961,30.955  86.7,69.99  86.7,69.99  C  86.7,69.99  98.956,104.441  114.224,120.362  C  129.492,136.283  163.399,149.969  163.399,149.969  L  142.5,760  C  142.5,760  111.875,763  81.25,763  C  65.827,762.471  50.625,761.845  50.625,761.845  L  30.625,761.845  C  10.302,761.009  0,760  0,760  L  -20,760  C  -20,760  -50.625,757  -81.25,757  C  -111.875,757  -142.5,760  -142.5,760  z " />
<path transform="translate( 0, 0 )" style="stroke: hsl(53.8, 55%, 50%);" id="413"  d=" M  -163.399,149.969  C  -163.399,149.969  -133.144,122.464  -118.759,105.741  C  -104.374,89.018  -81.7,54.99  -81.7,54.99  C  -81.7,54.99  -67.526,27.368  -49.226,15.051  C  -30.926,2.734  -22.059,-0  5,0  C  22.059,0  40.633,3.243  57.797,17.099  C  74.961,30.955  86.7,69.99  86.7,69.99  C  86.7,69.99  98.956,104.441  114.224,120.362  C  129.492,136.283  163.399,149.969  163.399,149.969  L  142.5,760  C  142.5,760  111.875,763  81.25,763  C  65.827,762.471  50.625,761.845  50.625,761.845  L  30.625,761.845  C  10.302,761.009  0,760  0,760  L  -20,760  C  -20,760  -50.625,757  -81.25,757  C  -111.875,757  -142.5,760  -142.5,760  z " />
<path transform="translate( 0, 0 )" style="stroke: hsl(80.7, 55%, 50%);" id="622"  d=" M  -163.399,149.969  C  -163.399,149.969  -133.144,122.464  -118.759,105.741  C  -104.374,89.018  -81.7,54.99  -81.7,54.99  C  -81.7,54.99  -67.526,27.368  -49.226,15.051  C  -30.926,2.734  -22.059,-0  5,0  C  22.059,0  40.633,3.243  57.797,17.099  C  74.961,30.955  86.7,69.99  86.7,69.99  C  86.7,69.99  98.956,104.441  114.224,120.362  C  129.492,136.283  163.399,149.969  163.399,149.969  L  142.5,760  C  142.5,760  111.875,763  81.25,763  C  65.827,762.471  50.625,761.845  50.625,761.845  L  30.625,761.845  C  10.302,761.009  0,760  0,760  L  -20,760  C  -20,760  -50.625,757  -81.25,757  C  -111.875,757  -142.5,760  -142.5,760  z " />
<path transform="translate( 0, 0 )" style="stroke: hsl(107.6, 55%, 50%);" id="831"  d=" M  -163.399,149.969  C  -163.399,149.969  -133.144,122.464  -118.759,105.741  C  -104.374,89.018  -81.7,54.99  -81.7,54.99  C  -81.7,54.99  -67.526,27.368  -49.226,15.051  C  -30.926,2.734  -22.059,-0  5,0  C  22.059,0  40.633,3.243  57.797,17.099  C  74.961,30.955  86.7,69.99  86.7,69.99  C  86.7,69.99  98.956,104.441  114.224,120.362  C  129.492,136.283  163.399,149.969  163.399,149.969  L  142.5,760  C  142.5,760  111.875,763  81.25,763  C  65.827,762.471  50.625,761.845  50.625,761.845  L  30.625,761.845  C  10.302,761.009  0,760  0,760  L  -20,760  C  -20,760  -50.625,757  -81.25,757  C  -111.875,757  -142.5,760  -142.5,760  z " />
<path transform="translate( 0, 0 )" style="stroke: hsl(134.5, 55%, 50%);" id="1040"  d=" M  -163.399,149.969  C  -163.399,149.969  -133.144,122.464  -118.759,105.741  C  -104.374,89.018  -81.7,54.99  -81.7,54.99  C  -81.7,54.99  -67.526,27.368  -49.226,15.051  C  -30.926,2.734  -22.059,-0  5,0  C  22.059,0  40.633,3.243  57.797,17.099  C  74.961,30.955  86.7,69.99  86.7,69.99  C  86.7,69.99  98.956,104.441  114.224,120.362  C  129.492,136.283  163.399,149.969  163.399,149.969  L  142.5,760  C  142.5,760  111.875,763  81.25,763  C  65.827,762.471  50.625,761.845  50.625,761.845  L  30.625,761.845  C  10.302,761.009  0,760  0,760  L  -20,760  C  -20,760  -50.625,757  -81.25,757  C  -111.875,757  -142.5,760  -142.5,760  z " />
<path transform="translate( 0, 0 )" style="stroke: hsl(161.4, 55%, 50%);" id="1249"  d=" M  -163.399,149.969  C  -163.399,149.969  -133.144,122.464  -118.759,105.741  C  -104.374,89.018  -81.7,54.99  -81.7,54.99  C  -81.7,54.99  -67.526,27.368  -49.226,15.051  C  -30.926,2.734  -22.059,-0  5,0  C  22.059,0  40.633,3.243  57.797,17.099  C  74.961,30.955  86.7,69.99  86.7,69.99  C  86.7,69.99  98.956,104.441  114.224,120.362  C  129.492,136.283  163.399,149.969  163.399,149.969  L  142.5,760  C  142.5,760  111.875,763  81.25,763  C  65.827,762.471  50.625,761.845  50.625,761.845  L  30.625,761.845  C  10.302,761.009  0,760  0,760  L  -20,760  C  -20,760  -50.625,757  -81.25,757  C  -111.875,757  -142.5,760  -142.5,760  z " />
<path transform="translate( 0, 0 )" style="stroke: hsl(188.3, 55%, 50%);" id="1458"  d=" M  -163.399,149.969  C  -163.399,149.969  -133.144,122.464  -118.759,105.741  C  -104.374,89.018  -81.7,54.99  -81.7,54.99  C  -81.7,54.99  -67.526,27.368  -49.226,15.051  C  -30.926,2.734  -22.059,-0  5,0  C  22.059,0  40.633,3.243  57.797,17.099  C  74.961,30.955  86.7,69.99  86.7,69.99  C  86.7,69.99  98.956,104.441  114.224,120.362  C  129.492,136.283  163.399,149.969  163.399,149.969  L  142.5,760  C  142.5,760  111.875,763  81.25,763  C  65.827,762.471  50.625,761.845  50.625,761.845  L  30.625,761.845  C  10.302,761.009  0,760  0,760  L  -20,760  C  -20,760  -50.625,757  -81.25,757  C  -111.875,757  -142.5,760  -142.5,760  z " />
<path transform="translate( 0, 0 )" style="stroke: hsl(215.2, 55%, 50%);" id="1667"  d=" M  -163.399,149.969  C  -163.399,149.969  -133.144,122.464  -118.759,105.741  C  -104.374,89.018  -81.7,54.99  -81.7,54.99  C  -81.7,54.99  -67.526,27.368  -49.226,15.051  C  -30.926,2.734  -22.059,-0  5,0  C  22.059,0  40.633,3.243  57.797,17.099  C  74.961,30.955  86.7,69.99  86.7,69.99  C  86.7,69.99  98.956,104.441  114.224,120.362  C  129.492,136.283  163.399,149.969  163.399,149.969  L  142.5,760  C  142.5,760  111.875,763  81.25,763  C  65.827,762.471  50.625,761.845  50.625,761.845  L  30.625,761.845  C  10.302,761.009  0,760  0,760  L  -20,760  C  -20,760  -50.625,757  -81.25,757  C  -111.875,757  -142.5,760  -142.5,760  z " />
<path transform="translate( 0, 0 )" style="stroke: hsl(242.1, 55%, 50%);" id="1876"  d=" M  -163.399,149.969  C  -163.399,149.969  -133.144,122.464  -118.759,105.741  C  -104.374,89.018  -81.7,54.99  -81.7,54.99  C  -81.7,54.99  -67.526,27.368  -49.226,15.051  C  -30.926,2.734  -22.059,-0  5,0  C  22.059,0  40.633,3.243  57.797,17.099  C  74.961,30.955  86.7,69.99  86.7,69.99  C  86.7,69.99  98.956,104.441  114.224,120.362  C  129.492,136.283  163.399,149.969  163.399,149.969  L  142.5,760  C  142.5,760  111.875,763  81.25,763  C  65.827,762.471  50.625,761.845  50.625,761.845  L  30.625,761.845  C  10.302,761.009  0,760  0,760  L  -20,760  C  -20,760  -50.625,757  -81.25,757  C  -111.875,757  -142.5,760  -142.5,760  z " />
<path transform="translate( 0, 0 )" style="stroke: hsl(269, 55%, 50%);" id="2085"  d=" M  -163.399,149.969  C  -163.399,149.969  -133.144,122.464  -118.759,105.741  C  -104.374,89.018  -81.7,54.99  -81.7,54.99  C  -81.7,54.99  -67.526,27.368  -49.226,15.051  C  -30.926,2.734  -22.059,-0  5,0  C  22.059,0  40.633,3.243  57.797,17.099  C  74.961,30.955  86.7,69.99  86.7,69.99  C  86.7,69.99  98.956,104.441  114.224,120.362  C  129.492,136.283  163.399,149.969  163.399,149.969  L  142.5,760  C  142.5,760  111.875,763  81.25,763  C  65.827,762.471  50.625,761.845  50.625,761.845  L  30.625,761.845  C  10.302,761.009  0,760  0,760  L  -20,760  C  -20,760  -50.625,757  -81.25,757  C  -111.875,757  -142.5,760  -142.5,760  z " />
<path transform="translate( 0, 0 )" style="stroke: hsl(295.9, 55%, 50%);" id="2294"  d=" M  -163.399,149.969  C  -163.399,149.969  -133.144,122.464  -118.759,105.741  C  -104.374,89.018  -81.7,54.99  -81.7,54.99  C  -81.7,54.99  -67.526,27.368  -49.226,15.051  C  -30.926,2.734  -22.059,-0  5,0  C  22.059,0  40.633,3.243  57.797,17.099  C  74.961,30.955  86.7,69.99  86.7,69.99  C  86.7,69.99  98.956,104.441  114.224,120.362  C  129.492,136.283  163.399,149.969  163.399,149.969  L  142.5,760  C  142.5,760  111.875,763  81.25,763  C  65.827,762.471  50.625,761.845  50.625,761.845  L  30.625,761.845  C  10.302,761.009  0,760  0,760  L  -20,760  C  -20,760  -50.625,757  -81.25,757  C  -111.875,757  -142.5,760  -142.5,760  z " />
    </g>
    <!-- End of group #sleeve -->
    
    <!-- Start of group #collarStand -->
    <g id="collarStand"  transform=" translate(237.441 10)  translate(0 773) " >
        <path class="hidden" id="7"  d=" M  -232.441,-5  L  234.932,-5  L  234.932,35  L  -232.441,35  z " />
<path transform="translate( 0, 0 )" style="stroke: hsl(26.9, 55%, 50%);" id="205"  d=" M  0,30  C  86.389,30  129.584,35  161.98,35  C  205.174,35  207.536,33.305  217.498,32.433  L  234.932,30.908  C  233.407,13.475  231.881,-3.959  214.448,-2.433  C  204.486,-1.561  205.174,0  161.98,0  C  129.584,0  86.389,-5  0,-5  C  -86.389,-5  -129.584,0  -161.98,0  C  -205.174,0  -204.486,-1.561  -214.448,-2.433  C  -219.429,-2.869  -220.954,14.565  -222.479,31.998  L  -217.498,32.433  C  -207.536,33.305  -205.174,35  -161.98,35  C  -129.584,35  -86.389,30  0,30  z " />
<path transform="translate( 0, 0 )" style="stroke: hsl(53.8, 55%, 50%);" id="414"  d=" M  0,30  C  86.389,30  129.584,35  161.98,35  C  205.174,35  207.536,33.305  217.498,32.433  L  234.932,30.908  C  233.407,13.475  231.881,-3.959  214.448,-2.433  C  204.486,-1.561  205.174,0  161.98,0  C  129.584,0  86.389,-5  0,-5  C  -86.389,-5  -129.584,0  -161.98,0  C  -205.174,0  -204.486,-1.561  -214.448,-2.433  C  -220.425,-2.956  -221.95,14.477  -223.475,31.91  L  -217.498,32.433  C  -207.536,33.305  -205.174,35  -161.98,35  C  -129.584,35  -86.389,30  0,30  z " />
<path transform="translate( 0, 0 )" style="stroke: hsl(80.7, 55%, 50%);" id="623"  d=" M  0,30  C  86.389,30  129.584,35  161.98,35  C  205.174,35  207.536,33.305  217.498,32.433  L  234.932,30.908  C  233.407,13.475  231.881,-3.959  214.448,-2.433  C  204.486,-1.561  205.174,0  161.98,0  C  129.584,0  86.389,-5  0,-5  C  -86.389,-5  -129.584,0  -161.98,0  C  -205.174,0  -204.486,-1.561  -214.448,-2.433  C  -221.421,-3.043  -222.947,14.39  -224.472,31.823  L  -217.498,32.433  C  -207.536,33.305  -205.174,35  -161.98,35  C  -129.584,35  -86.389,30  0,30  z " />
<path transform="translate( 0, 0 )" style="stroke: hsl(107.6, 55%, 50%);" id="832"  d=" M  0,30  C  86.389,30  129.584,35  161.98,35  C  205.174,35  207.536,33.305  217.498,32.433  L  234.932,30.908  C  233.407,13.475  231.881,-3.959  214.448,-2.433  C  204.486,-1.561  205.174,0  161.98,0  C  129.584,0  86.389,-5  0,-5  C  -86.389,-5  -129.584,0  -161.98,0  C  -205.174,0  -204.486,-1.561  -214.448,-2.433  C  -222.417,-3.131  -223.943,14.303  -225.468,31.736  L  -217.498,32.433  C  -207.536,33.305  -205.174,35  -161.98,35  C  -129.584,35  -86.389,30  0,30  z " />
<path transform="translate( 0, 0 )" style="stroke: hsl(134.5, 55%, 50%);" id="1041"  d=" M  0,30  C  86.389,30  129.584,35  161.98,35  C  205.174,35  207.536,33.305  217.498,32.433  L  234.932,30.908  C  233.407,13.475  231.881,-3.959  214.448,-2.433  C  204.486,-1.561  205.174,0  161.98,0  C  129.584,0  86.389,-5  0,-5  C  -86.389,-5  -129.584,0  -161.98,0  C  -205.174,0  -204.486,-1.561  -214.448,-2.433  C  -223.414,-3.218  -224.939,14.216  -226.464,31.649  L  -217.498,32.433  C  -207.536,33.305  -205.174,35  -161.98,35  C  -129.584,35  -86.389,30  0,30  z " />
<path transform="translate( 0, 0 )" style="stroke: hsl(161.4, 55%, 50%);" id="1250"  d=" M  0,30  C  86.389,30  129.584,35  161.98,35  C  205.174,35  207.536,33.305  217.498,32.433  L  234.932,30.908  C  233.407,13.475  231.881,-3.959  214.448,-2.433  C  204.486,-1.561  205.174,0  161.98,0  C  129.584,0  86.389,-5  0,-5  C  -86.389,-5  -129.584,0  -161.98,0  C  -205.174,0  -204.486,-1.561  -214.448,-2.433  C  -224.41,-3.305  -225.935,14.129  -227.46,31.562  L  -217.498,32.433  C  -207.536,33.305  -205.174,35  -161.98,35  C  -129.584,35  -86.389,30  0,30  z " />
<path transform="translate( 0, 0 )" style="stroke: hsl(188.3, 55%, 50%);" id="1459"  d=" M  0,30  C  86.389,30  129.584,35  161.98,35  C  205.174,35  207.536,33.305  217.498,32.433  L  234.932,30.908  C  233.407,13.475  231.881,-3.959  214.448,-2.433  C  204.486,-1.561  205.174,0  161.98,0  C  129.584,0  86.389,-5  0,-5  C  -86.389,-5  -129.584,0  -161.98,0  C  -205.174,0  -204.486,-1.561  -214.448,-2.433  C  -225.406,-3.392  -226.931,14.042  -228.456,31.475  L  -217.498,32.433  C  -207.536,33.305  -205.174,35  -161.98,35  C  -129.584,35  -86.389,30  0,30  z " />
<path transform="translate( 0, 0 )" style="stroke: hsl(215.2, 55%, 50%);" id="1668"  d=" M  0,30  C  86.389,30  129.584,35  161.98,35  C  205.174,35  207.536,33.305  217.498,32.433  L  234.932,30.908  C  233.407,13.475  231.881,-3.959  214.448,-2.433  C  204.486,-1.561  205.174,0  161.98,0  C  129.584,0  86.389,-5  0,-5  C  -86.389,-5  -129.584,0  -161.98,0  C  -205.174,0  -204.486,-1.561  -214.448,-2.433  C  -226.402,-3.479  -227.928,13.955  -229.453,31.388  L  -217.498,32.433  C  -207.536,33.305  -205.174,35  -161.98,35  C  -129.584,35  -86.389,30  0,30  z " />
<path transform="translate( 0, 0 )" style="stroke: hsl(242.1, 55%, 50%);" id="1877"  d=" M  0,30  C  86.389,30  129.584,35  161.98,35  C  205.174,35  207.536,33.305  217.498,32.433  L  234.932,30.908  C  233.407,13.475  231.881,-3.959  214.448,-2.433  C  204.486,-1.561  205.174,0  161.98,0  C  129.584,0  86.389,-5  0,-5  C  -86.389,-5  -129.584,0  -161.98,0  C  -205.174,0  -204.486,-1.561  -214.448,-2.433  C  -227.398,-3.566  -228.924,13.867  -230.449,31.3  L  -217.498,32.433  C  -207.536,33.305  -205.174,35  -161.98,35  C  -129.584,35  -86.389,30  0,30  z " />
<path transform="translate( 0, 0 )" style="stroke: hsl(269, 55%, 50%);" id="2086"  d=" M  0,30  C  86.389,30  129.584,35  161.98,35  C  205.174,35  207.536,33.305  217.498,32.433  L  234.932,30.908  C  233.407,13.475  231.881,-3.959  214.448,-2.433  C  204.486,-1.561  205.174,0  161.98,0  C  129.584,0  86.389,-5  0,-5  C  -86.389,-5  -129.584,0  -161.98,0  C  -205.174,0  -204.486,-1.561  -214.448,-2.433  C  -228.395,-3.654  -229.92,13.78  -231.445,31.213  L  -217.498,32.433  C  -207.536,33.305  -205.174,35  -161.98,35  C  -129.584,35  -86.389,30  0,30  z " />
<path transform="translate( 0, 0 )" style="stroke: hsl(295.9, 55%, 50%);" id="2295"  d=" M  0,30  C  86.389,30  129.584,35  161.98,35  C  205.174,35  207.536,33.305  217.498,32.433  L  234.932,30.908  C  233.407,13.475  231.881,-3.959  214.448,-2.433  C  204.486,-1.561  205.174,0  161.98,0  C  129.584,0  86.389,-5  0,-5  C  -86.389,-5  -129.584,0  -161.98,0  C  -205.174,0  -204.486,-1.561  -214.448,-2.433  C  -229.391,-3.741  -230.916,13.693  -232.441,31.126  L  -217.498,32.433  C  -207.536,33.305  -205.174,35  -161.98,35  C  -129.584,35  -86.389,30  0,30  z " />
    </g>
    <!-- End of group #collarStand -->
    
    <!-- Start of group #collar -->
    <g id="collar"  transform=" translate(214.741 72)  translate(0 823) " >
        <path class="hidden" id="8"  d=" M  -209.741,-67  L  209.741,-67  L  209.741,0  L  -209.741,0  z " />
<path transform="translate( 0, 0 )" style="stroke: hsl(26.9, 55%, 50%);" id="206"  d=" M  0,-15  C  173.104,-15  203.88,0  203.88,0  L  209.741,-67  C  209.741,-67  151.466,-57  104.871,-57  L  -104.871,-57  C  -151.466,-57  -209.741,-67  -209.741,-67  L  -203.88,0  C  -203.88,0  -173.104,-15  0,-15  z " />
<path transform="translate( 0, 0 )" style="stroke: hsl(53.8, 55%, 50%);" id="415"  d=" M  0,-15  C  173.104,-15  203.88,0  203.88,0  L  209.741,-67  C  209.741,-67  151.466,-57  104.871,-57  L  -104.871,-57  C  -151.466,-57  -209.741,-67  -209.741,-67  L  -203.88,0  C  -203.88,0  -173.104,-15  0,-15  z " />
<path transform="translate( 0, 0 )" style="stroke: hsl(80.7, 55%, 50%);" id="624"  d=" M  0,-15  C  173.104,-15  203.88,0  203.88,0  L  209.741,-67  C  209.741,-67  151.466,-57  104.871,-57  L  -104.871,-57  C  -151.466,-57  -209.741,-67  -209.741,-67  L  -203.88,0  C  -203.88,0  -173.104,-15  0,-15  z " />
<path transform="translate( 0, 0 )" style="stroke: hsl(107.6, 55%, 50%);" id="833"  d=" M  0,-15  C  173.104,-15  203.88,0  203.88,0  L  209.741,-67  C  209.741,-67  151.466,-57  104.871,-57  L  -104.871,-57  C  -151.466,-57  -209.741,-67  -209.741,-67  L  -203.88,0  C  -203.88,0  -173.104,-15  0,-15  z " />
<path transform="translate( 0, 0 )" style="stroke: hsl(134.5, 55%, 50%);" id="1042"  d=" M  0,-15  C  173.104,-15  203.88,0  203.88,0  L  209.741,-67  C  209.741,-67  151.466,-57  104.871,-57  L  -104.871,-57  C  -151.466,-57  -209.741,-67  -209.741,-67  L  -203.88,0  C  -203.88,0  -173.104,-15  0,-15  z " />
<path transform="translate( 0, 0 )" style="stroke: hsl(161.4, 55%, 50%);" id="1251"  d=" M  0,-15  C  173.104,-15  203.88,0  203.88,0  L  209.741,-67  C  209.741,-67  151.466,-57  104.871,-57  L  -104.871,-57  C  -151.466,-57  -209.741,-67  -209.741,-67  L  -203.88,0  C  -203.88,0  -173.104,-15  0,-15  z " />
<path transform="translate( 0, 0 )" style="stroke: hsl(188.3, 55%, 50%);" id="1460"  d=" M  0,-15  C  173.104,-15  203.88,0  203.88,0  L  209.741,-67  C  209.741,-67  151.466,-57  104.871,-57  L  -104.871,-57  C  -151.466,-57  -209.741,-67  -209.741,-67  L  -203.88,0  C  -203.88,0  -173.104,-15  0,-15  z " />
<path transform="translate( 0, 0 )" style="stroke: hsl(215.2, 55%, 50%);" id="1669"  d=" M  0,-15  C  173.104,-15  203.88,0  203.88,0  L  209.741,-67  C  209.741,-67  151.466,-57  104.871,-57  L  -104.871,-57  C  -151.466,-57  -209.741,-67  -209.741,-67  L  -203.88,0  C  -203.88,0  -173.104,-15  0,-15  z " />
<path transform="translate( 0, 0 )" style="stroke: hsl(242.1, 55%, 50%);" id="1878"  d=" M  0,-15  C  173.104,-15  203.88,0  203.88,0  L  209.741,-67  C  209.741,-67  151.466,-57  104.871,-57  L  -104.871,-57  C  -151.466,-57  -209.741,-67  -209.741,-67  L  -203.88,0  C  -203.88,0  -173.104,-15  0,-15  z " />
<path transform="translate( 0, 0 )" style="stroke: hsl(269, 55%, 50%);" id="2087"  d=" M  0,-15  C  173.104,-15  203.88,0  203.88,0  L  209.741,-67  C  209.741,-67  151.466,-57  104.871,-57  L  -104.871,-57  C  -151.466,-57  -209.741,-67  -209.741,-67  L  -203.88,0  C  -203.88,0  -173.104,-15  0,-15  z " />
<path transform="translate( 0, 0 )" style="stroke: hsl(295.9, 55%, 50%);" id="2296"  d=" M  0,-15  C  173.104,-15  203.88,0  203.88,0  L  209.741,-67  C  209.741,-67  151.466,-57  104.871,-57  L  -104.871,-57  C  -151.466,-57  -209.741,-67  -209.741,-67  L  -203.88,0  C  -203.88,0  -173.104,-15  0,-15  z " />
    </g>
    <!-- End of group #collar -->
    
    <!-- Start of group #undercollar -->
    <g id="undercollar"  transform=" translate(214.741 72)  translate(429.482 823) " >
        <path class="hidden" id="9"  d=" M  -209.741,-67  L  209.741,-67  L  209.741,0  L  -209.741,0  z " />
<path transform="translate( 0, 0 )" style="stroke: hsl(26.9, 55%, 50%);" id="207"  d=" M  203.88,0  L  209.741,-67  C  209.741,-67  151.466,-57  104.871,-57  L  -104.871,-57  C  -151.466,-57  -209.741,-67  -209.741,-67  L  -203.88,0  C  -203.88,0  -173.104,-17  0,-18  C  173.104,-17  203.88,0  203.88,0  z " />
<path transform="translate( 0, 0 )" style="stroke: hsl(53.8, 55%, 50%);" id="416"  d=" M  203.88,0  L  209.741,-67  C  209.741,-67  151.466,-57  104.871,-57  L  -104.871,-57  C  -151.466,-57  -209.741,-67  -209.741,-67  L  -203.88,0  C  -203.88,0  -173.104,-17  0,-18  C  173.104,-17  203.88,0  203.88,0  z " />
<path transform="translate( 0, 0 )" style="stroke: hsl(80.7, 55%, 50%);" id="625"  d=" M  203.88,0  L  209.741,-67  C  209.741,-67  151.466,-57  104.871,-57  L  -104.871,-57  C  -151.466,-57  -209.741,-67  -209.741,-67  L  -203.88,0  C  -203.88,0  -173.104,-17  0,-18  C  173.104,-17  203.88,0  203.88,0  z " />
<path transform="translate( 0, 0 )" style="stroke: hsl(107.6, 55%, 50%);" id="834"  d=" M  203.88,0  L  209.741,-67  C  209.741,-67  151.466,-57  104.871,-57  L  -104.871,-57  C  -151.466,-57  -209.741,-67  -209.741,-67  L  -203.88,0  C  -203.88,0  -173.104,-17  0,-18  C  173.104,-17  203.88,0  203.88,0  z " />
<path transform="translate( 0, 0 )" style="stroke: hsl(134.5, 55%, 50%);" id="1043"  d=" M  203.88,0  L  209.741,-67  C  209.741,-67  151.466,-57  104.871,-57  L  -104.871,-57  C  -151.466,-57  -209.741,-67  -209.741,-67  L  -203.88,0  C  -203.88,0  -173.104,-17  0,-18  C  173.104,-17  203.88,0  203.88,0  z " />
<path transform="translate( 0, 0 )" style="stroke: hsl(161.4, 55%, 50%);" id="1252"  d=" M  203.88,0  L  209.741,-67  C  209.741,-67  151.466,-57  104.871,-57  L  -104.871,-57  C  -151.466,-57  -209.741,-67  -209.741,-67  L  -203.88,0  C  -203.88,0  -173.104,-17  0,-18  C  173.104,-17  203.88,0  203.88,0  z " />
<path transform="translate( 0, 0 )" style="stroke: hsl(188.3, 55%, 50%);" id="1461"  d=" M  203.88,0  L  209.741,-67  C  209.741,-67  151.466,-57  104.871,-57  L  -104.871,-57  C  -151.466,-57  -209.741,-67  -209.741,-67  L  -203.88,0  C  -203.88,0  -173.104,-17  0,-18  C  173.104,-17  203.88,0  203.88,0  z " />
<path transform="translate( 0, 0 )" style="stroke: hsl(215.2, 55%, 50%);" id="1670"  d=" M  203.88,0  L  209.741,-67  C  209.741,-67  151.466,-57  104.871,-57  L  -104.871,-57  C  -151.466,-57  -209.741,-67  -209.741,-67  L  -203.88,0  C  -203.88,0  -173.104,-17  0,-18  C  173.104,-17  203.88,0  203.88,0  z " />
<path transform="translate( 0, 0 )" style="stroke: hsl(242.1, 55%, 50%);" id="1879"  d=" M  203.88,0  L  209.741,-67  C  209.741,-67  151.466,-57  104.871,-57  L  -104.871,-57  C  -151.466,-57  -209.741,-67  -209.741,-67  L  -203.88,0  C  -203.88,0  -173.104,-17  0,-18  C  173.104,-17  203.88,0  203.88,0  z " />
<path transform="translate( 0, 0 )" style="stroke: hsl(269, 55%, 50%);" id="2088"  d=" M  203.88,0  L  209.741,-67  C  209.741,-67  151.466,-57  104.871,-57  L  -104.871,-57  C  -151.466,-57  -209.741,-67  -209.741,-67  L  -203.88,0  C  -203.88,0  -173.104,-17  0,-18  C  173.104,-17  203.88,0  203.88,0  z " />
<path transform="translate( 0, 0 )" style="stroke: hsl(295.9, 55%, 50%);" id="2297"  d=" M  203.88,0  L  209.741,-67  C  209.741,-67  151.466,-57  104.871,-57  L  -104.871,-57  C  -151.466,-57  -209.741,-67  -209.741,-67  L  -203.88,0  C  -203.88,0  -173.104,-17  0,-18  C  173.104,-17  203.88,0  203.88,0  z " />
    </g>
    <!-- End of group #undercollar -->
    
    <!-- Start of group #sleevePlacketUnderlap -->
    <g id="sleevePlacketUnderlap"  transform=" translate(-5 5)  translate(477.373 773) " >
        <path class="hidden" id="10"  d=" M  10,0  L  196.25,0  L  196.25,36  L  10,36  z " />
<path transform="translate( 0, 0 )" style="stroke: hsl(26.9, 55%, 50%);" id="208"  d=" M  10,0  L  196.25,0  L  196.25,36  L  10,36  z " />
<path transform="translate( 0, 0 )" style="stroke: hsl(53.8, 55%, 50%);" id="417"  d=" M  10,0  L  196.25,0  L  196.25,36  L  10,36  z " />
<path transform="translate( 0, 0 )" style="stroke: hsl(80.7, 55%, 50%);" id="626"  d=" M  10,0  L  196.25,0  L  196.25,36  L  10,36  z " />
<path transform="translate( 0, 0 )" style="stroke: hsl(107.6, 55%, 50%);" id="835"  d=" M  10,0  L  196.25,0  L  196.25,36  L  10,36  z " />
<path transform="translate( 0, 0 )" style="stroke: hsl(134.5, 55%, 50%);" id="1044"  d=" M  10,0  L  196.25,0  L  196.25,36  L  10,36  z " />
<path transform="translate( 0, 0 )" style="stroke: hsl(161.4, 55%, 50%);" id="1253"  d=" M  10,0  L  196.25,0  L  196.25,36  L  10,36  z " />
<path transform="translate( 0, 0 )" style="stroke: hsl(188.3, 55%, 50%);" id="1462"  d=" M  10,0  L  196.25,0  L  196.25,36  L  10,36  z " />
<path transform="translate( 0, 0 )" style="stroke: hsl(215.2, 55%, 50%);" id="1671"  d=" M  10,0  L  196.25,0  L  196.25,36  L  10,36  z " />
<path transform="translate( 0, 0 )" style="stroke: hsl(242.1, 55%, 50%);" id="1880"  d=" M  10,0  L  196.25,0  L  196.25,36  L  10,36  z " />
<path transform="translate( 0, 0 )" style="stroke: hsl(269, 55%, 50%);" id="2089"  d=" M  10,0  L  196.25,0  L  196.25,36  L  10,36  z " />
<path transform="translate( 0, 0 )" style="stroke: hsl(295.9, 55%, 50%);" id="2298"  d=" M  10,0  L  196.25,0  L  196.25,36  L  10,36  z " />
    </g>
    <!-- End of group #sleevePlacketUnderlap -->
    
    <!-- Start of group #sleevePlacketOverlap -->
    <g id="sleevePlacketOverlap"  transform=" translate(-5 5)  translate(0 900) " >
        <path class="hidden" id="11"  d=" M  10,0  L  245,0  L  245,68  L  10,68  z " />
<path transform="translate( 0, 0 )" style="stroke: hsl(26.9, 55%, 50%);" id="209"  d=" M  10,0  L  245,0  L  245,41.333  L  226.25,41.333  L  211.25,49.667  L  198.75,49.667  L  198.75,68  L  10,68  z " />
<path transform="translate( 0, 0 )" style="stroke: hsl(53.8, 55%, 50%);" id="418"  d=" M  10,0  L  245,0  L  245,41.333  L  226.25,41.333  L  211.25,49.667  L  198.75,49.667  L  198.75,68  L  10,68  z " />
<path transform="translate( 0, 0 )" style="stroke: hsl(80.7, 55%, 50%);" id="627"  d=" M  10,0  L  245,0  L  245,41.333  L  226.25,41.333  L  211.25,49.667  L  198.75,49.667  L  198.75,68  L  10,68  z " />
<path transform="translate( 0, 0 )" style="stroke: hsl(107.6, 55%, 50%);" id="836"  d=" M  10,0  L  245,0  L  245,41.333  L  226.25,41.333  L  211.25,49.667  L  198.75,49.667  L  198.75,68  L  10,68  z " />
<path transform="translate( 0, 0 )" style="stroke: hsl(134.5, 55%, 50%);" id="1045"  d=" M  10,0  L  245,0  L  245,41.333  L  226.25,41.333  L  211.25,49.667  L  198.75,49.667  L  198.75,68  L  10,68  z " />
<path transform="translate( 0, 0 )" style="stroke: hsl(161.4, 55%, 50%);" id="1254"  d=" M  10,0  L  245,0  L  245,41.333  L  226.25,41.333  L  211.25,49.667  L  198.75,49.667  L  198.75,68  L  10,68  z " />
<path transform="translate( 0, 0 )" style="stroke: hsl(188.3, 55%, 50%);" id="1463"  d=" M  10,0  L  245,0  L  245,41.333  L  226.25,41.333  L  211.25,49.667  L  198.75,49.667  L  198.75,68  L  10,68  z " />
<path transform="translate( 0, 0 )" style="stroke: hsl(215.2, 55%, 50%);" id="1672"  d=" M  10,0  L  245,0  L  245,41.333  L  226.25,41.333  L  211.25,49.667  L  198.75,49.667  L  198.75,68  L  10,68  z " />
<path transform="translate( 0, 0 )" style="stroke: hsl(242.1, 55%, 50%);" id="1881"  d=" M  10,0  L  245,0  L  245,41.333  L  226.25,41.333  L  211.25,49.667  L  198.75,49.667  L  198.75,68  L  10,68  z " />
<path transform="translate( 0, 0 )" style="stroke: hsl(269, 55%, 50%);" id="2090"  d=" M  10,0  L  245,0  L  245,41.333  L  226.25,41.333  L  211.25,49.667  L  198.75,49.667  L  198.75,68  L  10,68  z " />
<path transform="translate( 0, 0 )" style="stroke: hsl(295.9, 55%, 50%);" id="2299"  d=" M  10,0  L  245,0  L  245,41.333  L  226.25,41.333  L  211.25,49.667  L  198.75,49.667  L  198.75,68  L  10,68  z " />
    </g>
    <!-- End of group #sleevePlacketOverlap -->
    
    <!-- Start of group #barrelCuff -->
    <g id="barrelCuff"  transform=" translate(127.5 5)  translate(858.964 823) " >
        <path class="hidden" id="12"  d=" M  -122.5,0  L  122.5,0  L  122.5,65  L  -122.5,65  z " />
<path transform="translate( 0, 0 )" style="stroke: hsl(26.9, 55%, 50%);" id="210"  d=" M  0,0  L  106.25,-0  L  122.5,16.25  L  122.5,65  L  -122.5,65  L  -122.5,16.25  L  -106.25,0  z " />
<path transform="translate( 0, 0 )" style="stroke: hsl(53.8, 55%, 50%);" id="419"  d=" M  0,0  L  106.25,-0  L  122.5,16.25  L  122.5,65  L  -122.5,65  L  -122.5,16.25  L  -106.25,0  z " />
<path transform="translate( 0, 0 )" style="stroke: hsl(80.7, 55%, 50%);" id="628"  d=" M  0,0  L  106.25,-0  L  122.5,16.25  L  122.5,65  L  -122.5,65  L  -122.5,16.25  L  -106.25,0  z " />
<path transform="translate( 0, 0 )" style="stroke: hsl(107.6, 55%, 50%);" id="837"  d=" M  0,0  L  106.25,-0  L  122.5,16.25  L  122.5,65  L  -122.5,65  L  -122.5,16.25  L  -106.25,0  z " />
<path transform="translate( 0, 0 )" style="stroke: hsl(134.5, 55%, 50%);" id="1046"  d=" M  0,0  L  106.25,-0  L  122.5,16.25  L  122.5,65  L  -122.5,65  L  -122.5,16.25  L  -106.25,0  z " />
<path transform="translate( 0, 0 )" style="stroke: hsl(161.4, 55%, 50%);" id="1255"  d=" M  0,0  L  106.25,-0  L  122.5,16.25  L  122.5,65  L  -122.5,65  L  -122.5,16.25  L  -106.25,0  z " />
<path transform="translate( 0, 0 )" style="stroke: hsl(188.3, 55%, 50%);" id="1464"  d=" M  0,0  L  106.25,-0  L  122.5,16.25  L  122.5,65  L  -122.5,65  L  -122.5,16.25  L  -106.25,0  z " />
<path transform="translate( 0, 0 )" style="stroke: hsl(215.2, 55%, 50%);" id="1673"  d=" M  0,0  L  106.25,-0  L  122.5,16.25  L  122.5,65  L  -122.5,65  L  -122.5,16.25  L  -106.25,0  z " />
<path transform="translate( 0, 0 )" style="stroke: hsl(242.1, 55%, 50%);" id="1882"  d=" M  0,0  L  106.25,-0  L  122.5,16.25  L  122.5,65  L  -122.5,65  L  -122.5,16.25  L  -106.25,0  z " />
<path transform="translate( 0, 0 )" style="stroke: hsl(269, 55%, 50%);" id="2091"  d=" M  0,0  L  106.25,-0  L  122.5,16.25  L  122.5,65  L  -122.5,65  L  -122.5,16.25  L  -106.25,0  z " />
<path transform="translate( 0, 0 )" style="stroke: hsl(295.9, 55%, 50%);" id="2300"  d=" M  0,0  L  106.25,-0  L  122.5,16.25  L  122.5,65  L  -122.5,65  L  -122.5,16.25  L  -106.25,0  z " />
    </g>
    <!-- End of group #barrelCuff -->
    
    <!-- Start of group #frenchCuff -->
    <g id="frenchCuff"  transform=" translate(0 0)  translate(1679.298 0) " >
    </g>
    <!-- End of group #frenchCuff -->
    
    <!-- Start of group #sampler-frontRight -->
    <g id="sampler-frontRight"  transform=" translate(0 0)  translate(1679.298 0) " >
    </g>
    <!-- End of group #sampler-frontRight -->
    
    <!-- Start of group #sampler-frontLeft -->
    <g id="sampler-frontLeft"  transform=" translate(0 0)  translate(1679.298 0) " >
    </g>
    <!-- End of group #sampler-frontLeft -->
    
    <!-- Start of group #sampler-yoke -->
    <g id="sampler-yoke"  transform=" translate(0 0)  translate(1679.298 0) " >
    </g>
    <!-- End of group #sampler-yoke -->
    
    <!-- Start of group #sampler-back -->
    <g id="sampler-back"  transform=" translate(0 0)  translate(1679.298 0) " >
    </g>
    <!-- End of group #sampler-back -->
    
    <!-- Start of group #sampler-sleeve -->
    <g id="sampler-sleeve"  transform=" translate(0 0)  translate(1679.298 0) " >
    </g>
    <!-- End of group #sampler-sleeve -->
    
    <!-- Start of group #sampler-collarStand -->
    <g id="sampler-collarStand"  transform=" translate(0 0)  translate(1679.298 0) " >
    </g>
    <!-- End of group #sampler-collarStand -->
    
    <!-- Start of group #sampler-collar -->
    <g id="sampler-collar"  transform=" translate(0 0)  translate(1679.298 0) " >
    </g>
    <!-- End of group #sampler-collar -->
    
    <!-- Start of group #sampler-undercollar -->
    <g id="sampler-undercollar"  transform=" translate(0 0)  translate(1679.298 0) " >
    </g>
    <!-- End of group #sampler-undercollar -->
    
    <!-- Start of group #sampler-sleevePlacketUnderlap -->
    <g id="sampler-sleevePlacketUnderlap"  transform=" translate(0 0)  translate(1679.298 0) " >
    </g>
    <!-- End of group #sampler-sleevePlacketUnderlap -->
    
    <!-- Start of group #sampler-sleevePlacketOverlap -->
    <g id="sampler-sleevePlacketOverlap"  transform=" translate(0 0)  translate(1679.298 0) " >
    </g>
    <!-- End of group #sampler-sleevePlacketOverlap -->
    
    <!-- Start of group #sampler-barrelCuff -->
    <g id="sampler-barrelCuff"  transform=" translate(0 0)  translate(1679.298 0) " >
    </g>
    <!-- End of group #sampler-barrelCuff -->
</g>
<!-- End of group #patternScaleContainer -->

</svg>

