<?xml version="1.0" encoding="UTF-8" standalone="no"?>
<svg
    width ="4115.6929173186"
    height ="2288.0905533675"
    viewbox ="0 0 4115.6929173186 2288.0905533675" xmlns:dc="http://purl.org/dc/elements/1.1/"
    xmlns:cc="http://creativecommons.org/ns#"
    xmlns:rdf="http://www.w3.org/1999/02/22-rdf-syntax-ns#"
    xmlns:svg="http://www.w3.org/2000/svg"
    xmlns="http://www.w3.org/2000/svg"
    xmlns:xlink="http://www.w3.org/1999/xlink"
    xmlns:sodipodi="http://sodipodi.sourceforge.net/DTD/sodipodi-0.dtd"
    xmlns:inkscape="http://www.inkscape.org/namespaces/inkscape" 
>

<style type="text/css">
    <![CDATA[
    path { fill: none; stroke: #000000; stroke-opacity:1; stroke-width: 0.5; stroke-miterlimit:4; stroke-dashoffset:0; stroke-linecap:round; stroke-linejoin:round; }
    path.hidden { fill: none; stroke: none; }]]>
</style>


<!-- Start of group #patternScaleContainer -->
<g id="patternScaleContainer"  transform=" scale(3.54330709 ) " >
    
    <!-- Start of group #back -->
    <g id="back"  transform=" translate(340.77 -109.25)  translate(0 0) " >
        <path class="hidden" id="3"  d=" M  -335.77,114.25  L  335.77,114.25  L  335.77,750  L  -335.77,750  z " />
<path transform="translate( 0, 0 )" style="stroke: hsl(26.9, 55%, 50%);" id="203"  d=" M  275,750  L  275,670  C  275,649  274.398,620.534  270,600  C  266.787,585  246.25,540  246.25,480  C  246.25,354.25  270,278.8  270,228.5  C  258.75,228.5  252.556,223.772  241.142,212.358  C  229.728,200.944  225,143.167  225.043,119.25  C  225.043,119.25  180,114.25  135.438,114.25  L  -135.438,114.25  C  -180,114.25  -225.043,119.25  -225.043,119.25  C  -225,143.167  -229.728,200.944  -241.142,212.358  C  -252.556,223.772  -258.75,228.5  -270,228.5  C  -270,278.8  -246.25,354.25  -246.25,480  C  -246.25,540  -266.787,585  -270,600  C  -274.398,620.534  -275,649  -275,670  L  -275,750  C  -275,750  -247.5,750  -247.5,750  L  0,750  L  247.5,750  C  247.5,750  275,750  275,750  C  275,750  275,670  275,670  z " />
<path transform="translate( 0, 0 )" style="stroke: hsl(53.8, 55%, 50%);" id="412"  d=" M  281,750  L  281,670  C  281,649  279.338,620.733  276,600  C  273.585,585  258.15,540  258.15,480  C  258.15,354.25  276,278.8  276,228.5  C  263.25,228.5  255.096,223.336  242.63,210.87  C  230.164,198.404  225,143.167  225.047,119.25  C  225.047,119.25  180,114.25  135.438,114.25  L  -135.438,114.25  C  -180,114.25  -225.047,119.25  -225.047,119.25  C  -225,143.167  -230.164,198.404  -242.63,210.87  C  -255.096,223.336  -263.25,228.5  -276,228.5  C  -276,278.8  -258.15,354.25  -258.15,480  C  -258.15,540  -273.585,585  -276,600  C  -279.338,620.733  -281,649  -281,670  L  -281,750  C  -281,750  -252.9,750  -252.9,750  L  0,750  L  252.9,750  C  252.9,750  281,750  281,750  C  281,750  281,670  281,670  z " />
<path transform="translate( 0, 0 )" style="stroke: hsl(80.7, 55%, 50%);" id="621"  d=" M  287,750  L  287,670  C  287,649  285.989,620.618  282,600  C  279.098,585  260.55,540  260.55,480  C  260.55,354.25  282,278.8  282,228.5  C  267.75,228.5  257.459,222.931  244.014,209.486  C  230.569,196.041  225,143.167  225.051,119.25  C  225.051,119.25  180,114.25  135.438,114.25  L  -135.438,114.25  C  -180,114.25  -225.051,119.25  -225.051,119.25  C  -225,143.167  -230.569,196.041  -244.014,209.486  C  -257.459,222.931  -267.75,228.5  -282,228.5  C  -282,278.8  -260.55,354.25  -260.55,480  C  -260.55,540  -279.098,585  -282,600  C  -285.989,620.618  -287,649  -287,670  L  -287,750  C  -287,750  -258.3,750  -258.3,750  L  0,750  L  258.3,750  C  258.3,750  287,750  287,750  C  287,750  287,670  287,670  z " />
<path transform="translate( 0, 0 )" style="stroke: hsl(107.6, 55%, 50%);" id="830"  d=" M  293,750  L  293,670  C  293,649  292.628,620.484  288,600  C  284.611,585  262.95,540  262.95,480  C  262.95,354.25  288,278.8  288,228.5  C  272.25,228.5  259.661,222.553  245.304,208.196  C  230.947,193.839  225,143.167  225.055,119.25  C  225.055,119.25  180,114.25  135.438,114.25  L  -135.438,114.25  C  -180,114.25  -225.055,119.25  -225.055,119.25  C  -225,143.167  -230.947,193.839  -245.304,208.196  C  -259.661,222.553  -272.25,228.5  -288,228.5  C  -288,278.8  -262.95,354.25  -262.95,480  C  -262.95,540  -284.611,585  -288,600  C  -292.628,620.484  -293,649  -293,670  L  -293,750  C  -293,750  -263.7,750  -263.7,750  L  0,750  L  263.7,750  C  263.7,750  293,750  293,750  C  293,750  293,670  293,670  z " />
<path transform="translate( 0, 0 )" style="stroke: hsl(134.5, 55%, 50%);" id="1039"  d=" M  299,750  L  299,670  C  299,649  299.254,620.332  294,600  C  290.124,585  265.35,540  265.35,480  C  265.35,354.25  294,278.8  294,228.5  C  276.75,228.5  261.719,222.2  246.51,206.991  C  231.301,191.782  225,143.167  225.059,119.25  C  225.059,119.25  180,114.25  135.438,114.25  L  -135.438,114.25  C  -180,114.25  -225.059,119.25  -225.059,119.25  C  -225,143.167  -231.301,191.782  -246.51,206.991  C  -261.719,222.2  -276.75,228.5  -294,228.5  C  -294,278.8  -265.35,354.25  -265.35,480  C  -265.35,540  -290.124,585  -294,600  C  -299.254,620.332  -299,649  -299,670  L  -299,750  C  -299,750  -269.1,750  -269.1,750  L  0,750  L  269.1,750  C  269.1,750  299,750  299,750  C  299,750  299,670  299,670  z " />
<path transform="translate( 0, 0 )" style="stroke: hsl(161.4, 55%, 50%);" id="1248"  d=" M  305,750  L  305,670  C  305,649  305.864,620.165  300,600  C  295.638,585  267.75,540  267.75,480  C  267.75,354.25  300,278.8  300,228.5  C  281.25,228.5  263.646,221.869  247.639,205.862  C  231.632,189.855  225,143.167  225.062,119.25  C  225.062,119.25  180,114.25  135.438,114.25  L  -135.438,114.25  C  -180,114.25  -225.062,119.25  -225.062,119.25  C  -225,143.167  -231.632,189.855  -247.639,205.862  C  -263.646,221.869  -281.25,228.5  -300,228.5  C  -300,278.8  -267.75,354.25  -267.75,480  C  -267.75,540  -295.638,585  -300,600  C  -305.864,620.165  -305,649  -305,670  L  -305,750  C  -305,750  -274.5,750  -274.5,750  L  0,750  L  274.5,750  C  274.5,750  305,750  305,750  C  305,750  305,670  305,670  z " />
<path transform="translate( 0, 0 )" style="stroke: hsl(188.3, 55%, 50%);" id="1457"  d=" M  311,750  L  311,670  C  311,649  312.459,619.982  306,600  C  301.151,585  270.15,540  270.15,480  C  270.15,354.25  306,278.8  306,228.5  C  285.75,228.5  265.456,221.559  248.699,204.802  C  231.942,188.045  225,143.167  225.066,119.25  C  225.066,119.25  180,114.25  135.438,114.25  L  -135.438,114.25  C  -180,114.25  -225.066,119.25  -225.066,119.25  C  -225,143.167  -231.942,188.045  -248.699,204.802  C  -265.456,221.559  -285.75,228.5  -306,228.5  C  -306,278.8  -270.15,354.25  -270.15,480  C  -270.15,540  -301.151,585  -306,600  C  -312.459,619.982  -311,649  -311,670  L  -311,750  C  -311,750  -279.9,750  -279.9,750  L  0,750  L  279.9,750  C  279.9,750  311,750  311,750  C  311,750  311,670  311,670  z " />
<path transform="translate( 0, 0 )" style="stroke: hsl(215.2, 55%, 50%);" id="1666"  d=" M  317,750  L  317,670  C  317,649  319.038,619.785  312,600  C  306.664,585  272.55,540  272.55,480  C  272.55,354.25  312,278.8  312,228.5  C  290.25,228.5  267.157,221.267  249.695,203.805  C  232.233,186.343  225,143.167  225.069,119.25  C  225.069,119.25  180,114.25  135.438,114.25  L  -135.438,114.25  C  -180,114.25  -225.069,119.25  -225.069,119.25  C  -225,143.167  -232.233,186.343  -249.695,203.805  C  -267.157,221.267  -290.25,228.5  -312,228.5  C  -312,278.8  -272.55,354.25  -272.55,480  C  -272.55,540  -306.664,585  -312,600  C  -319.038,619.785  -317,649  -317,670  L  -317,750  C  -317,750  -285.3,750  -285.3,750  L  0,750  L  285.3,750  C  285.3,750  317,750  317,750  C  317,750  317,670  317,670  z " />
<path transform="translate( 0, 0 )" style="stroke: hsl(242.1, 55%, 50%);" id="1875"  d=" M  323,750  L  323,670  C  323,649  325.6,619.577  318,600  C  312.177,585  274.95,540  274.95,480  C  274.95,354.25  318,278.8  318,228.5  C  294.75,228.5  268.76,220.992  250.634,202.866  C  232.508,184.74  225,143.167  225.072,119.25  C  225.072,119.25  180,114.25  135.438,114.25  L  -135.438,114.25  C  -180,114.25  -225.072,119.25  -225.072,119.25  C  -225,143.167  -232.508,184.74  -250.634,202.866  C  -268.76,220.992  -294.75,228.5  -318,228.5  C  -318,278.8  -274.95,354.25  -274.95,480  C  -274.95,540  -312.177,585  -318,600  C  -325.6,619.577  -323,649  -323,670  L  -323,750  C  -323,750  -290.7,750  -290.7,750  L  0,750  L  290.7,750  C  290.7,750  323,750  323,750  C  323,750  323,670  323,670  z " />
<path transform="translate( 0, 0 )" style="stroke: hsl(269, 55%, 50%);" id="2084"  d=" M  329,750  L  329,670  C  329,649  332.143,619.357  324,600  C  317.69,585  277.35,540  277.35,480  C  277.35,354.25  324,278.8  324,228.5  C  299.25,228.5  270.272,220.732  251.52,201.98  C  232.768,183.228  225,143.167  225.075,119.25  C  225.075,119.25  180,114.25  135.438,114.25  L  -135.438,114.25  C  -180,114.25  -225.075,119.25  -225.075,119.25  C  -225,143.167  -232.768,183.228  -251.52,201.98  C  -270.272,220.732  -299.25,228.5  -324,228.5  C  -324,278.8  -277.35,354.25  -277.35,480  C  -277.35,540  -317.69,585  -324,600  C  -332.143,619.357  -329,649  -329,670  L  -329,750  C  -329,750  -296.1,750  -296.1,750  L  0,750  L  296.1,750  C  296.1,750  329,750  329,750  C  329,750  329,670  329,670  z " />
<path transform="translate( 0, 0 )" style="stroke: hsl(295.9, 55%, 50%);" id="2293"  d=" M  335,750  L  335,670  C  335,649  338.667,619.128  330,600  C  323.203,585  279.75,540  279.75,480  C  279.75,354.25  330,278.8  330,228.5  C  303.75,228.5  271.702,220.487  252.358,201.143  C  233.014,181.799  225,143.167  225.078,119.25  C  225.078,119.25  180,114.25  135.438,114.25  L  -135.438,114.25  C  -180,114.25  -225.078,119.25  -225.078,119.25  C  -225,143.167  -233.014,181.799  -252.358,201.143  C  -271.702,220.487  -303.75,228.5  -330,228.5  C  -330,278.8  -279.75,354.25  -279.75,480  C  -279.75,540  -323.203,585  -330,600  C  -338.667,619.128  -335,649  -335,670  L  -335,750  C  -335,750  -301.5,750  -301.5,750  L  0,750  L  301.5,750  C  301.5,750  335,750  335,750  C  335,750  335,670  335,670  z " />
    </g>
    <!-- End of group #back -->
</g>
<!-- End of group #patternScaleContainer -->

</svg>

