<?xml version="1.0" encoding="UTF-8" standalone="no"?>
<svg
    width ="1673.9574819145"
    height ="301.18110265"
    viewbox ="0 0 1673.9574819145 301.18110265" xmlns:dc="http://purl.org/dc/elements/1.1/"
    xmlns:cc="http://creativecommons.org/ns#"
    xmlns:rdf="http://www.w3.org/1999/02/22-rdf-syntax-ns#"
    xmlns:svg="http://www.w3.org/2000/svg"
    xmlns="http://www.w3.org/2000/svg"
    xmlns:xlink="http://www.w3.org/1999/xlink"
    xmlns:sodipodi="http://sodipodi.sourceforge.net/DTD/sodipodi-0.dtd"
    xmlns:inkscape="http://www.inkscape.org/namespaces/inkscape" 
>

<style type="text/css">
    <![CDATA[
    path { fill: none; stroke: #000000; stroke-opacity:1; stroke-width: 0.5; stroke-miterlimit:4; stroke-dashoffset:0; stroke-linecap:round; stroke-linejoin:round; }
    path.hidden { fill: none; stroke: none; }]]>
</style>


<!-- Start of group #patternScaleContainer -->
<g id="patternScaleContainer"  transform=" scale(3.54330709 ) " >
    
    <!-- Start of group #collarStand -->
    <g id="collarStand"  transform=" translate(232.478 10)  translate(0 0) " >
        <path class="hidden" id="2"  d=" M  -227.478,-5  L  234.95,-5  L  234.95,70  L  -227.478,70  z " />
<path transform="translate( 0, 0 )" style="stroke: hsl(26.9, 55%, 50%);" id="205"  d=" M  0,10  C  86.738,10  130.108,15  162.635,15  C  206.004,15  207.538,13.343  217.5,12.471  L  234.933,10.946  C  234.28,3.475  233.626,-3.997  216.192,-2.471  C  206.23,-1.599  206.004,0  162.635,0  C  130.108,0  86.738,-5  0,-5  C  -86.738,-5  -130.108,0  -162.635,0  C  -206.004,0  -206.23,-1.599  -216.192,-2.471  C  -226.154,-3.343  -226.808,4.129  -227.462,11.6  L  -217.5,12.471  C  -207.538,13.343  -206.004,15  -162.635,15  C  -130.108,15  -86.738,10  0,10  z " />
<path transform="translate( 0, 0 )" style="stroke: hsl(53.8, 55%, 50%);" id="414"  d=" M  0,15.5  C  86.552,15.5  129.828,20.5  162.285,20.5  C  205.561,20.5  207.311,18.833  217.273,17.961  L  234.707,16.436  C  233.814,6.225  232.92,-3.986  215.487,-2.461  C  205.525,-1.589  205.561,0  162.285,0  C  129.828,0  86.552,-5  0,-5  C  -86.552,-5  -129.828,0  -162.285,0  C  -205.561,0  -205.525,-1.589  -215.487,-2.461  C  -225.449,-3.333  -226.342,6.878  -227.235,17.089  L  -217.273,17.961  C  -207.311,18.833  -205.561,20.5  -162.285,20.5  C  -129.828,20.5  -86.552,15.5  0,15.5  z " />
<path transform="translate( 0, 0 )" style="stroke: hsl(80.7, 55%, 50%);" id="623"  d=" M  0,21  C  86.552,21  129.828,26  162.285,26  C  205.561,26  207.551,24.323  217.513,23.451  L  234.946,21.925  C  233.813,8.975  232.68,-3.976  215.247,-2.451  C  205.285,-1.579  205.561,0  162.285,0  C  129.828,0  86.552,-5  0,-5  C  -86.552,-5  -129.828,0  -162.285,0  C  -205.561,0  -205.285,-1.579  -215.247,-2.451  C  -225.209,-3.322  -226.342,9.629  -227.475,22.579  L  -217.513,23.451  C  -207.551,24.323  -205.561,26  -162.285,26  C  -129.828,26  -86.552,21  0,21  z " />
<path transform="translate( 0, 0 )" style="stroke: hsl(107.6, 55%, 50%);" id="832"  d=" M  0,26.5  C  86.454,26.5  129.682,31.5  162.102,31.5  C  205.329,31.5  207.547,29.812  217.509,28.94  L  234.942,27.415  C  233.57,11.725  232.197,-3.965  214.763,-2.44  C  204.801,-1.568  205.329,0  162.102,0  C  129.682,0  86.454,-5  0,-5  C  -86.454,-5  -129.682,0  -162.102,0  C  -205.329,0  -204.801,-1.568  -214.763,-2.44  C  -224.725,-3.312  -226.098,12.379  -227.471,28.069  L  -217.509,28.94  C  -207.547,29.812  -205.329,31.5  -162.102,31.5  C  -129.682,31.5  -86.454,26.5  0,26.5  z " />
<path transform="translate( 0, 0 )" style="stroke: hsl(134.5, 55%, 50%);" id="1041"  d=" M  0,32  C  86.357,32  129.535,37  161.919,37  C  205.097,37  207.542,35.302  217.504,34.43  L  234.938,32.904  C  233.326,14.475  231.713,-3.955  214.28,-2.43  C  204.318,-1.558  205.097,0  161.919,0  C  129.535,0  86.357,-5  0,-5  C  -86.357,-5  -129.535,0  -161.919,0  C  -205.097,0  -204.318,-1.558  -214.28,-2.43  C  -224.242,-3.301  -225.854,15.129  -227.466,33.558  L  -217.504,34.43  C  -207.542,35.302  -205.097,37  -161.919,37  C  -129.535,37  -86.357,32  0,32  z " />
<path transform="translate( 0, 0 )" style="stroke: hsl(161.4, 55%, 50%);" id="1250"  d=" M  0,37.5  C  86.106,37.5  129.16,42.5  161.45,42.5  C  204.503,42.5  207.156,40.791  217.118,39.919  L  234.551,38.394  C  232.699,17.225  230.847,-3.944  213.414,-2.419  C  203.452,-1.547  204.503,0  161.45,0  C  129.16,0  86.106,-5  0,-5  C  -86.106,-5  -129.16,0  -161.45,0  C  -204.503,0  -203.452,-1.547  -213.414,-2.419  C  -223.376,-3.291  -225.228,17.879  -227.08,39.048  L  -217.118,39.919  C  -207.156,40.791  -204.503,42.5  -161.45,42.5  C  -129.16,42.5  -86.106,37.5  0,37.5  z " />
<path transform="translate( 0, 0 )" style="stroke: hsl(188.3, 55%, 50%);" id="1459"  d=" M  0,43  C  86.106,43  129.16,48  161.45,48  C  204.503,48  207.396,46.281  217.358,45.409  L  234.791,43.883  C  232.7,19.975  230.608,-3.934  213.174,-2.409  C  203.212,-1.537  204.503,0  161.45,0  C  129.16,0  86.106,-5  0,-5  C  -86.106,-5  -129.16,0  -161.45,0  C  -204.503,0  -203.212,-1.537  -213.174,-2.409  C  -223.136,-3.28  -225.228,20.629  -227.32,44.537  L  -217.358,45.409  C  -207.396,46.281  -204.503,48  -161.45,48  C  -129.16,48  -86.106,43  0,43  z " />
<path transform="translate( 0, 0 )" style="stroke: hsl(215.2, 55%, 50%);" id="1668"  d=" M  0,48.5  C  86.074,48.5  129.111,53.5  161.389,53.5  C  204.426,53.5  207.554,51.77  217.516,50.898  L  234.95,49.373  C  232.619,22.725  230.287,-3.923  212.854,-2.398  C  202.892,-1.526  204.426,0  161.389,0  C  129.111,0  86.074,-5  0,-5  C  -86.074,-5  -129.111,0  -161.389,0  C  -204.426,0  -202.892,-1.526  -212.854,-2.398  C  -222.816,-3.27  -225.147,23.379  -227.478,50.027  L  -217.516,50.898  C  -207.554,51.77  -204.426,53.5  -161.389,53.5  C  -129.111,53.5  -86.074,48.5  0,48.5  z " />
<path transform="translate( 0, 0 )" style="stroke: hsl(242.1, 55%, 50%);" id="1877"  d=" M  0,54  C  85.977,54  128.965,59  161.207,59  C  204.195,59  207.551,57.26  217.513,56.388  L  234.947,54.863  C  232.376,25.475  229.804,-3.913  212.371,-2.388  C  202.409,-1.516  204.195,0  161.207,0  C  128.965,0  85.977,-5  0,-5  C  -85.977,-5  -128.965,0  -161.207,0  C  -204.195,0  -202.409,-1.516  -212.371,-2.388  C  -222.333,-3.259  -224.904,26.129  -227.475,55.516  L  -217.513,56.388  C  -207.551,57.26  -204.195,59  -161.207,59  C  -128.965,59  -85.977,54  0,54  z " />
<path transform="translate( 0, 0 )" style="stroke: hsl(269, 55%, 50%);" id="2086"  d=" M  0,59.5  C  85.695,59.5  128.543,64.5  160.679,64.5  C  203.526,64.5  207.087,62.749  217.049,61.877  L  234.482,60.352  C  231.672,28.225  228.861,-3.903  211.427,-2.377  C  201.465,-1.505  203.526,0  160.679,0  C  128.543,0  85.695,-5  0,-5  C  -85.695,-5  -128.543,0  -160.679,0  C  -203.526,0  -201.465,-1.505  -211.427,-2.377  C  -221.389,-3.249  -224.2,28.879  -227.011,61.006  L  -217.049,61.877  C  -207.087,62.749  -203.526,64.5  -160.679,64.5  C  -128.543,64.5  -85.695,59.5  0,59.5  z " />
<path transform="translate( 0, 0 )" style="stroke: hsl(295.9, 55%, 50%);" id="2295"  d=" M  0,65  C  85.695,65  128.543,70  160.679,70  C  203.526,70  207.326,68.239  217.288,67.367  L  234.722,65.842  C  231.672,30.975  228.621,-3.892  211.188,-2.367  C  201.226,-1.495  203.526,0  160.679,0  C  128.543,0  85.695,-5  0,-5  C  -85.695,-5  -128.543,0  -160.679,0  C  -203.526,0  -201.226,-1.495  -211.188,-2.367  C  -221.149,-3.238  -224.2,31.629  -227.25,66.495  L  -217.288,67.367  C  -207.326,68.239  -203.526,70  -160.679,70  C  -128.543,70  -85.695,65  0,65  z " />
    </g>
    <!-- End of group #collarStand -->
</g>
<!-- End of group #patternScaleContainer -->

</svg>

