<?xml version="1.0" encoding="UTF-8" standalone="no"?>
<svg
    width ="1754.369293015"
    height ="272.83464593"
    viewbox ="0 0 1754.369293015 272.83464593" xmlns:dc="http://purl.org/dc/elements/1.1/"
    xmlns:cc="http://creativecommons.org/ns#"
    xmlns:rdf="http://www.w3.org/1999/02/22-rdf-syntax-ns#"
    xmlns:svg="http://www.w3.org/2000/svg"
    xmlns="http://www.w3.org/2000/svg"
    xmlns:xlink="http://www.w3.org/1999/xlink"
    xmlns:sodipodi="http://sodipodi.sourceforge.net/DTD/sodipodi-0.dtd"
    xmlns:inkscape="http://www.inkscape.org/namespaces/inkscape" 
>

<style type="text/css">
    <![CDATA[
    path { fill: none; stroke: #000000; stroke-opacity:1; stroke-width: 0.5; stroke-miterlimit:4; stroke-dashoffset:0; stroke-linecap:round; stroke-linejoin:round; }
    path.hidden { fill: none; stroke: none; }]]>
</style>


<!-- Start of group #patternScaleContainer -->
<g id="patternScaleContainer"  transform=" scale(3.54330709 ) " >
    
    <!-- Start of group #collar -->
    <g id="collar"  transform=" translate(247.561 72)  translate(0 0) " >
        <path class="hidden" id="2"  d=" M  -242.561,-67  L  242.561,-67  L  242.561,0  L  -242.561,0  z " />
<path transform="translate( 0, 0 )" style="stroke: hsl(26.9, 55%, 50%);" id="206"  d=" M  0,-15  C  173.104,-15  203.88,0  203.88,0  L  242.561,-67  C  242.561,-67  151.466,-57  121.281,-57  L  -121.281,-57  C  -151.466,-57  -242.561,-67  -242.561,-67  L  -203.88,0  C  -203.88,0  -173.104,-15  0,-15  z " />
<path transform="translate( 0, 0 )" style="stroke: hsl(53.8, 55%, 50%);" id="415"  d=" M  0,-15  C  173.104,-15  203.88,0  203.88,0  L  232.321,-67  C  232.321,-67  151.466,-57  116.161,-57  L  -116.161,-57  C  -151.466,-57  -232.321,-67  -232.321,-67  L  -203.88,0  C  -203.88,0  -173.104,-15  0,-15  z " />
<path transform="translate( 0, 0 )" style="stroke: hsl(80.7, 55%, 50%);" id="624"  d=" M  0,-15  C  173.104,-15  203.88,0  203.88,0  L  223.093,-67  C  223.093,-67  151.466,-57  111.547,-57  L  -111.547,-57  C  -151.466,-57  -223.093,-67  -223.093,-67  L  -203.88,0  C  -203.88,0  -173.104,-15  0,-15  z " />
<path transform="translate( 0, 0 )" style="stroke: hsl(107.6, 55%, 50%);" id="833"  d=" M  0,-15  C  173.104,-15  203.88,0  203.88,0  L  214.493,-67  C  214.493,-67  151.466,-57  107.247,-57  L  -107.247,-57  C  -151.466,-57  -214.493,-67  -214.493,-67  L  -203.88,0  C  -203.88,0  -173.104,-15  0,-15  z " />
<path transform="translate( 0, 0 )" style="stroke: hsl(134.5, 55%, 50%);" id="1042"  d=" M  0,-15  C  173.104,-15  203.88,0  203.88,0  L  206.22,-67  C  206.22,-67  151.466,-57  103.11,-57  L  -103.11,-57  C  -151.466,-57  -206.22,-67  -206.22,-67  L  -203.88,0  C  -203.88,0  -173.104,-15  0,-15  z " />
<path transform="translate( 0, 0 )" style="stroke: hsl(161.4, 55%, 50%);" id="1251"  d=" M  0,-15  C  173.104,-15  203.88,0  203.88,0  L  198.019,-67  C  198.019,-67  151.466,-57  99.01,-57  L  -99.01,-57  C  -151.466,-57  -198.019,-67  -198.019,-67  L  -203.88,0  C  -203.88,0  -173.104,-15  0,-15  z " />
<path transform="translate( 0, 0 )" style="stroke: hsl(188.3, 55%, 50%);" id="1460"  d=" M  0,-15  C  173.104,-15  203.88,0  203.88,0  L  189.64,-67  C  189.64,-67  151.466,-57  94.82,-57  L  -94.82,-57  C  -151.466,-57  -189.64,-67  -189.64,-67  L  -203.88,0  C  -203.88,0  -173.104,-15  0,-15  z " />
<path transform="translate( 0, 0 )" style="stroke: hsl(215.2, 55%, 50%);" id="1669"  d=" M  0,-15  C  173.104,-15  203.88,0  203.88,0  L  180.811,-67  C  180.811,-67  151.466,-57  90.406,-57  L  -90.406,-57  C  -151.466,-57  -180.811,-67  -180.811,-67  L  -203.88,0  C  -203.88,0  -173.104,-15  0,-15  z " />
<path transform="translate( 0, 0 )" style="stroke: hsl(242.1, 55%, 50%);" id="1878"  d=" M  0,-15  C  173.104,-15  203.88,0  203.88,0  L  171.204,-67  C  171.204,-67  151.466,-57  85.602,-57  L  -85.602,-57  C  -151.466,-57  -171.204,-67  -171.204,-67  L  -203.88,0  C  -203.88,0  -173.104,-15  0,-15  z " />
<path transform="translate( 0, 0 )" style="stroke: hsl(269, 55%, 50%);" id="2087"  d=" M  0,-15  C  173.104,-15  203.88,0  203.88,0  L  160.368,-67  C  160.368,-67  151.466,-57  80.184,-57  L  -80.184,-57  C  -151.466,-57  -160.368,-67  -160.368,-67  L  -203.88,0  C  -203.88,0  -173.104,-15  0,-15  z " />
<path transform="translate( 0, 0 )" style="stroke: hsl(295.9, 55%, 50%);" id="2296"  d=" M  0,-15  C  173.104,-15  203.88,0  203.88,0  L  147.66,-67  C  147.66,-67  151.466,-57  73.83,-57  L  -73.83,-57  C  -151.466,-57  -147.66,-67  -147.66,-67  L  -203.88,0  C  -203.88,0  -173.104,-15  0,-15  z " />
    </g>
    <!-- End of group #collar -->
</g>
<!-- End of group #patternScaleContainer -->

</svg>

