<?xml version="1.0" encoding="UTF-8" standalone="no"?>
<svg
    width ="1534.1881904424"
    height ="343.70078773"
    viewbox ="0 0 1534.1881904424 343.70078773" xmlns:dc="http://purl.org/dc/elements/1.1/"
    xmlns:cc="http://creativecommons.org/ns#"
    xmlns:rdf="http://www.w3.org/1999/02/22-rdf-syntax-ns#"
    xmlns:svg="http://www.w3.org/2000/svg"
    xmlns="http://www.w3.org/2000/svg"
    xmlns:xlink="http://www.w3.org/1999/xlink"
    xmlns:sodipodi="http://sodipodi.sourceforge.net/DTD/sodipodi-0.dtd"
    xmlns:inkscape="http://www.inkscape.org/namespaces/inkscape" 
>

<style type="text/css">
    <![CDATA[
    path { fill: none; stroke: #000000; stroke-opacity:1; stroke-width: 0.5; stroke-miterlimit:4; stroke-dashoffset:0; stroke-linecap:round; stroke-linejoin:round; }
    path.hidden { fill: none; stroke: none; }]]>
</style>


<!-- Start of group #patternScaleContainer -->
<g id="patternScaleContainer"  transform=" scale(3.54330709 ) " >
    
    <!-- Start of group #collar -->
    <g id="collar"  transform=" translate(216.491 92)  translate(0 0) " >
        <path class="hidden" id="2"  d=" M  -211.491,-87  L  211.491,-87  L  211.491,0  L  -211.491,0  z " />
<path transform="translate( 0, 0 )" style="stroke: hsl(26.9, 55%, 50%);" id="206"  d=" M  0,-15  C  173.104,-15  203.88,0  203.88,0  L  208.866,-57  C  208.866,-57  151.466,-57  104.433,-57  L  -104.433,-57  C  -151.466,-57  -208.866,-57  -208.866,-57  L  -203.88,0  C  -203.88,0  -173.104,-15  0,-15  z " />
<path transform="translate( 0, 0 )" style="stroke: hsl(53.8, 55%, 50%);" id="415"  d=" M  0,-15  C  173.104,-15  203.88,0  203.88,0  L  209.129,-60  C  209.129,-60  151.466,-57  104.565,-57  L  -104.565,-57  C  -151.466,-57  -209.129,-60  -209.129,-60  L  -203.88,0  C  -203.88,0  -173.104,-15  0,-15  z " />
<path transform="translate( 0, 0 )" style="stroke: hsl(80.7, 55%, 50%);" id="624"  d=" M  0,-15  C  173.104,-15  203.88,0  203.88,0  L  209.391,-63  C  209.391,-63  151.466,-57  104.696,-57  L  -104.696,-57  C  -151.466,-57  -209.391,-63  -209.391,-63  L  -203.88,0  C  -203.88,0  -173.104,-15  0,-15  z " />
<path transform="translate( 0, 0 )" style="stroke: hsl(107.6, 55%, 50%);" id="833"  d=" M  0,-15  C  173.104,-15  203.88,0  203.88,0  L  209.654,-66  C  209.654,-66  151.466,-57  104.827,-57  L  -104.827,-57  C  -151.466,-57  -209.654,-66  -209.654,-66  L  -203.88,0  C  -203.88,0  -173.104,-15  0,-15  z " />
<path transform="translate( 0, 0 )" style="stroke: hsl(134.5, 55%, 50%);" id="1042"  d=" M  0,-15  C  173.104,-15  203.88,0  203.88,0  L  209.916,-69  C  209.916,-69  151.466,-57  104.958,-57  L  -104.958,-57  C  -151.466,-57  -209.916,-69  -209.916,-69  L  -203.88,0  C  -203.88,0  -173.104,-15  0,-15  z " />
<path transform="translate( 0, 0 )" style="stroke: hsl(161.4, 55%, 50%);" id="1251"  d=" M  0,-15  C  173.104,-15  203.88,0  203.88,0  L  210.179,-72  C  210.179,-72  151.466,-57  105.09,-57  L  -105.09,-57  C  -151.466,-57  -210.179,-72  -210.179,-72  L  -203.88,0  C  -203.88,0  -173.104,-15  0,-15  z " />
<path transform="translate( 0, 0 )" style="stroke: hsl(188.3, 55%, 50%);" id="1460"  d=" M  0,-15  C  173.104,-15  203.88,0  203.88,0  L  210.441,-75  C  210.441,-75  151.466,-57  105.221,-57  L  -105.221,-57  C  -151.466,-57  -210.441,-75  -210.441,-75  L  -203.88,0  C  -203.88,0  -173.104,-15  0,-15  z " />
<path transform="translate( 0, 0 )" style="stroke: hsl(215.2, 55%, 50%);" id="1669"  d=" M  0,-15  C  173.104,-15  203.88,0  203.88,0  L  210.704,-78  C  210.704,-78  151.466,-57  105.352,-57  L  -105.352,-57  C  -151.466,-57  -210.704,-78  -210.704,-78  L  -203.88,0  C  -203.88,0  -173.104,-15  0,-15  z " />
<path transform="translate( 0, 0 )" style="stroke: hsl(242.1, 55%, 50%);" id="1878"  d=" M  0,-15  C  173.104,-15  203.88,0  203.88,0  L  210.966,-81  C  210.966,-81  151.466,-57  105.483,-57  L  -105.483,-57  C  -151.466,-57  -210.966,-81  -210.966,-81  L  -203.88,0  C  -203.88,0  -173.104,-15  0,-15  z " />
<path transform="translate( 0, 0 )" style="stroke: hsl(269, 55%, 50%);" id="2087"  d=" M  0,-15  C  173.104,-15  203.88,0  203.88,0  L  211.229,-84  C  211.229,-84  151.466,-57  105.615,-57  L  -105.615,-57  C  -151.466,-57  -211.229,-84  -211.229,-84  L  -203.88,0  C  -203.88,0  -173.104,-15  0,-15  z " />
<path transform="translate( 0, 0 )" style="stroke: hsl(295.9, 55%, 50%);" id="2296"  d=" M  0,-15  C  173.104,-15  203.88,0  203.88,0  L  211.491,-87  C  211.491,-87  151.466,-57  105.746,-57  L  -105.746,-57  C  -151.466,-57  -211.491,-87  -211.491,-87  L  -203.88,0  C  -203.88,0  -173.104,-15  0,-15  z " />
    </g>
    <!-- End of group #collar -->
</g>
<!-- End of group #patternScaleContainer -->

</svg>

