<?xml version="1.0" encoding="UTF-8" standalone="no"?>
<svg
    width ="1674.527954356"
    height ="177.1653545"
    viewbox ="0 0 1674.527954356 177.1653545" xmlns:dc="http://purl.org/dc/elements/1.1/"
    xmlns:cc="http://creativecommons.org/ns#"
    xmlns:rdf="http://www.w3.org/1999/02/22-rdf-syntax-ns#"
    xmlns:svg="http://www.w3.org/2000/svg"
    xmlns="http://www.w3.org/2000/svg"
    xmlns:xlink="http://www.w3.org/1999/xlink"
    xmlns:sodipodi="http://sodipodi.sourceforge.net/DTD/sodipodi-0.dtd"
    xmlns:inkscape="http://www.inkscape.org/namespaces/inkscape" 
>

<style type="text/css">
    <![CDATA[
    path { fill: none; stroke: #000000; stroke-opacity:1; stroke-width: 0.5; stroke-miterlimit:4; stroke-dashoffset:0; stroke-linecap:round; stroke-linejoin:round; }
    path.hidden { fill: none; stroke: none; }]]>
</style>


<!-- Start of group #patternScaleContainer -->
<g id="patternScaleContainer"  transform=" scale(3.54330709 ) " >
    
    <!-- Start of group #collarStand -->
    <g id="collarStand"  transform=" translate(232.546 10)  translate(0 0) " >
        <path class="hidden" id="2"  d=" M  -227.546,-5  L  235.043,-5  L  235.043,35  L  -227.546,35  z " />
<path transform="translate( 0, 0 )" style="stroke: hsl(26.9, 55%, 50%);" id="205"  d=" M  0,30  C  87,30  130.5,35  163.125,35  C  206.625,35  207.5,32.5  217.5,32.5  L  235,32.5  C  235,15  235,-2.5  217.5,-2.5  C  207.5,-2.5  206.625,0  163.125,0  C  130.5,0  87,-5  0,-5  C  -87,-5  -130.5,0  -163.125,0  C  -206.625,0  -207.5,-2.5  -217.5,-2.5  C  -227.5,-2.5  -227.5,15  -227.5,32.5  L  -217.5,32.5  C  -207.5,32.5  -206.625,35  -163.125,35  C  -130.5,35  -87,30  0,30  z " />
<path transform="translate( 0, 0 )" style="stroke: hsl(53.8, 55%, 50%);" id="414"  d=" M  0,30  C  86.836,30  130.255,35  162.818,35  C  206.236,35  207.552,32.756  217.549,32.494  L  235.043,32.036  C  234.585,14.542  234.127,-2.952  216.633,-2.494  C  206.636,-2.232  206.236,0  162.818,0  C  130.255,0  86.836,-5  0,-5  C  -86.836,-5  -130.255,0  -162.818,0  C  -206.236,0  -206.636,-2.232  -216.633,-2.494  C  -226.629,-2.756  -227.088,14.738  -227.546,32.232  L  -217.549,32.494  C  -207.552,32.756  -206.236,35  -162.818,35  C  -130.255,35  -86.836,30  0,30  z " />
<path transform="translate( 0, 0 )" style="stroke: hsl(80.7, 55%, 50%);" id="623"  d=" M  0,30  C  86.552,30  129.828,35  162.285,35  C  205.561,35  207.31,32.999  217.296,32.476  L  234.772,31.56  C  233.856,14.084  232.94,-3.392  215.464,-2.476  C  205.478,-1.953  205.561,0  162.285,0  C  129.828,0  86.552,-5  0,-5  C  -86.552,-5  -129.828,0  -162.285,0  C  -205.561,0  -205.478,-1.953  -215.464,-2.476  C  -225.45,-2.999  -226.366,14.477  -227.282,31.953  L  -217.296,32.476  C  -207.31,32.999  -205.561,35  -162.285,35  C  -129.828,35  -86.552,30  0,30  z " />
<path transform="translate( 0, 0 )" style="stroke: hsl(107.6, 55%, 50%);" id="832"  d=" M  0,30  C  86.454,30  129.682,35  162.102,35  C  205.329,35  207.54,33.231  217.509,32.446  L  234.955,31.073  C  233.582,13.627  232.209,-3.819  214.763,-2.446  C  204.794,-1.661  205.329,0  162.102,0  C  129.682,0  86.454,-5  0,-5  C  -86.454,-5  -129.682,0  -162.102,0  C  -205.329,0  -204.794,-1.661  -214.763,-2.446  C  -224.732,-3.231  -226.105,14.215  -227.478,31.661  L  -217.509,32.446  C  -207.54,33.231  -205.329,35  -162.102,35  C  -129.682,35  -86.454,30  0,30  z " />
<path transform="translate( 0, 0 )" style="stroke: hsl(134.5, 55%, 50%);" id="1041"  d=" M  0,30  C  86.106,30  129.16,35  161.45,35  C  204.503,35  207.15,33.449  217.095,32.404  L  234.499,30.575  C  232.67,13.171  230.841,-4.233  213.437,-2.404  C  203.492,-1.359  204.503,0  161.45,0  C  129.16,0  86.106,-5  0,-5  C  -86.106,-5  -129.16,0  -161.45,0  C  -204.503,0  -203.492,-1.359  -213.437,-2.404  C  -223.382,-3.449  -225.211,13.955  -227.04,31.359  L  -217.095,32.404  C  -207.15,33.449  -204.503,35  -161.45,35  C  -129.16,35  -86.106,30  0,30  z " />
<path transform="translate( 0, 0 )" style="stroke: hsl(161.4, 55%, 50%);" id="1250"  d=" M  0,30  C  86.074,30  129.111,35  161.389,35  C  204.426,35  207.555,33.655  217.469,32.35  L  234.819,30.066  C  232.535,12.716  230.251,-4.634  212.901,-2.35  C  202.987,-1.045  204.426,0  161.389,0  C  129.111,0  86.074,-5  0,-5  C  -86.074,-5  -129.111,0  -161.389,0  C  -204.426,0  -202.987,-1.045  -212.901,-2.35  C  -222.815,-3.656  -225.1,13.695  -227.384,31.045  L  -217.469,32.35  C  -207.555,33.655  -204.426,35  -161.389,35  C  -129.111,35  -86.074,30  0,30  z " />
<path transform="translate( 0, 0 )" style="stroke: hsl(188.3, 55%, 50%);" id="1459"  d=" M  0,30  C  85.88,30  128.819,35  161.024,35  C  203.964,35  207.56,33.849  217.437,32.285  L  234.721,29.547  C  231.984,12.263  229.246,-5.022  211.961,-2.285  C  202.084,-0.721  203.964,0  161.024,0  C  128.819,0  85.88,-5  0,-5  C  -85.88,-5  -128.819,0  -161.024,0  C  -203.964,0  -202.084,-0.721  -211.961,-2.285  C  -221.838,-3.849  -224.576,13.436  -227.313,30.72  L  -217.437,32.285  C  -207.56,33.849  -203.964,35  -161.024,35  C  -128.819,35  -85.88,30  0,30  z " />
<path transform="translate( 0, 0 )" style="stroke: hsl(215.2, 55%, 50%);" id="1668"  d=" M  0,30  C  85.695,30  128.543,35  160.679,35  C  203.526,35  207.594,34.029  217.427,32.207  L  234.634,29.018  C  231.445,11.811  228.256,-5.396  211.049,-2.207  C  201.216,-0.385  203.526,0  160.679,0  C  128.543,0  85.695,-5  0,-5  C  -85.695,-5  -128.543,0  -160.679,0  C  -203.526,0  -201.216,-0.385  -211.049,-2.207  C  -220.881,-4.029  -224.071,13.178  -227.26,30.385  L  -217.427,32.207  C  -207.594,34.029  -203.526,35  -160.679,35  C  -128.543,35  -85.695,30  0,30  z " />
<path transform="translate( 0, 0 )" style="stroke: hsl(242.1, 55%, 50%);" id="1877"  d=" M  0,30  C  85.502,30  128.252,35  160.316,35  C  203.066,35  207.611,34.197  217.392,32.118  L  234.51,28.479  C  230.872,11.362  227.233,-5.756  210.116,-2.118  C  200.335,-0.039  203.066,0  160.316,0  C  128.252,0  85.502,-5  0,-5  C  -85.502,-5  -128.252,0  -160.316,0  C  -203.066,0  -200.335,-0.039  -210.116,-2.118  C  -219.897,-4.197  -223.536,12.921  -227.174,30.038  L  -217.392,32.118  C  -207.611,34.197  -203.066,35  -160.316,35  C  -128.252,35  -85.502,30  0,30  z " />
<path transform="translate( 0, 0 )" style="stroke: hsl(269, 55%, 50%);" id="2086"  d=" M  0,30  C  85.254,30  127.88,35  159.851,35  C  202.477,35  207.495,34.35  217.219,32.016  L  234.236,27.931  C  230.151,10.915  226.065,-6.102  209.049,-2.016  C  199.325,0.318  202.477,0  159.851,0  C  127.88,0  85.254,-5  0,-5  C  -85.254,-5  -127.88,0  -159.851,0  C  -202.477,0  -199.325,0.318  -209.049,-2.016  C  -218.772,-4.351  -222.858,12.666  -226.943,29.682  L  -217.219,32.016  C  -207.495,34.35  -202.477,35  -159.851,35  C  -127.88,35  -85.254,30  0,30  z " />
<path transform="translate( 0, 0 )" style="stroke: hsl(295.9, 55%, 50%);" id="2295"  d=" M  0,30  C  85.126,30  127.688,35  159.611,35  C  202.173,35  207.684,34.492  217.343,31.904  L  234.247,27.374  C  229.718,10.471  225.188,-6.433  208.285,-1.904  C  198.626,0.684  202.173,0  159.611,0  C  127.688,0  85.126,-5  0,-5  C  -85.126,-5  -127.688,0  -159.611,0  C  -202.173,0  -198.626,0.684  -208.285,-1.904  C  -217.944,-4.492  -222.474,12.412  -227.003,29.316  L  -217.343,31.904  C  -207.684,34.492  -202.173,35  -159.611,35  C  -127.688,35  -85.126,30  0,30  z " />
    </g>
    <!-- End of group #collarStand -->
</g>
<!-- End of group #patternScaleContainer -->

</svg>

