<?xml version="1.0" encoding="UTF-8" standalone="no"?>
<svg
    width ="946.06299303"
    height ="510.23622096"
    viewbox ="0 0 946.06299303 510.23622096" xmlns:dc="http://purl.org/dc/elements/1.1/"
    xmlns:cc="http://creativecommons.org/ns#"
    xmlns:rdf="http://www.w3.org/1999/02/22-rdf-syntax-ns#"
    xmlns:svg="http://www.w3.org/2000/svg"
    xmlns="http://www.w3.org/2000/svg"
    xmlns:xlink="http://www.w3.org/1999/xlink"
    xmlns:sodipodi="http://sodipodi.sourceforge.net/DTD/sodipodi-0.dtd"
    xmlns:inkscape="http://www.inkscape.org/namespaces/inkscape" 
>

<style type="text/css">
    <![CDATA[
    path { fill: none; stroke: #000000; stroke-opacity:1; stroke-width: 0.5; stroke-miterlimit:4; stroke-dashoffset:0; stroke-linecap:round; stroke-linejoin:round; }
    path.hidden { fill: none; stroke: none; }]]>
</style>


<!-- Start of group #patternScaleContainer -->
<g id="patternScaleContainer"  transform=" scale(3.54330709 ) " >
    
    <!-- Start of group #sleevePlacketUnderlap -->
    <g id="sleevePlacketUnderlap"  transform=" translate(-5 5)  translate(0 98) " >
        <path class="hidden" id="2"  d=" M  10,0  L  198.75,0  L  198.75,36  L  10,36  z " />
<path transform="translate( 0, 0 )" style="stroke: hsl(26.9, 55%, 50%);" id="208"  d=" M  10,0  L  193.75,0  L  193.75,27  L  10,27  z " />
<path transform="translate( 0, 0 )" style="stroke: hsl(53.8, 55%, 50%);" id="417"  d=" M  10,0  L  194.25,0  L  194.25,31  L  10,31  z " />
<path transform="translate( 0, 0 )" style="stroke: hsl(80.7, 55%, 50%);" id="626"  d=" M  10,0  L  194.75,0  L  194.75,35  L  10,35  z " />
<path transform="translate( 0, 0 )" style="stroke: hsl(107.6, 55%, 50%);" id="835"  d=" M  10,0  L  195.25,0  L  195.25,36  L  10,36  z " />
<path transform="translate( 0, 0 )" style="stroke: hsl(134.5, 55%, 50%);" id="1044"  d=" M  10,0  L  195.75,0  L  195.75,36  L  10,36  z " />
<path transform="translate( 0, 0 )" style="stroke: hsl(161.4, 55%, 50%);" id="1253"  d=" M  10,0  L  196.25,0  L  196.25,36  L  10,36  z " />
<path transform="translate( 0, 0 )" style="stroke: hsl(188.3, 55%, 50%);" id="1462"  d=" M  10,0  L  196.75,0  L  196.75,36  L  10,36  z " />
<path transform="translate( 0, 0 )" style="stroke: hsl(215.2, 55%, 50%);" id="1671"  d=" M  10,0  L  197.25,0  L  197.25,36  L  10,36  z " />
<path transform="translate( 0, 0 )" style="stroke: hsl(242.1, 55%, 50%);" id="1880"  d=" M  10,0  L  197.75,0  L  197.75,36  L  10,36  z " />
<path transform="translate( 0, 0 )" style="stroke: hsl(269, 55%, 50%);" id="2089"  d=" M  10,0  L  198.25,0  L  198.25,36  L  10,36  z " />
<path transform="translate( 0, 0 )" style="stroke: hsl(295.9, 55%, 50%);" id="2298"  d=" M  10,0  L  198.75,0  L  198.75,36  L  10,36  z " />
    </g>
    <!-- End of group #sleevePlacketUnderlap -->
    
    <!-- Start of group #sleevePlacketOverlap -->
    <g id="sleevePlacketOverlap"  transform=" translate(-5 5)  translate(0 0) " >
        <path class="hidden" id="3"  d=" M  10,0  L  267,0  L  267,88  L  10,88  z " />
<path transform="translate( 0, 0 )" style="stroke: hsl(26.9, 55%, 50%);" id="209"  d=" M  10,0  L  223,0  L  223,26  L  211.75,26  L  202.75,31  L  195.25,31  L  195.25,44  L  10,44  z " />
<path transform="translate( 0, 0 )" style="stroke: hsl(53.8, 55%, 50%);" id="418"  d=" M  10,0  L  227.4,0  L  227.4,29.667  L  214.65,29.667  L  204.45,35.333  L  195.95,35.333  L  195.95,50  L  10,50  z " />
<path transform="translate( 0, 0 )" style="stroke: hsl(80.7, 55%, 50%);" id="627"  d=" M  10,0  L  231.8,0  L  231.8,33.333  L  217.55,33.333  L  206.15,39.667  L  196.65,39.667  L  196.65,56  L  10,56  z " />
<path transform="translate( 0, 0 )" style="stroke: hsl(107.6, 55%, 50%);" id="836"  d=" M  10,0  L  236.2,0  L  236.2,36  L  220.45,36  L  207.85,43  L  197.35,43  L  197.35,60  L  10,60  z " />
<path transform="translate( 0, 0 )" style="stroke: hsl(134.5, 55%, 50%);" id="1045"  d=" M  10,0  L  240.6,0  L  240.6,38.667  L  223.35,38.667  L  209.55,46.333  L  198.05,46.333  L  198.05,64  L  10,64  z " />
<path transform="translate( 0, 0 )" style="stroke: hsl(161.4, 55%, 50%);" id="1254"  d=" M  10,0  L  245,0  L  245,41.333  L  226.25,41.333  L  211.25,49.667  L  198.75,49.667  L  198.75,68  L  10,68  z " />
<path transform="translate( 0, 0 )" style="stroke: hsl(188.3, 55%, 50%);" id="1463"  d=" M  10,0  L  249.4,0  L  249.4,44  L  229.15,44  L  212.95,53  L  199.45,53  L  199.45,72  L  10,72  z " />
<path transform="translate( 0, 0 )" style="stroke: hsl(215.2, 55%, 50%);" id="1672"  d=" M  10,0  L  253.8,0  L  253.8,46.667  L  232.05,46.667  L  214.65,56.333  L  200.15,56.333  L  200.15,76  L  10,76  z " />
<path transform="translate( 0, 0 )" style="stroke: hsl(242.1, 55%, 50%);" id="1881"  d=" M  10,0  L  258.2,0  L  258.2,49.333  L  234.95,49.333  L  216.35,59.667  L  200.85,59.667  L  200.85,80  L  10,80  z " />
<path transform="translate( 0, 0 )" style="stroke: hsl(269, 55%, 50%);" id="2090"  d=" M  10,0  L  262.6,0  L  262.6,52  L  237.85,52  L  218.05,63  L  201.55,63  L  201.55,84  L  10,84  z " />
<path transform="translate( 0, 0 )" style="stroke: hsl(295.9, 55%, 50%);" id="2299"  d=" M  10,0  L  267,0  L  267,54.667  L  240.75,54.667  L  219.75,66.333  L  202.25,66.333  L  202.25,88  L  10,88  z " />
    </g>
    <!-- End of group #sleevePlacketOverlap -->
</g>
<!-- End of group #patternScaleContainer -->

</svg>

