<?xml version="1.0" encoding="UTF-8" standalone="no"?>
<svg
    xmlns="http://www.w3.org/2000/svg"
    xmlns:svg="http://www.w3.org/2000/svg"
    xmlns:xlink="http://www.w3.org/1999/xlink"
    xmlns:freesewing="http://freesewing.org/namespaces/freesewing" viewBox ="0 0 1498 1007"
    width ="1498mm"
    height ="1007mm"
    freesewing:version ="1.5.0"
    freesewing:origin ="joost.core.freesewing.org" 
>

<style type="text/css">
    <![CDATA[
    path { fill: none; stroke: #000000; stroke-opacity:1; stroke-width: 0.5; stroke-miterlimit:4; stroke-dashoffset:0; stroke-linecap:round; stroke-linejoin:round; }
    path.hidden { fill: none; stroke: none; }]]>
</style>


<!-- Start of group #patternContainer -->
<g id="patternContainer" >
    
    <!-- Start of group #backBlock -->
    <g id="backBlock" >
    </g>
    <!-- End of group #backBlock -->
    
    <!-- Start of group #frontBlock -->
    <g id="frontBlock" >
    </g>
    <!-- End of group #frontBlock -->
    
    <!-- Start of group #sleeveBlock -->
    <g id="sleeveBlock" >
    </g>
    <!-- End of group #sleeveBlock -->
    
    <!-- Start of group #block -->
    <g id="block" >
    </g>
    <!-- End of group #block -->
    
    <!-- Start of group #frontAndBackBlock -->
    <g id="frontAndBackBlock" >
    </g>
    <!-- End of group #frontAndBackBlock -->
    
    <!-- Start of group #frontRight -->
    <g id="frontRight"  transform=" translate(315 5)  translate(0 0) " >
        <path class="hidden" id="2"  d=" M  -310,0  L  30,0  L  30,835  L  -310,835  z " />
<path transform="translate( 0, 0 )" style="stroke: hsl(26.9, 55%, 50%);" id="200"  d=" M  -310,284.5  C  -288.75,284.5  -269.166,276.922  -250.872,258.628  C  -232.578,240.334  -220,193.833  -220,152.25  C  -220,110.667  -233.338,37.361  -235,27.5  L  -71.847,0  C  -68.523,19.722  -71.847,100.842  0,100.842  L  20,100.842  C  23.592,100.842  26.997,100.639  30,100.278  L  30,100.842  L  30,835  L  -249,835  C  -249,835  -280,835  -280,835  C  -280,835  -280,755  -280,755  C  -280,734  -276.99,705.994  -277.5,685  C  -277.94,666.875  -280.75,612.5  -280.75,540  C  -280.75,412.25  -310,316.437  -310,284.5 " />
<path transform="translate( 0, 0 )" style="stroke: hsl(53.8, 55%, 50%);" id="409"  d=" M  -310,284.5  C  -288.75,284.5  -269.166,276.922  -250.872,258.628  C  -232.578,240.334  -220,193.833  -220,152.25  C  -220,110.667  -233.338,37.361  -235,27.5  L  -71.847,0  C  -68.523,19.722  -71.847,100.842  0,100.842  L  20,100.842  C  23.592,100.842  26.997,100.639  30,100.278  L  30,100.842  L  30,835  L  -249,835  C  -249,835  -280,835  -280,835  C  -280,835  -280,755  -280,755  C  -280,734  -276.99,705.994  -277.5,685  C  -277.94,666.875  -280.75,612.5  -280.75,540  C  -280.75,412.25  -310,316.437  -310,284.5 " />
<path transform="translate( 0, 0 )" style="stroke: hsl(80.7, 55%, 50%);" id="618"  d=" M  -310,284.5  C  -288.75,284.5  -269.166,276.922  -250.872,258.628  C  -232.578,240.334  -220,193.833  -220,152.25  C  -220,110.667  -233.338,37.361  -235,27.5  L  -71.847,0  C  -68.523,19.722  -71.847,100.842  0,100.842  L  20,100.842  C  23.592,100.842  26.997,100.639  30,100.278  L  30,100.842  L  30,835  L  -249,835  C  -249,835  -280,835  -280,835  C  -280,835  -280,755  -280,755  C  -280,734  -276.99,705.994  -277.5,685  C  -277.94,666.875  -280.75,612.5  -280.75,540  C  -280.75,412.25  -310,316.437  -310,284.5 " />
<path transform="translate( 0, 0 )" style="stroke: hsl(107.6, 55%, 50%);" id="827"  d=" M  -310,284.5  C  -288.75,284.5  -269.166,276.922  -250.872,258.628  C  -232.578,240.334  -220,193.833  -220,152.25  C  -220,110.667  -233.338,37.361  -235,27.5  L  -71.847,0  C  -68.523,19.722  -71.847,100.842  0,100.842  L  20,100.842  C  23.592,100.842  26.997,100.639  30,100.278  L  30,100.842  L  30,835  L  -249,835  C  -249,835  -280,835  -280,835  C  -280,835  -280,755  -280,755  C  -280,734  -276.99,705.994  -277.5,685  C  -277.94,666.875  -280.75,612.5  -280.75,540  C  -280.75,412.25  -310,316.437  -310,284.5 " />
<path transform="translate( 0, 0 )" style="stroke: hsl(134.5, 55%, 50%);" id="1036"  d=" M  -310,284.5  C  -288.75,284.5  -269.166,276.922  -250.872,258.628  C  -232.578,240.334  -220,193.833  -220,152.25  C  -220,110.667  -233.338,37.361  -235,27.5  L  -71.847,0  C  -68.523,19.722  -71.847,100.842  0,100.842  L  20,100.842  C  23.592,100.842  26.997,100.639  30,100.278  L  30,100.842  L  30,835  L  -249,835  C  -249,835  -280,835  -280,835  C  -280,835  -280,755  -280,755  C  -280,734  -276.99,705.994  -277.5,685  C  -277.94,666.875  -280.75,612.5  -280.75,540  C  -280.75,412.25  -310,316.437  -310,284.5 " />
<path transform="translate( 0, 0 )" style="stroke: hsl(161.4, 55%, 50%);" id="1245"  d=" M  -310,284.5  C  -288.75,284.5  -269.166,276.922  -250.872,258.628  C  -232.578,240.334  -220,193.833  -220,152.25  C  -220,110.667  -233.338,37.361  -235,27.5  L  -71.847,0  C  -68.523,19.722  -71.847,100.842  0,100.842  L  20,100.842  C  23.592,100.842  26.997,100.639  30,100.278  L  30,100.842  L  30,835  L  -249,835  C  -249,835  -280,835  -280,835  C  -280,835  -280,755  -280,755  C  -280,734  -276.99,705.994  -277.5,685  C  -277.94,666.875  -280.75,612.5  -280.75,540  C  -280.75,412.25  -310,316.437  -310,284.5 " />
<path transform="translate( 0, 0 )" style="stroke: hsl(188.3, 55%, 50%);" id="1454"  d=" M  -310,284.5  C  -288.75,284.5  -269.166,276.922  -250.872,258.628  C  -232.578,240.334  -220,193.833  -220,152.25  C  -220,110.667  -233.338,37.361  -235,27.5  L  -71.847,0  C  -68.523,19.722  -71.847,100.842  0,100.842  L  20,100.842  C  23.592,100.842  26.997,100.639  30,100.278  L  30,100.842  L  30,835  L  -249,835  C  -249,835  -280,835  -280,835  C  -280,835  -280,755  -280,755  C  -280,734  -276.99,705.994  -277.5,685  C  -277.94,666.875  -280.75,612.5  -280.75,540  C  -280.75,412.25  -310,316.437  -310,284.5 " />
<path transform="translate( 0, 0 )" style="stroke: hsl(215.2, 55%, 50%);" id="1663"  d=" M  -310,284.5  C  -288.75,284.5  -269.166,276.922  -250.872,258.628  C  -232.578,240.334  -220,193.833  -220,152.25  C  -220,110.667  -233.338,37.361  -235,27.5  L  -71.847,0  C  -68.523,19.722  -71.847,100.842  0,100.842  L  20,100.842  C  23.592,100.842  26.997,100.639  30,100.278  L  30,100.842  L  30,835  L  -249,835  C  -249,835  -280,835  -280,835  C  -280,835  -280,755  -280,755  C  -280,734  -276.99,705.994  -277.5,685  C  -277.94,666.875  -280.75,612.5  -280.75,540  C  -280.75,412.25  -310,316.437  -310,284.5 " />
<path transform="translate( 0, 0 )" style="stroke: hsl(242.1, 55%, 50%);" id="1872"  d=" M  -310,284.5  C  -288.75,284.5  -269.166,276.922  -250.872,258.628  C  -232.578,240.334  -220,193.833  -220,152.25  C  -220,110.667  -233.338,37.361  -235,27.5  L  -71.847,0  C  -68.523,19.722  -71.847,100.842  0,100.842  L  20,100.842  C  23.592,100.842  26.997,100.639  30,100.278  L  30,100.842  L  30,835  L  -249,835  C  -249,835  -280,835  -280,835  C  -280,835  -280,755  -280,755  C  -280,734  -276.99,705.994  -277.5,685  C  -277.94,666.875  -280.75,612.5  -280.75,540  C  -280.75,412.25  -310,316.437  -310,284.5 " />
<path transform="translate( 0, 0 )" style="stroke: hsl(269, 55%, 50%);" id="2081"  d=" M  -310,284.5  C  -288.75,284.5  -269.166,276.922  -250.872,258.628  C  -232.578,240.334  -220,193.833  -220,152.25  C  -220,110.667  -233.338,37.361  -235,27.5  L  -71.847,0  C  -68.523,19.722  -71.847,100.842  0,100.842  L  20,100.842  C  23.592,100.842  26.997,100.639  30,100.278  L  30,100.842  L  30,835  L  -249,835  C  -249,835  -280,835  -280,835  C  -280,835  -280,755  -280,755  C  -280,734  -276.99,705.994  -277.5,685  C  -277.94,666.875  -280.75,612.5  -280.75,540  C  -280.75,412.25  -310,316.437  -310,284.5 " />
<path transform="translate( 0, 0 )" style="stroke: hsl(295.9, 55%, 50%);" id="2290"  d=" M  -310,284.5  C  -288.75,284.5  -269.166,276.922  -250.872,258.628  C  -232.578,240.334  -220,193.833  -220,152.25  C  -220,110.667  -233.338,37.361  -235,27.5  L  -71.847,0  C  -68.523,19.722  -71.847,100.842  0,100.842  L  20,100.842  C  23.592,100.842  26.997,100.639  30,100.278  L  30,100.842  L  30,835  L  -249,835  C  -249,835  -280,835  -280,835  C  -280,835  -280,755  -280,755  C  -280,734  -276.99,705.994  -277.5,685  C  -277.94,666.875  -280.75,612.5  -280.75,540  C  -280.75,412.25  -310,316.437  -310,284.5 " />
    </g>
    <!-- End of group #frontRight -->
    
    <!-- Start of group #frontLeft -->
    <g id="frontLeft"  transform=" translate(92.5 5)  translate(350 0) " >
        <path class="hidden" id="3"  d=" M  -87.5,0  L  310,0  L  310,835  L  -87.5,835  z " />
<path transform="translate( 0, 0 )" style="stroke: hsl(26.9, 55%, 50%);" id="201"  d=" M  310,284.5  C  288.75,284.5  269.166,276.922  250.872,258.628  C  232.578,240.334  220,193.833  220,152.25  C  220,110.667  233.338,37.361  235,27.5  L  71.847,0  C  68.523,19.722  71.847,100.842  0,100.842  L  -35,100.842  C  -47.324,100.185  -41.466,100.842  -52.5,99.005  C  -63.534,100.842  -57.676,100.185  -70,100.842  L  -87.5,100.842  L  -87.5,835  L  249,835  C  249,835  280,835  280,835  C  280,835  280,755  280,755  C  280,734  276.99,705.994  277.5,685  C  277.94,666.875  280.75,612.5  280.75,540  C  280.75,412.25  310,316.437  310,284.5 " />
<path transform="translate( 0, 0 )" style="stroke: hsl(53.8, 55%, 50%);" id="410"  d=" M  310,284.5  C  288.75,284.5  269.166,276.922  250.872,258.628  C  232.578,240.334  220,193.833  220,152.25  C  220,110.667  233.338,37.361  235,27.5  L  71.847,0  C  68.523,19.722  71.847,100.842  0,100.842  L  -35,100.842  C  -47.324,100.185  -41.466,100.842  -52.5,99.005  C  -63.534,100.842  -57.676,100.185  -70,100.842  L  -87.5,100.842  L  -87.5,835  L  249,835  C  249,835  280,835  280,835  C  280,835  280,755  280,755  C  280,734  276.99,705.994  277.5,685  C  277.94,666.875  280.75,612.5  280.75,540  C  280.75,412.25  310,316.437  310,284.5 " />
<path transform="translate( 0, 0 )" style="stroke: hsl(80.7, 55%, 50%);" id="619"  d=" M  310,284.5  C  288.75,284.5  269.166,276.922  250.872,258.628  C  232.578,240.334  220,193.833  220,152.25  C  220,110.667  233.338,37.361  235,27.5  L  71.847,0  C  68.523,19.722  71.847,100.842  0,100.842  L  -35,100.842  C  -47.324,100.185  -41.466,100.842  -52.5,99.005  C  -63.534,100.842  -57.676,100.185  -70,100.842  L  -87.5,100.842  L  -87.5,835  L  249,835  C  249,835  280,835  280,835  C  280,835  280,755  280,755  C  280,734  276.99,705.994  277.5,685  C  277.94,666.875  280.75,612.5  280.75,540  C  280.75,412.25  310,316.437  310,284.5 " />
<path transform="translate( 0, 0 )" style="stroke: hsl(107.6, 55%, 50%);" id="828"  d=" M  310,284.5  C  288.75,284.5  269.166,276.922  250.872,258.628  C  232.578,240.334  220,193.833  220,152.25  C  220,110.667  233.338,37.361  235,27.5  L  71.847,0  C  68.523,19.722  71.847,100.842  0,100.842  L  -35,100.842  C  -47.324,100.185  -41.466,100.842  -52.5,99.005  C  -63.534,100.842  -57.676,100.185  -70,100.842  L  -87.5,100.842  L  -87.5,835  L  249,835  C  249,835  280,835  280,835  C  280,835  280,755  280,755  C  280,734  276.99,705.994  277.5,685  C  277.94,666.875  280.75,612.5  280.75,540  C  280.75,412.25  310,316.437  310,284.5 " />
<path transform="translate( 0, 0 )" style="stroke: hsl(134.5, 55%, 50%);" id="1037"  d=" M  310,284.5  C  288.75,284.5  269.166,276.922  250.872,258.628  C  232.578,240.334  220,193.833  220,152.25  C  220,110.667  233.338,37.361  235,27.5  L  71.847,0  C  68.523,19.722  71.847,100.842  0,100.842  L  -35,100.842  C  -47.324,100.185  -41.466,100.842  -52.5,99.005  C  -63.534,100.842  -57.676,100.185  -70,100.842  L  -87.5,100.842  L  -87.5,835  L  249,835  C  249,835  280,835  280,835  C  280,835  280,755  280,755  C  280,734  276.99,705.994  277.5,685  C  277.94,666.875  280.75,612.5  280.75,540  C  280.75,412.25  310,316.437  310,284.5 " />
<path transform="translate( 0, 0 )" style="stroke: hsl(161.4, 55%, 50%);" id="1246"  d=" M  310,284.5  C  288.75,284.5  269.166,276.922  250.872,258.628  C  232.578,240.334  220,193.833  220,152.25  C  220,110.667  233.338,37.361  235,27.5  L  71.847,0  C  68.523,19.722  71.847,100.842  0,100.842  L  -35,100.842  C  -47.324,100.185  -41.466,100.842  -52.5,99.005  C  -63.534,100.842  -57.676,100.185  -70,100.842  L  -87.5,100.842  L  -87.5,835  L  249,835  C  249,835  280,835  280,835  C  280,835  280,755  280,755  C  280,734  276.99,705.994  277.5,685  C  277.94,666.875  280.75,612.5  280.75,540  C  280.75,412.25  310,316.437  310,284.5 " />
<path transform="translate( 0, 0 )" style="stroke: hsl(188.3, 55%, 50%);" id="1455"  d=" M  310,284.5  C  288.75,284.5  269.166,276.922  250.872,258.628  C  232.578,240.334  220,193.833  220,152.25  C  220,110.667  233.338,37.361  235,27.5  L  71.847,0  C  68.523,19.722  71.847,100.842  0,100.842  L  -35,100.842  C  -47.324,100.185  -41.466,100.842  -52.5,99.005  C  -63.534,100.842  -57.676,100.185  -70,100.842  L  -87.5,100.842  L  -87.5,835  L  249,835  C  249,835  280,835  280,835  C  280,835  280,755  280,755  C  280,734  276.99,705.994  277.5,685  C  277.94,666.875  280.75,612.5  280.75,540  C  280.75,412.25  310,316.437  310,284.5 " />
<path transform="translate( 0, 0 )" style="stroke: hsl(215.2, 55%, 50%);" id="1664"  d=" M  310,284.5  C  288.75,284.5  269.166,276.922  250.872,258.628  C  232.578,240.334  220,193.833  220,152.25  C  220,110.667  233.338,37.361  235,27.5  L  71.847,0  C  68.523,19.722  71.847,100.842  0,100.842  L  -35,100.842  C  -47.324,100.185  -41.466,100.842  -52.5,99.005  C  -63.534,100.842  -57.676,100.185  -70,100.842  L  -87.5,100.842  L  -87.5,835  L  249,835  C  249,835  280,835  280,835  C  280,835  280,755  280,755  C  280,734  276.99,705.994  277.5,685  C  277.94,666.875  280.75,612.5  280.75,540  C  280.75,412.25  310,316.437  310,284.5 " />
<path transform="translate( 0, 0 )" style="stroke: hsl(242.1, 55%, 50%);" id="1873"  d=" M  310,284.5  C  288.75,284.5  269.166,276.922  250.872,258.628  C  232.578,240.334  220,193.833  220,152.25  C  220,110.667  233.338,37.361  235,27.5  L  71.847,0  C  68.523,19.722  71.847,100.842  0,100.842  L  -35,100.842  C  -47.324,100.185  -41.466,100.842  -52.5,99.005  C  -63.534,100.842  -57.676,100.185  -70,100.842  L  -87.5,100.842  L  -87.5,835  L  249,835  C  249,835  280,835  280,835  C  280,835  280,755  280,755  C  280,734  276.99,705.994  277.5,685  C  277.94,666.875  280.75,612.5  280.75,540  C  280.75,412.25  310,316.437  310,284.5 " />
<path transform="translate( 0, 0 )" style="stroke: hsl(269, 55%, 50%);" id="2082"  d=" M  310,284.5  C  288.75,284.5  269.166,276.922  250.872,258.628  C  232.578,240.334  220,193.833  220,152.25  C  220,110.667  233.338,37.361  235,27.5  L  71.847,0  C  68.523,19.722  71.847,100.842  0,100.842  L  -35,100.842  C  -47.324,100.185  -41.466,100.842  -52.5,99.005  C  -63.534,100.842  -57.676,100.185  -70,100.842  L  -87.5,100.842  L  -87.5,835  L  249,835  C  249,835  280,835  280,835  C  280,835  280,755  280,755  C  280,734  276.99,705.994  277.5,685  C  277.94,666.875  280.75,612.5  280.75,540  C  280.75,412.25  310,316.437  310,284.5 " />
<path transform="translate( 0, 0 )" style="stroke: hsl(295.9, 55%, 50%);" id="2291"  d=" M  310,284.5  C  288.75,284.5  269.166,276.922  250.872,258.628  C  232.578,240.334  220,193.833  220,152.25  C  220,110.667  233.338,37.361  235,27.5  L  71.847,0  C  68.523,19.722  71.847,100.842  0,100.842  L  -35,100.842  C  -47.324,100.185  -41.466,100.842  -52.5,99.005  C  -63.534,100.842  -57.676,100.185  -70,100.842  L  -87.5,100.842  L  -87.5,835  L  249,835  C  249,835  280,835  280,835  C  280,835  280,755  280,755  C  280,734  276.99,705.994  277.5,685  C  277.94,666.875  280.75,612.5  280.75,540  C  280.75,412.25  310,316.437  310,284.5 " />
    </g>
    <!-- End of group #frontLeft -->
    
    <!-- Start of group #buttonPlacket -->
    <g id="buttonPlacket" >
    </g>
    <!-- End of group #buttonPlacket -->
    
    <!-- Start of group #buttonholePlacket -->
    <g id="buttonholePlacket" >
    </g>
    <!-- End of group #buttonholePlacket -->
    
    <!-- Start of group #yoke -->
    <g id="yoke"  transform=" translate(240 5)  translate(0 845) " >
        <path class="hidden" id="4"  d=" M  -235,0  L  235,0  L  235,152.25  L  -235,152.25  z " />
<path transform="translate( 0, 0 )" style="stroke: hsl(26.9, 55%, 50%);" id="202"  d=" M  225,152.25  C  225,110.667  233.338,37.361  235,27.5  L  71.847,0  C  68.523,19.722  0,20  0,20  C  0,20  -68.523,19.722  -71.847,0  L  -235,27.5  C  -233.338,37.361  -225,110.667  -225,152.25  z " />
<path transform="translate( 0, 0 )" style="stroke: hsl(53.8, 55%, 50%);" id="411"  d=" M  225,152.25  C  225,110.667  233.338,37.361  235,27.5  L  71.847,0  C  68.523,19.722  0,20  0,20  C  0,20  -68.523,19.722  -71.847,0  L  -235,27.5  C  -233.338,37.361  -225,110.667  -225,152.25  z " />
<path transform="translate( 0, 0 )" style="stroke: hsl(80.7, 55%, 50%);" id="620"  d=" M  225,152.25  C  225,110.667  233.338,37.361  235,27.5  L  71.847,0  C  68.523,19.722  0,20  0,20  C  0,20  -68.523,19.722  -71.847,0  L  -235,27.5  C  -233.338,37.361  -225,110.667  -225,152.25  z " />
<path transform="translate( 0, 0 )" style="stroke: hsl(107.6, 55%, 50%);" id="829"  d=" M  225,152.25  C  225,110.667  233.338,37.361  235,27.5  L  71.847,0  C  68.523,19.722  0,20  0,20  C  0,20  -68.523,19.722  -71.847,0  L  -235,27.5  C  -233.338,37.361  -225,110.667  -225,152.25  z " />
<path transform="translate( 0, 0 )" style="stroke: hsl(134.5, 55%, 50%);" id="1038"  d=" M  225,152.25  C  225,110.667  233.338,37.361  235,27.5  L  71.847,0  C  68.523,19.722  0,20  0,20  C  0,20  -68.523,19.722  -71.847,0  L  -235,27.5  C  -233.338,37.361  -225,110.667  -225,152.25  z " />
<path transform="translate( 0, 0 )" style="stroke: hsl(161.4, 55%, 50%);" id="1247"  d=" M  225,152.25  C  225,110.667  233.338,37.361  235,27.5  L  71.847,0  C  68.523,19.722  0,20  0,20  C  0,20  -68.523,19.722  -71.847,0  L  -235,27.5  C  -233.338,37.361  -225,110.667  -225,152.25  z " />
<path transform="translate( 0, 0 )" style="stroke: hsl(188.3, 55%, 50%);" id="1456"  d=" M  225,152.25  C  225,110.667  233.338,37.361  235,27.5  L  71.847,0  C  68.523,19.722  0,20  0,20  C  0,20  -68.523,19.722  -71.847,0  L  -235,27.5  C  -233.338,37.361  -225,110.667  -225,152.25  z " />
<path transform="translate( 0, 0 )" style="stroke: hsl(215.2, 55%, 50%);" id="1665"  d=" M  225,152.25  C  225,110.667  233.338,37.361  235,27.5  L  71.847,0  C  68.523,19.722  0,20  0,20  C  0,20  -68.523,19.722  -71.847,0  L  -235,27.5  C  -233.338,37.361  -225,110.667  -225,152.25  z " />
<path transform="translate( 0, 0 )" style="stroke: hsl(242.1, 55%, 50%);" id="1874"  d=" M  225,152.25  C  225,110.667  233.338,37.361  235,27.5  L  71.847,0  C  68.523,19.722  0,20  0,20  C  0,20  -68.523,19.722  -71.847,0  L  -235,27.5  C  -233.338,37.361  -225,110.667  -225,152.25  z " />
<path transform="translate( 0, 0 )" style="stroke: hsl(269, 55%, 50%);" id="2083"  d=" M  225,152.25  C  225,110.667  233.338,37.361  235,27.5  L  71.847,0  C  68.523,19.722  0,20  0,20  C  0,20  -68.523,19.722  -71.847,0  L  -235,27.5  C  -233.338,37.361  -225,110.667  -225,152.25  z " />
<path transform="translate( 0, 0 )" style="stroke: hsl(295.9, 55%, 50%);" id="2292"  d=" M  225,152.25  C  225,110.667  233.338,37.361  235,27.5  L  71.847,0  C  68.523,19.722  0,20  0,20  C  0,20  -68.523,19.722  -71.847,0  L  -235,27.5  C  -233.338,37.361  -225,110.667  -225,152.25  z " />
    </g>
    <!-- End of group #yoke -->
    
    <!-- Start of group #back -->
    <g id="back"  transform=" translate(5 -147.25)  translate(757.5 0) " >
        <path class="hidden" id="5"  d=" M  0,152.25  L  310,152.25  L  310,835  L  0,835  z " />
<path transform="translate( 0, 0 )" style="stroke: hsl(26.9, 55%, 50%);" id="203"  d=" M  0,152.25  L  112.5,152.25  C  168.75,152.25  225.036,157.25  225.036,157.25  C  223.351,193.794  232.578,240.334  250.872,258.628  C  269.166,276.922  288.75,284.5  310,284.5  C  310,335.6  280.75,412.25  280.75,540  C  280.75,612.5  277.94,666.875  277.5,685  C  276.99,705.994  280,734  280,755  L  280,835  L  0,835  L  0,152.25  z " />
<path transform="translate( 0, 0 )" style="stroke: hsl(53.8, 55%, 50%);" id="412"  d=" M  0,152.25  L  112.5,152.25  C  168.75,152.25  225.036,157.25  225.036,157.25  C  223.351,193.794  232.578,240.334  250.872,258.628  C  269.166,276.922  288.75,284.5  310,284.5  C  310,335.6  280.75,412.25  280.75,540  C  280.75,612.5  277.94,666.875  277.5,685  C  276.99,705.994  280,734  280,755  L  280,835  L  0,835  L  0,152.25  z " />
<path transform="translate( 0, 0 )" style="stroke: hsl(80.7, 55%, 50%);" id="621"  d=" M  0,152.25  L  112.5,152.25  C  168.75,152.25  225.036,157.25  225.036,157.25  C  223.351,193.794  232.578,240.334  250.872,258.628  C  269.166,276.922  288.75,284.5  310,284.5  C  310,335.6  280.75,412.25  280.75,540  C  280.75,612.5  277.94,666.875  277.5,685  C  276.99,705.994  280,734  280,755  L  280,835  L  0,835  L  0,152.25  z " />
<path transform="translate( 0, 0 )" style="stroke: hsl(107.6, 55%, 50%);" id="830"  d=" M  0,152.25  L  112.5,152.25  C  168.75,152.25  225.036,157.25  225.036,157.25  C  223.351,193.794  232.578,240.334  250.872,258.628  C  269.166,276.922  288.75,284.5  310,284.5  C  310,335.6  280.75,412.25  280.75,540  C  280.75,612.5  277.94,666.875  277.5,685  C  276.99,705.994  280,734  280,755  L  280,835  L  0,835  L  0,152.25  z " />
<path transform="translate( 0, 0 )" style="stroke: hsl(134.5, 55%, 50%);" id="1039"  d=" M  0,152.25  L  112.5,152.25  C  168.75,152.25  225.036,157.25  225.036,157.25  C  223.351,193.794  232.578,240.334  250.872,258.628  C  269.166,276.922  288.75,284.5  310,284.5  C  310,335.6  280.75,412.25  280.75,540  C  280.75,612.5  277.94,666.875  277.5,685  C  276.99,705.994  280,734  280,755  L  280,835  L  0,835  L  0,152.25  z " />
<path transform="translate( 0, 0 )" style="stroke: hsl(161.4, 55%, 50%);" id="1248"  d=" M  0,152.25  L  112.5,152.25  C  168.75,152.25  225.036,157.25  225.036,157.25  C  223.351,193.794  232.578,240.334  250.872,258.628  C  269.166,276.922  288.75,284.5  310,284.5  C  310,335.6  280.75,412.25  280.75,540  C  280.75,612.5  277.94,666.875  277.5,685  C  276.99,705.994  280,734  280,755  L  280,835  L  0,835  L  0,152.25  z " />
<path transform="translate( 0, 0 )" style="stroke: hsl(188.3, 55%, 50%);" id="1457"  d=" M  0,152.25  L  112.5,152.25  C  168.75,152.25  225.036,157.25  225.036,157.25  C  223.351,193.794  232.578,240.334  250.872,258.628  C  269.166,276.922  288.75,284.5  310,284.5  C  310,335.6  280.75,412.25  280.75,540  C  280.75,612.5  277.94,666.875  277.5,685  C  276.99,705.994  280,734  280,755  L  280,835  L  0,835  L  0,152.25  z " />
<path transform="translate( 0, 0 )" style="stroke: hsl(215.2, 55%, 50%);" id="1666"  d=" M  0,152.25  L  112.5,152.25  C  168.75,152.25  225.036,157.25  225.036,157.25  C  223.351,193.794  232.578,240.334  250.872,258.628  C  269.166,276.922  288.75,284.5  310,284.5  C  310,335.6  280.75,412.25  280.75,540  C  280.75,612.5  277.94,666.875  277.5,685  C  276.99,705.994  280,734  280,755  L  280,835  L  0,835  L  0,152.25  z " />
<path transform="translate( 0, 0 )" style="stroke: hsl(242.1, 55%, 50%);" id="1875"  d=" M  0,152.25  L  112.5,152.25  C  168.75,152.25  225.036,157.25  225.036,157.25  C  223.351,193.794  232.578,240.334  250.872,258.628  C  269.166,276.922  288.75,284.5  310,284.5  C  310,335.6  280.75,412.25  280.75,540  C  280.75,612.5  277.94,666.875  277.5,685  C  276.99,705.994  280,734  280,755  L  280,835  L  0,835  L  0,152.25  z " />
<path transform="translate( 0, 0 )" style="stroke: hsl(269, 55%, 50%);" id="2084"  d=" M  0,152.25  L  112.5,152.25  C  168.75,152.25  225.036,157.25  225.036,157.25  C  223.351,193.794  232.578,240.334  250.872,258.628  C  269.166,276.922  288.75,284.5  310,284.5  C  310,335.6  280.75,412.25  280.75,540  C  280.75,612.5  277.94,666.875  277.5,685  C  276.99,705.994  280,734  280,755  L  280,835  L  0,835  L  0,152.25  z " />
<path transform="translate( 0, 0 )" style="stroke: hsl(295.9, 55%, 50%);" id="2293"  d=" M  0,152.25  L  112.5,152.25  C  168.75,152.25  225.036,157.25  225.036,157.25  C  223.351,193.794  232.578,240.334  250.872,258.628  C  269.166,276.922  288.75,284.5  310,284.5  C  310,335.6  280.75,412.25  280.75,540  C  280.75,612.5  277.94,666.875  277.5,685  C  276.99,705.994  280,734  280,755  L  280,835  L  0,835  L  0,152.25  z " />
    </g>
    <!-- End of group #back -->
    
    <!-- Start of group #sleeve -->
    <g id="sleeve"  transform=" translate(210.431 5)  translate(1077.5 0) " >
        <path class="hidden" id="6"  d=" M  -205.431,0  L  205.431,0  L  205.431,678  L  -205.431,678  z " />
<path transform="translate( 0, 0 )" style="stroke: hsl(26.9, 55%, 50%);" id="204"  d=" M  -205.431,206.3  C  -205.431,206.3  -167.111,165.017  -150.122,143.097  C  -133.133,121.177  -102.716,73.767  -102.716,73.767  C  -102.716,73.767  -82.634,40.877  -60.108,24.7  C  -37.582,8.523  -27.733,-0  5,0  C  27.733,0  47.083,8.997  68.485,26.634  C  89.887,44.271  107.716,88.767  107.716,88.767  C  107.716,88.767  127.31,135.797  145.04,157.123  C  162.77,178.449  205.431,206.3  205.431,206.3  L  142.5,675  C  142.5,675  111.875,678  81.25,678  C  65.827,677.471  50.625,676.845  50.625,676.845  L  30.625,676.845  C  10.302,676.009  0,675  0,675  L  -20,675  C  -20,675  -50.625,672  -81.25,672  C  -111.875,672  -142.5,675  -142.5,675  z " />
<path transform="translate( 0, 0 )" style="stroke: hsl(53.8, 55%, 50%);" id="413"  d=" M  -205.431,206.3  C  -205.431,206.3  -167.111,165.017  -150.122,143.097  C  -133.133,121.177  -102.716,73.767  -102.716,73.767  C  -102.716,73.767  -82.634,40.877  -60.108,24.7  C  -37.582,8.523  -27.733,-0  5,0  C  27.733,0  47.083,8.997  68.485,26.634  C  89.887,44.271  107.716,88.767  107.716,88.767  C  107.716,88.767  127.31,135.797  145.04,157.123  C  162.77,178.449  205.431,206.3  205.431,206.3  L  142.5,675  C  142.5,675  111.875,678  81.25,678  C  65.827,677.471  50.625,676.845  50.625,676.845  L  30.625,676.845  C  10.302,676.009  0,675  0,675  L  -20,675  C  -20,675  -50.625,672  -81.25,672  C  -111.875,672  -142.5,675  -142.5,675  z " />
<path transform="translate( 0, 0 )" style="stroke: hsl(80.7, 55%, 50%);" id="622"  d=" M  -205.431,206.3  C  -205.431,206.3  -167.111,165.017  -150.122,143.097  C  -133.133,121.177  -102.716,73.767  -102.716,73.767  C  -102.716,73.767  -82.634,40.877  -60.108,24.7  C  -37.582,8.523  -27.733,-0  5,0  C  27.733,0  47.083,8.997  68.485,26.634  C  89.887,44.271  107.716,88.767  107.716,88.767  C  107.716,88.767  127.31,135.797  145.04,157.123  C  162.77,178.449  205.431,206.3  205.431,206.3  L  142.5,675  C  142.5,675  111.875,678  81.25,678  C  65.827,677.471  50.625,676.845  50.625,676.845  L  30.625,676.845  C  10.302,676.009  0,675  0,675  L  -20,675  C  -20,675  -50.625,672  -81.25,672  C  -111.875,672  -142.5,675  -142.5,675  z " />
<path transform="translate( 0, 0 )" style="stroke: hsl(107.6, 55%, 50%);" id="831"  d=" M  -205.431,206.3  C  -205.431,206.3  -167.111,165.017  -150.122,143.097  C  -133.133,121.177  -102.716,73.767  -102.716,73.767  C  -102.716,73.767  -82.634,40.877  -60.108,24.7  C  -37.582,8.523  -27.733,-0  5,0  C  27.733,0  47.083,8.997  68.485,26.634  C  89.887,44.271  107.716,88.767  107.716,88.767  C  107.716,88.767  127.31,135.797  145.04,157.123  C  162.77,178.449  205.431,206.3  205.431,206.3  L  142.5,675  C  142.5,675  111.875,678  81.25,678  C  65.827,677.471  50.625,676.845  50.625,676.845  L  30.625,676.845  C  10.302,676.009  0,675  0,675  L  -20,675  C  -20,675  -50.625,672  -81.25,672  C  -111.875,672  -142.5,675  -142.5,675  z " />
<path transform="translate( 0, 0 )" style="stroke: hsl(134.5, 55%, 50%);" id="1040"  d=" M  -205.431,206.3  C  -205.431,206.3  -167.111,165.017  -150.122,143.097  C  -133.133,121.177  -102.716,73.767  -102.716,73.767  C  -102.716,73.767  -82.634,40.877  -60.108,24.7  C  -37.582,8.523  -27.733,-0  5,0  C  27.733,0  47.083,8.997  68.485,26.634  C  89.887,44.271  107.716,88.767  107.716,88.767  C  107.716,88.767  127.31,135.797  145.04,157.123  C  162.77,178.449  205.431,206.3  205.431,206.3  L  142.5,675  C  142.5,675  111.875,678  81.25,678  C  65.827,677.471  50.625,676.845  50.625,676.845  L  30.625,676.845  C  10.302,676.009  0,675  0,675  L  -20,675  C  -20,675  -50.625,672  -81.25,672  C  -111.875,672  -142.5,675  -142.5,675  z " />
<path transform="translate( 0, 0 )" style="stroke: hsl(161.4, 55%, 50%);" id="1249"  d=" M  -205.431,206.3  C  -205.431,206.3  -167.111,165.017  -150.122,143.097  C  -133.133,121.177  -102.716,73.767  -102.716,73.767  C  -102.716,73.767  -82.634,40.877  -60.108,24.7  C  -37.582,8.523  -27.733,-0  5,0  C  27.733,0  47.083,8.997  68.485,26.634  C  89.887,44.271  107.716,88.767  107.716,88.767  C  107.716,88.767  127.31,135.797  145.04,157.123  C  162.77,178.449  205.431,206.3  205.431,206.3  L  142.5,675  C  142.5,675  111.875,678  81.25,678  C  65.827,677.471  50.625,676.845  50.625,676.845  L  30.625,676.845  C  10.302,676.009  0,675  0,675  L  -20,675  C  -20,675  -50.625,672  -81.25,672  C  -111.875,672  -142.5,675  -142.5,675  z " />
<path transform="translate( 0, 0 )" style="stroke: hsl(188.3, 55%, 50%);" id="1458"  d=" M  -205.431,206.3  C  -205.431,206.3  -167.111,165.017  -150.122,143.097  C  -133.133,121.177  -102.716,73.767  -102.716,73.767  C  -102.716,73.767  -82.634,40.877  -60.108,24.7  C  -37.582,8.523  -27.733,-0  5,0  C  27.733,0  47.083,8.997  68.485,26.634  C  89.887,44.271  107.716,88.767  107.716,88.767  C  107.716,88.767  127.31,135.797  145.04,157.123  C  162.77,178.449  205.431,206.3  205.431,206.3  L  142.5,675  C  142.5,675  111.875,678  81.25,678  C  65.827,677.471  50.625,676.845  50.625,676.845  L  30.625,676.845  C  10.302,676.009  0,675  0,675  L  -20,675  C  -20,675  -50.625,672  -81.25,672  C  -111.875,672  -142.5,675  -142.5,675  z " />
<path transform="translate( 0, 0 )" style="stroke: hsl(215.2, 55%, 50%);" id="1667"  d=" M  -205.431,206.3  C  -205.431,206.3  -167.111,165.017  -150.122,143.097  C  -133.133,121.177  -102.716,73.767  -102.716,73.767  C  -102.716,73.767  -82.634,40.877  -60.108,24.7  C  -37.582,8.523  -27.733,-0  5,0  C  27.733,0  47.083,8.997  68.485,26.634  C  89.887,44.271  107.716,88.767  107.716,88.767  C  107.716,88.767  127.31,135.797  145.04,157.123  C  162.77,178.449  205.431,206.3  205.431,206.3  L  142.5,675  C  142.5,675  111.875,678  81.25,678  C  65.827,677.471  50.625,676.845  50.625,676.845  L  30.625,676.845  C  10.302,676.009  0,675  0,675  L  -20,675  C  -20,675  -50.625,672  -81.25,672  C  -111.875,672  -142.5,675  -142.5,675  z " />
<path transform="translate( 0, 0 )" style="stroke: hsl(242.1, 55%, 50%);" id="1876"  d=" M  -205.431,206.3  C  -205.431,206.3  -167.111,165.017  -150.122,143.097  C  -133.133,121.177  -102.716,73.767  -102.716,73.767  C  -102.716,73.767  -82.634,40.877  -60.108,24.7  C  -37.582,8.523  -27.733,-0  5,0  C  27.733,0  47.083,8.997  68.485,26.634  C  89.887,44.271  107.716,88.767  107.716,88.767  C  107.716,88.767  127.31,135.797  145.04,157.123  C  162.77,178.449  205.431,206.3  205.431,206.3  L  142.5,675  C  142.5,675  111.875,678  81.25,678  C  65.827,677.471  50.625,676.845  50.625,676.845  L  30.625,676.845  C  10.302,676.009  0,675  0,675  L  -20,675  C  -20,675  -50.625,672  -81.25,672  C  -111.875,672  -142.5,675  -142.5,675  z " />
<path transform="translate( 0, 0 )" style="stroke: hsl(269, 55%, 50%);" id="2085"  d=" M  -205.431,206.3  C  -205.431,206.3  -167.111,165.017  -150.122,143.097  C  -133.133,121.177  -102.716,73.767  -102.716,73.767  C  -102.716,73.767  -82.634,40.877  -60.108,24.7  C  -37.582,8.523  -27.733,-0  5,0  C  27.733,0  47.083,8.997  68.485,26.634  C  89.887,44.271  107.716,88.767  107.716,88.767  C  107.716,88.767  127.31,135.797  145.04,157.123  C  162.77,178.449  205.431,206.3  205.431,206.3  L  142.5,675  C  142.5,675  111.875,678  81.25,678  C  65.827,677.471  50.625,676.845  50.625,676.845  L  30.625,676.845  C  10.302,676.009  0,675  0,675  L  -20,675  C  -20,675  -50.625,672  -81.25,672  C  -111.875,672  -142.5,675  -142.5,675  z " />
<path transform="translate( 0, 0 )" style="stroke: hsl(295.9, 55%, 50%);" id="2294"  d=" M  -205.431,206.3  C  -205.431,206.3  -167.111,165.017  -150.122,143.097  C  -133.133,121.177  -102.716,73.767  -102.716,73.767  C  -102.716,73.767  -82.634,40.877  -60.108,24.7  C  -37.582,8.523  -27.733,-0  5,0  C  27.733,0  47.083,8.997  68.485,26.634  C  89.887,44.271  107.716,88.767  107.716,88.767  C  107.716,88.767  127.31,135.797  145.04,157.123  C  162.77,178.449  205.431,206.3  205.431,206.3  L  142.5,675  C  142.5,675  111.875,678  81.25,678  C  65.827,677.471  50.625,676.845  50.625,676.845  L  30.625,676.845  C  10.302,676.009  0,675  0,675  L  -20,675  C  -20,675  -50.625,672  -81.25,672  C  -111.875,672  -142.5,675  -142.5,675  z " />
    </g>
    <!-- End of group #sleeve -->
    
    <!-- Start of group #collarStand -->
    <g id="collarStand"  transform=" translate(232.46 10)  translate(480 845) " >
        <path class="hidden" id="7"  d=" M  -227.46,-5  L  234.932,-5  L  234.932,35  L  -227.46,35  z " />
<path transform="translate( 0, 0 )" style="stroke: hsl(26.9, 55%, 50%);" id="205"  d=" M  0,30  C  86.389,30  129.584,35  161.98,35  C  205.174,35  207.536,33.305  217.498,32.433  L  234.932,30.908  C  233.406,13.474  231.881,-3.959  214.448,-2.433  C  204.486,-1.561  205.174,0  161.98,0  C  129.584,0  86.389,-5  0,-5  C  -86.389,-5  -129.584,0  -161.98,0  C  -205.174,0  -204.486,-1.561  -214.448,-2.433  C  -224.41,-3.305  -225.935,14.128  -227.46,31.562  L  -217.498,32.433  C  -207.536,33.305  -205.174,35  -161.98,35  C  -129.584,35  -86.389,30  0,30  z " />
<path transform="translate( 0, 0 )" style="stroke: hsl(53.8, 55%, 50%);" id="414"  d=" M  0,30  C  86.389,30  129.584,35  161.98,35  C  205.174,35  207.536,33.305  217.498,32.433  L  234.932,30.908  C  233.406,13.474  231.881,-3.959  214.448,-2.433  C  204.486,-1.561  205.174,0  161.98,0  C  129.584,0  86.389,-5  0,-5  C  -86.389,-5  -129.584,0  -161.98,0  C  -205.174,0  -204.486,-1.561  -214.448,-2.433  C  -224.41,-3.305  -225.935,14.128  -227.46,31.562  L  -217.498,32.433  C  -207.536,33.305  -205.174,35  -161.98,35  C  -129.584,35  -86.389,30  0,30  z " />
<path transform="translate( 0, 0 )" style="stroke: hsl(80.7, 55%, 50%);" id="623"  d=" M  0,30  C  86.389,30  129.584,35  161.98,35  C  205.174,35  207.536,33.305  217.498,32.433  L  234.932,30.908  C  233.406,13.474  231.881,-3.959  214.448,-2.433  C  204.486,-1.561  205.174,0  161.98,0  C  129.584,0  86.389,-5  0,-5  C  -86.389,-5  -129.584,0  -161.98,0  C  -205.174,0  -204.486,-1.561  -214.448,-2.433  C  -224.41,-3.305  -225.935,14.128  -227.46,31.562  L  -217.498,32.433  C  -207.536,33.305  -205.174,35  -161.98,35  C  -129.584,35  -86.389,30  0,30  z " />
<path transform="translate( 0, 0 )" style="stroke: hsl(107.6, 55%, 50%);" id="832"  d=" M  0,30  C  86.389,30  129.584,35  161.98,35  C  205.174,35  207.536,33.305  217.498,32.433  L  234.932,30.908  C  233.406,13.474  231.881,-3.959  214.448,-2.433  C  204.486,-1.561  205.174,0  161.98,0  C  129.584,0  86.389,-5  0,-5  C  -86.389,-5  -129.584,0  -161.98,0  C  -205.174,0  -204.486,-1.561  -214.448,-2.433  C  -224.41,-3.305  -225.935,14.128  -227.46,31.562  L  -217.498,32.433  C  -207.536,33.305  -205.174,35  -161.98,35  C  -129.584,35  -86.389,30  0,30  z " />
<path transform="translate( 0, 0 )" style="stroke: hsl(134.5, 55%, 50%);" id="1041"  d=" M  0,30  C  86.389,30  129.584,35  161.98,35  C  205.174,35  207.536,33.305  217.498,32.433  L  234.932,30.908  C  233.406,13.474  231.881,-3.959  214.448,-2.433  C  204.486,-1.561  205.174,0  161.98,0  C  129.584,0  86.389,-5  0,-5  C  -86.389,-5  -129.584,0  -161.98,0  C  -205.174,0  -204.486,-1.561  -214.448,-2.433  C  -224.41,-3.305  -225.935,14.128  -227.46,31.562  L  -217.498,32.433  C  -207.536,33.305  -205.174,35  -161.98,35  C  -129.584,35  -86.389,30  0,30  z " />
<path transform="translate( 0, 0 )" style="stroke: hsl(161.4, 55%, 50%);" id="1250"  d=" M  0,30  C  86.389,30  129.584,35  161.98,35  C  205.174,35  207.536,33.305  217.498,32.433  L  234.932,30.908  C  233.406,13.474  231.881,-3.959  214.448,-2.433  C  204.486,-1.561  205.174,0  161.98,0  C  129.584,0  86.389,-5  0,-5  C  -86.389,-5  -129.584,0  -161.98,0  C  -205.174,0  -204.486,-1.561  -214.448,-2.433  C  -224.41,-3.305  -225.935,14.128  -227.46,31.562  L  -217.498,32.433  C  -207.536,33.305  -205.174,35  -161.98,35  C  -129.584,35  -86.389,30  0,30  z " />
<path transform="translate( 0, 0 )" style="stroke: hsl(188.3, 55%, 50%);" id="1459"  d=" M  0,30  C  86.389,30  129.584,35  161.98,35  C  205.174,35  207.536,33.305  217.498,32.433  L  234.932,30.908  C  233.406,13.474  231.881,-3.959  214.448,-2.433  C  204.486,-1.561  205.174,0  161.98,0  C  129.584,0  86.389,-5  0,-5  C  -86.389,-5  -129.584,0  -161.98,0  C  -205.174,0  -204.486,-1.561  -214.448,-2.433  C  -224.41,-3.305  -225.935,14.128  -227.46,31.562  L  -217.498,32.433  C  -207.536,33.305  -205.174,35  -161.98,35  C  -129.584,35  -86.389,30  0,30  z " />
<path transform="translate( 0, 0 )" style="stroke: hsl(215.2, 55%, 50%);" id="1668"  d=" M  0,30  C  86.389,30  129.584,35  161.98,35  C  205.174,35  207.536,33.305  217.498,32.433  L  234.932,30.908  C  233.406,13.474  231.881,-3.959  214.448,-2.433  C  204.486,-1.561  205.174,0  161.98,0  C  129.584,0  86.389,-5  0,-5  C  -86.389,-5  -129.584,0  -161.98,0  C  -205.174,0  -204.486,-1.561  -214.448,-2.433  C  -224.41,-3.305  -225.935,14.128  -227.46,31.562  L  -217.498,32.433  C  -207.536,33.305  -205.174,35  -161.98,35  C  -129.584,35  -86.389,30  0,30  z " />
<path transform="translate( 0, 0 )" style="stroke: hsl(242.1, 55%, 50%);" id="1877"  d=" M  0,30  C  86.389,30  129.584,35  161.98,35  C  205.174,35  207.536,33.305  217.498,32.433  L  234.932,30.908  C  233.406,13.474  231.881,-3.959  214.448,-2.433  C  204.486,-1.561  205.174,0  161.98,0  C  129.584,0  86.389,-5  0,-5  C  -86.389,-5  -129.584,0  -161.98,0  C  -205.174,0  -204.486,-1.561  -214.448,-2.433  C  -224.41,-3.305  -225.935,14.128  -227.46,31.562  L  -217.498,32.433  C  -207.536,33.305  -205.174,35  -161.98,35  C  -129.584,35  -86.389,30  0,30  z " />
<path transform="translate( 0, 0 )" style="stroke: hsl(269, 55%, 50%);" id="2086"  d=" M  0,30  C  86.389,30  129.584,35  161.98,35  C  205.174,35  207.536,33.305  217.498,32.433  L  234.932,30.908  C  233.406,13.474  231.881,-3.959  214.448,-2.433  C  204.486,-1.561  205.174,0  161.98,0  C  129.584,0  86.389,-5  0,-5  C  -86.389,-5  -129.584,0  -161.98,0  C  -205.174,0  -204.486,-1.561  -214.448,-2.433  C  -224.41,-3.305  -225.935,14.128  -227.46,31.562  L  -217.498,32.433  C  -207.536,33.305  -205.174,35  -161.98,35  C  -129.584,35  -86.389,30  0,30  z " />
<path transform="translate( 0, 0 )" style="stroke: hsl(295.9, 55%, 50%);" id="2295"  d=" M  0,30  C  86.389,30  129.584,35  161.98,35  C  205.174,35  207.536,33.305  217.498,32.433  L  234.932,30.908  C  233.406,13.474  231.881,-3.959  214.448,-2.433  C  204.486,-1.561  205.174,0  161.98,0  C  129.584,0  86.389,-5  0,-5  C  -86.389,-5  -129.584,0  -161.98,0  C  -205.174,0  -204.486,-1.561  -214.448,-2.433  C  -224.41,-3.305  -225.935,14.128  -227.46,31.562  L  -217.498,32.433  C  -207.536,33.305  -205.174,35  -161.98,35  C  -129.584,35  -86.389,30  0,30  z " />
    </g>
    <!-- End of group #collarStand -->
    
    <!-- Start of group #collar -->
    <g id="collar"  transform=" translate(214.741 72)  translate(480 895) " >
        <path class="hidden" id="8"  d=" M  -209.741,-67  L  209.741,-67  L  209.741,0  L  -209.741,0  z " />
<path transform="translate( 0, 0 )" style="stroke: hsl(26.9, 55%, 50%);" id="206"  d=" M  0,-15  C  173.104,-15  203.88,0  203.88,0  L  209.741,-67  C  209.741,-67  151.466,-57  104.871,-57  L  -104.871,-57  C  -151.466,-57  -209.741,-67  -209.741,-67  L  -203.88,0  C  -203.88,0  -173.104,-15  0,-15  z " />
<path transform="translate( 0, 0 )" style="stroke: hsl(53.8, 55%, 50%);" id="415"  d=" M  0,-15  C  173.104,-15  203.88,0  203.88,0  L  209.741,-67  C  209.741,-67  151.466,-57  104.871,-57  L  -104.871,-57  C  -151.466,-57  -209.741,-67  -209.741,-67  L  -203.88,0  C  -203.88,0  -173.104,-15  0,-15  z " />
<path transform="translate( 0, 0 )" style="stroke: hsl(80.7, 55%, 50%);" id="624"  d=" M  0,-15  C  173.104,-15  203.88,0  203.88,0  L  209.741,-67  C  209.741,-67  151.466,-57  104.871,-57  L  -104.871,-57  C  -151.466,-57  -209.741,-67  -209.741,-67  L  -203.88,0  C  -203.88,0  -173.104,-15  0,-15  z " />
<path transform="translate( 0, 0 )" style="stroke: hsl(107.6, 55%, 50%);" id="833"  d=" M  0,-15  C  173.104,-15  203.88,0  203.88,0  L  209.741,-67  C  209.741,-67  151.466,-57  104.871,-57  L  -104.871,-57  C  -151.466,-57  -209.741,-67  -209.741,-67  L  -203.88,0  C  -203.88,0  -173.104,-15  0,-15  z " />
<path transform="translate( 0, 0 )" style="stroke: hsl(134.5, 55%, 50%);" id="1042"  d=" M  0,-15  C  173.104,-15  203.88,0  203.88,0  L  209.741,-67  C  209.741,-67  151.466,-57  104.871,-57  L  -104.871,-57  C  -151.466,-57  -209.741,-67  -209.741,-67  L  -203.88,0  C  -203.88,0  -173.104,-15  0,-15  z " />
<path transform="translate( 0, 0 )" style="stroke: hsl(161.4, 55%, 50%);" id="1251"  d=" M  0,-15  C  173.104,-15  203.88,0  203.88,0  L  209.741,-67  C  209.741,-67  151.466,-57  104.871,-57  L  -104.871,-57  C  -151.466,-57  -209.741,-67  -209.741,-67  L  -203.88,0  C  -203.88,0  -173.104,-15  0,-15  z " />
<path transform="translate( 0, 0 )" style="stroke: hsl(188.3, 55%, 50%);" id="1460"  d=" M  0,-15  C  173.104,-15  203.88,0  203.88,0  L  209.741,-67  C  209.741,-67  151.466,-57  104.871,-57  L  -104.871,-57  C  -151.466,-57  -209.741,-67  -209.741,-67  L  -203.88,0  C  -203.88,0  -173.104,-15  0,-15  z " />
<path transform="translate( 0, 0 )" style="stroke: hsl(215.2, 55%, 50%);" id="1669"  d=" M  0,-15  C  173.104,-15  203.88,0  203.88,0  L  209.741,-67  C  209.741,-67  151.466,-57  104.871,-57  L  -104.871,-57  C  -151.466,-57  -209.741,-67  -209.741,-67  L  -203.88,0  C  -203.88,0  -173.104,-15  0,-15  z " />
<path transform="translate( 0, 0 )" style="stroke: hsl(242.1, 55%, 50%);" id="1878"  d=" M  0,-15  C  173.104,-15  203.88,0  203.88,0  L  209.741,-67  C  209.741,-67  151.466,-57  104.871,-57  L  -104.871,-57  C  -151.466,-57  -209.741,-67  -209.741,-67  L  -203.88,0  C  -203.88,0  -173.104,-15  0,-15  z " />
<path transform="translate( 0, 0 )" style="stroke: hsl(269, 55%, 50%);" id="2087"  d=" M  0,-15  C  173.104,-15  203.88,0  203.88,0  L  209.741,-67  C  209.741,-67  151.466,-57  104.871,-57  L  -104.871,-57  C  -151.466,-57  -209.741,-67  -209.741,-67  L  -203.88,0  C  -203.88,0  -173.104,-15  0,-15  z " />
<path transform="translate( 0, 0 )" style="stroke: hsl(295.9, 55%, 50%);" id="2296"  d=" M  0,-15  C  173.104,-15  203.88,0  203.88,0  L  209.741,-67  C  209.741,-67  151.466,-57  104.871,-57  L  -104.871,-57  C  -151.466,-57  -209.741,-67  -209.741,-67  L  -203.88,0  C  -203.88,0  -173.104,-15  0,-15  z " />
    </g>
    <!-- End of group #collar -->
    
    <!-- Start of group #undercollar -->
    <g id="undercollar"  transform=" translate(214.741 72)  translate(909.482 895) " >
        <path class="hidden" id="9"  d=" M  -209.741,-67  L  209.741,-67  L  209.741,0  L  -209.741,0  z " />
<path transform="translate( 0, 0 )" style="stroke: hsl(26.9, 55%, 50%);" id="207"  d=" M  203.88,0  L  209.741,-67  C  209.741,-67  151.466,-57  104.871,-57  L  -104.871,-57  C  -151.466,-57  -209.741,-67  -209.741,-67  L  -203.88,0  C  -203.88,0  -173.104,-17  0,-18  C  173.104,-17  203.88,0  203.88,0  z " />
<path transform="translate( 0, 0 )" style="stroke: hsl(53.8, 55%, 50%);" id="416"  d=" M  203.88,0  L  209.741,-67  C  209.741,-67  151.466,-57  104.871,-57  L  -104.871,-57  C  -151.466,-57  -209.741,-67  -209.741,-67  L  -203.88,0  C  -203.88,0  -173.104,-17  0,-18  C  173.104,-17  203.88,0  203.88,0  z " />
<path transform="translate( 0, 0 )" style="stroke: hsl(80.7, 55%, 50%);" id="625"  d=" M  203.88,0  L  209.741,-67  C  209.741,-67  151.466,-57  104.871,-57  L  -104.871,-57  C  -151.466,-57  -209.741,-67  -209.741,-67  L  -203.88,0  C  -203.88,0  -173.104,-17  0,-18  C  173.104,-17  203.88,0  203.88,0  z " />
<path transform="translate( 0, 0 )" style="stroke: hsl(107.6, 55%, 50%);" id="834"  d=" M  203.88,0  L  209.741,-67  C  209.741,-67  151.466,-57  104.871,-57  L  -104.871,-57  C  -151.466,-57  -209.741,-67  -209.741,-67  L  -203.88,0  C  -203.88,0  -173.104,-17  0,-18  C  173.104,-17  203.88,0  203.88,0  z " />
<path transform="translate( 0, 0 )" style="stroke: hsl(134.5, 55%, 50%);" id="1043"  d=" M  203.88,0  L  209.741,-67  C  209.741,-67  151.466,-57  104.871,-57  L  -104.871,-57  C  -151.466,-57  -209.741,-67  -209.741,-67  L  -203.88,0  C  -203.88,0  -173.104,-17  0,-18  C  173.104,-17  203.88,0  203.88,0  z " />
<path transform="translate( 0, 0 )" style="stroke: hsl(161.4, 55%, 50%);" id="1252"  d=" M  203.88,0  L  209.741,-67  C  209.741,-67  151.466,-57  104.871,-57  L  -104.871,-57  C  -151.466,-57  -209.741,-67  -209.741,-67  L  -203.88,0  C  -203.88,0  -173.104,-17  0,-18  C  173.104,-17  203.88,0  203.88,0  z " />
<path transform="translate( 0, 0 )" style="stroke: hsl(188.3, 55%, 50%);" id="1461"  d=" M  203.88,0  L  209.741,-67  C  209.741,-67  151.466,-57  104.871,-57  L  -104.871,-57  C  -151.466,-57  -209.741,-67  -209.741,-67  L  -203.88,0  C  -203.88,0  -173.104,-17  0,-18  C  173.104,-17  203.88,0  203.88,0  z " />
<path transform="translate( 0, 0 )" style="stroke: hsl(215.2, 55%, 50%);" id="1670"  d=" M  203.88,0  L  209.741,-67  C  209.741,-67  151.466,-57  104.871,-57  L  -104.871,-57  C  -151.466,-57  -209.741,-67  -209.741,-67  L  -203.88,0  C  -203.88,0  -173.104,-17  0,-18  C  173.104,-17  203.88,0  203.88,0  z " />
<path transform="translate( 0, 0 )" style="stroke: hsl(242.1, 55%, 50%);" id="1879"  d=" M  203.88,0  L  209.741,-67  C  209.741,-67  151.466,-57  104.871,-57  L  -104.871,-57  C  -151.466,-57  -209.741,-67  -209.741,-67  L  -203.88,0  C  -203.88,0  -173.104,-17  0,-18  C  173.104,-17  203.88,0  203.88,0  z " />
<path transform="translate( 0, 0 )" style="stroke: hsl(269, 55%, 50%);" id="2088"  d=" M  203.88,0  L  209.741,-67  C  209.741,-67  151.466,-57  104.871,-57  L  -104.871,-57  C  -151.466,-57  -209.741,-67  -209.741,-67  L  -203.88,0  C  -203.88,0  -173.104,-17  0,-18  C  173.104,-17  203.88,0  203.88,0  z " />
<path transform="translate( 0, 0 )" style="stroke: hsl(295.9, 55%, 50%);" id="2297"  d=" M  203.88,0  L  209.741,-67  C  209.741,-67  151.466,-57  104.871,-57  L  -104.871,-57  C  -151.466,-57  -209.741,-67  -209.741,-67  L  -203.88,0  C  -203.88,0  -173.104,-17  0,-18  C  173.104,-17  203.88,0  203.88,0  z " />
    </g>
    <!-- End of group #undercollar -->
    
    <!-- Start of group #sleevePlacketUnderlap -->
    <g id="sleevePlacketUnderlap"  transform=" translate(5 5)  translate(1077.5 786) " >
        <path class="hidden" id="10"  d=" M  0,0  L  192.25,0  L  192.25,36  L  0,36  z " />
<path transform="translate( 0, 0 )" style="stroke: hsl(26.9, 55%, 50%);" id="208"  d=" M  0,0  L  185.25,0  L  185.25,27  L  0,27  z " />
<path transform="translate( 0, 0 )" style="stroke: hsl(53.8, 55%, 50%);" id="417"  d=" M  0,0  L  185.95,0  L  185.95,31  L  0,31  z " />
<path transform="translate( 0, 0 )" style="stroke: hsl(80.7, 55%, 50%);" id="626"  d=" M  0,0  L  186.65,0  L  186.65,35  L  0,35  z " />
<path transform="translate( 0, 0 )" style="stroke: hsl(107.6, 55%, 50%);" id="835"  d=" M  0,0  L  187.35,0  L  187.35,36  L  0,36  z " />
<path transform="translate( 0, 0 )" style="stroke: hsl(134.5, 55%, 50%);" id="1044"  d=" M  0,0  L  188.05,0  L  188.05,36  L  0,36  z " />
<path transform="translate( 0, 0 )" style="stroke: hsl(161.4, 55%, 50%);" id="1253"  d=" M  0,0  L  188.75,0  L  188.75,36  L  0,36  z " />
<path transform="translate( 0, 0 )" style="stroke: hsl(188.3, 55%, 50%);" id="1462"  d=" M  0,0  L  189.45,0  L  189.45,36  L  0,36  z " />
<path transform="translate( 0, 0 )" style="stroke: hsl(215.2, 55%, 50%);" id="1671"  d=" M  0,0  L  190.15,0  L  190.15,36  L  0,36  z " />
<path transform="translate( 0, 0 )" style="stroke: hsl(242.1, 55%, 50%);" id="1880"  d=" M  0,0  L  190.85,0  L  190.85,36  L  0,36  z " />
<path transform="translate( 0, 0 )" style="stroke: hsl(269, 55%, 50%);" id="2089"  d=" M  0,0  L  191.55,0  L  191.55,36  L  0,36  z " />
<path transform="translate( 0, 0 )" style="stroke: hsl(295.9, 55%, 50%);" id="2298"  d=" M  0,0  L  192.25,0  L  192.25,36  L  0,36  z " />
    </g>
    <!-- End of group #sleevePlacketUnderlap -->
    
    <!-- Start of group #sleevePlacketOverlap -->
    <g id="sleevePlacketOverlap"  transform=" translate(5 5)  translate(1077.5 688) " >
        <path class="hidden" id="11"  d=" M  0,0  L  257,0  L  257,88  L  0,88  z " />
<path transform="translate( 0, 0 )" style="stroke: hsl(26.9, 55%, 50%);" id="209"  d=" M  0,0  L  213,0  L  213,26  L  201.75,26  L  202.75,31  L  195.25,31  L  195.25,44  L  0,44  z " />
<path transform="translate( 0, 0 )" style="stroke: hsl(53.8, 55%, 50%);" id="418"  d=" M  0,0  L  217.4,0  L  217.4,29.667  L  204.65,29.667  L  204.45,35.333  L  195.95,35.333  L  195.95,50  L  0,50  z " />
<path transform="translate( 0, 0 )" style="stroke: hsl(80.7, 55%, 50%);" id="627"  d=" M  0,0  L  221.8,0  L  221.8,33.333  L  207.55,33.333  L  206.15,39.667  L  196.65,39.667  L  196.65,56  L  0,56  z " />
<path transform="translate( 0, 0 )" style="stroke: hsl(107.6, 55%, 50%);" id="836"  d=" M  0,0  L  226.2,0  L  226.2,36  L  210.45,36  L  207.85,43  L  197.35,43  L  197.35,60  L  0,60  z " />
<path transform="translate( 0, 0 )" style="stroke: hsl(134.5, 55%, 50%);" id="1045"  d=" M  0,0  L  230.6,0  L  230.6,38.667  L  213.35,38.667  L  209.55,46.333  L  198.05,46.333  L  198.05,64  L  0,64  z " />
<path transform="translate( 0, 0 )" style="stroke: hsl(161.4, 55%, 50%);" id="1254"  d=" M  0,0  L  235,0  L  235,41.333  L  216.25,41.333  L  211.25,49.667  L  198.75,49.667  L  198.75,68  L  0,68  z " />
<path transform="translate( 0, 0 )" style="stroke: hsl(188.3, 55%, 50%);" id="1463"  d=" M  0,0  L  239.4,0  L  239.4,44  L  219.15,44  L  212.95,53  L  199.45,53  L  199.45,72  L  0,72  z " />
<path transform="translate( 0, 0 )" style="stroke: hsl(215.2, 55%, 50%);" id="1672"  d=" M  0,0  L  243.8,0  L  243.8,46.667  L  222.05,46.667  L  214.65,56.333  L  200.15,56.333  L  200.15,76  L  0,76  z " />
<path transform="translate( 0, 0 )" style="stroke: hsl(242.1, 55%, 50%);" id="1881"  d=" M  0,0  L  248.2,0  L  248.2,49.333  L  224.95,49.333  L  216.35,59.667  L  200.85,59.667  L  200.85,80  L  0,80  z " />
<path transform="translate( 0, 0 )" style="stroke: hsl(269, 55%, 50%);" id="2090"  d=" M  0,0  L  252.6,0  L  252.6,52  L  227.85,52  L  218.05,63  L  201.55,63  L  201.55,84  L  0,84  z " />
<path transform="translate( 0, 0 )" style="stroke: hsl(295.9, 55%, 50%);" id="2299"  d=" M  0,0  L  257,0  L  257,54.667  L  230.75,54.667  L  219.75,66.333  L  202.25,66.333  L  202.25,88  L  0,88  z " />
    </g>
    <!-- End of group #sleevePlacketOverlap -->
    
    <!-- Start of group #barrelCuff -->
    <g id="barrelCuff"  transform=" translate(127.5 5)  translate(757.5 692.75) " >
        <path class="hidden" id="12"  d=" M  -122.5,0  L  122.5,0  L  122.5,65  L  -122.5,65  z " />
<path transform="translate( 0, 0 )" style="stroke: hsl(26.9, 55%, 50%);" id="210"  d=" M  0,0  L  106.25,-0  L  122.5,16.25  L  122.5,65  L  -122.5,65  L  -122.5,16.25  L  -106.25,0  z " />
<path transform="translate( 0, 0 )" style="stroke: hsl(53.8, 55%, 50%);" id="419"  d=" M  0,0  L  106.25,-0  L  122.5,16.25  L  122.5,65  L  -122.5,65  L  -122.5,16.25  L  -106.25,0  z " />
<path transform="translate( 0, 0 )" style="stroke: hsl(80.7, 55%, 50%);" id="628"  d=" M  0,0  L  106.25,-0  L  122.5,16.25  L  122.5,65  L  -122.5,65  L  -122.5,16.25  L  -106.25,0  z " />
<path transform="translate( 0, 0 )" style="stroke: hsl(107.6, 55%, 50%);" id="837"  d=" M  0,0  L  106.25,-0  L  122.5,16.25  L  122.5,65  L  -122.5,65  L  -122.5,16.25  L  -106.25,0  z " />
<path transform="translate( 0, 0 )" style="stroke: hsl(134.5, 55%, 50%);" id="1046"  d=" M  0,0  L  106.25,-0  L  122.5,16.25  L  122.5,65  L  -122.5,65  L  -122.5,16.25  L  -106.25,0  z " />
<path transform="translate( 0, 0 )" style="stroke: hsl(161.4, 55%, 50%);" id="1255"  d=" M  0,0  L  106.25,-0  L  122.5,16.25  L  122.5,65  L  -122.5,65  L  -122.5,16.25  L  -106.25,0  z " />
<path transform="translate( 0, 0 )" style="stroke: hsl(188.3, 55%, 50%);" id="1464"  d=" M  0,0  L  106.25,-0  L  122.5,16.25  L  122.5,65  L  -122.5,65  L  -122.5,16.25  L  -106.25,0  z " />
<path transform="translate( 0, 0 )" style="stroke: hsl(215.2, 55%, 50%);" id="1673"  d=" M  0,0  L  106.25,-0  L  122.5,16.25  L  122.5,65  L  -122.5,65  L  -122.5,16.25  L  -106.25,0  z " />
<path transform="translate( 0, 0 )" style="stroke: hsl(242.1, 55%, 50%);" id="1882"  d=" M  0,0  L  106.25,-0  L  122.5,16.25  L  122.5,65  L  -122.5,65  L  -122.5,16.25  L  -106.25,0  z " />
<path transform="translate( 0, 0 )" style="stroke: hsl(269, 55%, 50%);" id="2091"  d=" M  0,0  L  106.25,-0  L  122.5,16.25  L  122.5,65  L  -122.5,65  L  -122.5,16.25  L  -106.25,0  z " />
<path transform="translate( 0, 0 )" style="stroke: hsl(295.9, 55%, 50%);" id="2300"  d=" M  0,0  L  106.25,-0  L  122.5,16.25  L  122.5,65  L  -122.5,65  L  -122.5,16.25  L  -106.25,0  z " />
    </g>
    <!-- End of group #barrelCuff -->
    
    <!-- Start of group #frenchCuff -->
    <g id="frenchCuff" >
    </g>
    <!-- End of group #frenchCuff -->
    
    <!-- Start of group #sampler-frontRight -->
    <g id="sampler-frontRight" >
    </g>
    <!-- End of group #sampler-frontRight -->
    
    <!-- Start of group #sampler-frontLeft -->
    <g id="sampler-frontLeft" >
    </g>
    <!-- End of group #sampler-frontLeft -->
    
    <!-- Start of group #sampler-yoke -->
    <g id="sampler-yoke" >
    </g>
    <!-- End of group #sampler-yoke -->
    
    <!-- Start of group #sampler-back -->
    <g id="sampler-back" >
    </g>
    <!-- End of group #sampler-back -->
    
    <!-- Start of group #sampler-sleeve -->
    <g id="sampler-sleeve" >
    </g>
    <!-- End of group #sampler-sleeve -->
    
    <!-- Start of group #sampler-collarStand -->
    <g id="sampler-collarStand" >
    </g>
    <!-- End of group #sampler-collarStand -->
    
    <!-- Start of group #sampler-collar -->
    <g id="sampler-collar" >
    </g>
    <!-- End of group #sampler-collar -->
    
    <!-- Start of group #sampler-undercollar -->
    <g id="sampler-undercollar" >
    </g>
    <!-- End of group #sampler-undercollar -->
    
    <!-- Start of group #sampler-sleevePlacketUnderlap -->
    <g id="sampler-sleevePlacketUnderlap" >
    </g>
    <!-- End of group #sampler-sleevePlacketUnderlap -->
    
    <!-- Start of group #sampler-sleevePlacketOverlap -->
    <g id="sampler-sleevePlacketOverlap" >
    </g>
    <!-- End of group #sampler-sleevePlacketOverlap -->
    
    <!-- Start of group #sampler-barrelCuff -->
    <g id="sampler-barrelCuff" >
    </g>
    <!-- End of group #sampler-barrelCuff -->
</g>
<!-- End of group #patternContainer -->

</svg>

