<?xml version="1.0" encoding="UTF-8" standalone="no"?>
<svg
    width ="1250.1354342654"
    height ="2819.1649633238"
    viewbox ="0 0 1250.1354342654 2819.1649633238" xmlns:dc="http://purl.org/dc/elements/1.1/"
    xmlns:cc="http://creativecommons.org/ns#"
    xmlns:rdf="http://www.w3.org/1999/02/22-rdf-syntax-ns#"
    xmlns:svg="http://www.w3.org/2000/svg"
    xmlns="http://www.w3.org/2000/svg"
    xmlns:xlink="http://www.w3.org/1999/xlink"
    xmlns:sodipodi="http://sodipodi.sourceforge.net/DTD/sodipodi-0.dtd"
    xmlns:inkscape="http://www.inkscape.org/namespaces/inkscape" 
>

<style type="text/css">
    <![CDATA[
    path { fill: none; stroke: #000000; stroke-opacity:1; stroke-width: 0.5; stroke-miterlimit:4; stroke-dashoffset:0; stroke-linecap:round; stroke-linejoin:round; }
    path.hidden { fill: none; stroke: none; }]]>
</style>


<!-- Start of group #patternScaleContainer -->
<g id="patternScaleContainer"  transform=" scale(3.54330709 ) " >
    
    <!-- Start of group #sleeve -->
    <g id="sleeve"  transform=" translate(176.408 27.631)  translate(0 0) " >
        <path class="hidden" id="2"  d=" M  -171.408,-22.631  L  171.408,-22.631  L  171.408,763  L  -171.408,763  z " />
<path transform="translate( 0, 0 )" style="stroke: hsl(26.9, 55%, 50%);" id="204"  d=" M  -171.408,141.588  C  -171.408,141.588  -140.961,117.055  -124.947,100.352  C  -108.933,83.649  -85.704,52.196  -85.704,52.196  C  -85.704,52.196  -70.417,25.323  -50.654,13.287  C  -30.891,1.251  -23.14,-0  5,0  C  23.14,0  40.449,1.342  59.043,15.117  C  77.637,28.892  90.704,67.196  90.704,67.196  C  90.704,67.196  103.875,99.737  120.889,115.421  C  137.903,131.105  171.408,141.588  171.408,141.588  L  142.5,760  C  142.5,760  111.875,763  81.25,763  C  65.827,762.471  50.625,761.845  50.625,761.845  L  30.625,761.845  C  10.302,761.009  0,760  0,760  L  -20,760  C  -20,760  -50.625,757  -81.25,757  C  -111.875,757  -142.5,760  -142.5,760  z " />
<path transform="translate( 0, -2.153 )" style="stroke: hsl(53.8, 55%, 50%);" id="413"  d=" M  -168.401,143.741  C  -168.401,143.741  -138.09,118.399  -122.634,101.727  C  -107.178,85.055  -84.201,52.914  -84.201,52.914  C  -84.201,52.914  -69.331,25.853  -50.082,13.757  C  -30.833,1.661  -22.734,-0  5,0  C  22.734,0  40.446,1.885  58.534,15.657  C  76.622,29.429  89.201,67.914  89.201,67.914  C  89.201,67.914  102.007,100.941  118.428,116.663  C  134.849,132.385  168.401,143.741  168.401,143.741  L  142.5,760  C  142.5,760  111.875,763  81.25,763  C  65.827,762.471  50.625,761.845  50.625,761.845  L  30.625,761.845  C  10.302,761.009  0,760  0,760  L  -20,760  C  -20,760  -50.625,757  -81.25,757  C  -111.875,757  -142.5,760  -142.5,760  z " />
<path transform="translate( 0, -5.306 )" style="stroke: hsl(80.7, 55%, 50%);" id="622"  d=" M  -166.717,146.894  C  -166.717,146.894  -136.345,120.523  -121.316,103.769  C  -106.287,87.015  -83.359,53.965  -83.359,53.965  C  -83.359,53.965  -68.725,26.622  -49.832,14.391  C  -30.939,2.16  -22.507,-0  5,0  C  22.507,0  40.589,2.504  58.331,16.352  C  76.073,30.2  88.359,68.965  88.359,68.965  C  88.359,68.965  101.003,102.695  116.961,118.566  C  132.919,134.437  166.717,146.894  166.717,146.894  L  142.5,760  C  142.5,760  111.875,763  81.25,763  C  65.827,762.471  50.625,761.845  50.625,761.845  L  30.625,761.845  C  10.302,761.009  0,760  0,760  L  -20,760  C  -20,760  -50.625,757  -81.25,757  C  -111.875,757  -142.5,760  -142.5,760  z " />
<path transform="translate( 0, -7.797 )" style="stroke: hsl(107.6, 55%, 50%);" id="831"  d=" M  -164.407,149.385  C  -164.407,149.385  -134.091,122.123  -119.532,105.37  C  -104.973,88.617  -82.204,54.795  -82.204,54.795  C  -82.204,54.795  -67.89,27.227  -49.422,14.917  C  -30.954,2.607  -22.195,-0  5,0  C  22.195,0  40.646,3.072  57.974,16.941  C  75.302,30.81  87.204,69.795  87.204,69.795  C  87.204,69.795  99.585,104.103  115.039,120.034  C  130.493,135.965  164.407,149.385  164.407,149.385  L  142.5,760  C  142.5,760  111.875,763  81.25,763  C  65.827,762.471  50.625,761.845  50.625,761.845  L  30.625,761.845  C  10.302,761.009  0,760  0,760  L  -20,760  C  -20,760  -50.625,757  -81.25,757  C  -111.875,757  -142.5,760  -142.5,760  z " />
<path transform="translate( 0, -9.851 )" style="stroke: hsl(134.5, 55%, 50%);" id="1040"  d=" M  -161.765,151.439  C  -161.765,151.439  -131.575,123.38  -117.501,106.682  C  -103.427,89.984  -80.883,55.48  -80.883,55.48  C  -80.883,55.48  -66.936,27.723  -48.927,15.37  C  -30.918,3.017  -21.838,-0  5,0  C  21.838,0  40.652,3.607  57.533,17.461  C  74.414,31.315  85.883,70.48  85.883,70.48  C  85.883,70.48  97.946,105.285  112.88,121.218  C  127.814,137.151  161.765,151.439  161.765,151.439  L  142.5,760  C  142.5,760  111.875,763  81.25,763  C  65.827,762.471  50.625,761.845  50.625,761.845  L  30.625,761.845  C  10.302,761.009  0,760  0,760  L  -20,760  C  -20,760  -50.625,757  -81.25,757  C  -111.875,757  -142.5,760  -142.5,760  z " />
<path transform="translate( 0, -12.484 )" style="stroke: hsl(161.4, 55%, 50%);" id="1249"  d=" M  -159.876,154.072  C  -159.876,154.072  -129.703,125.086  -116.037,108.381  C  -102.371,91.676  -79.938,56.357  -79.938,56.357  C  -79.938,56.357  -66.252,28.355  -48.612,15.919  C  -30.972,3.483  -21.583,-0  5,0  C  21.583,0  40.739,4.186  57.264,18.069  C  73.789,31.952  84.938,71.357  84.938,71.357  C  84.938,71.357  96.8,106.791  111.291,122.786  C  125.782,138.781  159.876,154.072  159.876,154.072  L  142.5,760  C  142.5,760  111.875,763  81.25,763  C  65.827,762.471  50.625,761.845  50.625,761.845  L  30.625,761.845  C  10.302,761.009  0,760  0,760  L  -20,760  C  -20,760  -50.625,757  -81.25,757  C  -111.875,757  -142.5,760  -142.5,760  z " />
<path transform="translate( 0, -13.997 )" style="stroke: hsl(188.3, 55%, 50%);" id="1458"  d=" M  -156.961,155.585  C  -156.961,155.585  -126.993,125.922  -113.807,109.335  C  -100.621,92.748  -78.481,56.862  -78.481,56.862  C  -78.481,56.862  -65.201,28.717  -48.042,16.284  C  -30.883,3.851  -21.19,-0  5,0  C  21.19,0  40.687,4.676  56.746,18.5  C  72.805,32.324  83.481,71.862  83.481,71.862  C  83.481,71.862  94.969,107.693  108.947,123.619  C  122.925,139.545  156.961,155.585  156.961,155.585  L  142.5,760  C  142.5,760  111.875,763  81.25,763  C  65.827,762.471  50.625,761.845  50.625,761.845  L  30.625,761.845  C  10.302,761.009  0,760  0,760  L  -20,760  C  -20,760  -50.625,757  -81.25,757  C  -111.875,757  -142.5,760  -142.5,760  z " />
<path transform="translate( 0, -16.719 )" style="stroke: hsl(215.2, 55%, 50%);" id="1667"  d=" M  -155.391,158.307  C  -155.391,158.307  -125.416,127.694  -112.588,111.095  C  -99.76,94.496  -77.696,57.769  -77.696,57.769  C  -77.696,57.769  -64.633,29.365  -47.798,16.848  C  -30.963,4.331  -20.978,-0  5,0  C  20.978,0  40.793,5.26  56.542,19.118  C  72.291,32.976  82.696,72.769  82.696,72.769  C  82.696,72.769  94.029,109.267  107.614,125.252  C  121.199,141.237  155.391,158.307  155.391,158.307  L  142.5,760  C  142.5,760  111.875,763  81.25,763  C  65.827,762.471  50.625,761.845  50.625,761.845  L  30.625,761.845  C  10.302,761.009  0,760  0,760  L  -20,760  C  -20,760  -50.625,757  -81.25,757  C  -111.875,757  -142.5,760  -142.5,760  z " />
<path transform="translate( 0, -18.826 )" style="stroke: hsl(242.1, 55%, 50%);" id="1876"  d=" M  -153.315,160.414  C  -153.315,160.414  -123.431,128.991  -110.991,112.448  C  -98.551,95.905  -76.658,58.471  -76.658,58.471  C  -76.658,58.471  -63.883,29.862  -47.426,17.309  C  -30.969,4.756  -20.698,-0  5,0  C  20.698,0  40.826,5.794  56.213,19.638  C  71.6,33.482  81.658,73.471  81.658,73.471  C  81.658,73.471  92.748,110.511  105.912,126.483  C  119.076,142.455  153.315,160.414  153.315,160.414  L  142.5,760  C  142.5,760  111.875,763  81.25,763  C  65.827,762.471  50.625,761.845  50.625,761.845  L  30.625,761.845  C  10.302,761.009  0,760  0,760  L  -20,760  C  -20,760  -50.625,757  -81.25,757  C  -111.875,757  -142.5,760  -142.5,760  z " />
<path transform="translate( 0, -20.32 )" style="stroke: hsl(269, 55%, 50%);" id="2085"  d=" M  -150.776,161.908  C  -150.776,161.908  -121.075,129.815  -109.048,113.393  C  -97.021,96.971  -75.388,58.969  -75.388,58.969  C  -75.388,58.969  -62.969,30.211  -46.936,17.67  C  -30.903,5.129  -20.355,-0  5,0  C  20.355,0  40.789,6.277  55.768,20.06  C  70.747,33.843  80.388,73.969  80.388,73.969  C  80.388,73.969  91.151,111.421  103.871,127.312  C  116.591,143.203  150.776,161.908  150.776,161.908  L  142.5,760  C  142.5,760  111.875,763  81.25,763  C  65.827,762.471  50.625,761.845  50.625,761.845  L  30.625,761.845  C  10.302,761.009  0,760  0,760  L  -20,760  C  -20,760  -50.625,757  -81.25,757  C  -111.875,757  -142.5,760  -142.5,760  z " />
<path transform="translate( 0, -22.631 )" style="stroke: hsl(295.9, 55%, 50%);" id="2294"  d=" M  -149.104,164.219  C  -149.104,164.219  -119.45,131.269  -107.758,114.884  C  -96.066,98.499  -74.552,59.74  -74.552,59.74  C  -74.552,59.74  -62.364,30.752  -46.656,18.165  C  -30.948,5.578  -20.129,-0  5,0  C  20.129,0  40.855,6.824  55.525,20.607  C  70.195,34.39  79.552,74.74  79.552,74.74  C  79.552,74.74  90.132,112.793  102.485,128.686  C  114.838,144.579  149.104,164.219  149.104,164.219  L  142.5,760  C  142.5,760  111.875,763  81.25,763  C  65.827,762.471  50.625,761.845  50.625,761.845  L  30.625,761.845  C  10.302,761.009  0,760  0,760  L  -20,760  C  -20,760  -50.625,757  -81.25,757  C  -111.875,757  -142.5,760  -142.5,760  z " />
    </g>
    <!-- End of group #sleeve -->
</g>
<!-- End of group #patternScaleContainer -->

</svg>

