<?xml version="1.0" encoding="UTF-8" standalone="no"?>
<svg
    width ="5938.9653600057"
    height ="3489.8740190828"
    viewbox ="0 0 5938.9653600057 3489.8740190828" xmlns:dc="http://purl.org/dc/elements/1.1/"
    xmlns:cc="http://creativecommons.org/ns#"
    xmlns:rdf="http://www.w3.org/1999/02/22-rdf-syntax-ns#"
    xmlns:svg="http://www.w3.org/2000/svg"
    xmlns="http://www.w3.org/2000/svg"
    xmlns:xlink="http://www.w3.org/1999/xlink"
    xmlns:sodipodi="http://sodipodi.sourceforge.net/DTD/sodipodi-0.dtd"
    xmlns:inkscape="http://www.inkscape.org/namespaces/inkscape" 
>

<style type="text/css">
    <![CDATA[
    path { fill: none; stroke: #000000; stroke-opacity:1; stroke-width: 0.5; stroke-miterlimit:4; stroke-dashoffset:0; stroke-linecap:round; stroke-linejoin:round; }
    path.hidden { fill: none; stroke: none; }]]>
</style>


<!-- Start of group #patternScaleContainer -->
<g id="patternScaleContainer"  transform=" scale(3.54330709 ) " >
    
    <!-- Start of group #backBlock -->
    <g id="backBlock"  transform=" translate(0 0)  translate(1676.108 0) " >
    </g>
    <!-- End of group #backBlock -->
    
    <!-- Start of group #frontBlock -->
    <g id="frontBlock"  transform=" translate(0 0)  translate(1676.108 0) " >
    </g>
    <!-- End of group #frontBlock -->
    
    <!-- Start of group #sleeveBlock -->
    <g id="sleeveBlock"  transform=" translate(0 0)  translate(1676.108 0) " >
    </g>
    <!-- End of group #sleeveBlock -->
    
    <!-- Start of group #block -->
    <g id="block"  transform=" translate(0 0)  translate(1676.108 0) " >
    </g>
    <!-- End of group #block -->
    
    <!-- Start of group #frontAndBackBlock -->
    <g id="frontAndBackBlock"  transform=" translate(0 0)  translate(1676.108 0) " >
    </g>
    <!-- End of group #frontAndBackBlock -->
    
    <!-- Start of group #frontRight -->
    <g id="frontRight"  transform=" translate(300 5)  translate(348.608 0) " >
        <path class="hidden" id="2"  d=" M  -295,0  L  30,0  L  30,750  L  -295,750  z " />
<path transform="translate( 0, 0 )" style="stroke: hsl(26.9, 55%, 50%);" id="200"  d=" M  -290,228.5  C  -273.75,228.5  -260.363,222.433  -245.715,207.785  C  -231.067,193.137  -220,143.167  -220,114.25  C  -220,85.333  -233.338,37.361  -235,27.5  L  -71.847,0  C  -71.847,0  -71.847,109.662  0,109.662  L  20,109.662  C  23.592,109.662  27.005,109.388  30,108.906  L  30,109.662  L  30,750  L  -262.5,750  C  -262.5,750  -295,750  -295,750  C  -295,750  -295,670  -295,670  C  -295,649  -294.838,620.435  -290,600  C  -286.449,585  -263.75,540  -263.75,480  C  -263.75,354.25  -290,259.937  -290,228.5 " />
<path transform="translate( 0, 0 )" style="stroke: hsl(53.8, 55%, 50%);" id="409"  d=" M  -290,228.5  C  -273.75,228.5  -260.363,222.433  -245.715,207.785  C  -231.067,193.137  -220,143.167  -220,114.25  C  -220,85.333  -233.338,37.361  -235,27.5  L  -71.847,0  C  -71.847,0  -71.847,109.662  0,109.662  L  20,109.662  C  23.592,109.662  27.005,109.388  30,108.906  L  30,109.662  L  30,750  L  -262.5,750  C  -262.5,750  -295,750  -295,750  C  -295,750  -295,670  -295,670  C  -295,649  -294.838,620.435  -290,600  C  -286.449,585  -263.75,540  -263.75,480  C  -263.75,354.25  -290,259.937  -290,228.5 " />
<path transform="translate( 0, 0 )" style="stroke: hsl(80.7, 55%, 50%);" id="618"  d=" M  -290,228.5  C  -273.75,228.5  -260.363,222.433  -245.715,207.785  C  -231.067,193.137  -220,143.167  -220,114.25  C  -220,85.333  -233.338,37.361  -235,27.5  L  -71.847,0  C  -71.847,0  -71.847,109.662  0,109.662  L  20,109.662  C  23.592,109.662  27.005,109.388  30,108.906  L  30,109.662  L  30,750  L  -262.5,750  C  -262.5,750  -295,750  -295,750  C  -295,750  -295,670  -295,670  C  -295,649  -294.838,620.435  -290,600  C  -286.449,585  -263.75,540  -263.75,480  C  -263.75,354.25  -290,259.937  -290,228.5 " />
<path transform="translate( 0, 0 )" style="stroke: hsl(107.6, 55%, 50%);" id="827"  d=" M  -290,228.5  C  -273.75,228.5  -260.363,222.433  -245.715,207.785  C  -231.067,193.137  -220,143.167  -220,114.25  C  -220,85.333  -233.338,37.361  -235,27.5  L  -71.847,0  C  -71.847,0  -71.847,109.662  0,109.662  L  20,109.662  C  23.592,109.662  27.005,109.388  30,108.906  L  30,109.662  L  30,750  L  -262.5,750  C  -262.5,750  -295,750  -295,750  C  -295,750  -295,670  -295,670  C  -295,649  -294.838,620.435  -290,600  C  -286.449,585  -263.75,540  -263.75,480  C  -263.75,354.25  -290,259.937  -290,228.5 " />
<path transform="translate( 0, 0 )" style="stroke: hsl(134.5, 55%, 50%);" id="1036"  d=" M  -290,228.5  C  -273.75,228.5  -260.363,222.433  -245.715,207.785  C  -231.067,193.137  -220,143.167  -220,114.25  C  -220,85.333  -233.338,37.361  -235,27.5  L  -71.847,0  C  -71.847,0  -71.847,109.662  0,109.662  L  20,109.662  C  23.592,109.662  27.005,109.388  30,108.906  L  30,109.662  L  30,750  L  -262.5,750  C  -262.5,750  -295,750  -295,750  C  -295,750  -295,670  -295,670  C  -295,649  -294.838,620.435  -290,600  C  -286.449,585  -263.75,540  -263.75,480  C  -263.75,354.25  -290,259.937  -290,228.5 " />
<path transform="translate( 0, 0 )" style="stroke: hsl(161.4, 55%, 50%);" id="1245"  d=" M  -290,228.5  C  -273.75,228.5  -260.363,222.433  -245.715,207.785  C  -231.067,193.137  -220,143.167  -220,114.25  C  -220,85.333  -233.338,37.361  -235,27.5  L  -71.847,0  C  -71.847,0  -71.847,109.662  0,109.662  L  20,109.662  C  23.592,109.662  27.005,109.388  30,108.906  L  30,109.662  L  30,750  L  -262.5,750  C  -262.5,750  -295,750  -295,750  C  -295,750  -295,670  -295,670  C  -295,649  -294.838,620.435  -290,600  C  -286.449,585  -263.75,540  -263.75,480  C  -263.75,354.25  -290,259.937  -290,228.5 " />
<path transform="translate( 0, 0 )" style="stroke: hsl(188.3, 55%, 50%);" id="1454"  d=" M  -290,228.5  C  -273.75,228.5  -260.363,222.433  -245.715,207.785  C  -231.067,193.137  -220,143.167  -220,114.25  C  -220,85.333  -233.338,37.361  -235,27.5  L  -71.847,0  C  -71.847,0  -71.847,109.662  0,109.662  L  20,109.662  C  23.592,109.662  27.005,109.388  30,108.906  L  30,109.662  L  30,750  L  -262.5,750  C  -262.5,750  -295,750  -295,750  C  -295,750  -295,670  -295,670  C  -295,649  -294.838,620.435  -290,600  C  -286.449,585  -263.75,540  -263.75,480  C  -263.75,354.25  -290,259.937  -290,228.5 " />
<path transform="translate( 0, 0 )" style="stroke: hsl(215.2, 55%, 50%);" id="1663"  d=" M  -290,228.5  C  -273.75,228.5  -260.363,222.433  -245.715,207.785  C  -231.067,193.137  -220,143.167  -220,114.25  C  -220,85.333  -233.338,37.361  -235,27.5  L  -71.847,0  C  -71.847,0  -71.847,109.662  0,109.662  L  20,109.662  C  23.592,109.662  27.005,109.388  30,108.906  L  30,109.662  L  30,750  L  -262.5,750  C  -262.5,750  -295,750  -295,750  C  -295,750  -295,670  -295,670  C  -295,649  -294.838,620.435  -290,600  C  -286.449,585  -263.75,540  -263.75,480  C  -263.75,354.25  -290,259.937  -290,228.5 " />
<path transform="translate( 0, 0 )" style="stroke: hsl(242.1, 55%, 50%);" id="1872"  d=" M  -290,228.5  C  -273.75,228.5  -260.363,222.433  -245.715,207.785  C  -231.067,193.137  -220,143.167  -220,114.25  C  -220,85.333  -233.338,37.361  -235,27.5  L  -71.847,0  C  -71.847,0  -71.847,109.662  0,109.662  L  20,109.662  C  23.592,109.662  27.005,109.388  30,108.906  L  30,109.662  L  30,750  L  -262.5,750  C  -262.5,750  -295,750  -295,750  C  -295,750  -295,670  -295,670  C  -295,649  -294.838,620.435  -290,600  C  -286.449,585  -263.75,540  -263.75,480  C  -263.75,354.25  -290,259.937  -290,228.5 " />
<path transform="translate( 0, 0 )" style="stroke: hsl(269, 55%, 50%);" id="2081"  d=" M  -290,228.5  C  -273.75,228.5  -260.363,222.433  -245.715,207.785  C  -231.067,193.137  -220,143.167  -220,114.25  C  -220,85.333  -233.338,37.361  -235,27.5  L  -71.847,0  C  -71.847,0  -71.847,109.662  0,109.662  L  20,109.662  C  23.592,109.662  27.005,109.388  30,108.906  L  30,109.662  L  30,750  L  -262.5,750  C  -262.5,750  -295,750  -295,750  C  -295,750  -295,670  -295,670  C  -295,649  -294.838,620.435  -290,600  C  -286.449,585  -263.75,540  -263.75,480  C  -263.75,354.25  -290,259.937  -290,228.5 " />
<path transform="translate( 0, 0 )" style="stroke: hsl(295.9, 55%, 50%);" id="2290"  d=" M  -290,228.5  C  -273.75,228.5  -260.363,222.433  -245.715,207.785  C  -231.067,193.137  -220,143.167  -220,114.25  C  -220,85.333  -233.338,37.361  -235,27.5  L  -71.847,0  C  -71.847,0  -71.847,109.662  0,109.662  L  20,109.662  C  23.592,109.662  27.005,109.388  30,108.906  L  30,109.662  L  30,750  L  -262.5,750  C  -262.5,750  -295,750  -295,750  C  -295,750  -295,670  -295,670  C  -295,649  -294.838,620.435  -290,600  C  -286.449,585  -263.75,540  -263.75,480  C  -263.75,354.25  -290,259.937  -290,228.5 " />
    </g>
    <!-- End of group #frontRight -->
    
    <!-- Start of group #frontLeft -->
    <g id="frontLeft"  transform=" translate(92.5 5)  translate(683.608 0) " >
        <path class="hidden" id="3"  d=" M  -87.5,0  L  295,0  L  295,750  L  -87.5,750  z " />
<path transform="translate( 0, 0 )" style="stroke: hsl(26.9, 55%, 50%);" id="201"  d=" M  290,228.5  C  273.75,228.5  260.363,222.433  245.715,207.785  C  231.067,193.137  220,143.167  220,114.25  C  220,85.333  233.338,37.361  235,27.5  L  71.847,0  C  71.847,0  71.847,109.662  0,109.662  L  -35,109.662  C  -47.35,108.774  -41.466,109.662  -52.5,107.219  C  -63.534,109.662  -57.65,108.774  -70,109.662  L  -87.5,109.662  L  -87.5,750  L  262.5,750  C  262.5,750  295,750  295,750  C  295,750  295,670  295,670  C  295,649  294.838,620.435  290,600  C  286.449,585  263.75,540  263.75,480  C  263.75,354.25  290,259.937  290,228.5 " />
<path transform="translate( 0, 0 )" style="stroke: hsl(53.8, 55%, 50%);" id="410"  d=" M  290,228.5  C  273.75,228.5  260.363,222.433  245.715,207.785  C  231.067,193.137  220,143.167  220,114.25  C  220,85.333  233.338,37.361  235,27.5  L  71.847,0  C  71.847,0  71.847,109.662  0,109.662  L  -35,109.662  C  -47.35,108.774  -41.466,109.662  -52.5,107.219  C  -63.534,109.662  -57.65,108.774  -70,109.662  L  -87.5,109.662  L  -87.5,750  L  262.5,750  C  262.5,750  295,750  295,750  C  295,750  295,670  295,670  C  295,649  294.838,620.435  290,600  C  286.449,585  263.75,540  263.75,480  C  263.75,354.25  290,259.937  290,228.5 " />
<path transform="translate( 0, 0 )" style="stroke: hsl(80.7, 55%, 50%);" id="619"  d=" M  290,228.5  C  273.75,228.5  260.363,222.433  245.715,207.785  C  231.067,193.137  220,143.167  220,114.25  C  220,85.333  233.338,37.361  235,27.5  L  71.847,0  C  71.847,0  71.847,109.662  0,109.662  L  -35,109.662  C  -47.35,108.774  -41.466,109.662  -52.5,107.219  C  -63.534,109.662  -57.65,108.774  -70,109.662  L  -87.5,109.662  L  -87.5,750  L  262.5,750  C  262.5,750  295,750  295,750  C  295,750  295,670  295,670  C  295,649  294.838,620.435  290,600  C  286.449,585  263.75,540  263.75,480  C  263.75,354.25  290,259.937  290,228.5 " />
<path transform="translate( 0, 0 )" style="stroke: hsl(107.6, 55%, 50%);" id="828"  d=" M  290,228.5  C  273.75,228.5  260.363,222.433  245.715,207.785  C  231.067,193.137  220,143.167  220,114.25  C  220,85.333  233.338,37.361  235,27.5  L  71.847,0  C  71.847,0  71.847,109.662  0,109.662  L  -35,109.662  C  -47.35,108.774  -41.466,109.662  -52.5,107.219  C  -63.534,109.662  -57.65,108.774  -70,109.662  L  -87.5,109.662  L  -87.5,750  L  262.5,750  C  262.5,750  295,750  295,750  C  295,750  295,670  295,670  C  295,649  294.838,620.435  290,600  C  286.449,585  263.75,540  263.75,480  C  263.75,354.25  290,259.937  290,228.5 " />
<path transform="translate( 0, 0 )" style="stroke: hsl(134.5, 55%, 50%);" id="1037"  d=" M  290,228.5  C  273.75,228.5  260.363,222.433  245.715,207.785  C  231.067,193.137  220,143.167  220,114.25  C  220,85.333  233.338,37.361  235,27.5  L  71.847,0  C  71.847,0  71.847,109.662  0,109.662  L  -35,109.662  C  -47.35,108.774  -41.466,109.662  -52.5,107.219  C  -63.534,109.662  -57.65,108.774  -70,109.662  L  -87.5,109.662  L  -87.5,750  L  262.5,750  C  262.5,750  295,750  295,750  C  295,750  295,670  295,670  C  295,649  294.838,620.435  290,600  C  286.449,585  263.75,540  263.75,480  C  263.75,354.25  290,259.937  290,228.5 " />
<path transform="translate( 0, 0 )" style="stroke: hsl(161.4, 55%, 50%);" id="1246"  d=" M  290,228.5  C  273.75,228.5  260.363,222.433  245.715,207.785  C  231.067,193.137  220,143.167  220,114.25  C  220,85.333  233.338,37.361  235,27.5  L  71.847,0  C  71.847,0  71.847,109.662  0,109.662  L  -35,109.662  C  -47.35,108.774  -41.466,109.662  -52.5,107.219  C  -63.534,109.662  -57.65,108.774  -70,109.662  L  -87.5,109.662  L  -87.5,750  L  262.5,750  C  262.5,750  295,750  295,750  C  295,750  295,670  295,670  C  295,649  294.838,620.435  290,600  C  286.449,585  263.75,540  263.75,480  C  263.75,354.25  290,259.937  290,228.5 " />
<path transform="translate( 0, 0 )" style="stroke: hsl(188.3, 55%, 50%);" id="1455"  d=" M  290,228.5  C  273.75,228.5  260.363,222.433  245.715,207.785  C  231.067,193.137  220,143.167  220,114.25  C  220,85.333  233.338,37.361  235,27.5  L  71.847,0  C  71.847,0  71.847,109.662  0,109.662  L  -35,109.662  C  -47.35,108.774  -41.466,109.662  -52.5,107.219  C  -63.534,109.662  -57.65,108.774  -70,109.662  L  -87.5,109.662  L  -87.5,750  L  262.5,750  C  262.5,750  295,750  295,750  C  295,750  295,670  295,670  C  295,649  294.838,620.435  290,600  C  286.449,585  263.75,540  263.75,480  C  263.75,354.25  290,259.937  290,228.5 " />
<path transform="translate( 0, 0 )" style="stroke: hsl(215.2, 55%, 50%);" id="1664"  d=" M  290,228.5  C  273.75,228.5  260.363,222.433  245.715,207.785  C  231.067,193.137  220,143.167  220,114.25  C  220,85.333  233.338,37.361  235,27.5  L  71.847,0  C  71.847,0  71.847,109.662  0,109.662  L  -35,109.662  C  -47.35,108.774  -41.466,109.662  -52.5,107.219  C  -63.534,109.662  -57.65,108.774  -70,109.662  L  -87.5,109.662  L  -87.5,750  L  262.5,750  C  262.5,750  295,750  295,750  C  295,750  295,670  295,670  C  295,649  294.838,620.435  290,600  C  286.449,585  263.75,540  263.75,480  C  263.75,354.25  290,259.937  290,228.5 " />
<path transform="translate( 0, 0 )" style="stroke: hsl(242.1, 55%, 50%);" id="1873"  d=" M  290,228.5  C  273.75,228.5  260.363,222.433  245.715,207.785  C  231.067,193.137  220,143.167  220,114.25  C  220,85.333  233.338,37.361  235,27.5  L  71.847,0  C  71.847,0  71.847,109.662  0,109.662  L  -35,109.662  C  -47.35,108.774  -41.466,109.662  -52.5,107.219  C  -63.534,109.662  -57.65,108.774  -70,109.662  L  -87.5,109.662  L  -87.5,750  L  262.5,750  C  262.5,750  295,750  295,750  C  295,750  295,670  295,670  C  295,649  294.838,620.435  290,600  C  286.449,585  263.75,540  263.75,480  C  263.75,354.25  290,259.937  290,228.5 " />
<path transform="translate( 0, 0 )" style="stroke: hsl(269, 55%, 50%);" id="2082"  d=" M  290,228.5  C  273.75,228.5  260.363,222.433  245.715,207.785  C  231.067,193.137  220,143.167  220,114.25  C  220,85.333  233.338,37.361  235,27.5  L  71.847,0  C  71.847,0  71.847,109.662  0,109.662  L  -35,109.662  C  -47.35,108.774  -41.466,109.662  -52.5,107.219  C  -63.534,109.662  -57.65,108.774  -70,109.662  L  -87.5,109.662  L  -87.5,750  L  262.5,750  C  262.5,750  295,750  295,750  C  295,750  295,670  295,670  C  295,649  294.838,620.435  290,600  C  286.449,585  263.75,540  263.75,480  C  263.75,354.25  290,259.937  290,228.5 " />
<path transform="translate( 0, 0 )" style="stroke: hsl(295.9, 55%, 50%);" id="2291"  d=" M  290,228.5  C  273.75,228.5  260.363,222.433  245.715,207.785  C  231.067,193.137  220,143.167  220,114.25  C  220,85.333  233.338,37.361  235,27.5  L  71.847,0  C  71.847,0  71.847,109.662  0,109.662  L  -35,109.662  C  -47.35,108.774  -41.466,109.662  -52.5,107.219  C  -63.534,109.662  -57.65,108.774  -70,109.662  L  -87.5,109.662  L  -87.5,750  L  262.5,750  C  262.5,750  295,750  295,750  C  295,750  295,670  295,670  C  295,649  294.838,620.435  290,600  C  286.449,585  263.75,540  263.75,480  C  263.75,354.25  290,259.937  290,228.5 " />
    </g>
    <!-- End of group #frontLeft -->
    
    <!-- Start of group #buttonPlacket -->
    <g id="buttonPlacket"  transform=" translate(0 0)  translate(1676.108 0) " >
    </g>
    <!-- End of group #buttonPlacket -->
    
    <!-- Start of group #buttonholePlacket -->
    <g id="buttonholePlacket"  transform=" translate(0 0)  translate(1676.108 0) " >
    </g>
    <!-- End of group #buttonholePlacket -->
    
    <!-- Start of group #yoke -->
    <g id="yoke"  transform=" translate(240 5)  translate(1076.108 645.75) " >
        <path class="hidden" id="4"  d=" M  -235,0  L  235,0  L  235,114.25  L  -235,114.25  z " />
<path transform="translate( 0, 0 )" style="stroke: hsl(26.9, 55%, 50%);" id="202"  d=" M  225,114.25  C  225,85.333  233.338,37.361  235,27.5  L  71.847,0  C  71.847,0  0,  0,  C  0,  -71.847,0  -71.847,0  L  -235,27.5  C  -233.338,37.361  -225,85.333  -225,114.25  z " />
<path transform="translate( 0, 0 )" style="stroke: hsl(53.8, 55%, 50%);" id="411"  d=" M  225,114.25  C  225,85.333  233.338,37.361  235,27.5  L  71.847,0  C  71.847,0  0,  0,  C  0,  -71.847,0  -71.847,0  L  -235,27.5  C  -233.338,37.361  -225,85.333  -225,114.25  z " />
<path transform="translate( 0, 0 )" style="stroke: hsl(80.7, 55%, 50%);" id="620"  d=" M  225,114.25  C  225,85.333  233.338,37.361  235,27.5  L  71.847,0  C  71.847,0  0,  0,  C  0,  -71.847,0  -71.847,0  L  -235,27.5  C  -233.338,37.361  -225,85.333  -225,114.25  z " />
<path transform="translate( 0, 0 )" style="stroke: hsl(107.6, 55%, 50%);" id="829"  d=" M  225,114.25  C  225,85.333  233.338,37.361  235,27.5  L  71.847,0  C  71.847,0  0,  0,  C  0,  -71.847,0  -71.847,0  L  -235,27.5  C  -233.338,37.361  -225,85.333  -225,114.25  z " />
<path transform="translate( 0, 0 )" style="stroke: hsl(134.5, 55%, 50%);" id="1038"  d=" M  225,114.25  C  225,85.333  233.338,37.361  235,27.5  L  71.847,0  C  71.847,0  0,  0,  C  0,  -71.847,0  -71.847,0  L  -235,27.5  C  -233.338,37.361  -225,85.333  -225,114.25  z " />
<path transform="translate( 0, 0 )" style="stroke: hsl(161.4, 55%, 50%);" id="1247"  d=" M  225,114.25  C  225,85.333  233.338,37.361  235,27.5  L  71.847,0  C  71.847,0  0,  0,  C  0,  -71.847,0  -71.847,0  L  -235,27.5  C  -233.338,37.361  -225,85.333  -225,114.25  z " />
<path transform="translate( 0, 0 )" style="stroke: hsl(188.3, 55%, 50%);" id="1456"  d=" M  225,114.25  C  225,85.333  233.338,37.361  235,27.5  L  71.847,0  C  71.847,0  0,  0,  C  0,  -71.847,0  -71.847,0  L  -235,27.5  C  -233.338,37.361  -225,85.333  -225,114.25  z " />
<path transform="translate( 0, 0 )" style="stroke: hsl(215.2, 55%, 50%);" id="1665"  d=" M  225,114.25  C  225,85.333  233.338,37.361  235,27.5  L  71.847,0  C  71.847,0  0,  0,  C  0,  -71.847,0  -71.847,0  L  -235,27.5  C  -233.338,37.361  -225,85.333  -225,114.25  z " />
<path transform="translate( 0, 0 )" style="stroke: hsl(242.1, 55%, 50%);" id="1874"  d=" M  225,114.25  C  225,85.333  233.338,37.361  235,27.5  L  71.847,0  C  71.847,0  0,  0,  C  0,  -71.847,0  -71.847,0  L  -235,27.5  C  -233.338,37.361  -225,85.333  -225,114.25  z " />
<path transform="translate( 0, 0 )" style="stroke: hsl(269, 55%, 50%);" id="2083"  d=" M  225,114.25  C  225,85.333  233.338,37.361  235,27.5  L  71.847,0  C  71.847,0  0,  0,  C  0,  -71.847,0  -71.847,0  L  -235,27.5  C  -233.338,37.361  -225,85.333  -225,114.25  z " />
<path transform="translate( 0, 0 )" style="stroke: hsl(295.9, 55%, 50%);" id="2292"  d=" M  225,114.25  C  225,85.333  233.338,37.361  235,27.5  L  71.847,0  C  71.847,0  0,  0,  C  0,  -71.847,0  -71.847,0  L  -235,27.5  C  -233.338,37.361  -225,85.333  -225,114.25  z " />
    </g>
    <!-- End of group #yoke -->
    
    <!-- Start of group #back -->
    <g id="back"  transform=" translate(300 -109.25)  translate(1076.108 0) " >
        <path class="hidden" id="5"  d=" M  -295,114.25  L  295,114.25  L  295,750  L  -295,750  z " />
<path transform="translate( 0, 0 )" style="stroke: hsl(26.9, 55%, 50%);" id="203"  d=" M  295,750  L  295,670  C  295,649  294.838,620.435  290,600  C  286.449,585  263.75,540  263.75,480  C  263.75,354.25  290,278.8  290,228.5  C  273.75,228.5  260.363,222.433  245.715,207.785  C  231.067,193.137  225,143.167  225.057,119.25  C  225.057,119.25  180,114.25  135.438,114.25  L  -135.438,114.25  C  -180,114.25  -225.057,119.25  -225.057,119.25  C  -225,143.167  -231.067,193.137  -245.715,207.785  C  -260.363,222.433  -273.75,228.5  -290,228.5  C  -290,278.8  -263.75,354.25  -263.75,480  C  -263.75,540  -286.449,585  -290,600  C  -294.838,620.435  -295,649  -295,670  L  -295,750  C  -295,750  -265.5,750  -265.5,750  L  0,750  L  265.5,750  C  265.5,750  295,750  295,750  C  295,750  295,670  295,670  z " />
<path transform="translate( 0, 0 )" style="stroke: hsl(53.8, 55%, 50%);" id="412"  d=" M  295,750  L  295,670  C  295,649  294.838,620.435  290,600  C  286.449,585  263.75,540  263.75,480  C  263.75,354.25  290,278.8  290,228.5  C  273.75,228.5  260.363,222.433  245.715,207.785  C  231.067,193.137  225,143.167  225.057,119.25  C  225.057,119.25  180,114.25  135.438,114.25  L  -135.438,114.25  C  -180,114.25  -225.057,119.25  -225.057,119.25  C  -225,143.167  -231.067,193.137  -245.715,207.785  C  -260.363,222.433  -273.75,228.5  -290,228.5  C  -290,278.8  -263.75,354.25  -263.75,480  C  -263.75,540  -286.449,585  -290,600  C  -294.838,620.435  -295,649  -295,670  L  -295,750  C  -295,750  -265.5,750  -265.5,750  L  0,750  L  265.5,750  C  265.5,750  295,750  295,750  C  295,750  295,670  295,670  z " />
<path transform="translate( 0, 0 )" style="stroke: hsl(80.7, 55%, 50%);" id="621"  d=" M  295,750  L  295,670  C  295,649  294.838,620.435  290,600  C  286.449,585  263.75,540  263.75,480  C  263.75,354.25  290,278.8  290,228.5  C  273.75,228.5  260.363,222.433  245.715,207.785  C  231.067,193.137  225,143.167  225.057,119.25  C  225.057,119.25  180,114.25  135.438,114.25  L  -135.438,114.25  C  -180,114.25  -225.057,119.25  -225.057,119.25  C  -225,143.167  -231.067,193.137  -245.715,207.785  C  -260.363,222.433  -273.75,228.5  -290,228.5  C  -290,278.8  -263.75,354.25  -263.75,480  C  -263.75,540  -286.449,585  -290,600  C  -294.838,620.435  -295,649  -295,670  L  -295,750  C  -295,750  -265.5,750  -265.5,750  L  0,750  L  265.5,750  C  265.5,750  295,750  295,750  C  295,750  295,670  295,670  z " />
<path transform="translate( 0, 0 )" style="stroke: hsl(107.6, 55%, 50%);" id="830"  d=" M  295,750  L  295,670  C  295,649  294.838,620.435  290,600  C  286.449,585  263.75,540  263.75,480  C  263.75,354.25  290,278.8  290,228.5  C  273.75,228.5  260.363,222.433  245.715,207.785  C  231.067,193.137  225,143.167  225.057,119.25  C  225.057,119.25  180,114.25  135.438,114.25  L  -135.438,114.25  C  -180,114.25  -225.057,119.25  -225.057,119.25  C  -225,143.167  -231.067,193.137  -245.715,207.785  C  -260.363,222.433  -273.75,228.5  -290,228.5  C  -290,278.8  -263.75,354.25  -263.75,480  C  -263.75,540  -286.449,585  -290,600  C  -294.838,620.435  -295,649  -295,670  L  -295,750  C  -295,750  -265.5,750  -265.5,750  L  0,750  L  265.5,750  C  265.5,750  295,750  295,750  C  295,750  295,670  295,670  z " />
<path transform="translate( 0, 0 )" style="stroke: hsl(134.5, 55%, 50%);" id="1039"  d=" M  295,750  L  295,670  C  295,649  294.838,620.435  290,600  C  286.449,585  263.75,540  263.75,480  C  263.75,354.25  290,278.8  290,228.5  C  273.75,228.5  260.363,222.433  245.715,207.785  C  231.067,193.137  225,143.167  225.057,119.25  C  225.057,119.25  180,114.25  135.438,114.25  L  -135.438,114.25  C  -180,114.25  -225.057,119.25  -225.057,119.25  C  -225,143.167  -231.067,193.137  -245.715,207.785  C  -260.363,222.433  -273.75,228.5  -290,228.5  C  -290,278.8  -263.75,354.25  -263.75,480  C  -263.75,540  -286.449,585  -290,600  C  -294.838,620.435  -295,649  -295,670  L  -295,750  C  -295,750  -265.5,750  -265.5,750  L  0,750  L  265.5,750  C  265.5,750  295,750  295,750  C  295,750  295,670  295,670  z " />
<path transform="translate( 0, 0 )" style="stroke: hsl(161.4, 55%, 50%);" id="1248"  d=" M  295,750  L  295,670  C  295,649  294.838,620.435  290,600  C  286.449,585  263.75,540  263.75,480  C  263.75,354.25  290,278.8  290,228.5  C  273.75,228.5  260.363,222.433  245.715,207.785  C  231.067,193.137  225,143.167  225.057,119.25  C  225.057,119.25  180,114.25  135.438,114.25  L  -135.438,114.25  C  -180,114.25  -225.057,119.25  -225.057,119.25  C  -225,143.167  -231.067,193.137  -245.715,207.785  C  -260.363,222.433  -273.75,228.5  -290,228.5  C  -290,278.8  -263.75,354.25  -263.75,480  C  -263.75,540  -286.449,585  -290,600  C  -294.838,620.435  -295,649  -295,670  L  -295,750  C  -295,750  -265.5,750  -265.5,750  L  0,750  L  265.5,750  C  265.5,750  295,750  295,750  C  295,750  295,670  295,670  z " />
<path transform="translate( 0, 0 )" style="stroke: hsl(188.3, 55%, 50%);" id="1457"  d=" M  295,750  L  295,670  C  295,649  294.838,620.435  290,600  C  286.449,585  263.75,540  263.75,480  C  263.75,354.25  290,278.8  290,228.5  C  273.75,228.5  260.363,222.433  245.715,207.785  C  231.067,193.137  225,143.167  225.057,119.25  C  225.057,119.25  180,114.25  135.438,114.25  L  -135.438,114.25  C  -180,114.25  -225.057,119.25  -225.057,119.25  C  -225,143.167  -231.067,193.137  -245.715,207.785  C  -260.363,222.433  -273.75,228.5  -290,228.5  C  -290,278.8  -263.75,354.25  -263.75,480  C  -263.75,540  -286.449,585  -290,600  C  -294.838,620.435  -295,649  -295,670  L  -295,750  C  -295,750  -265.5,750  -265.5,750  L  0,750  L  265.5,750  C  265.5,750  295,750  295,750  C  295,750  295,670  295,670  z " />
<path transform="translate( 0, 0 )" style="stroke: hsl(215.2, 55%, 50%);" id="1666"  d=" M  295,750  L  295,670  C  295,649  294.838,620.435  290,600  C  286.449,585  263.75,540  263.75,480  C  263.75,354.25  290,278.8  290,228.5  C  273.75,228.5  260.363,222.433  245.715,207.785  C  231.067,193.137  225,143.167  225.057,119.25  C  225.057,119.25  180,114.25  135.438,114.25  L  -135.438,114.25  C  -180,114.25  -225.057,119.25  -225.057,119.25  C  -225,143.167  -231.067,193.137  -245.715,207.785  C  -260.363,222.433  -273.75,228.5  -290,228.5  C  -290,278.8  -263.75,354.25  -263.75,480  C  -263.75,540  -286.449,585  -290,600  C  -294.838,620.435  -295,649  -295,670  L  -295,750  C  -295,750  -265.5,750  -265.5,750  L  0,750  L  265.5,750  C  265.5,750  295,750  295,750  C  295,750  295,670  295,670  z " />
<path transform="translate( 0, 0 )" style="stroke: hsl(242.1, 55%, 50%);" id="1875"  d=" M  295,750  L  295,670  C  295,649  294.838,620.435  290,600  C  286.449,585  263.75,540  263.75,480  C  263.75,354.25  290,278.8  290,228.5  C  273.75,228.5  260.363,222.433  245.715,207.785  C  231.067,193.137  225,143.167  225.057,119.25  C  225.057,119.25  180,114.25  135.438,114.25  L  -135.438,114.25  C  -180,114.25  -225.057,119.25  -225.057,119.25  C  -225,143.167  -231.067,193.137  -245.715,207.785  C  -260.363,222.433  -273.75,228.5  -290,228.5  C  -290,278.8  -263.75,354.25  -263.75,480  C  -263.75,540  -286.449,585  -290,600  C  -294.838,620.435  -295,649  -295,670  L  -295,750  C  -295,750  -265.5,750  -265.5,750  L  0,750  L  265.5,750  C  265.5,750  295,750  295,750  C  295,750  295,670  295,670  z " />
<path transform="translate( 0, 0 )" style="stroke: hsl(269, 55%, 50%);" id="2084"  d=" M  295,750  L  295,670  C  295,649  294.838,620.435  290,600  C  286.449,585  263.75,540  263.75,480  C  263.75,354.25  290,278.8  290,228.5  C  273.75,228.5  260.363,222.433  245.715,207.785  C  231.067,193.137  225,143.167  225.057,119.25  C  225.057,119.25  180,114.25  135.438,114.25  L  -135.438,114.25  C  -180,114.25  -225.057,119.25  -225.057,119.25  C  -225,143.167  -231.067,193.137  -245.715,207.785  C  -260.363,222.433  -273.75,228.5  -290,228.5  C  -290,278.8  -263.75,354.25  -263.75,480  C  -263.75,540  -286.449,585  -290,600  C  -294.838,620.435  -295,649  -295,670  L  -295,750  C  -295,750  -265.5,750  -265.5,750  L  0,750  L  265.5,750  C  265.5,750  295,750  295,750  C  295,750  295,670  295,670  z " />
<path transform="translate( 0, 0 )" style="stroke: hsl(295.9, 55%, 50%);" id="2293"  d=" M  295,750  L  295,670  C  295,649  294.838,620.435  290,600  C  286.449,585  263.75,540  263.75,480  C  263.75,354.25  290,278.8  290,228.5  C  273.75,228.5  260.363,222.433  245.715,207.785  C  231.067,193.137  225,143.167  225.057,119.25  C  225.057,119.25  180,114.25  135.438,114.25  L  -135.438,114.25  C  -180,114.25  -225.057,119.25  -225.057,119.25  C  -225,143.167  -231.067,193.137  -245.715,207.785  C  -260.363,222.433  -273.75,228.5  -290,228.5  C  -290,278.8  -263.75,354.25  -263.75,480  C  -263.75,540  -286.449,585  -290,600  C  -294.838,620.435  -295,649  -295,670  L  -295,750  C  -295,750  -265.5,750  -265.5,750  L  0,750  L  265.5,750  C  265.5,750  295,750  295,750  C  295,750  295,670  295,670  z " />
    </g>
    <!-- End of group #back -->
    
    <!-- Start of group #sleeve -->
    <g id="sleeve"  transform=" translate(174.304 11.92)  translate(0 0) " >
        <path class="hidden" id="6"  d=" M  -169.304,-6.92  L  169.304,-6.92  L  169.304,763  L  -169.304,763  z " />
<path transform="translate( 0, 0 )" style="stroke: hsl(26.9, 55%, 50%);" id="204"  d=" M  -161.765,148.469  C  -161.765,148.469  -131.779,121.294  -117.534,104.742  C  -103.289,88.19  -80.883,54.49  -80.883,54.49  C  -80.883,54.49  -66.934,27.006  -48.823,14.805  C  -30.712,2.604  -21.838,-0  5,0  C  21.838,0  40.432,3.129  57.409,16.865  C  74.386,30.601  85.883,69.49  85.883,69.49  C  85.883,69.49  97.877,103.625  113.007,119.372  C  128.137,135.119  161.765,148.469  161.765,148.469  L  142.5,760  C  142.5,760  111.875,763  81.25,763  C  65.827,762.471  50.625,761.845  50.625,761.845  L  30.625,761.845  C  10.302,761.009  0,760  0,760  L  -20,760  C  -20,760  -50.625,757  -81.25,757  C  -111.875,757  -142.5,760  -142.5,760  z " />
<path transform="translate( 0, -0.69200000000001 )" style="stroke: hsl(53.8, 55%, 50%);" id="413"  d=" M  -162.519,149.161  C  -162.519,149.161  -132.41,121.833  -118.1,105.202  C  -103.79,88.571  -81.26,54.72  -81.26,54.72  C  -81.26,54.72  -67.206,27.173  -49.008,14.918  C  -30.81,2.663  -21.94,-0  5,0  C  21.94,0  40.525,3.18  57.588,16.972  C  74.651,30.764  86.26,69.72  86.26,69.72  C  86.26,69.72  98.375,104.001  113.569,119.829  C  128.763,135.657  162.519,149.161  162.519,149.161  L  142.5,760  C  142.5,760  111.875,763  81.25,763  C  65.827,762.471  50.625,761.845  50.625,761.845  L  30.625,761.845  C  10.302,761.009  0,760  0,760  L  -20,760  C  -20,760  -50.625,757  -81.25,757  C  -111.875,757  -142.5,760  -142.5,760  z " />
<path transform="translate( 0, -1.38 )" style="stroke: hsl(80.7, 55%, 50%);" id="622"  d=" M  -163.269,149.849  C  -163.269,149.849  -133.035,122.37  -118.661,105.661  C  -104.287,88.952  -81.635,54.95  -81.635,54.95  C  -81.635,54.95  -67.479,27.339  -49.194,15.031  C  -30.909,2.723  -22.041,-0  5,0  C  22.041,0  40.618,3.234  57.767,17.08  C  74.916,30.926  86.635,69.95  86.635,69.95  C  86.635,69.95  98.87,104.376  114.127,120.283  C  129.384,136.19  163.269,149.849  163.269,149.849  L  142.5,760  C  142.5,760  111.875,763  81.25,763  C  65.827,762.471  50.625,761.845  50.625,761.845  L  30.625,761.845  C  10.302,761.009  0,760  0,760  L  -20,760  C  -20,760  -50.625,757  -81.25,757  C  -111.875,757  -142.5,760  -142.5,760  z " />
<path transform="translate( 0, -1.5 )" style="stroke: hsl(107.6, 55%, 50%);" id="831"  d=" M  -163.399,149.969  C  -163.399,149.969  -133.144,122.464  -118.759,105.741  C  -104.374,89.018  -81.7,54.99  -81.7,54.99  C  -81.7,54.99  -67.526,27.368  -49.226,15.051  C  -30.926,2.734  -22.059,-0  5,0  C  22.059,0  40.633,3.243  57.797,17.099  C  74.961,30.955  86.7,69.99  86.7,69.99  C  86.7,69.99  98.956,104.441  114.224,120.362  C  129.492,136.283  163.399,149.969  163.399,149.969  L  142.5,760  C  142.5,760  111.875,763  81.25,763  C  65.827,762.471  50.625,761.845  50.625,761.845  L  30.625,761.845  C  10.302,761.009  0,760  0,760  L  -20,760  C  -20,760  -50.625,757  -81.25,757  C  -111.875,757  -142.5,760  -142.5,760  z " />
<path transform="translate( 0, -2.758 )" style="stroke: hsl(134.5, 55%, 50%);" id="1040"  d=" M  -164.769,151.227  C  -164.769,151.227  -134.288,123.445  -119.786,106.578  C  -105.284,89.711  -82.385,55.409  -82.385,55.409  C  -82.385,55.409  -68.022,27.672  -49.564,15.258  C  -31.106,2.844  -22.244,-0  5,0  C  22.244,0  40.803,3.339  58.124,17.295  C  75.445,31.251  87.385,70.409  87.385,70.409  C  87.385,70.409  99.859,105.125  115.243,121.192  C  130.627,137.259  164.769,151.227  164.769,151.227  L  142.5,760  C  142.5,760  111.875,763  81.25,763  C  65.827,762.471  50.625,761.845  50.625,761.845  L  30.625,761.845  C  10.302,761.009  0,760  0,760  L  -20,760  C  -20,760  -50.625,757  -81.25,757  C  -111.875,757  -142.5,760  -142.5,760  z " />
<path transform="translate( 0, -3.015 )" style="stroke: hsl(161.4, 55%, 50%);" id="1249"  d=" M  -165.05,151.484  C  -165.05,151.484  -134.523,123.646  -119.997,106.75  C  -105.471,89.854  -82.525,55.495  -82.525,55.495  C  -82.525,55.495  -68.123,27.735  -49.633,15.301  C  -31.143,2.867  -22.282,-0  5,0  C  22.282,0  40.837,3.359  58.19,17.336  C  75.543,31.313  87.525,70.495  87.525,70.495  C  87.525,70.495  100.044,105.266  115.452,121.362  C  130.86,137.458  165.05,151.484  165.05,151.484  L  142.5,760  C  142.5,760  111.875,763  81.25,763  C  65.827,762.471  50.625,761.845  50.625,761.845  L  30.625,761.845  C  10.302,761.009  0,760  0,760  L  -20,760  C  -20,760  -50.625,757  -81.25,757  C  -111.875,757  -142.5,760  -142.5,760  z " />
<path transform="translate( 0, -4.148 )" style="stroke: hsl(188.3, 55%, 50%);" id="1458"  d=" M  -166.284,152.617  C  -166.284,152.617  -135.552,124.529  -120.921,107.504  C  -106.29,90.479  -83.142,55.872  -83.142,55.872  C  -83.142,55.872  -68.569,28.007  -49.937,15.486  C  -31.305,2.965  -22.448,-0  5,0  C  22.448,0  40.989,3.446  58.483,17.512  C  75.977,31.578  88.142,70.872  88.142,70.872  C  88.142,70.872  100.859,105.883  116.37,122.11  C  131.881,138.337  166.284,152.617  166.284,152.617  L  142.5,760  C  142.5,760  111.875,763  81.25,763  C  65.827,762.471  50.625,761.845  50.625,761.845  L  30.625,761.845  C  10.302,761.009  0,760  0,760  L  -20,760  C  -20,760  -50.625,757  -81.25,757  C  -111.875,757  -142.5,760  -142.5,760  z " />
<path transform="translate( 0, -4.545 )" style="stroke: hsl(215.2, 55%, 50%);" id="1667"  d=" M  -166.717,153.014  C  -166.717,153.014  -135.914,124.84  -121.246,107.769  C  -106.578,90.698  -83.359,56.005  -83.359,56.005  C  -83.359,56.005  -68.727,28.104  -50.045,15.552  C  -31.363,3  -22.507,-0  5,0  C  22.507,0  41.043,3.477  58.587,17.575  C  76.131,31.673  88.359,71.005  88.359,71.005  C  88.359,71.005  101.145,106.099  116.693,122.372  C  132.241,138.645  166.717,153.014  166.717,153.014  L  142.5,760  C  142.5,760  111.875,763  81.25,763  C  65.827,762.471  50.625,761.845  50.625,761.845  L  30.625,761.845  C  10.302,761.009  0,760  0,760  L  -20,760  C  -20,760  -50.625,757  -81.25,757  C  -111.875,757  -142.5,760  -142.5,760  z " />
<path transform="translate( 0, -5.535 )" style="stroke: hsl(242.1, 55%, 50%);" id="1876"  d=" M  -167.796,154.004  C  -167.796,154.004  -136.814,125.611  -122.054,108.428  C  -107.294,91.245  -83.898,56.335  -83.898,56.335  C  -83.898,56.335  -69.117,28.343  -50.311,15.715  C  -31.505,3.087  -22.652,-0  5,0  C  22.652,0  41.177,3.552  58.844,17.729  C  76.511,31.906  88.898,71.335  88.898,71.335  C  88.898,71.335  101.857,106.639  117.496,123.026  C  133.135,139.413  167.796,154.004  167.796,154.004  L  142.5,760  C  142.5,760  111.875,763  81.25,763  C  65.827,762.471  50.625,761.845  50.625,761.845  L  30.625,761.845  C  10.302,761.009  0,760  0,760  L  -20,760  C  -20,760  -50.625,757  -81.25,757  C  -111.875,757  -142.5,760  -142.5,760  z " />
<path transform="translate( 0, -6.091 )" style="stroke: hsl(269, 55%, 50%);" id="2085"  d=" M  -168.401,154.56  C  -168.401,154.56  -137.32,126.045  -122.508,108.798  C  -107.696,91.551  -84.201,56.52  -84.201,56.52  C  -84.201,56.52  -69.337,28.476  -50.461,15.806  C  -31.585,3.136  -22.734,-0  5,0  C  22.734,0  41.252,3.595  58.989,17.816  C  76.726,32.037  89.201,71.52  89.201,71.52  C  89.201,71.52  102.256,106.942  117.946,123.393  C  133.636,139.844  168.401,154.56  168.401,154.56  L  142.5,760  C  142.5,760  111.875,763  81.25,763  C  65.827,762.471  50.625,761.845  50.625,761.845  L  30.625,761.845  C  10.302,761.009  0,760  0,760  L  -20,760  C  -20,760  -50.625,757  -81.25,757  C  -111.875,757  -142.5,760  -142.5,760  z " />
<path transform="translate( 0, -6.92 )" style="stroke: hsl(295.9, 55%, 50%);" id="2294"  d=" M  -169.304,155.389  C  -169.304,155.389  -138.073,126.691  -123.184,109.35  C  -108.295,92.009  -84.652,56.796  -84.652,56.796  C  -84.652,56.796  -69.663,28.676  -50.683,15.942  C  -31.703,3.208  -22.856,-0  5,0  C  22.856,0  41.363,3.658  59.203,17.945  C  77.043,32.232  89.652,71.796  89.652,71.796  C  89.652,71.796  102.852,107.394  118.619,123.941  C  134.386,140.488  169.304,155.389  169.304,155.389  L  142.5,760  C  142.5,760  111.875,763  81.25,763  C  65.827,762.471  50.625,761.845  50.625,761.845  L  30.625,761.845  C  10.302,761.009  0,760  0,760  L  -20,760  C  -20,760  -50.625,757  -81.25,757  C  -111.875,757  -142.5,760  -142.5,760  z " />
    </g>
    <!-- End of group #sleeve -->
    
    <!-- Start of group #collarStand -->
    <g id="collarStand"  transform=" translate(232.46 10)  translate(0 779.92) " >
        <path class="hidden" id="7"  d=" M  -227.46,-5  L  234.932,-5  L  234.932,35  L  -227.46,35  z " />
<path transform="translate( 0, 0 )" style="stroke: hsl(26.9, 55%, 50%);" id="205"  d=" M  0,30  C  86.389,30  129.584,35  161.98,35  C  205.174,35  207.536,33.305  217.498,32.433  L  234.932,30.908  C  233.407,13.475  231.881,-3.959  214.448,-2.433  C  204.486,-1.561  205.174,0  161.98,0  C  129.584,0  86.389,-5  0,-5  C  -86.389,-5  -129.584,0  -161.98,0  C  -205.174,0  -204.486,-1.561  -214.448,-2.433  C  -224.41,-3.305  -225.935,14.129  -227.46,31.562  L  -217.498,32.433  C  -207.536,33.305  -205.174,35  -161.98,35  C  -129.584,35  -86.389,30  0,30  z " />
<path transform="translate( 0, 0 )" style="stroke: hsl(53.8, 55%, 50%);" id="414"  d=" M  0,30  C  86.389,30  129.584,35  161.98,35  C  205.174,35  207.536,33.305  217.498,32.433  L  234.932,30.908  C  233.407,13.475  231.881,-3.959  214.448,-2.433  C  204.486,-1.561  205.174,0  161.98,0  C  129.584,0  86.389,-5  0,-5  C  -86.389,-5  -129.584,0  -161.98,0  C  -205.174,0  -204.486,-1.561  -214.448,-2.433  C  -224.41,-3.305  -225.935,14.129  -227.46,31.562  L  -217.498,32.433  C  -207.536,33.305  -205.174,35  -161.98,35  C  -129.584,35  -86.389,30  0,30  z " />
<path transform="translate( 0, 0 )" style="stroke: hsl(80.7, 55%, 50%);" id="623"  d=" M  0,30  C  86.389,30  129.584,35  161.98,35  C  205.174,35  207.536,33.305  217.498,32.433  L  234.932,30.908  C  233.407,13.475  231.881,-3.959  214.448,-2.433  C  204.486,-1.561  205.174,0  161.98,0  C  129.584,0  86.389,-5  0,-5  C  -86.389,-5  -129.584,0  -161.98,0  C  -205.174,0  -204.486,-1.561  -214.448,-2.433  C  -224.41,-3.305  -225.935,14.129  -227.46,31.562  L  -217.498,32.433  C  -207.536,33.305  -205.174,35  -161.98,35  C  -129.584,35  -86.389,30  0,30  z " />
<path transform="translate( 0, 0 )" style="stroke: hsl(107.6, 55%, 50%);" id="832"  d=" M  0,30  C  86.389,30  129.584,35  161.98,35  C  205.174,35  207.536,33.305  217.498,32.433  L  234.932,30.908  C  233.407,13.475  231.881,-3.959  214.448,-2.433  C  204.486,-1.561  205.174,0  161.98,0  C  129.584,0  86.389,-5  0,-5  C  -86.389,-5  -129.584,0  -161.98,0  C  -205.174,0  -204.486,-1.561  -214.448,-2.433  C  -224.41,-3.305  -225.935,14.129  -227.46,31.562  L  -217.498,32.433  C  -207.536,33.305  -205.174,35  -161.98,35  C  -129.584,35  -86.389,30  0,30  z " />
<path transform="translate( 0, 0 )" style="stroke: hsl(134.5, 55%, 50%);" id="1041"  d=" M  0,30  C  86.389,30  129.584,35  161.98,35  C  205.174,35  207.536,33.305  217.498,32.433  L  234.932,30.908  C  233.407,13.475  231.881,-3.959  214.448,-2.433  C  204.486,-1.561  205.174,0  161.98,0  C  129.584,0  86.389,-5  0,-5  C  -86.389,-5  -129.584,0  -161.98,0  C  -205.174,0  -204.486,-1.561  -214.448,-2.433  C  -224.41,-3.305  -225.935,14.129  -227.46,31.562  L  -217.498,32.433  C  -207.536,33.305  -205.174,35  -161.98,35  C  -129.584,35  -86.389,30  0,30  z " />
<path transform="translate( 0, 0 )" style="stroke: hsl(161.4, 55%, 50%);" id="1250"  d=" M  0,30  C  86.389,30  129.584,35  161.98,35  C  205.174,35  207.536,33.305  217.498,32.433  L  234.932,30.908  C  233.407,13.475  231.881,-3.959  214.448,-2.433  C  204.486,-1.561  205.174,0  161.98,0  C  129.584,0  86.389,-5  0,-5  C  -86.389,-5  -129.584,0  -161.98,0  C  -205.174,0  -204.486,-1.561  -214.448,-2.433  C  -224.41,-3.305  -225.935,14.129  -227.46,31.562  L  -217.498,32.433  C  -207.536,33.305  -205.174,35  -161.98,35  C  -129.584,35  -86.389,30  0,30  z " />
<path transform="translate( 0, 0 )" style="stroke: hsl(188.3, 55%, 50%);" id="1459"  d=" M  0,30  C  86.389,30  129.584,35  161.98,35  C  205.174,35  207.536,33.305  217.498,32.433  L  234.932,30.908  C  233.407,13.475  231.881,-3.959  214.448,-2.433  C  204.486,-1.561  205.174,0  161.98,0  C  129.584,0  86.389,-5  0,-5  C  -86.389,-5  -129.584,0  -161.98,0  C  -205.174,0  -204.486,-1.561  -214.448,-2.433  C  -224.41,-3.305  -225.935,14.129  -227.46,31.562  L  -217.498,32.433  C  -207.536,33.305  -205.174,35  -161.98,35  C  -129.584,35  -86.389,30  0,30  z " />
<path transform="translate( 0, 0 )" style="stroke: hsl(215.2, 55%, 50%);" id="1668"  d=" M  0,30  C  86.389,30  129.584,35  161.98,35  C  205.174,35  207.536,33.305  217.498,32.433  L  234.932,30.908  C  233.407,13.475  231.881,-3.959  214.448,-2.433  C  204.486,-1.561  205.174,0  161.98,0  C  129.584,0  86.389,-5  0,-5  C  -86.389,-5  -129.584,0  -161.98,0  C  -205.174,0  -204.486,-1.561  -214.448,-2.433  C  -224.41,-3.305  -225.935,14.129  -227.46,31.562  L  -217.498,32.433  C  -207.536,33.305  -205.174,35  -161.98,35  C  -129.584,35  -86.389,30  0,30  z " />
<path transform="translate( 0, 0 )" style="stroke: hsl(242.1, 55%, 50%);" id="1877"  d=" M  0,30  C  86.389,30  129.584,35  161.98,35  C  205.174,35  207.536,33.305  217.498,32.433  L  234.932,30.908  C  233.407,13.475  231.881,-3.959  214.448,-2.433  C  204.486,-1.561  205.174,0  161.98,0  C  129.584,0  86.389,-5  0,-5  C  -86.389,-5  -129.584,0  -161.98,0  C  -205.174,0  -204.486,-1.561  -214.448,-2.433  C  -224.41,-3.305  -225.935,14.129  -227.46,31.562  L  -217.498,32.433  C  -207.536,33.305  -205.174,35  -161.98,35  C  -129.584,35  -86.389,30  0,30  z " />
<path transform="translate( 0, 0 )" style="stroke: hsl(269, 55%, 50%);" id="2086"  d=" M  0,30  C  86.389,30  129.584,35  161.98,35  C  205.174,35  207.536,33.305  217.498,32.433  L  234.932,30.908  C  233.407,13.475  231.881,-3.959  214.448,-2.433  C  204.486,-1.561  205.174,0  161.98,0  C  129.584,0  86.389,-5  0,-5  C  -86.389,-5  -129.584,0  -161.98,0  C  -205.174,0  -204.486,-1.561  -214.448,-2.433  C  -224.41,-3.305  -225.935,14.129  -227.46,31.562  L  -217.498,32.433  C  -207.536,33.305  -205.174,35  -161.98,35  C  -129.584,35  -86.389,30  0,30  z " />
<path transform="translate( 0, 0 )" style="stroke: hsl(295.9, 55%, 50%);" id="2295"  d=" M  0,30  C  86.389,30  129.584,35  161.98,35  C  205.174,35  207.536,33.305  217.498,32.433  L  234.932,30.908  C  233.407,13.475  231.881,-3.959  214.448,-2.433  C  204.486,-1.561  205.174,0  161.98,0  C  129.584,0  86.389,-5  0,-5  C  -86.389,-5  -129.584,0  -161.98,0  C  -205.174,0  -204.486,-1.561  -214.448,-2.433  C  -224.41,-3.305  -225.935,14.129  -227.46,31.562  L  -217.498,32.433  C  -207.536,33.305  -205.174,35  -161.98,35  C  -129.584,35  -86.389,30  0,30  z " />
    </g>
    <!-- End of group #collarStand -->
    
    <!-- Start of group #collar -->
    <g id="collar"  transform=" translate(214.741 72)  translate(0 829.92) " >
        <path class="hidden" id="8"  d=" M  -209.741,-67  L  209.741,-67  L  209.741,0  L  -209.741,0  z " />
<path transform="translate( 0, 0 )" style="stroke: hsl(26.9, 55%, 50%);" id="206"  d=" M  0,-15  C  173.104,-15  203.88,0  203.88,0  L  209.741,-67  C  209.741,-67  151.466,-57  104.871,-57  L  -104.871,-57  C  -151.466,-57  -209.741,-67  -209.741,-67  L  -203.88,0  C  -203.88,0  -173.104,-15  0,-15  z " />
<path transform="translate( 0, 0 )" style="stroke: hsl(53.8, 55%, 50%);" id="415"  d=" M  0,-15  C  173.104,-15  203.88,0  203.88,0  L  209.741,-67  C  209.741,-67  151.466,-57  104.871,-57  L  -104.871,-57  C  -151.466,-57  -209.741,-67  -209.741,-67  L  -203.88,0  C  -203.88,0  -173.104,-15  0,-15  z " />
<path transform="translate( 0, 0 )" style="stroke: hsl(80.7, 55%, 50%);" id="624"  d=" M  0,-15  C  173.104,-15  203.88,0  203.88,0  L  209.741,-67  C  209.741,-67  151.466,-57  104.871,-57  L  -104.871,-57  C  -151.466,-57  -209.741,-67  -209.741,-67  L  -203.88,0  C  -203.88,0  -173.104,-15  0,-15  z " />
<path transform="translate( 0, 0 )" style="stroke: hsl(107.6, 55%, 50%);" id="833"  d=" M  0,-15  C  173.104,-15  203.88,0  203.88,0  L  209.741,-67  C  209.741,-67  151.466,-57  104.871,-57  L  -104.871,-57  C  -151.466,-57  -209.741,-67  -209.741,-67  L  -203.88,0  C  -203.88,0  -173.104,-15  0,-15  z " />
<path transform="translate( 0, 0 )" style="stroke: hsl(134.5, 55%, 50%);" id="1042"  d=" M  0,-15  C  173.104,-15  203.88,0  203.88,0  L  209.741,-67  C  209.741,-67  151.466,-57  104.871,-57  L  -104.871,-57  C  -151.466,-57  -209.741,-67  -209.741,-67  L  -203.88,0  C  -203.88,0  -173.104,-15  0,-15  z " />
<path transform="translate( 0, 0 )" style="stroke: hsl(161.4, 55%, 50%);" id="1251"  d=" M  0,-15  C  173.104,-15  203.88,0  203.88,0  L  209.741,-67  C  209.741,-67  151.466,-57  104.871,-57  L  -104.871,-57  C  -151.466,-57  -209.741,-67  -209.741,-67  L  -203.88,0  C  -203.88,0  -173.104,-15  0,-15  z " />
<path transform="translate( 0, 0 )" style="stroke: hsl(188.3, 55%, 50%);" id="1460"  d=" M  0,-15  C  173.104,-15  203.88,0  203.88,0  L  209.741,-67  C  209.741,-67  151.466,-57  104.871,-57  L  -104.871,-57  C  -151.466,-57  -209.741,-67  -209.741,-67  L  -203.88,0  C  -203.88,0  -173.104,-15  0,-15  z " />
<path transform="translate( 0, 0 )" style="stroke: hsl(215.2, 55%, 50%);" id="1669"  d=" M  0,-15  C  173.104,-15  203.88,0  203.88,0  L  209.741,-67  C  209.741,-67  151.466,-57  104.871,-57  L  -104.871,-57  C  -151.466,-57  -209.741,-67  -209.741,-67  L  -203.88,0  C  -203.88,0  -173.104,-15  0,-15  z " />
<path transform="translate( 0, 0 )" style="stroke: hsl(242.1, 55%, 50%);" id="1878"  d=" M  0,-15  C  173.104,-15  203.88,0  203.88,0  L  209.741,-67  C  209.741,-67  151.466,-57  104.871,-57  L  -104.871,-57  C  -151.466,-57  -209.741,-67  -209.741,-67  L  -203.88,0  C  -203.88,0  -173.104,-15  0,-15  z " />
<path transform="translate( 0, 0 )" style="stroke: hsl(269, 55%, 50%);" id="2087"  d=" M  0,-15  C  173.104,-15  203.88,0  203.88,0  L  209.741,-67  C  209.741,-67  151.466,-57  104.871,-57  L  -104.871,-57  C  -151.466,-57  -209.741,-67  -209.741,-67  L  -203.88,0  C  -203.88,0  -173.104,-15  0,-15  z " />
<path transform="translate( 0, 0 )" style="stroke: hsl(295.9, 55%, 50%);" id="2296"  d=" M  0,-15  C  173.104,-15  203.88,0  203.88,0  L  209.741,-67  C  209.741,-67  151.466,-57  104.871,-57  L  -104.871,-57  C  -151.466,-57  -209.741,-67  -209.741,-67  L  -203.88,0  C  -203.88,0  -173.104,-15  0,-15  z " />
    </g>
    <!-- End of group #collar -->
    
    <!-- Start of group #undercollar -->
    <g id="undercollar"  transform=" translate(214.741 72)  translate(429.482 829.92) " >
        <path class="hidden" id="9"  d=" M  -209.741,-67  L  209.741,-67  L  209.741,0  L  -209.741,0  z " />
<path transform="translate( 0, 0 )" style="stroke: hsl(26.9, 55%, 50%);" id="207"  d=" M  203.88,0  L  209.741,-67  C  209.741,-67  151.466,-57  104.871,-57  L  -104.871,-57  C  -151.466,-57  -209.741,-67  -209.741,-67  L  -203.88,0  C  -203.88,0  -173.104,-17  0,-18  C  173.104,-17  203.88,0  203.88,0  z " />
<path transform="translate( 0, 0 )" style="stroke: hsl(53.8, 55%, 50%);" id="416"  d=" M  203.88,0  L  209.741,-67  C  209.741,-67  151.466,-57  104.871,-57  L  -104.871,-57  C  -151.466,-57  -209.741,-67  -209.741,-67  L  -203.88,0  C  -203.88,0  -173.104,-17  0,-18  C  173.104,-17  203.88,0  203.88,0  z " />
<path transform="translate( 0, 0 )" style="stroke: hsl(80.7, 55%, 50%);" id="625"  d=" M  203.88,0  L  209.741,-67  C  209.741,-67  151.466,-57  104.871,-57  L  -104.871,-57  C  -151.466,-57  -209.741,-67  -209.741,-67  L  -203.88,0  C  -203.88,0  -173.104,-17  0,-18  C  173.104,-17  203.88,0  203.88,0  z " />
<path transform="translate( 0, 0 )" style="stroke: hsl(107.6, 55%, 50%);" id="834"  d=" M  203.88,0  L  209.741,-67  C  209.741,-67  151.466,-57  104.871,-57  L  -104.871,-57  C  -151.466,-57  -209.741,-67  -209.741,-67  L  -203.88,0  C  -203.88,0  -173.104,-17  0,-18  C  173.104,-17  203.88,0  203.88,0  z " />
<path transform="translate( 0, 0 )" style="stroke: hsl(134.5, 55%, 50%);" id="1043"  d=" M  203.88,0  L  209.741,-67  C  209.741,-67  151.466,-57  104.871,-57  L  -104.871,-57  C  -151.466,-57  -209.741,-67  -209.741,-67  L  -203.88,0  C  -203.88,0  -173.104,-17  0,-18  C  173.104,-17  203.88,0  203.88,0  z " />
<path transform="translate( 0, 0 )" style="stroke: hsl(161.4, 55%, 50%);" id="1252"  d=" M  203.88,0  L  209.741,-67  C  209.741,-67  151.466,-57  104.871,-57  L  -104.871,-57  C  -151.466,-57  -209.741,-67  -209.741,-67  L  -203.88,0  C  -203.88,0  -173.104,-17  0,-18  C  173.104,-17  203.88,0  203.88,0  z " />
<path transform="translate( 0, 0 )" style="stroke: hsl(188.3, 55%, 50%);" id="1461"  d=" M  203.88,0  L  209.741,-67  C  209.741,-67  151.466,-57  104.871,-57  L  -104.871,-57  C  -151.466,-57  -209.741,-67  -209.741,-67  L  -203.88,0  C  -203.88,0  -173.104,-17  0,-18  C  173.104,-17  203.88,0  203.88,0  z " />
<path transform="translate( 0, 0 )" style="stroke: hsl(215.2, 55%, 50%);" id="1670"  d=" M  203.88,0  L  209.741,-67  C  209.741,-67  151.466,-57  104.871,-57  L  -104.871,-57  C  -151.466,-57  -209.741,-67  -209.741,-67  L  -203.88,0  C  -203.88,0  -173.104,-17  0,-18  C  173.104,-17  203.88,0  203.88,0  z " />
<path transform="translate( 0, 0 )" style="stroke: hsl(242.1, 55%, 50%);" id="1879"  d=" M  203.88,0  L  209.741,-67  C  209.741,-67  151.466,-57  104.871,-57  L  -104.871,-57  C  -151.466,-57  -209.741,-67  -209.741,-67  L  -203.88,0  C  -203.88,0  -173.104,-17  0,-18  C  173.104,-17  203.88,0  203.88,0  z " />
<path transform="translate( 0, 0 )" style="stroke: hsl(269, 55%, 50%);" id="2088"  d=" M  203.88,0  L  209.741,-67  C  209.741,-67  151.466,-57  104.871,-57  L  -104.871,-57  C  -151.466,-57  -209.741,-67  -209.741,-67  L  -203.88,0  C  -203.88,0  -173.104,-17  0,-18  C  173.104,-17  203.88,0  203.88,0  z " />
<path transform="translate( 0, 0 )" style="stroke: hsl(295.9, 55%, 50%);" id="2297"  d=" M  203.88,0  L  209.741,-67  C  209.741,-67  151.466,-57  104.871,-57  L  -104.871,-57  C  -151.466,-57  -209.741,-67  -209.741,-67  L  -203.88,0  C  -203.88,0  -173.104,-17  0,-18  C  173.104,-17  203.88,0  203.88,0  z " />
    </g>
    <!-- End of group #undercollar -->
    
    <!-- Start of group #sleevePlacketUnderlap -->
    <g id="sleevePlacketUnderlap"  transform=" translate(-5 5)  translate(472.392 779.92) " >
        <path class="hidden" id="10"  d=" M  10,0  L  196.25,0  L  196.25,36  L  10,36  z " />
<path transform="translate( 0, 0 )" style="stroke: hsl(26.9, 55%, 50%);" id="208"  d=" M  10,0  L  196.25,0  L  196.25,36  L  10,36  z " />
<path transform="translate( 0, 0 )" style="stroke: hsl(53.8, 55%, 50%);" id="417"  d=" M  10,0  L  196.25,0  L  196.25,36  L  10,36  z " />
<path transform="translate( 0, 0 )" style="stroke: hsl(80.7, 55%, 50%);" id="626"  d=" M  10,0  L  196.25,0  L  196.25,36  L  10,36  z " />
<path transform="translate( 0, 0 )" style="stroke: hsl(107.6, 55%, 50%);" id="835"  d=" M  10,0  L  196.25,0  L  196.25,36  L  10,36  z " />
<path transform="translate( 0, 0 )" style="stroke: hsl(134.5, 55%, 50%);" id="1044"  d=" M  10,0  L  196.25,0  L  196.25,36  L  10,36  z " />
<path transform="translate( 0, 0 )" style="stroke: hsl(161.4, 55%, 50%);" id="1253"  d=" M  10,0  L  196.25,0  L  196.25,36  L  10,36  z " />
<path transform="translate( 0, 0 )" style="stroke: hsl(188.3, 55%, 50%);" id="1462"  d=" M  10,0  L  196.25,0  L  196.25,36  L  10,36  z " />
<path transform="translate( 0, 0 )" style="stroke: hsl(215.2, 55%, 50%);" id="1671"  d=" M  10,0  L  196.25,0  L  196.25,36  L  10,36  z " />
<path transform="translate( 0, 0 )" style="stroke: hsl(242.1, 55%, 50%);" id="1880"  d=" M  10,0  L  196.25,0  L  196.25,36  L  10,36  z " />
<path transform="translate( 0, 0 )" style="stroke: hsl(269, 55%, 50%);" id="2089"  d=" M  10,0  L  196.25,0  L  196.25,36  L  10,36  z " />
<path transform="translate( 0, 0 )" style="stroke: hsl(295.9, 55%, 50%);" id="2298"  d=" M  10,0  L  196.25,0  L  196.25,36  L  10,36  z " />
    </g>
    <!-- End of group #sleevePlacketUnderlap -->
    
    <!-- Start of group #sleevePlacketOverlap -->
    <g id="sleevePlacketOverlap"  transform=" translate(-5 5)  translate(0 906.92) " >
        <path class="hidden" id="11"  d=" M  10,0  L  245,0  L  245,68  L  10,68  z " />
<path transform="translate( 0, 0 )" style="stroke: hsl(26.9, 55%, 50%);" id="209"  d=" M  10,0  L  245,0  L  245,41.333  L  226.25,41.333  L  211.25,49.667  L  198.75,49.667  L  198.75,68  L  10,68  z " />
<path transform="translate( 0, 0 )" style="stroke: hsl(53.8, 55%, 50%);" id="418"  d=" M  10,0  L  245,0  L  245,41.333  L  226.25,41.333  L  211.25,49.667  L  198.75,49.667  L  198.75,68  L  10,68  z " />
<path transform="translate( 0, 0 )" style="stroke: hsl(80.7, 55%, 50%);" id="627"  d=" M  10,0  L  245,0  L  245,41.333  L  226.25,41.333  L  211.25,49.667  L  198.75,49.667  L  198.75,68  L  10,68  z " />
<path transform="translate( 0, 0 )" style="stroke: hsl(107.6, 55%, 50%);" id="836"  d=" M  10,0  L  245,0  L  245,41.333  L  226.25,41.333  L  211.25,49.667  L  198.75,49.667  L  198.75,68  L  10,68  z " />
<path transform="translate( 0, 0 )" style="stroke: hsl(134.5, 55%, 50%);" id="1045"  d=" M  10,0  L  245,0  L  245,41.333  L  226.25,41.333  L  211.25,49.667  L  198.75,49.667  L  198.75,68  L  10,68  z " />
<path transform="translate( 0, 0 )" style="stroke: hsl(161.4, 55%, 50%);" id="1254"  d=" M  10,0  L  245,0  L  245,41.333  L  226.25,41.333  L  211.25,49.667  L  198.75,49.667  L  198.75,68  L  10,68  z " />
<path transform="translate( 0, 0 )" style="stroke: hsl(188.3, 55%, 50%);" id="1463"  d=" M  10,0  L  245,0  L  245,41.333  L  226.25,41.333  L  211.25,49.667  L  198.75,49.667  L  198.75,68  L  10,68  z " />
<path transform="translate( 0, 0 )" style="stroke: hsl(215.2, 55%, 50%);" id="1672"  d=" M  10,0  L  245,0  L  245,41.333  L  226.25,41.333  L  211.25,49.667  L  198.75,49.667  L  198.75,68  L  10,68  z " />
<path transform="translate( 0, 0 )" style="stroke: hsl(242.1, 55%, 50%);" id="1881"  d=" M  10,0  L  245,0  L  245,41.333  L  226.25,41.333  L  211.25,49.667  L  198.75,49.667  L  198.75,68  L  10,68  z " />
<path transform="translate( 0, 0 )" style="stroke: hsl(269, 55%, 50%);" id="2090"  d=" M  10,0  L  245,0  L  245,41.333  L  226.25,41.333  L  211.25,49.667  L  198.75,49.667  L  198.75,68  L  10,68  z " />
<path transform="translate( 0, 0 )" style="stroke: hsl(295.9, 55%, 50%);" id="2299"  d=" M  10,0  L  245,0  L  245,41.333  L  226.25,41.333  L  211.25,49.667  L  198.75,49.667  L  198.75,68  L  10,68  z " />
    </g>
    <!-- End of group #sleevePlacketOverlap -->
    
    <!-- Start of group #barrelCuff -->
    <g id="barrelCuff"  transform=" translate(127.5 5)  translate(858.964 829.92) " >
        <path class="hidden" id="12"  d=" M  -122.5,0  L  122.5,0  L  122.5,65  L  -122.5,65  z " />
<path transform="translate( 0, 0 )" style="stroke: hsl(26.9, 55%, 50%);" id="210"  d=" M  0,0  L  106.25,-0  L  122.5,16.25  L  122.5,65  L  -122.5,65  L  -122.5,16.25  L  -106.25,0  z " />
<path transform="translate( 0, 0 )" style="stroke: hsl(53.8, 55%, 50%);" id="419"  d=" M  0,0  L  106.25,-0  L  122.5,16.25  L  122.5,65  L  -122.5,65  L  -122.5,16.25  L  -106.25,0  z " />
<path transform="translate( 0, 0 )" style="stroke: hsl(80.7, 55%, 50%);" id="628"  d=" M  0,0  L  106.25,-0  L  122.5,16.25  L  122.5,65  L  -122.5,65  L  -122.5,16.25  L  -106.25,0  z " />
<path transform="translate( 0, 0 )" style="stroke: hsl(107.6, 55%, 50%);" id="837"  d=" M  0,0  L  106.25,-0  L  122.5,16.25  L  122.5,65  L  -122.5,65  L  -122.5,16.25  L  -106.25,0  z " />
<path transform="translate( 0, 0 )" style="stroke: hsl(134.5, 55%, 50%);" id="1046"  d=" M  0,0  L  106.25,-0  L  122.5,16.25  L  122.5,65  L  -122.5,65  L  -122.5,16.25  L  -106.25,0  z " />
<path transform="translate( 0, 0 )" style="stroke: hsl(161.4, 55%, 50%);" id="1255"  d=" M  0,0  L  106.25,-0  L  122.5,16.25  L  122.5,65  L  -122.5,65  L  -122.5,16.25  L  -106.25,0  z " />
<path transform="translate( 0, 0 )" style="stroke: hsl(188.3, 55%, 50%);" id="1464"  d=" M  0,0  L  106.25,-0  L  122.5,16.25  L  122.5,65  L  -122.5,65  L  -122.5,16.25  L  -106.25,0  z " />
<path transform="translate( 0, 0 )" style="stroke: hsl(215.2, 55%, 50%);" id="1673"  d=" M  0,0  L  106.25,-0  L  122.5,16.25  L  122.5,65  L  -122.5,65  L  -122.5,16.25  L  -106.25,0  z " />
<path transform="translate( 0, 0 )" style="stroke: hsl(242.1, 55%, 50%);" id="1882"  d=" M  0,0  L  106.25,-0  L  122.5,16.25  L  122.5,65  L  -122.5,65  L  -122.5,16.25  L  -106.25,0  z " />
<path transform="translate( 0, 0 )" style="stroke: hsl(269, 55%, 50%);" id="2091"  d=" M  0,0  L  106.25,-0  L  122.5,16.25  L  122.5,65  L  -122.5,65  L  -122.5,16.25  L  -106.25,0  z " />
<path transform="translate( 0, 0 )" style="stroke: hsl(295.9, 55%, 50%);" id="2300"  d=" M  0,0  L  106.25,-0  L  122.5,16.25  L  122.5,65  L  -122.5,65  L  -122.5,16.25  L  -106.25,0  z " />
    </g>
    <!-- End of group #barrelCuff -->
    
    <!-- Start of group #frenchCuff -->
    <g id="frenchCuff"  transform=" translate(0 0)  translate(1676.108 0) " >
    </g>
    <!-- End of group #frenchCuff -->
    
    <!-- Start of group #sampler-frontRight -->
    <g id="sampler-frontRight"  transform=" translate(0 0)  translate(1676.108 0) " >
    </g>
    <!-- End of group #sampler-frontRight -->
    
    <!-- Start of group #sampler-frontLeft -->
    <g id="sampler-frontLeft"  transform=" translate(0 0)  translate(1676.108 0) " >
    </g>
    <!-- End of group #sampler-frontLeft -->
    
    <!-- Start of group #sampler-yoke -->
    <g id="sampler-yoke"  transform=" translate(0 0)  translate(1676.108 0) " >
    </g>
    <!-- End of group #sampler-yoke -->
    
    <!-- Start of group #sampler-back -->
    <g id="sampler-back"  transform=" translate(0 0)  translate(1676.108 0) " >
    </g>
    <!-- End of group #sampler-back -->
    
    <!-- Start of group #sampler-sleeve -->
    <g id="sampler-sleeve"  transform=" translate(0 0)  translate(1676.108 0) " >
    </g>
    <!-- End of group #sampler-sleeve -->
    
    <!-- Start of group #sampler-collarStand -->
    <g id="sampler-collarStand"  transform=" translate(0 0)  translate(1676.108 0) " >
    </g>
    <!-- End of group #sampler-collarStand -->
    
    <!-- Start of group #sampler-collar -->
    <g id="sampler-collar"  transform=" translate(0 0)  translate(1676.108 0) " >
    </g>
    <!-- End of group #sampler-collar -->
    
    <!-- Start of group #sampler-undercollar -->
    <g id="sampler-undercollar"  transform=" translate(0 0)  translate(1676.108 0) " >
    </g>
    <!-- End of group #sampler-undercollar -->
    
    <!-- Start of group #sampler-sleevePlacketUnderlap -->
    <g id="sampler-sleevePlacketUnderlap"  transform=" translate(0 0)  translate(1676.108 0) " >
    </g>
    <!-- End of group #sampler-sleevePlacketUnderlap -->
    
    <!-- Start of group #sampler-sleevePlacketOverlap -->
    <g id="sampler-sleevePlacketOverlap"  transform=" translate(0 0)  translate(1676.108 0) " >
    </g>
    <!-- End of group #sampler-sleevePlacketOverlap -->
    
    <!-- Start of group #sampler-barrelCuff -->
    <g id="sampler-barrelCuff"  transform=" translate(0 0)  translate(1676.108 0) " >
    </g>
    <!-- End of group #sampler-barrelCuff -->
</g>
<!-- End of group #patternScaleContainer -->

</svg>

