<?xml version="1.0" encoding="UTF-8" standalone="no"?>
<svg
    width ="2125.984254"
    height ="2288.0905533675"
    viewbox ="0 0 2125.984254 2288.0905533675" xmlns:dc="http://purl.org/dc/elements/1.1/"
    xmlns:cc="http://creativecommons.org/ns#"
    xmlns:rdf="http://www.w3.org/1999/02/22-rdf-syntax-ns#"
    xmlns:svg="http://www.w3.org/2000/svg"
    xmlns="http://www.w3.org/2000/svg"
    xmlns:xlink="http://www.w3.org/1999/xlink"
    xmlns:sodipodi="http://sodipodi.sourceforge.net/DTD/sodipodi-0.dtd"
    xmlns:inkscape="http://www.inkscape.org/namespaces/inkscape" 
>

<style type="text/css">
    <![CDATA[
    path { fill: none; stroke: #000000; stroke-opacity:1; stroke-width: 0.5; stroke-miterlimit:4; stroke-dashoffset:0; stroke-linecap:round; stroke-linejoin:round; }
    path.hidden { fill: none; stroke: none; }]]>
</style>


<!-- Start of group #patternScaleContainer -->
<g id="patternScaleContainer"  transform=" scale(3.54330709 ) " >
    
    <!-- Start of group #back -->
    <g id="back"  transform=" translate(300 -109.25)  translate(0 0) " >
        <path class="hidden" id="2"  d=" M  -295,114.25  L  295,114.25  L  295,750  L  -295,750  z " />
<path transform="translate( 0, 0 )" style="stroke: hsl(26.9, 55%, 50%);" id="203"  d=" M  295,750  L  295,670  C  295,649  294.838,620.435  290,600  C  286.449,585  263.75,540  263.75,480  C  263.75,354.25  290,278.8  290,228.5  C  273.75,228.5  260.363,222.433  245.715,207.785  C  231.067,193.137  225,143.167  225,114.25  L  -225,114.25  C  -225,143.167  -231.067,193.137  -245.715,207.785  C  -260.363,222.433  -273.75,228.5  -290,228.5  C  -290,278.8  -263.75,354.25  -263.75,480  C  -263.75,540  -286.449,585  -290,600  C  -294.838,620.435  -295,649  -295,670  L  -295,750  C  -295,750  -265.5,750  -265.5,750  L  0,750  L  265.5,750  C  265.5,750  295,750  295,750  C  295,750  295,670  295,670  z " />
<path transform="translate( 0, 0 )" style="stroke: hsl(53.8, 55%, 50%);" id="412"  d=" M  295,750  L  295,670  C  295,649  294.838,620.435  290,600  C  286.449,585  263.75,540  263.75,480  C  263.75,354.25  290,278.8  290,228.5  C  273.75,228.5  260.363,222.433  245.715,207.785  C  231.067,193.137  225,143.167  225.002,115.25  C  225.002,115.25  180,114.25  135.438,114.25  L  -135.438,114.25  C  -180,114.25  -225.002,115.25  -225.002,115.25  C  -225,143.167  -231.067,193.137  -245.715,207.785  C  -260.363,222.433  -273.75,228.5  -290,228.5  C  -290,278.8  -263.75,354.25  -263.75,480  C  -263.75,540  -286.449,585  -290,600  C  -294.838,620.435  -295,649  -295,670  L  -295,750  C  -295,750  -265.5,750  -265.5,750  L  0,750  L  265.5,750  C  265.5,750  295,750  295,750  C  295,750  295,670  295,670  z " />
<path transform="translate( 0, 0 )" style="stroke: hsl(80.7, 55%, 50%);" id="621"  d=" M  295,750  L  295,670  C  295,649  294.838,620.435  290,600  C  286.449,585  263.75,540  263.75,480  C  263.75,354.25  290,278.8  290,228.5  C  273.75,228.5  260.363,222.433  245.715,207.785  C  231.067,193.137  225,143.167  225.009,116.25  C  225.009,116.25  180,114.25  135.438,114.25  L  -135.438,114.25  C  -180,114.25  -225.009,116.25  -225.009,116.25  C  -225,143.167  -231.067,193.137  -245.715,207.785  C  -260.363,222.433  -273.75,228.5  -290,228.5  C  -290,278.8  -263.75,354.25  -263.75,480  C  -263.75,540  -286.449,585  -290,600  C  -294.838,620.435  -295,649  -295,670  L  -295,750  C  -295,750  -265.5,750  -265.5,750  L  0,750  L  265.5,750  C  265.5,750  295,750  295,750  C  295,750  295,670  295,670  z " />
<path transform="translate( 0, 0 )" style="stroke: hsl(107.6, 55%, 50%);" id="830"  d=" M  295,750  L  295,670  C  295,649  294.838,620.435  290,600  C  286.449,585  263.75,540  263.75,480  C  263.75,354.25  290,278.8  290,228.5  C  273.75,228.5  260.363,222.433  245.715,207.785  C  231.067,193.137  225,143.167  225.021,117.25  C  225.021,117.25  180,114.25  135.438,114.25  L  -135.438,114.25  C  -180,114.25  -225.021,117.25  -225.021,117.25  C  -225,143.167  -231.067,193.137  -245.715,207.785  C  -260.363,222.433  -273.75,228.5  -290,228.5  C  -290,278.8  -263.75,354.25  -263.75,480  C  -263.75,540  -286.449,585  -290,600  C  -294.838,620.435  -295,649  -295,670  L  -295,750  C  -295,750  -265.5,750  -265.5,750  L  0,750  L  265.5,750  C  265.5,750  295,750  295,750  C  295,750  295,670  295,670  z " />
<path transform="translate( 0, 0 )" style="stroke: hsl(134.5, 55%, 50%);" id="1039"  d=" M  295,750  L  295,670  C  295,649  294.838,620.435  290,600  C  286.449,585  263.75,540  263.75,480  C  263.75,354.25  290,278.8  290,228.5  C  273.75,228.5  260.363,222.433  245.715,207.785  C  231.067,193.137  225,143.167  225.037,118.25  C  225.037,118.25  180,114.25  135.438,114.25  L  -135.438,114.25  C  -180,114.25  -225.037,118.25  -225.037,118.25  C  -225,143.167  -231.067,193.137  -245.715,207.785  C  -260.363,222.433  -273.75,228.5  -290,228.5  C  -290,278.8  -263.75,354.25  -263.75,480  C  -263.75,540  -286.449,585  -290,600  C  -294.838,620.435  -295,649  -295,670  L  -295,750  C  -295,750  -265.5,750  -265.5,750  L  0,750  L  265.5,750  C  265.5,750  295,750  295,750  C  295,750  295,670  295,670  z " />
<path transform="translate( 0, 0 )" style="stroke: hsl(161.4, 55%, 50%);" id="1248"  d=" M  295,750  L  295,670  C  295,649  294.838,620.435  290,600  C  286.449,585  263.75,540  263.75,480  C  263.75,354.25  290,278.8  290,228.5  C  273.75,228.5  260.363,222.433  245.715,207.785  C  231.067,193.137  225,143.167  225.057,119.25  C  225.057,119.25  180,114.25  135.438,114.25  L  -135.438,114.25  C  -180,114.25  -225.057,119.25  -225.057,119.25  C  -225,143.167  -231.067,193.137  -245.715,207.785  C  -260.363,222.433  -273.75,228.5  -290,228.5  C  -290,278.8  -263.75,354.25  -263.75,480  C  -263.75,540  -286.449,585  -290,600  C  -294.838,620.435  -295,649  -295,670  L  -295,750  C  -295,750  -265.5,750  -265.5,750  L  0,750  L  265.5,750  C  265.5,750  295,750  295,750  C  295,750  295,670  295,670  z " />
<path transform="translate( 0, 0 )" style="stroke: hsl(188.3, 55%, 50%);" id="1457"  d=" M  295,750  L  295,670  C  295,649  294.838,620.435  290,600  C  286.449,585  263.75,540  263.75,480  C  263.75,354.25  290,278.8  290,228.5  C  273.75,228.5  260.363,222.433  245.715,207.785  C  231.067,193.137  225,143.167  225.08,120.25  C  225.08,120.25  180,114.25  135.438,114.25  L  -135.438,114.25  C  -180,114.25  -225.08,120.25  -225.08,120.25  C  -225,143.167  -231.067,193.137  -245.715,207.785  C  -260.363,222.433  -273.75,228.5  -290,228.5  C  -290,278.8  -263.75,354.25  -263.75,480  C  -263.75,540  -286.449,585  -290,600  C  -294.838,620.435  -295,649  -295,670  L  -295,750  C  -295,750  -265.5,750  -265.5,750  L  0,750  L  265.5,750  C  265.5,750  295,750  295,750  C  295,750  295,670  295,670  z " />
<path transform="translate( 0, 0 )" style="stroke: hsl(215.2, 55%, 50%);" id="1666"  d=" M  295,750  L  295,670  C  295,649  294.838,620.435  290,600  C  286.449,585  263.75,540  263.75,480  C  263.75,354.25  290,278.8  290,228.5  C  273.75,228.5  260.363,222.433  245.715,207.785  C  231.067,193.137  225,143.167  225.108,121.25  C  225.108,121.25  180,114.25  135.438,114.25  L  -135.438,114.25  C  -180,114.25  -225.108,121.25  -225.108,121.25  C  -225,143.167  -231.067,193.137  -245.715,207.785  C  -260.363,222.433  -273.75,228.5  -290,228.5  C  -290,278.8  -263.75,354.25  -263.75,480  C  -263.75,540  -286.449,585  -290,600  C  -294.838,620.435  -295,649  -295,670  L  -295,750  C  -295,750  -265.5,750  -265.5,750  L  0,750  L  265.5,750  C  265.5,750  295,750  295,750  C  295,750  295,670  295,670  z " />
<path transform="translate( 0, 0 )" style="stroke: hsl(242.1, 55%, 50%);" id="1875"  d=" M  295,750  L  295,670  C  295,649  294.838,620.435  290,600  C  286.449,585  263.75,540  263.75,480  C  263.75,354.25  290,278.8  290,228.5  C  273.75,228.5  260.363,222.433  245.715,207.785  C  231.067,193.137  225,143.167  225.14,122.25  C  225.14,122.25  180,114.25  135.438,114.25  L  -135.438,114.25  C  -180,114.25  -225.14,122.25  -225.14,122.25  C  -225,143.167  -231.067,193.137  -245.715,207.785  C  -260.363,222.433  -273.75,228.5  -290,228.5  C  -290,278.8  -263.75,354.25  -263.75,480  C  -263.75,540  -286.449,585  -290,600  C  -294.838,620.435  -295,649  -295,670  L  -295,750  C  -295,750  -265.5,750  -265.5,750  L  0,750  L  265.5,750  C  265.5,750  295,750  295,750  C  295,750  295,670  295,670  z " />
<path transform="translate( 0, 0 )" style="stroke: hsl(269, 55%, 50%);" id="2084"  d=" M  295,750  L  295,670  C  295,649  294.838,620.435  290,600  C  286.449,585  263.75,540  263.75,480  C  263.75,354.25  290,278.8  290,228.5  C  273.75,228.5  260.363,222.433  245.715,207.785  C  231.067,193.137  225,143.167  225.175,123.25  C  225.175,123.25  180,114.25  135.438,114.25  L  -135.438,114.25  C  -180,114.25  -225.175,123.25  -225.175,123.25  C  -225,143.167  -231.067,193.137  -245.715,207.785  C  -260.363,222.433  -273.75,228.5  -290,228.5  C  -290,278.8  -263.75,354.25  -263.75,480  C  -263.75,540  -286.449,585  -290,600  C  -294.838,620.435  -295,649  -295,670  L  -295,750  C  -295,750  -265.5,750  -265.5,750  L  0,750  L  265.5,750  C  265.5,750  295,750  295,750  C  295,750  295,670  295,670  z " />
<path transform="translate( 0, 0 )" style="stroke: hsl(295.9, 55%, 50%);" id="2293"  d=" M  295,750  L  295,670  C  295,649  294.838,620.435  290,600  C  286.449,585  263.75,540  263.75,480  C  263.75,354.25  290,278.8  290,228.5  C  273.75,228.5  260.363,222.433  245.715,207.785  C  231.067,193.137  225,143.167  225.214,124.25  C  225.214,124.25  180,114.25  135.438,114.25  L  -135.438,114.25  C  -180,114.25  -225.214,124.25  -225.214,124.25  C  -225,143.167  -231.067,193.137  -245.715,207.785  C  -260.363,222.433  -273.75,228.5  -290,228.5  C  -290,278.8  -263.75,354.25  -263.75,480  C  -263.75,540  -286.449,585  -290,600  C  -294.838,620.435  -295,649  -295,670  L  -295,750  C  -295,750  -265.5,750  -265.5,750  L  0,750  L  265.5,750  C  265.5,750  295,750  295,750  C  295,750  295,670  295,670  z " />
    </g>
    <!-- End of group #back -->
</g>
<!-- End of group #patternScaleContainer -->

</svg>

