<?xml version="1.0" encoding="UTF-8" standalone="no"?>
<svg
    xmlns="http://www.w3.org/2000/svg"
    xmlns:svg="http://www.w3.org/2000/svg"
    xmlns:xlink="http://www.w3.org/1999/xlink"
    xmlns:freesewing="http://freesewing.org/namespaces/freesewing" viewBox ="0 0 942 710"
    width ="942mm"
    height ="710mm"
    freesewing:version ="1.8.0"
    freesewing:origin ="core.she.freesewing.org" 
>

<style type="text/css">
    <![CDATA[
    path { fill: none; stroke: #000000; stroke-opacity:1; stroke-width: 0.5; stroke-miterlimit:4; stroke-dashoffset:0; stroke-linecap:round; stroke-linejoin:round; }
    path.hidden { fill: none; stroke: none; }]]>
</style>


<!-- Start of group #patternContainer -->
<g id="patternContainer" >
    
    <!-- Start of group #backBlock -->
    <g id="backBlock"  transform=" translate(5 5)  translate(366.638 0) " >
        <path class="hidden" id="2"  d=" M  0,0  L  277.5,0  L  277.5,620  L  0,620  z " />
<path transform="translate( 0, 0 )" style="stroke: hsl(26.9, 55%, 50%);" id="8"  d=" M  0,20  L  0,240  L  0,500  L  0,620  L  277.5,620  L  277.5,240  C  262.762,240  251.309,234.379  237.74,220.81  C  224.171,207.241  218.55,164.167  218.55,130  C  218.55,95.833  233.176,37.332  235,27.5  L  86.777,0  C  83.129,19.664  0,20  0,20  z " />
<path transform="translate( 0, 0 )" style="stroke: hsl(53.8, 55%, 50%);" id="17"  d=" M  0,20  L  0,240  L  0,500  L  0,620  L  277.5,620  L  277.5,240  C  263.115,240  252.206,234.468  238.849,221.111  C  225.492,207.754  219.96,164.167  219.96,130  C  219.96,95.833  233.176,37.332  235,27.5  L  86.777,0  C  83.129,19.664  0,20  0,20  z " />
<path transform="translate( 0, 0 )" style="stroke: hsl(80.7, 55%, 50%);" id="26"  d=" M  0,20  L  0,240  L  0,500  L  0,620  L  277.5,620  L  277.5,240  C  263.467,240  253.093,234.557  239.953,221.417  C  226.813,208.277  221.37,164.167  221.37,130  C  221.37,95.833  233.176,37.332  235,27.5  L  86.777,0  C  83.129,19.664  0,20  0,20  z " />
<path transform="translate( 0, 0 )" style="stroke: hsl(107.6, 55%, 50%);" id="35"  d=" M  0,20  L  0,240  L  0,500  L  0,620  L  277.5,620  L  277.5,240  C  263.82,240  253.971,234.649  241.051,221.729  C  228.131,208.809  222.78,164.167  222.78,130  C  222.78,95.833  233.176,37.332  235,27.5  L  86.777,0  C  83.129,19.664  0,20  0,20  z " />
<path transform="translate( 0, 0 )" style="stroke: hsl(134.5, 55%, 50%);" id="44"  d=" M  0,20  L  0,240  L  0,500  L  0,620  L  277.5,620  L  277.5,240  C  264.172,240  254.839,234.741  242.144,222.046  C  229.449,209.351  224.19,164.167  224.19,130  C  224.19,95.833  233.176,37.332  235,27.5  L  86.777,0  C  83.129,19.664  0,20  0,20  z " />
<path transform="translate( 0, 0 )" style="stroke: hsl(161.4, 55%, 50%);" id="53"  d=" M  0,20  L  0,240  L  0,500  L  0,620  L  277.5,620  L  277.5,240  C  264.525,240  255.7,234.836  243.232,222.368  C  230.764,209.9  225.6,164.167  225.6,130  C  225.6,95.833  233.176,37.332  235,27.5  L  86.777,0  C  83.129,19.664  0,20  0,20  z " />
<path transform="translate( 0, 0 )" style="stroke: hsl(188.3, 55%, 50%);" id="62"  d=" M  0,20  L  0,240  L  0,500  L  0,620  L  277.5,620  L  277.5,240  C  264.877,240  256.548,234.932  244.313,222.697  C  232.078,210.462  227.01,164.167  227.01,130  C  227.01,95.833  233.176,37.332  235,27.5  L  86.777,0  C  83.129,19.664  0,20  0,20  z " />
<path transform="translate( 0, 0 )" style="stroke: hsl(215.2, 55%, 50%);" id="71"  d=" M  0,20  L  0,240  L  0,500  L  0,620  L  277.5,620  L  277.5,240  C  265.23,240  257.388,235.03  245.389,223.031  C  233.39,211.032  228.42,164.167  228.42,130  C  228.42,95.833  233.176,37.332  235,27.5  L  86.777,0  C  83.129,19.664  0,20  0,20  z " />
<path transform="translate( 0, 0 )" style="stroke: hsl(242.1, 55%, 50%);" id="80"  d=" M  0,20  L  0,240  L  0,500  L  0,620  L  277.5,620  L  277.5,240  C  265.582,240  258.216,235.13  246.458,223.372  C  234.7,211.614  229.83,164.167  229.83,130  C  229.83,95.833  233.176,37.332  235,27.5  L  86.777,0  C  83.129,19.664  0,20  0,20  z " />
<path transform="translate( 0, 0 )" style="stroke: hsl(269, 55%, 50%);" id="89"  d=" M  0,20  L  0,240  L  0,500  L  0,620  L  277.5,620  L  277.5,240  C  265.935,240  259.037,235.231  247.523,223.717  C  236.009,212.203  231.24,164.167  231.24,130  C  231.24,95.833  233.176,37.332  235,27.5  L  86.777,0  C  83.129,19.664  0,20  0,20  z " />
<path transform="translate( 0, 0 )" style="stroke: hsl(295.9, 55%, 50%);" id="98"  d=" M  0,20  L  0,240  L  0,500  L  0,620  L  277.5,620  L  277.5,240  C  266.287,240  259.844,235.334  248.58,224.07  C  237.316,212.806  232.65,164.167  232.65,130  C  232.65,95.833  233.176,37.332  235,27.5  L  86.777,0  C  83.129,19.664  0,20  0,20  z " />
    </g>
    <!-- End of group #backBlock -->
    
    <!-- Start of group #frontBlock -->
    <g id="frontBlock"  transform=" translate(5 5)  translate(654.138 0) " >
        <path class="hidden" id="3"  d=" M  0,0  L  277.5,0  L  277.5,620  L  0,620  z " />
<path transform="translate( 0, 0 )" style="stroke: hsl(26.9, 55%, 50%);" id="9"  d=" M  0,99  L  0,240  L  0,500  L  0,620  L  277.5,620  L  277.5,240  C  262.762,240  251.309,234.379  237.74,220.81  C  224.171,207.241  213.55,164.167  213.55,130  C  213.55,95.833  233.176,37.332  235,27.5  L  86.777,0  C  83.129,19.664  86.777,99  0,99  z " />
<path transform="translate( 0, 0 )" style="stroke: hsl(53.8, 55%, 50%);" id="18"  d=" M  0,99  L  0,240  L  0,500  L  0,620  L  277.5,620  L  277.5,240  C  263.115,240  252.206,234.468  238.849,221.111  C  225.492,207.754  214.96,164.167  214.96,130  C  214.96,95.833  233.176,37.332  235,27.5  L  86.777,0  C  83.129,19.664  86.777,99  0,99  z " />
<path transform="translate( 0, 0 )" style="stroke: hsl(80.7, 55%, 50%);" id="27"  d=" M  0,99  L  0,240  L  0,500  L  0,620  L  277.5,620  L  277.5,240  C  263.467,240  253.093,234.557  239.953,221.417  C  226.813,208.277  216.37,164.167  216.37,130  C  216.37,95.833  233.176,37.332  235,27.5  L  86.777,0  C  83.129,19.664  86.777,99  0,99  z " />
<path transform="translate( 0, 0 )" style="stroke: hsl(107.6, 55%, 50%);" id="36"  d=" M  0,99  L  0,240  L  0,500  L  0,620  L  277.5,620  L  277.5,240  C  263.82,240  253.971,234.649  241.051,221.729  C  228.131,208.809  217.78,164.167  217.78,130  C  217.78,95.833  233.176,37.332  235,27.5  L  86.777,0  C  83.129,19.664  86.777,99  0,99  z " />
<path transform="translate( 0, 0 )" style="stroke: hsl(134.5, 55%, 50%);" id="45"  d=" M  0,99  L  0,240  L  0,500  L  0,620  L  277.5,620  L  277.5,240  C  264.172,240  254.839,234.741  242.144,222.046  C  229.449,209.351  219.19,164.167  219.19,130  C  219.19,95.833  233.176,37.332  235,27.5  L  86.777,0  C  83.129,19.664  86.777,99  0,99  z " />
<path transform="translate( 0, 0 )" style="stroke: hsl(161.4, 55%, 50%);" id="54"  d=" M  0,99  L  0,240  L  0,500  L  0,620  L  277.5,620  L  277.5,240  C  264.525,240  255.7,234.836  243.232,222.368  C  230.764,209.9  220.6,164.167  220.6,130  C  220.6,95.833  233.176,37.332  235,27.5  L  86.777,0  C  83.129,19.664  86.777,99  0,99  z " />
<path transform="translate( 0, 0 )" style="stroke: hsl(188.3, 55%, 50%);" id="63"  d=" M  0,99  L  0,240  L  0,500  L  0,620  L  277.5,620  L  277.5,240  C  264.877,240  256.548,234.932  244.313,222.697  C  232.078,210.462  222.01,164.167  222.01,130  C  222.01,95.833  233.176,37.332  235,27.5  L  86.777,0  C  83.129,19.664  86.777,99  0,99  z " />
<path transform="translate( 0, 0 )" style="stroke: hsl(215.2, 55%, 50%);" id="72"  d=" M  0,99  L  0,240  L  0,500  L  0,620  L  277.5,620  L  277.5,240  C  265.23,240  257.388,235.03  245.389,223.031  C  233.39,211.032  223.42,164.167  223.42,130  C  223.42,95.833  233.176,37.332  235,27.5  L  86.777,0  C  83.129,19.664  86.777,99  0,99  z " />
<path transform="translate( 0, 0 )" style="stroke: hsl(242.1, 55%, 50%);" id="81"  d=" M  0,99  L  0,240  L  0,500  L  0,620  L  277.5,620  L  277.5,240  C  265.582,240  258.216,235.13  246.458,223.372  C  234.7,211.614  224.83,164.167  224.83,130  C  224.83,95.833  233.176,37.332  235,27.5  L  86.777,0  C  83.129,19.664  86.777,99  0,99  z " />
<path transform="translate( 0, 0 )" style="stroke: hsl(269, 55%, 50%);" id="90"  d=" M  0,99  L  0,240  L  0,500  L  0,620  L  277.5,620  L  277.5,240  C  265.935,240  259.037,235.231  247.523,223.717  C  236.009,212.203  226.24,164.167  226.24,130  C  226.24,95.833  233.176,37.332  235,27.5  L  86.777,0  C  83.129,19.664  86.777,99  0,99  z " />
<path transform="translate( 0, 0 )" style="stroke: hsl(295.9, 55%, 50%);" id="99"  d=" M  0,99  L  0,240  L  0,500  L  0,620  L  277.5,620  L  277.5,240  C  266.287,240  259.844,235.334  248.58,224.07  C  237.316,212.806  227.65,164.167  227.65,130  C  227.65,95.833  233.176,37.332  235,27.5  L  86.777,0  C  83.129,19.664  86.777,99  0,99  z " />
    </g>
    <!-- End of group #frontBlock -->
    
    <!-- Start of group #sleeveBlock -->
    <g id="sleeveBlock"  transform=" translate(183.319 5)  translate(0 0) " >
        <path class="hidden" id="4"  d=" M  -178.319,0  L  178.319,0  L  178.319,700  L  -178.319,700  z " />
<path transform="translate( 0, 0 )" style="stroke: hsl(26.9, 55%, 50%);" id="10"  d=" M  -117.5,700  L  -178.319,149.352  C  -178.319,149.352  -146.616,123.014  -130.102,105.498  C  -113.588,87.982  -89.16,54.784  -89.16,54.784  C  -89.16,54.784  -72.944,27.215  -52.433,14.612  C  -31.922,2.009  -24.073,-0  5,0  C  24.073,0  41.434,2.08  60.775,16.414  C  80.116,30.748  94.16,69.784  94.16,69.784  C  94.16,69.784  108.442,103.93  125.935,120.468  C  143.428,137.006  178.319,149.352  178.319,149.352  L  117.5,700  z " />
<path transform="translate( 0, 0 )" style="stroke: hsl(53.8, 55%, 50%);" id="19"  d=" M  -117.5,700  L  -177.982,147.873  C  -177.982,147.873  -146.421,121.94  -129.863,104.528  C  -113.305,87.116  -88.991,54.291  -88.991,54.291  C  -88.991,54.291  -72.82,26.855  -52.308,14.341  C  -31.796,1.827  -24.028,-0  5,0  C  24.028,0  41.304,1.875  60.644,16.133  C  79.984,30.391  93.991,69.291  93.991,69.291  C  93.991,69.291  108.192,103.119  125.738,119.535  C  143.284,135.951  177.982,147.873  177.982,147.873  L  117.5,700  z " />
<path transform="translate( 0, 0 )" style="stroke: hsl(80.7, 55%, 50%);" id="28"  d=" M  -117.5,700  L  -177.879,147.418  C  -177.879,147.418  -146.362,121.609  -129.791,104.229  C  -113.22,86.849  -88.94,54.139  -88.94,54.139  C  -88.94,54.139  -72.782,26.742  -52.269,14.256  C  -31.756,1.77  -24.014,-0  5,0  C  24.014,0  41.263,1.811  60.603,16.045  C  79.943,30.279  93.94,69.139  93.94,69.139  C  93.94,69.139  108.118,102.871  125.68,119.249  C  143.242,135.627  177.879,147.418  177.879,147.418  L  117.5,700  z " />
<path transform="translate( 0, 0 )" style="stroke: hsl(107.6, 55%, 50%);" id="37"  d=" M  -117.5,700  L  -177.27,144.736  C  -177.27,144.736  -146.013,119.658  -129.362,102.47  C  -112.711,85.282  -88.635,53.245  -88.635,53.245  C  -88.635,53.245  -72.556,26.088  -52.042,13.765  C  -31.528,1.442  -23.931,-0  5,0  C  23.931,0  41.026,1.441  60.365,15.536  C  79.704,29.631  93.635,68.245  93.635,68.245  C  93.635,68.245  107.67,101.408  125.329,117.559  C  142.988,133.71  177.27,144.736  177.27,144.736  L  117.5,700  z " />
<path transform="translate( 0, 0 )" style="stroke: hsl(134.5, 55%, 50%);" id="46"  d=" M  -117.5,700  L  -176.944,143.303  C  -176.944,143.303  -145.827,118.614  -129.132,101.53  C  -112.437,84.446  -88.472,52.768  -88.472,52.768  C  -88.472,52.768  -72.435,25.737  -51.92,13.501  C  -31.405,1.265  -23.887,-0  5,0  C  23.887,0  40.897,1.242  60.236,15.263  C  79.575,29.284  93.472,67.768  93.472,67.768  C  93.472,67.768  107.431,100.629  125.143,116.657  C  142.855,132.685  176.944,143.303  176.944,143.303  L  117.5,700  z " />
<path transform="translate( 0, 0 )" style="stroke: hsl(161.4, 55%, 50%);" id="55"  d=" M  -117.5,700  L  -176.894,143.082  C  -176.894,143.082  -145.799,118.454  -129.097,101.385  C  -112.395,84.316  -88.447,52.694  -88.447,52.694  C  -88.447,52.694  -72.417,25.684  -51.901,13.461  C  -31.385,1.238  -23.881,-0  5,0  C  23.881,0  40.877,1.211  60.217,15.221  C  79.557,29.231  93.447,67.694  93.447,67.694  C  93.447,67.694  107.395,100.509  125.115,116.518  C  142.835,132.527  176.894,143.082  176.894,143.082  L  117.5,700  z " />
<path transform="translate( 0, 0 )" style="stroke: hsl(188.3, 55%, 50%);" id="64"  d=" M  -117.5,700  L  -176.572,141.666  C  -176.572,141.666  -145.616,117.421  -128.871,100.456  C  -112.126,83.491  -88.286,52.222  -88.286,52.222  C  -88.286,52.222  -72.297,25.336  -51.78,13.2  C  -31.263,1.064  -23.837,-0  5,0  C  23.837,0  40.75,1.015  60.089,14.951  C  79.428,28.887  93.286,67.222  93.286,67.222  C  93.286,67.222  107.161,99.743  124.933,115.628  C  142.705,131.513  176.572,141.666  176.572,141.666  L  117.5,700  z " />
<path transform="translate( 0, 0 )" style="stroke: hsl(215.2, 55%, 50%);" id="73"  d=" M  -117.5,700  L  -176.253,140.263  C  -176.253,140.263  -145.435,116.398  -128.647,99.537  C  -111.859,82.676  -88.127,51.754  -88.127,51.754  C  -88.127,51.754  -72.178,24.992  -51.66,12.943  C  -31.142,0.894  -23.794,-0  5,0  C  23.794,0  40.624,0.821  59.963,14.683  C  79.302,28.545  93.127,66.754  93.127,66.754  C  93.127,66.754  106.929,98.983  124.753,114.745  C  142.577,130.507  176.253,140.263  176.253,140.263  L  117.5,700  z " />
<path transform="translate( 0, 0 )" style="stroke: hsl(242.1, 55%, 50%);" id="82"  d=" M  -117.5,700  L  -175.937,138.874  C  -175.937,138.874  -145.257,115.383  -128.425,98.625  C  -111.593,81.867  -87.969,51.291  -87.969,51.291  C  -87.969,51.291  -72.058,24.651  -51.539,12.687  C  -31.02,0.723  -23.752,-0  5,0  C  23.752,0  40.498,0.628  59.837,14.418  C  79.176,28.208  92.969,66.291  92.969,66.291  C  92.969,66.291  106.7,98.233  124.577,113.872  C  142.454,129.511  175.937,138.874  175.937,138.874  L  117.5,700  z " />
<path transform="translate( 0, 0 )" style="stroke: hsl(269, 55%, 50%);" id="91"  d=" M  -117.5,700  L  -175.625,137.499  C  -175.625,137.499  -145.082,114.38  -128.207,97.725  C  -111.332,81.07  -87.813,50.833  -87.813,50.833  C  -87.813,50.833  -71.942,24.314  -51.422,12.435  C  -30.902,0.556  -23.71,-0  5,0  C  23.71,0  40.374,0.439  59.713,14.156  C  79.052,27.873  92.813,65.833  92.813,65.833  C  92.813,65.833  106.474,97.493  124.403,113.008  C  142.332,128.523  175.625,137.499  175.625,137.499  L  117.5,700  z " />
<path transform="translate( 0, 0 )" style="stroke: hsl(295.9, 55%, 50%);" id="100"  d=" M  -117.5,700  L  -175.315,136.138  C  -175.315,136.138  -144.908,113.385  -127.99,96.833  C  -111.072,80.281  -87.658,50.379  -87.658,50.379  C  -87.658,50.379  -71.823,23.978  -51.303,12.184  C  -30.783,0.39  -23.668,-0  5,0  C  23.668,0  40.25,0.252  59.589,13.897  C  78.928,27.542  92.658,65.379  92.658,65.379  C  92.658,65.379  106.252,96.762  124.232,112.154  C  142.212,127.546  175.315,136.138  175.315,136.138  L  117.5,700  z " />
    </g>
    <!-- End of group #sleeveBlock -->
    
    <!-- Start of group #sampler-backBlock -->
    <g id="sampler-backBlock" >
    </g>
    <!-- End of group #sampler-backBlock -->
    
    <!-- Start of group #sampler-frontBlock -->
    <g id="sampler-frontBlock" >
    </g>
    <!-- End of group #sampler-frontBlock -->
    
    <!-- Start of group #sampler-sleeveBlock -->
    <g id="sampler-sleeveBlock" >
    </g>
    <!-- End of group #sampler-sleeveBlock -->
</g>
<!-- End of group #patternContainer -->

</svg>

