<?xml version="1.0" encoding="UTF-8" standalone="no"?>
<svg
    xmlns="http://www.w3.org/2000/svg"
    xmlns:svg="http://www.w3.org/2000/svg"
    xmlns:xlink="http://www.w3.org/1999/xlink"
    xmlns:freesewing="http://freesewing.org/namespaces/freesewing" viewBox ="0 0 969 710"
    width ="969mm"
    height ="710mm"
    freesewing:version ="1.5.0"
    freesewing:origin ="joost.core.freesewing.org" 
>

<style type="text/css">
    <![CDATA[
    path { fill: none; stroke: #000000; stroke-opacity:1; stroke-width: 0.5; stroke-miterlimit:4; stroke-dashoffset:0; stroke-linecap:round; stroke-linejoin:round; }
    path.hidden { fill: none; stroke: none; }]]>
</style>


<!-- Start of group #patternContainer -->
<g id="patternContainer" >
    
    <!-- Start of group #backBlock -->
    <g id="backBlock"  transform=" translate(5 5)  translate(393.754 0) " >
        <path class="hidden" id="2"  d=" M  0,0  L  277.5,0  L  277.5,620  L  0,620  z " />
<path transform="translate( 0, 0 )" style="stroke: hsl(26.9, 55%, 50%);" id="8"  d=" M  0,20  L  0,240  L  0,500  L  0,620  L  277.5,620  L  277.5,240  C  264.375,240  255.334,234.796  242.769,222.231  C  230.204,209.666  225,164.167  225,130  C  225,95.833  233.176,37.332  235,27.5  L  86.777,0  C  83.129,19.664  0,20  0,20  z " />
<path transform="translate( 0, 0 )" style="stroke: hsl(53.8, 55%, 50%);" id="17"  d=" M  0,20  L  0,245.775  L  0,500  L  0,620  L  277.5,620  L  277.5,245.775  C  264.375,245.775  255.586,240.527  242.917,227.858  C  230.248,215.189  225,168.017  225,132.888  C  225,97.759  233.176,37.332  235,27.5  L  86.777,0  C  83.129,19.664  0,20  0,20  z " />
<path transform="translate( 0, 0 )" style="stroke: hsl(80.7, 55%, 50%);" id="26"  d=" M  0,20  L  0,251.55  L  0,500  L  0,620  L  277.5,620  L  277.5,251.55  C  264.375,251.55  255.83,246.26  243.06,233.49  C  230.29,220.72  225,171.867  225,135.775  C  225,99.683  233.176,37.332  235,27.5  L  86.777,0  C  83.129,19.664  0,20  0,20  z " />
<path transform="translate( 0, 0 )" style="stroke: hsl(107.6, 55%, 50%);" id="35"  d=" M  0,20  L  0,257.325  L  0,500  L  0,620  L  277.5,620  L  277.5,257.325  C  264.375,257.325  256.068,251.995  243.199,239.126  C  230.33,226.257  225,175.717  225,138.663  C  225,101.609  233.176,37.332  235,27.5  L  86.777,0  C  83.129,19.664  0,20  0,20  z " />
<path transform="translate( 0, 0 )" style="stroke: hsl(134.5, 55%, 50%);" id="44"  d=" M  0,20  L  0,263.1  L  0,500  L  0,620  L  277.5,620  L  277.5,263.1  C  264.375,263.1  256.295,257.731  243.332,244.768  C  230.369,231.805  225,179.567  225,141.55  C  225,103.533  233.176,37.332  235,27.5  L  86.777,0  C  83.129,19.664  0,20  0,20  z " />
<path transform="translate( 0, 0 )" style="stroke: hsl(161.4, 55%, 50%);" id="53"  d=" M  0,20  L  0,268.875  L  0,500  L  0,620  L  277.5,620  L  277.5,268.875  C  264.375,268.875  256.515,263.468  243.461,250.414  C  230.407,237.36  225,183.417  225,144.438  C  225,105.459  233.176,37.332  235,27.5  L  86.777,0  C  83.129,19.664  0,20  0,20  z " />
<path transform="translate( 0, 0 )" style="stroke: hsl(188.3, 55%, 50%);" id="62"  d=" M  0,20  L  0,274.65  L  0,500  L  0,620  L  277.5,620  L  277.5,274.65  C  264.375,274.65  256.728,269.206  243.586,256.064  C  230.444,242.922  225,187.267  225,147.325  C  225,107.383  233.176,37.332  235,27.5  L  86.777,0  C  83.129,19.664  0,20  0,20  z " />
<path transform="translate( 0, 0 )" style="stroke: hsl(215.2, 55%, 50%);" id="71"  d=" M  0,20  L  0,280.425  L  0,500  L  0,620  L  277.5,620  L  277.5,280.425  C  264.375,280.425  256.935,274.946  243.707,261.718  C  230.479,248.49  225,191.117  225,150.213  C  225,109.309  233.176,37.332  235,27.5  L  86.777,0  C  83.129,19.664  0,20  0,20  z " />
<path transform="translate( 0, 0 )" style="stroke: hsl(242.1, 55%, 50%);" id="80"  d=" M  0,20  L  0,286.2  L  0,500  L  0,620  L  277.5,620  L  277.5,286.2  C  264.375,286.2  257.136,280.686  243.825,267.375  C  230.514,254.064  225,194.967  225,153.1  C  225,111.233  233.176,37.332  235,27.5  L  86.777,0  C  83.129,19.664  0,20  0,20  z " />
<path transform="translate( 0, 0 )" style="stroke: hsl(269, 55%, 50%);" id="89"  d=" M  0,20  L  0,291.975  L  0,500  L  0,620  L  277.5,620  L  277.5,291.975  C  264.375,291.975  257.329,286.428  243.938,273.037  C  230.547,259.646  225,198.817  225,155.988  C  225,113.159  233.176,37.332  235,27.5  L  86.777,0  C  83.129,19.664  0,20  0,20  z " />
<path transform="translate( 0, 0 )" style="stroke: hsl(295.9, 55%, 50%);" id="98"  d=" M  0,20  L  0,297.75  L  0,500  L  0,620  L  277.5,620  L  277.5,297.75  C  264.375,297.75  257.519,292.171  244.049,278.701  C  230.579,265.231  225,202.667  225,158.875  C  225,115.083  233.176,37.332  235,27.5  L  86.777,0  C  83.129,19.664  0,20  0,20  z " />
    </g>
    <!-- End of group #backBlock -->
    
    <!-- Start of group #frontBlock -->
    <g id="frontBlock"  transform=" translate(5 5)  translate(681.254 0) " >
        <path class="hidden" id="3"  d=" M  0,0  L  277.5,0  L  277.5,620  L  0,620  z " />
<path transform="translate( 0, 0 )" style="stroke: hsl(26.9, 55%, 50%);" id="9"  d=" M  0,99  L  0,240  L  0,500  L  0,620  L  277.5,620  L  277.5,240  C  264.375,240  255.334,234.796  242.769,222.231  C  230.204,209.666  220,164.167  220,130  C  220,95.833  233.176,37.332  235,27.5  L  86.777,0  C  83.129,19.664  86.777,99  0,99  z " />
<path transform="translate( 0, 0 )" style="stroke: hsl(53.8, 55%, 50%);" id="18"  d=" M  0,99  L  0,245.775  L  0,500  L  0,620  L  277.5,620  L  277.5,245.775  C  264.375,245.775  255.586,240.527  242.917,227.858  C  230.248,215.189  220,168.017  220,132.888  C  220,97.759  233.176,37.332  235,27.5  L  86.777,0  C  83.129,19.664  86.777,99  0,99  z " />
<path transform="translate( 0, 0 )" style="stroke: hsl(80.7, 55%, 50%);" id="27"  d=" M  0,99  L  0,251.55  L  0,500  L  0,620  L  277.5,620  L  277.5,251.55  C  264.375,251.55  255.83,246.26  243.06,233.49  C  230.29,220.72  220,171.867  220,135.775  C  220,99.683  233.176,37.332  235,27.5  L  86.777,0  C  83.129,19.664  86.777,99  0,99  z " />
<path transform="translate( 0, 0 )" style="stroke: hsl(107.6, 55%, 50%);" id="36"  d=" M  0,99  L  0,257.325  L  0,500  L  0,620  L  277.5,620  L  277.5,257.325  C  264.375,257.325  256.068,251.995  243.199,239.126  C  230.33,226.257  220,175.717  220,138.663  C  220,101.609  233.176,37.332  235,27.5  L  86.777,0  C  83.129,19.664  86.777,99  0,99  z " />
<path transform="translate( 0, 0 )" style="stroke: hsl(134.5, 55%, 50%);" id="45"  d=" M  0,99  L  0,263.1  L  0,500  L  0,620  L  277.5,620  L  277.5,263.1  C  264.375,263.1  256.295,257.731  243.332,244.768  C  230.369,231.805  220,179.567  220,141.55  C  220,103.533  233.176,37.332  235,27.5  L  86.777,0  C  83.129,19.664  86.777,99  0,99  z " />
<path transform="translate( 0, 0 )" style="stroke: hsl(161.4, 55%, 50%);" id="54"  d=" M  0,99  L  0,268.875  L  0,500  L  0,620  L  277.5,620  L  277.5,268.875  C  264.375,268.875  256.515,263.468  243.461,250.414  C  230.407,237.36  220,183.417  220,144.438  C  220,105.459  233.176,37.332  235,27.5  L  86.777,0  C  83.129,19.664  86.777,99  0,99  z " />
<path transform="translate( 0, 0 )" style="stroke: hsl(188.3, 55%, 50%);" id="63"  d=" M  0,99  L  0,274.65  L  0,500  L  0,620  L  277.5,620  L  277.5,274.65  C  264.375,274.65  256.728,269.206  243.586,256.064  C  230.444,242.922  220,187.267  220,147.325  C  220,107.383  233.176,37.332  235,27.5  L  86.777,0  C  83.129,19.664  86.777,99  0,99  z " />
<path transform="translate( 0, 0 )" style="stroke: hsl(215.2, 55%, 50%);" id="72"  d=" M  0,99  L  0,280.425  L  0,500  L  0,620  L  277.5,620  L  277.5,280.425  C  264.375,280.425  256.935,274.946  243.707,261.718  C  230.479,248.49  220,191.117  220,150.213  C  220,109.309  233.176,37.332  235,27.5  L  86.777,0  C  83.129,19.664  86.777,99  0,99  z " />
<path transform="translate( 0, 0 )" style="stroke: hsl(242.1, 55%, 50%);" id="81"  d=" M  0,99  L  0,286.2  L  0,500  L  0,620  L  277.5,620  L  277.5,286.2  C  264.375,286.2  257.136,280.686  243.825,267.375  C  230.514,254.064  220,194.967  220,153.1  C  220,111.233  233.176,37.332  235,27.5  L  86.777,0  C  83.129,19.664  86.777,99  0,99  z " />
<path transform="translate( 0, 0 )" style="stroke: hsl(269, 55%, 50%);" id="90"  d=" M  0,99  L  0,291.975  L  0,500  L  0,620  L  277.5,620  L  277.5,291.975  C  264.375,291.975  257.329,286.428  243.938,273.037  C  230.547,259.646  220,198.817  220,155.988  C  220,113.159  233.176,37.332  235,27.5  L  86.777,0  C  83.129,19.664  86.777,99  0,99  z " />
<path transform="translate( 0, 0 )" style="stroke: hsl(295.9, 55%, 50%);" id="99"  d=" M  0,99  L  0,297.75  L  0,500  L  0,620  L  277.5,620  L  277.5,297.75  C  264.375,297.75  257.519,292.171  244.049,278.701  C  230.579,265.231  220,202.667  220,158.875  C  220,115.083  233.176,37.332  235,27.5  L  86.777,0  C  83.129,19.664  86.777,99  0,99  z " />
    </g>
    <!-- End of group #frontBlock -->
    
    <!-- Start of group #sleeveBlock -->
    <g id="sleeveBlock"  transform=" translate(196.877 5)  translate(0 0) " >
        <path class="hidden" id="4"  d=" M  -191.877,0  L  191.877,0  L  191.877,700  L  -191.877,700  z " />
<path transform="translate( 0, 0 )" style="stroke: hsl(26.9, 55%, 50%);" id="10"  d=" M  -117.5,700  L  -176.944,143.303  C  -176.944,143.303  -145.827,118.614  -129.132,101.53  C  -112.437,84.446  -88.472,52.768  -88.472,52.768  C  -88.472,52.768  -72.435,25.737  -51.92,13.501  C  -31.405,1.265  -23.887,-0  5,0  C  23.887,0  40.897,1.242  60.236,15.263  C  79.575,29.284  93.472,67.768  93.472,67.768  C  93.472,67.768  107.431,100.629  125.143,116.657  C  142.855,132.685  176.944,143.303  176.944,143.303  L  117.5,700  z " />
<path transform="translate( 0, 0 )" style="stroke: hsl(53.8, 55%, 50%);" id="19"  d=" M  -117.5,700  L  -178.552,150.381  C  -178.552,150.381  -146.75,123.761  -130.266,106.173  C  -113.782,88.585  -89.276,55.127  -89.276,55.127  C  -89.276,55.127  -73.029,27.466  -52.519,14.801  C  -32.009,2.136  -24.105,-0  5,0  C  24.105,0  41.524,2.223  60.865,16.61  C  80.206,30.997  94.276,70.127  94.276,70.127  C  94.276,70.127  108.614,104.494  126.07,121.117  C  143.526,137.74  178.552,150.381  178.552,150.381  L  117.5,700  z " />
<path transform="translate( 0, 0 )" style="stroke: hsl(80.7, 55%, 50%);" id="28"  d=" M  -117.5,700  L  -180.105,157.212  C  -180.105,157.212  -147.655,128.709  -131.367,110.657  C  -115.079,92.605  -90.053,57.404  -90.053,57.404  C  -90.053,57.404  -73.592,29.122  -53.089,16.053  C  -32.586,2.984  -24.314,-0  5,0  C  24.314,0  42.121,3.172  61.463,17.905  C  80.805,32.638  95.053,72.404  95.053,72.404  C  95.053,72.404  109.771,108.262  126.988,125.43  C  144.205,142.598  180.105,157.212  180.105,157.212  L  117.5,700  z " />
<path transform="translate( 0, 0 )" style="stroke: hsl(107.6, 55%, 50%);" id="37"  d=" M  -117.5,700  L  -181.613,163.848  C  -181.613,163.848  -148.545,133.503  -132.44,115.016  C  -116.335,96.529  -90.807,59.616  -90.807,59.616  C  -90.807,59.616  -74.131,30.725  -53.635,17.269  C  -33.139,3.813  -24.518,-0  5,0  C  24.518,0  42.692,4.097  62.036,19.162  C  81.38,34.227  95.807,74.616  95.807,74.616  C  95.807,74.616  110.904,111.956  127.898,129.629  C  144.892,147.302  181.613,163.848  181.613,163.848  L  117.5,700  z " />
<path transform="translate( 0, 0 )" style="stroke: hsl(134.5, 55%, 50%);" id="46"  d=" M  -117.5,700  L  -183.125,170.501  C  -183.125,170.501  -149.45,138.296  -133.52,119.39  C  -117.59,100.484  -91.563,61.834  -91.563,61.834  C  -91.563,61.834  -74.665,32.322  -54.177,18.486  C  -33.689,4.65  -24.722,-0  5,0  C  24.722,0  43.258,5.026  62.603,20.419  C  81.948,35.812  96.563,76.834  96.563,76.834  C  96.563,76.834  112.049,115.692  128.828,133.848  C  145.607,152.004  183.125,170.501  183.125,170.501  L  117.5,700  z " />
<path transform="translate( 0, 0 )" style="stroke: hsl(161.4, 55%, 50%);" id="55"  d=" M  -117.5,700  L  -184.637,177.151  C  -184.637,177.151  -150.367,143.073  -134.605,123.763  C  -118.843,104.453  -92.319,64.05  -92.319,64.05  C  -92.319,64.05  -75.189,33.91  -54.709,19.701  C  -34.229,5.492  -24.926,-0  5,0  C  24.926,0  43.812,5.956  63.16,21.672  C  82.508,37.388  97.319,79.05  97.319,79.05  C  97.319,79.05  113.202,119.454  129.774,138.073  C  146.346,156.692  184.637,177.151  184.637,177.151  L  117.5,700  z " />
<path transform="translate( 0, 0 )" style="stroke: hsl(188.3, 55%, 50%);" id="64"  d=" M  -117.5,700  L  -186.049,183.365  C  -186.049,183.365  -151.232,147.528  -135.62,127.852  C  -120.008,108.176  -93.025,66.122  -93.025,66.122  C  -93.025,66.122  -75.675,35.387  -55.203,20.835  C  -34.731,6.283  -25.117,-0  5,0  C  25.117,0  44.326,6.828  63.676,22.842  C  83.026,38.856  98.025,81.122  98.025,81.122  C  98.025,81.122  114.282,122.995  130.669,142.03  C  147.056,161.065  186.049,183.365  186.049,183.365  L  117.5,700  z " />
<path transform="translate( 0, 0 )" style="stroke: hsl(215.2, 55%, 50%);" id="73"  d=" M  -117.5,700  L  -187.541,189.93  C  -187.541,189.93  -152.155,152.223  -136.696,132.173  C  -121.237,112.123  -93.771,68.31  -93.771,68.31  C  -93.771,68.31  -76.182,36.938  -55.718,22.031  C  -35.254,7.124  -25.318,-0  5,0  C  25.318,0  44.861,7.75  64.214,24.074  C  83.567,40.398  98.771,83.31  98.771,83.31  C  98.771,83.31  115.428,126.761  131.628,146.218  C  147.828,165.675  187.541,189.93  187.541,189.93  L  117.5,700  z " />
<path transform="translate( 0, 0 )" style="stroke: hsl(242.1, 55%, 50%);" id="82"  d=" M  -117.5,700  L  -188.986,196.289  C  -188.986,196.289  -153.059,156.764  -137.741,136.361  C  -122.423,115.958  -94.493,70.43  -94.493,70.43  C  -94.493,70.43  -76.667,38.435  -56.211,23.188  C  -35.755,7.941  -25.513,-0  5,0  C  25.513,0  45.374,8.645  64.73,25.265  C  84.086,41.885  99.493,85.43  99.493,85.43  C  99.493,85.43  116.542,130.43  132.568,150.282  C  148.594,170.134  188.986,196.289  188.986,196.289  L  117.5,700  z " />
<path transform="translate( 0, 0 )" style="stroke: hsl(269, 55%, 50%);" id="91"  d=" M  -117.5,700  L  -190.409,202.549  C  -190.409,202.549  -153.958,161.226  -138.773,140.486  C  -123.588,119.746  -95.205,72.516  -95.205,72.516  C  -95.205,72.516  -77.141,39.9  -56.692,24.325  C  -36.243,8.75  -25.705,-0  5,0  C  25.705,0  45.872,9.526  65.233,26.435  C  84.594,43.344  100.205,87.516  100.205,87.516  C  100.205,87.516  117.641,134.06  133.503,154.288  C  149.365,174.516  190.409,202.549  190.409,202.549  L  117.5,700  z " />
<path transform="translate( 0, 0 )" style="stroke: hsl(295.9, 55%, 50%);" id="100"  d=" M  -117.5,700  L  -191.877,209.008  C  -191.877,209.008  -154.893,165.825  -139.839,144.745  C  -124.785,123.665  -95.939,74.669  -95.939,74.669  C  -95.939,74.669  -77.625,41.408  -57.183,25.498  C  -36.741,9.588  -25.904,-0  5,0  C  25.904,0  46.379,10.436  65.745,27.64  C  85.111,44.844  100.939,89.669  100.939,89.669  C  100.939,89.669  118.777,137.825  134.477,158.429  C  150.177,179.033  191.877,209.008  191.877,209.008  L  117.5,700  z " />
    </g>
    <!-- End of group #sleeveBlock -->
    
    <!-- Start of group #sampler-backBlock -->
    <g id="sampler-backBlock" >
    </g>
    <!-- End of group #sampler-backBlock -->
    
    <!-- Start of group #sampler-frontBlock -->
    <g id="sampler-frontBlock" >
    </g>
    <!-- End of group #sampler-frontBlock -->
    
    <!-- Start of group #sampler-sleeveBlock -->
    <g id="sampler-sleeveBlock" >
    </g>
    <!-- End of group #sampler-sleeveBlock -->
</g>
<!-- End of group #patternContainer -->

</svg>

