<?xml version="1.0" encoding="UTF-8" standalone="no"?>
<svg
    width ="1469.1897651834"
    height ="2741.8854356909"
    viewbox ="0 0 1469.1897651834 2741.8854356909" xmlns:dc="http://purl.org/dc/elements/1.1/"
    xmlns:cc="http://creativecommons.org/ns#"
    xmlns:rdf="http://www.w3.org/1999/02/22-rdf-syntax-ns#"
    xmlns:svg="http://www.w3.org/2000/svg"
    xmlns="http://www.w3.org/2000/svg"
    xmlns:xlink="http://www.w3.org/1999/xlink"
    xmlns:sodipodi="http://sodipodi.sourceforge.net/DTD/sodipodi-0.dtd"
    xmlns:inkscape="http://www.inkscape.org/namespaces/inkscape" 
>

<style type="text/css">
    <![CDATA[
    path { fill: none; stroke: #000000; stroke-opacity:1; stroke-width: 0.5; stroke-miterlimit:4; stroke-dashoffset:0; stroke-linecap:round; stroke-linejoin:round; }
    path.hidden { fill: none; stroke: none; }]]>
</style>


<!-- Start of group #patternScaleContainer -->
<g id="patternScaleContainer"  transform=" scale(3.54330709 ) " >
    
    <!-- Start of group #sleeveBlock -->
    <g id="sleeveBlock"  transform=" translate(207.319 68.821)  translate(0 0) " >
        <path class="hidden" id="2"  d=" M  -202.319,-63.821  L  202.319,-63.821  L  202.319,700  L  -202.319,700  z " />
<path transform="translate( 0, 0 )" style="stroke: hsl(26.9, 55%, 50%);" id="10"  d=" M  -117.5,700  L  -202.319,123.231  C  -202.319,123.231  -170.425,105.194  -148.708,88.63  C  -126.991,72.066  -101.16,46.077  -101.16,46.077  C  -101.16,46.077  -81.654,20.71  -56.798,9.388  C  -31.942,-1.934  -27.313,-0  5,0  C  27.313,0  40.876,-3.018  64.55,10.603  C  88.224,24.224  106.16,61.077  106.16,61.077  C  106.16,61.077  123.159,89.925  146.097,104.752  C  169.035,119.579  202.319,123.231  202.319,123.231  L  117.5,700  z " />
<path transform="translate( 0, -9.712 )" style="stroke: hsl(53.8, 55%, 50%);" id="19"  d=" M  -117.5,700  L  -195.879,132.943  C  -195.879,132.943  -163.773,112.103  -143.663,94.931  C  -123.553,77.759  -97.94,49.314  -97.94,49.314  C  -97.94,49.314  -79.335,23.151  -55.716,11.259  C  -32.097,-0.633  -26.444,-0  5,0  C  26.444,0  41.23,-1.361  63.657,12.651  C  86.084,26.663  102.94,64.314  102.94,64.314  C  102.94,64.314  119.227,94.988  140.5,110.696  C  161.773,126.404  195.879,132.943  195.879,132.943  L  117.5,700  z " />
<path transform="translate( 0, -17.952 )" style="stroke: hsl(80.7, 55%, 50%);" id="28"  d=" M  -117.5,700  L  -188.669,141.183  C  -188.669,141.183  -156.582,117.748  -138.068,100.257  C  -119.554,82.766  -94.335,52.061  -94.335,52.061  C  -94.335,52.061  -76.716,25.205  -54.416,12.898  C  -32.116,0.591  -25.47,-0  5,0  C  25.47,0  41.427,0.217  62.537,14.468  C  83.647,28.719  99.335,67.061  99.335,67.061  C  99.335,67.061  114.823,99.402  134.424,115.666  C  154.025,131.93  188.669,141.183  188.669,141.183  L  117.5,700  z " />
<path transform="translate( 0, -26.398 )" style="stroke: hsl(107.6, 55%, 50%);" id="37"  d=" M  -117.5,700  L  -182.937,149.629  C  -182.937,149.629  -150.759,123.495  -133.606,105.726  C  -116.453,87.957  -91.469,54.876  -91.469,54.876  C  -91.469,54.876  -74.63,27.281  -53.452,14.575  C  -32.274,1.869  -24.697,-0  5,0  C  24.697,0  41.726,1.823  61.727,16.311  C  81.728,30.799  96.469,69.876  96.469,69.876  C  96.469,69.876  111.379,104.035  129.533,120.779  C  147.687,137.523  182.937,149.629  182.937,149.629  L  117.5,700  z " />
<path transform="translate( 0, -33.54 )" style="stroke: hsl(134.5, 55%, 50%);" id="46"  d=" M  -117.5,700  L  -176.636,156.771  C  -176.636,156.771  -144.566,128.168  -128.737,110.333  C  -112.908,92.498  -88.318,57.257  -88.318,57.257  C  -88.318,57.257  -72.328,29.015  -52.319,16.043  C  -32.31,3.071  -23.846,-0  5,0  C  23.846,0  41.885,3.344  60.74,17.943  C  79.595,32.542  93.318,72.257  93.318,72.257  C  93.318,72.257  107.554,108.064  124.295,125.045  C  141.036,142.026  176.636,156.771  176.636,156.771  L  117.5,700  z " />
<path transform="translate( 0, -39.971 )" style="stroke: hsl(161.4, 55%, 50%);" id="55"  d=" M  -117.5,700  L  -170.51,163.202  C  -170.51,163.202  -138.629,132.263  -124.019,114.475  C  -109.409,96.687  -85.255,59.401  -85.255,59.401  C  -85.255,59.401  -70.09,30.553  -51.203,17.394  C  -32.316,4.235  -23.019,-0  5,0  C  23.019,0  41.996,4.812  59.758,19.454  C  77.52,34.096  90.255,74.401  90.255,74.401  C  90.255,74.401  103.82,111.782  119.254,128.86  C  134.688,145.938  170.51,163.202  170.51,163.202  L  117.5,700  z " />
<path transform="translate( 0, -45.06 )" style="stroke: hsl(188.3, 55%, 50%);" id="64"  d=" M  -117.5,700  L  -163.906,168.291  C  -163.906,168.291  -132.397,135.309  -118.958,117.731  C  -105.519,100.153  -81.953,61.097  -81.953,61.097  C  -81.953,61.097  -67.682,31.748  -49.942,18.523  C  -32.202,5.298  -22.127,-0  5,0  C  22.127,0  41.973,6.169  58.624,20.741  C  75.275,35.313  86.953,76.097  86.953,76.097  C  86.953,76.097  99.735,114.819  113.914,131.806  C  128.093,148.793  163.906,168.291  163.906,168.291  L  117.5,700  z " />
<path transform="translate( 0, -50.992 )" style="stroke: hsl(215.2, 55%, 50%);" id="73"  d=" M  -117.5,700  L  -158.91,174.223  C  -158.91,174.223  -127.591,139.009  -115.115,121.557  C  -102.639,104.105  -79.455,63.074  -79.455,63.074  C  -79.455,63.074  -65.856,33.127  -49.054,19.789  C  -32.252,6.451  -21.453,-0  5,0  C  21.453,0  42.088,7.585  57.841,22.148  C  73.594,36.711  84.455,78.074  84.455,78.074  C  84.455,78.074  96.688,118.371  109.823,135.333  C  122.958,152.295  158.91,174.223  158.91,174.223  L  117.5,700  z " />
<path transform="translate( 0, -55.708 )" style="stroke: hsl(242.1, 55%, 50%);" id="82"  d=" M  -117.5,700  L  -153.467,178.939  C  -153.467,178.939  -122.498,141.781  -110.95,124.58  C  -99.402,107.379  -76.734,64.646  -76.734,64.646  C  -76.734,64.646  -63.876,34.2  -48.031,20.851  C  -32.186,7.502  -20.718,-0  5,0  C  20.718,0  42.081,8.891  56.919,23.35  C  71.757,37.809  81.734,79.646  81.734,79.646  C  81.734,79.646  93.309,121.283  105.442,138.077  C  117.575,154.871  153.467,178.939  153.467,178.939  L  117.5,700  z " />
<path transform="translate( 0, -59.924 )" style="stroke: hsl(269, 55%, 50%);" id="91"  d=" M  -117.5,700  L  -148.233,183.155  C  -148.233,183.155  -117.652,144.188  -106.95,127.278  C  -96.248,110.368  -74.117,66.052  -74.117,66.052  C  -74.117,66.052  -61.979,35.142  -47.039,21.828  C  -32.099,8.514  -20.012,-0  5,0  C  20.012,0  42.039,10.139  56.018,24.46  C  69.997,38.781  79.117,81.052  79.117,81.052  C  79.117,81.052  90.035,123.941  101.253,140.513  C  112.471,157.085  148.233,183.155  148.233,183.155  L  117.5,700  z " />
<path transform="translate( 0, -63.821 )" style="stroke: hsl(295.9, 55%, 50%);" id="100"  d=" M  -117.5,700  L  -143.314,187.052  C  -143.314,187.052  -113.133,146.37  -103.196,129.77  C  -93.259,113.17  -71.657,67.351  -71.657,67.351  C  -71.657,67.351  -60.199,35.996  -46.102,22.746  C  -32.005,9.496  -19.347,-0  5,0  C  19.347,0  41.982,11.344  55.164,25.505  C  68.346,39.666  76.657,82.351  76.657,82.351  C  76.657,82.351  86.943,126.438  97.333,142.758  C  107.723,159.078  143.314,187.052  143.314,187.052  L  117.5,700  z " />
    </g>
    <!-- End of group #sleeveBlock -->
</g>
<!-- End of group #patternScaleContainer -->

</svg>

