<svg xmlns="http://www.w3.org/2000/svg" width="495" height="388" viewbox="0 0 495 388">
  <style type="text/css">
  <![CDATA[
  path{fill:#5C3566;fill-opacity:1;stroke:#292b2c;stroke-width:4;stroke-linecap:round;stroke-linejoin:round;stroke-opacity:1;}
  .no-fill{fill:none;}
  .back{fill:#86739c;}
  circle{stroke:none;fill:#292b2c;fill-opacity:1}
  ]]>
  </style>
  
  <path id="front" class="back" d="M 246.612126,2.1971231 246.612126,2.2087408 C 168.226545,2.4691474 167.931821,35.0520842 146.962817,35.2102928 146.911754,35.2106706 146.862112,35.2102928 146.81086,35.2102928 L 54.361976,35.2102928 C 54.361502,35.2089705 54.326923,35.1170678 54.326923,35.1170678 L 23.467745,35.1170678 C 63.015369,87.6748992 65.934191,143.5975199 65.934191,168.5791725 65.934191,201.2124527 58.62681,286.0275286 23.665838,339.1520772 34.307176,339.1520772 33.361614,338.4421883 39.084343,340.7508055 74.351502,344.3131902 110.526518,348.2934345 142.743077,363.5594752 163.884407,371.6694826 180.014381,378.6216867 207.780991,378.6216867 L 246.612126,378.6216867 247.547267,378.6216867 286.378307,378.6216867 C 314.144917,378.6216867 330.274891,371.6694826 351.416315,363.5594752 383.632874,348.2934345 419.807795,344.3131902 455.074954,340.7508055 460.797778,338.4421883 470.858762,338.4662171 481.500195,338.4662171 446.539128,285.3416684 428.225106,201.2124527 428.225106,168.5791725 428.225106,143.5975199 431.143928,87.6748992 470.691553,35.1170678 L 439.832374,35.1170678 C 439.832374,35.1170678 439.797795,35.2089705 439.797322,35.2102928 L 347.348532,35.2102928 C 347.29728,35.2102928 347.247543,35.2106706 347.196575,35.2102928 326.227571,35.0520842 325.932752,2.4691474 247.547267,2.2087408 L 247.547267,2.1971231 C 247.388868,2.1971231 247.237479,2.1968397 247.079649,2.1971231 246.921913,2.1968397 246.770525,2.1971231 246.612126,2.1971231 z" />
  <path id="body" d="M 211.9375,8.625 C 166.139854,8.625 120.34375,8.65625 120.34375,8.65625 80.042442,9.1061357 70.620281,18.5098556 49.09375,26.0625 L 49.09375,26.09375 C 34.340743,31.2665806 20.324343,35.5625 2,35.5625 18.902275,86.0792886 62.53125,131.3086542 62.53125,171.09375 62.53125,213.8814516 20.511318,287.0378524 2,345.34375 15.729598,345.34375 28.05586,345.782488 39.25,347.1875 39.244738,347.3265901 39.223936,347.4544394 39.21875,347.59375 42.885289,347.9868175 46.409001,348.40767 49.8125,348.875 50.254661,348.963966 50.717826,349.0630607 51.15625,349.15625 51.15625,349.15625 51.187309,349.0632298 51.1875,349.0625 159.654908,369.4041735 84.209765,377.0862272 211.9375,385.75 L 211.9375,35.5625 211.9375,8.625 z M 282.21875,8.625 282.21875,35.5625 282.21875,385.75 C 409.946485,377.0862272 334.532592,369.4041735 443,349.0625 443.00019,349.0632298 443,349.15625 443,349.15625 443.438425,349.0630607 443.901589,348.963966 444.34375,348.875 447.747249,348.40767 451.270962,347.9868175 454.9375,347.59375 454.932315,347.4544394 454.911511,347.3265901 454.90625,347.1875 466.10039,345.782488 478.426652,345.34375 492.15625,345.34375 473.644931,287.0378524 431.625,217.3635215 431.625,171.09375 431.625,125.8331461 475.253975,86.0792886 492.15625,35.5625 473.831907,35.5625 459.815508,31.2665806 445.0625,26.09375 L 445.0625,26.0625 C 423.53597,18.5098556 414.113808,9.1061357 373.8125,8.65625 373.8125,8.65625 328.016396,8.625 282.21875,8.625 z" />
  <g id="seams">
    <path class="no-fill" d="M 39.230277,347.5943018 C 43.710793,226.8046209 97.600895,188.6579223 97.600895,170.2522171 97.600895,150.0483755 50.386214,35.5599269 50.386214,35.5599269 L 49.099689,26.0584619" />
    <path class="no-fill" d="M 118.838154,367.873953 C 123.306241,319.1646255 134.943076,186.6981539 134.943076,170.2522171 134.943076,150.0483755 122.784432,35.5599269 122.784432,35.5599269 L 120.35268,8.6377537" />
    <path class="no-fill" d="M 454.929105,347.5943018 C 450.44859,226.8046209 396.558488,188.6579223 396.558488,170.2522171 396.558488,150.0483755 443.773168,35.5599269 443.773168,35.5599269 L 445.059694,26.0584619" />
    <path class="no-fill" d="M 375.321228,367.873953 C 370.853142,319.1646255 359.216307,186.6981539 359.216307,170.2522171 359.216307,150.0483755 371.374951,35.5599269 371.374951,35.5599269 L 373.806702,8.6377537" />
    <path class="no-fill" d="M 247.341879,1.9999999 247.341879,378.8343946" />
  </g>
  <g id="eylets">
    <circle cx="290" cy="17.7"  r="5" />
    <circle cx="290" cy="36.6"  r="5" />
    <circle cx="290" cy="36.6"  r="5" />
    <circle cx="290" cy="55.5"  r="5" />
    <circle cx="290" cy="55.4"  r="5" />
    <circle cx="290" cy="74.4"  r="5" />
    <circle cx="290" cy="74.3"  r="5" />
    <circle cx="290" cy="93.3"  r="5" />
    <circle cx="290" cy="93.2"  r="5" />
    <circle cx="290" cy="112.2" r="5" />
    <circle cx="290" cy="112.1" r="5" />
    <circle cx="290" cy="131.1" r="5" />
    <circle cx="290" cy="131.0" r="5" />
    <circle cx="290" cy="150.0" r="5" />
    <circle cx="290" cy="149.9" r="5" />
    <circle cx="290" cy="168.9" r="5" />
    <circle cx="290" cy="168.8" r="5" />
    <circle cx="290" cy="187.7" r="5" />
    <circle cx="290" cy="187.7" r="5" />
    <circle cx="290" cy="206.6" r="5" />
    <circle cx="290" cy="206.6" r="5" />
    <circle cx="290" cy="225.5" r="5" />
    <circle cx="290" cy="225.5" r="5" />
    <circle cx="290" cy="244.4" r="5" />
    <circle cx="290" cy="244.3" r="5" />
    <circle cx="290" cy="263.3" r="5" />
    <circle cx="290" cy="263.2" r="5" />
    <circle cx="290" cy="282.2" r="5" />
    <circle cx="290" cy="282.1" r="5" />
    <circle cx="290" cy="301.1" r="5" />
    <circle cx="290" cy="301.0" r="5" />
    <circle cx="290" cy="320.0" r="5" />
    <circle cx="290" cy="319.9" r="5" />
    <circle cx="290" cy="338.9" r="5" />
    <circle cx="290" cy="338.8" r="5" />
    <circle cx="290" cy="357.8" r="5" />
    <circle cx="290" cy="357.7" r="5" />
    <circle cx="290" cy="376.7" r="5" />
    <circle cx="204" cy="17.7"  r="5" />
    <circle cx="204" cy="36.6"  r="5" />
    <circle cx="204" cy="36.6"  r="5" />
    <circle cx="204" cy="55.5"  r="5" />
    <circle cx="204" cy="55.4"  r="5" />
    <circle cx="204" cy="74.4"  r="5" />
    <circle cx="204" cy="74.3"  r="5" />
    <circle cx="204" cy="93.3"  r="5" />
    <circle cx="204" cy="93.2"  r="5" />
    <circle cx="204" cy="112.2" r="5" />
    <circle cx="204" cy="112.1" r="5" />
    <circle cx="204" cy="131.1" r="5" />
    <circle cx="204" cy="131.0" r="5" />
    <circle cx="204" cy="150.0" r="5" />
    <circle cx="204" cy="149.9" r="5" />
    <circle cx="204" cy="168.9" r="5" />
    <circle cx="204" cy="168.8" r="5" />
    <circle cx="204" cy="187.7" r="5" />
    <circle cx="204" cy="187.7" r="5" />
    <circle cx="204" cy="206.6" r="5" />
    <circle cx="204" cy="206.6" r="5" />
    <circle cx="204" cy="225.5" r="5" />
    <circle cx="204" cy="225.5" r="5" />
    <circle cx="204" cy="244.4" r="5" />
    <circle cx="204" cy="244.3" r="5" />
    <circle cx="204" cy="263.3" r="5" />
    <circle cx="204" cy="263.2" r="5" />
    <circle cx="204" cy="282.2" r="5" />
    <circle cx="204" cy="282.1" r="5" />
    <circle cx="204" cy="301.1" r="5" />
    <circle cx="204" cy="301.0" r="5" />
    <circle cx="204" cy="320.0" r="5" />
    <circle cx="204" cy="319.9" r="5" />
    <circle cx="204" cy="338.9" r="5" />
    <circle cx="204" cy="338.8" r="5" />
    <circle cx="204" cy="357.8" r="5" />
    <circle cx="204" cy="357.7" r="5" />
    <circle cx="204" cy="376.7" r="5" />
  </g>
  <g id="laces">
    <path d="M 290,17.7  204,36.6" />
    <path d="M 290,36.6  204,17.7" />
    <path d="M 290,36.6  204,55.5" />
    <path d="M 290,55.5  204,36.6" />
    <path d="M 290,55.4  204,74.4" />
    <path d="M 290,74.4  204,55.4" />
    <path d="M 290,74.3  204,93.3" />
    <path d="M 290,93.3  204,74.3" />
    <path d="M 290,93.2  204,112.2" />
    <path d="M 290,112.2 204,93.27" />
    <path d="M 290,112.1 204,131.1" />
    <path d="M 290,131.1 204,112.1" />
    <path d="M 290,131.0 204,150.0" />
    <path d="M 290,150.0 204,131.0" />
    <path d="M 290,149.9 204,168.9" />
    <path d="M 290,168.9 204,149.9" />
    <path d="M 290,168.8 204,187.7" />
    <path d="M 290,187.7 204,168.8" />
    <path d="M 290,187.7 204,206.6" />
    <path d="M 290,206.6 204,187.7" />
    <path d="M 290,206.6 204,225.5" />
    <path d="M 290,225.5 204,206.6" />
    <path d="M 290,225.5 204,244.4" />
    <path d="M 290,244.4 204,225.5" />
    <path d="M 290,244.3 204,263.3" />
    <path d="M 290,263.3 204,244.3" />
    <path d="M 290,263.2 204,282.2" />
    <path d="M 290,282.2 204,263.2" />
    <path d="M 290,282.1 204,301.1" />
    <path d="M 290,301.1 204,282.1" />
    <path d="M 290,301.0 204,320.0" />
    <path d="M 290,320.0 204,301.0" />
    <path d="M 290,319.9 204,338.9" />
    <path d="M 290,338.9 204,319.9" />
    <path d="M 290,338.8 204,357.8" />
    <path d="M 290,357.8 204,338.8" />
    <path d="M 290,357.7 204,376.7" />
    <path d="M 290,376.7 204,357.7" />
  </g>

</svg>
