<?xml version="1.0" encoding="UTF-8" standalone="no"?>
<svg
    xmlns="http://www.w3.org/2000/svg"
    xmlns:svg="http://www.w3.org/2000/svg"
    xmlns:xlink="http://www.w3.org/1999/xlink"
    xmlns:freesewing="http://freesewing.org/namespaces/freesewing" viewBox ="0 0 1687 784"
    width ="1687mm"
    height ="784mm"
    freesewing:version ="1.6.5"
    freesewing:origin ="joost.core.freesewing.org" 
>

<style type="text/css">
    <![CDATA[
    path { fill: none; stroke: #000000; stroke-opacity:1; stroke-width: 0.5; stroke-miterlimit:4; stroke-dashoffset:0; stroke-linecap:round; stroke-linejoin:round; }
    path.hidden { fill: none; stroke: none; }]]>
</style>


<!-- Start of group #patternContainer -->
<g id="patternContainer" >
    
    <!-- Start of group #backBlock -->
    <g id="backBlock" >
    </g>
    <!-- End of group #backBlock -->
    
    <!-- Start of group #frontBlock -->
    <g id="frontBlock" >
    </g>
    <!-- End of group #frontBlock -->
    
    <!-- Start of group #sleeveBlock -->
    <g id="sleeveBlock" >
    </g>
    <!-- End of group #sleeveBlock -->
    
    <!-- Start of group #topsleeveBlock -->
    <g id="topsleeveBlock" >
    </g>
    <!-- End of group #topsleeveBlock -->
    
    <!-- Start of group #undersleeveBlock -->
    <g id="undersleeveBlock" >
    </g>
    <!-- End of group #undersleeveBlock -->
    
    <!-- Start of group #back -->
    <g id="back"  transform=" translate(5 5)  translate(311.6 0) " >
        <path class="hidden" id="2"  d=" M  0,0  L  266.421,0  L  266.421,751.85  L  0,751.85  z " />
<path transform="translate( 0, 0 )" style="stroke: hsl(26.9, 55%, 50%);" id="290"  d=" M  5.4,20  C  5.4,20  84.058,19.814  86.777,0  L  232.5,20  C  231.14,29.907  220,110.083  220,155.125  C  220,200.167  227.359,247.359  245.125,265.125  C  227.359,282.891  210.296,415.042  210.296,490  C  210.296,509.333  210.476,528.667  210.692,548  L  249.841,560.868  C  251.127,585.38  251.421,610.627  251.421,635  L  251.421,751.85  L  21.25,751.85  L  21.25,635  C  21.25,586.667  14.625,538.333  14.625,490  C  14.625,393.389  -0,296.778  0,200.167  C  0,110.083  5.4,20  5.4,20  z " />
<path transform="translate( 0, 0 )" style="stroke: hsl(53.8, 55%, 50%);" id="594"  d=" M  5.4,20  C  5.4,20  84.058,19.814  86.777,0  L  232.5,20  C  231.14,29.907  220,110.083  220,155.125  C  220,200.167  227.359,247.359  245.125,265.125  C  227.359,282.891  210.296,415.042  210.296,490  C  210.296,509.333  210.716,528.667  211.22,548  L  250.542,560.221  C  252.227,584.742  252.921,610.302  252.921,635  L  252.921,751.85  L  19.25,751.85  L  19.25,635  C  19.25,586.667  14.625,538.333  14.625,490  C  14.625,393.389  -0,296.778  0,200.167  C  0,110.083  5.4,20  5.4,20  z " />
<path transform="translate( 0, 0 )" style="stroke: hsl(80.7, 55%, 50%);" id="898"  d=" M  5.4,20  C  5.4,20  84.058,19.814  86.777,0  L  232.5,20  C  231.14,29.907  220,110.083  220,155.125  C  220,200.167  227.359,247.359  245.125,265.125  C  227.359,282.891  210.296,415.042  210.296,490  C  210.296,509.333  210.956,528.667  211.748,548  L  251.214,559.627  C  253.318,584.114  254.421,609.973  254.421,635  L  254.421,751.85  L  17.25,751.85  L  17.25,635  C  17.25,586.667  14.625,538.333  14.625,490  C  14.625,393.389  -0,296.778  0,200.167  C  0,110.083  5.4,20  5.4,20  z " />
<path transform="translate( 0, 0 )" style="stroke: hsl(107.6, 55%, 50%);" id="1202"  d=" M  5.4,20  C  5.4,20  84.058,19.814  86.777,0  L  232.5,20  C  231.14,29.907  220,110.083  220,155.125  C  220,200.167  227.359,247.359  245.125,265.125  C  227.359,282.891  210.296,415.042  210.296,490  C  210.296,509.333  211.196,528.667  212.276,548  L  251.895,558.985  C  254.395,583.455  255.921,609.68  255.921,635  L  255.921,751.85  L  15.25,751.85  L  15.25,635  C  15.25,586.667  14.625,538.333  14.625,490  C  14.625,393.389  -0,296.778  0,200.167  C  0,110.083  5.4,20  5.4,20  z " />
<path transform="translate( 0, 0 )" style="stroke: hsl(134.5, 55%, 50%);" id="1506"  d=" M  5.4,20  C  5.4,20  84.058,19.814  86.777,0  L  232.5,20  C  231.14,29.907  220,110.083  220,155.125  C  220,200.167  227.359,247.359  245.125,265.125  C  227.359,282.891  210.296,415.042  210.296,490  C  210.296,509.333  211.436,528.667  212.804,548  L  252.564,558.345  C  255.467,582.851  257.421,609.359  257.421,635  L  257.421,751.85  L  13.25,751.85  L  13.25,635  C  13.25,586.667  14.625,538.333  14.625,490  C  14.625,393.389  -0,296.778  0,200.167  C  0,110.083  5.4,20  5.4,20  z " />
<path transform="translate( 0, 0 )" style="stroke: hsl(161.4, 55%, 50%);" id="1810"  d=" M  5.4,20  C  5.4,20  84.058,19.814  86.777,0  L  232.5,20  C  231.14,29.907  220,110.083  220,155.125  C  220,200.167  227.359,247.359  245.125,265.125  C  227.359,282.891  210.296,415.042  210.296,490  C  210.296,509.333  211.676,528.667  213.332,548  L  253.224,557.708  C  256.526,582.211  258.921,609.051  258.921,635  L  258.921,751.85  L  11.25,751.85  L  11.25,635  C  11.25,586.667  14.625,538.333  14.625,490  C  14.625,393.389  -0,296.778  0,200.167  C  0,110.083  5.4,20  5.4,20  z " />
<path transform="translate( 0, 0 )" style="stroke: hsl(188.3, 55%, 50%);" id="2114"  d=" M  5.4,20  C  5.4,20  84.058,19.814  86.777,0  L  232.5,20  C  231.14,29.907  220,110.083  220,155.125  C  220,200.167  227.359,247.359  245.125,265.125  C  227.359,282.891  210.296,415.042  210.296,490  C  210.296,509.333  211.916,528.667  213.86,548  L  253.89,557.028  C  257.578,581.605  260.421,608.75  260.421,635  L  260.421,751.85  L  9.25,751.85  L  9.25,635  C  9.25,586.667  14.625,538.333  14.625,490  C  14.625,393.389  -0,296.778  0,200.167  C  0,110.083  5.4,20  5.4,20  z " />
<path transform="translate( 0, 0 )" style="stroke: hsl(215.2, 55%, 50%);" id="2418"  d=" M  5.4,20  C  5.4,20  84.058,19.814  86.777,0  L  232.5,20  C  231.14,29.907  220,110.083  220,155.125  C  220,200.167  227.359,247.359  245.125,265.125  C  227.359,282.891  210.296,415.042  210.296,490  C  210.296,509.333  212.156,528.667  214.388,548  L  254.53,556.4  C  258.62,580.99  261.921,608.437  261.921,635  L  261.921,751.85  L  7.25,751.85  L  7.25,635  C  7.25,586.667  14.625,538.333  14.625,490  C  14.625,393.389  -0,296.778  0,200.167  C  0,110.083  5.4,20  5.4,20  z " />
<path transform="translate( 0, 0 )" style="stroke: hsl(242.1, 55%, 50%);" id="2722"  d=" M  5.4,20  C  5.4,20  84.058,19.814  86.777,0  L  232.5,20  C  231.14,29.907  220,110.083  220,155.125  C  220,200.167  227.359,247.359  245.125,265.125  C  227.359,282.891  210.296,415.042  210.296,490  C  210.296,509.333  212.396,528.667  214.916,548  L  255.16,555.777  C  259.652,580.372  263.421,608.134  263.421,635  L  263.421,751.85  L  5.25,751.85  L  5.25,635  C  5.25,586.667  14.625,538.333  14.625,490  C  14.625,393.389  -0,296.778  0,200.167  C  0,110.083  5.4,20  5.4,20  z " />
<path transform="translate( 0, 0 )" style="stroke: hsl(269, 55%, 50%);" id="3026"  d=" M  5.4,20  C  5.4,20  84.058,19.814  86.777,0  L  232.5,20  C  231.14,29.907  220,110.083  220,155.125  C  220,200.167  227.359,247.359  245.125,265.125  C  227.359,282.891  210.296,415.042  210.296,490  C  210.296,509.333  212.636,528.667  215.444,548  L  255.783,555.162  C  260.676,579.765  264.921,607.826  264.921,635  L  264.921,751.85  L  3.25,751.85  L  3.25,635  C  3.25,586.667  14.625,538.333  14.625,490  C  14.625,393.389  -0,296.778  0,200.167  C  0,110.083  5.4,20  5.4,20  z " />
<path transform="translate( 0, 0 )" style="stroke: hsl(295.9, 55%, 50%);" id="3330"  d=" M  5.4,20  C  5.4,20  84.058,19.814  86.777,0  L  232.5,20  C  231.14,29.907  220,110.083  220,155.125  C  220,200.167  227.359,247.359  245.125,265.125  C  227.359,282.891  210.296,415.042  210.296,490  C  210.296,509.333  212.876,528.667  215.972,548  L  256.395,554.55  C  261.692,579.168  266.421,607.52  266.421,635  L  266.421,751.85  L  1.25,751.85  L  1.25,635  C  1.25,586.667  14.625,538.333  14.625,490  C  14.625,393.389  -0,296.778  0,200.167  C  0,110.083  5.4,20  5.4,20  z " />
    </g>
    <!-- End of group #back -->
    
    <!-- Start of group #front -->
    <g id="front"  transform=" translate(26.6 11.081)  translate(0 0) " >
        <path class="hidden" id="3"  d=" M  -21.6,-6.081  L  280,-6.081  L  280,768.307  L  -21.6,768.307  z " />
<path transform="translate( 0, 0 )" style="stroke: hsl(26.9, 55%, 50%);" id="291"  d=" M  150.916,500.875  L  246.991,500.875  M  248.098,697.263  L  113.4,697.263  L  113.4,500.875  L  137.012,500.875 " />
<path transform="translate( 0, 0 )" style="stroke: hsl(26.9, 55%, 50%);" id="292"  d=" M  -21.6,420.088  C  -21.6,287.436  -18.441,92.277  -18.441,92.277  L  11.54,91.205  L  66.018,67.317  L  95.197,-6.081  L  238.653,20.383  C  235.932,35.134  218,110.083  218,155.125  C  218,200.167  227.359,247.359  245.125,265.125  C  256.673,276.673  267.943,283.824  280,287.442  C  280,287.442  246.973,415.042  246.973,490  C  246.973,538.333  248.098,586.667  248.098,635  L  248.098,758.086  L  74.429,768.057  C  12.405,771.618  -11.996,738.527  -19.939,594.627  C  -21.6,564.535  -21.6,541.553  -21.6,518.572  L  -21.6,420.088  z  M  143.964,562.5  C  143.964,562.5  151.277,514.167  151.277,490  C  151.277,445.611  143.964,356.833  143.964,356.833  C  143.964,356.833  136.651,445.611  136.651,490  C  136.651,514.167  143.964,562.5  143.964,562.5  z " />
<path transform="translate( 0, 0 )" style="stroke: hsl(26.9, 55%, 50%);" id="293"  d=" M  82.5,290.25  L  82.5,275.12  L  186.602,261.415  L  186.602,276.545  L  82.5,290.25  z " />
<path transform="translate( 0, 0 )" style="stroke: hsl(26.9, 55%, 50%);" id="294"  d=" M  -21.6,420.088  L  51.576,73.65 " />
<path transform="translate( 0, 0 )" style="stroke: hsl(53.8, 55%, 50%);" id="595"  d=" M  150.916,500.875  L  247.015,500.875  M  249.598,697.263  L  113.4,697.263  L  113.4,500.875  L  137.012,500.875 " />
<path transform="translate( 0, 0 )" style="stroke: hsl(53.8, 55%, 50%);" id="596"  d=" M  -21.6,420.088  C  -21.6,287.436  -18.441,92.277  -18.441,92.277  L  11.54,91.205  L  66.018,67.317  L  95.197,-6.081  L  238.653,20.383  C  235.932,35.134  218,110.083  218,155.125  C  218,200.167  227.359,247.359  245.125,265.125  C  256.673,276.673  267.943,283.824  280,287.442  C  280,287.442  246.973,415.042  246.973,490  C  246.973,538.333  249.598,586.667  249.598,635  L  249.598,758.059  L  74.88,768.049  C  12.48,771.616  -11.996,738.527  -19.939,594.627  C  -21.6,564.535  -21.6,541.553  -21.6,518.572  L  -21.6,420.088  z  M  143.964,562.5  C  143.964,562.5  151.277,514.167  151.277,490  C  151.277,445.611  143.964,356.833  143.964,356.833  C  143.964,356.833  136.651,445.611  136.651,490  C  136.651,514.167  143.964,562.5  143.964,562.5  z " />
<path transform="translate( 0, 0 )" style="stroke: hsl(53.8, 55%, 50%);" id="597"  d=" M  82.5,290.25  L  82.5,275.12  L  186.602,261.415  L  186.602,276.545  L  82.5,290.25  z " />
<path transform="translate( 0, 0 )" style="stroke: hsl(53.8, 55%, 50%);" id="598"  d=" M  -21.6,420.088  L  51.576,73.65 " />
<path transform="translate( 0, 0 )" style="stroke: hsl(80.7, 55%, 50%);" id="899"  d=" M  150.916,500.875  L  247.039,500.875  M  251.098,697.263  L  113.4,697.263  L  113.4,500.875  L  137.012,500.875 " />
<path transform="translate( 0, 0 )" style="stroke: hsl(80.7, 55%, 50%);" id="900"  d=" M  -21.6,420.088  C  -21.6,287.436  -18.441,92.277  -18.441,92.277  L  11.54,91.205  L  66.018,67.317  L  95.197,-6.081  L  238.653,20.383  C  235.932,35.134  218,110.083  218,155.125  C  218,200.167  227.359,247.359  245.125,265.125  C  256.673,276.673  267.943,283.824  280,287.442  C  280,287.442  246.973,415.042  246.973,490  C  246.973,538.333  251.098,586.667  251.098,635  L  251.098,758.034  L  75.329,768.041  C  12.555,771.615  -11.996,738.527  -19.939,594.627  C  -21.6,564.535  -21.6,541.553  -21.6,518.572  L  -21.6,420.088  z  M  143.964,562.5  C  143.964,562.5  151.277,514.167  151.277,490  C  151.277,445.611  143.964,356.833  143.964,356.833  C  143.964,356.833  136.651,445.611  136.651,490  C  136.651,514.167  143.964,562.5  143.964,562.5  z " />
<path transform="translate( 0, 0 )" style="stroke: hsl(80.7, 55%, 50%);" id="901"  d=" M  82.5,290.25  L  82.5,275.12  L  186.602,261.415  L  186.602,276.545  L  82.5,290.25  z " />
<path transform="translate( 0, 0 )" style="stroke: hsl(80.7, 55%, 50%);" id="902"  d=" M  -21.6,420.088  L  51.576,73.65 " />
<path transform="translate( 0, 0 )" style="stroke: hsl(107.6, 55%, 50%);" id="1203"  d=" M  150.916,500.875  L  247.063,500.875  M  252.598,697.263  L  113.4,697.263  L  113.4,500.875  L  137.012,500.875 " />
<path transform="translate( 0, 0 )" style="stroke: hsl(107.6, 55%, 50%);" id="1204"  d=" M  -21.6,420.088  C  -21.6,287.436  -18.441,92.277  -18.441,92.277  L  11.54,91.205  L  66.018,67.317  L  95.197,-6.081  L  238.653,20.383  C  235.932,35.134  218,110.083  218,155.125  C  218,200.167  227.359,247.359  245.125,265.125  C  256.673,276.673  267.943,283.824  280,287.442  C  280,287.442  246.973,415.042  246.973,490  C  246.973,538.333  252.598,586.667  252.598,635  L  252.598,758.008  L  75.779,768.033  C  12.63,771.614  -11.996,738.527  -19.939,594.627  C  -21.6,564.535  -21.6,541.553  -21.6,518.572  L  -21.6,420.088  z  M  143.964,562.5  C  143.964,562.5  151.277,514.167  151.277,490  C  151.277,445.611  143.964,356.833  143.964,356.833  C  143.964,356.833  136.651,445.611  136.651,490  C  136.651,514.167  143.964,562.5  143.964,562.5  z " />
<path transform="translate( 0, 0 )" style="stroke: hsl(107.6, 55%, 50%);" id="1205"  d=" M  82.5,290.25  L  82.5,275.12  L  186.602,261.415  L  186.602,276.545  L  82.5,290.25  z " />
<path transform="translate( 0, 0 )" style="stroke: hsl(107.6, 55%, 50%);" id="1206"  d=" M  -21.6,420.088  L  51.576,73.65 " />
<path transform="translate( 0, 0 )" style="stroke: hsl(134.5, 55%, 50%);" id="1507"  d=" M  150.916,500.875  L  247.087,500.875  M  254.098,697.263  L  113.4,697.263  L  113.4,500.875  L  137.012,500.875 " />
<path transform="translate( 0, 0 )" style="stroke: hsl(134.5, 55%, 50%);" id="1508"  d=" M  -21.6,420.088  C  -21.6,287.436  -18.441,92.277  -18.441,92.277  L  11.54,91.205  L  66.018,67.317  L  95.197,-6.081  L  238.653,20.383  C  235.932,35.134  218,110.083  218,155.125  C  218,200.167  227.359,247.359  245.125,265.125  C  256.673,276.673  267.943,283.824  280,287.442  C  280,287.442  246.973,415.042  246.973,490  C  246.973,538.333  254.098,586.667  254.098,635  L  254.098,757.982  L  76.23,768.026  C  12.705,771.613  -11.996,738.527  -19.939,594.627  C  -21.6,564.535  -21.6,541.553  -21.6,518.572  L  -21.6,420.088  z  M  143.964,562.5  C  143.964,562.5  151.277,514.167  151.277,490  C  151.277,445.611  143.964,356.833  143.964,356.833  C  143.964,356.833  136.651,445.611  136.651,490  C  136.651,514.167  143.964,562.5  143.964,562.5  z " />
<path transform="translate( 0, 0 )" style="stroke: hsl(134.5, 55%, 50%);" id="1509"  d=" M  82.5,290.25  L  82.5,275.12  L  186.602,261.415  L  186.602,276.545  L  82.5,290.25  z " />
<path transform="translate( 0, 0 )" style="stroke: hsl(134.5, 55%, 50%);" id="1510"  d=" M  -21.6,420.088  L  51.576,73.65 " />
<path transform="translate( 0, 0 )" style="stroke: hsl(161.4, 55%, 50%);" id="1811"  d=" M  150.916,500.875  L  247.111,500.875  M  255.598,697.263  L  113.4,697.263  L  113.4,500.875  L  137.012,500.875 " />
<path transform="translate( 0, 0 )" style="stroke: hsl(161.4, 55%, 50%);" id="1812"  d=" M  -21.6,420.088  C  -21.6,287.436  -18.441,92.277  -18.441,92.277  L  11.54,91.205  L  66.018,67.317  L  95.197,-6.081  L  238.653,20.383  C  235.932,35.134  218,110.083  218,155.125  C  218,200.167  227.359,247.359  245.125,265.125  C  256.673,276.673  267.943,283.824  280,287.442  C  280,287.442  246.973,415.042  246.973,490  C  246.973,538.333  255.598,586.667  255.598,635  L  255.598,757.957  L  76.68,768.018  C  12.78,771.611  -11.996,738.527  -19.939,594.627  C  -21.6,564.535  -21.6,541.553  -21.6,518.572  L  -21.6,420.088  z  M  143.964,562.5  C  143.964,562.5  151.277,514.167  151.277,490  C  151.277,445.611  143.964,356.833  143.964,356.833  C  143.964,356.833  136.651,445.611  136.651,490  C  136.651,514.167  143.964,562.5  143.964,562.5  z " />
<path transform="translate( 0, 0 )" style="stroke: hsl(161.4, 55%, 50%);" id="1813"  d=" M  82.5,290.25  L  82.5,275.12  L  186.602,261.415  L  186.602,276.545  L  82.5,290.25  z " />
<path transform="translate( 0, 0 )" style="stroke: hsl(161.4, 55%, 50%);" id="1814"  d=" M  -21.6,420.088  L  51.576,73.65 " />
<path transform="translate( 0, 0 )" style="stroke: hsl(188.3, 55%, 50%);" id="2115"  d=" M  150.916,500.875  L  247.135,500.875  M  257.098,697.263  L  113.4,697.263  L  113.4,500.875  L  137.012,500.875 " />
<path transform="translate( 0, 0 )" style="stroke: hsl(188.3, 55%, 50%);" id="2116"  d=" M  -21.6,420.088  C  -21.6,287.436  -18.441,92.277  -18.441,92.277  L  11.54,91.205  L  66.018,67.317  L  95.197,-6.081  L  238.653,20.383  C  235.932,35.134  218,110.083  218,155.125  C  218,200.167  227.359,247.359  245.125,265.125  C  256.673,276.673  267.943,283.824  280,287.442  C  280,287.442  246.973,415.042  246.973,490  C  246.973,538.333  257.098,586.667  257.098,635  L  257.098,757.932  L  77.129,768.011  C  12.855,771.61  -11.996,738.527  -19.939,594.627  C  -21.6,564.535  -21.6,541.553  -21.6,518.572  L  -21.6,420.088  z  M  143.964,562.5  C  143.964,562.5  151.277,514.167  151.277,490  C  151.277,445.611  143.964,356.833  143.964,356.833  C  143.964,356.833  136.651,445.611  136.651,490  C  136.651,514.167  143.964,562.5  143.964,562.5  z " />
<path transform="translate( 0, 0 )" style="stroke: hsl(188.3, 55%, 50%);" id="2117"  d=" M  82.5,290.25  L  82.5,275.12  L  186.602,261.415  L  186.602,276.545  L  82.5,290.25  z " />
<path transform="translate( 0, 0 )" style="stroke: hsl(188.3, 55%, 50%);" id="2118"  d=" M  -21.6,420.088  L  51.576,73.65 " />
<path transform="translate( 0, 0 )" style="stroke: hsl(215.2, 55%, 50%);" id="2419"  d=" M  150.916,500.875  L  247.159,500.875  M  258.598,697.263  L  113.4,697.263  L  113.4,500.875  L  137.012,500.875 " />
<path transform="translate( 0, 0 )" style="stroke: hsl(215.2, 55%, 50%);" id="2420"  d=" M  -21.6,420.088  C  -21.6,287.436  -18.441,92.277  -18.441,92.277  L  11.54,91.205  L  66.018,67.317  L  95.197,-6.081  L  238.653,20.383  C  235.932,35.134  218,110.083  218,155.125  C  218,200.167  227.359,247.359  245.125,265.125  C  256.673,276.673  267.943,283.824  280,287.442  C  280,287.442  246.973,415.042  246.973,490  C  246.973,538.333  258.598,586.667  258.598,635  L  258.598,757.907  L  77.579,768.003  C  12.93,771.609  -11.996,738.527  -19.939,594.627  C  -21.6,564.535  -21.6,541.553  -21.6,518.572  L  -21.6,420.088  z  M  143.964,562.5  C  143.964,562.5  151.277,514.167  151.277,490  C  151.277,445.611  143.964,356.833  143.964,356.833  C  143.964,356.833  136.651,445.611  136.651,490  C  136.651,514.167  143.964,562.5  143.964,562.5  z " />
<path transform="translate( 0, 0 )" style="stroke: hsl(215.2, 55%, 50%);" id="2421"  d=" M  82.5,290.25  L  82.5,275.12  L  186.602,261.415  L  186.602,276.545  L  82.5,290.25  z " />
<path transform="translate( 0, 0 )" style="stroke: hsl(215.2, 55%, 50%);" id="2422"  d=" M  -21.6,420.088  L  51.576,73.65 " />
<path transform="translate( 0, 0 )" style="stroke: hsl(242.1, 55%, 50%);" id="2723"  d=" M  150.916,500.875  L  247.183,500.875  M  260.098,697.263  L  113.4,697.263  L  113.4,500.875  L  137.012,500.875 " />
<path transform="translate( 0, 0 )" style="stroke: hsl(242.1, 55%, 50%);" id="2724"  d=" M  -21.6,420.088  C  -21.6,287.436  -18.441,92.277  -18.441,92.277  L  11.54,91.205  L  66.018,67.317  L  95.197,-6.081  L  238.653,20.383  C  235.932,35.134  218,110.083  218,155.125  C  218,200.167  227.359,247.359  245.125,265.125  C  256.673,276.673  267.943,283.824  280,287.442  C  280,287.442  246.973,415.042  246.973,490  C  246.973,538.333  260.098,586.667  260.098,635  L  260.098,757.883  L  78.03,767.996  C  13.005,771.608  -11.996,738.527  -19.939,594.627  C  -21.6,564.535  -21.6,541.553  -21.6,518.572  L  -21.6,420.088  z  M  143.964,562.5  C  143.964,562.5  151.277,514.167  151.277,490  C  151.277,445.611  143.964,356.833  143.964,356.833  C  143.964,356.833  136.651,445.611  136.651,490  C  136.651,514.167  143.964,562.5  143.964,562.5  z " />
<path transform="translate( 0, 0 )" style="stroke: hsl(242.1, 55%, 50%);" id="2725"  d=" M  82.5,290.25  L  82.5,275.12  L  186.602,261.415  L  186.602,276.545  L  82.5,290.25  z " />
<path transform="translate( 0, 0 )" style="stroke: hsl(242.1, 55%, 50%);" id="2726"  d=" M  -21.6,420.088  L  51.576,73.65 " />
<path transform="translate( 0, 0 )" style="stroke: hsl(269, 55%, 50%);" id="3027"  d=" M  150.916,500.875  L  247.207,500.875  M  261.598,697.263  L  113.4,697.263  L  113.4,500.875  L  137.012,500.875 " />
<path transform="translate( 0, 0 )" style="stroke: hsl(269, 55%, 50%);" id="3028"  d=" M  -21.6,420.088  C  -21.6,287.436  -18.441,92.277  -18.441,92.277  L  11.54,91.205  L  66.018,67.317  L  95.197,-6.081  L  238.653,20.383  C  235.932,35.134  218,110.083  218,155.125  C  218,200.167  227.359,247.359  245.125,265.125  C  256.673,276.673  267.943,283.824  280,287.442  C  280,287.442  246.973,415.042  246.973,490  C  246.973,538.333  261.598,586.667  261.598,635  L  261.598,757.858  L  78.479,767.988  C  13.08,771.606  -11.996,738.527  -19.939,594.627  C  -21.6,564.535  -21.6,541.553  -21.6,518.572  L  -21.6,420.088  z  M  143.964,562.5  C  143.964,562.5  151.277,514.167  151.277,490  C  151.277,445.611  143.964,356.833  143.964,356.833  C  143.964,356.833  136.651,445.611  136.651,490  C  136.651,514.167  143.964,562.5  143.964,562.5  z " />
<path transform="translate( 0, 0 )" style="stroke: hsl(269, 55%, 50%);" id="3029"  d=" M  82.5,290.25  L  82.5,275.12  L  186.602,261.415  L  186.602,276.545  L  82.5,290.25  z " />
<path transform="translate( 0, 0 )" style="stroke: hsl(269, 55%, 50%);" id="3030"  d=" M  -21.6,420.088  L  51.576,73.65 " />
<path transform="translate( 0, 0 )" style="stroke: hsl(295.9, 55%, 50%);" id="3331"  d=" M  150.916,500.875  L  247.232,500.875  M  263.098,697.263  L  113.4,697.263  L  113.4,500.875  L  137.012,500.875 " />
<path transform="translate( 0, 0 )" style="stroke: hsl(295.9, 55%, 50%);" id="3332"  d=" M  -21.6,420.088  C  -21.6,287.436  -18.441,92.277  -18.441,92.277  L  11.54,91.205  L  66.018,67.317  L  95.197,-6.081  L  238.653,20.383  C  235.932,35.134  218,110.083  218,155.125  C  218,200.167  227.359,247.359  245.125,265.125  C  256.673,276.673  267.943,283.824  280,287.442  C  280,287.442  246.973,415.042  246.973,490  C  246.973,538.333  263.098,586.667  263.098,635  L  263.098,757.834  L  78.929,767.981  C  13.155,771.605  -11.996,738.527  -19.939,594.627  C  -21.6,564.535  -21.6,541.553  -21.6,518.572  L  -21.6,420.088  z  M  143.964,562.5  C  143.964,562.5  151.277,514.167  151.277,490  C  151.277,445.611  143.964,356.833  143.964,356.833  C  143.964,356.833  136.651,445.611  136.651,490  C  136.651,514.167  143.964,562.5  143.964,562.5  z " />
<path transform="translate( 0, 0 )" style="stroke: hsl(295.9, 55%, 50%);" id="3333"  d=" M  82.5,290.25  L  82.5,275.12  L  186.602,261.415  L  186.602,276.545  L  82.5,290.25  z " />
<path transform="translate( 0, 0 )" style="stroke: hsl(295.9, 55%, 50%);" id="3334"  d=" M  -21.6,420.088  L  51.576,73.65 " />
    </g>
    <!-- End of group #front -->
    
    <!-- Start of group #side -->
    <g id="side"  transform=" translate(-274.974 -260.125)  translate(1092.103 0) " >
        <path class="hidden" id="4"  d=" M  279.974,265.125  L  426.703,265.125  L  426.703,758.086  L  279.974,758.086  z " />
<path transform="translate( 0, 0 )" style="stroke: hsl(26.9, 55%, 50%);" id="295"  d=" M  279.974,758.086  L  279.974,635  C  279.974,586.667  281.099,538.333  281.099,490  C  281.099,415.042  280,287.442  280,287.442  C  286.354,289.349  293,290.25  300,290.25  C  320,290.25  337.109,282.891  354.875,265.125  C  372.641,282.891  355.578,415.042  355.578,490  C  355.578,509.333  355.758,528.667  355.976,548.145  L  396.146,562.754  C  396.41,585.468  396.703,610.627  396.703,635  L  396.703,755.09  L  356.703,751.85  L  279.974,758.086  z " />
<path transform="translate( 1.5, 0.027000000000044 )" style="stroke: hsl(53.8, 55%, 50%);" id="599"  d=" M  278.474,758.059  L  278.474,635  C  278.474,586.667  281.099,538.333  281.099,490  C  281.099,415.042  280,287.442  280,287.442  C  286.354,289.349  293,290.25  300,290.25  C  320,290.25  337.109,282.891  354.875,265.125  C  372.641,282.891  355.578,415.042  355.578,490  C  355.578,509.333  355.998,528.667  356.506,548.145  L  396.895,562.134  C  397.5,584.411  398.203,610.302  398.203,635  L  398.203,754.956  L  358.203,751.85  L  278.474,758.059  z " />
<path transform="translate( 3, 0.052000000000021 )" style="stroke: hsl(80.7, 55%, 50%);" id="903"  d=" M  276.974,758.034  L  276.974,635  C  276.974,586.667  281.099,538.333  281.099,490  C  281.099,415.042  280,287.442  280,287.442  C  286.354,289.349  293,290.25  300,290.25  C  320,290.25  337.109,282.891  354.875,265.125  C  372.641,282.891  355.578,415.042  355.578,490  C  355.578,509.333  356.238,528.667  357.036,548.145  L  397.631,561.426  C  398.551,582.961  399.703,609.973  399.703,635  L  399.703,754.832  L  359.703,751.85  L  276.974,758.034  z " />
<path transform="translate( 4.5, 0.077999999999975 )" style="stroke: hsl(107.6, 55%, 50%);" id="1207"  d=" M  275.474,758.008  L  275.474,635  C  275.474,586.667  281.099,538.333  281.099,490  C  281.099,415.042  280,287.442  280,287.442  C  286.354,289.349  293,290.25  300,290.25  C  320,290.25  337.109,282.891  354.875,265.125  C  372.641,282.891  355.578,415.042  355.578,490  C  355.578,509.333  356.478,528.667  357.566,548.145  L  398.359,560.808  C  399.536,581.031  401.203,609.68  401.203,635  L  401.203,754.716  L  361.203,751.85  L  275.474,758.008  z " />
<path transform="translate( 6, 0.10400000000004 )" style="stroke: hsl(134.5, 55%, 50%);" id="1511"  d=" M  273.974,757.982  L  273.974,635  C  273.974,586.667  281.099,538.333  281.099,490  C  281.099,415.042  280,287.442  280,287.442  C  286.354,289.349  293,290.25  300,290.25  C  320,290.25  337.109,282.891  354.875,265.125  C  372.641,282.891  355.578,415.042  355.578,490  C  355.578,509.333  356.718,528.667  358.096,548.145  L  399.079,560.192  C  400.617,581.055  402.703,609.359  402.703,635  L  402.703,754.608  L  362.703,751.85  L  273.974,757.982  z " />
<path transform="translate( 7.5, 0.12900000000002 )" style="stroke: hsl(161.4, 55%, 50%);" id="1815"  d=" M  272.474,757.957  L  272.474,635  C  272.474,586.667  281.099,538.333  281.099,490  C  281.099,415.042  280,287.442  280,287.442  C  286.354,289.349  293,290.25  300,290.25  C  320,290.25  337.109,282.891  354.875,265.125  C  372.641,282.891  355.578,415.042  355.578,490  C  355.578,509.333  356.958,528.667  358.626,548.145  L  399.788,559.576  C  401.507,578.83  404.203,609.051  404.203,635  L  404.203,754.507  L  364.203,751.85  L  272.474,757.957  z " />
<path transform="translate( 9, 0.154 )" style="stroke: hsl(188.3, 55%, 50%);" id="2119"  d=" M  270.974,757.932  L  270.974,635  C  270.974,586.667  281.099,538.333  281.099,490  C  281.099,415.042  280,287.442  280,287.442  C  286.354,289.349  293,290.25  300,290.25  C  320,290.25  337.109,282.891  354.875,265.125  C  372.641,282.891  355.578,415.042  355.578,490  C  355.578,509.333  357.198,528.667  359.157,548.145  L  400.489,558.966  C  402.075,574.112  405.703,608.75  405.703,635  L  405.703,754.413  L  365.703,751.85  L  270.974,757.932  z " />
<path transform="translate( 10.5, 0.17899999999997 )" style="stroke: hsl(215.2, 55%, 50%);" id="2423"  d=" M  269.474,757.907  L  269.474,635  C  269.474,586.667  281.099,538.333  281.099,490  C  281.099,415.042  280,287.442  280,287.442  C  286.354,289.349  293,290.25  300,290.25  C  320,290.25  337.109,282.891  354.875,265.125  C  372.641,282.891  355.578,415.042  355.578,490  C  355.578,509.333  357.438,528.667  359.687,548.145  L  401.17,558.269  C  402.967,573.213  407.203,608.437  407.203,635  L  407.203,754.324  L  367.203,751.85  L  269.474,757.907  z " />
<path transform="translate( 12, 0.20299999999997 )" style="stroke: hsl(242.1, 55%, 50%);" id="2727"  d=" M  267.974,757.883  L  267.974,635  C  267.974,586.667  281.099,538.333  281.099,490  C  281.099,415.042  280,287.442  280,287.442  C  286.354,289.349  293,290.25  300,290.25  C  320,290.25  337.109,282.891  354.875,265.125  C  372.641,282.891  355.578,415.042  355.578,490  C  355.578,509.333  357.678,528.667  360.217,548.145  L  401.85,557.663  C  404.285,575.593  408.703,608.134  408.703,635  L  408.703,754.241  L  368.703,751.85  L  267.974,757.883  z " />
<path transform="translate( 13.5, 0.22800000000007 )" style="stroke: hsl(269, 55%, 50%);" id="3031"  d=" M  266.474,757.858  L  266.474,635  C  266.474,586.667  281.099,538.333  281.099,490  C  281.099,415.042  280,287.442  280,287.442  C  286.354,289.349  293,290.25  300,290.25  C  320,290.25  337.109,282.891  354.875,265.125  C  372.641,282.891  355.578,415.042  355.578,490  C  355.578,509.333  357.918,528.667  360.747,548.145  L  402.523,557.062  C  405.195,574.72  410.203,607.826  410.203,635  L  410.203,754.163  L  370.203,751.85  L  266.474,757.858  z " />
<path transform="translate( 15, 0.25200000000007 )" style="stroke: hsl(295.9, 55%, 50%);" id="3335"  d=" M  264.974,757.834  L  264.974,635  C  264.974,586.667  281.099,538.333  281.099,490  C  281.099,415.042  280,287.442  280,287.442  C  286.354,289.349  293,290.25  300,290.25  C  320,290.25  337.109,282.891  354.875,265.125  C  372.641,282.891  355.578,415.042  355.578,490  C  355.578,509.333  358.158,528.667  361.277,548.145  L  403.17,556.376  C  408.27,586.941  411.703,607.52  411.703,635  L  411.703,754.089  L  371.703,751.85  L  264.974,757.834  z " />
    </g>
    <!-- End of group #side -->
    
    <!-- Start of group #collar -->
    <g id="collar"  transform=" translate(144.771 120.864)  translate(1248.832 0) " >
        <path class="hidden" id="5"  d=" M  -139.771,-115.864  L  288.123,-115.864  L  288.123,-22.855  L  -139.771,-22.855  z " />
<path transform="translate( 0, 0 )" style="stroke: hsl(26.9, 55%, 50%);" id="296"  d=" M  -139.771,-55.592  L  -90.105,-22.855  C  -90.105,-22.855  -80.766,-27.938  -58.63,-33.223  C  -58.63,-33.223  -47.827,-65.865  74.176,-65.864  C  196.179,-65.865  206.982,-33.223  206.982,-33.223  C  229.118,-27.938  238.457,-22.855  238.457,-22.855  L  288.123,-55.592  L  282.904,-85.135  C  230.722,-92.817  208.379,-115.864  74.176,-115.864  C  -60.027,-115.864  -82.37,-92.817  -134.552,-85.135  L  -139.771,-55.592  z " />
<path transform="translate( 0, 0 )" style="stroke: hsl(53.8, 55%, 50%);" id="600"  d=" M  -139.771,-55.592  L  -90.105,-22.855  C  -90.105,-22.855  -80.766,-27.938  -58.63,-33.223  C  -58.63,-33.223  -47.827,-65.865  74.176,-65.864  C  196.179,-65.865  206.982,-33.223  206.982,-33.223  C  229.118,-27.938  238.457,-22.855  238.457,-22.855  L  288.123,-55.592  L  282.904,-85.135  C  230.722,-92.817  208.379,-115.864  74.176,-115.864  C  -60.027,-115.864  -82.37,-92.817  -134.552,-85.135  L  -139.771,-55.592  z " />
<path transform="translate( 0, 0 )" style="stroke: hsl(80.7, 55%, 50%);" id="904"  d=" M  -139.771,-55.592  L  -90.105,-22.855  C  -90.105,-22.855  -80.766,-27.938  -58.63,-33.223  C  -58.63,-33.223  -47.827,-65.865  74.176,-65.864  C  196.179,-65.865  206.982,-33.223  206.982,-33.223  C  229.118,-27.938  238.457,-22.855  238.457,-22.855  L  288.123,-55.592  L  282.904,-85.135  C  230.722,-92.817  208.379,-115.864  74.176,-115.864  C  -60.027,-115.864  -82.37,-92.817  -134.552,-85.135  L  -139.771,-55.592  z " />
<path transform="translate( 0, 0 )" style="stroke: hsl(107.6, 55%, 50%);" id="1208"  d=" M  -139.771,-55.592  L  -90.105,-22.855  C  -90.105,-22.855  -80.766,-27.938  -58.63,-33.223  C  -58.63,-33.223  -47.827,-65.865  74.176,-65.864  C  196.179,-65.865  206.982,-33.223  206.982,-33.223  C  229.118,-27.938  238.457,-22.855  238.457,-22.855  L  288.123,-55.592  L  282.904,-85.135  C  230.722,-92.817  208.379,-115.864  74.176,-115.864  C  -60.027,-115.864  -82.37,-92.817  -134.552,-85.135  L  -139.771,-55.592  z " />
<path transform="translate( 0, 0 )" style="stroke: hsl(134.5, 55%, 50%);" id="1512"  d=" M  -139.771,-55.592  L  -90.105,-22.855  C  -90.105,-22.855  -80.766,-27.938  -58.63,-33.223  C  -58.63,-33.223  -47.827,-65.865  74.176,-65.864  C  196.179,-65.865  206.982,-33.223  206.982,-33.223  C  229.118,-27.938  238.457,-22.855  238.457,-22.855  L  288.123,-55.592  L  282.904,-85.135  C  230.722,-92.817  208.379,-115.864  74.176,-115.864  C  -60.027,-115.864  -82.37,-92.817  -134.552,-85.135  L  -139.771,-55.592  z " />
<path transform="translate( 0, 0 )" style="stroke: hsl(161.4, 55%, 50%);" id="1816"  d=" M  -139.771,-55.592  L  -90.105,-22.855  C  -90.105,-22.855  -80.766,-27.938  -58.63,-33.223  C  -58.63,-33.223  -47.827,-65.865  74.176,-65.864  C  196.179,-65.865  206.982,-33.223  206.982,-33.223  C  229.118,-27.938  238.457,-22.855  238.457,-22.855  L  288.123,-55.592  L  282.904,-85.135  C  230.722,-92.817  208.379,-115.864  74.176,-115.864  C  -60.027,-115.864  -82.37,-92.817  -134.552,-85.135  L  -139.771,-55.592  z " />
<path transform="translate( 0, 0 )" style="stroke: hsl(188.3, 55%, 50%);" id="2120"  d=" M  -139.771,-55.592  L  -90.105,-22.855  C  -90.105,-22.855  -80.766,-27.938  -58.63,-33.223  C  -58.63,-33.223  -47.827,-65.865  74.176,-65.864  C  196.179,-65.865  206.982,-33.223  206.982,-33.223  C  229.118,-27.938  238.457,-22.855  238.457,-22.855  L  288.123,-55.592  L  282.904,-85.135  C  230.722,-92.817  208.379,-115.864  74.176,-115.864  C  -60.027,-115.864  -82.37,-92.817  -134.552,-85.135  L  -139.771,-55.592  z " />
<path transform="translate( 0, 0 )" style="stroke: hsl(215.2, 55%, 50%);" id="2424"  d=" M  -139.771,-55.592  L  -90.105,-22.855  C  -90.105,-22.855  -80.766,-27.938  -58.63,-33.223  C  -58.63,-33.223  -47.827,-65.865  74.176,-65.864  C  196.179,-65.865  206.982,-33.223  206.982,-33.223  C  229.118,-27.938  238.457,-22.855  238.457,-22.855  L  288.123,-55.592  L  282.904,-85.135  C  230.722,-92.817  208.379,-115.864  74.176,-115.864  C  -60.027,-115.864  -82.37,-92.817  -134.552,-85.135  L  -139.771,-55.592  z " />
<path transform="translate( 0, 0 )" style="stroke: hsl(242.1, 55%, 50%);" id="2728"  d=" M  -139.771,-55.592  L  -90.105,-22.855  C  -90.105,-22.855  -80.766,-27.938  -58.63,-33.223  C  -58.63,-33.223  -47.827,-65.865  74.176,-65.864  C  196.179,-65.865  206.982,-33.223  206.982,-33.223  C  229.118,-27.938  238.457,-22.855  238.457,-22.855  L  288.123,-55.592  L  282.904,-85.135  C  230.722,-92.817  208.379,-115.864  74.176,-115.864  C  -60.027,-115.864  -82.37,-92.817  -134.552,-85.135  L  -139.771,-55.592  z " />
<path transform="translate( 0, 0 )" style="stroke: hsl(269, 55%, 50%);" id="3032"  d=" M  -139.771,-55.592  L  -90.105,-22.855  C  -90.105,-22.855  -80.766,-27.938  -58.63,-33.223  C  -58.63,-33.223  -47.827,-65.865  74.176,-65.864  C  196.179,-65.865  206.982,-33.223  206.982,-33.223  C  229.118,-27.938  238.457,-22.855  238.457,-22.855  L  288.123,-55.592  L  282.904,-85.135  C  230.722,-92.817  208.379,-115.864  74.176,-115.864  C  -60.027,-115.864  -82.37,-92.817  -134.552,-85.135  L  -139.771,-55.592  z " />
<path transform="translate( 0, 0 )" style="stroke: hsl(295.9, 55%, 50%);" id="3336"  d=" M  -139.771,-55.592  L  -90.105,-22.855  C  -90.105,-22.855  -80.766,-27.938  -58.63,-33.223  C  -58.63,-33.223  -47.827,-65.865  74.176,-65.864  C  196.179,-65.865  206.982,-33.223  206.982,-33.223  C  229.118,-27.938  238.457,-22.855  238.457,-22.855  L  288.123,-55.592  L  282.904,-85.135  C  230.722,-92.817  208.379,-115.864  74.176,-115.864  C  -60.027,-115.864  -82.37,-92.817  -134.552,-85.135  L  -139.771,-55.592  z " />
    </g>
    <!-- End of group #collar -->
    
    <!-- Start of group #collarstand -->
    <g id="collarstand"  transform=" translate(63.63 70.864)  translate(1248.832 206.018) " >
        <path class="hidden" id="6"  d=" M  -58.63,-65.864  L  206.982,-65.864  L  206.982,-33.223  L  -58.63,-33.223  z " />
<path transform="translate( 0, 0 )" style="stroke: hsl(26.9, 55%, 50%);" id="297"  d=" M  -58.63,-33.223  C  -58.63,-33.223  -47.827,-65.865  74.176,-65.864  C  196.179,-65.865  206.982,-33.223  206.982,-33.223  C  181.104,-39.401  138.838,-45.865  74.176,-45.864  C  9.514,-45.865  -32.752,-39.401  -58.63,-33.223  z " />
<path transform="translate( 0, 0 )" style="stroke: hsl(53.8, 55%, 50%);" id="601"  d=" M  -58.63,-33.223  C  -58.63,-33.223  -47.827,-65.865  74.176,-65.864  C  196.179,-65.865  206.982,-33.223  206.982,-33.223  C  181.104,-39.401  138.838,-45.865  74.176,-45.864  C  9.514,-45.865  -32.752,-39.401  -58.63,-33.223  z " />
<path transform="translate( 0, 0 )" style="stroke: hsl(80.7, 55%, 50%);" id="905"  d=" M  -58.63,-33.223  C  -58.63,-33.223  -47.827,-65.865  74.176,-65.864  C  196.179,-65.865  206.982,-33.223  206.982,-33.223  C  181.104,-39.401  138.838,-45.865  74.176,-45.864  C  9.514,-45.865  -32.752,-39.401  -58.63,-33.223  z " />
<path transform="translate( 0, 0 )" style="stroke: hsl(107.6, 55%, 50%);" id="1209"  d=" M  -58.63,-33.223  C  -58.63,-33.223  -47.827,-65.865  74.176,-65.864  C  196.179,-65.865  206.982,-33.223  206.982,-33.223  C  181.104,-39.401  138.838,-45.865  74.176,-45.864  C  9.514,-45.865  -32.752,-39.401  -58.63,-33.223  z " />
<path transform="translate( 0, 0 )" style="stroke: hsl(134.5, 55%, 50%);" id="1513"  d=" M  -58.63,-33.223  C  -58.63,-33.223  -47.827,-65.865  74.176,-65.864  C  196.179,-65.865  206.982,-33.223  206.982,-33.223  C  181.104,-39.401  138.838,-45.865  74.176,-45.864  C  9.514,-45.865  -32.752,-39.401  -58.63,-33.223  z " />
<path transform="translate( 0, 0 )" style="stroke: hsl(161.4, 55%, 50%);" id="1817"  d=" M  -58.63,-33.223  C  -58.63,-33.223  -47.827,-65.865  74.176,-65.864  C  196.179,-65.865  206.982,-33.223  206.982,-33.223  C  181.104,-39.401  138.838,-45.865  74.176,-45.864  C  9.514,-45.865  -32.752,-39.401  -58.63,-33.223  z " />
<path transform="translate( 0, 0 )" style="stroke: hsl(188.3, 55%, 50%);" id="2121"  d=" M  -58.63,-33.223  C  -58.63,-33.223  -47.827,-65.865  74.176,-65.864  C  196.179,-65.865  206.982,-33.223  206.982,-33.223  C  181.104,-39.401  138.838,-45.865  74.176,-45.864  C  9.514,-45.865  -32.752,-39.401  -58.63,-33.223  z " />
<path transform="translate( 0, 0 )" style="stroke: hsl(215.2, 55%, 50%);" id="2425"  d=" M  -58.63,-33.223  C  -58.63,-33.223  -47.827,-65.865  74.176,-65.864  C  196.179,-65.865  206.982,-33.223  206.982,-33.223  C  181.104,-39.401  138.838,-45.865  74.176,-45.864  C  9.514,-45.865  -32.752,-39.401  -58.63,-33.223  z " />
<path transform="translate( 0, 0 )" style="stroke: hsl(242.1, 55%, 50%);" id="2729"  d=" M  -58.63,-33.223  C  -58.63,-33.223  -47.827,-65.865  74.176,-65.864  C  196.179,-65.865  206.982,-33.223  206.982,-33.223  C  181.104,-39.401  138.838,-45.865  74.176,-45.864  C  9.514,-45.865  -32.752,-39.401  -58.63,-33.223  z " />
<path transform="translate( 0, 0 )" style="stroke: hsl(269, 55%, 50%);" id="3033"  d=" M  -58.63,-33.223  C  -58.63,-33.223  -47.827,-65.865  74.176,-65.864  C  196.179,-65.865  206.982,-33.223  206.982,-33.223  C  181.104,-39.401  138.838,-45.865  74.176,-45.864  C  9.514,-45.865  -32.752,-39.401  -58.63,-33.223  z " />
<path transform="translate( 0, 0 )" style="stroke: hsl(295.9, 55%, 50%);" id="3337"  d=" M  -58.63,-33.223  C  -58.63,-33.223  -47.827,-65.865  74.176,-65.864  C  196.179,-65.865  206.982,-33.223  206.982,-33.223  C  181.104,-39.401  138.838,-45.865  74.176,-45.864  C  9.514,-45.865  -32.752,-39.401  -58.63,-33.223  z " />
    </g>
    <!-- End of group #collarstand -->
    
    <!-- Start of group #undercollar -->
    <g id="undercollar"  transform=" translate(144.771 120.864)  translate(1248.832 103.009) " >
        <path class="hidden" id="7"  d=" M  -139.771,-115.864  L  288.123,-115.864  L  288.123,-22.855  L  -139.771,-22.855  z " />
<path transform="translate( 0, 0 )" style="stroke: hsl(26.9, 55%, 50%);" id="298"  d=" M  -139.771,-55.592  L  -90.105,-22.855  C  -90.105,-22.855  -47.827,-45.865  74.176,-45.864  C  196.179,-45.865  238.457,-22.855  238.457,-22.855  L  288.123,-55.592  L  282.904,-85.135  C  230.722,-92.817  208.379,-115.864  74.176,-115.864  C  -60.027,-115.864  -82.37,-92.817  -134.552,-85.135  L  -139.771,-55.592  z " />
<path transform="translate( 0, 0 )" style="stroke: hsl(53.8, 55%, 50%);" id="602"  d=" M  -139.771,-55.592  L  -90.105,-22.855  C  -90.105,-22.855  -47.827,-45.865  74.176,-45.864  C  196.179,-45.865  238.457,-22.855  238.457,-22.855  L  288.123,-55.592  L  282.904,-85.135  C  230.722,-92.817  208.379,-115.864  74.176,-115.864  C  -60.027,-115.864  -82.37,-92.817  -134.552,-85.135  L  -139.771,-55.592  z " />
<path transform="translate( 0, 0 )" style="stroke: hsl(80.7, 55%, 50%);" id="906"  d=" M  -139.771,-55.592  L  -90.105,-22.855  C  -90.105,-22.855  -47.827,-45.865  74.176,-45.864  C  196.179,-45.865  238.457,-22.855  238.457,-22.855  L  288.123,-55.592  L  282.904,-85.135  C  230.722,-92.817  208.379,-115.864  74.176,-115.864  C  -60.027,-115.864  -82.37,-92.817  -134.552,-85.135  L  -139.771,-55.592  z " />
<path transform="translate( 0, 0 )" style="stroke: hsl(107.6, 55%, 50%);" id="1210"  d=" M  -139.771,-55.592  L  -90.105,-22.855  C  -90.105,-22.855  -47.827,-45.865  74.176,-45.864  C  196.179,-45.865  238.457,-22.855  238.457,-22.855  L  288.123,-55.592  L  282.904,-85.135  C  230.722,-92.817  208.379,-115.864  74.176,-115.864  C  -60.027,-115.864  -82.37,-92.817  -134.552,-85.135  L  -139.771,-55.592  z " />
<path transform="translate( 0, 0 )" style="stroke: hsl(134.5, 55%, 50%);" id="1514"  d=" M  -139.771,-55.592  L  -90.105,-22.855  C  -90.105,-22.855  -47.827,-45.865  74.176,-45.864  C  196.179,-45.865  238.457,-22.855  238.457,-22.855  L  288.123,-55.592  L  282.904,-85.135  C  230.722,-92.817  208.379,-115.864  74.176,-115.864  C  -60.027,-115.864  -82.37,-92.817  -134.552,-85.135  L  -139.771,-55.592  z " />
<path transform="translate( 0, 0 )" style="stroke: hsl(161.4, 55%, 50%);" id="1818"  d=" M  -139.771,-55.592  L  -90.105,-22.855  C  -90.105,-22.855  -47.827,-45.865  74.176,-45.864  C  196.179,-45.865  238.457,-22.855  238.457,-22.855  L  288.123,-55.592  L  282.904,-85.135  C  230.722,-92.817  208.379,-115.864  74.176,-115.864  C  -60.027,-115.864  -82.37,-92.817  -134.552,-85.135  L  -139.771,-55.592  z " />
<path transform="translate( 0, 0 )" style="stroke: hsl(188.3, 55%, 50%);" id="2122"  d=" M  -139.771,-55.592  L  -90.105,-22.855  C  -90.105,-22.855  -47.827,-45.865  74.176,-45.864  C  196.179,-45.865  238.457,-22.855  238.457,-22.855  L  288.123,-55.592  L  282.904,-85.135  C  230.722,-92.817  208.379,-115.864  74.176,-115.864  C  -60.027,-115.864  -82.37,-92.817  -134.552,-85.135  L  -139.771,-55.592  z " />
<path transform="translate( 0, 0 )" style="stroke: hsl(215.2, 55%, 50%);" id="2426"  d=" M  -139.771,-55.592  L  -90.105,-22.855  C  -90.105,-22.855  -47.827,-45.865  74.176,-45.864  C  196.179,-45.865  238.457,-22.855  238.457,-22.855  L  288.123,-55.592  L  282.904,-85.135  C  230.722,-92.817  208.379,-115.864  74.176,-115.864  C  -60.027,-115.864  -82.37,-92.817  -134.552,-85.135  L  -139.771,-55.592  z " />
<path transform="translate( 0, 0 )" style="stroke: hsl(242.1, 55%, 50%);" id="2730"  d=" M  -139.771,-55.592  L  -90.105,-22.855  C  -90.105,-22.855  -47.827,-45.865  74.176,-45.864  C  196.179,-45.865  238.457,-22.855  238.457,-22.855  L  288.123,-55.592  L  282.904,-85.135  C  230.722,-92.817  208.379,-115.864  74.176,-115.864  C  -60.027,-115.864  -82.37,-92.817  -134.552,-85.135  L  -139.771,-55.592  z " />
<path transform="translate( 0, 0 )" style="stroke: hsl(269, 55%, 50%);" id="3034"  d=" M  -139.771,-55.592  L  -90.105,-22.855  C  -90.105,-22.855  -47.827,-45.865  74.176,-45.864  C  196.179,-45.865  238.457,-22.855  238.457,-22.855  L  288.123,-55.592  L  282.904,-85.135  C  230.722,-92.817  208.379,-115.864  74.176,-115.864  C  -60.027,-115.864  -82.37,-92.817  -134.552,-85.135  L  -139.771,-55.592  z " />
<path transform="translate( 0, 0 )" style="stroke: hsl(295.9, 55%, 50%);" id="3338"  d=" M  -139.771,-55.592  L  -90.105,-22.855  C  -90.105,-22.855  -47.827,-45.865  74.176,-45.864  C  196.179,-45.865  238.457,-22.855  238.457,-22.855  L  288.123,-55.592  L  282.904,-85.135  C  230.722,-92.817  208.379,-115.864  74.176,-115.864  C  -60.027,-115.864  -82.37,-92.817  -134.552,-85.135  L  -139.771,-55.592  z " />
    </g>
    <!-- End of group #undercollar -->
    
    <!-- Start of group #topsleeve -->
    <g id="topsleeve"  transform=" translate(151.512 5)  translate(588.021 0) " >
        <path class="hidden" id="8"  d=" M  -146.512,0  L  130.233,0  L  130.233,711.452  L  -146.512,711.452  z " />
<path transform="translate( 0, 0 )" style="stroke: hsl(26.9, 55%, 50%);" id="299"  d=" M  117.21,410  C  125.145,365  130.233,259.234  130.233,194.425  C  130.233,129.616  117.21,64.808  117.21,64.808  C  117.21,64.808  73.256,0  0,0  C  -73.256,0  -107.443,64.808  -117.21,116.655  C  -126.977,168.502  -131.861,194.425  -146.512,194.425  C  -146.512,194.425  -136.475,351.187  -130.233,410  L  -99.022,704.067  L  104.286,711.452  L  117.517,638.147  L  81.677,611.519  L  117.21,410  z " />
<path transform="translate( 0, 0 )" style="stroke: hsl(53.8, 55%, 50%);" id="603"  d=" M  117.21,410  C  125.145,365  130.233,259.234  130.233,194.425  C  130.233,129.616  117.21,64.808  117.21,64.808  C  117.21,64.808  73.256,0  0,0  C  -73.256,0  -107.443,64.808  -117.21,116.655  C  -126.977,168.502  -131.861,194.425  -146.512,194.425  C  -146.512,194.425  -136.475,351.187  -130.233,410  L  -99.022,704.067  L  104.286,711.452  L  117.517,638.147  L  81.677,611.519  L  117.21,410  z " />
<path transform="translate( 0, 0 )" style="stroke: hsl(80.7, 55%, 50%);" id="907"  d=" M  117.21,410  C  125.145,365  130.233,259.234  130.233,194.425  C  130.233,129.616  117.21,64.808  117.21,64.808  C  117.21,64.808  73.256,0  0,0  C  -73.256,0  -107.443,64.808  -117.21,116.655  C  -126.977,168.502  -131.861,194.425  -146.512,194.425  C  -146.512,194.425  -136.475,351.187  -130.233,410  L  -99.022,704.067  L  104.286,711.452  L  117.517,638.147  L  81.677,611.519  L  117.21,410  z " />
<path transform="translate( 0, 0 )" style="stroke: hsl(107.6, 55%, 50%);" id="1211"  d=" M  117.21,410  C  125.145,365  130.233,259.234  130.233,194.425  C  130.233,129.616  117.21,64.808  117.21,64.808  C  117.21,64.808  73.256,0  0,0  C  -73.256,0  -107.443,64.808  -117.21,116.655  C  -126.977,168.502  -131.861,194.425  -146.512,194.425  C  -146.512,194.425  -136.475,351.187  -130.233,410  L  -99.022,704.067  L  104.286,711.452  L  117.517,638.147  L  81.677,611.519  L  117.21,410  z " />
<path transform="translate( 0, 0 )" style="stroke: hsl(134.5, 55%, 50%);" id="1515"  d=" M  117.21,410  C  125.145,365  130.233,259.234  130.233,194.425  C  130.233,129.616  117.21,64.808  117.21,64.808  C  117.21,64.808  73.256,0  0,0  C  -73.256,0  -107.443,64.808  -117.21,116.655  C  -126.977,168.502  -131.861,194.425  -146.512,194.425  C  -146.512,194.425  -136.475,351.187  -130.233,410  L  -99.022,704.067  L  104.286,711.452  L  117.517,638.147  L  81.677,611.519  L  117.21,410  z " />
<path transform="translate( 0, 0 )" style="stroke: hsl(161.4, 55%, 50%);" id="1819"  d=" M  117.21,410  C  125.145,365  130.233,259.234  130.233,194.425  C  130.233,129.616  117.21,64.808  117.21,64.808  C  117.21,64.808  73.256,0  0,0  C  -73.256,0  -107.443,64.808  -117.21,116.655  C  -126.977,168.502  -131.861,194.425  -146.512,194.425  C  -146.512,194.425  -136.475,351.187  -130.233,410  L  -99.022,704.067  L  104.286,711.452  L  117.517,638.147  L  81.677,611.519  L  117.21,410  z " />
<path transform="translate( 0, 0 )" style="stroke: hsl(188.3, 55%, 50%);" id="2123"  d=" M  117.21,410  C  125.145,365  130.233,259.234  130.233,194.425  C  130.233,129.616  117.21,64.808  117.21,64.808  C  117.21,64.808  73.256,0  0,0  C  -73.256,0  -107.443,64.808  -117.21,116.655  C  -126.977,168.502  -131.861,194.425  -146.512,194.425  C  -146.512,194.425  -136.475,351.187  -130.233,410  L  -99.022,704.067  L  104.286,711.452  L  117.517,638.147  L  81.677,611.519  L  117.21,410  z " />
<path transform="translate( 0, 0 )" style="stroke: hsl(215.2, 55%, 50%);" id="2427"  d=" M  117.21,410  C  125.145,365  130.233,259.234  130.233,194.425  C  130.233,129.616  117.21,64.808  117.21,64.808  C  117.21,64.808  73.256,0  0,0  C  -73.256,0  -107.443,64.808  -117.21,116.655  C  -126.977,168.502  -131.861,194.425  -146.512,194.425  C  -146.512,194.425  -136.475,351.187  -130.233,410  L  -99.022,704.067  L  104.286,711.452  L  117.517,638.147  L  81.677,611.519  L  117.21,410  z " />
<path transform="translate( 0, 0 )" style="stroke: hsl(242.1, 55%, 50%);" id="2731"  d=" M  117.21,410  C  125.145,365  130.233,259.234  130.233,194.425  C  130.233,129.616  117.21,64.808  117.21,64.808  C  117.21,64.808  73.256,0  0,0  C  -73.256,0  -107.443,64.808  -117.21,116.655  C  -126.977,168.502  -131.861,194.425  -146.512,194.425  C  -146.512,194.425  -136.475,351.187  -130.233,410  L  -99.022,704.067  L  104.286,711.452  L  117.517,638.147  L  81.677,611.519  L  117.21,410  z " />
<path transform="translate( 0, 0 )" style="stroke: hsl(269, 55%, 50%);" id="3035"  d=" M  117.21,410  C  125.145,365  130.233,259.234  130.233,194.425  C  130.233,129.616  117.21,64.808  117.21,64.808  C  117.21,64.808  73.256,0  0,0  C  -73.256,0  -107.443,64.808  -117.21,116.655  C  -126.977,168.502  -131.861,194.425  -146.512,194.425  C  -146.512,194.425  -136.475,351.187  -130.233,410  L  -99.022,704.067  L  104.286,711.452  L  117.517,638.147  L  81.677,611.519  L  117.21,410  z " />
<path transform="translate( 0, 0 )" style="stroke: hsl(295.9, 55%, 50%);" id="3339"  d=" M  117.21,410  C  125.145,365  130.233,259.234  130.233,194.425  C  130.233,129.616  117.21,64.808  117.21,64.808  C  117.21,64.808  73.256,0  0,0  C  -73.256,0  -107.443,64.808  -117.21,116.655  C  -126.977,168.502  -131.861,194.425  -146.512,194.425  C  -146.512,194.425  -136.475,351.187  -130.233,410  L  -99.022,704.067  L  104.286,711.452  L  117.517,638.147  L  81.677,611.519  L  117.21,410  z " />
    </g>
    <!-- End of group #topsleeve -->
    
    <!-- Start of group #undersleeve -->
    <g id="undersleeve"  transform=" translate(92.908 -59.808)  translate(874.766 0) " >
        <path class="hidden" id="9"  d=" M  -87.908,64.808  L  119.429,64.808  L  119.429,712.447  L  -87.908,712.447  z " />
<path transform="translate( 0, 0 )" style="stroke: hsl(26.9, 55%, 50%);" id="300"  d=" M  64.312,710  L  104.237,712.447  L  117.544,638.152  L  81.677,611.519  L  117.21,410  C  125.145,365  109.669,259.002  104.187,194.425  C  98.705,129.848  87.907,64.808  87.907,64.808  C  69.267,128.049  -14.651,194.425  -58.605,194.425  L  -87.908,194.425  C  -87.908,194.425  -71.642,351.426  -68.373,410  L  -52.028,702.87  L  64.312,710  z " />
<path transform="translate( 0, 0 )" style="stroke: hsl(53.8, 55%, 50%);" id="604"  d=" M  64.312,710  L  104.237,712.447  L  117.544,638.152  L  81.677,611.519  L  117.21,410  C  125.145,365  109.669,259.002  104.187,194.425  C  98.705,129.848  87.907,64.808  87.907,64.808  C  69.267,128.049  -14.651,194.425  -58.605,194.425  L  -87.908,194.425  C  -87.908,194.425  -71.642,351.426  -68.373,410  L  -52.028,702.87  L  64.312,710  z " />
<path transform="translate( 0, 0 )" style="stroke: hsl(80.7, 55%, 50%);" id="908"  d=" M  64.312,710  L  104.237,712.447  L  117.544,638.152  L  81.677,611.519  L  117.21,410  C  125.145,365  109.669,259.002  104.187,194.425  C  98.705,129.848  87.907,64.808  87.907,64.808  C  69.267,128.049  -14.651,194.425  -58.605,194.425  L  -87.908,194.425  C  -87.908,194.425  -71.642,351.426  -68.373,410  L  -52.028,702.87  L  64.312,710  z " />
<path transform="translate( 0, 0 )" style="stroke: hsl(107.6, 55%, 50%);" id="1212"  d=" M  64.312,710  L  104.237,712.447  L  117.544,638.152  L  81.677,611.519  L  117.21,410  C  125.145,365  109.669,259.002  104.187,194.425  C  98.705,129.848  87.907,64.808  87.907,64.808  C  69.267,128.049  -14.651,194.425  -58.605,194.425  L  -87.908,194.425  C  -87.908,194.425  -71.642,351.426  -68.373,410  L  -52.028,702.87  L  64.312,710  z " />
<path transform="translate( 0, 0 )" style="stroke: hsl(134.5, 55%, 50%);" id="1516"  d=" M  64.312,710  L  104.237,712.447  L  117.544,638.152  L  81.677,611.519  L  117.21,410  C  125.145,365  109.669,259.002  104.187,194.425  C  98.705,129.848  87.907,64.808  87.907,64.808  C  69.267,128.049  -14.651,194.425  -58.605,194.425  L  -87.908,194.425  C  -87.908,194.425  -71.642,351.426  -68.373,410  L  -52.028,702.87  L  64.312,710  z " />
<path transform="translate( 0, 0 )" style="stroke: hsl(161.4, 55%, 50%);" id="1820"  d=" M  64.312,710  L  104.237,712.447  L  117.544,638.152  L  81.677,611.519  L  117.21,410  C  125.145,365  109.669,259.002  104.187,194.425  C  98.705,129.848  87.907,64.808  87.907,64.808  C  69.267,128.049  -14.651,194.425  -58.605,194.425  L  -87.908,194.425  C  -87.908,194.425  -71.642,351.426  -68.373,410  L  -52.028,702.87  L  64.312,710  z " />
<path transform="translate( 0, 0 )" style="stroke: hsl(188.3, 55%, 50%);" id="2124"  d=" M  64.312,710  L  104.237,712.447  L  117.544,638.152  L  81.677,611.519  L  117.21,410  C  125.145,365  109.669,259.002  104.187,194.425  C  98.705,129.848  87.907,64.808  87.907,64.808  C  69.267,128.049  -14.651,194.425  -58.605,194.425  L  -87.908,194.425  C  -87.908,194.425  -71.642,351.426  -68.373,410  L  -52.028,702.87  L  64.312,710  z " />
<path transform="translate( 0, 0 )" style="stroke: hsl(215.2, 55%, 50%);" id="2428"  d=" M  64.312,710  L  104.237,712.447  L  117.544,638.152  L  81.677,611.519  L  117.21,410  C  125.145,365  109.669,259.002  104.187,194.425  C  98.705,129.848  87.907,64.808  87.907,64.808  C  69.267,128.049  -14.651,194.425  -58.605,194.425  L  -87.908,194.425  C  -87.908,194.425  -71.642,351.426  -68.373,410  L  -52.028,702.87  L  64.312,710  z " />
<path transform="translate( 0, 0 )" style="stroke: hsl(242.1, 55%, 50%);" id="2732"  d=" M  64.312,710  L  104.237,712.447  L  117.544,638.152  L  81.677,611.519  L  117.21,410  C  125.145,365  109.669,259.002  104.187,194.425  C  98.705,129.848  87.907,64.808  87.907,64.808  C  69.267,128.049  -14.651,194.425  -58.605,194.425  L  -87.908,194.425  C  -87.908,194.425  -71.642,351.426  -68.373,410  L  -52.028,702.87  L  64.312,710  z " />
<path transform="translate( 0, 0 )" style="stroke: hsl(269, 55%, 50%);" id="3036"  d=" M  64.312,710  L  104.237,712.447  L  117.544,638.152  L  81.677,611.519  L  117.21,410  C  125.145,365  109.669,259.002  104.187,194.425  C  98.705,129.848  87.907,64.808  87.907,64.808  C  69.267,128.049  -14.651,194.425  -58.605,194.425  L  -87.908,194.425  C  -87.908,194.425  -71.642,351.426  -68.373,410  L  -52.028,702.87  L  64.312,710  z " />
<path transform="translate( 0, 0 )" style="stroke: hsl(295.9, 55%, 50%);" id="3340"  d=" M  64.312,710  L  104.237,712.447  L  117.544,638.152  L  81.677,611.519  L  117.21,410  C  125.145,365  109.669,259.002  104.187,194.425  C  98.705,129.848  87.907,64.808  87.907,64.808  C  69.267,128.049  -14.651,194.425  -58.605,194.425  L  -87.908,194.425  C  -87.908,194.425  -71.642,351.426  -68.373,410  L  -52.028,702.87  L  64.312,710  z " />
    </g>
    <!-- End of group #undersleeve -->
    
    <!-- Start of group #pocket -->
    <g id="pocket"  transform=" translate(5 45)  translate(1248.832 248.659) " >
        <path class="hidden" id="10"  d=" M  0,-40  L  162,-40  L  162,196.388  L  0,196.388  z " />
<path transform="translate( 0, 0 )" style="stroke: hsl(26.9, 55%, 50%);" id="301"  d=" M  0,-40  L  0,163.988  C  -0,181.882  14.506,196.388  32.4,196.388  L  129.6,196.388  C  147.494,196.388  162,181.882  162,163.988  L  162,-40  z " />
<path transform="translate( 0, 0 )" style="stroke: hsl(53.8, 55%, 50%);" id="605"  d=" M  0,-40  L  0,163.988  C  -0,181.882  14.506,196.388  32.4,196.388  L  129.6,196.388  C  147.494,196.388  162,181.882  162,163.988  L  162,-40  z " />
<path transform="translate( 0, 0 )" style="stroke: hsl(80.7, 55%, 50%);" id="909"  d=" M  0,-40  L  0,163.988  C  -0,181.882  14.506,196.388  32.4,196.388  L  129.6,196.388  C  147.494,196.388  162,181.882  162,163.988  L  162,-40  z " />
<path transform="translate( 0, 0 )" style="stroke: hsl(107.6, 55%, 50%);" id="1213"  d=" M  0,-40  L  0,163.988  C  -0,181.882  14.506,196.388  32.4,196.388  L  129.6,196.388  C  147.494,196.388  162,181.882  162,163.988  L  162,-40  z " />
<path transform="translate( 0, 0 )" style="stroke: hsl(134.5, 55%, 50%);" id="1517"  d=" M  0,-40  L  0,163.988  C  -0,181.882  14.506,196.388  32.4,196.388  L  129.6,196.388  C  147.494,196.388  162,181.882  162,163.988  L  162,-40  z " />
<path transform="translate( 0, 0 )" style="stroke: hsl(161.4, 55%, 50%);" id="1821"  d=" M  0,-40  L  0,163.988  C  -0,181.882  14.506,196.388  32.4,196.388  L  129.6,196.388  C  147.494,196.388  162,181.882  162,163.988  L  162,-40  z " />
<path transform="translate( 0, 0 )" style="stroke: hsl(188.3, 55%, 50%);" id="2125"  d=" M  0,-40  L  0,163.988  C  -0,181.882  14.506,196.388  32.4,196.388  L  129.6,196.388  C  147.494,196.388  162,181.882  162,163.988  L  162,-40  z " />
<path transform="translate( 0, 0 )" style="stroke: hsl(215.2, 55%, 50%);" id="2429"  d=" M  0,-40  L  0,163.988  C  -0,181.882  14.506,196.388  32.4,196.388  L  129.6,196.388  C  147.494,196.388  162,181.882  162,163.988  L  162,-40  z " />
<path transform="translate( 0, 0 )" style="stroke: hsl(242.1, 55%, 50%);" id="2733"  d=" M  0,-40  L  0,163.988  C  -0,181.882  14.506,196.388  32.4,196.388  L  129.6,196.388  C  147.494,196.388  162,181.882  162,163.988  L  162,-40  z " />
<path transform="translate( 0, 0 )" style="stroke: hsl(269, 55%, 50%);" id="3037"  d=" M  0,-40  L  0,163.988  C  -0,181.882  14.506,196.388  32.4,196.388  L  129.6,196.388  C  147.494,196.388  162,181.882  162,163.988  L  162,-40  z " />
<path transform="translate( 0, 0 )" style="stroke: hsl(295.9, 55%, 50%);" id="3341"  d=" M  0,-40  L  0,163.988  C  -0,181.882  14.506,196.388  32.4,196.388  L  129.6,196.388  C  147.494,196.388  162,181.882  162,163.988  L  162,-40  z " />
    </g>
    <!-- End of group #pocket -->
    
    <!-- Start of group #chestPocketWelt -->
    <g id="chestPocketWelt"  transform=" translate(6.975 20)  translate(1524.444 206.018) " >
        <path class="hidden" id="11"  d=" M  -1.975,-15  L  105,-15  L  105,15  L  -1.975,15  z " />
<path transform="translate( 0, 0 )" style="stroke: hsl(26.9, 55%, 50%);" id="302"  d=" M  -1.975,15  L  103.025,15  L  105,0  L  103.025,-15  L  -1.975,-15  L  0,0  z " />
<path transform="translate( 0, 0 )" style="stroke: hsl(53.8, 55%, 50%);" id="606"  d=" M  -1.975,15  L  103.025,15  L  105,0  L  103.025,-15  L  -1.975,-15  L  0,0  z " />
<path transform="translate( 0, 0 )" style="stroke: hsl(80.7, 55%, 50%);" id="910"  d=" M  -1.975,15  L  103.025,15  L  105,0  L  103.025,-15  L  -1.975,-15  L  0,0  z " />
<path transform="translate( 0, 0 )" style="stroke: hsl(107.6, 55%, 50%);" id="1214"  d=" M  -1.975,15  L  103.025,15  L  105,0  L  103.025,-15  L  -1.975,-15  L  0,0  z " />
<path transform="translate( 0, 0 )" style="stroke: hsl(134.5, 55%, 50%);" id="1518"  d=" M  -1.975,15  L  103.025,15  L  105,0  L  103.025,-15  L  -1.975,-15  L  0,0  z " />
<path transform="translate( 0, 0 )" style="stroke: hsl(161.4, 55%, 50%);" id="1822"  d=" M  -1.975,15  L  103.025,15  L  105,0  L  103.025,-15  L  -1.975,-15  L  0,0  z " />
<path transform="translate( 0, 0 )" style="stroke: hsl(188.3, 55%, 50%);" id="2126"  d=" M  -1.975,15  L  103.025,15  L  105,0  L  103.025,-15  L  -1.975,-15  L  0,0  z " />
<path transform="translate( 0, 0 )" style="stroke: hsl(215.2, 55%, 50%);" id="2430"  d=" M  -1.975,15  L  103.025,15  L  105,0  L  103.025,-15  L  -1.975,-15  L  0,0  z " />
<path transform="translate( 0, 0 )" style="stroke: hsl(242.1, 55%, 50%);" id="2734"  d=" M  -1.975,15  L  103.025,15  L  105,0  L  103.025,-15  L  -1.975,-15  L  0,0  z " />
<path transform="translate( 0, 0 )" style="stroke: hsl(269, 55%, 50%);" id="3038"  d=" M  -1.975,15  L  103.025,15  L  105,0  L  103.025,-15  L  -1.975,-15  L  0,0  z " />
<path transform="translate( 0, 0 )" style="stroke: hsl(295.9, 55%, 50%);" id="3342"  d=" M  -1.975,15  L  103.025,15  L  105,0  L  103.025,-15  L  -1.975,-15  L  0,0  z " />
    </g>
    <!-- End of group #chestPocketWelt -->
    
    <!-- Start of group #chestPocketBag -->
    <g id="chestPocketBag"  transform=" translate(5 22.773)  translate(1248.832 495.047) " >
        <path class="hidden" id="12"  d=" M  0,-17.773  L  135,-17.773  L  135,117.773  L  0,117.773  z " />
<path transform="translate( 0, 0 )" style="stroke: hsl(26.9, 55%, 50%);" id="303"  d=" M  0,40  L  0,0  L  135,-17.773  L  135,40  M  135,60  L  135,117.773  L  0,100  L  0,60 " />
<path transform="translate( 0, 0 )" style="stroke: hsl(53.8, 55%, 50%);" id="607"  d=" M  0,40  L  0,0  L  135,-17.773  L  135,40  M  135,60  L  135,117.773  L  0,100  L  0,60 " />
<path transform="translate( 0, 0 )" style="stroke: hsl(80.7, 55%, 50%);" id="911"  d=" M  0,40  L  0,0  L  135,-17.773  L  135,40  M  135,60  L  135,117.773  L  0,100  L  0,60 " />
<path transform="translate( 0, 0 )" style="stroke: hsl(107.6, 55%, 50%);" id="1215"  d=" M  0,40  L  0,0  L  135,-17.773  L  135,40  M  135,60  L  135,117.773  L  0,100  L  0,60 " />
<path transform="translate( 0, 0 )" style="stroke: hsl(134.5, 55%, 50%);" id="1519"  d=" M  0,40  L  0,0  L  135,-17.773  L  135,40  M  135,60  L  135,117.773  L  0,100  L  0,60 " />
<path transform="translate( 0, 0 )" style="stroke: hsl(161.4, 55%, 50%);" id="1823"  d=" M  0,40  L  0,0  L  135,-17.773  L  135,40  M  135,60  L  135,117.773  L  0,100  L  0,60 " />
<path transform="translate( 0, 0 )" style="stroke: hsl(188.3, 55%, 50%);" id="2127"  d=" M  0,40  L  0,0  L  135,-17.773  L  135,40  M  135,60  L  135,117.773  L  0,100  L  0,60 " />
<path transform="translate( 0, 0 )" style="stroke: hsl(215.2, 55%, 50%);" id="2431"  d=" M  0,40  L  0,0  L  135,-17.773  L  135,40  M  135,60  L  135,117.773  L  0,100  L  0,60 " />
<path transform="translate( 0, 0 )" style="stroke: hsl(242.1, 55%, 50%);" id="2735"  d=" M  0,40  L  0,0  L  135,-17.773  L  135,40  M  135,60  L  135,117.773  L  0,100  L  0,60 " />
<path transform="translate( 0, 0 )" style="stroke: hsl(269, 55%, 50%);" id="3039"  d=" M  0,40  L  0,0  L  135,-17.773  L  135,40  M  135,60  L  135,117.773  L  0,100  L  0,60 " />
<path transform="translate( 0, 0 )" style="stroke: hsl(295.9, 55%, 50%);" id="3343"  d=" M  0,40  L  0,0  L  135,-17.773  L  135,40  M  135,60  L  135,117.773  L  0,100  L  0,60 " />
    </g>
    <!-- End of group #chestPocketBag -->
    
    <!-- Start of group #innerPocketWelt -->
    <g id="innerPocketWelt"  transform=" translate(5 5)  translate(1420.832 248.659) " >
        <path class="hidden" id="13"  d=" M  0,0  L  155,0  L  155,10  L  0,10  z " />
<path transform="translate( 0, 0 )" style="stroke: hsl(26.9, 55%, 50%);" id="304"  d=" M  0,0  L  155,0  L  155,10  L  0,10  z " />
<path transform="translate( 0, 0 )" style="stroke: hsl(53.8, 55%, 50%);" id="608"  d=" M  0,0  L  155,0  L  155,10  L  0,10  z " />
<path transform="translate( 0, 0 )" style="stroke: hsl(80.7, 55%, 50%);" id="912"  d=" M  0,0  L  155,0  L  155,10  L  0,10  z " />
<path transform="translate( 0, 0 )" style="stroke: hsl(107.6, 55%, 50%);" id="1216"  d=" M  0,0  L  155,0  L  155,10  L  0,10  z " />
<path transform="translate( 0, 0 )" style="stroke: hsl(134.5, 55%, 50%);" id="1520"  d=" M  0,0  L  155,0  L  155,10  L  0,10  z " />
<path transform="translate( 0, 0 )" style="stroke: hsl(161.4, 55%, 50%);" id="1824"  d=" M  0,0  L  155,0  L  155,10  L  0,10  z " />
<path transform="translate( 0, 0 )" style="stroke: hsl(188.3, 55%, 50%);" id="2128"  d=" M  0,0  L  155,0  L  155,10  L  0,10  z " />
<path transform="translate( 0, 0 )" style="stroke: hsl(215.2, 55%, 50%);" id="2432"  d=" M  0,0  L  155,0  L  155,10  L  0,10  z " />
<path transform="translate( 0, 0 )" style="stroke: hsl(242.1, 55%, 50%);" id="2736"  d=" M  0,0  L  155,0  L  155,10  L  0,10  z " />
<path transform="translate( 0, 0 )" style="stroke: hsl(269, 55%, 50%);" id="3040"  d=" M  0,0  L  155,0  L  155,10  L  0,10  z " />
<path transform="translate( 0, 0 )" style="stroke: hsl(295.9, 55%, 50%);" id="3344"  d=" M  0,0  L  155,0  L  155,10  L  0,10  z " />
    </g>
    <!-- End of group #innerPocketWelt -->
    
    <!-- Start of group #innerPocketBag -->
    <g id="innerPocketBag"  transform=" translate(5 5)  translate(1420.832 268.659) " >
        <path class="hidden" id="14"  d=" M  0,0  L  155,0  L  155,100  L  0,100  z " />
<path transform="translate( 0, 0 )" style="stroke: hsl(26.9, 55%, 50%);" id="305"  d=" M  0,40  L  0,0  L  155,0  L  155,40  M  155,60  L  155,100  L  0,100  L  0,60 " />
<path transform="translate( 0, 0 )" style="stroke: hsl(53.8, 55%, 50%);" id="609"  d=" M  0,40  L  0,0  L  155,0  L  155,40  M  155,60  L  155,100  L  0,100  L  0,60 " />
<path transform="translate( 0, 0 )" style="stroke: hsl(80.7, 55%, 50%);" id="913"  d=" M  0,40  L  0,0  L  155,0  L  155,40  M  155,60  L  155,100  L  0,100  L  0,60 " />
<path transform="translate( 0, 0 )" style="stroke: hsl(107.6, 55%, 50%);" id="1217"  d=" M  0,40  L  0,0  L  155,0  L  155,40  M  155,60  L  155,100  L  0,100  L  0,60 " />
<path transform="translate( 0, 0 )" style="stroke: hsl(134.5, 55%, 50%);" id="1521"  d=" M  0,40  L  0,0  L  155,0  L  155,40  M  155,60  L  155,100  L  0,100  L  0,60 " />
<path transform="translate( 0, 0 )" style="stroke: hsl(161.4, 55%, 50%);" id="1825"  d=" M  0,40  L  0,0  L  155,0  L  155,40  M  155,60  L  155,100  L  0,100  L  0,60 " />
<path transform="translate( 0, 0 )" style="stroke: hsl(188.3, 55%, 50%);" id="2129"  d=" M  0,40  L  0,0  L  155,0  L  155,40  M  155,60  L  155,100  L  0,100  L  0,60 " />
<path transform="translate( 0, 0 )" style="stroke: hsl(215.2, 55%, 50%);" id="2433"  d=" M  0,40  L  0,0  L  155,0  L  155,40  M  155,60  L  155,100  L  0,100  L  0,60 " />
<path transform="translate( 0, 0 )" style="stroke: hsl(242.1, 55%, 50%);" id="2737"  d=" M  0,40  L  0,0  L  155,0  L  155,40  M  155,60  L  155,100  L  0,100  L  0,60 " />
<path transform="translate( 0, 0 )" style="stroke: hsl(269, 55%, 50%);" id="3041"  d=" M  0,40  L  0,0  L  155,0  L  155,40  M  155,60  L  155,100  L  0,100  L  0,60 " />
<path transform="translate( 0, 0 )" style="stroke: hsl(295.9, 55%, 50%);" id="3345"  d=" M  0,40  L  0,0  L  155,0  L  155,40  M  155,60  L  155,100  L  0,100  L  0,60 " />
    </g>
    <!-- End of group #innerPocketBag -->
    
    <!-- Start of group #innerPocketFacingExtension -->
    <g id="innerPocketFacingExtension" >
    </g>
    <!-- End of group #innerPocketFacingExtension -->
    
    <!-- Start of group #sampler-back -->
    <g id="sampler-back" >
    </g>
    <!-- End of group #sampler-back -->
    
    <!-- Start of group #sampler-front -->
    <g id="sampler-front" >
    </g>
    <!-- End of group #sampler-front -->
    
    <!-- Start of group #sampler-side -->
    <g id="sampler-side" >
    </g>
    <!-- End of group #sampler-side -->
    
    <!-- Start of group #sampler-collar -->
    <g id="sampler-collar" >
    </g>
    <!-- End of group #sampler-collar -->
    
    <!-- Start of group #sampler-collarstand -->
    <g id="sampler-collarstand" >
    </g>
    <!-- End of group #sampler-collarstand -->
    
    <!-- Start of group #sampler-undercollar -->
    <g id="sampler-undercollar" >
    </g>
    <!-- End of group #sampler-undercollar -->
    
    <!-- Start of group #sampler-topsleeve -->
    <g id="sampler-topsleeve" >
    </g>
    <!-- End of group #sampler-topsleeve -->
    
    <!-- Start of group #sampler-undersleeve -->
    <g id="sampler-undersleeve" >
    </g>
    <!-- End of group #sampler-undersleeve -->
    
    <!-- Start of group #sampler-pocket -->
    <g id="sampler-pocket" >
    </g>
    <!-- End of group #sampler-pocket -->
    
    <!-- Start of group #sampler-chestPocketWelt -->
    <g id="sampler-chestPocketWelt" >
    </g>
    <!-- End of group #sampler-chestPocketWelt -->
    
    <!-- Start of group #sampler-chestPocketBag -->
    <g id="sampler-chestPocketBag" >
    </g>
    <!-- End of group #sampler-chestPocketBag -->
    
    <!-- Start of group #sampler-innerPocketWelt -->
    <g id="sampler-innerPocketWelt" >
    </g>
    <!-- End of group #sampler-innerPocketWelt -->
    
    <!-- Start of group #sampler-innerPocketBag -->
    <g id="sampler-innerPocketBag" >
    </g>
    <!-- End of group #sampler-innerPocketBag -->
</g>
<!-- End of group #patternContainer -->

</svg>

