<?xml version="1.0" encoding="UTF-8" standalone="no"?>
<svg
    xmlns="http://www.w3.org/2000/svg"
    xmlns:svg="http://www.w3.org/2000/svg"
    xmlns:xlink="http://www.w3.org/1999/xlink"
    xmlns:freesewing="http://freesewing.org/namespaces/freesewing" viewBox ="0 0 1665 784"
    width ="1665mm"
    height ="784mm"
    freesewing:version ="1.6.5"
    freesewing:origin ="joost.core.freesewing.org" 
>

<style type="text/css">
    <![CDATA[
    path { fill: none; stroke: #000000; stroke-opacity:1; stroke-width: 0.5; stroke-miterlimit:4; stroke-dashoffset:0; stroke-linecap:round; stroke-linejoin:round; }
    path.hidden { fill: none; stroke: none; }]]>
</style>


<!-- Start of group #patternContainer -->
<g id="patternContainer" >
    
    <!-- Start of group #backBlock -->
    <g id="backBlock" >
    </g>
    <!-- End of group #backBlock -->
    
    <!-- Start of group #frontBlock -->
    <g id="frontBlock" >
    </g>
    <!-- End of group #frontBlock -->
    
    <!-- Start of group #sleeveBlock -->
    <g id="sleeveBlock" >
    </g>
    <!-- End of group #sleeveBlock -->
    
    <!-- Start of group #topsleeveBlock -->
    <g id="topsleeveBlock" >
    </g>
    <!-- End of group #topsleeveBlock -->
    
    <!-- Start of group #undersleeveBlock -->
    <g id="undersleeveBlock" >
    </g>
    <!-- End of group #undersleeveBlock -->
    
    <!-- Start of group #back -->
    <g id="back"  transform=" translate(5 5)  translate(311.6 0) " >
        <path class="hidden" id="2"  d=" M  0,0  L  258.921,0  L  258.921,751.85  L  0,751.85  z " />
<path transform="translate( 0, 0 )" style="stroke: hsl(26.9, 55%, 50%);" id="290"  d=" M  5.4,20  C  5.4,20  84.058,19.814  86.777,0  L  232.5,20  C  231.14,29.907  220,110.083  220,155.125  C  220,200.167  227.359,247.359  245.125,265.125  C  227.359,282.891  210.296,415.042  210.296,490  C  210.296,509.333  211.676,528.667  213.332,548  L  253.224,557.708  C  256.526,582.211  258.921,609.051  258.921,635  L  258.921,751.85  L  11.25,751.85  L  11.25,635  C  11.25,586.667  14.625,538.333  14.625,490  C  14.625,393.389  -0,296.778  0,200.167  C  0,110.083  5.4,20  5.4,20  z " />
<path transform="translate( 0, 0 )" style="stroke: hsl(53.8, 55%, 50%);" id="594"  d=" M  5.4,20  C  5.4,20  84.058,19.814  86.777,0  L  232.5,20  C  231.14,29.907  220,110.083  220,155.125  C  220,200.167  227.359,247.359  245.125,265.125  C  227.359,282.891  210.296,415.042  210.296,490  C  210.296,509.333  211.676,528.667  213.332,548  L  253.224,557.708  C  256.526,582.211  258.921,609.051  258.921,635  L  258.921,751.85  L  11.25,751.85  L  11.25,635  C  11.25,586.667  14.625,538.333  14.625,490  C  14.625,393.389  -0,296.778  0,200.167  C  0,110.083  5.4,20  5.4,20  z " />
<path transform="translate( 0, 0 )" style="stroke: hsl(80.7, 55%, 50%);" id="898"  d=" M  5.4,20  C  5.4,20  84.058,19.814  86.777,0  L  232.5,20  C  231.14,29.907  220,110.083  220,155.125  C  220,200.167  227.359,247.359  245.125,265.125  C  227.359,282.891  210.296,415.042  210.296,490  C  210.296,509.333  211.676,528.667  213.332,548  L  253.224,557.708  C  256.526,582.211  258.921,609.051  258.921,635  L  258.921,751.85  L  11.25,751.85  L  11.25,635  C  11.25,586.667  14.625,538.333  14.625,490  C  14.625,393.389  -0,296.778  0,200.167  C  0,110.083  5.4,20  5.4,20  z " />
<path transform="translate( 0, 0 )" style="stroke: hsl(107.6, 55%, 50%);" id="1202"  d=" M  5.4,20  C  5.4,20  84.058,19.814  86.777,0  L  232.5,20  C  231.14,29.907  220,110.083  220,155.125  C  220,200.167  227.359,247.359  245.125,265.125  C  227.359,282.891  210.296,415.042  210.296,490  C  210.296,509.333  211.676,528.667  213.332,548  L  253.224,557.708  C  256.526,582.211  258.921,609.051  258.921,635  L  258.921,751.85  L  11.25,751.85  L  11.25,635  C  11.25,586.667  14.625,538.333  14.625,490  C  14.625,393.389  -0,296.778  0,200.167  C  0,110.083  5.4,20  5.4,20  z " />
<path transform="translate( 0, 0 )" style="stroke: hsl(134.5, 55%, 50%);" id="1506"  d=" M  5.4,20  C  5.4,20  84.058,19.814  86.777,0  L  232.5,20  C  231.14,29.907  220,110.083  220,155.125  C  220,200.167  227.359,247.359  245.125,265.125  C  227.359,282.891  210.296,415.042  210.296,490  C  210.296,509.333  211.676,528.667  213.332,548  L  253.224,557.708  C  256.526,582.211  258.921,609.051  258.921,635  L  258.921,751.85  L  11.25,751.85  L  11.25,635  C  11.25,586.667  14.625,538.333  14.625,490  C  14.625,393.389  -0,296.778  0,200.167  C  0,110.083  5.4,20  5.4,20  z " />
<path transform="translate( 0, 0 )" style="stroke: hsl(161.4, 55%, 50%);" id="1810"  d=" M  5.4,20  C  5.4,20  84.058,19.814  86.777,0  L  232.5,20  C  231.14,29.907  220,110.083  220,155.125  C  220,200.167  227.359,247.359  245.125,265.125  C  227.359,282.891  210.296,415.042  210.296,490  C  210.296,509.333  211.676,528.667  213.332,548  L  253.224,557.708  C  256.526,582.211  258.921,609.051  258.921,635  L  258.921,751.85  L  11.25,751.85  L  11.25,635  C  11.25,586.667  14.625,538.333  14.625,490  C  14.625,393.389  -0,296.778  0,200.167  C  0,110.083  5.4,20  5.4,20  z " />
<path transform="translate( 0, 0 )" style="stroke: hsl(188.3, 55%, 50%);" id="2114"  d=" M  5.4,20  C  5.4,20  84.058,19.814  86.777,0  L  232.5,20  C  231.14,29.907  220,110.083  220,155.125  C  220,200.167  227.359,247.359  245.125,265.125  C  227.359,282.891  210.296,415.042  210.296,490  C  210.296,509.333  211.676,528.667  213.332,548  L  253.224,557.708  C  256.526,582.211  258.921,609.051  258.921,635  L  258.921,751.85  L  11.25,751.85  L  11.25,635  C  11.25,586.667  14.625,538.333  14.625,490  C  14.625,393.389  -0,296.778  0,200.167  C  0,110.083  5.4,20  5.4,20  z " />
<path transform="translate( 0, 0 )" style="stroke: hsl(215.2, 55%, 50%);" id="2418"  d=" M  5.4,20  C  5.4,20  84.058,19.814  86.777,0  L  232.5,20  C  231.14,29.907  220,110.083  220,155.125  C  220,200.167  227.359,247.359  245.125,265.125  C  227.359,282.891  210.296,415.042  210.296,490  C  210.296,509.333  211.676,528.667  213.332,548  L  253.224,557.708  C  256.526,582.211  258.921,609.051  258.921,635  L  258.921,751.85  L  11.25,751.85  L  11.25,635  C  11.25,586.667  14.625,538.333  14.625,490  C  14.625,393.389  -0,296.778  0,200.167  C  0,110.083  5.4,20  5.4,20  z " />
<path transform="translate( 0, 0 )" style="stroke: hsl(242.1, 55%, 50%);" id="2722"  d=" M  5.4,20  C  5.4,20  84.058,19.814  86.777,0  L  232.5,20  C  231.14,29.907  220,110.083  220,155.125  C  220,200.167  227.359,247.359  245.125,265.125  C  227.359,282.891  210.296,415.042  210.296,490  C  210.296,509.333  211.676,528.667  213.332,548  L  253.224,557.708  C  256.526,582.211  258.921,609.051  258.921,635  L  258.921,751.85  L  11.25,751.85  L  11.25,635  C  11.25,586.667  14.625,538.333  14.625,490  C  14.625,393.389  -0,296.778  0,200.167  C  0,110.083  5.4,20  5.4,20  z " />
<path transform="translate( 0, 0 )" style="stroke: hsl(269, 55%, 50%);" id="3026"  d=" M  5.4,20  C  5.4,20  84.058,19.814  86.777,0  L  232.5,20  C  231.14,29.907  220,110.083  220,155.125  C  220,200.167  227.359,247.359  245.125,265.125  C  227.359,282.891  210.296,415.042  210.296,490  C  210.296,509.333  211.676,528.667  213.332,548  L  253.224,557.708  C  256.526,582.211  258.921,609.051  258.921,635  L  258.921,751.85  L  11.25,751.85  L  11.25,635  C  11.25,586.667  14.625,538.333  14.625,490  C  14.625,393.389  -0,296.778  0,200.167  C  0,110.083  5.4,20  5.4,20  z " />
<path transform="translate( 0, 0 )" style="stroke: hsl(295.9, 55%, 50%);" id="3330"  d=" M  5.4,20  C  5.4,20  84.058,19.814  86.777,0  L  232.5,20  C  231.14,29.907  220,110.083  220,155.125  C  220,200.167  227.359,247.359  245.125,265.125  C  227.359,282.891  210.296,415.042  210.296,490  C  210.296,509.333  211.676,528.667  213.332,548  L  253.224,557.708  C  256.526,582.211  258.921,609.051  258.921,635  L  258.921,751.85  L  11.25,751.85  L  11.25,635  C  11.25,586.667  14.625,538.333  14.625,490  C  14.625,393.389  -0,296.778  0,200.167  C  0,110.083  5.4,20  5.4,20  z " />
    </g>
    <!-- End of group #back -->
    
    <!-- Start of group #front -->
    <g id="front"  transform=" translate(26.6 11.095)  translate(0 0) " >
        <path class="hidden" id="3"  d=" M  -21.6,-6.095  L  280,-6.095  L  280,768.274  L  -21.6,768.274  z " />
<path transform="translate( 0, 0 )" style="stroke: hsl(26.9, 55%, 50%);" id="291"  d=" M  150.916,500.875  L  247.111,500.875  M  255.598,697.263  L  113.4,697.263  L  113.4,500.875  L  137.012,500.875 " />
<path transform="translate( 0, 0 )" style="stroke: hsl(26.9, 55%, 50%);" id="292"  d=" M  -21.6,440.063  C  -21.6,287.436  -18.441,92.277  -18.441,92.277  L  11.54,91.205  L  66.809,66.84  L  95.124,-6.095  L  238.653,20.383  C  235.932,35.134  218,110.083  218,155.125  C  218,200.167  227.359,247.359  245.125,265.125  C  256.673,276.673  267.943,283.824  280,287.442  C  280,287.442  246.973,415.042  246.973,490  C  246.973,538.333  255.598,586.667  255.598,635  L  255.598,757.957  L  76.68,768.018  C  12.78,771.611  -12.495,738.535  -20.014,602.631  C  -21.6,573.964  -21.6,551.983  -21.6,530.001  L  -21.6,440.063  z  M  143.964,562.5  C  143.964,562.5  151.277,514.167  151.277,490  C  151.277,445.611  143.964,356.833  143.964,356.833  C  143.964,356.833  136.651,445.611  136.651,490  C  136.651,514.167  143.964,562.5  143.964,562.5  z " />
<path transform="translate( 0, 0 )" style="stroke: hsl(26.9, 55%, 50%);" id="293"  d=" M  82.5,290.25  L  82.5,275.12  L  186.602,261.415  L  186.602,276.545  L  82.5,290.25  z " />
<path transform="translate( 0, 0 )" style="stroke: hsl(26.9, 55%, 50%);" id="294"  d=" M  -21.6,440.063  L  52.464,73.164 " />
<path transform="translate( 0, 0 )" style="stroke: hsl(53.8, 55%, 50%);" id="595"  d=" M  150.916,500.875  L  247.111,500.875  M  255.598,697.263  L  113.4,697.263  L  113.4,500.875  L  137.012,500.875 " />
<path transform="translate( 0, 0 )" style="stroke: hsl(53.8, 55%, 50%);" id="596"  d=" M  -21.6,436.068  C  -21.6,287.436  -18.441,92.277  -18.441,92.277  L  11.54,91.205  L  66.657,66.931  L  95.138,-6.092  L  238.653,20.383  C  235.932,35.134  218,110.083  218,155.125  C  218,200.167  227.359,247.359  245.125,265.125  C  256.673,276.673  267.943,283.824  280,287.442  C  280,287.442  246.973,415.042  246.973,490  C  246.973,538.333  255.598,586.667  255.598,635  L  255.598,757.957  L  76.68,768.018  C  12.78,771.611  -12.366,738.533  -19.995,600.556  C  -21.6,571.528  -21.6,549.283  -21.6,527.038  L  -21.6,436.068  z  M  143.964,562.5  C  143.964,562.5  151.277,514.167  151.277,490  C  151.277,445.611  143.964,356.833  143.964,356.833  C  143.964,356.833  136.651,445.611  136.651,490  C  136.651,514.167  143.964,562.5  143.964,562.5  z " />
<path transform="translate( 0, 0 )" style="stroke: hsl(53.8, 55%, 50%);" id="597"  d=" M  82.5,290.25  L  82.5,275.12  L  186.602,261.415  L  186.602,276.545  L  82.5,290.25  z " />
<path transform="translate( 0, 0 )" style="stroke: hsl(53.8, 55%, 50%);" id="598"  d=" M  -21.6,436.068  L  52.294,73.257 " />
<path transform="translate( 0, 0 )" style="stroke: hsl(80.7, 55%, 50%);" id="899"  d=" M  150.916,500.875  L  247.111,500.875  M  255.598,697.263  L  113.4,697.263  L  113.4,500.875  L  137.012,500.875 " />
<path transform="translate( 0, 0 )" style="stroke: hsl(80.7, 55%, 50%);" id="900"  d=" M  -21.6,432.073  C  -21.6,287.436  -18.441,92.277  -18.441,92.277  L  11.54,91.205  L  66.503,67.025  L  95.152,-6.09  L  238.653,20.383  C  235.932,35.134  218,110.083  218,155.125  C  218,200.167  227.359,247.359  245.125,265.125  C  256.673,276.673  267.943,283.824  280,287.442  C  280,287.442  246.973,415.042  246.973,490  C  246.973,538.333  255.598,586.667  255.598,635  L  255.598,757.957  L  76.68,768.018  C  12.78,771.611  -12.255,738.531  -19.978,598.766  C  -21.6,569.412  -21.6,546.948  -21.6,524.483  L  -21.6,432.073  z  M  143.964,562.5  C  143.964,562.5  151.277,514.167  151.277,490  C  151.277,445.611  143.964,356.833  143.964,356.833  C  143.964,356.833  136.651,445.611  136.651,490  C  136.651,514.167  143.964,562.5  143.964,562.5  z " />
<path transform="translate( 0, 0 )" style="stroke: hsl(80.7, 55%, 50%);" id="901"  d=" M  82.5,290.25  L  82.5,275.12  L  186.602,261.415  L  186.602,276.545  L  82.5,290.25  z " />
<path transform="translate( 0, 0 )" style="stroke: hsl(80.7, 55%, 50%);" id="902"  d=" M  -21.6,432.073  L  52.12,73.353 " />
<path transform="translate( 0, 0 )" style="stroke: hsl(107.6, 55%, 50%);" id="1203"  d=" M  150.916,500.875  L  247.111,500.875  M  255.598,697.263  L  113.4,697.263  L  113.4,500.875  L  137.012,500.875 " />
<path transform="translate( 0, 0 )" style="stroke: hsl(107.6, 55%, 50%);" id="1204"  d=" M  -21.6,428.078  C  -21.6,287.436  -18.441,92.277  -18.441,92.277  L  11.54,91.205  L  66.345,67.12  L  95.167,-6.087  L  238.653,20.383  C  235.932,35.134  218,110.083  218,155.125  C  218,200.167  227.359,247.359  245.125,265.125  C  256.673,276.673  267.943,283.824  280,287.442  C  280,287.442  246.973,415.042  246.973,490  C  246.973,538.333  255.598,586.667  255.598,635  L  255.598,757.957  L  76.68,768.018  C  12.78,771.611  -12.158,738.529  -19.964,597.209  C  -21.6,567.591  -21.6,544.925  -21.6,522.259  L  -21.6,428.078  z  M  143.964,562.5  C  143.964,562.5  151.277,514.167  151.277,490  C  151.277,445.611  143.964,356.833  143.964,356.833  C  143.964,356.833  136.651,445.611  136.651,490  C  136.651,514.167  143.964,562.5  143.964,562.5  z " />
<path transform="translate( 0, 0 )" style="stroke: hsl(107.6, 55%, 50%);" id="1205"  d=" M  82.5,290.25  L  82.5,275.12  L  186.602,261.415  L  186.602,276.545  L  82.5,290.25  z " />
<path transform="translate( 0, 0 )" style="stroke: hsl(107.6, 55%, 50%);" id="1206"  d=" M  -21.6,428.078  L  51.942,73.45 " />
<path transform="translate( 0, 0 )" style="stroke: hsl(134.5, 55%, 50%);" id="1507"  d=" M  150.916,500.875  L  247.111,500.875  M  255.598,697.263  L  113.4,697.263  L  113.4,500.875  L  137.012,500.875 " />
<path transform="translate( 0, 0 )" style="stroke: hsl(134.5, 55%, 50%);" id="1508"  d=" M  -21.6,424.083  C  -21.6,287.436  -18.441,92.277  -18.441,92.277  L  11.54,91.205  L  66.184,67.218  L  95.182,-6.084  L  238.653,20.383  C  235.932,35.134  218,110.083  218,155.125  C  218,200.167  227.359,247.359  245.125,265.125  C  256.673,276.673  267.943,283.824  280,287.442  C  280,287.442  246.973,415.042  246.973,490  C  246.973,538.333  255.598,586.667  255.598,635  L  255.598,757.957  L  76.68,768.018  C  12.78,771.611  -12.072,738.528  -19.951,595.84  C  -21.6,565.977  -21.6,543.141  -21.6,520.304  L  -21.6,424.083  z  M  143.964,562.5  C  143.964,562.5  151.277,514.167  151.277,490  C  151.277,445.611  143.964,356.833  143.964,356.833  C  143.964,356.833  136.651,445.611  136.651,490  C  136.651,514.167  143.964,562.5  143.964,562.5  z " />
<path transform="translate( 0, 0 )" style="stroke: hsl(134.5, 55%, 50%);" id="1509"  d=" M  82.5,290.25  L  82.5,275.12  L  186.602,261.415  L  186.602,276.545  L  82.5,290.25  z " />
<path transform="translate( 0, 0 )" style="stroke: hsl(134.5, 55%, 50%);" id="1510"  d=" M  -21.6,424.083  L  51.761,73.549 " />
<path transform="translate( 0, 0 )" style="stroke: hsl(161.4, 55%, 50%);" id="1811"  d=" M  150.916,500.875  L  247.111,500.875  M  255.598,697.263  L  113.4,697.263  L  113.4,500.875  L  137.012,500.875 " />
<path transform="translate( 0, 0 )" style="stroke: hsl(161.4, 55%, 50%);" id="1812"  d=" M  -21.6,420.088  C  -21.6,287.436  -18.441,92.277  -18.441,92.277  L  11.54,91.205  L  66.018,67.317  L  95.197,-6.081  L  238.653,20.383  C  235.932,35.134  218,110.083  218,155.125  C  218,200.167  227.359,247.359  245.125,265.125  C  256.673,276.673  267.943,283.824  280,287.442  C  280,287.442  246.973,415.042  246.973,490  C  246.973,538.333  255.598,586.667  255.598,635  L  255.598,757.957  L  76.68,768.018  C  12.78,771.611  -11.996,738.527  -19.939,594.627  C  -21.6,564.535  -21.6,541.553  -21.6,518.572  L  -21.6,420.088  z  M  143.964,562.5  C  143.964,562.5  151.277,514.167  151.277,490  C  151.277,445.611  143.964,356.833  143.964,356.833  C  143.964,356.833  136.651,445.611  136.651,490  C  136.651,514.167  143.964,562.5  143.964,562.5  z " />
<path transform="translate( 0, 0 )" style="stroke: hsl(161.4, 55%, 50%);" id="1813"  d=" M  82.5,290.25  L  82.5,275.12  L  186.602,261.415  L  186.602,276.545  L  82.5,290.25  z " />
<path transform="translate( 0, 0 )" style="stroke: hsl(161.4, 55%, 50%);" id="1814"  d=" M  -21.6,420.088  L  51.576,73.65 " />
<path transform="translate( 0, 0 )" style="stroke: hsl(188.3, 55%, 50%);" id="2115"  d=" M  150.916,500.875  L  247.111,500.875  M  255.598,697.263  L  113.4,697.263  L  113.4,500.875  L  137.012,500.875 " />
<path transform="translate( 0, 0 )" style="stroke: hsl(188.3, 55%, 50%);" id="2116"  d=" M  -21.6,416.093  C  -21.6,287.436  -18.441,92.277  -18.441,92.277  L  11.54,91.205  L  65.85,67.419  L  95.212,-6.079  L  238.653,20.383  C  235.932,35.134  218,110.083  218,155.125  C  218,200.167  227.359,247.359  245.125,265.125  C  256.673,276.673  267.943,283.824  280,287.442  C  280,287.442  246.973,415.042  246.973,490  C  246.973,538.333  255.598,586.667  255.598,635  L  255.598,757.957  L  76.68,768.018  C  12.78,771.611  -11.929,738.526  -19.929,593.546  C  -21.6,563.263  -21.6,540.146  -21.6,517.028  L  -21.6,416.093  z  M  143.964,562.5  C  143.964,562.5  151.277,514.167  151.277,490  C  151.277,445.611  143.964,356.833  143.964,356.833  C  143.964,356.833  136.651,445.611  136.651,490  C  136.651,514.167  143.964,562.5  143.964,562.5  z " />
<path transform="translate( 0, 0 )" style="stroke: hsl(188.3, 55%, 50%);" id="2117"  d=" M  82.5,290.25  L  82.5,275.12  L  186.602,261.415  L  186.602,276.545  L  82.5,290.25  z " />
<path transform="translate( 0, 0 )" style="stroke: hsl(188.3, 55%, 50%);" id="2118"  d=" M  -21.6,416.093  L  51.387,73.754 " />
<path transform="translate( 0, 0 )" style="stroke: hsl(215.2, 55%, 50%);" id="2419"  d=" M  150.916,500.875  L  247.111,500.875  M  255.598,697.263  L  113.4,697.263  L  113.4,500.875  L  137.012,500.875 " />
<path transform="translate( 0, 0 )" style="stroke: hsl(215.2, 55%, 50%);" id="2420"  d=" M  -21.6,412.098  C  -21.6,287.436  -18.441,92.277  -18.441,92.277  L  11.54,91.205  L  65.678,67.523  L  95.228,-6.076  L  238.653,20.383  C  235.932,35.134  218,110.083  218,155.125  C  218,200.167  227.359,247.359  245.125,265.125  C  256.673,276.673  267.943,283.824  280,287.442  C  280,287.442  246.973,415.042  246.973,490  C  246.973,538.333  255.598,586.667  255.598,635  L  255.598,757.957  L  76.68,768.018  C  12.78,771.611  -11.869,738.525  -19.92,592.575  C  -21.6,562.12  -21.6,538.881  -21.6,515.642  L  -21.6,412.098  z  M  143.964,562.5  C  143.964,562.5  151.277,514.167  151.277,490  C  151.277,445.611  143.964,356.833  143.964,356.833  C  143.964,356.833  136.651,445.611  136.651,490  C  136.651,514.167  143.964,562.5  143.964,562.5  z " />
<path transform="translate( 0, 0 )" style="stroke: hsl(215.2, 55%, 50%);" id="2421"  d=" M  82.5,290.25  L  82.5,275.12  L  186.602,261.415  L  186.602,276.545  L  82.5,290.25  z " />
<path transform="translate( 0, 0 )" style="stroke: hsl(215.2, 55%, 50%);" id="2422"  d=" M  -21.6,412.098  L  51.193,73.859 " />
<path transform="translate( 0, 0 )" style="stroke: hsl(242.1, 55%, 50%);" id="2723"  d=" M  150.916,500.875  L  247.111,500.875  M  255.598,697.263  L  113.4,697.263  L  113.4,500.875  L  137.012,500.875 " />
<path transform="translate( 0, 0 )" style="stroke: hsl(242.1, 55%, 50%);" id="2724"  d=" M  -21.6,408.103  C  -21.6,287.436  -18.441,92.277  -18.441,92.277  L  11.54,91.205  L  65.502,67.629  L  95.243,-6.073  L  238.653,20.383  C  235.932,35.134  218,110.083  218,155.125  C  218,200.167  227.359,247.359  245.125,265.125  C  256.673,276.673  267.943,283.824  280,287.442  C  280,287.442  246.973,415.042  246.973,490  C  246.973,538.333  255.598,586.667  255.598,635  L  255.598,757.957  L  76.68,768.018  C  12.78,771.611  -11.814,738.524  -19.912,591.699  C  -21.6,561.094  -21.6,537.743  -21.6,514.391  L  -21.6,408.103  z  M  143.964,562.5  C  143.964,562.5  151.277,514.167  151.277,490  C  151.277,445.611  143.964,356.833  143.964,356.833  C  143.964,356.833  136.651,445.611  136.651,490  C  136.651,514.167  143.964,562.5  143.964,562.5  z " />
<path transform="translate( 0, 0 )" style="stroke: hsl(242.1, 55%, 50%);" id="2725"  d=" M  82.5,290.25  L  82.5,275.12  L  186.602,261.415  L  186.602,276.545  L  82.5,290.25  z " />
<path transform="translate( 0, 0 )" style="stroke: hsl(242.1, 55%, 50%);" id="2726"  d=" M  -21.6,408.103  L  50.996,73.967 " />
<path transform="translate( 0, 0 )" style="stroke: hsl(269, 55%, 50%);" id="3027"  d=" M  150.916,500.875  L  247.111,500.875  M  255.598,697.263  L  113.4,697.263  L  113.4,500.875  L  137.012,500.875 " />
<path transform="translate( 0, 0 )" style="stroke: hsl(269, 55%, 50%);" id="3028"  d=" M  -21.6,404.108  C  -21.6,287.436  -18.441,92.277  -18.441,92.277  L  11.54,91.205  L  65.323,67.738  L  95.261,-6.069  L  238.653,20.383  C  235.932,35.134  218,110.083  218,155.125  C  218,200.167  227.359,247.359  245.125,265.125  C  256.673,276.673  267.943,283.824  280,287.442  C  280,287.442  246.973,415.042  246.973,490  C  246.973,538.333  255.598,586.667  255.598,635  L  255.598,757.957  L  76.68,768.018  C  12.78,771.611  -11.765,738.523  -19.905,590.904  C  -21.6,560.165  -21.6,536.71  -21.6,513.256  L  -21.6,404.108  z  M  143.964,562.5  C  143.964,562.5  151.277,514.167  151.277,490  C  151.277,445.611  143.964,356.833  143.964,356.833  C  143.964,356.833  136.651,445.611  136.651,490  C  136.651,514.167  143.964,562.5  143.964,562.5  z " />
<path transform="translate( 0, 0 )" style="stroke: hsl(269, 55%, 50%);" id="3029"  d=" M  82.5,290.25  L  82.5,275.12  L  186.602,261.415  L  186.602,276.545  L  82.5,290.25  z " />
<path transform="translate( 0, 0 )" style="stroke: hsl(269, 55%, 50%);" id="3030"  d=" M  -21.6,404.108  L  50.795,74.077 " />
<path transform="translate( 0, 0 )" style="stroke: hsl(295.9, 55%, 50%);" id="3331"  d=" M  150.916,500.875  L  247.111,500.875  M  255.598,697.263  L  113.4,697.263  L  113.4,500.875  L  137.012,500.875 " />
<path transform="translate( 0, 0 )" style="stroke: hsl(295.9, 55%, 50%);" id="3332"  d=" M  -21.6,400.113  C  -21.6,287.436  -18.441,92.277  -18.441,92.277  L  11.54,91.205  L  65.14,67.849  L  95.278,-6.066  L  238.653,20.383  C  235.932,35.134  218,110.083  218,155.125  C  218,200.167  227.359,247.359  245.125,265.125  C  256.673,276.673  267.943,283.824  280,287.442  C  280,287.442  246.973,415.042  246.973,490  C  246.973,538.333  255.598,586.667  255.598,635  L  255.598,757.957  L  76.68,768.018  C  12.78,771.611  -11.719,738.523  -19.898,590.181  C  -21.6,559.312  -21.6,535.768  -21.6,512.223  L  -21.6,400.113  z  M  143.964,562.5  C  143.964,562.5  151.277,514.167  151.277,490  C  151.277,445.611  143.964,356.833  143.964,356.833  C  143.964,356.833  136.651,445.611  136.651,490  C  136.651,514.167  143.964,562.5  143.964,562.5  z " />
<path transform="translate( 0, 0 )" style="stroke: hsl(295.9, 55%, 50%);" id="3333"  d=" M  82.5,290.25  L  82.5,275.12  L  186.602,261.415  L  186.602,276.545  L  82.5,290.25  z " />
<path transform="translate( 0, 0 )" style="stroke: hsl(295.9, 55%, 50%);" id="3334"  d=" M  -21.6,400.113  L  50.589,74.19 " />
    </g>
    <!-- End of group #front -->
    
    <!-- Start of group #side -->
    <g id="side"  transform=" translate(-267.474 -260.125)  translate(1084.603 0) " >
        <path class="hidden" id="4"  d=" M  272.474,265.125  L  404.203,265.125  L  404.203,757.957  L  272.474,757.957  z " />
<path transform="translate( 0, 0 )" style="stroke: hsl(26.9, 55%, 50%);" id="295"  d=" M  272.474,757.957  L  272.474,635  C  272.474,586.667  281.099,538.333  281.099,490  C  281.099,415.042  280,287.442  280,287.442  C  286.354,289.349  293,290.25  300,290.25  C  320,290.25  337.109,282.891  354.875,265.125  C  372.641,282.891  355.578,415.042  355.578,490  C  355.578,509.333  356.958,528.667  358.626,548.145  L  399.788,559.576  C  401.507,578.83  404.203,609.051  404.203,635  L  404.203,754.507  L  364.203,751.85  L  272.474,757.957  z " />
<path transform="translate( 0, 0 )" style="stroke: hsl(53.8, 55%, 50%);" id="599"  d=" M  272.474,757.957  L  272.474,635  C  272.474,586.667  281.099,538.333  281.099,490  C  281.099,415.042  280,287.442  280,287.442  C  286.354,289.349  293,290.25  300,290.25  C  320,290.25  337.109,282.891  354.875,265.125  C  372.641,282.891  355.578,415.042  355.578,490  C  355.578,509.333  356.958,528.667  358.626,548.145  L  399.788,559.576  C  401.507,578.83  404.203,609.051  404.203,635  L  404.203,754.507  L  364.203,751.85  L  272.474,757.957  z " />
<path transform="translate( 0, 0 )" style="stroke: hsl(80.7, 55%, 50%);" id="903"  d=" M  272.474,757.957  L  272.474,635  C  272.474,586.667  281.099,538.333  281.099,490  C  281.099,415.042  280,287.442  280,287.442  C  286.354,289.349  293,290.25  300,290.25  C  320,290.25  337.109,282.891  354.875,265.125  C  372.641,282.891  355.578,415.042  355.578,490  C  355.578,509.333  356.958,528.667  358.626,548.145  L  399.788,559.576  C  401.507,578.83  404.203,609.051  404.203,635  L  404.203,754.507  L  364.203,751.85  L  272.474,757.957  z " />
<path transform="translate( 0, 0 )" style="stroke: hsl(107.6, 55%, 50%);" id="1207"  d=" M  272.474,757.957  L  272.474,635  C  272.474,586.667  281.099,538.333  281.099,490  C  281.099,415.042  280,287.442  280,287.442  C  286.354,289.349  293,290.25  300,290.25  C  320,290.25  337.109,282.891  354.875,265.125  C  372.641,282.891  355.578,415.042  355.578,490  C  355.578,509.333  356.958,528.667  358.626,548.145  L  399.788,559.576  C  401.507,578.83  404.203,609.051  404.203,635  L  404.203,754.507  L  364.203,751.85  L  272.474,757.957  z " />
<path transform="translate( 0, 0 )" style="stroke: hsl(134.5, 55%, 50%);" id="1511"  d=" M  272.474,757.957  L  272.474,635  C  272.474,586.667  281.099,538.333  281.099,490  C  281.099,415.042  280,287.442  280,287.442  C  286.354,289.349  293,290.25  300,290.25  C  320,290.25  337.109,282.891  354.875,265.125  C  372.641,282.891  355.578,415.042  355.578,490  C  355.578,509.333  356.958,528.667  358.626,548.145  L  399.788,559.576  C  401.507,578.83  404.203,609.051  404.203,635  L  404.203,754.507  L  364.203,751.85  L  272.474,757.957  z " />
<path transform="translate( 0, 0 )" style="stroke: hsl(161.4, 55%, 50%);" id="1815"  d=" M  272.474,757.957  L  272.474,635  C  272.474,586.667  281.099,538.333  281.099,490  C  281.099,415.042  280,287.442  280,287.442  C  286.354,289.349  293,290.25  300,290.25  C  320,290.25  337.109,282.891  354.875,265.125  C  372.641,282.891  355.578,415.042  355.578,490  C  355.578,509.333  356.958,528.667  358.626,548.145  L  399.788,559.576  C  401.507,578.83  404.203,609.051  404.203,635  L  404.203,754.507  L  364.203,751.85  L  272.474,757.957  z " />
<path transform="translate( 0, 0 )" style="stroke: hsl(188.3, 55%, 50%);" id="2119"  d=" M  272.474,757.957  L  272.474,635  C  272.474,586.667  281.099,538.333  281.099,490  C  281.099,415.042  280,287.442  280,287.442  C  286.354,289.349  293,290.25  300,290.25  C  320,290.25  337.109,282.891  354.875,265.125  C  372.641,282.891  355.578,415.042  355.578,490  C  355.578,509.333  356.958,528.667  358.626,548.145  L  399.788,559.576  C  401.507,578.83  404.203,609.051  404.203,635  L  404.203,754.507  L  364.203,751.85  L  272.474,757.957  z " />
<path transform="translate( 0, 0 )" style="stroke: hsl(215.2, 55%, 50%);" id="2423"  d=" M  272.474,757.957  L  272.474,635  C  272.474,586.667  281.099,538.333  281.099,490  C  281.099,415.042  280,287.442  280,287.442  C  286.354,289.349  293,290.25  300,290.25  C  320,290.25  337.109,282.891  354.875,265.125  C  372.641,282.891  355.578,415.042  355.578,490  C  355.578,509.333  356.958,528.667  358.626,548.145  L  399.788,559.576  C  401.507,578.83  404.203,609.051  404.203,635  L  404.203,754.507  L  364.203,751.85  L  272.474,757.957  z " />
<path transform="translate( 0, 0 )" style="stroke: hsl(242.1, 55%, 50%);" id="2727"  d=" M  272.474,757.957  L  272.474,635  C  272.474,586.667  281.099,538.333  281.099,490  C  281.099,415.042  280,287.442  280,287.442  C  286.354,289.349  293,290.25  300,290.25  C  320,290.25  337.109,282.891  354.875,265.125  C  372.641,282.891  355.578,415.042  355.578,490  C  355.578,509.333  356.958,528.667  358.626,548.145  L  399.788,559.576  C  401.507,578.83  404.203,609.051  404.203,635  L  404.203,754.507  L  364.203,751.85  L  272.474,757.957  z " />
<path transform="translate( 0, 0 )" style="stroke: hsl(269, 55%, 50%);" id="3031"  d=" M  272.474,757.957  L  272.474,635  C  272.474,586.667  281.099,538.333  281.099,490  C  281.099,415.042  280,287.442  280,287.442  C  286.354,289.349  293,290.25  300,290.25  C  320,290.25  337.109,282.891  354.875,265.125  C  372.641,282.891  355.578,415.042  355.578,490  C  355.578,509.333  356.958,528.667  358.626,548.145  L  399.788,559.576  C  401.507,578.83  404.203,609.051  404.203,635  L  404.203,754.507  L  364.203,751.85  L  272.474,757.957  z " />
<path transform="translate( 0, 0 )" style="stroke: hsl(295.9, 55%, 50%);" id="3335"  d=" M  272.474,757.957  L  272.474,635  C  272.474,586.667  281.099,538.333  281.099,490  C  281.099,415.042  280,287.442  280,287.442  C  286.354,289.349  293,290.25  300,290.25  C  320,290.25  337.109,282.891  354.875,265.125  C  372.641,282.891  355.578,415.042  355.578,490  C  355.578,509.333  356.958,528.667  358.626,548.145  L  399.788,559.576  C  401.507,578.83  404.203,609.051  404.203,635  L  404.203,754.507  L  364.203,751.85  L  272.474,757.957  z " />
    </g>
    <!-- End of group #side -->
    
    <!-- Start of group #collar -->
    <g id="collar"  transform=" translate(146.021 120.687)  translate(1226.332 0) " >
        <path class="hidden" id="5"  d=" M  -141.021,-115.687  L  287.263,-115.687  L  287.263,-22.43  L  -141.021,-22.43  z " />
<path transform="translate( 0, 0 )" style="stroke: hsl(26.9, 55%, 50%);" id="296"  d=" M  -140.638,-56.482  L  -90.44,-22.89  C  -90.44,-22.89  -81.26,-27.926  -59.005,-33.229  C  -59.005,-33.229  -48.882,-65.686  73.121,-65.686  C  195.124,-65.686  205.247,-33.229  205.247,-33.229  C  227.502,-27.926  236.682,-22.89  236.682,-22.89  L  286.88,-56.482  L  281.397,-85.977  C  229.328,-93.404  207.324,-115.685  73.121,-115.685  C  -61.082,-115.685  -83.086,-93.404  -135.155,-85.977  L  -140.638,-56.482  z " />
<path transform="translate( -0.202, 0.033999999999992 )" style="stroke: hsl(53.8, 55%, 50%);" id="600"  d=" M  -140.473,-56.311  L  -90.375,-22.885  C  -90.375,-22.885  -81.165,-27.929  -59.02,-33.208  C  -59.02,-33.208  -48.68,-65.72  73.323,-65.72  C  195.326,-65.72  205.666,-33.208  205.666,-33.208  C  227.811,-27.929  237.021,-22.885  237.021,-22.885  L  287.119,-56.311  L  281.686,-85.816  C  229.596,-93.292  207.526,-115.72  73.323,-115.72  C  -60.88,-115.72  -82.95,-93.292  -135.04,-85.816  L  -140.473,-56.311  z " />
<path transform="translate( -0.40900000000001, 0.069999999999993 )" style="stroke: hsl(80.7, 55%, 50%);" id="904"  d=" M  -140.304,-56.138  L  -90.31,-22.878  C  -90.31,-22.878  -81.068,-27.932  -58.891,-33.221  C  -58.891,-33.221  -48.473,-65.757  73.53,-65.756  C  195.533,-65.757  205.951,-33.221  205.951,-33.221  C  228.128,-27.932  237.37,-22.878  237.37,-22.878  L  287.364,-56.138  L  281.982,-85.651  C  229.869,-93.177  207.733,-115.755  73.53,-115.756  C  -60.673,-115.755  -82.809,-93.177  -134.922,-85.651  L  -140.304,-56.138  z " />
<path transform="translate( -0.622, 0.10599999999999 )" style="stroke: hsl(107.6, 55%, 50%);" id="1208"  d=" M  -140.129,-55.958  L  -90.239,-22.871  C  -90.239,-22.871  -80.966,-27.934  -58.756,-33.233  C  -58.756,-33.233  -48.26,-65.792  73.743,-65.792  C  195.746,-65.792  206.242,-33.233  206.242,-33.233  C  228.452,-27.934  237.725,-22.871  237.725,-22.871  L  287.615,-55.958  L  282.287,-85.481  C  230.151,-93.059  207.946,-115.792  73.743,-115.792  C  -60.46,-115.792  -82.665,-93.059  -134.801,-85.481  L  -140.129,-55.958  z " />
<path transform="translate( -0.836, 0.142 )" style="stroke: hsl(134.5, 55%, 50%);" id="1512"  d=" M  -139.952,-55.778  L  -90.173,-22.864  C  -90.173,-22.864  -80.867,-27.937  -58.623,-33.246  C  -58.623,-33.246  -48.047,-65.829  73.957,-65.828  C  195.961,-65.829  206.537,-33.246  206.537,-33.246  C  228.781,-27.937  238.087,-22.864  238.087,-22.864  L  287.866,-55.778  L  282.592,-85.311  C  230.433,-92.94  208.161,-115.828  73.957,-115.828  C  -60.247,-115.828  -82.519,-92.94  -134.678,-85.311  L  -139.952,-55.778  z " />
<path transform="translate( -1.055, 0.178 )" style="stroke: hsl(161.4, 55%, 50%);" id="1816"  d=" M  -139.771,-55.592  L  -90.105,-22.855  C  -90.105,-22.855  -80.766,-27.938  -58.63,-33.223  C  -58.63,-33.223  -47.827,-65.865  74.176,-65.864  C  196.179,-65.865  206.982,-33.223  206.982,-33.223  C  229.118,-27.938  238.457,-22.855  238.457,-22.855  L  288.123,-55.592  L  282.904,-85.135  C  230.722,-92.817  208.379,-115.864  74.176,-115.864  C  -60.027,-115.864  -82.37,-92.817  -134.552,-85.135  L  -139.771,-55.592  z " />
<path transform="translate( -1.278, 0.21499999999999 )" style="stroke: hsl(188.3, 55%, 50%);" id="2120"  d=" M  -139.587,-55.403  L  -90.035,-22.846  C  -90.035,-22.846  -80.662,-27.939  -58.491,-33.234  C  -58.491,-33.234  -47.604,-65.902  74.399,-65.901  C  196.402,-65.902  207.289,-33.234  207.289,-33.234  C  229.46,-27.939  238.833,-22.846  238.833,-22.846  L  288.385,-55.403  L  283.221,-84.956  C  231.015,-92.692  208.602,-115.901  74.399,-115.901  C  -59.804,-115.901  -82.217,-92.692  -134.423,-84.956  L  -139.587,-55.403  z " />
<path transform="translate( -1.505, 0.25399999999999 )" style="stroke: hsl(215.2, 55%, 50%);" id="2424"  d=" M  -139.399,-55.209  L  -89.965,-22.834  C  -89.965,-22.834  -80.557,-27.938  -58.35,-33.245  C  -58.35,-33.245  -47.377,-65.939  74.626,-65.94  C  196.629,-65.939  207.602,-33.245  207.602,-33.245  C  229.809,-27.938  239.217,-22.834  239.217,-22.834  L  288.651,-55.209  L  283.545,-84.771  C  231.315,-92.563  208.829,-115.939  74.626,-115.939  C  -59.577,-115.939  -82.063,-92.563  -134.293,-84.771  L  -139.399,-55.209  z " />
<path transform="translate( -1.738, 0.28999999999999 )" style="stroke: hsl(242.1, 55%, 50%);" id="2728"  d=" M  -139.205,-55.009  L  -89.893,-22.822  C  -89.893,-22.822  -80.45,-27.937  -58.206,-33.255  C  -58.206,-33.255  -47.144,-65.977  74.859,-65.976  C  196.862,-65.977  207.924,-33.255  207.924,-33.255  C  230.168,-27.937  239.611,-22.822  239.611,-22.822  L  288.923,-55.009  L  283.875,-84.583  C  231.621,-92.431  209.062,-115.976  74.859,-115.976  C  -59.344,-115.976  -81.903,-92.431  -134.157,-84.583  L  -139.205,-55.009  z " />
<path transform="translate( -1.973, 0.32499999999999 )" style="stroke: hsl(269, 55%, 50%);" id="3032"  d=" M  -139.009,-54.809  L  -89.822,-22.809  C  -89.822,-22.809  -80.342,-27.935  -58.204,-33.229  C  -58.204,-33.229  -46.908,-66.012  75.094,-66.011  C  197.096,-66.012  208.392,-33.229  208.392,-33.229  C  230.53,-27.935  240.01,-22.809  240.01,-22.809  L  289.197,-54.809  L  284.208,-84.392  C  231.929,-92.297  209.296,-116.012  75.094,-116.012  C  -59.108,-116.012  -81.741,-92.297  -134.02,-84.392  L  -139.009,-54.809  z " />
<path transform="translate( -2.213, 0.36499999999999 )" style="stroke: hsl(295.9, 55%, 50%);" id="3336"  d=" M  -138.808,-54.605  L  -89.751,-22.795  C  -89.751,-22.795  -80.234,-27.932  -58.058,-33.238  C  -58.058,-33.238  -46.669,-66.05  75.334,-66.051  C  197.337,-66.05  208.726,-33.238  208.726,-33.238  C  230.902,-27.932  240.419,-22.795  240.419,-22.795  L  289.476,-54.605  L  284.548,-84.198  C  232.245,-92.161  209.537,-116.05  75.334,-116.05  C  -58.869,-116.05  -81.577,-92.161  -133.88,-84.198  L  -138.808,-54.605  z " />
    </g>
    <!-- End of group #collar -->
    
    <!-- Start of group #collarstand -->
    <g id="collarstand"  transform=" translate(65.271 70.686)  translate(1226.332 206.514) " >
        <path class="hidden" id="6"  d=" M  -60.271,-65.686  L  206.513,-65.686  L  206.513,-32.873  L  -60.271,-32.873  z " />
<path transform="translate( 0, 0 )" style="stroke: hsl(26.9, 55%, 50%);" id="297"  d=" M  -59.005,-33.229  C  -59.005,-33.229  -48.882,-65.686  73.121,-65.686  C  195.124,-65.686  205.247,-33.229  205.247,-33.229  C  179.847,-39.283  137.783,-45.686  73.121,-45.686  C  8.459,-45.686  -33.605,-39.283  -59.005,-33.229  z " />
<path transform="translate( -0.202, 0.033999999999999 )" style="stroke: hsl(53.8, 55%, 50%);" id="601"  d=" M  -59.02,-33.208  C  -59.02,-33.208  -48.68,-65.72  73.323,-65.72  C  195.326,-65.72  205.666,-33.208  205.666,-33.208  C  180.088,-39.306  137.985,-45.72  73.323,-45.72  C  8.661,-45.72  -33.442,-39.306  -59.02,-33.208  z " />
<path transform="translate( -0.40900000000001, 0.07 )" style="stroke: hsl(80.7, 55%, 50%);" id="905"  d=" M  -58.891,-33.221  C  -58.891,-33.221  -48.473,-65.757  73.53,-65.756  C  195.533,-65.757  205.951,-33.221  205.951,-33.221  C  180.335,-39.33  138.192,-45.757  73.53,-45.756  C  8.868,-45.757  -33.275,-39.33  -58.891,-33.221  z " />
<path transform="translate( -0.622, 0.106 )" style="stroke: hsl(107.6, 55%, 50%);" id="1209"  d=" M  -58.756,-33.233  C  -58.756,-33.233  -48.26,-65.792  73.743,-65.792  C  195.746,-65.792  206.242,-33.233  206.242,-33.233  C  180.587,-39.353  138.405,-45.792  73.743,-45.792  C  9.081,-45.792  -33.101,-39.353  -58.756,-33.233  z " />
<path transform="translate( -0.836, 0.142 )" style="stroke: hsl(134.5, 55%, 50%);" id="1513"  d=" M  -58.623,-33.246  C  -58.623,-33.246  -48.047,-65.829  73.957,-65.828  C  195.961,-65.829  206.537,-33.246  206.537,-33.246  C  180.844,-39.378  138.619,-45.829  73.957,-45.828  C  9.295,-45.829  -32.93,-39.378  -58.623,-33.246  z " />
<path transform="translate( -1.055, 0.178 )" style="stroke: hsl(161.4, 55%, 50%);" id="1817"  d=" M  -58.63,-33.223  C  -58.63,-33.223  -47.827,-65.865  74.176,-65.864  C  196.179,-65.865  206.982,-33.223  206.982,-33.223  C  181.104,-39.401  138.838,-45.865  74.176,-45.864  C  9.514,-45.865  -32.752,-39.401  -58.63,-33.223  z " />
<path transform="translate( -1.278, 0.215 )" style="stroke: hsl(188.3, 55%, 50%);" id="2121"  d=" M  -58.491,-33.234  C  -58.491,-33.234  -47.604,-65.902  74.399,-65.901  C  196.402,-65.902  207.289,-33.234  207.289,-33.234  C  181.37,-39.425  139.061,-45.902  74.399,-45.901  C  9.737,-45.902  -32.572,-39.425  -58.491,-33.234  z " />
<path transform="translate( -1.505, 0.254 )" style="stroke: hsl(215.2, 55%, 50%);" id="2425"  d=" M  -58.35,-33.245  C  -58.35,-33.245  -47.377,-65.939  74.626,-65.94  C  196.629,-65.939  207.602,-33.245  207.602,-33.245  C  181.642,-39.449  139.288,-45.939  74.626,-45.94  C  9.964,-45.939  -32.39,-39.449  -58.35,-33.245  z " />
<path transform="translate( -1.738, 0.29 )" style="stroke: hsl(242.1, 55%, 50%);" id="2729"  d=" M  -58.206,-33.255  C  -58.206,-33.255  -47.144,-65.977  74.859,-65.976  C  196.862,-65.977  207.924,-33.255  207.924,-33.255  C  181.92,-39.473  139.521,-45.977  74.859,-45.976  C  10.197,-45.977  -32.202,-39.473  -58.206,-33.255  z " />
<path transform="translate( -1.973, 0.325 )" style="stroke: hsl(269, 55%, 50%);" id="3033"  d=" M  -58.204,-33.229  C  -58.204,-33.229  -46.908,-66.012  75.094,-66.011  C  197.096,-66.012  208.392,-33.229  208.392,-33.229  C  182.2,-39.494  139.755,-46.012  75.094,-46.011  C  10.433,-46.012  -32.012,-39.494  -58.204,-33.229  z " />
<path transform="translate( -2.213, 0.365 )" style="stroke: hsl(295.9, 55%, 50%);" id="3337"  d=" M  -58.058,-33.238  C  -58.058,-33.238  -46.669,-66.05  75.334,-66.051  C  197.337,-66.05  208.726,-33.238  208.726,-33.238  C  182.488,-39.518  139.996,-46.05  75.334,-46.051  C  10.672,-46.05  -31.82,-39.518  -58.058,-33.238  z " />
    </g>
    <!-- End of group #collarstand -->
    
    <!-- Start of group #undercollar -->
    <g id="undercollar"  transform=" translate(146.021 120.687)  translate(1226.332 103.257) " >
        <path class="hidden" id="7"  d=" M  -141.021,-115.687  L  287.263,-115.687  L  287.263,-22.43  L  -141.021,-22.43  z " />
<path transform="translate( 0, 0 )" style="stroke: hsl(26.9, 55%, 50%);" id="298"  d=" M  -140.638,-56.482  L  -90.44,-22.89  C  -90.44,-22.89  -48.882,-45.686  73.121,-45.686  C  195.124,-45.686  236.682,-22.89  236.682,-22.89  L  286.88,-56.482  L  281.397,-85.977  C  229.328,-93.404  207.324,-115.685  73.121,-115.685  C  -61.082,-115.685  -83.086,-93.404  -135.155,-85.977  L  -140.638,-56.482  z " />
<path transform="translate( -0.202, 0.033999999999999 )" style="stroke: hsl(53.8, 55%, 50%);" id="602"  d=" M  -140.473,-56.311  L  -90.375,-22.885  C  -90.375,-22.885  -48.68,-45.72  73.323,-45.72  C  195.326,-45.72  237.021,-22.885  237.021,-22.885  L  287.119,-56.311  L  281.686,-85.816  C  229.596,-93.292  207.526,-115.72  73.323,-115.72  C  -60.88,-115.72  -82.95,-93.292  -135.04,-85.816  L  -140.473,-56.311  z " />
<path transform="translate( -0.40900000000001, 0.07 )" style="stroke: hsl(80.7, 55%, 50%);" id="906"  d=" M  -140.304,-56.138  L  -90.31,-22.878  C  -90.31,-22.878  -48.473,-45.757  73.53,-45.756  C  195.533,-45.757  237.37,-22.878  237.37,-22.878  L  287.364,-56.138  L  281.982,-85.651  C  229.869,-93.177  207.733,-115.755  73.53,-115.756  C  -60.673,-115.755  -82.809,-93.177  -134.922,-85.651  L  -140.304,-56.138  z " />
<path transform="translate( -0.622, 0.106 )" style="stroke: hsl(107.6, 55%, 50%);" id="1210"  d=" M  -140.129,-55.958  L  -90.239,-22.871  C  -90.239,-22.871  -48.26,-45.792  73.743,-45.792  C  195.746,-45.792  237.725,-22.871  237.725,-22.871  L  287.615,-55.958  L  282.287,-85.481  C  230.151,-93.059  207.946,-115.792  73.743,-115.792  C  -60.46,-115.792  -82.665,-93.059  -134.801,-85.481  L  -140.129,-55.958  z " />
<path transform="translate( -0.836, 0.142 )" style="stroke: hsl(134.5, 55%, 50%);" id="1514"  d=" M  -139.952,-55.778  L  -90.173,-22.864  C  -90.173,-22.864  -48.047,-45.829  73.957,-45.828  C  195.961,-45.829  238.087,-22.864  238.087,-22.864  L  287.866,-55.778  L  282.592,-85.311  C  230.433,-92.94  208.161,-115.828  73.957,-115.828  C  -60.247,-115.828  -82.519,-92.94  -134.678,-85.311  L  -139.952,-55.778  z " />
<path transform="translate( -1.055, 0.178 )" style="stroke: hsl(161.4, 55%, 50%);" id="1818"  d=" M  -139.771,-55.592  L  -90.105,-22.855  C  -90.105,-22.855  -47.827,-45.865  74.176,-45.864  C  196.179,-45.865  238.457,-22.855  238.457,-22.855  L  288.123,-55.592  L  282.904,-85.135  C  230.722,-92.817  208.379,-115.864  74.176,-115.864  C  -60.027,-115.864  -82.37,-92.817  -134.552,-85.135  L  -139.771,-55.592  z " />
<path transform="translate( -1.278, 0.215 )" style="stroke: hsl(188.3, 55%, 50%);" id="2122"  d=" M  -139.587,-55.403  L  -90.035,-22.846  C  -90.035,-22.846  -47.604,-45.902  74.399,-45.901  C  196.402,-45.902  238.833,-22.846  238.833,-22.846  L  288.385,-55.403  L  283.221,-84.956  C  231.015,-92.692  208.602,-115.901  74.399,-115.901  C  -59.804,-115.901  -82.217,-92.692  -134.423,-84.956  L  -139.587,-55.403  z " />
<path transform="translate( -1.505, 0.254 )" style="stroke: hsl(215.2, 55%, 50%);" id="2426"  d=" M  -139.399,-55.209  L  -89.965,-22.834  C  -89.965,-22.834  -47.377,-45.939  74.626,-45.94  C  196.629,-45.939  239.217,-22.834  239.217,-22.834  L  288.651,-55.209  L  283.545,-84.771  C  231.315,-92.563  208.829,-115.939  74.626,-115.939  C  -59.577,-115.939  -82.063,-92.563  -134.293,-84.771  L  -139.399,-55.209  z " />
<path transform="translate( -1.738, 0.29 )" style="stroke: hsl(242.1, 55%, 50%);" id="2730"  d=" M  -139.205,-55.009  L  -89.893,-22.822  C  -89.893,-22.822  -47.144,-45.977  74.859,-45.976  C  196.862,-45.977  239.611,-22.822  239.611,-22.822  L  288.923,-55.009  L  283.875,-84.583  C  231.621,-92.431  209.062,-115.976  74.859,-115.976  C  -59.344,-115.976  -81.903,-92.431  -134.157,-84.583  L  -139.205,-55.009  z " />
<path transform="translate( -1.973, 0.325 )" style="stroke: hsl(269, 55%, 50%);" id="3034"  d=" M  -139.009,-54.809  L  -89.822,-22.809  C  -89.822,-22.809  -46.908,-46.012  75.094,-46.011  C  197.096,-46.012  240.01,-22.809  240.01,-22.809  L  289.197,-54.809  L  284.208,-84.392  C  231.929,-92.297  209.296,-116.012  75.094,-116.012  C  -59.108,-116.012  -81.741,-92.297  -134.02,-84.392  L  -139.009,-54.809  z " />
<path transform="translate( -2.213, 0.365 )" style="stroke: hsl(295.9, 55%, 50%);" id="3338"  d=" M  -138.808,-54.605  L  -89.751,-22.795  C  -89.751,-22.795  -46.669,-46.05  75.334,-46.051  C  197.337,-46.05  240.419,-22.795  240.419,-22.795  L  289.476,-54.605  L  284.548,-84.198  C  232.245,-92.161  209.537,-116.05  75.334,-116.05  C  -58.869,-116.05  -81.577,-92.161  -133.88,-84.198  L  -138.808,-54.605  z " />
    </g>
    <!-- End of group #undercollar -->
    
    <!-- Start of group #topsleeve -->
    <g id="topsleeve"  transform=" translate(151.512 5)  translate(580.521 0) " >
        <path class="hidden" id="8"  d=" M  -146.512,0  L  130.233,0  L  130.233,711.452  L  -146.512,711.452  z " />
<path transform="translate( 0, 0 )" style="stroke: hsl(26.9, 55%, 50%);" id="299"  d=" M  117.21,410  C  125.145,365  130.233,259.234  130.233,194.425  C  130.233,129.616  117.21,64.808  117.21,64.808  C  117.21,64.808  73.256,0  0,0  C  -73.256,0  -107.443,64.808  -117.21,116.655  C  -126.977,168.502  -131.861,194.425  -146.512,194.425  C  -146.512,194.425  -136.475,351.187  -130.233,410  L  -99.022,704.067  L  104.286,711.452  L  117.517,638.147  L  81.677,611.519  L  117.21,410  z " />
<path transform="translate( 0, 0 )" style="stroke: hsl(53.8, 55%, 50%);" id="603"  d=" M  117.21,410  C  125.145,365  130.233,259.234  130.233,194.425  C  130.233,129.616  117.21,64.808  117.21,64.808  C  117.21,64.808  73.256,0  0,0  C  -73.256,0  -107.443,64.808  -117.21,116.655  C  -126.977,168.502  -131.861,194.425  -146.512,194.425  C  -146.512,194.425  -136.475,351.187  -130.233,410  L  -99.022,704.067  L  104.286,711.452  L  117.517,638.147  L  81.677,611.519  L  117.21,410  z " />
<path transform="translate( 0, 0 )" style="stroke: hsl(80.7, 55%, 50%);" id="907"  d=" M  117.21,410  C  125.145,365  130.233,259.234  130.233,194.425  C  130.233,129.616  117.21,64.808  117.21,64.808  C  117.21,64.808  73.256,0  0,0  C  -73.256,0  -107.443,64.808  -117.21,116.655  C  -126.977,168.502  -131.861,194.425  -146.512,194.425  C  -146.512,194.425  -136.475,351.187  -130.233,410  L  -99.022,704.067  L  104.286,711.452  L  117.517,638.147  L  81.677,611.519  L  117.21,410  z " />
<path transform="translate( 0, 0 )" style="stroke: hsl(107.6, 55%, 50%);" id="1211"  d=" M  117.21,410  C  125.145,365  130.233,259.234  130.233,194.425  C  130.233,129.616  117.21,64.808  117.21,64.808  C  117.21,64.808  73.256,0  0,0  C  -73.256,0  -107.443,64.808  -117.21,116.655  C  -126.977,168.502  -131.861,194.425  -146.512,194.425  C  -146.512,194.425  -136.475,351.187  -130.233,410  L  -99.022,704.067  L  104.286,711.452  L  117.517,638.147  L  81.677,611.519  L  117.21,410  z " />
<path transform="translate( 0, 0 )" style="stroke: hsl(134.5, 55%, 50%);" id="1515"  d=" M  117.21,410  C  125.145,365  130.233,259.234  130.233,194.425  C  130.233,129.616  117.21,64.808  117.21,64.808  C  117.21,64.808  73.256,0  0,0  C  -73.256,0  -107.443,64.808  -117.21,116.655  C  -126.977,168.502  -131.861,194.425  -146.512,194.425  C  -146.512,194.425  -136.475,351.187  -130.233,410  L  -99.022,704.067  L  104.286,711.452  L  117.517,638.147  L  81.677,611.519  L  117.21,410  z " />
<path transform="translate( 0, 0 )" style="stroke: hsl(161.4, 55%, 50%);" id="1819"  d=" M  117.21,410  C  125.145,365  130.233,259.234  130.233,194.425  C  130.233,129.616  117.21,64.808  117.21,64.808  C  117.21,64.808  73.256,0  0,0  C  -73.256,0  -107.443,64.808  -117.21,116.655  C  -126.977,168.502  -131.861,194.425  -146.512,194.425  C  -146.512,194.425  -136.475,351.187  -130.233,410  L  -99.022,704.067  L  104.286,711.452  L  117.517,638.147  L  81.677,611.519  L  117.21,410  z " />
<path transform="translate( 0, 0 )" style="stroke: hsl(188.3, 55%, 50%);" id="2123"  d=" M  117.21,410  C  125.145,365  130.233,259.234  130.233,194.425  C  130.233,129.616  117.21,64.808  117.21,64.808  C  117.21,64.808  73.256,0  0,0  C  -73.256,0  -107.443,64.808  -117.21,116.655  C  -126.977,168.502  -131.861,194.425  -146.512,194.425  C  -146.512,194.425  -136.475,351.187  -130.233,410  L  -99.022,704.067  L  104.286,711.452  L  117.517,638.147  L  81.677,611.519  L  117.21,410  z " />
<path transform="translate( 0, 0 )" style="stroke: hsl(215.2, 55%, 50%);" id="2427"  d=" M  117.21,410  C  125.145,365  130.233,259.234  130.233,194.425  C  130.233,129.616  117.21,64.808  117.21,64.808  C  117.21,64.808  73.256,0  0,0  C  -73.256,0  -107.443,64.808  -117.21,116.655  C  -126.977,168.502  -131.861,194.425  -146.512,194.425  C  -146.512,194.425  -136.475,351.187  -130.233,410  L  -99.022,704.067  L  104.286,711.452  L  117.517,638.147  L  81.677,611.519  L  117.21,410  z " />
<path transform="translate( 0, 0 )" style="stroke: hsl(242.1, 55%, 50%);" id="2731"  d=" M  117.21,410  C  125.145,365  130.233,259.234  130.233,194.425  C  130.233,129.616  117.21,64.808  117.21,64.808  C  117.21,64.808  73.256,0  0,0  C  -73.256,0  -107.443,64.808  -117.21,116.655  C  -126.977,168.502  -131.861,194.425  -146.512,194.425  C  -146.512,194.425  -136.475,351.187  -130.233,410  L  -99.022,704.067  L  104.286,711.452  L  117.517,638.147  L  81.677,611.519  L  117.21,410  z " />
<path transform="translate( 0, 0 )" style="stroke: hsl(269, 55%, 50%);" id="3035"  d=" M  117.21,410  C  125.145,365  130.233,259.234  130.233,194.425  C  130.233,129.616  117.21,64.808  117.21,64.808  C  117.21,64.808  73.256,0  0,0  C  -73.256,0  -107.443,64.808  -117.21,116.655  C  -126.977,168.502  -131.861,194.425  -146.512,194.425  C  -146.512,194.425  -136.475,351.187  -130.233,410  L  -99.022,704.067  L  104.286,711.452  L  117.517,638.147  L  81.677,611.519  L  117.21,410  z " />
<path transform="translate( 0, 0 )" style="stroke: hsl(295.9, 55%, 50%);" id="3339"  d=" M  117.21,410  C  125.145,365  130.233,259.234  130.233,194.425  C  130.233,129.616  117.21,64.808  117.21,64.808  C  117.21,64.808  73.256,0  0,0  C  -73.256,0  -107.443,64.808  -117.21,116.655  C  -126.977,168.502  -131.861,194.425  -146.512,194.425  C  -146.512,194.425  -136.475,351.187  -130.233,410  L  -99.022,704.067  L  104.286,711.452  L  117.517,638.147  L  81.677,611.519  L  117.21,410  z " />
    </g>
    <!-- End of group #topsleeve -->
    
    <!-- Start of group #undersleeve -->
    <g id="undersleeve"  transform=" translate(92.908 -59.808)  translate(867.266 0) " >
        <path class="hidden" id="9"  d=" M  -87.908,64.808  L  119.429,64.808  L  119.429,712.447  L  -87.908,712.447  z " />
<path transform="translate( 0, 0 )" style="stroke: hsl(26.9, 55%, 50%);" id="300"  d=" M  64.312,710  L  104.237,712.447  L  117.544,638.152  L  81.677,611.519  L  117.21,410  C  125.145,365  109.669,259.002  104.187,194.425  C  98.705,129.848  87.907,64.808  87.907,64.808  C  69.267,128.049  -14.651,194.425  -58.605,194.425  L  -87.908,194.425  C  -87.908,194.425  -71.642,351.426  -68.373,410  L  -52.028,702.87  L  64.312,710  z " />
<path transform="translate( 0, 0 )" style="stroke: hsl(53.8, 55%, 50%);" id="604"  d=" M  64.312,710  L  104.237,712.447  L  117.544,638.152  L  81.677,611.519  L  117.21,410  C  125.145,365  109.669,259.002  104.187,194.425  C  98.705,129.848  87.907,64.808  87.907,64.808  C  69.267,128.049  -14.651,194.425  -58.605,194.425  L  -87.908,194.425  C  -87.908,194.425  -71.642,351.426  -68.373,410  L  -52.028,702.87  L  64.312,710  z " />
<path transform="translate( 0, 0 )" style="stroke: hsl(80.7, 55%, 50%);" id="908"  d=" M  64.312,710  L  104.237,712.447  L  117.544,638.152  L  81.677,611.519  L  117.21,410  C  125.145,365  109.669,259.002  104.187,194.425  C  98.705,129.848  87.907,64.808  87.907,64.808  C  69.267,128.049  -14.651,194.425  -58.605,194.425  L  -87.908,194.425  C  -87.908,194.425  -71.642,351.426  -68.373,410  L  -52.028,702.87  L  64.312,710  z " />
<path transform="translate( 0, 0 )" style="stroke: hsl(107.6, 55%, 50%);" id="1212"  d=" M  64.312,710  L  104.237,712.447  L  117.544,638.152  L  81.677,611.519  L  117.21,410  C  125.145,365  109.669,259.002  104.187,194.425  C  98.705,129.848  87.907,64.808  87.907,64.808  C  69.267,128.049  -14.651,194.425  -58.605,194.425  L  -87.908,194.425  C  -87.908,194.425  -71.642,351.426  -68.373,410  L  -52.028,702.87  L  64.312,710  z " />
<path transform="translate( 0, 0 )" style="stroke: hsl(134.5, 55%, 50%);" id="1516"  d=" M  64.312,710  L  104.237,712.447  L  117.544,638.152  L  81.677,611.519  L  117.21,410  C  125.145,365  109.669,259.002  104.187,194.425  C  98.705,129.848  87.907,64.808  87.907,64.808  C  69.267,128.049  -14.651,194.425  -58.605,194.425  L  -87.908,194.425  C  -87.908,194.425  -71.642,351.426  -68.373,410  L  -52.028,702.87  L  64.312,710  z " />
<path transform="translate( 0, 0 )" style="stroke: hsl(161.4, 55%, 50%);" id="1820"  d=" M  64.312,710  L  104.237,712.447  L  117.544,638.152  L  81.677,611.519  L  117.21,410  C  125.145,365  109.669,259.002  104.187,194.425  C  98.705,129.848  87.907,64.808  87.907,64.808  C  69.267,128.049  -14.651,194.425  -58.605,194.425  L  -87.908,194.425  C  -87.908,194.425  -71.642,351.426  -68.373,410  L  -52.028,702.87  L  64.312,710  z " />
<path transform="translate( 0, 0 )" style="stroke: hsl(188.3, 55%, 50%);" id="2124"  d=" M  64.312,710  L  104.237,712.447  L  117.544,638.152  L  81.677,611.519  L  117.21,410  C  125.145,365  109.669,259.002  104.187,194.425  C  98.705,129.848  87.907,64.808  87.907,64.808  C  69.267,128.049  -14.651,194.425  -58.605,194.425  L  -87.908,194.425  C  -87.908,194.425  -71.642,351.426  -68.373,410  L  -52.028,702.87  L  64.312,710  z " />
<path transform="translate( 0, 0 )" style="stroke: hsl(215.2, 55%, 50%);" id="2428"  d=" M  64.312,710  L  104.237,712.447  L  117.544,638.152  L  81.677,611.519  L  117.21,410  C  125.145,365  109.669,259.002  104.187,194.425  C  98.705,129.848  87.907,64.808  87.907,64.808  C  69.267,128.049  -14.651,194.425  -58.605,194.425  L  -87.908,194.425  C  -87.908,194.425  -71.642,351.426  -68.373,410  L  -52.028,702.87  L  64.312,710  z " />
<path transform="translate( 0, 0 )" style="stroke: hsl(242.1, 55%, 50%);" id="2732"  d=" M  64.312,710  L  104.237,712.447  L  117.544,638.152  L  81.677,611.519  L  117.21,410  C  125.145,365  109.669,259.002  104.187,194.425  C  98.705,129.848  87.907,64.808  87.907,64.808  C  69.267,128.049  -14.651,194.425  -58.605,194.425  L  -87.908,194.425  C  -87.908,194.425  -71.642,351.426  -68.373,410  L  -52.028,702.87  L  64.312,710  z " />
<path transform="translate( 0, 0 )" style="stroke: hsl(269, 55%, 50%);" id="3036"  d=" M  64.312,710  L  104.237,712.447  L  117.544,638.152  L  81.677,611.519  L  117.21,410  C  125.145,365  109.669,259.002  104.187,194.425  C  98.705,129.848  87.907,64.808  87.907,64.808  C  69.267,128.049  -14.651,194.425  -58.605,194.425  L  -87.908,194.425  C  -87.908,194.425  -71.642,351.426  -68.373,410  L  -52.028,702.87  L  64.312,710  z " />
<path transform="translate( 0, 0 )" style="stroke: hsl(295.9, 55%, 50%);" id="3340"  d=" M  64.312,710  L  104.237,712.447  L  117.544,638.152  L  81.677,611.519  L  117.21,410  C  125.145,365  109.669,259.002  104.187,194.425  C  98.705,129.848  87.907,64.808  87.907,64.808  C  69.267,128.049  -14.651,194.425  -58.605,194.425  L  -87.908,194.425  C  -87.908,194.425  -71.642,351.426  -68.373,410  L  -52.028,702.87  L  64.312,710  z " />
    </g>
    <!-- End of group #undersleeve -->
    
    <!-- Start of group #pocket -->
    <g id="pocket"  transform=" translate(5 45)  translate(1226.332 249.327) " >
        <path class="hidden" id="10"  d=" M  0,-40  L  162,-40  L  162,196.388  L  0,196.388  z " />
<path transform="translate( 0, 0 )" style="stroke: hsl(26.9, 55%, 50%);" id="301"  d=" M  0,-40  L  0,163.988  C  -0,181.882  14.506,196.388  32.4,196.388  L  129.6,196.388  C  147.494,196.388  162,181.882  162,163.988  L  162,-40  z " />
<path transform="translate( 0, 0 )" style="stroke: hsl(53.8, 55%, 50%);" id="605"  d=" M  0,-40  L  0,163.988  C  -0,181.882  14.506,196.388  32.4,196.388  L  129.6,196.388  C  147.494,196.388  162,181.882  162,163.988  L  162,-40  z " />
<path transform="translate( 0, 0 )" style="stroke: hsl(80.7, 55%, 50%);" id="909"  d=" M  0,-40  L  0,163.988  C  -0,181.882  14.506,196.388  32.4,196.388  L  129.6,196.388  C  147.494,196.388  162,181.882  162,163.988  L  162,-40  z " />
<path transform="translate( 0, 0 )" style="stroke: hsl(107.6, 55%, 50%);" id="1213"  d=" M  0,-40  L  0,163.988  C  -0,181.882  14.506,196.388  32.4,196.388  L  129.6,196.388  C  147.494,196.388  162,181.882  162,163.988  L  162,-40  z " />
<path transform="translate( 0, 0 )" style="stroke: hsl(134.5, 55%, 50%);" id="1517"  d=" M  0,-40  L  0,163.988  C  -0,181.882  14.506,196.388  32.4,196.388  L  129.6,196.388  C  147.494,196.388  162,181.882  162,163.988  L  162,-40  z " />
<path transform="translate( 0, 0 )" style="stroke: hsl(161.4, 55%, 50%);" id="1821"  d=" M  0,-40  L  0,163.988  C  -0,181.882  14.506,196.388  32.4,196.388  L  129.6,196.388  C  147.494,196.388  162,181.882  162,163.988  L  162,-40  z " />
<path transform="translate( 0, 0 )" style="stroke: hsl(188.3, 55%, 50%);" id="2125"  d=" M  0,-40  L  0,163.988  C  -0,181.882  14.506,196.388  32.4,196.388  L  129.6,196.388  C  147.494,196.388  162,181.882  162,163.988  L  162,-40  z " />
<path transform="translate( 0, 0 )" style="stroke: hsl(215.2, 55%, 50%);" id="2429"  d=" M  0,-40  L  0,163.988  C  -0,181.882  14.506,196.388  32.4,196.388  L  129.6,196.388  C  147.494,196.388  162,181.882  162,163.988  L  162,-40  z " />
<path transform="translate( 0, 0 )" style="stroke: hsl(242.1, 55%, 50%);" id="2733"  d=" M  0,-40  L  0,163.988  C  -0,181.882  14.506,196.388  32.4,196.388  L  129.6,196.388  C  147.494,196.388  162,181.882  162,163.988  L  162,-40  z " />
<path transform="translate( 0, 0 )" style="stroke: hsl(269, 55%, 50%);" id="3037"  d=" M  0,-40  L  0,163.988  C  -0,181.882  14.506,196.388  32.4,196.388  L  129.6,196.388  C  147.494,196.388  162,181.882  162,163.988  L  162,-40  z " />
<path transform="translate( 0, 0 )" style="stroke: hsl(295.9, 55%, 50%);" id="3341"  d=" M  0,-40  L  0,163.988  C  -0,181.882  14.506,196.388  32.4,196.388  L  129.6,196.388  C  147.494,196.388  162,181.882  162,163.988  L  162,-40  z " />
    </g>
    <!-- End of group #pocket -->
    
    <!-- Start of group #chestPocketWelt -->
    <g id="chestPocketWelt"  transform=" translate(6.975 20)  translate(1503.116 206.514) " >
        <path class="hidden" id="11"  d=" M  -1.975,-15  L  105,-15  L  105,15  L  -1.975,15  z " />
<path transform="translate( 0, 0 )" style="stroke: hsl(26.9, 55%, 50%);" id="302"  d=" M  -1.975,15  L  103.025,15  L  105,0  L  103.025,-15  L  -1.975,-15  L  0,0  z " />
<path transform="translate( 0, 0 )" style="stroke: hsl(53.8, 55%, 50%);" id="606"  d=" M  -1.975,15  L  103.025,15  L  105,0  L  103.025,-15  L  -1.975,-15  L  0,0  z " />
<path transform="translate( 0, 0 )" style="stroke: hsl(80.7, 55%, 50%);" id="910"  d=" M  -1.975,15  L  103.025,15  L  105,0  L  103.025,-15  L  -1.975,-15  L  0,0  z " />
<path transform="translate( 0, 0 )" style="stroke: hsl(107.6, 55%, 50%);" id="1214"  d=" M  -1.975,15  L  103.025,15  L  105,0  L  103.025,-15  L  -1.975,-15  L  0,0  z " />
<path transform="translate( 0, 0 )" style="stroke: hsl(134.5, 55%, 50%);" id="1518"  d=" M  -1.975,15  L  103.025,15  L  105,0  L  103.025,-15  L  -1.975,-15  L  0,0  z " />
<path transform="translate( 0, 0 )" style="stroke: hsl(161.4, 55%, 50%);" id="1822"  d=" M  -1.975,15  L  103.025,15  L  105,0  L  103.025,-15  L  -1.975,-15  L  0,0  z " />
<path transform="translate( 0, 0 )" style="stroke: hsl(188.3, 55%, 50%);" id="2126"  d=" M  -1.975,15  L  103.025,15  L  105,0  L  103.025,-15  L  -1.975,-15  L  0,0  z " />
<path transform="translate( 0, 0 )" style="stroke: hsl(215.2, 55%, 50%);" id="2430"  d=" M  -1.975,15  L  103.025,15  L  105,0  L  103.025,-15  L  -1.975,-15  L  0,0  z " />
<path transform="translate( 0, 0 )" style="stroke: hsl(242.1, 55%, 50%);" id="2734"  d=" M  -1.975,15  L  103.025,15  L  105,0  L  103.025,-15  L  -1.975,-15  L  0,0  z " />
<path transform="translate( 0, 0 )" style="stroke: hsl(269, 55%, 50%);" id="3038"  d=" M  -1.975,15  L  103.025,15  L  105,0  L  103.025,-15  L  -1.975,-15  L  0,0  z " />
<path transform="translate( 0, 0 )" style="stroke: hsl(295.9, 55%, 50%);" id="3342"  d=" M  -1.975,15  L  103.025,15  L  105,0  L  103.025,-15  L  -1.975,-15  L  0,0  z " />
    </g>
    <!-- End of group #chestPocketWelt -->
    
    <!-- Start of group #chestPocketBag -->
    <g id="chestPocketBag"  transform=" translate(5 22.773)  translate(1226.332 495.715) " >
        <path class="hidden" id="12"  d=" M  0,-17.773  L  135,-17.773  L  135,117.773  L  0,117.773  z " />
<path transform="translate( 0, 0 )" style="stroke: hsl(26.9, 55%, 50%);" id="303"  d=" M  0,40  L  0,0  L  135,-17.773  L  135,40  M  135,60  L  135,117.773  L  0,100  L  0,60 " />
<path transform="translate( 0, 0 )" style="stroke: hsl(53.8, 55%, 50%);" id="607"  d=" M  0,40  L  0,0  L  135,-17.773  L  135,40  M  135,60  L  135,117.773  L  0,100  L  0,60 " />
<path transform="translate( 0, 0 )" style="stroke: hsl(80.7, 55%, 50%);" id="911"  d=" M  0,40  L  0,0  L  135,-17.773  L  135,40  M  135,60  L  135,117.773  L  0,100  L  0,60 " />
<path transform="translate( 0, 0 )" style="stroke: hsl(107.6, 55%, 50%);" id="1215"  d=" M  0,40  L  0,0  L  135,-17.773  L  135,40  M  135,60  L  135,117.773  L  0,100  L  0,60 " />
<path transform="translate( 0, 0 )" style="stroke: hsl(134.5, 55%, 50%);" id="1519"  d=" M  0,40  L  0,0  L  135,-17.773  L  135,40  M  135,60  L  135,117.773  L  0,100  L  0,60 " />
<path transform="translate( 0, 0 )" style="stroke: hsl(161.4, 55%, 50%);" id="1823"  d=" M  0,40  L  0,0  L  135,-17.773  L  135,40  M  135,60  L  135,117.773  L  0,100  L  0,60 " />
<path transform="translate( 0, 0 )" style="stroke: hsl(188.3, 55%, 50%);" id="2127"  d=" M  0,40  L  0,0  L  135,-17.773  L  135,40  M  135,60  L  135,117.773  L  0,100  L  0,60 " />
<path transform="translate( 0, 0 )" style="stroke: hsl(215.2, 55%, 50%);" id="2431"  d=" M  0,40  L  0,0  L  135,-17.773  L  135,40  M  135,60  L  135,117.773  L  0,100  L  0,60 " />
<path transform="translate( 0, 0 )" style="stroke: hsl(242.1, 55%, 50%);" id="2735"  d=" M  0,40  L  0,0  L  135,-17.773  L  135,40  M  135,60  L  135,117.773  L  0,100  L  0,60 " />
<path transform="translate( 0, 0 )" style="stroke: hsl(269, 55%, 50%);" id="3039"  d=" M  0,40  L  0,0  L  135,-17.773  L  135,40  M  135,60  L  135,117.773  L  0,100  L  0,60 " />
<path transform="translate( 0, 0 )" style="stroke: hsl(295.9, 55%, 50%);" id="3343"  d=" M  0,40  L  0,0  L  135,-17.773  L  135,40  M  135,60  L  135,117.773  L  0,100  L  0,60 " />
    </g>
    <!-- End of group #chestPocketBag -->
    
    <!-- Start of group #innerPocketWelt -->
    <g id="innerPocketWelt"  transform=" translate(5 5)  translate(1398.332 249.327) " >
        <path class="hidden" id="13"  d=" M  0,0  L  155,0  L  155,10  L  0,10  z " />
<path transform="translate( 0, 0 )" style="stroke: hsl(26.9, 55%, 50%);" id="304"  d=" M  0,0  L  155,0  L  155,10  L  0,10  z " />
<path transform="translate( 0, 0 )" style="stroke: hsl(53.8, 55%, 50%);" id="608"  d=" M  0,0  L  155,0  L  155,10  L  0,10  z " />
<path transform="translate( 0, 0 )" style="stroke: hsl(80.7, 55%, 50%);" id="912"  d=" M  0,0  L  155,0  L  155,10  L  0,10  z " />
<path transform="translate( 0, 0 )" style="stroke: hsl(107.6, 55%, 50%);" id="1216"  d=" M  0,0  L  155,0  L  155,10  L  0,10  z " />
<path transform="translate( 0, 0 )" style="stroke: hsl(134.5, 55%, 50%);" id="1520"  d=" M  0,0  L  155,0  L  155,10  L  0,10  z " />
<path transform="translate( 0, 0 )" style="stroke: hsl(161.4, 55%, 50%);" id="1824"  d=" M  0,0  L  155,0  L  155,10  L  0,10  z " />
<path transform="translate( 0, 0 )" style="stroke: hsl(188.3, 55%, 50%);" id="2128"  d=" M  0,0  L  155,0  L  155,10  L  0,10  z " />
<path transform="translate( 0, 0 )" style="stroke: hsl(215.2, 55%, 50%);" id="2432"  d=" M  0,0  L  155,0  L  155,10  L  0,10  z " />
<path transform="translate( 0, 0 )" style="stroke: hsl(242.1, 55%, 50%);" id="2736"  d=" M  0,0  L  155,0  L  155,10  L  0,10  z " />
<path transform="translate( 0, 0 )" style="stroke: hsl(269, 55%, 50%);" id="3040"  d=" M  0,0  L  155,0  L  155,10  L  0,10  z " />
<path transform="translate( 0, 0 )" style="stroke: hsl(295.9, 55%, 50%);" id="3344"  d=" M  0,0  L  155,0  L  155,10  L  0,10  z " />
    </g>
    <!-- End of group #innerPocketWelt -->
    
    <!-- Start of group #innerPocketBag -->
    <g id="innerPocketBag"  transform=" translate(5 5)  translate(1398.332 269.327) " >
        <path class="hidden" id="14"  d=" M  0,0  L  155,0  L  155,100  L  0,100  z " />
<path transform="translate( 0, 0 )" style="stroke: hsl(26.9, 55%, 50%);" id="305"  d=" M  0,40  L  0,0  L  155,0  L  155,40  M  155,60  L  155,100  L  0,100  L  0,60 " />
<path transform="translate( 0, 0 )" style="stroke: hsl(53.8, 55%, 50%);" id="609"  d=" M  0,40  L  0,0  L  155,0  L  155,40  M  155,60  L  155,100  L  0,100  L  0,60 " />
<path transform="translate( 0, 0 )" style="stroke: hsl(80.7, 55%, 50%);" id="913"  d=" M  0,40  L  0,0  L  155,0  L  155,40  M  155,60  L  155,100  L  0,100  L  0,60 " />
<path transform="translate( 0, 0 )" style="stroke: hsl(107.6, 55%, 50%);" id="1217"  d=" M  0,40  L  0,0  L  155,0  L  155,40  M  155,60  L  155,100  L  0,100  L  0,60 " />
<path transform="translate( 0, 0 )" style="stroke: hsl(134.5, 55%, 50%);" id="1521"  d=" M  0,40  L  0,0  L  155,0  L  155,40  M  155,60  L  155,100  L  0,100  L  0,60 " />
<path transform="translate( 0, 0 )" style="stroke: hsl(161.4, 55%, 50%);" id="1825"  d=" M  0,40  L  0,0  L  155,0  L  155,40  M  155,60  L  155,100  L  0,100  L  0,60 " />
<path transform="translate( 0, 0 )" style="stroke: hsl(188.3, 55%, 50%);" id="2129"  d=" M  0,40  L  0,0  L  155,0  L  155,40  M  155,60  L  155,100  L  0,100  L  0,60 " />
<path transform="translate( 0, 0 )" style="stroke: hsl(215.2, 55%, 50%);" id="2433"  d=" M  0,40  L  0,0  L  155,0  L  155,40  M  155,60  L  155,100  L  0,100  L  0,60 " />
<path transform="translate( 0, 0 )" style="stroke: hsl(242.1, 55%, 50%);" id="2737"  d=" M  0,40  L  0,0  L  155,0  L  155,40  M  155,60  L  155,100  L  0,100  L  0,60 " />
<path transform="translate( 0, 0 )" style="stroke: hsl(269, 55%, 50%);" id="3041"  d=" M  0,40  L  0,0  L  155,0  L  155,40  M  155,60  L  155,100  L  0,100  L  0,60 " />
<path transform="translate( 0, 0 )" style="stroke: hsl(295.9, 55%, 50%);" id="3345"  d=" M  0,40  L  0,0  L  155,0  L  155,40  M  155,60  L  155,100  L  0,100  L  0,60 " />
    </g>
    <!-- End of group #innerPocketBag -->
    
    <!-- Start of group #innerPocketFacingExtension -->
    <g id="innerPocketFacingExtension" >
    </g>
    <!-- End of group #innerPocketFacingExtension -->
    
    <!-- Start of group #sampler-back -->
    <g id="sampler-back" >
    </g>
    <!-- End of group #sampler-back -->
    
    <!-- Start of group #sampler-front -->
    <g id="sampler-front" >
    </g>
    <!-- End of group #sampler-front -->
    
    <!-- Start of group #sampler-side -->
    <g id="sampler-side" >
    </g>
    <!-- End of group #sampler-side -->
    
    <!-- Start of group #sampler-collar -->
    <g id="sampler-collar" >
    </g>
    <!-- End of group #sampler-collar -->
    
    <!-- Start of group #sampler-collarstand -->
    <g id="sampler-collarstand" >
    </g>
    <!-- End of group #sampler-collarstand -->
    
    <!-- Start of group #sampler-undercollar -->
    <g id="sampler-undercollar" >
    </g>
    <!-- End of group #sampler-undercollar -->
    
    <!-- Start of group #sampler-topsleeve -->
    <g id="sampler-topsleeve" >
    </g>
    <!-- End of group #sampler-topsleeve -->
    
    <!-- Start of group #sampler-undersleeve -->
    <g id="sampler-undersleeve" >
    </g>
    <!-- End of group #sampler-undersleeve -->
    
    <!-- Start of group #sampler-pocket -->
    <g id="sampler-pocket" >
    </g>
    <!-- End of group #sampler-pocket -->
    
    <!-- Start of group #sampler-chestPocketWelt -->
    <g id="sampler-chestPocketWelt" >
    </g>
    <!-- End of group #sampler-chestPocketWelt -->
    
    <!-- Start of group #sampler-chestPocketBag -->
    <g id="sampler-chestPocketBag" >
    </g>
    <!-- End of group #sampler-chestPocketBag -->
    
    <!-- Start of group #sampler-innerPocketWelt -->
    <g id="sampler-innerPocketWelt" >
    </g>
    <!-- End of group #sampler-innerPocketWelt -->
    
    <!-- Start of group #sampler-innerPocketBag -->
    <g id="sampler-innerPocketBag" >
    </g>
    <!-- End of group #sampler-innerPocketBag -->
</g>
<!-- End of group #patternContainer -->

</svg>

