<?xml version="1.0" encoding="UTF-8" standalone="no"?>
<svg
    xmlns="http://www.w3.org/2000/svg"
    xmlns:svg="http://www.w3.org/2000/svg"
    xmlns:xlink="http://www.w3.org/1999/xlink"
    xmlns:freesewing="http://freesewing.org/namespaces/freesewing" viewBox ="0 0 1664 904"
    width ="1664mm"
    height ="904mm"
    freesewing:version ="1.6.5"
    freesewing:origin ="joost.core.freesewing.org" 
>

<style type="text/css">
    <![CDATA[
    path { fill: none; stroke: #000000; stroke-opacity:1; stroke-width: 0.5; stroke-miterlimit:4; stroke-dashoffset:0; stroke-linecap:round; stroke-linejoin:round; }
    path.hidden { fill: none; stroke: none; }]]>
</style>


<!-- Start of group #patternContainer -->
<g id="patternContainer" >
    
    <!-- Start of group #backBlock -->
    <g id="backBlock" >
    </g>
    <!-- End of group #backBlock -->
    
    <!-- Start of group #frontBlock -->
    <g id="frontBlock" >
    </g>
    <!-- End of group #frontBlock -->
    
    <!-- Start of group #sleeveBlock -->
    <g id="sleeveBlock" >
    </g>
    <!-- End of group #sleeveBlock -->
    
    <!-- Start of group #topsleeveBlock -->
    <g id="topsleeveBlock" >
    </g>
    <!-- End of group #topsleeveBlock -->
    
    <!-- Start of group #undersleeveBlock -->
    <g id="undersleeveBlock" >
    </g>
    <!-- End of group #undersleeveBlock -->
    
    <!-- Start of group #back -->
    <g id="back"  transform=" translate(5 165)  translate(311.6 0) " >
        <path class="hidden" id="2"  d=" M  0,-160  L  258.921,-160  L  258.921,711.85  L  0,711.85  z " />
<path transform="translate( 0, 0 )" style="stroke: hsl(26.9, 55%, 50%);" id="290"  d=" M  5.4,20  C  5.4,20  84.058,19.814  86.777,0  L  232.5,20  C  231.14,29.907  220,110.083  220,155.125  C  220,200.167  227.359,247.359  245.125,265.125  C  227.359,282.891  210.296,415.042  210.296,490  C  210.296,509.333  211.676,528.667  213.332,548  L  253.224,557.708  C  256.526,582.211  258.921,609.051  258.921,635  L  258.921,711.85  L  11.25,711.85  L  11.25,635  C  11.25,586.667  14.625,538.333  14.625,490  C  14.625,393.389  -0,296.778  0,200.167  C  0,110.083  5.4,20  5.4,20  z " />
<path transform="translate( 0, -16 )" style="stroke: hsl(53.8, 55%, 50%);" id="594"  d=" M  5.4,20  C  5.4,20  84.058,19.814  86.777,0  L  232.5,20  C  231.14,29.907  220,110.083  220,155.125  C  220,200.167  227.359,247.359  245.125,265.125  C  227.359,282.891  210.296,415.042  210.296,490  C  210.296,509.333  211.676,528.667  213.332,548  L  253.224,557.708  C  256.526,582.211  258.921,609.051  258.921,635  L  258.921,727.85  L  11.25,727.85  L  11.25,635  C  11.25,586.667  14.625,538.333  14.625,490  C  14.625,393.389  -0,296.778  0,200.167  C  0,110.083  5.4,20  5.4,20  z " />
<path transform="translate( 0, -32 )" style="stroke: hsl(80.7, 55%, 50%);" id="898"  d=" M  5.4,20  C  5.4,20  84.058,19.814  86.777,0  L  232.5,20  C  231.14,29.907  220,110.083  220,155.125  C  220,200.167  227.359,247.359  245.125,265.125  C  227.359,282.891  210.296,415.042  210.296,490  C  210.296,509.333  211.676,528.667  213.332,548  L  253.224,557.708  C  256.526,582.211  258.921,609.051  258.921,635  L  258.921,743.85  L  11.25,743.85  L  11.25,635  C  11.25,586.667  14.625,538.333  14.625,490  C  14.625,393.389  -0,296.778  0,200.167  C  0,110.083  5.4,20  5.4,20  z " />
<path transform="translate( 0, -48 )" style="stroke: hsl(107.6, 55%, 50%);" id="1202"  d=" M  5.4,20  C  5.4,20  84.058,19.814  86.777,0  L  232.5,20  C  231.14,29.907  220,110.083  220,155.125  C  220,200.167  227.359,247.359  245.125,265.125  C  227.359,282.891  210.296,415.042  210.296,490  C  210.296,509.333  211.676,528.667  213.332,548  L  253.224,557.708  C  256.526,582.211  258.921,609.051  258.921,635  L  258.921,759.85  L  11.25,759.85  L  11.25,635  C  11.25,586.667  14.625,538.333  14.625,490  C  14.625,393.389  -0,296.778  0,200.167  C  0,110.083  5.4,20  5.4,20  z " />
<path transform="translate( 0, -64 )" style="stroke: hsl(134.5, 55%, 50%);" id="1506"  d=" M  5.4,20  C  5.4,20  84.058,19.814  86.777,0  L  232.5,20  C  231.14,29.907  220,110.083  220,155.125  C  220,200.167  227.359,247.359  245.125,265.125  C  227.359,282.891  210.296,415.042  210.296,490  C  210.296,509.333  211.676,528.667  213.332,548  L  253.224,557.708  C  256.526,582.211  258.921,609.051  258.921,635  L  258.921,775.85  L  11.25,775.85  L  11.25,635  C  11.25,586.667  14.625,538.333  14.625,490  C  14.625,393.389  -0,296.778  0,200.167  C  0,110.083  5.4,20  5.4,20  z " />
<path transform="translate( 0, -80 )" style="stroke: hsl(161.4, 55%, 50%);" id="1810"  d=" M  5.4,20  C  5.4,20  84.058,19.814  86.777,0  L  232.5,20  C  231.14,29.907  220,110.083  220,155.125  C  220,200.167  227.359,247.359  245.125,265.125  C  227.359,282.891  210.296,415.042  210.296,490  C  210.296,509.333  211.676,528.667  213.332,548  L  253.224,557.708  C  256.526,582.211  258.921,609.051  258.921,635  L  258.921,791.85  L  11.25,791.85  L  11.25,635  C  11.25,586.667  14.625,538.333  14.625,490  C  14.625,393.389  -0,296.778  0,200.167  C  0,110.083  5.4,20  5.4,20  z " />
<path transform="translate( 0, -96 )" style="stroke: hsl(188.3, 55%, 50%);" id="2114"  d=" M  5.4,20  C  5.4,20  84.058,19.814  86.777,0  L  232.5,20  C  231.14,29.907  220,110.083  220,155.125  C  220,200.167  227.359,247.359  245.125,265.125  C  227.359,282.891  210.296,415.042  210.296,490  C  210.296,509.333  211.676,528.667  213.332,548  L  253.224,557.708  C  256.526,582.211  258.921,609.051  258.921,635  L  258.921,807.85  L  11.25,807.85  L  11.25,635  C  11.25,586.667  14.625,538.333  14.625,490  C  14.625,393.389  -0,296.778  0,200.167  C  0,110.083  5.4,20  5.4,20  z " />
<path transform="translate( 0, -112 )" style="stroke: hsl(215.2, 55%, 50%);" id="2418"  d=" M  5.4,20  C  5.4,20  84.058,19.814  86.777,0  L  232.5,20  C  231.14,29.907  220,110.083  220,155.125  C  220,200.167  227.359,247.359  245.125,265.125  C  227.359,282.891  210.296,415.042  210.296,490  C  210.296,509.333  211.676,528.667  213.332,548  L  253.224,557.708  C  256.526,582.211  258.921,609.051  258.921,635  L  258.921,823.85  L  11.25,823.85  L  11.25,635  C  11.25,586.667  14.625,538.333  14.625,490  C  14.625,393.389  -0,296.778  0,200.167  C  0,110.083  5.4,20  5.4,20  z " />
<path transform="translate( 0, -128 )" style="stroke: hsl(242.1, 55%, 50%);" id="2722"  d=" M  5.4,20  C  5.4,20  84.058,19.814  86.777,0  L  232.5,20  C  231.14,29.907  220,110.083  220,155.125  C  220,200.167  227.359,247.359  245.125,265.125  C  227.359,282.891  210.296,415.042  210.296,490  C  210.296,509.333  211.676,528.667  213.332,548  L  253.224,557.708  C  256.526,582.211  258.921,609.051  258.921,635  L  258.921,839.85  L  11.25,839.85  L  11.25,635  C  11.25,586.667  14.625,538.333  14.625,490  C  14.625,393.389  -0,296.778  0,200.167  C  0,110.083  5.4,20  5.4,20  z " />
<path transform="translate( 0, -144 )" style="stroke: hsl(269, 55%, 50%);" id="3026"  d=" M  5.4,20  C  5.4,20  84.058,19.814  86.777,0  L  232.5,20  C  231.14,29.907  220,110.083  220,155.125  C  220,200.167  227.359,247.359  245.125,265.125  C  227.359,282.891  210.296,415.042  210.296,490  C  210.296,509.333  211.676,528.667  213.332,548  L  253.224,557.708  C  256.526,582.211  258.921,609.051  258.921,635  L  258.921,855.85  L  11.25,855.85  L  11.25,635  C  11.25,586.667  14.625,538.333  14.625,490  C  14.625,393.389  -0,296.778  0,200.167  C  0,110.083  5.4,20  5.4,20  z " />
<path transform="translate( 0, -160 )" style="stroke: hsl(295.9, 55%, 50%);" id="3330"  d=" M  5.4,20  C  5.4,20  84.058,19.814  86.777,0  L  232.5,20  C  231.14,29.907  220,110.083  220,155.125  C  220,200.167  227.359,247.359  245.125,265.125  C  227.359,282.891  210.296,415.042  210.296,490  C  210.296,509.333  211.676,528.667  213.332,548  L  253.224,557.708  C  256.526,582.211  258.921,609.051  258.921,635  L  258.921,871.85  L  11.25,871.85  L  11.25,635  C  11.25,586.667  14.625,538.333  14.625,490  C  14.625,393.389  -0,296.778  0,200.167  C  0,110.083  5.4,20  5.4,20  z " />
    </g>
    <!-- End of group #back -->
    
    <!-- Start of group #front -->
    <g id="front"  transform=" translate(26.6 171.081)  translate(0 0) " >
        <path class="hidden" id="3"  d=" M  -21.6,-166.081  L  280,-166.081  L  280,728.291  L  -21.6,728.291  z " />
<path transform="translate( 0, 0 )" style="stroke: hsl(26.9, 55%, 50%);" id="291"  d=" M  150.916,500.875  L  247.111,500.875  M  255.598,667.263  L  113.4,667.263  L  113.4,500.875  L  137.012,500.875 " />
<path transform="translate( 0, 0 )" style="stroke: hsl(26.9, 55%, 50%);" id="292"  d=" M  -21.6,420.088  C  -21.6,287.436  -18.441,92.277  -18.441,92.277  L  11.54,91.205  L  66.018,67.317  L  95.197,-6.081  L  238.653,20.383  C  235.932,35.134  218,110.083  218,155.125  C  218,200.167  227.359,247.359  245.125,265.125  C  256.673,276.673  267.943,283.824  280,287.442  C  280,287.442  246.973,415.042  246.973,490  C  246.973,538.333  255.598,586.667  255.598,635  L  255.598,717.957  L  76.68,728.018  C  12.78,731.611  -13.655,700.552  -20.201,582.638  C  -21.6,557.438  -21.6,538.005  -21.6,518.572  L  -21.6,420.088  z  M  143.964,562.5  C  143.964,562.5  151.277,514.167  151.277,490  C  151.277,445.611  143.964,356.833  143.964,356.833  C  143.964,356.833  136.651,445.611  136.651,490  C  136.651,514.167  143.964,562.5  143.964,562.5  z " />
<path transform="translate( 0, 0 )" style="stroke: hsl(26.9, 55%, 50%);" id="293"  d=" M  82.5,290.25  L  82.5,275.12  L  186.602,261.415  L  186.602,276.545  L  82.5,290.25  z " />
<path transform="translate( 0, 0 )" style="stroke: hsl(26.9, 55%, 50%);" id="294"  d=" M  -21.6,420.088  L  51.576,73.65 " />
<path transform="translate( 0, -16 )" style="stroke: hsl(53.8, 55%, 50%);" id="595"  d=" M  150.916,500.875  L  247.111,500.875  M  255.598,679.263  L  113.4,679.263  L  113.4,500.875  L  137.012,500.875 " />
<path transform="translate( 0, -16 )" style="stroke: hsl(53.8, 55%, 50%);" id="596"  d=" M  -21.6,420.088  C  -21.6,287.436  -18.441,92.277  -18.441,92.277  L  11.54,91.205  L  66.018,67.317  L  95.197,-6.081  L  238.653,20.383  C  235.932,35.134  218,110.083  218,155.125  C  218,200.167  227.359,247.359  245.125,265.125  C  256.673,276.673  267.943,283.824  280,287.442  C  280,287.442  246.973,415.042  246.973,490  C  246.973,538.333  255.598,586.667  255.598,635  L  255.598,733.957  L  76.68,744.018  C  12.78,747.611  -12.991,715.742  -20.096,587.433  C  -21.6,560.272  -21.6,539.422  -21.6,518.572  L  -21.6,420.088  z  M  143.964,562.5  C  143.964,562.5  151.277,514.167  151.277,490  C  151.277,445.611  143.964,356.833  143.964,356.833  C  143.964,356.833  136.651,445.611  136.651,490  C  136.651,514.167  143.964,562.5  143.964,562.5  z " />
<path transform="translate( 0, -16 )" style="stroke: hsl(53.8, 55%, 50%);" id="597"  d=" M  82.5,290.25  L  82.5,275.12  L  186.602,261.415  L  186.602,276.545  L  82.5,290.25  z " />
<path transform="translate( 0, -16 )" style="stroke: hsl(53.8, 55%, 50%);" id="598"  d=" M  -21.6,420.088  L  51.576,73.65 " />
<path transform="translate( 0, -32 )" style="stroke: hsl(80.7, 55%, 50%);" id="899"  d=" M  150.916,500.875  L  247.111,500.875  M  255.598,691.263  L  113.4,691.263  L  113.4,500.875  L  137.012,500.875 " />
<path transform="translate( 0, -32 )" style="stroke: hsl(80.7, 55%, 50%);" id="900"  d=" M  -21.6,420.088  C  -21.6,287.436  -18.441,92.277  -18.441,92.277  L  11.54,91.205  L  66.018,67.317  L  95.197,-6.081  L  238.653,20.383  C  235.932,35.134  218,110.083  218,155.125  C  218,200.167  227.359,247.359  245.125,265.125  C  256.673,276.673  267.943,283.824  280,287.442  C  280,287.442  246.973,415.042  246.973,490  C  246.973,538.333  255.598,586.667  255.598,635  L  255.598,749.957  L  76.68,760.018  C  12.78,763.611  -12.328,730.932  -19.992,592.229  C  -21.6,563.127  -21.6,540.849  -21.6,518.572  L  -21.6,420.088  z  M  143.964,562.5  C  143.964,562.5  151.277,514.167  151.277,490  C  151.277,445.611  143.964,356.833  143.964,356.833  C  143.964,356.833  136.651,445.611  136.651,490  C  136.651,514.167  143.964,562.5  143.964,562.5  z " />
<path transform="translate( 0, -32 )" style="stroke: hsl(80.7, 55%, 50%);" id="901"  d=" M  82.5,290.25  L  82.5,275.12  L  186.602,261.415  L  186.602,276.545  L  82.5,290.25  z " />
<path transform="translate( 0, -32 )" style="stroke: hsl(80.7, 55%, 50%);" id="902"  d=" M  -21.6,420.088  L  51.576,73.65 " />
<path transform="translate( 0, -48 )" style="stroke: hsl(107.6, 55%, 50%);" id="1203"  d=" M  150.916,500.875  L  247.111,500.875  M  255.598,703.263  L  113.4,703.263  L  113.4,500.875  L  137.012,500.875 " />
<path transform="translate( 0, -48 )" style="stroke: hsl(107.6, 55%, 50%);" id="1204"  d=" M  -21.6,420.088  C  -21.6,287.436  -18.441,92.277  -18.441,92.277  L  11.54,91.205  L  66.018,67.317  L  95.197,-6.081  L  238.653,20.383  C  235.932,35.134  218,110.083  218,155.125  C  218,200.167  227.359,247.359  245.125,265.125  C  256.673,276.673  267.943,283.824  280,287.442  C  280,287.442  246.973,415.042  246.973,490  C  246.973,538.333  255.598,586.667  255.598,635  L  255.598,765.957  L  76.68,776.018  C  12.78,779.611  -11.665,746.122  -19.887,597.024  C  -21.6,565.96  -21.6,542.266  -21.6,518.572  L  -21.6,420.088  z  M  143.964,562.5  C  143.964,562.5  151.277,514.167  151.277,490  C  151.277,445.611  143.964,356.833  143.964,356.833  C  143.964,356.833  136.651,445.611  136.651,490  C  136.651,514.167  143.964,562.5  143.964,562.5  z " />
<path transform="translate( 0, -48 )" style="stroke: hsl(107.6, 55%, 50%);" id="1205"  d=" M  82.5,290.25  L  82.5,275.12  L  186.602,261.415  L  186.602,276.545  L  82.5,290.25  z " />
<path transform="translate( 0, -48 )" style="stroke: hsl(107.6, 55%, 50%);" id="1206"  d=" M  -21.6,420.088  L  51.576,73.65 " />
<path transform="translate( 0, -64 )" style="stroke: hsl(134.5, 55%, 50%);" id="1507"  d=" M  150.916,500.875  L  247.111,500.875  M  255.598,715.263  L  113.4,715.263  L  113.4,500.875  L  137.012,500.875 " />
<path transform="translate( 0, -64 )" style="stroke: hsl(134.5, 55%, 50%);" id="1508"  d=" M  -21.6,420.088  C  -21.6,287.436  -18.441,92.277  -18.441,92.277  L  11.54,91.205  L  66.018,67.317  L  95.197,-6.081  L  238.653,20.383  C  235.932,35.134  218,110.083  218,155.125  C  218,200.167  227.359,247.359  245.125,265.125  C  256.673,276.673  267.943,283.824  280,287.442  C  280,287.442  246.973,415.042  246.973,490  C  246.973,538.333  255.598,586.667  255.598,635  L  255.598,781.957  L  76.68,792.018  C  12.78,795.611  -11.001,761.312  -19.782,601.82  C  -21.6,568.799  -21.6,543.685  -21.6,518.572  L  -21.6,420.088  z  M  143.964,562.5  C  143.964,562.5  151.277,514.167  151.277,490  C  151.277,445.611  143.964,356.833  143.964,356.833  C  143.964,356.833  136.651,445.611  136.651,490  C  136.651,514.167  143.964,562.5  143.964,562.5  z " />
<path transform="translate( 0, -64 )" style="stroke: hsl(134.5, 55%, 50%);" id="1509"  d=" M  82.5,290.25  L  82.5,275.12  L  186.602,261.415  L  186.602,276.545  L  82.5,290.25  z " />
<path transform="translate( 0, -64 )" style="stroke: hsl(134.5, 55%, 50%);" id="1510"  d=" M  -21.6,420.088  L  51.576,73.65 " />
<path transform="translate( 0, -80 )" style="stroke: hsl(161.4, 55%, 50%);" id="1811"  d=" M  150.916,500.875  L  247.111,500.875  M  255.598,727.263  L  113.4,727.263  L  113.4,500.875  L  137.012,500.875 " />
<path transform="translate( 0, -80 )" style="stroke: hsl(161.4, 55%, 50%);" id="1812"  d=" M  -21.6,420.088  C  -21.6,287.436  -18.441,92.277  -18.441,92.277  L  11.54,91.205  L  66.018,67.317  L  95.197,-6.081  L  238.653,20.383  C  235.932,35.134  218,110.083  218,155.125  C  218,200.167  227.359,247.359  245.125,265.125  C  256.673,276.673  267.943,283.824  280,287.442  C  280,287.442  246.973,415.042  246.973,490  C  246.973,538.333  255.598,586.667  255.598,635  L  255.598,797.957  L  76.68,808.018  C  12.78,811.611  -10.339,776.502  -19.678,606.615  C  -21.6,571.652  -21.6,545.112  -21.6,518.572  L  -21.6,420.088  z  M  143.964,562.5  C  143.964,562.5  151.277,514.167  151.277,490  C  151.277,445.611  143.964,356.833  143.964,356.833  C  143.964,356.833  136.651,445.611  136.651,490  C  136.651,514.167  143.964,562.5  143.964,562.5  z " />
<path transform="translate( 0, -80 )" style="stroke: hsl(161.4, 55%, 50%);" id="1813"  d=" M  82.5,290.25  L  82.5,275.12  L  186.602,261.415  L  186.602,276.545  L  82.5,290.25  z " />
<path transform="translate( 0, -80 )" style="stroke: hsl(161.4, 55%, 50%);" id="1814"  d=" M  -21.6,420.088  L  51.576,73.65 " />
<path transform="translate( 0, -96 )" style="stroke: hsl(188.3, 55%, 50%);" id="2115"  d=" M  150.916,500.875  L  247.111,500.875  M  255.598,739.263  L  113.4,739.263  L  113.4,500.875  L  137.012,500.875 " />
<path transform="translate( 0, -96 )" style="stroke: hsl(188.3, 55%, 50%);" id="2116"  d=" M  -21.6,420.088  C  -21.6,287.436  -18.441,92.277  -18.441,92.277  L  11.54,91.205  L  66.018,67.317  L  95.197,-6.081  L  238.653,20.383  C  235.932,35.134  218,110.083  218,155.125  C  218,200.167  227.359,247.359  245.125,265.125  C  256.673,276.673  267.943,283.824  280,287.442  C  280,287.442  246.973,415.042  246.973,490  C  246.973,538.333  255.598,586.667  255.598,635  L  255.598,813.957  L  76.68,824.018  C  12.78,827.611  -9.676,791.692  -19.573,611.411  C  -21.6,574.488  -21.6,546.53  -21.6,518.572  L  -21.6,420.088  z  M  143.964,562.5  C  143.964,562.5  151.277,514.167  151.277,490  C  151.277,445.611  143.964,356.833  143.964,356.833  C  143.964,356.833  136.651,445.611  136.651,490  C  136.651,514.167  143.964,562.5  143.964,562.5  z " />
<path transform="translate( 0, -96 )" style="stroke: hsl(188.3, 55%, 50%);" id="2117"  d=" M  82.5,290.25  L  82.5,275.12  L  186.602,261.415  L  186.602,276.545  L  82.5,290.25  z " />
<path transform="translate( 0, -96 )" style="stroke: hsl(188.3, 55%, 50%);" id="2118"  d=" M  -21.6,420.088  L  51.576,73.65 " />
<path transform="translate( 0, -112 )" style="stroke: hsl(215.2, 55%, 50%);" id="2419"  d=" M  150.916,500.875  L  247.111,500.875  M  255.598,751.263  L  113.4,751.263  L  113.4,500.875  L  137.012,500.875 " />
<path transform="translate( 0, -112 )" style="stroke: hsl(215.2, 55%, 50%);" id="2420"  d=" M  -21.6,420.088  C  -21.6,287.436  -18.441,92.277  -18.441,92.277  L  11.54,91.205  L  66.018,67.317  L  95.197,-6.081  L  238.653,20.383  C  235.932,35.134  218,110.083  218,155.125  C  218,200.167  227.359,247.359  245.125,265.125  C  256.673,276.673  267.943,283.824  280,287.442  C  280,287.442  246.973,415.042  246.973,490  C  246.973,538.333  255.598,586.667  255.598,635  L  255.598,829.957  L  76.68,840.018  C  12.78,843.611  -9.012,806.882  -19.468,616.206  C  -21.6,577.327  -21.6,547.95  -21.6,518.572  L  -21.6,420.088  z  M  143.964,562.5  C  143.964,562.5  151.277,514.167  151.277,490  C  151.277,445.611  143.964,356.833  143.964,356.833  C  143.964,356.833  136.651,445.611  136.651,490  C  136.651,514.167  143.964,562.5  143.964,562.5  z " />
<path transform="translate( 0, -112 )" style="stroke: hsl(215.2, 55%, 50%);" id="2421"  d=" M  82.5,290.25  L  82.5,275.12  L  186.602,261.415  L  186.602,276.545  L  82.5,290.25  z " />
<path transform="translate( 0, -112 )" style="stroke: hsl(215.2, 55%, 50%);" id="2422"  d=" M  -21.6,420.088  L  51.576,73.65 " />
<path transform="translate( 0, -128 )" style="stroke: hsl(242.1, 55%, 50%);" id="2723"  d=" M  150.916,500.875  L  247.111,500.875  M  255.598,763.263  L  113.4,763.263  L  113.4,500.875  L  137.012,500.875 " />
<path transform="translate( 0, -128 )" style="stroke: hsl(242.1, 55%, 50%);" id="2724"  d=" M  -21.6,420.088  C  -21.6,287.436  -18.441,92.277  -18.441,92.277  L  11.54,91.205  L  66.018,67.317  L  95.197,-6.081  L  238.653,20.383  C  235.932,35.134  218,110.083  218,155.125  C  218,200.167  227.359,247.359  245.125,265.125  C  256.673,276.673  267.943,283.824  280,287.442  C  280,287.442  246.973,415.042  246.973,490  C  246.973,538.333  255.598,586.667  255.598,635  L  255.598,845.957  L  76.68,856.018  C  12.78,859.611  -8.349,822.072  -19.364,621.001  C  -21.6,580.184  -21.6,549.378  -21.6,518.572  L  -21.6,420.088  z  M  143.964,562.5  C  143.964,562.5  151.277,514.167  151.277,490  C  151.277,445.611  143.964,356.833  143.964,356.833  C  143.964,356.833  136.651,445.611  136.651,490  C  136.651,514.167  143.964,562.5  143.964,562.5  z " />
<path transform="translate( 0, -128 )" style="stroke: hsl(242.1, 55%, 50%);" id="2725"  d=" M  82.5,290.25  L  82.5,275.12  L  186.602,261.415  L  186.602,276.545  L  82.5,290.25  z " />
<path transform="translate( 0, -128 )" style="stroke: hsl(242.1, 55%, 50%);" id="2726"  d=" M  -21.6,420.088  L  51.576,73.65 " />
<path transform="translate( 0, -144 )" style="stroke: hsl(269, 55%, 50%);" id="3027"  d=" M  150.916,500.875  L  247.111,500.875  M  255.598,775.263  L  113.4,775.263  L  113.4,500.875  L  137.012,500.875 " />
<path transform="translate( 0, -144 )" style="stroke: hsl(269, 55%, 50%);" id="3028"  d=" M  -21.6,420.088  C  -21.6,287.436  -18.441,92.277  -18.441,92.277  L  11.54,91.205  L  66.018,67.317  L  95.197,-6.081  L  238.653,20.383  C  235.932,35.134  218,110.083  218,155.125  C  218,200.167  227.359,247.359  245.125,265.125  C  256.673,276.673  267.943,283.824  280,287.442  C  280,287.442  246.973,415.042  246.973,490  C  246.973,538.333  255.598,586.667  255.598,635  L  255.598,861.957  L  76.68,872.018  C  12.78,875.611  -7.685,837.263  -19.259,625.797  C  -21.6,583.025  -21.6,550.799  -21.6,518.572  L  -21.6,420.088  z  M  143.964,562.5  C  143.964,562.5  151.277,514.167  151.277,490  C  151.277,445.611  143.964,356.833  143.964,356.833  C  143.964,356.833  136.651,445.611  136.651,490  C  136.651,514.167  143.964,562.5  143.964,562.5  z " />
<path transform="translate( 0, -144 )" style="stroke: hsl(269, 55%, 50%);" id="3029"  d=" M  82.5,290.25  L  82.5,275.12  L  186.602,261.415  L  186.602,276.545  L  82.5,290.25  z " />
<path transform="translate( 0, -144 )" style="stroke: hsl(269, 55%, 50%);" id="3030"  d=" M  -21.6,420.088  L  51.576,73.65 " />
<path transform="translate( 0, -160 )" style="stroke: hsl(295.9, 55%, 50%);" id="3331"  d=" M  150.916,500.875  L  247.111,500.875  M  255.598,787.263  L  113.4,787.263  L  113.4,500.875  L  137.012,500.875 " />
<path transform="translate( 0, -160 )" style="stroke: hsl(295.9, 55%, 50%);" id="3332"  d=" M  -21.6,420.088  C  -21.6,287.436  -18.441,92.277  -18.441,92.277  L  11.54,91.205  L  66.018,67.317  L  95.197,-6.081  L  238.653,20.383  C  235.932,35.134  218,110.083  218,155.125  C  218,200.167  227.359,247.359  245.125,265.125  C  256.673,276.673  267.943,283.824  280,287.442  C  280,287.442  246.973,415.042  246.973,490  C  246.973,538.333  255.598,586.667  255.598,635  L  255.598,877.957  L  76.68,888.018  C  12.78,891.611  -7.022,852.453  -19.154,630.592  C  -21.6,585.861  -21.6,552.217  -21.6,518.572  L  -21.6,420.088  z  M  143.964,562.5  C  143.964,562.5  151.277,514.167  151.277,490  C  151.277,445.611  143.964,356.833  143.964,356.833  C  143.964,356.833  136.651,445.611  136.651,490  C  136.651,514.167  143.964,562.5  143.964,562.5  z " />
<path transform="translate( 0, -160 )" style="stroke: hsl(295.9, 55%, 50%);" id="3333"  d=" M  82.5,290.25  L  82.5,275.12  L  186.602,261.415  L  186.602,276.545  L  82.5,290.25  z " />
<path transform="translate( 0, -160 )" style="stroke: hsl(295.9, 55%, 50%);" id="3334"  d=" M  -21.6,420.088  L  51.576,73.65 " />
    </g>
    <!-- End of group #front -->
    
    <!-- Start of group #side -->
    <g id="side"  transform=" translate(-267.474 -100.125)  translate(1084.603 0) " >
        <path class="hidden" id="4"  d=" M  272.474,105.125  L  404.203,105.125  L  404.203,717.957  L  272.474,717.957  z " />
<path transform="translate( 0, 0 )" style="stroke: hsl(26.9, 55%, 50%);" id="295"  d=" M  272.474,717.957  L  272.474,635  C  272.474,586.667  281.099,538.333  281.099,490  C  281.099,415.042  280,287.442  280,287.442  C  286.354,289.349  293,290.25  300,290.25  C  320,290.25  337.109,282.891  354.875,265.125  C  372.641,282.891  355.578,415.042  355.578,490  C  355.578,509.333  356.958,528.667  358.626,548.145  L  399.788,559.576  C  401.507,578.83  404.203,609.051  404.203,635  L  404.203,714.507  L  364.203,711.85  L  272.474,717.957  z " />
<path transform="translate( 0, -16 )" style="stroke: hsl(53.8, 55%, 50%);" id="599"  d=" M  272.474,733.957  L  272.474,635  C  272.474,586.667  281.099,538.333  281.099,490  C  281.099,415.042  280,287.442  280,287.442  C  286.354,289.349  293,290.25  300,290.25  C  320,290.25  337.109,282.891  354.875,265.125  C  372.641,282.891  355.578,415.042  355.578,490  C  355.578,509.333  356.958,528.667  358.626,548.145  L  399.788,559.576  C  401.507,578.83  404.203,609.051  404.203,635  L  404.203,730.507  L  364.203,727.85  L  272.474,733.957  z " />
<path transform="translate( 0, -32 )" style="stroke: hsl(80.7, 55%, 50%);" id="903"  d=" M  272.474,749.957  L  272.474,635  C  272.474,586.667  281.099,538.333  281.099,490  C  281.099,415.042  280,287.442  280,287.442  C  286.354,289.349  293,290.25  300,290.25  C  320,290.25  337.109,282.891  354.875,265.125  C  372.641,282.891  355.578,415.042  355.578,490  C  355.578,509.333  356.958,528.667  358.626,548.145  L  399.788,559.576  C  401.507,578.83  404.203,609.051  404.203,635  L  404.203,746.507  L  364.203,743.85  L  272.474,749.957  z " />
<path transform="translate( 0, -48 )" style="stroke: hsl(107.6, 55%, 50%);" id="1207"  d=" M  272.474,765.957  L  272.474,635  C  272.474,586.667  281.099,538.333  281.099,490  C  281.099,415.042  280,287.442  280,287.442  C  286.354,289.349  293,290.25  300,290.25  C  320,290.25  337.109,282.891  354.875,265.125  C  372.641,282.891  355.578,415.042  355.578,490  C  355.578,509.333  356.958,528.667  358.626,548.145  L  399.788,559.576  C  401.507,578.83  404.203,609.051  404.203,635  L  404.203,762.507  L  364.203,759.85  L  272.474,765.957  z " />
<path transform="translate( 0, -64 )" style="stroke: hsl(134.5, 55%, 50%);" id="1511"  d=" M  272.474,781.957  L  272.474,635  C  272.474,586.667  281.099,538.333  281.099,490  C  281.099,415.042  280,287.442  280,287.442  C  286.354,289.349  293,290.25  300,290.25  C  320,290.25  337.109,282.891  354.875,265.125  C  372.641,282.891  355.578,415.042  355.578,490  C  355.578,509.333  356.958,528.667  358.626,548.145  L  399.788,559.576  C  401.507,578.83  404.203,609.051  404.203,635  L  404.203,778.507  L  364.203,775.85  L  272.474,781.957  z " />
<path transform="translate( 0, -80 )" style="stroke: hsl(161.4, 55%, 50%);" id="1815"  d=" M  272.474,797.957  L  272.474,635  C  272.474,586.667  281.099,538.333  281.099,490  C  281.099,415.042  280,287.442  280,287.442  C  286.354,289.349  293,290.25  300,290.25  C  320,290.25  337.109,282.891  354.875,265.125  C  372.641,282.891  355.578,415.042  355.578,490  C  355.578,509.333  356.958,528.667  358.626,548.145  L  399.788,559.576  C  401.507,578.83  404.203,609.051  404.203,635  L  404.203,794.507  L  364.203,791.85  L  272.474,797.957  z " />
<path transform="translate( 0, -96 )" style="stroke: hsl(188.3, 55%, 50%);" id="2119"  d=" M  272.474,813.957  L  272.474,635  C  272.474,586.667  281.099,538.333  281.099,490  C  281.099,415.042  280,287.442  280,287.442  C  286.354,289.349  293,290.25  300,290.25  C  320,290.25  337.109,282.891  354.875,265.125  C  372.641,282.891  355.578,415.042  355.578,490  C  355.578,509.333  356.958,528.667  358.626,548.145  L  399.788,559.576  C  401.507,578.83  404.203,609.051  404.203,635  L  404.203,810.507  L  364.203,807.85  L  272.474,813.957  z " />
<path transform="translate( 0, -112 )" style="stroke: hsl(215.2, 55%, 50%);" id="2423"  d=" M  272.474,829.957  L  272.474,635  C  272.474,586.667  281.099,538.333  281.099,490  C  281.099,415.042  280,287.442  280,287.442  C  286.354,289.349  293,290.25  300,290.25  C  320,290.25  337.109,282.891  354.875,265.125  C  372.641,282.891  355.578,415.042  355.578,490  C  355.578,509.333  356.958,528.667  358.626,548.145  L  399.788,559.576  C  401.507,578.83  404.203,609.051  404.203,635  L  404.203,826.507  L  364.203,823.85  L  272.474,829.957  z " />
<path transform="translate( 0, -128 )" style="stroke: hsl(242.1, 55%, 50%);" id="2727"  d=" M  272.474,845.957  L  272.474,635  C  272.474,586.667  281.099,538.333  281.099,490  C  281.099,415.042  280,287.442  280,287.442  C  286.354,289.349  293,290.25  300,290.25  C  320,290.25  337.109,282.891  354.875,265.125  C  372.641,282.891  355.578,415.042  355.578,490  C  355.578,509.333  356.958,528.667  358.626,548.145  L  399.788,559.576  C  401.507,578.83  404.203,609.051  404.203,635  L  404.203,842.507  L  364.203,839.85  L  272.474,845.957  z " />
<path transform="translate( 0, -144 )" style="stroke: hsl(269, 55%, 50%);" id="3031"  d=" M  272.474,861.957  L  272.474,635  C  272.474,586.667  281.099,538.333  281.099,490  C  281.099,415.042  280,287.442  280,287.442  C  286.354,289.349  293,290.25  300,290.25  C  320,290.25  337.109,282.891  354.875,265.125  C  372.641,282.891  355.578,415.042  355.578,490  C  355.578,509.333  356.958,528.667  358.626,548.145  L  399.788,559.576  C  401.507,578.83  404.203,609.051  404.203,635  L  404.203,858.507  L  364.203,855.85  L  272.474,861.957  z " />
<path transform="translate( 0, -160 )" style="stroke: hsl(295.9, 55%, 50%);" id="3335"  d=" M  272.474,877.957  L  272.474,635  C  272.474,586.667  281.099,538.333  281.099,490  C  281.099,415.042  280,287.442  280,287.442  C  286.354,289.349  293,290.25  300,290.25  C  320,290.25  337.109,282.891  354.875,265.125  C  372.641,282.891  355.578,415.042  355.578,490  C  355.578,509.333  356.958,528.667  358.626,548.145  L  399.788,559.576  C  401.507,578.83  404.203,609.051  404.203,635  L  404.203,874.507  L  364.203,871.85  L  272.474,877.957  z " />
    </g>
    <!-- End of group #side -->
    
    <!-- Start of group #collar -->
    <g id="collar"  transform=" translate(144.771 120.864)  translate(1226.332 0) " >
        <path class="hidden" id="5"  d=" M  -139.771,-115.864  L  288.123,-115.864  L  288.123,-22.855  L  -139.771,-22.855  z " />
<path transform="translate( 0, 0 )" style="stroke: hsl(26.9, 55%, 50%);" id="296"  d=" M  -139.771,-55.592  L  -90.105,-22.855  C  -90.105,-22.855  -80.766,-27.938  -58.63,-33.223  C  -58.63,-33.223  -47.827,-65.865  74.176,-65.864  C  196.179,-65.865  206.982,-33.223  206.982,-33.223  C  229.118,-27.938  238.457,-22.855  238.457,-22.855  L  288.123,-55.592  L  282.904,-85.135  C  230.722,-92.817  208.379,-115.864  74.176,-115.864  C  -60.027,-115.864  -82.37,-92.817  -134.552,-85.135  L  -139.771,-55.592  z " />
<path transform="translate( 0, 0 )" style="stroke: hsl(53.8, 55%, 50%);" id="600"  d=" M  -139.771,-55.592  L  -90.105,-22.855  C  -90.105,-22.855  -80.766,-27.938  -58.63,-33.223  C  -58.63,-33.223  -47.827,-65.865  74.176,-65.864  C  196.179,-65.865  206.982,-33.223  206.982,-33.223  C  229.118,-27.938  238.457,-22.855  238.457,-22.855  L  288.123,-55.592  L  282.904,-85.135  C  230.722,-92.817  208.379,-115.864  74.176,-115.864  C  -60.027,-115.864  -82.37,-92.817  -134.552,-85.135  L  -139.771,-55.592  z " />
<path transform="translate( 0, 0 )" style="stroke: hsl(80.7, 55%, 50%);" id="904"  d=" M  -139.771,-55.592  L  -90.105,-22.855  C  -90.105,-22.855  -80.766,-27.938  -58.63,-33.223  C  -58.63,-33.223  -47.827,-65.865  74.176,-65.864  C  196.179,-65.865  206.982,-33.223  206.982,-33.223  C  229.118,-27.938  238.457,-22.855  238.457,-22.855  L  288.123,-55.592  L  282.904,-85.135  C  230.722,-92.817  208.379,-115.864  74.176,-115.864  C  -60.027,-115.864  -82.37,-92.817  -134.552,-85.135  L  -139.771,-55.592  z " />
<path transform="translate( 0, 0 )" style="stroke: hsl(107.6, 55%, 50%);" id="1208"  d=" M  -139.771,-55.592  L  -90.105,-22.855  C  -90.105,-22.855  -80.766,-27.938  -58.63,-33.223  C  -58.63,-33.223  -47.827,-65.865  74.176,-65.864  C  196.179,-65.865  206.982,-33.223  206.982,-33.223  C  229.118,-27.938  238.457,-22.855  238.457,-22.855  L  288.123,-55.592  L  282.904,-85.135  C  230.722,-92.817  208.379,-115.864  74.176,-115.864  C  -60.027,-115.864  -82.37,-92.817  -134.552,-85.135  L  -139.771,-55.592  z " />
<path transform="translate( 0, 0 )" style="stroke: hsl(134.5, 55%, 50%);" id="1512"  d=" M  -139.771,-55.592  L  -90.105,-22.855  C  -90.105,-22.855  -80.766,-27.938  -58.63,-33.223  C  -58.63,-33.223  -47.827,-65.865  74.176,-65.864  C  196.179,-65.865  206.982,-33.223  206.982,-33.223  C  229.118,-27.938  238.457,-22.855  238.457,-22.855  L  288.123,-55.592  L  282.904,-85.135  C  230.722,-92.817  208.379,-115.864  74.176,-115.864  C  -60.027,-115.864  -82.37,-92.817  -134.552,-85.135  L  -139.771,-55.592  z " />
<path transform="translate( 0, 0 )" style="stroke: hsl(161.4, 55%, 50%);" id="1816"  d=" M  -139.771,-55.592  L  -90.105,-22.855  C  -90.105,-22.855  -80.766,-27.938  -58.63,-33.223  C  -58.63,-33.223  -47.827,-65.865  74.176,-65.864  C  196.179,-65.865  206.982,-33.223  206.982,-33.223  C  229.118,-27.938  238.457,-22.855  238.457,-22.855  L  288.123,-55.592  L  282.904,-85.135  C  230.722,-92.817  208.379,-115.864  74.176,-115.864  C  -60.027,-115.864  -82.37,-92.817  -134.552,-85.135  L  -139.771,-55.592  z " />
<path transform="translate( 0, 0 )" style="stroke: hsl(188.3, 55%, 50%);" id="2120"  d=" M  -139.771,-55.592  L  -90.105,-22.855  C  -90.105,-22.855  -80.766,-27.938  -58.63,-33.223  C  -58.63,-33.223  -47.827,-65.865  74.176,-65.864  C  196.179,-65.865  206.982,-33.223  206.982,-33.223  C  229.118,-27.938  238.457,-22.855  238.457,-22.855  L  288.123,-55.592  L  282.904,-85.135  C  230.722,-92.817  208.379,-115.864  74.176,-115.864  C  -60.027,-115.864  -82.37,-92.817  -134.552,-85.135  L  -139.771,-55.592  z " />
<path transform="translate( 0, 0 )" style="stroke: hsl(215.2, 55%, 50%);" id="2424"  d=" M  -139.771,-55.592  L  -90.105,-22.855  C  -90.105,-22.855  -80.766,-27.938  -58.63,-33.223  C  -58.63,-33.223  -47.827,-65.865  74.176,-65.864  C  196.179,-65.865  206.982,-33.223  206.982,-33.223  C  229.118,-27.938  238.457,-22.855  238.457,-22.855  L  288.123,-55.592  L  282.904,-85.135  C  230.722,-92.817  208.379,-115.864  74.176,-115.864  C  -60.027,-115.864  -82.37,-92.817  -134.552,-85.135  L  -139.771,-55.592  z " />
<path transform="translate( 0, 0 )" style="stroke: hsl(242.1, 55%, 50%);" id="2728"  d=" M  -139.771,-55.592  L  -90.105,-22.855  C  -90.105,-22.855  -80.766,-27.938  -58.63,-33.223  C  -58.63,-33.223  -47.827,-65.865  74.176,-65.864  C  196.179,-65.865  206.982,-33.223  206.982,-33.223  C  229.118,-27.938  238.457,-22.855  238.457,-22.855  L  288.123,-55.592  L  282.904,-85.135  C  230.722,-92.817  208.379,-115.864  74.176,-115.864  C  -60.027,-115.864  -82.37,-92.817  -134.552,-85.135  L  -139.771,-55.592  z " />
<path transform="translate( 0, 0 )" style="stroke: hsl(269, 55%, 50%);" id="3032"  d=" M  -139.771,-55.592  L  -90.105,-22.855  C  -90.105,-22.855  -80.766,-27.938  -58.63,-33.223  C  -58.63,-33.223  -47.827,-65.865  74.176,-65.864  C  196.179,-65.865  206.982,-33.223  206.982,-33.223  C  229.118,-27.938  238.457,-22.855  238.457,-22.855  L  288.123,-55.592  L  282.904,-85.135  C  230.722,-92.817  208.379,-115.864  74.176,-115.864  C  -60.027,-115.864  -82.37,-92.817  -134.552,-85.135  L  -139.771,-55.592  z " />
<path transform="translate( 0, 0 )" style="stroke: hsl(295.9, 55%, 50%);" id="3336"  d=" M  -139.771,-55.592  L  -90.105,-22.855  C  -90.105,-22.855  -80.766,-27.938  -58.63,-33.223  C  -58.63,-33.223  -47.827,-65.865  74.176,-65.864  C  196.179,-65.865  206.982,-33.223  206.982,-33.223  C  229.118,-27.938  238.457,-22.855  238.457,-22.855  L  288.123,-55.592  L  282.904,-85.135  C  230.722,-92.817  208.379,-115.864  74.176,-115.864  C  -60.027,-115.864  -82.37,-92.817  -134.552,-85.135  L  -139.771,-55.592  z " />
    </g>
    <!-- End of group #collar -->
    
    <!-- Start of group #collarstand -->
    <g id="collarstand"  transform=" translate(63.63 70.864)  translate(1226.332 542.406) " >
        <path class="hidden" id="6"  d=" M  -58.63,-65.864  L  206.982,-65.864  L  206.982,-33.223  L  -58.63,-33.223  z " />
<path transform="translate( 0, 0 )" style="stroke: hsl(26.9, 55%, 50%);" id="297"  d=" M  -58.63,-33.223  C  -58.63,-33.223  -47.827,-65.865  74.176,-65.864  C  196.179,-65.865  206.982,-33.223  206.982,-33.223  C  181.104,-39.401  138.838,-45.865  74.176,-45.864  C  9.514,-45.865  -32.752,-39.401  -58.63,-33.223  z " />
<path transform="translate( 0, 0 )" style="stroke: hsl(53.8, 55%, 50%);" id="601"  d=" M  -58.63,-33.223  C  -58.63,-33.223  -47.827,-65.865  74.176,-65.864  C  196.179,-65.865  206.982,-33.223  206.982,-33.223  C  181.104,-39.401  138.838,-45.865  74.176,-45.864  C  9.514,-45.865  -32.752,-39.401  -58.63,-33.223  z " />
<path transform="translate( 0, 0 )" style="stroke: hsl(80.7, 55%, 50%);" id="905"  d=" M  -58.63,-33.223  C  -58.63,-33.223  -47.827,-65.865  74.176,-65.864  C  196.179,-65.865  206.982,-33.223  206.982,-33.223  C  181.104,-39.401  138.838,-45.865  74.176,-45.864  C  9.514,-45.865  -32.752,-39.401  -58.63,-33.223  z " />
<path transform="translate( 0, 0 )" style="stroke: hsl(107.6, 55%, 50%);" id="1209"  d=" M  -58.63,-33.223  C  -58.63,-33.223  -47.827,-65.865  74.176,-65.864  C  196.179,-65.865  206.982,-33.223  206.982,-33.223  C  181.104,-39.401  138.838,-45.865  74.176,-45.864  C  9.514,-45.865  -32.752,-39.401  -58.63,-33.223  z " />
<path transform="translate( 0, 0 )" style="stroke: hsl(134.5, 55%, 50%);" id="1513"  d=" M  -58.63,-33.223  C  -58.63,-33.223  -47.827,-65.865  74.176,-65.864  C  196.179,-65.865  206.982,-33.223  206.982,-33.223  C  181.104,-39.401  138.838,-45.865  74.176,-45.864  C  9.514,-45.865  -32.752,-39.401  -58.63,-33.223  z " />
<path transform="translate( 0, 0 )" style="stroke: hsl(161.4, 55%, 50%);" id="1817"  d=" M  -58.63,-33.223  C  -58.63,-33.223  -47.827,-65.865  74.176,-65.864  C  196.179,-65.865  206.982,-33.223  206.982,-33.223  C  181.104,-39.401  138.838,-45.865  74.176,-45.864  C  9.514,-45.865  -32.752,-39.401  -58.63,-33.223  z " />
<path transform="translate( 0, 0 )" style="stroke: hsl(188.3, 55%, 50%);" id="2121"  d=" M  -58.63,-33.223  C  -58.63,-33.223  -47.827,-65.865  74.176,-65.864  C  196.179,-65.865  206.982,-33.223  206.982,-33.223  C  181.104,-39.401  138.838,-45.865  74.176,-45.864  C  9.514,-45.865  -32.752,-39.401  -58.63,-33.223  z " />
<path transform="translate( 0, 0 )" style="stroke: hsl(215.2, 55%, 50%);" id="2425"  d=" M  -58.63,-33.223  C  -58.63,-33.223  -47.827,-65.865  74.176,-65.864  C  196.179,-65.865  206.982,-33.223  206.982,-33.223  C  181.104,-39.401  138.838,-45.865  74.176,-45.864  C  9.514,-45.865  -32.752,-39.401  -58.63,-33.223  z " />
<path transform="translate( 0, 0 )" style="stroke: hsl(242.1, 55%, 50%);" id="2729"  d=" M  -58.63,-33.223  C  -58.63,-33.223  -47.827,-65.865  74.176,-65.864  C  196.179,-65.865  206.982,-33.223  206.982,-33.223  C  181.104,-39.401  138.838,-45.865  74.176,-45.864  C  9.514,-45.865  -32.752,-39.401  -58.63,-33.223  z " />
<path transform="translate( 0, 0 )" style="stroke: hsl(269, 55%, 50%);" id="3033"  d=" M  -58.63,-33.223  C  -58.63,-33.223  -47.827,-65.865  74.176,-65.864  C  196.179,-65.865  206.982,-33.223  206.982,-33.223  C  181.104,-39.401  138.838,-45.865  74.176,-45.864  C  9.514,-45.865  -32.752,-39.401  -58.63,-33.223  z " />
<path transform="translate( 0, 0 )" style="stroke: hsl(295.9, 55%, 50%);" id="3337"  d=" M  -58.63,-33.223  C  -58.63,-33.223  -47.827,-65.865  74.176,-65.864  C  196.179,-65.865  206.982,-33.223  206.982,-33.223  C  181.104,-39.401  138.838,-45.865  74.176,-45.864  C  9.514,-45.865  -32.752,-39.401  -58.63,-33.223  z " />
    </g>
    <!-- End of group #collarstand -->
    
    <!-- Start of group #undercollar -->
    <g id="undercollar"  transform=" translate(144.771 120.864)  translate(1226.332 103.009) " >
        <path class="hidden" id="7"  d=" M  -139.771,-115.864  L  288.123,-115.864  L  288.123,-22.855  L  -139.771,-22.855  z " />
<path transform="translate( 0, 0 )" style="stroke: hsl(26.9, 55%, 50%);" id="298"  d=" M  -139.771,-55.592  L  -90.105,-22.855  C  -90.105,-22.855  -47.827,-45.865  74.176,-45.864  C  196.179,-45.865  238.457,-22.855  238.457,-22.855  L  288.123,-55.592  L  282.904,-85.135  C  230.722,-92.817  208.379,-115.864  74.176,-115.864  C  -60.027,-115.864  -82.37,-92.817  -134.552,-85.135  L  -139.771,-55.592  z " />
<path transform="translate( 0, 0 )" style="stroke: hsl(53.8, 55%, 50%);" id="602"  d=" M  -139.771,-55.592  L  -90.105,-22.855  C  -90.105,-22.855  -47.827,-45.865  74.176,-45.864  C  196.179,-45.865  238.457,-22.855  238.457,-22.855  L  288.123,-55.592  L  282.904,-85.135  C  230.722,-92.817  208.379,-115.864  74.176,-115.864  C  -60.027,-115.864  -82.37,-92.817  -134.552,-85.135  L  -139.771,-55.592  z " />
<path transform="translate( 0, 0 )" style="stroke: hsl(80.7, 55%, 50%);" id="906"  d=" M  -139.771,-55.592  L  -90.105,-22.855  C  -90.105,-22.855  -47.827,-45.865  74.176,-45.864  C  196.179,-45.865  238.457,-22.855  238.457,-22.855  L  288.123,-55.592  L  282.904,-85.135  C  230.722,-92.817  208.379,-115.864  74.176,-115.864  C  -60.027,-115.864  -82.37,-92.817  -134.552,-85.135  L  -139.771,-55.592  z " />
<path transform="translate( 0, 0 )" style="stroke: hsl(107.6, 55%, 50%);" id="1210"  d=" M  -139.771,-55.592  L  -90.105,-22.855  C  -90.105,-22.855  -47.827,-45.865  74.176,-45.864  C  196.179,-45.865  238.457,-22.855  238.457,-22.855  L  288.123,-55.592  L  282.904,-85.135  C  230.722,-92.817  208.379,-115.864  74.176,-115.864  C  -60.027,-115.864  -82.37,-92.817  -134.552,-85.135  L  -139.771,-55.592  z " />
<path transform="translate( 0, 0 )" style="stroke: hsl(134.5, 55%, 50%);" id="1514"  d=" M  -139.771,-55.592  L  -90.105,-22.855  C  -90.105,-22.855  -47.827,-45.865  74.176,-45.864  C  196.179,-45.865  238.457,-22.855  238.457,-22.855  L  288.123,-55.592  L  282.904,-85.135  C  230.722,-92.817  208.379,-115.864  74.176,-115.864  C  -60.027,-115.864  -82.37,-92.817  -134.552,-85.135  L  -139.771,-55.592  z " />
<path transform="translate( 0, 0 )" style="stroke: hsl(161.4, 55%, 50%);" id="1818"  d=" M  -139.771,-55.592  L  -90.105,-22.855  C  -90.105,-22.855  -47.827,-45.865  74.176,-45.864  C  196.179,-45.865  238.457,-22.855  238.457,-22.855  L  288.123,-55.592  L  282.904,-85.135  C  230.722,-92.817  208.379,-115.864  74.176,-115.864  C  -60.027,-115.864  -82.37,-92.817  -134.552,-85.135  L  -139.771,-55.592  z " />
<path transform="translate( 0, 0 )" style="stroke: hsl(188.3, 55%, 50%);" id="2122"  d=" M  -139.771,-55.592  L  -90.105,-22.855  C  -90.105,-22.855  -47.827,-45.865  74.176,-45.864  C  196.179,-45.865  238.457,-22.855  238.457,-22.855  L  288.123,-55.592  L  282.904,-85.135  C  230.722,-92.817  208.379,-115.864  74.176,-115.864  C  -60.027,-115.864  -82.37,-92.817  -134.552,-85.135  L  -139.771,-55.592  z " />
<path transform="translate( 0, 0 )" style="stroke: hsl(215.2, 55%, 50%);" id="2426"  d=" M  -139.771,-55.592  L  -90.105,-22.855  C  -90.105,-22.855  -47.827,-45.865  74.176,-45.864  C  196.179,-45.865  238.457,-22.855  238.457,-22.855  L  288.123,-55.592  L  282.904,-85.135  C  230.722,-92.817  208.379,-115.864  74.176,-115.864  C  -60.027,-115.864  -82.37,-92.817  -134.552,-85.135  L  -139.771,-55.592  z " />
<path transform="translate( 0, 0 )" style="stroke: hsl(242.1, 55%, 50%);" id="2730"  d=" M  -139.771,-55.592  L  -90.105,-22.855  C  -90.105,-22.855  -47.827,-45.865  74.176,-45.864  C  196.179,-45.865  238.457,-22.855  238.457,-22.855  L  288.123,-55.592  L  282.904,-85.135  C  230.722,-92.817  208.379,-115.864  74.176,-115.864  C  -60.027,-115.864  -82.37,-92.817  -134.552,-85.135  L  -139.771,-55.592  z " />
<path transform="translate( 0, 0 )" style="stroke: hsl(269, 55%, 50%);" id="3034"  d=" M  -139.771,-55.592  L  -90.105,-22.855  C  -90.105,-22.855  -47.827,-45.865  74.176,-45.864  C  196.179,-45.865  238.457,-22.855  238.457,-22.855  L  288.123,-55.592  L  282.904,-85.135  C  230.722,-92.817  208.379,-115.864  74.176,-115.864  C  -60.027,-115.864  -82.37,-92.817  -134.552,-85.135  L  -139.771,-55.592  z " />
<path transform="translate( 0, 0 )" style="stroke: hsl(295.9, 55%, 50%);" id="3338"  d=" M  -139.771,-55.592  L  -90.105,-22.855  C  -90.105,-22.855  -47.827,-45.865  74.176,-45.864  C  196.179,-45.865  238.457,-22.855  238.457,-22.855  L  288.123,-55.592  L  282.904,-85.135  C  230.722,-92.817  208.379,-115.864  74.176,-115.864  C  -60.027,-115.864  -82.37,-92.817  -134.552,-85.135  L  -139.771,-55.592  z " />
    </g>
    <!-- End of group #undercollar -->
    
    <!-- Start of group #topsleeve -->
    <g id="topsleeve"  transform=" translate(151.512 5)  translate(580.521 0) " >
        <path class="hidden" id="8"  d=" M  -146.512,0  L  130.233,0  L  130.233,711.452  L  -146.512,711.452  z " />
<path transform="translate( 0, 0 )" style="stroke: hsl(26.9, 55%, 50%);" id="299"  d=" M  117.21,410  C  125.145,365  130.233,259.234  130.233,194.425  C  130.233,129.616  117.21,64.808  117.21,64.808  C  117.21,64.808  73.256,0  0,0  C  -73.256,0  -107.443,64.808  -117.21,116.655  C  -126.977,168.502  -131.861,194.425  -146.512,194.425  C  -146.512,194.425  -136.475,351.187  -130.233,410  L  -99.022,704.067  L  104.286,711.452  L  117.517,638.147  L  81.677,611.519  L  117.21,410  z " />
<path transform="translate( 0, 0 )" style="stroke: hsl(53.8, 55%, 50%);" id="603"  d=" M  117.21,410  C  125.145,365  130.233,259.234  130.233,194.425  C  130.233,129.616  117.21,64.808  117.21,64.808  C  117.21,64.808  73.256,0  0,0  C  -73.256,0  -107.443,64.808  -117.21,116.655  C  -126.977,168.502  -131.861,194.425  -146.512,194.425  C  -146.512,194.425  -136.475,351.187  -130.233,410  L  -99.022,704.067  L  104.286,711.452  L  117.517,638.147  L  81.677,611.519  L  117.21,410  z " />
<path transform="translate( 0, 0 )" style="stroke: hsl(80.7, 55%, 50%);" id="907"  d=" M  117.21,410  C  125.145,365  130.233,259.234  130.233,194.425  C  130.233,129.616  117.21,64.808  117.21,64.808  C  117.21,64.808  73.256,0  0,0  C  -73.256,0  -107.443,64.808  -117.21,116.655  C  -126.977,168.502  -131.861,194.425  -146.512,194.425  C  -146.512,194.425  -136.475,351.187  -130.233,410  L  -99.022,704.067  L  104.286,711.452  L  117.517,638.147  L  81.677,611.519  L  117.21,410  z " />
<path transform="translate( 0, 0 )" style="stroke: hsl(107.6, 55%, 50%);" id="1211"  d=" M  117.21,410  C  125.145,365  130.233,259.234  130.233,194.425  C  130.233,129.616  117.21,64.808  117.21,64.808  C  117.21,64.808  73.256,0  0,0  C  -73.256,0  -107.443,64.808  -117.21,116.655  C  -126.977,168.502  -131.861,194.425  -146.512,194.425  C  -146.512,194.425  -136.475,351.187  -130.233,410  L  -99.022,704.067  L  104.286,711.452  L  117.517,638.147  L  81.677,611.519  L  117.21,410  z " />
<path transform="translate( 0, 0 )" style="stroke: hsl(134.5, 55%, 50%);" id="1515"  d=" M  117.21,410  C  125.145,365  130.233,259.234  130.233,194.425  C  130.233,129.616  117.21,64.808  117.21,64.808  C  117.21,64.808  73.256,0  0,0  C  -73.256,0  -107.443,64.808  -117.21,116.655  C  -126.977,168.502  -131.861,194.425  -146.512,194.425  C  -146.512,194.425  -136.475,351.187  -130.233,410  L  -99.022,704.067  L  104.286,711.452  L  117.517,638.147  L  81.677,611.519  L  117.21,410  z " />
<path transform="translate( 0, 0 )" style="stroke: hsl(161.4, 55%, 50%);" id="1819"  d=" M  117.21,410  C  125.145,365  130.233,259.234  130.233,194.425  C  130.233,129.616  117.21,64.808  117.21,64.808  C  117.21,64.808  73.256,0  0,0  C  -73.256,0  -107.443,64.808  -117.21,116.655  C  -126.977,168.502  -131.861,194.425  -146.512,194.425  C  -146.512,194.425  -136.475,351.187  -130.233,410  L  -99.022,704.067  L  104.286,711.452  L  117.517,638.147  L  81.677,611.519  L  117.21,410  z " />
<path transform="translate( 0, 0 )" style="stroke: hsl(188.3, 55%, 50%);" id="2123"  d=" M  117.21,410  C  125.145,365  130.233,259.234  130.233,194.425  C  130.233,129.616  117.21,64.808  117.21,64.808  C  117.21,64.808  73.256,0  0,0  C  -73.256,0  -107.443,64.808  -117.21,116.655  C  -126.977,168.502  -131.861,194.425  -146.512,194.425  C  -146.512,194.425  -136.475,351.187  -130.233,410  L  -99.022,704.067  L  104.286,711.452  L  117.517,638.147  L  81.677,611.519  L  117.21,410  z " />
<path transform="translate( 0, 0 )" style="stroke: hsl(215.2, 55%, 50%);" id="2427"  d=" M  117.21,410  C  125.145,365  130.233,259.234  130.233,194.425  C  130.233,129.616  117.21,64.808  117.21,64.808  C  117.21,64.808  73.256,0  0,0  C  -73.256,0  -107.443,64.808  -117.21,116.655  C  -126.977,168.502  -131.861,194.425  -146.512,194.425  C  -146.512,194.425  -136.475,351.187  -130.233,410  L  -99.022,704.067  L  104.286,711.452  L  117.517,638.147  L  81.677,611.519  L  117.21,410  z " />
<path transform="translate( 0, 0 )" style="stroke: hsl(242.1, 55%, 50%);" id="2731"  d=" M  117.21,410  C  125.145,365  130.233,259.234  130.233,194.425  C  130.233,129.616  117.21,64.808  117.21,64.808  C  117.21,64.808  73.256,0  0,0  C  -73.256,0  -107.443,64.808  -117.21,116.655  C  -126.977,168.502  -131.861,194.425  -146.512,194.425  C  -146.512,194.425  -136.475,351.187  -130.233,410  L  -99.022,704.067  L  104.286,711.452  L  117.517,638.147  L  81.677,611.519  L  117.21,410  z " />
<path transform="translate( 0, 0 )" style="stroke: hsl(269, 55%, 50%);" id="3035"  d=" M  117.21,410  C  125.145,365  130.233,259.234  130.233,194.425  C  130.233,129.616  117.21,64.808  117.21,64.808  C  117.21,64.808  73.256,0  0,0  C  -73.256,0  -107.443,64.808  -117.21,116.655  C  -126.977,168.502  -131.861,194.425  -146.512,194.425  C  -146.512,194.425  -136.475,351.187  -130.233,410  L  -99.022,704.067  L  104.286,711.452  L  117.517,638.147  L  81.677,611.519  L  117.21,410  z " />
<path transform="translate( 0, 0 )" style="stroke: hsl(295.9, 55%, 50%);" id="3339"  d=" M  117.21,410  C  125.145,365  130.233,259.234  130.233,194.425  C  130.233,129.616  117.21,64.808  117.21,64.808  C  117.21,64.808  73.256,0  0,0  C  -73.256,0  -107.443,64.808  -117.21,116.655  C  -126.977,168.502  -131.861,194.425  -146.512,194.425  C  -146.512,194.425  -136.475,351.187  -130.233,410  L  -99.022,704.067  L  104.286,711.452  L  117.517,638.147  L  81.677,611.519  L  117.21,410  z " />
    </g>
    <!-- End of group #topsleeve -->
    
    <!-- Start of group #undersleeve -->
    <g id="undersleeve"  transform=" translate(92.908 -59.808)  translate(867.266 0) " >
        <path class="hidden" id="9"  d=" M  -87.908,64.808  L  119.429,64.808  L  119.429,712.447  L  -87.908,712.447  z " />
<path transform="translate( 0, 0 )" style="stroke: hsl(26.9, 55%, 50%);" id="300"  d=" M  64.312,710  L  104.237,712.447  L  117.544,638.152  L  81.677,611.519  L  117.21,410  C  125.145,365  109.669,259.002  104.187,194.425  C  98.705,129.848  87.907,64.808  87.907,64.808  C  69.267,128.049  -14.651,194.425  -58.605,194.425  L  -87.908,194.425  C  -87.908,194.425  -71.642,351.426  -68.373,410  L  -52.028,702.87  L  64.312,710  z " />
<path transform="translate( 0, 0 )" style="stroke: hsl(53.8, 55%, 50%);" id="604"  d=" M  64.312,710  L  104.237,712.447  L  117.544,638.152  L  81.677,611.519  L  117.21,410  C  125.145,365  109.669,259.002  104.187,194.425  C  98.705,129.848  87.907,64.808  87.907,64.808  C  69.267,128.049  -14.651,194.425  -58.605,194.425  L  -87.908,194.425  C  -87.908,194.425  -71.642,351.426  -68.373,410  L  -52.028,702.87  L  64.312,710  z " />
<path transform="translate( 0, 0 )" style="stroke: hsl(80.7, 55%, 50%);" id="908"  d=" M  64.312,710  L  104.237,712.447  L  117.544,638.152  L  81.677,611.519  L  117.21,410  C  125.145,365  109.669,259.002  104.187,194.425  C  98.705,129.848  87.907,64.808  87.907,64.808  C  69.267,128.049  -14.651,194.425  -58.605,194.425  L  -87.908,194.425  C  -87.908,194.425  -71.642,351.426  -68.373,410  L  -52.028,702.87  L  64.312,710  z " />
<path transform="translate( 0, 0 )" style="stroke: hsl(107.6, 55%, 50%);" id="1212"  d=" M  64.312,710  L  104.237,712.447  L  117.544,638.152  L  81.677,611.519  L  117.21,410  C  125.145,365  109.669,259.002  104.187,194.425  C  98.705,129.848  87.907,64.808  87.907,64.808  C  69.267,128.049  -14.651,194.425  -58.605,194.425  L  -87.908,194.425  C  -87.908,194.425  -71.642,351.426  -68.373,410  L  -52.028,702.87  L  64.312,710  z " />
<path transform="translate( 0, 0 )" style="stroke: hsl(134.5, 55%, 50%);" id="1516"  d=" M  64.312,710  L  104.237,712.447  L  117.544,638.152  L  81.677,611.519  L  117.21,410  C  125.145,365  109.669,259.002  104.187,194.425  C  98.705,129.848  87.907,64.808  87.907,64.808  C  69.267,128.049  -14.651,194.425  -58.605,194.425  L  -87.908,194.425  C  -87.908,194.425  -71.642,351.426  -68.373,410  L  -52.028,702.87  L  64.312,710  z " />
<path transform="translate( 0, 0 )" style="stroke: hsl(161.4, 55%, 50%);" id="1820"  d=" M  64.312,710  L  104.237,712.447  L  117.544,638.152  L  81.677,611.519  L  117.21,410  C  125.145,365  109.669,259.002  104.187,194.425  C  98.705,129.848  87.907,64.808  87.907,64.808  C  69.267,128.049  -14.651,194.425  -58.605,194.425  L  -87.908,194.425  C  -87.908,194.425  -71.642,351.426  -68.373,410  L  -52.028,702.87  L  64.312,710  z " />
<path transform="translate( 0, 0 )" style="stroke: hsl(188.3, 55%, 50%);" id="2124"  d=" M  64.312,710  L  104.237,712.447  L  117.544,638.152  L  81.677,611.519  L  117.21,410  C  125.145,365  109.669,259.002  104.187,194.425  C  98.705,129.848  87.907,64.808  87.907,64.808  C  69.267,128.049  -14.651,194.425  -58.605,194.425  L  -87.908,194.425  C  -87.908,194.425  -71.642,351.426  -68.373,410  L  -52.028,702.87  L  64.312,710  z " />
<path transform="translate( 0, 0 )" style="stroke: hsl(215.2, 55%, 50%);" id="2428"  d=" M  64.312,710  L  104.237,712.447  L  117.544,638.152  L  81.677,611.519  L  117.21,410  C  125.145,365  109.669,259.002  104.187,194.425  C  98.705,129.848  87.907,64.808  87.907,64.808  C  69.267,128.049  -14.651,194.425  -58.605,194.425  L  -87.908,194.425  C  -87.908,194.425  -71.642,351.426  -68.373,410  L  -52.028,702.87  L  64.312,710  z " />
<path transform="translate( 0, 0 )" style="stroke: hsl(242.1, 55%, 50%);" id="2732"  d=" M  64.312,710  L  104.237,712.447  L  117.544,638.152  L  81.677,611.519  L  117.21,410  C  125.145,365  109.669,259.002  104.187,194.425  C  98.705,129.848  87.907,64.808  87.907,64.808  C  69.267,128.049  -14.651,194.425  -58.605,194.425  L  -87.908,194.425  C  -87.908,194.425  -71.642,351.426  -68.373,410  L  -52.028,702.87  L  64.312,710  z " />
<path transform="translate( 0, 0 )" style="stroke: hsl(269, 55%, 50%);" id="3036"  d=" M  64.312,710  L  104.237,712.447  L  117.544,638.152  L  81.677,611.519  L  117.21,410  C  125.145,365  109.669,259.002  104.187,194.425  C  98.705,129.848  87.907,64.808  87.907,64.808  C  69.267,128.049  -14.651,194.425  -58.605,194.425  L  -87.908,194.425  C  -87.908,194.425  -71.642,351.426  -68.373,410  L  -52.028,702.87  L  64.312,710  z " />
<path transform="translate( 0, 0 )" style="stroke: hsl(295.9, 55%, 50%);" id="3340"  d=" M  64.312,710  L  104.237,712.447  L  117.544,638.152  L  81.677,611.519  L  117.21,410  C  125.145,365  109.669,259.002  104.187,194.425  C  98.705,129.848  87.907,64.808  87.907,64.808  C  69.267,128.049  -14.651,194.425  -58.605,194.425  L  -87.908,194.425  C  -87.908,194.425  -71.642,351.426  -68.373,410  L  -52.028,702.87  L  64.312,710  z " />
    </g>
    <!-- End of group #undersleeve -->
    
    <!-- Start of group #pocket -->
    <g id="pocket"  transform=" translate(5 45)  translate(1226.332 206.018) " >
        <path class="hidden" id="10"  d=" M  0,-40  L  162,-40  L  162,286.388  L  0,286.388  z " />
<path transform="translate( 0, 0 )" style="stroke: hsl(26.9, 55%, 50%);" id="301"  d=" M  0,-40  L  0,133.988  C  -0,151.882  14.506,166.388  32.4,166.388  L  129.6,166.388  C  147.494,166.388  162,151.882  162,133.988  L  162,-40  z " />
<path transform="translate( 0, 0 )" style="stroke: hsl(53.8, 55%, 50%);" id="605"  d=" M  0,-40  L  0,145.988  C  -0,163.882  14.506,178.388  32.4,178.388  L  129.6,178.388  C  147.494,178.388  162,163.882  162,145.988  L  162,-40  z " />
<path transform="translate( 0, 0 )" style="stroke: hsl(80.7, 55%, 50%);" id="909"  d=" M  0,-40  L  0,157.988  C  -0,175.882  14.506,190.388  32.4,190.388  L  129.6,190.388  C  147.494,190.388  162,175.882  162,157.988  L  162,-40  z " />
<path transform="translate( 0, 0 )" style="stroke: hsl(107.6, 55%, 50%);" id="1213"  d=" M  0,-40  L  0,169.988  C  -0,187.882  14.506,202.388  32.4,202.388  L  129.6,202.388  C  147.494,202.388  162,187.882  162,169.988  L  162,-40  z " />
<path transform="translate( 0, 0 )" style="stroke: hsl(134.5, 55%, 50%);" id="1517"  d=" M  0,-40  L  0,181.988  C  -0,199.882  14.506,214.388  32.4,214.388  L  129.6,214.388  C  147.494,214.388  162,199.882  162,181.988  L  162,-40  z " />
<path transform="translate( 0, 0 )" style="stroke: hsl(161.4, 55%, 50%);" id="1821"  d=" M  0,-40  L  0,193.988  C  -0,211.882  14.506,226.388  32.4,226.388  L  129.6,226.388  C  147.494,226.388  162,211.882  162,193.988  L  162,-40  z " />
<path transform="translate( 0, 0 )" style="stroke: hsl(188.3, 55%, 50%);" id="2125"  d=" M  0,-40  L  0,205.988  C  -0,223.882  14.506,238.388  32.4,238.388  L  129.6,238.388  C  147.494,238.388  162,223.882  162,205.988  L  162,-40  z " />
<path transform="translate( 0, 0 )" style="stroke: hsl(215.2, 55%, 50%);" id="2429"  d=" M  0,-40  L  0,217.988  C  -0,235.882  14.506,250.388  32.4,250.388  L  129.6,250.388  C  147.494,250.388  162,235.882  162,217.988  L  162,-40  z " />
<path transform="translate( 0, 0 )" style="stroke: hsl(242.1, 55%, 50%);" id="2733"  d=" M  0,-40  L  0,229.988  C  -0,247.882  14.506,262.388  32.4,262.388  L  129.6,262.388  C  147.494,262.388  162,247.882  162,229.988  L  162,-40  z " />
<path transform="translate( 0, 0 )" style="stroke: hsl(269, 55%, 50%);" id="3037"  d=" M  0,-40  L  0,241.988  C  -0,259.882  14.506,274.388  32.4,274.388  L  129.6,274.388  C  147.494,274.388  162,259.882  162,241.988  L  162,-40  z " />
<path transform="translate( 0, 0 )" style="stroke: hsl(295.9, 55%, 50%);" id="3341"  d=" M  0,-40  L  0,253.988  C  -0,271.882  14.506,286.388  32.4,286.388  L  129.6,286.388  C  147.494,286.388  162,271.882  162,253.988  L  162,-40  z " />
    </g>
    <!-- End of group #pocket -->
    
    <!-- Start of group #chestPocketWelt -->
    <g id="chestPocketWelt"  transform=" translate(6.975 20)  translate(1543.332 336.018) " >
        <path class="hidden" id="11"  d=" M  -1.975,-15  L  105,-15  L  105,15  L  -1.975,15  z " />
<path transform="translate( 0, 0 )" style="stroke: hsl(26.9, 55%, 50%);" id="302"  d=" M  -1.975,15  L  103.025,15  L  105,0  L  103.025,-15  L  -1.975,-15  L  0,0  z " />
<path transform="translate( 0, 0 )" style="stroke: hsl(53.8, 55%, 50%);" id="606"  d=" M  -1.975,15  L  103.025,15  L  105,0  L  103.025,-15  L  -1.975,-15  L  0,0  z " />
<path transform="translate( 0, 0 )" style="stroke: hsl(80.7, 55%, 50%);" id="910"  d=" M  -1.975,15  L  103.025,15  L  105,0  L  103.025,-15  L  -1.975,-15  L  0,0  z " />
<path transform="translate( 0, 0 )" style="stroke: hsl(107.6, 55%, 50%);" id="1214"  d=" M  -1.975,15  L  103.025,15  L  105,0  L  103.025,-15  L  -1.975,-15  L  0,0  z " />
<path transform="translate( 0, 0 )" style="stroke: hsl(134.5, 55%, 50%);" id="1518"  d=" M  -1.975,15  L  103.025,15  L  105,0  L  103.025,-15  L  -1.975,-15  L  0,0  z " />
<path transform="translate( 0, 0 )" style="stroke: hsl(161.4, 55%, 50%);" id="1822"  d=" M  -1.975,15  L  103.025,15  L  105,0  L  103.025,-15  L  -1.975,-15  L  0,0  z " />
<path transform="translate( 0, 0 )" style="stroke: hsl(188.3, 55%, 50%);" id="2126"  d=" M  -1.975,15  L  103.025,15  L  105,0  L  103.025,-15  L  -1.975,-15  L  0,0  z " />
<path transform="translate( 0, 0 )" style="stroke: hsl(215.2, 55%, 50%);" id="2430"  d=" M  -1.975,15  L  103.025,15  L  105,0  L  103.025,-15  L  -1.975,-15  L  0,0  z " />
<path transform="translate( 0, 0 )" style="stroke: hsl(242.1, 55%, 50%);" id="2734"  d=" M  -1.975,15  L  103.025,15  L  105,0  L  103.025,-15  L  -1.975,-15  L  0,0  z " />
<path transform="translate( 0, 0 )" style="stroke: hsl(269, 55%, 50%);" id="3038"  d=" M  -1.975,15  L  103.025,15  L  105,0  L  103.025,-15  L  -1.975,-15  L  0,0  z " />
<path transform="translate( 0, 0 )" style="stroke: hsl(295.9, 55%, 50%);" id="3342"  d=" M  -1.975,15  L  103.025,15  L  105,0  L  103.025,-15  L  -1.975,-15  L  0,0  z " />
    </g>
    <!-- End of group #chestPocketWelt -->
    
    <!-- Start of group #chestPocketBag -->
    <g id="chestPocketBag"  transform=" translate(5 22.773)  translate(1398.332 336.018) " >
        <path class="hidden" id="12"  d=" M  0,-17.773  L  135,-17.773  L  135,117.773  L  0,117.773  z " />
<path transform="translate( 0, 0 )" style="stroke: hsl(26.9, 55%, 50%);" id="303"  d=" M  0,40  L  0,0  L  135,-17.773  L  135,40  M  135,60  L  135,117.773  L  0,100  L  0,60 " />
<path transform="translate( 0, 0 )" style="stroke: hsl(53.8, 55%, 50%);" id="607"  d=" M  0,40  L  0,0  L  135,-17.773  L  135,40  M  135,60  L  135,117.773  L  0,100  L  0,60 " />
<path transform="translate( 0, 0 )" style="stroke: hsl(80.7, 55%, 50%);" id="911"  d=" M  0,40  L  0,0  L  135,-17.773  L  135,40  M  135,60  L  135,117.773  L  0,100  L  0,60 " />
<path transform="translate( 0, 0 )" style="stroke: hsl(107.6, 55%, 50%);" id="1215"  d=" M  0,40  L  0,0  L  135,-17.773  L  135,40  M  135,60  L  135,117.773  L  0,100  L  0,60 " />
<path transform="translate( 0, 0 )" style="stroke: hsl(134.5, 55%, 50%);" id="1519"  d=" M  0,40  L  0,0  L  135,-17.773  L  135,40  M  135,60  L  135,117.773  L  0,100  L  0,60 " />
<path transform="translate( 0, 0 )" style="stroke: hsl(161.4, 55%, 50%);" id="1823"  d=" M  0,40  L  0,0  L  135,-17.773  L  135,40  M  135,60  L  135,117.773  L  0,100  L  0,60 " />
<path transform="translate( 0, 0 )" style="stroke: hsl(188.3, 55%, 50%);" id="2127"  d=" M  0,40  L  0,0  L  135,-17.773  L  135,40  M  135,60  L  135,117.773  L  0,100  L  0,60 " />
<path transform="translate( 0, 0 )" style="stroke: hsl(215.2, 55%, 50%);" id="2431"  d=" M  0,40  L  0,0  L  135,-17.773  L  135,40  M  135,60  L  135,117.773  L  0,100  L  0,60 " />
<path transform="translate( 0, 0 )" style="stroke: hsl(242.1, 55%, 50%);" id="2735"  d=" M  0,40  L  0,0  L  135,-17.773  L  135,40  M  135,60  L  135,117.773  L  0,100  L  0,60 " />
<path transform="translate( 0, 0 )" style="stroke: hsl(269, 55%, 50%);" id="3039"  d=" M  0,40  L  0,0  L  135,-17.773  L  135,40  M  135,60  L  135,117.773  L  0,100  L  0,60 " />
<path transform="translate( 0, 0 )" style="stroke: hsl(295.9, 55%, 50%);" id="3343"  d=" M  0,40  L  0,0  L  135,-17.773  L  135,40  M  135,60  L  135,117.773  L  0,100  L  0,60 " />
    </g>
    <!-- End of group #chestPocketBag -->
    
    <!-- Start of group #innerPocketWelt -->
    <g id="innerPocketWelt"  transform=" translate(5 5)  translate(1398.332 206.018) " >
        <path class="hidden" id="13"  d=" M  0,0  L  155,0  L  155,10  L  0,10  z " />
<path transform="translate( 0, 0 )" style="stroke: hsl(26.9, 55%, 50%);" id="304"  d=" M  0,0  L  155,0  L  155,10  L  0,10  z " />
<path transform="translate( 0, 0 )" style="stroke: hsl(53.8, 55%, 50%);" id="608"  d=" M  0,0  L  155,0  L  155,10  L  0,10  z " />
<path transform="translate( 0, 0 )" style="stroke: hsl(80.7, 55%, 50%);" id="912"  d=" M  0,0  L  155,0  L  155,10  L  0,10  z " />
<path transform="translate( 0, 0 )" style="stroke: hsl(107.6, 55%, 50%);" id="1216"  d=" M  0,0  L  155,0  L  155,10  L  0,10  z " />
<path transform="translate( 0, 0 )" style="stroke: hsl(134.5, 55%, 50%);" id="1520"  d=" M  0,0  L  155,0  L  155,10  L  0,10  z " />
<path transform="translate( 0, 0 )" style="stroke: hsl(161.4, 55%, 50%);" id="1824"  d=" M  0,0  L  155,0  L  155,10  L  0,10  z " />
<path transform="translate( 0, 0 )" style="stroke: hsl(188.3, 55%, 50%);" id="2128"  d=" M  0,0  L  155,0  L  155,10  L  0,10  z " />
<path transform="translate( 0, 0 )" style="stroke: hsl(215.2, 55%, 50%);" id="2432"  d=" M  0,0  L  155,0  L  155,10  L  0,10  z " />
<path transform="translate( 0, 0 )" style="stroke: hsl(242.1, 55%, 50%);" id="2736"  d=" M  0,0  L  155,0  L  155,10  L  0,10  z " />
<path transform="translate( 0, 0 )" style="stroke: hsl(269, 55%, 50%);" id="3040"  d=" M  0,0  L  155,0  L  155,10  L  0,10  z " />
<path transform="translate( 0, 0 )" style="stroke: hsl(295.9, 55%, 50%);" id="3344"  d=" M  0,0  L  155,0  L  155,10  L  0,10  z " />
    </g>
    <!-- End of group #innerPocketWelt -->
    
    <!-- Start of group #innerPocketBag -->
    <g id="innerPocketBag"  transform=" translate(5 5)  translate(1398.332 226.018) " >
        <path class="hidden" id="14"  d=" M  0,0  L  155,0  L  155,100  L  0,100  z " />
<path transform="translate( 0, 0 )" style="stroke: hsl(26.9, 55%, 50%);" id="305"  d=" M  0,40  L  0,0  L  155,0  L  155,40  M  155,60  L  155,100  L  0,100  L  0,60 " />
<path transform="translate( 0, 0 )" style="stroke: hsl(53.8, 55%, 50%);" id="609"  d=" M  0,40  L  0,0  L  155,0  L  155,40  M  155,60  L  155,100  L  0,100  L  0,60 " />
<path transform="translate( 0, 0 )" style="stroke: hsl(80.7, 55%, 50%);" id="913"  d=" M  0,40  L  0,0  L  155,0  L  155,40  M  155,60  L  155,100  L  0,100  L  0,60 " />
<path transform="translate( 0, 0 )" style="stroke: hsl(107.6, 55%, 50%);" id="1217"  d=" M  0,40  L  0,0  L  155,0  L  155,40  M  155,60  L  155,100  L  0,100  L  0,60 " />
<path transform="translate( 0, 0 )" style="stroke: hsl(134.5, 55%, 50%);" id="1521"  d=" M  0,40  L  0,0  L  155,0  L  155,40  M  155,60  L  155,100  L  0,100  L  0,60 " />
<path transform="translate( 0, 0 )" style="stroke: hsl(161.4, 55%, 50%);" id="1825"  d=" M  0,40  L  0,0  L  155,0  L  155,40  M  155,60  L  155,100  L  0,100  L  0,60 " />
<path transform="translate( 0, 0 )" style="stroke: hsl(188.3, 55%, 50%);" id="2129"  d=" M  0,40  L  0,0  L  155,0  L  155,40  M  155,60  L  155,100  L  0,100  L  0,60 " />
<path transform="translate( 0, 0 )" style="stroke: hsl(215.2, 55%, 50%);" id="2433"  d=" M  0,40  L  0,0  L  155,0  L  155,40  M  155,60  L  155,100  L  0,100  L  0,60 " />
<path transform="translate( 0, 0 )" style="stroke: hsl(242.1, 55%, 50%);" id="2737"  d=" M  0,40  L  0,0  L  155,0  L  155,40  M  155,60  L  155,100  L  0,100  L  0,60 " />
<path transform="translate( 0, 0 )" style="stroke: hsl(269, 55%, 50%);" id="3041"  d=" M  0,40  L  0,0  L  155,0  L  155,40  M  155,60  L  155,100  L  0,100  L  0,60 " />
<path transform="translate( 0, 0 )" style="stroke: hsl(295.9, 55%, 50%);" id="3345"  d=" M  0,40  L  0,0  L  155,0  L  155,40  M  155,60  L  155,100  L  0,100  L  0,60 " />
    </g>
    <!-- End of group #innerPocketBag -->
    
    <!-- Start of group #innerPocketFacingExtension -->
    <g id="innerPocketFacingExtension" >
    </g>
    <!-- End of group #innerPocketFacingExtension -->
    
    <!-- Start of group #sampler-back -->
    <g id="sampler-back" >
    </g>
    <!-- End of group #sampler-back -->
    
    <!-- Start of group #sampler-front -->
    <g id="sampler-front" >
    </g>
    <!-- End of group #sampler-front -->
    
    <!-- Start of group #sampler-side -->
    <g id="sampler-side" >
    </g>
    <!-- End of group #sampler-side -->
    
    <!-- Start of group #sampler-collar -->
    <g id="sampler-collar" >
    </g>
    <!-- End of group #sampler-collar -->
    
    <!-- Start of group #sampler-collarstand -->
    <g id="sampler-collarstand" >
    </g>
    <!-- End of group #sampler-collarstand -->
    
    <!-- Start of group #sampler-undercollar -->
    <g id="sampler-undercollar" >
    </g>
    <!-- End of group #sampler-undercollar -->
    
    <!-- Start of group #sampler-topsleeve -->
    <g id="sampler-topsleeve" >
    </g>
    <!-- End of group #sampler-topsleeve -->
    
    <!-- Start of group #sampler-undersleeve -->
    <g id="sampler-undersleeve" >
    </g>
    <!-- End of group #sampler-undersleeve -->
    
    <!-- Start of group #sampler-pocket -->
    <g id="sampler-pocket" >
    </g>
    <!-- End of group #sampler-pocket -->
    
    <!-- Start of group #sampler-chestPocketWelt -->
    <g id="sampler-chestPocketWelt" >
    </g>
    <!-- End of group #sampler-chestPocketWelt -->
    
    <!-- Start of group #sampler-chestPocketBag -->
    <g id="sampler-chestPocketBag" >
    </g>
    <!-- End of group #sampler-chestPocketBag -->
    
    <!-- Start of group #sampler-innerPocketWelt -->
    <g id="sampler-innerPocketWelt" >
    </g>
    <!-- End of group #sampler-innerPocketWelt -->
    
    <!-- Start of group #sampler-innerPocketBag -->
    <g id="sampler-innerPocketBag" >
    </g>
    <!-- End of group #sampler-innerPocketBag -->
</g>
<!-- End of group #patternContainer -->

</svg>

