<?xml version="1.0" encoding="UTF-8" standalone="no"?>
<svg
    xmlns="http://www.w3.org/2000/svg"
    xmlns:svg="http://www.w3.org/2000/svg"
    xmlns:xlink="http://www.w3.org/1999/xlink"
    xmlns:freesewing="http://freesewing.org/namespaces/freesewing" viewBox ="0 0 1674 784"
    width ="1674mm"
    height ="784mm"
    freesewing:version ="1.6.5"
    freesewing:origin ="joost.core.freesewing.org" 
>

<style type="text/css">
    <![CDATA[
    path { fill: none; stroke: #000000; stroke-opacity:1; stroke-width: 0.5; stroke-miterlimit:4; stroke-dashoffset:0; stroke-linecap:round; stroke-linejoin:round; }
    path.hidden { fill: none; stroke: none; }]]>
</style>


<!-- Start of group #patternContainer -->
<g id="patternContainer" >
    
    <!-- Start of group #backBlock -->
    <g id="backBlock" >
    </g>
    <!-- End of group #backBlock -->
    
    <!-- Start of group #frontBlock -->
    <g id="frontBlock" >
    </g>
    <!-- End of group #frontBlock -->
    
    <!-- Start of group #sleeveBlock -->
    <g id="sleeveBlock" >
    </g>
    <!-- End of group #sleeveBlock -->
    
    <!-- Start of group #topsleeveBlock -->
    <g id="topsleeveBlock" >
    </g>
    <!-- End of group #topsleeveBlock -->
    
    <!-- Start of group #undersleeveBlock -->
    <g id="undersleeveBlock" >
    </g>
    <!-- End of group #undersleeveBlock -->
    
    <!-- Start of group #back -->
    <g id="back"  transform=" translate(5 5)  translate(311.6 0) " >
        <path class="hidden" id="2"  d=" M  0,0  L  258.921,0  L  258.921,751.85  L  0,751.85  z " />
<path transform="translate( 0, 0 )" style="stroke: hsl(26.9, 55%, 50%);" id="290"  d=" M  0,20  C  0,20  84.058,19.814  86.777,0  L  232.5,20  C  231.14,29.907  220,110.083  220,155.125  C  220,200.167  227.359,247.359  245.125,265.125  C  227.359,282.891  210.296,415.042  210.296,490  C  210.296,509.333  211.676,528.667  213.332,548  L  253.224,557.708  C  256.526,582.211  258.921,609.051  258.921,635  L  258.921,751.85  L  11.25,751.85  L  11.25,635  C  11.25,586.667  14.625,538.333  14.625,490  C  14.625,393.389  -0,296.778  0,200.167  C  0,110.083  0,20  0,20  z " />
<path transform="translate( 0, 0 )" style="stroke: hsl(53.8, 55%, 50%);" id="594"  d=" M  1.62,20  C  1.62,20  84.058,19.814  86.777,0  L  232.5,20  C  231.14,29.907  220,110.083  220,155.125  C  220,200.167  227.359,247.359  245.125,265.125  C  227.359,282.891  210.296,415.042  210.296,490  C  210.296,509.333  211.676,528.667  213.332,548  L  253.224,557.708  C  256.526,582.211  258.921,609.051  258.921,635  L  258.921,751.85  L  11.25,751.85  L  11.25,635  C  11.25,586.667  14.625,538.333  14.625,490  C  14.625,393.389  -0,296.778  0,200.167  C  0,110.083  1.62,20  1.62,20  z " />
<path transform="translate( 0, 0 )" style="stroke: hsl(80.7, 55%, 50%);" id="898"  d=" M  3.24,20  C  3.24,20  84.058,19.814  86.777,0  L  232.5,20  C  231.14,29.907  220,110.083  220,155.125  C  220,200.167  227.359,247.359  245.125,265.125  C  227.359,282.891  210.296,415.042  210.296,490  C  210.296,509.333  211.676,528.667  213.332,548  L  253.224,557.708  C  256.526,582.211  258.921,609.051  258.921,635  L  258.921,751.85  L  11.25,751.85  L  11.25,635  C  11.25,586.667  14.625,538.333  14.625,490  C  14.625,393.389  -0,296.778  0,200.167  C  0,110.083  3.24,20  3.24,20  z " />
<path transform="translate( 0, 0 )" style="stroke: hsl(107.6, 55%, 50%);" id="1202"  d=" M  4.86,20  C  4.86,20  84.058,19.814  86.777,0  L  232.5,20  C  231.14,29.907  220,110.083  220,155.125  C  220,200.167  227.359,247.359  245.125,265.125  C  227.359,282.891  210.296,415.042  210.296,490  C  210.296,509.333  211.676,528.667  213.332,548  L  253.224,557.708  C  256.526,582.211  258.921,609.051  258.921,635  L  258.921,751.85  L  11.25,751.85  L  11.25,635  C  11.25,586.667  14.625,538.333  14.625,490  C  14.625,393.389  -0,296.778  0,200.167  C  0,110.083  4.86,20  4.86,20  z " />
<path transform="translate( 0, 0 )" style="stroke: hsl(134.5, 55%, 50%);" id="1506"  d=" M  6.48,20  C  6.48,20  84.058,19.814  86.777,0  L  232.5,20  C  231.14,29.907  220,110.083  220,155.125  C  220,200.167  227.359,247.359  245.125,265.125  C  227.359,282.891  210.296,415.042  210.296,490  C  210.296,509.333  211.676,528.667  213.332,548  L  253.224,557.708  C  256.526,582.211  258.921,609.051  258.921,635  L  258.921,751.85  L  11.25,751.85  L  11.25,635  C  11.25,586.667  14.625,538.333  14.625,490  C  14.625,393.389  -0,296.778  0,200.167  C  0,110.083  6.48,20  6.48,20  z " />
<path transform="translate( 0, 0 )" style="stroke: hsl(161.4, 55%, 50%);" id="1810"  d=" M  8.1,20  C  8.1,20  84.058,19.814  86.777,0  L  232.5,20  C  231.14,29.907  220,110.083  220,155.125  C  220,200.167  227.359,247.359  245.125,265.125  C  227.359,282.891  210.296,415.042  210.296,490  C  210.296,509.333  211.676,528.667  213.332,548  L  253.224,557.708  C  256.526,582.211  258.921,609.051  258.921,635  L  258.921,751.85  L  11.25,751.85  L  11.25,635  C  11.25,586.667  14.625,538.333  14.625,490  C  14.625,393.389  -0,296.778  0,200.167  C  0,110.083  8.1,20  8.1,20  z " />
<path transform="translate( 0, 0 )" style="stroke: hsl(188.3, 55%, 50%);" id="2114"  d=" M  9.72,20  C  9.72,20  84.058,19.814  86.777,0  L  232.5,20  C  231.14,29.907  220,110.083  220,155.125  C  220,200.167  227.359,247.359  245.125,265.125  C  227.359,282.891  210.296,415.042  210.296,490  C  210.296,509.333  211.676,528.667  213.332,548  L  253.224,557.708  C  256.526,582.211  258.921,609.051  258.921,635  L  258.921,751.85  L  11.25,751.85  L  11.25,635  C  11.25,586.667  14.625,538.333  14.625,490  C  14.625,393.389  -0,296.778  0,200.167  C  0,110.083  9.72,20  9.72,20  z " />
<path transform="translate( 0, 0 )" style="stroke: hsl(215.2, 55%, 50%);" id="2418"  d=" M  11.34,20  C  11.34,20  84.058,19.814  86.777,0  L  232.5,20  C  231.14,29.907  220,110.083  220,155.125  C  220,200.167  227.359,247.359  245.125,265.125  C  227.359,282.891  210.296,415.042  210.296,490  C  210.296,509.333  211.676,528.667  213.332,548  L  253.224,557.708  C  256.526,582.211  258.921,609.051  258.921,635  L  258.921,751.85  L  11.25,751.85  L  11.25,635  C  11.25,586.667  14.625,538.333  14.625,490  C  14.625,393.389  -0,296.778  0,200.167  C  0,110.083  11.34,20  11.34,20  z " />
<path transform="translate( 0, 0 )" style="stroke: hsl(242.1, 55%, 50%);" id="2722"  d=" M  12.96,20  C  12.96,20  84.058,19.814  86.777,0  L  232.5,20  C  231.14,29.907  220,110.083  220,155.125  C  220,200.167  227.359,247.359  245.125,265.125  C  227.359,282.891  210.296,415.042  210.296,490  C  210.296,509.333  211.676,528.667  213.332,548  L  253.224,557.708  C  256.526,582.211  258.921,609.051  258.921,635  L  258.921,751.85  L  11.25,751.85  L  11.25,635  C  11.25,586.667  14.625,538.333  14.625,490  C  14.625,393.389  -0,296.778  0,200.167  C  0,110.083  12.96,20  12.96,20  z " />
<path transform="translate( 0, 0 )" style="stroke: hsl(269, 55%, 50%);" id="3026"  d=" M  14.58,20  C  14.58,20  84.058,19.814  86.777,0  L  232.5,20  C  231.14,29.907  220,110.083  220,155.125  C  220,200.167  227.359,247.359  245.125,265.125  C  227.359,282.891  210.296,415.042  210.296,490  C  210.296,509.333  211.676,528.667  213.332,548  L  253.224,557.708  C  256.526,582.211  258.921,609.051  258.921,635  L  258.921,751.85  L  11.25,751.85  L  11.25,635  C  11.25,586.667  14.625,538.333  14.625,490  C  14.625,393.389  -0,296.778  0,200.167  C  0,110.083  14.58,20  14.58,20  z " />
<path transform="translate( 0, 0 )" style="stroke: hsl(295.9, 55%, 50%);" id="3330"  d=" M  16.2,20  C  16.2,20  84.058,19.814  86.777,0  L  232.5,20  C  231.14,29.907  220,110.083  220,155.125  C  220,200.167  227.359,247.359  245.125,265.125  C  227.359,282.891  210.296,415.042  210.296,490  C  210.296,509.333  211.676,528.667  213.332,548  L  253.224,557.708  C  256.526,582.211  258.921,609.051  258.921,635  L  258.921,751.85  L  11.25,751.85  L  11.25,635  C  11.25,586.667  14.625,538.333  14.625,490  C  14.625,393.389  -0,296.778  0,200.167  C  0,110.083  16.2,20  16.2,20  z " />
    </g>
    <!-- End of group #back -->
    
    <!-- Start of group #front -->
    <g id="front"  transform=" translate(26.6 11.103)  translate(0 0) " >
        <path class="hidden" id="3"  d=" M  -21.6,-6.103  L  280,-6.103  L  280,768.273  L  -21.6,768.273  z " />
<path transform="translate( 0, 0 )" style="stroke: hsl(26.9, 55%, 50%);" id="291"  d=" M  150.916,500.875  L  247.111,500.875  M  255.598,697.263  L  113.4,697.263  L  113.4,500.875  L  137.012,500.875 " />
<path transform="translate( 0, 0 )" style="stroke: hsl(26.9, 55%, 50%);" id="292"  d=" M  -21.6,420.088  C  -21.6,287.436  -18.441,92.277  -18.441,92.277  L  11.54,91.205  L  65.957,67.317  L  95.077,-6.103  L  238.653,20.383  C  235.932,35.134  218,110.083  218,155.125  C  218,200.167  227.359,247.359  245.125,265.125  C  256.673,276.673  267.943,283.824  280,287.442  C  280,287.442  246.973,415.042  246.973,490  C  246.973,538.333  255.598,586.667  255.598,635  L  255.598,757.957  L  76.68,768.018  C  12.78,771.611  -11.996,738.527  -19.939,594.627  C  -21.6,564.535  -21.6,541.553  -21.6,518.572  L  -21.6,420.088  z  M  143.964,562.5  C  143.964,562.5  151.277,514.167  151.277,490  C  151.277,445.611  143.964,356.833  143.964,356.833  C  143.964,356.833  136.651,445.611  136.651,490  C  136.651,514.167  143.964,562.5  143.964,562.5  z " />
<path transform="translate( 0, 0 )" style="stroke: hsl(26.9, 55%, 50%);" id="293"  d=" M  82.5,290.25  L  82.5,275.12  L  186.602,261.415  L  186.602,276.545  L  82.5,290.25  z " />
<path transform="translate( 0, 0 )" style="stroke: hsl(26.9, 55%, 50%);" id="294"  d=" M  -21.6,420.088  L  51.58,73.628 " />
<path transform="translate( 0, 0 )" style="stroke: hsl(53.8, 55%, 50%);" id="595"  d=" M  150.916,500.875  L  247.111,500.875  M  255.598,697.263  L  113.4,697.263  L  113.4,500.875  L  137.012,500.875 " />
<path transform="translate( 0, 0 )" style="stroke: hsl(53.8, 55%, 50%);" id="596"  d=" M  -21.6,420.088  C  -21.6,287.436  -18.441,92.277  -18.441,92.277  L  11.54,91.205  L  65.976,67.317  L  95.113,-6.097  L  238.653,20.383  C  235.932,35.134  218,110.083  218,155.125  C  218,200.167  227.359,247.359  245.125,265.125  C  256.673,276.673  267.943,283.824  280,287.442  C  280,287.442  246.973,415.042  246.973,490  C  246.973,538.333  255.598,586.667  255.598,635  L  255.598,757.957  L  76.68,768.018  C  12.78,771.611  -11.996,738.527  -19.939,594.627  C  -21.6,564.535  -21.6,541.553  -21.6,518.572  L  -21.6,420.088  z  M  143.964,562.5  C  143.964,562.5  151.277,514.167  151.277,490  C  151.277,445.611  143.964,356.833  143.964,356.833  C  143.964,356.833  136.651,445.611  136.651,490  C  136.651,514.167  143.964,562.5  143.964,562.5  z " />
<path transform="translate( 0, 0 )" style="stroke: hsl(53.8, 55%, 50%);" id="597"  d=" M  82.5,290.25  L  82.5,275.12  L  186.602,261.415  L  186.602,276.545  L  82.5,290.25  z " />
<path transform="translate( 0, 0 )" style="stroke: hsl(53.8, 55%, 50%);" id="598"  d=" M  -21.6,420.088  L  51.579,73.635 " />
<path transform="translate( 0, 0 )" style="stroke: hsl(80.7, 55%, 50%);" id="899"  d=" M  150.916,500.875  L  247.111,500.875  M  255.598,697.263  L  113.4,697.263  L  113.4,500.875  L  137.012,500.875 " />
<path transform="translate( 0, 0 )" style="stroke: hsl(80.7, 55%, 50%);" id="900"  d=" M  -21.6,420.088  C  -21.6,287.436  -18.441,92.277  -18.441,92.277  L  11.54,91.205  L  65.993,67.317  L  95.147,-6.091  L  238.653,20.383  C  235.932,35.134  218,110.083  218,155.125  C  218,200.167  227.359,247.359  245.125,265.125  C  256.673,276.673  267.943,283.824  280,287.442  C  280,287.442  246.973,415.042  246.973,490  C  246.973,538.333  255.598,586.667  255.598,635  L  255.598,757.957  L  76.68,768.018  C  12.78,771.611  -11.996,738.527  -19.939,594.627  C  -21.6,564.535  -21.6,541.553  -21.6,518.572  L  -21.6,420.088  z  M  143.964,562.5  C  143.964,562.5  151.277,514.167  151.277,490  C  151.277,445.611  143.964,356.833  143.964,356.833  C  143.964,356.833  136.651,445.611  136.651,490  C  136.651,514.167  143.964,562.5  143.964,562.5  z " />
<path transform="translate( 0, 0 )" style="stroke: hsl(80.7, 55%, 50%);" id="901"  d=" M  82.5,290.25  L  82.5,275.12  L  186.602,261.415  L  186.602,276.545  L  82.5,290.25  z " />
<path transform="translate( 0, 0 )" style="stroke: hsl(80.7, 55%, 50%);" id="902"  d=" M  -21.6,420.088  L  51.578,73.641 " />
<path transform="translate( 0, 0 )" style="stroke: hsl(107.6, 55%, 50%);" id="1203"  d=" M  150.916,500.875  L  247.111,500.875  M  255.598,697.263  L  113.4,697.263  L  113.4,500.875  L  137.012,500.875 " />
<path transform="translate( 0, 0 )" style="stroke: hsl(107.6, 55%, 50%);" id="1204"  d=" M  -21.6,420.088  C  -21.6,287.436  -18.441,92.277  -18.441,92.277  L  11.54,91.205  L  66.012,67.317  L  95.184,-6.084  L  238.653,20.383  C  235.932,35.134  218,110.083  218,155.125  C  218,200.167  227.359,247.359  245.125,265.125  C  256.673,276.673  267.943,283.824  280,287.442  C  280,287.442  246.973,415.042  246.973,490  C  246.973,538.333  255.598,586.667  255.598,635  L  255.598,757.957  L  76.68,768.018  C  12.78,771.611  -11.996,738.527  -19.939,594.627  C  -21.6,564.535  -21.6,541.553  -21.6,518.572  L  -21.6,420.088  z  M  143.964,562.5  C  143.964,562.5  151.277,514.167  151.277,490  C  151.277,445.611  143.964,356.833  143.964,356.833  C  143.964,356.833  136.651,445.611  136.651,490  C  136.651,514.167  143.964,562.5  143.964,562.5  z " />
<path transform="translate( 0, 0 )" style="stroke: hsl(107.6, 55%, 50%);" id="1205"  d=" M  82.5,290.25  L  82.5,275.12  L  186.602,261.415  L  186.602,276.545  L  82.5,290.25  z " />
<path transform="translate( 0, 0 )" style="stroke: hsl(107.6, 55%, 50%);" id="1206"  d=" M  -21.6,420.088  L  51.576,73.648 " />
<path transform="translate( 0, 0 )" style="stroke: hsl(134.5, 55%, 50%);" id="1507"  d=" M  150.916,500.875  L  247.111,500.875  M  255.598,697.263  L  113.4,697.263  L  113.4,500.875  L  137.012,500.875 " />
<path transform="translate( 0, 0 )" style="stroke: hsl(134.5, 55%, 50%);" id="1508"  d=" M  -21.6,420.088  C  -21.6,287.436  -18.441,92.277  -18.441,92.277  L  11.54,91.205  L  66.032,67.317  L  95.223,-6.077  L  238.653,20.383  C  235.932,35.134  218,110.083  218,155.125  C  218,200.167  227.359,247.359  245.125,265.125  C  256.673,276.673  267.943,283.824  280,287.442  C  280,287.442  246.973,415.042  246.973,490  C  246.973,538.333  255.598,586.667  255.598,635  L  255.598,757.957  L  76.68,768.018  C  12.78,771.611  -11.996,738.527  -19.939,594.627  C  -21.6,564.535  -21.6,541.553  -21.6,518.572  L  -21.6,420.088  z  M  143.964,562.5  C  143.964,562.5  151.277,514.167  151.277,490  C  151.277,445.611  143.964,356.833  143.964,356.833  C  143.964,356.833  136.651,445.611  136.651,490  C  136.651,514.167  143.964,562.5  143.964,562.5  z " />
<path transform="translate( 0, 0 )" style="stroke: hsl(134.5, 55%, 50%);" id="1509"  d=" M  82.5,290.25  L  82.5,275.12  L  186.602,261.415  L  186.602,276.545  L  82.5,290.25  z " />
<path transform="translate( 0, 0 )" style="stroke: hsl(134.5, 55%, 50%);" id="1510"  d=" M  -21.6,420.088  L  51.575,73.655 " />
<path transform="translate( 0, 0 )" style="stroke: hsl(161.4, 55%, 50%);" id="1811"  d=" M  150.916,500.875  L  247.111,500.875  M  255.598,697.263  L  113.4,697.263  L  113.4,500.875  L  137.012,500.875 " />
<path transform="translate( 0, 0 )" style="stroke: hsl(161.4, 55%, 50%);" id="1812"  d=" M  -21.6,420.088  C  -21.6,287.436  -18.441,92.277  -18.441,92.277  L  11.54,91.205  L  66.053,67.317  L  95.265,-6.069  L  238.653,20.383  C  235.932,35.134  218,110.083  218,155.125  C  218,200.167  227.359,247.359  245.125,265.125  C  256.673,276.673  267.943,283.824  280,287.442  C  280,287.442  246.973,415.042  246.973,490  C  246.973,538.333  255.598,586.667  255.598,635  L  255.598,757.957  L  76.68,768.018  C  12.78,771.611  -11.996,738.527  -19.939,594.627  C  -21.6,564.535  -21.6,541.553  -21.6,518.572  L  -21.6,420.088  z  M  143.964,562.5  C  143.964,562.5  151.277,514.167  151.277,490  C  151.277,445.611  143.964,356.833  143.964,356.833  C  143.964,356.833  136.651,445.611  136.651,490  C  136.651,514.167  143.964,562.5  143.964,562.5  z " />
<path transform="translate( 0, 0 )" style="stroke: hsl(161.4, 55%, 50%);" id="1813"  d=" M  82.5,290.25  L  82.5,275.12  L  186.602,261.415  L  186.602,276.545  L  82.5,290.25  z " />
<path transform="translate( 0, 0 )" style="stroke: hsl(161.4, 55%, 50%);" id="1814"  d=" M  -21.6,420.088  L  51.573,73.662 " />
<path transform="translate( 0, 0 )" style="stroke: hsl(188.3, 55%, 50%);" id="2115"  d=" M  150.916,500.875  L  247.111,500.875  M  255.598,697.263  L  113.4,697.263  L  113.4,500.875  L  137.012,500.875 " />
<path transform="translate( 0, 0 )" style="stroke: hsl(188.3, 55%, 50%);" id="2116"  d=" M  -21.6,420.088  C  -21.6,287.436  -18.441,92.277  -18.441,92.277  L  11.54,91.205  L  66.074,67.317  L  95.307,-6.061  L  238.653,20.383  C  235.932,35.134  218,110.083  218,155.125  C  218,200.167  227.359,247.359  245.125,265.125  C  256.673,276.673  267.943,283.824  280,287.442  C  280,287.442  246.973,415.042  246.973,490  C  246.973,538.333  255.598,586.667  255.598,635  L  255.598,757.957  L  76.68,768.018  C  12.78,771.611  -11.996,738.527  -19.939,594.627  C  -21.6,564.535  -21.6,541.553  -21.6,518.572  L  -21.6,420.088  z  M  143.964,562.5  C  143.964,562.5  151.277,514.167  151.277,490  C  151.277,445.611  143.964,356.833  143.964,356.833  C  143.964,356.833  136.651,445.611  136.651,490  C  136.651,514.167  143.964,562.5  143.964,562.5  z " />
<path transform="translate( 0, 0 )" style="stroke: hsl(188.3, 55%, 50%);" id="2117"  d=" M  82.5,290.25  L  82.5,275.12  L  186.602,261.415  L  186.602,276.545  L  82.5,290.25  z " />
<path transform="translate( 0, 0 )" style="stroke: hsl(188.3, 55%, 50%);" id="2118"  d=" M  -21.6,420.088  L  51.571,73.67 " />
<path transform="translate( 0, 0 )" style="stroke: hsl(215.2, 55%, 50%);" id="2419"  d=" M  150.916,500.875  L  247.111,500.875  M  255.598,697.263  L  113.4,697.263  L  113.4,500.875  L  137.012,500.875 " />
<path transform="translate( 0, 0 )" style="stroke: hsl(215.2, 55%, 50%);" id="2420"  d=" M  -21.6,420.088  C  -21.6,287.436  -18.441,92.277  -18.441,92.277  L  11.54,91.205  L  66.096,67.317  L  95.35,-6.053  L  238.653,20.383  C  235.932,35.134  218,110.083  218,155.125  C  218,200.167  227.359,247.359  245.125,265.125  C  256.673,276.673  267.943,283.824  280,287.442  C  280,287.442  246.973,415.042  246.973,490  C  246.973,538.333  255.598,586.667  255.598,635  L  255.598,757.957  L  76.68,768.018  C  12.78,771.611  -11.996,738.527  -19.939,594.627  C  -21.6,564.535  -21.6,541.553  -21.6,518.572  L  -21.6,420.088  z  M  143.964,562.5  C  143.964,562.5  151.277,514.167  151.277,490  C  151.277,445.611  143.964,356.833  143.964,356.833  C  143.964,356.833  136.651,445.611  136.651,490  C  136.651,514.167  143.964,562.5  143.964,562.5  z " />
<path transform="translate( 0, 0 )" style="stroke: hsl(215.2, 55%, 50%);" id="2421"  d=" M  82.5,290.25  L  82.5,275.12  L  186.602,261.415  L  186.602,276.545  L  82.5,290.25  z " />
<path transform="translate( 0, 0 )" style="stroke: hsl(215.2, 55%, 50%);" id="2422"  d=" M  -21.6,420.088  L  51.57,73.677 " />
<path transform="translate( 0, 0 )" style="stroke: hsl(242.1, 55%, 50%);" id="2723"  d=" M  150.916,500.875  L  247.111,500.875  M  255.598,697.263  L  113.4,697.263  L  113.4,500.875  L  137.012,500.875 " />
<path transform="translate( 0, 0 )" style="stroke: hsl(242.1, 55%, 50%);" id="2724"  d=" M  -21.6,420.088  C  -21.6,287.436  -18.441,92.277  -18.441,92.277  L  11.54,91.205  L  66.121,67.317  L  95.399,-6.044  L  238.653,20.383  C  235.932,35.134  218,110.083  218,155.125  C  218,200.167  227.359,247.359  245.125,265.125  C  256.673,276.673  267.943,283.824  280,287.442  C  280,287.442  246.973,415.042  246.973,490  C  246.973,538.333  255.598,586.667  255.598,635  L  255.598,757.957  L  76.68,768.018  C  12.78,771.611  -11.996,738.527  -19.939,594.627  C  -21.6,564.535  -21.6,541.553  -21.6,518.572  L  -21.6,420.088  z  M  143.964,562.5  C  143.964,562.5  151.277,514.167  151.277,490  C  151.277,445.611  143.964,356.833  143.964,356.833  C  143.964,356.833  136.651,445.611  136.651,490  C  136.651,514.167  143.964,562.5  143.964,562.5  z " />
<path transform="translate( 0, 0 )" style="stroke: hsl(242.1, 55%, 50%);" id="2725"  d=" M  82.5,290.25  L  82.5,275.12  L  186.602,261.415  L  186.602,276.545  L  82.5,290.25  z " />
<path transform="translate( 0, 0 )" style="stroke: hsl(242.1, 55%, 50%);" id="2726"  d=" M  -21.6,420.088  L  51.568,73.686 " />
<path transform="translate( 0, 0 )" style="stroke: hsl(269, 55%, 50%);" id="3027"  d=" M  150.916,500.875  L  247.111,500.875  M  255.598,697.263  L  113.4,697.263  L  113.4,500.875  L  137.012,500.875 " />
<path transform="translate( 0, 0 )" style="stroke: hsl(269, 55%, 50%);" id="3028"  d=" M  -21.6,420.088  C  -21.6,287.436  -18.441,92.277  -18.441,92.277  L  11.54,91.205  L  66.147,67.317  L  95.45,-6.035  L  238.653,20.383  C  235.932,35.134  218,110.083  218,155.125  C  218,200.167  227.359,247.359  245.125,265.125  C  256.673,276.673  267.943,283.824  280,287.442  C  280,287.442  246.973,415.042  246.973,490  C  246.973,538.333  255.598,586.667  255.598,635  L  255.598,757.957  L  76.68,768.018  C  12.78,771.611  -11.996,738.527  -19.939,594.627  C  -21.6,564.535  -21.6,541.553  -21.6,518.572  L  -21.6,420.088  z  M  143.964,562.5  C  143.964,562.5  151.277,514.167  151.277,490  C  151.277,445.611  143.964,356.833  143.964,356.833  C  143.964,356.833  136.651,445.611  136.651,490  C  136.651,514.167  143.964,562.5  143.964,562.5  z " />
<path transform="translate( 0, 0 )" style="stroke: hsl(269, 55%, 50%);" id="3029"  d=" M  82.5,290.25  L  82.5,275.12  L  186.602,261.415  L  186.602,276.545  L  82.5,290.25  z " />
<path transform="translate( 0, 0 )" style="stroke: hsl(269, 55%, 50%);" id="3030"  d=" M  -21.6,420.088  L  51.566,73.695 " />
<path transform="translate( 0, 0 )" style="stroke: hsl(295.9, 55%, 50%);" id="3331"  d=" M  150.916,500.875  L  247.111,500.875  M  255.598,697.263  L  113.4,697.263  L  113.4,500.875  L  137.012,500.875 " />
<path transform="translate( 0, 0 )" style="stroke: hsl(295.9, 55%, 50%);" id="3332"  d=" M  -21.6,420.088  C  -21.6,287.436  -18.441,92.277  -18.441,92.277  L  11.54,91.205  L  66.175,67.317  L  95.505,-6.024  L  238.653,20.383  C  235.932,35.134  218,110.083  218,155.125  C  218,200.167  227.359,247.359  245.125,265.125  C  256.673,276.673  267.943,283.824  280,287.442  C  280,287.442  246.973,415.042  246.973,490  C  246.973,538.333  255.598,586.667  255.598,635  L  255.598,757.957  L  76.68,768.018  C  12.78,771.611  -11.996,738.527  -19.939,594.627  C  -21.6,564.535  -21.6,541.553  -21.6,518.572  L  -21.6,420.088  z  M  143.964,562.5  C  143.964,562.5  151.277,514.167  151.277,490  C  151.277,445.611  143.964,356.833  143.964,356.833  C  143.964,356.833  136.651,445.611  136.651,490  C  136.651,514.167  143.964,562.5  143.964,562.5  z " />
<path transform="translate( 0, 0 )" style="stroke: hsl(295.9, 55%, 50%);" id="3333"  d=" M  82.5,290.25  L  82.5,275.12  L  186.602,261.415  L  186.602,276.545  L  82.5,290.25  z " />
<path transform="translate( 0, 0 )" style="stroke: hsl(295.9, 55%, 50%);" id="3334"  d=" M  -21.6,420.088  L  51.564,73.705 " />
    </g>
    <!-- End of group #front -->
    
    <!-- Start of group #side -->
    <g id="side"  transform=" translate(-267.474 -260.125)  translate(1084.603 0) " >
        <path class="hidden" id="4"  d=" M  272.474,265.125  L  404.203,265.125  L  404.203,757.957  L  272.474,757.957  z " />
<path transform="translate( 0, 0 )" style="stroke: hsl(26.9, 55%, 50%);" id="295"  d=" M  272.474,757.957  L  272.474,635  C  272.474,586.667  281.099,538.333  281.099,490  C  281.099,415.042  280,287.442  280,287.442  C  286.354,289.349  293,290.25  300,290.25  C  320,290.25  337.109,282.891  354.875,265.125  C  372.641,282.891  355.578,415.042  355.578,490  C  355.578,509.333  356.958,528.667  358.626,548.145  L  399.788,559.576  C  401.507,578.83  404.203,609.051  404.203,635  L  404.203,754.507  L  364.203,751.85  L  272.474,757.957  z " />
<path transform="translate( 0, 0 )" style="stroke: hsl(53.8, 55%, 50%);" id="599"  d=" M  272.474,757.957  L  272.474,635  C  272.474,586.667  281.099,538.333  281.099,490  C  281.099,415.042  280,287.442  280,287.442  C  286.354,289.349  293,290.25  300,290.25  C  320,290.25  337.109,282.891  354.875,265.125  C  372.641,282.891  355.578,415.042  355.578,490  C  355.578,509.333  356.958,528.667  358.626,548.145  L  399.788,559.576  C  401.507,578.83  404.203,609.051  404.203,635  L  404.203,754.507  L  364.203,751.85  L  272.474,757.957  z " />
<path transform="translate( 0, 0 )" style="stroke: hsl(80.7, 55%, 50%);" id="903"  d=" M  272.474,757.957  L  272.474,635  C  272.474,586.667  281.099,538.333  281.099,490  C  281.099,415.042  280,287.442  280,287.442  C  286.354,289.349  293,290.25  300,290.25  C  320,290.25  337.109,282.891  354.875,265.125  C  372.641,282.891  355.578,415.042  355.578,490  C  355.578,509.333  356.958,528.667  358.626,548.145  L  399.788,559.576  C  401.507,578.83  404.203,609.051  404.203,635  L  404.203,754.507  L  364.203,751.85  L  272.474,757.957  z " />
<path transform="translate( 0, 0 )" style="stroke: hsl(107.6, 55%, 50%);" id="1207"  d=" M  272.474,757.957  L  272.474,635  C  272.474,586.667  281.099,538.333  281.099,490  C  281.099,415.042  280,287.442  280,287.442  C  286.354,289.349  293,290.25  300,290.25  C  320,290.25  337.109,282.891  354.875,265.125  C  372.641,282.891  355.578,415.042  355.578,490  C  355.578,509.333  356.958,528.667  358.626,548.145  L  399.788,559.576  C  401.507,578.83  404.203,609.051  404.203,635  L  404.203,754.507  L  364.203,751.85  L  272.474,757.957  z " />
<path transform="translate( 0, 0 )" style="stroke: hsl(134.5, 55%, 50%);" id="1511"  d=" M  272.474,757.957  L  272.474,635  C  272.474,586.667  281.099,538.333  281.099,490  C  281.099,415.042  280,287.442  280,287.442  C  286.354,289.349  293,290.25  300,290.25  C  320,290.25  337.109,282.891  354.875,265.125  C  372.641,282.891  355.578,415.042  355.578,490  C  355.578,509.333  356.958,528.667  358.626,548.145  L  399.788,559.576  C  401.507,578.83  404.203,609.051  404.203,635  L  404.203,754.507  L  364.203,751.85  L  272.474,757.957  z " />
<path transform="translate( 0, 0 )" style="stroke: hsl(161.4, 55%, 50%);" id="1815"  d=" M  272.474,757.957  L  272.474,635  C  272.474,586.667  281.099,538.333  281.099,490  C  281.099,415.042  280,287.442  280,287.442  C  286.354,289.349  293,290.25  300,290.25  C  320,290.25  337.109,282.891  354.875,265.125  C  372.641,282.891  355.578,415.042  355.578,490  C  355.578,509.333  356.958,528.667  358.626,548.145  L  399.788,559.576  C  401.507,578.83  404.203,609.051  404.203,635  L  404.203,754.507  L  364.203,751.85  L  272.474,757.957  z " />
<path transform="translate( 0, 0 )" style="stroke: hsl(188.3, 55%, 50%);" id="2119"  d=" M  272.474,757.957  L  272.474,635  C  272.474,586.667  281.099,538.333  281.099,490  C  281.099,415.042  280,287.442  280,287.442  C  286.354,289.349  293,290.25  300,290.25  C  320,290.25  337.109,282.891  354.875,265.125  C  372.641,282.891  355.578,415.042  355.578,490  C  355.578,509.333  356.958,528.667  358.626,548.145  L  399.788,559.576  C  401.507,578.83  404.203,609.051  404.203,635  L  404.203,754.507  L  364.203,751.85  L  272.474,757.957  z " />
<path transform="translate( 0, 0 )" style="stroke: hsl(215.2, 55%, 50%);" id="2423"  d=" M  272.474,757.957  L  272.474,635  C  272.474,586.667  281.099,538.333  281.099,490  C  281.099,415.042  280,287.442  280,287.442  C  286.354,289.349  293,290.25  300,290.25  C  320,290.25  337.109,282.891  354.875,265.125  C  372.641,282.891  355.578,415.042  355.578,490  C  355.578,509.333  356.958,528.667  358.626,548.145  L  399.788,559.576  C  401.507,578.83  404.203,609.051  404.203,635  L  404.203,754.507  L  364.203,751.85  L  272.474,757.957  z " />
<path transform="translate( 0, 0 )" style="stroke: hsl(242.1, 55%, 50%);" id="2727"  d=" M  272.474,757.957  L  272.474,635  C  272.474,586.667  281.099,538.333  281.099,490  C  281.099,415.042  280,287.442  280,287.442  C  286.354,289.349  293,290.25  300,290.25  C  320,290.25  337.109,282.891  354.875,265.125  C  372.641,282.891  355.578,415.042  355.578,490  C  355.578,509.333  356.958,528.667  358.626,548.145  L  399.788,559.576  C  401.507,578.83  404.203,609.051  404.203,635  L  404.203,754.507  L  364.203,751.85  L  272.474,757.957  z " />
<path transform="translate( 0, 0 )" style="stroke: hsl(269, 55%, 50%);" id="3031"  d=" M  272.474,757.957  L  272.474,635  C  272.474,586.667  281.099,538.333  281.099,490  C  281.099,415.042  280,287.442  280,287.442  C  286.354,289.349  293,290.25  300,290.25  C  320,290.25  337.109,282.891  354.875,265.125  C  372.641,282.891  355.578,415.042  355.578,490  C  355.578,509.333  356.958,528.667  358.626,548.145  L  399.788,559.576  C  401.507,578.83  404.203,609.051  404.203,635  L  404.203,754.507  L  364.203,751.85  L  272.474,757.957  z " />
<path transform="translate( 0, 0 )" style="stroke: hsl(295.9, 55%, 50%);" id="3335"  d=" M  272.474,757.957  L  272.474,635  C  272.474,586.667  281.099,538.333  281.099,490  C  281.099,415.042  280,287.442  280,287.442  C  286.354,289.349  293,290.25  300,290.25  C  320,290.25  337.109,282.891  354.875,265.125  C  372.641,282.891  355.578,415.042  355.578,490  C  355.578,509.333  356.958,528.667  358.626,548.145  L  399.788,559.576  C  401.507,578.83  404.203,609.051  404.203,635  L  404.203,754.507  L  364.203,751.85  L  272.474,757.957  z " />
    </g>
    <!-- End of group #side -->
    
    <!-- Start of group #collar -->
    <g id="collar"  transform=" translate(149.03 125.192)  translate(1226.332 0) " >
        <path class="hidden" id="5"  d=" M  -144.03,-120.192  L  293.592,-120.192  L  293.592,-25.511  L  -144.03,-25.511  z " />
<path transform="translate( 0, 0 )" style="stroke: hsl(26.9, 55%, 50%);" id="296"  d=" M  -144.03,-61.254  L  -94.892,-27.83  C  -94.892,-27.83  -85.587,-32.982  -62.208,-38.206  C  -62.208,-38.206  -54.505,-70.191  74.781,-70.191  C  204.067,-70.191  211.77,-38.206  211.77,-38.206  C  235.149,-32.982  244.454,-27.83  244.454,-27.83  L  293.592,-61.254  L  287.931,-90.716  C  234.643,-98.085  216.996,-120.191  74.781,-120.191  C  -67.434,-120.191  -85.081,-98.085  -138.369,-90.716  L  -144.03,-61.254  z " />
<path transform="translate( 0.18700000000001, -1.307 )" style="stroke: hsl(53.8, 55%, 50%);" id="600"  d=" M  -142.756,-59.569  L  -93.464,-26.341  C  -93.464,-26.341  -84.416,-31.321  -61.192,-36.701  C  -61.192,-36.701  -52.506,-68.885  74.594,-68.884  C  201.694,-68.885  210.38,-36.701  210.38,-36.701  C  233.604,-31.321  242.652,-26.341  242.652,-26.341  L  291.944,-59.569  L  286.411,-89.055  C  233.457,-96.512  214.404,-118.884  74.594,-118.884  C  -65.216,-118.884  -84.269,-96.512  -137.223,-89.055  L  -142.756,-59.569  z " />
<path transform="translate( 0.372, -2.606 )" style="stroke: hsl(80.7, 55%, 50%);" id="904"  d=" M  -141.481,-57.869  L  -92.031,-24.847  C  -92.031,-24.847  -82.858,-29.87  -60.02,-35.228  C  -60.02,-35.228  -50.505,-67.585  74.409,-67.585  C  199.323,-67.585  208.838,-35.228  208.838,-35.228  C  231.676,-29.87  240.849,-24.847  240.849,-24.847  L  290.299,-57.869  L  284.897,-87.379  C  232.275,-94.93  211.814,-117.585  74.409,-117.585  C  -62.996,-117.585  -83.457,-94.93  -136.079,-87.379  L  -141.481,-57.869  z " />
<path transform="translate( 0.54700000000001, -3.898 )" style="stroke: hsl(107.6, 55%, 50%);" id="1208"  d=" M  -140.199,-56.161  L  -90.587,-23.353  C  -90.587,-23.353  -81.289,-28.421  -58.979,-33.724  C  -58.979,-33.724  -48.497,-66.294  74.234,-66.293  C  196.965,-66.294  207.447,-33.724  207.447,-33.724  C  229.757,-28.421  239.055,-23.353  239.055,-23.353  L  288.667,-56.161  L  283.402,-85.697  C  231.11,-93.346  209.238,-116.294  74.234,-116.294  C  -60.77,-116.294  -82.642,-93.346  -134.934,-85.697  L  -140.199,-56.161  z " />
<path transform="translate( 0.718, -5.181 )" style="stroke: hsl(134.5, 55%, 50%);" id="1512"  d=" M  -138.916,-54.447  L  -89.136,-21.857  C  -89.136,-21.857  -79.715,-26.972  -57.784,-32.255  C  -57.784,-32.255  -46.487,-65.011  74.063,-65.01  C  194.613,-65.011  205.91,-32.255  205.91,-32.255  C  227.841,-26.972  237.262,-21.857  237.262,-21.857  L  287.042,-54.447  L  281.917,-84.006  C  229.954,-91.757  206.668,-115.011  74.063,-115.011  C  -58.542,-115.011  -81.828,-91.757  -133.791,-84.006  L  -138.916,-54.447  z " />
<path transform="translate( 0.88200000000001, -6.455 )" style="stroke: hsl(161.4, 55%, 50%);" id="1816"  d=" M  -137.627,-52.72  L  -87.676,-20.359  C  -87.676,-20.359  -78.534,-25.306  -56.718,-30.752  C  -56.718,-30.752  -44.471,-63.736  73.899,-63.736  C  192.269,-63.736  204.516,-30.752  204.516,-30.752  C  226.332,-25.306  235.474,-20.359  235.474,-20.359  L  285.425,-52.72  L  280.445,-82.305  C  228.808,-90.163  204.106,-113.737  73.899,-113.737  C  -56.308,-113.737  -81.01,-90.163  -132.647,-82.305  L  -137.627,-52.72  z " />
<path transform="translate( 1.036, -7.718 )" style="stroke: hsl(188.3, 55%, 50%);" id="2120"  d=" M  -136.331,-50.984  L  -86.206,-18.86  C  -86.206,-18.86  -76.947,-23.857  -55.637,-29.253  C  -55.637,-29.253  -42.449,-62.473  73.745,-62.473  C  189.939,-62.473  203.127,-29.253  203.127,-29.253  C  224.437,-23.857  233.696,-18.86  233.696,-18.86  L  283.821,-50.984  L  278.992,-80.594  C  227.68,-88.564  201.558,-112.473  73.745,-112.473  C  -54.068,-112.473  -80.19,-88.564  -131.502,-80.594  L  -136.331,-50.984  z " />
<path transform="translate( 1.184, -8.973 )" style="stroke: hsl(215.2, 55%, 50%);" id="2424"  d=" M  -135.031,-49.236  L  -84.724,-17.358  C  -84.724,-17.358  -75.35,-22.407  -54.404,-27.789  C  -54.404,-27.789  -40.423,-61.219  73.597,-61.218  C  187.617,-61.219  201.598,-27.789  201.598,-27.789  C  222.544,-22.407  231.918,-17.358  231.918,-17.358  L  282.225,-49.236  L  277.552,-78.87  C  226.563,-86.957  199.019,-111.217  73.597,-111.217  C  -51.825,-111.217  -79.369,-86.957  -130.358,-78.87  L  -135.031,-49.236  z " />
<path transform="translate( 1.323, -10.217 )" style="stroke: hsl(242.1, 55%, 50%);" id="2728"  d=" M  -133.725,-47.477  L  -83.232,-15.853  C  -83.232,-15.853  -74.152,-20.738  -53.295,-26.29  C  -53.295,-26.29  -38.392,-59.974  73.458,-59.974  C  185.308,-59.974  200.211,-26.29  200.211,-26.29  C  221.068,-20.738  230.148,-15.853  230.148,-15.853  L  280.641,-47.477  L  276.13,-77.137  C  225.462,-85.346  196.493,-109.973  73.458,-109.974  C  -49.577,-109.973  -78.546,-85.346  -129.214,-77.137  L  -133.725,-47.477  z " />
<path transform="translate( 1.454, -11.452 )" style="stroke: hsl(269, 55%, 50%);" id="3032"  d=" M  -132.413,-45.709  L  -81.729,-14.347  C  -81.729,-14.347  -72.54,-19.287  -52.17,-24.793  C  -52.17,-24.793  -36.353,-58.74  73.327,-58.739  C  183.007,-58.74  198.824,-24.793  198.824,-24.793  C  219.194,-19.287  228.383,-14.347  228.383,-14.347  L  279.067,-45.709  L  274.722,-75.394  C  224.373,-83.73  193.975,-108.739  73.327,-108.739  C  -47.321,-108.739  -77.719,-83.73  -128.068,-75.394  L  -132.413,-45.709  z " />
<path transform="translate( 1.574, -12.674 )" style="stroke: hsl(295.9, 55%, 50%);" id="3336"  d=" M  -131.094,-43.926  L  -80.212,-12.837  C  -80.212,-12.837  -70.917,-17.834  -50.894,-23.331  C  -50.894,-23.331  -34.309,-57.514  73.207,-57.517  C  180.723,-57.514  197.308,-23.331  197.308,-23.331  C  217.331,-17.834  226.626,-12.837  226.626,-12.837  L  277.508,-43.926  L  273.337,-73.636  C  223.305,-82.106  191.475,-107.517  73.207,-107.517  C  -45.061,-107.517  -76.891,-82.106  -126.923,-73.636  L  -131.094,-43.926  z " />
    </g>
    <!-- End of group #collar -->
    
    <!-- Start of group #collarstand -->
    <g id="collarstand"  transform=" translate(67.208 75.191)  translate(1226.332 209.362) " >
        <path class="hidden" id="6"  d=" M  -62.208,-70.191  L  211.77,-70.191  L  211.77,-36.005  L  -62.208,-36.005  z " />
<path transform="translate( 0, 0 )" style="stroke: hsl(26.9, 55%, 50%);" id="297"  d=" M  -62.208,-38.206  C  -62.208,-38.206  -54.505,-70.191  74.781,-70.191  C  204.067,-70.191  211.77,-38.206  211.77,-38.206  C  185.2,-44.145  142.01,-50.191  74.781,-50.191  C  7.552,-50.191  -35.638,-44.145  -62.208,-38.206  z " />
<path transform="translate( 0.18700000000001, -1.307 )" style="stroke: hsl(53.8, 55%, 50%);" id="601"  d=" M  -61.192,-36.701  C  -61.192,-36.701  -52.506,-68.885  74.594,-68.884  C  201.694,-68.885  210.38,-36.701  210.38,-36.701  C  185.123,-42.552  141.957,-48.885  74.594,-48.884  C  7.231,-48.885  -35.935,-42.552  -61.192,-36.701  z " />
<path transform="translate( 0.372, -2.606 )" style="stroke: hsl(80.7, 55%, 50%);" id="905"  d=" M  -60.02,-35.228  C  -60.02,-35.228  -50.505,-67.585  74.409,-67.585  C  199.323,-67.585  208.838,-35.228  208.838,-35.228  C  183.394,-41.198  140.613,-47.585  74.409,-47.585  C  8.205,-47.585  -34.576,-41.198  -60.02,-35.228  z " />
<path transform="translate( 0.54700000000001, -3.898 )" style="stroke: hsl(107.6, 55%, 50%);" id="1209"  d=" M  -58.979,-33.724  C  -58.979,-33.724  -48.497,-66.294  74.234,-66.293  C  196.965,-66.294  207.447,-33.724  207.447,-33.724  C  181.677,-39.85  139.281,-46.294  74.234,-46.293  C  9.187,-46.294  -33.209,-39.85  -58.979,-33.724  z " />
<path transform="translate( 0.718, -5.181 )" style="stroke: hsl(134.5, 55%, 50%);" id="1513"  d=" M  -57.784,-32.255  C  -57.784,-32.255  -46.487,-65.011  74.063,-65.01  C  194.613,-65.011  205.91,-32.255  205.91,-32.255  C  179.964,-38.507  137.954,-45.011  74.063,-45.01  C  10.172,-45.011  -31.838,-38.507  -57.784,-32.255  z " />
<path transform="translate( 0.88200000000001, -6.455 )" style="stroke: hsl(161.4, 55%, 50%);" id="1817"  d=" M  -56.718,-30.752  C  -56.718,-30.752  -44.471,-63.736  73.899,-63.736  C  192.269,-63.736  204.516,-30.752  204.516,-30.752  C  179.82,-36.919  137.819,-43.736  73.899,-43.736  C  9.979,-43.736  -32.022,-36.919  -56.718,-30.752  z " />
<path transform="translate( 1.036, -7.718 )" style="stroke: hsl(188.3, 55%, 50%);" id="2121"  d=" M  -55.637,-29.253  C  -55.637,-29.253  -42.449,-62.473  73.745,-62.473  C  189.939,-62.473  203.127,-29.253  203.127,-29.253  C  178.112,-35.587  136.49,-42.473  73.745,-42.473  C  11,-42.473  -30.622,-35.587  -55.637,-29.253  z " />
<path transform="translate( 1.184, -8.973 )" style="stroke: hsl(215.2, 55%, 50%);" id="2425"  d=" M  -54.404,-27.789  C  -54.404,-27.789  -40.423,-61.219  73.597,-61.218  C  187.617,-61.219  201.598,-27.789  201.598,-27.789  C  176.409,-34.261  135.168,-41.219  73.597,-41.218  C  12.026,-41.219  -29.215,-34.261  -54.404,-27.789  z " />
<path transform="translate( 1.323, -10.217 )" style="stroke: hsl(242.1, 55%, 50%);" id="2729"  d=" M  -53.295,-26.29  C  -53.295,-26.29  -38.392,-59.974  73.458,-59.974  C  185.308,-59.974  200.211,-26.29  200.211,-26.29  C  176.222,-32.677  134.975,-39.974  73.458,-39.974  C  11.941,-39.974  -29.306,-32.677  -53.295,-26.29  z " />
<path transform="translate( 1.454, -11.452 )" style="stroke: hsl(269, 55%, 50%);" id="3033"  d=" M  -52.17,-24.793  C  -52.17,-24.793  -36.353,-58.74  73.327,-58.739  C  183.007,-58.74  198.824,-24.793  198.824,-24.793  C  174.523,-31.361  133.651,-38.74  73.327,-38.739  C  13.003,-38.74  -27.869,-31.361  -52.17,-24.793  z " />
<path transform="translate( 1.574, -12.674 )" style="stroke: hsl(295.9, 55%, 50%);" id="3337"  d=" M  -50.894,-23.331  C  -50.894,-23.331  -34.309,-57.514  73.207,-57.517  C  180.723,-57.514  197.308,-23.331  197.308,-23.331  C  172.837,-30.05  132.341,-37.515  73.207,-37.517  C  14.073,-37.515  -26.423,-30.05  -50.894,-23.331  z " />
    </g>
    <!-- End of group #collarstand -->
    
    <!-- Start of group #undercollar -->
    <g id="undercollar"  transform=" translate(149.03 125.192)  translate(1226.332 104.681) " >
        <path class="hidden" id="7"  d=" M  -144.03,-120.192  L  293.592,-120.192  L  293.592,-25.511  L  -144.03,-25.511  z " />
<path transform="translate( 0, 0 )" style="stroke: hsl(26.9, 55%, 50%);" id="298"  d=" M  -144.03,-61.254  L  -94.892,-27.83  C  -94.892,-27.83  -54.505,-50.191  74.781,-50.191  C  204.067,-50.191  244.454,-27.83  244.454,-27.83  L  293.592,-61.254  L  287.931,-90.716  C  234.643,-98.085  216.996,-120.191  74.781,-120.191  C  -67.434,-120.191  -85.081,-98.085  -138.369,-90.716  L  -144.03,-61.254  z " />
<path transform="translate( 0.18700000000001, -1.307 )" style="stroke: hsl(53.8, 55%, 50%);" id="602"  d=" M  -142.756,-59.569  L  -93.464,-26.341  C  -93.464,-26.341  -52.506,-48.885  74.594,-48.884  C  201.694,-48.885  242.652,-26.341  242.652,-26.341  L  291.944,-59.569  L  286.411,-89.055  C  233.457,-96.512  214.404,-118.884  74.594,-118.884  C  -65.216,-118.884  -84.269,-96.512  -137.223,-89.055  L  -142.756,-59.569  z " />
<path transform="translate( 0.372, -2.606 )" style="stroke: hsl(80.7, 55%, 50%);" id="906"  d=" M  -141.481,-57.869  L  -92.031,-24.847  C  -92.031,-24.847  -50.505,-47.585  74.409,-47.585  C  199.323,-47.585  240.849,-24.847  240.849,-24.847  L  290.299,-57.869  L  284.897,-87.379  C  232.275,-94.93  211.814,-117.585  74.409,-117.585  C  -62.996,-117.585  -83.457,-94.93  -136.079,-87.379  L  -141.481,-57.869  z " />
<path transform="translate( 0.54700000000001, -3.898 )" style="stroke: hsl(107.6, 55%, 50%);" id="1210"  d=" M  -140.199,-56.161  L  -90.587,-23.353  C  -90.587,-23.353  -48.497,-46.294  74.234,-46.293  C  196.965,-46.294  239.055,-23.353  239.055,-23.353  L  288.667,-56.161  L  283.402,-85.697  C  231.11,-93.346  209.238,-116.294  74.234,-116.294  C  -60.77,-116.294  -82.642,-93.346  -134.934,-85.697  L  -140.199,-56.161  z " />
<path transform="translate( 0.718, -5.181 )" style="stroke: hsl(134.5, 55%, 50%);" id="1514"  d=" M  -138.916,-54.447  L  -89.136,-21.857  C  -89.136,-21.857  -46.487,-45.011  74.063,-45.01  C  194.613,-45.011  237.262,-21.857  237.262,-21.857  L  287.042,-54.447  L  281.917,-84.006  C  229.954,-91.757  206.668,-115.011  74.063,-115.011  C  -58.542,-115.011  -81.828,-91.757  -133.791,-84.006  L  -138.916,-54.447  z " />
<path transform="translate( 0.88200000000001, -6.455 )" style="stroke: hsl(161.4, 55%, 50%);" id="1818"  d=" M  -137.627,-52.72  L  -87.676,-20.359  C  -87.676,-20.359  -44.471,-43.736  73.899,-43.736  C  192.269,-43.736  235.474,-20.359  235.474,-20.359  L  285.425,-52.72  L  280.445,-82.305  C  228.808,-90.163  204.106,-113.737  73.899,-113.737  C  -56.308,-113.737  -81.01,-90.163  -132.647,-82.305  L  -137.627,-52.72  z " />
<path transform="translate( 1.036, -7.718 )" style="stroke: hsl(188.3, 55%, 50%);" id="2122"  d=" M  -136.331,-50.984  L  -86.206,-18.86  C  -86.206,-18.86  -42.449,-42.473  73.745,-42.473  C  189.939,-42.473  233.696,-18.86  233.696,-18.86  L  283.821,-50.984  L  278.992,-80.594  C  227.68,-88.564  201.558,-112.473  73.745,-112.473  C  -54.068,-112.473  -80.19,-88.564  -131.502,-80.594  L  -136.331,-50.984  z " />
<path transform="translate( 1.184, -8.973 )" style="stroke: hsl(215.2, 55%, 50%);" id="2426"  d=" M  -135.031,-49.236  L  -84.724,-17.358  C  -84.724,-17.358  -40.423,-41.219  73.597,-41.218  C  187.617,-41.219  231.918,-17.358  231.918,-17.358  L  282.225,-49.236  L  277.552,-78.87  C  226.563,-86.957  199.019,-111.217  73.597,-111.217  C  -51.825,-111.217  -79.369,-86.957  -130.358,-78.87  L  -135.031,-49.236  z " />
<path transform="translate( 1.323, -10.217 )" style="stroke: hsl(242.1, 55%, 50%);" id="2730"  d=" M  -133.725,-47.477  L  -83.232,-15.853  C  -83.232,-15.853  -38.392,-39.974  73.458,-39.974  C  185.308,-39.974  230.148,-15.853  230.148,-15.853  L  280.641,-47.477  L  276.13,-77.137  C  225.462,-85.346  196.493,-109.973  73.458,-109.974  C  -49.577,-109.973  -78.546,-85.346  -129.214,-77.137  L  -133.725,-47.477  z " />
<path transform="translate( 1.454, -11.452 )" style="stroke: hsl(269, 55%, 50%);" id="3034"  d=" M  -132.413,-45.709  L  -81.729,-14.347  C  -81.729,-14.347  -36.353,-38.74  73.327,-38.739  C  183.007,-38.74  228.383,-14.347  228.383,-14.347  L  279.067,-45.709  L  274.722,-75.394  C  224.373,-83.73  193.975,-108.739  73.327,-108.739  C  -47.321,-108.739  -77.719,-83.73  -128.068,-75.394  L  -132.413,-45.709  z " />
<path transform="translate( 1.574, -12.674 )" style="stroke: hsl(295.9, 55%, 50%);" id="3338"  d=" M  -131.094,-43.926  L  -80.212,-12.837  C  -80.212,-12.837  -34.309,-37.514  73.207,-37.517  C  180.723,-37.514  226.626,-12.837  226.626,-12.837  L  277.508,-43.926  L  273.337,-73.636  C  223.305,-82.106  191.475,-107.517  73.207,-107.517  C  -45.061,-107.517  -76.891,-82.106  -126.923,-73.636  L  -131.094,-43.926  z " />
    </g>
    <!-- End of group #undercollar -->
    
    <!-- Start of group #topsleeve -->
    <g id="topsleeve"  transform=" translate(151.512 5)  translate(580.521 0) " >
        <path class="hidden" id="8"  d=" M  -146.512,0  L  130.233,0  L  130.233,711.452  L  -146.512,711.452  z " />
<path transform="translate( 0, 0 )" style="stroke: hsl(26.9, 55%, 50%);" id="299"  d=" M  117.21,410  C  125.145,365  130.233,259.234  130.233,194.425  C  130.233,129.616  117.21,64.808  117.21,64.808  C  117.21,64.808  73.256,0  0,0  C  -73.256,0  -107.443,64.808  -117.21,116.655  C  -126.977,168.502  -131.861,194.425  -146.512,194.425  C  -146.512,194.425  -136.475,351.187  -130.233,410  L  -99.022,704.067  L  104.286,711.452  L  117.517,638.147  L  81.677,611.519  L  117.21,410  z " />
<path transform="translate( 0, 0 )" style="stroke: hsl(53.8, 55%, 50%);" id="603"  d=" M  117.21,410  C  125.145,365  130.233,259.234  130.233,194.425  C  130.233,129.616  117.21,64.808  117.21,64.808  C  117.21,64.808  73.256,0  0,0  C  -73.256,0  -107.443,64.808  -117.21,116.655  C  -126.977,168.502  -131.861,194.425  -146.512,194.425  C  -146.512,194.425  -136.475,351.187  -130.233,410  L  -99.022,704.067  L  104.286,711.452  L  117.517,638.147  L  81.677,611.519  L  117.21,410  z " />
<path transform="translate( 0, 0 )" style="stroke: hsl(80.7, 55%, 50%);" id="907"  d=" M  117.21,410  C  125.145,365  130.233,259.234  130.233,194.425  C  130.233,129.616  117.21,64.808  117.21,64.808  C  117.21,64.808  73.256,0  0,0  C  -73.256,0  -107.443,64.808  -117.21,116.655  C  -126.977,168.502  -131.861,194.425  -146.512,194.425  C  -146.512,194.425  -136.475,351.187  -130.233,410  L  -99.022,704.067  L  104.286,711.452  L  117.517,638.147  L  81.677,611.519  L  117.21,410  z " />
<path transform="translate( 0, 0 )" style="stroke: hsl(107.6, 55%, 50%);" id="1211"  d=" M  117.21,410  C  125.145,365  130.233,259.234  130.233,194.425  C  130.233,129.616  117.21,64.808  117.21,64.808  C  117.21,64.808  73.256,0  0,0  C  -73.256,0  -107.443,64.808  -117.21,116.655  C  -126.977,168.502  -131.861,194.425  -146.512,194.425  C  -146.512,194.425  -136.475,351.187  -130.233,410  L  -99.022,704.067  L  104.286,711.452  L  117.517,638.147  L  81.677,611.519  L  117.21,410  z " />
<path transform="translate( 0, 0 )" style="stroke: hsl(134.5, 55%, 50%);" id="1515"  d=" M  117.21,410  C  125.145,365  130.233,259.234  130.233,194.425  C  130.233,129.616  117.21,64.808  117.21,64.808  C  117.21,64.808  73.256,0  0,0  C  -73.256,0  -107.443,64.808  -117.21,116.655  C  -126.977,168.502  -131.861,194.425  -146.512,194.425  C  -146.512,194.425  -136.475,351.187  -130.233,410  L  -99.022,704.067  L  104.286,711.452  L  117.517,638.147  L  81.677,611.519  L  117.21,410  z " />
<path transform="translate( 0, 0 )" style="stroke: hsl(161.4, 55%, 50%);" id="1819"  d=" M  117.21,410  C  125.145,365  130.233,259.234  130.233,194.425  C  130.233,129.616  117.21,64.808  117.21,64.808  C  117.21,64.808  73.256,0  0,0  C  -73.256,0  -107.443,64.808  -117.21,116.655  C  -126.977,168.502  -131.861,194.425  -146.512,194.425  C  -146.512,194.425  -136.475,351.187  -130.233,410  L  -99.022,704.067  L  104.286,711.452  L  117.517,638.147  L  81.677,611.519  L  117.21,410  z " />
<path transform="translate( 0, 0 )" style="stroke: hsl(188.3, 55%, 50%);" id="2123"  d=" M  117.21,410  C  125.145,365  130.233,259.234  130.233,194.425  C  130.233,129.616  117.21,64.808  117.21,64.808  C  117.21,64.808  73.256,0  0,0  C  -73.256,0  -107.443,64.808  -117.21,116.655  C  -126.977,168.502  -131.861,194.425  -146.512,194.425  C  -146.512,194.425  -136.475,351.187  -130.233,410  L  -99.022,704.067  L  104.286,711.452  L  117.517,638.147  L  81.677,611.519  L  117.21,410  z " />
<path transform="translate( 0, 0 )" style="stroke: hsl(215.2, 55%, 50%);" id="2427"  d=" M  117.21,410  C  125.145,365  130.233,259.234  130.233,194.425  C  130.233,129.616  117.21,64.808  117.21,64.808  C  117.21,64.808  73.256,0  0,0  C  -73.256,0  -107.443,64.808  -117.21,116.655  C  -126.977,168.502  -131.861,194.425  -146.512,194.425  C  -146.512,194.425  -136.475,351.187  -130.233,410  L  -99.022,704.067  L  104.286,711.452  L  117.517,638.147  L  81.677,611.519  L  117.21,410  z " />
<path transform="translate( 0, 0 )" style="stroke: hsl(242.1, 55%, 50%);" id="2731"  d=" M  117.21,410  C  125.145,365  130.233,259.234  130.233,194.425  C  130.233,129.616  117.21,64.808  117.21,64.808  C  117.21,64.808  73.256,0  0,0  C  -73.256,0  -107.443,64.808  -117.21,116.655  C  -126.977,168.502  -131.861,194.425  -146.512,194.425  C  -146.512,194.425  -136.475,351.187  -130.233,410  L  -99.022,704.067  L  104.286,711.452  L  117.517,638.147  L  81.677,611.519  L  117.21,410  z " />
<path transform="translate( 0, 0 )" style="stroke: hsl(269, 55%, 50%);" id="3035"  d=" M  117.21,410  C  125.145,365  130.233,259.234  130.233,194.425  C  130.233,129.616  117.21,64.808  117.21,64.808  C  117.21,64.808  73.256,0  0,0  C  -73.256,0  -107.443,64.808  -117.21,116.655  C  -126.977,168.502  -131.861,194.425  -146.512,194.425  C  -146.512,194.425  -136.475,351.187  -130.233,410  L  -99.022,704.067  L  104.286,711.452  L  117.517,638.147  L  81.677,611.519  L  117.21,410  z " />
<path transform="translate( 0, 0 )" style="stroke: hsl(295.9, 55%, 50%);" id="3339"  d=" M  117.21,410  C  125.145,365  130.233,259.234  130.233,194.425  C  130.233,129.616  117.21,64.808  117.21,64.808  C  117.21,64.808  73.256,0  0,0  C  -73.256,0  -107.443,64.808  -117.21,116.655  C  -126.977,168.502  -131.861,194.425  -146.512,194.425  C  -146.512,194.425  -136.475,351.187  -130.233,410  L  -99.022,704.067  L  104.286,711.452  L  117.517,638.147  L  81.677,611.519  L  117.21,410  z " />
    </g>
    <!-- End of group #topsleeve -->
    
    <!-- Start of group #undersleeve -->
    <g id="undersleeve"  transform=" translate(92.908 -59.808)  translate(867.266 0) " >
        <path class="hidden" id="9"  d=" M  -87.908,64.808  L  119.429,64.808  L  119.429,712.447  L  -87.908,712.447  z " />
<path transform="translate( 0, 0 )" style="stroke: hsl(26.9, 55%, 50%);" id="300"  d=" M  64.312,710  L  104.237,712.447  L  117.544,638.152  L  81.677,611.519  L  117.21,410  C  125.145,365  109.669,259.002  104.187,194.425  C  98.705,129.848  87.907,64.808  87.907,64.808  C  69.267,128.049  -14.651,194.425  -58.605,194.425  L  -87.908,194.425  C  -87.908,194.425  -71.642,351.426  -68.373,410  L  -52.028,702.87  L  64.312,710  z " />
<path transform="translate( 0, 0 )" style="stroke: hsl(53.8, 55%, 50%);" id="604"  d=" M  64.312,710  L  104.237,712.447  L  117.544,638.152  L  81.677,611.519  L  117.21,410  C  125.145,365  109.669,259.002  104.187,194.425  C  98.705,129.848  87.907,64.808  87.907,64.808  C  69.267,128.049  -14.651,194.425  -58.605,194.425  L  -87.908,194.425  C  -87.908,194.425  -71.642,351.426  -68.373,410  L  -52.028,702.87  L  64.312,710  z " />
<path transform="translate( 0, 0 )" style="stroke: hsl(80.7, 55%, 50%);" id="908"  d=" M  64.312,710  L  104.237,712.447  L  117.544,638.152  L  81.677,611.519  L  117.21,410  C  125.145,365  109.669,259.002  104.187,194.425  C  98.705,129.848  87.907,64.808  87.907,64.808  C  69.267,128.049  -14.651,194.425  -58.605,194.425  L  -87.908,194.425  C  -87.908,194.425  -71.642,351.426  -68.373,410  L  -52.028,702.87  L  64.312,710  z " />
<path transform="translate( 0, 0 )" style="stroke: hsl(107.6, 55%, 50%);" id="1212"  d=" M  64.312,710  L  104.237,712.447  L  117.544,638.152  L  81.677,611.519  L  117.21,410  C  125.145,365  109.669,259.002  104.187,194.425  C  98.705,129.848  87.907,64.808  87.907,64.808  C  69.267,128.049  -14.651,194.425  -58.605,194.425  L  -87.908,194.425  C  -87.908,194.425  -71.642,351.426  -68.373,410  L  -52.028,702.87  L  64.312,710  z " />
<path transform="translate( 0, 0 )" style="stroke: hsl(134.5, 55%, 50%);" id="1516"  d=" M  64.312,710  L  104.237,712.447  L  117.544,638.152  L  81.677,611.519  L  117.21,410  C  125.145,365  109.669,259.002  104.187,194.425  C  98.705,129.848  87.907,64.808  87.907,64.808  C  69.267,128.049  -14.651,194.425  -58.605,194.425  L  -87.908,194.425  C  -87.908,194.425  -71.642,351.426  -68.373,410  L  -52.028,702.87  L  64.312,710  z " />
<path transform="translate( 0, 0 )" style="stroke: hsl(161.4, 55%, 50%);" id="1820"  d=" M  64.312,710  L  104.237,712.447  L  117.544,638.152  L  81.677,611.519  L  117.21,410  C  125.145,365  109.669,259.002  104.187,194.425  C  98.705,129.848  87.907,64.808  87.907,64.808  C  69.267,128.049  -14.651,194.425  -58.605,194.425  L  -87.908,194.425  C  -87.908,194.425  -71.642,351.426  -68.373,410  L  -52.028,702.87  L  64.312,710  z " />
<path transform="translate( 0, 0 )" style="stroke: hsl(188.3, 55%, 50%);" id="2124"  d=" M  64.312,710  L  104.237,712.447  L  117.544,638.152  L  81.677,611.519  L  117.21,410  C  125.145,365  109.669,259.002  104.187,194.425  C  98.705,129.848  87.907,64.808  87.907,64.808  C  69.267,128.049  -14.651,194.425  -58.605,194.425  L  -87.908,194.425  C  -87.908,194.425  -71.642,351.426  -68.373,410  L  -52.028,702.87  L  64.312,710  z " />
<path transform="translate( 0, 0 )" style="stroke: hsl(215.2, 55%, 50%);" id="2428"  d=" M  64.312,710  L  104.237,712.447  L  117.544,638.152  L  81.677,611.519  L  117.21,410  C  125.145,365  109.669,259.002  104.187,194.425  C  98.705,129.848  87.907,64.808  87.907,64.808  C  69.267,128.049  -14.651,194.425  -58.605,194.425  L  -87.908,194.425  C  -87.908,194.425  -71.642,351.426  -68.373,410  L  -52.028,702.87  L  64.312,710  z " />
<path transform="translate( 0, 0 )" style="stroke: hsl(242.1, 55%, 50%);" id="2732"  d=" M  64.312,710  L  104.237,712.447  L  117.544,638.152  L  81.677,611.519  L  117.21,410  C  125.145,365  109.669,259.002  104.187,194.425  C  98.705,129.848  87.907,64.808  87.907,64.808  C  69.267,128.049  -14.651,194.425  -58.605,194.425  L  -87.908,194.425  C  -87.908,194.425  -71.642,351.426  -68.373,410  L  -52.028,702.87  L  64.312,710  z " />
<path transform="translate( 0, 0 )" style="stroke: hsl(269, 55%, 50%);" id="3036"  d=" M  64.312,710  L  104.237,712.447  L  117.544,638.152  L  81.677,611.519  L  117.21,410  C  125.145,365  109.669,259.002  104.187,194.425  C  98.705,129.848  87.907,64.808  87.907,64.808  C  69.267,128.049  -14.651,194.425  -58.605,194.425  L  -87.908,194.425  C  -87.908,194.425  -71.642,351.426  -68.373,410  L  -52.028,702.87  L  64.312,710  z " />
<path transform="translate( 0, 0 )" style="stroke: hsl(295.9, 55%, 50%);" id="3340"  d=" M  64.312,710  L  104.237,712.447  L  117.544,638.152  L  81.677,611.519  L  117.21,410  C  125.145,365  109.669,259.002  104.187,194.425  C  98.705,129.848  87.907,64.808  87.907,64.808  C  69.267,128.049  -14.651,194.425  -58.605,194.425  L  -87.908,194.425  C  -87.908,194.425  -71.642,351.426  -68.373,410  L  -52.028,702.87  L  64.312,710  z " />
    </g>
    <!-- End of group #undersleeve -->
    
    <!-- Start of group #pocket -->
    <g id="pocket"  transform=" translate(5 45)  translate(1226.332 253.548) " >
        <path class="hidden" id="10"  d=" M  0,-40  L  162,-40  L  162,196.388  L  0,196.388  z " />
<path transform="translate( 0, 0 )" style="stroke: hsl(26.9, 55%, 50%);" id="301"  d=" M  0,-40  L  0,163.988  C  -0,181.882  14.506,196.388  32.4,196.388  L  129.6,196.388  C  147.494,196.388  162,181.882  162,163.988  L  162,-40  z " />
<path transform="translate( 0, 0 )" style="stroke: hsl(53.8, 55%, 50%);" id="605"  d=" M  0,-40  L  0,163.988  C  -0,181.882  14.506,196.388  32.4,196.388  L  129.6,196.388  C  147.494,196.388  162,181.882  162,163.988  L  162,-40  z " />
<path transform="translate( 0, 0 )" style="stroke: hsl(80.7, 55%, 50%);" id="909"  d=" M  0,-40  L  0,163.988  C  -0,181.882  14.506,196.388  32.4,196.388  L  129.6,196.388  C  147.494,196.388  162,181.882  162,163.988  L  162,-40  z " />
<path transform="translate( 0, 0 )" style="stroke: hsl(107.6, 55%, 50%);" id="1213"  d=" M  0,-40  L  0,163.988  C  -0,181.882  14.506,196.388  32.4,196.388  L  129.6,196.388  C  147.494,196.388  162,181.882  162,163.988  L  162,-40  z " />
<path transform="translate( 0, 0 )" style="stroke: hsl(134.5, 55%, 50%);" id="1517"  d=" M  0,-40  L  0,163.988  C  -0,181.882  14.506,196.388  32.4,196.388  L  129.6,196.388  C  147.494,196.388  162,181.882  162,163.988  L  162,-40  z " />
<path transform="translate( 0, 0 )" style="stroke: hsl(161.4, 55%, 50%);" id="1821"  d=" M  0,-40  L  0,163.988  C  -0,181.882  14.506,196.388  32.4,196.388  L  129.6,196.388  C  147.494,196.388  162,181.882  162,163.988  L  162,-40  z " />
<path transform="translate( 0, 0 )" style="stroke: hsl(188.3, 55%, 50%);" id="2125"  d=" M  0,-40  L  0,163.988  C  -0,181.882  14.506,196.388  32.4,196.388  L  129.6,196.388  C  147.494,196.388  162,181.882  162,163.988  L  162,-40  z " />
<path transform="translate( 0, 0 )" style="stroke: hsl(215.2, 55%, 50%);" id="2429"  d=" M  0,-40  L  0,163.988  C  -0,181.882  14.506,196.388  32.4,196.388  L  129.6,196.388  C  147.494,196.388  162,181.882  162,163.988  L  162,-40  z " />
<path transform="translate( 0, 0 )" style="stroke: hsl(242.1, 55%, 50%);" id="2733"  d=" M  0,-40  L  0,163.988  C  -0,181.882  14.506,196.388  32.4,196.388  L  129.6,196.388  C  147.494,196.388  162,181.882  162,163.988  L  162,-40  z " />
<path transform="translate( 0, 0 )" style="stroke: hsl(269, 55%, 50%);" id="3037"  d=" M  0,-40  L  0,163.988  C  -0,181.882  14.506,196.388  32.4,196.388  L  129.6,196.388  C  147.494,196.388  162,181.882  162,163.988  L  162,-40  z " />
<path transform="translate( 0, 0 )" style="stroke: hsl(295.9, 55%, 50%);" id="3341"  d=" M  0,-40  L  0,163.988  C  -0,181.882  14.506,196.388  32.4,196.388  L  129.6,196.388  C  147.494,196.388  162,181.882  162,163.988  L  162,-40  z " />
    </g>
    <!-- End of group #pocket -->
    
    <!-- Start of group #chestPocketWelt -->
    <g id="chestPocketWelt"  transform=" translate(6.975 20)  translate(1510.31 209.362) " >
        <path class="hidden" id="11"  d=" M  -1.975,-15  L  105,-15  L  105,15  L  -1.975,15  z " />
<path transform="translate( 0, 0 )" style="stroke: hsl(26.9, 55%, 50%);" id="302"  d=" M  -1.975,15  L  103.025,15  L  105,0  L  103.025,-15  L  -1.975,-15  L  0,0  z " />
<path transform="translate( 0, 0 )" style="stroke: hsl(53.8, 55%, 50%);" id="606"  d=" M  -1.975,15  L  103.025,15  L  105,0  L  103.025,-15  L  -1.975,-15  L  0,0  z " />
<path transform="translate( 0, 0 )" style="stroke: hsl(80.7, 55%, 50%);" id="910"  d=" M  -1.975,15  L  103.025,15  L  105,0  L  103.025,-15  L  -1.975,-15  L  0,0  z " />
<path transform="translate( 0, 0 )" style="stroke: hsl(107.6, 55%, 50%);" id="1214"  d=" M  -1.975,15  L  103.025,15  L  105,0  L  103.025,-15  L  -1.975,-15  L  0,0  z " />
<path transform="translate( 0, 0 )" style="stroke: hsl(134.5, 55%, 50%);" id="1518"  d=" M  -1.975,15  L  103.025,15  L  105,0  L  103.025,-15  L  -1.975,-15  L  0,0  z " />
<path transform="translate( 0, 0 )" style="stroke: hsl(161.4, 55%, 50%);" id="1822"  d=" M  -1.975,15  L  103.025,15  L  105,0  L  103.025,-15  L  -1.975,-15  L  0,0  z " />
<path transform="translate( 0, 0 )" style="stroke: hsl(188.3, 55%, 50%);" id="2126"  d=" M  -1.975,15  L  103.025,15  L  105,0  L  103.025,-15  L  -1.975,-15  L  0,0  z " />
<path transform="translate( 0, 0 )" style="stroke: hsl(215.2, 55%, 50%);" id="2430"  d=" M  -1.975,15  L  103.025,15  L  105,0  L  103.025,-15  L  -1.975,-15  L  0,0  z " />
<path transform="translate( 0, 0 )" style="stroke: hsl(242.1, 55%, 50%);" id="2734"  d=" M  -1.975,15  L  103.025,15  L  105,0  L  103.025,-15  L  -1.975,-15  L  0,0  z " />
<path transform="translate( 0, 0 )" style="stroke: hsl(269, 55%, 50%);" id="3038"  d=" M  -1.975,15  L  103.025,15  L  105,0  L  103.025,-15  L  -1.975,-15  L  0,0  z " />
<path transform="translate( 0, 0 )" style="stroke: hsl(295.9, 55%, 50%);" id="3342"  d=" M  -1.975,15  L  103.025,15  L  105,0  L  103.025,-15  L  -1.975,-15  L  0,0  z " />
    </g>
    <!-- End of group #chestPocketWelt -->
    
    <!-- Start of group #chestPocketBag -->
    <g id="chestPocketBag"  transform=" translate(5 22.773)  translate(1226.332 499.936) " >
        <path class="hidden" id="12"  d=" M  0,-17.773  L  135,-17.773  L  135,117.773  L  0,117.773  z " />
<path transform="translate( 0, 0 )" style="stroke: hsl(26.9, 55%, 50%);" id="303"  d=" M  0,40  L  0,0  L  135,-17.773  L  135,40  M  135,60  L  135,117.773  L  0,100  L  0,60 " />
<path transform="translate( 0, 0 )" style="stroke: hsl(53.8, 55%, 50%);" id="607"  d=" M  0,40  L  0,0  L  135,-17.773  L  135,40  M  135,60  L  135,117.773  L  0,100  L  0,60 " />
<path transform="translate( 0, 0 )" style="stroke: hsl(80.7, 55%, 50%);" id="911"  d=" M  0,40  L  0,0  L  135,-17.773  L  135,40  M  135,60  L  135,117.773  L  0,100  L  0,60 " />
<path transform="translate( 0, 0 )" style="stroke: hsl(107.6, 55%, 50%);" id="1215"  d=" M  0,40  L  0,0  L  135,-17.773  L  135,40  M  135,60  L  135,117.773  L  0,100  L  0,60 " />
<path transform="translate( 0, 0 )" style="stroke: hsl(134.5, 55%, 50%);" id="1519"  d=" M  0,40  L  0,0  L  135,-17.773  L  135,40  M  135,60  L  135,117.773  L  0,100  L  0,60 " />
<path transform="translate( 0, 0 )" style="stroke: hsl(161.4, 55%, 50%);" id="1823"  d=" M  0,40  L  0,0  L  135,-17.773  L  135,40  M  135,60  L  135,117.773  L  0,100  L  0,60 " />
<path transform="translate( 0, 0 )" style="stroke: hsl(188.3, 55%, 50%);" id="2127"  d=" M  0,40  L  0,0  L  135,-17.773  L  135,40  M  135,60  L  135,117.773  L  0,100  L  0,60 " />
<path transform="translate( 0, 0 )" style="stroke: hsl(215.2, 55%, 50%);" id="2431"  d=" M  0,40  L  0,0  L  135,-17.773  L  135,40  M  135,60  L  135,117.773  L  0,100  L  0,60 " />
<path transform="translate( 0, 0 )" style="stroke: hsl(242.1, 55%, 50%);" id="2735"  d=" M  0,40  L  0,0  L  135,-17.773  L  135,40  M  135,60  L  135,117.773  L  0,100  L  0,60 " />
<path transform="translate( 0, 0 )" style="stroke: hsl(269, 55%, 50%);" id="3039"  d=" M  0,40  L  0,0  L  135,-17.773  L  135,40  M  135,60  L  135,117.773  L  0,100  L  0,60 " />
<path transform="translate( 0, 0 )" style="stroke: hsl(295.9, 55%, 50%);" id="3343"  d=" M  0,40  L  0,0  L  135,-17.773  L  135,40  M  135,60  L  135,117.773  L  0,100  L  0,60 " />
    </g>
    <!-- End of group #chestPocketBag -->
    
    <!-- Start of group #innerPocketWelt -->
    <g id="innerPocketWelt"  transform=" translate(5 5)  translate(1398.332 253.548) " >
        <path class="hidden" id="13"  d=" M  0,0  L  155,0  L  155,10  L  0,10  z " />
<path transform="translate( 0, 0 )" style="stroke: hsl(26.9, 55%, 50%);" id="304"  d=" M  0,0  L  155,0  L  155,10  L  0,10  z " />
<path transform="translate( 0, 0 )" style="stroke: hsl(53.8, 55%, 50%);" id="608"  d=" M  0,0  L  155,0  L  155,10  L  0,10  z " />
<path transform="translate( 0, 0 )" style="stroke: hsl(80.7, 55%, 50%);" id="912"  d=" M  0,0  L  155,0  L  155,10  L  0,10  z " />
<path transform="translate( 0, 0 )" style="stroke: hsl(107.6, 55%, 50%);" id="1216"  d=" M  0,0  L  155,0  L  155,10  L  0,10  z " />
<path transform="translate( 0, 0 )" style="stroke: hsl(134.5, 55%, 50%);" id="1520"  d=" M  0,0  L  155,0  L  155,10  L  0,10  z " />
<path transform="translate( 0, 0 )" style="stroke: hsl(161.4, 55%, 50%);" id="1824"  d=" M  0,0  L  155,0  L  155,10  L  0,10  z " />
<path transform="translate( 0, 0 )" style="stroke: hsl(188.3, 55%, 50%);" id="2128"  d=" M  0,0  L  155,0  L  155,10  L  0,10  z " />
<path transform="translate( 0, 0 )" style="stroke: hsl(215.2, 55%, 50%);" id="2432"  d=" M  0,0  L  155,0  L  155,10  L  0,10  z " />
<path transform="translate( 0, 0 )" style="stroke: hsl(242.1, 55%, 50%);" id="2736"  d=" M  0,0  L  155,0  L  155,10  L  0,10  z " />
<path transform="translate( 0, 0 )" style="stroke: hsl(269, 55%, 50%);" id="3040"  d=" M  0,0  L  155,0  L  155,10  L  0,10  z " />
<path transform="translate( 0, 0 )" style="stroke: hsl(295.9, 55%, 50%);" id="3344"  d=" M  0,0  L  155,0  L  155,10  L  0,10  z " />
    </g>
    <!-- End of group #innerPocketWelt -->
    
    <!-- Start of group #innerPocketBag -->
    <g id="innerPocketBag"  transform=" translate(5 5)  translate(1398.332 273.548) " >
        <path class="hidden" id="14"  d=" M  0,0  L  155,0  L  155,100  L  0,100  z " />
<path transform="translate( 0, 0 )" style="stroke: hsl(26.9, 55%, 50%);" id="305"  d=" M  0,40  L  0,0  L  155,0  L  155,40  M  155,60  L  155,100  L  0,100  L  0,60 " />
<path transform="translate( 0, 0 )" style="stroke: hsl(53.8, 55%, 50%);" id="609"  d=" M  0,40  L  0,0  L  155,0  L  155,40  M  155,60  L  155,100  L  0,100  L  0,60 " />
<path transform="translate( 0, 0 )" style="stroke: hsl(80.7, 55%, 50%);" id="913"  d=" M  0,40  L  0,0  L  155,0  L  155,40  M  155,60  L  155,100  L  0,100  L  0,60 " />
<path transform="translate( 0, 0 )" style="stroke: hsl(107.6, 55%, 50%);" id="1217"  d=" M  0,40  L  0,0  L  155,0  L  155,40  M  155,60  L  155,100  L  0,100  L  0,60 " />
<path transform="translate( 0, 0 )" style="stroke: hsl(134.5, 55%, 50%);" id="1521"  d=" M  0,40  L  0,0  L  155,0  L  155,40  M  155,60  L  155,100  L  0,100  L  0,60 " />
<path transform="translate( 0, 0 )" style="stroke: hsl(161.4, 55%, 50%);" id="1825"  d=" M  0,40  L  0,0  L  155,0  L  155,40  M  155,60  L  155,100  L  0,100  L  0,60 " />
<path transform="translate( 0, 0 )" style="stroke: hsl(188.3, 55%, 50%);" id="2129"  d=" M  0,40  L  0,0  L  155,0  L  155,40  M  155,60  L  155,100  L  0,100  L  0,60 " />
<path transform="translate( 0, 0 )" style="stroke: hsl(215.2, 55%, 50%);" id="2433"  d=" M  0,40  L  0,0  L  155,0  L  155,40  M  155,60  L  155,100  L  0,100  L  0,60 " />
<path transform="translate( 0, 0 )" style="stroke: hsl(242.1, 55%, 50%);" id="2737"  d=" M  0,40  L  0,0  L  155,0  L  155,40  M  155,60  L  155,100  L  0,100  L  0,60 " />
<path transform="translate( 0, 0 )" style="stroke: hsl(269, 55%, 50%);" id="3041"  d=" M  0,40  L  0,0  L  155,0  L  155,40  M  155,60  L  155,100  L  0,100  L  0,60 " />
<path transform="translate( 0, 0 )" style="stroke: hsl(295.9, 55%, 50%);" id="3345"  d=" M  0,40  L  0,0  L  155,0  L  155,40  M  155,60  L  155,100  L  0,100  L  0,60 " />
    </g>
    <!-- End of group #innerPocketBag -->
    
    <!-- Start of group #innerPocketFacingExtension -->
    <g id="innerPocketFacingExtension" >
    </g>
    <!-- End of group #innerPocketFacingExtension -->
    
    <!-- Start of group #sampler-back -->
    <g id="sampler-back" >
    </g>
    <!-- End of group #sampler-back -->
    
    <!-- Start of group #sampler-front -->
    <g id="sampler-front" >
    </g>
    <!-- End of group #sampler-front -->
    
    <!-- Start of group #sampler-side -->
    <g id="sampler-side" >
    </g>
    <!-- End of group #sampler-side -->
    
    <!-- Start of group #sampler-collar -->
    <g id="sampler-collar" >
    </g>
    <!-- End of group #sampler-collar -->
    
    <!-- Start of group #sampler-collarstand -->
    <g id="sampler-collarstand" >
    </g>
    <!-- End of group #sampler-collarstand -->
    
    <!-- Start of group #sampler-undercollar -->
    <g id="sampler-undercollar" >
    </g>
    <!-- End of group #sampler-undercollar -->
    
    <!-- Start of group #sampler-topsleeve -->
    <g id="sampler-topsleeve" >
    </g>
    <!-- End of group #sampler-topsleeve -->
    
    <!-- Start of group #sampler-undersleeve -->
    <g id="sampler-undersleeve" >
    </g>
    <!-- End of group #sampler-undersleeve -->
    
    <!-- Start of group #sampler-pocket -->
    <g id="sampler-pocket" >
    </g>
    <!-- End of group #sampler-pocket -->
    
    <!-- Start of group #sampler-chestPocketWelt -->
    <g id="sampler-chestPocketWelt" >
    </g>
    <!-- End of group #sampler-chestPocketWelt -->
    
    <!-- Start of group #sampler-chestPocketBag -->
    <g id="sampler-chestPocketBag" >
    </g>
    <!-- End of group #sampler-chestPocketBag -->
    
    <!-- Start of group #sampler-innerPocketWelt -->
    <g id="sampler-innerPocketWelt" >
    </g>
    <!-- End of group #sampler-innerPocketWelt -->
    
    <!-- Start of group #sampler-innerPocketBag -->
    <g id="sampler-innerPocketBag" >
    </g>
    <!-- End of group #sampler-innerPocketBag -->
</g>
<!-- End of group #patternContainer -->

</svg>

