<?xml version="1.0" encoding="UTF-8" standalone="no"?>
<!-- Created with Inkscape (http://www.inkscape.org/) -->

<svg
   xmlns:svg="http://www.w3.org/2000/svg"
   xmlns="http://www.w3.org/2000/svg"
   version="1.1"
   width="1000"
   height="650"
   id="svg4180">
  <defs
     id="defs4182">
    <marker
       refX="0"
       refY="0"
       orient="auto"
       id="Arrow1Mend"
       style="overflow:visible">
      <path
         d="M 0,0 5,-5 -12.5,0 5,5 0,0 z"
         transform="matrix(-0.4,0,0,-0.4,-4,0)"
         id="path4844"
         style="fill-rule:evenodd;stroke:#000000;stroke-width:1pt;marker-start:none" />
    </marker>
    <marker
       refX="0"
       refY="0"
       orient="auto"
       id="Arrow1Mstart"
       style="overflow:visible">
      <path
         d="M 0,0 5,-5 -12.5,0 5,5 0,0 z"
         transform="matrix(0.4,0,0,0.4,4,0)"
         id="path4841"
         style="fill-rule:evenodd;stroke:#000000;stroke-width:1pt;marker-start:none" />
    </marker>
    <marker
       refX="0"
       refY="0"
       orient="auto"
       id="Arrow1Mstartz"
       style="overflow:visible">
      <path
         d="M 0,0 5,-5 -12.5,0 5,5 0,0 z"
         transform="matrix(0.4,0,0,0.4,4,0)"
         id="path5479"
         style="fill:#ff5b77;fill-rule:evenodd;stroke:#ff5b77;stroke-width:1pt;marker-start:none" />
    </marker>
    <marker
       refX="0"
       refY="0"
       orient="auto"
       id="Arrow1Mends"
       style="overflow:visible">
      <path
         d="M 0,0 5,-5 -12.5,0 5,5 0,0 z"
         transform="matrix(-0.4,0,0,-0.4,-4,0)"
         id="path5482"
         style="fill:#ff5b77;fill-rule:evenodd;stroke:#ff5b77;stroke-width:1pt;marker-start:none" />
    </marker>
    <marker
       refX="0"
       refY="0"
       orient="auto"
       id="Arrow1Mstartz-9"
       style="overflow:visible">
      <path
         d="M 0,0 5,-5 -12.5,0 5,5 0,0 z"
         transform="matrix(0.4,0,0,0.4,4,0)"
         id="path5479-7"
         style="fill:#ff5b77;fill-rule:evenodd;stroke:#ff5b77;stroke-width:1pt;marker-start:none" />
    </marker>
    <marker
       refX="0"
       refY="0"
       orient="auto"
       id="Arrow1Mends-9"
       style="overflow:visible">
      <path
         d="M 0,0 5,-5 -12.5,0 5,5 0,0 z"
         transform="matrix(-0.4,0,0,-0.4,-4,0)"
         id="path5482-4"
         style="fill:#ff5b77;fill-rule:evenodd;stroke:#ff5b77;stroke-width:1pt;marker-start:none" />
    </marker>
    <filter
       x="-0.22107"
       y="-0.0195955"
       width="1.44214"
       height="1.03919"
       color-interpolation-filters="sRGB"
       id="filter4104">
      <feGaussianBlur
         id="feGaussianBlur4106"
         stdDeviation="0.10464" />
    </filter>
  </defs>
  <g
     transform="translate(0,-402.362)"
     id="layer1">
    <g
       transform="matrix(2.54596,0,0,2.54596,-827.098,75.4813)"
       id="g5893" />
    <g
       transform="matrix(2.6244,0,0,2.6244,-875.141,53.3955)"
       id="g6512">
      <g
         id="g6514">
        <g
           transform="matrix(-1,0,0,1,1221.97,0)"
           id="g6520">
          <g
             transform="matrix(-0.992202,0,0,0.992202,1585.61,60.8423)"
             id="g4059">
            <g
               id="g4080">
              <rect
                 width="39.458"
                 height="207.494"
                 x="784.037"
                 y="93.5456"
                 id="rect3907"
                 style="fill:#86739c;stroke:#000000;stroke-width:1;stroke-linecap:round;stroke-linejoin:round;stroke-miterlimit:4;stroke-opacity:1;stroke-dasharray:none;stroke-dashoffset:0" />
              <path
                 d="M 802.437,94.1116 802.437,300.65"
                 id="path3909"
                 style="fill:#86739c;fill-opacity:1;stroke:#000000;stroke-width:0.5;stroke-linecap:round;stroke-linejoin:round;stroke-miterlimit:4;stroke-opacity:1;stroke-dasharray:none;stroke-dashoffset:0" />
              <path
                 d="M 799.156,90.4062 C 792.897,90.2288 784.75,92.4687 784.75,92.4688 L 746.188,108.625 C 753.827,127.842 756.038,149.391 753.219,161.938 756.208,171.089 757.313,192.227 757.438,207.812 757.69,239.125 751.437,304.25 751.438,304.25 768.239,304.693 786.011,304.749 802.745,304.668 803.281,304.665 802.901,305.154 803.437,305.151 804.568,305.145 812.528,304.647 813.66,304.64 829.189,304.541 837.771,304.345 853.406,304.25 853.406,304.25 847.184,239.125 847.438,207.812 847.563,192.227 848.636,171.089 851.625,161.938 848.806,149.391 851.048,127.842 858.688,108.625 L 823.688,94.625 C 823.688,94.625 810.22,89.8117 802.656,90.875 801.621,90.5971 800.436,90.4425 799.156,90.4062 z"
                 id="path3913"
                 style="fill:#653f95;fill-opacity:1;stroke:#000000;stroke-width:1;stroke-linecap:round;stroke-linejoin:round;stroke-miterlimit:4;stroke-opacity:1;stroke-dasharray:none;stroke-dashoffset:0" />
              <path
                 d="M 746.362,108.609 C 741.894,109.157 739.9,123.107 735.456,142.907 726.752,181.695 726.676,246.219 721.535,285.238 L 741.987,287.47 C 746.457,247.517 751.696,207.246 754.611,167.914 755.335,145.729 753.935,130.948 746.362,108.609 z"
                 id="path3915"
                 style="fill:#653f95;fill-opacity:1;stroke:#000000;stroke-width:1;stroke-linecap:round;stroke-linejoin:round;stroke-miterlimit:4;stroke-opacity:1;stroke-dasharray:none;stroke-dashoffset:0" />
              <path
                 d="M 754.538,145.6 C 766.071,194.178 761.053,254.199 761.053,304.092"
                 id="path3921"
                 style="fill:none;stroke:#000000;stroke-width:0.5;stroke-linecap:round;stroke-linejoin:round;stroke-miterlimit:4;stroke-opacity:1;stroke-dasharray:none;stroke-dashoffset:0" />
              <path
                 d="M 858.492,108.609 C 862.96,109.157 864.954,123.107 869.398,142.907 878.102,181.695 878.178,246.219 883.319,285.238 L 862.867,287.47 C 858.397,247.517 853.158,207.246 850.243,167.914 847.866,145.461 850.79,130.915 858.492,108.609 z"
                 id="path3941"
                 style="fill:#653f95;fill-opacity:1;stroke:#000000;stroke-width:1;stroke-linecap:round;stroke-linejoin:round;stroke-miterlimit:4;stroke-opacity:1;stroke-dasharray:none;stroke-dashoffset:0" />
              <path
                 d="M 849.888,147.443 C 838.909,195.685 843.801,254.64 843.801,304.092"
                 id="path3949"
                 style="fill:none;stroke:#000000;stroke-width:0.5;stroke-linecap:round;stroke-linejoin:round;stroke-miterlimit:4;stroke-opacity:1;stroke-dasharray:none;stroke-dashoffset:0" />
              <path
                 d="M 800.594,84.375 C 793.416,84.375 788.467,85.5215 785.281,87.1875 L 776.875,94.875 C 780.293,95.991 783.63,96.5408 786.875,96.75 786.885,96.7507 786.896,96.7493 786.906,96.75 796.72,95.9756 806.503,97.0871 816.312,96.75 816.323,96.7493 816.333,96.7507 816.344,96.75 819.592,96.5413 822.922,95.9923 826.344,94.875 L 817.969,87.1875 C 814.783,85.5215 809.834,84.375 802.656,84.375 802.315,84.375 801.967,84.3992 801.625,84.4062 801.283,84.3992 800.935,84.375 800.594,84.375 z"
                 id="path3969"
                 style="fill:#653f95;fill-opacity:1;stroke:#000000;stroke-width:1;stroke-linecap:round;stroke-linejoin:round;stroke-miterlimit:4;stroke-opacity:1;stroke-dasharray:none;stroke-dashoffset:0" />
              <path
                 d="M 802.438,96.468 802.438,267.424 C 802.438,277.768 802.107,295.465 803.196,304.454"
                 id="path4053"
                 style="fill:none;stroke:#000000;stroke-width:0.498719;stroke-linecap:round;stroke-linejoin:round;stroke-miterlimit:4;stroke-opacity:1;stroke-dasharray:none;stroke-dashoffset:0" />
              <path
                 d="M 851.559,135.649 C 862.417,161.5 866.542,236.159 874.034,286.414"
                 id="path4055"
                 style="fill:none;stroke:#000000;stroke-width:0.5;stroke-linecap:round;stroke-linejoin:round;stroke-miterlimit:4;stroke-opacity:1;stroke-dasharray:none;stroke-dashoffset:0" />
              <path
                 d="M 753.068,135.649 C 742.21,161.5 738.085,236.159 730.593,286.414"
                 id="path4057"
                 style="fill:none;stroke:#000000;stroke-width:0.5;stroke-linecap:round;stroke-linejoin:round;stroke-miterlimit:4;stroke-opacity:1;stroke-dasharray:none;stroke-dashoffset:0" />
            </g>
            <path
               d="M 802.251,285.913 802.66,286.181 803.178,305.203 801.998,304.533 802.251,285.913 z"
               transform="matrix(1.01927,0,0,1,-15.4486,0)"
               id="rect4093"
               style="fill:#000000;fill-opacity:0.381166;stroke:none;filter:url(#filter4104)" />
          </g>
          <path
             d="M 275.715,62.8571 C 279.526,120.667 277.992,177.825 276.191,234.278 274.087,300.272 269.667,365.303 266.485,429.286 263.511,489.074 268.979,548.365 274.286,606.429"
             transform="matrix(-0.381039,0,0,0.381039,888.507,132.97)"
             id="path6720"
             style="fill:none;stroke:#ff5b77;stroke-width:1.000001;stroke-linecap:round;stroke-linejoin:round;stroke-miterlimit:4;stroke-opacity:1;stroke-dasharray:none;stroke-dashoffset:0" />
          <path
             d="M 777.734,156.921 C 776.281,178.949 776.866,200.728 777.552,222.239 778.354,247.385 780.038,272.165 781.251,296.545 782.384,319.326 780.3,341.918 778.278,364.043"
             id="path6722"
             style="fill:none;stroke:#ff5b77;stroke-width:0.381039;stroke-linecap:round;stroke-linejoin:round;stroke-miterlimit:4;stroke-opacity:1;stroke-dasharray:none;stroke-dashoffset:0" />
          <path
             d="M 772.019,156.921 C 770.566,178.949 771.151,200.728 771.837,222.239 772.639,247.385 774.323,272.165 775.536,296.545 776.669,319.326 774.585,341.918 772.563,364.043"
             id="path6724"
             style="fill:none;stroke:#ff5b77;stroke-width:0.381039;stroke-linecap:round;stroke-linejoin:round;stroke-miterlimit:4;stroke-opacity:1;stroke-dasharray:none;stroke-dashoffset:0" />
          <path
             d="M 766.304,156.921 C 764.851,178.949 765.436,200.728 766.122,222.239 766.924,247.385 768.608,272.165 769.821,296.545 770.954,319.326 768.87,341.918 766.848,364.043"
             id="path6726"
             style="fill:none;stroke:#ff5b77;stroke-width:0.381039;stroke-linecap:round;stroke-linejoin:round;stroke-miterlimit:4;stroke-opacity:1;stroke-dasharray:none;stroke-dashoffset:0" />
          <path
             d="M 795.912,156.921 C 797.364,178.949 796.78,200.728 796.093,222.239 795.292,247.385 793.607,272.165 792.395,296.545 791.262,319.326 793.345,341.918 795.367,364.043"
             id="path6730"
             style="fill:none;stroke:#ff5b77;stroke-width:0.381039;stroke-linecap:round;stroke-linejoin:round;stroke-miterlimit:4;stroke-opacity:1;stroke-dasharray:none;stroke-dashoffset:0" />
          <path
             d="M 801.627,156.921 C 803.079,178.949 802.495,200.728 801.808,222.239 801.007,247.385 799.322,272.165 798.11,296.545 796.977,319.326 799.06,341.918 801.082,364.043"
             id="path6732"
             style="fill:none;stroke:#ff5b77;stroke-width:0.381039;stroke-linecap:round;stroke-linejoin:round;stroke-miterlimit:4;stroke-opacity:1;stroke-dasharray:none;stroke-dashoffset:0" />
          <path
             d="M 807.342,156.921 C 808.794,178.949 808.21,200.728 807.523,222.239 806.722,247.385 805.037,272.165 803.825,296.545 802.692,319.326 804.775,341.918 806.797,364.043"
             id="path6734"
             style="fill:none;stroke:#ff5b77;stroke-width:0.381039;stroke-linecap:round;stroke-linejoin:round;stroke-miterlimit:4;stroke-opacity:1;stroke-dasharray:none;stroke-dashoffset:0" />
          <path
             d="M 813.057,156.921 C 814.509,178.949 813.925,200.728 813.238,222.239 812.437,247.385 810.752,272.165 809.54,296.545 808.407,319.326 810.49,341.918 812.512,364.043"
             id="path6736"
             style="fill:none;stroke:#ff5b77;stroke-width:0.381039;stroke-linecap:round;stroke-linejoin:round;stroke-miterlimit:4;stroke-opacity:1;stroke-dasharray:none;stroke-dashoffset:0" />
          <g
             transform="matrix(-0.992202,0,0,0.992202,1403.16,60.8423)"
             id="g6738">
            <g
               id="g6740">
              <rect
                 width="39.458"
                 height="207.494"
                 x="784.037"
                 y="93.5456"
                 id="rect6742"
                 style="fill:#86739c;stroke:#000000;stroke-width:1;stroke-linecap:round;stroke-linejoin:round;stroke-miterlimit:4;stroke-opacity:1;stroke-dasharray:none;stroke-dashoffset:0" />
              <path
                 d="M 802.437,94.1116 802.437,300.65"
                 id="path6744"
                 style="fill:#86739c;fill-opacity:1;stroke:#000000;stroke-width:0.5;stroke-linecap:round;stroke-linejoin:round;stroke-miterlimit:4;stroke-opacity:1;stroke-dasharray:none;stroke-dashoffset:0" />
              <path
                 d="M 799.156,90.4062 C 792.897,90.2288 784.75,92.4687 784.75,92.4688 L 746.188,108.625 C 753.827,127.842 756.038,149.391 753.219,161.938 756.208,171.089 757.313,192.227 757.438,207.812 757.69,239.125 751.437,304.25 751.438,304.25 768.239,304.693 786.011,304.749 802.745,304.668 803.281,304.665 802.901,305.154 803.437,305.151 804.568,305.145 812.528,304.647 813.66,304.64 829.189,304.541 837.771,304.345 853.406,304.25 853.406,304.25 847.184,239.125 847.438,207.812 847.563,192.227 848.636,171.089 851.625,161.938 848.806,149.391 851.048,127.842 858.688,108.625 L 823.688,94.625 C 823.688,94.625 810.22,89.8117 802.656,90.875 801.621,90.5971 800.436,90.4425 799.156,90.4062 z"
                 id="path6746"
                 style="fill:#653f95;fill-opacity:1;stroke:#000000;stroke-width:1;stroke-linecap:round;stroke-linejoin:round;stroke-miterlimit:4;stroke-opacity:1;stroke-dasharray:none;stroke-dashoffset:0" />
              <path
                 d="M 746.362,108.609 C 741.894,109.157 739.9,123.107 735.456,142.907 726.752,181.695 726.676,246.219 721.535,285.238 L 741.987,287.47 C 746.457,247.517 751.696,207.246 754.611,167.914 755.335,145.729 753.935,130.948 746.362,108.609 z"
                 id="path6748"
                 style="fill:#653f95;fill-opacity:1;stroke:#000000;stroke-width:1;stroke-linecap:round;stroke-linejoin:round;stroke-miterlimit:4;stroke-opacity:1;stroke-dasharray:none;stroke-dashoffset:0" />
              <path
                 d="M 754.538,145.6 C 766.071,194.178 761.053,254.199 761.053,304.092"
                 id="path6750"
                 style="fill:none;stroke:#000000;stroke-width:0.5;stroke-linecap:round;stroke-linejoin:round;stroke-miterlimit:4;stroke-opacity:1;stroke-dasharray:none;stroke-dashoffset:0" />
              <path
                 d="M 858.492,108.609 C 862.96,109.157 864.954,123.107 869.398,142.907 878.102,181.695 878.178,246.219 883.319,285.238 L 862.867,287.47 C 858.397,247.517 853.158,207.246 850.243,167.914 847.866,145.461 850.79,130.915 858.492,108.609 z"
                 id="path6752"
                 style="fill:#653f95;fill-opacity:1;stroke:#000000;stroke-width:1;stroke-linecap:round;stroke-linejoin:round;stroke-miterlimit:4;stroke-opacity:1;stroke-dasharray:none;stroke-dashoffset:0" />
              <path
                 d="M 849.888,147.443 C 838.909,195.685 843.801,254.64 843.801,304.092"
                 id="path6754"
                 style="fill:none;stroke:#000000;stroke-width:0.5;stroke-linecap:round;stroke-linejoin:round;stroke-miterlimit:4;stroke-opacity:1;stroke-dasharray:none;stroke-dashoffset:0" />
              <path
                 d="M 800.594,84.375 C 793.416,84.375 788.467,85.5215 785.281,87.1875 L 776.875,94.875 C 780.293,95.991 783.63,96.5408 786.875,96.75 786.885,96.7507 786.896,96.7493 786.906,96.75 796.72,95.9756 806.503,97.0871 816.312,96.75 816.323,96.7493 816.333,96.7507 816.344,96.75 819.592,96.5413 822.922,95.9923 826.344,94.875 L 817.969,87.1875 C 814.783,85.5215 809.834,84.375 802.656,84.375 802.315,84.375 801.967,84.3992 801.625,84.4062 801.283,84.3992 800.935,84.375 800.594,84.375 z"
                 id="path6756"
                 style="fill:#653f95;fill-opacity:1;stroke:#000000;stroke-width:1;stroke-linecap:round;stroke-linejoin:round;stroke-miterlimit:4;stroke-opacity:1;stroke-dasharray:none;stroke-dashoffset:0" />
              <path
                 d="M 802.438,96.468 802.438,267.424 C 802.438,277.768 802.107,295.465 803.196,304.454"
                 id="path6758"
                 style="fill:none;stroke:#000000;stroke-width:0.498719;stroke-linecap:round;stroke-linejoin:round;stroke-miterlimit:4;stroke-opacity:1;stroke-dasharray:none;stroke-dashoffset:0" />
              <path
                 d="M 851.559,135.649 C 862.417,161.5 866.542,236.159 874.034,286.414"
                 id="path6760"
                 style="fill:none;stroke:#000000;stroke-width:0.5;stroke-linecap:round;stroke-linejoin:round;stroke-miterlimit:4;stroke-opacity:1;stroke-dasharray:none;stroke-dashoffset:0" />
              <path
                 d="M 753.068,135.649 C 742.21,161.5 738.085,236.159 730.593,286.414"
                 id="path6762"
                 style="fill:none;stroke:#000000;stroke-width:0.5;stroke-linecap:round;stroke-linejoin:round;stroke-miterlimit:4;stroke-opacity:1;stroke-dasharray:none;stroke-dashoffset:0" />
            </g>
            <path
               d="M 802.251,285.913 802.66,286.181 803.178,305.203 801.998,304.533 802.251,285.913 z"
               transform="matrix(1.01927,0,0,1,-15.4486,0)"
               id="path6764"
               style="fill:#000000;fill-opacity:0.381166;stroke:none;filter:url(#filter4104)" />
          </g>
          <path
             d="M 605.329,156.921 C 601.927,178.126 600.135,200.728 600.821,222.239 601.623,247.385 603.307,272.165 604.519,296.545 605.652,319.326 603.569,341.918 601.547,364.043"
             id="path6766"
             style="fill:none;stroke:#ff5b77;stroke-width:0.381039;stroke-linecap:round;stroke-linejoin:round;stroke-miterlimit:4;stroke-opacity:1;stroke-dasharray:none;stroke-dashoffset:0" />
          <path
             d="M 599.614,156.921 C 596.212,178.126 594.42,200.728 595.106,222.239 595.908,247.385 597.592,272.165 598.804,296.545 599.937,319.326 597.854,341.918 595.832,364.043"
             id="path7315"
             style="fill:none;stroke:#ff5b77;stroke-width:0.381039;stroke-linecap:round;stroke-linejoin:round;stroke-miterlimit:4;stroke-opacity:1;stroke-dasharray:none;stroke-dashoffset:0" />
          <path
             d="M 593.899,156.921 C 590.497,178.126 588.705,200.728 589.391,222.239 590.193,247.385 591.877,272.165 593.089,296.545 594.222,319.326 592.139,341.918 590.117,364.043"
             id="path7317"
             style="fill:none;stroke:#ff5b77;stroke-width:0.381039;stroke-linecap:round;stroke-linejoin:round;stroke-miterlimit:4;stroke-opacity:1;stroke-dasharray:none;stroke-dashoffset:0" />
          <path
             d="M 588.184,156.921 C 584.782,178.126 582.99,200.728 583.676,222.239 584.478,247.385 586.162,272.165 587.374,296.545 588.507,319.326 586.424,341.918 584.402,364.043"
             id="path7319"
             style="fill:none;stroke:#ff5b77;stroke-width:0.381039;stroke-linecap:round;stroke-linejoin:round;stroke-miterlimit:4;stroke-opacity:1;stroke-dasharray:none;stroke-dashoffset:0" />
          <path
             d="M 608.84,156.921 C 612.242,178.126 614.034,200.728 613.348,222.239 612.546,247.385 610.862,272.165 609.65,296.545 608.517,319.326 610.6,341.918 612.622,364.043"
             id="path7321"
             style="fill:none;stroke:#ff5b77;stroke-width:0.381039;stroke-linecap:round;stroke-linejoin:round;stroke-miterlimit:4;stroke-opacity:1;stroke-dasharray:none;stroke-dashoffset:0" />
          <path
             d="M 614.555,156.921 C 617.957,178.126 619.749,200.728 619.063,222.239 618.261,247.385 616.577,272.165 615.365,296.545 614.232,319.326 616.315,341.918 618.337,364.043"
             id="path7323"
             style="fill:none;stroke:#ff5b77;stroke-width:0.381039;stroke-linecap:round;stroke-linejoin:round;stroke-miterlimit:4;stroke-opacity:1;stroke-dasharray:none;stroke-dashoffset:0" />
          <path
             d="M 620.27,156.921 C 623.672,178.126 625.464,200.728 624.778,222.239 623.976,247.385 622.292,272.165 621.08,296.545 619.947,319.326 622.03,341.918 624.052,364.043"
             id="path7325"
             style="fill:none;stroke:#ff5b77;stroke-width:0.381039;stroke-linecap:round;stroke-linejoin:round;stroke-miterlimit:4;stroke-opacity:1;stroke-dasharray:none;stroke-dashoffset:0" />
          <path
             d="M 625.985,156.921 C 629.387,178.126 631.179,200.728 630.493,222.239 629.691,247.385 628.007,272.165 626.795,296.545 625.662,319.326 627.745,341.918 629.767,364.043"
             id="path7327"
             style="fill:none;stroke:#ff5b77;stroke-width:0.381039;stroke-linecap:round;stroke-linejoin:round;stroke-miterlimit:4;stroke-opacity:1;stroke-dasharray:none;stroke-dashoffset:0" />
        </g>
      </g>
    </g>
  </g>
</svg>
