<?xml version="1.0" encoding="UTF-8" standalone="no"?>
<svg
    xmlns="http://www.w3.org/2000/svg"
    xmlns:svg="http://www.w3.org/2000/svg"
    xmlns:xlink="http://www.w3.org/1999/xlink"
    xmlns:freesewing="http://freesewing.org/namespaces/freesewing" viewBox ="0 0 1664 784"
    width ="1664mm"
    height ="784mm"
    freesewing:version ="1.6.5"
    freesewing:origin ="joost.core.freesewing.org" 
>

<style type="text/css">
    <![CDATA[
    path { fill: none; stroke: #000000; stroke-opacity:1; stroke-width: 0.5; stroke-miterlimit:4; stroke-dashoffset:0; stroke-linecap:round; stroke-linejoin:round; }
    path.hidden { fill: none; stroke: none; }]]>
</style>


<!-- Start of group #patternContainer -->
<g id="patternContainer" >
    
    <!-- Start of group #backBlock -->
    <g id="backBlock" >
    </g>
    <!-- End of group #backBlock -->
    
    <!-- Start of group #frontBlock -->
    <g id="frontBlock" >
    </g>
    <!-- End of group #frontBlock -->
    
    <!-- Start of group #sleeveBlock -->
    <g id="sleeveBlock" >
    </g>
    <!-- End of group #sleeveBlock -->
    
    <!-- Start of group #topsleeveBlock -->
    <g id="topsleeveBlock" >
    </g>
    <!-- End of group #topsleeveBlock -->
    
    <!-- Start of group #undersleeveBlock -->
    <g id="undersleeveBlock" >
    </g>
    <!-- End of group #undersleeveBlock -->
    
    <!-- Start of group #back -->
    <g id="back"  transform=" translate(5 5)  translate(311.6 0) " >
        <path class="hidden" id="2"  d=" M  0,0  L  258.921,0  L  258.921,751.85  L  0,751.85  z " />
<path transform="translate( 0, 0 )" style="stroke: hsl(26.9, 55%, 50%);" id="290"  d=" M  5.4,20  C  5.4,20  84.058,19.814  86.777,0  L  232.5,20  C  231.14,29.907  220,110.083  220,155.125  C  220,200.167  227.359,247.359  245.125,265.125  C  227.359,282.891  206.64,415.042  206.64,490  C  206.64,509.333  208.605,528.667  210.963,548  L  251.207,556.198  C  255.421,580.75  258.921,608.304  258.921,635  L  258.921,751.85  L  11.25,751.85  L  11.25,635  C  11.25,586.667  -0,538.333  0,490  C  0,393.389  -0,296.778  0,200.167  C  0,110.083  5.4,20  5.4,20  z " />
<path transform="translate( 0, 0 )" style="stroke: hsl(53.8, 55%, 50%);" id="594"  d=" M  5.4,20  C  5.4,20  84.058,19.814  86.777,0  L  232.5,20  C  231.14,29.907  220,110.083  220,155.125  C  220,200.167  227.359,247.359  245.125,265.125  C  227.359,282.891  207.25,415.042  207.25,490  C  207.25,509.333  209.117,528.667  211.358,548  L  251.549,556.441  C  255.613,581.027  258.921,608.424  258.921,635  L  258.921,751.85  L  11.25,751.85  L  11.25,635  C  11.25,586.667  2.438,538.333  2.438,490  C  2.438,393.389  -0,296.778  0,200.167  C  0,110.083  5.4,20  5.4,20  z " />
<path transform="translate( 0, 0 )" style="stroke: hsl(80.7, 55%, 50%);" id="898"  d=" M  5.4,20  C  5.4,20  84.058,19.814  86.777,0  L  232.5,20  C  231.14,29.907  220,110.083  220,155.125  C  220,200.167  227.359,247.359  245.125,265.125  C  227.359,282.891  207.859,415.042  207.859,490  C  207.859,509.333  209.629,528.667  211.753,548  L  251.891,556.683  C  255.798,581.252  258.921,608.551  258.921,635  L  258.921,751.85  L  11.25,751.85  L  11.25,635  C  11.25,586.667  4.875,538.333  4.875,490  C  4.875,393.389  -0,296.778  0,200.167  C  0,110.083  5.4,20  5.4,20  z " />
<path transform="translate( 0, 0 )" style="stroke: hsl(107.6, 55%, 50%);" id="1202"  d=" M  5.4,20  C  5.4,20  84.058,19.814  86.777,0  L  232.5,20  C  231.14,29.907  220,110.083  220,155.125  C  220,200.167  227.359,247.359  245.125,265.125  C  227.359,282.891  208.468,415.042  208.468,490  C  208.468,509.333  210.14,528.667  212.147,548  L  252.23,556.925  C  255.98,581.479  258.921,608.68  258.921,635  L  258.921,751.85  L  11.25,751.85  L  11.25,635  C  11.25,586.667  7.313,538.333  7.313,490  C  7.313,393.389  -0,296.778  0,200.167  C  0,110.083  5.4,20  5.4,20  z " />
<path transform="translate( 0, 0 )" style="stroke: hsl(134.5, 55%, 50%);" id="1506"  d=" M  5.4,20  C  5.4,20  84.058,19.814  86.777,0  L  232.5,20  C  231.14,29.907  220,110.083  220,155.125  C  220,200.167  227.359,247.359  245.125,265.125  C  227.359,282.891  209.078,415.042  209.078,490  C  209.078,509.333  210.653,528.667  212.543,548  L  252.554,557.221  C  256.162,581.715  258.921,608.805  258.921,635  L  258.921,751.85  L  11.25,751.85  L  11.25,635  C  11.25,586.667  9.75,538.333  9.75,490  C  9.75,393.389  -0,296.778  0,200.167  C  0,110.083  5.4,20  5.4,20  z " />
<path transform="translate( 0, 0 )" style="stroke: hsl(161.4, 55%, 50%);" id="1810"  d=" M  5.4,20  C  5.4,20  84.058,19.814  86.777,0  L  232.5,20  C  231.14,29.907  220,110.083  220,155.125  C  220,200.167  227.359,247.359  245.125,265.125  C  227.359,282.891  209.687,415.042  209.687,490  C  209.687,509.333  211.164,528.667  212.937,548  L  252.889,557.463  C  256.346,581.968  258.921,608.926  258.921,635  L  258.921,751.85  L  11.25,751.85  L  11.25,635  C  11.25,586.667  12.188,538.333  12.188,490  C  12.188,393.389  -0,296.778  0,200.167  C  0,110.083  5.4,20  5.4,20  z " />
<path transform="translate( 0, 0 )" style="stroke: hsl(188.3, 55%, 50%);" id="2114"  d=" M  5.4,20  C  5.4,20  84.058,19.814  86.777,0  L  232.5,20  C  231.14,29.907  220,110.083  220,155.125  C  220,200.167  227.359,247.359  245.125,265.125  C  227.359,282.891  210.296,415.042  210.296,490  C  210.296,509.333  211.676,528.667  213.332,548  L  253.224,557.708  C  256.526,582.211  258.921,609.051  258.921,635  L  258.921,751.85  L  11.25,751.85  L  11.25,635  C  11.25,586.667  14.625,538.333  14.625,490  C  14.625,393.389  -0,296.778  0,200.167  C  0,110.083  5.4,20  5.4,20  z " />
<path transform="translate( 0, 0 )" style="stroke: hsl(215.2, 55%, 50%);" id="2418"  d=" M  5.4,20  C  5.4,20  84.058,19.814  86.777,0  L  232.5,20  C  231.14,29.907  220,110.083  220,155.125  C  220,200.167  227.359,247.359  245.125,265.125  C  227.359,282.891  210.906,415.042  210.906,490  C  210.906,509.333  212.188,528.667  213.727,548  L  253.558,557.956  C  256.706,582.465  258.921,609.18  258.921,635  L  258.921,751.85  L  11.25,751.85  L  11.25,635  C  11.25,586.667  17.063,538.333  17.063,490  C  17.063,393.389  -0,296.778  0,200.167  C  0,110.083  5.4,20  5.4,20  z " />
<path transform="translate( 0, 0 )" style="stroke: hsl(242.1, 55%, 50%);" id="2722"  d=" M  5.4,20  C  5.4,20  84.058,19.814  86.777,0  L  232.5,20  C  231.14,29.907  220,110.083  220,155.125  C  220,200.167  227.359,247.359  245.125,265.125  C  227.359,282.891  211.515,415.042  211.515,490  C  211.515,509.333  212.7,528.667  214.122,548  L  253.89,558.201  C  256.884,582.706  258.921,609.307  258.921,635  L  258.921,751.85  L  11.25,751.85  L  11.25,635  C  11.25,586.667  19.5,538.333  19.5,490  C  19.5,393.389  -0,296.778  0,200.167  C  0,110.083  5.4,20  5.4,20  z " />
<path transform="translate( 0, 0 )" style="stroke: hsl(269, 55%, 50%);" id="3026"  d=" M  5.4,20  C  5.4,20  84.058,19.814  86.777,0  L  232.5,20  C  231.14,29.907  220,110.083  220,155.125  C  220,200.167  227.359,247.359  245.125,265.125  C  227.359,282.891  212.125,415.042  212.125,490  C  212.125,509.333  213.212,528.667  214.517,548  L  254.22,558.448  C  257.062,582.977  258.921,609.423  258.921,635  L  258.921,751.85  L  11.25,751.85  L  11.25,635  C  11.25,586.667  21.938,538.333  21.938,490  C  21.938,393.389  -0,296.778  0,200.167  C  0,110.083  5.4,20  5.4,20  z " />
<path transform="translate( 0, 0 )" style="stroke: hsl(295.9, 55%, 50%);" id="3330"  d=" M  5.4,20  C  5.4,20  84.058,19.814  86.777,0  L  232.5,20  C  231.14,29.907  220,110.083  220,155.125  C  220,200.167  227.359,247.359  245.125,265.125  C  227.359,282.891  212.734,415.042  212.734,490  C  212.734,509.333  213.724,528.667  214.912,548  L  254.55,558.697  C  257.234,583.211  258.921,609.56  258.921,635  L  258.921,751.85  L  11.25,751.85  L  11.25,635  C  11.25,586.667  24.375,538.333  24.375,490  C  24.375,393.389  -0,296.778  0,200.167  C  0,110.083  5.4,20  5.4,20  z " />
    </g>
    <!-- End of group #back -->
    
    <!-- Start of group #front -->
    <g id="front"  transform=" translate(26.6 11.081)  translate(0 0) " >
        <path class="hidden" id="3"  d=" M  -21.6,-6.081  L  280,-6.081  L  280,768.273  L  -21.6,768.273  z " />
<path transform="translate( 0, 0 )" style="stroke: hsl(26.9, 55%, 50%);" id="291"  d=" M  150.916,500.875  L  243.514,500.875  M  255.598,697.263  L  113.4,697.263  L  113.4,500.875  L  137.012,500.875 " />
<path transform="translate( 0, 0 )" style="stroke: hsl(26.9, 55%, 50%);" id="292"  d=" M  -21.6,420.088  C  -21.6,287.436  -18.441,92.277  -18.441,92.277  L  11.54,91.205  L  66.018,67.317  L  95.197,-6.081  L  238.653,20.383  C  235.932,35.134  218,110.083  218,155.125  C  218,200.167  227.359,247.359  245.125,265.125  C  256.673,276.673  267.943,283.824  280,287.442  C  280,287.442  243.317,415.042  243.317,490  C  243.317,538.333  255.598,586.667  255.598,635  L  255.598,757.957  L  76.68,768.018  C  12.78,771.611  -11.996,738.527  -19.939,594.627  C  -21.6,564.535  -21.6,541.553  -21.6,518.572  L  -21.6,420.088  z  M  143.964,562.5  C  143.964,562.5  151.277,514.167  151.277,490  C  151.277,445.611  143.964,356.833  143.964,356.833  C  143.964,356.833  136.651,445.611  136.651,490  C  136.651,514.167  143.964,562.5  143.964,562.5  z " />
<path transform="translate( 0, 0 )" style="stroke: hsl(26.9, 55%, 50%);" id="293"  d=" M  82.5,290.25  L  82.5,275.12  L  186.602,261.415  L  186.602,276.545  L  82.5,290.25  z " />
<path transform="translate( 0, 0 )" style="stroke: hsl(26.9, 55%, 50%);" id="294"  d=" M  -21.6,420.088  L  51.576,73.65 " />
<path transform="translate( 0, 0 )" style="stroke: hsl(53.8, 55%, 50%);" id="595"  d=" M  150.916,500.875  L  244.114,500.875  M  255.598,697.263  L  113.4,697.263  L  113.4,500.875  L  137.012,500.875 " />
<path transform="translate( 0, 0 )" style="stroke: hsl(53.8, 55%, 50%);" id="596"  d=" M  -21.6,420.088  C  -21.6,287.436  -18.441,92.277  -18.441,92.277  L  11.54,91.205  L  66.018,67.317  L  95.197,-6.081  L  238.653,20.383  C  235.932,35.134  218,110.083  218,155.125  C  218,200.167  227.359,247.359  245.125,265.125  C  256.673,276.673  267.943,283.824  280,287.442  C  280,287.442  243.927,415.042  243.927,490  C  243.927,538.333  255.598,586.667  255.598,635  L  255.598,757.957  L  76.68,768.018  C  12.78,771.611  -11.996,738.527  -19.939,594.627  C  -21.6,564.535  -21.6,541.553  -21.6,518.572  L  -21.6,420.088  z  M  143.964,562.5  C  143.964,562.5  151.277,514.167  151.277,490  C  151.277,445.611  143.964,356.833  143.964,356.833  C  143.964,356.833  136.651,445.611  136.651,490  C  136.651,514.167  143.964,562.5  143.964,562.5  z " />
<path transform="translate( 0, 0 )" style="stroke: hsl(53.8, 55%, 50%);" id="597"  d=" M  82.5,290.25  L  82.5,275.12  L  186.602,261.415  L  186.602,276.545  L  82.5,290.25  z " />
<path transform="translate( 0, 0 )" style="stroke: hsl(53.8, 55%, 50%);" id="598"  d=" M  -21.6,420.088  L  51.576,73.65 " />
<path transform="translate( 0, 0 )" style="stroke: hsl(80.7, 55%, 50%);" id="899"  d=" M  150.916,500.875  L  244.713,500.875  M  255.598,697.263  L  113.4,697.263  L  113.4,500.875  L  137.012,500.875 " />
<path transform="translate( 0, 0 )" style="stroke: hsl(80.7, 55%, 50%);" id="900"  d=" M  -21.6,420.088  C  -21.6,287.436  -18.441,92.277  -18.441,92.277  L  11.54,91.205  L  66.018,67.317  L  95.197,-6.081  L  238.653,20.383  C  235.932,35.134  218,110.083  218,155.125  C  218,200.167  227.359,247.359  245.125,265.125  C  256.673,276.673  267.943,283.824  280,287.442  C  280,287.442  244.536,415.042  244.536,490  C  244.536,538.333  255.598,586.667  255.598,635  L  255.598,757.957  L  76.68,768.018  C  12.78,771.611  -11.996,738.527  -19.939,594.627  C  -21.6,564.535  -21.6,541.553  -21.6,518.572  L  -21.6,420.088  z  M  143.964,562.5  C  143.964,562.5  151.277,514.167  151.277,490  C  151.277,445.611  143.964,356.833  143.964,356.833  C  143.964,356.833  136.651,445.611  136.651,490  C  136.651,514.167  143.964,562.5  143.964,562.5  z " />
<path transform="translate( 0, 0 )" style="stroke: hsl(80.7, 55%, 50%);" id="901"  d=" M  82.5,290.25  L  82.5,275.12  L  186.602,261.415  L  186.602,276.545  L  82.5,290.25  z " />
<path transform="translate( 0, 0 )" style="stroke: hsl(80.7, 55%, 50%);" id="902"  d=" M  -21.6,420.088  L  51.576,73.65 " />
<path transform="translate( 0, 0 )" style="stroke: hsl(107.6, 55%, 50%);" id="1203"  d=" M  150.916,500.875  L  245.313,500.875  M  255.598,697.263  L  113.4,697.263  L  113.4,500.875  L  137.012,500.875 " />
<path transform="translate( 0, 0 )" style="stroke: hsl(107.6, 55%, 50%);" id="1204"  d=" M  -21.6,420.088  C  -21.6,287.436  -18.441,92.277  -18.441,92.277  L  11.54,91.205  L  66.018,67.317  L  95.197,-6.081  L  238.653,20.383  C  235.932,35.134  218,110.083  218,155.125  C  218,200.167  227.359,247.359  245.125,265.125  C  256.673,276.673  267.943,283.824  280,287.442  C  280,287.442  245.145,415.042  245.145,490  C  245.145,538.333  255.598,586.667  255.598,635  L  255.598,757.957  L  76.68,768.018  C  12.78,771.611  -11.996,738.527  -19.939,594.627  C  -21.6,564.535  -21.6,541.553  -21.6,518.572  L  -21.6,420.088  z  M  143.964,562.5  C  143.964,562.5  151.277,514.167  151.277,490  C  151.277,445.611  143.964,356.833  143.964,356.833  C  143.964,356.833  136.651,445.611  136.651,490  C  136.651,514.167  143.964,562.5  143.964,562.5  z " />
<path transform="translate( 0, 0 )" style="stroke: hsl(107.6, 55%, 50%);" id="1205"  d=" M  82.5,290.25  L  82.5,275.12  L  186.602,261.415  L  186.602,276.545  L  82.5,290.25  z " />
<path transform="translate( 0, 0 )" style="stroke: hsl(107.6, 55%, 50%);" id="1206"  d=" M  -21.6,420.088  L  51.576,73.65 " />
<path transform="translate( 0, 0 )" style="stroke: hsl(134.5, 55%, 50%);" id="1507"  d=" M  150.916,500.875  L  245.913,500.875  M  255.598,697.263  L  113.4,697.263  L  113.4,500.875  L  137.012,500.875 " />
<path transform="translate( 0, 0 )" style="stroke: hsl(134.5, 55%, 50%);" id="1508"  d=" M  -21.6,420.088  C  -21.6,287.436  -18.441,92.277  -18.441,92.277  L  11.54,91.205  L  66.018,67.317  L  95.197,-6.081  L  238.653,20.383  C  235.932,35.134  218,110.083  218,155.125  C  218,200.167  227.359,247.359  245.125,265.125  C  256.673,276.673  267.943,283.824  280,287.442  C  280,287.442  245.755,415.042  245.755,490  C  245.755,538.333  255.598,586.667  255.598,635  L  255.598,757.957  L  76.68,768.018  C  12.78,771.611  -11.996,738.527  -19.939,594.627  C  -21.6,564.535  -21.6,541.553  -21.6,518.572  L  -21.6,420.088  z  M  143.964,562.5  C  143.964,562.5  151.277,514.167  151.277,490  C  151.277,445.611  143.964,356.833  143.964,356.833  C  143.964,356.833  136.651,445.611  136.651,490  C  136.651,514.167  143.964,562.5  143.964,562.5  z " />
<path transform="translate( 0, 0 )" style="stroke: hsl(134.5, 55%, 50%);" id="1509"  d=" M  82.5,290.25  L  82.5,275.12  L  186.602,261.415  L  186.602,276.545  L  82.5,290.25  z " />
<path transform="translate( 0, 0 )" style="stroke: hsl(134.5, 55%, 50%);" id="1510"  d=" M  -21.6,420.088  L  51.576,73.65 " />
<path transform="translate( 0, 0 )" style="stroke: hsl(161.4, 55%, 50%);" id="1811"  d=" M  150.916,500.875  L  246.512,500.875  M  255.598,697.263  L  113.4,697.263  L  113.4,500.875  L  137.012,500.875 " />
<path transform="translate( 0, 0 )" style="stroke: hsl(161.4, 55%, 50%);" id="1812"  d=" M  -21.6,420.088  C  -21.6,287.436  -18.441,92.277  -18.441,92.277  L  11.54,91.205  L  66.018,67.317  L  95.197,-6.081  L  238.653,20.383  C  235.932,35.134  218,110.083  218,155.125  C  218,200.167  227.359,247.359  245.125,265.125  C  256.673,276.673  267.943,283.824  280,287.442  C  280,287.442  246.364,415.042  246.364,490  C  246.364,538.333  255.598,586.667  255.598,635  L  255.598,757.957  L  76.68,768.018  C  12.78,771.611  -11.996,738.527  -19.939,594.627  C  -21.6,564.535  -21.6,541.553  -21.6,518.572  L  -21.6,420.088  z  M  143.964,562.5  C  143.964,562.5  151.277,514.167  151.277,490  C  151.277,445.611  143.964,356.833  143.964,356.833  C  143.964,356.833  136.651,445.611  136.651,490  C  136.651,514.167  143.964,562.5  143.964,562.5  z " />
<path transform="translate( 0, 0 )" style="stroke: hsl(161.4, 55%, 50%);" id="1813"  d=" M  82.5,290.25  L  82.5,275.12  L  186.602,261.415  L  186.602,276.545  L  82.5,290.25  z " />
<path transform="translate( 0, 0 )" style="stroke: hsl(161.4, 55%, 50%);" id="1814"  d=" M  -21.6,420.088  L  51.576,73.65 " />
<path transform="translate( 0, 0 )" style="stroke: hsl(188.3, 55%, 50%);" id="2115"  d=" M  150.916,500.875  L  247.111,500.875  M  255.598,697.263  L  113.4,697.263  L  113.4,500.875  L  137.012,500.875 " />
<path transform="translate( 0, 0 )" style="stroke: hsl(188.3, 55%, 50%);" id="2116"  d=" M  -21.6,420.088  C  -21.6,287.436  -18.441,92.277  -18.441,92.277  L  11.54,91.205  L  66.018,67.317  L  95.197,-6.081  L  238.653,20.383  C  235.932,35.134  218,110.083  218,155.125  C  218,200.167  227.359,247.359  245.125,265.125  C  256.673,276.673  267.943,283.824  280,287.442  C  280,287.442  246.973,415.042  246.973,490  C  246.973,538.333  255.598,586.667  255.598,635  L  255.598,757.957  L  76.68,768.018  C  12.78,771.611  -11.996,738.527  -19.939,594.627  C  -21.6,564.535  -21.6,541.553  -21.6,518.572  L  -21.6,420.088  z  M  143.964,562.5  C  143.964,562.5  151.277,514.167  151.277,490  C  151.277,445.611  143.964,356.833  143.964,356.833  C  143.964,356.833  136.651,445.611  136.651,490  C  136.651,514.167  143.964,562.5  143.964,562.5  z " />
<path transform="translate( 0, 0 )" style="stroke: hsl(188.3, 55%, 50%);" id="2117"  d=" M  82.5,290.25  L  82.5,275.12  L  186.602,261.415  L  186.602,276.545  L  82.5,290.25  z " />
<path transform="translate( 0, 0 )" style="stroke: hsl(188.3, 55%, 50%);" id="2118"  d=" M  -21.6,420.088  L  51.576,73.65 " />
<path transform="translate( 0, 0 )" style="stroke: hsl(215.2, 55%, 50%);" id="2419"  d=" M  150.916,500.875  L  247.711,500.875  M  255.598,697.263  L  113.4,697.263  L  113.4,500.875  L  137.012,500.875 " />
<path transform="translate( 0, 0 )" style="stroke: hsl(215.2, 55%, 50%);" id="2420"  d=" M  -21.6,420.088  C  -21.6,287.436  -18.441,92.277  -18.441,92.277  L  11.54,91.205  L  66.018,67.317  L  95.197,-6.081  L  238.653,20.383  C  235.932,35.134  218,110.083  218,155.125  C  218,200.167  227.359,247.359  245.125,265.125  C  256.673,276.673  267.943,283.824  280,287.442  C  280,287.442  247.583,415.042  247.583,490  C  247.583,538.333  255.598,586.667  255.598,635  L  255.598,757.957  L  76.68,768.018  C  12.78,771.611  -11.996,738.527  -19.939,594.627  C  -21.6,564.535  -21.6,541.553  -21.6,518.572  L  -21.6,420.088  z  M  143.964,562.5  C  143.964,562.5  151.277,514.167  151.277,490  C  151.277,445.611  143.964,356.833  143.964,356.833  C  143.964,356.833  136.651,445.611  136.651,490  C  136.651,514.167  143.964,562.5  143.964,562.5  z " />
<path transform="translate( 0, 0 )" style="stroke: hsl(215.2, 55%, 50%);" id="2421"  d=" M  82.5,290.25  L  82.5,275.12  L  186.602,261.415  L  186.602,276.545  L  82.5,290.25  z " />
<path transform="translate( 0, 0 )" style="stroke: hsl(215.2, 55%, 50%);" id="2422"  d=" M  -21.6,420.088  L  51.576,73.65 " />
<path transform="translate( 0, 0 )" style="stroke: hsl(242.1, 55%, 50%);" id="2723"  d=" M  150.916,500.875  L  248.311,500.875  M  255.598,697.263  L  113.4,697.263  L  113.4,500.875  L  137.012,500.875 " />
<path transform="translate( 0, 0 )" style="stroke: hsl(242.1, 55%, 50%);" id="2724"  d=" M  -21.6,420.088  C  -21.6,287.436  -18.441,92.277  -18.441,92.277  L  11.54,91.205  L  66.018,67.317  L  95.197,-6.081  L  238.653,20.383  C  235.932,35.134  218,110.083  218,155.125  C  218,200.167  227.359,247.359  245.125,265.125  C  256.673,276.673  267.943,283.824  280,287.442  C  280,287.442  248.192,415.042  248.192,490  C  248.192,538.333  255.598,586.667  255.598,635  L  255.598,757.957  L  76.68,768.018  C  12.78,771.611  -11.996,738.527  -19.939,594.627  C  -21.6,564.535  -21.6,541.553  -21.6,518.572  L  -21.6,420.088  z  M  143.964,562.5  C  143.964,562.5  151.277,514.167  151.277,490  C  151.277,445.611  143.964,356.833  143.964,356.833  C  143.964,356.833  136.651,445.611  136.651,490  C  136.651,514.167  143.964,562.5  143.964,562.5  z " />
<path transform="translate( 0, 0 )" style="stroke: hsl(242.1, 55%, 50%);" id="2725"  d=" M  82.5,290.25  L  82.5,275.12  L  186.602,261.415  L  186.602,276.545  L  82.5,290.25  z " />
<path transform="translate( 0, 0 )" style="stroke: hsl(242.1, 55%, 50%);" id="2726"  d=" M  -21.6,420.088  L  51.576,73.65 " />
<path transform="translate( 0, 0 )" style="stroke: hsl(269, 55%, 50%);" id="3027"  d=" M  150.916,500.875  L  248.911,500.875  M  255.598,697.263  L  113.4,697.263  L  113.4,500.875  L  137.012,500.875 " />
<path transform="translate( 0, 0 )" style="stroke: hsl(269, 55%, 50%);" id="3028"  d=" M  -21.6,420.088  C  -21.6,287.436  -18.441,92.277  -18.441,92.277  L  11.54,91.205  L  66.018,67.317  L  95.197,-6.081  L  238.653,20.383  C  235.932,35.134  218,110.083  218,155.125  C  218,200.167  227.359,247.359  245.125,265.125  C  256.673,276.673  267.943,283.824  280,287.442  C  280,287.442  248.802,415.042  248.802,490  C  248.802,538.333  255.598,586.667  255.598,635  L  255.598,757.957  L  76.68,768.018  C  12.78,771.611  -11.996,738.527  -19.939,594.627  C  -21.6,564.535  -21.6,541.553  -21.6,518.572  L  -21.6,420.088  z  M  143.964,562.5  C  143.964,562.5  151.277,514.167  151.277,490  C  151.277,445.611  143.964,356.833  143.964,356.833  C  143.964,356.833  136.651,445.611  136.651,490  C  136.651,514.167  143.964,562.5  143.964,562.5  z " />
<path transform="translate( 0, 0 )" style="stroke: hsl(269, 55%, 50%);" id="3029"  d=" M  82.5,290.25  L  82.5,275.12  L  186.602,261.415  L  186.602,276.545  L  82.5,290.25  z " />
<path transform="translate( 0, 0 )" style="stroke: hsl(269, 55%, 50%);" id="3030"  d=" M  -21.6,420.088  L  51.576,73.65 " />
<path transform="translate( 0, 0 )" style="stroke: hsl(295.9, 55%, 50%);" id="3331"  d=" M  150.916,500.875  L  249.51,500.875  M  255.598,697.263  L  113.4,697.263  L  113.4,500.875  L  137.012,500.875 " />
<path transform="translate( 0, 0 )" style="stroke: hsl(295.9, 55%, 50%);" id="3332"  d=" M  -21.6,420.088  C  -21.6,287.436  -18.441,92.277  -18.441,92.277  L  11.54,91.205  L  66.018,67.317  L  95.197,-6.081  L  238.653,20.383  C  235.932,35.134  218,110.083  218,155.125  C  218,200.167  227.359,247.359  245.125,265.125  C  256.673,276.673  267.943,283.824  280,287.442  C  280,287.442  249.411,415.042  249.411,490  C  249.411,538.333  255.598,586.667  255.598,635  L  255.598,757.957  L  76.68,768.018  C  12.78,771.611  -11.996,738.527  -19.939,594.627  C  -21.6,564.535  -21.6,541.553  -21.6,518.572  L  -21.6,420.088  z  M  143.964,562.5  C  143.964,562.5  151.277,514.167  151.277,490  C  151.277,445.611  143.964,356.833  143.964,356.833  C  143.964,356.833  136.651,445.611  136.651,490  C  136.651,514.167  143.964,562.5  143.964,562.5  z " />
<path transform="translate( 0, 0 )" style="stroke: hsl(295.9, 55%, 50%);" id="3333"  d=" M  82.5,290.25  L  82.5,275.12  L  186.602,261.415  L  186.602,276.545  L  82.5,290.25  z " />
<path transform="translate( 0, 0 )" style="stroke: hsl(295.9, 55%, 50%);" id="3334"  d=" M  -21.6,420.088  L  51.576,73.65 " />
    </g>
    <!-- End of group #front -->
    
    <!-- Start of group #side -->
    <g id="side"  transform=" translate(-267.474 -260.125)  translate(1084.603 0) " >
        <path class="hidden" id="4"  d=" M  272.474,265.125  L  404.358,265.125  L  404.358,757.957  L  272.474,757.957  z " />
<path transform="translate( 0, 0 )" style="stroke: hsl(26.9, 55%, 50%);" id="295"  d=" M  272.474,757.957  L  272.474,635  C  272.474,586.667  284.755,538.333  284.755,490  C  284.755,415.042  280,287.442  280,287.442  C  286.354,289.349  293,290.25  300,290.25  C  320,290.25  337.109,282.891  354.875,265.125  C  372.641,282.891  351.922,415.042  351.922,490  C  351.922,509.333  353.887,528.667  356.263,548.145  L  397.813,558.005  C  400.814,581.626  404.203,608.304  404.203,635  L  404.203,754.507  L  364.203,751.85  L  272.474,757.957  z " />
<path transform="translate( 0, 0 )" style="stroke: hsl(53.8, 55%, 50%);" id="599"  d=" M  272.474,757.957  L  272.474,635  C  272.474,586.667  284.145,538.333  284.145,490  C  284.145,415.042  280,287.442  280,287.442  C  286.354,289.349  293,290.25  300,290.25  C  320,290.25  337.109,282.891  354.875,265.125  C  372.641,282.891  352.532,415.042  352.532,490  C  352.532,509.333  354.399,528.667  356.657,548.145  L  398.145,558.251  C  400.997,581.872  404.203,608.424  404.203,635  L  404.203,754.507  L  364.203,751.85  L  272.474,757.957  z " />
<path transform="translate( 0, 0 )" style="stroke: hsl(80.7, 55%, 50%);" id="903"  d=" M  272.474,757.957  L  272.474,635  C  272.474,586.667  283.536,538.333  283.536,490  C  283.536,415.042  280,287.442  280,287.442  C  286.354,289.349  293,290.25  300,290.25  C  320,290.25  337.109,282.891  354.875,265.125  C  372.641,282.891  353.141,415.042  353.141,490  C  353.141,509.333  354.911,528.667  357.051,548.145  L  398.485,558.585  C  402.638,594.873  404.203,608.551  404.203,635  L  404.203,754.507  L  364.203,751.85  L  272.474,757.957  z " />
<path transform="translate( 0, 0 )" style="stroke: hsl(107.6, 55%, 50%);" id="1207"  d=" M  272.474,757.957  L  272.474,635  C  272.474,586.667  282.927,538.333  282.927,490  C  282.927,415.042  280,287.442  280,287.442  C  286.354,289.349  293,290.25  300,290.25  C  320,290.25  337.109,282.891  354.875,265.125  C  372.641,282.891  353.75,415.042  353.75,490  C  353.75,509.333  355.422,528.667  357.445,548.145  L  398.813,558.832  C  400.735,576.604  404.203,608.68  404.203,635  L  404.203,754.507  L  364.203,751.85  L  272.474,757.957  z " />
<path transform="translate( 0, 0 )" style="stroke: hsl(134.5, 55%, 50%);" id="1511"  d=" M  272.474,757.957  L  272.474,635  C  272.474,586.667  282.317,538.333  282.317,490  C  282.317,415.042  280,287.442  280,287.442  C  286.354,289.349  293,290.25  300,290.25  C  320,290.25  337.109,282.891  354.875,265.125  C  372.641,282.891  354.36,415.042  354.36,490  C  354.36,509.333  355.935,528.667  357.839,548.145  L  399.14,559.082  C  401.084,578.175  404.203,608.805  404.203,635  L  404.203,754.507  L  364.203,751.85  L  272.474,757.957  z " />
<path transform="translate( 0, 0 )" style="stroke: hsl(161.4, 55%, 50%);" id="1815"  d=" M  272.474,757.957  L  272.474,635  C  272.474,586.667  281.708,538.333  281.708,490  C  281.708,415.042  280,287.442  280,287.442  C  286.354,289.349  293,290.25  300,290.25  C  320,290.25  337.109,282.891  354.875,265.125  C  372.641,282.891  354.969,415.042  354.969,490  C  354.969,509.333  356.446,528.667  358.233,548.145  L  399.465,559.328  C  401.418,579.768  404.203,608.926  404.203,635  L  404.203,754.507  L  364.203,751.85  L  272.474,757.957  z " />
<path transform="translate( 0, 0 )" style="stroke: hsl(188.3, 55%, 50%);" id="2119"  d=" M  272.474,757.957  L  272.474,635  C  272.474,586.667  281.099,538.333  281.099,490  C  281.099,415.042  280,287.442  280,287.442  C  286.354,289.349  293,290.25  300,290.25  C  320,290.25  337.109,282.891  354.875,265.125  C  372.641,282.891  355.578,415.042  355.578,490  C  355.578,509.333  356.958,528.667  358.626,548.145  L  399.788,559.576  C  401.507,578.83  404.203,609.051  404.203,635  L  404.203,754.507  L  364.203,751.85  L  272.474,757.957  z " />
<path transform="translate( 0, 0 )" style="stroke: hsl(215.2, 55%, 50%);" id="2423"  d=" M  272.474,757.957  L  272.474,635  C  272.474,586.667  280.489,538.333  280.489,490  C  280.489,415.042  280,287.442  280,287.442  C  286.354,289.349  293,290.25  300,290.25  C  320,290.25  337.109,282.891  354.875,265.125  C  372.641,282.891  356.188,415.042  356.188,490  C  356.188,509.333  357.47,528.667  359.021,548.145  L  400.111,559.828  C  401.745,579.534  404.203,609.18  404.203,635  L  404.203,754.507  L  364.203,751.85  L  272.474,757.957  z " />
<path transform="translate( 0, 0 )" style="stroke: hsl(242.1, 55%, 50%);" id="2727"  d=" M  272.474,757.957  L  272.474,635  C  272.474,586.667  279.88,538.333  279.88,490  C  279.88,415.042  280,287.442  280,287.442  C  286.354,289.349  293,290.25  300,290.25  C  320,290.25  337.109,282.891  354.875,265.125  C  372.641,282.891  356.797,415.042  356.797,490  C  356.797,509.333  357.982,528.667  359.415,548.145  L  400.432,560.077  C  401.949,579.877  404.203,609.307  404.203,635  L  404.203,754.507  L  364.203,751.85  L  272.474,757.957  z " />
<path transform="translate( 0, 0 )" style="stroke: hsl(269, 55%, 50%);" id="3031"  d=" M  272.474,757.957  L  272.474,635  C  272.474,586.667  279.27,538.333  279.27,490  C  279.27,415.042  280,287.442  280,287.442  C  286.354,289.349  293,290.25  300,290.25  C  320,290.25  337.109,282.891  354.875,265.125  C  372.641,282.891  357.407,415.042  357.407,490  C  357.407,509.333  358.494,528.667  359.809,548.145  L  400.75,560.327  C  405.473,627.492  404.203,609.423  404.203,635  L  404.203,754.507  L  364.203,751.85  L  272.474,757.957  z " />
<path transform="translate( 0, 0 )" style="stroke: hsl(295.9, 55%, 50%);" id="3335"  d=" M  272.474,757.957  L  272.474,635  C  272.474,586.667  278.661,538.333  278.661,490  C  278.661,415.042  280,287.442  280,287.442  C  286.354,289.349  293,290.25  300,290.25  C  320,290.25  337.109,282.891  354.875,265.125  C  372.641,282.891  358.016,415.042  358.016,490  C  358.016,509.333  359.006,528.667  360.203,548.145  L  401.068,560.579  C  402.373,580.973  404.203,609.56  404.203,635  L  404.203,754.507  L  364.203,751.85  L  272.474,757.957  z " />
    </g>
    <!-- End of group #side -->
    
    <!-- Start of group #collar -->
    <g id="collar"  transform=" translate(144.771 120.864)  translate(1226.487 0) " >
        <path class="hidden" id="5"  d=" M  -139.771,-115.864  L  288.123,-115.864  L  288.123,-22.855  L  -139.771,-22.855  z " />
<path transform="translate( 0, 0 )" style="stroke: hsl(26.9, 55%, 50%);" id="296"  d=" M  -139.771,-55.592  L  -90.105,-22.855  C  -90.105,-22.855  -80.766,-27.938  -58.63,-33.223  C  -58.63,-33.223  -47.827,-65.865  74.176,-65.864  C  196.179,-65.865  206.982,-33.223  206.982,-33.223  C  229.118,-27.938  238.457,-22.855  238.457,-22.855  L  288.123,-55.592  L  282.904,-85.135  C  230.722,-92.817  208.379,-115.864  74.176,-115.864  C  -60.027,-115.864  -82.37,-92.817  -134.552,-85.135  L  -139.771,-55.592  z " />
<path transform="translate( 0, 0 )" style="stroke: hsl(53.8, 55%, 50%);" id="600"  d=" M  -139.771,-55.592  L  -90.105,-22.855  C  -90.105,-22.855  -80.766,-27.938  -58.63,-33.223  C  -58.63,-33.223  -47.827,-65.865  74.176,-65.864  C  196.179,-65.865  206.982,-33.223  206.982,-33.223  C  229.118,-27.938  238.457,-22.855  238.457,-22.855  L  288.123,-55.592  L  282.904,-85.135  C  230.722,-92.817  208.379,-115.864  74.176,-115.864  C  -60.027,-115.864  -82.37,-92.817  -134.552,-85.135  L  -139.771,-55.592  z " />
<path transform="translate( 0, 0 )" style="stroke: hsl(80.7, 55%, 50%);" id="904"  d=" M  -139.771,-55.592  L  -90.105,-22.855  C  -90.105,-22.855  -80.766,-27.938  -58.63,-33.223  C  -58.63,-33.223  -47.827,-65.865  74.176,-65.864  C  196.179,-65.865  206.982,-33.223  206.982,-33.223  C  229.118,-27.938  238.457,-22.855  238.457,-22.855  L  288.123,-55.592  L  282.904,-85.135  C  230.722,-92.817  208.379,-115.864  74.176,-115.864  C  -60.027,-115.864  -82.37,-92.817  -134.552,-85.135  L  -139.771,-55.592  z " />
<path transform="translate( 0, 0 )" style="stroke: hsl(107.6, 55%, 50%);" id="1208"  d=" M  -139.771,-55.592  L  -90.105,-22.855  C  -90.105,-22.855  -80.766,-27.938  -58.63,-33.223  C  -58.63,-33.223  -47.827,-65.865  74.176,-65.864  C  196.179,-65.865  206.982,-33.223  206.982,-33.223  C  229.118,-27.938  238.457,-22.855  238.457,-22.855  L  288.123,-55.592  L  282.904,-85.135  C  230.722,-92.817  208.379,-115.864  74.176,-115.864  C  -60.027,-115.864  -82.37,-92.817  -134.552,-85.135  L  -139.771,-55.592  z " />
<path transform="translate( 0, 0 )" style="stroke: hsl(134.5, 55%, 50%);" id="1512"  d=" M  -139.771,-55.592  L  -90.105,-22.855  C  -90.105,-22.855  -80.766,-27.938  -58.63,-33.223  C  -58.63,-33.223  -47.827,-65.865  74.176,-65.864  C  196.179,-65.865  206.982,-33.223  206.982,-33.223  C  229.118,-27.938  238.457,-22.855  238.457,-22.855  L  288.123,-55.592  L  282.904,-85.135  C  230.722,-92.817  208.379,-115.864  74.176,-115.864  C  -60.027,-115.864  -82.37,-92.817  -134.552,-85.135  L  -139.771,-55.592  z " />
<path transform="translate( 0, 0 )" style="stroke: hsl(161.4, 55%, 50%);" id="1816"  d=" M  -139.771,-55.592  L  -90.105,-22.855  C  -90.105,-22.855  -80.766,-27.938  -58.63,-33.223  C  -58.63,-33.223  -47.827,-65.865  74.176,-65.864  C  196.179,-65.865  206.982,-33.223  206.982,-33.223  C  229.118,-27.938  238.457,-22.855  238.457,-22.855  L  288.123,-55.592  L  282.904,-85.135  C  230.722,-92.817  208.379,-115.864  74.176,-115.864  C  -60.027,-115.864  -82.37,-92.817  -134.552,-85.135  L  -139.771,-55.592  z " />
<path transform="translate( 0, 0 )" style="stroke: hsl(188.3, 55%, 50%);" id="2120"  d=" M  -139.771,-55.592  L  -90.105,-22.855  C  -90.105,-22.855  -80.766,-27.938  -58.63,-33.223  C  -58.63,-33.223  -47.827,-65.865  74.176,-65.864  C  196.179,-65.865  206.982,-33.223  206.982,-33.223  C  229.118,-27.938  238.457,-22.855  238.457,-22.855  L  288.123,-55.592  L  282.904,-85.135  C  230.722,-92.817  208.379,-115.864  74.176,-115.864  C  -60.027,-115.864  -82.37,-92.817  -134.552,-85.135  L  -139.771,-55.592  z " />
<path transform="translate( 0, 0 )" style="stroke: hsl(215.2, 55%, 50%);" id="2424"  d=" M  -139.771,-55.592  L  -90.105,-22.855  C  -90.105,-22.855  -80.766,-27.938  -58.63,-33.223  C  -58.63,-33.223  -47.827,-65.865  74.176,-65.864  C  196.179,-65.865  206.982,-33.223  206.982,-33.223  C  229.118,-27.938  238.457,-22.855  238.457,-22.855  L  288.123,-55.592  L  282.904,-85.135  C  230.722,-92.817  208.379,-115.864  74.176,-115.864  C  -60.027,-115.864  -82.37,-92.817  -134.552,-85.135  L  -139.771,-55.592  z " />
<path transform="translate( 0, 0 )" style="stroke: hsl(242.1, 55%, 50%);" id="2728"  d=" M  -139.771,-55.592  L  -90.105,-22.855  C  -90.105,-22.855  -80.766,-27.938  -58.63,-33.223  C  -58.63,-33.223  -47.827,-65.865  74.176,-65.864  C  196.179,-65.865  206.982,-33.223  206.982,-33.223  C  229.118,-27.938  238.457,-22.855  238.457,-22.855  L  288.123,-55.592  L  282.904,-85.135  C  230.722,-92.817  208.379,-115.864  74.176,-115.864  C  -60.027,-115.864  -82.37,-92.817  -134.552,-85.135  L  -139.771,-55.592  z " />
<path transform="translate( 0, 0 )" style="stroke: hsl(269, 55%, 50%);" id="3032"  d=" M  -139.771,-55.592  L  -90.105,-22.855  C  -90.105,-22.855  -80.766,-27.938  -58.63,-33.223  C  -58.63,-33.223  -47.827,-65.865  74.176,-65.864  C  196.179,-65.865  206.982,-33.223  206.982,-33.223  C  229.118,-27.938  238.457,-22.855  238.457,-22.855  L  288.123,-55.592  L  282.904,-85.135  C  230.722,-92.817  208.379,-115.864  74.176,-115.864  C  -60.027,-115.864  -82.37,-92.817  -134.552,-85.135  L  -139.771,-55.592  z " />
<path transform="translate( 0, 0 )" style="stroke: hsl(295.9, 55%, 50%);" id="3336"  d=" M  -139.771,-55.592  L  -90.105,-22.855  C  -90.105,-22.855  -80.766,-27.938  -58.63,-33.223  C  -58.63,-33.223  -47.827,-65.865  74.176,-65.864  C  196.179,-65.865  206.982,-33.223  206.982,-33.223  C  229.118,-27.938  238.457,-22.855  238.457,-22.855  L  288.123,-55.592  L  282.904,-85.135  C  230.722,-92.817  208.379,-115.864  74.176,-115.864  C  -60.027,-115.864  -82.37,-92.817  -134.552,-85.135  L  -139.771,-55.592  z " />
    </g>
    <!-- End of group #collar -->
    
    <!-- Start of group #collarstand -->
    <g id="collarstand"  transform=" translate(63.63 70.864)  translate(1226.487 206.018) " >
        <path class="hidden" id="6"  d=" M  -58.63,-65.864  L  206.982,-65.864  L  206.982,-33.223  L  -58.63,-33.223  z " />
<path transform="translate( 0, 0 )" style="stroke: hsl(26.9, 55%, 50%);" id="297"  d=" M  -58.63,-33.223  C  -58.63,-33.223  -47.827,-65.865  74.176,-65.864  C  196.179,-65.865  206.982,-33.223  206.982,-33.223  C  181.104,-39.401  138.838,-45.865  74.176,-45.864  C  9.514,-45.865  -32.752,-39.401  -58.63,-33.223  z " />
<path transform="translate( 0, 0 )" style="stroke: hsl(53.8, 55%, 50%);" id="601"  d=" M  -58.63,-33.223  C  -58.63,-33.223  -47.827,-65.865  74.176,-65.864  C  196.179,-65.865  206.982,-33.223  206.982,-33.223  C  181.104,-39.401  138.838,-45.865  74.176,-45.864  C  9.514,-45.865  -32.752,-39.401  -58.63,-33.223  z " />
<path transform="translate( 0, 0 )" style="stroke: hsl(80.7, 55%, 50%);" id="905"  d=" M  -58.63,-33.223  C  -58.63,-33.223  -47.827,-65.865  74.176,-65.864  C  196.179,-65.865  206.982,-33.223  206.982,-33.223  C  181.104,-39.401  138.838,-45.865  74.176,-45.864  C  9.514,-45.865  -32.752,-39.401  -58.63,-33.223  z " />
<path transform="translate( 0, 0 )" style="stroke: hsl(107.6, 55%, 50%);" id="1209"  d=" M  -58.63,-33.223  C  -58.63,-33.223  -47.827,-65.865  74.176,-65.864  C  196.179,-65.865  206.982,-33.223  206.982,-33.223  C  181.104,-39.401  138.838,-45.865  74.176,-45.864  C  9.514,-45.865  -32.752,-39.401  -58.63,-33.223  z " />
<path transform="translate( 0, 0 )" style="stroke: hsl(134.5, 55%, 50%);" id="1513"  d=" M  -58.63,-33.223  C  -58.63,-33.223  -47.827,-65.865  74.176,-65.864  C  196.179,-65.865  206.982,-33.223  206.982,-33.223  C  181.104,-39.401  138.838,-45.865  74.176,-45.864  C  9.514,-45.865  -32.752,-39.401  -58.63,-33.223  z " />
<path transform="translate( 0, 0 )" style="stroke: hsl(161.4, 55%, 50%);" id="1817"  d=" M  -58.63,-33.223  C  -58.63,-33.223  -47.827,-65.865  74.176,-65.864  C  196.179,-65.865  206.982,-33.223  206.982,-33.223  C  181.104,-39.401  138.838,-45.865  74.176,-45.864  C  9.514,-45.865  -32.752,-39.401  -58.63,-33.223  z " />
<path transform="translate( 0, 0 )" style="stroke: hsl(188.3, 55%, 50%);" id="2121"  d=" M  -58.63,-33.223  C  -58.63,-33.223  -47.827,-65.865  74.176,-65.864  C  196.179,-65.865  206.982,-33.223  206.982,-33.223  C  181.104,-39.401  138.838,-45.865  74.176,-45.864  C  9.514,-45.865  -32.752,-39.401  -58.63,-33.223  z " />
<path transform="translate( 0, 0 )" style="stroke: hsl(215.2, 55%, 50%);" id="2425"  d=" M  -58.63,-33.223  C  -58.63,-33.223  -47.827,-65.865  74.176,-65.864  C  196.179,-65.865  206.982,-33.223  206.982,-33.223  C  181.104,-39.401  138.838,-45.865  74.176,-45.864  C  9.514,-45.865  -32.752,-39.401  -58.63,-33.223  z " />
<path transform="translate( 0, 0 )" style="stroke: hsl(242.1, 55%, 50%);" id="2729"  d=" M  -58.63,-33.223  C  -58.63,-33.223  -47.827,-65.865  74.176,-65.864  C  196.179,-65.865  206.982,-33.223  206.982,-33.223  C  181.104,-39.401  138.838,-45.865  74.176,-45.864  C  9.514,-45.865  -32.752,-39.401  -58.63,-33.223  z " />
<path transform="translate( 0, 0 )" style="stroke: hsl(269, 55%, 50%);" id="3033"  d=" M  -58.63,-33.223  C  -58.63,-33.223  -47.827,-65.865  74.176,-65.864  C  196.179,-65.865  206.982,-33.223  206.982,-33.223  C  181.104,-39.401  138.838,-45.865  74.176,-45.864  C  9.514,-45.865  -32.752,-39.401  -58.63,-33.223  z " />
<path transform="translate( 0, 0 )" style="stroke: hsl(295.9, 55%, 50%);" id="3337"  d=" M  -58.63,-33.223  C  -58.63,-33.223  -47.827,-65.865  74.176,-65.864  C  196.179,-65.865  206.982,-33.223  206.982,-33.223  C  181.104,-39.401  138.838,-45.865  74.176,-45.864  C  9.514,-45.865  -32.752,-39.401  -58.63,-33.223  z " />
    </g>
    <!-- End of group #collarstand -->
    
    <!-- Start of group #undercollar -->
    <g id="undercollar"  transform=" translate(144.771 120.864)  translate(1226.487 103.009) " >
        <path class="hidden" id="7"  d=" M  -139.771,-115.864  L  288.123,-115.864  L  288.123,-22.855  L  -139.771,-22.855  z " />
<path transform="translate( 0, 0 )" style="stroke: hsl(26.9, 55%, 50%);" id="298"  d=" M  -139.771,-55.592  L  -90.105,-22.855  C  -90.105,-22.855  -47.827,-45.865  74.176,-45.864  C  196.179,-45.865  238.457,-22.855  238.457,-22.855  L  288.123,-55.592  L  282.904,-85.135  C  230.722,-92.817  208.379,-115.864  74.176,-115.864  C  -60.027,-115.864  -82.37,-92.817  -134.552,-85.135  L  -139.771,-55.592  z " />
<path transform="translate( 0, 0 )" style="stroke: hsl(53.8, 55%, 50%);" id="602"  d=" M  -139.771,-55.592  L  -90.105,-22.855  C  -90.105,-22.855  -47.827,-45.865  74.176,-45.864  C  196.179,-45.865  238.457,-22.855  238.457,-22.855  L  288.123,-55.592  L  282.904,-85.135  C  230.722,-92.817  208.379,-115.864  74.176,-115.864  C  -60.027,-115.864  -82.37,-92.817  -134.552,-85.135  L  -139.771,-55.592  z " />
<path transform="translate( 0, 0 )" style="stroke: hsl(80.7, 55%, 50%);" id="906"  d=" M  -139.771,-55.592  L  -90.105,-22.855  C  -90.105,-22.855  -47.827,-45.865  74.176,-45.864  C  196.179,-45.865  238.457,-22.855  238.457,-22.855  L  288.123,-55.592  L  282.904,-85.135  C  230.722,-92.817  208.379,-115.864  74.176,-115.864  C  -60.027,-115.864  -82.37,-92.817  -134.552,-85.135  L  -139.771,-55.592  z " />
<path transform="translate( 0, 0 )" style="stroke: hsl(107.6, 55%, 50%);" id="1210"  d=" M  -139.771,-55.592  L  -90.105,-22.855  C  -90.105,-22.855  -47.827,-45.865  74.176,-45.864  C  196.179,-45.865  238.457,-22.855  238.457,-22.855  L  288.123,-55.592  L  282.904,-85.135  C  230.722,-92.817  208.379,-115.864  74.176,-115.864  C  -60.027,-115.864  -82.37,-92.817  -134.552,-85.135  L  -139.771,-55.592  z " />
<path transform="translate( 0, 0 )" style="stroke: hsl(134.5, 55%, 50%);" id="1514"  d=" M  -139.771,-55.592  L  -90.105,-22.855  C  -90.105,-22.855  -47.827,-45.865  74.176,-45.864  C  196.179,-45.865  238.457,-22.855  238.457,-22.855  L  288.123,-55.592  L  282.904,-85.135  C  230.722,-92.817  208.379,-115.864  74.176,-115.864  C  -60.027,-115.864  -82.37,-92.817  -134.552,-85.135  L  -139.771,-55.592  z " />
<path transform="translate( 0, 0 )" style="stroke: hsl(161.4, 55%, 50%);" id="1818"  d=" M  -139.771,-55.592  L  -90.105,-22.855  C  -90.105,-22.855  -47.827,-45.865  74.176,-45.864  C  196.179,-45.865  238.457,-22.855  238.457,-22.855  L  288.123,-55.592  L  282.904,-85.135  C  230.722,-92.817  208.379,-115.864  74.176,-115.864  C  -60.027,-115.864  -82.37,-92.817  -134.552,-85.135  L  -139.771,-55.592  z " />
<path transform="translate( 0, 0 )" style="stroke: hsl(188.3, 55%, 50%);" id="2122"  d=" M  -139.771,-55.592  L  -90.105,-22.855  C  -90.105,-22.855  -47.827,-45.865  74.176,-45.864  C  196.179,-45.865  238.457,-22.855  238.457,-22.855  L  288.123,-55.592  L  282.904,-85.135  C  230.722,-92.817  208.379,-115.864  74.176,-115.864  C  -60.027,-115.864  -82.37,-92.817  -134.552,-85.135  L  -139.771,-55.592  z " />
<path transform="translate( 0, 0 )" style="stroke: hsl(215.2, 55%, 50%);" id="2426"  d=" M  -139.771,-55.592  L  -90.105,-22.855  C  -90.105,-22.855  -47.827,-45.865  74.176,-45.864  C  196.179,-45.865  238.457,-22.855  238.457,-22.855  L  288.123,-55.592  L  282.904,-85.135  C  230.722,-92.817  208.379,-115.864  74.176,-115.864  C  -60.027,-115.864  -82.37,-92.817  -134.552,-85.135  L  -139.771,-55.592  z " />
<path transform="translate( 0, 0 )" style="stroke: hsl(242.1, 55%, 50%);" id="2730"  d=" M  -139.771,-55.592  L  -90.105,-22.855  C  -90.105,-22.855  -47.827,-45.865  74.176,-45.864  C  196.179,-45.865  238.457,-22.855  238.457,-22.855  L  288.123,-55.592  L  282.904,-85.135  C  230.722,-92.817  208.379,-115.864  74.176,-115.864  C  -60.027,-115.864  -82.37,-92.817  -134.552,-85.135  L  -139.771,-55.592  z " />
<path transform="translate( 0, 0 )" style="stroke: hsl(269, 55%, 50%);" id="3034"  d=" M  -139.771,-55.592  L  -90.105,-22.855  C  -90.105,-22.855  -47.827,-45.865  74.176,-45.864  C  196.179,-45.865  238.457,-22.855  238.457,-22.855  L  288.123,-55.592  L  282.904,-85.135  C  230.722,-92.817  208.379,-115.864  74.176,-115.864  C  -60.027,-115.864  -82.37,-92.817  -134.552,-85.135  L  -139.771,-55.592  z " />
<path transform="translate( 0, 0 )" style="stroke: hsl(295.9, 55%, 50%);" id="3338"  d=" M  -139.771,-55.592  L  -90.105,-22.855  C  -90.105,-22.855  -47.827,-45.865  74.176,-45.864  C  196.179,-45.865  238.457,-22.855  238.457,-22.855  L  288.123,-55.592  L  282.904,-85.135  C  230.722,-92.817  208.379,-115.864  74.176,-115.864  C  -60.027,-115.864  -82.37,-92.817  -134.552,-85.135  L  -139.771,-55.592  z " />
    </g>
    <!-- End of group #undercollar -->
    
    <!-- Start of group #topsleeve -->
    <g id="topsleeve"  transform=" translate(151.512 5)  translate(580.521 0) " >
        <path class="hidden" id="8"  d=" M  -146.512,0  L  130.233,0  L  130.233,711.452  L  -146.512,711.452  z " />
<path transform="translate( 0, 0 )" style="stroke: hsl(26.9, 55%, 50%);" id="299"  d=" M  117.21,410  C  125.145,365  130.233,259.234  130.233,194.425  C  130.233,129.616  117.21,64.808  117.21,64.808  C  117.21,64.808  73.256,0  0,0  C  -73.256,0  -107.443,64.808  -117.21,116.655  C  -126.977,168.502  -131.861,194.425  -146.512,194.425  C  -146.512,194.425  -136.475,351.187  -130.233,410  L  -99.022,704.067  L  104.286,711.452  L  117.517,638.147  L  81.677,611.519  L  117.21,410  z " />
<path transform="translate( 0, 0 )" style="stroke: hsl(53.8, 55%, 50%);" id="603"  d=" M  117.21,410  C  125.145,365  130.233,259.234  130.233,194.425  C  130.233,129.616  117.21,64.808  117.21,64.808  C  117.21,64.808  73.256,0  0,0  C  -73.256,0  -107.443,64.808  -117.21,116.655  C  -126.977,168.502  -131.861,194.425  -146.512,194.425  C  -146.512,194.425  -136.475,351.187  -130.233,410  L  -99.022,704.067  L  104.286,711.452  L  117.517,638.147  L  81.677,611.519  L  117.21,410  z " />
<path transform="translate( 0, 0 )" style="stroke: hsl(80.7, 55%, 50%);" id="907"  d=" M  117.21,410  C  125.145,365  130.233,259.234  130.233,194.425  C  130.233,129.616  117.21,64.808  117.21,64.808  C  117.21,64.808  73.256,0  0,0  C  -73.256,0  -107.443,64.808  -117.21,116.655  C  -126.977,168.502  -131.861,194.425  -146.512,194.425  C  -146.512,194.425  -136.475,351.187  -130.233,410  L  -99.022,704.067  L  104.286,711.452  L  117.517,638.147  L  81.677,611.519  L  117.21,410  z " />
<path transform="translate( 0, 0 )" style="stroke: hsl(107.6, 55%, 50%);" id="1211"  d=" M  117.21,410  C  125.145,365  130.233,259.234  130.233,194.425  C  130.233,129.616  117.21,64.808  117.21,64.808  C  117.21,64.808  73.256,0  0,0  C  -73.256,0  -107.443,64.808  -117.21,116.655  C  -126.977,168.502  -131.861,194.425  -146.512,194.425  C  -146.512,194.425  -136.475,351.187  -130.233,410  L  -99.022,704.067  L  104.286,711.452  L  117.517,638.147  L  81.677,611.519  L  117.21,410  z " />
<path transform="translate( 0, 0 )" style="stroke: hsl(134.5, 55%, 50%);" id="1515"  d=" M  117.21,410  C  125.145,365  130.233,259.234  130.233,194.425  C  130.233,129.616  117.21,64.808  117.21,64.808  C  117.21,64.808  73.256,0  0,0  C  -73.256,0  -107.443,64.808  -117.21,116.655  C  -126.977,168.502  -131.861,194.425  -146.512,194.425  C  -146.512,194.425  -136.475,351.187  -130.233,410  L  -99.022,704.067  L  104.286,711.452  L  117.517,638.147  L  81.677,611.519  L  117.21,410  z " />
<path transform="translate( 0, 0 )" style="stroke: hsl(161.4, 55%, 50%);" id="1819"  d=" M  117.21,410  C  125.145,365  130.233,259.234  130.233,194.425  C  130.233,129.616  117.21,64.808  117.21,64.808  C  117.21,64.808  73.256,0  0,0  C  -73.256,0  -107.443,64.808  -117.21,116.655  C  -126.977,168.502  -131.861,194.425  -146.512,194.425  C  -146.512,194.425  -136.475,351.187  -130.233,410  L  -99.022,704.067  L  104.286,711.452  L  117.517,638.147  L  81.677,611.519  L  117.21,410  z " />
<path transform="translate( 0, 0 )" style="stroke: hsl(188.3, 55%, 50%);" id="2123"  d=" M  117.21,410  C  125.145,365  130.233,259.234  130.233,194.425  C  130.233,129.616  117.21,64.808  117.21,64.808  C  117.21,64.808  73.256,0  0,0  C  -73.256,0  -107.443,64.808  -117.21,116.655  C  -126.977,168.502  -131.861,194.425  -146.512,194.425  C  -146.512,194.425  -136.475,351.187  -130.233,410  L  -99.022,704.067  L  104.286,711.452  L  117.517,638.147  L  81.677,611.519  L  117.21,410  z " />
<path transform="translate( 0, 0 )" style="stroke: hsl(215.2, 55%, 50%);" id="2427"  d=" M  117.21,410  C  125.145,365  130.233,259.234  130.233,194.425  C  130.233,129.616  117.21,64.808  117.21,64.808  C  117.21,64.808  73.256,0  0,0  C  -73.256,0  -107.443,64.808  -117.21,116.655  C  -126.977,168.502  -131.861,194.425  -146.512,194.425  C  -146.512,194.425  -136.475,351.187  -130.233,410  L  -99.022,704.067  L  104.286,711.452  L  117.517,638.147  L  81.677,611.519  L  117.21,410  z " />
<path transform="translate( 0, 0 )" style="stroke: hsl(242.1, 55%, 50%);" id="2731"  d=" M  117.21,410  C  125.145,365  130.233,259.234  130.233,194.425  C  130.233,129.616  117.21,64.808  117.21,64.808  C  117.21,64.808  73.256,0  0,0  C  -73.256,0  -107.443,64.808  -117.21,116.655  C  -126.977,168.502  -131.861,194.425  -146.512,194.425  C  -146.512,194.425  -136.475,351.187  -130.233,410  L  -99.022,704.067  L  104.286,711.452  L  117.517,638.147  L  81.677,611.519  L  117.21,410  z " />
<path transform="translate( 0, 0 )" style="stroke: hsl(269, 55%, 50%);" id="3035"  d=" M  117.21,410  C  125.145,365  130.233,259.234  130.233,194.425  C  130.233,129.616  117.21,64.808  117.21,64.808  C  117.21,64.808  73.256,0  0,0  C  -73.256,0  -107.443,64.808  -117.21,116.655  C  -126.977,168.502  -131.861,194.425  -146.512,194.425  C  -146.512,194.425  -136.475,351.187  -130.233,410  L  -99.022,704.067  L  104.286,711.452  L  117.517,638.147  L  81.677,611.519  L  117.21,410  z " />
<path transform="translate( 0, 0 )" style="stroke: hsl(295.9, 55%, 50%);" id="3339"  d=" M  117.21,410  C  125.145,365  130.233,259.234  130.233,194.425  C  130.233,129.616  117.21,64.808  117.21,64.808  C  117.21,64.808  73.256,0  0,0  C  -73.256,0  -107.443,64.808  -117.21,116.655  C  -126.977,168.502  -131.861,194.425  -146.512,194.425  C  -146.512,194.425  -136.475,351.187  -130.233,410  L  -99.022,704.067  L  104.286,711.452  L  117.517,638.147  L  81.677,611.519  L  117.21,410  z " />
    </g>
    <!-- End of group #topsleeve -->
    
    <!-- Start of group #undersleeve -->
    <g id="undersleeve"  transform=" translate(92.908 -59.808)  translate(867.266 0) " >
        <path class="hidden" id="9"  d=" M  -87.908,64.808  L  119.429,64.808  L  119.429,712.447  L  -87.908,712.447  z " />
<path transform="translate( 0, 0 )" style="stroke: hsl(26.9, 55%, 50%);" id="300"  d=" M  64.312,710  L  104.237,712.447  L  117.544,638.152  L  81.677,611.519  L  117.21,410  C  125.145,365  109.669,259.002  104.187,194.425  C  98.705,129.848  87.907,64.808  87.907,64.808  C  69.267,128.049  -14.651,194.425  -58.605,194.425  L  -87.908,194.425  C  -87.908,194.425  -71.642,351.426  -68.373,410  L  -52.028,702.87  L  64.312,710  z " />
<path transform="translate( 0, 0 )" style="stroke: hsl(53.8, 55%, 50%);" id="604"  d=" M  64.312,710  L  104.237,712.447  L  117.544,638.152  L  81.677,611.519  L  117.21,410  C  125.145,365  109.669,259.002  104.187,194.425  C  98.705,129.848  87.907,64.808  87.907,64.808  C  69.267,128.049  -14.651,194.425  -58.605,194.425  L  -87.908,194.425  C  -87.908,194.425  -71.642,351.426  -68.373,410  L  -52.028,702.87  L  64.312,710  z " />
<path transform="translate( 0, 0 )" style="stroke: hsl(80.7, 55%, 50%);" id="908"  d=" M  64.312,710  L  104.237,712.447  L  117.544,638.152  L  81.677,611.519  L  117.21,410  C  125.145,365  109.669,259.002  104.187,194.425  C  98.705,129.848  87.907,64.808  87.907,64.808  C  69.267,128.049  -14.651,194.425  -58.605,194.425  L  -87.908,194.425  C  -87.908,194.425  -71.642,351.426  -68.373,410  L  -52.028,702.87  L  64.312,710  z " />
<path transform="translate( 0, 0 )" style="stroke: hsl(107.6, 55%, 50%);" id="1212"  d=" M  64.312,710  L  104.237,712.447  L  117.544,638.152  L  81.677,611.519  L  117.21,410  C  125.145,365  109.669,259.002  104.187,194.425  C  98.705,129.848  87.907,64.808  87.907,64.808  C  69.267,128.049  -14.651,194.425  -58.605,194.425  L  -87.908,194.425  C  -87.908,194.425  -71.642,351.426  -68.373,410  L  -52.028,702.87  L  64.312,710  z " />
<path transform="translate( 0, 0 )" style="stroke: hsl(134.5, 55%, 50%);" id="1516"  d=" M  64.312,710  L  104.237,712.447  L  117.544,638.152  L  81.677,611.519  L  117.21,410  C  125.145,365  109.669,259.002  104.187,194.425  C  98.705,129.848  87.907,64.808  87.907,64.808  C  69.267,128.049  -14.651,194.425  -58.605,194.425  L  -87.908,194.425  C  -87.908,194.425  -71.642,351.426  -68.373,410  L  -52.028,702.87  L  64.312,710  z " />
<path transform="translate( 0, 0 )" style="stroke: hsl(161.4, 55%, 50%);" id="1820"  d=" M  64.312,710  L  104.237,712.447  L  117.544,638.152  L  81.677,611.519  L  117.21,410  C  125.145,365  109.669,259.002  104.187,194.425  C  98.705,129.848  87.907,64.808  87.907,64.808  C  69.267,128.049  -14.651,194.425  -58.605,194.425  L  -87.908,194.425  C  -87.908,194.425  -71.642,351.426  -68.373,410  L  -52.028,702.87  L  64.312,710  z " />
<path transform="translate( 0, 0 )" style="stroke: hsl(188.3, 55%, 50%);" id="2124"  d=" M  64.312,710  L  104.237,712.447  L  117.544,638.152  L  81.677,611.519  L  117.21,410  C  125.145,365  109.669,259.002  104.187,194.425  C  98.705,129.848  87.907,64.808  87.907,64.808  C  69.267,128.049  -14.651,194.425  -58.605,194.425  L  -87.908,194.425  C  -87.908,194.425  -71.642,351.426  -68.373,410  L  -52.028,702.87  L  64.312,710  z " />
<path transform="translate( 0, 0 )" style="stroke: hsl(215.2, 55%, 50%);" id="2428"  d=" M  64.312,710  L  104.237,712.447  L  117.544,638.152  L  81.677,611.519  L  117.21,410  C  125.145,365  109.669,259.002  104.187,194.425  C  98.705,129.848  87.907,64.808  87.907,64.808  C  69.267,128.049  -14.651,194.425  -58.605,194.425  L  -87.908,194.425  C  -87.908,194.425  -71.642,351.426  -68.373,410  L  -52.028,702.87  L  64.312,710  z " />
<path transform="translate( 0, 0 )" style="stroke: hsl(242.1, 55%, 50%);" id="2732"  d=" M  64.312,710  L  104.237,712.447  L  117.544,638.152  L  81.677,611.519  L  117.21,410  C  125.145,365  109.669,259.002  104.187,194.425  C  98.705,129.848  87.907,64.808  87.907,64.808  C  69.267,128.049  -14.651,194.425  -58.605,194.425  L  -87.908,194.425  C  -87.908,194.425  -71.642,351.426  -68.373,410  L  -52.028,702.87  L  64.312,710  z " />
<path transform="translate( 0, 0 )" style="stroke: hsl(269, 55%, 50%);" id="3036"  d=" M  64.312,710  L  104.237,712.447  L  117.544,638.152  L  81.677,611.519  L  117.21,410  C  125.145,365  109.669,259.002  104.187,194.425  C  98.705,129.848  87.907,64.808  87.907,64.808  C  69.267,128.049  -14.651,194.425  -58.605,194.425  L  -87.908,194.425  C  -87.908,194.425  -71.642,351.426  -68.373,410  L  -52.028,702.87  L  64.312,710  z " />
<path transform="translate( 0, 0 )" style="stroke: hsl(295.9, 55%, 50%);" id="3340"  d=" M  64.312,710  L  104.237,712.447  L  117.544,638.152  L  81.677,611.519  L  117.21,410  C  125.145,365  109.669,259.002  104.187,194.425  C  98.705,129.848  87.907,64.808  87.907,64.808  C  69.267,128.049  -14.651,194.425  -58.605,194.425  L  -87.908,194.425  C  -87.908,194.425  -71.642,351.426  -68.373,410  L  -52.028,702.87  L  64.312,710  z " />
    </g>
    <!-- End of group #undersleeve -->
    
    <!-- Start of group #pocket -->
    <g id="pocket"  transform=" translate(5 45)  translate(1226.487 248.659) " >
        <path class="hidden" id="10"  d=" M  0,-40  L  162,-40  L  162,196.388  L  0,196.388  z " />
<path transform="translate( 0, 0 )" style="stroke: hsl(26.9, 55%, 50%);" id="301"  d=" M  0,-40  L  0,163.988  C  -0,181.882  14.506,196.388  32.4,196.388  L  129.6,196.388  C  147.494,196.388  162,181.882  162,163.988  L  162,-40  z " />
<path transform="translate( 0, 0 )" style="stroke: hsl(53.8, 55%, 50%);" id="605"  d=" M  0,-40  L  0,163.988  C  -0,181.882  14.506,196.388  32.4,196.388  L  129.6,196.388  C  147.494,196.388  162,181.882  162,163.988  L  162,-40  z " />
<path transform="translate( 0, 0 )" style="stroke: hsl(80.7, 55%, 50%);" id="909"  d=" M  0,-40  L  0,163.988  C  -0,181.882  14.506,196.388  32.4,196.388  L  129.6,196.388  C  147.494,196.388  162,181.882  162,163.988  L  162,-40  z " />
<path transform="translate( 0, 0 )" style="stroke: hsl(107.6, 55%, 50%);" id="1213"  d=" M  0,-40  L  0,163.988  C  -0,181.882  14.506,196.388  32.4,196.388  L  129.6,196.388  C  147.494,196.388  162,181.882  162,163.988  L  162,-40  z " />
<path transform="translate( 0, 0 )" style="stroke: hsl(134.5, 55%, 50%);" id="1517"  d=" M  0,-40  L  0,163.988  C  -0,181.882  14.506,196.388  32.4,196.388  L  129.6,196.388  C  147.494,196.388  162,181.882  162,163.988  L  162,-40  z " />
<path transform="translate( 0, 0 )" style="stroke: hsl(161.4, 55%, 50%);" id="1821"  d=" M  0,-40  L  0,163.988  C  -0,181.882  14.506,196.388  32.4,196.388  L  129.6,196.388  C  147.494,196.388  162,181.882  162,163.988  L  162,-40  z " />
<path transform="translate( 0, 0 )" style="stroke: hsl(188.3, 55%, 50%);" id="2125"  d=" M  0,-40  L  0,163.988  C  -0,181.882  14.506,196.388  32.4,196.388  L  129.6,196.388  C  147.494,196.388  162,181.882  162,163.988  L  162,-40  z " />
<path transform="translate( 0, 0 )" style="stroke: hsl(215.2, 55%, 50%);" id="2429"  d=" M  0,-40  L  0,163.988  C  -0,181.882  14.506,196.388  32.4,196.388  L  129.6,196.388  C  147.494,196.388  162,181.882  162,163.988  L  162,-40  z " />
<path transform="translate( 0, 0 )" style="stroke: hsl(242.1, 55%, 50%);" id="2733"  d=" M  0,-40  L  0,163.988  C  -0,181.882  14.506,196.388  32.4,196.388  L  129.6,196.388  C  147.494,196.388  162,181.882  162,163.988  L  162,-40  z " />
<path transform="translate( 0, 0 )" style="stroke: hsl(269, 55%, 50%);" id="3037"  d=" M  0,-40  L  0,163.988  C  -0,181.882  14.506,196.388  32.4,196.388  L  129.6,196.388  C  147.494,196.388  162,181.882  162,163.988  L  162,-40  z " />
<path transform="translate( 0, 0 )" style="stroke: hsl(295.9, 55%, 50%);" id="3341"  d=" M  0,-40  L  0,163.988  C  -0,181.882  14.506,196.388  32.4,196.388  L  129.6,196.388  C  147.494,196.388  162,181.882  162,163.988  L  162,-40  z " />
    </g>
    <!-- End of group #pocket -->
    
    <!-- Start of group #chestPocketWelt -->
    <g id="chestPocketWelt"  transform=" translate(6.975 20)  translate(1502.099 206.018) " >
        <path class="hidden" id="11"  d=" M  -1.975,-15  L  105,-15  L  105,15  L  -1.975,15  z " />
<path transform="translate( 0, 0 )" style="stroke: hsl(26.9, 55%, 50%);" id="302"  d=" M  -1.975,15  L  103.025,15  L  105,0  L  103.025,-15  L  -1.975,-15  L  0,0  z " />
<path transform="translate( 0, 0 )" style="stroke: hsl(53.8, 55%, 50%);" id="606"  d=" M  -1.975,15  L  103.025,15  L  105,0  L  103.025,-15  L  -1.975,-15  L  0,0  z " />
<path transform="translate( 0, 0 )" style="stroke: hsl(80.7, 55%, 50%);" id="910"  d=" M  -1.975,15  L  103.025,15  L  105,0  L  103.025,-15  L  -1.975,-15  L  0,0  z " />
<path transform="translate( 0, 0 )" style="stroke: hsl(107.6, 55%, 50%);" id="1214"  d=" M  -1.975,15  L  103.025,15  L  105,0  L  103.025,-15  L  -1.975,-15  L  0,0  z " />
<path transform="translate( 0, 0 )" style="stroke: hsl(134.5, 55%, 50%);" id="1518"  d=" M  -1.975,15  L  103.025,15  L  105,0  L  103.025,-15  L  -1.975,-15  L  0,0  z " />
<path transform="translate( 0, 0 )" style="stroke: hsl(161.4, 55%, 50%);" id="1822"  d=" M  -1.975,15  L  103.025,15  L  105,0  L  103.025,-15  L  -1.975,-15  L  0,0  z " />
<path transform="translate( 0, 0 )" style="stroke: hsl(188.3, 55%, 50%);" id="2126"  d=" M  -1.975,15  L  103.025,15  L  105,0  L  103.025,-15  L  -1.975,-15  L  0,0  z " />
<path transform="translate( 0, 0 )" style="stroke: hsl(215.2, 55%, 50%);" id="2430"  d=" M  -1.975,15  L  103.025,15  L  105,0  L  103.025,-15  L  -1.975,-15  L  0,0  z " />
<path transform="translate( 0, 0 )" style="stroke: hsl(242.1, 55%, 50%);" id="2734"  d=" M  -1.975,15  L  103.025,15  L  105,0  L  103.025,-15  L  -1.975,-15  L  0,0  z " />
<path transform="translate( 0, 0 )" style="stroke: hsl(269, 55%, 50%);" id="3038"  d=" M  -1.975,15  L  103.025,15  L  105,0  L  103.025,-15  L  -1.975,-15  L  0,0  z " />
<path transform="translate( 0, 0 )" style="stroke: hsl(295.9, 55%, 50%);" id="3342"  d=" M  -1.975,15  L  103.025,15  L  105,0  L  103.025,-15  L  -1.975,-15  L  0,0  z " />
    </g>
    <!-- End of group #chestPocketWelt -->
    
    <!-- Start of group #chestPocketBag -->
    <g id="chestPocketBag"  transform=" translate(5 22.773)  translate(1226.487 495.047) " >
        <path class="hidden" id="12"  d=" M  0,-17.773  L  135,-17.773  L  135,117.773  L  0,117.773  z " />
<path transform="translate( 0, 0 )" style="stroke: hsl(26.9, 55%, 50%);" id="303"  d=" M  0,40  L  0,0  L  135,-17.773  L  135,40  M  135,60  L  135,117.773  L  0,100  L  0,60 " />
<path transform="translate( 0, 0 )" style="stroke: hsl(53.8, 55%, 50%);" id="607"  d=" M  0,40  L  0,0  L  135,-17.773  L  135,40  M  135,60  L  135,117.773  L  0,100  L  0,60 " />
<path transform="translate( 0, 0 )" style="stroke: hsl(80.7, 55%, 50%);" id="911"  d=" M  0,40  L  0,0  L  135,-17.773  L  135,40  M  135,60  L  135,117.773  L  0,100  L  0,60 " />
<path transform="translate( 0, 0 )" style="stroke: hsl(107.6, 55%, 50%);" id="1215"  d=" M  0,40  L  0,0  L  135,-17.773  L  135,40  M  135,60  L  135,117.773  L  0,100  L  0,60 " />
<path transform="translate( 0, 0 )" style="stroke: hsl(134.5, 55%, 50%);" id="1519"  d=" M  0,40  L  0,0  L  135,-17.773  L  135,40  M  135,60  L  135,117.773  L  0,100  L  0,60 " />
<path transform="translate( 0, 0 )" style="stroke: hsl(161.4, 55%, 50%);" id="1823"  d=" M  0,40  L  0,0  L  135,-17.773  L  135,40  M  135,60  L  135,117.773  L  0,100  L  0,60 " />
<path transform="translate( 0, 0 )" style="stroke: hsl(188.3, 55%, 50%);" id="2127"  d=" M  0,40  L  0,0  L  135,-17.773  L  135,40  M  135,60  L  135,117.773  L  0,100  L  0,60 " />
<path transform="translate( 0, 0 )" style="stroke: hsl(215.2, 55%, 50%);" id="2431"  d=" M  0,40  L  0,0  L  135,-17.773  L  135,40  M  135,60  L  135,117.773  L  0,100  L  0,60 " />
<path transform="translate( 0, 0 )" style="stroke: hsl(242.1, 55%, 50%);" id="2735"  d=" M  0,40  L  0,0  L  135,-17.773  L  135,40  M  135,60  L  135,117.773  L  0,100  L  0,60 " />
<path transform="translate( 0, 0 )" style="stroke: hsl(269, 55%, 50%);" id="3039"  d=" M  0,40  L  0,0  L  135,-17.773  L  135,40  M  135,60  L  135,117.773  L  0,100  L  0,60 " />
<path transform="translate( 0, 0 )" style="stroke: hsl(295.9, 55%, 50%);" id="3343"  d=" M  0,40  L  0,0  L  135,-17.773  L  135,40  M  135,60  L  135,117.773  L  0,100  L  0,60 " />
    </g>
    <!-- End of group #chestPocketBag -->
    
    <!-- Start of group #innerPocketWelt -->
    <g id="innerPocketWelt"  transform=" translate(5 5)  translate(1398.487 248.659) " >
        <path class="hidden" id="13"  d=" M  0,0  L  155,0  L  155,10  L  0,10  z " />
<path transform="translate( 0, 0 )" style="stroke: hsl(26.9, 55%, 50%);" id="304"  d=" M  0,0  L  155,0  L  155,10  L  0,10  z " />
<path transform="translate( 0, 0 )" style="stroke: hsl(53.8, 55%, 50%);" id="608"  d=" M  0,0  L  155,0  L  155,10  L  0,10  z " />
<path transform="translate( 0, 0 )" style="stroke: hsl(80.7, 55%, 50%);" id="912"  d=" M  0,0  L  155,0  L  155,10  L  0,10  z " />
<path transform="translate( 0, 0 )" style="stroke: hsl(107.6, 55%, 50%);" id="1216"  d=" M  0,0  L  155,0  L  155,10  L  0,10  z " />
<path transform="translate( 0, 0 )" style="stroke: hsl(134.5, 55%, 50%);" id="1520"  d=" M  0,0  L  155,0  L  155,10  L  0,10  z " />
<path transform="translate( 0, 0 )" style="stroke: hsl(161.4, 55%, 50%);" id="1824"  d=" M  0,0  L  155,0  L  155,10  L  0,10  z " />
<path transform="translate( 0, 0 )" style="stroke: hsl(188.3, 55%, 50%);" id="2128"  d=" M  0,0  L  155,0  L  155,10  L  0,10  z " />
<path transform="translate( 0, 0 )" style="stroke: hsl(215.2, 55%, 50%);" id="2432"  d=" M  0,0  L  155,0  L  155,10  L  0,10  z " />
<path transform="translate( 0, 0 )" style="stroke: hsl(242.1, 55%, 50%);" id="2736"  d=" M  0,0  L  155,0  L  155,10  L  0,10  z " />
<path transform="translate( 0, 0 )" style="stroke: hsl(269, 55%, 50%);" id="3040"  d=" M  0,0  L  155,0  L  155,10  L  0,10  z " />
<path transform="translate( 0, 0 )" style="stroke: hsl(295.9, 55%, 50%);" id="3344"  d=" M  0,0  L  155,0  L  155,10  L  0,10  z " />
    </g>
    <!-- End of group #innerPocketWelt -->
    
    <!-- Start of group #innerPocketBag -->
    <g id="innerPocketBag"  transform=" translate(5 5)  translate(1398.487 268.659) " >
        <path class="hidden" id="14"  d=" M  0,0  L  155,0  L  155,100  L  0,100  z " />
<path transform="translate( 0, 0 )" style="stroke: hsl(26.9, 55%, 50%);" id="305"  d=" M  0,40  L  0,0  L  155,0  L  155,40  M  155,60  L  155,100  L  0,100  L  0,60 " />
<path transform="translate( 0, 0 )" style="stroke: hsl(53.8, 55%, 50%);" id="609"  d=" M  0,40  L  0,0  L  155,0  L  155,40  M  155,60  L  155,100  L  0,100  L  0,60 " />
<path transform="translate( 0, 0 )" style="stroke: hsl(80.7, 55%, 50%);" id="913"  d=" M  0,40  L  0,0  L  155,0  L  155,40  M  155,60  L  155,100  L  0,100  L  0,60 " />
<path transform="translate( 0, 0 )" style="stroke: hsl(107.6, 55%, 50%);" id="1217"  d=" M  0,40  L  0,0  L  155,0  L  155,40  M  155,60  L  155,100  L  0,100  L  0,60 " />
<path transform="translate( 0, 0 )" style="stroke: hsl(134.5, 55%, 50%);" id="1521"  d=" M  0,40  L  0,0  L  155,0  L  155,40  M  155,60  L  155,100  L  0,100  L  0,60 " />
<path transform="translate( 0, 0 )" style="stroke: hsl(161.4, 55%, 50%);" id="1825"  d=" M  0,40  L  0,0  L  155,0  L  155,40  M  155,60  L  155,100  L  0,100  L  0,60 " />
<path transform="translate( 0, 0 )" style="stroke: hsl(188.3, 55%, 50%);" id="2129"  d=" M  0,40  L  0,0  L  155,0  L  155,40  M  155,60  L  155,100  L  0,100  L  0,60 " />
<path transform="translate( 0, 0 )" style="stroke: hsl(215.2, 55%, 50%);" id="2433"  d=" M  0,40  L  0,0  L  155,0  L  155,40  M  155,60  L  155,100  L  0,100  L  0,60 " />
<path transform="translate( 0, 0 )" style="stroke: hsl(242.1, 55%, 50%);" id="2737"  d=" M  0,40  L  0,0  L  155,0  L  155,40  M  155,60  L  155,100  L  0,100  L  0,60 " />
<path transform="translate( 0, 0 )" style="stroke: hsl(269, 55%, 50%);" id="3041"  d=" M  0,40  L  0,0  L  155,0  L  155,40  M  155,60  L  155,100  L  0,100  L  0,60 " />
<path transform="translate( 0, 0 )" style="stroke: hsl(295.9, 55%, 50%);" id="3345"  d=" M  0,40  L  0,0  L  155,0  L  155,40  M  155,60  L  155,100  L  0,100  L  0,60 " />
    </g>
    <!-- End of group #innerPocketBag -->
    
    <!-- Start of group #innerPocketFacingExtension -->
    <g id="innerPocketFacingExtension" >
    </g>
    <!-- End of group #innerPocketFacingExtension -->
    
    <!-- Start of group #sampler-back -->
    <g id="sampler-back" >
    </g>
    <!-- End of group #sampler-back -->
    
    <!-- Start of group #sampler-front -->
    <g id="sampler-front" >
    </g>
    <!-- End of group #sampler-front -->
    
    <!-- Start of group #sampler-side -->
    <g id="sampler-side" >
    </g>
    <!-- End of group #sampler-side -->
    
    <!-- Start of group #sampler-collar -->
    <g id="sampler-collar" >
    </g>
    <!-- End of group #sampler-collar -->
    
    <!-- Start of group #sampler-collarstand -->
    <g id="sampler-collarstand" >
    </g>
    <!-- End of group #sampler-collarstand -->
    
    <!-- Start of group #sampler-undercollar -->
    <g id="sampler-undercollar" >
    </g>
    <!-- End of group #sampler-undercollar -->
    
    <!-- Start of group #sampler-topsleeve -->
    <g id="sampler-topsleeve" >
    </g>
    <!-- End of group #sampler-topsleeve -->
    
    <!-- Start of group #sampler-undersleeve -->
    <g id="sampler-undersleeve" >
    </g>
    <!-- End of group #sampler-undersleeve -->
    
    <!-- Start of group #sampler-pocket -->
    <g id="sampler-pocket" >
    </g>
    <!-- End of group #sampler-pocket -->
    
    <!-- Start of group #sampler-chestPocketWelt -->
    <g id="sampler-chestPocketWelt" >
    </g>
    <!-- End of group #sampler-chestPocketWelt -->
    
    <!-- Start of group #sampler-chestPocketBag -->
    <g id="sampler-chestPocketBag" >
    </g>
    <!-- End of group #sampler-chestPocketBag -->
    
    <!-- Start of group #sampler-innerPocketWelt -->
    <g id="sampler-innerPocketWelt" >
    </g>
    <!-- End of group #sampler-innerPocketWelt -->
    
    <!-- Start of group #sampler-innerPocketBag -->
    <g id="sampler-innerPocketBag" >
    </g>
    <!-- End of group #sampler-innerPocketBag -->
</g>
<!-- End of group #patternContainer -->

</svg>

