<?xml version="1.0" encoding="UTF-8" standalone="no"?>
<svg
    xmlns="http://www.w3.org/2000/svg"
    xmlns:svg="http://www.w3.org/2000/svg"
    xmlns:xlink="http://www.w3.org/1999/xlink"
    xmlns:freesewing="http://freesewing.org/namespaces/freesewing" viewBox ="0 0 593 696"
    width ="593mm"
    height ="696mm"
    freesewing:version ="1.5.0"
    freesewing:origin ="joost.core.freesewing.org" 
>

<style type="text/css">
    <![CDATA[
    path { fill: none; stroke: #000000; stroke-opacity:1; stroke-width: 0.5; stroke-miterlimit:4; stroke-dashoffset:0; stroke-linecap:round; stroke-linejoin:round; }
    path.hidden { fill: none; stroke: none; }]]>
</style>


<!-- Start of group #patternContainer -->
<g id="patternContainer" >
    
    <!-- Start of group #frontBlock -->
    <g id="frontBlock" >
    </g>
    <!-- End of group #frontBlock -->
    
    <!-- Start of group #backBlock -->
    <g id="backBlock" >
    </g>
    <!-- End of group #backBlock -->
    
    <!-- Start of group #waistcoatFrontBlock -->
    <g id="waistcoatFrontBlock" >
    </g>
    <!-- End of group #waistcoatFrontBlock -->
    
    <!-- Start of group #front -->
    <g id="front"  transform=" translate(15 1.676)  translate(0 0) " >
        <path class="hidden" id="2"  d=" M  -10,3.324  L  288.21,3.324  L  288.21,688.907  L  -10,688.907  z " />
<path transform="translate( 0, 0 )" style="stroke: hsl(26.9, 55%, 50%);" id="32"  d=" M  161.205,525.982  L  210.48,517.496  213.026,532.278  162.453,540.93  M  129.376,542.499  L  80.927,547.359  79.447,532.432  129.203,527.5 " />
<path transform="translate( 0, 0 )" style="stroke: hsl(26.9, 55%, 50%);" id="33"  d=" M  -10,284.35  L  -10,621.094  L  57.813,688.907  C  64.406,682.314  89.932,672.716  130.625,665.483  L  130.625,640  C  130.625,615  129.062,538.75  129.062,505  C  129.062,469.837  137.5,364.35  137.5,364.35  C  137.5,364.35  155.887,468.564  159.215,503.569  C  162.411,537.168  168.073,613.223  170.44,638.111  L  172.637,661.216  C  204.177,653.32  242.834,646.294  288.21,641.979  L  286.79,627.047  C  283.477,592.204  274.094,526.547  270.899,492.949  C  267.57,457.944  277.711,386.337  274.382,351.333  C  261.939,352.516  241.955,348.735  227.07,336.435  C  212.184,324.135  190,250.4  190,194.675  C  190,138.95  217.121,42.841  219.39,33.102  L  91.569,3.324  C  88.245,23.046  91.847,104  -10,284.35  z " />
<path transform="translate( 0, 0 )" style="stroke: hsl(53.8, 55%, 50%);" id="65"  d=" M  161.205,525.982  L  210.48,517.496  213.026,532.278  162.453,540.93  M  129.376,542.499  L  80.927,547.359  79.447,532.432  129.203,527.5 " />
<path transform="translate( 0, 0 )" style="stroke: hsl(53.8, 55%, 50%);" id="66"  d=" M  -10,284.35  L  -10,621.094  L  57.813,688.907  C  64.406,682.314  89.932,672.716  130.625,665.483  L  130.625,640  C  130.625,615  129.062,538.75  129.062,505  C  129.062,469.837  137.5,364.35  137.5,364.35  C  137.5,364.35  155.887,468.564  159.215,503.569  C  162.411,537.168  168.073,613.223  170.44,638.111  L  172.637,661.216  C  204.177,653.32  242.834,646.294  288.21,641.979  L  286.79,627.047  C  283.477,592.204  274.094,526.547  270.899,492.949  C  267.57,457.944  277.711,386.337  274.382,351.333  C  261.939,352.516  241.955,348.735  227.07,336.435  C  212.184,324.135  190,250.4  190,194.675  C  190,138.95  217.121,42.841  219.39,33.102  L  91.569,3.324  C  88.245,23.046  91.847,104  -10,284.35  z " />
<path transform="translate( 0, 0 )" style="stroke: hsl(80.7, 55%, 50%);" id="98"  d=" M  161.205,525.982  L  210.48,517.496  213.026,532.278  162.453,540.93  M  129.376,542.499  L  80.927,547.359  79.447,532.432  129.203,527.5 " />
<path transform="translate( 0, 0 )" style="stroke: hsl(80.7, 55%, 50%);" id="99"  d=" M  -10,284.35  L  -10,621.094  L  57.813,688.907  C  64.406,682.314  89.932,672.716  130.625,665.483  L  130.625,640  C  130.625,615  129.062,538.75  129.062,505  C  129.062,469.837  137.5,364.35  137.5,364.35  C  137.5,364.35  155.887,468.564  159.215,503.569  C  162.411,537.168  168.073,613.223  170.44,638.111  L  172.637,661.216  C  204.177,653.32  242.834,646.294  288.21,641.979  L  286.79,627.047  C  283.477,592.204  274.094,526.547  270.899,492.949  C  267.57,457.944  277.711,386.337  274.382,351.333  C  261.939,352.516  241.955,348.735  227.07,336.435  C  212.184,324.135  190,250.4  190,194.675  C  190,138.95  217.121,42.841  219.39,33.102  L  91.569,3.324  C  88.245,23.046  91.847,104  -10,284.35  z " />
<path transform="translate( 0, 0 )" style="stroke: hsl(107.6, 55%, 50%);" id="131"  d=" M  161.205,525.982  L  210.48,517.496  213.026,532.278  162.453,540.93  M  129.376,542.499  L  80.927,547.359  79.447,532.432  129.203,527.5 " />
<path transform="translate( 0, 0 )" style="stroke: hsl(107.6, 55%, 50%);" id="132"  d=" M  -10,284.35  L  -10,621.094  L  57.813,688.907  C  64.406,682.314  89.932,672.716  130.625,665.483  L  130.625,640  C  130.625,615  129.062,538.75  129.062,505  C  129.062,469.837  137.5,364.35  137.5,364.35  C  137.5,364.35  155.887,468.564  159.215,503.569  C  162.411,537.168  168.073,613.223  170.44,638.111  L  172.637,661.216  C  204.177,653.32  242.834,646.294  288.21,641.979  L  286.79,627.047  C  283.477,592.204  274.094,526.547  270.899,492.949  C  267.57,457.944  277.711,386.337  274.382,351.333  C  261.939,352.516  241.955,348.735  227.07,336.435  C  212.184,324.135  190,250.4  190,194.675  C  190,138.95  217.121,42.841  219.39,33.102  L  91.569,3.324  C  88.245,23.046  91.847,104  -10,284.35  z " />
<path transform="translate( 0, 0 )" style="stroke: hsl(134.5, 55%, 50%);" id="164"  d=" M  161.205,525.982  L  210.48,517.496  213.026,532.278  162.453,540.93  M  129.376,542.499  L  80.927,547.359  79.447,532.432  129.203,527.5 " />
<path transform="translate( 0, 0 )" style="stroke: hsl(134.5, 55%, 50%);" id="165"  d=" M  -10,284.35  L  -10,621.094  L  57.813,688.907  C  64.406,682.314  89.932,672.716  130.625,665.483  L  130.625,640  C  130.625,615  129.062,538.75  129.062,505  C  129.062,469.837  137.5,364.35  137.5,364.35  C  137.5,364.35  155.887,468.564  159.215,503.569  C  162.411,537.168  168.073,613.223  170.44,638.111  L  172.637,661.216  C  204.177,653.32  242.834,646.294  288.21,641.979  L  286.79,627.047  C  283.477,592.204  274.094,526.547  270.899,492.949  C  267.57,457.944  277.711,386.337  274.382,351.333  C  261.939,352.516  241.955,348.735  227.07,336.435  C  212.184,324.135  190,250.4  190,194.675  C  190,138.95  217.121,42.841  219.39,33.102  L  91.569,3.324  C  88.245,23.046  91.847,104  -10,284.35  z " />
<path transform="translate( 0, 0 )" style="stroke: hsl(161.4, 55%, 50%);" id="197"  d=" M  161.205,525.982  L  210.48,517.496  213.026,532.278  162.453,540.93  M  129.376,542.499  L  80.927,547.359  79.447,532.432  129.203,527.5 " />
<path transform="translate( 0, 0 )" style="stroke: hsl(161.4, 55%, 50%);" id="198"  d=" M  -10,284.35  L  -10,621.094  L  57.813,688.907  C  64.406,682.314  89.932,672.716  130.625,665.483  L  130.625,640  C  130.625,615  129.062,538.75  129.062,505  C  129.062,469.837  137.5,364.35  137.5,364.35  C  137.5,364.35  155.887,468.564  159.215,503.569  C  162.411,537.168  168.073,613.223  170.44,638.111  L  172.637,661.216  C  204.177,653.32  242.834,646.294  288.21,641.979  L  286.79,627.047  C  283.477,592.204  274.094,526.547  270.899,492.949  C  267.57,457.944  277.711,386.337  274.382,351.333  C  261.939,352.516  241.955,348.735  227.07,336.435  C  212.184,324.135  190,250.4  190,194.675  C  190,138.95  217.121,42.841  219.39,33.102  L  91.569,3.324  C  88.245,23.046  91.847,104  -10,284.35  z " />
<path transform="translate( 0, 0 )" style="stroke: hsl(188.3, 55%, 50%);" id="230"  d=" M  161.205,525.982  L  210.48,517.496  213.026,532.278  162.453,540.93  M  129.376,542.499  L  80.927,547.359  79.447,532.432  129.203,527.5 " />
<path transform="translate( 0, 0 )" style="stroke: hsl(188.3, 55%, 50%);" id="231"  d=" M  -10,284.35  L  -10,621.094  L  57.813,688.907  C  64.406,682.314  89.932,672.716  130.625,665.483  L  130.625,640  C  130.625,615  129.062,538.75  129.062,505  C  129.062,469.837  137.5,364.35  137.5,364.35  C  137.5,364.35  155.887,468.564  159.215,503.569  C  162.411,537.168  168.073,613.223  170.44,638.111  L  172.637,661.216  C  204.177,653.32  242.834,646.294  288.21,641.979  L  286.79,627.047  C  283.477,592.204  274.094,526.547  270.899,492.949  C  267.57,457.944  277.711,386.337  274.382,351.333  C  261.939,352.516  241.955,348.735  227.07,336.435  C  212.184,324.135  190,250.4  190,194.675  C  190,138.95  217.121,42.841  219.39,33.102  L  91.569,3.324  C  88.245,23.046  91.847,104  -10,284.35  z " />
<path transform="translate( 0, 0 )" style="stroke: hsl(215.2, 55%, 50%);" id="263"  d=" M  161.205,525.982  L  210.48,517.496  213.026,532.278  162.453,540.93  M  129.376,542.499  L  80.927,547.359  79.447,532.432  129.203,527.5 " />
<path transform="translate( 0, 0 )" style="stroke: hsl(215.2, 55%, 50%);" id="264"  d=" M  -10,284.35  L  -10,621.094  L  57.813,688.907  C  64.406,682.314  89.932,672.716  130.625,665.483  L  130.625,640  C  130.625,615  129.062,538.75  129.062,505  C  129.062,469.837  137.5,364.35  137.5,364.35  C  137.5,364.35  155.887,468.564  159.215,503.569  C  162.411,537.168  168.073,613.223  170.44,638.111  L  172.637,661.216  C  204.177,653.32  242.834,646.294  288.21,641.979  L  286.79,627.047  C  283.477,592.204  274.094,526.547  270.899,492.949  C  267.57,457.944  277.711,386.337  274.382,351.333  C  261.939,352.516  241.955,348.735  227.07,336.435  C  212.184,324.135  190,250.4  190,194.675  C  190,138.95  217.121,42.841  219.39,33.102  L  91.569,3.324  C  88.245,23.046  91.847,104  -10,284.35  z " />
<path transform="translate( 0, 0 )" style="stroke: hsl(242.1, 55%, 50%);" id="296"  d=" M  161.205,525.982  L  210.48,517.496  213.026,532.278  162.453,540.93  M  129.376,542.499  L  80.927,547.359  79.447,532.432  129.203,527.5 " />
<path transform="translate( 0, 0 )" style="stroke: hsl(242.1, 55%, 50%);" id="297"  d=" M  -10,284.35  L  -10,621.094  L  57.813,688.907  C  64.406,682.314  89.932,672.716  130.625,665.483  L  130.625,640  C  130.625,615  129.062,538.75  129.062,505  C  129.062,469.837  137.5,364.35  137.5,364.35  C  137.5,364.35  155.887,468.564  159.215,503.569  C  162.411,537.168  168.073,613.223  170.44,638.111  L  172.637,661.216  C  204.177,653.32  242.834,646.294  288.21,641.979  L  286.79,627.047  C  283.477,592.204  274.094,526.547  270.899,492.949  C  267.57,457.944  277.711,386.337  274.382,351.333  C  261.939,352.516  241.955,348.735  227.07,336.435  C  212.184,324.135  190,250.4  190,194.675  C  190,138.95  217.121,42.841  219.39,33.102  L  91.569,3.324  C  88.245,23.046  91.847,104  -10,284.35  z " />
<path transform="translate( 0, 0 )" style="stroke: hsl(269, 55%, 50%);" id="329"  d=" M  161.205,525.982  L  210.48,517.496  213.026,532.278  162.453,540.93  M  129.376,542.499  L  80.927,547.359  79.447,532.432  129.203,527.5 " />
<path transform="translate( 0, 0 )" style="stroke: hsl(269, 55%, 50%);" id="330"  d=" M  -10,284.35  L  -10,621.094  L  57.813,688.907  C  64.406,682.314  89.932,672.716  130.625,665.483  L  130.625,640  C  130.625,615  129.062,538.75  129.062,505  C  129.062,469.837  137.5,364.35  137.5,364.35  C  137.5,364.35  155.887,468.564  159.215,503.569  C  162.411,537.168  168.073,613.223  170.44,638.111  L  172.637,661.216  C  204.177,653.32  242.834,646.294  288.21,641.979  L  286.79,627.047  C  283.477,592.204  274.094,526.547  270.899,492.949  C  267.57,457.944  277.711,386.337  274.382,351.333  C  261.939,352.516  241.955,348.735  227.07,336.435  C  212.184,324.135  190,250.4  190,194.675  C  190,138.95  217.121,42.841  219.39,33.102  L  91.569,3.324  C  88.245,23.046  91.847,104  -10,284.35  z " />
<path transform="translate( 0, 0 )" style="stroke: hsl(295.9, 55%, 50%);" id="362"  d=" M  161.205,525.982  L  210.48,517.496  213.026,532.278  162.453,540.93  M  129.376,542.499  L  80.927,547.359  79.447,532.432  129.203,527.5 " />
<path transform="translate( 0, 0 )" style="stroke: hsl(295.9, 55%, 50%);" id="363"  d=" M  -10,284.35  L  -10,621.094  L  57.813,688.907  C  64.406,682.314  89.932,672.716  130.625,665.483  L  130.625,640  C  130.625,615  129.062,538.75  129.062,505  C  129.062,469.837  137.5,364.35  137.5,364.35  C  137.5,364.35  155.887,468.564  159.215,503.569  C  162.411,537.168  168.073,613.223  170.44,638.111  L  172.637,661.216  C  204.177,653.32  242.834,646.294  288.21,641.979  L  286.79,627.047  C  283.477,592.204  274.094,526.547  270.899,492.949  C  267.57,457.944  277.711,386.337  274.382,351.333  C  261.939,352.516  241.955,348.735  227.07,336.435  C  212.184,324.135  190,250.4  190,194.675  C  190,138.95  217.121,42.841  219.39,33.102  L  91.569,3.324  C  88.245,23.046  91.847,104  -10,284.35  z " />
    </g>
    <!-- End of group #front -->
    
    <!-- Start of group #back -->
    <g id="back"  transform=" translate(5 2.854)  translate(308.21 0) " >
        <path class="hidden" id="3"  d=" M  0,2.146  L  275,2.146  L  275,655  L  0,655  z " />
<path transform="translate( 0, 0 )" style="stroke: hsl(26.9, 55%, 50%);" id="34"  d=" M  14.242,21.535  C  14.242,21.535  0,194.675  0,364.35  L  0,505  L  0,655  L  130.625,655  L  130.625,640  C  130.625,615  129.062,538.75  129.062,505  C  129.062,469.837  137.5,364.35  137.5,364.35  C  137.5,364.35  145.938,469.837  145.938,505  C  145.938,538.75  144.375,615  144.375,640  L  144.375,655  L  261.25,655  L  261.25,640  C  261.25,605  258.125,538.75  258.125,505  C  258.125,469.837  275,399.512  275,364.35  C  262.5,364.35  250.464,358.694  236.81,345.04  C  223.156,331.386  213.061,252.406  214.57,196.701  C  216.08,140.997  225.509,45.955  228.107,36.297  L  101.367,2.212  C  97.51,21.837  14.242,21.535  14.242,21.535  z " />
<path transform="translate( 0, 0 )" style="stroke: hsl(53.8, 55%, 50%);" id="67"  d=" M  14.32,21.507  C  14.32,21.507  0,194.675  0,364.35  L  0,505  L  0,655  L  130.625,655  L  130.625,640  C  130.625,615  129.062,538.75  129.062,505  C  129.062,469.837  137.5,364.35  137.5,364.35  C  137.5,364.35  145.938,469.837  145.938,505  C  145.938,538.75  144.375,615  144.375,640  L  144.375,655  L  261.25,655  L  261.25,640  C  261.25,605  258.125,538.75  258.125,505  C  258.125,469.837  275,399.512  275,364.35  C  262.5,364.35  248.464,358.694  234.81,345.04  C  221.156,331.386  209.087,252.314  210.61,196.61  C  212.132,140.905  225.581,45.974  228.181,36.318  L  101.449,2.204  C  97.587,21.828  14.32,21.507  14.32,21.507  z " />
<path transform="translate( 0, 0 )" style="stroke: hsl(80.7, 55%, 50%);" id="100"  d=" M  14.396,21.48  C  14.396,21.48  0,194.675  0,364.35  L  0,505  L  0,655  L  130.625,655  L  130.625,640  C  130.625,615  129.062,538.75  129.062,505  C  129.062,469.837  137.5,364.35  137.5,364.35  C  137.5,364.35  145.938,469.837  145.938,505  C  145.938,538.75  144.375,615  144.375,640  L  144.375,655  L  261.25,655  L  261.25,640  C  261.25,605  258.125,538.75  258.125,505  C  258.125,469.837  275,399.512  275,364.35  C  262.5,364.35  246.464,358.694  232.81,345.04  C  219.156,331.386  205.114,252.22  206.648,196.516  C  208.183,140.812  225.652,45.994  228.254,36.338  L  101.529,2.196  C  97.663,21.819  14.396,21.48  14.396,21.48  z " />
<path transform="translate( 0, 0 )" style="stroke: hsl(107.6, 55%, 50%);" id="133"  d=" M  14.47,21.453  C  14.47,21.453  0,194.675  0,364.35  L  0,505  L  0,655  L  130.625,655  L  130.625,640  C  130.625,615  129.062,538.75  129.062,505  C  129.062,469.837  137.5,364.35  137.5,364.35  C  137.5,364.35  145.938,469.837  145.938,505  C  145.938,538.75  144.375,615  144.375,640  L  144.375,655  L  261.25,655  L  261.25,640  C  261.25,605  258.125,538.75  258.125,505  C  258.125,469.837  275,399.512  275,364.35  C  262.5,364.35  244.464,358.694  230.81,345.04  C  217.156,331.386  201.139,252.123  202.686,196.42  C  204.233,140.716  225.72,46.013  228.324,36.357  L  101.607,2.188  C  97.737,21.81  14.47,21.453  14.47,21.453  z " />
<path transform="translate( 0, 0 )" style="stroke: hsl(134.5, 55%, 50%);" id="166"  d=" M  14.538,21.429  C  14.538,21.429  0,194.675  0,364.35  L  0,505  L  0,655  L  130.625,655  L  130.625,640  C  130.625,615  129.062,538.75  129.062,505  C  129.062,469.837  137.5,364.35  137.5,364.35  C  137.5,364.35  145.938,469.837  145.938,505  C  145.938,538.75  144.375,615  144.375,640  L  144.375,655  L  261.25,655  L  261.25,640  C  261.25,605  258.125,538.75  258.125,505  C  258.125,469.837  275,399.512  275,364.35  C  262.5,364.35  242.464,358.694  228.81,345.04  C  215.156,331.386  197.163,252.024  198.721,196.321  C  200.279,140.618  225.784,46.031  228.39,36.376  L  101.679,2.181  C  97.805,21.802  14.538,21.429  14.538,21.429  z " />
<path transform="translate( 0, 0 )" style="stroke: hsl(161.4, 55%, 50%);" id="199"  d=" M  14.603,21.406  C  14.603,21.406  0,194.675  0,364.35  L  0,505  L  0,655  L  130.625,655  L  130.625,640  C  130.625,615  129.062,538.75  129.062,505  C  129.062,469.837  137.5,364.35  137.5,364.35  C  137.5,364.35  145.938,469.837  145.938,505  C  145.938,538.75  144.375,615  144.375,640  L  144.375,655  L  261.25,655  L  261.25,640  C  261.25,605  258.125,538.75  258.125,505  C  258.125,469.837  275,399.512  275,364.35  C  262.5,364.35  240.464,358.694  226.81,345.04  C  213.156,331.386  193.186,251.923  194.754,196.22  C  196.323,140.517  225.844,46.047  228.452,36.393  L  101.747,2.174  C  97.87,21.795  14.603,21.406  14.603,21.406  z " />
<path transform="translate( 0, 0 )" style="stroke: hsl(188.3, 55%, 50%);" id="232"  d=" M  14.667,21.382  C  14.667,21.382  0,194.675  0,364.35  L  0,505  L  0,655  L  130.625,655  L  130.625,640  C  130.625,615  129.062,538.75  129.062,505  C  129.062,469.837  137.5,364.35  137.5,364.35  C  137.5,364.35  145.938,469.837  145.938,505  C  145.938,538.75  144.375,615  144.375,640  L  144.375,655  L  261.25,655  L  261.25,640  C  261.25,605  258.125,538.75  258.125,505  C  258.125,469.837  275,399.512  275,364.35  C  262.5,364.35  238.464,358.694  224.81,345.04  C  211.156,331.386  189.209,251.82  190.787,196.117  C  192.366,140.414  225.904,46.064  228.513,36.41  L  101.815,2.168  C  97.934,21.788  14.667,21.382  14.667,21.382  z " />
<path transform="translate( 0, 0 )" style="stroke: hsl(215.2, 55%, 50%);" id="265"  d=" M  14.724,21.362  C  14.724,21.362  0,194.675  0,364.35  L  0,505  L  0,655  L  130.625,655  L  130.625,640  C  130.625,615  129.062,538.75  129.062,505  C  129.062,469.837  137.5,364.35  137.5,364.35  C  137.5,364.35  145.938,469.837  145.938,505  C  145.938,538.75  144.375,615  144.375,640  L  144.375,655  L  261.25,655  L  261.25,640  C  261.25,605  258.125,538.75  258.125,505  C  258.125,469.837  275,399.512  275,364.35  C  262.5,364.35  236.464,358.694  222.81,345.04  C  209.156,331.386  185.229,251.714  186.817,196.012  C  188.405,140.31  225.956,46.078  228.567,36.425  L  101.875,2.162  C  97.991,21.781  14.724,21.362  14.724,21.362  z " />
<path transform="translate( 0, 0 )" style="stroke: hsl(242.1, 55%, 50%);" id="298"  d=" M  14.78,21.342  C  14.78,21.342  0,194.675  0,364.35  L  0,505  L  0,655  L  130.625,655  L  130.625,640  C  130.625,615  129.062,538.75  129.062,505  C  129.062,469.837  137.5,364.35  137.5,364.35  C  137.5,364.35  145.938,469.837  145.938,505  C  145.938,538.75  144.375,615  144.375,640  L  144.375,655  L  261.25,655  L  261.25,640  C  261.25,605  258.125,538.75  258.125,505  C  258.125,469.837  275,399.512  275,364.35  C  262.5,364.35  234.464,358.694  220.81,345.04  C  207.156,331.386  181.249,251.608  182.846,195.905  C  184.443,140.203  226.008,46.093  228.621,36.44  L  101.935,2.156  C  98.047,21.775  14.78,21.342  14.78,21.342  z " />
<path transform="translate( 0, 0 )" style="stroke: hsl(269, 55%, 50%);" id="331"  d=" M  14.829,21.324  C  14.829,21.324  0,194.675  0,364.35  L  0,505  L  0,655  L  130.625,655  L  130.625,640  C  130.625,615  129.062,538.75  129.062,505  C  129.062,469.837  137.5,364.35  137.5,364.35  C  137.5,364.35  145.938,469.837  145.938,505  C  145.938,538.75  144.375,615  144.375,640  L  144.375,655  L  261.25,655  L  261.25,640  C  261.25,605  258.125,538.75  258.125,505  C  258.125,469.837  275,399.512  275,364.35  C  262.5,364.35  232.464,358.694  218.81,345.04  C  205.156,331.386  177.267,251.499  178.872,195.797  C  180.477,140.095  226.054,46.106  228.668,36.453  L  101.987,2.151  C  98.096,21.769  14.829,21.324  14.829,21.324  z " />
<path transform="translate( 0, 0 )" style="stroke: hsl(295.9, 55%, 50%);" id="364"  d=" M  14.873,21.309  C  14.873,21.309  0,194.675  0,364.35  L  0,505  L  0,655  L  130.625,655  L  130.625,640  C  130.625,615  129.062,538.75  129.062,505  C  129.062,469.837  137.5,364.35  137.5,364.35  C  137.5,364.35  145.938,469.837  145.938,505  C  145.938,538.75  144.375,615  144.375,640  L  144.375,655  L  261.25,655  L  261.25,640  C  261.25,605  258.125,538.75  258.125,505  C  258.125,469.837  275,399.512  275,364.35  C  262.5,364.35  230.464,358.694  216.81,345.04  C  203.156,331.386  173.283,251.388  174.895,195.686  C  176.507,139.985  226.095,46.117  228.71,36.465  L  102.033,2.146  C  98.14,21.764  14.873,21.309  14.873,21.309  z " />
    </g>
    <!-- End of group #back -->
    
    <!-- Start of group #frontFacing -->
    <g id="frontFacing" >
    </g>
    <!-- End of group #frontFacing -->
    
    <!-- Start of group #frontLining -->
    <g id="frontLining" >
    </g>
    <!-- End of group #frontLining -->
    
    <!-- Start of group #pocketWelt -->
    <g id="pocketWelt" >
    </g>
    <!-- End of group #pocketWelt -->
    
    <!-- Start of group #pocketFacing -->
    <g id="pocketFacing" >
    </g>
    <!-- End of group #pocketFacing -->
    
    <!-- Start of group #pocketBag -->
    <g id="pocketBag" >
    </g>
    <!-- End of group #pocketBag -->
    
    <!-- Start of group #pocketInterfacing -->
    <g id="pocketInterfacing" >
    </g>
    <!-- End of group #pocketInterfacing -->
    
    <!-- Start of group #sampler-front -->
    <g id="sampler-front" >
    </g>
    <!-- End of group #sampler-front -->
    
    <!-- Start of group #sampler-back -->
    <g id="sampler-back" >
    </g>
    <!-- End of group #sampler-back -->
</g>
<!-- End of group #patternContainer -->

</svg>

