<?xml version="1.0" encoding="UTF-8" standalone="no"?>
<svg
    xmlns="http://www.w3.org/2000/svg"
    xmlns:svg="http://www.w3.org/2000/svg"
    xmlns:xlink="http://www.w3.org/1999/xlink"
    xmlns:freesewing="http://freesewing.org/namespaces/freesewing" viewBox ="0 0 593 696"
    width ="593mm"
    height ="696mm"
    freesewing:version ="1.5.0"
    freesewing:origin ="joost.core.freesewing.org" 
>

<style type="text/css">
    <![CDATA[
    path { fill: none; stroke: #000000; stroke-opacity:1; stroke-width: 0.5; stroke-miterlimit:4; stroke-dashoffset:0; stroke-linecap:round; stroke-linejoin:round; }
    path.hidden { fill: none; stroke: none; }]]>
</style>


<!-- Start of group #patternContainer -->
<g id="patternContainer" >
    
    <!-- Start of group #frontBlock -->
    <g id="frontBlock" >
    </g>
    <!-- End of group #frontBlock -->
    
    <!-- Start of group #backBlock -->
    <g id="backBlock" >
    </g>
    <!-- End of group #backBlock -->
    
    <!-- Start of group #waistcoatFrontBlock -->
    <g id="waistcoatFrontBlock" >
    </g>
    <!-- End of group #waistcoatFrontBlock -->
    
    <!-- Start of group #front -->
    <g id="front"  transform=" translate(15 1.676)  translate(0 0) " >
        <path class="hidden" id="2"  d=" M  -10,3.324  L  288.21,3.324  L  288.21,688.907  L  -10,688.907  z " />
<path transform="translate( 0, 0 )" style="stroke: hsl(26.9, 55%, 50%);" id="32"  d=" M  161.205,525.982  L  210.48,517.496  213.026,532.278  162.453,540.93  M  129.376,542.499  L  80.927,547.359  79.447,532.432  129.203,527.5 " />
<path transform="translate( 0, 0 )" style="stroke: hsl(26.9, 55%, 50%);" id="33"  d=" M  -10,284.35  L  -10,621.094  L  57.813,688.907  C  64.406,682.314  89.932,672.716  130.625,665.483  L  130.625,640  C  130.625,615  129.062,538.75  129.062,505  C  129.062,469.837  137.5,364.35  137.5,364.35  C  137.5,364.35  155.887,468.564  159.215,503.569  C  162.411,537.168  168.073,613.223  170.44,638.111  L  172.637,661.216  C  204.177,653.32  242.834,646.294  288.21,641.979  L  286.79,627.047  C  283.477,592.204  274.094,526.547  270.899,492.949  C  267.57,457.944  277.711,386.337  274.382,351.333  C  261.939,352.516  241.955,348.735  227.07,336.435  C  212.184,324.135  190,250.4  190,194.675  C  190,138.95  217.121,42.841  219.39,33.102  L  91.569,3.324  C  88.245,23.046  91.847,104  -10,284.35  z " />
<path transform="translate( 0, 0 )" style="stroke: hsl(53.8, 55%, 50%);" id="65"  d=" M  161.205,525.982  L  210.48,517.496  213.026,532.278  162.453,540.93  M  129.376,542.499  L  80.927,547.359  79.447,532.432  129.203,527.5 " />
<path transform="translate( 0, 0 )" style="stroke: hsl(53.8, 55%, 50%);" id="66"  d=" M  -10,284.35  L  -10,621.094  L  57.813,688.907  C  64.406,682.314  89.932,672.716  130.625,665.483  L  130.625,640  C  130.625,615  129.062,538.75  129.062,505  C  129.062,469.837  137.5,364.35  137.5,364.35  C  137.5,364.35  155.887,468.564  159.215,503.569  C  162.411,537.168  168.073,613.223  170.44,638.111  L  172.637,661.216  C  204.177,653.32  242.834,646.294  288.21,641.979  L  286.79,627.047  C  283.477,592.204  274.094,526.547  270.899,492.949  C  267.57,457.944  277.711,386.337  274.382,351.333  C  261.939,352.516  241.955,348.735  227.07,336.435  C  212.184,324.135  190,250.4  190,194.675  C  190,138.95  217.121,42.841  219.39,33.102  L  91.569,3.324  C  88.245,23.046  91.847,104  -10,284.35  z " />
<path transform="translate( 0, 0 )" style="stroke: hsl(80.7, 55%, 50%);" id="98"  d=" M  161.205,525.982  L  210.48,517.496  213.026,532.278  162.453,540.93  M  129.376,542.499  L  80.927,547.359  79.447,532.432  129.203,527.5 " />
<path transform="translate( 0, 0 )" style="stroke: hsl(80.7, 55%, 50%);" id="99"  d=" M  -10,284.35  L  -10,621.094  L  57.813,688.907  C  64.406,682.314  89.932,672.716  130.625,665.483  L  130.625,640  C  130.625,615  129.062,538.75  129.062,505  C  129.062,469.837  137.5,364.35  137.5,364.35  C  137.5,364.35  155.887,468.564  159.215,503.569  C  162.411,537.168  168.073,613.223  170.44,638.111  L  172.637,661.216  C  204.177,653.32  242.834,646.294  288.21,641.979  L  286.79,627.047  C  283.477,592.204  274.094,526.547  270.899,492.949  C  267.57,457.944  277.711,386.337  274.382,351.333  C  261.939,352.516  241.955,348.735  227.07,336.435  C  212.184,324.135  190,250.4  190,194.675  C  190,138.95  217.121,42.841  219.39,33.102  L  91.569,3.324  C  88.245,23.046  91.847,104  -10,284.35  z " />
<path transform="translate( 0, 0 )" style="stroke: hsl(107.6, 55%, 50%);" id="131"  d=" M  161.205,525.982  L  210.48,517.496  213.026,532.278  162.453,540.93  M  129.376,542.499  L  80.927,547.359  79.447,532.432  129.203,527.5 " />
<path transform="translate( 0, 0 )" style="stroke: hsl(107.6, 55%, 50%);" id="132"  d=" M  -10,284.35  L  -10,621.094  L  57.813,688.907  C  64.406,682.314  89.932,672.716  130.625,665.483  L  130.625,640  C  130.625,615  129.062,538.75  129.062,505  C  129.062,469.837  137.5,364.35  137.5,364.35  C  137.5,364.35  155.887,468.564  159.215,503.569  C  162.411,537.168  168.073,613.223  170.44,638.111  L  172.637,661.216  C  204.177,653.32  242.834,646.294  288.21,641.979  L  286.79,627.047  C  283.477,592.204  274.094,526.547  270.899,492.949  C  267.57,457.944  277.711,386.337  274.382,351.333  C  261.939,352.516  241.955,348.735  227.07,336.435  C  212.184,324.135  190,250.4  190,194.675  C  190,138.95  217.121,42.841  219.39,33.102  L  91.569,3.324  C  88.245,23.046  91.847,104  -10,284.35  z " />
<path transform="translate( 0, 0 )" style="stroke: hsl(134.5, 55%, 50%);" id="164"  d=" M  161.205,525.982  L  210.48,517.496  213.026,532.278  162.453,540.93  M  129.376,542.499  L  80.927,547.359  79.447,532.432  129.203,527.5 " />
<path transform="translate( 0, 0 )" style="stroke: hsl(134.5, 55%, 50%);" id="165"  d=" M  -10,284.35  L  -10,621.094  L  57.813,688.907  C  64.406,682.314  89.932,672.716  130.625,665.483  L  130.625,640  C  130.625,615  129.062,538.75  129.062,505  C  129.062,469.837  137.5,364.35  137.5,364.35  C  137.5,364.35  155.887,468.564  159.215,503.569  C  162.411,537.168  168.073,613.223  170.44,638.111  L  172.637,661.216  C  204.177,653.32  242.834,646.294  288.21,641.979  L  286.79,627.047  C  283.477,592.204  274.094,526.547  270.899,492.949  C  267.57,457.944  277.711,386.337  274.382,351.333  C  261.939,352.516  241.955,348.735  227.07,336.435  C  212.184,324.135  190,250.4  190,194.675  C  190,138.95  217.121,42.841  219.39,33.102  L  91.569,3.324  C  88.245,23.046  91.847,104  -10,284.35  z " />
<path transform="translate( 0, 0 )" style="stroke: hsl(161.4, 55%, 50%);" id="197"  d=" M  161.205,525.982  L  210.48,517.496  213.026,532.278  162.453,540.93  M  129.376,542.499  L  80.927,547.359  79.447,532.432  129.203,527.5 " />
<path transform="translate( 0, 0 )" style="stroke: hsl(161.4, 55%, 50%);" id="198"  d=" M  -10,284.35  L  -10,621.094  L  57.813,688.907  C  64.406,682.314  89.932,672.716  130.625,665.483  L  130.625,640  C  130.625,615  129.062,538.75  129.062,505  C  129.062,469.837  137.5,364.35  137.5,364.35  C  137.5,364.35  155.887,468.564  159.215,503.569  C  162.411,537.168  168.073,613.223  170.44,638.111  L  172.637,661.216  C  204.177,653.32  242.834,646.294  288.21,641.979  L  286.79,627.047  C  283.477,592.204  274.094,526.547  270.899,492.949  C  267.57,457.944  277.711,386.337  274.382,351.333  C  261.939,352.516  241.955,348.735  227.07,336.435  C  212.184,324.135  190,250.4  190,194.675  C  190,138.95  217.121,42.841  219.39,33.102  L  91.569,3.324  C  88.245,23.046  91.847,104  -10,284.35  z " />
<path transform="translate( 0, 0 )" style="stroke: hsl(188.3, 55%, 50%);" id="230"  d=" M  161.205,525.982  L  210.48,517.496  213.026,532.278  162.453,540.93  M  129.376,542.499  L  80.927,547.359  79.447,532.432  129.203,527.5 " />
<path transform="translate( 0, 0 )" style="stroke: hsl(188.3, 55%, 50%);" id="231"  d=" M  -10,284.35  L  -10,621.094  L  57.813,688.907  C  64.406,682.314  89.932,672.716  130.625,665.483  L  130.625,640  C  130.625,615  129.062,538.75  129.062,505  C  129.062,469.837  137.5,364.35  137.5,364.35  C  137.5,364.35  155.887,468.564  159.215,503.569  C  162.411,537.168  168.073,613.223  170.44,638.111  L  172.637,661.216  C  204.177,653.32  242.834,646.294  288.21,641.979  L  286.79,627.047  C  283.477,592.204  274.094,526.547  270.899,492.949  C  267.57,457.944  277.711,386.337  274.382,351.333  C  261.939,352.516  241.955,348.735  227.07,336.435  C  212.184,324.135  190,250.4  190,194.675  C  190,138.95  217.121,42.841  219.39,33.102  L  91.569,3.324  C  88.245,23.046  91.847,104  -10,284.35  z " />
<path transform="translate( 0, 0 )" style="stroke: hsl(215.2, 55%, 50%);" id="263"  d=" M  161.205,525.982  L  210.48,517.496  213.026,532.278  162.453,540.93  M  129.376,542.499  L  80.927,547.359  79.447,532.432  129.203,527.5 " />
<path transform="translate( 0, 0 )" style="stroke: hsl(215.2, 55%, 50%);" id="264"  d=" M  -10,284.35  L  -10,621.094  L  57.813,688.907  C  64.406,682.314  89.932,672.716  130.625,665.483  L  130.625,640  C  130.625,615  129.062,538.75  129.062,505  C  129.062,469.837  137.5,364.35  137.5,364.35  C  137.5,364.35  155.887,468.564  159.215,503.569  C  162.411,537.168  168.073,613.223  170.44,638.111  L  172.637,661.216  C  204.177,653.32  242.834,646.294  288.21,641.979  L  286.79,627.047  C  283.477,592.204  274.094,526.547  270.899,492.949  C  267.57,457.944  277.711,386.337  274.382,351.333  C  261.939,352.516  241.955,348.735  227.07,336.435  C  212.184,324.135  190,250.4  190,194.675  C  190,138.95  217.121,42.841  219.39,33.102  L  91.569,3.324  C  88.245,23.046  91.847,104  -10,284.35  z " />
<path transform="translate( 0, 0 )" style="stroke: hsl(242.1, 55%, 50%);" id="296"  d=" M  161.205,525.982  L  210.48,517.496  213.026,532.278  162.453,540.93  M  129.376,542.499  L  80.927,547.359  79.447,532.432  129.203,527.5 " />
<path transform="translate( 0, 0 )" style="stroke: hsl(242.1, 55%, 50%);" id="297"  d=" M  -10,284.35  L  -10,621.094  L  57.813,688.907  C  64.406,682.314  89.932,672.716  130.625,665.483  L  130.625,640  C  130.625,615  129.062,538.75  129.062,505  C  129.062,469.837  137.5,364.35  137.5,364.35  C  137.5,364.35  155.887,468.564  159.215,503.569  C  162.411,537.168  168.073,613.223  170.44,638.111  L  172.637,661.216  C  204.177,653.32  242.834,646.294  288.21,641.979  L  286.79,627.047  C  283.477,592.204  274.094,526.547  270.899,492.949  C  267.57,457.944  277.711,386.337  274.382,351.333  C  261.939,352.516  241.955,348.735  227.07,336.435  C  212.184,324.135  190,250.4  190,194.675  C  190,138.95  217.121,42.841  219.39,33.102  L  91.569,3.324  C  88.245,23.046  91.847,104  -10,284.35  z " />
<path transform="translate( 0, 0 )" style="stroke: hsl(269, 55%, 50%);" id="329"  d=" M  161.205,525.982  L  210.48,517.496  213.026,532.278  162.453,540.93  M  129.376,542.499  L  80.927,547.359  79.447,532.432  129.203,527.5 " />
<path transform="translate( 0, 0 )" style="stroke: hsl(269, 55%, 50%);" id="330"  d=" M  -10,284.35  L  -10,621.094  L  57.813,688.907  C  64.406,682.314  89.932,672.716  130.625,665.483  L  130.625,640  C  130.625,615  129.062,538.75  129.062,505  C  129.062,469.837  137.5,364.35  137.5,364.35  C  137.5,364.35  155.887,468.564  159.215,503.569  C  162.411,537.168  168.073,613.223  170.44,638.111  L  172.637,661.216  C  204.177,653.32  242.834,646.294  288.21,641.979  L  286.79,627.047  C  283.477,592.204  274.094,526.547  270.899,492.949  C  267.57,457.944  277.711,386.337  274.382,351.333  C  261.939,352.516  241.955,348.735  227.07,336.435  C  212.184,324.135  190,250.4  190,194.675  C  190,138.95  217.121,42.841  219.39,33.102  L  91.569,3.324  C  88.245,23.046  91.847,104  -10,284.35  z " />
<path transform="translate( 0, 0 )" style="stroke: hsl(295.9, 55%, 50%);" id="362"  d=" M  161.205,525.982  L  210.48,517.496  213.026,532.278  162.453,540.93  M  129.376,542.499  L  80.927,547.359  79.447,532.432  129.203,527.5 " />
<path transform="translate( 0, 0 )" style="stroke: hsl(295.9, 55%, 50%);" id="363"  d=" M  -10,284.35  L  -10,621.094  L  57.813,688.907  C  64.406,682.314  89.932,672.716  130.625,665.483  L  130.625,640  C  130.625,615  129.062,538.75  129.062,505  C  129.062,469.837  137.5,364.35  137.5,364.35  C  137.5,364.35  155.887,468.564  159.215,503.569  C  162.411,537.168  168.073,613.223  170.44,638.111  L  172.637,661.216  C  204.177,653.32  242.834,646.294  288.21,641.979  L  286.79,627.047  C  283.477,592.204  274.094,526.547  270.899,492.949  C  267.57,457.944  277.711,386.337  274.382,351.333  C  261.939,352.516  241.955,348.735  227.07,336.435  C  212.184,324.135  190,250.4  190,194.675  C  190,138.95  217.121,42.841  219.39,33.102  L  91.569,3.324  C  88.245,23.046  91.847,104  -10,284.35  z " />
    </g>
    <!-- End of group #front -->
    
    <!-- Start of group #back -->
    <g id="back"  transform=" translate(5 4.24)  translate(308.21 0) " >
        <path class="hidden" id="3"  d=" M  0,0.76  L  275,0.76  L  275,655  L  0,655  z " />
<path transform="translate( 0, 0 )" style="stroke: hsl(26.9, 55%, 50%);" id="34"  d=" M  5,25  C  5,25  0,194.675  0,364.35  L  0,505  L  0,655  L  130.625,655  L  130.625,640  C  130.625,615  129.062,538.75  129.062,505  C  129.062,469.837  137.5,364.35  137.5,364.35  C  137.5,364.35  145.938,469.837  145.938,505  C  145.938,538.75  144.375,615  144.375,640  L  144.375,655  L  261.25,655  L  261.25,640  C  261.25,605  258.125,538.75  258.125,505  C  258.125,469.837  275,399.512  275,364.35  C  262.5,364.35  245.464,358.694  231.81,345.04  C  218.156,331.386  200,250.4  200,194.675  C  200,138.95  216.851,43.687  219.186,33.963  L  91.569,3.324  C  88.245,23.046  5,25  5,25  z " />
<path transform="translate( 0, 0 )" style="stroke: hsl(53.8, 55%, 50%);" id="67"  d=" M  7.82,23.912  C  7.82,23.912  0,194.675  0,364.35  L  0,505  L  0,655  L  130.625,655  L  130.625,640  C  130.625,615  129.062,538.75  129.062,505  C  129.062,469.837  137.5,364.35  137.5,364.35  C  137.5,364.35  145.938,469.837  145.938,505  C  145.938,538.75  144.375,615  144.375,640  L  144.375,655  L  261.25,655  L  261.25,640  C  261.25,605  258.125,538.75  258.125,505  C  258.125,469.837  275,399.512  275,364.35  C  262.5,364.35  245.464,358.694  231.81,345.04  C  218.156,331.386  200.943,250.922  201.406,195.199  C  201.868,139.476  219.509,44.356  221.924,34.652  L  94.566,2.955  C  91.078,22.649  7.82,23.912  7.82,23.912  z " />
<path transform="translate( 0, 0 )" style="stroke: hsl(80.7, 55%, 50%);" id="100"  d=" M  10.649,22.848  C  10.649,22.848  0,194.675  0,364.35  L  0,505  L  0,655  L  130.625,655  L  130.625,640  C  130.625,615  129.062,538.75  129.062,505  C  129.062,469.837  137.5,364.35  137.5,364.35  C  137.5,364.35  145.938,469.837  145.938,505  C  145.938,538.75  144.375,615  144.375,640  L  144.375,655  L  261.25,655  L  261.25,640  C  261.25,605  258.125,538.75  258.125,505  C  258.125,469.837  275,399.512  275,364.35  C  262.5,364.35  245.464,358.694  231.81,345.04  C  218.156,331.386  201.882,251.453  202.807,195.735  C  203.731,140.018  222.161,45.048  224.657,35.364  L  97.566,2.612  C  93.915,22.276  10.649,22.848  10.649,22.848  z " />
<path transform="translate( 0, 0 )" style="stroke: hsl(107.6, 55%, 50%);" id="133"  d=" M  13.484,21.808  C  13.484,21.808  0,194.675  0,364.35  L  0,505  L  0,655  L  130.625,655  L  130.625,640  C  130.625,615  129.062,538.75  129.062,505  C  129.062,469.837  137.5,364.35  137.5,364.35  C  137.5,364.35  145.938,469.837  145.938,505  C  145.938,538.75  144.375,615  144.375,640  L  144.375,655  L  261.25,655  L  261.25,640  C  261.25,605  258.125,538.75  258.125,505  C  258.125,469.837  275,399.512  275,364.35  C  262.5,364.35  245.464,358.694  231.81,345.04  C  218.156,331.386  202.816,251.99  204.202,196.283  C  205.589,140.575  224.805,45.761  227.381,36.098  L  100.566,2.293  C  96.752,21.926  13.484,21.808  13.484,21.808  z " />
<path transform="translate( 0, 0 )" style="stroke: hsl(134.5, 55%, 50%);" id="166"  d=" M  16.33,20.791  C  16.33,20.791  0,194.675  0,364.35  L  0,505  L  0,655  L  130.625,655  L  130.625,640  C  130.625,615  129.062,538.75  129.062,505  C  129.062,469.837  137.5,364.35  137.5,364.35  C  137.5,364.35  145.938,469.837  145.938,505  C  145.938,538.75  144.375,615  144.375,640  L  144.375,655  L  261.25,655  L  261.25,640  C  261.25,605  258.125,538.75  258.125,505  C  258.125,469.837  275,399.512  275,364.35  C  262.5,364.35  245.464,358.694  231.81,345.04  C  218.156,331.386  203.746,252.536  205.594,196.842  C  207.443,141.147  227.444,46.496  230.101,36.855  L  103.57,1.999  C  99.594,21.6  16.33,20.791  16.33,20.791  z " />
<path transform="translate( 0, 0 )" style="stroke: hsl(161.4, 55%, 50%);" id="199"  d=" M  19.184,19.798  C  19.184,19.798  0,194.675  0,364.35  L  0,505  L  0,655  L  130.625,655  L  130.625,640  C  130.625,615  129.062,538.75  129.062,505  C  129.062,469.837  137.5,364.35  137.5,364.35  C  137.5,364.35  145.938,469.837  145.938,505  C  145.938,538.75  144.375,615  144.375,640  L  144.375,655  L  261.25,655  L  261.25,640  C  261.25,605  258.125,538.75  258.125,505  C  258.125,469.837  275,399.512  275,364.35  C  262.5,364.35  245.464,358.694  231.81,345.04  C  218.156,331.386  204.671,253.089  206.981,197.412  C  209.291,141.735  230.078,47.253  232.814,37.634  L  106.577,1.73  C  102.438,21.297  19.184,19.798  19.184,19.798  z " />
<path transform="translate( 0, 0 )" style="stroke: hsl(188.3, 55%, 50%);" id="232"  d=" M  22.045,18.829  C  22.045,18.829  0,194.675  0,364.35  L  0,505  L  0,655  L  130.625,655  L  130.625,640  C  130.625,615  129.062,538.75  129.062,505  C  129.062,469.837  137.5,364.35  137.5,364.35  C  137.5,364.35  145.938,469.837  145.938,505  C  145.938,538.75  144.375,615  144.375,640  L  144.375,655  L  261.25,655  L  261.25,640  C  261.25,605  258.125,538.75  258.125,505  C  258.125,469.837  275,399.512  275,364.35  C  262.5,364.35  245.464,358.694  231.81,345.04  C  218.156,331.386  205.591,253.65  208.363,197.994  C  211.135,142.338  232.704,48.031  235.52,38.435  L  109.585,1.486  C  105.284,21.018  22.045,18.829  22.045,18.829  z " />
<path transform="translate( 0, 0 )" style="stroke: hsl(215.2, 55%, 50%);" id="265"  d=" M  24.911,17.884  C  24.911,17.884  0,194.675  0,364.35  L  0,505  L  0,655  L  130.625,655  L  130.625,640  C  130.625,615  129.062,538.75  129.062,505  C  129.062,469.837  137.5,364.35  137.5,364.35  C  137.5,364.35  145.938,469.837  145.938,505  C  145.938,538.75  144.375,615  144.375,640  L  144.375,655  L  261.25,655  L  261.25,640  C  261.25,605  258.125,538.75  258.125,505  C  258.125,469.837  275,399.512  275,364.35  C  262.5,364.35  245.464,358.694  231.81,345.04  C  218.156,331.386  206.506,254.218  209.739,198.587  C  212.972,142.956  235.321,48.831  238.216,39.259  L  112.592,1.267  C  108.129,20.763  24.911,17.884  24.911,17.884  z " />
<path transform="translate( 0, 0 )" style="stroke: hsl(242.1, 55%, 50%);" id="298"  d=" M  27.787,16.963  C  27.787,16.963  0,194.675  0,364.35  L  0,505  L  0,655  L  130.625,655  L  130.625,640  C  130.625,615  129.062,538.75  129.062,505  C  129.062,469.837  137.5,364.35  137.5,364.35  C  137.5,364.35  145.938,469.837  145.938,505  C  145.938,538.75  144.375,615  144.375,640  L  144.375,655  L  261.25,655  L  261.25,640  C  261.25,605  258.125,538.75  258.125,505  C  258.125,469.837  275,399.512  275,364.35  C  262.5,364.35  245.464,358.694  231.81,345.04  C  218.156,331.386  207.416,254.794  211.11,199.191  C  214.804,143.589  237.933,49.652  240.908,40.105  L  115.602,1.073  C  110.978,20.532  27.787,16.963  27.787,16.963  z " />
<path transform="translate( 0, 0 )" style="stroke: hsl(269, 55%, 50%);" id="331"  d=" M  30.669,16.066  C  30.669,16.066  0,194.675  0,364.35  L  0,505  L  0,655  L  130.625,655  L  130.625,640  C  130.625,615  129.062,538.75  129.062,505  C  129.062,469.837  137.5,364.35  137.5,364.35  C  137.5,364.35  145.938,469.837  145.938,505  C  145.938,538.75  144.375,615  144.375,640  L  144.375,655  L  261.25,655  L  261.25,640  C  261.25,605  258.125,538.75  258.125,505  C  258.125,469.837  275,399.512  275,364.35  C  262.5,364.35  245.464,358.694  231.81,345.04  C  218.156,331.386  208.322,255.377  212.476,199.807  C  216.631,144.237  240.538,50.496  243.591,40.973  L  118.613,0.904  C  113.828,20.324  30.669,16.066  30.669,16.066  z " />
<path transform="translate( 0, 0 )" style="stroke: hsl(295.9, 55%, 50%);" id="364"  d=" M  33.558,15.193  C  33.558,15.193  0,194.675  0,364.35  L  0,505  L  0,655  L  130.625,655  L  130.625,640  C  130.625,615  129.062,538.75  129.062,505  C  129.062,469.837  137.5,364.35  137.5,364.35  C  137.5,364.35  145.938,469.837  145.938,505  C  145.938,538.75  144.375,615  144.375,640  L  144.375,655  L  261.25,655  L  261.25,640  C  261.25,605  258.125,538.75  258.125,505  C  258.125,469.837  275,399.512  275,364.35  C  262.5,364.35  245.464,358.694  231.81,345.04  C  218.156,331.386  209.222,255.967  213.837,200.434  C  218.452,144.9  243.134,51.36  246.266,41.863  L  121.625,0.76  C  116.679,20.139  33.558,15.193  33.558,15.193  z " />
    </g>
    <!-- End of group #back -->
    
    <!-- Start of group #frontFacing -->
    <g id="frontFacing" >
    </g>
    <!-- End of group #frontFacing -->
    
    <!-- Start of group #frontLining -->
    <g id="frontLining" >
    </g>
    <!-- End of group #frontLining -->
    
    <!-- Start of group #pocketWelt -->
    <g id="pocketWelt" >
    </g>
    <!-- End of group #pocketWelt -->
    
    <!-- Start of group #pocketFacing -->
    <g id="pocketFacing" >
    </g>
    <!-- End of group #pocketFacing -->
    
    <!-- Start of group #pocketBag -->
    <g id="pocketBag" >
    </g>
    <!-- End of group #pocketBag -->
    
    <!-- Start of group #pocketInterfacing -->
    <g id="pocketInterfacing" >
    </g>
    <!-- End of group #pocketInterfacing -->
    
    <!-- Start of group #sampler-front -->
    <g id="sampler-front" >
    </g>
    <!-- End of group #sampler-front -->
    
    <!-- Start of group #sampler-back -->
    <g id="sampler-back" >
    </g>
    <!-- End of group #sampler-back -->
</g>
<!-- End of group #patternContainer -->

</svg>

