<?xml version="1.0" encoding="UTF-8" standalone="no"?>
<svg
    xmlns="http://www.w3.org/2000/svg"
    xmlns:svg="http://www.w3.org/2000/svg"
    xmlns:xlink="http://www.w3.org/1999/xlink"
    xmlns:freesewing="http://freesewing.org/namespaces/freesewing" viewBox ="0 0 618 696"
    width ="618mm"
    height ="696mm"
    freesewing:version ="1.5.0"
    freesewing:origin ="joost.core.freesewing.org" 
>

<style type="text/css">
    <![CDATA[
    path { fill: none; stroke: #000000; stroke-opacity:1; stroke-width: 0.5; stroke-miterlimit:4; stroke-dashoffset:0; stroke-linecap:round; stroke-linejoin:round; }
    path.hidden { fill: none; stroke: none; }]]>
</style>


<!-- Start of group #patternContainer -->
<g id="patternContainer" >
    
    <!-- Start of group #frontBlock -->
    <g id="frontBlock" >
    </g>
    <!-- End of group #frontBlock -->
    
    <!-- Start of group #backBlock -->
    <g id="backBlock" >
    </g>
    <!-- End of group #backBlock -->
    
    <!-- Start of group #waistcoatFrontBlock -->
    <g id="waistcoatFrontBlock" >
    </g>
    <!-- End of group #waistcoatFrontBlock -->
    
    <!-- Start of group #front -->
    <g id="front"  transform=" translate(15 1.676)  translate(0 0) " >
        <path class="hidden" id="2"  d=" M  -10,3.324  L  313.376,3.324  L  313.376,688.907  L  -10,688.907  z " />
<path transform="translate( 0, 0 )" style="stroke: hsl(26.9, 55%, 50%);" id="32"  d=" M  145.798,527.5  L  195.655,523.717  196.79,538.674  145.625,542.499  M  129.376,542.499  L  80.927,547.359  79.447,532.432  129.203,527.5 " />
<path transform="translate( 0, 0 )" style="stroke: hsl(26.9, 55%, 50%);" id="33"  d=" M  -10,284.35  L  -10,621.094  L  57.813,688.907  C  64.406,682.314  89.932,672.716  130.625,665.483  L  130.625,640  C  130.625,615  129.062,538.75  129.062,505  C  129.062,469.837  137.5,364.35  137.5,364.35  C  137.5,364.35  145.938,469.837  145.939,505  C  145.939,538.75  144.376,615  144.376,640  L  144.376,663.209  C  176.522,658.334  215.67,655  261.251,655  L  261.251,640  C  261.251,605  258.126,538.75  258.126,505  C  258.125,469.837  275,399.511  275,364.349  C  262.5,364.349  242.964,358.694  229.31,345.04  C  215.656,331.386  190,250.4  190,194.675  C  190,138.95  217.121,42.841  219.39,33.102  L  91.569,3.324  C  88.245,23.046  91.847,104  -10,284.35  z " />
<path transform="translate( 0, 0 )" style="stroke: hsl(53.8, 55%, 50%);" id="65"  d=" M  148.899,527.313  L  198.675,522.582  200.094,537.515  149.011,542.312  M  129.376,542.499  L  80.927,547.359  79.447,532.432  129.203,527.5 " />
<path transform="translate( 0, 0 )" style="stroke: hsl(53.8, 55%, 50%);" id="66"  d=" M  -10,284.35  L  -10,621.094  L  57.813,688.907  C  64.406,682.314  89.932,672.716  130.625,665.483  L  130.625,640  C  130.625,615  129.062,538.75  129.062,505  C  129.062,469.837  137.5,364.35  137.5,364.35  C  137.5,364.35  147.943,469.657  148.612,504.814  C  149.253,538.558  149.141,614.824  149.616,639.819  L  150.058,663.024  C  182.105,657.539  221.183,653.461  266.756,652.594  L  266.47,637.596  C  265.805,602.603  261.42,536.424  260.778,502.68  C  260.109,467.524  275.644,396.89  274.975,361.735  C  262.477,361.973  242.837,356.689  228.926,343.297  C  215.015,329.905  190,250.4  190,194.675  C  190,138.95  217.121,42.841  219.39,33.102  L  91.569,3.324  C  88.245,23.046  91.847,104  -10,284.35  z " />
<path transform="translate( 0, 0 )" style="stroke: hsl(80.7, 55%, 50%);" id="98"  d=" M  151.993,527.067  L  201.67,521.391  203.373,536.294  152.39,542.061  M  129.376,542.499  L  80.927,547.359  79.447,532.432  129.203,527.5 " />
<path transform="translate( 0, 0 )" style="stroke: hsl(80.7, 55%, 50%);" id="99"  d=" M  -10,284.35  L  -10,621.094  L  57.813,688.907  C  64.406,682.314  89.932,672.716  130.625,665.483  L  130.625,640  C  130.625,615  129.062,538.75  129.062,505  C  129.062,469.837  137.5,364.35  137.5,364.35  C  137.5,364.35  149.942,469.44  151.279,504.578  C  152.562,538.303  153.898,614.557  154.849,639.539  L  155.731,662.732  C  187.668,656.638  226.661,651.818  272.209,650.086  L  271.639,635.097  C  270.309,600.122  264.667,534.039  263.384,500.313  C  262.048,465.175  276.237,394.26  274.901,359.123  C  262.41,359.598  242.673,354.689  228.51,341.564  C  214.346,328.439  190,250.4  190,194.675  C  190,138.95  217.121,42.841  219.39,33.102  L  91.569,3.324  C  88.245,23.046  91.847,104  -10,284.35  z " />
<path transform="translate( 0, 0 )" style="stroke: hsl(107.6, 55%, 50%);" id="131"  d=" M  155.079,526.762  L  204.639,520.145  206.625,535.013  155.761,541.747  M  129.376,542.499  L  80.927,547.359  79.447,532.432  129.203,527.5 " />
<path transform="translate( 0, 0 )" style="stroke: hsl(107.6, 55%, 50%);" id="132"  d=" M  -10,284.35  L  -10,621.094  L  57.813,688.907  C  64.406,682.314  89.932,672.716  130.625,665.483  L  130.625,640  C  130.625,615  129.062,538.75  129.062,505  C  129.062,469.837  137.5,364.35  137.5,364.35  C  137.5,364.35  151.934,469.185  153.938,504.291  C  155.861,537.986  158.644,614.201  160.069,639.161  L  161.391,662.332  C  193.207,655.633  232.101,650.074  277.608,647.477  L  276.754,632.502  C  274.76,597.559  267.865,531.594  265.942,497.899  C  263.939,462.793  276.78,391.621  274.777,356.516  C  262.297,357.228  242.47,352.694  228.061,339.841  C  213.651,326.987  190,250.4  190,194.675  C  190,138.95  217.121,42.841  219.39,33.102  L  91.569,3.324  C  88.245,23.046  91.847,104  -10,284.35  z " />
<path transform="translate( 0, 0 )" style="stroke: hsl(134.5, 55%, 50%);" id="164"  d=" M  158.149,526.4  L  207.576,518.846  209.842,533.674  159.115,541.369  M  129.376,542.499  L  80.927,547.359  79.447,532.432  129.203,527.5 " />
<path transform="translate( 0, 0 )" style="stroke: hsl(134.5, 55%, 50%);" id="165"  d=" M  -10,284.35  L  -10,621.094  L  57.813,688.907  C  64.406,682.314  89.932,672.716  130.625,665.483  L  130.625,640  C  130.625,615  129.062,538.75  129.062,505  C  129.062,469.837  137.5,364.35  137.5,364.35  C  137.5,364.35  153.916,468.893  156.583,503.955  C  159.144,537.607  163.369,613.756  165.266,638.684  L  167.026,661.826  C  198.71,654.527  237.492,648.233  282.942,644.775  L  281.804,629.818  C  279.149,594.919  271.007,529.097  268.447,495.444  C  265.78,460.383  277.271,388.98  274.604,353.919  C  262.14,354.868  242.231,350.71  227.581,338.131  C  212.93,325.552  190,250.4  190,194.675  C  190,138.95  217.121,42.841  219.39,33.102  L  91.569,3.324  C  88.245,23.046  91.847,104  -10,284.35  z " />
<path transform="translate( 0, 0 )" style="stroke: hsl(161.4, 55%, 50%);" id="197"  d=" M  161.205,525.982  L  210.48,517.496  213.026,532.278  162.453,540.93  M  129.376,542.499  L  80.927,547.359  79.447,532.432  129.203,527.5 " />
<path transform="translate( 0, 0 )" style="stroke: hsl(161.4, 55%, 50%);" id="198"  d=" M  -10,284.35  L  -10,621.094  L  57.813,688.907  C  64.406,682.314  89.932,672.716  130.625,665.483  L  130.625,640  C  130.625,615  129.062,538.75  129.062,505  C  129.062,469.837  137.5,364.35  137.5,364.35  C  137.5,364.35  155.887,468.564  159.215,503.569  C  162.411,537.168  168.073,613.223  170.44,638.111  L  172.637,661.216  C  204.177,653.32  242.834,646.294  288.21,641.979  L  286.79,627.047  C  283.477,592.204  274.094,526.547  270.899,492.949  C  267.57,457.944  277.711,386.337  274.382,351.333  C  261.939,352.516  241.955,348.735  227.07,336.435  C  212.184,324.135  190,250.4  190,194.675  C  190,138.95  217.121,42.841  219.39,33.102  L  91.569,3.324  C  88.245,23.046  91.847,104  -10,284.35  z " />
<path transform="translate( 0, 0 )" style="stroke: hsl(188.3, 55%, 50%);" id="230"  d=" M  164.241,525.507  L  213.348,516.096  216.171,530.828  165.77,540.429  M  129.376,542.499  L  80.927,547.359  79.447,532.432  129.203,527.5 " />
<path transform="translate( 0, 0 )" style="stroke: hsl(188.3, 55%, 50%);" id="231"  d=" M  -10,284.35  L  -10,621.094  L  57.813,688.907  C  64.406,682.314  89.932,672.716  130.625,665.483  L  130.625,640  C  130.625,615  129.062,538.75  129.062,505  C  129.062,469.837  137.5,364.35  137.5,364.35  C  137.5,364.35  157.844,468.2  161.83,503.136  C  165.657,536.669  172.749,612.604  175.584,637.443  L  178.215,660.502  C  209.601,652.014  248.119,644.263  293.406,639.095  L  291.705,624.192  C  287.737,589.417  277.121,523.949  273.294,490.417  C  269.307,455.48  278.1,383.696  274.113,348.76  C  261.694,350.178  241.643,346.773  226.529,334.755  C  211.415,322.737  190,250.4  190,194.675  C  190,138.95  217.121,42.841  219.39,33.102  L  91.569,3.324  C  88.245,23.046  91.847,104  -10,284.35  z " />
<path transform="translate( 0, 0 )" style="stroke: hsl(215.2, 55%, 50%);" id="263"  d=" M  167.255,524.978  L  216.177,514.649  219.276,529.325  169.063,539.869  M  129.376,542.499  L  80.927,547.359  79.447,532.432  129.203,527.5 " />
<path transform="translate( 0, 0 )" style="stroke: hsl(215.2, 55%, 50%);" id="264"  d=" M  -10,284.35  L  -10,621.094  L  57.813,688.907  C  64.406,682.314  89.932,672.716  130.625,665.483  L  130.625,640  C  130.625,615  129.062,538.75  129.062,505  C  129.062,469.837  137.5,364.35  137.5,364.35  C  137.5,364.35  159.785,467.801  164.426,502.656  C  168.88,536.111  177.393,611.9  180.692,636.682  L  183.755,659.688  C  214.977,650.613  253.342,642.142  298.525,636.127  L  296.545,621.258  C  291.926,586.564  280.085,521.306  275.632,487.851  C  270.991,452.996  278.438,381.059  273.797,346.204  C  261.407,347.854  241.295,344.825  225.959,333.093  C  210.622,321.36  190,250.4  190,194.675  C  190,138.95  217.121,42.841  219.39,33.102  L  91.569,3.324  C  88.245,23.046  91.847,104  -10,284.35  z " />
<path transform="translate( 0, 0 )" style="stroke: hsl(242.1, 55%, 50%);" id="296"  d=" M  170.245,524.395  L  218.966,513.156  222.338,527.772  172.33,539.25  M  129.376,542.499  L  80.927,547.359  79.447,532.432  129.203,527.5 " />
<path transform="translate( 0, 0 )" style="stroke: hsl(242.1, 55%, 50%);" id="297"  d=" M  -10,284.35  L  -10,621.094  L  57.813,688.907  C  64.406,682.314  89.932,672.716  130.625,665.483  L  130.625,640  C  130.625,615  129.062,538.75  129.062,505  C  129.062,469.837  137.5,364.35  137.5,364.35  C  137.5,364.35  161.71,467.367  167,502.13  C  172.077,535.496  182.002,611.114  185.762,635.829  L  189.254,658.774  C  220.3,649.119  258.501,639.934  303.564,633.077  L  301.307,618.248  C  296.042,583.646  282.987,518.62  277.91,485.254  C  272.621,450.491  278.725,378.428  273.435,343.666  C  261.078,345.546  240.913,342.894  225.361,331.449  C  209.808,320.004  190,250.4  190,194.675  C  190,138.95  217.121,42.841  219.39,33.102  L  91.569,3.324  C  88.245,23.046  91.847,104  -10,284.35  z " />
<path transform="translate( 0, 0 )" style="stroke: hsl(269, 55%, 50%);" id="329"  d=" M  173.205,523.761  L  221.709,511.62  225.352,526.171  175.566,538.574  M  129.376,542.499  L  80.927,547.359  79.447,532.432  129.203,527.5 " />
<path transform="translate( 0, 0 )" style="stroke: hsl(269, 55%, 50%);" id="330"  d=" M  -10,284.35  L  -10,621.094  L  57.813,688.907  C  64.406,682.314  89.932,672.716  130.625,665.483  L  130.625,640  C  130.625,615  129.062,538.75  129.062,505  C  129.062,469.837  137.5,364.35  137.5,364.35  C  137.5,364.35  163.615,466.901  169.548,501.56  C  175.242,534.826  186.567,610.247  190.785,634.888  L  194.701,657.764  C  225.564,647.535  263.588,637.644  308.515,629.953  L  305.985,615.169  C  300.079,580.67  285.821,515.897  280.127,482.631  C  274.194,447.972  278.961,375.808  273.029,341.15  C  260.708,343.26  240.498,340.981  224.736,329.826  C  208.974,318.672  190,250.4  190,194.675  C  190,138.95  217.121,42.841  219.39,33.102  L  91.569,3.324  C  88.245,23.046  91.847,104  -10,284.35  z " />
<path transform="translate( 0, 0 )" style="stroke: hsl(295.9, 55%, 50%);" id="362"  d=" M  176.134,523.077  L  224.406,510.045  228.316,524.527  178.766,537.844  M  129.376,542.499  L  80.927,547.359  79.447,532.432  129.203,527.5 " />
<path transform="translate( 0, 0 )" style="stroke: hsl(295.9, 55%, 50%);" id="363"  d=" M  -10,284.35  L  -10,621.094  L  57.813,688.907  C  64.406,682.314  89.932,672.716  130.625,665.483  L  130.625,640  C  130.625,615  129.062,538.75  129.062,505  C  129.062,469.837  137.5,364.35  137.5,364.35  C  137.5,364.35  165.499,466.403  172.069,500.947  C  178.374,534.102  191.086,609.302  195.757,633.861  L  200.093,656.662  C  230.762,645.866  268.598,635.277  313.376,626.76  L  310.573,612.024  C  304.034,577.641  288.586,513.141  282.28,479.985  C  275.71,445.442  279.148,373.202  272.579,338.659  C  260.299,340.995  240.05,339.089  224.085,328.226  C  208.121,317.364  190,250.4  190,194.675  C  190,138.95  217.121,42.841  219.39,33.102  L  91.569,3.324  C  88.245,23.046  91.847,104  -10,284.35  z " />
    </g>
    <!-- End of group #front -->
    
    <!-- Start of group #back -->
    <g id="back"  transform=" translate(5 2.808)  translate(333.376 0) " >
        <path class="hidden" id="3"  d=" M  0,2.192  L  275,2.192  L  275,655  L  0,655  z " />
<path transform="translate( 0, 0 )" style="stroke: hsl(26.9, 55%, 50%);" id="34"  d=" M  14.433,21.466  C  14.433,21.466  0,194.675  0,364.35  L  0,505  L  0,655  L  130.625,655  L  130.625,640  C  130.625,615  129.062,538.75  129.062,505  C  129.062,469.837  137.5,364.35  137.5,364.35  C  137.5,364.35  145.938,469.837  145.938,505  C  145.938,538.75  144.375,615  144.375,640  L  144.375,655  L  261.25,655  L  261.25,640  C  261.25,605  258.125,538.75  258.125,505  C  258.125,469.837  275,399.512  275,364.35  C  262.5,364.35  245.464,358.694  231.81,345.04  C  218.156,331.386  203.126,252.171  204.667,196.468  C  206.208,140.764  225.686,46.003  228.289,36.348  L  101.568,2.192  C  97.7,21.815  14.433,21.466  14.433,21.466  z " />
<path transform="translate( 0, 0 )" style="stroke: hsl(53.8, 55%, 50%);" id="67"  d=" M  14.433,21.466  C  14.433,21.466  0,194.675  0,364.35  L  0,505  L  0,655  L  130.625,655  L  130.625,640  C  130.625,615  129.062,538.75  129.062,505  C  129.062,469.837  137.5,364.35  137.5,364.35  C  137.5,364.35  145.938,469.837  145.938,505  C  145.938,538.75  144.375,615  144.375,640  L  144.375,655  L  261.25,655  L  261.25,640  C  261.25,605  258.125,538.75  258.125,505  C  258.125,469.837  275,399.512  275,364.35  C  262.5,364.35  245.464,358.694  231.81,345.04  C  218.156,331.386  203.126,252.171  204.667,196.468  C  206.208,140.764  225.686,46.003  228.289,36.348  L  101.568,2.192  C  97.7,21.815  14.433,21.466  14.433,21.466  z " />
<path transform="translate( 0, 0 )" style="stroke: hsl(80.7, 55%, 50%);" id="100"  d=" M  14.433,21.466  C  14.433,21.466  0,194.675  0,364.35  L  0,505  L  0,655  L  130.625,655  L  130.625,640  C  130.625,615  129.062,538.75  129.062,505  C  129.062,469.837  137.5,364.35  137.5,364.35  C  137.5,364.35  145.938,469.837  145.938,505  C  145.938,538.75  144.375,615  144.375,640  L  144.375,655  L  261.25,655  L  261.25,640  C  261.25,605  258.125,538.75  258.125,505  C  258.125,469.837  275,399.512  275,364.35  C  262.5,364.35  245.464,358.694  231.81,345.04  C  218.156,331.386  203.126,252.171  204.667,196.468  C  206.208,140.764  225.686,46.003  228.289,36.348  L  101.568,2.192  C  97.7,21.815  14.433,21.466  14.433,21.466  z " />
<path transform="translate( 0, 0 )" style="stroke: hsl(107.6, 55%, 50%);" id="133"  d=" M  14.433,21.466  C  14.433,21.466  0,194.675  0,364.35  L  0,505  L  0,655  L  130.625,655  L  130.625,640  C  130.625,615  129.062,538.75  129.062,505  C  129.062,469.837  137.5,364.35  137.5,364.35  C  137.5,364.35  145.938,469.837  145.938,505  C  145.938,538.75  144.375,615  144.375,640  L  144.375,655  L  261.25,655  L  261.25,640  C  261.25,605  258.125,538.75  258.125,505  C  258.125,469.837  275,399.512  275,364.35  C  262.5,364.35  245.464,358.694  231.81,345.04  C  218.156,331.386  203.126,252.171  204.667,196.468  C  206.208,140.764  225.686,46.003  228.289,36.348  L  101.568,2.192  C  97.7,21.815  14.433,21.466  14.433,21.466  z " />
<path transform="translate( 0, 0 )" style="stroke: hsl(134.5, 55%, 50%);" id="166"  d=" M  14.433,21.466  C  14.433,21.466  0,194.675  0,364.35  L  0,505  L  0,655  L  130.625,655  L  130.625,640  C  130.625,615  129.062,538.75  129.062,505  C  129.062,469.837  137.5,364.35  137.5,364.35  C  137.5,364.35  145.938,469.837  145.938,505  C  145.938,538.75  144.375,615  144.375,640  L  144.375,655  L  261.25,655  L  261.25,640  C  261.25,605  258.125,538.75  258.125,505  C  258.125,469.837  275,399.512  275,364.35  C  262.5,364.35  245.464,358.694  231.81,345.04  C  218.156,331.386  203.126,252.171  204.667,196.468  C  206.208,140.764  225.686,46.003  228.289,36.348  L  101.568,2.192  C  97.7,21.815  14.433,21.466  14.433,21.466  z " />
<path transform="translate( 0, 0 )" style="stroke: hsl(161.4, 55%, 50%);" id="199"  d=" M  14.433,21.466  C  14.433,21.466  0,194.675  0,364.35  L  0,505  L  0,655  L  130.625,655  L  130.625,640  C  130.625,615  129.062,538.75  129.062,505  C  129.062,469.837  137.5,364.35  137.5,364.35  C  137.5,364.35  145.938,469.837  145.938,505  C  145.938,538.75  144.375,615  144.375,640  L  144.375,655  L  261.25,655  L  261.25,640  C  261.25,605  258.125,538.75  258.125,505  C  258.125,469.837  275,399.512  275,364.35  C  262.5,364.35  245.464,358.694  231.81,345.04  C  218.156,331.386  203.126,252.171  204.667,196.468  C  206.208,140.764  225.686,46.003  228.289,36.348  L  101.568,2.192  C  97.7,21.815  14.433,21.466  14.433,21.466  z " />
<path transform="translate( 0, 0 )" style="stroke: hsl(188.3, 55%, 50%);" id="232"  d=" M  14.433,21.466  C  14.433,21.466  0,194.675  0,364.35  L  0,505  L  0,655  L  130.625,655  L  130.625,640  C  130.625,615  129.062,538.75  129.062,505  C  129.062,469.837  137.5,364.35  137.5,364.35  C  137.5,364.35  145.938,469.837  145.938,505  C  145.938,538.75  144.375,615  144.375,640  L  144.375,655  L  261.25,655  L  261.25,640  C  261.25,605  258.125,538.75  258.125,505  C  258.125,469.837  275,399.512  275,364.35  C  262.5,364.35  245.464,358.694  231.81,345.04  C  218.156,331.386  203.126,252.171  204.667,196.468  C  206.208,140.764  225.686,46.003  228.289,36.348  L  101.568,2.192  C  97.7,21.815  14.433,21.466  14.433,21.466  z " />
<path transform="translate( 0, 0 )" style="stroke: hsl(215.2, 55%, 50%);" id="265"  d=" M  14.433,21.466  C  14.433,21.466  0,194.675  0,364.35  L  0,505  L  0,655  L  130.625,655  L  130.625,640  C  130.625,615  129.062,538.75  129.062,505  C  129.062,469.837  137.5,364.35  137.5,364.35  C  137.5,364.35  145.938,469.837  145.938,505  C  145.938,538.75  144.375,615  144.375,640  L  144.375,655  L  261.25,655  L  261.25,640  C  261.25,605  258.125,538.75  258.125,505  C  258.125,469.837  275,399.512  275,364.35  C  262.5,364.35  245.464,358.694  231.81,345.04  C  218.156,331.386  203.126,252.171  204.667,196.468  C  206.208,140.764  225.686,46.003  228.289,36.348  L  101.568,2.192  C  97.7,21.815  14.433,21.466  14.433,21.466  z " />
<path transform="translate( 0, 0 )" style="stroke: hsl(242.1, 55%, 50%);" id="298"  d=" M  14.433,21.466  C  14.433,21.466  0,194.675  0,364.35  L  0,505  L  0,655  L  130.625,655  L  130.625,640  C  130.625,615  129.062,538.75  129.062,505  C  129.062,469.837  137.5,364.35  137.5,364.35  C  137.5,364.35  145.938,469.837  145.938,505  C  145.938,538.75  144.375,615  144.375,640  L  144.375,655  L  261.25,655  L  261.25,640  C  261.25,605  258.125,538.75  258.125,505  C  258.125,469.837  275,399.512  275,364.35  C  262.5,364.35  245.464,358.694  231.81,345.04  C  218.156,331.386  203.126,252.171  204.667,196.468  C  206.208,140.764  225.686,46.003  228.289,36.348  L  101.568,2.192  C  97.7,21.815  14.433,21.466  14.433,21.466  z " />
<path transform="translate( 0, 0 )" style="stroke: hsl(269, 55%, 50%);" id="331"  d=" M  14.433,21.466  C  14.433,21.466  0,194.675  0,364.35  L  0,505  L  0,655  L  130.625,655  L  130.625,640  C  130.625,615  129.062,538.75  129.062,505  C  129.062,469.837  137.5,364.35  137.5,364.35  C  137.5,364.35  145.938,469.837  145.938,505  C  145.938,538.75  144.375,615  144.375,640  L  144.375,655  L  261.25,655  L  261.25,640  C  261.25,605  258.125,538.75  258.125,505  C  258.125,469.837  275,399.512  275,364.35  C  262.5,364.35  245.464,358.694  231.81,345.04  C  218.156,331.386  203.126,252.171  204.667,196.468  C  206.208,140.764  225.686,46.003  228.289,36.348  L  101.568,2.192  C  97.7,21.815  14.433,21.466  14.433,21.466  z " />
<path transform="translate( 0, 0 )" style="stroke: hsl(295.9, 55%, 50%);" id="364"  d=" M  14.433,21.466  C  14.433,21.466  0,194.675  0,364.35  L  0,505  L  0,655  L  130.625,655  L  130.625,640  C  130.625,615  129.062,538.75  129.062,505  C  129.062,469.837  137.5,364.35  137.5,364.35  C  137.5,364.35  145.938,469.837  145.938,505  C  145.938,538.75  144.375,615  144.375,640  L  144.375,655  L  261.25,655  L  261.25,640  C  261.25,605  258.125,538.75  258.125,505  C  258.125,469.837  275,399.512  275,364.35  C  262.5,364.35  245.464,358.694  231.81,345.04  C  218.156,331.386  203.126,252.171  204.667,196.468  C  206.208,140.764  225.686,46.003  228.289,36.348  L  101.568,2.192  C  97.7,21.815  14.433,21.466  14.433,21.466  z " />
    </g>
    <!-- End of group #back -->
    
    <!-- Start of group #frontFacing -->
    <g id="frontFacing" >
    </g>
    <!-- End of group #frontFacing -->
    
    <!-- Start of group #frontLining -->
    <g id="frontLining" >
    </g>
    <!-- End of group #frontLining -->
    
    <!-- Start of group #pocketWelt -->
    <g id="pocketWelt" >
    </g>
    <!-- End of group #pocketWelt -->
    
    <!-- Start of group #pocketFacing -->
    <g id="pocketFacing" >
    </g>
    <!-- End of group #pocketFacing -->
    
    <!-- Start of group #pocketBag -->
    <g id="pocketBag" >
    </g>
    <!-- End of group #pocketBag -->
    
    <!-- Start of group #pocketInterfacing -->
    <g id="pocketInterfacing" >
    </g>
    <!-- End of group #pocketInterfacing -->
    
    <!-- Start of group #sampler-front -->
    <g id="sampler-front" >
    </g>
    <!-- End of group #sampler-front -->
    
    <!-- Start of group #sampler-back -->
    <g id="sampler-back" >
    </g>
    <!-- End of group #sampler-back -->
</g>
<!-- End of group #patternContainer -->

</svg>

