<?xml version="1.0" encoding="UTF-8" standalone="no"?>
<svg
    xmlns="http://www.w3.org/2000/svg"
    xmlns:svg="http://www.w3.org/2000/svg"
    xmlns:xlink="http://www.w3.org/1999/xlink"
    xmlns:freesewing="http://freesewing.org/namespaces/freesewing" viewBox ="0 0 607 697"
    width ="607mm"
    height ="697mm"
    freesewing:version ="1.5.0"
    freesewing:origin ="joost.core.freesewing.org" 
>

<style type="text/css">
    <![CDATA[
    path { fill: none; stroke: #000000; stroke-opacity:1; stroke-width: 0.5; stroke-miterlimit:4; stroke-dashoffset:0; stroke-linecap:round; stroke-linejoin:round; }
    path.hidden { fill: none; stroke: none; }]]>
</style>


<!-- Start of group #patternContainer -->
<g id="patternContainer" >
    
    <!-- Start of group #frontBlock -->
    <g id="frontBlock" >
    </g>
    <!-- End of group #frontBlock -->
    
    <!-- Start of group #backBlock -->
    <g id="backBlock" >
    </g>
    <!-- End of group #backBlock -->
    
    <!-- Start of group #waistcoatFrontBlock -->
    <g id="waistcoatFrontBlock" >
    </g>
    <!-- End of group #waistcoatFrontBlock -->
    
    <!-- Start of group #front -->
    <g id="front"  transform=" translate(15 1.676)  translate(0 0) " >
        <path class="hidden" id="2"  d=" M  -10,3.324  L  301.898,3.324  L  301.898,690.625  L  -10,690.625  z " />
<path transform="translate( 0, 0 )" style="stroke: hsl(26.9, 55%, 50%);" id="32"  d=" M  161.429,525.96  L  210.538,516.566  213.357,531.298  162.953,540.883  M  128.874,542.5  L  80.343,546.464  79.139,531.512  128.978,527.5 " />
<path transform="translate( 0, 0 )" style="stroke: hsl(26.9, 55%, 50%);" id="33"  d=" M  -10,284.35  L  -10,621.719  L  56.563,688.282  C  62.917,681.928  88.744,672.731  128.125,665.661  L  128.125,640  C  128.125,615  129.062,538.75  129.062,505  C  129.062,469.837  137.5,364.35  137.5,364.35  C  137.5,364.35  155.887,468.564  159.215,503.569  C  162.411,537.168  170.562,612.987  172.929,637.874  L  175.069,660.38  C  205.207,652.994  241.857,646.387  283.232,642.453  L  281.812,627.52  C  278.499,592.677  274.094,526.547  270.899,492.949  C  267.57,457.944  277.711,386.337  274.382,351.333  C  261.939,352.516  241.955,348.735  227.07,336.435  C  212.184,324.135  190,250.4  190,194.675  C  190,138.95  217.121,42.841  219.39,33.102  L  91.569,3.324  C  88.245,23.046  91.847,104  -10,284.35  z " />
<path transform="translate( 0, 0 )" style="stroke: hsl(53.8, 55%, 50%);" id="65"  d=" M  161.34,525.969  L  210.517,516.938  213.226,531.692  162.753,540.902  M  129.075,542.5  L  80.574,546.823  79.26,531.881  129.068,527.5 " />
<path transform="translate( 0, 0 )" style="stroke: hsl(53.8, 55%, 50%);" id="66"  d=" M  -10,284.35  L  -10,621.469  L  57.063,688.532  C  63.465,682.13  88.85,672.865  129.125,665.59  L  129.125,640  C  129.125,615  129.062,538.75  129.062,505  C  129.062,469.837  137.5,364.35  137.5,364.35  C  137.5,364.35  155.887,468.564  159.215,503.569  C  162.411,537.168  169.566,613.081  171.933,637.969  L  174.096,660.712  C  203.64,653.333  241.594,646.412  285.223,642.263  L  283.803,627.331  C  280.49,592.488  274.094,526.547  270.899,492.949  C  267.57,457.944  277.711,386.337  274.382,351.333  C  261.939,352.516  241.955,348.735  227.07,336.435  C  212.184,324.135  190,250.4  190,194.675  C  190,138.95  217.121,42.841  219.39,33.102  L  91.569,3.324  C  88.245,23.046  91.847,104  -10,284.35  z " />
<path transform="translate( 0, 0 )" style="stroke: hsl(80.7, 55%, 50%);" id="98"  d=" M  161.25,525.978  L  210.493,517.311  213.093,532.084  162.552,540.921  M  129.276,542.5  L  80.809,547.181  79.384,532.249  129.158,527.5 " />
<path transform="translate( 0, 0 )" style="stroke: hsl(80.7, 55%, 50%);" id="99"  d=" M  -10,284.35  L  -10,621.219  L  57.563,688.782  C  64.132,682.213  89.887,672.651  130.125,665.519  L  130.125,640  C  130.125,615  129.062,538.75  129.062,505  C  129.062,469.837  137.5,364.35  137.5,364.35  C  137.5,364.35  155.887,468.564  159.215,503.569  C  162.411,537.168  168.571,613.176  170.938,638.064  L  173.123,661.047  C  203.999,653.324  242.421,646.334  287.214,642.074  L  285.794,627.141  C  282.481,592.298  274.094,526.547  270.899,492.949  C  267.57,457.944  277.711,386.337  274.382,351.333  C  261.939,352.516  241.955,348.735  227.07,336.435  C  212.184,324.135  190,250.4  190,194.675  C  190,138.95  217.121,42.841  219.39,33.102  L  91.569,3.324  C  88.245,23.046  91.847,104  -10,284.35  z " />
<path transform="translate( 0, 0 )" style="stroke: hsl(107.6, 55%, 50%);" id="131"  d=" M  161.16,525.986  L  210.466,517.684  212.956,532.476  162.352,540.938  M  129.477,542.498  L  81.046,547.539  79.511,532.618  129.248,527.5 " />
<path transform="translate( 0, 0 )" style="stroke: hsl(107.6, 55%, 50%);" id="132"  d=" M  -10,284.35  L  -10,620.969  L  58.063,689.032  C  64.681,682.414  89.977,672.781  131.125,665.447  L  131.125,640  C  131.125,615  129.062,538.75  129.062,505  C  129.062,469.837  137.5,364.35  137.5,364.35  C  137.5,364.35  155.887,468.564  159.215,503.569  C  162.411,537.168  167.575,613.271  169.942,638.158  L  172.151,661.386  C  202.367,653.679  242.068,646.367  289.206,641.885  L  287.785,626.952  C  284.472,592.109  274.094,526.547  270.899,492.949  C  267.57,457.944  277.711,386.337  274.382,351.333  C  261.939,352.516  241.955,348.735  227.07,336.435  C  212.184,324.135  190,250.4  190,194.675  C  190,138.95  217.121,42.841  219.39,33.102  L  91.569,3.324  C  88.245,23.046  91.847,104  -10,284.35  z " />
<path transform="translate( 0, 0 )" style="stroke: hsl(134.5, 55%, 50%);" id="164"  d=" M  161.071,525.995  L  210.437,518.057  212.818,532.868  162.152,540.955  M  129.678,542.496  L  81.286,547.895  79.64,532.986  129.338,527.5 " />
<path transform="translate( 0, 0 )" style="stroke: hsl(134.5, 55%, 50%);" id="165"  d=" M  -10,284.35  L  -10,620.719  L  58.563,689.282  C  65.23,682.615  90.067,672.912  132.125,665.375  L  132.125,640  C  132.125,615  129.062,538.75  129.062,505  C  129.062,469.837  137.5,364.35  137.5,364.35  C  137.5,364.35  155.887,468.564  159.215,503.569  C  162.411,537.168  166.58,613.365  168.947,638.253  L  171.179,661.728  C  202.702,653.673  242.865,646.291  291.197,641.695  L  289.776,626.763  C  286.463,591.92  274.094,526.547  270.899,492.949  C  267.57,457.944  277.711,386.337  274.382,351.333  C  261.939,352.516  241.955,348.735  227.07,336.435  C  212.184,324.135  190,250.4  190,194.675  C  190,138.95  217.121,42.841  219.39,33.102  L  91.569,3.324  C  88.245,23.046  91.847,104  -10,284.35  z " />
<path transform="translate( 0, 0 )" style="stroke: hsl(161.4, 55%, 50%);" id="197"  d=" M  160.981,526.003  L  210.404,518.432  212.675,533.259  161.952,540.971  M  129.879,542.493  L  81.528,548.25  79.772,533.353  129.428,527.5 " />
<path transform="translate( 0, 0 )" style="stroke: hsl(161.4, 55%, 50%);" id="198"  d=" M  -10,284.35  L  -10,620.469  L  59.063,689.532  C  65.9,682.695  91.049,672.686  133.125,665.303  L  133.125,640  C  133.125,615  129.062,538.75  129.062,505  C  129.062,469.837  137.5,364.35  137.5,364.35  C  137.5,364.35  155.887,468.564  159.215,503.569  C  162.411,537.168  165.584,613.46  167.951,638.348  L  170.207,662.075  C  201.012,654.04  242.423,646.333  293.188,641.506  L  291.767,626.573  C  288.454,591.73  274.094,526.547  270.899,492.949  C  267.57,457.944  277.711,386.337  274.382,351.333  C  261.939,352.516  241.955,348.735  227.07,336.435  C  212.184,324.135  190,250.4  190,194.675  C  190,138.95  217.121,42.841  219.39,33.102  L  91.569,3.324  C  88.245,23.046  91.847,104  -10,284.35  z " />
<path transform="translate( 0, 0 )" style="stroke: hsl(188.3, 55%, 50%);" id="230"  d=" M  160.892,526.012  L  210.37,518.807  212.532,533.65  161.751,540.986  M  130.08,542.489  L  81.773,548.604  79.907,533.721  129.518,527.5 " />
<path transform="translate( 0, 0 )" style="stroke: hsl(188.3, 55%, 50%);" id="231"  d=" M  -10,284.35  L  -10,620.219  L  59.563,689.782  C  66.449,682.896  91.122,672.814  134.125,665.231  L  134.125,640  C  134.125,615  129.062,538.75  129.062,505  C  129.062,469.837  137.5,364.35  137.5,364.35  C  137.5,364.35  155.887,468.564  159.215,503.569  C  162.411,537.168  164.589,613.555  166.956,638.442  L  169.236,662.425  C  201.324,654.039  243.189,646.261  295.179,641.317  L  293.759,626.384  C  290.445,591.541  274.094,526.547  270.899,492.949  C  267.57,457.944  277.711,386.337  274.382,351.333  C  261.939,352.516  241.955,348.735  227.07,336.435  C  212.184,324.135  190,250.4  190,194.675  C  190,138.95  217.121,42.841  219.39,33.102  L  91.569,3.324  C  88.245,23.046  91.847,104  -10,284.35  z " />
<path transform="translate( 0, 0 )" style="stroke: hsl(215.2, 55%, 50%);" id="263"  d=" M  160.802,526.02  L  210.332,519.178  212.385,534.037  161.552,541.001  M  130.28,542.485  L  82.019,548.954  80.044,534.085  129.608,527.5 " />
<path transform="translate( 0, 0 )" style="stroke: hsl(215.2, 55%, 50%);" id="264"  d=" M  -10,284.35  L  -10,619.969  L  60.063,690.032  C  66.999,683.096  91.196,672.942  135.125,665.159  L  135.125,640  C  135.125,615  129.062,538.75  129.062,505  C  129.062,469.837  137.5,364.35  137.5,364.35  C  137.5,364.35  155.887,468.564  159.215,503.569  C  162.411,537.168  163.593,613.649  165.96,638.537  L  168.265,662.78  C  199.579,654.421  242.659,646.311  297.17,641.127  L  295.75,626.195  C  292.436,591.352  274.094,526.547  270.899,492.949  C  267.57,457.944  277.711,386.337  274.382,351.333  C  261.939,352.516  241.955,348.735  227.07,336.435  C  212.184,324.135  190,250.4  190,194.675  C  190,138.95  217.121,42.841  219.39,33.102  L  91.569,3.324  C  88.245,23.046  91.847,104  -10,284.35  z " />
<path transform="translate( 0, 0 )" style="stroke: hsl(242.1, 55%, 50%);" id="296"  d=" M  160.712,526.029  L  210.291,519.554  212.234,534.428  161.351,541.015  M  130.481,542.48  L  82.27,549.306  80.184,534.452  129.698,527.5 " />
<path transform="translate( 0, 0 )" style="stroke: hsl(242.1, 55%, 50%);" id="297"  d=" M  -10,284.35  L  -10,619.719  L  60.563,690.282  C  67.673,683.172  92.121,672.704  136.125,665.087  L  136.125,640  C  136.125,615  129.062,538.75  129.062,505  C  129.062,469.837  137.5,364.35  137.5,364.35  C  137.5,364.35  155.887,468.564  159.215,503.569  C  162.411,537.168  162.598,613.744  164.965,638.632  L  167.295,663.138  C  199.87,654.421  243.395,646.241  299.161,640.938  L  297.741,626.005  C  294.427,591.162  274.094,526.547  270.899,492.949  C  267.57,457.944  277.711,386.337  274.382,351.333  C  261.939,352.516  241.955,348.735  227.07,336.435  C  212.184,324.135  190,250.4  190,194.675  C  190,138.95  217.121,42.841  219.39,33.102  L  91.569,3.324  C  88.245,23.046  91.847,104  -10,284.35  z " />
<path transform="translate( 0, 0 )" style="stroke: hsl(269, 55%, 50%);" id="329"  d=" M  160.623,526.037  L  210.248,519.927  212.081,534.814  161.151,541.027  M  130.681,542.473  L  82.521,549.654  80.326,534.815  129.788,527.5 " />
<path transform="translate( 0, 0 )" style="stroke: hsl(269, 55%, 50%);" id="330"  d=" M  -10,284.35  L  -10,619.469  L  61.063,690.532  C  68.223,683.372  92.177,672.83  137.125,665.016  L  137.125,640  C  137.125,615  129.062,538.75  129.062,505  C  129.062,469.837  137.5,364.35  137.5,364.35  C  137.5,364.35  155.887,468.564  159.215,503.569  C  162.411,537.168  161.602,613.839  163.969,638.726  L  166.325,663.501  C  198.074,654.817  242.774,646.3  301.152,640.749  L  299.732,625.816  C  296.418,590.973  274.094,526.547  270.899,492.949  C  267.57,457.944  277.711,386.337  274.382,351.333  C  261.939,352.516  241.955,348.735  227.07,336.435  C  212.184,324.135  190,250.4  190,194.675  C  190,138.95  217.121,42.841  219.39,33.102  L  91.569,3.324  C  88.245,23.046  91.847,104  -10,284.35  z " />
<path transform="translate( 0, 0 )" style="stroke: hsl(295.9, 55%, 50%);" id="362"  d=" M  160.59,526.04  L  210.233,520.073  212.023,534.965  161.075,541.033  M  130.757,542.471  L  82.617,549.789  80.38,534.957  129.821,527.5 " />
<path transform="translate( 0, 0 )" style="stroke: hsl(295.9, 55%, 50%);" id="363"  d=" M  -10,284.35  L  -10,619.375  L  61.25,690.625  C  68.43,683.445  92.198,672.876  137.5,664.988  L  137.5,640  C  137.5,615  129.062,538.75  129.062,505  C  129.062,469.837  137.5,364.35  137.5,364.35  C  137.5,364.35  155.887,468.564  159.215,503.569  C  162.411,537.168  161.229,613.874  163.596,638.762  L  165.961,663.638  C  198.175,654.818  243.039,646.275  301.898,640.678  L  300.478,625.745  C  297.165,590.902  274.094,526.547  270.899,492.949  C  267.57,457.944  277.711,386.337  274.382,351.333  C  261.939,352.516  241.955,348.735  227.07,336.435  C  212.184,324.135  190,250.4  190,194.675  C  190,138.95  217.121,42.841  219.39,33.102  L  91.569,3.324  C  88.245,23.046  91.847,104  -10,284.35  z " />
    </g>
    <!-- End of group #front -->
    
    <!-- Start of group #back -->
    <g id="back"  transform=" translate(5 2.808)  translate(321.898 0) " >
        <path class="hidden" id="3"  d=" M  0,2.192  L  275,2.192  L  275,655  L  0,655  z " />
<path transform="translate( 0, 0 )" style="stroke: hsl(26.9, 55%, 50%);" id="34"  d=" M  14.433,21.466  C  14.433,21.466  0,194.675  0,364.35  L  0,505  L  0,655  L  128.125,655  L  128.125,640  C  128.125,615  129.062,538.75  129.062,505  C  129.062,469.837  137.5,364.35  137.5,364.35  C  137.5,364.35  145.938,469.837  145.938,505  C  145.938,538.75  146.875,615  146.875,640  L  146.875,655  L  256.25,655  L  256.25,640  C  256.25,605  258.125,538.75  258.125,505  C  258.125,469.837  275,399.512  275,364.35  C  262.5,364.35  245.464,358.694  231.81,345.04  C  218.156,331.386  203.126,252.171  204.667,196.468  C  206.208,140.764  225.686,46.003  228.289,36.348  L  101.568,2.192  C  97.7,21.815  14.433,21.466  14.433,21.466  z " />
<path transform="translate( 0, 0 )" style="stroke: hsl(53.8, 55%, 50%);" id="67"  d=" M  14.433,21.466  C  14.433,21.466  0,194.675  0,364.35  L  0,505  L  0,655  L  129.125,655  L  129.125,640  C  129.125,615  129.062,538.75  129.062,505  C  129.062,469.837  137.5,364.35  137.5,364.35  C  137.5,364.35  145.938,469.837  145.938,505  C  145.938,538.75  145.875,615  145.875,640  L  145.875,655  L  258.25,655  L  258.25,640  C  258.25,605  258.125,538.75  258.125,505  C  258.125,469.837  275,399.512  275,364.35  C  262.5,364.35  245.464,358.694  231.81,345.04  C  218.156,331.386  203.126,252.171  204.667,196.468  C  206.208,140.764  225.686,46.003  228.289,36.348  L  101.568,2.192  C  97.7,21.815  14.433,21.466  14.433,21.466  z " />
<path transform="translate( 0, 0 )" style="stroke: hsl(80.7, 55%, 50%);" id="100"  d=" M  14.433,21.466  C  14.433,21.466  0,194.675  0,364.35  L  0,505  L  0,655  L  130.125,655  L  130.125,640  C  130.125,615  129.062,538.75  129.062,505  C  129.062,469.837  137.5,364.35  137.5,364.35  C  137.5,364.35  145.938,469.837  145.938,505  C  145.938,538.75  144.875,615  144.875,640  L  144.875,655  L  260.25,655  L  260.25,640  C  260.25,605  258.125,538.75  258.125,505  C  258.125,469.837  275,399.512  275,364.35  C  262.5,364.35  245.464,358.694  231.81,345.04  C  218.156,331.386  203.126,252.171  204.667,196.468  C  206.208,140.764  225.686,46.003  228.289,36.348  L  101.568,2.192  C  97.7,21.815  14.433,21.466  14.433,21.466  z " />
<path transform="translate( 0, 0 )" style="stroke: hsl(107.6, 55%, 50%);" id="133"  d=" M  14.433,21.466  C  14.433,21.466  0,194.675  0,364.35  L  0,505  L  0,655  L  131.125,655  L  131.125,640  C  131.125,615  129.062,538.75  129.062,505  C  129.062,469.837  137.5,364.35  137.5,364.35  C  137.5,364.35  145.938,469.837  145.938,505  C  145.938,538.75  143.875,615  143.875,640  L  143.875,655  L  262.25,655  L  262.25,640  C  262.25,605  258.125,538.75  258.125,505  C  258.125,469.837  275,399.512  275,364.35  C  262.5,364.35  245.464,358.694  231.81,345.04  C  218.156,331.386  203.126,252.171  204.667,196.468  C  206.208,140.764  225.686,46.003  228.289,36.348  L  101.568,2.192  C  97.7,21.815  14.433,21.466  14.433,21.466  z " />
<path transform="translate( 0, 0 )" style="stroke: hsl(134.5, 55%, 50%);" id="166"  d=" M  14.433,21.466  C  14.433,21.466  0,194.675  0,364.35  L  0,505  L  0,655  L  132.125,655  L  132.125,640  C  132.125,615  129.062,538.75  129.062,505  C  129.062,469.837  137.5,364.35  137.5,364.35  C  137.5,364.35  145.938,469.837  145.938,505  C  145.938,538.75  142.875,615  142.875,640  L  142.875,655  L  264.25,655  L  264.25,640  C  264.25,605  258.125,538.75  258.125,505  C  258.125,469.837  275,399.512  275,364.35  C  262.5,364.35  245.464,358.694  231.81,345.04  C  218.156,331.386  203.126,252.171  204.667,196.468  C  206.208,140.764  225.686,46.003  228.289,36.348  L  101.568,2.192  C  97.7,21.815  14.433,21.466  14.433,21.466  z " />
<path transform="translate( 0, 0 )" style="stroke: hsl(161.4, 55%, 50%);" id="199"  d=" M  14.433,21.466  C  14.433,21.466  0,194.675  0,364.35  L  0,505  L  0,655  L  133.125,655  L  133.125,640  C  133.125,615  129.062,538.75  129.062,505  C  129.062,469.837  137.5,364.35  137.5,364.35  C  137.5,364.35  145.938,469.837  145.938,505  C  145.938,538.75  141.875,615  141.875,640  L  141.875,655  L  266.25,655  L  266.25,640  C  266.25,605  258.125,538.75  258.125,505  C  258.125,469.837  275,399.512  275,364.35  C  262.5,364.35  245.464,358.694  231.81,345.04  C  218.156,331.386  203.126,252.171  204.667,196.468  C  206.208,140.764  225.686,46.003  228.289,36.348  L  101.568,2.192  C  97.7,21.815  14.433,21.466  14.433,21.466  z " />
<path transform="translate( 0, 0 )" style="stroke: hsl(188.3, 55%, 50%);" id="232"  d=" M  14.433,21.466  C  14.433,21.466  0,194.675  0,364.35  L  0,505  L  0,655  L  134.125,655  L  134.125,640  C  134.125,615  129.062,538.75  129.062,505  C  129.062,469.837  137.5,364.35  137.5,364.35  C  137.5,364.35  145.938,469.837  145.938,505  C  145.938,538.75  140.875,615  140.875,640  L  140.875,655  L  268.25,655  L  268.25,640  C  268.25,605  258.125,538.75  258.125,505  C  258.125,469.837  275,399.512  275,364.35  C  262.5,364.35  245.464,358.694  231.81,345.04  C  218.156,331.386  203.126,252.171  204.667,196.468  C  206.208,140.764  225.686,46.003  228.289,36.348  L  101.568,2.192  C  97.7,21.815  14.433,21.466  14.433,21.466  z " />
<path transform="translate( 0, 0 )" style="stroke: hsl(215.2, 55%, 50%);" id="265"  d=" M  14.433,21.466  C  14.433,21.466  0,194.675  0,364.35  L  0,505  L  0,655  L  135.125,655  L  135.125,640  C  135.125,615  129.062,538.75  129.062,505  C  129.062,469.837  137.5,364.35  137.5,364.35  C  137.5,364.35  145.938,469.837  145.938,505  C  145.938,538.75  139.875,615  139.875,640  L  139.875,655  L  270.25,655  L  270.25,640  C  270.25,605  258.125,538.75  258.125,505  C  258.125,469.837  275,399.512  275,364.35  C  262.5,364.35  245.464,358.694  231.81,345.04  C  218.156,331.386  203.126,252.171  204.667,196.468  C  206.208,140.764  225.686,46.003  228.289,36.348  L  101.568,2.192  C  97.7,21.815  14.433,21.466  14.433,21.466  z " />
<path transform="translate( 0, 0 )" style="stroke: hsl(242.1, 55%, 50%);" id="298"  d=" M  14.433,21.466  C  14.433,21.466  0,194.675  0,364.35  L  0,505  L  0,655  L  136.125,655  L  136.125,640  C  136.125,615  129.062,538.75  129.062,505  C  129.062,469.837  137.5,364.35  137.5,364.35  C  137.5,364.35  145.938,469.837  145.938,505  C  145.938,538.75  138.875,615  138.875,640  L  138.875,655  L  272.25,655  L  272.25,640  C  272.25,605  258.125,538.75  258.125,505  C  258.125,469.837  275,399.512  275,364.35  C  262.5,364.35  245.464,358.694  231.81,345.04  C  218.156,331.386  203.126,252.171  204.667,196.468  C  206.208,140.764  225.686,46.003  228.289,36.348  L  101.568,2.192  C  97.7,21.815  14.433,21.466  14.433,21.466  z " />
<path transform="translate( 0, 0 )" style="stroke: hsl(269, 55%, 50%);" id="331"  d=" M  14.433,21.466  C  14.433,21.466  0,194.675  0,364.35  L  0,505  L  0,655  L  137.125,655  L  137.125,640  C  137.125,615  129.062,538.75  129.062,505  C  129.062,469.837  137.5,364.35  137.5,364.35  C  137.5,364.35  145.938,469.837  145.938,505  C  145.938,538.75  137.875,615  137.875,640  L  137.875,655  L  274.25,655  L  274.25,640  C  274.25,605  258.125,538.75  258.125,505  C  258.125,469.837  275,399.512  275,364.35  C  262.5,364.35  245.464,358.694  231.81,345.04  C  218.156,331.386  203.126,252.171  204.667,196.468  C  206.208,140.764  225.686,46.003  228.289,36.348  L  101.568,2.192  C  97.7,21.815  14.433,21.466  14.433,21.466  z " />
<path transform="translate( 0, 0 )" style="stroke: hsl(295.9, 55%, 50%);" id="364"  d=" M  14.433,21.466  C  14.433,21.466  0,194.675  0,364.35  L  0,505  L  0,655  L  137.5,655  L  137.5,640  C  137.5,615  129.062,538.75  129.062,505  C  129.062,469.837  137.5,364.35  137.5,364.35  C  137.5,364.35  145.938,469.837  145.938,505  C  145.938,538.75  137.5,615  137.5,640  L  137.5,655  L  275,655  L  275,640  C  275,605  258.125,538.75  258.125,505  C  258.125,469.837  275,399.512  275,364.35  C  262.5,364.35  245.464,358.694  231.81,345.04  C  218.156,331.386  203.126,252.171  204.667,196.468  C  206.208,140.764  225.686,46.003  228.289,36.348  L  101.568,2.192  C  97.7,21.815  14.433,21.466  14.433,21.466  z " />
    </g>
    <!-- End of group #back -->
    
    <!-- Start of group #frontFacing -->
    <g id="frontFacing" >
    </g>
    <!-- End of group #frontFacing -->
    
    <!-- Start of group #frontLining -->
    <g id="frontLining" >
    </g>
    <!-- End of group #frontLining -->
    
    <!-- Start of group #pocketWelt -->
    <g id="pocketWelt" >
    </g>
    <!-- End of group #pocketWelt -->
    
    <!-- Start of group #pocketFacing -->
    <g id="pocketFacing" >
    </g>
    <!-- End of group #pocketFacing -->
    
    <!-- Start of group #pocketBag -->
    <g id="pocketBag" >
    </g>
    <!-- End of group #pocketBag -->
    
    <!-- Start of group #pocketInterfacing -->
    <g id="pocketInterfacing" >
    </g>
    <!-- End of group #pocketInterfacing -->
    
    <!-- Start of group #sampler-front -->
    <g id="sampler-front" >
    </g>
    <!-- End of group #sampler-front -->
    
    <!-- Start of group #sampler-back -->
    <g id="sampler-back" >
    </g>
    <!-- End of group #sampler-back -->
</g>
<!-- End of group #patternContainer -->

</svg>

