<?xml version="1.0" encoding="UTF-8" standalone="no"?>
<svg
    xmlns="http://www.w3.org/2000/svg"
    xmlns:svg="http://www.w3.org/2000/svg"
    xmlns:xlink="http://www.w3.org/1999/xlink"
    xmlns:freesewing="http://freesewing.org/namespaces/freesewing" viewBox ="0 0 396 109"
    width ="396mm"
    height ="109mm"
    freesewing:version ="1.5.0"
    freesewing:origin ="joost.core.freesewing.org" 
>

<style type="text/css">
    <![CDATA[
    path { fill: none; stroke: #000000; stroke-opacity:1; stroke-width: 0.5; stroke-miterlimit:4; stroke-dashoffset:0; stroke-linecap:round; stroke-linejoin:round; }
    path.hidden { fill: none; stroke: none; }]]>
</style>


<!-- Start of group #patternContainer -->
<g id="patternContainer" >
    
    <!-- Start of group #bowTie1 -->
    <g id="bowTie1"  transform=" translate(5 37.5)  translate(0 34) " >
        <path class="hidden" id="2"  d=" M  0,-32.5  L  300,-32.5  L  300,32.5  L  0,32.5  z " />
<path transform="translate( 0, 0 )" style="stroke: hsl(26.9, 55%, 50%);" id="8"  d=" M  0,-12  L  70,-12  L  120,-15  C  129.982,-15.599  170,-32.5  180,-32.5  C  190,-32.5  230,-15  240,-15  C  250,-15  290,-32.5  300,-32.5  L  300,0  L  300,32.5  C  290,32.5  250,15  240,15  C  230,15  190,32.5  180,32.5  C  170,32.5  129.982,15.599  120,15  L  70,12  L  0,12  Z " />
<path transform="translate( 0, 0 )" style="stroke: hsl(53.8, 55%, 50%);" id="16"  d=" M  0,-12  L  70,-12  L  120,-15  C  129.982,-15.599  170,-32.5  180,-32.5  C  190,-32.5  230,-15  240,-15  C  250,-15  290,-32.5  300,-32.5  L  300,0  L  300,32.5  C  290,32.5  250,15  240,15  C  230,15  190,32.5  180,32.5  C  170,32.5  129.982,15.599  120,15  L  70,12  L  0,12  Z " />
<path transform="translate( 0, 0 )" style="stroke: hsl(80.7, 55%, 50%);" id="24"  d=" M  0,-12  L  70,-12  L  120,-15  C  129.982,-15.599  170,-32.5  180,-32.5  C  190,-32.5  230,-15  240,-15  C  250,-15  290,-32.5  300,-32.5  L  300,0  L  300,32.5  C  290,32.5  250,15  240,15  C  230,15  190,32.5  180,32.5  C  170,32.5  129.982,15.599  120,15  L  70,12  L  0,12  Z " />
<path transform="translate( 0, 0 )" style="stroke: hsl(107.6, 55%, 50%);" id="32"  d=" M  0,-12  L  70,-12  L  120,-15  C  129.982,-15.599  170,-32.5  180,-32.5  C  190,-32.5  230,-15  240,-15  C  250,-15  290,-32.5  300,-32.5  L  300,0  L  300,32.5  C  290,32.5  250,15  240,15  C  230,15  190,32.5  180,32.5  C  170,32.5  129.982,15.599  120,15  L  70,12  L  0,12  Z " />
<path transform="translate( 0, 0 )" style="stroke: hsl(134.5, 55%, 50%);" id="40"  d=" M  0,-12  L  70,-12  L  120,-15  C  129.982,-15.599  170,-32.5  180,-32.5  C  190,-32.5  230,-15  240,-15  C  250,-15  290,-32.5  300,-32.5  L  300,0  L  300,32.5  C  290,32.5  250,15  240,15  C  230,15  190,32.5  180,32.5  C  170,32.5  129.982,15.599  120,15  L  70,12  L  0,12  Z " />
<path transform="translate( 0, 0 )" style="stroke: hsl(161.4, 55%, 50%);" id="48"  d=" M  0,-12  L  70,-12  L  120,-15  C  129.982,-15.599  170,-32.5  180,-32.5  C  190,-32.5  230,-15  240,-15  C  250,-15  290,-32.5  300,-32.5  L  300,0  L  300,32.5  C  290,32.5  250,15  240,15  C  230,15  190,32.5  180,32.5  C  170,32.5  129.982,15.599  120,15  L  70,12  L  0,12  Z " />
<path transform="translate( 0, 0 )" style="stroke: hsl(188.3, 55%, 50%);" id="56"  d=" M  0,-12  L  70,-12  L  120,-15  C  129.982,-15.599  170,-32.5  180,-32.5  C  190,-32.5  230,-15  240,-15  C  250,-15  290,-32.5  300,-32.5  L  300,0  L  300,32.5  C  290,32.5  250,15  240,15  C  230,15  190,32.5  180,32.5  C  170,32.5  129.982,15.599  120,15  L  70,12  L  0,12  Z " />
<path transform="translate( 0, 0 )" style="stroke: hsl(215.2, 55%, 50%);" id="64"  d=" M  0,-12  L  70,-12  L  120,-15  C  129.982,-15.599  170,-32.5  180,-32.5  C  190,-32.5  230,-15  240,-15  C  250,-15  290,-32.5  300,-32.5  L  300,0  L  300,32.5  C  290,32.5  250,15  240,15  C  230,15  190,32.5  180,32.5  C  170,32.5  129.982,15.599  120,15  L  70,12  L  0,12  Z " />
<path transform="translate( 0, 0 )" style="stroke: hsl(242.1, 55%, 50%);" id="72"  d=" M  0,-12  L  70,-12  L  120,-15  C  129.982,-15.599  170,-32.5  180,-32.5  C  190,-32.5  230,-15  240,-15  C  250,-15  290,-32.5  300,-32.5  L  300,0  L  300,32.5  C  290,32.5  250,15  240,15  C  230,15  190,32.5  180,32.5  C  170,32.5  129.982,15.599  120,15  L  70,12  L  0,12  Z " />
<path transform="translate( 0, 0 )" style="stroke: hsl(269, 55%, 50%);" id="80"  d=" M  0,-12  L  70,-12  L  120,-15  C  129.982,-15.599  170,-32.5  180,-32.5  C  190,-32.5  230,-15  240,-15  C  250,-15  290,-32.5  300,-32.5  L  300,0  L  300,32.5  C  290,32.5  250,15  240,15  C  230,15  190,32.5  180,32.5  C  170,32.5  129.982,15.599  120,15  L  70,12  L  0,12  Z " />
<path transform="translate( 0, 0 )" style="stroke: hsl(295.9, 55%, 50%);" id="88"  d=" M  0,-12  L  70,-12  L  120,-15  C  129.982,-15.599  170,-32.5  180,-32.5  C  190,-32.5  230,-15  240,-15  C  250,-15  290,-32.5  300,-32.5  L  300,0  L  300,32.5  C  290,32.5  250,15  240,15  C  230,15  190,32.5  180,32.5  C  170,32.5  129.982,15.599  120,15  L  70,12  L  0,12  Z " />
    </g>
    <!-- End of group #bowTie1 -->
    
    <!-- Start of group #bowTie2 -->
    <g id="bowTie2" >
    </g>
    <!-- End of group #bowTie2 -->
    
    <!-- Start of group #bowTie3 -->
    <g id="bowTie3" >
    </g>
    <!-- End of group #bowTie3 -->
    
    <!-- Start of group #collarBand -->
    <g id="collarBand"  transform=" translate(5 17)  translate(0 0) " >
        <path class="hidden" id="3"  d=" M  0,-12  L  386,-12  L  386,12  L  0,12  z " />
<path transform="translate( 0, 0 )" style="stroke: hsl(26.9, 55%, 50%);" id="9"  d=" M  0,-12  L  346,-12  L  346,12  L  0,12  Z " />
<path transform="translate( 0, 0 )" style="stroke: hsl(53.8, 55%, 50%);" id="17"  d=" M  0,-12  L  350,-12  L  350,12  L  0,12  Z " />
<path transform="translate( 0, 0 )" style="stroke: hsl(80.7, 55%, 50%);" id="25"  d=" M  0,-12  L  354,-12  L  354,12  L  0,12  Z " />
<path transform="translate( 0, 0 )" style="stroke: hsl(107.6, 55%, 50%);" id="33"  d=" M  0,-12  L  358,-12  L  358,12  L  0,12  Z " />
<path transform="translate( 0, 0 )" style="stroke: hsl(134.5, 55%, 50%);" id="41"  d=" M  0,-12  L  362,-12  L  362,12  L  0,12  Z " />
<path transform="translate( 0, 0 )" style="stroke: hsl(161.4, 55%, 50%);" id="49"  d=" M  0,-12  L  366,-12  L  366,12  L  0,12  Z " />
<path transform="translate( 0, 0 )" style="stroke: hsl(188.3, 55%, 50%);" id="57"  d=" M  0,-12  L  370,-12  L  370,12  L  0,12  Z " />
<path transform="translate( 0, 0 )" style="stroke: hsl(215.2, 55%, 50%);" id="65"  d=" M  0,-12  L  374,-12  L  374,12  L  0,12  Z " />
<path transform="translate( 0, 0 )" style="stroke: hsl(242.1, 55%, 50%);" id="73"  d=" M  0,-12  L  378,-12  L  378,12  L  0,12  Z " />
<path transform="translate( 0, 0 )" style="stroke: hsl(269, 55%, 50%);" id="81"  d=" M  0,-12  L  382,-12  L  382,12  L  0,12  Z " />
<path transform="translate( 0, 0 )" style="stroke: hsl(295.9, 55%, 50%);" id="89"  d=" M  0,-12  L  386,-12  L  386,12  L  0,12  Z " />
    </g>
    <!-- End of group #collarBand -->
    
    <!-- Start of group #sampler-bowTie1 -->
    <g id="sampler-bowTie1" >
    </g>
    <!-- End of group #sampler-bowTie1 -->
    
    <!-- Start of group #sampler-collarBand -->
    <g id="sampler-collarBand" >
    </g>
    <!-- End of group #sampler-collarBand -->
</g>
<!-- End of group #patternContainer -->

</svg>

