<?xml version="1.0" encoding="UTF-8" standalone="no"?>
<svg
    xmlns="http://www.w3.org/2000/svg"
    xmlns:svg="http://www.w3.org/2000/svg"
    xmlns:xlink="http://www.w3.org/1999/xlink"
    xmlns:freesewing="http://freesewing.org/namespaces/freesewing" viewBox ="0 0 1428 1188"
    width ="1428mm"
    height ="1188mm"
    freesewing:version ="1.5.0"
    freesewing:origin ="joost.core.freesewing.org" 
>

<style type="text/css">
    <![CDATA[
    path { fill: none; stroke: #000000; stroke-opacity:1; stroke-width: 0.5; stroke-miterlimit:4; stroke-dashoffset:0; stroke-linecap:round; stroke-linejoin:round; }
    path.hidden { fill: none; stroke: none; }]]>
</style>


<!-- Start of group #patternContainer -->
<g id="patternContainer" >
    
    <!-- Start of group #backBlock -->
    <g id="backBlock" >
    </g>
    <!-- End of group #backBlock -->
    
    <!-- Start of group #frontBlock -->
    <g id="frontBlock" >
    </g>
    <!-- End of group #frontBlock -->
    
    <!-- Start of group #sleeveBlock -->
    <g id="sleeveBlock" >
    </g>
    <!-- End of group #sleeveBlock -->
    
    <!-- Start of group #topsleeveBlock -->
    <g id="topsleeveBlock" >
    </g>
    <!-- End of group #topsleeveBlock -->
    
    <!-- Start of group #undersleeveBlock -->
    <g id="undersleeveBlock" >
    </g>
    <!-- End of group #undersleeveBlock -->
    
    <!-- Start of group #front -->
    <g id="front" >
    </g>
    <!-- End of group #front -->
    
    <!-- Start of group #frontPs -->
    <g id="frontPs" >
    </g>
    <!-- End of group #frontPs -->
    
    <!-- Start of group #frontPanel -->
    <g id="frontPanel"  transform=" translate(76.113 5)  translate(0 0) " >
        <path class="hidden" id="2"  d=" M  -71.113,0  L  217.5,0  L  217.5,1178.107  L  -71.113,1178.107  z " />
<path transform="translate( 0, 0 )" style="stroke: hsl(26.9, 55%, 50%);" id="268"  d=" M  -67.103,87  C  -67.103,87  -71.113,120.5  -71.113,254.5  L  -71.113,1178.107  L  96.087,1178.107  L  96.087,285  C  96.087,224.231  165.871,172.09  212.5,137.25  C  212.5,98.167  216.116,29.904  217.5,20  L  74.38,0  C  71.612,19.808  74.38,87  0,87  L  -67.103,87  z " />
<path transform="translate( 0, 0.11699999999996 )" style="stroke: hsl(53.8, 55%, 50%);" id="548"  d=" M  -67.103,87  C  -67.103,87  -71.113,121.49  -71.113,259.45  L  -71.113,1177.99  L  96.087,1177.99  L  96.087,285  C  96.087,225.222  165.586,174.18  212.5,139.725  C  212.5,99.817  216.116,29.904  217.5,20  L  74.38,0  C  71.612,19.808  74.38,87  0,87  L  -67.103,87  z " />
<path transform="translate( 0, 0.51800000000003 )" style="stroke: hsl(80.7, 55%, 50%);" id="828"  d=" M  -67.103,87  C  -67.103,87  -71.113,122.48  -71.113,264.4  L  -71.113,1177.589  L  96.087,1177.589  L  96.087,285  C  96.087,226.199  165.298,176.259  212.5,142.2  C  212.5,101.467  216.116,29.904  217.5,20  L  74.38,0  C  71.612,19.808  74.38,87  0,87  L  -67.103,87  z " />
<path transform="translate( 0, 0.91000000000008 )" style="stroke: hsl(107.6, 55%, 50%);" id="1108"  d=" M  -67.103,87  C  -67.103,87  -71.113,123.47  -71.113,269.35  L  -71.113,1177.197  L  96.087,1177.197  L  96.087,285  C  96.087,227.166  165.008,178.328  212.5,144.675  C  212.5,103.117  216.116,29.904  217.5,20  L  74.38,0  C  71.612,19.808  74.38,87  0,87  L  -67.103,87  z " />
<path transform="translate( 0, 1.2850000000001 )" style="stroke: hsl(134.5, 55%, 50%);" id="1388"  d=" M  -67.103,87  C  -67.103,87  -71.113,124.46  -71.113,274.3  L  -71.113,1176.822  L  96.087,1176.822  L  96.087,285  C  96.087,228.119  164.715,180.386  212.5,147.15  C  212.5,104.767  216.116,29.904  217.5,20  L  74.38,0  C  71.612,19.808  74.38,87  0,87  L  -67.103,87  z " />
<path transform="translate( 0, 1.644 )" style="stroke: hsl(161.4, 55%, 50%);" id="1668"  d=" M  -67.103,87  C  -67.103,87  -71.113,125.45  -71.113,279.25  L  -71.113,1176.463  L  96.087,1176.463  L  96.087,285  C  96.087,229.058  164.42,182.432  212.5,149.625  C  212.5,106.417  216.116,29.904  217.5,20  L  74.38,0  C  71.612,19.808  74.38,87  0,87  L  -67.103,87  z " />
<path transform="translate( 0, 1.9870000000001 )" style="stroke: hsl(188.3, 55%, 50%);" id="1948"  d=" M  -67.103,87  C  -67.103,87  -71.113,126.44  -71.113,284.2  L  -71.113,1176.12  L  96.087,1176.12  L  96.087,285  C  96.087,229.984  164.121,184.467  212.5,152.1  C  212.5,108.067  216.116,29.904  217.5,20  L  74.38,0  C  71.612,19.808  74.38,87  0,87  L  -67.103,87  z " />
<path transform="translate( 0, 2.3119999999999 )" style="stroke: hsl(215.2, 55%, 50%);" id="2228"  d=" M  -67.103,87  C  -67.103,87  -71.113,127.43  -71.113,289.15  L  -71.113,1175.795  L  96.087,1175.795  L  96.087,285  C  96.087,230.895  163.821,186.489  212.5,154.575  C  212.5,109.717  216.116,29.904  217.5,20  L  74.38,0  C  71.612,19.808  74.38,87  0,87  L  -67.103,87  z " />
<path transform="translate( 0, 2.6179999999999 )" style="stroke: hsl(242.1, 55%, 50%);" id="2508"  d=" M  -67.103,87  C  -67.103,87  -71.113,128.42  -71.113,294.1  L  -71.113,1175.489  L  96.087,1175.489  L  96.087,285  C  96.087,231.796  163.52,188.499  212.5,157.05  C  212.5,111.367  216.116,29.904  217.5,20  L  74.38,0  C  71.612,19.808  74.38,87  0,87  L  -67.103,87  z " />
<path transform="translate( 0, 2.6410000000001 )" style="stroke: hsl(269, 55%, 50%);" id="2788"  d=" M  -67.103,87  C  -67.103,87  -71.113,129.41  -71.113,299.05  L  -71.113,1175.466  L  96.087,1175.466  L  96.087,285  C  96.087,232.681  163.216,190.496  212.5,159.525  C  212.5,113.017  216.116,29.904  217.5,20  L  74.38,0  C  71.612,19.808  74.38,87  0,87  L  -67.103,87  z " />
<path transform="translate( 0, 2.8869999999999 )" style="stroke: hsl(295.9, 55%, 50%);" id="3068"  d=" M  -67.103,87  C  -67.103,87  -71.113,130.4  -71.113,304  L  -71.113,1175.22  L  96.087,1175.22  L  96.087,285  C  96.087,233.551  162.911,192.479  212.5,162  C  212.5,114.667  216.116,29.904  217.5,20  L  74.38,0  C  71.612,19.808  74.38,87  0,87  L  -67.103,87  z " />
    </g>
    <!-- End of group #frontPanel -->
    
    <!-- Start of group #sidePanel -->
    <g id="sidePanel"  transform=" translate(-93.979 -166.829)  translate(298.613 0) " >
        <path class="hidden" id="3"  d=" M  98.979,171.829  L  332.016,171.829  L  332.016,1162.987  L  98.979,1162.987  z " />
<path transform="translate( 0, 0 )" style="stroke: hsl(26.9, 55%, 50%);" id="269"  d=" M  309.63,306.586  C  296.081,304.242  287.857,297.256  277.068,281.959  C  266.281,266.662  263.824,219.339  270.483,180.827  C  214.138,195.434  129.814,217.295  106.82,273.546  C  83.826,329.797  130.601,329.797  130.601,540.461  L  130.601,1162.986  L  332.015,1162.985  L  332.014,791.585  C  332.013,676.586  288.889,509.336  288.889,431.586  C  288.887,353.835  307.013,285.803  309.63,306.586  z " />
<path transform="translate( -0.26400000000001, -0.44799999999987 )" style="stroke: hsl(53.8, 55%, 50%);" id="549"  d=" M  309.118,307.034  C  295.51,305.064  287.314,298.3  276.038,283.202  C  264.76,268.105  261.178,219.442  266.898,179.946  C  210.77,195.36  127.62,218.196  106.257,274.027  C  84.894,329.858  130.865,329.858  130.865,536.889  L  130.865,1163.434  L  332.278,1163.434  L  332.279,792.033  C  332.279,677.033  289.152,507.309  289.152,432.035  C  289.152,356.757  307.278,290.893  309.118,307.034  z " />
<path transform="translate( -0.238, -0.76699999999983 )" style="stroke: hsl(80.7, 55%, 50%);" id="829"  d=" M  308.451,307.353  C  294.794,305.758  286.623,299.212  274.86,284.336  C  263.095,269.46  258.304,219.475  263.029,179.018  C  207.154,195.331  125.227,219.25  105.563,274.665  C  85.899,330.08  130.839,330.08  130.839,532.053  L  130.839,1163.753  L  332.251,1163.753  L  332.252,792.353  C  332.25,677.353  289.127,505.153  289.126,432.354  C  289.127,359.553  307.252,295.852  308.451,307.353  z " />
<path transform="translate( -0.21000000000001, -1.0909999999999 )" style="stroke: hsl(107.6, 55%, 50%);" id="1109"  d=" M  307.917,307.678  C  294.22,306.462  286.073,300.129  273.825,285.495  C  261.577,270.864  255.497,219.583  259.168,178.189  C  203.562,195.392  122.865,220.358  104.868,275.32  C  86.871,330.282  130.811,330.282  130.811,527.378  L  130.811,1164.077  L  332.222,1164.078  L  332.222,792.678  C  332.223,677.678  289.098,503.003  289.097,432.678  C  289.097,362.352  307.224,300.819  307.917,307.678  z " />
<path transform="translate( -0.178, -1.425 )" style="stroke: hsl(134.5, 55%, 50%);" id="1389"  d=" M  307.516,308.011  C  293.791,307.179  285.67,301.053  272.943,286.682  C  260.214,272.311  252.759,219.767  255.324,177.462  C  199.998,195.545  120.539,221.516  104.174,275.992  C  87.809,330.468  130.779,330.468  130.779,522.861  L  130.779,1164.411  L  332.191,1164.411  L  332.192,793.011  C  332.192,678.013  289.068,500.863  289.066,433.011  C  289.067,365.16  307.193,305.792  307.516,308.011  z " />
<path transform="translate( -0.14500000000001, -1.7669999999998 )" style="stroke: hsl(161.4, 55%, 50%);" id="1669"  d=" M  307.253,308.354  C  293.509,307.905  285.41,301.985  272.209,287.892  C  259.007,273.803  250.1,220.026  251.507,176.842  C  196.471,195.791  118.253,222.721  103.483,276.678  C  88.713,330.635  130.746,330.635  130.746,518.519  L  130.746,1164.753  L  332.159,1164.752  L  332.159,793.353  C  332.16,678.352  289.033,498.728  289.035,433.351  C  289.033,367.978  307.158,310.774  307.253,308.354  z " />
<path transform="translate( -0.108, -2.117 )" style="stroke: hsl(188.3, 55%, 50%);" id="1949"  d=" M  307.123,308.703  C  293.373,308.64  285.294,302.917  271.628,289.126  C  257.96,275.334  247.523,220.366  247.723,176.333  C  192.986,196.131  116.01,223.972  102.794,277.377  C  89.578,330.782  130.709,330.782  130.709,514.358  L  130.709,1165.103  L  332.122,1165.102  L  332.121,793.703  C  332.123,678.703  288.997,496.604  288.996,433.702  C  288.996,370.802  307.12,315.766  307.123,308.703  z " />
<path transform="translate( -0.068000000000012, -2.4759999999999 )" style="stroke: hsl(215.2, 55%, 50%);" id="2229"  d=" M  307.128,309.062  C  293.385,309.386  285.328,303.855  271.202,290.38  C  257.077,276.904  245.037,220.781  243.982,175.935  C  189.552,196.563  113.816,225.265  102.111,278.089  C  90.406,330.913  130.669,330.913  130.669,510.377  L  130.669,1165.462  L  332.083,1165.461  L  332.082,794.061  C  332.082,679.061  288.956,494.487  288.956,434.06  C  288.956,373.636  307.082,320.765  307.128,309.062  z " />
<path transform="translate( -0.025000000000006, -2.8449999999998 )" style="stroke: hsl(242.1, 55%, 50%);" id="2509"  d=" M  307.272,309.429  C  293.542,310.136  285.506,304.795  270.934,291.653  C  256.359,278.51  242.645,221.273  240.291,175.652  C  186.175,197.089  111.671,226.601  101.433,278.81  C  91.195,331.019  130.626,331.019  130.626,506.584  L  130.626,1165.831  L  332.039,1165.83  L  332.037,794.431  C  332.039,679.431  288.914,492.381  288.914,434.431  C  288.913,376.481  307.038,325.775  307.272,309.429  z " />
<path transform="translate( -0.245, -3.366 )" style="stroke: hsl(269, 55%, 50%);" id="2789"  d=" M  307.816,309.953  C  294.111,311.045  286.098,305.888  271.088,293.09  C  256.076,280.294  240.621,221.994  236.93,175.632  C  183.091,197.755  109.757,227.89  100.845,279.444  C  91.933,330.998  130.846,330.998  130.846,504.518  L  130.846,1166.352  L  332.261,1166.352  L  332.259,794.952  C  332.259,679.952  289.134,490.428  289.132,434.952  C  289.134,379.476  307.258,330.935  307.816,309.953  z " />
<path transform="translate( -0.21600000000001, -3.7669999999998 )" style="stroke: hsl(295.9, 55%, 50%);" id="3069"  d=" M  308.251,310.354  C  294.579,311.827  286.589,306.849  271.154,294.413  C  255.715,281.98  238.458,222.657  233.39,175.596  C  179.865,198.466  107.736,229.285  100.184,280.177  C  92.632,331.069  130.817,331.069  130.817,501.279  L  130.817,1166.753  L  332.23,1166.754  L  332.23,795.354  C  332.23,680.353  289.105,488.354  289.104,435.354  C  289.104,382.352  307.23,335.98  308.251,310.354  z " />
    </g>
    <!-- End of group #sidePanel -->
    
    <!-- Start of group #back -->
    <g id="back"  transform=" translate(45.8 5)  translate(1040.753 140) " >
        <path class="hidden" id="4"  d=" M  -40.8,0  L  272.5,0  L  272.5,375  L  -40.8,375  z " />
<path transform="translate( 0, 0 )" style="stroke: hsl(26.9, 55%, 50%);" id="270"  d=" M  0,20  L  0,137.25  L  -40.8,137.25  L  -40.8,375  L  83.625,375  C  83.625,314.75  101.75,254.5  101.75,254.5  C  101.75,254.5  119.875,314.75  119.875,375  L  254.375,375  C  254.375,332.25  272.5,264.219  272.5,254.5  C  258.75,254.5  249.455,249.017  236.219,235.781  C  222.983,222.545  217.5,176.333  217.5,137.25  C  217.5,98.167  216.116,29.904  217.5,20  L  74.38,0  C  71.612,19.808  0,20  0,20  z " />
<path transform="translate( 0, 0 )" style="stroke: hsl(53.8, 55%, 50%);" id="550"  d=" M  0,20  L  0,139.725  L  -40.8,139.725  L  -40.8,375  L  83.625,375  C  83.625,317.225  101.75,259.45  101.75,259.45  C  101.75,259.45  119.875,317.225  119.875,375  L  254.375,375  C  254.375,334.725  272.5,268.859  272.5,259.45  C  258.75,259.45  249.669,253.931  236.344,240.606  C  223.019,227.281  217.5,179.633  217.5,139.725  C  217.5,99.817  216.116,29.904  217.5,20  L  74.38,0  C  71.612,19.808  0,20  0,20  z " />
<path transform="translate( 0, 0 )" style="stroke: hsl(80.7, 55%, 50%);" id="830"  d=" M  0,20  L  0,142.2  L  -40.8,142.2  L  -40.8,375  L  83.625,375  C  83.625,319.7  101.75,264.4  101.75,264.4  C  101.75,264.4  119.875,319.7  119.875,375  L  254.375,375  C  254.375,337.2  272.5,273.5  272.5,264.4  C  258.75,264.4  249.875,258.845  236.465,245.435  C  223.055,232.025  217.5,182.933  217.5,142.2  C  217.5,101.467  216.116,29.904  217.5,20  L  74.38,0  C  71.612,19.808  0,20  0,20  z " />
<path transform="translate( 0, 0 )" style="stroke: hsl(107.6, 55%, 50%);" id="1110"  d=" M  0,20  L  0,144.675  L  -40.8,144.675  L  -40.8,375  L  83.625,375  C  83.625,322.175  101.75,269.35  101.75,269.35  C  101.75,269.35  119.875,322.175  119.875,375  L  254.375,375  C  254.375,339.675  272.5,278.141  272.5,269.35  C  258.75,269.35  250.075,263.761  236.582,250.268  C  223.089,236.775  217.5,186.233  217.5,144.675  C  217.5,103.117  216.116,29.904  217.5,20  L  74.38,0  C  71.612,19.808  0,20  0,20  z " />
<path transform="translate( 0, 0 )" style="stroke: hsl(134.5, 55%, 50%);" id="1390"  d=" M  0,20  L  0,147.15  L  -40.8,147.15  L  -40.8,375  L  83.625,375  C  83.625,324.65  101.75,274.3  101.75,274.3  C  101.75,274.3  119.875,324.65  119.875,375  L  254.375,375  C  254.375,342.15  272.5,282.781  272.5,274.3  C  258.75,274.3  250.271,268.677  236.697,255.103  C  223.123,241.529  217.5,189.533  217.5,147.15  C  217.5,104.767  216.116,29.904  217.5,20  L  74.38,0  C  71.612,19.808  0,20  0,20  z " />
<path transform="translate( 0, 0 )" style="stroke: hsl(161.4, 55%, 50%);" id="1670"  d=" M  0,20  L  0,149.625  L  -40.8,149.625  L  -40.8,375  L  83.625,375  C  83.625,327.125  101.75,279.25  101.75,279.25  C  101.75,279.25  119.875,327.125  119.875,375  L  254.375,375  C  254.375,344.625  272.5,287.422  272.5,279.25  C  258.75,279.25  250.461,273.595  236.808,259.942  C  223.155,246.289  217.5,192.833  217.5,149.625  C  217.5,106.417  216.116,29.904  217.5,20  L  74.38,0  C  71.612,19.808  0,20  0,20  z " />
<path transform="translate( 0, 0 )" style="stroke: hsl(188.3, 55%, 50%);" id="1950"  d=" M  0,20  L  0,152.1  L  -40.8,152.1  L  -40.8,375  L  83.625,375  C  83.625,329.6  101.75,284.2  101.75,284.2  C  101.75,284.2  119.875,329.6  119.875,375  L  254.375,375  C  254.375,347.1  272.5,292.063  272.5,284.2  C  258.75,284.2  250.645,278.513  236.916,264.784  C  223.187,251.055  217.5,196.133  217.5,152.1  C  217.5,108.067  216.116,29.904  217.5,20  L  74.38,0  C  71.612,19.808  0,20  0,20  z " />
<path transform="translate( 0, 0 )" style="stroke: hsl(215.2, 55%, 50%);" id="2230"  d=" M  0,20  L  0,154.575  L  -40.8,154.575  L  -40.8,375  L  83.625,375  C  83.625,332.075  101.75,289.15  101.75,289.15  C  101.75,289.15  119.875,332.075  119.875,375  L  254.375,375  C  254.375,349.575  272.5,296.703  272.5,289.15  C  258.75,289.15  250.826,283.432  237.022,269.628  C  223.218,255.824  217.5,199.433  217.5,154.575  C  217.5,109.717  216.116,29.904  217.5,20  L  74.38,0  C  71.612,19.808  0,20  0,20  z " />
<path transform="translate( 0, 0 )" style="stroke: hsl(242.1, 55%, 50%);" id="2510"  d=" M  0,20  L  0,157.05  L  -40.8,157.05  L  -40.8,375  L  83.625,375  C  83.625,334.55  101.75,294.1  101.75,294.1  C  101.75,294.1  119.875,334.55  119.875,375  L  254.375,375  C  254.375,352.05  272.5,301.344  272.5,294.1  C  258.75,294.1  251,288.352  237.124,274.476  C  223.248,260.6  217.5,202.733  217.5,157.05  C  217.5,111.367  216.116,29.904  217.5,20  L  74.38,0  C  71.612,19.808  0,20  0,20  z " />
<path transform="translate( 0, 0 )" style="stroke: hsl(269, 55%, 50%);" id="2790"  d=" M  0,20  L  0,159.525  L  -40.8,159.525  L  -40.8,375  L  83.625,375  C  83.625,337.025  101.75,299.05  101.75,299.05  C  101.75,299.05  119.875,337.025  119.875,375  L  254.375,375  C  254.375,354.525  272.5,305.984  272.5,299.05  C  258.75,299.05  251.173,293.273  237.225,279.325  C  223.277,265.377  217.5,206.033  217.5,159.525  C  217.5,113.017  216.116,29.904  217.5,20  L  74.38,0  C  71.612,19.808  0,20  0,20  z " />
<path transform="translate( 0, 0 )" style="stroke: hsl(295.9, 55%, 50%);" id="3070"  d=" M  0,20  L  0,162  L  -40.8,162  L  -40.8,375  L  83.625,375  C  83.625,339.5  101.75,304  101.75,304  C  101.75,304  119.875,339.5  119.875,375  L  254.375,375  C  254.375,357  272.5,310.625  272.5,304  C  258.75,304  251.338,298.194  237.322,284.178  C  223.306,270.162  217.5,209.333  217.5,162  C  217.5,114.667  216.116,29.904  217.5,20  L  74.38,0  C  71.612,19.808  0,20  0,20  z " />
    </g>
    <!-- End of group #back -->
    
    <!-- Start of group #tail -->
    <g id="tail"  transform=" translate(164.04 5)  translate(1040.753 0) " >
        <path class="hidden" id="5"  d=" M  -159.04,0  L  218.125,0  L  218.125,130  L  -159.04,130  z " />
<path transform="translate( 0, 0 )" style="stroke: hsl(26.9, 55%, 50%);" id="271"  d=" M  -159.04,50  -159.04,0  L  0,0  L  218.125,0  L  218.125,50 " />
<path transform="translate( 0, 0 )" style="stroke: hsl(26.9, 55%, 50%);" id="272"  d=" M  -159.04,80  -159.04,130  L  -0,130  L  218.125,130  L  218.125,80 " />
<path transform="translate( 0, 0 )" style="stroke: hsl(53.8, 55%, 50%);" id="551"  d=" M  -159.04,50  -159.04,0  L  0,0  L  218.125,0  L  218.125,50 " />
<path transform="translate( 0, 0 )" style="stroke: hsl(53.8, 55%, 50%);" id="552"  d=" M  -159.04,80  -159.04,130  L  -0,130  L  218.125,130  L  218.125,80 " />
<path transform="translate( 0, 0 )" style="stroke: hsl(80.7, 55%, 50%);" id="831"  d=" M  -159.04,50  -159.04,0  L  0,0  L  218.125,0  L  218.125,50 " />
<path transform="translate( 0, 0 )" style="stroke: hsl(80.7, 55%, 50%);" id="832"  d=" M  -159.04,80  -159.04,130  L  -0,130  L  218.125,130  L  218.125,80 " />
<path transform="translate( 0, 0 )" style="stroke: hsl(107.6, 55%, 50%);" id="1111"  d=" M  -159.04,50  -159.04,0  L  0,0  L  218.125,0  L  218.125,50 " />
<path transform="translate( 0, 0 )" style="stroke: hsl(107.6, 55%, 50%);" id="1112"  d=" M  -159.04,80  -159.04,130  L  -0,130  L  218.125,130  L  218.125,80 " />
<path transform="translate( 0, 0 )" style="stroke: hsl(134.5, 55%, 50%);" id="1391"  d=" M  -159.04,50  -159.04,0  L  0,0  L  218.125,0  L  218.125,50 " />
<path transform="translate( 0, 0 )" style="stroke: hsl(134.5, 55%, 50%);" id="1392"  d=" M  -159.04,80  -159.04,130  L  -0,130  L  218.125,130  L  218.125,80 " />
<path transform="translate( 0, 0 )" style="stroke: hsl(161.4, 55%, 50%);" id="1671"  d=" M  -159.04,50  -159.04,0  L  0,0  L  218.125,0  L  218.125,50 " />
<path transform="translate( 0, 0 )" style="stroke: hsl(161.4, 55%, 50%);" id="1672"  d=" M  -159.04,80  -159.04,130  L  -0,130  L  218.125,130  L  218.125,80 " />
<path transform="translate( 0, 0 )" style="stroke: hsl(188.3, 55%, 50%);" id="1951"  d=" M  -159.04,50  -159.04,0  L  0,0  L  218.125,0  L  218.125,50 " />
<path transform="translate( 0, 0 )" style="stroke: hsl(188.3, 55%, 50%);" id="1952"  d=" M  -159.04,80  -159.04,130  L  -0,130  L  218.125,130  L  218.125,80 " />
<path transform="translate( 0, 0 )" style="stroke: hsl(215.2, 55%, 50%);" id="2231"  d=" M  -159.04,50  -159.04,0  L  0,0  L  218.125,0  L  218.125,50 " />
<path transform="translate( 0, 0 )" style="stroke: hsl(215.2, 55%, 50%);" id="2232"  d=" M  -159.04,80  -159.04,130  L  -0,130  L  218.125,130  L  218.125,80 " />
<path transform="translate( 0, 0 )" style="stroke: hsl(242.1, 55%, 50%);" id="2511"  d=" M  -159.04,50  -159.04,0  L  0,0  L  218.125,0  L  218.125,50 " />
<path transform="translate( 0, 0 )" style="stroke: hsl(242.1, 55%, 50%);" id="2512"  d=" M  -159.04,80  -159.04,130  L  -0,130  L  218.125,130  L  218.125,80 " />
<path transform="translate( 0, 0 )" style="stroke: hsl(269, 55%, 50%);" id="2791"  d=" M  -159.04,50  -159.04,0  L  0,0  L  218.125,0  L  218.125,50 " />
<path transform="translate( 0, 0 )" style="stroke: hsl(269, 55%, 50%);" id="2792"  d=" M  -159.04,80  -159.04,130  L  -0,130  L  218.125,130  L  218.125,80 " />
<path transform="translate( 0, 0 )" style="stroke: hsl(295.9, 55%, 50%);" id="3071"  d=" M  -159.04,50  -159.04,0  L  0,0  L  218.125,0  L  218.125,50 " />
<path transform="translate( 0, 0 )" style="stroke: hsl(295.9, 55%, 50%);" id="3072"  d=" M  -159.04,80  -159.04,130  L  -0,130  L  218.125,130  L  218.125,80 " />
    </g>
    <!-- End of group #tail -->
    
    <!-- Start of group #topsleeve -->
    <g id="topsleeve"  transform=" translate(166.047 5)  translate(541.65 0) " >
        <path class="hidden" id="6"  d=" M  -161.047,0  L  113.078,0  L  113.078,672.068  L  -161.047,672.068  z " />
<path transform="translate( 0, 0 )" style="stroke: hsl(26.9, 55%, 50%);" id="273"  d=" M  100.178,340  C  106.684,303.1  111.309,220  111.309,165  C  111.309,110  100.178,55  100.178,55  C  100.178,55  62.611,0  0,0  C  -62.611,0  -91.83,55  -100.178,99  C  -108.526,143  -112.7,165  -125.222,165  C  -125.222,165  -110.106,294.36  -111.309,340  L  -117.326,568.198  L  -126.174,654.747  L  26.317,670.337  C  38.267,671.559  48.944,662.862  50.166,650.912  L  56.802,586  z " />
<path transform="translate( -1.584, 0 )" style="stroke: hsl(53.8, 55%, 50%);" id="553"  d=" M  101.762,340  C  108.268,303.1  113.069,220  113.069,165  C  113.069,110  101.762,55  101.762,55  C  101.762,55  63.601,0  0,0  C  -63.601,0  -93.282,55  -101.762,99  C  -110.242,143  -114.482,165  -127.202,165  C  -127.202,165  -112.45,294.154  -113.069,340  L  -116.162,569.228  L  -124.483,655.829  L  28.415,670.521  C  40.372,671.67  50.996,662.908  52.145,650.951  L  58.386,586  z " />
<path transform="translate( -3.171, 0 )" style="stroke: hsl(80.7, 55%, 50%);" id="833"  d=" M  103.349,340  C  109.855,303.1  114.832,220  114.832,165  C  114.832,110  103.349,55  103.349,55  C  103.349,55  64.593,0  0,0  C  -64.593,0  -94.736,55  -103.349,99  C  -111.962,143  -116.268,165  -129.186,165  C  -129.186,165  -114.8,293.947  -114.832,340  L  -114.991,570.267  L  -122.783,656.917  L  30.518,670.702  C  42.482,671.778  53.053,662.951  54.129,650.987  L  59.973,586  z " />
<path transform="translate( -4.759, 0 )" style="stroke: hsl(107.6, 55%, 50%);" id="1113"  d=" M  104.937,340  C  111.443,303.1  116.597,220  116.597,165  C  116.597,110  104.937,55  104.937,55  C  104.937,55  65.586,0  0,0  C  -65.586,0  -96.192,55  -104.937,99  C  -113.682,143  -118.054,165  -131.171,165  C  -131.171,165  -117.154,293.737  -116.597,340  L  -113.812,571.312  L  -121.073,658.008  L  32.626,670.881  C  44.596,671.883  55.113,662.992  56.115,651.022  L  61.561,586  z " />
<path transform="translate( -6.349, 0 )" style="stroke: hsl(134.5, 55%, 50%);" id="1393"  d=" M  106.527,340  C  113.033,303.1  118.363,220  118.363,165  C  118.363,110  106.527,55  106.527,55  C  106.527,55  66.579,0  0,0  C  -66.579,0  -97.65,55  -106.527,99  C  -115.404,143  -119.843,165  -133.159,165  C  -133.159,165  -119.51,293.527  -118.363,340  L  -112.626,572.364  L  -119.355,659.103  L  34.737,671.057  C  46.713,671.986  57.175,663.03  58.104,651.054  L  63.151,586  z " />
<path transform="translate( -7.941, 0 )" style="stroke: hsl(161.4, 55%, 50%);" id="1673"  d=" M  108.119,340  C  114.625,303.1  120.132,220  120.132,165  C  120.132,110  108.119,55  108.119,55  C  108.119,55  67.574,0  0,0  C  -67.574,0  -99.109,55  -108.119,99  C  -117.129,143  -121.634,165  -135.149,165  C  -135.149,165  -121.872,293.315  -120.132,340  L  -111.433,573.423  L  -117.628,660.202  L  36.853,671.23  C  48.834,672.085  59.242,663.065  60.097,651.084  L  64.743,586  z " />
<path transform="translate( -9.534, 0 )" style="stroke: hsl(188.3, 55%, 50%);" id="1953"  d=" M  109.712,340  C  116.218,303.1  121.902,220  121.902,165  C  121.902,110  109.712,55  109.712,55  C  109.712,55  68.57,0  0,0  C  -68.57,0  -100.569,55  -109.712,99  C  -118.855,143  -123.426,165  -137.14,165  C  -137.14,165  -124.236,293.102  -121.902,340  L  -110.231,574.487  L  -115.892,661.303  L  38.971,671.401  C  50.958,672.182  61.309,663.099  62.09,651.112  L  66.336,586  z " />
<path transform="translate( -11.129, 0 )" style="stroke: hsl(215.2, 55%, 50%);" id="2233"  d=" M  111.307,340  C  117.813,303.1  123.674,220  123.674,165  C  123.674,110  111.307,55  111.307,55  C  111.307,55  69.567,0  0,0  C  -69.567,0  -102.031,55  -111.307,99  C  -120.583,143  -125.221,165  -139.134,165  C  -139.134,165  -126.604,292.888  -123.674,340  L  -109.022,575.558  L  -114.147,662.407  L  41.094,671.568  C  53.085,672.275  63.38,663.128  64.087,651.137  L  67.931,586  z " />
<path transform="translate( -12.725, 0 )" style="stroke: hsl(242.1, 55%, 50%);" id="2513"  d=" M  112.903,340  C  119.409,303.1  125.448,220  125.448,165  C  125.448,110  112.903,55  112.903,55  C  112.903,55  70.564,0  0,0  C  -70.564,0  -103.494,55  -112.903,99  C  -122.312,143  -127.016,165  -141.129,165  C  -141.129,165  -128.976,292.673  -125.448,340  L  -107.807,576.635  L  -112.395,663.514  L  43.219,671.732  C  55.214,672.365  65.453,663.154  66.086,651.159  L  69.527,586  z " />
<path transform="translate( -14.322, 0 )" style="stroke: hsl(269, 55%, 50%);" id="2793"  d=" M  114.5,340  C  121.006,303.1  127.222,220  127.222,165  C  127.222,110  114.5,55  114.5,55  C  114.5,55  71.563,0  0,0  C  -71.563,0  -104.958,55  -114.5,99  C  -124.042,143  -128.813,165  -143.125,165  C  -143.125,165  -131.35,292.456  -127.222,340  L  -106.583,577.718  L  -110.633,664.624  L  45.348,671.894  C  57.347,672.453  67.527,663.179  68.086,651.18  L  71.124,586  z " />
<path transform="translate( -15.922, 0 )" style="stroke: hsl(295.9, 55%, 50%);" id="3073"  d=" M  116.1,340  C  122.606,303.1  129,220  129,165  C  129,110  116.1,55  116.1,55  C  116.1,55  72.563,0  0,0  C  -72.563,0  -106.425,55  -116.1,99  C  -125.775,143  -130.613,165  -145.125,165  C  -145.125,165  -133.73,292.239  -129,340  L  -105.351,578.808  L  -108.862,665.737  L  47.481,672.051  C  59.483,672.536  69.606,663.199  70.091,651.197  L  72.724,586  z " />
    </g>
    <!-- End of group #topsleeve -->
    
    <!-- Start of group #undersleeve -->
    <g id="undersleeve"  transform=" translate(107.997 -50)  translate(825.775 0) " >
        <path class="hidden" id="7"  d=" M  -102.997,55  L  101.981,55  L  101.981,671.308  L  -102.997,671.308  z " />
<path transform="translate( 0, 0 )" style="stroke: hsl(26.9, 55%, 50%);" id="274"  d=" M  100.178,340  C  106.684,303.1  93.862,219.789  89.047,165  C  84.232,110.211  75.133,55  75.133,55  C  58.863,108.538  -12.522,165  -50.089,165  L  -75.134,165  C  -75.134,165  -54.711,294.233  -58.437,340  L  -77.065,568.831  L  -88.132,655.124  L  24.162,669.526  C  36.076,671.054  46.974,662.634  48.502,650.72  L  56.802,586  z " />
<path transform="translate( -1.584, 0 )" style="stroke: hsl(53.8, 55%, 50%);" id="554"  d=" M  101.762,340  C  108.268,303.1  95.345,219.782  90.455,165  C  85.565,110.218  76.321,55  76.321,55  C  59.927,108.532  -12.72,165  -50.881,165  L  -76.322,165  C  -76.322,165  -56.181,294.075  -59.361,340  L  -75.263,569.626  L  -85.843,655.98  L  26.217,669.709  C  38.14,671.17  48.99,662.688  50.451,650.765  L  58.386,586  z " />
<path transform="translate( -3.171, 0 )" style="stroke: hsl(80.7, 55%, 50%);" id="834"  d=" M  103.349,340  C  109.855,303.1  96.832,219.775  91.866,165  C  86.9,110.225  77.512,55  77.512,55  C  61.024,108.536  -12.919,165  -51.675,165  L  -77.512,165  C  -77.512,165  -57.654,293.916  -60.287,340  L  -73.451,570.421  L  -83.541,656.834  L  28.28,669.891  C  40.211,671.284  51.012,662.741  52.405,650.81  L  59.973,586  z " />
<path transform="translate( -4.759, 0 )" style="stroke: hsl(107.6, 55%, 50%);" id="1114"  d=" M  104.937,340  C  111.443,303.1  98.318,219.768  93.277,165  C  88.236,110.232  78.703,55  78.703,55  C  62.103,108.534  -13.117,165  -52.469,165  L  -78.703,165  C  -78.703,165  -59.129,293.757  -61.213,340  L  -71.634,571.215  L  -81.232,657.684  L  30.346,670.07  C  42.285,671.395  53.037,662.791  54.362,650.852  L  61.561,586  z " />
<path transform="translate( -6.349, 0 )" style="stroke: hsl(134.5, 55%, 50%);" id="1394"  d=" M  106.527,340  C  113.033,303.1  99.808,219.761  94.691,165  C  89.574,110.239  79.895,55  79.895,55  C  63.205,108.54  -13.316,165  -53.263,165  L  -79.895,165  C  -79.895,165  -60.607,293.599  -62.141,340  L  -69.81,572.007  L  -78.916,658.529  L  32.414,670.245  C  44.36,671.503  55.064,662.837  56.322,650.891  L  63.151,586  z " />
<path transform="translate( -7.941, 0 )" style="stroke: hsl(161.4, 55%, 50%);" id="1674"  d=" M  108.119,340  C  114.625,303.1  101.299,219.754  96.106,165  C  90.913,110.246  81.089,55  81.089,55  C  64.281,108.536  -13.515,165  -54.059,165  L  -81.089,165  C  -81.089,165  -62.087,293.44  -63.069,340  L  -67.978,572.798  L  -76.59,659.371  L  34.488,670.42  C  46.441,671.609  57.095,662.883  58.284,650.93  L  64.743,586  z " />
<path transform="translate( -9.534, 0 )" style="stroke: hsl(188.3, 55%, 50%);" id="1954"  d=" M  109.712,340  C  116.218,303.1  102.791,219.747  97.522,165  C  92.253,110.253  82.284,55  82.284,55  C  65.388,108.542  -13.714,165  -54.856,165  L  -82.284,165  C  -82.284,165  -63.57,293.283  -63.999,340  L  -66.142,573.587  L  -74.258,660.208  L  36.565,670.592  C  48.525,671.713  59.128,662.926  60.249,650.966  L  66.336,586  z " />
<path transform="translate( -11.129, 0 )" style="stroke: hsl(215.2, 55%, 50%);" id="2234"  d=" M  111.307,340  C  117.813,303.1  104.285,219.74  98.94,165  C  93.595,110.26  83.48,55  83.48,55  C  66.488,108.547  -13.913,165  -55.653,165  L  -83.48,165  C  -83.48,165  -65.055,293.125  -64.929,340  L  -64.298,574.375  L  -71.917,661.041  L  38.646,670.761  C  50.612,671.813  61.165,662.966  62.217,651  L  67.931,586  z " />
<path transform="translate( -12.725, 0 )" style="stroke: hsl(242.1, 55%, 50%);" id="2514"  d=" M  112.903,340  C  119.409,303.1  105.779,219.732  100.358,165  C  94.937,110.268  84.677,55  84.677,55  C  67.599,108.555  -14.113,165  -56.451,165  L  -84.677,165  C  -84.677,165  -66.542,292.968  -65.86,340  L  -62.448,575.16  L  -69.57,661.868  L  40.728,670.928  C  52.7,671.911  63.202,663.003  64.185,651.031  L  69.527,586  z " />
<path transform="translate( -14.322, 0 )" style="stroke: hsl(269, 55%, 50%);" id="2794"  d=" M  114.5,340  C  121.006,303.1  107.274,219.725  101.778,165  C  96.282,110.275  85.875,55  85.875,55  C  68.714,108.564  -14.313,165  -57.25,165  L  -85.875,165  C  -85.875,165  -68.032,292.811  -66.792,340  L  -60.593,575.945  L  -67.215,662.693  L  42.815,671.093  C  54.792,672.007  65.243,663.038  66.157,651.061  L  71.124,586  z " />
<path transform="translate( -15.922, 0 )" style="stroke: hsl(295.9, 55%, 50%);" id="3074"  d=" M  116.1,340  C  122.606,303.1  108.772,219.717  103.2,165  C  97.628,110.283  87.075,55  87.075,55  C  69.84,108.577  -14.513,165  -58.05,165  L  -87.075,165  C  -87.075,165  -69.524,292.655  -67.725,340  L  -58.729,576.727  L  -64.851,663.511  L  44.906,671.253  C  56.888,672.099  67.287,663.07  68.133,651.088  L  72.724,586  z " />
    </g>
    <!-- End of group #undersleeve -->
    
    <!-- Start of group #belt -->
    <g id="belt"  transform=" translate(5 5)  translate(1040.753 584.803) " >
        <path class="hidden" id="8"  d=" M  0,0  L  317.645,0  L  317.645,70  L  0,70  z " />
<path transform="translate( 0, 0 )" style="stroke: hsl(26.9, 55%, 50%);" id="275"  d=" M  317.645,0  L  10,0  C  4.477,0  0,4.477  0,10  L  0,60  C  0,65.523  4.477,70  10,70  L  317.645,70  L  317.645,0  z " />
<path transform="translate( 0, 0 )" style="stroke: hsl(53.8, 55%, 50%);" id="555"  d=" M  317.645,0  L  10,0  C  4.477,0  0,4.477  0,10  L  0,60  C  0,65.523  4.477,70  10,70  L  317.645,70  L  317.645,0  z " />
<path transform="translate( 0, 0 )" style="stroke: hsl(80.7, 55%, 50%);" id="835"  d=" M  317.645,0  L  10,0  C  4.477,0  0,4.477  0,10  L  0,60  C  0,65.523  4.477,70  10,70  L  317.645,70  L  317.645,0  z " />
<path transform="translate( 0, 0 )" style="stroke: hsl(107.6, 55%, 50%);" id="1115"  d=" M  317.645,0  L  10,0  C  4.477,0  0,4.477  0,10  L  0,60  C  0,65.523  4.477,70  10,70  L  317.645,70  L  317.645,0  z " />
<path transform="translate( 0, 0 )" style="stroke: hsl(134.5, 55%, 50%);" id="1395"  d=" M  317.645,0  L  10,0  C  4.477,0  0,4.477  0,10  L  0,60  C  0,65.523  4.477,70  10,70  L  317.645,70  L  317.645,0  z " />
<path transform="translate( 0, 0 )" style="stroke: hsl(161.4, 55%, 50%);" id="1675"  d=" M  317.645,0  L  10,0  C  4.477,0  0,4.477  0,10  L  0,60  C  0,65.523  4.477,70  10,70  L  317.645,70  L  317.645,0  z " />
<path transform="translate( 0, 0 )" style="stroke: hsl(188.3, 55%, 50%);" id="1955"  d=" M  317.645,0  L  10,0  C  4.477,0  0,4.477  0,10  L  0,60  C  0,65.523  4.477,70  10,70  L  317.645,70  L  317.645,0  z " />
<path transform="translate( 0, 0 )" style="stroke: hsl(215.2, 55%, 50%);" id="2235"  d=" M  317.645,0  L  10,0  C  4.477,0  0,4.477  0,10  L  0,60  C  0,65.523  4.477,70  10,70  L  317.645,70  L  317.645,0  z " />
<path transform="translate( 0, 0 )" style="stroke: hsl(242.1, 55%, 50%);" id="2515"  d=" M  317.645,0  L  10,0  C  4.477,0  0,4.477  0,10  L  0,60  C  0,65.523  4.477,70  10,70  L  317.645,70  L  317.645,0  z " />
<path transform="translate( 0, 0 )" style="stroke: hsl(269, 55%, 50%);" id="2795"  d=" M  317.645,0  L  10,0  C  4.477,0  0,4.477  0,10  L  0,60  C  0,65.523  4.477,70  10,70  L  317.645,70  L  317.645,0  z " />
<path transform="translate( 0, 0 )" style="stroke: hsl(295.9, 55%, 50%);" id="3075"  d=" M  317.645,0  L  10,0  C  4.477,0  0,4.477  0,10  L  0,60  C  0,65.523  4.477,70  10,70  L  317.645,70  L  317.645,0  z " />
    </g>
    <!-- End of group #belt -->
    
    <!-- Start of group #collarStand -->
    <g id="collarStand"  transform=" translate(165.228 -51.6)  translate(1040.753 525) " >
        <path class="hidden" id="9"  d=" M  -160.228,56.6  L  160.228,56.6  L  160.228,106.403  L  -160.228,106.403  z " />
<path transform="translate( 0, 0 )" style="stroke: hsl(26.9, 55%, 50%);" id="276"  d=" M  -160.228,106.403  C  -160.228,106.403  -144.205,56.6  0,56.6  C  144.205,56.6  160.228,106.403  160.228,106.403  C  134.929,106.403  80.114,81.6  0,81.6  C  -80.114,81.6  -134.929,106.403  -160.228,106.403  z " />
<path transform="translate( 0, 0 )" style="stroke: hsl(53.8, 55%, 50%);" id="556"  d=" M  -160.228,106.403  C  -160.228,106.403  -144.205,56.6  0,56.6  C  144.205,56.6  160.228,106.403  160.228,106.403  C  134.929,106.403  80.114,81.6  0,81.6  C  -80.114,81.6  -134.929,106.403  -160.228,106.403  z " />
<path transform="translate( 0, 0 )" style="stroke: hsl(80.7, 55%, 50%);" id="836"  d=" M  -160.228,106.403  C  -160.228,106.403  -144.205,56.6  0,56.6  C  144.205,56.6  160.228,106.403  160.228,106.403  C  134.929,106.403  80.114,81.6  0,81.6  C  -80.114,81.6  -134.929,106.403  -160.228,106.403  z " />
<path transform="translate( 0, 0 )" style="stroke: hsl(107.6, 55%, 50%);" id="1116"  d=" M  -160.228,106.403  C  -160.228,106.403  -144.205,56.6  0,56.6  C  144.205,56.6  160.228,106.403  160.228,106.403  C  134.929,106.403  80.114,81.6  0,81.6  C  -80.114,81.6  -134.929,106.403  -160.228,106.403  z " />
<path transform="translate( 0, 0 )" style="stroke: hsl(134.5, 55%, 50%);" id="1396"  d=" M  -160.228,106.403  C  -160.228,106.403  -144.205,56.6  0,56.6  C  144.205,56.6  160.228,106.403  160.228,106.403  C  134.929,106.403  80.114,81.6  0,81.6  C  -80.114,81.6  -134.929,106.403  -160.228,106.403  z " />
<path transform="translate( 0, 0 )" style="stroke: hsl(161.4, 55%, 50%);" id="1676"  d=" M  -160.228,106.403  C  -160.228,106.403  -144.205,56.6  0,56.6  C  144.205,56.6  160.228,106.403  160.228,106.403  C  134.929,106.403  80.114,81.6  0,81.6  C  -80.114,81.6  -134.929,106.403  -160.228,106.403  z " />
<path transform="translate( 0, 0 )" style="stroke: hsl(188.3, 55%, 50%);" id="1956"  d=" M  -160.228,106.403  C  -160.228,106.403  -144.205,56.6  0,56.6  C  144.205,56.6  160.228,106.403  160.228,106.403  C  134.929,106.403  80.114,81.6  0,81.6  C  -80.114,81.6  -134.929,106.403  -160.228,106.403  z " />
<path transform="translate( 0, 0 )" style="stroke: hsl(215.2, 55%, 50%);" id="2236"  d=" M  -160.228,106.403  C  -160.228,106.403  -144.205,56.6  0,56.6  C  144.205,56.6  160.228,106.403  160.228,106.403  C  134.929,106.403  80.114,81.6  0,81.6  C  -80.114,81.6  -134.929,106.403  -160.228,106.403  z " />
<path transform="translate( 0, 0 )" style="stroke: hsl(242.1, 55%, 50%);" id="2516"  d=" M  -160.228,106.403  C  -160.228,106.403  -144.205,56.6  0,56.6  C  144.205,56.6  160.228,106.403  160.228,106.403  C  134.929,106.403  80.114,81.6  0,81.6  C  -80.114,81.6  -134.929,106.403  -160.228,106.403  z " />
<path transform="translate( 0, 0 )" style="stroke: hsl(269, 55%, 50%);" id="2796"  d=" M  -160.228,106.403  C  -160.228,106.403  -144.205,56.6  0,56.6  C  144.205,56.6  160.228,106.403  160.228,106.403  C  134.929,106.403  80.114,81.6  0,81.6  C  -80.114,81.6  -134.929,106.403  -160.228,106.403  z " />
<path transform="translate( 0, 0 )" style="stroke: hsl(295.9, 55%, 50%);" id="3076"  d=" M  -160.228,106.403  C  -160.228,106.403  -144.205,56.6  0,56.6  C  144.205,56.6  160.228,106.403  160.228,106.403  C  134.929,106.403  80.114,81.6  0,81.6  C  -80.114,81.6  -134.929,106.403  -160.228,106.403  z " />
    </g>
    <!-- End of group #collarStand -->
    
    <!-- Start of group #collar -->
    <g id="collar"  transform=" translate(5 5)  translate(1040.753 805.303) " >
        <path class="hidden" id="10"  d=" M  0,0  L  242.212,0  L  242.212,130.664  L  0,130.664  z " />
<path transform="translate( 0, 0 )" style="stroke: hsl(26.9, 55%, 50%);" id="277"  d=" M  0,56.6  C  16.223,56.6  30.824,57.23  43.787,58.334  C  60.043,61.19  73.933,64.566  86.202,68.342  C  102.654,75.021  114.956,82.023  124.384,88.975  C  146.02,112.314  146.795,127.976  146.795,127.976  L  196.106,130.664  L  242.212,62.284  C  182.48,27.382  126.496,0  0,0  z " />
<path transform="translate( 0, 0 )" style="stroke: hsl(53.8, 55%, 50%);" id="557"  d=" M  0,56.6  C  16.223,56.6  30.824,57.23  43.787,58.334  C  60.043,61.19  73.933,64.566  86.202,68.342  C  102.654,75.021  114.956,82.023  124.384,88.975  C  146.02,112.314  146.795,127.976  146.795,127.976  L  196.106,130.664  L  242.212,62.284  C  182.48,27.382  126.496,0  0,0  z " />
<path transform="translate( 0, 0 )" style="stroke: hsl(80.7, 55%, 50%);" id="837"  d=" M  0,56.6  C  16.223,56.6  30.824,57.23  43.787,58.334  C  60.043,61.19  73.933,64.566  86.202,68.342  C  102.654,75.021  114.956,82.023  124.384,88.975  C  146.02,112.314  146.795,127.976  146.795,127.976  L  196.106,130.664  L  242.212,62.284  C  182.48,27.382  126.496,0  0,0  z " />
<path transform="translate( 0, 0 )" style="stroke: hsl(107.6, 55%, 50%);" id="1117"  d=" M  0,56.6  C  16.223,56.6  30.824,57.23  43.787,58.334  C  60.043,61.19  73.933,64.566  86.202,68.342  C  102.654,75.021  114.956,82.023  124.384,88.975  C  146.02,112.314  146.795,127.976  146.795,127.976  L  196.106,130.664  L  242.212,62.284  C  182.48,27.382  126.496,0  0,0  z " />
<path transform="translate( 0, 0 )" style="stroke: hsl(134.5, 55%, 50%);" id="1397"  d=" M  0,56.6  C  16.223,56.6  30.824,57.23  43.787,58.334  C  60.043,61.19  73.933,64.566  86.202,68.342  C  102.654,75.021  114.956,82.023  124.384,88.975  C  146.02,112.314  146.795,127.976  146.795,127.976  L  196.106,130.664  L  242.212,62.284  C  182.48,27.382  126.496,0  0,0  z " />
<path transform="translate( 0, 0 )" style="stroke: hsl(161.4, 55%, 50%);" id="1677"  d=" M  0,56.6  C  16.223,56.6  30.824,57.23  43.787,58.334  C  60.043,61.19  73.933,64.566  86.202,68.342  C  102.654,75.021  114.956,82.023  124.384,88.975  C  146.02,112.314  146.795,127.976  146.795,127.976  L  196.106,130.664  L  242.212,62.284  C  182.48,27.382  126.496,0  0,0  z " />
<path transform="translate( 0, 0 )" style="stroke: hsl(188.3, 55%, 50%);" id="1957"  d=" M  0,56.6  C  16.223,56.6  30.824,57.23  43.787,58.334  C  60.043,61.19  73.933,64.566  86.202,68.342  C  102.654,75.021  114.956,82.023  124.384,88.975  C  146.02,112.314  146.795,127.976  146.795,127.976  L  196.106,130.664  L  242.212,62.284  C  182.48,27.382  126.496,0  0,0  z " />
<path transform="translate( 0, 0 )" style="stroke: hsl(215.2, 55%, 50%);" id="2237"  d=" M  0,56.6  C  16.223,56.6  30.824,57.23  43.787,58.334  C  60.043,61.19  73.933,64.566  86.202,68.342  C  102.654,75.021  114.956,82.023  124.384,88.975  C  146.02,112.314  146.795,127.976  146.795,127.976  L  196.106,130.664  L  242.212,62.284  C  182.48,27.382  126.496,0  0,0  z " />
<path transform="translate( 0, 0 )" style="stroke: hsl(242.1, 55%, 50%);" id="2517"  d=" M  0,56.6  C  16.223,56.6  30.824,57.23  43.787,58.334  C  60.043,61.19  73.933,64.566  86.202,68.342  C  102.654,75.021  114.956,82.023  124.384,88.975  C  146.02,112.314  146.795,127.976  146.795,127.976  L  196.106,130.664  L  242.212,62.284  C  182.48,27.382  126.496,0  0,0  z " />
<path transform="translate( 0, 0 )" style="stroke: hsl(269, 55%, 50%);" id="2797"  d=" M  0,56.6  C  16.223,56.6  30.824,57.23  43.787,58.334  C  60.043,61.19  73.933,64.566  86.202,68.342  C  102.654,75.021  114.956,82.023  124.384,88.975  C  146.02,112.314  146.795,127.976  146.795,127.976  L  196.106,130.664  L  242.212,62.284  C  182.48,27.382  126.496,0  0,0  z " />
<path transform="translate( 0, 0 )" style="stroke: hsl(295.9, 55%, 50%);" id="3077"  d=" M  0,56.6  C  16.223,56.6  30.824,57.23  43.787,58.334  C  60.043,61.19  73.933,64.566  86.202,68.342  C  102.654,75.021  114.956,82.023  124.384,88.975  C  146.02,112.314  146.795,127.976  146.795,127.976  L  196.106,130.664  L  242.212,62.284  C  182.48,27.382  126.496,0  0,0  z " />
    </g>
    <!-- End of group #collar -->
    
    <!-- Start of group #cuffFacing -->
    <g id="cuffFacing"  transform=" translate(5.001 5)  translate(1040.753 664.803) " >
        <path class="hidden" id="11"  d=" M  -0.001,0  L  310,0  L  310,130.5  L  -0.001,130.5  z " />
<path transform="translate( 0, 0 )" style="stroke: hsl(26.9, 55%, 50%);" id="278"  d=" M  0,0  L  0,108.75  C  -0,120.762  9.738,130.5  21.75,130.5  L  288.249,130.5  C  300.261,130.5  309.999,120.762  309.999,108.75  L  309.999,0  z " />
<path transform="translate( 0, 0 )" style="stroke: hsl(53.8, 55%, 50%);" id="558"  d=" M  0,0  L  0,108.75  C  -0,120.762  9.738,130.5  21.75,130.5  L  288.25,130.5  C  300.262,130.5  310,120.762  310,108.75  L  310,0  z " />
<path transform="translate( 0, 0 )" style="stroke: hsl(80.7, 55%, 50%);" id="838"  d=" M  0,0  L  0,108.75  C  -0,120.762  9.738,130.5  21.75,130.5  L  288.25,130.5  C  300.262,130.5  310,120.762  310,108.75  L  310,0  z " />
<path transform="translate( 0, 0 )" style="stroke: hsl(107.6, 55%, 50%);" id="1118"  d=" M  0,0  L  0,108.75  C  -0,120.762  9.738,130.5  21.75,130.5  L  288.25,130.5  C  300.262,130.5  310,120.762  310,108.75  L  310,0  z " />
<path transform="translate( 0, 0 )" style="stroke: hsl(134.5, 55%, 50%);" id="1398"  d=" M  0,0  L  0,108.75  C  -0,120.762  9.738,130.5  21.75,130.5  L  288.25,130.5  C  300.262,130.5  310,120.762  310,108.75  L  310,0  z " />
<path transform="translate( 0, 0 )" style="stroke: hsl(161.4, 55%, 50%);" id="1678"  d=" M  0,0  L  0,108.75  C  -0,120.762  9.738,130.5  21.75,130.5  L  288.25,130.5  C  300.262,130.5  310,120.762  310,108.75  L  310,0  z " />
<path transform="translate( 0, 0 )" style="stroke: hsl(188.3, 55%, 50%);" id="1958"  d=" M  0,0  L  0,108.75  C  -0,120.762  9.738,130.5  21.75,130.5  L  288.25,130.5  C  300.262,130.5  310,120.762  310,108.75  L  310,0  z " />
<path transform="translate( 0, 0 )" style="stroke: hsl(215.2, 55%, 50%);" id="2238"  d=" M  0,0  L  0,108.75  C  -0,120.762  9.738,130.5  21.75,130.5  L  288.25,130.5  C  300.262,130.5  310,120.762  310,108.75  L  310,0  z " />
<path transform="translate( -0.0010000000000048, 0 )" style="stroke: hsl(242.1, 55%, 50%);" id="2518"  d=" M  0,0  L  0,108.75  C  -0,120.762  9.738,130.5  21.75,130.5  L  288.251,130.5  C  300.263,130.5  310.001,120.762  310.001,108.75  L  310.001,0  z " />
<path transform="translate( 0, 0 )" style="stroke: hsl(269, 55%, 50%);" id="2798"  d=" M  0,0  L  0,108.75  C  -0,120.762  9.738,130.5  21.75,130.5  L  288.25,130.5  C  300.262,130.5  310,120.762  310,108.75  L  310,0  z " />
<path transform="translate( 0, 0 )" style="stroke: hsl(295.9, 55%, 50%);" id="3078"  d=" M  0,0  L  0,108.75  C  -0,120.762  9.738,130.5  21.75,130.5  L  288.25,130.5  C  300.262,130.5  310,120.762  310,108.75  L  310,0  z " />
    </g>
    <!-- End of group #cuffFacing -->
    
    <!-- Start of group #pocket -->
    <g id="pocket"  transform=" translate(-66.113 -522.5)  translate(1040.753 945.967) " >
        <path class="hidden" id="12"  d=" M  71.113,527.5  L  231.338,527.5  L  231.338,710.25  L  71.113,710.25  z " />
<path transform="translate( 0, 0 )" style="stroke: hsl(26.9, 55%, 50%);" id="279"  d=" M  71.113,527.5  L  71.113,660.25  C  71.113,687.864  93.499,710.25  121.113,710.25  L  181.338,710.25  C  208.952,710.25  231.338,687.864  231.338,660.25  L  231.338,527.5  L  71.113,527.5  z " />
<path transform="translate( 0, 0 )" style="stroke: hsl(53.8, 55%, 50%);" id="559"  d=" M  71.113,527.5  L  71.113,660.25  C  71.113,687.864  93.499,710.25  121.113,710.25  L  181.338,710.25  C  208.952,710.25  231.338,687.864  231.338,660.25  L  231.338,527.5  L  71.113,527.5  z " />
<path transform="translate( 0, 0 )" style="stroke: hsl(80.7, 55%, 50%);" id="839"  d=" M  71.113,527.5  L  71.113,660.25  C  71.113,687.864  93.499,710.25  121.113,710.25  L  181.338,710.25  C  208.952,710.25  231.338,687.864  231.338,660.25  L  231.338,527.5  L  71.113,527.5  z " />
<path transform="translate( 0, 0 )" style="stroke: hsl(107.6, 55%, 50%);" id="1119"  d=" M  71.113,527.5  L  71.113,660.25  C  71.113,687.864  93.499,710.25  121.113,710.25  L  181.338,710.25  C  208.952,710.25  231.338,687.864  231.338,660.25  L  231.338,527.5  L  71.113,527.5  z " />
<path transform="translate( 0, 0 )" style="stroke: hsl(134.5, 55%, 50%);" id="1399"  d=" M  71.113,527.5  L  71.113,660.25  C  71.113,687.864  93.499,710.25  121.113,710.25  L  181.338,710.25  C  208.952,710.25  231.338,687.864  231.338,660.25  L  231.338,527.5  L  71.113,527.5  z " />
<path transform="translate( 0, 0 )" style="stroke: hsl(161.4, 55%, 50%);" id="1679"  d=" M  71.113,527.5  L  71.113,660.25  C  71.113,687.864  93.499,710.25  121.113,710.25  L  181.338,710.25  C  208.952,710.25  231.338,687.864  231.338,660.25  L  231.338,527.5  L  71.113,527.5  z " />
<path transform="translate( 0, 0 )" style="stroke: hsl(188.3, 55%, 50%);" id="1959"  d=" M  71.113,527.5  L  71.113,660.25  C  71.113,687.864  93.499,710.25  121.113,710.25  L  181.338,710.25  C  208.952,710.25  231.338,687.864  231.338,660.25  L  231.338,527.5  L  71.113,527.5  z " />
<path transform="translate( 0, 0 )" style="stroke: hsl(215.2, 55%, 50%);" id="2239"  d=" M  71.113,527.5  L  71.113,660.25  C  71.113,687.864  93.499,710.25  121.113,710.25  L  181.338,710.25  C  208.952,710.25  231.338,687.864  231.338,660.25  L  231.338,527.5  L  71.113,527.5  z " />
<path transform="translate( 0, 0 )" style="stroke: hsl(242.1, 55%, 50%);" id="2519"  d=" M  71.113,527.5  L  71.113,660.25  C  71.113,687.864  93.499,710.25  121.113,710.25  L  181.338,710.25  C  208.952,710.25  231.338,687.864  231.338,660.25  L  231.338,527.5  L  71.113,527.5  z " />
<path transform="translate( 0, 0 )" style="stroke: hsl(269, 55%, 50%);" id="2799"  d=" M  71.113,527.5  L  71.113,660.25  C  71.113,687.864  93.499,710.25  121.113,710.25  L  181.338,710.25  C  208.952,710.25  231.338,687.864  231.338,660.25  L  231.338,527.5  L  71.113,527.5  z " />
<path transform="translate( 0, 0 )" style="stroke: hsl(295.9, 55%, 50%);" id="3079"  d=" M  71.113,527.5  L  71.113,660.25  C  71.113,687.864  93.499,710.25  121.113,710.25  L  181.338,710.25  C  208.952,710.25  231.338,687.864  231.338,660.25  L  231.338,527.5  L  71.113,527.5  z " />
    </g>
    <!-- End of group #pocket -->
    
    <!-- Start of group #pocketFlap -->
    <g id="pocketFlap"  transform=" translate(-65.059 -510.045)  translate(1210.978 945.967) " >
        <path class="hidden" id="13"  d=" M  70.059,515.045  L  232.392,515.045  L  232.392,581.13  L  70.059,581.13  z " />
<path transform="translate( 0, 0 )" style="stroke: hsl(26.9, 55%, 50%);" id="280"  d=" M  70.059,515.045  L  73.113,551.13  C  74.51,567.64  86.544,581.13  103.113,581.13  L  199.338,581.13  C  215.907,581.13  227.941,567.64  229.338,551.13  L  232.392,515.045  z " />
<path transform="translate( 0, 0 )" style="stroke: hsl(53.8, 55%, 50%);" id="560"  d=" M  70.059,515.045  L  73.113,551.13  C  74.51,567.64  86.544,581.13  103.113,581.13  L  199.338,581.13  C  215.907,581.13  227.941,567.64  229.338,551.13  L  232.392,515.045  z " />
<path transform="translate( 0, 0 )" style="stroke: hsl(80.7, 55%, 50%);" id="840"  d=" M  70.059,515.045  L  73.113,551.13  C  74.51,567.64  86.544,581.13  103.113,581.13  L  199.338,581.13  C  215.907,581.13  227.941,567.64  229.338,551.13  L  232.392,515.045  z " />
<path transform="translate( 0, 0 )" style="stroke: hsl(107.6, 55%, 50%);" id="1120"  d=" M  70.059,515.045  L  73.113,551.13  C  74.51,567.64  86.544,581.13  103.113,581.13  L  199.338,581.13  C  215.907,581.13  227.941,567.64  229.338,551.13  L  232.392,515.045  z " />
<path transform="translate( 0, 0 )" style="stroke: hsl(134.5, 55%, 50%);" id="1400"  d=" M  70.059,515.045  L  73.113,551.13  C  74.51,567.64  86.544,581.13  103.113,581.13  L  199.338,581.13  C  215.907,581.13  227.941,567.64  229.338,551.13  L  232.392,515.045  z " />
<path transform="translate( 0, 0 )" style="stroke: hsl(161.4, 55%, 50%);" id="1680"  d=" M  70.059,515.045  L  73.113,551.13  C  74.51,567.64  86.544,581.13  103.113,581.13  L  199.338,581.13  C  215.907,581.13  227.941,567.64  229.338,551.13  L  232.392,515.045  z " />
<path transform="translate( 0, 0 )" style="stroke: hsl(188.3, 55%, 50%);" id="1960"  d=" M  70.059,515.045  L  73.113,551.13  C  74.51,567.64  86.544,581.13  103.113,581.13  L  199.338,581.13  C  215.907,581.13  227.941,567.64  229.338,551.13  L  232.392,515.045  z " />
<path transform="translate( 0, 0 )" style="stroke: hsl(215.2, 55%, 50%);" id="2240"  d=" M  70.059,515.045  L  73.113,551.13  C  74.51,567.64  86.544,581.13  103.113,581.13  L  199.338,581.13  C  215.907,581.13  227.941,567.64  229.338,551.13  L  232.392,515.045  z " />
<path transform="translate( 0, 0 )" style="stroke: hsl(242.1, 55%, 50%);" id="2520"  d=" M  70.059,515.045  L  73.113,551.13  C  74.51,567.64  86.544,581.13  103.113,581.13  L  199.338,581.13  C  215.907,581.13  227.941,567.64  229.338,551.13  L  232.392,515.045  z " />
<path transform="translate( 0, 0 )" style="stroke: hsl(269, 55%, 50%);" id="2800"  d=" M  70.059,515.045  L  73.113,551.13  C  74.51,567.64  86.544,581.13  103.113,581.13  L  199.338,581.13  C  215.907,581.13  227.941,567.64  229.338,551.13  L  232.392,515.045  z " />
<path transform="translate( 0, 0 )" style="stroke: hsl(295.9, 55%, 50%);" id="3080"  d=" M  70.059,515.045  L  73.113,551.13  C  74.51,567.64  86.544,581.13  103.113,581.13  L  199.338,581.13  C  215.907,581.13  227.941,567.64  229.338,551.13  L  232.392,515.045  z " />
    </g>
    <!-- End of group #pocketFlap -->
    
    <!-- Start of group #chestPocketWelt -->
    <g id="chestPocketWelt"  transform=" translate(5 5)  translate(1364.053 140) " >
        <path class="hidden" id="14"  d=" M  0,0  L  33.15,0  L  33.15,147.56  L  0,147.56  z " />
<path transform="translate( 0, 0 )" style="stroke: hsl(26.9, 55%, 50%);" id="281"  d=" M  0,0  L  33.15,0  L  33.15,147.56  L  0,147.56  L  0,0  z " />
<path transform="translate( 0, 0 )" style="stroke: hsl(53.8, 55%, 50%);" id="561"  d=" M  0,0  L  33.15,0  L  33.15,147.56  L  0,147.56  L  0,0  z " />
<path transform="translate( 0, 0 )" style="stroke: hsl(80.7, 55%, 50%);" id="841"  d=" M  0,0  L  33.15,0  L  33.15,147.56  L  0,147.56  L  0,0  z " />
<path transform="translate( 0, 0 )" style="stroke: hsl(107.6, 55%, 50%);" id="1121"  d=" M  0,0  L  33.15,0  L  33.15,147.56  L  0,147.56  L  0,0  z " />
<path transform="translate( 0, 0 )" style="stroke: hsl(134.5, 55%, 50%);" id="1401"  d=" M  0,0  L  33.15,0  L  33.15,147.56  L  0,147.56  L  0,0  z " />
<path transform="translate( 0, 0 )" style="stroke: hsl(161.4, 55%, 50%);" id="1681"  d=" M  0,0  L  33.15,0  L  33.15,147.56  L  0,147.56  L  0,0  z " />
<path transform="translate( 0, 0 )" style="stroke: hsl(188.3, 55%, 50%);" id="1961"  d=" M  0,0  L  33.15,0  L  33.15,147.56  L  0,147.56  L  0,0  z " />
<path transform="translate( 0, 0 )" style="stroke: hsl(215.2, 55%, 50%);" id="2241"  d=" M  0,0  L  33.15,0  L  33.15,147.56  L  0,147.56  L  0,0  z " />
<path transform="translate( 0, 0 )" style="stroke: hsl(242.1, 55%, 50%);" id="2521"  d=" M  0,0  L  33.15,0  L  33.15,147.56  L  0,147.56  L  0,0  z " />
<path transform="translate( 0, 0 )" style="stroke: hsl(269, 55%, 50%);" id="2801"  d=" M  0,0  L  33.15,0  L  33.15,147.56  L  0,147.56  L  0,0  z " />
<path transform="translate( 0, 0 )" style="stroke: hsl(295.9, 55%, 50%);" id="3081"  d=" M  0,0  L  33.15,0  L  33.15,147.56  L  0,147.56  L  0,0  z " />
    </g>
    <!-- End of group #chestPocketWelt -->
    
    <!-- Start of group #sampler-frontPanel -->
    <g id="sampler-frontPanel" >
    </g>
    <!-- End of group #sampler-frontPanel -->
    
    <!-- Start of group #sampler-sidePanel -->
    <g id="sampler-sidePanel" >
    </g>
    <!-- End of group #sampler-sidePanel -->
    
    <!-- Start of group #sampler-back -->
    <g id="sampler-back" >
    </g>
    <!-- End of group #sampler-back -->
    
    <!-- Start of group #sampler-tail -->
    <g id="sampler-tail" >
    </g>
    <!-- End of group #sampler-tail -->
    
    <!-- Start of group #sampler-topsleeve -->
    <g id="sampler-topsleeve" >
    </g>
    <!-- End of group #sampler-topsleeve -->
    
    <!-- Start of group #sampler-undersleeve -->
    <g id="sampler-undersleeve" >
    </g>
    <!-- End of group #sampler-undersleeve -->
    
    <!-- Start of group #sampler-belt -->
    <g id="sampler-belt" >
    </g>
    <!-- End of group #sampler-belt -->
    
    <!-- Start of group #sampler-collarStand -->
    <g id="sampler-collarStand" >
    </g>
    <!-- End of group #sampler-collarStand -->
    
    <!-- Start of group #sampler-collar -->
    <g id="sampler-collar" >
    </g>
    <!-- End of group #sampler-collar -->
    
    <!-- Start of group #sampler-cuffFacing -->
    <g id="sampler-cuffFacing" >
    </g>
    <!-- End of group #sampler-cuffFacing -->
    
    <!-- Start of group #sampler-pocket -->
    <g id="sampler-pocket" >
    </g>
    <!-- End of group #sampler-pocket -->
    
    <!-- Start of group #sampler-pocketFlap -->
    <g id="sampler-pocketFlap" >
    </g>
    <!-- End of group #sampler-pocketFlap -->
    
    <!-- Start of group #sampler-chestPocketWelt -->
    <g id="sampler-chestPocketWelt" >
    </g>
    <!-- End of group #sampler-chestPocketWelt -->
</g>
<!-- End of group #patternContainer -->

</svg>

