<?xml version="1.0" encoding="UTF-8" standalone="no"?>
<svg
    xmlns="http://www.w3.org/2000/svg"
    xmlns:svg="http://www.w3.org/2000/svg"
    xmlns:xlink="http://www.w3.org/1999/xlink"
    xmlns:freesewing="http://freesewing.org/namespaces/freesewing" viewBox ="0 0 1458 1187"
    width ="1458mm"
    height ="1187mm"
    freesewing:version ="1.5.0"
    freesewing:origin ="joost.core.freesewing.org" 
>

<style type="text/css">
    <![CDATA[
    path { fill: none; stroke: #000000; stroke-opacity:1; stroke-width: 0.5; stroke-miterlimit:4; stroke-dashoffset:0; stroke-linecap:round; stroke-linejoin:round; }
    path.hidden { fill: none; stroke: none; }]]>
</style>


<!-- Start of group #patternContainer -->
<g id="patternContainer" >
    
    <!-- Start of group #backBlock -->
    <g id="backBlock" >
    </g>
    <!-- End of group #backBlock -->
    
    <!-- Start of group #frontBlock -->
    <g id="frontBlock" >
    </g>
    <!-- End of group #frontBlock -->
    
    <!-- Start of group #sleeveBlock -->
    <g id="sleeveBlock" >
    </g>
    <!-- End of group #sleeveBlock -->
    
    <!-- Start of group #topsleeveBlock -->
    <g id="topsleeveBlock" >
    </g>
    <!-- End of group #topsleeveBlock -->
    
    <!-- Start of group #undersleeveBlock -->
    <g id="undersleeveBlock" >
    </g>
    <!-- End of group #undersleeveBlock -->
    
    <!-- Start of group #front -->
    <g id="front" >
    </g>
    <!-- End of group #front -->
    
    <!-- Start of group #frontPs -->
    <g id="frontPs" >
    </g>
    <!-- End of group #frontPs -->
    
    <!-- Start of group #frontPanel -->
    <g id="frontPanel"  transform=" translate(76.113 5)  translate(0 0) " >
        <path class="hidden" id="2"  d=" M  -71.113,0  L  217.5,0  L  217.5,1176.958  L  -71.113,1176.958  z " />
<path transform="translate( 0, 0 )" style="stroke: hsl(26.9, 55%, 50%);" id="268"  d=" M  -67.103,87  C  -67.103,87  -71.113,124.1  -71.113,272.5  L  -71.113,1176.958  L  96.087,1176.958  L  96.087,285  C  96.087,227.774  164.822,179.639  212.5,146.25  C  212.5,104.167  216.116,29.904  217.5,20  L  74.38,0  C  71.612,19.808  74.38,87  0,87  L  -67.103,87  z " />
<path transform="translate( 0, 0.38700000000017 )" style="stroke: hsl(53.8, 55%, 50%);" id="548"  d=" M  -67.103,87  C  -67.103,87  -71.113,125.15  -71.113,277.75  L  -71.113,1176.571  L  96.087,1176.571  L  96.087,285  C  96.087,228.774  164.509,181.813  212.5,148.875  C  212.5,105.917  216.116,29.904  217.5,20  L  74.38,0  C  71.612,19.808  74.38,87  0,87  L  -67.103,87  z " />
<path transform="translate( 0, 0.75400000000013 )" style="stroke: hsl(80.7, 55%, 50%);" id="828"  d=" M  -67.103,87  C  -67.103,87  -71.113,126.2  -71.113,283  L  -71.113,1176.204  L  96.087,1176.204  L  96.087,285  C  96.087,229.759  164.194,183.974  212.5,151.5  C  212.5,107.667  216.116,29.904  217.5,20  L  74.38,0  C  71.612,19.808  74.38,87  0,87  L  -67.103,87  z " />
<path transform="translate( 0, 1.104 )" style="stroke: hsl(107.6, 55%, 50%);" id="1108"  d=" M  -67.103,87  C  -67.103,87  -71.113,127.25  -71.113,288.25  L  -71.113,1175.854  L  96.087,1175.854  L  96.087,285  C  96.087,230.732  163.877,186.122  212.5,154.125  C  212.5,109.417  216.116,29.904  217.5,20  L  74.38,0  C  71.612,19.808  74.38,87  0,87  L  -67.103,87  z " />
<path transform="translate( 0, 1.4340000000002 )" style="stroke: hsl(134.5, 55%, 50%);" id="1388"  d=" M  -67.103,87  C  -67.103,87  -71.113,128.3  -71.113,293.5  L  -71.113,1175.524  L  96.087,1175.524  L  96.087,285  C  96.087,231.684  163.556,188.255  212.5,156.75  C  212.5,111.167  216.116,29.904  217.5,20  L  74.38,0  C  71.612,19.808  74.38,87  0,87  L  -67.103,87  z " />
<path transform="translate( 0, 1.4760000000001 )" style="stroke: hsl(161.4, 55%, 50%);" id="1668"  d=" M  -67.103,87  C  -67.103,87  -71.113,129.35  -71.113,298.75  L  -71.113,1175.482  L  96.087,1175.482  L  96.087,285  C  96.087,232.628  163.235,190.375  212.5,159.375  C  212.5,112.917  216.116,29.904  217.5,20  L  74.38,0  C  71.612,19.808  74.38,87  0,87  L  -67.103,87  z " />
<path transform="translate( 0, 1.7380000000001 )" style="stroke: hsl(188.3, 55%, 50%);" id="1948"  d=" M  -67.103,87  C  -67.103,87  -71.113,130.4  -71.113,304  L  -71.113,1175.22  L  96.087,1175.22  L  96.087,285  C  96.087,233.551  162.911,192.479  212.5,162  C  212.5,114.667  216.116,29.904  217.5,20  L  74.38,0  C  71.612,19.808  74.38,87  0,87  L  -67.103,87  z " />
<path transform="translate( 0, 1.9730000000002 )" style="stroke: hsl(215.2, 55%, 50%);" id="2228"  d=" M  -67.103,87  C  -67.103,87  -71.113,131.45  -71.113,309.25  L  -71.113,1174.985  L  96.087,1174.985  L  96.087,285  C  96.087,234.458  162.586,194.567  212.5,164.625  C  212.5,116.417  216.116,29.904  217.5,20  L  74.38,0  C  71.612,19.808  74.38,87  0,87  L  -67.103,87  z " />
<path transform="translate( 0, 2.183 )" style="stroke: hsl(242.1, 55%, 50%);" id="2508"  d=" M  -67.103,87  C  -67.103,87  -71.113,132.5  -71.113,314.5  L  -71.113,1174.775  L  96.087,1174.775  L  96.087,285  C  96.087,235.35  162.258,196.641  212.5,167.25  C  212.5,118.167  216.116,29.904  217.5,20  L  74.38,0  C  71.612,19.808  74.38,87  0,87  L  -67.103,87  z " />
<path transform="translate( 0, 2.365 )" style="stroke: hsl(269, 55%, 50%);" id="2788"  d=" M  -67.103,87  C  -67.103,87  -71.113,133.55  -71.113,319.75  L  -71.113,1174.593  L  96.087,1174.593  L  96.087,285  C  96.087,236.226  161.93,198.698  212.5,169.875  C  212.5,119.917  216.116,29.904  217.5,20  L  74.38,0  C  71.612,19.808  74.38,87  0,87  L  -67.103,87  z " />
<path transform="translate( 0, 2.5160000000001 )" style="stroke: hsl(295.9, 55%, 50%);" id="3068"  d=" M  -67.103,87  C  -67.103,87  -71.113,134.6  -71.113,325  L  -71.113,1174.442  L  96.087,1174.442  L  96.087,285  C  96.087,237.084  161.601,200.738  212.5,172.5  C  212.5,121.667  216.116,29.904  217.5,20  L  74.38,0  C  71.612,19.808  74.38,87  0,87  L  -67.103,87  z " />
    </g>
    <!-- End of group #frontPanel -->
    
    <!-- Start of group #sidePanel -->
    <g id="sidePanel"  transform=" translate(-92.488 -167.432)  translate(298.613 0) " >
        <path class="hidden" id="3"  d=" M  97.488,172.432  L  332.206,172.432  L  332.206,1164.291  L  97.488,1164.291  z " />
<path transform="translate( 0, 0 )" style="stroke: hsl(26.9, 55%, 50%);" id="269"  d=" M  307.647,307.889  C  293.931,306.916  285.798,300.716  273.246,286.249  C  260.692,271.781  253.745,219.69  256.72,177.714  C  201.29,195.479  121.38,221.089  104.426,275.746  C  87.472,330.403  130.791,330.403  130.791,524.484  L  130.791,1164.289  L  332.202,1164.289  L  332.203,792.891  C  332.204,677.89  289.078,501.64  289.079,432.89  C  289.08,364.139  307.204,303.984  307.647,307.889  z " />
<path transform="translate( 0.034999999999997, -0.3599999999999 )" style="stroke: hsl(53.8, 55%, 50%);" id="549"  d=" M  307.32,308.25  C  293.579,307.685  285.472,301.702  272.414,287.525  C  259.357,273.347  250.898,219.942  252.662,177.02  C  197.536,195.707  118.942,222.35  103.692,276.469  C  88.442,330.588  130.756,330.588  130.756,519.82  L  130.756,1164.649  L  332.171,1164.65  L  332.171,793.249  C  332.17,678.249  289.046,499.374  289.044,433.25  C  289.045,367.123  307.17,309.266  307.32,308.25  z " />
<path transform="translate( 0.073000000000008, -0.73000000000002 )" style="stroke: hsl(80.7, 55%, 50%);" id="829"  d=" M  307.142,308.618  C  293.393,308.462  285.309,302.692  271.755,288.826  C  258.199,274.96  248.14,220.277  248.638,176.446  C  193.827,196.039  116.55,223.663  102.961,277.207  C  89.372,330.751  130.718,330.751  130.718,515.348  L  130.718,1165.019  L  332.131,1165.018  L  332.132,793.618  C  332.132,678.618  289.006,497.119  289.006,433.618  C  289.007,370.118  307.132,314.555  307.142,308.618  z " />
<path transform="translate( 0.11500000000001, -1.1079999999999 )" style="stroke: hsl(107.6, 55%, 50%);" id="1109"  d=" M  307.12,308.997  C  293.372,309.251  285.314,303.686  271.271,290.15  C  257.227,276.616  245.484,220.701  244.66,176  C  190.175,196.478  114.211,225.028  102.235,277.958  C  90.259,330.888  130.676,330.888  130.676,511.082  L  130.676,1165.397  L  332.089,1165.398  L  332.089,793.995  C  332.089,678.997  288.964,494.873  288.964,433.996  C  288.964,373.122  307.09,319.857  307.12,308.997  z " />
<path transform="translate( 0.16, -1.4960000000001 )" style="stroke: hsl(134.5, 55%, 50%);" id="1389"  d=" M  307.25,309.386  C  293.515,310.046  285.477,304.684  270.958,291.5  C  256.438,278.314  242.931,221.211  240.737,175.681  C  186.582,197.019  111.929,226.433  101.516,278.722  C  91.103,331.011  130.631,331.011  130.631,507.026  L  130.631,1165.785  L  332.044,1165.787  L  332.044,794.386  C  332.045,679.385  288.92,492.636  288.919,434.386  C  288.919,376.135  307.045,325.167  307.25,309.386  z " />
<path transform="translate( -0.056000000000012, -2.04 )" style="stroke: hsl(161.4, 55%, 50%);" id="1669"  d=" M  307.794,309.928  C  294.087,310.997  286.071,305.829  271.087,293.012  C  256.103,280.195  240.756,221.955  237.145,175.637  C  183.288,197.715  109.88,227.806  100.885,279.4  C  91.89,330.994  130.847,330.994  130.847,504.713  L  130.847,1166.329  L  332.259,1166.327  L  332.259,794.929  C  332.261,679.928  289.135,490.553  289.134,434.928  C  289.135,379.303  307.261,330.632  307.794,309.928  z " />
<path transform="translate( -0.02600000000001, -2.4639999999999 )" style="stroke: hsl(188.3, 55%, 50%);" id="1949"  d=" M  308.251,310.354  C  294.579,311.827  286.589,306.849  271.154,294.413  C  255.715,281.98  238.458,222.657  233.39,175.596  C  179.865,198.466  107.736,229.285  100.184,280.177  C  92.632,331.069  130.817,331.069  130.817,501.279  L  130.817,1166.753  L  332.23,1166.754  L  332.23,795.354  C  332.23,680.353  289.105,488.354  289.104,435.354  C  289.104,382.352  307.23,335.98  308.251,310.354  z " />
<path transform="translate( 0.0060000000000002, -2.903 )" style="stroke: hsl(215.2, 55%, 50%);" id="2229"  d=" M  308.857,310.79  C  295.236,312.662  287.269,307.867  271.394,295.829  C  255.517,283.791  236.284,223.443  229.718,175.683  C  176.525,199.314  105.657,230.796  99.492,280.96  C  93.327,331.124  130.785,331.124  130.785,498.08  L  130.785,1167.192  L  332.2,1167.192  L  332.199,795.793  C  332.198,680.792  289.074,486.166  289.074,435.793  C  289.072,385.418  307.199,341.338  308.857,310.79  z " />
<path transform="translate( 0.042000000000002, -3.3530000000001 )" style="stroke: hsl(242.1, 55%, 50%);" id="2509"  d=" M  309.61,311.241  C  296.049,313.508  288.109,308.89  271.809,297.261  C  255.511,285.633  234.242,224.314  226.145,175.904  C  173.278,200.258  103.649,232.333  98.81,281.747  C  93.971,331.161  130.749,331.161  130.749,495.131  L  130.749,1167.642  L  332.163,1167.641  L  332.162,796.241  C  332.162,681.243  289.036,483.991  289.037,436.242  C  289.036,388.492  307.16,346.711  309.61,311.241  z " />
<path transform="translate( 0.081999999999994, -3.816 )" style="stroke: hsl(269, 55%, 50%);" id="2789"  d=" M  310.512,311.704  C  297.022,314.359  289.104,309.915  272.399,298.707  C  255.692,287.5  232.331,225.267  222.675,176.251  C  170.128,201.29  101.712,233.891  98.137,282.534  C  94.562,331.177  130.709,331.177  130.709,492.439  L  130.709,1168.105  L  332.121,1168.106  L  332.12,796.705  C  332.12,681.704  288.996,481.83  288.996,436.704  C  288.996,391.579  307.12,352.096  310.512,311.704  z " />
<path transform="translate( 0.125, -4.2940000000001 )" style="stroke: hsl(295.9, 55%, 50%);" id="3069"  d=" M  311.556,312.183  C  298.148,315.224  290.257,310.941  273.159,300.165  C  256.061,289.39  230.561,226.302  219.32,176.726  C  167.084,202.408  99.85,235.463  97.476,283.32  C  95.102,331.177  130.666,331.177  130.666,490.003  L  130.666,1168.583  L  332.078,1168.582  L  332.078,797.183  C  332.078,682.184  288.954,479.683  288.954,437.181  C  288.954,394.682  307.078,357.496  311.556,312.183  z " />
    </g>
    <!-- End of group #sidePanel -->
    
    <!-- Start of group #back -->
    <g id="back"  transform=" translate(45.8 5)  translate(1070.975 140) " >
        <path class="hidden" id="4"  d=" M  -40.8,0  L  272.5,0  L  272.5,375  L  -40.8,375  z " />
<path transform="translate( 0, 0 )" style="stroke: hsl(26.9, 55%, 50%);" id="270"  d=" M  0,20  L  0,146.25  L  -40.8,146.25  L  -40.8,375  L  83.625,375  C  83.625,323.75  101.75,272.5  101.75,272.5  C  101.75,272.5  119.875,323.75  119.875,375  L  254.375,375  C  254.375,341.25  272.5,281.094  272.5,272.5  C  258.75,272.5  250.2,266.89  236.655,253.345  C  223.11,239.8  217.5,188.333  217.5,146.25  C  217.5,104.167  216.116,29.904  217.5,20  L  74.38,0  C  71.612,19.808  0,20  0,20  z " />
<path transform="translate( 0, 0 )" style="stroke: hsl(53.8, 55%, 50%);" id="550"  d=" M  0,20  L  0,148.875  L  -40.8,148.875  L  -40.8,375  L  83.625,375  C  83.625,326.375  101.75,277.75  101.75,277.75  C  101.75,277.75  119.875,326.375  119.875,375  L  254.375,375  C  254.375,343.875  272.5,286.016  272.5,277.75  C  258.75,277.75  250.403,272.105  236.774,258.476  C  223.145,244.847  217.5,191.833  217.5,148.875  C  217.5,105.917  216.116,29.904  217.5,20  L  74.38,0  C  71.612,19.808  0,20  0,20  z " />
<path transform="translate( 0, 0 )" style="stroke: hsl(80.7, 55%, 50%);" id="830"  d=" M  0,20  L  0,151.5  L  -40.8,151.5  L  -40.8,375  L  83.625,375  C  83.625,329  101.75,283  101.75,283  C  101.75,283  119.875,329  119.875,375  L  254.375,375  C  254.375,346.5  272.5,290.938  272.5,283  C  258.75,283  250.601,277.321  236.89,263.61  C  223.179,249.899  217.5,195.333  217.5,151.5  C  217.5,107.667  216.116,29.904  217.5,20  L  74.38,0  C  71.612,19.808  0,20  0,20  z " />
<path transform="translate( 0, 0 )" style="stroke: hsl(107.6, 55%, 50%);" id="1110"  d=" M  0,20  L  0,154.125  L  -40.8,154.125  L  -40.8,375  L  83.625,375  C  83.625,331.625  101.75,288.25  101.75,288.25  C  101.75,288.25  119.875,331.625  119.875,375  L  254.375,375  C  254.375,349.125  272.5,295.859  272.5,288.25  C  258.75,288.25  250.794,282.538  237.003,268.747  C  223.212,254.956  217.5,198.833  217.5,154.125  C  217.5,109.417  216.116,29.904  217.5,20  L  74.38,0  C  71.612,19.808  0,20  0,20  z " />
<path transform="translate( 0, 0 )" style="stroke: hsl(134.5, 55%, 50%);" id="1390"  d=" M  0,20  L  0,156.75  L  -40.8,156.75  L  -40.8,375  L  83.625,375  C  83.625,334.25  101.75,293.5  101.75,293.5  C  101.75,293.5  119.875,334.25  119.875,375  L  254.375,375  C  254.375,351.75  272.5,300.781  272.5,293.5  C  258.75,293.5  250.98,287.756  237.112,273.888  C  223.244,260.02  217.5,202.333  217.5,156.75  C  217.5,111.167  216.116,29.904  217.5,20  L  74.38,0  C  71.612,19.808  0,20  0,20  z " />
<path transform="translate( 0, 0 )" style="stroke: hsl(161.4, 55%, 50%);" id="1670"  d=" M  0,20  L  0,159.375  L  -40.8,159.375  L  -40.8,375  L  83.625,375  C  83.625,336.875  101.75,298.75  101.75,298.75  C  101.75,298.75  119.875,336.875  119.875,375  L  254.375,375  C  254.375,354.375  272.5,305.703  272.5,298.75  C  258.75,298.75  251.161,292.975  237.218,279.032  C  223.275,265.089  217.5,205.833  217.5,159.375  C  217.5,112.917  216.116,29.904  217.5,20  L  74.38,0  C  71.612,19.808  0,20  0,20  z " />
<path transform="translate( 0, 0 )" style="stroke: hsl(188.3, 55%, 50%);" id="1950"  d=" M  0,20  L  0,162  L  -40.8,162  L  -40.8,375  L  83.625,375  C  83.625,339.5  101.75,304  101.75,304  C  101.75,304  119.875,339.5  119.875,375  L  254.375,375  C  254.375,357  272.5,310.625  272.5,304  C  258.75,304  251.338,298.194  237.322,284.178  C  223.306,270.162  217.5,209.333  217.5,162  C  217.5,114.667  216.116,29.904  217.5,20  L  74.38,0  C  71.612,19.808  0,20  0,20  z " />
<path transform="translate( 0, 0 )" style="stroke: hsl(215.2, 55%, 50%);" id="2230"  d=" M  0,20  L  0,164.625  L  -40.8,164.625  L  -40.8,375  L  83.625,375  C  83.625,342.125  101.75,309.25  101.75,309.25  C  101.75,309.25  119.875,342.125  119.875,375  L  254.375,375  C  254.375,359.625  272.5,315.547  272.5,309.25  C  258.75,309.25  251.511,303.415  237.423,289.327  C  223.335,275.239  217.5,212.833  217.5,164.625  C  217.5,116.417  216.116,29.904  217.5,20  L  74.38,0  C  71.612,19.808  0,20  0,20  z " />
<path transform="translate( 0, 0 )" style="stroke: hsl(242.1, 55%, 50%);" id="2510"  d=" M  0,20  L  0,167.25  L  -40.8,167.25  L  -40.8,375  L  83.625,375  C  83.625,344.75  101.75,314.5  101.75,314.5  C  101.75,314.5  119.875,344.75  119.875,375  L  254.375,375  C  254.375,362.25  272.5,320.469  272.5,314.5  C  258.75,314.5  251.68,308.636  237.522,294.478  C  223.364,280.32  217.5,216.333  217.5,167.25  C  217.5,118.167  216.116,29.904  217.5,20  L  74.38,0  C  71.612,19.808  0,20  0,20  z " />
<path transform="translate( 0, 0 )" style="stroke: hsl(269, 55%, 50%);" id="2790"  d=" M  0,20  L  0,169.875  L  -40.8,169.875  L  -40.8,375  L  83.625,375  C  83.625,347.375  101.75,319.75  101.75,319.75  C  101.75,319.75  119.875,347.375  119.875,375  L  254.375,375  C  254.375,364.875  272.5,325.391  272.5,319.75  C  258.75,319.75  251.842,313.858  237.617,299.633  C  223.392,285.408  217.5,219.833  217.5,169.875  C  217.5,119.917  216.116,29.904  217.5,20  L  74.38,0  C  71.612,19.808  0,20  0,20  z " />
<path transform="translate( 0, 0 )" style="stroke: hsl(295.9, 55%, 50%);" id="3070"  d=" M  0,20  L  0,172.5  L  -40.8,172.5  L  -40.8,375  L  83.625,375  C  83.625,350  101.75,325  101.75,325  C  101.75,325  119.875,350  119.875,375  L  254.375,375  C  254.375,367.5  272.5,330.313  272.5,325  C  258.75,325  252.002,319.08  237.711,304.789  C  223.42,290.498  217.5,223.333  217.5,172.5  C  217.5,121.667  216.116,29.904  217.5,20  L  74.38,0  C  71.612,19.808  0,20  0,20  z " />
    </g>
    <!-- End of group #back -->
    
    <!-- Start of group #tail -->
    <g id="tail"  transform=" translate(164.04 5)  translate(1070.975 0) " >
        <path class="hidden" id="5"  d=" M  -159.04,0  L  218.125,0  L  218.125,130  L  -159.04,130  z " />
<path transform="translate( 0, 0 )" style="stroke: hsl(26.9, 55%, 50%);" id="271"  d=" M  -159.04,50  -159.04,0  L  0,0  L  218.125,0  L  218.125,50 " />
<path transform="translate( 0, 0 )" style="stroke: hsl(26.9, 55%, 50%);" id="272"  d=" M  -159.04,80  -159.04,130  L  -0,130  L  218.125,130  L  218.125,80 " />
<path transform="translate( 0, 0 )" style="stroke: hsl(53.8, 55%, 50%);" id="551"  d=" M  -159.04,50  -159.04,0  L  0,0  L  218.125,0  L  218.125,50 " />
<path transform="translate( 0, 0 )" style="stroke: hsl(53.8, 55%, 50%);" id="552"  d=" M  -159.04,80  -159.04,130  L  -0,130  L  218.125,130  L  218.125,80 " />
<path transform="translate( 0, 0 )" style="stroke: hsl(80.7, 55%, 50%);" id="831"  d=" M  -159.04,50  -159.04,0  L  0,0  L  218.125,0  L  218.125,50 " />
<path transform="translate( 0, 0 )" style="stroke: hsl(80.7, 55%, 50%);" id="832"  d=" M  -159.04,80  -159.04,130  L  -0,130  L  218.125,130  L  218.125,80 " />
<path transform="translate( 0, 0 )" style="stroke: hsl(107.6, 55%, 50%);" id="1111"  d=" M  -159.04,50  -159.04,0  L  0,0  L  218.125,0  L  218.125,50 " />
<path transform="translate( 0, 0 )" style="stroke: hsl(107.6, 55%, 50%);" id="1112"  d=" M  -159.04,80  -159.04,130  L  -0,130  L  218.125,130  L  218.125,80 " />
<path transform="translate( 0, 0 )" style="stroke: hsl(134.5, 55%, 50%);" id="1391"  d=" M  -159.04,50  -159.04,0  L  0,0  L  218.125,0  L  218.125,50 " />
<path transform="translate( 0, 0 )" style="stroke: hsl(134.5, 55%, 50%);" id="1392"  d=" M  -159.04,80  -159.04,130  L  -0,130  L  218.125,130  L  218.125,80 " />
<path transform="translate( 0, 0 )" style="stroke: hsl(161.4, 55%, 50%);" id="1671"  d=" M  -159.04,50  -159.04,0  L  0,0  L  218.125,0  L  218.125,50 " />
<path transform="translate( 0, 0 )" style="stroke: hsl(161.4, 55%, 50%);" id="1672"  d=" M  -159.04,80  -159.04,130  L  -0,130  L  218.125,130  L  218.125,80 " />
<path transform="translate( 0, 0 )" style="stroke: hsl(188.3, 55%, 50%);" id="1951"  d=" M  -159.04,50  -159.04,0  L  0,0  L  218.125,0  L  218.125,50 " />
<path transform="translate( 0, 0 )" style="stroke: hsl(188.3, 55%, 50%);" id="1952"  d=" M  -159.04,80  -159.04,130  L  -0,130  L  218.125,130  L  218.125,80 " />
<path transform="translate( 0, 0 )" style="stroke: hsl(215.2, 55%, 50%);" id="2231"  d=" M  -159.04,50  -159.04,0  L  0,0  L  218.125,0  L  218.125,50 " />
<path transform="translate( 0, 0 )" style="stroke: hsl(215.2, 55%, 50%);" id="2232"  d=" M  -159.04,80  -159.04,130  L  -0,130  L  218.125,130  L  218.125,80 " />
<path transform="translate( 0, 0 )" style="stroke: hsl(242.1, 55%, 50%);" id="2511"  d=" M  -159.04,50  -159.04,0  L  0,0  L  218.125,0  L  218.125,50 " />
<path transform="translate( 0, 0 )" style="stroke: hsl(242.1, 55%, 50%);" id="2512"  d=" M  -159.04,80  -159.04,130  L  -0,130  L  218.125,130  L  218.125,80 " />
<path transform="translate( 0, 0 )" style="stroke: hsl(269, 55%, 50%);" id="2791"  d=" M  -159.04,50  -159.04,0  L  0,0  L  218.125,0  L  218.125,50 " />
<path transform="translate( 0, 0 )" style="stroke: hsl(269, 55%, 50%);" id="2792"  d=" M  -159.04,80  -159.04,130  L  -0,130  L  218.125,130  L  218.125,80 " />
<path transform="translate( 0, 0 )" style="stroke: hsl(295.9, 55%, 50%);" id="3071"  d=" M  -159.04,50  -159.04,0  L  0,0  L  218.125,0  L  218.125,50 " />
<path transform="translate( 0, 0 )" style="stroke: hsl(295.9, 55%, 50%);" id="3072"  d=" M  -159.04,80  -159.04,130  L  -0,130  L  218.125,130  L  218.125,80 " />
    </g>
    <!-- End of group #tail -->
    
    <!-- Start of group #topsleeve -->
    <g id="topsleeve"  transform=" translate(175.569 5)  translate(543.331 0) " >
        <path class="hidden" id="6"  d=" M  -170.569,0  L  119.604,0  L  119.604,735.895  L  -170.569,735.895  z " />
<path transform="translate( 0, 0 )" style="stroke: hsl(26.9, 55%, 50%);" id="273"  d=" M  105.949,340  C  114.148,293.5  117.721,206.667  117.721,155  C  117.721,103.333  105.949,51.667  105.949,51.667  C  105.949,51.667  66.218,0  0,0  C  -66.218,0  -97.12,51.667  -105.949,93  C  -114.778,134.333  -119.193,155  -132.436,155  C  -132.436,155  -116.459,281.498  -117.721,340  L  -124.033,632.512  L  -132.668,719.082  L  21.009,734.411  C  32.962,735.603  43.619,726.88  44.811,714.927  L  51.287,650  z " />
<path transform="translate( -1.687, 0 )" style="stroke: hsl(53.8, 55%, 50%);" id="553"  d=" M  107.636,340  C  115.835,293.5  119.596,211.334  119.596,158.5  C  119.596,105.666  107.636,52.833  107.636,52.833  C  107.636,52.833  67.273,0  0,0  C  -67.273,0  -98.666,52.833  -107.636,95.1  C  -116.606,137.367  -121.091,158.5  -134.545,158.5  C  -134.545,158.5  -118.961,281.324  -119.596,340  L  -122.769,633.384  L  -130.958,719.998  L  23.132,734.567  C  35.091,735.698  45.701,726.92  46.832,714.961  L  52.974,650  z " />
<path transform="translate( -3.377, 0 )" style="stroke: hsl(80.7, 55%, 50%);" id="833"  d=" M  109.326,340  C  117.525,293.5  121.473,216  121.473,162  C  121.473,108  109.326,54  109.326,54  C  109.326,54  68.329,0  0,0  C  -68.329,0  -100.215,54  -109.326,97.2  C  -118.437,140.4  -122.992,162  -136.657,162  C  -136.657,162  -121.468,281.148  -121.473,340  L  -121.499,634.262  L  -129.241,720.917  L  25.258,734.72  C  37.222,735.789  47.788,726.955  48.857,714.991  L  54.664,650  z " />
<path transform="translate( -5.068, 0 )" style="stroke: hsl(107.6, 55%, 50%);" id="1113"  d=" M  111.017,340  C  119.216,293.5  123.352,220.667  123.352,165.5  C  123.352,110.333  111.017,55.167  111.017,55.167  C  111.017,55.167  69.386,0  0,0  C  -69.386,0  -101.766,55.166  -111.017,99.3  C  -120.268,143.434  -124.894,165.5  -138.771,165.5  C  -138.771,165.5  -123.978,280.971  -123.352,340  L  -120.224,635.145  L  -127.517,721.839  L  27.389,734.871  C  39.359,735.878  49.878,726.991  50.885,715.021  L  56.355,650  z " />
<path transform="translate( -6.76, 0 )" style="stroke: hsl(134.5, 55%, 50%);" id="1393"  d=" M  112.709,340  C  120.908,293.5  125.232,225.334  125.232,169  C  125.232,112.666  112.709,56.333  112.709,56.333  C  112.709,56.333  70.443,0  0,0  C  -70.443,0  -103.316,56.333  -112.709,101.4  C  -122.102,146.467  -126.798,169  -140.886,169  C  -140.886,169  -126.489,280.793  -125.232,340  L  -118.945,636.034  L  -125.789,722.764  L  29.52,735.019  C  41.495,735.964  51.969,727.022  52.914,715.047  L  58.047,650  z " />
<path transform="translate( -8.455, 0 )" style="stroke: hsl(161.4, 55%, 50%);" id="1673"  d=" M  114.404,340  C  122.603,293.5  127.116,230  127.116,172.5  C  127.116,115  114.404,57.5  114.404,57.5  C  114.404,57.5  71.503,0  0,0  C  -71.503,0  -104.87,57.5  -114.404,103.5  C  -123.938,149.5  -128.705,172.5  -143.005,172.5  C  -143.005,172.5  -129.008,280.615  -127.116,340  L  -117.658,636.928  L  -124.051,723.693  L  31.658,735.167  C  43.638,736.05  54.064,727.054  54.947,715.074  L  59.742,650  z " />
<path transform="translate( -10.151, 0 )" style="stroke: hsl(188.3, 55%, 50%);" id="1953"  d=" M  116.1,340  C  124.299,293.5  129,234.667  129,176  C  129,117.333  116.1,58.667  116.1,58.667  C  116.1,58.667  72.563,0  0,0  C  -72.563,0  -106.425,58.667  -116.1,105.6  C  -125.775,152.533  -130.613,176  -145.125,176  C  -145.125,176  -131.527,280.434  -129,340  L  -116.366,637.828  L  -122.308,724.625  L  33.797,735.312  C  45.781,736.132  56.161,727.082  56.981,715.098  L  61.438,650  z " />
<path transform="translate( -11.848, 0 )" style="stroke: hsl(215.2, 55%, 50%);" id="2233"  d=" M  117.797,340  C  125.996,293.5  130.886,239.334  130.886,179.5  C  130.886,119.666  117.797,59.833  117.797,59.833  C  117.797,59.833  73.623,0  0,0  C  -73.623,0  -107.98,59.833  -117.797,107.7  C  -127.614,155.567  -132.522,179.5  -147.246,179.5  C  -147.246,179.5  -134.05,280.253  -130.886,340  L  -115.068,638.733  L  -120.558,725.56  L  35.938,735.455  C  47.926,736.213  58.259,727.108  59.017,715.12  L  63.135,650  z " />
<path transform="translate( -13.546, 0 )" style="stroke: hsl(242.1, 55%, 50%);" id="2513"  d=" M  119.495,340  C  127.694,293.5  132.772,244  132.772,183  C  132.772,122  119.495,61  119.495,61  C  119.495,61  74.684,0  0,0  C  -74.684,0  -109.537,61  -119.495,109.8  C  -129.453,158.6  -134.432,183  -149.369,183  C  -149.369,183  -136.573,280.072  -132.772,340  L  -113.766,639.642  L  -118.803,726.496  L  38.082,735.595  C  50.074,736.29  60.36,727.132  61.055,715.14  L  64.833,650  z " />
<path transform="translate( -15.247, 0 )" style="stroke: hsl(269, 55%, 50%);" id="2793"  d=" M  121.196,340  C  129.395,293.5  134.662,248.667  134.662,186.5  C  134.662,124.333  121.196,62.167  121.196,62.167  C  121.196,62.167  75.748,0  0,0  C  -75.748,0  -111.096,62.166  -121.196,111.9  C  -131.296,161.634  -136.346,186.5  -151.495,186.5  C  -151.495,186.5  -139.103,279.888  -134.662,340  L  -112.456,640.558  L  -117.039,727.437  L  40.231,735.733  C  52.226,736.366  62.464,727.154  63.097,715.159  L  66.534,650  z " />
<path transform="translate( -16.948, 0 )" style="stroke: hsl(295.9, 55%, 50%);" id="3073"  d=" M  122.897,340  C  131.096,293.5  136.552,253.334  136.552,190  C  136.552,126.666  122.897,63.333  122.897,63.333  C  122.897,63.333  76.811,0  0,0  C  -76.811,0  -112.656,63.334  -122.897,114  C  -133.138,164.666  -138.259,190  -153.621,190  C  -153.621,190  -141.634,279.705  -136.552,340  L  -111.142,641.478  L  -115.271,728.38  L  42.381,735.87  C  54.379,736.44  64.568,727.175  65.138,715.177  L  68.235,650  z " />
    </g>
    <!-- End of group #topsleeve -->
    
    <!-- Start of group #undersleeve -->
    <g id="undersleeve"  transform=" translate(114.121 -46.667)  translate(843.504 0) " >
        <path class="hidden" id="7"  d=" M  -109.121,51.667  L  108.35,51.667  L  108.35,735.248  L  -109.121,735.248  z " />
<path transform="translate( 0, 0 )" style="stroke: hsl(26.9, 55%, 50%);" id="274"  d=" M  105.949,340  C  114.148,293.5  98.903,206.45  94.177,155  C  89.451,103.55  79.462,51.667  79.462,51.667  C  63.65,102.081  -13.244,155  -52.975,155  L  -79.462,155  C  -79.462,155  -57.856,281.23  -61.804,340  L  -81.545,633.85  L  -92.045,720.214  L  19.196,733.739  C  31.12,735.189  41.962,726.697  43.412,714.773  L  51.287,650  z " />
<path transform="translate( -1.687, 0 )" style="stroke: hsl(53.8, 55%, 50%);" id="554"  d=" M  107.636,340  C  115.835,293.5  100.605,211.104  95.676,158.5  C  90.747,105.896  80.727,52.833  80.727,52.833  C  64.51,104.341  -13.455,158.5  -53.818,158.5  L  -80.727,158.5  C  -80.727,158.5  -59.426,281.095  -62.788,340  L  -79.599,634.525  L  -89.686,720.938  L  21.284,733.891  C  33.215,735.284  44.016,726.741  45.409,714.81  L  52.974,650  z " />
<path transform="translate( -3.377, 0 )" style="stroke: hsl(80.7, 55%, 50%);" id="834"  d=" M  109.326,340  C  117.525,293.5  102.316,215.755  97.179,162  C  92.042,108.245  81.994,54  81.994,54  C  65.379,106.606  -13.666,162  -54.663,162  L  -81.995,162  C  -81.995,162  -61,280.96  -63.774,340  L  -77.646,635.199  L  -87.318,721.66  L  23.377,734.043  C  35.315,735.378  46.075,726.784  47.41,714.846  L  54.664,650  z " />
<path transform="translate( -5.068, 0 )" style="stroke: hsl(107.6, 55%, 50%);" id="1114"  d=" M  111.017,340  C  119.216,293.5  104.032,220.407  98.682,165.5  C  93.332,110.593  83.263,55.167  83.263,55.167  C  66.229,108.863  -13.877,165.5  -55.509,165.5  L  -83.263,165.5  C  -83.263,165.5  -62.574,280.826  -64.76,340  L  -75.688,635.871  L  -84.944,722.377  L  25.472,734.192  C  37.416,735.47  48.135,726.823  49.413,714.879  L  56.355,650  z " />
<path transform="translate( -6.76, 0 )" style="stroke: hsl(134.5, 55%, 50%);" id="1394"  d=" M  112.709,340  C  120.908,293.5  105.754,225.058  100.186,169  C  94.618,112.942  84.532,56.333  84.532,56.333  C  67.105,111.129  -14.089,169  -56.355,169  L  -84.532,169  C  -84.532,169  -64.151,280.692  -65.747,340  L  -73.725,636.541  L  -82.565,723.091  L  27.57,734.34  C  39.52,735.561  50.196,726.863  51.417,714.913  L  58.047,650  z " />
<path transform="translate( -8.455, 0 )" style="stroke: hsl(161.4, 55%, 50%);" id="1674"  d=" M  114.404,340  C  122.603,293.5  107.484,229.708  101.692,172.5  C  95.9,115.292  85.803,57.5  85.803,57.5  C  67.959,113.388  -14.301,172.5  -57.202,172.5  L  -85.803,172.5  C  -85.803,172.5  -65.732,280.558  -66.736,340  L  -71.756,637.21  L  -80.178,723.801  L  29.672,734.485  C  41.628,735.648  52.263,726.899  53.426,714.943  L  59.742,650  z " />
<path transform="translate( -10.151, 0 )" style="stroke: hsl(188.3, 55%, 50%);" id="1954"  d=" M  116.1,340  C  124.299,293.5  109.221,234.357  103.2,176  C  97.179,117.643  87.075,58.667  87.075,58.667  C  68.82,115.65  -14.513,176  -58.05,176  L  -87.075,176  C  -87.075,176  -67.313,280.425  -67.725,340  L  -69.783,637.877  L  -77.787,724.508  L  31.776,734.63  C  43.737,735.735  54.33,726.934  55.435,714.973  L  61.438,650  z " />
<path transform="translate( -11.848, 0 )" style="stroke: hsl(215.2, 55%, 50%);" id="2234"  d=" M  117.797,340  C  125.996,293.5  110.963,239.006  104.708,179.5  C  98.453,119.994  88.348,59.833  88.348,59.833  C  69.648,117.9  -14.725,179.5  -58.899,179.5  L  -88.348,179.5  C  -88.348,179.5  -68.897,280.292  -68.715,340  L  -67.806,638.542  L  -75.39,725.211  L  33.884,734.773  C  45.85,735.82  56.4,726.968  57.447,715.002  L  63.135,650  z " />
<path transform="translate( -13.546, 0 )" style="stroke: hsl(242.1, 55%, 50%);" id="2514"  d=" M  119.495,340  C  127.694,293.5  112.712,243.653  106.218,183  C  99.724,122.347  89.621,61  89.621,61  C  70.485,120.155  -14.937,183  -59.747,183  L  -89.621,183  C  -89.621,183  -70.481,280.159  -69.705,340  L  -65.823,639.205  L  -72.987,725.91  L  35.993,734.914  C  47.964,735.903  58.471,727  59.46,715.029  L  64.833,650  z " />
<path transform="translate( -15.247, 0 )" style="stroke: hsl(269, 55%, 50%);" id="2794"  d=" M  121.196,340  C  129.395,293.5  114.47,248.301  107.73,186.5  C  100.99,124.699  90.897,62.167  90.897,62.167  C  71.343,122.414  -15.15,186.5  -60.598,186.5  L  -90.897,186.5  C  -90.897,186.5  -72.071,280.026  -70.698,340  L  -63.834,639.867  L  -70.576,726.605  L  38.107,735.052  C  50.083,735.983  60.547,727.029  61.478,715.053  L  66.534,650  z " />
<path transform="translate( -16.948, 0 )" style="stroke: hsl(295.9, 55%, 50%);" id="3074"  d=" M  122.897,340  C  131.096,293.5  116.232,252.947  109.242,190  C  102.252,127.053  92.173,63.333  92.173,63.333  C  72.179,124.669  -15.362,190  -61.449,190  L  -92.173,190  C  -92.173,190  -73.66,279.895  -71.69,340  L  -61.841,640.526  L  -68.161,727.296  L  40.222,735.19  C  52.202,736.063  62.622,727.057  63.495,715.077  L  68.235,650  z " />
    </g>
    <!-- End of group #undersleeve -->
    
    <!-- Start of group #belt -->
    <g id="belt"  transform=" translate(5 5)  translate(1070.975 584.803) " >
        <path class="hidden" id="8"  d=" M  0,0  L  317.645,0  L  317.645,70  L  0,70  z " />
<path transform="translate( 0, 0 )" style="stroke: hsl(26.9, 55%, 50%);" id="275"  d=" M  317.645,0  L  10,0  C  4.477,0  0,4.477  0,10  L  0,60  C  0,65.523  4.477,70  10,70  L  317.645,70  L  317.645,0  z " />
<path transform="translate( 0, 0 )" style="stroke: hsl(53.8, 55%, 50%);" id="555"  d=" M  317.645,0  L  10,0  C  4.477,0  0,4.477  0,10  L  0,60  C  0,65.523  4.477,70  10,70  L  317.645,70  L  317.645,0  z " />
<path transform="translate( 0, 0 )" style="stroke: hsl(80.7, 55%, 50%);" id="835"  d=" M  317.645,0  L  10,0  C  4.477,0  0,4.477  0,10  L  0,60  C  0,65.523  4.477,70  10,70  L  317.645,70  L  317.645,0  z " />
<path transform="translate( 0, 0 )" style="stroke: hsl(107.6, 55%, 50%);" id="1115"  d=" M  317.645,0  L  10,0  C  4.477,0  0,4.477  0,10  L  0,60  C  0,65.523  4.477,70  10,70  L  317.645,70  L  317.645,0  z " />
<path transform="translate( 0, 0 )" style="stroke: hsl(134.5, 55%, 50%);" id="1395"  d=" M  317.645,0  L  10,0  C  4.477,0  0,4.477  0,10  L  0,60  C  0,65.523  4.477,70  10,70  L  317.645,70  L  317.645,0  z " />
<path transform="translate( 0, 0 )" style="stroke: hsl(161.4, 55%, 50%);" id="1675"  d=" M  317.645,0  L  10,0  C  4.477,0  0,4.477  0,10  L  0,60  C  0,65.523  4.477,70  10,70  L  317.645,70  L  317.645,0  z " />
<path transform="translate( 0, 0 )" style="stroke: hsl(188.3, 55%, 50%);" id="1955"  d=" M  317.645,0  L  10,0  C  4.477,0  0,4.477  0,10  L  0,60  C  0,65.523  4.477,70  10,70  L  317.645,70  L  317.645,0  z " />
<path transform="translate( 0, 0 )" style="stroke: hsl(215.2, 55%, 50%);" id="2235"  d=" M  317.645,0  L  10,0  C  4.477,0  0,4.477  0,10  L  0,60  C  0,65.523  4.477,70  10,70  L  317.645,70  L  317.645,0  z " />
<path transform="translate( 0, 0 )" style="stroke: hsl(242.1, 55%, 50%);" id="2515"  d=" M  317.645,0  L  10,0  C  4.477,0  0,4.477  0,10  L  0,60  C  0,65.523  4.477,70  10,70  L  317.645,70  L  317.645,0  z " />
<path transform="translate( 0, 0 )" style="stroke: hsl(269, 55%, 50%);" id="2795"  d=" M  317.645,0  L  10,0  C  4.477,0  0,4.477  0,10  L  0,60  C  0,65.523  4.477,70  10,70  L  317.645,70  L  317.645,0  z " />
<path transform="translate( 0, 0 )" style="stroke: hsl(295.9, 55%, 50%);" id="3075"  d=" M  317.645,0  L  10,0  C  4.477,0  0,4.477  0,10  L  0,60  C  0,65.523  4.477,70  10,70  L  317.645,70  L  317.645,0  z " />
    </g>
    <!-- End of group #belt -->
    
    <!-- Start of group #collarStand -->
    <g id="collarStand"  transform=" translate(165.228 -51.6)  translate(1070.975 525) " >
        <path class="hidden" id="9"  d=" M  -160.228,56.6  L  160.228,56.6  L  160.228,106.403  L  -160.228,106.403  z " />
<path transform="translate( 0, 0 )" style="stroke: hsl(26.9, 55%, 50%);" id="276"  d=" M  -160.228,106.403  C  -160.228,106.403  -144.205,56.6  0,56.6  C  144.205,56.6  160.228,106.403  160.228,106.403  C  134.929,106.403  80.114,81.6  0,81.6  C  -80.114,81.6  -134.929,106.403  -160.228,106.403  z " />
<path transform="translate( 0, 0 )" style="stroke: hsl(53.8, 55%, 50%);" id="556"  d=" M  -160.228,106.403  C  -160.228,106.403  -144.205,56.6  0,56.6  C  144.205,56.6  160.228,106.403  160.228,106.403  C  134.929,106.403  80.114,81.6  0,81.6  C  -80.114,81.6  -134.929,106.403  -160.228,106.403  z " />
<path transform="translate( 0, 0 )" style="stroke: hsl(80.7, 55%, 50%);" id="836"  d=" M  -160.228,106.403  C  -160.228,106.403  -144.205,56.6  0,56.6  C  144.205,56.6  160.228,106.403  160.228,106.403  C  134.929,106.403  80.114,81.6  0,81.6  C  -80.114,81.6  -134.929,106.403  -160.228,106.403  z " />
<path transform="translate( 0, 0 )" style="stroke: hsl(107.6, 55%, 50%);" id="1116"  d=" M  -160.228,106.403  C  -160.228,106.403  -144.205,56.6  0,56.6  C  144.205,56.6  160.228,106.403  160.228,106.403  C  134.929,106.403  80.114,81.6  0,81.6  C  -80.114,81.6  -134.929,106.403  -160.228,106.403  z " />
<path transform="translate( 0, 0 )" style="stroke: hsl(134.5, 55%, 50%);" id="1396"  d=" M  -160.228,106.403  C  -160.228,106.403  -144.205,56.6  0,56.6  C  144.205,56.6  160.228,106.403  160.228,106.403  C  134.929,106.403  80.114,81.6  0,81.6  C  -80.114,81.6  -134.929,106.403  -160.228,106.403  z " />
<path transform="translate( 0, 0 )" style="stroke: hsl(161.4, 55%, 50%);" id="1676"  d=" M  -160.228,106.403  C  -160.228,106.403  -144.205,56.6  0,56.6  C  144.205,56.6  160.228,106.403  160.228,106.403  C  134.929,106.403  80.114,81.6  0,81.6  C  -80.114,81.6  -134.929,106.403  -160.228,106.403  z " />
<path transform="translate( 0, 0 )" style="stroke: hsl(188.3, 55%, 50%);" id="1956"  d=" M  -160.228,106.403  C  -160.228,106.403  -144.205,56.6  0,56.6  C  144.205,56.6  160.228,106.403  160.228,106.403  C  134.929,106.403  80.114,81.6  0,81.6  C  -80.114,81.6  -134.929,106.403  -160.228,106.403  z " />
<path transform="translate( 0, 0 )" style="stroke: hsl(215.2, 55%, 50%);" id="2236"  d=" M  -160.228,106.403  C  -160.228,106.403  -144.205,56.6  0,56.6  C  144.205,56.6  160.228,106.403  160.228,106.403  C  134.929,106.403  80.114,81.6  0,81.6  C  -80.114,81.6  -134.929,106.403  -160.228,106.403  z " />
<path transform="translate( 0, 0 )" style="stroke: hsl(242.1, 55%, 50%);" id="2516"  d=" M  -160.228,106.403  C  -160.228,106.403  -144.205,56.6  0,56.6  C  144.205,56.6  160.228,106.403  160.228,106.403  C  134.929,106.403  80.114,81.6  0,81.6  C  -80.114,81.6  -134.929,106.403  -160.228,106.403  z " />
<path transform="translate( 0, 0 )" style="stroke: hsl(269, 55%, 50%);" id="2796"  d=" M  -160.228,106.403  C  -160.228,106.403  -144.205,56.6  0,56.6  C  144.205,56.6  160.228,106.403  160.228,106.403  C  134.929,106.403  80.114,81.6  0,81.6  C  -80.114,81.6  -134.929,106.403  -160.228,106.403  z " />
<path transform="translate( 0, 0 )" style="stroke: hsl(295.9, 55%, 50%);" id="3076"  d=" M  -160.228,106.403  C  -160.228,106.403  -144.205,56.6  0,56.6  C  144.205,56.6  160.228,106.403  160.228,106.403  C  134.929,106.403  80.114,81.6  0,81.6  C  -80.114,81.6  -134.929,106.403  -160.228,106.403  z " />
    </g>
    <!-- End of group #collarStand -->
    
    <!-- Start of group #collar -->
    <g id="collar"  transform=" translate(5 5)  translate(1070.975 805.303) " >
        <path class="hidden" id="10"  d=" M  0,0  L  242.212,0  L  242.212,130.664  L  0,130.664  z " />
<path transform="translate( 0, 0 )" style="stroke: hsl(26.9, 55%, 50%);" id="277"  d=" M  0,56.6  C  16.223,56.6  30.824,57.23  43.787,58.334  C  60.043,61.19  73.933,64.566  86.202,68.342  C  102.654,75.021  114.956,82.023  124.384,88.975  C  146.02,112.314  146.795,127.976  146.795,127.976  L  196.106,130.664  L  242.212,62.284  C  182.48,27.382  126.496,0  0,0  z " />
<path transform="translate( 0, 0 )" style="stroke: hsl(53.8, 55%, 50%);" id="557"  d=" M  0,56.6  C  16.223,56.6  30.824,57.23  43.787,58.334  C  60.043,61.19  73.933,64.566  86.202,68.342  C  102.654,75.021  114.956,82.023  124.384,88.975  C  146.02,112.314  146.795,127.976  146.795,127.976  L  196.106,130.664  L  242.212,62.284  C  182.48,27.382  126.496,0  0,0  z " />
<path transform="translate( 0, 0 )" style="stroke: hsl(80.7, 55%, 50%);" id="837"  d=" M  0,56.6  C  16.223,56.6  30.824,57.23  43.787,58.334  C  60.043,61.19  73.933,64.566  86.202,68.342  C  102.654,75.021  114.956,82.023  124.384,88.975  C  146.02,112.314  146.795,127.976  146.795,127.976  L  196.106,130.664  L  242.212,62.284  C  182.48,27.382  126.496,0  0,0  z " />
<path transform="translate( 0, 0 )" style="stroke: hsl(107.6, 55%, 50%);" id="1117"  d=" M  0,56.6  C  16.223,56.6  30.824,57.23  43.787,58.334  C  60.043,61.19  73.933,64.566  86.202,68.342  C  102.654,75.021  114.956,82.023  124.384,88.975  C  146.02,112.314  146.795,127.976  146.795,127.976  L  196.106,130.664  L  242.212,62.284  C  182.48,27.382  126.496,0  0,0  z " />
<path transform="translate( 0, 0 )" style="stroke: hsl(134.5, 55%, 50%);" id="1397"  d=" M  0,56.6  C  16.223,56.6  30.824,57.23  43.787,58.334  C  60.043,61.19  73.933,64.566  86.202,68.342  C  102.654,75.021  114.956,82.023  124.384,88.975  C  146.02,112.314  146.795,127.976  146.795,127.976  L  196.106,130.664  L  242.212,62.284  C  182.48,27.382  126.496,0  0,0  z " />
<path transform="translate( 0, 0 )" style="stroke: hsl(161.4, 55%, 50%);" id="1677"  d=" M  0,56.6  C  16.223,56.6  30.824,57.23  43.787,58.334  C  60.043,61.19  73.933,64.566  86.202,68.342  C  102.654,75.021  114.956,82.023  124.384,88.975  C  146.02,112.314  146.795,127.976  146.795,127.976  L  196.106,130.664  L  242.212,62.284  C  182.48,27.382  126.496,0  0,0  z " />
<path transform="translate( 0, 0 )" style="stroke: hsl(188.3, 55%, 50%);" id="1957"  d=" M  0,56.6  C  16.223,56.6  30.824,57.23  43.787,58.334  C  60.043,61.19  73.933,64.566  86.202,68.342  C  102.654,75.021  114.956,82.023  124.384,88.975  C  146.02,112.314  146.795,127.976  146.795,127.976  L  196.106,130.664  L  242.212,62.284  C  182.48,27.382  126.496,0  0,0  z " />
<path transform="translate( 0, 0 )" style="stroke: hsl(215.2, 55%, 50%);" id="2237"  d=" M  0,56.6  C  16.223,56.6  30.824,57.23  43.787,58.334  C  60.043,61.19  73.933,64.566  86.202,68.342  C  102.654,75.021  114.956,82.023  124.384,88.975  C  146.02,112.314  146.795,127.976  146.795,127.976  L  196.106,130.664  L  242.212,62.284  C  182.48,27.382  126.496,0  0,0  z " />
<path transform="translate( 0, 0 )" style="stroke: hsl(242.1, 55%, 50%);" id="2517"  d=" M  0,56.6  C  16.223,56.6  30.824,57.23  43.787,58.334  C  60.043,61.19  73.933,64.566  86.202,68.342  C  102.654,75.021  114.956,82.023  124.384,88.975  C  146.02,112.314  146.795,127.976  146.795,127.976  L  196.106,130.664  L  242.212,62.284  C  182.48,27.382  126.496,0  0,0  z " />
<path transform="translate( 0, 0 )" style="stroke: hsl(269, 55%, 50%);" id="2797"  d=" M  0,56.6  C  16.223,56.6  30.824,57.23  43.787,58.334  C  60.043,61.19  73.933,64.566  86.202,68.342  C  102.654,75.021  114.956,82.023  124.384,88.975  C  146.02,112.314  146.795,127.976  146.795,127.976  L  196.106,130.664  L  242.212,62.284  C  182.48,27.382  126.496,0  0,0  z " />
<path transform="translate( 0, 0 )" style="stroke: hsl(295.9, 55%, 50%);" id="3077"  d=" M  0,56.6  C  16.223,56.6  30.824,57.23  43.787,58.334  C  60.043,61.19  73.933,64.566  86.202,68.342  C  102.654,75.021  114.956,82.023  124.384,88.975  C  146.02,112.314  146.795,127.976  146.795,127.976  L  196.106,130.664  L  242.212,62.284  C  182.48,27.382  126.496,0  0,0  z " />
    </g>
    <!-- End of group #collar -->
    
    <!-- Start of group #cuffFacing -->
    <g id="cuffFacing"  transform=" translate(5 5)  translate(1070.975 664.803) " >
        <path class="hidden" id="11"  d=" M  0,0  L  310,0  L  310,130.5  L  0,130.5  z " />
<path transform="translate( 0, 0 )" style="stroke: hsl(26.9, 55%, 50%);" id="278"  d=" M  0,0  L  0,108.75  C  -0,120.762  9.738,130.5  21.75,130.5  L  288.25,130.5  C  300.262,130.5  310,120.762  310,108.75  L  310,0  z " />
<path transform="translate( 0, 0 )" style="stroke: hsl(53.8, 55%, 50%);" id="558"  d=" M  0,0  L  0,108.75  C  -0,120.762  9.738,130.5  21.75,130.5  L  288.25,130.5  C  300.262,130.5  310,120.762  310,108.75  L  310,0  z " />
<path transform="translate( 0, 0 )" style="stroke: hsl(80.7, 55%, 50%);" id="838"  d=" M  0,0  L  0,108.75  C  -0,120.762  9.738,130.5  21.75,130.5  L  288.25,130.5  C  300.262,130.5  310,120.762  310,108.75  L  310,0  z " />
<path transform="translate( 0, 0 )" style="stroke: hsl(107.6, 55%, 50%);" id="1118"  d=" M  0,0  L  0,108.75  C  -0,120.762  9.738,130.5  21.75,130.5  L  288.25,130.5  C  300.262,130.5  310,120.762  310,108.75  L  310,0  z " />
<path transform="translate( 0, 0 )" style="stroke: hsl(134.5, 55%, 50%);" id="1398"  d=" M  0,0  L  0,108.75  C  -0,120.762  9.738,130.5  21.75,130.5  L  288.25,130.5  C  300.262,130.5  310,120.762  310,108.75  L  310,0  z " />
<path transform="translate( 0, 0 )" style="stroke: hsl(161.4, 55%, 50%);" id="1678"  d=" M  0,0  L  0,108.75  C  -0,120.762  9.738,130.5  21.75,130.5  L  288.25,130.5  C  300.262,130.5  310,120.762  310,108.75  L  310,0  z " />
<path transform="translate( 0, 0 )" style="stroke: hsl(188.3, 55%, 50%);" id="1958"  d=" M  0,0  L  0,108.75  C  -0,120.762  9.738,130.5  21.75,130.5  L  288.25,130.5  C  300.262,130.5  310,120.762  310,108.75  L  310,0  z " />
<path transform="translate( 0, 0 )" style="stroke: hsl(215.2, 55%, 50%);" id="2238"  d=" M  0,0  L  0,108.75  C  -0,120.762  9.738,130.5  21.75,130.5  L  288.25,130.5  C  300.262,130.5  310,120.762  310,108.75  L  310,0  z " />
<path transform="translate( 0, 0 )" style="stroke: hsl(242.1, 55%, 50%);" id="2518"  d=" M  0,0  L  0,108.75  C  -0,120.762  9.738,130.5  21.75,130.5  L  288.25,130.5  C  300.262,130.5  310,120.762  310,108.75  L  310,0  z " />
<path transform="translate( 0, 0 )" style="stroke: hsl(269, 55%, 50%);" id="2798"  d=" M  0,0  L  0,108.75  C  -0,120.762  9.738,130.5  21.75,130.5  L  288.25,130.5  C  300.262,130.5  310,120.762  310,108.75  L  310,0  z " />
<path transform="translate( 0, 0 )" style="stroke: hsl(295.9, 55%, 50%);" id="3078"  d=" M  0,0  L  0,108.75  C  -0,120.762  9.738,130.5  21.75,130.5  L  288.25,130.5  C  300.262,130.5  310,120.762  310,108.75  L  310,0  z " />
    </g>
    <!-- End of group #cuffFacing -->
    
    <!-- Start of group #pocket -->
    <g id="pocket"  transform=" translate(-66.113 -522.5)  translate(1070.975 945.967) " >
        <path class="hidden" id="12"  d=" M  71.113,527.5  L  231.338,527.5  L  231.338,710.25  L  71.113,710.25  z " />
<path transform="translate( 0, 0 )" style="stroke: hsl(26.9, 55%, 50%);" id="279"  d=" M  71.113,527.5  L  71.113,660.25  C  71.113,687.864  93.499,710.25  121.113,710.25  L  181.338,710.25  C  208.952,710.25  231.338,687.864  231.338,660.25  L  231.338,527.5  L  71.113,527.5  z " />
<path transform="translate( 0, 0 )" style="stroke: hsl(53.8, 55%, 50%);" id="559"  d=" M  71.113,527.5  L  71.113,660.25  C  71.113,687.864  93.499,710.25  121.113,710.25  L  181.338,710.25  C  208.952,710.25  231.338,687.864  231.338,660.25  L  231.338,527.5  L  71.113,527.5  z " />
<path transform="translate( 0, 0 )" style="stroke: hsl(80.7, 55%, 50%);" id="839"  d=" M  71.113,527.5  L  71.113,660.25  C  71.113,687.864  93.499,710.25  121.113,710.25  L  181.338,710.25  C  208.952,710.25  231.338,687.864  231.338,660.25  L  231.338,527.5  L  71.113,527.5  z " />
<path transform="translate( 0, 0 )" style="stroke: hsl(107.6, 55%, 50%);" id="1119"  d=" M  71.113,527.5  L  71.113,660.25  C  71.113,687.864  93.499,710.25  121.113,710.25  L  181.338,710.25  C  208.952,710.25  231.338,687.864  231.338,660.25  L  231.338,527.5  L  71.113,527.5  z " />
<path transform="translate( 0, 0 )" style="stroke: hsl(134.5, 55%, 50%);" id="1399"  d=" M  71.113,527.5  L  71.113,660.25  C  71.113,687.864  93.499,710.25  121.113,710.25  L  181.338,710.25  C  208.952,710.25  231.338,687.864  231.338,660.25  L  231.338,527.5  L  71.113,527.5  z " />
<path transform="translate( 0, 0 )" style="stroke: hsl(161.4, 55%, 50%);" id="1679"  d=" M  71.113,527.5  L  71.113,660.25  C  71.113,687.864  93.499,710.25  121.113,710.25  L  181.338,710.25  C  208.952,710.25  231.338,687.864  231.338,660.25  L  231.338,527.5  L  71.113,527.5  z " />
<path transform="translate( 0, 0 )" style="stroke: hsl(188.3, 55%, 50%);" id="1959"  d=" M  71.113,527.5  L  71.113,660.25  C  71.113,687.864  93.499,710.25  121.113,710.25  L  181.338,710.25  C  208.952,710.25  231.338,687.864  231.338,660.25  L  231.338,527.5  L  71.113,527.5  z " />
<path transform="translate( 0, 0 )" style="stroke: hsl(215.2, 55%, 50%);" id="2239"  d=" M  71.113,527.5  L  71.113,660.25  C  71.113,687.864  93.499,710.25  121.113,710.25  L  181.338,710.25  C  208.952,710.25  231.338,687.864  231.338,660.25  L  231.338,527.5  L  71.113,527.5  z " />
<path transform="translate( 0, 0 )" style="stroke: hsl(242.1, 55%, 50%);" id="2519"  d=" M  71.113,527.5  L  71.113,660.25  C  71.113,687.864  93.499,710.25  121.113,710.25  L  181.338,710.25  C  208.952,710.25  231.338,687.864  231.338,660.25  L  231.338,527.5  L  71.113,527.5  z " />
<path transform="translate( 0, 0 )" style="stroke: hsl(269, 55%, 50%);" id="2799"  d=" M  71.113,527.5  L  71.113,660.25  C  71.113,687.864  93.499,710.25  121.113,710.25  L  181.338,710.25  C  208.952,710.25  231.338,687.864  231.338,660.25  L  231.338,527.5  L  71.113,527.5  z " />
<path transform="translate( 0, 0 )" style="stroke: hsl(295.9, 55%, 50%);" id="3079"  d=" M  71.113,527.5  L  71.113,660.25  C  71.113,687.864  93.499,710.25  121.113,710.25  L  181.338,710.25  C  208.952,710.25  231.338,687.864  231.338,660.25  L  231.338,527.5  L  71.113,527.5  z " />
    </g>
    <!-- End of group #pocket -->
    
    <!-- Start of group #pocketFlap -->
    <g id="pocketFlap"  transform=" translate(-65.059 -510.045)  translate(1241.2 945.967) " >
        <path class="hidden" id="13"  d=" M  70.059,515.045  L  232.392,515.045  L  232.392,581.13  L  70.059,581.13  z " />
<path transform="translate( 0, 0 )" style="stroke: hsl(26.9, 55%, 50%);" id="280"  d=" M  70.059,515.045  L  73.113,551.13  C  74.51,567.64  86.544,581.13  103.113,581.13  L  199.338,581.13  C  215.907,581.13  227.941,567.64  229.338,551.13  L  232.392,515.045  z " />
<path transform="translate( 0, 0 )" style="stroke: hsl(53.8, 55%, 50%);" id="560"  d=" M  70.059,515.045  L  73.113,551.13  C  74.51,567.64  86.544,581.13  103.113,581.13  L  199.338,581.13  C  215.907,581.13  227.941,567.64  229.338,551.13  L  232.392,515.045  z " />
<path transform="translate( 0, 0 )" style="stroke: hsl(80.7, 55%, 50%);" id="840"  d=" M  70.059,515.045  L  73.113,551.13  C  74.51,567.64  86.544,581.13  103.113,581.13  L  199.338,581.13  C  215.907,581.13  227.941,567.64  229.338,551.13  L  232.392,515.045  z " />
<path transform="translate( 0, 0 )" style="stroke: hsl(107.6, 55%, 50%);" id="1120"  d=" M  70.059,515.045  L  73.113,551.13  C  74.51,567.64  86.544,581.13  103.113,581.13  L  199.338,581.13  C  215.907,581.13  227.941,567.64  229.338,551.13  L  232.392,515.045  z " />
<path transform="translate( 0, 0 )" style="stroke: hsl(134.5, 55%, 50%);" id="1400"  d=" M  70.059,515.045  L  73.113,551.13  C  74.51,567.64  86.544,581.13  103.113,581.13  L  199.338,581.13  C  215.907,581.13  227.941,567.64  229.338,551.13  L  232.392,515.045  z " />
<path transform="translate( 0, 0 )" style="stroke: hsl(161.4, 55%, 50%);" id="1680"  d=" M  70.059,515.045  L  73.113,551.13  C  74.51,567.64  86.544,581.13  103.113,581.13  L  199.338,581.13  C  215.907,581.13  227.941,567.64  229.338,551.13  L  232.392,515.045  z " />
<path transform="translate( 0, 0 )" style="stroke: hsl(188.3, 55%, 50%);" id="1960"  d=" M  70.059,515.045  L  73.113,551.13  C  74.51,567.64  86.544,581.13  103.113,581.13  L  199.338,581.13  C  215.907,581.13  227.941,567.64  229.338,551.13  L  232.392,515.045  z " />
<path transform="translate( 0, 0 )" style="stroke: hsl(215.2, 55%, 50%);" id="2240"  d=" M  70.059,515.045  L  73.113,551.13  C  74.51,567.64  86.544,581.13  103.113,581.13  L  199.338,581.13  C  215.907,581.13  227.941,567.64  229.338,551.13  L  232.392,515.045  z " />
<path transform="translate( 0, 0 )" style="stroke: hsl(242.1, 55%, 50%);" id="2520"  d=" M  70.059,515.045  L  73.113,551.13  C  74.51,567.64  86.544,581.13  103.113,581.13  L  199.338,581.13  C  215.907,581.13  227.941,567.64  229.338,551.13  L  232.392,515.045  z " />
<path transform="translate( 0, 0 )" style="stroke: hsl(269, 55%, 50%);" id="2800"  d=" M  70.059,515.045  L  73.113,551.13  C  74.51,567.64  86.544,581.13  103.113,581.13  L  199.338,581.13  C  215.907,581.13  227.941,567.64  229.338,551.13  L  232.392,515.045  z " />
<path transform="translate( 0, 0 )" style="stroke: hsl(295.9, 55%, 50%);" id="3080"  d=" M  70.059,515.045  L  73.113,551.13  C  74.51,567.64  86.544,581.13  103.113,581.13  L  199.338,581.13  C  215.907,581.13  227.941,567.64  229.338,551.13  L  232.392,515.045  z " />
    </g>
    <!-- End of group #pocketFlap -->
    
    <!-- Start of group #chestPocketWelt -->
    <g id="chestPocketWelt"  transform=" translate(5 5)  translate(1394.275 140) " >
        <path class="hidden" id="14"  d=" M  0,0  L  33.15,0  L  33.15,147.56  L  0,147.56  z " />
<path transform="translate( 0, 0 )" style="stroke: hsl(26.9, 55%, 50%);" id="281"  d=" M  0,0  L  33.15,0  L  33.15,147.56  L  0,147.56  L  0,0  z " />
<path transform="translate( 0, 0 )" style="stroke: hsl(53.8, 55%, 50%);" id="561"  d=" M  0,0  L  33.15,0  L  33.15,147.56  L  0,147.56  L  0,0  z " />
<path transform="translate( 0, 0 )" style="stroke: hsl(80.7, 55%, 50%);" id="841"  d=" M  0,0  L  33.15,0  L  33.15,147.56  L  0,147.56  L  0,0  z " />
<path transform="translate( 0, 0 )" style="stroke: hsl(107.6, 55%, 50%);" id="1121"  d=" M  0,0  L  33.15,0  L  33.15,147.56  L  0,147.56  L  0,0  z " />
<path transform="translate( 0, 0 )" style="stroke: hsl(134.5, 55%, 50%);" id="1401"  d=" M  0,0  L  33.15,0  L  33.15,147.56  L  0,147.56  L  0,0  z " />
<path transform="translate( 0, 0 )" style="stroke: hsl(161.4, 55%, 50%);" id="1681"  d=" M  0,0  L  33.15,0  L  33.15,147.56  L  0,147.56  L  0,0  z " />
<path transform="translate( 0, 0 )" style="stroke: hsl(188.3, 55%, 50%);" id="1961"  d=" M  0,0  L  33.15,0  L  33.15,147.56  L  0,147.56  L  0,0  z " />
<path transform="translate( 0, 0 )" style="stroke: hsl(215.2, 55%, 50%);" id="2241"  d=" M  0,0  L  33.15,0  L  33.15,147.56  L  0,147.56  L  0,0  z " />
<path transform="translate( 0, 0 )" style="stroke: hsl(242.1, 55%, 50%);" id="2521"  d=" M  0,0  L  33.15,0  L  33.15,147.56  L  0,147.56  L  0,0  z " />
<path transform="translate( 0, 0 )" style="stroke: hsl(269, 55%, 50%);" id="2801"  d=" M  0,0  L  33.15,0  L  33.15,147.56  L  0,147.56  L  0,0  z " />
<path transform="translate( 0, 0 )" style="stroke: hsl(295.9, 55%, 50%);" id="3081"  d=" M  0,0  L  33.15,0  L  33.15,147.56  L  0,147.56  L  0,0  z " />
    </g>
    <!-- End of group #chestPocketWelt -->
    
    <!-- Start of group #sampler-frontPanel -->
    <g id="sampler-frontPanel" >
    </g>
    <!-- End of group #sampler-frontPanel -->
    
    <!-- Start of group #sampler-sidePanel -->
    <g id="sampler-sidePanel" >
    </g>
    <!-- End of group #sampler-sidePanel -->
    
    <!-- Start of group #sampler-back -->
    <g id="sampler-back" >
    </g>
    <!-- End of group #sampler-back -->
    
    <!-- Start of group #sampler-tail -->
    <g id="sampler-tail" >
    </g>
    <!-- End of group #sampler-tail -->
    
    <!-- Start of group #sampler-topsleeve -->
    <g id="sampler-topsleeve" >
    </g>
    <!-- End of group #sampler-topsleeve -->
    
    <!-- Start of group #sampler-undersleeve -->
    <g id="sampler-undersleeve" >
    </g>
    <!-- End of group #sampler-undersleeve -->
    
    <!-- Start of group #sampler-belt -->
    <g id="sampler-belt" >
    </g>
    <!-- End of group #sampler-belt -->
    
    <!-- Start of group #sampler-collarStand -->
    <g id="sampler-collarStand" >
    </g>
    <!-- End of group #sampler-collarStand -->
    
    <!-- Start of group #sampler-collar -->
    <g id="sampler-collar" >
    </g>
    <!-- End of group #sampler-collar -->
    
    <!-- Start of group #sampler-cuffFacing -->
    <g id="sampler-cuffFacing" >
    </g>
    <!-- End of group #sampler-cuffFacing -->
    
    <!-- Start of group #sampler-pocket -->
    <g id="sampler-pocket" >
    </g>
    <!-- End of group #sampler-pocket -->
    
    <!-- Start of group #sampler-pocketFlap -->
    <g id="sampler-pocketFlap" >
    </g>
    <!-- End of group #sampler-pocketFlap -->
    
    <!-- Start of group #sampler-chestPocketWelt -->
    <g id="sampler-chestPocketWelt" >
    </g>
    <!-- End of group #sampler-chestPocketWelt -->
</g>
<!-- End of group #patternContainer -->

</svg>

