<?xml version="1.0" encoding="UTF-8" standalone="no"?>
<svg
    xmlns="http://www.w3.org/2000/svg"
    xmlns:svg="http://www.w3.org/2000/svg"
    xmlns:xlink="http://www.w3.org/1999/xlink"
    xmlns:freesewing="http://freesewing.org/namespaces/freesewing" viewBox ="0 0 1417 1186"
    width ="1417mm"
    height ="1186mm"
    freesewing:version ="1.5.0"
    freesewing:origin ="joost.core.freesewing.org" 
>

<style type="text/css">
    <![CDATA[
    path { fill: none; stroke: #000000; stroke-opacity:1; stroke-width: 0.5; stroke-miterlimit:4; stroke-dashoffset:0; stroke-linecap:round; stroke-linejoin:round; }
    path.hidden { fill: none; stroke: none; }]]>
</style>


<!-- Start of group #patternContainer -->
<g id="patternContainer" >
    
    <!-- Start of group #backBlock -->
    <g id="backBlock" >
    </g>
    <!-- End of group #backBlock -->
    
    <!-- Start of group #frontBlock -->
    <g id="frontBlock" >
    </g>
    <!-- End of group #frontBlock -->
    
    <!-- Start of group #sleeveBlock -->
    <g id="sleeveBlock" >
    </g>
    <!-- End of group #sleeveBlock -->
    
    <!-- Start of group #topsleeveBlock -->
    <g id="topsleeveBlock" >
    </g>
    <!-- End of group #topsleeveBlock -->
    
    <!-- Start of group #undersleeveBlock -->
    <g id="undersleeveBlock" >
    </g>
    <!-- End of group #undersleeveBlock -->
    
    <!-- Start of group #front -->
    <g id="front" >
    </g>
    <!-- End of group #front -->
    
    <!-- Start of group #frontPs -->
    <g id="frontPs" >
    </g>
    <!-- End of group #frontPs -->
    
    <!-- Start of group #frontPanel -->
    <g id="frontPanel"  transform=" translate(76.113 5)  translate(0 0) " >
        <path class="hidden" id="2"  d=" M  -71.113,0  L  217.5,0  L  217.5,1175.9  L  -71.113,1175.9  z " />
<path transform="translate( 0, 0 )" style="stroke: hsl(26.9, 55%, 50%);" id="268"  d=" M  -67.103,87  C  -67.103,87  -71.113,127.1  -71.113,287.5  L  -71.113,1175.9  L  96.087,1175.9  L  96.087,285  C  96.087,230.593  163.922,185.816  212.5,153.75  C  212.5,109.167  216.116,29.904  217.5,20  L  74.38,0  C  71.612,19.808  74.38,87  0,87  L  -67.103,87  z " />
<path transform="translate( 0, 0 )" style="stroke: hsl(53.8, 55%, 50%);" id="548"  d=" M  -67.103,87  C  -67.103,87  -71.113,127.1  -71.113,287.5  L  -71.113,1175.9  L  96.087,1175.9  L  96.087,285  C  96.087,230.593  163.922,185.816  212.5,153.75  C  212.5,109.167  216.116,29.904  217.5,20  L  74.38,0  C  71.612,19.808  74.38,87  0,87  L  -67.103,87  z " />
<path transform="translate( 0, 0 )" style="stroke: hsl(80.7, 55%, 50%);" id="828"  d=" M  -67.103,87  C  -67.103,87  -71.113,127.1  -71.113,287.5  L  -71.113,1175.9  L  96.087,1175.9  L  96.087,285  C  96.087,230.593  163.922,185.816  212.5,153.75  C  212.5,109.167  216.116,29.904  217.5,20  L  74.38,0  C  71.612,19.808  74.38,87  0,87  L  -67.103,87  z " />
<path transform="translate( 0, 0 )" style="stroke: hsl(107.6, 55%, 50%);" id="1108"  d=" M  -67.103,87  C  -67.103,87  -71.113,127.1  -71.113,287.5  L  -71.113,1175.9  L  96.087,1175.9  L  96.087,285  C  96.087,230.593  163.922,185.816  212.5,153.75  C  212.5,109.167  216.116,29.904  217.5,20  L  74.38,0  C  71.612,19.808  74.38,87  0,87  L  -67.103,87  z " />
<path transform="translate( 0, 0 )" style="stroke: hsl(134.5, 55%, 50%);" id="1388"  d=" M  -67.103,87  C  -67.103,87  -71.113,127.1  -71.113,287.5  L  -71.113,1175.9  L  96.087,1175.9  L  96.087,285  C  96.087,230.593  163.922,185.816  212.5,153.75  C  212.5,109.167  216.116,29.904  217.5,20  L  74.38,0  C  71.612,19.808  74.38,87  0,87  L  -67.103,87  z " />
<path transform="translate( 0, 0 )" style="stroke: hsl(161.4, 55%, 50%);" id="1668"  d=" M  -67.103,87  C  -67.103,87  -71.113,127.1  -71.113,287.5  L  -71.113,1175.9  L  96.087,1175.9  L  96.087,285  C  96.087,230.593  163.922,185.816  212.5,153.75  C  212.5,109.167  216.116,29.904  217.5,20  L  74.38,0  C  71.612,19.808  74.38,87  0,87  L  -67.103,87  z " />
<path transform="translate( 0, 0 )" style="stroke: hsl(188.3, 55%, 50%);" id="1948"  d=" M  -67.103,87  C  -67.103,87  -71.113,127.1  -71.113,287.5  L  -71.113,1175.9  L  96.087,1175.9  L  96.087,285  C  96.087,230.593  163.922,185.816  212.5,153.75  C  212.5,109.167  216.116,29.904  217.5,20  L  74.38,0  C  71.612,19.808  74.38,87  0,87  L  -67.103,87  z " />
<path transform="translate( 0, 0 )" style="stroke: hsl(215.2, 55%, 50%);" id="2228"  d=" M  -67.103,87  C  -67.103,87  -71.113,127.1  -71.113,287.5  L  -71.113,1175.9  L  96.087,1175.9  L  96.087,285  C  96.087,230.593  163.922,185.816  212.5,153.75  C  212.5,109.167  216.116,29.904  217.5,20  L  74.38,0  C  71.612,19.808  74.38,87  0,87  L  -67.103,87  z " />
<path transform="translate( 0, 0 )" style="stroke: hsl(242.1, 55%, 50%);" id="2508"  d=" M  -67.103,87  C  -67.103,87  -71.113,127.1  -71.113,287.5  L  -71.113,1175.9  L  96.087,1175.9  L  96.087,285  C  96.087,230.593  163.922,185.816  212.5,153.75  C  212.5,109.167  216.116,29.904  217.5,20  L  74.38,0  C  71.612,19.808  74.38,87  0,87  L  -67.103,87  z " />
<path transform="translate( 0, 0 )" style="stroke: hsl(269, 55%, 50%);" id="2788"  d=" M  -67.103,87  C  -67.103,87  -71.113,127.1  -71.113,287.5  L  -71.113,1175.9  L  96.087,1175.9  L  96.087,285  C  96.087,230.593  163.922,185.816  212.5,153.75  C  212.5,109.167  216.116,29.904  217.5,20  L  74.38,0  C  71.612,19.808  74.38,87  0,87  L  -67.103,87  z " />
<path transform="translate( 0, 0 )" style="stroke: hsl(295.9, 55%, 50%);" id="3068"  d=" M  -67.103,87  C  -67.103,87  -71.113,127.1  -71.113,287.5  L  -71.113,1175.9  L  96.087,1175.9  L  96.087,285  C  96.087,230.593  163.922,185.816  212.5,153.75  C  212.5,109.167  216.116,29.904  217.5,20  L  74.38,0  C  71.612,19.808  74.38,87  0,87  L  -67.103,87  z " />
    </g>
    <!-- End of group #frontPanel -->
    
    <!-- Start of group #sidePanel -->
    <g id="sidePanel"  transform=" translate(-95.048 -171.055)  translate(298.613 0) " >
        <path class="hidden" id="3"  d=" M  100.048,176.055  L  332.094,176.055  L  332.094,1165.341  L  100.048,1165.341  z " />
<path transform="translate( 0, 0 )" style="stroke: hsl(26.9, 55%, 50%);" id="269"  d=" M  307.113,308.942  C  293.365,309.136  285.3,303.543  271.328,289.96  C  257.354,276.378  245.856,220.635  245.224,176.055  C  190.691,196.408  114.542,224.83  102.338,277.85  C  90.134,330.87  130.683,330.87  130.683,511.687  L  130.683,1165.34  L  332.094,1165.341  L  332.094,793.942  C  332.095,678.941  288.97,495.191  288.971,433.941  C  288.969,372.691  307.095,319.097  307.113,308.942  z " />
<path transform="translate( 0, 0 )" style="stroke: hsl(53.8, 55%, 50%);" id="549"  d=" M  307.113,308.942  C  293.365,309.136  285.3,303.543  271.328,289.96  C  257.354,276.378  245.856,220.635  245.224,176.055  C  190.691,196.408  114.542,224.83  102.338,277.85  C  90.134,330.87  130.683,330.87  130.683,511.687  L  130.683,1165.34  L  332.094,1165.341  L  332.094,793.942  C  332.095,678.941  288.97,495.191  288.971,433.941  C  288.969,372.691  307.095,319.097  307.113,308.942  z " />
<path transform="translate( 0, 0 )" style="stroke: hsl(80.7, 55%, 50%);" id="829"  d=" M  307.113,308.942  C  293.365,309.136  285.3,303.543  271.328,289.96  C  257.354,276.378  245.856,220.635  245.224,176.055  C  190.691,196.408  114.542,224.83  102.338,277.85  C  90.134,330.87  130.683,330.87  130.683,511.687  L  130.683,1165.34  L  332.094,1165.341  L  332.094,793.942  C  332.095,678.941  288.97,495.191  288.971,433.941  C  288.969,372.691  307.095,319.097  307.113,308.942  z " />
<path transform="translate( 0, 0 )" style="stroke: hsl(107.6, 55%, 50%);" id="1109"  d=" M  307.113,308.942  C  293.365,309.136  285.3,303.543  271.328,289.96  C  257.354,276.378  245.856,220.635  245.224,176.055  C  190.691,196.408  114.542,224.83  102.338,277.85  C  90.134,330.87  130.683,330.87  130.683,511.687  L  130.683,1165.34  L  332.094,1165.341  L  332.094,793.942  C  332.095,678.941  288.97,495.191  288.971,433.941  C  288.969,372.691  307.095,319.097  307.113,308.942  z " />
<path transform="translate( 0, 0 )" style="stroke: hsl(134.5, 55%, 50%);" id="1389"  d=" M  307.113,308.942  C  293.365,309.136  285.3,303.543  271.328,289.96  C  257.354,276.378  245.856,220.635  245.224,176.055  C  190.691,196.408  114.542,224.83  102.338,277.85  C  90.134,330.87  130.683,330.87  130.683,511.687  L  130.683,1165.34  L  332.094,1165.341  L  332.094,793.942  C  332.095,678.941  288.97,495.191  288.971,433.941  C  288.969,372.691  307.095,319.097  307.113,308.942  z " />
<path transform="translate( 0, 0 )" style="stroke: hsl(161.4, 55%, 50%);" id="1669"  d=" M  307.113,308.942  C  293.365,309.136  285.3,303.543  271.328,289.96  C  257.354,276.378  245.856,220.635  245.224,176.055  C  190.691,196.408  114.542,224.83  102.338,277.85  C  90.134,330.87  130.683,330.87  130.683,511.687  L  130.683,1165.34  L  332.094,1165.341  L  332.094,793.942  C  332.095,678.941  288.97,495.191  288.971,433.941  C  288.969,372.691  307.095,319.097  307.113,308.942  z " />
<path transform="translate( 0, 0 )" style="stroke: hsl(188.3, 55%, 50%);" id="1949"  d=" M  307.113,308.942  C  293.365,309.136  285.3,303.543  271.328,289.96  C  257.354,276.378  245.856,220.635  245.224,176.055  C  190.691,196.408  114.542,224.83  102.338,277.85  C  90.134,330.87  130.683,330.87  130.683,511.687  L  130.683,1165.34  L  332.094,1165.341  L  332.094,793.942  C  332.095,678.941  288.97,495.191  288.971,433.941  C  288.969,372.691  307.095,319.097  307.113,308.942  z " />
<path transform="translate( 0, 0 )" style="stroke: hsl(215.2, 55%, 50%);" id="2229"  d=" M  307.113,308.942  C  293.365,309.136  285.3,303.543  271.328,289.96  C  257.354,276.378  245.856,220.635  245.224,176.055  C  190.691,196.408  114.542,224.83  102.338,277.85  C  90.134,330.87  130.683,330.87  130.683,511.687  L  130.683,1165.34  L  332.094,1165.341  L  332.094,793.942  C  332.095,678.941  288.97,495.191  288.971,433.941  C  288.969,372.691  307.095,319.097  307.113,308.942  z " />
<path transform="translate( 0, 0 )" style="stroke: hsl(242.1, 55%, 50%);" id="2509"  d=" M  307.113,308.942  C  293.365,309.136  285.3,303.543  271.328,289.96  C  257.354,276.378  245.856,220.635  245.224,176.055  C  190.691,196.408  114.542,224.83  102.338,277.85  C  90.134,330.87  130.683,330.87  130.683,511.687  L  130.683,1165.34  L  332.094,1165.341  L  332.094,793.942  C  332.095,678.941  288.97,495.191  288.971,433.941  C  288.969,372.691  307.095,319.097  307.113,308.942  z " />
<path transform="translate( 0, 0 )" style="stroke: hsl(269, 55%, 50%);" id="2789"  d=" M  307.113,308.942  C  293.365,309.136  285.3,303.543  271.328,289.96  C  257.354,276.378  245.856,220.635  245.224,176.055  C  190.691,196.408  114.542,224.83  102.338,277.85  C  90.134,330.87  130.683,330.87  130.683,511.687  L  130.683,1165.34  L  332.094,1165.341  L  332.094,793.942  C  332.095,678.941  288.97,495.191  288.971,433.941  C  288.969,372.691  307.095,319.097  307.113,308.942  z " />
<path transform="translate( 0, 0 )" style="stroke: hsl(295.9, 55%, 50%);" id="3069"  d=" M  307.113,308.942  C  293.365,309.136  285.3,303.543  271.328,289.96  C  257.354,276.378  245.856,220.635  245.224,176.055  C  190.691,196.408  114.542,224.83  102.338,277.85  C  90.134,330.87  130.683,330.87  130.683,511.687  L  130.683,1165.34  L  332.094,1165.341  L  332.094,793.942  C  332.095,678.941  288.97,495.191  288.971,433.941  C  288.969,372.691  307.095,319.097  307.113,308.942  z " />
    </g>
    <!-- End of group #sidePanel -->
    
    <!-- Start of group #back -->
    <g id="back"  transform=" translate(45.8 5)  translate(1030.167 140) " >
        <path class="hidden" id="4"  d=" M  -40.8,0  L  272.5,0  L  272.5,375  L  -40.8,375  z " />
<path transform="translate( 0, 0 )" style="stroke: hsl(26.9, 55%, 50%);" id="270"  d=" M  0,20  L  0,153.75  L  -40.8,153.75  L  -40.8,375  L  83.625,375  C  83.625,331.25  101.75,287.5  101.75,287.5  C  101.75,287.5  119.875,331.25  119.875,375  L  254.375,375  C  254.375,348.75  272.5,295.156  272.5,287.5  C  258.75,287.5  250.766,281.792  236.987,268.013  C  223.208,254.234  217.5,198.333  217.5,153.75  C  217.5,109.167  216.116,29.904  217.5,20  L  74.38,0  C  71.612,19.808  0,20  0,20  z " />
<path transform="translate( 0, 0 )" style="stroke: hsl(53.8, 55%, 50%);" id="550"  d=" M  0,20  L  0,153.75  L  -40.8,153.75  L  -40.8,375  L  83.625,375  C  83.625,331.25  101.75,287.5  101.75,287.5  C  101.75,287.5  119.875,331.25  119.875,375  L  254.375,375  C  254.375,348.75  272.5,295.156  272.5,287.5  C  258.75,287.5  250.766,281.792  236.987,268.013  C  223.208,254.234  217.5,198.333  217.5,153.75  C  217.5,109.167  216.116,29.904  217.5,20  L  74.38,0  C  71.612,19.808  0,20  0,20  z " />
<path transform="translate( 0, 0 )" style="stroke: hsl(80.7, 55%, 50%);" id="830"  d=" M  0,20  L  0,153.75  L  -40.8,153.75  L  -40.8,375  L  83.625,375  C  83.625,331.25  101.75,287.5  101.75,287.5  C  101.75,287.5  119.875,331.25  119.875,375  L  254.375,375  C  254.375,348.75  272.5,295.156  272.5,287.5  C  258.75,287.5  250.766,281.792  236.987,268.013  C  223.208,254.234  217.5,198.333  217.5,153.75  C  217.5,109.167  216.116,29.904  217.5,20  L  74.38,0  C  71.612,19.808  0,20  0,20  z " />
<path transform="translate( 0, 0 )" style="stroke: hsl(107.6, 55%, 50%);" id="1110"  d=" M  0,20  L  0,153.75  L  -40.8,153.75  L  -40.8,375  L  83.625,375  C  83.625,331.25  101.75,287.5  101.75,287.5  C  101.75,287.5  119.875,331.25  119.875,375  L  254.375,375  C  254.375,348.75  272.5,295.156  272.5,287.5  C  258.75,287.5  250.766,281.792  236.987,268.013  C  223.208,254.234  217.5,198.333  217.5,153.75  C  217.5,109.167  216.116,29.904  217.5,20  L  74.38,0  C  71.612,19.808  0,20  0,20  z " />
<path transform="translate( 0, 0 )" style="stroke: hsl(134.5, 55%, 50%);" id="1390"  d=" M  0,20  L  0,153.75  L  -40.8,153.75  L  -40.8,375  L  83.625,375  C  83.625,331.25  101.75,287.5  101.75,287.5  C  101.75,287.5  119.875,331.25  119.875,375  L  254.375,375  C  254.375,348.75  272.5,295.156  272.5,287.5  C  258.75,287.5  250.766,281.792  236.987,268.013  C  223.208,254.234  217.5,198.333  217.5,153.75  C  217.5,109.167  216.116,29.904  217.5,20  L  74.38,0  C  71.612,19.808  0,20  0,20  z " />
<path transform="translate( 0, 0 )" style="stroke: hsl(161.4, 55%, 50%);" id="1670"  d=" M  0,20  L  0,153.75  L  -40.8,153.75  L  -40.8,375  L  83.625,375  C  83.625,331.25  101.75,287.5  101.75,287.5  C  101.75,287.5  119.875,331.25  119.875,375  L  254.375,375  C  254.375,348.75  272.5,295.156  272.5,287.5  C  258.75,287.5  250.766,281.792  236.987,268.013  C  223.208,254.234  217.5,198.333  217.5,153.75  C  217.5,109.167  216.116,29.904  217.5,20  L  74.38,0  C  71.612,19.808  0,20  0,20  z " />
<path transform="translate( 0, 0 )" style="stroke: hsl(188.3, 55%, 50%);" id="1950"  d=" M  0,20  L  0,153.75  L  -40.8,153.75  L  -40.8,375  L  83.625,375  C  83.625,331.25  101.75,287.5  101.75,287.5  C  101.75,287.5  119.875,331.25  119.875,375  L  254.375,375  C  254.375,348.75  272.5,295.156  272.5,287.5  C  258.75,287.5  250.766,281.792  236.987,268.013  C  223.208,254.234  217.5,198.333  217.5,153.75  C  217.5,109.167  216.116,29.904  217.5,20  L  74.38,0  C  71.612,19.808  0,20  0,20  z " />
<path transform="translate( 0, 0 )" style="stroke: hsl(215.2, 55%, 50%);" id="2230"  d=" M  0,20  L  0,153.75  L  -40.8,153.75  L  -40.8,375  L  83.625,375  C  83.625,331.25  101.75,287.5  101.75,287.5  C  101.75,287.5  119.875,331.25  119.875,375  L  254.375,375  C  254.375,348.75  272.5,295.156  272.5,287.5  C  258.75,287.5  250.766,281.792  236.987,268.013  C  223.208,254.234  217.5,198.333  217.5,153.75  C  217.5,109.167  216.116,29.904  217.5,20  L  74.38,0  C  71.612,19.808  0,20  0,20  z " />
<path transform="translate( 0, 0 )" style="stroke: hsl(242.1, 55%, 50%);" id="2510"  d=" M  0,20  L  0,153.75  L  -40.8,153.75  L  -40.8,375  L  83.625,375  C  83.625,331.25  101.75,287.5  101.75,287.5  C  101.75,287.5  119.875,331.25  119.875,375  L  254.375,375  C  254.375,348.75  272.5,295.156  272.5,287.5  C  258.75,287.5  250.766,281.792  236.987,268.013  C  223.208,254.234  217.5,198.333  217.5,153.75  C  217.5,109.167  216.116,29.904  217.5,20  L  74.38,0  C  71.612,19.808  0,20  0,20  z " />
<path transform="translate( 0, 0 )" style="stroke: hsl(269, 55%, 50%);" id="2790"  d=" M  0,20  L  0,153.75  L  -40.8,153.75  L  -40.8,375  L  83.625,375  C  83.625,331.25  101.75,287.5  101.75,287.5  C  101.75,287.5  119.875,331.25  119.875,375  L  254.375,375  C  254.375,348.75  272.5,295.156  272.5,287.5  C  258.75,287.5  250.766,281.792  236.987,268.013  C  223.208,254.234  217.5,198.333  217.5,153.75  C  217.5,109.167  216.116,29.904  217.5,20  L  74.38,0  C  71.612,19.808  0,20  0,20  z " />
<path transform="translate( 0, 0 )" style="stroke: hsl(295.9, 55%, 50%);" id="3070"  d=" M  0,20  L  0,153.75  L  -40.8,153.75  L  -40.8,375  L  83.625,375  C  83.625,331.25  101.75,287.5  101.75,287.5  C  101.75,287.5  119.875,331.25  119.875,375  L  254.375,375  C  254.375,348.75  272.5,295.156  272.5,287.5  C  258.75,287.5  250.766,281.792  236.987,268.013  C  223.208,254.234  217.5,198.333  217.5,153.75  C  217.5,109.167  216.116,29.904  217.5,20  L  74.38,0  C  71.612,19.808  0,20  0,20  z " />
    </g>
    <!-- End of group #back -->
    
    <!-- Start of group #tail -->
    <g id="tail"  transform=" translate(164.04 5)  translate(1030.167 0) " >
        <path class="hidden" id="5"  d=" M  -159.04,0  L  218.125,0  L  218.125,130  L  -159.04,130  z " />
<path transform="translate( 0, 0 )" style="stroke: hsl(26.9, 55%, 50%);" id="271"  d=" M  -159.04,50  -159.04,0  L  0,0  L  218.125,0  L  218.125,50 " />
<path transform="translate( 0, 0 )" style="stroke: hsl(26.9, 55%, 50%);" id="272"  d=" M  -159.04,80  -159.04,130  L  -0,130  L  218.125,130  L  218.125,80 " />
<path transform="translate( 0, 0 )" style="stroke: hsl(53.8, 55%, 50%);" id="551"  d=" M  -159.04,50  -159.04,0  L  0,0  L  218.125,0  L  218.125,50 " />
<path transform="translate( 0, 0 )" style="stroke: hsl(53.8, 55%, 50%);" id="552"  d=" M  -159.04,80  -159.04,130  L  -0,130  L  218.125,130  L  218.125,80 " />
<path transform="translate( 0, 0 )" style="stroke: hsl(80.7, 55%, 50%);" id="831"  d=" M  -159.04,50  -159.04,0  L  0,0  L  218.125,0  L  218.125,50 " />
<path transform="translate( 0, 0 )" style="stroke: hsl(80.7, 55%, 50%);" id="832"  d=" M  -159.04,80  -159.04,130  L  -0,130  L  218.125,130  L  218.125,80 " />
<path transform="translate( 0, 0 )" style="stroke: hsl(107.6, 55%, 50%);" id="1111"  d=" M  -159.04,50  -159.04,0  L  0,0  L  218.125,0  L  218.125,50 " />
<path transform="translate( 0, 0 )" style="stroke: hsl(107.6, 55%, 50%);" id="1112"  d=" M  -159.04,80  -159.04,130  L  -0,130  L  218.125,130  L  218.125,80 " />
<path transform="translate( 0, 0 )" style="stroke: hsl(134.5, 55%, 50%);" id="1391"  d=" M  -159.04,50  -159.04,0  L  0,0  L  218.125,0  L  218.125,50 " />
<path transform="translate( 0, 0 )" style="stroke: hsl(134.5, 55%, 50%);" id="1392"  d=" M  -159.04,80  -159.04,130  L  -0,130  L  218.125,130  L  218.125,80 " />
<path transform="translate( 0, 0 )" style="stroke: hsl(161.4, 55%, 50%);" id="1671"  d=" M  -159.04,50  -159.04,0  L  0,0  L  218.125,0  L  218.125,50 " />
<path transform="translate( 0, 0 )" style="stroke: hsl(161.4, 55%, 50%);" id="1672"  d=" M  -159.04,80  -159.04,130  L  -0,130  L  218.125,130  L  218.125,80 " />
<path transform="translate( 0, 0 )" style="stroke: hsl(188.3, 55%, 50%);" id="1951"  d=" M  -159.04,50  -159.04,0  L  0,0  L  218.125,0  L  218.125,50 " />
<path transform="translate( 0, 0 )" style="stroke: hsl(188.3, 55%, 50%);" id="1952"  d=" M  -159.04,80  -159.04,130  L  -0,130  L  218.125,130  L  218.125,80 " />
<path transform="translate( 0, 0 )" style="stroke: hsl(215.2, 55%, 50%);" id="2231"  d=" M  -159.04,50  -159.04,0  L  0,0  L  218.125,0  L  218.125,50 " />
<path transform="translate( 0, 0 )" style="stroke: hsl(215.2, 55%, 50%);" id="2232"  d=" M  -159.04,80  -159.04,130  L  -0,130  L  218.125,130  L  218.125,80 " />
<path transform="translate( 0, 0 )" style="stroke: hsl(242.1, 55%, 50%);" id="2511"  d=" M  -159.04,50  -159.04,0  L  0,0  L  218.125,0  L  218.125,50 " />
<path transform="translate( 0, 0 )" style="stroke: hsl(242.1, 55%, 50%);" id="2512"  d=" M  -159.04,80  -159.04,130  L  -0,130  L  218.125,130  L  218.125,80 " />
<path transform="translate( 0, 0 )" style="stroke: hsl(269, 55%, 50%);" id="2791"  d=" M  -159.04,50  -159.04,0  L  0,0  L  218.125,0  L  218.125,50 " />
<path transform="translate( 0, 0 )" style="stroke: hsl(269, 55%, 50%);" id="2792"  d=" M  -159.04,80  -159.04,130  L  -0,130  L  218.125,130  L  218.125,80 " />
<path transform="translate( 0, 0 )" style="stroke: hsl(295.9, 55%, 50%);" id="3071"  d=" M  -159.04,50  -159.04,0  L  0,0  L  218.125,0  L  218.125,50 " />
<path transform="translate( 0, 0 )" style="stroke: hsl(295.9, 55%, 50%);" id="3072"  d=" M  -159.04,80  -159.04,130  L  -0,130  L  218.125,130  L  218.125,80 " />
    </g>
    <!-- End of group #tail -->
    
    <!-- Start of group #topsleeve -->
    <g id="topsleeve"  transform=" translate(143.495 5)  translate(540.659 0) " >
        <path class="hidden" id="6"  d=" M  -138.495,0  L  123.083,0  L  123.083,681.388  L  -138.495,681.388  z " />
<path transform="translate( 0, 0 )" style="stroke: hsl(26.9, 55%, 50%);" id="273"  d=" M  110.775,340  C  117.281,303.1  123.083,220  123.083,165  C  123.083,110  110.775,55  110.775,55  C  110.775,55  69.234,0  0,0  C  -69.234,0  -101.544,55  -110.775,99  C  -120.006,143  -124.622,165  -138.469,165  C  -138.469,165  -139.819,289.065  -123.083,340  L  -39.404,594.673  L  -32.362,681.388  L  52.762,674.475  C  64.735,673.503  73.653,663.009  72.681,651.036  L  67.399,586  z " />
<path transform="translate( 0, 0 )" style="stroke: hsl(53.8, 55%, 50%);" id="553"  d=" M  110.775,340  C  117.281,303.1  123.083,220  123.083,165  C  123.083,110  110.775,55  110.775,55  C  110.775,55  69.234,0  0,0  C  -69.234,0  -101.544,55  -110.775,99  C  -120.006,143  -124.622,165  -138.469,165  C  -138.469,165  -137.994,289.342  -123.083,340  L  -48.527,593.293  L  -43.065,680.121  L  51.154,674.194  C  63.142,673.44  72.249,663.109  71.495,651.121  L  67.399,586  z " />
<path transform="translate( 0, 0 )" style="stroke: hsl(80.7, 55%, 50%);" id="833"  d=" M  110.775,340  C  117.281,303.1  123.083,220  123.083,165  C  123.083,110  110.775,55  110.775,55  C  110.775,55  69.234,0  0,0  C  -69.234,0  -101.544,55  -110.775,99  C  -120.006,143  -124.622,165  -138.469,165  C  -138.469,165  -136.173,289.684  -123.083,340  L  -57.632,591.579  L  -53.754,678.493  L  49.549,673.883  C  61.549,673.348  70.843,663.186  70.308,651.186  L  67.399,586  z " />
<path transform="translate( 0, 0 )" style="stroke: hsl(107.6, 55%, 50%);" id="1113"  d=" M  110.775,340  C  117.281,303.1  123.083,220  123.083,165  C  123.083,110  110.775,55  110.775,55  C  110.775,55  69.234,0  0,0  C  -69.234,0  -101.544,55  -110.775,99  C  -120.006,143  -124.622,165  -138.469,165  C  -138.469,165  -134.358,290.094  -123.083,340  L  -66.71,589.53  L  -64.421,676.5  L  47.946,673.542  C  59.954,673.226  69.432,663.236  69.116,651.228  L  67.399,586  z " />
<path transform="translate( 0, 0 )" style="stroke: hsl(134.5, 55%, 50%);" id="1393"  d=" M  110.775,340  C  117.281,303.1  123.083,220  123.083,165  C  123.083,110  110.775,55  110.775,55  C  110.775,55  69.234,0  0,0  C  -69.234,0  -101.544,55  -110.775,99  C  -120.006,143  -124.622,165  -138.469,165  C  -138.469,165  -132.549,290.57  -123.083,340  L  -75.751,587.149  L  -75.053,674.146  L  46.348,673.172  C  58.36,673.075  68.019,663.26  67.922,651.248  L  67.399,586  z " />
<path transform="translate( 0, 0 )" style="stroke: hsl(161.4, 55%, 50%);" id="1673"  d=" M  110.775,340  C  117.281,303.1  123.083,220  123.083,165  C  123.083,110  110.775,55  110.775,55  C  110.775,55  69.234,0  0,0  C  -69.234,0  -101.544,55  -110.775,99  C  -120.006,143  -124.622,165  -138.469,165  C  -138.469,165  -130.75,291.112  -123.083,340  L  -84.748,584.438  L  -85.641,671.433  L  44.757,672.772  C  56.768,672.895  66.606,663.257  66.729,651.246  L  67.399,586  z " />
<path transform="translate( 0, 0 )" style="stroke: hsl(188.3, 55%, 50%);" id="1953"  d=" M  110.775,340  C  117.281,303.1  123.083,220  123.083,165  C  123.083,110  110.775,55  110.775,55  C  110.775,55  69.234,0  0,0  C  -69.234,0  -101.544,55  -110.775,99  C  -120.006,143  -124.622,165  -138.469,165  C  -138.469,165  -128.962,291.72  -123.083,340  L  -93.69,581.4  L  -96.173,668.365  L  43.175,672.344  C  55.182,672.687  65.194,663.231  65.537,651.224  L  67.399,586  z " />
<path transform="translate( 0, 0 )" style="stroke: hsl(215.2, 55%, 50%);" id="2233"  d=" M  110.775,340  C  117.281,303.1  123.083,220  123.083,165  C  123.083,110  110.775,55  110.775,55  C  110.775,55  69.234,0  0,0  C  -69.234,0  -101.544,55  -110.775,99  C  -120.006,143  -124.622,165  -138.469,165  C  -138.469,165  -127.186,292.393  -123.083,340  L  -102.57,578.037  L  -106.641,664.942  L  41.602,671.887  C  53.601,672.449  63.784,663.178  64.346,651.179  L  67.399,586  z " />
<path transform="translate( 0, 0 )" style="stroke: hsl(242.1, 55%, 50%);" id="2513"  d=" M  110.775,340  C  117.281,303.1  123.083,220  123.083,165  C  123.083,110  110.775,55  110.775,55  C  110.775,55  69.234,0  0,0  C  -69.234,0  -101.544,55  -110.775,99  C  -120.006,143  -124.622,165  -138.469,165  C  -138.469,165  -125.424,293.13  -123.083,340  L  -111.377,574.354  L  -117.032,661.17  L  40.04,671.402  C  52.027,672.183  62.377,663.099  63.158,651.112  L  67.399,586  z " />
<path transform="translate( 0, 0 )" style="stroke: hsl(269, 55%, 50%);" id="2793"  d=" M  110.775,340  C  117.281,303.1  123.083,220  123.083,165  C  123.083,110  110.775,55  110.775,55  C  110.775,55  69.234,0  0,0  C  -69.234,0  -101.544,55  -110.775,99  C  -120.006,143  -124.622,165  -138.469,165  C  -138.469,165  -123.679,293.929  -123.083,340  L  -120.104,570.356  L  -127.338,657.055  L  38.49,670.891  C  50.46,671.89  60.974,662.994  61.973,651.024  L  67.399,586  z " />
<path transform="translate( 0, 0 )" style="stroke: hsl(295.9, 55%, 50%);" id="3073"  d=" M  110.775,340  C  117.281,303.1  123.083,220  123.083,165  C  123.083,110  110.775,55  110.775,55  C  110.775,55  69.234,0  0,0  C  -69.234,0  -101.544,55  -110.775,99  C  -120.006,143  -124.622,165  -138.469,165  C  -138.469,165  -121.951,294.791  -123.083,340  L  -128.744,566.047  L  -137.549,652.6  L  36.956,670.352  C  48.906,671.568  59.579,662.865  60.795,650.915  L  67.399,586  z " />
    </g>
    <!-- End of group #topsleeve -->
    
    <!-- Start of group #undersleeve -->
    <g id="undersleeve"  transform=" translate(100.419 -50)  translate(812.237 0) " >
        <path class="hidden" id="7"  d=" M  -95.419,55  L  112.511,55  L  112.511,676.172  L  -95.419,676.172  z " />
<path transform="translate( 0, 0 )" style="stroke: hsl(26.9, 55%, 50%);" id="274"  d=" M  110.775,340  C  117.281,303.1  103.786,219.742  98.467,165  C  93.148,110.258  83.081,55  83.081,55  C  66.118,108.545  -13.847,165  -55.387,165  L  -83.081,165  C  -83.081,165  -78.471,290.142  -64.619,340  L  4.64,589.291  L  9.196,676.172  L  50.235,674.02  C  62.231,673.391  71.445,663.157  70.816,651.161  L  67.399,586  z " />
<path transform="translate( 0, 0 )" style="stroke: hsl(53.8, 55%, 50%);" id="554"  d=" M  110.775,340  C  117.281,303.1  103.786,219.742  98.467,165  C  93.148,110.258  83.081,55  83.081,55  C  66.118,108.545  -13.847,165  -55.387,165  L  -83.081,165  C  -83.081,165  -76.662,290.309  -64.619,340  L  -4.404,588.452  L  -1.435,675.401  L  48.631,673.691  C  60.636,673.281  70.036,663.217  69.626,651.212  L  67.399,586  z " />
<path transform="translate( 0, 0 )" style="stroke: hsl(80.7, 55%, 50%);" id="834"  d=" M  110.775,340  C  117.281,303.1  103.786,219.742  98.467,165  C  93.148,110.258  83.081,55  83.081,55  C  66.118,108.545  -13.847,165  -55.387,165  L  -83.081,165  C  -83.081,165  -74.856,290.544  -64.619,340  L  -13.436,587.281  L  -12.057,674.27  L  47.031,673.334  C  59.041,673.143  68.624,663.252  68.433,651.242  L  67.399,586  z " />
<path transform="translate( 0, 0 )" style="stroke: hsl(107.6, 55%, 50%);" id="1114"  d=" M  110.775,340  C  117.281,303.1  103.786,219.742  98.467,165  C  93.148,110.258  83.081,55  83.081,55  C  66.118,108.545  -13.847,165  -55.387,165  L  -83.081,165  C  -83.081,165  -73.054,290.843  -64.619,340  L  -22.446,585.781  L  -22.658,672.781  L  45.437,672.947  C  57.449,672.976  67.211,663.262  67.24,651.25  L  67.399,586  z " />
<path transform="translate( 0, 0 )" style="stroke: hsl(134.5, 55%, 50%);" id="1394"  d=" M  110.775,340  C  117.281,303.1  103.786,219.742  98.467,165  C  93.148,110.258  83.081,55  83.081,55  C  66.118,108.545  -13.847,165  -55.387,165  L  -83.081,165  C  -83.081,165  -71.258,291.21  -64.619,340  L  -31.425,583.951  L  -33.228,670.932  L  43.851,672.53  C  55.86,672.779  65.798,663.245  66.047,651.236  L  67.399,586  z " />
<path transform="translate( 0, 0 )" style="stroke: hsl(161.4, 55%, 50%);" id="1674"  d=" M  110.775,340  C  117.281,303.1  103.786,219.742  98.467,165  C  93.148,110.258  83.081,55  83.081,55  C  66.118,108.545  -13.847,165  -55.387,165  L  -83.081,165  C  -83.081,165  -69.47,291.641  -64.619,340  L  -40.364,581.794  L  -43.757,668.728  L  42.273,672.086  C  54.276,672.554  64.386,663.204  64.854,651.201  L  67.399,586  z " />
<path transform="translate( 0, 0 )" style="stroke: hsl(188.3, 55%, 50%);" id="1954"  d=" M  110.775,340  C  117.281,303.1  103.786,219.742  98.467,165  C  93.148,110.258  83.081,55  83.081,55  C  66.118,108.545  -13.847,165  -55.387,165  L  -83.081,165  C  -83.081,165  -67.692,292.137  -64.619,340  L  -49.255,579.313  L  -54.234,666.17  L  40.706,671.612  C  52.698,672.3  62.977,663.135  63.665,651.143  L  67.399,586  z " />
<path transform="translate( 0, 0 )" style="stroke: hsl(215.2, 55%, 50%);" id="2234"  d=" M  110.775,340  C  117.281,303.1  103.786,219.742  98.467,165  C  93.148,110.258  83.081,55  83.081,55  C  66.118,108.545  -13.847,165  -55.387,165  L  -83.081,165  C  -83.081,165  -65.925,292.698  -64.619,340  L  -58.088,576.511  L  -64.648,663.263  L  39.151,671.112  C  51.129,672.018  61.573,663.042  62.479,651.064  L  67.399,586  z " />
<path transform="translate( 0, 0 )" style="stroke: hsl(242.1, 55%, 50%);" id="2514"  d=" M  110.775,340  C  117.281,303.1  103.786,219.742  98.467,165  C  93.148,110.258  83.081,55  83.081,55  C  66.118,108.545  -13.847,165  -55.387,165  L  -83.081,165  C  -83.081,165  -64.172,293.322  -64.619,340  L  -66.855,573.393  L  -74.989,660.012  L  37.61,670.586  C  49.569,671.709  60.175,662.923  61.298,650.964  L  67.399,586  z " />
<path transform="translate( 0, 0 )" style="stroke: hsl(269, 55%, 50%);" id="2794"  d=" M  110.775,340  C  117.281,303.1  103.786,219.742  98.467,165  C  93.148,110.258  83.081,55  83.081,55  C  66.118,108.545  -13.847,165  -55.387,165  L  -83.081,165  C  -83.081,165  -62.433,294.008  -64.619,340  L  -75.549,569.961  L  -85.25,656.418  L  36.084,670.032  C  48.021,671.371  58.784,662.78  60.123,650.843  L  67.399,586  z " />
<path transform="translate( 0, 0 )" style="stroke: hsl(295.9, 55%, 50%);" id="3074"  d=" M  110.775,340  C  117.281,303.1  103.786,219.742  98.467,165  C  93.148,110.258  83.081,55  83.081,55  C  66.118,108.545  -13.847,165  -55.387,165  L  -83.081,165  C  -83.081,165  -60.711,294.756  -64.619,340  L  -84.161,566.222  L  -95.419,652.491  L  34.574,669.455  C  46.485,671.009  57.401,662.613  58.955,650.702  L  67.399,586  z " />
    </g>
    <!-- End of group #undersleeve -->
    
    <!-- Start of group #belt -->
    <g id="belt"  transform=" translate(5 5)  translate(1030.167 725.303) " >
        <path class="hidden" id="8"  d=" M  0,0  L  317.645,0  L  317.645,70  L  0,70  z " />
<path transform="translate( 0, 0 )" style="stroke: hsl(26.9, 55%, 50%);" id="275"  d=" M  317.645,0  L  10,0  C  4.477,0  0,4.477  0,10  L  0,60  C  0,65.523  4.477,70  10,70  L  317.645,70  L  317.645,0  z " />
<path transform="translate( 0, 0 )" style="stroke: hsl(53.8, 55%, 50%);" id="555"  d=" M  317.645,0  L  10,0  C  4.477,0  0,4.477  0,10  L  0,60  C  0,65.523  4.477,70  10,70  L  317.645,70  L  317.645,0  z " />
<path transform="translate( 0, 0 )" style="stroke: hsl(80.7, 55%, 50%);" id="835"  d=" M  317.645,0  L  10,0  C  4.477,0  0,4.477  0,10  L  0,60  C  0,65.523  4.477,70  10,70  L  317.645,70  L  317.645,0  z " />
<path transform="translate( 0, 0 )" style="stroke: hsl(107.6, 55%, 50%);" id="1115"  d=" M  317.645,0  L  10,0  C  4.477,0  0,4.477  0,10  L  0,60  C  0,65.523  4.477,70  10,70  L  317.645,70  L  317.645,0  z " />
<path transform="translate( 0, 0 )" style="stroke: hsl(134.5, 55%, 50%);" id="1395"  d=" M  317.645,0  L  10,0  C  4.477,0  0,4.477  0,10  L  0,60  C  0,65.523  4.477,70  10,70  L  317.645,70  L  317.645,0  z " />
<path transform="translate( 0, 0 )" style="stroke: hsl(161.4, 55%, 50%);" id="1675"  d=" M  317.645,0  L  10,0  C  4.477,0  0,4.477  0,10  L  0,60  C  0,65.523  4.477,70  10,70  L  317.645,70  L  317.645,0  z " />
<path transform="translate( 0, 0 )" style="stroke: hsl(188.3, 55%, 50%);" id="1955"  d=" M  317.645,0  L  10,0  C  4.477,0  0,4.477  0,10  L  0,60  C  0,65.523  4.477,70  10,70  L  317.645,70  L  317.645,0  z " />
<path transform="translate( 0, 0 )" style="stroke: hsl(215.2, 55%, 50%);" id="2235"  d=" M  317.645,0  L  10,0  C  4.477,0  0,4.477  0,10  L  0,60  C  0,65.523  4.477,70  10,70  L  317.645,70  L  317.645,0  z " />
<path transform="translate( 0, 0 )" style="stroke: hsl(242.1, 55%, 50%);" id="2515"  d=" M  317.645,0  L  10,0  C  4.477,0  0,4.477  0,10  L  0,60  C  0,65.523  4.477,70  10,70  L  317.645,70  L  317.645,0  z " />
<path transform="translate( 0, 0 )" style="stroke: hsl(269, 55%, 50%);" id="2795"  d=" M  317.645,0  L  10,0  C  4.477,0  0,4.477  0,10  L  0,60  C  0,65.523  4.477,70  10,70  L  317.645,70  L  317.645,0  z " />
<path transform="translate( 0, 0 )" style="stroke: hsl(295.9, 55%, 50%);" id="3075"  d=" M  317.645,0  L  10,0  C  4.477,0  0,4.477  0,10  L  0,60  C  0,65.523  4.477,70  10,70  L  317.645,70  L  317.645,0  z " />
    </g>
    <!-- End of group #belt -->
    
    <!-- Start of group #collarStand -->
    <g id="collarStand"  transform=" translate(165.228 -51.6)  translate(1030.167 665.5) " >
        <path class="hidden" id="9"  d=" M  -160.228,56.6  L  160.228,56.6  L  160.228,106.403  L  -160.228,106.403  z " />
<path transform="translate( 0, 0 )" style="stroke: hsl(26.9, 55%, 50%);" id="276"  d=" M  -160.228,106.403  C  -160.228,106.403  -144.205,56.6  0,56.6  C  144.205,56.6  160.228,106.403  160.228,106.403  C  134.929,106.403  80.114,81.6  0,81.6  C  -80.114,81.6  -134.929,106.403  -160.228,106.403  z " />
<path transform="translate( 0, 0 )" style="stroke: hsl(53.8, 55%, 50%);" id="556"  d=" M  -160.228,106.403  C  -160.228,106.403  -144.205,56.6  0,56.6  C  144.205,56.6  160.228,106.403  160.228,106.403  C  134.929,106.403  80.114,81.6  0,81.6  C  -80.114,81.6  -134.929,106.403  -160.228,106.403  z " />
<path transform="translate( 0, 0 )" style="stroke: hsl(80.7, 55%, 50%);" id="836"  d=" M  -160.228,106.403  C  -160.228,106.403  -144.205,56.6  0,56.6  C  144.205,56.6  160.228,106.403  160.228,106.403  C  134.929,106.403  80.114,81.6  0,81.6  C  -80.114,81.6  -134.929,106.403  -160.228,106.403  z " />
<path transform="translate( 0, 0 )" style="stroke: hsl(107.6, 55%, 50%);" id="1116"  d=" M  -160.228,106.403  C  -160.228,106.403  -144.205,56.6  0,56.6  C  144.205,56.6  160.228,106.403  160.228,106.403  C  134.929,106.403  80.114,81.6  0,81.6  C  -80.114,81.6  -134.929,106.403  -160.228,106.403  z " />
<path transform="translate( 0, 0 )" style="stroke: hsl(134.5, 55%, 50%);" id="1396"  d=" M  -160.228,106.403  C  -160.228,106.403  -144.205,56.6  0,56.6  C  144.205,56.6  160.228,106.403  160.228,106.403  C  134.929,106.403  80.114,81.6  0,81.6  C  -80.114,81.6  -134.929,106.403  -160.228,106.403  z " />
<path transform="translate( 0, 0 )" style="stroke: hsl(161.4, 55%, 50%);" id="1676"  d=" M  -160.228,106.403  C  -160.228,106.403  -144.205,56.6  0,56.6  C  144.205,56.6  160.228,106.403  160.228,106.403  C  134.929,106.403  80.114,81.6  0,81.6  C  -80.114,81.6  -134.929,106.403  -160.228,106.403  z " />
<path transform="translate( 0, 0 )" style="stroke: hsl(188.3, 55%, 50%);" id="1956"  d=" M  -160.228,106.403  C  -160.228,106.403  -144.205,56.6  0,56.6  C  144.205,56.6  160.228,106.403  160.228,106.403  C  134.929,106.403  80.114,81.6  0,81.6  C  -80.114,81.6  -134.929,106.403  -160.228,106.403  z " />
<path transform="translate( 0, 0 )" style="stroke: hsl(215.2, 55%, 50%);" id="2236"  d=" M  -160.228,106.403  C  -160.228,106.403  -144.205,56.6  0,56.6  C  144.205,56.6  160.228,106.403  160.228,106.403  C  134.929,106.403  80.114,81.6  0,81.6  C  -80.114,81.6  -134.929,106.403  -160.228,106.403  z " />
<path transform="translate( 0, 0 )" style="stroke: hsl(242.1, 55%, 50%);" id="2516"  d=" M  -160.228,106.403  C  -160.228,106.403  -144.205,56.6  0,56.6  C  144.205,56.6  160.228,106.403  160.228,106.403  C  134.929,106.403  80.114,81.6  0,81.6  C  -80.114,81.6  -134.929,106.403  -160.228,106.403  z " />
<path transform="translate( 0, 0 )" style="stroke: hsl(269, 55%, 50%);" id="2796"  d=" M  -160.228,106.403  C  -160.228,106.403  -144.205,56.6  0,56.6  C  144.205,56.6  160.228,106.403  160.228,106.403  C  134.929,106.403  80.114,81.6  0,81.6  C  -80.114,81.6  -134.929,106.403  -160.228,106.403  z " />
<path transform="translate( 0, 0 )" style="stroke: hsl(295.9, 55%, 50%);" id="3076"  d=" M  -160.228,106.403  C  -160.228,106.403  -144.205,56.6  0,56.6  C  144.205,56.6  160.228,106.403  160.228,106.403  C  134.929,106.403  80.114,81.6  0,81.6  C  -80.114,81.6  -134.929,106.403  -160.228,106.403  z " />
    </g>
    <!-- End of group #collarStand -->
    
    <!-- Start of group #collar -->
    <g id="collar"  transform=" translate(5 5)  translate(1030.167 805.303) " >
        <path class="hidden" id="10"  d=" M  0,0  L  242.212,0  L  242.212,130.664  L  0,130.664  z " />
<path transform="translate( 0, 0 )" style="stroke: hsl(26.9, 55%, 50%);" id="277"  d=" M  0,56.6  C  16.223,56.6  30.824,57.23  43.787,58.334  C  60.043,61.19  73.933,64.566  86.202,68.342  C  102.654,75.021  114.956,82.023  124.384,88.975  C  146.02,112.314  146.795,127.976  146.795,127.976  L  196.106,130.664  L  242.212,62.284  C  182.48,27.382  126.496,0  0,0  z " />
<path transform="translate( 0, 0 )" style="stroke: hsl(53.8, 55%, 50%);" id="557"  d=" M  0,56.6  C  16.223,56.6  30.824,57.23  43.787,58.334  C  60.043,61.19  73.933,64.566  86.202,68.342  C  102.654,75.021  114.956,82.023  124.384,88.975  C  146.02,112.314  146.795,127.976  146.795,127.976  L  196.106,130.664  L  242.212,62.284  C  182.48,27.382  126.496,0  0,0  z " />
<path transform="translate( 0, 0 )" style="stroke: hsl(80.7, 55%, 50%);" id="837"  d=" M  0,56.6  C  16.223,56.6  30.824,57.23  43.787,58.334  C  60.043,61.19  73.933,64.566  86.202,68.342  C  102.654,75.021  114.956,82.023  124.384,88.975  C  146.02,112.314  146.795,127.976  146.795,127.976  L  196.106,130.664  L  242.212,62.284  C  182.48,27.382  126.496,0  0,0  z " />
<path transform="translate( 0, 0 )" style="stroke: hsl(107.6, 55%, 50%);" id="1117"  d=" M  0,56.6  C  16.223,56.6  30.824,57.23  43.787,58.334  C  60.043,61.19  73.933,64.566  86.202,68.342  C  102.654,75.021  114.956,82.023  124.384,88.975  C  146.02,112.314  146.795,127.976  146.795,127.976  L  196.106,130.664  L  242.212,62.284  C  182.48,27.382  126.496,0  0,0  z " />
<path transform="translate( 0, 0 )" style="stroke: hsl(134.5, 55%, 50%);" id="1397"  d=" M  0,56.6  C  16.223,56.6  30.824,57.23  43.787,58.334  C  60.043,61.19  73.933,64.566  86.202,68.342  C  102.654,75.021  114.956,82.023  124.384,88.975  C  146.02,112.314  146.795,127.976  146.795,127.976  L  196.106,130.664  L  242.212,62.284  C  182.48,27.382  126.496,0  0,0  z " />
<path transform="translate( 0, 0 )" style="stroke: hsl(161.4, 55%, 50%);" id="1677"  d=" M  0,56.6  C  16.223,56.6  30.824,57.23  43.787,58.334  C  60.043,61.19  73.933,64.566  86.202,68.342  C  102.654,75.021  114.956,82.023  124.384,88.975  C  146.02,112.314  146.795,127.976  146.795,127.976  L  196.106,130.664  L  242.212,62.284  C  182.48,27.382  126.496,0  0,0  z " />
<path transform="translate( 0, 0 )" style="stroke: hsl(188.3, 55%, 50%);" id="1957"  d=" M  0,56.6  C  16.223,56.6  30.824,57.23  43.787,58.334  C  60.043,61.19  73.933,64.566  86.202,68.342  C  102.654,75.021  114.956,82.023  124.384,88.975  C  146.02,112.314  146.795,127.976  146.795,127.976  L  196.106,130.664  L  242.212,62.284  C  182.48,27.382  126.496,0  0,0  z " />
<path transform="translate( 0, 0 )" style="stroke: hsl(215.2, 55%, 50%);" id="2237"  d=" M  0,56.6  C  16.223,56.6  30.824,57.23  43.787,58.334  C  60.043,61.19  73.933,64.566  86.202,68.342  C  102.654,75.021  114.956,82.023  124.384,88.975  C  146.02,112.314  146.795,127.976  146.795,127.976  L  196.106,130.664  L  242.212,62.284  C  182.48,27.382  126.496,0  0,0  z " />
<path transform="translate( 0, 0 )" style="stroke: hsl(242.1, 55%, 50%);" id="2517"  d=" M  0,56.6  C  16.223,56.6  30.824,57.23  43.787,58.334  C  60.043,61.19  73.933,64.566  86.202,68.342  C  102.654,75.021  114.956,82.023  124.384,88.975  C  146.02,112.314  146.795,127.976  146.795,127.976  L  196.106,130.664  L  242.212,62.284  C  182.48,27.382  126.496,0  0,0  z " />
<path transform="translate( 0, 0 )" style="stroke: hsl(269, 55%, 50%);" id="2797"  d=" M  0,56.6  C  16.223,56.6  30.824,57.23  43.787,58.334  C  60.043,61.19  73.933,64.566  86.202,68.342  C  102.654,75.021  114.956,82.023  124.384,88.975  C  146.02,112.314  146.795,127.976  146.795,127.976  L  196.106,130.664  L  242.212,62.284  C  182.48,27.382  126.496,0  0,0  z " />
<path transform="translate( 0, 0 )" style="stroke: hsl(295.9, 55%, 50%);" id="3077"  d=" M  0,56.6  C  16.223,56.6  30.824,57.23  43.787,58.334  C  60.043,61.19  73.933,64.566  86.202,68.342  C  102.654,75.021  114.956,82.023  124.384,88.975  C  146.02,112.314  146.795,127.976  146.795,127.976  L  196.106,130.664  L  242.212,62.284  C  182.48,27.382  126.496,0  0,0  z " />
    </g>
    <!-- End of group #collar -->
    
    <!-- Start of group #cuffFacing -->
    <g id="cuffFacing"  transform=" translate(95 5)  translate(1030.167 525) " >
        <path class="hidden" id="11"  d=" M  -90,0  L  260,0  L  260,130.5  L  -90,130.5  z " />
<path transform="translate( 0, 0 )" style="stroke: hsl(26.9, 55%, 50%);" id="278"  d=" M  0,0  L  0,108.75  C  -0,120.762  9.738,130.5  21.75,130.5  L  148.25,130.5  C  160.262,130.5  170,120.762  170,108.75  L  170,0  z " />
<path transform="translate( -9, 0 )" style="stroke: hsl(53.8, 55%, 50%);" id="558"  d=" M  0,0  L  0,108.75  C  -0,120.762  9.738,130.5  21.75,130.5  L  166.25,130.5  C  178.262,130.5  188,120.762  188,108.75  L  188,0  z " />
<path transform="translate( -18.001, 0 )" style="stroke: hsl(80.7, 55%, 50%);" id="838"  d=" M  0,0  L  0,108.75  C  -0,120.762  9.738,130.5  21.75,130.5  L  184.251,130.5  C  196.263,130.5  206.001,120.762  206.001,108.75  L  206.001,0  z " />
<path transform="translate( -27.001, 0 )" style="stroke: hsl(107.6, 55%, 50%);" id="1118"  d=" M  0,0  L  0,108.75  C  -0,120.762  9.738,130.5  21.75,130.5  L  202.251,130.5  C  214.263,130.5  224.001,120.762  224.001,108.75  L  224.001,0  z " />
<path transform="translate( -36, 0 )" style="stroke: hsl(134.5, 55%, 50%);" id="1398"  d=" M  0,0  L  0,108.75  C  -0,120.762  9.738,130.5  21.75,130.5  L  220.25,130.5  C  232.262,130.5  242,120.762  242,108.75  L  242,0  z " />
<path transform="translate( -45, 0 )" style="stroke: hsl(161.4, 55%, 50%);" id="1678"  d=" M  0,0  L  0,108.75  C  -0,120.762  9.738,130.5  21.75,130.5  L  238.25,130.5  C  250.262,130.5  260,120.762  260,108.75  L  260,0  z " />
<path transform="translate( -54, 0 )" style="stroke: hsl(188.3, 55%, 50%);" id="1958"  d=" M  0,0  L  0,108.75  C  -0,120.762  9.738,130.5  21.75,130.5  L  256.25,130.5  C  268.262,130.5  278,120.762  278,108.75  L  278,0  z " />
<path transform="translate( -63.001, 0 )" style="stroke: hsl(215.2, 55%, 50%);" id="2238"  d=" M  0,0  L  0,108.75  C  -0,120.762  9.738,130.5  21.75,130.5  L  274.251,130.5  C  286.263,130.5  296.001,120.762  296.001,108.75  L  296.001,0  z " />
<path transform="translate( -72, 0 )" style="stroke: hsl(242.1, 55%, 50%);" id="2518"  d=" M  0,0  L  0,108.75  C  -0,120.762  9.738,130.5  21.75,130.5  L  292.25,130.5  C  304.262,130.5  314,120.762  314,108.75  L  314,0  z " />
<path transform="translate( -81, 0 )" style="stroke: hsl(269, 55%, 50%);" id="2798"  d=" M  0,0  L  0,108.75  C  -0,120.762  9.738,130.5  21.75,130.5  L  310.249,130.5  C  322.261,130.5  331.999,120.762  331.999,108.75  L  331.999,0  z " />
<path transform="translate( -90, 0 )" style="stroke: hsl(295.9, 55%, 50%);" id="3078"  d=" M  0,0  L  0,108.75  C  -0,120.762  9.738,130.5  21.75,130.5  L  328.25,130.5  C  340.262,130.5  350,120.762  350,108.75  L  350,0  z " />
    </g>
    <!-- End of group #cuffFacing -->
    
    <!-- Start of group #pocket -->
    <g id="pocket"  transform=" translate(-66.113 -522.5)  translate(1030.167 945.967) " >
        <path class="hidden" id="12"  d=" M  71.113,527.5  L  231.338,527.5  L  231.338,710.25  L  71.113,710.25  z " />
<path transform="translate( 0, 0 )" style="stroke: hsl(26.9, 55%, 50%);" id="279"  d=" M  71.113,527.5  L  71.113,660.25  C  71.113,687.864  93.499,710.25  121.113,710.25  L  181.338,710.25  C  208.952,710.25  231.338,687.864  231.338,660.25  L  231.338,527.5  L  71.113,527.5  z " />
<path transform="translate( 0, 0 )" style="stroke: hsl(53.8, 55%, 50%);" id="559"  d=" M  71.113,527.5  L  71.113,660.25  C  71.113,687.864  93.499,710.25  121.113,710.25  L  181.338,710.25  C  208.952,710.25  231.338,687.864  231.338,660.25  L  231.338,527.5  L  71.113,527.5  z " />
<path transform="translate( 0, 0 )" style="stroke: hsl(80.7, 55%, 50%);" id="839"  d=" M  71.113,527.5  L  71.113,660.25  C  71.113,687.864  93.499,710.25  121.113,710.25  L  181.338,710.25  C  208.952,710.25  231.338,687.864  231.338,660.25  L  231.338,527.5  L  71.113,527.5  z " />
<path transform="translate( 0, 0 )" style="stroke: hsl(107.6, 55%, 50%);" id="1119"  d=" M  71.113,527.5  L  71.113,660.25  C  71.113,687.864  93.499,710.25  121.113,710.25  L  181.338,710.25  C  208.952,710.25  231.338,687.864  231.338,660.25  L  231.338,527.5  L  71.113,527.5  z " />
<path transform="translate( 0, 0 )" style="stroke: hsl(134.5, 55%, 50%);" id="1399"  d=" M  71.113,527.5  L  71.113,660.25  C  71.113,687.864  93.499,710.25  121.113,710.25  L  181.338,710.25  C  208.952,710.25  231.338,687.864  231.338,660.25  L  231.338,527.5  L  71.113,527.5  z " />
<path transform="translate( 0, 0 )" style="stroke: hsl(161.4, 55%, 50%);" id="1679"  d=" M  71.113,527.5  L  71.113,660.25  C  71.113,687.864  93.499,710.25  121.113,710.25  L  181.338,710.25  C  208.952,710.25  231.338,687.864  231.338,660.25  L  231.338,527.5  L  71.113,527.5  z " />
<path transform="translate( 0, 0 )" style="stroke: hsl(188.3, 55%, 50%);" id="1959"  d=" M  71.113,527.5  L  71.113,660.25  C  71.113,687.864  93.499,710.25  121.113,710.25  L  181.338,710.25  C  208.952,710.25  231.338,687.864  231.338,660.25  L  231.338,527.5  L  71.113,527.5  z " />
<path transform="translate( 0, 0 )" style="stroke: hsl(215.2, 55%, 50%);" id="2239"  d=" M  71.113,527.5  L  71.113,660.25  C  71.113,687.864  93.499,710.25  121.113,710.25  L  181.338,710.25  C  208.952,710.25  231.338,687.864  231.338,660.25  L  231.338,527.5  L  71.113,527.5  z " />
<path transform="translate( 0, 0 )" style="stroke: hsl(242.1, 55%, 50%);" id="2519"  d=" M  71.113,527.5  L  71.113,660.25  C  71.113,687.864  93.499,710.25  121.113,710.25  L  181.338,710.25  C  208.952,710.25  231.338,687.864  231.338,660.25  L  231.338,527.5  L  71.113,527.5  z " />
<path transform="translate( 0, 0 )" style="stroke: hsl(269, 55%, 50%);" id="2799"  d=" M  71.113,527.5  L  71.113,660.25  C  71.113,687.864  93.499,710.25  121.113,710.25  L  181.338,710.25  C  208.952,710.25  231.338,687.864  231.338,660.25  L  231.338,527.5  L  71.113,527.5  z " />
<path transform="translate( 0, 0 )" style="stroke: hsl(295.9, 55%, 50%);" id="3079"  d=" M  71.113,527.5  L  71.113,660.25  C  71.113,687.864  93.499,710.25  121.113,710.25  L  181.338,710.25  C  208.952,710.25  231.338,687.864  231.338,660.25  L  231.338,527.5  L  71.113,527.5  z " />
    </g>
    <!-- End of group #pocket -->
    
    <!-- Start of group #pocketFlap -->
    <g id="pocketFlap"  transform=" translate(-65.059 -510.045)  translate(1200.392 945.967) " >
        <path class="hidden" id="13"  d=" M  70.059,515.045  L  232.392,515.045  L  232.392,581.13  L  70.059,581.13  z " />
<path transform="translate( 0, 0 )" style="stroke: hsl(26.9, 55%, 50%);" id="280"  d=" M  70.059,515.045  L  73.113,551.13  C  74.51,567.64  86.544,581.13  103.113,581.13  L  199.338,581.13  C  215.907,581.13  227.941,567.64  229.338,551.13  L  232.392,515.045  z " />
<path transform="translate( 0, 0 )" style="stroke: hsl(53.8, 55%, 50%);" id="560"  d=" M  70.059,515.045  L  73.113,551.13  C  74.51,567.64  86.544,581.13  103.113,581.13  L  199.338,581.13  C  215.907,581.13  227.941,567.64  229.338,551.13  L  232.392,515.045  z " />
<path transform="translate( 0, 0 )" style="stroke: hsl(80.7, 55%, 50%);" id="840"  d=" M  70.059,515.045  L  73.113,551.13  C  74.51,567.64  86.544,581.13  103.113,581.13  L  199.338,581.13  C  215.907,581.13  227.941,567.64  229.338,551.13  L  232.392,515.045  z " />
<path transform="translate( 0, 0 )" style="stroke: hsl(107.6, 55%, 50%);" id="1120"  d=" M  70.059,515.045  L  73.113,551.13  C  74.51,567.64  86.544,581.13  103.113,581.13  L  199.338,581.13  C  215.907,581.13  227.941,567.64  229.338,551.13  L  232.392,515.045  z " />
<path transform="translate( 0, 0 )" style="stroke: hsl(134.5, 55%, 50%);" id="1400"  d=" M  70.059,515.045  L  73.113,551.13  C  74.51,567.64  86.544,581.13  103.113,581.13  L  199.338,581.13  C  215.907,581.13  227.941,567.64  229.338,551.13  L  232.392,515.045  z " />
<path transform="translate( 0, 0 )" style="stroke: hsl(161.4, 55%, 50%);" id="1680"  d=" M  70.059,515.045  L  73.113,551.13  C  74.51,567.64  86.544,581.13  103.113,581.13  L  199.338,581.13  C  215.907,581.13  227.941,567.64  229.338,551.13  L  232.392,515.045  z " />
<path transform="translate( 0, 0 )" style="stroke: hsl(188.3, 55%, 50%);" id="1960"  d=" M  70.059,515.045  L  73.113,551.13  C  74.51,567.64  86.544,581.13  103.113,581.13  L  199.338,581.13  C  215.907,581.13  227.941,567.64  229.338,551.13  L  232.392,515.045  z " />
<path transform="translate( 0, 0 )" style="stroke: hsl(215.2, 55%, 50%);" id="2240"  d=" M  70.059,515.045  L  73.113,551.13  C  74.51,567.64  86.544,581.13  103.113,581.13  L  199.338,581.13  C  215.907,581.13  227.941,567.64  229.338,551.13  L  232.392,515.045  z " />
<path transform="translate( 0, 0 )" style="stroke: hsl(242.1, 55%, 50%);" id="2520"  d=" M  70.059,515.045  L  73.113,551.13  C  74.51,567.64  86.544,581.13  103.113,581.13  L  199.338,581.13  C  215.907,581.13  227.941,567.64  229.338,551.13  L  232.392,515.045  z " />
<path transform="translate( 0, 0 )" style="stroke: hsl(269, 55%, 50%);" id="2800"  d=" M  70.059,515.045  L  73.113,551.13  C  74.51,567.64  86.544,581.13  103.113,581.13  L  199.338,581.13  C  215.907,581.13  227.941,567.64  229.338,551.13  L  232.392,515.045  z " />
<path transform="translate( 0, 0 )" style="stroke: hsl(295.9, 55%, 50%);" id="3080"  d=" M  70.059,515.045  L  73.113,551.13  C  74.51,567.64  86.544,581.13  103.113,581.13  L  199.338,581.13  C  215.907,581.13  227.941,567.64  229.338,551.13  L  232.392,515.045  z " />
    </g>
    <!-- End of group #pocketFlap -->
    
    <!-- Start of group #chestPocketWelt -->
    <g id="chestPocketWelt"  transform=" translate(5 5)  translate(1353.467 140) " >
        <path class="hidden" id="14"  d=" M  0,0  L  33.15,0  L  33.15,147.56  L  0,147.56  z " />
<path transform="translate( 0, 0 )" style="stroke: hsl(26.9, 55%, 50%);" id="281"  d=" M  0,0  L  33.15,0  L  33.15,147.56  L  0,147.56  L  0,0  z " />
<path transform="translate( 0, 0 )" style="stroke: hsl(53.8, 55%, 50%);" id="561"  d=" M  0,0  L  33.15,0  L  33.15,147.56  L  0,147.56  L  0,0  z " />
<path transform="translate( 0, 0 )" style="stroke: hsl(80.7, 55%, 50%);" id="841"  d=" M  0,0  L  33.15,0  L  33.15,147.56  L  0,147.56  L  0,0  z " />
<path transform="translate( 0, 0 )" style="stroke: hsl(107.6, 55%, 50%);" id="1121"  d=" M  0,0  L  33.15,0  L  33.15,147.56  L  0,147.56  L  0,0  z " />
<path transform="translate( 0, 0 )" style="stroke: hsl(134.5, 55%, 50%);" id="1401"  d=" M  0,0  L  33.15,0  L  33.15,147.56  L  0,147.56  L  0,0  z " />
<path transform="translate( 0, 0 )" style="stroke: hsl(161.4, 55%, 50%);" id="1681"  d=" M  0,0  L  33.15,0  L  33.15,147.56  L  0,147.56  L  0,0  z " />
<path transform="translate( 0, 0 )" style="stroke: hsl(188.3, 55%, 50%);" id="1961"  d=" M  0,0  L  33.15,0  L  33.15,147.56  L  0,147.56  L  0,0  z " />
<path transform="translate( 0, 0 )" style="stroke: hsl(215.2, 55%, 50%);" id="2241"  d=" M  0,0  L  33.15,0  L  33.15,147.56  L  0,147.56  L  0,0  z " />
<path transform="translate( 0, 0 )" style="stroke: hsl(242.1, 55%, 50%);" id="2521"  d=" M  0,0  L  33.15,0  L  33.15,147.56  L  0,147.56  L  0,0  z " />
<path transform="translate( 0, 0 )" style="stroke: hsl(269, 55%, 50%);" id="2801"  d=" M  0,0  L  33.15,0  L  33.15,147.56  L  0,147.56  L  0,0  z " />
<path transform="translate( 0, 0 )" style="stroke: hsl(295.9, 55%, 50%);" id="3081"  d=" M  0,0  L  33.15,0  L  33.15,147.56  L  0,147.56  L  0,0  z " />
    </g>
    <!-- End of group #chestPocketWelt -->
    
    <!-- Start of group #sampler-frontPanel -->
    <g id="sampler-frontPanel" >
    </g>
    <!-- End of group #sampler-frontPanel -->
    
    <!-- Start of group #sampler-sidePanel -->
    <g id="sampler-sidePanel" >
    </g>
    <!-- End of group #sampler-sidePanel -->
    
    <!-- Start of group #sampler-back -->
    <g id="sampler-back" >
    </g>
    <!-- End of group #sampler-back -->
    
    <!-- Start of group #sampler-tail -->
    <g id="sampler-tail" >
    </g>
    <!-- End of group #sampler-tail -->
    
    <!-- Start of group #sampler-topsleeve -->
    <g id="sampler-topsleeve" >
    </g>
    <!-- End of group #sampler-topsleeve -->
    
    <!-- Start of group #sampler-undersleeve -->
    <g id="sampler-undersleeve" >
    </g>
    <!-- End of group #sampler-undersleeve -->
    
    <!-- Start of group #sampler-belt -->
    <g id="sampler-belt" >
    </g>
    <!-- End of group #sampler-belt -->
    
    <!-- Start of group #sampler-collarStand -->
    <g id="sampler-collarStand" >
    </g>
    <!-- End of group #sampler-collarStand -->
    
    <!-- Start of group #sampler-collar -->
    <g id="sampler-collar" >
    </g>
    <!-- End of group #sampler-collar -->
    
    <!-- Start of group #sampler-cuffFacing -->
    <g id="sampler-cuffFacing" >
    </g>
    <!-- End of group #sampler-cuffFacing -->
    
    <!-- Start of group #sampler-pocket -->
    <g id="sampler-pocket" >
    </g>
    <!-- End of group #sampler-pocket -->
    
    <!-- Start of group #sampler-pocketFlap -->
    <g id="sampler-pocketFlap" >
    </g>
    <!-- End of group #sampler-pocketFlap -->
    
    <!-- Start of group #sampler-chestPocketWelt -->
    <g id="sampler-chestPocketWelt" >
    </g>
    <!-- End of group #sampler-chestPocketWelt -->
</g>
<!-- End of group #patternContainer -->

</svg>

