<?xml version="1.0" encoding="UTF-8" standalone="no"?>
<svg
    xmlns="http://www.w3.org/2000/svg"
    xmlns:svg="http://www.w3.org/2000/svg"
    xmlns:xlink="http://www.w3.org/1999/xlink"
    xmlns:freesewing="http://freesewing.org/namespaces/freesewing" viewBox ="0 0 1428 1186"
    width ="1428mm"
    height ="1186mm"
    freesewing:version ="1.5.0"
    freesewing:origin ="joost.core.freesewing.org" 
>

<style type="text/css">
    <![CDATA[
    path { fill: none; stroke: #000000; stroke-opacity:1; stroke-width: 0.5; stroke-miterlimit:4; stroke-dashoffset:0; stroke-linecap:round; stroke-linejoin:round; }
    path.hidden { fill: none; stroke: none; }]]>
</style>


<!-- Start of group #patternContainer -->
<g id="patternContainer" >
    
    <!-- Start of group #backBlock -->
    <g id="backBlock" >
    </g>
    <!-- End of group #backBlock -->
    
    <!-- Start of group #frontBlock -->
    <g id="frontBlock" >
    </g>
    <!-- End of group #frontBlock -->
    
    <!-- Start of group #sleeveBlock -->
    <g id="sleeveBlock" >
    </g>
    <!-- End of group #sleeveBlock -->
    
    <!-- Start of group #topsleeveBlock -->
    <g id="topsleeveBlock" >
    </g>
    <!-- End of group #topsleeveBlock -->
    
    <!-- Start of group #undersleeveBlock -->
    <g id="undersleeveBlock" >
    </g>
    <!-- End of group #undersleeveBlock -->
    
    <!-- Start of group #front -->
    <g id="front" >
    </g>
    <!-- End of group #front -->
    
    <!-- Start of group #frontPs -->
    <g id="frontPs" >
    </g>
    <!-- End of group #frontPs -->
    
    <!-- Start of group #frontPanel -->
    <g id="frontPanel"  transform=" translate(76.113 5)  translate(0 0) " >
        <path class="hidden" id="2"  d=" M  -71.113,0  L  217.5,0  L  217.5,1175.9  L  -71.113,1175.9  z " />
<path transform="translate( 0, 0 )" style="stroke: hsl(26.9, 55%, 50%);" id="268"  d=" M  -67.103,87  C  -67.103,87  -71.113,127.1  -71.113,287.5  L  -71.113,1175.9  L  96.087,1175.9  L  96.087,285  C  96.087,230.593  163.922,185.816  212.5,153.75  C  212.5,109.167  216.116,29.904  217.5,20  L  74.38,0  C  71.612,19.808  74.38,87  0,87  L  -67.103,87  z " />
<path transform="translate( 0, 0 )" style="stroke: hsl(53.8, 55%, 50%);" id="548"  d=" M  -67.103,87  C  -67.103,87  -71.113,127.1  -71.113,287.5  L  -71.113,1175.9  L  96.087,1175.9  L  96.087,285  C  96.087,230.593  163.922,185.816  212.5,153.75  C  212.5,109.167  216.116,29.904  217.5,20  L  74.38,0  C  71.612,19.808  74.38,87  0,87  L  -67.103,87  z " />
<path transform="translate( 0, 0 )" style="stroke: hsl(80.7, 55%, 50%);" id="828"  d=" M  -67.103,87  C  -67.103,87  -71.113,127.1  -71.113,287.5  L  -71.113,1175.9  L  96.087,1175.9  L  96.087,285  C  96.087,230.593  163.922,185.816  212.5,153.75  C  212.5,109.167  216.116,29.904  217.5,20  L  74.38,0  C  71.612,19.808  74.38,87  0,87  L  -67.103,87  z " />
<path transform="translate( 0, 0 )" style="stroke: hsl(107.6, 55%, 50%);" id="1108"  d=" M  -67.103,87  C  -67.103,87  -71.113,127.1  -71.113,287.5  L  -71.113,1175.9  L  96.087,1175.9  L  96.087,285  C  96.087,230.593  163.922,185.816  212.5,153.75  C  212.5,109.167  216.116,29.904  217.5,20  L  74.38,0  C  71.612,19.808  74.38,87  0,87  L  -67.103,87  z " />
<path transform="translate( 0, 0 )" style="stroke: hsl(134.5, 55%, 50%);" id="1388"  d=" M  -67.103,87  C  -67.103,87  -71.113,127.1  -71.113,287.5  L  -71.113,1175.9  L  96.087,1175.9  L  96.087,285  C  96.087,230.593  163.922,185.816  212.5,153.75  C  212.5,109.167  216.116,29.904  217.5,20  L  74.38,0  C  71.612,19.808  74.38,87  0,87  L  -67.103,87  z " />
<path transform="translate( 0, 0 )" style="stroke: hsl(161.4, 55%, 50%);" id="1668"  d=" M  -67.103,87  C  -67.103,87  -71.113,127.1  -71.113,287.5  L  -71.113,1175.9  L  96.087,1175.9  L  96.087,285  C  96.087,230.593  163.922,185.816  212.5,153.75  C  212.5,109.167  216.116,29.904  217.5,20  L  74.38,0  C  71.612,19.808  74.38,87  0,87  L  -67.103,87  z " />
<path transform="translate( 0, 0 )" style="stroke: hsl(188.3, 55%, 50%);" id="1948"  d=" M  -67.103,87  C  -67.103,87  -71.113,127.1  -71.113,287.5  L  -71.113,1175.9  L  96.087,1175.9  L  96.087,285  C  96.087,230.593  163.922,185.816  212.5,153.75  C  212.5,109.167  216.116,29.904  217.5,20  L  74.38,0  C  71.612,19.808  74.38,87  0,87  L  -67.103,87  z " />
<path transform="translate( 0, 0 )" style="stroke: hsl(215.2, 55%, 50%);" id="2228"  d=" M  -67.103,87  C  -67.103,87  -71.113,127.1  -71.113,287.5  L  -71.113,1175.9  L  96.087,1175.9  L  96.087,285  C  96.087,230.593  163.922,185.816  212.5,153.75  C  212.5,109.167  216.116,29.904  217.5,20  L  74.38,0  C  71.612,19.808  74.38,87  0,87  L  -67.103,87  z " />
<path transform="translate( 0, 0 )" style="stroke: hsl(242.1, 55%, 50%);" id="2508"  d=" M  -67.103,87  C  -67.103,87  -71.113,127.1  -71.113,287.5  L  -71.113,1175.9  L  96.087,1175.9  L  96.087,285  C  96.087,230.593  163.922,185.816  212.5,153.75  C  212.5,109.167  216.116,29.904  217.5,20  L  74.38,0  C  71.612,19.808  74.38,87  0,87  L  -67.103,87  z " />
<path transform="translate( 0, 0 )" style="stroke: hsl(269, 55%, 50%);" id="2788"  d=" M  -67.103,87  C  -67.103,87  -71.113,127.1  -71.113,287.5  L  -71.113,1175.9  L  96.087,1175.9  L  96.087,285  C  96.087,230.593  163.922,185.816  212.5,153.75  C  212.5,109.167  216.116,29.904  217.5,20  L  74.38,0  C  71.612,19.808  74.38,87  0,87  L  -67.103,87  z " />
<path transform="translate( 0, 0 )" style="stroke: hsl(295.9, 55%, 50%);" id="3068"  d=" M  -67.103,87  C  -67.103,87  -71.113,127.1  -71.113,287.5  L  -71.113,1175.9  L  96.087,1175.9  L  96.087,285  C  96.087,230.593  163.922,185.816  212.5,153.75  C  212.5,109.167  216.116,29.904  217.5,20  L  74.38,0  C  71.612,19.808  74.38,87  0,87  L  -67.103,87  z " />
    </g>
    <!-- End of group #frontPanel -->
    
    <!-- Start of group #sidePanel -->
    <g id="sidePanel"  transform=" translate(-95.048 -171.055)  translate(298.613 0) " >
        <path class="hidden" id="3"  d=" M  100.048,176.055  L  352.094,176.055  L  352.094,1165.343  L  100.048,1165.343  z " />
<path transform="translate( 0, 0 )" style="stroke: hsl(26.9, 55%, 50%);" id="269"  d=" M  307.113,308.942  C  293.365,309.136  285.3,303.543  271.328,289.96  C  257.354,276.378  245.856,220.635  245.224,176.055  C  190.691,196.408  114.542,224.83  102.338,277.85  C  90.134,330.87  130.683,330.87  130.683,511.687  L  130.683,1165.34  L  317.095,1165.34  L  317.096,793.941  C  317.095,678.942  288.97,495.191  288.971,433.941  C  288.969,372.691  307.095,319.097  307.113,308.942  z " />
<path transform="translate( 0, 0 )" style="stroke: hsl(53.8, 55%, 50%);" id="549"  d=" M  307.113,308.942  C  293.365,309.136  285.3,303.543  271.328,289.96  C  257.354,276.378  245.856,220.635  245.224,176.055  C  190.691,196.408  114.542,224.83  102.338,277.85  C  90.134,330.87  130.683,330.87  130.683,511.687  L  130.683,1165.34  L  320.595,1165.341  L  320.595,793.941  C  320.594,678.941  288.97,495.191  288.971,433.941  C  288.969,372.691  307.095,319.097  307.113,308.942  z " />
<path transform="translate( 0, 0 )" style="stroke: hsl(80.7, 55%, 50%);" id="829"  d=" M  307.113,308.942  C  293.365,309.136  285.3,303.543  271.328,289.96  C  257.354,276.378  245.856,220.635  245.224,176.055  C  190.691,196.408  114.542,224.83  102.338,277.85  C  90.134,330.87  130.683,330.87  130.683,511.687  L  130.683,1165.34  L  324.095,1165.341  L  324.095,793.943  C  324.095,678.941  288.97,495.191  288.971,433.941  C  288.969,372.691  307.095,319.097  307.113,308.942  z " />
<path transform="translate( 0, 0 )" style="stroke: hsl(107.6, 55%, 50%);" id="1109"  d=" M  307.113,308.942  C  293.365,309.136  285.3,303.543  271.328,289.96  C  257.354,276.378  245.856,220.635  245.224,176.055  C  190.691,196.408  114.542,224.83  102.338,277.85  C  90.134,330.87  130.683,330.87  130.683,511.687  L  130.683,1165.34  L  327.595,1165.342  L  327.595,793.941  C  327.596,678.942  288.97,495.191  288.971,433.941  C  288.969,372.691  307.095,319.097  307.113,308.942  z " />
<path transform="translate( 0, 0 )" style="stroke: hsl(134.5, 55%, 50%);" id="1389"  d=" M  307.113,308.942  C  293.365,309.136  285.3,303.543  271.328,289.96  C  257.354,276.378  245.856,220.635  245.224,176.055  C  190.691,196.408  114.542,224.83  102.338,277.85  C  90.134,330.87  130.683,330.87  130.683,511.687  L  130.683,1165.34  L  331.095,1165.341  L  331.095,793.943  C  331.095,678.941  288.97,495.191  288.971,433.941  C  288.969,372.691  307.095,319.097  307.113,308.942  z " />
<path transform="translate( 0, 0 )" style="stroke: hsl(161.4, 55%, 50%);" id="1669"  d=" M  307.113,308.942  C  293.365,309.136  285.3,303.543  271.328,289.96  C  257.354,276.378  245.856,220.635  245.224,176.055  C  190.691,196.408  114.542,224.83  102.338,277.85  C  90.134,330.87  130.683,330.87  130.683,511.687  L  130.683,1165.34  L  334.595,1165.342  L  334.596,793.942  C  334.596,678.941  288.97,495.191  288.971,433.941  C  288.969,372.691  307.095,319.097  307.113,308.942  z " />
<path transform="translate( 0, 0 )" style="stroke: hsl(188.3, 55%, 50%);" id="1949"  d=" M  307.113,308.942  C  293.365,309.136  285.3,303.543  271.328,289.96  C  257.354,276.378  245.856,220.635  245.224,176.055  C  190.691,196.408  114.542,224.83  102.338,277.85  C  90.134,330.87  130.683,330.87  130.683,511.687  L  130.683,1165.34  L  338.094,1165.343  L  338.096,793.941  C  338.096,678.941  288.97,495.191  288.971,433.941  C  288.969,372.691  307.095,319.097  307.113,308.942  z " />
<path transform="translate( 0, 0 )" style="stroke: hsl(215.2, 55%, 50%);" id="2229"  d=" M  307.113,308.942  C  293.365,309.136  285.3,303.543  271.328,289.96  C  257.354,276.378  245.856,220.635  245.224,176.055  C  190.691,196.408  114.542,224.83  102.338,277.85  C  90.134,330.87  130.683,330.87  130.683,511.687  L  130.683,1165.34  L  341.595,1165.342  L  341.596,793.941  C  341.596,678.941  288.97,495.191  288.971,433.941  C  288.969,372.691  307.095,319.097  307.113,308.942  z " />
<path transform="translate( 0, 0 )" style="stroke: hsl(242.1, 55%, 50%);" id="2509"  d=" M  307.113,308.942  C  293.365,309.136  285.3,303.543  271.328,289.96  C  257.354,276.378  245.856,220.635  245.224,176.055  C  190.691,196.408  114.542,224.83  102.338,277.85  C  90.134,330.87  130.683,330.87  130.683,511.687  L  130.683,1165.34  L  345.095,1165.341  L  345.095,793.942  C  345.095,678.941  288.97,495.191  288.971,433.941  C  288.969,372.691  307.095,319.097  307.113,308.942  z " />
<path transform="translate( 0, 0 )" style="stroke: hsl(269, 55%, 50%);" id="2789"  d=" M  307.113,308.942  C  293.365,309.136  285.3,303.543  271.328,289.96  C  257.354,276.378  245.856,220.635  245.224,176.055  C  190.691,196.408  114.542,224.83  102.338,277.85  C  90.134,330.87  130.683,330.87  130.683,511.687  L  130.683,1165.34  L  348.596,1165.341  L  348.594,793.941  C  348.596,678.941  288.97,495.191  288.971,433.941  C  288.969,372.691  307.095,319.097  307.113,308.942  z " />
<path transform="translate( 0, 0 )" style="stroke: hsl(295.9, 55%, 50%);" id="3069"  d=" M  307.113,308.942  C  293.365,309.136  285.3,303.543  271.328,289.96  C  257.354,276.378  245.856,220.635  245.224,176.055  C  190.691,196.408  114.542,224.83  102.338,277.85  C  90.134,330.87  130.683,330.87  130.683,511.687  L  130.683,1165.34  L  352.094,1165.343  L  352.094,793.94  C  352.094,678.941  288.97,495.191  288.971,433.941  C  288.969,372.691  307.095,319.097  307.113,308.942  z " />
    </g>
    <!-- End of group #sidePanel -->
    
    <!-- Start of group #back -->
    <g id="back"  transform=" translate(45.8 5)  translate(1040.65 140) " >
        <path class="hidden" id="4"  d=" M  -40.8,0  L  272.5,0  L  272.5,375  L  -40.8,375  z " />
<path transform="translate( 0, 0 )" style="stroke: hsl(26.9, 55%, 50%);" id="270"  d=" M  0,20  L  0,153.75  L  -40.8,153.75  L  -40.8,375  L  83.625,375  C  83.625,331.25  101.75,287.5  101.75,287.5  C  101.75,287.5  119.875,331.25  119.875,375  L  254.375,375  C  254.375,348.75  272.5,295.156  272.5,287.5  C  258.75,287.5  250.766,281.792  236.987,268.013  C  223.208,254.234  217.5,198.333  217.5,153.75  C  217.5,109.167  216.116,29.904  217.5,20  L  74.38,0  C  71.612,19.808  0,20  0,20  z " />
<path transform="translate( 0, 0 )" style="stroke: hsl(53.8, 55%, 50%);" id="550"  d=" M  0,20  L  0,153.75  L  -40.8,153.75  L  -40.8,375  L  83.625,375  C  83.625,331.25  101.75,287.5  101.75,287.5  C  101.75,287.5  119.875,331.25  119.875,375  L  254.375,375  C  254.375,348.75  272.5,295.156  272.5,287.5  C  258.75,287.5  250.766,281.792  236.987,268.013  C  223.208,254.234  217.5,198.333  217.5,153.75  C  217.5,109.167  216.116,29.904  217.5,20  L  74.38,0  C  71.612,19.808  0,20  0,20  z " />
<path transform="translate( 0, 0 )" style="stroke: hsl(80.7, 55%, 50%);" id="830"  d=" M  0,20  L  0,153.75  L  -40.8,153.75  L  -40.8,375  L  83.625,375  C  83.625,331.25  101.75,287.5  101.75,287.5  C  101.75,287.5  119.875,331.25  119.875,375  L  254.375,375  C  254.375,348.75  272.5,295.156  272.5,287.5  C  258.75,287.5  250.766,281.792  236.987,268.013  C  223.208,254.234  217.5,198.333  217.5,153.75  C  217.5,109.167  216.116,29.904  217.5,20  L  74.38,0  C  71.612,19.808  0,20  0,20  z " />
<path transform="translate( 0, 0 )" style="stroke: hsl(107.6, 55%, 50%);" id="1110"  d=" M  0,20  L  0,153.75  L  -40.8,153.75  L  -40.8,375  L  83.625,375  C  83.625,331.25  101.75,287.5  101.75,287.5  C  101.75,287.5  119.875,331.25  119.875,375  L  254.375,375  C  254.375,348.75  272.5,295.156  272.5,287.5  C  258.75,287.5  250.766,281.792  236.987,268.013  C  223.208,254.234  217.5,198.333  217.5,153.75  C  217.5,109.167  216.116,29.904  217.5,20  L  74.38,0  C  71.612,19.808  0,20  0,20  z " />
<path transform="translate( 0, 0 )" style="stroke: hsl(134.5, 55%, 50%);" id="1390"  d=" M  0,20  L  0,153.75  L  -40.8,153.75  L  -40.8,375  L  83.625,375  C  83.625,331.25  101.75,287.5  101.75,287.5  C  101.75,287.5  119.875,331.25  119.875,375  L  254.375,375  C  254.375,348.75  272.5,295.156  272.5,287.5  C  258.75,287.5  250.766,281.792  236.987,268.013  C  223.208,254.234  217.5,198.333  217.5,153.75  C  217.5,109.167  216.116,29.904  217.5,20  L  74.38,0  C  71.612,19.808  0,20  0,20  z " />
<path transform="translate( 0, 0 )" style="stroke: hsl(161.4, 55%, 50%);" id="1670"  d=" M  0,20  L  0,153.75  L  -40.8,153.75  L  -40.8,375  L  83.625,375  C  83.625,331.25  101.75,287.5  101.75,287.5  C  101.75,287.5  119.875,331.25  119.875,375  L  254.375,375  C  254.375,348.75  272.5,295.156  272.5,287.5  C  258.75,287.5  250.766,281.792  236.987,268.013  C  223.208,254.234  217.5,198.333  217.5,153.75  C  217.5,109.167  216.116,29.904  217.5,20  L  74.38,0  C  71.612,19.808  0,20  0,20  z " />
<path transform="translate( 0, 0 )" style="stroke: hsl(188.3, 55%, 50%);" id="1950"  d=" M  0,20  L  0,153.75  L  -40.8,153.75  L  -40.8,375  L  83.625,375  C  83.625,331.25  101.75,287.5  101.75,287.5  C  101.75,287.5  119.875,331.25  119.875,375  L  254.375,375  C  254.375,348.75  272.5,295.156  272.5,287.5  C  258.75,287.5  250.766,281.792  236.987,268.013  C  223.208,254.234  217.5,198.333  217.5,153.75  C  217.5,109.167  216.116,29.904  217.5,20  L  74.38,0  C  71.612,19.808  0,20  0,20  z " />
<path transform="translate( 0, 0 )" style="stroke: hsl(215.2, 55%, 50%);" id="2230"  d=" M  0,20  L  0,153.75  L  -40.8,153.75  L  -40.8,375  L  83.625,375  C  83.625,331.25  101.75,287.5  101.75,287.5  C  101.75,287.5  119.875,331.25  119.875,375  L  254.375,375  C  254.375,348.75  272.5,295.156  272.5,287.5  C  258.75,287.5  250.766,281.792  236.987,268.013  C  223.208,254.234  217.5,198.333  217.5,153.75  C  217.5,109.167  216.116,29.904  217.5,20  L  74.38,0  C  71.612,19.808  0,20  0,20  z " />
<path transform="translate( 0, 0 )" style="stroke: hsl(242.1, 55%, 50%);" id="2510"  d=" M  0,20  L  0,153.75  L  -40.8,153.75  L  -40.8,375  L  83.625,375  C  83.625,331.25  101.75,287.5  101.75,287.5  C  101.75,287.5  119.875,331.25  119.875,375  L  254.375,375  C  254.375,348.75  272.5,295.156  272.5,287.5  C  258.75,287.5  250.766,281.792  236.987,268.013  C  223.208,254.234  217.5,198.333  217.5,153.75  C  217.5,109.167  216.116,29.904  217.5,20  L  74.38,0  C  71.612,19.808  0,20  0,20  z " />
<path transform="translate( 0, 0 )" style="stroke: hsl(269, 55%, 50%);" id="2790"  d=" M  0,20  L  0,153.75  L  -40.8,153.75  L  -40.8,375  L  83.625,375  C  83.625,331.25  101.75,287.5  101.75,287.5  C  101.75,287.5  119.875,331.25  119.875,375  L  254.375,375  C  254.375,348.75  272.5,295.156  272.5,287.5  C  258.75,287.5  250.766,281.792  236.987,268.013  C  223.208,254.234  217.5,198.333  217.5,153.75  C  217.5,109.167  216.116,29.904  217.5,20  L  74.38,0  C  71.612,19.808  0,20  0,20  z " />
<path transform="translate( 0, 0 )" style="stroke: hsl(295.9, 55%, 50%);" id="3070"  d=" M  0,20  L  0,153.75  L  -40.8,153.75  L  -40.8,375  L  83.625,375  C  83.625,331.25  101.75,287.5  101.75,287.5  C  101.75,287.5  119.875,331.25  119.875,375  L  254.375,375  C  254.375,348.75  272.5,295.156  272.5,287.5  C  258.75,287.5  250.766,281.792  236.987,268.013  C  223.208,254.234  217.5,198.333  217.5,153.75  C  217.5,109.167  216.116,29.904  217.5,20  L  74.38,0  C  71.612,19.808  0,20  0,20  z " />
    </g>
    <!-- End of group #back -->
    
    <!-- Start of group #tail -->
    <g id="tail"  transform=" translate(164.04 5)  translate(1040.65 0) " >
        <path class="hidden" id="5"  d=" M  -159.04,0  L  218.125,0  L  218.125,130  L  -159.04,130  z " />
<path transform="translate( 0, 0 )" style="stroke: hsl(26.9, 55%, 50%);" id="271"  d=" M  -159.04,50  -159.04,0  L  0,0  L  218.125,0  L  218.125,50 " />
<path transform="translate( 0, 0 )" style="stroke: hsl(26.9, 55%, 50%);" id="272"  d=" M  -159.04,80  -159.04,130  L  -0,130  L  218.125,130  L  218.125,80 " />
<path transform="translate( 0, 0 )" style="stroke: hsl(53.8, 55%, 50%);" id="551"  d=" M  -159.04,50  -159.04,0  L  0,0  L  218.125,0  L  218.125,50 " />
<path transform="translate( 0, 0 )" style="stroke: hsl(53.8, 55%, 50%);" id="552"  d=" M  -159.04,80  -159.04,130  L  -0,130  L  218.125,130  L  218.125,80 " />
<path transform="translate( 0, 0 )" style="stroke: hsl(80.7, 55%, 50%);" id="831"  d=" M  -159.04,50  -159.04,0  L  0,0  L  218.125,0  L  218.125,50 " />
<path transform="translate( 0, 0 )" style="stroke: hsl(80.7, 55%, 50%);" id="832"  d=" M  -159.04,80  -159.04,130  L  -0,130  L  218.125,130  L  218.125,80 " />
<path transform="translate( 0, 0 )" style="stroke: hsl(107.6, 55%, 50%);" id="1111"  d=" M  -159.04,50  -159.04,0  L  0,0  L  218.125,0  L  218.125,50 " />
<path transform="translate( 0, 0 )" style="stroke: hsl(107.6, 55%, 50%);" id="1112"  d=" M  -159.04,80  -159.04,130  L  -0,130  L  218.125,130  L  218.125,80 " />
<path transform="translate( 0, 0 )" style="stroke: hsl(134.5, 55%, 50%);" id="1391"  d=" M  -159.04,50  -159.04,0  L  0,0  L  218.125,0  L  218.125,50 " />
<path transform="translate( 0, 0 )" style="stroke: hsl(134.5, 55%, 50%);" id="1392"  d=" M  -159.04,80  -159.04,130  L  -0,130  L  218.125,130  L  218.125,80 " />
<path transform="translate( 0, 0 )" style="stroke: hsl(161.4, 55%, 50%);" id="1671"  d=" M  -159.04,50  -159.04,0  L  0,0  L  218.125,0  L  218.125,50 " />
<path transform="translate( 0, 0 )" style="stroke: hsl(161.4, 55%, 50%);" id="1672"  d=" M  -159.04,80  -159.04,130  L  -0,130  L  218.125,130  L  218.125,80 " />
<path transform="translate( 0, 0 )" style="stroke: hsl(188.3, 55%, 50%);" id="1951"  d=" M  -159.04,50  -159.04,0  L  0,0  L  218.125,0  L  218.125,50 " />
<path transform="translate( 0, 0 )" style="stroke: hsl(188.3, 55%, 50%);" id="1952"  d=" M  -159.04,80  -159.04,130  L  -0,130  L  218.125,130  L  218.125,80 " />
<path transform="translate( 0, 0 )" style="stroke: hsl(215.2, 55%, 50%);" id="2231"  d=" M  -159.04,50  -159.04,0  L  0,0  L  218.125,0  L  218.125,50 " />
<path transform="translate( 0, 0 )" style="stroke: hsl(215.2, 55%, 50%);" id="2232"  d=" M  -159.04,80  -159.04,130  L  -0,130  L  218.125,130  L  218.125,80 " />
<path transform="translate( 0, 0 )" style="stroke: hsl(242.1, 55%, 50%);" id="2511"  d=" M  -159.04,50  -159.04,0  L  0,0  L  218.125,0  L  218.125,50 " />
<path transform="translate( 0, 0 )" style="stroke: hsl(242.1, 55%, 50%);" id="2512"  d=" M  -159.04,80  -159.04,130  L  -0,130  L  218.125,130  L  218.125,80 " />
<path transform="translate( 0, 0 )" style="stroke: hsl(269, 55%, 50%);" id="2791"  d=" M  -159.04,50  -159.04,0  L  0,0  L  218.125,0  L  218.125,50 " />
<path transform="translate( 0, 0 )" style="stroke: hsl(269, 55%, 50%);" id="2792"  d=" M  -159.04,80  -159.04,130  L  -0,130  L  218.125,130  L  218.125,80 " />
<path transform="translate( 0, 0 )" style="stroke: hsl(295.9, 55%, 50%);" id="3071"  d=" M  -159.04,50  -159.04,0  L  0,0  L  218.125,0  L  218.125,50 " />
<path transform="translate( 0, 0 )" style="stroke: hsl(295.9, 55%, 50%);" id="3072"  d=" M  -159.04,80  -159.04,130  L  -0,130  L  218.125,130  L  218.125,80 " />
    </g>
    <!-- End of group #tail -->
    
    <!-- Start of group #topsleeve -->
    <g id="topsleeve"  transform=" translate(143.469 5)  translate(560.659 0) " >
        <path class="hidden" id="6"  d=" M  -138.469,0  L  123.083,0  L  123.083,734.927  L  -138.469,734.927  z " />
<path transform="translate( 0, 0 )" style="stroke: hsl(26.9, 55%, 50%);" id="273"  d=" M  110.775,340  C  118.974,293.5  123.083,220  123.083,165  C  123.083,110  110.775,55  110.775,55  C  110.775,55  69.234,0  0,0  C  -69.234,0  -101.544,55  -110.775,99  C  -120.006,143  -124.622,165  -138.469,165  C  -138.469,165  -123.618,280.997  -123.083,340  L  -120.407,635.018  L  -127.765,721.706  L  27.083,734.848  C  39.052,735.864  49.579,726.985  50.595,715.016  L  56.113,650  z " />
<path transform="translate( 0, 0 )" style="stroke: hsl(53.8, 55%, 50%);" id="553"  d=" M  110.775,340  C  118.974,293.5  123.083,220  123.083,165  C  123.083,110  110.775,55  110.775,55  C  110.775,55  69.234,0  0,0  C  -69.234,0  -101.544,55  -110.775,99  C  -120.006,143  -124.622,165  -138.469,165  C  -138.469,165  -123.618,280.997  -123.083,340  L  -120.407,635.018  L  -127.765,721.706  L  27.083,734.848  C  39.052,735.864  49.579,726.985  50.595,715.016  L  56.113,650  z " />
<path transform="translate( 0, 0 )" style="stroke: hsl(80.7, 55%, 50%);" id="833"  d=" M  110.775,340  C  118.974,293.5  123.083,220  123.083,165  C  123.083,110  110.775,55  110.775,55  C  110.775,55  69.234,0  0,0  C  -69.234,0  -101.544,55  -110.775,99  C  -120.006,143  -124.622,165  -138.469,165  C  -138.469,165  -123.618,280.997  -123.083,340  L  -120.407,635.018  L  -127.765,721.706  L  27.083,734.848  C  39.052,735.864  49.579,726.985  50.595,715.016  L  56.113,650  z " />
<path transform="translate( 0, 0 )" style="stroke: hsl(107.6, 55%, 50%);" id="1113"  d=" M  110.775,340  C  118.974,293.5  123.083,220  123.083,165  C  123.083,110  110.775,55  110.775,55  C  110.775,55  69.234,0  0,0  C  -69.234,0  -101.544,55  -110.775,99  C  -120.006,143  -124.622,165  -138.469,165  C  -138.469,165  -123.618,280.997  -123.083,340  L  -120.407,635.018  L  -127.765,721.706  L  27.083,734.848  C  39.052,735.864  49.579,726.985  50.595,715.016  L  56.113,650  z " />
<path transform="translate( 0, 0 )" style="stroke: hsl(134.5, 55%, 50%);" id="1393"  d=" M  110.775,340  C  118.974,293.5  123.083,220  123.083,165  C  123.083,110  110.775,55  110.775,55  C  110.775,55  69.234,0  0,0  C  -69.234,0  -101.544,55  -110.775,99  C  -120.006,143  -124.622,165  -138.469,165  C  -138.469,165  -123.618,280.997  -123.083,340  L  -120.407,635.018  L  -127.765,721.706  L  27.083,734.848  C  39.052,735.864  49.579,726.985  50.595,715.016  L  56.113,650  z " />
<path transform="translate( 0, 0 )" style="stroke: hsl(161.4, 55%, 50%);" id="1673"  d=" M  110.775,340  C  118.974,293.5  123.083,220  123.083,165  C  123.083,110  110.775,55  110.775,55  C  110.775,55  69.234,0  0,0  C  -69.234,0  -101.544,55  -110.775,99  C  -120.006,143  -124.622,165  -138.469,165  C  -138.469,165  -123.618,280.997  -123.083,340  L  -120.407,635.018  L  -127.765,721.706  L  27.083,734.848  C  39.052,735.864  49.579,726.985  50.595,715.016  L  56.113,650  z " />
<path transform="translate( 0, 0 )" style="stroke: hsl(188.3, 55%, 50%);" id="1953"  d=" M  110.775,340  C  118.974,293.5  123.083,220  123.083,165  C  123.083,110  110.775,55  110.775,55  C  110.775,55  69.234,0  0,0  C  -69.234,0  -101.544,55  -110.775,99  C  -120.006,143  -124.622,165  -138.469,165  C  -138.469,165  -123.618,280.997  -123.083,340  L  -120.407,635.018  L  -127.765,721.706  L  27.083,734.848  C  39.052,735.864  49.579,726.985  50.595,715.016  L  56.113,650  z " />
<path transform="translate( 0, 0 )" style="stroke: hsl(215.2, 55%, 50%);" id="2233"  d=" M  110.775,340  C  118.974,293.5  123.083,220  123.083,165  C  123.083,110  110.775,55  110.775,55  C  110.775,55  69.234,0  0,0  C  -69.234,0  -101.544,55  -110.775,99  C  -120.006,143  -124.622,165  -138.469,165  C  -138.469,165  -123.618,280.997  -123.083,340  L  -120.407,635.018  L  -127.765,721.706  L  27.083,734.848  C  39.052,735.864  49.579,726.985  50.595,715.016  L  56.113,650  z " />
<path transform="translate( 0, 0 )" style="stroke: hsl(242.1, 55%, 50%);" id="2513"  d=" M  110.775,340  C  118.974,293.5  123.083,220  123.083,165  C  123.083,110  110.775,55  110.775,55  C  110.775,55  69.234,0  0,0  C  -69.234,0  -101.544,55  -110.775,99  C  -120.006,143  -124.622,165  -138.469,165  C  -138.469,165  -123.618,280.997  -123.083,340  L  -120.407,635.018  L  -127.765,721.706  L  27.083,734.848  C  39.052,735.864  49.579,726.985  50.595,715.016  L  56.113,650  z " />
<path transform="translate( 0, 0 )" style="stroke: hsl(269, 55%, 50%);" id="2793"  d=" M  110.775,340  C  118.974,293.5  123.083,220  123.083,165  C  123.083,110  110.775,55  110.775,55  C  110.775,55  69.234,0  0,0  C  -69.234,0  -101.544,55  -110.775,99  C  -120.006,143  -124.622,165  -138.469,165  C  -138.469,165  -123.618,280.997  -123.083,340  L  -120.407,635.018  L  -127.765,721.706  L  27.083,734.848  C  39.052,735.864  49.579,726.985  50.595,715.016  L  56.113,650  z " />
<path transform="translate( 0, 0 )" style="stroke: hsl(295.9, 55%, 50%);" id="3073"  d=" M  110.775,340  C  118.974,293.5  123.083,220  123.083,165  C  123.083,110  110.775,55  110.775,55  C  110.775,55  69.234,0  0,0  C  -69.234,0  -101.544,55  -110.775,99  C  -120.006,143  -124.622,165  -138.469,165  C  -138.469,165  -123.618,280.997  -123.083,340  L  -120.407,635.018  L  -127.765,721.706  L  27.083,734.848  C  39.052,735.864  49.579,726.985  50.595,715.016  L  56.113,650  z " />
    </g>
    <!-- End of group #topsleeve -->
    
    <!-- Start of group #undersleeve -->
    <g id="undersleeve"  transform=" translate(90.285 -50)  translate(832.211 0) " >
        <path class="hidden" id="7"  d=" M  -85.285,55  L  113.154,55  L  113.154,734.297  L  -85.285,734.297  z " />
<path transform="translate( 0, 0 )" style="stroke: hsl(26.9, 55%, 50%);" id="274"  d=" M  110.775,340  C  118.974,293.5  103.786,219.742  98.467,165  C  93.148,110.258  83.081,55  83.081,55  C  66.118,108.545  -13.847,165  -55.387,165  L  -83.081,165  C  -83.081,165  -62.349,280.845  -64.619,340  L  -75.968,635.774  L  -85.285,722.274  L  25.171,734.171  C  37.114,735.457  47.839,726.818  49.125,714.875  L  56.113,650  z " />
<path transform="translate( 0, 0 )" style="stroke: hsl(53.8, 55%, 50%);" id="554"  d=" M  110.775,340  C  118.974,293.5  103.786,219.742  98.467,165  C  93.148,110.258  83.081,55  83.081,55  C  66.118,108.545  -13.847,165  -55.387,165  L  -83.081,165  C  -83.081,165  -62.349,280.845  -64.619,340  L  -75.968,635.774  L  -85.285,722.274  L  25.171,734.171  C  37.114,735.457  47.839,726.818  49.125,714.875  L  56.113,650  z " />
<path transform="translate( 0, 0 )" style="stroke: hsl(80.7, 55%, 50%);" id="834"  d=" M  110.775,340  C  118.974,293.5  103.786,219.742  98.467,165  C  93.148,110.258  83.081,55  83.081,55  C  66.118,108.545  -13.847,165  -55.387,165  L  -83.081,165  C  -83.081,165  -62.349,280.845  -64.619,340  L  -75.968,635.774  L  -85.285,722.274  L  25.171,734.171  C  37.114,735.457  47.839,726.818  49.125,714.875  L  56.113,650  z " />
<path transform="translate( 0, 0 )" style="stroke: hsl(107.6, 55%, 50%);" id="1114"  d=" M  110.775,340  C  118.974,293.5  103.786,219.742  98.467,165  C  93.148,110.258  83.081,55  83.081,55  C  66.118,108.545  -13.847,165  -55.387,165  L  -83.081,165  C  -83.081,165  -62.349,280.845  -64.619,340  L  -75.968,635.774  L  -85.285,722.274  L  25.171,734.171  C  37.114,735.457  47.839,726.818  49.125,714.875  L  56.113,650  z " />
<path transform="translate( 0, 0 )" style="stroke: hsl(134.5, 55%, 50%);" id="1394"  d=" M  110.775,340  C  118.974,293.5  103.786,219.742  98.467,165  C  93.148,110.258  83.081,55  83.081,55  C  66.118,108.545  -13.847,165  -55.387,165  L  -83.081,165  C  -83.081,165  -62.349,280.845  -64.619,340  L  -75.968,635.774  L  -85.285,722.274  L  25.171,734.171  C  37.114,735.457  47.839,726.818  49.125,714.875  L  56.113,650  z " />
<path transform="translate( 0, 0 )" style="stroke: hsl(161.4, 55%, 50%);" id="1674"  d=" M  110.775,340  C  118.974,293.5  103.786,219.742  98.467,165  C  93.148,110.258  83.081,55  83.081,55  C  66.118,108.545  -13.847,165  -55.387,165  L  -83.081,165  C  -83.081,165  -62.349,280.845  -64.619,340  L  -75.968,635.774  L  -85.285,722.274  L  25.171,734.171  C  37.114,735.457  47.839,726.818  49.125,714.875  L  56.113,650  z " />
<path transform="translate( 0, 0 )" style="stroke: hsl(188.3, 55%, 50%);" id="1954"  d=" M  110.775,340  C  118.974,293.5  103.786,219.742  98.467,165  C  93.148,110.258  83.081,55  83.081,55  C  66.118,108.545  -13.847,165  -55.387,165  L  -83.081,165  C  -83.081,165  -62.349,280.845  -64.619,340  L  -75.968,635.774  L  -85.285,722.274  L  25.171,734.171  C  37.114,735.457  47.839,726.818  49.125,714.875  L  56.113,650  z " />
<path transform="translate( 0, 0 )" style="stroke: hsl(215.2, 55%, 50%);" id="2234"  d=" M  110.775,340  C  118.974,293.5  103.786,219.742  98.467,165  C  93.148,110.258  83.081,55  83.081,55  C  66.118,108.545  -13.847,165  -55.387,165  L  -83.081,165  C  -83.081,165  -62.349,280.845  -64.619,340  L  -75.968,635.774  L  -85.285,722.274  L  25.171,734.171  C  37.114,735.457  47.839,726.818  49.125,714.875  L  56.113,650  z " />
<path transform="translate( 0, 0 )" style="stroke: hsl(242.1, 55%, 50%);" id="2514"  d=" M  110.775,340  C  118.974,293.5  103.786,219.742  98.467,165  C  93.148,110.258  83.081,55  83.081,55  C  66.118,108.545  -13.847,165  -55.387,165  L  -83.081,165  C  -83.081,165  -62.349,280.845  -64.619,340  L  -75.968,635.774  L  -85.285,722.274  L  25.171,734.171  C  37.114,735.457  47.839,726.818  49.125,714.875  L  56.113,650  z " />
<path transform="translate( 0, 0 )" style="stroke: hsl(269, 55%, 50%);" id="2794"  d=" M  110.775,340  C  118.974,293.5  103.786,219.742  98.467,165  C  93.148,110.258  83.081,55  83.081,55  C  66.118,108.545  -13.847,165  -55.387,165  L  -83.081,165  C  -83.081,165  -62.349,280.845  -64.619,340  L  -75.968,635.774  L  -85.285,722.274  L  25.171,734.171  C  37.114,735.457  47.839,726.818  49.125,714.875  L  56.113,650  z " />
<path transform="translate( 0, 0 )" style="stroke: hsl(295.9, 55%, 50%);" id="3074"  d=" M  110.775,340  C  118.974,293.5  103.786,219.742  98.467,165  C  93.148,110.258  83.081,55  83.081,55  C  66.118,108.545  -13.847,165  -55.387,165  L  -83.081,165  C  -83.081,165  -62.349,280.845  -64.619,340  L  -75.968,635.774  L  -85.285,722.274  L  25.171,734.171  C  37.114,735.457  47.839,726.818  49.125,714.875  L  56.113,650  z " />
    </g>
    <!-- End of group #undersleeve -->
    
    <!-- Start of group #belt -->
    <g id="belt"  transform=" translate(5 5)  translate(1040.65 584.803) " >
        <path class="hidden" id="8"  d=" M  0,0  L  317.645,0  L  317.645,70  L  0,70  z " />
<path transform="translate( 0, 0 )" style="stroke: hsl(26.9, 55%, 50%);" id="275"  d=" M  317.645,0  L  10,0  C  4.477,0  0,4.477  0,10  L  0,60  C  0,65.523  4.477,70  10,70  L  317.645,70  L  317.645,0  z " />
<path transform="translate( 0, 0 )" style="stroke: hsl(53.8, 55%, 50%);" id="555"  d=" M  317.645,0  L  10,0  C  4.477,0  0,4.477  0,10  L  0,60  C  0,65.523  4.477,70  10,70  L  317.645,70  L  317.645,0  z " />
<path transform="translate( 0, 0 )" style="stroke: hsl(80.7, 55%, 50%);" id="835"  d=" M  317.645,0  L  10,0  C  4.477,0  0,4.477  0,10  L  0,60  C  0,65.523  4.477,70  10,70  L  317.645,70  L  317.645,0  z " />
<path transform="translate( 0, 0 )" style="stroke: hsl(107.6, 55%, 50%);" id="1115"  d=" M  317.645,0  L  10,0  C  4.477,0  0,4.477  0,10  L  0,60  C  0,65.523  4.477,70  10,70  L  317.645,70  L  317.645,0  z " />
<path transform="translate( 0, 0 )" style="stroke: hsl(134.5, 55%, 50%);" id="1395"  d=" M  317.645,0  L  10,0  C  4.477,0  0,4.477  0,10  L  0,60  C  0,65.523  4.477,70  10,70  L  317.645,70  L  317.645,0  z " />
<path transform="translate( 0, 0 )" style="stroke: hsl(161.4, 55%, 50%);" id="1675"  d=" M  317.645,0  L  10,0  C  4.477,0  0,4.477  0,10  L  0,60  C  0,65.523  4.477,70  10,70  L  317.645,70  L  317.645,0  z " />
<path transform="translate( 0, 0 )" style="stroke: hsl(188.3, 55%, 50%);" id="1955"  d=" M  317.645,0  L  10,0  C  4.477,0  0,4.477  0,10  L  0,60  C  0,65.523  4.477,70  10,70  L  317.645,70  L  317.645,0  z " />
<path transform="translate( 0, 0 )" style="stroke: hsl(215.2, 55%, 50%);" id="2235"  d=" M  317.645,0  L  10,0  C  4.477,0  0,4.477  0,10  L  0,60  C  0,65.523  4.477,70  10,70  L  317.645,70  L  317.645,0  z " />
<path transform="translate( 0, 0 )" style="stroke: hsl(242.1, 55%, 50%);" id="2515"  d=" M  317.645,0  L  10,0  C  4.477,0  0,4.477  0,10  L  0,60  C  0,65.523  4.477,70  10,70  L  317.645,70  L  317.645,0  z " />
<path transform="translate( 0, 0 )" style="stroke: hsl(269, 55%, 50%);" id="2795"  d=" M  317.645,0  L  10,0  C  4.477,0  0,4.477  0,10  L  0,60  C  0,65.523  4.477,70  10,70  L  317.645,70  L  317.645,0  z " />
<path transform="translate( 0, 0 )" style="stroke: hsl(295.9, 55%, 50%);" id="3075"  d=" M  317.645,0  L  10,0  C  4.477,0  0,4.477  0,10  L  0,60  C  0,65.523  4.477,70  10,70  L  317.645,70  L  317.645,0  z " />
    </g>
    <!-- End of group #belt -->
    
    <!-- Start of group #collarStand -->
    <g id="collarStand"  transform=" translate(165.228 -51.6)  translate(1040.65 525) " >
        <path class="hidden" id="9"  d=" M  -160.228,56.6  L  160.228,56.6  L  160.228,106.403  L  -160.228,106.403  z " />
<path transform="translate( 0, 0 )" style="stroke: hsl(26.9, 55%, 50%);" id="276"  d=" M  -160.228,106.403  C  -160.228,106.403  -144.205,56.6  0,56.6  C  144.205,56.6  160.228,106.403  160.228,106.403  C  134.929,106.403  80.114,81.6  0,81.6  C  -80.114,81.6  -134.929,106.403  -160.228,106.403  z " />
<path transform="translate( 0, 0 )" style="stroke: hsl(53.8, 55%, 50%);" id="556"  d=" M  -160.228,106.403  C  -160.228,106.403  -144.205,56.6  0,56.6  C  144.205,56.6  160.228,106.403  160.228,106.403  C  134.929,106.403  80.114,81.6  0,81.6  C  -80.114,81.6  -134.929,106.403  -160.228,106.403  z " />
<path transform="translate( 0, 0 )" style="stroke: hsl(80.7, 55%, 50%);" id="836"  d=" M  -160.228,106.403  C  -160.228,106.403  -144.205,56.6  0,56.6  C  144.205,56.6  160.228,106.403  160.228,106.403  C  134.929,106.403  80.114,81.6  0,81.6  C  -80.114,81.6  -134.929,106.403  -160.228,106.403  z " />
<path transform="translate( 0, 0 )" style="stroke: hsl(107.6, 55%, 50%);" id="1116"  d=" M  -160.228,106.403  C  -160.228,106.403  -144.205,56.6  0,56.6  C  144.205,56.6  160.228,106.403  160.228,106.403  C  134.929,106.403  80.114,81.6  0,81.6  C  -80.114,81.6  -134.929,106.403  -160.228,106.403  z " />
<path transform="translate( 0, 0 )" style="stroke: hsl(134.5, 55%, 50%);" id="1396"  d=" M  -160.228,106.403  C  -160.228,106.403  -144.205,56.6  0,56.6  C  144.205,56.6  160.228,106.403  160.228,106.403  C  134.929,106.403  80.114,81.6  0,81.6  C  -80.114,81.6  -134.929,106.403  -160.228,106.403  z " />
<path transform="translate( 0, 0 )" style="stroke: hsl(161.4, 55%, 50%);" id="1676"  d=" M  -160.228,106.403  C  -160.228,106.403  -144.205,56.6  0,56.6  C  144.205,56.6  160.228,106.403  160.228,106.403  C  134.929,106.403  80.114,81.6  0,81.6  C  -80.114,81.6  -134.929,106.403  -160.228,106.403  z " />
<path transform="translate( 0, 0 )" style="stroke: hsl(188.3, 55%, 50%);" id="1956"  d=" M  -160.228,106.403  C  -160.228,106.403  -144.205,56.6  0,56.6  C  144.205,56.6  160.228,106.403  160.228,106.403  C  134.929,106.403  80.114,81.6  0,81.6  C  -80.114,81.6  -134.929,106.403  -160.228,106.403  z " />
<path transform="translate( 0, 0 )" style="stroke: hsl(215.2, 55%, 50%);" id="2236"  d=" M  -160.228,106.403  C  -160.228,106.403  -144.205,56.6  0,56.6  C  144.205,56.6  160.228,106.403  160.228,106.403  C  134.929,106.403  80.114,81.6  0,81.6  C  -80.114,81.6  -134.929,106.403  -160.228,106.403  z " />
<path transform="translate( 0, 0 )" style="stroke: hsl(242.1, 55%, 50%);" id="2516"  d=" M  -160.228,106.403  C  -160.228,106.403  -144.205,56.6  0,56.6  C  144.205,56.6  160.228,106.403  160.228,106.403  C  134.929,106.403  80.114,81.6  0,81.6  C  -80.114,81.6  -134.929,106.403  -160.228,106.403  z " />
<path transform="translate( 0, 0 )" style="stroke: hsl(269, 55%, 50%);" id="2796"  d=" M  -160.228,106.403  C  -160.228,106.403  -144.205,56.6  0,56.6  C  144.205,56.6  160.228,106.403  160.228,106.403  C  134.929,106.403  80.114,81.6  0,81.6  C  -80.114,81.6  -134.929,106.403  -160.228,106.403  z " />
<path transform="translate( 0, 0 )" style="stroke: hsl(295.9, 55%, 50%);" id="3076"  d=" M  -160.228,106.403  C  -160.228,106.403  -144.205,56.6  0,56.6  C  144.205,56.6  160.228,106.403  160.228,106.403  C  134.929,106.403  80.114,81.6  0,81.6  C  -80.114,81.6  -134.929,106.403  -160.228,106.403  z " />
    </g>
    <!-- End of group #collarStand -->
    
    <!-- Start of group #collar -->
    <g id="collar"  transform=" translate(5 5)  translate(1040.65 805.303) " >
        <path class="hidden" id="10"  d=" M  0,0  L  242.212,0  L  242.212,130.664  L  0,130.664  z " />
<path transform="translate( 0, 0 )" style="stroke: hsl(26.9, 55%, 50%);" id="277"  d=" M  0,56.6  C  16.223,56.6  30.824,57.23  43.787,58.334  C  60.043,61.19  73.933,64.566  86.202,68.342  C  102.654,75.021  114.956,82.023  124.384,88.975  C  146.02,112.314  146.795,127.976  146.795,127.976  L  196.106,130.664  L  242.212,62.284  C  182.48,27.382  126.496,0  0,0  z " />
<path transform="translate( 0, 0 )" style="stroke: hsl(53.8, 55%, 50%);" id="557"  d=" M  0,56.6  C  16.223,56.6  30.824,57.23  43.787,58.334  C  60.043,61.19  73.933,64.566  86.202,68.342  C  102.654,75.021  114.956,82.023  124.384,88.975  C  146.02,112.314  146.795,127.976  146.795,127.976  L  196.106,130.664  L  242.212,62.284  C  182.48,27.382  126.496,0  0,0  z " />
<path transform="translate( 0, 0 )" style="stroke: hsl(80.7, 55%, 50%);" id="837"  d=" M  0,56.6  C  16.223,56.6  30.824,57.23  43.787,58.334  C  60.043,61.19  73.933,64.566  86.202,68.342  C  102.654,75.021  114.956,82.023  124.384,88.975  C  146.02,112.314  146.795,127.976  146.795,127.976  L  196.106,130.664  L  242.212,62.284  C  182.48,27.382  126.496,0  0,0  z " />
<path transform="translate( 0, 0 )" style="stroke: hsl(107.6, 55%, 50%);" id="1117"  d=" M  0,56.6  C  16.223,56.6  30.824,57.23  43.787,58.334  C  60.043,61.19  73.933,64.566  86.202,68.342  C  102.654,75.021  114.956,82.023  124.384,88.975  C  146.02,112.314  146.795,127.976  146.795,127.976  L  196.106,130.664  L  242.212,62.284  C  182.48,27.382  126.496,0  0,0  z " />
<path transform="translate( 0, 0 )" style="stroke: hsl(134.5, 55%, 50%);" id="1397"  d=" M  0,56.6  C  16.223,56.6  30.824,57.23  43.787,58.334  C  60.043,61.19  73.933,64.566  86.202,68.342  C  102.654,75.021  114.956,82.023  124.384,88.975  C  146.02,112.314  146.795,127.976  146.795,127.976  L  196.106,130.664  L  242.212,62.284  C  182.48,27.382  126.496,0  0,0  z " />
<path transform="translate( 0, 0 )" style="stroke: hsl(161.4, 55%, 50%);" id="1677"  d=" M  0,56.6  C  16.223,56.6  30.824,57.23  43.787,58.334  C  60.043,61.19  73.933,64.566  86.202,68.342  C  102.654,75.021  114.956,82.023  124.384,88.975  C  146.02,112.314  146.795,127.976  146.795,127.976  L  196.106,130.664  L  242.212,62.284  C  182.48,27.382  126.496,0  0,0  z " />
<path transform="translate( 0, 0 )" style="stroke: hsl(188.3, 55%, 50%);" id="1957"  d=" M  0,56.6  C  16.223,56.6  30.824,57.23  43.787,58.334  C  60.043,61.19  73.933,64.566  86.202,68.342  C  102.654,75.021  114.956,82.023  124.384,88.975  C  146.02,112.314  146.795,127.976  146.795,127.976  L  196.106,130.664  L  242.212,62.284  C  182.48,27.382  126.496,0  0,0  z " />
<path transform="translate( 0, 0 )" style="stroke: hsl(215.2, 55%, 50%);" id="2237"  d=" M  0,56.6  C  16.223,56.6  30.824,57.23  43.787,58.334  C  60.043,61.19  73.933,64.566  86.202,68.342  C  102.654,75.021  114.956,82.023  124.384,88.975  C  146.02,112.314  146.795,127.976  146.795,127.976  L  196.106,130.664  L  242.212,62.284  C  182.48,27.382  126.496,0  0,0  z " />
<path transform="translate( 0, 0 )" style="stroke: hsl(242.1, 55%, 50%);" id="2517"  d=" M  0,56.6  C  16.223,56.6  30.824,57.23  43.787,58.334  C  60.043,61.19  73.933,64.566  86.202,68.342  C  102.654,75.021  114.956,82.023  124.384,88.975  C  146.02,112.314  146.795,127.976  146.795,127.976  L  196.106,130.664  L  242.212,62.284  C  182.48,27.382  126.496,0  0,0  z " />
<path transform="translate( 0, 0 )" style="stroke: hsl(269, 55%, 50%);" id="2797"  d=" M  0,56.6  C  16.223,56.6  30.824,57.23  43.787,58.334  C  60.043,61.19  73.933,64.566  86.202,68.342  C  102.654,75.021  114.956,82.023  124.384,88.975  C  146.02,112.314  146.795,127.976  146.795,127.976  L  196.106,130.664  L  242.212,62.284  C  182.48,27.382  126.496,0  0,0  z " />
<path transform="translate( 0, 0 )" style="stroke: hsl(295.9, 55%, 50%);" id="3077"  d=" M  0,56.6  C  16.223,56.6  30.824,57.23  43.787,58.334  C  60.043,61.19  73.933,64.566  86.202,68.342  C  102.654,75.021  114.956,82.023  124.384,88.975  C  146.02,112.314  146.795,127.976  146.795,127.976  L  196.106,130.664  L  242.212,62.284  C  182.48,27.382  126.496,0  0,0  z " />
    </g>
    <!-- End of group #collar -->
    
    <!-- Start of group #cuffFacing -->
    <g id="cuffFacing"  transform=" translate(5 5)  translate(1040.65 664.803) " >
        <path class="hidden" id="11"  d=" M  0,0  L  310,0  L  310,130.5  L  0,130.5  z " />
<path transform="translate( 0, 0 )" style="stroke: hsl(26.9, 55%, 50%);" id="278"  d=" M  0,0  L  0,108.75  C  -0,120.762  9.738,130.5  21.75,130.5  L  288.25,130.5  C  300.262,130.5  310,120.762  310,108.75  L  310,0  z " />
<path transform="translate( 0, 0 )" style="stroke: hsl(53.8, 55%, 50%);" id="558"  d=" M  0,0  L  0,108.75  C  -0,120.762  9.738,130.5  21.75,130.5  L  288.25,130.5  C  300.262,130.5  310,120.762  310,108.75  L  310,0  z " />
<path transform="translate( 0, 0 )" style="stroke: hsl(80.7, 55%, 50%);" id="838"  d=" M  0,0  L  0,108.75  C  -0,120.762  9.738,130.5  21.75,130.5  L  288.25,130.5  C  300.262,130.5  310,120.762  310,108.75  L  310,0  z " />
<path transform="translate( 0, 0 )" style="stroke: hsl(107.6, 55%, 50%);" id="1118"  d=" M  0,0  L  0,108.75  C  -0,120.762  9.738,130.5  21.75,130.5  L  288.25,130.5  C  300.262,130.5  310,120.762  310,108.75  L  310,0  z " />
<path transform="translate( 0, 0 )" style="stroke: hsl(134.5, 55%, 50%);" id="1398"  d=" M  0,0  L  0,108.75  C  -0,120.762  9.738,130.5  21.75,130.5  L  288.25,130.5  C  300.262,130.5  310,120.762  310,108.75  L  310,0  z " />
<path transform="translate( 0, 0 )" style="stroke: hsl(161.4, 55%, 50%);" id="1678"  d=" M  0,0  L  0,108.75  C  -0,120.762  9.738,130.5  21.75,130.5  L  288.25,130.5  C  300.262,130.5  310,120.762  310,108.75  L  310,0  z " />
<path transform="translate( 0, 0 )" style="stroke: hsl(188.3, 55%, 50%);" id="1958"  d=" M  0,0  L  0,108.75  C  -0,120.762  9.738,130.5  21.75,130.5  L  288.25,130.5  C  300.262,130.5  310,120.762  310,108.75  L  310,0  z " />
<path transform="translate( 0, 0 )" style="stroke: hsl(215.2, 55%, 50%);" id="2238"  d=" M  0,0  L  0,108.75  C  -0,120.762  9.738,130.5  21.75,130.5  L  288.25,130.5  C  300.262,130.5  310,120.762  310,108.75  L  310,0  z " />
<path transform="translate( 0, 0 )" style="stroke: hsl(242.1, 55%, 50%);" id="2518"  d=" M  0,0  L  0,108.75  C  -0,120.762  9.738,130.5  21.75,130.5  L  288.25,130.5  C  300.262,130.5  310,120.762  310,108.75  L  310,0  z " />
<path transform="translate( 0, 0 )" style="stroke: hsl(269, 55%, 50%);" id="2798"  d=" M  0,0  L  0,108.75  C  -0,120.762  9.738,130.5  21.75,130.5  L  288.25,130.5  C  300.262,130.5  310,120.762  310,108.75  L  310,0  z " />
<path transform="translate( 0, 0 )" style="stroke: hsl(295.9, 55%, 50%);" id="3078"  d=" M  0,0  L  0,108.75  C  -0,120.762  9.738,130.5  21.75,130.5  L  288.25,130.5  C  300.262,130.5  310,120.762  310,108.75  L  310,0  z " />
    </g>
    <!-- End of group #cuffFacing -->
    
    <!-- Start of group #pocket -->
    <g id="pocket"  transform=" translate(-66.113 -522.5)  translate(1040.65 945.967) " >
        <path class="hidden" id="12"  d=" M  71.113,527.5  L  231.338,527.5  L  231.338,710.25  L  71.113,710.25  z " />
<path transform="translate( 0, 0 )" style="stroke: hsl(26.9, 55%, 50%);" id="279"  d=" M  71.113,527.5  L  71.113,660.25  C  71.113,687.864  93.499,710.25  121.113,710.25  L  181.338,710.25  C  208.952,710.25  231.338,687.864  231.338,660.25  L  231.338,527.5  L  71.113,527.5  z " />
<path transform="translate( 0, 0 )" style="stroke: hsl(53.8, 55%, 50%);" id="559"  d=" M  71.113,527.5  L  71.113,660.25  C  71.113,687.864  93.499,710.25  121.113,710.25  L  181.338,710.25  C  208.952,710.25  231.338,687.864  231.338,660.25  L  231.338,527.5  L  71.113,527.5  z " />
<path transform="translate( 0, 0 )" style="stroke: hsl(80.7, 55%, 50%);" id="839"  d=" M  71.113,527.5  L  71.113,660.25  C  71.113,687.864  93.499,710.25  121.113,710.25  L  181.338,710.25  C  208.952,710.25  231.338,687.864  231.338,660.25  L  231.338,527.5  L  71.113,527.5  z " />
<path transform="translate( 0, 0 )" style="stroke: hsl(107.6, 55%, 50%);" id="1119"  d=" M  71.113,527.5  L  71.113,660.25  C  71.113,687.864  93.499,710.25  121.113,710.25  L  181.338,710.25  C  208.952,710.25  231.338,687.864  231.338,660.25  L  231.338,527.5  L  71.113,527.5  z " />
<path transform="translate( 0, 0 )" style="stroke: hsl(134.5, 55%, 50%);" id="1399"  d=" M  71.113,527.5  L  71.113,660.25  C  71.113,687.864  93.499,710.25  121.113,710.25  L  181.338,710.25  C  208.952,710.25  231.338,687.864  231.338,660.25  L  231.338,527.5  L  71.113,527.5  z " />
<path transform="translate( 0, 0 )" style="stroke: hsl(161.4, 55%, 50%);" id="1679"  d=" M  71.113,527.5  L  71.113,660.25  C  71.113,687.864  93.499,710.25  121.113,710.25  L  181.338,710.25  C  208.952,710.25  231.338,687.864  231.338,660.25  L  231.338,527.5  L  71.113,527.5  z " />
<path transform="translate( 0, 0 )" style="stroke: hsl(188.3, 55%, 50%);" id="1959"  d=" M  71.113,527.5  L  71.113,660.25  C  71.113,687.864  93.499,710.25  121.113,710.25  L  181.338,710.25  C  208.952,710.25  231.338,687.864  231.338,660.25  L  231.338,527.5  L  71.113,527.5  z " />
<path transform="translate( 0, 0 )" style="stroke: hsl(215.2, 55%, 50%);" id="2239"  d=" M  71.113,527.5  L  71.113,660.25  C  71.113,687.864  93.499,710.25  121.113,710.25  L  181.338,710.25  C  208.952,710.25  231.338,687.864  231.338,660.25  L  231.338,527.5  L  71.113,527.5  z " />
<path transform="translate( 0, 0 )" style="stroke: hsl(242.1, 55%, 50%);" id="2519"  d=" M  71.113,527.5  L  71.113,660.25  C  71.113,687.864  93.499,710.25  121.113,710.25  L  181.338,710.25  C  208.952,710.25  231.338,687.864  231.338,660.25  L  231.338,527.5  L  71.113,527.5  z " />
<path transform="translate( 0, 0 )" style="stroke: hsl(269, 55%, 50%);" id="2799"  d=" M  71.113,527.5  L  71.113,660.25  C  71.113,687.864  93.499,710.25  121.113,710.25  L  181.338,710.25  C  208.952,710.25  231.338,687.864  231.338,660.25  L  231.338,527.5  L  71.113,527.5  z " />
<path transform="translate( 0, 0 )" style="stroke: hsl(295.9, 55%, 50%);" id="3079"  d=" M  71.113,527.5  L  71.113,660.25  C  71.113,687.864  93.499,710.25  121.113,710.25  L  181.338,710.25  C  208.952,710.25  231.338,687.864  231.338,660.25  L  231.338,527.5  L  71.113,527.5  z " />
    </g>
    <!-- End of group #pocket -->
    
    <!-- Start of group #pocketFlap -->
    <g id="pocketFlap"  transform=" translate(-65.059 -510.045)  translate(1210.875 945.967) " >
        <path class="hidden" id="13"  d=" M  70.059,515.045  L  232.392,515.045  L  232.392,581.13  L  70.059,581.13  z " />
<path transform="translate( 0, 0 )" style="stroke: hsl(26.9, 55%, 50%);" id="280"  d=" M  70.059,515.045  L  73.113,551.13  C  74.51,567.64  86.544,581.13  103.113,581.13  L  199.338,581.13  C  215.907,581.13  227.941,567.64  229.338,551.13  L  232.392,515.045  z " />
<path transform="translate( 0, 0 )" style="stroke: hsl(53.8, 55%, 50%);" id="560"  d=" M  70.059,515.045  L  73.113,551.13  C  74.51,567.64  86.544,581.13  103.113,581.13  L  199.338,581.13  C  215.907,581.13  227.941,567.64  229.338,551.13  L  232.392,515.045  z " />
<path transform="translate( 0, 0 )" style="stroke: hsl(80.7, 55%, 50%);" id="840"  d=" M  70.059,515.045  L  73.113,551.13  C  74.51,567.64  86.544,581.13  103.113,581.13  L  199.338,581.13  C  215.907,581.13  227.941,567.64  229.338,551.13  L  232.392,515.045  z " />
<path transform="translate( 0, 0 )" style="stroke: hsl(107.6, 55%, 50%);" id="1120"  d=" M  70.059,515.045  L  73.113,551.13  C  74.51,567.64  86.544,581.13  103.113,581.13  L  199.338,581.13  C  215.907,581.13  227.941,567.64  229.338,551.13  L  232.392,515.045  z " />
<path transform="translate( 0, 0 )" style="stroke: hsl(134.5, 55%, 50%);" id="1400"  d=" M  70.059,515.045  L  73.113,551.13  C  74.51,567.64  86.544,581.13  103.113,581.13  L  199.338,581.13  C  215.907,581.13  227.941,567.64  229.338,551.13  L  232.392,515.045  z " />
<path transform="translate( 0, 0 )" style="stroke: hsl(161.4, 55%, 50%);" id="1680"  d=" M  70.059,515.045  L  73.113,551.13  C  74.51,567.64  86.544,581.13  103.113,581.13  L  199.338,581.13  C  215.907,581.13  227.941,567.64  229.338,551.13  L  232.392,515.045  z " />
<path transform="translate( 0, 0 )" style="stroke: hsl(188.3, 55%, 50%);" id="1960"  d=" M  70.059,515.045  L  73.113,551.13  C  74.51,567.64  86.544,581.13  103.113,581.13  L  199.338,581.13  C  215.907,581.13  227.941,567.64  229.338,551.13  L  232.392,515.045  z " />
<path transform="translate( 0, 0 )" style="stroke: hsl(215.2, 55%, 50%);" id="2240"  d=" M  70.059,515.045  L  73.113,551.13  C  74.51,567.64  86.544,581.13  103.113,581.13  L  199.338,581.13  C  215.907,581.13  227.941,567.64  229.338,551.13  L  232.392,515.045  z " />
<path transform="translate( 0, 0 )" style="stroke: hsl(242.1, 55%, 50%);" id="2520"  d=" M  70.059,515.045  L  73.113,551.13  C  74.51,567.64  86.544,581.13  103.113,581.13  L  199.338,581.13  C  215.907,581.13  227.941,567.64  229.338,551.13  L  232.392,515.045  z " />
<path transform="translate( 0, 0 )" style="stroke: hsl(269, 55%, 50%);" id="2800"  d=" M  70.059,515.045  L  73.113,551.13  C  74.51,567.64  86.544,581.13  103.113,581.13  L  199.338,581.13  C  215.907,581.13  227.941,567.64  229.338,551.13  L  232.392,515.045  z " />
<path transform="translate( 0, 0 )" style="stroke: hsl(295.9, 55%, 50%);" id="3080"  d=" M  70.059,515.045  L  73.113,551.13  C  74.51,567.64  86.544,581.13  103.113,581.13  L  199.338,581.13  C  215.907,581.13  227.941,567.64  229.338,551.13  L  232.392,515.045  z " />
    </g>
    <!-- End of group #pocketFlap -->
    
    <!-- Start of group #chestPocketWelt -->
    <g id="chestPocketWelt"  transform=" translate(5 5)  translate(1363.95 140) " >
        <path class="hidden" id="14"  d=" M  0,0  L  33.15,0  L  33.15,147.56  L  0,147.56  z " />
<path transform="translate( 0, 0 )" style="stroke: hsl(26.9, 55%, 50%);" id="281"  d=" M  0,0  L  33.15,0  L  33.15,147.56  L  0,147.56  L  0,0  z " />
<path transform="translate( 0, 0 )" style="stroke: hsl(53.8, 55%, 50%);" id="561"  d=" M  0,0  L  33.15,0  L  33.15,147.56  L  0,147.56  L  0,0  z " />
<path transform="translate( 0, 0 )" style="stroke: hsl(80.7, 55%, 50%);" id="841"  d=" M  0,0  L  33.15,0  L  33.15,147.56  L  0,147.56  L  0,0  z " />
<path transform="translate( 0, 0 )" style="stroke: hsl(107.6, 55%, 50%);" id="1121"  d=" M  0,0  L  33.15,0  L  33.15,147.56  L  0,147.56  L  0,0  z " />
<path transform="translate( 0, 0 )" style="stroke: hsl(134.5, 55%, 50%);" id="1401"  d=" M  0,0  L  33.15,0  L  33.15,147.56  L  0,147.56  L  0,0  z " />
<path transform="translate( 0, 0 )" style="stroke: hsl(161.4, 55%, 50%);" id="1681"  d=" M  0,0  L  33.15,0  L  33.15,147.56  L  0,147.56  L  0,0  z " />
<path transform="translate( 0, 0 )" style="stroke: hsl(188.3, 55%, 50%);" id="1961"  d=" M  0,0  L  33.15,0  L  33.15,147.56  L  0,147.56  L  0,0  z " />
<path transform="translate( 0, 0 )" style="stroke: hsl(215.2, 55%, 50%);" id="2241"  d=" M  0,0  L  33.15,0  L  33.15,147.56  L  0,147.56  L  0,0  z " />
<path transform="translate( 0, 0 )" style="stroke: hsl(242.1, 55%, 50%);" id="2521"  d=" M  0,0  L  33.15,0  L  33.15,147.56  L  0,147.56  L  0,0  z " />
<path transform="translate( 0, 0 )" style="stroke: hsl(269, 55%, 50%);" id="2801"  d=" M  0,0  L  33.15,0  L  33.15,147.56  L  0,147.56  L  0,0  z " />
<path transform="translate( 0, 0 )" style="stroke: hsl(295.9, 55%, 50%);" id="3081"  d=" M  0,0  L  33.15,0  L  33.15,147.56  L  0,147.56  L  0,0  z " />
    </g>
    <!-- End of group #chestPocketWelt -->
    
    <!-- Start of group #sampler-frontPanel -->
    <g id="sampler-frontPanel" >
    </g>
    <!-- End of group #sampler-frontPanel -->
    
    <!-- Start of group #sampler-sidePanel -->
    <g id="sampler-sidePanel" >
    </g>
    <!-- End of group #sampler-sidePanel -->
    
    <!-- Start of group #sampler-back -->
    <g id="sampler-back" >
    </g>
    <!-- End of group #sampler-back -->
    
    <!-- Start of group #sampler-tail -->
    <g id="sampler-tail" >
    </g>
    <!-- End of group #sampler-tail -->
    
    <!-- Start of group #sampler-topsleeve -->
    <g id="sampler-topsleeve" >
    </g>
    <!-- End of group #sampler-topsleeve -->
    
    <!-- Start of group #sampler-undersleeve -->
    <g id="sampler-undersleeve" >
    </g>
    <!-- End of group #sampler-undersleeve -->
    
    <!-- Start of group #sampler-belt -->
    <g id="sampler-belt" >
    </g>
    <!-- End of group #sampler-belt -->
    
    <!-- Start of group #sampler-collarStand -->
    <g id="sampler-collarStand" >
    </g>
    <!-- End of group #sampler-collarStand -->
    
    <!-- Start of group #sampler-collar -->
    <g id="sampler-collar" >
    </g>
    <!-- End of group #sampler-collar -->
    
    <!-- Start of group #sampler-cuffFacing -->
    <g id="sampler-cuffFacing" >
    </g>
    <!-- End of group #sampler-cuffFacing -->
    
    <!-- Start of group #sampler-pocket -->
    <g id="sampler-pocket" >
    </g>
    <!-- End of group #sampler-pocket -->
    
    <!-- Start of group #sampler-pocketFlap -->
    <g id="sampler-pocketFlap" >
    </g>
    <!-- End of group #sampler-pocketFlap -->
    
    <!-- Start of group #sampler-chestPocketWelt -->
    <g id="sampler-chestPocketWelt" >
    </g>
    <!-- End of group #sampler-chestPocketWelt -->
</g>
<!-- End of group #patternContainer -->

</svg>

