<?xml version="1.0" encoding="UTF-8" standalone="no"?>
<svg
    xmlns="http://www.w3.org/2000/svg"
    xmlns:svg="http://www.w3.org/2000/svg"
    xmlns:xlink="http://www.w3.org/1999/xlink"
    xmlns:freesewing="http://freesewing.org/namespaces/freesewing" viewBox ="0 0 1419 1187"
    width ="1419mm"
    height ="1187mm"
    freesewing:version ="1.5.0"
    freesewing:origin ="joost.core.freesewing.org" 
>

<style type="text/css">
    <![CDATA[
    path { fill: none; stroke: #000000; stroke-opacity:1; stroke-width: 0.5; stroke-miterlimit:4; stroke-dashoffset:0; stroke-linecap:round; stroke-linejoin:round; }
    path.hidden { fill: none; stroke: none; }]]>
</style>


<!-- Start of group #patternContainer -->
<g id="patternContainer" >
    
    <!-- Start of group #backBlock -->
    <g id="backBlock" >
    </g>
    <!-- End of group #backBlock -->
    
    <!-- Start of group #frontBlock -->
    <g id="frontBlock" >
    </g>
    <!-- End of group #frontBlock -->
    
    <!-- Start of group #sleeveBlock -->
    <g id="sleeveBlock" >
    </g>
    <!-- End of group #sleeveBlock -->
    
    <!-- Start of group #topsleeveBlock -->
    <g id="topsleeveBlock" >
    </g>
    <!-- End of group #topsleeveBlock -->
    
    <!-- Start of group #undersleeveBlock -->
    <g id="undersleeveBlock" >
    </g>
    <!-- End of group #undersleeveBlock -->
    
    <!-- Start of group #front -->
    <g id="front" >
    </g>
    <!-- End of group #front -->
    
    <!-- Start of group #frontPs -->
    <g id="frontPs" >
    </g>
    <!-- End of group #frontPs -->
    
    <!-- Start of group #frontPanel -->
    <g id="frontPanel"  transform=" translate(76.113 8.1)  translate(0 0) " >
        <path class="hidden" id="2"  d=" M  -71.113,-3.1  L  225,-3.1  L  225,1174.346  L  -71.113,1174.346  z " />
<path transform="translate( 0, 0 )" style="stroke: hsl(26.9, 55%, 50%);" id="268"  d=" M  -67.103,87  C  -67.103,87  -71.113,127.1  -71.113,287.5  L  -71.113,1174.346  L  96.087,1174.346  L  96.087,285  C  96.087,230.905  160.564,185.229  205,153.75  C  205,109.167  208.541,29.893  210,20  L  74.38,0  C  71.462,19.786  74.38,87  0,87  L  -67.103,87  z " />
<path transform="translate( 0, -0.3119999999999 )" style="stroke: hsl(53.8, 55%, 50%);" id="548"  d=" M  -67.103,87  C  -67.103,87  -71.113,127.1  -71.113,287.5  L  -71.113,1174.658  L  96.087,1174.658  L  96.087,285  C  96.087,230.855  161.238,185.358  206.5,153.75  C  206.5,109.167  210.057,29.895  211.5,20  L  74.38,0  C  71.493,19.791  74.38,87  0,87  L  -67.103,87  z " />
<path transform="translate( 0, -0.62300000000005 )" style="stroke: hsl(80.7, 55%, 50%);" id="828"  d=" M  -67.103,87  C  -67.103,87  -71.113,127.1  -71.113,287.5  L  -71.113,1174.969  L  96.087,1174.969  L  96.087,285  C  96.087,230.801  161.911,185.482  208,153.75  C  208,109.167  211.572,29.898  213,20  L  74.38,0  C  71.524,19.795  74.38,87  0,87  L  -67.103,87  z " />
<path transform="translate( 0, -0.93599999999992 )" style="stroke: hsl(107.6, 55%, 50%);" id="1108"  d=" M  -67.103,87  C  -67.103,87  -71.113,127.1  -71.113,287.5  L  -71.113,1175.282  L  96.087,1175.282  L  96.087,285  C  96.087,230.737  162.582,185.599  209.5,153.75  C  209.5,109.167  213.087,29.9  214.5,20  L  74.38,0  C  71.554,19.799  74.38,87  0,87  L  -67.103,87  z " />
<path transform="translate( 0, -1.2449999999999 )" style="stroke: hsl(134.5, 55%, 50%);" id="1388"  d=" M  -67.103,87  C  -67.103,87  -71.113,127.1  -71.113,287.5  L  -71.113,1175.591  L  96.087,1175.591  L  96.087,285  C  96.087,230.667  163.252,185.71  211,153.75  C  211,109.167  214.602,29.902  216,20  L  74.38,0  C  71.583,19.803  74.38,87  0,87  L  -67.103,87  z " />
<path transform="translate( 0, -1.5540000000001 )" style="stroke: hsl(161.4, 55%, 50%);" id="1668"  d=" M  -67.103,87  C  -67.103,87  -71.113,127.1  -71.113,287.5  L  -71.113,1175.9  L  96.087,1175.9  L  96.087,285  C  96.087,230.593  163.922,185.816  212.5,153.75  C  212.5,109.167  216.116,29.904  217.5,20  L  74.38,0  C  71.612,19.808  74.38,87  0,87  L  -67.103,87  z " />
<path transform="translate( 0, -1.866 )" style="stroke: hsl(188.3, 55%, 50%);" id="1948"  d=" M  -67.103,87  C  -67.103,87  -71.113,127.1  -71.113,287.5  L  -71.113,1176.212  L  96.087,1176.212  L  96.087,285  C  96.087,230.512  164.59,185.916  214,153.75  C  214,109.167  217.63,29.906  219,20  L  74.38,0  C  71.64,19.811  74.38,87  0,87  L  -67.103,87  z " />
<path transform="translate( 0, -2.173 )" style="stroke: hsl(215.2, 55%, 50%);" id="2228"  d=" M  -67.103,87  C  -67.103,87  -71.113,127.1  -71.113,287.5  L  -71.113,1176.519  L  96.087,1176.519  L  96.087,285  C  96.087,230.424  165.258,186.01  215.5,153.75  C  215.5,109.167  219.144,29.908  220.5,20  L  74.38,0  C  71.668,19.815  74.38,87  0,87  L  -67.103,87  z " />
<path transform="translate( 0, -2.4829999999999 )" style="stroke: hsl(242.1, 55%, 50%);" id="2508"  d=" M  -67.103,87  C  -67.103,87  -71.113,127.1  -71.113,287.5  L  -71.113,1176.829  L  96.087,1176.829  L  96.087,285  C  96.087,230.328  165.924,186.098  217,153.75  C  217,109.167  220.657,29.909  222,20  L  74.38,0  C  71.695,19.819  74.38,87  0,87  L  -67.103,87  z " />
<path transform="translate( 0, -2.7909999999999 )" style="stroke: hsl(269, 55%, 50%);" id="2788"  d=" M  -67.103,87  C  -67.103,87  -71.113,127.1  -71.113,287.5  L  -71.113,1177.137  L  96.087,1177.137  L  96.087,285  C  96.087,230.227  166.591,186.18  218.5,153.75  C  218.5,109.167  222.171,29.911  223.5,20  L  74.38,0  C  71.721,19.823  74.38,87  0,87  L  -67.103,87  z " />
<path transform="translate( 0, -3.0999999999999 )" style="stroke: hsl(295.9, 55%, 50%);" id="3068"  d=" M  -67.103,87  C  -67.103,87  -71.113,127.1  -71.113,287.5  L  -71.113,1177.446  L  96.087,1177.446  L  96.087,285  C  96.087,230.122  167.256,186.258  220,153.75  C  220,109.167  223.684,29.913  225,20  L  74.38,0  C  71.747,19.826  74.38,87  0,87  L  -67.103,87  z " />
    </g>
    <!-- End of group #frontPanel -->
    
    <!-- Start of group #sidePanel -->
    <g id="sidePanel"  transform=" translate(-94.721 -169.256)  translate(306.113 0) " >
        <path class="hidden" id="3"  d=" M  99.721,174.256  L  332.073,174.256  L  332.073,1163.652  L  99.721,1163.652  z " />
<path transform="translate( 0, 0 )" style="stroke: hsl(26.9, 55%, 50%);" id="269"  d=" M  307.089,307.249  C  291.464,307.47  280.861,301.382  265.589,286.538  C  250.317,271.691  238.333,219.048  237.701,174.469  C  187.31,195.116  114.194,225.075  101.995,277.777  C  89.796,330.479  130.658,330.479  130.658,511.559  L  130.658,1163.649  L  332.07,1163.649  L  332.072,792.251  C  332.072,677.25  288.947,493.499  288.947,432.249  C  288.946,370.999  307.071,317.405  307.089,307.249  z " />
<path transform="translate( -0.0050000000000239, -0.34000000000015 )" style="stroke: hsl(53.8, 55%, 50%);" id="549"  d=" M  307.096,307.589  C  291.845,307.805  281.77,301.814  266.749,287.212  C  251.728,272.612  239.837,219.367  239.205,174.787  C  187.986,195.387  114.261,225.039  102.064,277.792  C  89.867,330.545  130.663,330.545  130.663,511.569  L  130.663,1163.989  L  332.077,1163.989  L  332.077,792.588  C  332.077,677.59  288.953,493.84  288.952,432.589  C  288.953,371.34  307.077,317.747  307.096,307.589  z " />
<path transform="translate( -0.010000000000019, -0.67800000000011 )" style="stroke: hsl(80.7, 55%, 50%);" id="829"  d=" M  307.098,307.927  C  292.224,308.138  282.663,302.243  267.899,287.891  C  253.137,273.54  241.341,219.685  240.71,175.105  C  188.662,195.652  114.329,224.998  102.133,277.807  C  89.937,330.616  130.668,330.616  130.668,511.582  L  130.668,1164.327  L  332.08,1164.326  L  332.08,792.927  C  332.082,677.926  288.955,494.178  288.954,432.926  C  288.955,371.677  307.078,318.083  307.098,307.927  z " />
<path transform="translate( -0.015000000000015, -1.019 )" style="stroke: hsl(107.6, 55%, 50%);" id="1109"  d=" M  307.103,308.266  C  292.606,308.472  283.552,302.676  269.05,288.576  C  254.545,274.477  242.847,220.002  242.215,175.423  C  189.339,195.911  114.399,224.947  102.202,277.821  C  90.005,330.695  130.673,330.695  130.673,511.606  L  130.673,1164.668  L  332.085,1164.667  L  332.085,793.267  C  332.084,678.267  288.962,494.517  288.961,433.267  C  288.96,372.017  307.085,318.423  307.103,308.266  z " />
<path transform="translate( -0.02000000000001, -1.3560000000002 )" style="stroke: hsl(134.5, 55%, 50%);" id="1389"  d=" M  307.108,308.605  C  292.986,308.806  284.435,303.109  270.191,289.265  C  255.95,275.421  244.352,220.318  243.72,175.74  C  190.015,196.162  114.471,224.89  102.271,277.836  C  90.071,330.782  130.678,330.782  130.678,511.64  L  130.678,1165.005  L  332.091,1165.006  L  332.089,793.606  C  332.091,678.605  288.966,494.855  288.968,433.607  C  288.967,372.356  307.093,318.761  307.108,308.605  z " />
<path transform="translate( -0.025000000000006, -1.691 )" style="stroke: hsl(161.4, 55%, 50%);" id="1669"  d=" M  307.113,308.942  C  293.365,309.136  285.3,303.543  271.328,289.96  C  257.354,276.378  245.856,220.635  245.224,176.055  C  190.691,196.408  114.542,224.83  102.338,277.85  C  90.134,330.87  130.683,330.87  130.683,511.687  L  130.683,1165.34  L  332.094,1165.341  L  332.094,793.942  C  332.095,678.941  288.97,495.191  288.971,433.941  C  288.969,372.691  307.095,319.097  307.113,308.942  z " />
<path transform="translate( -0.030000000000001, -2.0300000000002 )" style="stroke: hsl(188.3, 55%, 50%);" id="1949"  d=" M  307.118,309.279  C  293.745,309.47  286.16,303.978  272.458,290.662  C  258.759,277.344  247.361,220.95  246.73,176.371  C  191.369,196.649  114.615,224.762  102.407,277.865  C  90.199,330.968  130.688,330.968  130.688,511.724  L  130.688,1165.679  L  332.101,1165.677  L  332.103,794.278  C  332.102,679.279  288.977,495.529  288.977,434.277  C  288.975,373.027  307.101,319.434  307.118,309.279  z " />
<path transform="translate( -0.03400000000002, -2.364 )" style="stroke: hsl(215.2, 55%, 50%);" id="2229"  d=" M  307.123,309.614  C  294.125,309.8  287.007,304.417  273.583,291.367  C  260.157,278.318  248.866,221.264  248.234,176.686  C  192.046,196.882  114.689,224.688  102.474,277.879  C  90.259,331.07  130.692,331.07  130.692,511.779  L  130.692,1166.013  L  332.106,1166.016  L  332.106,794.615  C  332.105,679.614  288.98,495.866  288.979,434.614  C  288.98,373.365  307.107,319.77  307.123,309.614  z " />
<path transform="translate( -0.039000000000016, -2.701 )" style="stroke: hsl(242.1, 55%, 50%);" id="2509"  d=" M  307.127,309.949  C  294.503,310.128  287.844,304.853  274.701,292.076  C  261.557,279.301  250.369,221.579  249.737,176.999  C  192.722,197.109  114.764,224.606  102.541,277.894  C  90.318,331.182  130.697,331.182  130.697,511.844  L  130.697,1166.35  L  332.111,1166.347  L  332.111,794.948  C  332.11,679.947  288.985,496.198  288.984,434.949  C  288.985,373.7  307.109,320.104  307.127,309.949  z " />
<path transform="translate( -0.044000000000011, -3.0350000000001 )" style="stroke: hsl(269, 55%, 50%);" id="2789"  d=" M  307.132,310.283  C  294.884,310.458  288.669,305.292  275.812,292.794  C  262.955,280.296  251.874,221.891  251.242,177.312  C  193.401,197.33  114.841,224.518  102.608,277.908  C  90.375,331.298  130.702,331.298  130.702,511.918  L  130.702,1166.684  L  332.114,1166.684  L  332.114,795.284  C  332.114,680.284  288.989,496.533  288.988,435.285  C  288.99,374.033  307.115,320.44  307.132,310.283  z " />
<path transform="translate( -0.048000000000002, -3.3700000000001 )" style="stroke: hsl(295.9, 55%, 50%);" id="3069"  d=" M  307.137,310.619  C  295.263,310.787  289.485,305.736  276.918,293.519  C  264.35,281.303  253.379,222.204  252.748,177.626  C  194.081,197.547  114.919,224.427  102.675,277.922  C  90.431,331.417  130.706,331.417  130.706,511.994  L  130.706,1167.019  L  332.118,1167.018  L  332.12,795.619  C  332.119,680.618  288.995,496.867  288.995,435.62  C  288.995,374.368  307.12,320.774  307.137,310.619  z " />
    </g>
    <!-- End of group #sidePanel -->
    
    <!-- Start of group #back -->
    <g id="back"  transform=" translate(45.8 5)  translate(1032.18 140) " >
        <path class="hidden" id="4"  d=" M  -40.8,0  L  272.5,0  L  272.5,375  L  -40.8,375  z " />
<path transform="translate( 0, 0 )" style="stroke: hsl(26.9, 55%, 50%);" id="270"  d=" M  0,20  L  0,153.75  L  -40.8,153.75  L  -40.8,375  L  83.625,375  C  83.625,331.25  101.75,287.5  101.75,287.5  C  101.75,287.5  119.875,331.25  119.875,375  L  254.375,375  C  254.375,348.75  272.5,295.156  272.5,287.5  C  256.875,287.5  246.358,281.262  231.298,266.202  C  216.238,251.142  210,198.333  210,153.75  C  210,109.167  208.541,29.893  210,20  L  74.38,0  C  71.462,19.786  0,20  0,20  z " />
<path transform="translate( 0, 0 )" style="stroke: hsl(53.8, 55%, 50%);" id="550"  d=" M  0,20  L  0,153.75  L  -40.8,153.75  L  -40.8,375  L  83.625,375  C  83.625,331.25  101.75,287.5  101.75,287.5  C  101.75,287.5  119.875,331.25  119.875,375  L  254.375,375  C  254.375,348.75  272.5,295.156  272.5,287.5  C  257.25,287.5  247.259,281.365  232.447,266.553  C  217.635,251.741  211.5,198.333  211.5,153.75  C  211.5,109.167  210.057,29.895  211.5,20  L  74.38,0  C  71.493,19.791  0,20  0,20  z " />
<path transform="translate( 0, 0 )" style="stroke: hsl(80.7, 55%, 50%);" id="830"  d=" M  0,20  L  0,153.75  L  -40.8,153.75  L  -40.8,375  L  83.625,375  C  83.625,331.25  101.75,287.5  101.75,287.5  C  101.75,287.5  119.875,331.25  119.875,375  L  254.375,375  C  254.375,348.75  272.5,295.156  272.5,287.5  C  257.625,287.5  248.149,281.469  233.59,266.91  C  219.031,252.351  213,198.333  213,153.75  C  213,109.167  211.572,29.898  213,20  L  74.38,0  C  71.524,19.795  0,20  0,20  z " />
<path transform="translate( 0, 0 )" style="stroke: hsl(107.6, 55%, 50%);" id="1110"  d=" M  0,20  L  0,153.75  L  -40.8,153.75  L  -40.8,375  L  83.625,375  C  83.625,331.25  101.75,287.5  101.75,287.5  C  101.75,287.5  119.875,331.25  119.875,375  L  254.375,375  C  254.375,348.75  272.5,295.156  272.5,287.5  C  258,287.5  249.031,281.575  234.728,267.272  C  220.425,252.969  214.5,198.333  214.5,153.75  C  214.5,109.167  213.087,29.9  214.5,20  L  74.38,0  C  71.554,19.799  0,20  0,20  z " />
<path transform="translate( 0, 0 )" style="stroke: hsl(134.5, 55%, 50%);" id="1390"  d=" M  0,20  L  0,153.75  L  -40.8,153.75  L  -40.8,375  L  83.625,375  C  83.625,331.25  101.75,287.5  101.75,287.5  C  101.75,287.5  119.875,331.25  119.875,375  L  254.375,375  C  254.375,348.75  272.5,295.156  272.5,287.5  C  258.375,287.5  249.905,281.683  235.861,267.639  C  221.817,253.595  216,198.333  216,153.75  C  216,109.167  214.602,29.902  216,20  L  74.38,0  C  71.583,19.803  0,20  0,20  z " />
<path transform="translate( 0, 0 )" style="stroke: hsl(161.4, 55%, 50%);" id="1670"  d=" M  0,20  L  0,153.75  L  -40.8,153.75  L  -40.8,375  L  83.625,375  C  83.625,331.25  101.75,287.5  101.75,287.5  C  101.75,287.5  119.875,331.25  119.875,375  L  254.375,375  C  254.375,348.75  272.5,295.156  272.5,287.5  C  258.75,287.5  250.766,281.792  236.987,268.013  C  223.208,254.234  217.5,198.333  217.5,153.75  C  217.5,109.167  216.116,29.904  217.5,20  L  74.38,0  C  71.612,19.808  0,20  0,20  z " />
<path transform="translate( 0, 0 )" style="stroke: hsl(188.3, 55%, 50%);" id="1950"  d=" M  0,20  L  0,153.75  L  -40.8,153.75  L  -40.8,375  L  83.625,375  C  83.625,331.25  101.75,287.5  101.75,287.5  C  101.75,287.5  119.875,331.25  119.875,375  L  254.375,375  C  254.375,348.75  272.5,295.156  272.5,287.5  C  259.125,287.5  251.618,281.904  238.107,268.393  C  224.596,254.882  219,198.333  219,153.75  C  219,109.167  217.63,29.906  219,20  L  74.38,0  C  71.64,19.811  0,20  0,20  z " />
<path transform="translate( 0, 0 )" style="stroke: hsl(215.2, 55%, 50%);" id="2230"  d=" M  0,20  L  0,153.75  L  -40.8,153.75  L  -40.8,375  L  83.625,375  C  83.625,331.25  101.75,287.5  101.75,287.5  C  101.75,287.5  119.875,331.25  119.875,375  L  254.375,375  C  254.375,348.75  272.5,295.156  272.5,287.5  C  259.5,287.5  252.459,282.017  239.221,268.779  C  225.983,255.541  220.5,198.333  220.5,153.75  C  220.5,109.167  219.144,29.908  220.5,20  L  74.38,0  C  71.668,19.815  0,20  0,20  z " />
<path transform="translate( 0, 0 )" style="stroke: hsl(242.1, 55%, 50%);" id="2510"  d=" M  0,20  L  0,153.75  L  -40.8,153.75  L  -40.8,375  L  83.625,375  C  83.625,331.25  101.75,287.5  101.75,287.5  C  101.75,287.5  119.875,331.25  119.875,375  L  254.375,375  C  254.375,348.75  272.5,295.156  272.5,287.5  C  259.875,287.5  253.291,282.131  240.33,269.17  C  227.369,256.209  222,198.333  222,153.75  C  222,109.167  220.657,29.909  222,20  L  74.38,0  C  71.695,19.819  0,20  0,20  z " />
<path transform="translate( 0, 0 )" style="stroke: hsl(269, 55%, 50%);" id="2790"  d=" M  0,20  L  0,153.75  L  -40.8,153.75  L  -40.8,375  L  83.625,375  C  83.625,331.25  101.75,287.5  101.75,287.5  C  101.75,287.5  119.875,331.25  119.875,375  L  254.375,375  C  254.375,348.75  272.5,295.156  272.5,287.5  C  260.25,287.5  254.11,282.248  241.431,269.569  C  228.752,256.89  223.5,198.333  223.5,153.75  C  223.5,109.167  222.171,29.911  223.5,20  L  74.38,0  C  71.721,19.823  0,20  0,20  z " />
<path transform="translate( 0, 0 )" style="stroke: hsl(295.9, 55%, 50%);" id="3070"  d=" M  0,20  L  0,153.75  L  -40.8,153.75  L  -40.8,375  L  83.625,375  C  83.625,331.25  101.75,287.5  101.75,287.5  C  101.75,287.5  119.875,331.25  119.875,375  L  254.375,375  C  254.375,348.75  272.5,295.156  272.5,287.5  C  260.625,287.5  254.919,282.367  242.526,269.974  C  230.133,257.581  225,198.333  225,153.75  C  225,109.167  223.684,29.913  225,20  L  74.38,0  C  71.747,19.826  0,20  0,20  z " />
    </g>
    <!-- End of group #back -->
    
    <!-- Start of group #tail -->
    <g id="tail"  transform=" translate(164.04 5)  translate(1032.18 0) " >
        <path class="hidden" id="5"  d=" M  -159.04,0  L  218.125,0  L  218.125,130  L  -159.04,130  z " />
<path transform="translate( 0, 0 )" style="stroke: hsl(26.9, 55%, 50%);" id="271"  d=" M  -159.04,50  -159.04,0  L  0,0  L  218.125,0  L  218.125,50 " />
<path transform="translate( 0, 0 )" style="stroke: hsl(26.9, 55%, 50%);" id="272"  d=" M  -159.04,80  -159.04,130  L  -0,130  L  218.125,130  L  218.125,80 " />
<path transform="translate( 0, 0 )" style="stroke: hsl(53.8, 55%, 50%);" id="551"  d=" M  -159.04,50  -159.04,0  L  0,0  L  218.125,0  L  218.125,50 " />
<path transform="translate( 0, 0 )" style="stroke: hsl(53.8, 55%, 50%);" id="552"  d=" M  -159.04,80  -159.04,130  L  -0,130  L  218.125,130  L  218.125,80 " />
<path transform="translate( 0, 0 )" style="stroke: hsl(80.7, 55%, 50%);" id="831"  d=" M  -159.04,50  -159.04,0  L  0,0  L  218.125,0  L  218.125,50 " />
<path transform="translate( 0, 0 )" style="stroke: hsl(80.7, 55%, 50%);" id="832"  d=" M  -159.04,80  -159.04,130  L  -0,130  L  218.125,130  L  218.125,80 " />
<path transform="translate( 0, 0 )" style="stroke: hsl(107.6, 55%, 50%);" id="1111"  d=" M  -159.04,50  -159.04,0  L  0,0  L  218.125,0  L  218.125,50 " />
<path transform="translate( 0, 0 )" style="stroke: hsl(107.6, 55%, 50%);" id="1112"  d=" M  -159.04,80  -159.04,130  L  -0,130  L  218.125,130  L  218.125,80 " />
<path transform="translate( 0, 0 )" style="stroke: hsl(134.5, 55%, 50%);" id="1391"  d=" M  -159.04,50  -159.04,0  L  0,0  L  218.125,0  L  218.125,50 " />
<path transform="translate( 0, 0 )" style="stroke: hsl(134.5, 55%, 50%);" id="1392"  d=" M  -159.04,80  -159.04,130  L  -0,130  L  218.125,130  L  218.125,80 " />
<path transform="translate( 0, 0 )" style="stroke: hsl(161.4, 55%, 50%);" id="1671"  d=" M  -159.04,50  -159.04,0  L  0,0  L  218.125,0  L  218.125,50 " />
<path transform="translate( 0, 0 )" style="stroke: hsl(161.4, 55%, 50%);" id="1672"  d=" M  -159.04,80  -159.04,130  L  -0,130  L  218.125,130  L  218.125,80 " />
<path transform="translate( 0, 0 )" style="stroke: hsl(188.3, 55%, 50%);" id="1951"  d=" M  -159.04,50  -159.04,0  L  0,0  L  218.125,0  L  218.125,50 " />
<path transform="translate( 0, 0 )" style="stroke: hsl(188.3, 55%, 50%);" id="1952"  d=" M  -159.04,80  -159.04,130  L  -0,130  L  218.125,130  L  218.125,80 " />
<path transform="translate( 0, 0 )" style="stroke: hsl(215.2, 55%, 50%);" id="2231"  d=" M  -159.04,50  -159.04,0  L  0,0  L  218.125,0  L  218.125,50 " />
<path transform="translate( 0, 0 )" style="stroke: hsl(215.2, 55%, 50%);" id="2232"  d=" M  -159.04,80  -159.04,130  L  -0,130  L  218.125,130  L  218.125,80 " />
<path transform="translate( 0, 0 )" style="stroke: hsl(242.1, 55%, 50%);" id="2511"  d=" M  -159.04,50  -159.04,0  L  0,0  L  218.125,0  L  218.125,50 " />
<path transform="translate( 0, 0 )" style="stroke: hsl(242.1, 55%, 50%);" id="2512"  d=" M  -159.04,80  -159.04,130  L  -0,130  L  218.125,130  L  218.125,80 " />
<path transform="translate( 0, 0 )" style="stroke: hsl(269, 55%, 50%);" id="2791"  d=" M  -159.04,50  -159.04,0  L  0,0  L  218.125,0  L  218.125,50 " />
<path transform="translate( 0, 0 )" style="stroke: hsl(269, 55%, 50%);" id="2792"  d=" M  -159.04,80  -159.04,130  L  -0,130  L  218.125,130  L  218.125,80 " />
<path transform="translate( 0, 0 )" style="stroke: hsl(295.9, 55%, 50%);" id="3071"  d=" M  -159.04,50  -159.04,0  L  0,0  L  218.125,0  L  218.125,50 " />
<path transform="translate( 0, 0 )" style="stroke: hsl(295.9, 55%, 50%);" id="3072"  d=" M  -159.04,80  -159.04,130  L  -0,130  L  218.125,130  L  218.125,80 " />
    </g>
    <!-- End of group #tail -->
    
    <!-- Start of group #topsleeve -->
    <g id="topsleeve"  transform=" translate(145.464 5)  translate(548.465 0) " >
        <path class="hidden" id="6"  d=" M  -140.464,0  L  124.857,0  L  124.857,671.71  L  -140.464,671.71  z " />
<path transform="translate( 0, 0 )" style="stroke: hsl(26.9, 55%, 50%);" id="273"  d=" M  112.371,340  C  118.877,303.1  124.857,220  124.857,165  C  124.857,110  112.371,55  112.371,55  C  112.371,55  70.232,0  0,0  C  -70.232,0  -103.006,55  -112.371,99  C  -121.736,143  -126.418,165  -140.464,165  C  -140.464,165  -128.186,292.745  -124.857,340  L  -108.212,576.276  L  -112.979,663.145  L  42.511,671.677  C  54.505,672.335  64.762,663.146  65.42,651.152  L  68.995,586  z " />
<path transform="translate( 0.325, 0 )" style="stroke: hsl(53.8, 55%, 50%);" id="553"  d=" M  112.046,340  C  118.552,303.1  124.496,220  124.496,165  C  124.496,110  112.046,55  112.046,55  C  112.046,55  70.029,0  0,0  C  -70.029,0  -102.709,55  -112.046,99  C  -121.383,143  -126.052,165  -140.057,165  C  -140.057,165  -127.703,292.789  -124.496,340  L  -108.46,576.056  L  -113.336,662.919  L  42.078,671.644  C  54.071,672.317  64.34,663.14  65.013,651.147  L  68.67,586  z " />
<path transform="translate( 0.64700000000001, 0 )" style="stroke: hsl(80.7, 55%, 50%);" id="833"  d=" M  111.724,340  C  118.23,303.1  124.138,220  124.138,165  C  124.138,110  111.724,55  111.724,55  C  111.724,55  69.828,0  0,0  C  -69.828,0  -102.413,55  -111.724,99  C  -121.035,143  -125.69,165  -139.655,165  C  -139.655,165  -127.224,292.832  -124.138,340  L  -108.706,575.84  L  -113.69,662.697  L  41.65,671.611  C  53.642,672.299  63.922,663.135  64.61,651.143  L  68.348,586  z " />
<path transform="translate( 0.96600000000001, 0 )" style="stroke: hsl(107.6, 55%, 50%);" id="1113"  d=" M  111.405,340  C  117.911,303.1  123.783,220  123.783,165  C  123.783,110  111.405,55  111.405,55  C  111.405,55  69.628,0  0,0  C  -69.628,0  -102.121,55  -111.405,99  C  -120.689,143  -125.331,165  -139.256,165  C  -139.256,165  -126.75,292.875  -123.783,340  L  -108.948,575.624  L  -114.04,662.475  L  41.224,671.578  C  53.215,672.281  63.507,663.129  64.21,651.138  L  68.029,586  z " />
<path transform="translate( 1.283, 0 )" style="stroke: hsl(134.5, 55%, 50%);" id="1393"  d=" M  111.088,340  C  117.594,303.1  123.431,220  123.431,165  C  123.431,110  111.088,55  111.088,55  C  111.088,55  69.43,0  0,0  C  -69.43,0  -101.831,55  -111.088,99  C  -120.345,143  -124.974,165  -138.86,165  C  -138.86,165  -126.279,292.917  -123.431,340  L  -109.189,575.411  L  -114.387,662.256  L  40.803,671.546  C  52.794,672.263  63.096,663.125  63.813,651.134  L  67.712,586  z " />
<path transform="translate( 1.596, 0 )" style="stroke: hsl(161.4, 55%, 50%);" id="1673"  d=" M  110.775,340  C  117.281,303.1  123.083,220  123.083,165  C  123.083,110  110.775,55  110.775,55  C  110.775,55  69.234,0  0,0  C  -69.234,0  -101.544,55  -110.775,99  C  -120.006,143  -124.622,165  -138.469,165  C  -138.469,165  -125.814,292.96  -123.083,340  L  -109.426,575.2  L  -114.73,662.038  L  40.385,671.512  C  52.375,672.244  62.689,663.118  63.421,651.128  L  67.399,586  z " />
<path transform="translate( 1.906, 0 )" style="stroke: hsl(188.3, 55%, 50%);" id="1953"  d=" M  110.465,340  C  116.971,303.1  122.739,220  122.739,165  C  122.739,110  110.465,55  110.465,55  C  110.465,55  69.041,0  0,0  C  -69.041,0  -101.26,55  -110.465,99  C  -119.67,143  -124.273,165  -138.081,165  C  -138.081,165  -125.354,293.001  -122.739,340  L  -109.662,574.992  L  -115.07,661.824  L  39.973,671.48  C  51.962,672.227  62.286,663.113  63.033,651.124  L  67.089,586  z " />
<path transform="translate( 2.214, 0 )" style="stroke: hsl(215.2, 55%, 50%);" id="2233"  d=" M  110.157,340  C  116.663,303.1  122.397,220  122.397,165  C  122.397,110  110.157,55  110.157,55  C  110.157,55  68.848,0  0,0  C  -68.848,0  -100.977,55  -110.157,99  C  -119.337,143  -123.927,165  -137.696,165  C  -137.696,165  -124.898,293.043  -122.397,340  L  -109.894,574.785  L  -115.406,661.61  L  39.563,671.447  C  51.551,672.208  61.886,663.107  62.647,651.119  L  66.781,586  z " />
<path transform="translate( 2.518, 0 )" style="stroke: hsl(242.1, 55%, 50%);" id="2513"  d=" M  109.853,340  C  116.359,303.1  122.059,220  122.059,165  C  122.059,110  109.853,55  109.853,55  C  109.853,55  68.658,0  0,0  C  -68.658,0  -100.698,55  -109.853,99  C  -119.008,143  -123.585,165  -137.316,165  C  -137.316,165  -124.446,293.084  -122.059,340  L  -110.125,574.582  L  -115.738,661.401  L  39.159,671.416  C  51.146,672.191  61.492,663.101  62.267,651.114  L  66.477,586  z " />
<path transform="translate( 2.819, 0 )" style="stroke: hsl(269, 55%, 50%);" id="2793"  d=" M  109.552,340  C  116.058,303.1  121.724,220  121.724,165  C  121.724,110  109.552,55  109.552,55  C  109.552,55  68.47,0  0,0  C  -68.47,0  -100.423,55  -109.552,99  C  -118.681,143  -123.246,165  -136.94,165  C  -136.94,165  -123.998,293.124  -121.724,340  L  -110.352,574.38  L  -116.066,661.192  L  38.759,671.383  C  50.745,672.172  61.102,663.095  61.891,651.109  L  66.176,586  z " />
<path transform="translate( 3.117, 0 )" style="stroke: hsl(295.9, 55%, 50%);" id="3073"  d=" M  109.254,340  C  115.76,303.1  121.393,220  121.393,165  C  121.393,110  109.254,55  109.254,55  C  109.254,55  68.284,0  0,0  C  -68.284,0  -100.149,55  -109.254,99  C  -118.359,143  -122.911,165  -136.567,165  C  -136.567,165  -123.556,293.164  -121.393,340  L  -110.578,574.181  L  -116.392,660.987  L  38.363,671.353  C  50.348,672.155  60.715,663.09  61.517,651.105  L  65.878,586  z " />
    </g>
    <!-- End of group #topsleeve -->
    
    <!-- Start of group #undersleeve -->
    <g id="undersleeve"  transform=" translate(89.278 -50)  translate(823.786 0) " >
        <path class="hidden" id="7"  d=" M  -84.278,55  L  114.116,55  L  114.116,670.95  L  -84.278,670.95  z " />
<path transform="translate( 0, 0 )" style="stroke: hsl(26.9, 55%, 50%);" id="274"  d=" M  112.371,340  C  118.877,303.1  105.28,219.735  99.885,165  C  94.49,110.265  84.278,55  84.278,55  C  67.222,108.55  -14.046,165  -56.185,165  L  -84.278,165  C  -84.278,165  -66.047,293.02  -65.55,340  L  -63.065,574.899  L  -70.353,661.593  L  40.033,670.872  C  52.003,671.878  62.523,662.99  63.529,651.02  L  68.995,586  z " />
<path transform="translate( 0.325, 0 )" style="stroke: hsl(53.8, 55%, 50%);" id="554"  d=" M  112.046,340  C  118.552,303.1  104.976,219.736  99.596,165  C  94.216,110.264  84.034,55  84.034,55  C  66.993,108.548  -14.006,165  -56.023,165  L  -84.035,165  C  -84.035,165  -65.744,293.052  -65.36,340  L  -63.442,574.739  L  -70.831,661.425  L  39.61,670.839  C  51.579,671.859  62.108,662.984  63.128,651.015  L  68.67,586  z " />
<path transform="translate( 0.64700000000001, 0 )" style="stroke: hsl(80.7, 55%, 50%);" id="834"  d=" M  111.724,340  C  118.23,303.1  104.674,219.738  99.31,165  C  93.946,110.262  83.793,55  83.793,55  C  66.778,108.549  -13.966,165  -55.862,165  L  -83.793,165  C  -83.793,165  -65.443,293.084  -65.172,340  L  -63.815,574.58  L  -71.305,661.257  L  39.189,670.805  C  51.156,671.839  61.696,662.975  62.73,651.008  L  68.348,586  z " />
<path transform="translate( 0.96600000000001, 0 )" style="stroke: hsl(107.6, 55%, 50%);" id="1114"  d=" M  111.405,340  C  117.911,303.1  104.376,219.739  99.027,165  C  93.678,110.261  83.554,55  83.554,55  C  66.556,108.547  -13.926,165  -55.703,165  L  -83.554,165  C  -83.554,165  -65.146,293.116  -64.986,340  L  -64.184,574.423  L  -71.773,661.091  L  38.773,670.771  C  50.739,671.819  61.289,662.967  62.337,651.001  L  68.029,586  z " />
<path transform="translate( 1.283, 0 )" style="stroke: hsl(134.5, 55%, 50%);" id="1394"  d=" M  111.088,340  C  117.594,303.1  104.079,219.741  98.745,165  C  93.411,110.259  83.316,55  83.316,55  C  66.335,108.545  -13.886,165  -55.544,165  L  -83.316,165  C  -83.316,165  -64.851,293.146  -64.801,340  L  -64.551,574.267  L  -72.239,660.927  L  38.359,670.738  C  50.324,671.799  60.885,662.96  61.946,650.995  L  67.712,586  z " />
<path transform="translate( 1.596, 0 )" style="stroke: hsl(161.4, 55%, 50%);" id="1674"  d=" M  110.775,340  C  117.281,303.1  103.786,219.742  98.467,165  C  93.148,110.258  83.081,55  83.081,55  C  66.118,108.545  -13.847,165  -55.387,165  L  -83.081,165  C  -83.081,165  -64.56,293.177  -64.619,340  L  -64.913,574.113  L  -72.698,660.764  L  37.951,670.705  C  49.915,671.78  60.485,662.952  61.56,650.988  L  67.399,586  z " />
<path transform="translate( 1.906, 0 )" style="stroke: hsl(188.3, 55%, 50%);" id="1954"  d=" M  110.465,340  C  116.971,303.1  103.496,219.744  98.191,165  C  92.886,110.256  82.849,55  82.849,55  C  65.903,108.543  -13.808,165  -55.233,165  L  -82.849,165  C  -82.849,165  -64.271,293.208  -64.438,340  L  -65.271,573.959  L  -73.153,660.601  L  37.546,670.671  C  49.509,671.76  60.089,662.944  61.178,650.981  L  67.089,586  z " />
<path transform="translate( 2.214, 0 )" style="stroke: hsl(215.2, 55%, 50%);" id="2234"  d=" M  110.157,340  C  116.663,303.1  103.207,219.745  97.917,165  C  92.627,110.255  82.618,55  82.618,55  C  65.691,108.542  -13.77,165  -55.079,165  L  -82.618,165  C  -82.618,165  -63.984,293.239  -64.258,340  L  -65.628,573.807  L  -73.606,660.44  L  37.145,670.638  C  49.106,671.74  59.696,662.936  60.798,650.975  L  66.781,586  z " />
<path transform="translate( 2.518, 0 )" style="stroke: hsl(242.1, 55%, 50%);" id="2514"  d=" M  109.853,340  C  116.359,303.1  102.922,219.746  97.647,165  C  92.372,110.254  82.39,55  82.39,55  C  65.493,108.546  -13.732,165  -54.927,165  L  -82.39,165  C  -82.39,165  -63.702,293.268  -64.081,340  L  -65.978,573.657  L  -74.05,660.282  L  36.749,670.607  C  48.709,671.722  59.308,662.929  60.423,650.969  L  66.477,586  z " />
<path transform="translate( 2.819, 0 )" style="stroke: hsl(269, 55%, 50%);" id="2794"  d=" M  109.552,340  C  116.058,303.1  102.641,219.748  97.38,165  C  92.119,110.252  82.164,55  82.164,55  C  65.287,108.545  -13.694,165  -54.776,165  L  -82.164,165  C  -82.164,165  -63.421,293.298  -63.905,340  L  -66.326,573.508  L  -74.492,660.124  L  36.356,670.575  C  48.315,671.702  58.924,662.921  60.051,650.962  L  66.176,586  z " />
<path transform="translate( 3.117, 0 )" style="stroke: hsl(295.9, 55%, 50%);" id="3074"  d=" M  109.254,340  C  115.76,303.1  102.362,219.749  97.115,165  C  91.868,110.251  81.94,55  81.94,55  C  65.065,108.539  -13.657,165  -54.627,165  L  -81.941,165  C  -81.941,165  -63.144,293.328  -63.732,340  L  -66.67,573.361  L  -74.928,659.968  L  35.968,670.542  C  47.926,671.682  58.545,662.913  59.685,650.955  L  65.878,586  z " />
    </g>
    <!-- End of group #undersleeve -->
    
    <!-- Start of group #belt -->
    <g id="belt"  transform=" translate(5 5)  translate(1032.18 584.811) " >
        <path class="hidden" id="8"  d=" M  0,0  L  317.645,0  L  317.645,70  L  0,70  z " />
<path transform="translate( 0, 0 )" style="stroke: hsl(26.9, 55%, 50%);" id="275"  d=" M  317.645,0  L  10,0  C  4.477,0  0,4.477  0,10  L  0,60  C  0,65.523  4.477,70  10,70  L  317.645,70  L  317.645,0  z " />
<path transform="translate( 0, 0 )" style="stroke: hsl(53.8, 55%, 50%);" id="555"  d=" M  317.645,0  L  10,0  C  4.477,0  0,4.477  0,10  L  0,60  C  0,65.523  4.477,70  10,70  L  317.645,70  L  317.645,0  z " />
<path transform="translate( 0, 0 )" style="stroke: hsl(80.7, 55%, 50%);" id="835"  d=" M  317.645,0  L  10,0  C  4.477,0  0,4.477  0,10  L  0,60  C  0,65.523  4.477,70  10,70  L  317.645,70  L  317.645,0  z " />
<path transform="translate( 0, 0 )" style="stroke: hsl(107.6, 55%, 50%);" id="1115"  d=" M  317.645,0  L  10,0  C  4.477,0  0,4.477  0,10  L  0,60  C  0,65.523  4.477,70  10,70  L  317.645,70  L  317.645,0  z " />
<path transform="translate( 0, 0 )" style="stroke: hsl(134.5, 55%, 50%);" id="1395"  d=" M  317.645,0  L  10,0  C  4.477,0  0,4.477  0,10  L  0,60  C  0,65.523  4.477,70  10,70  L  317.645,70  L  317.645,0  z " />
<path transform="translate( 0, 0 )" style="stroke: hsl(161.4, 55%, 50%);" id="1675"  d=" M  317.645,0  L  10,0  C  4.477,0  0,4.477  0,10  L  0,60  C  0,65.523  4.477,70  10,70  L  317.645,70  L  317.645,0  z " />
<path transform="translate( 0, 0 )" style="stroke: hsl(188.3, 55%, 50%);" id="1955"  d=" M  317.645,0  L  10,0  C  4.477,0  0,4.477  0,10  L  0,60  C  0,65.523  4.477,70  10,70  L  317.645,70  L  317.645,0  z " />
<path transform="translate( 0, 0 )" style="stroke: hsl(215.2, 55%, 50%);" id="2235"  d=" M  317.645,0  L  10,0  C  4.477,0  0,4.477  0,10  L  0,60  C  0,65.523  4.477,70  10,70  L  317.645,70  L  317.645,0  z " />
<path transform="translate( 0, 0 )" style="stroke: hsl(242.1, 55%, 50%);" id="2515"  d=" M  317.645,0  L  10,0  C  4.477,0  0,4.477  0,10  L  0,60  C  0,65.523  4.477,70  10,70  L  317.645,70  L  317.645,0  z " />
<path transform="translate( 0, 0 )" style="stroke: hsl(269, 55%, 50%);" id="2795"  d=" M  317.645,0  L  10,0  C  4.477,0  0,4.477  0,10  L  0,60  C  0,65.523  4.477,70  10,70  L  317.645,70  L  317.645,0  z " />
<path transform="translate( 0, 0 )" style="stroke: hsl(295.9, 55%, 50%);" id="3075"  d=" M  317.645,0  L  10,0  C  4.477,0  0,4.477  0,10  L  0,60  C  0,65.523  4.477,70  10,70  L  317.645,70  L  317.645,0  z " />
    </g>
    <!-- End of group #belt -->
    
    <!-- Start of group #collarStand -->
    <g id="collarStand"  transform=" translate(165.278 -51.6)  translate(1032.18 525) " >
        <path class="hidden" id="9"  d=" M  -160.278,56.6  L  160.278,56.6  L  160.278,106.411  L  -160.278,106.411  z " />
<path transform="translate( 0, 0 )" style="stroke: hsl(26.9, 55%, 50%);" id="276"  d=" M  -160.172,106.394  C  -160.172,106.394  -144.155,56.6  0,56.6  C  144.155,56.6  160.172,106.394  160.172,106.394  C  134.882,106.394  80.086,81.6  0,81.6  C  -80.086,81.6  -134.882,106.394  -160.172,106.394  z " />
<path transform="translate( 0, 0 )" style="stroke: hsl(53.8, 55%, 50%);" id="556"  d=" M  -160.184,106.396  C  -160.184,106.396  -144.166,56.6  0,56.6  C  144.166,56.6  160.184,106.396  160.184,106.396  C  134.892,106.396  80.092,81.6  0,81.6  C  -80.092,81.6  -134.892,106.396  -160.184,106.396  z " />
<path transform="translate( 0, 0 )" style="stroke: hsl(80.7, 55%, 50%);" id="836"  d=" M  -160.195,106.398  C  -160.195,106.398  -144.176,56.6  0,56.6  C  144.176,56.6  160.195,106.398  160.195,106.398  C  134.901,106.398  80.098,81.6  0,81.6  C  -80.098,81.6  -134.901,106.398  -160.195,106.398  z " />
<path transform="translate( 0, 0 )" style="stroke: hsl(107.6, 55%, 50%);" id="1116"  d=" M  -160.206,106.4  C  -160.206,106.4  -144.185,56.6  0,56.6  C  144.185,56.6  160.206,106.4  160.206,106.4  C  134.91,106.4  80.103,81.6  0,81.6  C  -80.103,81.6  -134.91,106.4  -160.206,106.4  z " />
<path transform="translate( 0, 0 )" style="stroke: hsl(134.5, 55%, 50%);" id="1396"  d=" M  -160.216,106.401  C  -160.216,106.401  -144.194,56.6  0,56.6  C  144.194,56.6  160.216,106.401  160.216,106.401  C  134.918,106.401  80.108,81.6  0,81.6  C  -80.108,81.6  -134.918,106.401  -160.216,106.401  z " />
<path transform="translate( 0, 0 )" style="stroke: hsl(161.4, 55%, 50%);" id="1676"  d=" M  -160.228,106.403  C  -160.228,106.403  -144.205,56.6  0,56.6  C  144.205,56.6  160.228,106.403  160.228,106.403  C  134.929,106.403  80.114,81.6  0,81.6  C  -80.114,81.6  -134.929,106.403  -160.228,106.403  z " />
<path transform="translate( 0, 0 )" style="stroke: hsl(188.3, 55%, 50%);" id="1956"  d=" M  -160.238,106.405  C  -160.238,106.405  -144.214,56.6  0,56.6  C  144.214,56.6  160.238,106.405  160.238,106.405  C  134.937,106.405  80.119,81.6  0,81.6  C  -80.119,81.6  -134.937,106.405  -160.238,106.405  z " />
<path transform="translate( 0, 0 )" style="stroke: hsl(215.2, 55%, 50%);" id="2236"  d=" M  -160.248,106.406  C  -160.248,106.406  -144.223,56.6  0,56.6  C  144.223,56.6  160.248,106.406  160.248,106.406  C  134.945,106.406  80.124,81.6  0,81.6  C  -80.124,81.6  -134.945,106.406  -160.248,106.406  z " />
<path transform="translate( 0, 0 )" style="stroke: hsl(242.1, 55%, 50%);" id="2516"  d=" M  -160.258,106.408  C  -160.258,106.408  -144.232,56.6  0,56.6  C  144.232,56.6  160.258,106.408  160.258,106.408  C  134.954,106.408  80.129,81.6  0,81.6  C  -80.129,81.6  -134.954,106.408  -160.258,106.408  z " />
<path transform="translate( 0, 0 )" style="stroke: hsl(269, 55%, 50%);" id="2796"  d=" M  -160.268,106.409  C  -160.268,106.409  -144.241,56.6  0,56.6  C  144.241,56.6  160.268,106.409  160.268,106.409  C  134.962,106.409  80.134,81.6  0,81.6  C  -80.134,81.6  -134.962,106.409  -160.268,106.409  z " />
<path transform="translate( 0, 0 )" style="stroke: hsl(295.9, 55%, 50%);" id="3076"  d=" M  -160.278,106.411  C  -160.278,106.411  -144.25,56.6  0,56.6  C  144.25,56.6  160.278,106.411  160.278,106.411  C  134.971,106.411  80.139,81.6  0,81.6  C  -80.139,81.6  -134.971,106.411  -160.278,106.411  z " />
    </g>
    <!-- End of group #collarStand -->
    
    <!-- Start of group #collar -->
    <g id="collar"  transform=" translate(5 5)  translate(1032.18 805.311) " >
        <path class="hidden" id="10"  d=" M  0,0  L  242.276,0  L  242.276,130.681  L  0,130.681  z " />
<path transform="translate( 0, 0 )" style="stroke: hsl(26.9, 55%, 50%);" id="277"  d=" M  0,56.6  C  16.218,56.6  30.813,57.23  43.772,58.334  C  60.023,61.189  73.907,64.564  86.172,68.34  C  102.618,75.017  114.915,82.017  124.339,88.968  C  145.966,112.301  146.742,127.96  146.742,127.96  L  196.034,130.648  L  242.139,62.266  C  182.42,27.374  126.451,0  0,0  z " />
<path transform="translate( 0, 0 )" style="stroke: hsl(53.8, 55%, 50%);" id="557"  d=" M  0,56.6  C  16.219,56.6  30.816,57.23  43.775,58.334  C  60.027,61.189  73.913,64.564  86.178,68.34  C  102.625,75.019  114.923,82.018  124.349,88.969  C  145.978,112.303  146.753,127.964  146.753,127.964  L  196.05,130.652  L  242.155,62.272  C  182.432,27.375  126.461,0  0,0  z " />
<path transform="translate( 0, 0 )" style="stroke: hsl(80.7, 55%, 50%);" id="837"  d=" M  0,56.6  C  16.22,56.6  30.818,57.23  43.778,58.334  C  60.031,61.189  73.918,64.565  86.184,68.34  C  102.632,75.019  114.931,82.019  124.358,88.972  C  145.988,112.307  146.763,127.968  146.763,127.968  L  196.064,130.656  L  242.17,62.275  C  182.445,27.377  126.47,0  0,0  z " />
<path transform="translate( 0, 0 )" style="stroke: hsl(107.6, 55%, 50%);" id="1117"  d=" M  0,56.6  C  16.221,56.6  30.819,57.23  43.781,58.334  C  60.035,61.189  73.923,64.566  86.19,68.341  C  102.639,75.02  114.939,82.02  124.366,88.973  C  145.999,112.308  146.773,127.971  146.773,127.971  L  196.077,130.658  L  242.183,62.278  C  182.457,27.38  126.478,0  0,0  z " />
<path transform="translate( 0, 0 )" style="stroke: hsl(134.5, 55%, 50%);" id="1397"  d=" M  0,56.6  C  16.222,56.6  30.822,57.23  43.783,58.334  C  60.039,61.19  73.927,64.566  86.195,68.342  C  102.645,75.021  114.947,82.022  124.374,88.974  C  146.009,112.311  146.783,127.974  146.783,127.974  L  196.091,130.662  L  242.197,62.283  C  182.468,27.381  126.487,0  0,0  z " />
<path transform="translate( 0, 0 )" style="stroke: hsl(161.4, 55%, 50%);" id="1677"  d=" M  0,56.6  C  16.223,56.6  30.824,57.23  43.787,58.334  C  60.043,61.19  73.933,64.566  86.202,68.342  C  102.654,75.021  114.956,82.023  124.384,88.975  C  146.02,112.314  146.795,127.976  146.795,127.976  L  196.106,130.664  L  242.212,62.284  C  182.48,27.382  126.496,0  0,0  z " />
<path transform="translate( 0, 0 )" style="stroke: hsl(188.3, 55%, 50%);" id="1957"  d=" M  0,56.6  C  16.224,56.6  30.826,57.23  43.789,58.334  C  60.047,61.19  73.937,64.566  86.207,68.342  C  102.66,75.021  114.963,82.023  124.392,88.978  C  146.029,112.318  146.804,127.982  146.804,127.982  L  196.117,130.67  L  242.224,62.289  C  182.49,27.384  126.503,0  0,0  z " />
<path transform="translate( 0, 0 )" style="stroke: hsl(215.2, 55%, 50%);" id="2237"  d=" M  0,56.6  C  16.225,56.6  30.828,57.23  43.792,58.334  C  60.051,61.191  73.941,64.567  86.213,68.343  C  102.667,75.023  114.97,82.024  124.4,88.978  C  146.038,112.319  146.814,127.983  146.814,127.983  L  196.131,130.671  L  242.238,62.292  C  182.501,27.385  126.512,0  0,0  z " />
<path transform="translate( 0, 0 )" style="stroke: hsl(242.1, 55%, 50%);" id="2517"  d=" M  0,56.6  C  16.226,56.6  30.83,57.23  43.795,58.334  C  60.055,61.191  73.946,64.568  86.218,68.344  C  102.673,75.024  114.977,82.026  124.408,88.98  C  146.047,112.322  146.824,127.986  146.824,127.986  L  196.145,130.675  L  242.251,62.295  C  182.512,27.388  126.52,0  0,0  z " />
<path transform="translate( 0, 0 )" style="stroke: hsl(269, 55%, 50%);" id="2797"  d=" M  0,56.6  C  16.227,56.6  30.831,57.23  43.798,58.334  C  60.058,61.191  73.95,64.568  86.223,68.344  C  102.679,75.024  114.985,82.027  124.416,88.981  C  146.057,112.323  146.834,127.989  146.834,127.989  L  196.159,130.678  L  242.263,62.298  C  182.522,27.388  126.527,0  0,0  z " />
<path transform="translate( 0, 0 )" style="stroke: hsl(295.9, 55%, 50%);" id="3077"  d=" M  0,56.6  C  16.228,56.6  30.834,57.23  43.8,58.335  C  60.062,61.191  73.956,64.568  86.229,68.344  C  102.686,75.025  114.992,82.028  124.423,88.983  C  146.065,112.326  146.843,127.992  146.843,127.992  L  196.171,130.681  L  242.276,62.3  C  182.532,27.39  126.535,0  0,0  z " />
    </g>
    <!-- End of group #collar -->
    
    <!-- Start of group #cuffFacing -->
    <g id="cuffFacing"  transform=" translate(5.001 5)  translate(1032.18 664.811) " >
        <path class="hidden" id="11"  d=" M  -0.001,0  L  310,0  L  310,130.5  L  -0.001,130.5  z " />
<path transform="translate( 0, 0 )" style="stroke: hsl(26.9, 55%, 50%);" id="278"  d=" M  0,0  L  0,108.75  C  -0,120.762  9.738,130.5  21.75,130.5  L  288.249,130.5  C  300.261,130.5  309.999,120.762  309.999,108.75  L  309.999,0  z " />
<path transform="translate( 0, 0 )" style="stroke: hsl(53.8, 55%, 50%);" id="558"  d=" M  0,0  L  0,108.75  C  -0,120.762  9.738,130.5  21.75,130.5  L  288.25,130.5  C  300.262,130.5  310,120.762  310,108.75  L  310,0  z " />
<path transform="translate( -0.0010000000000048, 0 )" style="stroke: hsl(80.7, 55%, 50%);" id="838"  d=" M  0,0  L  0,108.75  C  -0,120.762  9.738,130.5  21.75,130.5  L  288.251,130.5  C  300.263,130.5  310.001,120.762  310.001,108.75  L  310.001,0  z " />
<path transform="translate( 0, 0 )" style="stroke: hsl(107.6, 55%, 50%);" id="1118"  d=" M  0,0  L  0,108.75  C  -0,120.762  9.738,130.5  21.75,130.5  L  288.25,130.5  C  300.262,130.5  310,120.762  310,108.75  L  310,0  z " />
<path transform="translate( 0, 0 )" style="stroke: hsl(134.5, 55%, 50%);" id="1398"  d=" M  0,0  L  0,108.75  C  -0,120.762  9.738,130.5  21.75,130.5  L  288.25,130.5  C  300.262,130.5  310,120.762  310,108.75  L  310,0  z " />
<path transform="translate( 0, 0 )" style="stroke: hsl(161.4, 55%, 50%);" id="1678"  d=" M  0,0  L  0,108.75  C  -0,120.762  9.738,130.5  21.75,130.5  L  288.249,130.5  C  300.261,130.5  309.999,120.762  309.999,108.75  L  309.999,0  z " />
<path transform="translate( 0, 0 )" style="stroke: hsl(188.3, 55%, 50%);" id="1958"  d=" M  0,0  L  0,108.75  C  -0,120.762  9.738,130.5  21.75,130.5  L  288.25,130.5  C  300.262,130.5  310,120.762  310,108.75  L  310,0  z " />
<path transform="translate( 0, 0 )" style="stroke: hsl(215.2, 55%, 50%);" id="2238"  d=" M  0,0  L  0,108.75  C  -0,120.762  9.738,130.5  21.75,130.5  L  288.25,130.5  C  300.262,130.5  310,120.762  310,108.75  L  310,0  z " />
<path transform="translate( 0, 0 )" style="stroke: hsl(242.1, 55%, 50%);" id="2518"  d=" M  0,0  L  0,108.75  C  -0,120.762  9.738,130.5  21.75,130.5  L  288.25,130.5  C  300.262,130.5  310,120.762  310,108.75  L  310,0  z " />
<path transform="translate( 0, 0 )" style="stroke: hsl(269, 55%, 50%);" id="2798"  d=" M  0,0  L  0,108.75  C  -0,120.762  9.738,130.5  21.75,130.5  L  288.25,130.5  C  300.262,130.5  310,120.762  310,108.75  L  310,0  z " />
<path transform="translate( -0.0010000000000048, 0 )" style="stroke: hsl(295.9, 55%, 50%);" id="3078"  d=" M  0,0  L  0,108.75  C  -0,120.762  9.738,130.5  21.75,130.5  L  288.251,130.5  C  300.263,130.5  310.001,120.762  310.001,108.75  L  310.001,0  z " />
    </g>
    <!-- End of group #cuffFacing -->
    
    <!-- Start of group #pocket -->
    <g id="pocket"  transform=" translate(-66.113 -522.5)  translate(1032.18 945.992) " >
        <path class="hidden" id="12"  d=" M  71.113,527.5  L  231.338,527.5  L  231.338,710.25  L  71.113,710.25  z " />
<path transform="translate( 0, 0 )" style="stroke: hsl(26.9, 55%, 50%);" id="279"  d=" M  71.113,527.5  L  71.113,660.25  C  71.113,687.864  93.499,710.25  121.113,710.25  L  181.338,710.25  C  208.952,710.25  231.338,687.864  231.338,660.25  L  231.338,527.5  L  71.113,527.5  z " />
<path transform="translate( 0, 0 )" style="stroke: hsl(53.8, 55%, 50%);" id="559"  d=" M  71.113,527.5  L  71.113,660.25  C  71.113,687.864  93.499,710.25  121.113,710.25  L  181.338,710.25  C  208.952,710.25  231.338,687.864  231.338,660.25  L  231.338,527.5  L  71.113,527.5  z " />
<path transform="translate( 0, 0 )" style="stroke: hsl(80.7, 55%, 50%);" id="839"  d=" M  71.113,527.5  L  71.113,660.25  C  71.113,687.864  93.499,710.25  121.113,710.25  L  181.338,710.25  C  208.952,710.25  231.338,687.864  231.338,660.25  L  231.338,527.5  L  71.113,527.5  z " />
<path transform="translate( 0, 0 )" style="stroke: hsl(107.6, 55%, 50%);" id="1119"  d=" M  71.113,527.5  L  71.113,660.25  C  71.113,687.864  93.499,710.25  121.113,710.25  L  181.338,710.25  C  208.952,710.25  231.338,687.864  231.338,660.25  L  231.338,527.5  L  71.113,527.5  z " />
<path transform="translate( 0, 0 )" style="stroke: hsl(134.5, 55%, 50%);" id="1399"  d=" M  71.113,527.5  L  71.113,660.25  C  71.113,687.864  93.499,710.25  121.113,710.25  L  181.338,710.25  C  208.952,710.25  231.338,687.864  231.338,660.25  L  231.338,527.5  L  71.113,527.5  z " />
<path transform="translate( 0, 0 )" style="stroke: hsl(161.4, 55%, 50%);" id="1679"  d=" M  71.113,527.5  L  71.113,660.25  C  71.113,687.864  93.499,710.25  121.113,710.25  L  181.338,710.25  C  208.952,710.25  231.338,687.864  231.338,660.25  L  231.338,527.5  L  71.113,527.5  z " />
<path transform="translate( 0, 0 )" style="stroke: hsl(188.3, 55%, 50%);" id="1959"  d=" M  71.113,527.5  L  71.113,660.25  C  71.113,687.864  93.499,710.25  121.113,710.25  L  181.338,710.25  C  208.952,710.25  231.338,687.864  231.338,660.25  L  231.338,527.5  L  71.113,527.5  z " />
<path transform="translate( 0, 0 )" style="stroke: hsl(215.2, 55%, 50%);" id="2239"  d=" M  71.113,527.5  L  71.113,660.25  C  71.113,687.864  93.499,710.25  121.113,710.25  L  181.338,710.25  C  208.952,710.25  231.338,687.864  231.338,660.25  L  231.338,527.5  L  71.113,527.5  z " />
<path transform="translate( 0, 0 )" style="stroke: hsl(242.1, 55%, 50%);" id="2519"  d=" M  71.113,527.5  L  71.113,660.25  C  71.113,687.864  93.499,710.25  121.113,710.25  L  181.338,710.25  C  208.952,710.25  231.338,687.864  231.338,660.25  L  231.338,527.5  L  71.113,527.5  z " />
<path transform="translate( 0, 0 )" style="stroke: hsl(269, 55%, 50%);" id="2799"  d=" M  71.113,527.5  L  71.113,660.25  C  71.113,687.864  93.499,710.25  121.113,710.25  L  181.338,710.25  C  208.952,710.25  231.338,687.864  231.338,660.25  L  231.338,527.5  L  71.113,527.5  z " />
<path transform="translate( 0, 0 )" style="stroke: hsl(295.9, 55%, 50%);" id="3079"  d=" M  71.113,527.5  L  71.113,660.25  C  71.113,687.864  93.499,710.25  121.113,710.25  L  181.338,710.25  C  208.952,710.25  231.338,687.864  231.338,660.25  L  231.338,527.5  L  71.113,527.5  z " />
    </g>
    <!-- End of group #pocket -->
    
    <!-- Start of group #pocketFlap -->
    <g id="pocketFlap"  transform=" translate(-65.059 -510.045)  translate(1202.405 945.992) " >
        <path class="hidden" id="13"  d=" M  70.059,515.045  L  232.392,515.045  L  232.392,581.13  L  70.059,581.13  z " />
<path transform="translate( 0, 0 )" style="stroke: hsl(26.9, 55%, 50%);" id="280"  d=" M  70.059,515.045  L  73.113,551.13  C  74.51,567.64  86.544,581.13  103.113,581.13  L  199.338,581.13  C  215.907,581.13  227.941,567.64  229.338,551.13  L  232.392,515.045  z " />
<path transform="translate( 0, 0 )" style="stroke: hsl(53.8, 55%, 50%);" id="560"  d=" M  70.059,515.045  L  73.113,551.13  C  74.51,567.64  86.544,581.13  103.113,581.13  L  199.338,581.13  C  215.907,581.13  227.941,567.64  229.338,551.13  L  232.392,515.045  z " />
<path transform="translate( 0, 0 )" style="stroke: hsl(80.7, 55%, 50%);" id="840"  d=" M  70.059,515.045  L  73.113,551.13  C  74.51,567.64  86.544,581.13  103.113,581.13  L  199.338,581.13  C  215.907,581.13  227.941,567.64  229.338,551.13  L  232.392,515.045  z " />
<path transform="translate( 0, 0 )" style="stroke: hsl(107.6, 55%, 50%);" id="1120"  d=" M  70.059,515.045  L  73.113,551.13  C  74.51,567.64  86.544,581.13  103.113,581.13  L  199.338,581.13  C  215.907,581.13  227.941,567.64  229.338,551.13  L  232.392,515.045  z " />
<path transform="translate( 0, 0 )" style="stroke: hsl(134.5, 55%, 50%);" id="1400"  d=" M  70.059,515.045  L  73.113,551.13  C  74.51,567.64  86.544,581.13  103.113,581.13  L  199.338,581.13  C  215.907,581.13  227.941,567.64  229.338,551.13  L  232.392,515.045  z " />
<path transform="translate( 0, 0 )" style="stroke: hsl(161.4, 55%, 50%);" id="1680"  d=" M  70.059,515.045  L  73.113,551.13  C  74.51,567.64  86.544,581.13  103.113,581.13  L  199.338,581.13  C  215.907,581.13  227.941,567.64  229.338,551.13  L  232.392,515.045  z " />
<path transform="translate( 0, 0 )" style="stroke: hsl(188.3, 55%, 50%);" id="1960"  d=" M  70.059,515.045  L  73.113,551.13  C  74.51,567.64  86.544,581.13  103.113,581.13  L  199.338,581.13  C  215.907,581.13  227.941,567.64  229.338,551.13  L  232.392,515.045  z " />
<path transform="translate( 0, 0 )" style="stroke: hsl(215.2, 55%, 50%);" id="2240"  d=" M  70.059,515.045  L  73.113,551.13  C  74.51,567.64  86.544,581.13  103.113,581.13  L  199.338,581.13  C  215.907,581.13  227.941,567.64  229.338,551.13  L  232.392,515.045  z " />
<path transform="translate( 0, 0 )" style="stroke: hsl(242.1, 55%, 50%);" id="2520"  d=" M  70.059,515.045  L  73.113,551.13  C  74.51,567.64  86.544,581.13  103.113,581.13  L  199.338,581.13  C  215.907,581.13  227.941,567.64  229.338,551.13  L  232.392,515.045  z " />
<path transform="translate( 0, 0 )" style="stroke: hsl(269, 55%, 50%);" id="2800"  d=" M  70.059,515.045  L  73.113,551.13  C  74.51,567.64  86.544,581.13  103.113,581.13  L  199.338,581.13  C  215.907,581.13  227.941,567.64  229.338,551.13  L  232.392,515.045  z " />
<path transform="translate( 0, 0 )" style="stroke: hsl(295.9, 55%, 50%);" id="3080"  d=" M  70.059,515.045  L  73.113,551.13  C  74.51,567.64  86.544,581.13  103.113,581.13  L  199.338,581.13  C  215.907,581.13  227.941,567.64  229.338,551.13  L  232.392,515.045  z " />
    </g>
    <!-- End of group #pocketFlap -->
    
    <!-- Start of group #chestPocketWelt -->
    <g id="chestPocketWelt"  transform=" translate(5 5)  translate(1355.48 140) " >
        <path class="hidden" id="14"  d=" M  0,0  L  33.15,0  L  33.15,147.56  L  0,147.56  z " />
<path transform="translate( 0, 0 )" style="stroke: hsl(26.9, 55%, 50%);" id="281"  d=" M  0,0  L  33.15,0  L  33.15,147.56  L  0,147.56  L  0,0  z " />
<path transform="translate( 0, 0 )" style="stroke: hsl(53.8, 55%, 50%);" id="561"  d=" M  0,0  L  33.15,0  L  33.15,147.56  L  0,147.56  L  0,0  z " />
<path transform="translate( 0, 0 )" style="stroke: hsl(80.7, 55%, 50%);" id="841"  d=" M  0,0  L  33.15,0  L  33.15,147.56  L  0,147.56  L  0,0  z " />
<path transform="translate( 0, 0 )" style="stroke: hsl(107.6, 55%, 50%);" id="1121"  d=" M  0,0  L  33.15,0  L  33.15,147.56  L  0,147.56  L  0,0  z " />
<path transform="translate( 0, 0 )" style="stroke: hsl(134.5, 55%, 50%);" id="1401"  d=" M  0,0  L  33.15,0  L  33.15,147.56  L  0,147.56  L  0,0  z " />
<path transform="translate( 0, 0 )" style="stroke: hsl(161.4, 55%, 50%);" id="1681"  d=" M  0,0  L  33.15,0  L  33.15,147.56  L  0,147.56  L  0,0  z " />
<path transform="translate( 0, 0 )" style="stroke: hsl(188.3, 55%, 50%);" id="1961"  d=" M  0,0  L  33.15,0  L  33.15,147.56  L  0,147.56  L  0,0  z " />
<path transform="translate( 0, 0 )" style="stroke: hsl(215.2, 55%, 50%);" id="2241"  d=" M  0,0  L  33.15,0  L  33.15,147.56  L  0,147.56  L  0,0  z " />
<path transform="translate( 0, 0 )" style="stroke: hsl(242.1, 55%, 50%);" id="2521"  d=" M  0,0  L  33.15,0  L  33.15,147.56  L  0,147.56  L  0,0  z " />
<path transform="translate( 0, 0 )" style="stroke: hsl(269, 55%, 50%);" id="2801"  d=" M  0,0  L  33.15,0  L  33.15,147.56  L  0,147.56  L  0,0  z " />
<path transform="translate( 0, 0 )" style="stroke: hsl(295.9, 55%, 50%);" id="3081"  d=" M  0,0  L  33.15,0  L  33.15,147.56  L  0,147.56  L  0,0  z " />
    </g>
    <!-- End of group #chestPocketWelt -->
    
    <!-- Start of group #sampler-frontPanel -->
    <g id="sampler-frontPanel" >
    </g>
    <!-- End of group #sampler-frontPanel -->
    
    <!-- Start of group #sampler-sidePanel -->
    <g id="sampler-sidePanel" >
    </g>
    <!-- End of group #sampler-sidePanel -->
    
    <!-- Start of group #sampler-back -->
    <g id="sampler-back" >
    </g>
    <!-- End of group #sampler-back -->
    
    <!-- Start of group #sampler-tail -->
    <g id="sampler-tail" >
    </g>
    <!-- End of group #sampler-tail -->
    
    <!-- Start of group #sampler-topsleeve -->
    <g id="sampler-topsleeve" >
    </g>
    <!-- End of group #sampler-topsleeve -->
    
    <!-- Start of group #sampler-undersleeve -->
    <g id="sampler-undersleeve" >
    </g>
    <!-- End of group #sampler-undersleeve -->
    
    <!-- Start of group #sampler-belt -->
    <g id="sampler-belt" >
    </g>
    <!-- End of group #sampler-belt -->
    
    <!-- Start of group #sampler-collarStand -->
    <g id="sampler-collarStand" >
    </g>
    <!-- End of group #sampler-collarStand -->
    
    <!-- Start of group #sampler-collar -->
    <g id="sampler-collar" >
    </g>
    <!-- End of group #sampler-collar -->
    
    <!-- Start of group #sampler-cuffFacing -->
    <g id="sampler-cuffFacing" >
    </g>
    <!-- End of group #sampler-cuffFacing -->
    
    <!-- Start of group #sampler-pocket -->
    <g id="sampler-pocket" >
    </g>
    <!-- End of group #sampler-pocket -->
    
    <!-- Start of group #sampler-pocketFlap -->
    <g id="sampler-pocketFlap" >
    </g>
    <!-- End of group #sampler-pocketFlap -->
    
    <!-- Start of group #sampler-chestPocketWelt -->
    <g id="sampler-chestPocketWelt" >
    </g>
    <!-- End of group #sampler-chestPocketWelt -->
</g>
<!-- End of group #patternContainer -->

</svg>

