<?xml version="1.0" encoding="UTF-8" standalone="no"?>
<svg
    xmlns="http://www.w3.org/2000/svg"
    xmlns:svg="http://www.w3.org/2000/svg"
    xmlns:xlink="http://www.w3.org/1999/xlink"
    xmlns:freesewing="http://freesewing.org/namespaces/freesewing" viewBox ="0 0 1417 1186"
    width ="1417mm"
    height ="1186mm"
    freesewing:version ="1.5.0"
    freesewing:origin ="joost.core.freesewing.org" 
>

<style type="text/css">
    <![CDATA[
    path { fill: none; stroke: #000000; stroke-opacity:1; stroke-width: 0.5; stroke-miterlimit:4; stroke-dashoffset:0; stroke-linecap:round; stroke-linejoin:round; }
    path.hidden { fill: none; stroke: none; }]]>
</style>


<!-- Start of group #patternContainer -->
<g id="patternContainer" >
    
    <!-- Start of group #backBlock -->
    <g id="backBlock" >
    </g>
    <!-- End of group #backBlock -->
    
    <!-- Start of group #frontBlock -->
    <g id="frontBlock" >
    </g>
    <!-- End of group #frontBlock -->
    
    <!-- Start of group #sleeveBlock -->
    <g id="sleeveBlock" >
    </g>
    <!-- End of group #sleeveBlock -->
    
    <!-- Start of group #topsleeveBlock -->
    <g id="topsleeveBlock" >
    </g>
    <!-- End of group #topsleeveBlock -->
    
    <!-- Start of group #undersleeveBlock -->
    <g id="undersleeveBlock" >
    </g>
    <!-- End of group #undersleeveBlock -->
    
    <!-- Start of group #front -->
    <g id="front" >
    </g>
    <!-- End of group #front -->
    
    <!-- Start of group #frontPs -->
    <g id="frontPs" >
    </g>
    <!-- End of group #frontPs -->
    
    <!-- Start of group #frontPanel -->
    <g id="frontPanel"  transform=" translate(76.113 5)  translate(0 0) " >
        <path class="hidden" id="2"  d=" M  -71.113,0  L  217.5,0  L  217.5,1175.9  L  -71.113,1175.9  z " />
<path transform="translate( 0, 0 )" style="stroke: hsl(26.9, 55%, 50%);" id="268"  d=" M  -67.103,87  C  -67.103,87  -71.113,127.1  -71.113,287.5  L  -71.113,1175.9  L  96.087,1175.9  L  96.087,285  C  96.087,230.593  163.922,185.816  212.5,153.75  C  212.5,109.167  216.116,29.904  217.5,20  L  74.38,0  C  71.612,19.808  74.38,87  0,87  L  -67.103,87  z " />
<path transform="translate( 0, 0 )" style="stroke: hsl(53.8, 55%, 50%);" id="548"  d=" M  -67.103,87  C  -67.103,87  -71.113,127.1  -71.113,287.5  L  -71.113,1175.9  L  96.087,1175.9  L  96.087,285  C  96.087,230.593  163.922,185.816  212.5,153.75  C  212.5,109.167  216.116,29.904  217.5,20  L  74.38,0  C  71.612,19.808  74.38,87  0,87  L  -67.103,87  z " />
<path transform="translate( 0, 0 )" style="stroke: hsl(80.7, 55%, 50%);" id="828"  d=" M  -67.103,87  C  -67.103,87  -71.113,127.1  -71.113,287.5  L  -71.113,1175.9  L  96.087,1175.9  L  96.087,285  C  96.087,230.593  163.922,185.816  212.5,153.75  C  212.5,109.167  216.116,29.904  217.5,20  L  74.38,0  C  71.612,19.808  74.38,87  0,87  L  -67.103,87  z " />
<path transform="translate( 0, 0 )" style="stroke: hsl(107.6, 55%, 50%);" id="1108"  d=" M  -67.103,87  C  -67.103,87  -71.113,127.1  -71.113,287.5  L  -71.113,1175.9  L  96.087,1175.9  L  96.087,285  C  96.087,230.593  163.922,185.816  212.5,153.75  C  212.5,109.167  216.116,29.904  217.5,20  L  74.38,0  C  71.612,19.808  74.38,87  0,87  L  -67.103,87  z " />
<path transform="translate( 0, 0 )" style="stroke: hsl(134.5, 55%, 50%);" id="1388"  d=" M  -67.103,87  C  -67.103,87  -71.113,127.1  -71.113,287.5  L  -71.113,1175.9  L  96.087,1175.9  L  96.087,285  C  96.087,230.593  163.922,185.816  212.5,153.75  C  212.5,109.167  216.116,29.904  217.5,20  L  74.38,0  C  71.612,19.808  74.38,87  0,87  L  -67.103,87  z " />
<path transform="translate( 0, 0 )" style="stroke: hsl(161.4, 55%, 50%);" id="1668"  d=" M  -67.103,87  C  -67.103,87  -71.113,127.1  -71.113,287.5  L  -71.113,1175.9  L  96.087,1175.9  L  96.087,285  C  96.087,230.593  163.922,185.816  212.5,153.75  C  212.5,109.167  216.116,29.904  217.5,20  L  74.38,0  C  71.612,19.808  74.38,87  0,87  L  -67.103,87  z " />
<path transform="translate( 0, 0 )" style="stroke: hsl(188.3, 55%, 50%);" id="1948"  d=" M  -67.103,87  C  -67.103,87  -71.113,127.1  -71.113,287.5  L  -71.113,1175.9  L  96.087,1175.9  L  96.087,285  C  96.087,230.593  163.922,185.816  212.5,153.75  C  212.5,109.167  216.116,29.904  217.5,20  L  74.38,0  C  71.612,19.808  74.38,87  0,87  L  -67.103,87  z " />
<path transform="translate( 0, 0 )" style="stroke: hsl(215.2, 55%, 50%);" id="2228"  d=" M  -67.103,87  C  -67.103,87  -71.113,127.1  -71.113,287.5  L  -71.113,1175.9  L  96.087,1175.9  L  96.087,285  C  96.087,230.593  163.922,185.816  212.5,153.75  C  212.5,109.167  216.116,29.904  217.5,20  L  74.38,0  C  71.612,19.808  74.38,87  0,87  L  -67.103,87  z " />
<path transform="translate( 0, 0 )" style="stroke: hsl(242.1, 55%, 50%);" id="2508"  d=" M  -67.103,87  C  -67.103,87  -71.113,127.1  -71.113,287.5  L  -71.113,1175.9  L  96.087,1175.9  L  96.087,285  C  96.087,230.593  163.922,185.816  212.5,153.75  C  212.5,109.167  216.116,29.904  217.5,20  L  74.38,0  C  71.612,19.808  74.38,87  0,87  L  -67.103,87  z " />
<path transform="translate( 0, 0 )" style="stroke: hsl(269, 55%, 50%);" id="2788"  d=" M  -67.103,87  C  -67.103,87  -71.113,127.1  -71.113,287.5  L  -71.113,1175.9  L  96.087,1175.9  L  96.087,285  C  96.087,230.593  163.922,185.816  212.5,153.75  C  212.5,109.167  216.116,29.904  217.5,20  L  74.38,0  C  71.612,19.808  74.38,87  0,87  L  -67.103,87  z " />
<path transform="translate( 0, 0 )" style="stroke: hsl(295.9, 55%, 50%);" id="3068"  d=" M  -67.103,87  C  -67.103,87  -71.113,127.1  -71.113,287.5  L  -71.113,1175.9  L  96.087,1175.9  L  96.087,285  C  96.087,230.593  163.922,185.816  212.5,153.75  C  212.5,109.167  216.116,29.904  217.5,20  L  74.38,0  C  71.612,19.808  74.38,87  0,87  L  -67.103,87  z " />
    </g>
    <!-- End of group #frontPanel -->
    
    <!-- Start of group #sidePanel -->
    <g id="sidePanel"  transform=" translate(-95.048 -171.055)  translate(298.613 0) " >
        <path class="hidden" id="3"  d=" M  100.048,176.055  L  332.094,176.055  L  332.094,1165.341  L  100.048,1165.341  z " />
<path transform="translate( 0, 0 )" style="stroke: hsl(26.9, 55%, 50%);" id="269"  d=" M  307.113,308.942  C  293.365,309.136  285.3,303.543  271.328,289.96  C  257.354,276.378  245.856,220.635  245.224,176.055  C  190.691,196.408  114.542,224.83  102.338,277.85  C  90.134,330.87  130.683,330.87  130.683,511.687  L  130.683,1165.34  L  332.094,1165.341  L  332.094,793.942  C  332.095,678.941  288.97,495.191  288.971,433.941  C  288.969,372.691  307.095,319.097  307.113,308.942  z " />
<path transform="translate( 0, 0 )" style="stroke: hsl(53.8, 55%, 50%);" id="549"  d=" M  307.113,308.942  C  293.365,309.136  285.3,303.543  271.328,289.96  C  257.354,276.378  245.856,220.635  245.224,176.055  C  190.691,196.408  114.542,224.83  102.338,277.85  C  90.134,330.87  130.683,330.87  130.683,511.687  L  130.683,1165.34  L  332.094,1165.341  L  332.094,793.942  C  332.095,678.941  288.97,495.191  288.971,433.941  C  288.969,372.691  307.095,319.097  307.113,308.942  z " />
<path transform="translate( 0, 0 )" style="stroke: hsl(80.7, 55%, 50%);" id="829"  d=" M  307.113,308.942  C  293.365,309.136  285.3,303.543  271.328,289.96  C  257.354,276.378  245.856,220.635  245.224,176.055  C  190.691,196.408  114.542,224.83  102.338,277.85  C  90.134,330.87  130.683,330.87  130.683,511.687  L  130.683,1165.34  L  332.094,1165.341  L  332.094,793.942  C  332.095,678.941  288.97,495.191  288.971,433.941  C  288.969,372.691  307.095,319.097  307.113,308.942  z " />
<path transform="translate( 0, 0 )" style="stroke: hsl(107.6, 55%, 50%);" id="1109"  d=" M  307.113,308.942  C  293.365,309.136  285.3,303.543  271.328,289.96  C  257.354,276.378  245.856,220.635  245.224,176.055  C  190.691,196.408  114.542,224.83  102.338,277.85  C  90.134,330.87  130.683,330.87  130.683,511.687  L  130.683,1165.34  L  332.094,1165.341  L  332.094,793.942  C  332.095,678.941  288.97,495.191  288.971,433.941  C  288.969,372.691  307.095,319.097  307.113,308.942  z " />
<path transform="translate( 0, 0 )" style="stroke: hsl(134.5, 55%, 50%);" id="1389"  d=" M  307.113,308.942  C  293.365,309.136  285.3,303.543  271.328,289.96  C  257.354,276.378  245.856,220.635  245.224,176.055  C  190.691,196.408  114.542,224.83  102.338,277.85  C  90.134,330.87  130.683,330.87  130.683,511.687  L  130.683,1165.34  L  332.094,1165.341  L  332.094,793.942  C  332.095,678.941  288.97,495.191  288.971,433.941  C  288.969,372.691  307.095,319.097  307.113,308.942  z " />
<path transform="translate( 0, 0 )" style="stroke: hsl(161.4, 55%, 50%);" id="1669"  d=" M  307.113,308.942  C  293.365,309.136  285.3,303.543  271.328,289.96  C  257.354,276.378  245.856,220.635  245.224,176.055  C  190.691,196.408  114.542,224.83  102.338,277.85  C  90.134,330.87  130.683,330.87  130.683,511.687  L  130.683,1165.34  L  332.094,1165.341  L  332.094,793.942  C  332.095,678.941  288.97,495.191  288.971,433.941  C  288.969,372.691  307.095,319.097  307.113,308.942  z " />
<path transform="translate( 0, 0 )" style="stroke: hsl(188.3, 55%, 50%);" id="1949"  d=" M  307.113,308.942  C  293.365,309.136  285.3,303.543  271.328,289.96  C  257.354,276.378  245.856,220.635  245.224,176.055  C  190.691,196.408  114.542,224.83  102.338,277.85  C  90.134,330.87  130.683,330.87  130.683,511.687  L  130.683,1165.34  L  332.094,1165.341  L  332.094,793.942  C  332.095,678.941  288.97,495.191  288.971,433.941  C  288.969,372.691  307.095,319.097  307.113,308.942  z " />
<path transform="translate( 0, 0 )" style="stroke: hsl(215.2, 55%, 50%);" id="2229"  d=" M  307.113,308.942  C  293.365,309.136  285.3,303.543  271.328,289.96  C  257.354,276.378  245.856,220.635  245.224,176.055  C  190.691,196.408  114.542,224.83  102.338,277.85  C  90.134,330.87  130.683,330.87  130.683,511.687  L  130.683,1165.34  L  332.094,1165.341  L  332.094,793.942  C  332.095,678.941  288.97,495.191  288.971,433.941  C  288.969,372.691  307.095,319.097  307.113,308.942  z " />
<path transform="translate( 0, 0 )" style="stroke: hsl(242.1, 55%, 50%);" id="2509"  d=" M  307.113,308.942  C  293.365,309.136  285.3,303.543  271.328,289.96  C  257.354,276.378  245.856,220.635  245.224,176.055  C  190.691,196.408  114.542,224.83  102.338,277.85  C  90.134,330.87  130.683,330.87  130.683,511.687  L  130.683,1165.34  L  332.094,1165.341  L  332.094,793.942  C  332.095,678.941  288.97,495.191  288.971,433.941  C  288.969,372.691  307.095,319.097  307.113,308.942  z " />
<path transform="translate( 0, 0 )" style="stroke: hsl(269, 55%, 50%);" id="2789"  d=" M  307.113,308.942  C  293.365,309.136  285.3,303.543  271.328,289.96  C  257.354,276.378  245.856,220.635  245.224,176.055  C  190.691,196.408  114.542,224.83  102.338,277.85  C  90.134,330.87  130.683,330.87  130.683,511.687  L  130.683,1165.34  L  332.094,1165.341  L  332.094,793.942  C  332.095,678.941  288.97,495.191  288.971,433.941  C  288.969,372.691  307.095,319.097  307.113,308.942  z " />
<path transform="translate( 0, 0 )" style="stroke: hsl(295.9, 55%, 50%);" id="3069"  d=" M  307.113,308.942  C  293.365,309.136  285.3,303.543  271.328,289.96  C  257.354,276.378  245.856,220.635  245.224,176.055  C  190.691,196.408  114.542,224.83  102.338,277.85  C  90.134,330.87  130.683,330.87  130.683,511.687  L  130.683,1165.34  L  332.094,1165.341  L  332.094,793.942  C  332.095,678.941  288.97,495.191  288.971,433.941  C  288.969,372.691  307.095,319.097  307.113,308.942  z " />
    </g>
    <!-- End of group #sidePanel -->
    
    <!-- Start of group #back -->
    <g id="back"  transform=" translate(45.8 5)  translate(1029.813 140) " >
        <path class="hidden" id="4"  d=" M  -40.8,0  L  272.5,0  L  272.5,375  L  -40.8,375  z " />
<path transform="translate( 0, 0 )" style="stroke: hsl(26.9, 55%, 50%);" id="270"  d=" M  0,20  L  0,153.75  L  -40.8,153.75  L  -40.8,375  L  83.625,375  C  83.625,331.25  101.75,287.5  101.75,287.5  C  101.75,287.5  119.875,331.25  119.875,375  L  254.375,375  C  254.375,348.75  272.5,295.156  272.5,287.5  C  258.75,287.5  250.766,281.792  236.987,268.013  C  223.208,254.234  217.5,198.333  217.5,153.75  C  217.5,109.167  216.116,29.904  217.5,20  L  74.38,0  C  71.612,19.808  0,20  0,20  z " />
<path transform="translate( 0, 0 )" style="stroke: hsl(53.8, 55%, 50%);" id="550"  d=" M  0,20  L  0,153.75  L  -40.8,153.75  L  -40.8,375  L  83.625,375  C  83.625,331.25  101.75,287.5  101.75,287.5  C  101.75,287.5  119.875,331.25  119.875,375  L  254.375,375  C  254.375,348.75  272.5,295.156  272.5,287.5  C  258.75,287.5  250.766,281.792  236.987,268.013  C  223.208,254.234  217.5,198.333  217.5,153.75  C  217.5,109.167  216.116,29.904  217.5,20  L  74.38,0  C  71.612,19.808  0,20  0,20  z " />
<path transform="translate( 0, 0 )" style="stroke: hsl(80.7, 55%, 50%);" id="830"  d=" M  0,20  L  0,153.75  L  -40.8,153.75  L  -40.8,375  L  83.625,375  C  83.625,331.25  101.75,287.5  101.75,287.5  C  101.75,287.5  119.875,331.25  119.875,375  L  254.375,375  C  254.375,348.75  272.5,295.156  272.5,287.5  C  258.75,287.5  250.766,281.792  236.987,268.013  C  223.208,254.234  217.5,198.333  217.5,153.75  C  217.5,109.167  216.116,29.904  217.5,20  L  74.38,0  C  71.612,19.808  0,20  0,20  z " />
<path transform="translate( 0, 0 )" style="stroke: hsl(107.6, 55%, 50%);" id="1110"  d=" M  0,20  L  0,153.75  L  -40.8,153.75  L  -40.8,375  L  83.625,375  C  83.625,331.25  101.75,287.5  101.75,287.5  C  101.75,287.5  119.875,331.25  119.875,375  L  254.375,375  C  254.375,348.75  272.5,295.156  272.5,287.5  C  258.75,287.5  250.766,281.792  236.987,268.013  C  223.208,254.234  217.5,198.333  217.5,153.75  C  217.5,109.167  216.116,29.904  217.5,20  L  74.38,0  C  71.612,19.808  0,20  0,20  z " />
<path transform="translate( 0, 0 )" style="stroke: hsl(134.5, 55%, 50%);" id="1390"  d=" M  0,20  L  0,153.75  L  -40.8,153.75  L  -40.8,375  L  83.625,375  C  83.625,331.25  101.75,287.5  101.75,287.5  C  101.75,287.5  119.875,331.25  119.875,375  L  254.375,375  C  254.375,348.75  272.5,295.156  272.5,287.5  C  258.75,287.5  250.766,281.792  236.987,268.013  C  223.208,254.234  217.5,198.333  217.5,153.75  C  217.5,109.167  216.116,29.904  217.5,20  L  74.38,0  C  71.612,19.808  0,20  0,20  z " />
<path transform="translate( 0, 0 )" style="stroke: hsl(161.4, 55%, 50%);" id="1670"  d=" M  0,20  L  0,153.75  L  -40.8,153.75  L  -40.8,375  L  83.625,375  C  83.625,331.25  101.75,287.5  101.75,287.5  C  101.75,287.5  119.875,331.25  119.875,375  L  254.375,375  C  254.375,348.75  272.5,295.156  272.5,287.5  C  258.75,287.5  250.766,281.792  236.987,268.013  C  223.208,254.234  217.5,198.333  217.5,153.75  C  217.5,109.167  216.116,29.904  217.5,20  L  74.38,0  C  71.612,19.808  0,20  0,20  z " />
<path transform="translate( 0, 0 )" style="stroke: hsl(188.3, 55%, 50%);" id="1950"  d=" M  0,20  L  0,153.75  L  -40.8,153.75  L  -40.8,375  L  83.625,375  C  83.625,331.25  101.75,287.5  101.75,287.5  C  101.75,287.5  119.875,331.25  119.875,375  L  254.375,375  C  254.375,348.75  272.5,295.156  272.5,287.5  C  258.75,287.5  250.766,281.792  236.987,268.013  C  223.208,254.234  217.5,198.333  217.5,153.75  C  217.5,109.167  216.116,29.904  217.5,20  L  74.38,0  C  71.612,19.808  0,20  0,20  z " />
<path transform="translate( 0, 0 )" style="stroke: hsl(215.2, 55%, 50%);" id="2230"  d=" M  0,20  L  0,153.75  L  -40.8,153.75  L  -40.8,375  L  83.625,375  C  83.625,331.25  101.75,287.5  101.75,287.5  C  101.75,287.5  119.875,331.25  119.875,375  L  254.375,375  C  254.375,348.75  272.5,295.156  272.5,287.5  C  258.75,287.5  250.766,281.792  236.987,268.013  C  223.208,254.234  217.5,198.333  217.5,153.75  C  217.5,109.167  216.116,29.904  217.5,20  L  74.38,0  C  71.612,19.808  0,20  0,20  z " />
<path transform="translate( 0, 0 )" style="stroke: hsl(242.1, 55%, 50%);" id="2510"  d=" M  0,20  L  0,153.75  L  -40.8,153.75  L  -40.8,375  L  83.625,375  C  83.625,331.25  101.75,287.5  101.75,287.5  C  101.75,287.5  119.875,331.25  119.875,375  L  254.375,375  C  254.375,348.75  272.5,295.156  272.5,287.5  C  258.75,287.5  250.766,281.792  236.987,268.013  C  223.208,254.234  217.5,198.333  217.5,153.75  C  217.5,109.167  216.116,29.904  217.5,20  L  74.38,0  C  71.612,19.808  0,20  0,20  z " />
<path transform="translate( 0, 0 )" style="stroke: hsl(269, 55%, 50%);" id="2790"  d=" M  0,20  L  0,153.75  L  -40.8,153.75  L  -40.8,375  L  83.625,375  C  83.625,331.25  101.75,287.5  101.75,287.5  C  101.75,287.5  119.875,331.25  119.875,375  L  254.375,375  C  254.375,348.75  272.5,295.156  272.5,287.5  C  258.75,287.5  250.766,281.792  236.987,268.013  C  223.208,254.234  217.5,198.333  217.5,153.75  C  217.5,109.167  216.116,29.904  217.5,20  L  74.38,0  C  71.612,19.808  0,20  0,20  z " />
<path transform="translate( 0, 0 )" style="stroke: hsl(295.9, 55%, 50%);" id="3070"  d=" M  0,20  L  0,153.75  L  -40.8,153.75  L  -40.8,375  L  83.625,375  C  83.625,331.25  101.75,287.5  101.75,287.5  C  101.75,287.5  119.875,331.25  119.875,375  L  254.375,375  C  254.375,348.75  272.5,295.156  272.5,287.5  C  258.75,287.5  250.766,281.792  236.987,268.013  C  223.208,254.234  217.5,198.333  217.5,153.75  C  217.5,109.167  216.116,29.904  217.5,20  L  74.38,0  C  71.612,19.808  0,20  0,20  z " />
    </g>
    <!-- End of group #back -->
    
    <!-- Start of group #tail -->
    <g id="tail"  transform=" translate(164.04 5)  translate(1029.813 0) " >
        <path class="hidden" id="5"  d=" M  -159.04,0  L  218.125,0  L  218.125,130  L  -159.04,130  z " />
<path transform="translate( 0, 0 )" style="stroke: hsl(26.9, 55%, 50%);" id="271"  d=" M  -159.04,50  -159.04,0  L  0,0  L  218.125,0  L  218.125,50 " />
<path transform="translate( 0, 0 )" style="stroke: hsl(26.9, 55%, 50%);" id="272"  d=" M  -159.04,80  -159.04,130  L  -0,130  L  218.125,130  L  218.125,80 " />
<path transform="translate( 0, 0 )" style="stroke: hsl(53.8, 55%, 50%);" id="551"  d=" M  -159.04,50  -159.04,0  L  0,0  L  218.125,0  L  218.125,50 " />
<path transform="translate( 0, 0 )" style="stroke: hsl(53.8, 55%, 50%);" id="552"  d=" M  -159.04,80  -159.04,130  L  -0,130  L  218.125,130  L  218.125,80 " />
<path transform="translate( 0, 0 )" style="stroke: hsl(80.7, 55%, 50%);" id="831"  d=" M  -159.04,50  -159.04,0  L  0,0  L  218.125,0  L  218.125,50 " />
<path transform="translate( 0, 0 )" style="stroke: hsl(80.7, 55%, 50%);" id="832"  d=" M  -159.04,80  -159.04,130  L  -0,130  L  218.125,130  L  218.125,80 " />
<path transform="translate( 0, 0 )" style="stroke: hsl(107.6, 55%, 50%);" id="1111"  d=" M  -159.04,50  -159.04,0  L  0,0  L  218.125,0  L  218.125,50 " />
<path transform="translate( 0, 0 )" style="stroke: hsl(107.6, 55%, 50%);" id="1112"  d=" M  -159.04,80  -159.04,130  L  -0,130  L  218.125,130  L  218.125,80 " />
<path transform="translate( 0, 0 )" style="stroke: hsl(134.5, 55%, 50%);" id="1391"  d=" M  -159.04,50  -159.04,0  L  0,0  L  218.125,0  L  218.125,50 " />
<path transform="translate( 0, 0 )" style="stroke: hsl(134.5, 55%, 50%);" id="1392"  d=" M  -159.04,80  -159.04,130  L  -0,130  L  218.125,130  L  218.125,80 " />
<path transform="translate( 0, 0 )" style="stroke: hsl(161.4, 55%, 50%);" id="1671"  d=" M  -159.04,50  -159.04,0  L  0,0  L  218.125,0  L  218.125,50 " />
<path transform="translate( 0, 0 )" style="stroke: hsl(161.4, 55%, 50%);" id="1672"  d=" M  -159.04,80  -159.04,130  L  -0,130  L  218.125,130  L  218.125,80 " />
<path transform="translate( 0, 0 )" style="stroke: hsl(188.3, 55%, 50%);" id="1951"  d=" M  -159.04,50  -159.04,0  L  0,0  L  218.125,0  L  218.125,50 " />
<path transform="translate( 0, 0 )" style="stroke: hsl(188.3, 55%, 50%);" id="1952"  d=" M  -159.04,80  -159.04,130  L  -0,130  L  218.125,130  L  218.125,80 " />
<path transform="translate( 0, 0 )" style="stroke: hsl(215.2, 55%, 50%);" id="2231"  d=" M  -159.04,50  -159.04,0  L  0,0  L  218.125,0  L  218.125,50 " />
<path transform="translate( 0, 0 )" style="stroke: hsl(215.2, 55%, 50%);" id="2232"  d=" M  -159.04,80  -159.04,130  L  -0,130  L  218.125,130  L  218.125,80 " />
<path transform="translate( 0, 0 )" style="stroke: hsl(242.1, 55%, 50%);" id="2511"  d=" M  -159.04,50  -159.04,0  L  0,0  L  218.125,0  L  218.125,50 " />
<path transform="translate( 0, 0 )" style="stroke: hsl(242.1, 55%, 50%);" id="2512"  d=" M  -159.04,80  -159.04,130  L  -0,130  L  218.125,130  L  218.125,80 " />
<path transform="translate( 0, 0 )" style="stroke: hsl(269, 55%, 50%);" id="2791"  d=" M  -159.04,50  -159.04,0  L  0,0  L  218.125,0  L  218.125,50 " />
<path transform="translate( 0, 0 )" style="stroke: hsl(269, 55%, 50%);" id="2792"  d=" M  -159.04,80  -159.04,130  L  -0,130  L  218.125,130  L  218.125,80 " />
<path transform="translate( 0, 0 )" style="stroke: hsl(295.9, 55%, 50%);" id="3071"  d=" M  -159.04,50  -159.04,0  L  0,0  L  218.125,0  L  218.125,50 " />
<path transform="translate( 0, 0 )" style="stroke: hsl(295.9, 55%, 50%);" id="3072"  d=" M  -159.04,80  -159.04,130  L  -0,130  L  218.125,130  L  218.125,80 " />
    </g>
    <!-- End of group #tail -->
    
    <!-- Start of group #topsleeve -->
    <g id="topsleeve"  transform=" translate(152.949 5)  translate(540.659 0) " >
        <path class="hidden" id="6"  d=" M  -147.949,0  L  120.49,0  L  120.49,671.84  L  -147.949,671.84  z " />
<path transform="translate( 0, 0 )" style="stroke: hsl(26.9, 55%, 50%);" id="273"  d=" M  107.858,340  C  114.364,303.1  119.842,220  119.842,165  C  119.842,110  107.858,55  107.858,55  C  107.858,55  67.411,0  0,0  C  -67.411,0  -98.87,55  -107.858,99  C  -116.846,143  -121.34,165  -134.822,165  C  -134.822,165  -121.485,293.35  -119.842,340  L  -111.629,573.248  L  -117.912,660.021  L  36.506,671.202  C  48.487,672.07  58.902,663.061  59.77,651.08  L  64.482,586  z " />
<path transform="translate( -0.584, 0 )" style="stroke: hsl(53.8, 55%, 50%);" id="553"  d=" M  108.442,340  C  114.948,303.1  120.491,220  120.491,165  C  120.491,110  108.442,55  108.442,55  C  108.442,55  67.776,0  0,0  C  -67.776,0  -99.405,55  -108.442,99  C  -117.479,143  -121.997,165  -135.552,165  C  -135.552,165  -122.351,293.272  -120.491,340  L  -111.189,573.639  L  -117.275,660.426  L  37.283,671.266  C  49.266,672.106  59.661,663.073  60.501,651.09  L  65.066,586  z " />
<path transform="translate( -1.167, 0 )" style="stroke: hsl(80.7, 55%, 50%);" id="833"  d=" M  109.025,340  C  115.531,303.1  121.139,220  121.139,165  C  121.139,110  109.025,55  109.025,55  C  109.025,55  68.141,0  0,0  C  -68.141,0  -99.94,55  -109.025,99  C  -118.11,143  -122.653,165  -136.281,165  C  -136.281,165  -123.217,293.195  -121.139,340  L  -110.75,574.027  L  -116.642,660.827  L  38.057,671.327  C  50.041,672.141  60.416,663.084  61.23,651.1  L  65.649,586  z " />
<path transform="translate( -1.75, 0 )" style="stroke: hsl(107.6, 55%, 50%);" id="1113"  d=" M  109.608,340  C  116.114,303.1  121.787,220  121.787,165  C  121.787,110  109.608,55  109.608,55  C  109.608,55  68.505,0  0,0  C  -68.505,0  -100.474,55  -109.608,99  C  -118.742,143  -123.309,165  -137.01,165  C  -137.01,165  -124.082,293.116  -121.787,340  L  -110.31,574.418  L  -116.005,661.231  L  38.834,671.389  C  50.82,672.175  61.175,663.096  61.961,651.11  L  66.232,586  z " />
<path transform="translate( -2.334, 0 )" style="stroke: hsl(134.5, 55%, 50%);" id="1393"  d=" M  110.192,340  C  116.698,303.1  122.436,220  122.436,165  C  122.436,110  110.192,55  110.192,55  C  110.192,55  68.87,0  0,0  C  -68.87,0  -101.009,55  -110.192,99  C  -119.375,143  -123.966,165  -137.74,165  C  -137.74,165  -124.95,293.038  -122.436,340  L  -109.868,574.809  L  -115.367,661.635  L  39.61,671.451  C  51.598,672.21  61.933,663.107  62.692,651.119  L  66.816,586  z " />
<path transform="translate( -2.917, 0 )" style="stroke: hsl(161.4, 55%, 50%);" id="1673"  d=" M  110.775,340  C  117.281,303.1  123.083,220  123.083,165  C  123.083,110  110.775,55  110.775,55  C  110.775,55  69.234,0  0,0  C  -69.234,0  -101.544,55  -110.775,99  C  -120.006,143  -124.622,165  -138.469,165  C  -138.469,165  -125.814,292.96  -123.083,340  L  -109.426,575.2  L  -114.73,662.038  L  40.385,671.512  C  52.375,672.244  62.689,663.118  63.421,651.128  L  67.399,586  z " />
<path transform="translate( -3.5, 0 )" style="stroke: hsl(188.3, 55%, 50%);" id="1953"  d=" M  111.358,340  C  117.864,303.1  123.731,220  123.731,165  C  123.731,110  111.358,55  111.358,55  C  111.358,55  69.599,0  0,0  C  -69.599,0  -102.078,55  -111.358,99  C  -120.638,143  -125.278,165  -139.197,165  C  -139.197,165  -126.68,292.881  -123.731,340  L  -108.984,575.593  L  -114.091,662.443  L  41.163,671.573  C  53.154,672.278  63.447,663.129  64.152,651.138  L  67.982,586  z " />
<path transform="translate( -4.084, 0 )" style="stroke: hsl(215.2, 55%, 50%);" id="2233"  d=" M  111.942,340  C  118.448,303.1  124.38,220  124.38,165  C  124.38,110  111.942,55  111.942,55  C  111.942,55  69.964,0  0,0  C  -69.964,0  -102.613,55  -111.942,99  C  -121.271,143  -125.935,165  -139.927,165  C  -139.927,165  -127.548,292.803  -124.38,340  L  -108.539,575.986  L  -113.45,662.847  L  41.94,671.633  C  53.933,672.311  64.205,663.139  64.883,651.146  L  68.566,586  z " />
<path transform="translate( -4.667, 0 )" style="stroke: hsl(242.1, 55%, 50%);" id="2513"  d=" M  112.525,340  C  119.031,303.1  125.028,220  125.028,165  C  125.028,110  112.525,55  112.525,55  C  112.525,55  70.328,0  0,0  C  -70.328,0  -103.148,55  -112.525,99  C  -121.902,143  -126.591,165  -140.656,165  C  -140.656,165  -128.415,292.724  -125.028,340  L  -108.095,576.38  L  -112.81,663.252  L  42.716,671.693  C  54.71,672.344  64.962,663.148  65.613,651.154  L  69.149,586  z " />
<path transform="translate( -5.25, 0 )" style="stroke: hsl(269, 55%, 50%);" id="2793"  d=" M  113.108,340  C  119.614,303.1  125.676,220  125.676,165  C  125.676,110  113.108,55  113.108,55  C  113.108,55  70.693,0  0,0  C  -70.693,0  -103.682,55  -113.108,99  C  -122.534,143  -127.247,165  -141.385,165  C  -141.385,165  -129.281,292.645  -125.676,340  L  -107.65,576.774  L  -112.169,663.657  L  43.492,671.753  C  55.488,672.377  65.719,663.158  66.343,651.162  L  69.732,586  z " />
<path transform="translate( -5.834, 0 )" style="stroke: hsl(295.9, 55%, 50%);" id="3073"  d=" M  113.692,340  C  120.198,303.1  126.324,220  126.324,165  C  126.324,110  113.692,55  113.692,55  C  113.692,55  71.058,0  0,0  C  -71.058,0  -104.217,55  -113.692,99  C  -123.167,143  -127.904,165  -142.115,165  C  -142.115,165  -130.148,292.566  -126.324,340  L  -107.203,577.17  L  -111.525,664.063  L  44.271,671.813  C  56.268,672.409  66.478,663.167  67.074,651.17  L  70.316,586  z " />
    </g>
    <!-- End of group #topsleeve -->
    
    <!-- Start of group #undersleeve -->
    <g id="undersleeve"  transform=" translate(96.103 -50)  translate(819.098 0) " >
        <path class="hidden" id="7"  d=" M  -91.103,55  L  109.612,55  L  109.612,671.078  L  -91.103,671.078  z " />
<path transform="translate( 0, 0 )" style="stroke: hsl(26.9, 55%, 50%);" id="274"  d=" M  107.858,340  C  114.364,303.1  101.055,219.755  95.874,165  C  90.693,110.245  80.893,55  80.893,55  C  64.101,108.536  -13.482,165  -53.929,165  L  -80.894,165  C  -80.894,165  -61.845,293.466  -62.917,340  L  -68.278,572.668  L  -76.971,659.233  L  34.148,670.392  C  46.1,671.592  56.762,662.876  57.962,650.924  L  64.482,586  z " />
<path transform="translate( -0.584, 0 )" style="stroke: hsl(53.8, 55%, 50%);" id="554"  d=" M  108.442,340  C  114.948,303.1  101.601,219.753  96.393,165  C  91.185,110.247  81.331,55  81.331,55  C  64.498,108.535  -13.555,165  -54.221,165  L  -81.332,165  C  -81.332,165  -62.388,293.409  -63.258,340  L  -67.607,572.958  L  -76.118,659.541  L  34.909,670.455  C  46.863,671.63  57.508,662.891  58.683,650.937  L  65.066,586  z " />
<path transform="translate( -1.167, 0 )" style="stroke: hsl(80.7, 55%, 50%);" id="834"  d=" M  109.025,340  C  115.531,303.1  102.147,219.75  96.911,165  C  91.675,110.25  81.769,55  81.769,55  C  64.903,108.537  -13.628,165  -54.513,165  L  -81.769,165  C  -81.769,165  -62.931,293.351  -63.598,340  L  -66.934,573.247  L  -75.264,659.847  L  35.669,670.517  C  47.626,671.667  58.252,662.907  59.402,650.95  L  65.649,586  z " />
<path transform="translate( -1.75, 0 )" style="stroke: hsl(107.6, 55%, 50%);" id="1114"  d=" M  109.608,340  C  116.114,303.1  102.693,219.748  97.429,165  C  92.165,110.252  82.206,55  82.206,55  C  65.316,108.541  -13.701,165  -54.804,165  L  -82.206,165  C  -82.206,165  -63.473,293.293  -63.938,340  L  -66.261,573.536  L  -74.409,660.154  L  36.43,670.581  C  48.389,671.706  58.996,662.923  60.121,650.964  L  66.232,586  z " />
<path transform="translate( -2.334, 0 )" style="stroke: hsl(134.5, 55%, 50%);" id="1394"  d=" M  110.192,340  C  116.698,303.1  103.24,219.745  97.948,165  C  92.656,110.255  82.644,55  82.644,55  C  65.722,108.544  -13.774,165  -55.096,165  L  -82.644,165  C  -82.644,165  -64.017,293.235  -64.279,340  L  -65.587,573.824  L  -73.554,660.458  L  37.19,670.642  C  49.152,671.742  59.741,662.937  60.841,650.975  L  66.816,586  z " />
<path transform="translate( -2.917, 0 )" style="stroke: hsl(161.4, 55%, 50%);" id="1674"  d=" M  110.775,340  C  117.281,303.1  103.786,219.742  98.467,165  C  93.148,110.258  83.081,55  83.081,55  C  66.118,108.545  -13.847,165  -55.387,165  L  -83.081,165  C  -83.081,165  -64.56,293.177  -64.619,340  L  -64.913,574.113  L  -72.698,660.764  L  37.951,670.705  C  49.915,671.78  60.485,662.952  61.56,650.988  L  67.399,586  z " />
<path transform="translate( -3.5, 0 )" style="stroke: hsl(188.3, 55%, 50%);" id="1954"  d=" M  111.358,340  C  117.864,303.1  104.332,219.739  98.985,165  C  93.638,110.261  83.518,55  83.518,55  C  66.524,108.548  -13.92,165  -55.679,165  L  -83.519,165  C  -83.519,165  -65.103,293.12  -64.959,340  L  -64.238,574.4  L  -71.842,661.067  L  38.711,670.766  C  50.677,671.816  61.229,662.966  62.279,651  L  67.982,586  z " />
<path transform="translate( -4.084, 0 )" style="stroke: hsl(215.2, 55%, 50%);" id="2234"  d=" M  111.942,340  C  118.448,303.1  104.879,219.737  99.504,165  C  94.129,110.263  83.956,55  83.956,55  C  66.922,108.547  -13.993,165  -55.971,165  L  -83.957,165  C  -83.957,165  -65.647,293.063  -65.3,340  L  -63.563,574.688  L  -70.984,661.371  L  39.474,670.828  C  51.442,671.852  61.976,662.98  63,651.012  L  68.566,586  z " />
<path transform="translate( -4.667, 0 )" style="stroke: hsl(242.1, 55%, 50%);" id="2514"  d=" M  112.525,340  C  119.031,303.1  105.425,219.734  100.022,165  C  94.619,110.266  84.394,55  84.394,55  C  67.327,108.55  -14.066,165  -56.263,165  L  -84.394,165  C  -84.394,165  -66.191,293.005  -65.64,340  L  -62.887,574.975  L  -70.126,661.673  L  40.235,670.888  C  52.205,671.888  62.72,662.993  63.72,651.023  L  69.149,586  z " />
<path transform="translate( -5.25, 0 )" style="stroke: hsl(269, 55%, 50%);" id="2794"  d=" M  113.108,340  C  119.614,303.1  105.97,219.731  100.54,165  C  95.11,110.269  84.831,55  84.831,55  C  67.75,108.559  -14.139,165  -56.554,165  L  -84.831,165  C  -84.831,165  -66.734,292.947  -65.98,340  L  -62.21,575.262  L  -69.267,661.975  L  40.997,670.949  C  52.969,671.923  63.465,663.007  64.439,651.035  L  69.732,586  z " />
<path transform="translate( -5.834, 0 )" style="stroke: hsl(295.9, 55%, 50%);" id="3074"  d=" M  113.692,340  C  120.198,303.1  106.518,219.729  101.06,165  C  95.602,110.271  85.269,55  85.269,55  C  68.148,108.559  -14.212,165  -56.846,165  L  -85.269,165  C  -85.269,165  -67.278,292.89  -66.32,340  L  -61.532,575.548  L  -68.407,662.276  L  41.759,671.009  C  53.733,671.958  64.211,663.02  65.16,651.046  L  70.316,586  z " />
    </g>
    <!-- End of group #undersleeve -->
    
    <!-- Start of group #belt -->
    <g id="belt"  transform=" translate(5 5)  translate(1029.813 584.803) " >
        <path class="hidden" id="8"  d=" M  0,0  L  317.645,0  L  317.645,70  L  0,70  z " />
<path transform="translate( 0, 0 )" style="stroke: hsl(26.9, 55%, 50%);" id="275"  d=" M  317.645,0  L  10,0  C  4.477,0  0,4.477  0,10  L  0,60  C  0,65.523  4.477,70  10,70  L  317.645,70  L  317.645,0  z " />
<path transform="translate( 0, 0 )" style="stroke: hsl(53.8, 55%, 50%);" id="555"  d=" M  317.645,0  L  10,0  C  4.477,0  0,4.477  0,10  L  0,60  C  0,65.523  4.477,70  10,70  L  317.645,70  L  317.645,0  z " />
<path transform="translate( 0, 0 )" style="stroke: hsl(80.7, 55%, 50%);" id="835"  d=" M  317.645,0  L  10,0  C  4.477,0  0,4.477  0,10  L  0,60  C  0,65.523  4.477,70  10,70  L  317.645,70  L  317.645,0  z " />
<path transform="translate( 0, 0 )" style="stroke: hsl(107.6, 55%, 50%);" id="1115"  d=" M  317.645,0  L  10,0  C  4.477,0  0,4.477  0,10  L  0,60  C  0,65.523  4.477,70  10,70  L  317.645,70  L  317.645,0  z " />
<path transform="translate( 0, 0 )" style="stroke: hsl(134.5, 55%, 50%);" id="1395"  d=" M  317.645,0  L  10,0  C  4.477,0  0,4.477  0,10  L  0,60  C  0,65.523  4.477,70  10,70  L  317.645,70  L  317.645,0  z " />
<path transform="translate( 0, 0 )" style="stroke: hsl(161.4, 55%, 50%);" id="1675"  d=" M  317.645,0  L  10,0  C  4.477,0  0,4.477  0,10  L  0,60  C  0,65.523  4.477,70  10,70  L  317.645,70  L  317.645,0  z " />
<path transform="translate( 0, 0 )" style="stroke: hsl(188.3, 55%, 50%);" id="1955"  d=" M  317.645,0  L  10,0  C  4.477,0  0,4.477  0,10  L  0,60  C  0,65.523  4.477,70  10,70  L  317.645,70  L  317.645,0  z " />
<path transform="translate( 0, 0 )" style="stroke: hsl(215.2, 55%, 50%);" id="2235"  d=" M  317.645,0  L  10,0  C  4.477,0  0,4.477  0,10  L  0,60  C  0,65.523  4.477,70  10,70  L  317.645,70  L  317.645,0  z " />
<path transform="translate( 0, 0 )" style="stroke: hsl(242.1, 55%, 50%);" id="2515"  d=" M  317.645,0  L  10,0  C  4.477,0  0,4.477  0,10  L  0,60  C  0,65.523  4.477,70  10,70  L  317.645,70  L  317.645,0  z " />
<path transform="translate( 0, 0 )" style="stroke: hsl(269, 55%, 50%);" id="2795"  d=" M  317.645,0  L  10,0  C  4.477,0  0,4.477  0,10  L  0,60  C  0,65.523  4.477,70  10,70  L  317.645,70  L  317.645,0  z " />
<path transform="translate( 0, 0 )" style="stroke: hsl(295.9, 55%, 50%);" id="3075"  d=" M  317.645,0  L  10,0  C  4.477,0  0,4.477  0,10  L  0,60  C  0,65.523  4.477,70  10,70  L  317.645,70  L  317.645,0  z " />
    </g>
    <!-- End of group #belt -->
    
    <!-- Start of group #collarStand -->
    <g id="collarStand"  transform=" translate(165.228 -51.6)  translate(1029.813 525) " >
        <path class="hidden" id="9"  d=" M  -160.228,56.6  L  160.228,56.6  L  160.228,106.403  L  -160.228,106.403  z " />
<path transform="translate( 0, 0 )" style="stroke: hsl(26.9, 55%, 50%);" id="276"  d=" M  -160.228,106.403  C  -160.228,106.403  -144.205,56.6  0,56.6  C  144.205,56.6  160.228,106.403  160.228,106.403  C  134.929,106.403  80.114,81.6  0,81.6  C  -80.114,81.6  -134.929,106.403  -160.228,106.403  z " />
<path transform="translate( 0, 0 )" style="stroke: hsl(53.8, 55%, 50%);" id="556"  d=" M  -160.228,106.403  C  -160.228,106.403  -144.205,56.6  0,56.6  C  144.205,56.6  160.228,106.403  160.228,106.403  C  134.929,106.403  80.114,81.6  0,81.6  C  -80.114,81.6  -134.929,106.403  -160.228,106.403  z " />
<path transform="translate( 0, 0 )" style="stroke: hsl(80.7, 55%, 50%);" id="836"  d=" M  -160.228,106.403  C  -160.228,106.403  -144.205,56.6  0,56.6  C  144.205,56.6  160.228,106.403  160.228,106.403  C  134.929,106.403  80.114,81.6  0,81.6  C  -80.114,81.6  -134.929,106.403  -160.228,106.403  z " />
<path transform="translate( 0, 0 )" style="stroke: hsl(107.6, 55%, 50%);" id="1116"  d=" M  -160.228,106.403  C  -160.228,106.403  -144.205,56.6  0,56.6  C  144.205,56.6  160.228,106.403  160.228,106.403  C  134.929,106.403  80.114,81.6  0,81.6  C  -80.114,81.6  -134.929,106.403  -160.228,106.403  z " />
<path transform="translate( 0, 0 )" style="stroke: hsl(134.5, 55%, 50%);" id="1396"  d=" M  -160.228,106.403  C  -160.228,106.403  -144.205,56.6  0,56.6  C  144.205,56.6  160.228,106.403  160.228,106.403  C  134.929,106.403  80.114,81.6  0,81.6  C  -80.114,81.6  -134.929,106.403  -160.228,106.403  z " />
<path transform="translate( 0, 0 )" style="stroke: hsl(161.4, 55%, 50%);" id="1676"  d=" M  -160.228,106.403  C  -160.228,106.403  -144.205,56.6  0,56.6  C  144.205,56.6  160.228,106.403  160.228,106.403  C  134.929,106.403  80.114,81.6  0,81.6  C  -80.114,81.6  -134.929,106.403  -160.228,106.403  z " />
<path transform="translate( 0, 0 )" style="stroke: hsl(188.3, 55%, 50%);" id="1956"  d=" M  -160.228,106.403  C  -160.228,106.403  -144.205,56.6  0,56.6  C  144.205,56.6  160.228,106.403  160.228,106.403  C  134.929,106.403  80.114,81.6  0,81.6  C  -80.114,81.6  -134.929,106.403  -160.228,106.403  z " />
<path transform="translate( 0, 0 )" style="stroke: hsl(215.2, 55%, 50%);" id="2236"  d=" M  -160.228,106.403  C  -160.228,106.403  -144.205,56.6  0,56.6  C  144.205,56.6  160.228,106.403  160.228,106.403  C  134.929,106.403  80.114,81.6  0,81.6  C  -80.114,81.6  -134.929,106.403  -160.228,106.403  z " />
<path transform="translate( 0, 0 )" style="stroke: hsl(242.1, 55%, 50%);" id="2516"  d=" M  -160.228,106.403  C  -160.228,106.403  -144.205,56.6  0,56.6  C  144.205,56.6  160.228,106.403  160.228,106.403  C  134.929,106.403  80.114,81.6  0,81.6  C  -80.114,81.6  -134.929,106.403  -160.228,106.403  z " />
<path transform="translate( 0, 0 )" style="stroke: hsl(269, 55%, 50%);" id="2796"  d=" M  -160.228,106.403  C  -160.228,106.403  -144.205,56.6  0,56.6  C  144.205,56.6  160.228,106.403  160.228,106.403  C  134.929,106.403  80.114,81.6  0,81.6  C  -80.114,81.6  -134.929,106.403  -160.228,106.403  z " />
<path transform="translate( 0, 0 )" style="stroke: hsl(295.9, 55%, 50%);" id="3076"  d=" M  -160.228,106.403  C  -160.228,106.403  -144.205,56.6  0,56.6  C  144.205,56.6  160.228,106.403  160.228,106.403  C  134.929,106.403  80.114,81.6  0,81.6  C  -80.114,81.6  -134.929,106.403  -160.228,106.403  z " />
    </g>
    <!-- End of group #collarStand -->
    
    <!-- Start of group #collar -->
    <g id="collar"  transform=" translate(5 5)  translate(1029.813 805.303) " >
        <path class="hidden" id="10"  d=" M  0,0  L  242.212,0  L  242.212,130.664  L  0,130.664  z " />
<path transform="translate( 0, 0 )" style="stroke: hsl(26.9, 55%, 50%);" id="277"  d=" M  0,56.6  C  16.223,56.6  30.824,57.23  43.787,58.334  C  60.043,61.19  73.933,64.566  86.202,68.342  C  102.654,75.021  114.956,82.023  124.384,88.975  C  146.02,112.314  146.795,127.976  146.795,127.976  L  196.106,130.664  L  242.212,62.284  C  182.48,27.382  126.496,0  0,0  z " />
<path transform="translate( 0, 0 )" style="stroke: hsl(53.8, 55%, 50%);" id="557"  d=" M  0,56.6  C  16.223,56.6  30.824,57.23  43.787,58.334  C  60.043,61.19  73.933,64.566  86.202,68.342  C  102.654,75.021  114.956,82.023  124.384,88.975  C  146.02,112.314  146.795,127.976  146.795,127.976  L  196.106,130.664  L  242.212,62.284  C  182.48,27.382  126.496,0  0,0  z " />
<path transform="translate( 0, 0 )" style="stroke: hsl(80.7, 55%, 50%);" id="837"  d=" M  0,56.6  C  16.223,56.6  30.824,57.23  43.787,58.334  C  60.043,61.19  73.933,64.566  86.202,68.342  C  102.654,75.021  114.956,82.023  124.384,88.975  C  146.02,112.314  146.795,127.976  146.795,127.976  L  196.106,130.664  L  242.212,62.284  C  182.48,27.382  126.496,0  0,0  z " />
<path transform="translate( 0, 0 )" style="stroke: hsl(107.6, 55%, 50%);" id="1117"  d=" M  0,56.6  C  16.223,56.6  30.824,57.23  43.787,58.334  C  60.043,61.19  73.933,64.566  86.202,68.342  C  102.654,75.021  114.956,82.023  124.384,88.975  C  146.02,112.314  146.795,127.976  146.795,127.976  L  196.106,130.664  L  242.212,62.284  C  182.48,27.382  126.496,0  0,0  z " />
<path transform="translate( 0, 0 )" style="stroke: hsl(134.5, 55%, 50%);" id="1397"  d=" M  0,56.6  C  16.223,56.6  30.824,57.23  43.787,58.334  C  60.043,61.19  73.933,64.566  86.202,68.342  C  102.654,75.021  114.956,82.023  124.384,88.975  C  146.02,112.314  146.795,127.976  146.795,127.976  L  196.106,130.664  L  242.212,62.284  C  182.48,27.382  126.496,0  0,0  z " />
<path transform="translate( 0, 0 )" style="stroke: hsl(161.4, 55%, 50%);" id="1677"  d=" M  0,56.6  C  16.223,56.6  30.824,57.23  43.787,58.334  C  60.043,61.19  73.933,64.566  86.202,68.342  C  102.654,75.021  114.956,82.023  124.384,88.975  C  146.02,112.314  146.795,127.976  146.795,127.976  L  196.106,130.664  L  242.212,62.284  C  182.48,27.382  126.496,0  0,0  z " />
<path transform="translate( 0, 0 )" style="stroke: hsl(188.3, 55%, 50%);" id="1957"  d=" M  0,56.6  C  16.223,56.6  30.824,57.23  43.787,58.334  C  60.043,61.19  73.933,64.566  86.202,68.342  C  102.654,75.021  114.956,82.023  124.384,88.975  C  146.02,112.314  146.795,127.976  146.795,127.976  L  196.106,130.664  L  242.212,62.284  C  182.48,27.382  126.496,0  0,0  z " />
<path transform="translate( 0, 0 )" style="stroke: hsl(215.2, 55%, 50%);" id="2237"  d=" M  0,56.6  C  16.223,56.6  30.824,57.23  43.787,58.334  C  60.043,61.19  73.933,64.566  86.202,68.342  C  102.654,75.021  114.956,82.023  124.384,88.975  C  146.02,112.314  146.795,127.976  146.795,127.976  L  196.106,130.664  L  242.212,62.284  C  182.48,27.382  126.496,0  0,0  z " />
<path transform="translate( 0, 0 )" style="stroke: hsl(242.1, 55%, 50%);" id="2517"  d=" M  0,56.6  C  16.223,56.6  30.824,57.23  43.787,58.334  C  60.043,61.19  73.933,64.566  86.202,68.342  C  102.654,75.021  114.956,82.023  124.384,88.975  C  146.02,112.314  146.795,127.976  146.795,127.976  L  196.106,130.664  L  242.212,62.284  C  182.48,27.382  126.496,0  0,0  z " />
<path transform="translate( 0, 0 )" style="stroke: hsl(269, 55%, 50%);" id="2797"  d=" M  0,56.6  C  16.223,56.6  30.824,57.23  43.787,58.334  C  60.043,61.19  73.933,64.566  86.202,68.342  C  102.654,75.021  114.956,82.023  124.384,88.975  C  146.02,112.314  146.795,127.976  146.795,127.976  L  196.106,130.664  L  242.212,62.284  C  182.48,27.382  126.496,0  0,0  z " />
<path transform="translate( 0, 0 )" style="stroke: hsl(295.9, 55%, 50%);" id="3077"  d=" M  0,56.6  C  16.223,56.6  30.824,57.23  43.787,58.334  C  60.043,61.19  73.933,64.566  86.202,68.342  C  102.654,75.021  114.956,82.023  124.384,88.975  C  146.02,112.314  146.795,127.976  146.795,127.976  L  196.106,130.664  L  242.212,62.284  C  182.48,27.382  126.496,0  0,0  z " />
    </g>
    <!-- End of group #collar -->
    
    <!-- Start of group #cuffFacing -->
    <g id="cuffFacing"  transform=" translate(5 5)  translate(1029.813 664.803) " >
        <path class="hidden" id="11"  d=" M  0,0  L  310,0  L  310,130.5  L  0,130.5  z " />
<path transform="translate( 0, 0 )" style="stroke: hsl(26.9, 55%, 50%);" id="278"  d=" M  0,0  L  0,108.75  C  -0,120.762  9.738,130.5  21.75,130.5  L  288.25,130.5  C  300.262,130.5  310,120.762  310,108.75  L  310,0  z " />
<path transform="translate( 0, 0 )" style="stroke: hsl(53.8, 55%, 50%);" id="558"  d=" M  0,0  L  0,108.75  C  -0,120.762  9.738,130.5  21.75,130.5  L  288.25,130.5  C  300.262,130.5  310,120.762  310,108.75  L  310,0  z " />
<path transform="translate( 0, 0 )" style="stroke: hsl(80.7, 55%, 50%);" id="838"  d=" M  0,0  L  0,108.75  C  -0,120.762  9.738,130.5  21.75,130.5  L  288.25,130.5  C  300.262,130.5  310,120.762  310,108.75  L  310,0  z " />
<path transform="translate( 0, 0 )" style="stroke: hsl(107.6, 55%, 50%);" id="1118"  d=" M  0,0  L  0,108.75  C  -0,120.762  9.738,130.5  21.75,130.5  L  288.249,130.5  C  300.261,130.5  309.999,120.762  309.999,108.75  L  309.999,0  z " />
<path transform="translate( 0, 0 )" style="stroke: hsl(134.5, 55%, 50%);" id="1398"  d=" M  0,0  L  0,108.75  C  -0,120.762  9.738,130.5  21.75,130.5  L  288.25,130.5  C  300.262,130.5  310,120.762  310,108.75  L  310,0  z " />
<path transform="translate( 0, 0 )" style="stroke: hsl(161.4, 55%, 50%);" id="1678"  d=" M  0,0  L  0,108.75  C  -0,120.762  9.738,130.5  21.75,130.5  L  288.249,130.5  C  300.261,130.5  309.999,120.762  309.999,108.75  L  309.999,0  z " />
<path transform="translate( 0, 0 )" style="stroke: hsl(188.3, 55%, 50%);" id="1958"  d=" M  0,0  L  0,108.75  C  -0,120.762  9.738,130.5  21.75,130.5  L  288.25,130.5  C  300.262,130.5  310,120.762  310,108.75  L  310,0  z " />
<path transform="translate( 0, 0 )" style="stroke: hsl(215.2, 55%, 50%);" id="2238"  d=" M  0,0  L  0,108.75  C  -0,120.762  9.738,130.5  21.75,130.5  L  288.25,130.5  C  300.262,130.5  310,120.762  310,108.75  L  310,0  z " />
<path transform="translate( 0, 0 )" style="stroke: hsl(242.1, 55%, 50%);" id="2518"  d=" M  0,0  L  0,108.75  C  -0,120.762  9.738,130.5  21.75,130.5  L  288.25,130.5  C  300.262,130.5  310,120.762  310,108.75  L  310,0  z " />
<path transform="translate( 0, 0 )" style="stroke: hsl(269, 55%, 50%);" id="2798"  d=" M  0,0  L  0,108.75  C  -0,120.762  9.738,130.5  21.75,130.5  L  288.25,130.5  C  300.262,130.5  310,120.762  310,108.75  L  310,0  z " />
<path transform="translate( 0, 0 )" style="stroke: hsl(295.9, 55%, 50%);" id="3078"  d=" M  0,0  L  0,108.75  C  -0,120.762  9.738,130.5  21.75,130.5  L  288.25,130.5  C  300.262,130.5  310,120.762  310,108.75  L  310,0  z " />
    </g>
    <!-- End of group #cuffFacing -->
    
    <!-- Start of group #pocket -->
    <g id="pocket"  transform=" translate(-66.113 -522.5)  translate(1029.813 945.967) " >
        <path class="hidden" id="12"  d=" M  71.113,527.5  L  231.338,527.5  L  231.338,710.25  L  71.113,710.25  z " />
<path transform="translate( 0, 0 )" style="stroke: hsl(26.9, 55%, 50%);" id="279"  d=" M  71.113,527.5  L  71.113,660.25  C  71.113,687.864  93.499,710.25  121.113,710.25  L  181.338,710.25  C  208.952,710.25  231.338,687.864  231.338,660.25  L  231.338,527.5  L  71.113,527.5  z " />
<path transform="translate( 0, 0 )" style="stroke: hsl(53.8, 55%, 50%);" id="559"  d=" M  71.113,527.5  L  71.113,660.25  C  71.113,687.864  93.499,710.25  121.113,710.25  L  181.338,710.25  C  208.952,710.25  231.338,687.864  231.338,660.25  L  231.338,527.5  L  71.113,527.5  z " />
<path transform="translate( 0, 0 )" style="stroke: hsl(80.7, 55%, 50%);" id="839"  d=" M  71.113,527.5  L  71.113,660.25  C  71.113,687.864  93.499,710.25  121.113,710.25  L  181.338,710.25  C  208.952,710.25  231.338,687.864  231.338,660.25  L  231.338,527.5  L  71.113,527.5  z " />
<path transform="translate( 0, 0 )" style="stroke: hsl(107.6, 55%, 50%);" id="1119"  d=" M  71.113,527.5  L  71.113,660.25  C  71.113,687.864  93.499,710.25  121.113,710.25  L  181.338,710.25  C  208.952,710.25  231.338,687.864  231.338,660.25  L  231.338,527.5  L  71.113,527.5  z " />
<path transform="translate( 0, 0 )" style="stroke: hsl(134.5, 55%, 50%);" id="1399"  d=" M  71.113,527.5  L  71.113,660.25  C  71.113,687.864  93.499,710.25  121.113,710.25  L  181.338,710.25  C  208.952,710.25  231.338,687.864  231.338,660.25  L  231.338,527.5  L  71.113,527.5  z " />
<path transform="translate( 0, 0 )" style="stroke: hsl(161.4, 55%, 50%);" id="1679"  d=" M  71.113,527.5  L  71.113,660.25  C  71.113,687.864  93.499,710.25  121.113,710.25  L  181.338,710.25  C  208.952,710.25  231.338,687.864  231.338,660.25  L  231.338,527.5  L  71.113,527.5  z " />
<path transform="translate( 0, 0 )" style="stroke: hsl(188.3, 55%, 50%);" id="1959"  d=" M  71.113,527.5  L  71.113,660.25  C  71.113,687.864  93.499,710.25  121.113,710.25  L  181.338,710.25  C  208.952,710.25  231.338,687.864  231.338,660.25  L  231.338,527.5  L  71.113,527.5  z " />
<path transform="translate( 0, 0 )" style="stroke: hsl(215.2, 55%, 50%);" id="2239"  d=" M  71.113,527.5  L  71.113,660.25  C  71.113,687.864  93.499,710.25  121.113,710.25  L  181.338,710.25  C  208.952,710.25  231.338,687.864  231.338,660.25  L  231.338,527.5  L  71.113,527.5  z " />
<path transform="translate( 0, 0 )" style="stroke: hsl(242.1, 55%, 50%);" id="2519"  d=" M  71.113,527.5  L  71.113,660.25  C  71.113,687.864  93.499,710.25  121.113,710.25  L  181.338,710.25  C  208.952,710.25  231.338,687.864  231.338,660.25  L  231.338,527.5  L  71.113,527.5  z " />
<path transform="translate( 0, 0 )" style="stroke: hsl(269, 55%, 50%);" id="2799"  d=" M  71.113,527.5  L  71.113,660.25  C  71.113,687.864  93.499,710.25  121.113,710.25  L  181.338,710.25  C  208.952,710.25  231.338,687.864  231.338,660.25  L  231.338,527.5  L  71.113,527.5  z " />
<path transform="translate( 0, 0 )" style="stroke: hsl(295.9, 55%, 50%);" id="3079"  d=" M  71.113,527.5  L  71.113,660.25  C  71.113,687.864  93.499,710.25  121.113,710.25  L  181.338,710.25  C  208.952,710.25  231.338,687.864  231.338,660.25  L  231.338,527.5  L  71.113,527.5  z " />
    </g>
    <!-- End of group #pocket -->
    
    <!-- Start of group #pocketFlap -->
    <g id="pocketFlap"  transform=" translate(-65.059 -510.045)  translate(1200.038 945.967) " >
        <path class="hidden" id="13"  d=" M  70.059,515.045  L  232.392,515.045  L  232.392,581.13  L  70.059,581.13  z " />
<path transform="translate( 0, 0 )" style="stroke: hsl(26.9, 55%, 50%);" id="280"  d=" M  70.059,515.045  L  73.113,551.13  C  74.51,567.64  86.544,581.13  103.113,581.13  L  199.338,581.13  C  215.907,581.13  227.941,567.64  229.338,551.13  L  232.392,515.045  z " />
<path transform="translate( 0, 0 )" style="stroke: hsl(53.8, 55%, 50%);" id="560"  d=" M  70.059,515.045  L  73.113,551.13  C  74.51,567.64  86.544,581.13  103.113,581.13  L  199.338,581.13  C  215.907,581.13  227.941,567.64  229.338,551.13  L  232.392,515.045  z " />
<path transform="translate( 0, 0 )" style="stroke: hsl(80.7, 55%, 50%);" id="840"  d=" M  70.059,515.045  L  73.113,551.13  C  74.51,567.64  86.544,581.13  103.113,581.13  L  199.338,581.13  C  215.907,581.13  227.941,567.64  229.338,551.13  L  232.392,515.045  z " />
<path transform="translate( 0, 0 )" style="stroke: hsl(107.6, 55%, 50%);" id="1120"  d=" M  70.059,515.045  L  73.113,551.13  C  74.51,567.64  86.544,581.13  103.113,581.13  L  199.338,581.13  C  215.907,581.13  227.941,567.64  229.338,551.13  L  232.392,515.045  z " />
<path transform="translate( 0, 0 )" style="stroke: hsl(134.5, 55%, 50%);" id="1400"  d=" M  70.059,515.045  L  73.113,551.13  C  74.51,567.64  86.544,581.13  103.113,581.13  L  199.338,581.13  C  215.907,581.13  227.941,567.64  229.338,551.13  L  232.392,515.045  z " />
<path transform="translate( 0, 0 )" style="stroke: hsl(161.4, 55%, 50%);" id="1680"  d=" M  70.059,515.045  L  73.113,551.13  C  74.51,567.64  86.544,581.13  103.113,581.13  L  199.338,581.13  C  215.907,581.13  227.941,567.64  229.338,551.13  L  232.392,515.045  z " />
<path transform="translate( 0, 0 )" style="stroke: hsl(188.3, 55%, 50%);" id="1960"  d=" M  70.059,515.045  L  73.113,551.13  C  74.51,567.64  86.544,581.13  103.113,581.13  L  199.338,581.13  C  215.907,581.13  227.941,567.64  229.338,551.13  L  232.392,515.045  z " />
<path transform="translate( 0, 0 )" style="stroke: hsl(215.2, 55%, 50%);" id="2240"  d=" M  70.059,515.045  L  73.113,551.13  C  74.51,567.64  86.544,581.13  103.113,581.13  L  199.338,581.13  C  215.907,581.13  227.941,567.64  229.338,551.13  L  232.392,515.045  z " />
<path transform="translate( 0, 0 )" style="stroke: hsl(242.1, 55%, 50%);" id="2520"  d=" M  70.059,515.045  L  73.113,551.13  C  74.51,567.64  86.544,581.13  103.113,581.13  L  199.338,581.13  C  215.907,581.13  227.941,567.64  229.338,551.13  L  232.392,515.045  z " />
<path transform="translate( 0, 0 )" style="stroke: hsl(269, 55%, 50%);" id="2800"  d=" M  70.059,515.045  L  73.113,551.13  C  74.51,567.64  86.544,581.13  103.113,581.13  L  199.338,581.13  C  215.907,581.13  227.941,567.64  229.338,551.13  L  232.392,515.045  z " />
<path transform="translate( 0, 0 )" style="stroke: hsl(295.9, 55%, 50%);" id="3080"  d=" M  70.059,515.045  L  73.113,551.13  C  74.51,567.64  86.544,581.13  103.113,581.13  L  199.338,581.13  C  215.907,581.13  227.941,567.64  229.338,551.13  L  232.392,515.045  z " />
    </g>
    <!-- End of group #pocketFlap -->
    
    <!-- Start of group #chestPocketWelt -->
    <g id="chestPocketWelt"  transform=" translate(5 5)  translate(1353.113 140) " >
        <path class="hidden" id="14"  d=" M  0,0  L  33.15,0  L  33.15,147.56  L  0,147.56  z " />
<path transform="translate( 0, 0 )" style="stroke: hsl(26.9, 55%, 50%);" id="281"  d=" M  0,0  L  33.15,0  L  33.15,147.56  L  0,147.56  L  0,0  z " />
<path transform="translate( 0, 0 )" style="stroke: hsl(53.8, 55%, 50%);" id="561"  d=" M  0,0  L  33.15,0  L  33.15,147.56  L  0,147.56  L  0,0  z " />
<path transform="translate( 0, 0 )" style="stroke: hsl(80.7, 55%, 50%);" id="841"  d=" M  0,0  L  33.15,0  L  33.15,147.56  L  0,147.56  L  0,0  z " />
<path transform="translate( 0, 0 )" style="stroke: hsl(107.6, 55%, 50%);" id="1121"  d=" M  0,0  L  33.15,0  L  33.15,147.56  L  0,147.56  L  0,0  z " />
<path transform="translate( 0, 0 )" style="stroke: hsl(134.5, 55%, 50%);" id="1401"  d=" M  0,0  L  33.15,0  L  33.15,147.56  L  0,147.56  L  0,0  z " />
<path transform="translate( 0, 0 )" style="stroke: hsl(161.4, 55%, 50%);" id="1681"  d=" M  0,0  L  33.15,0  L  33.15,147.56  L  0,147.56  L  0,0  z " />
<path transform="translate( 0, 0 )" style="stroke: hsl(188.3, 55%, 50%);" id="1961"  d=" M  0,0  L  33.15,0  L  33.15,147.56  L  0,147.56  L  0,0  z " />
<path transform="translate( 0, 0 )" style="stroke: hsl(215.2, 55%, 50%);" id="2241"  d=" M  0,0  L  33.15,0  L  33.15,147.56  L  0,147.56  L  0,0  z " />
<path transform="translate( 0, 0 )" style="stroke: hsl(242.1, 55%, 50%);" id="2521"  d=" M  0,0  L  33.15,0  L  33.15,147.56  L  0,147.56  L  0,0  z " />
<path transform="translate( 0, 0 )" style="stroke: hsl(269, 55%, 50%);" id="2801"  d=" M  0,0  L  33.15,0  L  33.15,147.56  L  0,147.56  L  0,0  z " />
<path transform="translate( 0, 0 )" style="stroke: hsl(295.9, 55%, 50%);" id="3081"  d=" M  0,0  L  33.15,0  L  33.15,147.56  L  0,147.56  L  0,0  z " />
    </g>
    <!-- End of group #chestPocketWelt -->
    
    <!-- Start of group #sampler-frontPanel -->
    <g id="sampler-frontPanel" >
    </g>
    <!-- End of group #sampler-frontPanel -->
    
    <!-- Start of group #sampler-sidePanel -->
    <g id="sampler-sidePanel" >
    </g>
    <!-- End of group #sampler-sidePanel -->
    
    <!-- Start of group #sampler-back -->
    <g id="sampler-back" >
    </g>
    <!-- End of group #sampler-back -->
    
    <!-- Start of group #sampler-tail -->
    <g id="sampler-tail" >
    </g>
    <!-- End of group #sampler-tail -->
    
    <!-- Start of group #sampler-topsleeve -->
    <g id="sampler-topsleeve" >
    </g>
    <!-- End of group #sampler-topsleeve -->
    
    <!-- Start of group #sampler-undersleeve -->
    <g id="sampler-undersleeve" >
    </g>
    <!-- End of group #sampler-undersleeve -->
    
    <!-- Start of group #sampler-belt -->
    <g id="sampler-belt" >
    </g>
    <!-- End of group #sampler-belt -->
    
    <!-- Start of group #sampler-collarStand -->
    <g id="sampler-collarStand" >
    </g>
    <!-- End of group #sampler-collarStand -->
    
    <!-- Start of group #sampler-collar -->
    <g id="sampler-collar" >
    </g>
    <!-- End of group #sampler-collar -->
    
    <!-- Start of group #sampler-cuffFacing -->
    <g id="sampler-cuffFacing" >
    </g>
    <!-- End of group #sampler-cuffFacing -->
    
    <!-- Start of group #sampler-pocket -->
    <g id="sampler-pocket" >
    </g>
    <!-- End of group #sampler-pocket -->
    
    <!-- Start of group #sampler-pocketFlap -->
    <g id="sampler-pocketFlap" >
    </g>
    <!-- End of group #sampler-pocketFlap -->
    
    <!-- Start of group #sampler-chestPocketWelt -->
    <g id="sampler-chestPocketWelt" >
    </g>
    <!-- End of group #sampler-chestPocketWelt -->
</g>
<!-- End of group #patternContainer -->

</svg>

