<?xml version="1.0" encoding="UTF-8" standalone="no"?>
<svg
    width ="2759.0456719278"
    height ="4390.6145711246"
    viewbox ="0 0 2759.0456719278 4390.6145711246" xmlns:dc="http://purl.org/dc/elements/1.1/"
    xmlns:cc="http://creativecommons.org/ns#"
    xmlns:rdf="http://www.w3.org/1999/02/22-rdf-syntax-ns#"
    xmlns:svg="http://www.w3.org/2000/svg"
    xmlns="http://www.w3.org/2000/svg"
    xmlns:xlink="http://www.w3.org/1999/xlink"
    xmlns:sodipodi="http://sodipodi.sourceforge.net/DTD/sodipodi-0.dtd"
    xmlns:inkscape="http://www.inkscape.org/namespaces/inkscape" 
>

<style type="text/css">
    <![CDATA[
    path { fill: none; stroke: #000000; stroke-opacity:1; stroke-width: 0.5; stroke-miterlimit:4; stroke-dashoffset:0; stroke-linecap:round; stroke-linejoin:round; }
    path.hidden { fill: none; stroke: none; }]]>
</style>


<!-- Start of group #patternScaleContainer -->
<g id="patternScaleContainer"  transform=" scale(3.54330709 ) " >
    
    <!-- Start of group #back -->
    <g id="back"  transform=" translate(223.671 64.129)  translate(0 0) " >
        <path class="hidden" id="2"  d=" M  -218.671,-59.129  L  210.34,-59.129  L  210.34,1170  L  -218.671,1170  z " />
<path transform="translate( 0, 0 )" style="stroke: hsl(26.9, 55%, 50%);" id="34"  d=" M  123.007,1021.229  C  123.007,1021.229  56.5,1030  0,1030  C  -56.5,1030  -123.007,1021.229  -123.007,1021.229  C  -123,970  -138.009,674.566  -138.009,674.566  C  -146.986,468.087  -218.671,183.671  -218.671,183.671  C  -218.671,183.671  -157.038,177.071  -125.218,145.251  C  -107.54,127.573  -84.753,87.619  -77.011,63.849  L  -37.162,-59.129  L  73.376,-28.245  L  51.675,100.409  L  99.802,-20.861  L  210.34,10.023  L  190.851,118.818  C  182.567,164.967  146.986,468.087  138.009,674.566  C  138.009,674.566  123,970  123.007,1021.229  z " />
<path transform="translate( 0, 0 )" style="stroke: hsl(53.8, 55%, 50%);" id="68"  d=" M  123.007,1035.229  C  123.007,1035.229  56.5,1044  0,1044  C  -56.5,1044  -123.007,1035.229  -123.007,1035.229  C  -123,984  -138.009,674.583  -138.009,674.583  C  -146.988,459.684  -218.628,183.582  -218.628,183.582  C  -218.628,183.582  -157.038,177.071  -125.218,145.251  C  -107.54,127.573  -84.753,87.619  -77.011,63.849  L  -37.162,-59.129  L  73.376,-28.245  L  51.675,100.409  L  99.802,-20.861  L  210.34,10.023  L  190.851,118.818  C  182.567,164.967  146.988,459.684  138.009,674.583  C  138.009,674.583  123,984  123.007,1035.229  z " />
<path transform="translate( 0, 0 )" style="stroke: hsl(80.7, 55%, 50%);" id="102"  d=" M  123.007,1049.229  C  123.007,1049.229  56.5,1058  0,1058  C  -56.5,1058  -123.007,1049.229  -123.007,1049.229  C  -123,998  -138.008,674.598  -138.008,674.598  C  -146.989,451.28  -218.54,183.657  -218.54,183.657  C  -218.54,183.657  -157.038,177.071  -125.218,145.251  C  -107.54,127.573  -84.753,87.619  -77.011,63.849  L  -37.162,-59.129  L  73.376,-28.245  L  51.675,100.409  L  99.802,-20.861  L  210.34,10.023  L  190.851,118.818  C  182.567,164.967  146.989,451.28  138.008,674.598  C  138.008,674.598  123,998  123.007,1049.229  z " />
<path transform="translate( 0, 0 )" style="stroke: hsl(107.6, 55%, 50%);" id="136"  d=" M  123.007,1063.229  C  123.007,1063.229  56.5,1072  0,1072  C  -56.5,1072  -123.007,1063.229  -123.007,1063.229  C  -123,1012  -138.008,674.613  -138.008,674.613  C  -146.99,442.878  -218.496,183.549  -218.496,183.549  C  -218.496,183.549  -157.038,177.071  -125.218,145.251  C  -107.54,127.573  -84.753,87.619  -77.011,63.849  L  -37.162,-59.129  L  73.376,-28.245  L  51.675,100.409  L  99.802,-20.861  L  210.34,10.023  L  190.851,118.818  C  182.567,164.967  146.99,442.878  138.008,674.613  C  138.008,674.613  123,1012  123.007,1063.229  z " />
<path transform="translate( 0, 0 )" style="stroke: hsl(134.5, 55%, 50%);" id="170"  d=" M  123.007,1077.229  C  123.007,1077.229  56.5,1086  0,1086  C  -56.5,1086  -123.007,1077.229  -123.007,1077.229  C  -123,1026  -138.007,674.626  -138.007,674.626  C  -146.99,434.474  -218.406,183.601  -218.406,183.601  C  -218.406,183.601  -157.038,177.071  -125.218,145.251  C  -107.54,127.573  -84.753,87.619  -77.011,63.849  L  -37.162,-59.129  L  73.376,-28.245  L  51.675,100.409  L  99.802,-20.861  L  210.34,10.023  L  190.851,118.818  C  182.567,164.967  146.99,434.474  138.007,674.626  C  138.007,674.626  123,1026  123.007,1077.229  z " />
<path transform="translate( 0, 0 )" style="stroke: hsl(161.4, 55%, 50%);" id="204"  d=" M  123.007,1091.229  C  123.007,1091.229  56.5,1100  0,1100  C  -56.5,1100  -123.007,1091.229  -123.007,1091.229  C  -123,1040  -138.007,674.639  -138.007,674.639  C  -146.991,426.072  -218.315,183.638  -218.315,183.638  C  -218.315,183.638  -157.038,177.071  -125.218,145.251  C  -107.54,127.573  -84.753,87.619  -77.011,63.849  L  -37.162,-59.129  L  73.376,-28.245  L  51.675,100.409  L  99.802,-20.861  L  210.34,10.023  L  190.851,118.818  C  182.567,164.967  146.991,426.072  138.007,674.639  C  138.007,674.639  123,1040  123.007,1091.229  z " />
<path transform="translate( 0, 0 )" style="stroke: hsl(188.3, 55%, 50%);" id="238"  d=" M  123.007,1105.229  C  123.007,1105.229  56.5,1114  0,1114  C  -56.5,1114  -123.007,1105.229  -123.007,1105.229  C  -123,1054  -138.006,674.651  -138.006,674.651  C  -146.991,417.67  -218.269,183.499  -218.269,183.499  C  -218.269,183.499  -157.038,177.071  -125.218,145.251  C  -107.54,127.573  -84.753,87.619  -77.011,63.849  L  -37.162,-59.129  L  73.376,-28.245  L  51.675,100.409  L  99.802,-20.861  L  210.34,10.023  L  190.851,118.818  C  182.567,164.967  146.991,417.67  138.006,674.651  C  138.006,674.651  123,1054  123.007,1105.229  z " />
<path transform="translate( 0, 0 )" style="stroke: hsl(215.2, 55%, 50%);" id="272"  d=" M  123.007,1119.229  C  123.007,1119.229  56.5,1128  0,1128  C  -56.5,1128  -123.007,1119.229  -123.007,1119.229  C  -123,1068  -138.006,674.662  -138.006,674.662  C  -146.992,409.268  -218.176,183.511  -218.176,183.511  C  -218.176,183.511  -157.038,177.071  -125.218,145.251  C  -107.54,127.573  -84.753,87.619  -77.011,63.849  L  -37.162,-59.129  L  73.376,-28.245  L  51.675,100.409  L  99.802,-20.861  L  210.34,10.023  L  190.851,118.818  C  182.567,164.967  146.992,409.268  138.006,674.662  C  138.006,674.662  123,1068  123.007,1119.229  z " />
<path transform="translate( 0, 0 )" style="stroke: hsl(242.1, 55%, 50%);" id="306"  d=" M  123.007,1133.229  C  123.007,1133.229  56.5,1142  0,1142  C  -56.5,1142  -123.007,1133.229  -123.007,1133.229  C  -123,1082  -138.005,674.672  -138.005,674.672  C  -146.992,400.866  -218.081,183.508  -218.081,183.508  C  -218.081,183.508  -157.038,177.071  -125.218,145.251  C  -107.54,127.573  -84.753,87.619  -77.011,63.849  L  -37.162,-59.129  L  73.376,-28.245  L  51.675,100.409  L  99.802,-20.861  L  210.34,10.023  L  190.851,118.818  C  182.567,164.967  146.992,400.866  138.005,674.672  C  138.005,674.672  123,1082  123.007,1133.229  z " />
<path transform="translate( 0, 0 )" style="stroke: hsl(269, 55%, 50%);" id="340"  d=" M  123.007,1147.229  C  123.007,1147.229  56.5,1156  0,1156  C  -56.5,1156  -123.007,1147.229  -123.007,1147.229  C  -123,1096  -138.005,674.682  -138.005,674.682  C  -146.993,392.464  -217.985,183.49  -217.985,183.49  C  -217.985,183.49  -157.038,177.071  -125.218,145.251  C  -107.54,127.573  -84.753,87.619  -77.011,63.849  L  -37.162,-59.129  L  73.376,-28.245  L  51.675,100.409  L  99.802,-20.861  L  210.34,10.023  L  190.851,118.818  C  182.567,164.967  146.993,392.464  138.005,674.682  C  138.005,674.682  123,1096  123.007,1147.229  z " />
<path transform="translate( 0, 0 )" style="stroke: hsl(295.9, 55%, 50%);" id="374"  d=" M  123.007,1161.229  C  123.007,1161.229  56.5,1170  0,1170  C  -56.5,1170  -123.007,1161.229  -123.007,1161.229  C  -123,1110  -138.005,674.691  -138.005,674.691  C  -146.994,384.062  -217.888,183.456  -217.888,183.456  C  -217.888,183.456  -157.038,177.071  -125.218,145.251  C  -107.54,127.573  -84.753,87.619  -77.011,63.849  L  -37.162,-59.129  L  73.376,-28.245  L  51.675,100.409  L  99.802,-20.861  L  210.34,10.023  L  190.851,118.818  C  182.567,164.967  146.994,384.062  138.005,674.691  C  138.005,674.691  123,1110  123.007,1161.229  z " />
    </g>
    <!-- End of group #back -->
    
    <!-- Start of group #front -->
    <g id="front"  transform=" translate(184.028 -5.568)  translate(439.011 0) " >
        <path class="hidden" id="3"  d=" M  -179.028,10.568  L  150.625,10.568  L  150.625,1160  L  -179.028,1160  z " />
<path transform="translate( 0, 0 )" style="stroke: hsl(26.9, 55%, 50%);" id="35"  d=" M  103,1020  L  -103,1020  C  -103,970  -118.009,674.566  -118.009,674.566  C  -128.977,422.304  -179.011,178.855  -179.011,178.855  C  -179.011,178.855  -155.98,177.071  -134.767,155.858  C  -113.554,134.645  -111.253,127.862  -110.66,120.83  L  -102.15,19.904  C  -0,19.965  142.938,10.568  142.938,10.568  C  142.938,10.568  150.625,70  150.625,120  C  150.625,170  128.977,422.304  118.009,674.566  C  118.009,674.566  103,970  103,1020  z " />
<path transform="translate( 0, 0 )" style="stroke: hsl(53.8, 55%, 50%);" id="69"  d=" M  103,1034  L  -103,1034  C  -103,984  -118.009,674.583  -118.009,674.583  C  -128.55,422.303  -179.028,178.688  -179.028,178.688  C  -179.028,178.688  -155.98,177.071  -134.767,155.858  C  -113.554,134.645  -111.253,127.862  -110.66,120.83  L  -102.15,19.904  C  -0,19.965  142.938,10.568  142.938,10.568  C  142.938,10.568  150.625,70  150.625,120  C  150.625,170  128.55,422.303  118.009,674.583  C  118.009,674.583  103,984  103,1034  z " />
<path transform="translate( 0, 0 )" style="stroke: hsl(80.7, 55%, 50%);" id="103"  d=" M  103,1048  L  -103,1048  C  -103,998  -118.008,674.598  -118.008,674.598  C  -128.154,422.302  -179.014,178.687  -179.014,178.687  C  -179.014,178.687  -155.98,177.071  -134.767,155.858  C  -113.554,134.645  -111.253,127.862  -110.66,120.83  L  -102.15,19.904  C  -0,19.965  142.938,10.568  142.938,10.568  C  142.938,10.568  150.625,70  150.625,120  C  150.625,170  128.154,422.302  118.008,674.598  C  118.008,674.598  103,998  103,1048  z " />
<path transform="translate( 0, 0 )" style="stroke: hsl(107.6, 55%, 50%);" id="137"  d=" M  103,1062  L  -103,1062  C  -103,1012  -118.008,674.613  -118.008,674.613  C  -127.787,422.302  -179.001,178.687  -179.001,178.687  C  -179.001,178.687  -155.98,177.071  -134.767,155.858  C  -113.554,134.645  -111.253,127.862  -110.66,120.83  L  -102.15,19.904  C  -0,19.965  142.938,10.568  142.938,10.568  C  142.938,10.568  150.625,70  150.625,120  C  150.625,170  127.787,422.302  118.008,674.613  C  118.008,674.613  103,1012  103,1062  z " />
<path transform="translate( 0, 0 )" style="stroke: hsl(134.5, 55%, 50%);" id="171"  d=" M  103,1076  L  -103,1076  C  -103,1026  -118.007,674.626  -118.007,674.626  C  -127.446,422.302  -178.989,178.686  -178.989,178.686  C  -178.989,178.686  -155.98,177.071  -134.767,155.858  C  -113.554,134.645  -111.253,127.862  -110.66,120.83  L  -102.15,19.904  C  -0,19.965  142.938,10.568  142.938,10.568  C  142.938,10.568  150.625,70  150.625,120  C  150.625,170  127.446,422.302  118.007,674.626  C  118.007,674.626  103,1026  103,1076  z " />
<path transform="translate( 0, 0 )" style="stroke: hsl(161.4, 55%, 50%);" id="205"  d=" M  103,1090  L  -103,1090  C  -103,1040  -118.007,674.639  -118.007,674.639  C  -127.128,422.304  -178.977,178.686  -178.977,178.686  C  -178.977,178.686  -155.98,177.071  -134.767,155.858  C  -113.554,134.645  -111.253,127.862  -110.66,120.83  L  -102.15,19.904  C  -0,19.965  142.938,10.568  142.938,10.568  C  142.938,10.568  150.625,70  150.625,120  C  150.625,170  127.128,422.304  118.007,674.639  C  118.007,674.639  103,1040  103,1090  z " />
<path transform="translate( 0, 0 )" style="stroke: hsl(188.3, 55%, 50%);" id="239"  d=" M  103,1104  L  -103,1104  C  -103,1054  -118.006,674.651  -118.006,674.651  C  -126.829,422.305  -178.967,178.685  -178.967,178.685  C  -178.967,178.685  -155.98,177.071  -134.767,155.858  C  -113.554,134.645  -111.253,127.862  -110.66,120.83  L  -102.15,19.904  C  -0,19.965  142.938,10.568  142.938,10.568  C  142.938,10.568  150.625,70  150.625,120  C  150.625,170  126.829,422.305  118.006,674.651  C  118.006,674.651  103,1054  103,1104  z " />
<path transform="translate( 0, 0 )" style="stroke: hsl(215.2, 55%, 50%);" id="273"  d=" M  103,1118  L  -103,1118  C  -103,1068  -118.006,674.662  -118.006,674.662  C  -126.551,422.307  -178.957,178.685  -178.957,178.685  C  -178.957,178.685  -155.98,177.071  -134.767,155.858  C  -113.554,134.645  -111.253,127.862  -110.66,120.83  L  -102.15,19.904  C  -0,19.965  142.938,10.568  142.938,10.568  C  142.938,10.568  150.625,70  150.625,120  C  150.625,170  126.551,422.307  118.006,674.662  C  118.006,674.662  103,1068  103,1118  z " />
<path transform="translate( 0, 0 )" style="stroke: hsl(242.1, 55%, 50%);" id="307"  d=" M  103,1132  L  -103,1132  C  -103,1082  -118.005,674.672  -118.005,674.672  C  -126.288,422.308  -178.947,178.685  -178.947,178.685  C  -178.947,178.685  -155.98,177.071  -134.767,155.858  C  -113.554,134.645  -111.253,127.862  -110.66,120.83  L  -102.15,19.904  C  -0,19.965  142.938,10.568  142.938,10.568  C  142.938,10.568  150.625,70  150.625,120  C  150.625,170  126.288,422.308  118.005,674.672  C  118.005,674.672  103,1082  103,1132  z " />
<path transform="translate( 0, 0 )" style="stroke: hsl(269, 55%, 50%);" id="341"  d=" M  103,1146  L  -103,1146  C  -103,1096  -118.005,674.682  -118.005,674.682  C  -126.042,422.31  -178.939,178.684  -178.939,178.684  C  -178.939,178.684  -155.98,177.071  -134.767,155.858  C  -113.554,134.645  -111.253,127.862  -110.66,120.83  L  -102.15,19.904  C  -0,19.965  142.938,10.568  142.938,10.568  C  142.938,10.568  150.625,70  150.625,120  C  150.625,170  126.042,422.31  118.005,674.682  C  118.005,674.682  103,1096  103,1146  z " />
<path transform="translate( 0, 0 )" style="stroke: hsl(295.9, 55%, 50%);" id="375"  d=" M  103,1160  L  -103,1160  C  -103,1110  -118.005,674.691  -118.005,674.691  C  -125.811,422.312  -178.93,178.684  -178.93,178.684  C  -178.93,178.684  -155.98,177.071  -134.767,155.858  C  -113.554,134.645  -111.253,127.862  -110.66,120.83  L  -102.15,19.904  C  -0,19.965  142.938,10.568  142.938,10.568  C  142.938,10.568  150.625,70  150.625,120  C  150.625,170  125.811,422.312  118.005,674.691  C  118.005,674.691  103,1110  103,1160  z " />
    </g>
    <!-- End of group #front -->
    
    <!-- Start of group #waistbandInterfacingLeft -->
    <g id="waistbandInterfacingLeft"  transform=" translate(0 0)  translate(778.664 0) " >
    </g>
    <!-- End of group #waistbandInterfacingLeft -->
    
    <!-- Start of group #waistbandInterfacingRight -->
    <g id="waistbandInterfacingRight"  transform=" translate(0 0)  translate(778.664 0) " >
    </g>
    <!-- End of group #waistbandInterfacingRight -->
    
    <!-- Start of group #waistbandLeft -->
    <g id="waistbandLeft"  transform=" translate(0 0)  translate(778.664 0) " >
    </g>
    <!-- End of group #waistbandLeft -->
    
    <!-- Start of group #waistbandRight -->
    <g id="waistbandRight"  transform=" translate(0 0)  translate(778.664 0) " >
    </g>
    <!-- End of group #waistbandRight -->
    
    <!-- Start of group #waistbandLiningLeft -->
    <g id="waistbandLiningLeft"  transform=" translate(0 0)  translate(778.664 0) " >
    </g>
    <!-- End of group #waistbandLiningLeft -->
    
    <!-- Start of group #waistbandLiningRight -->
    <g id="waistbandLiningRight"  transform=" translate(0 0)  translate(778.664 0) " >
    </g>
    <!-- End of group #waistbandLiningRight -->
    
    <!-- Start of group #flyPiece -->
    <g id="flyPiece"  transform=" translate(0 0)  translate(778.664 0) " >
    </g>
    <!-- End of group #flyPiece -->
    
    <!-- Start of group #flyShield -->
    <g id="flyShield"  transform=" translate(0 0)  translate(778.664 0) " >
    </g>
    <!-- End of group #flyShield -->
    
    <!-- Start of group #sidePiece -->
    <g id="sidePiece"  transform=" translate(0 0)  translate(778.664 0) " >
    </g>
    <!-- End of group #sidePiece -->
    
    <!-- Start of group #frontPocketBag -->
    <g id="frontPocketBag"  transform=" translate(0 0)  translate(778.664 0) " >
    </g>
    <!-- End of group #frontPocketBag -->
    
    <!-- Start of group #backInnerPocketBag -->
    <g id="backInnerPocketBag"  transform=" translate(0 0)  translate(778.664 0) " >
    </g>
    <!-- End of group #backInnerPocketBag -->
    
    <!-- Start of group #backOuterPocketBag -->
    <g id="backOuterPocketBag"  transform=" translate(0 0)  translate(778.664 0) " >
    </g>
    <!-- End of group #backOuterPocketBag -->
    
    <!-- Start of group #backPocketFacing -->
    <g id="backPocketFacing"  transform=" translate(0 0)  translate(778.664 0) " >
    </g>
    <!-- End of group #backPocketFacing -->
    
    <!-- Start of group #backPocketInterfacing -->
    <g id="backPocketInterfacing"  transform=" translate(0 0)  translate(778.664 0) " >
    </g>
    <!-- End of group #backPocketInterfacing -->
    
    <!-- Start of group #beltLoop -->
    <g id="beltLoop"  transform=" translate(0 0)  translate(778.664 0) " >
    </g>
    <!-- End of group #beltLoop -->
    
    <!-- Start of group #sampler-back -->
    <g id="sampler-back"  transform=" translate(0 0)  translate(778.664 0) " >
    </g>
    <!-- End of group #sampler-back -->
    
    <!-- Start of group #sampler-front -->
    <g id="sampler-front"  transform=" translate(0 0)  translate(778.664 0) " >
    </g>
    <!-- End of group #sampler-front -->
</g>
<!-- End of group #patternScaleContainer -->

</svg>

