<?xml version="1.0" encoding="UTF-8" standalone="no"?>
<svg
    xmlns="http://www.w3.org/2000/svg"
    xmlns:svg="http://www.w3.org/2000/svg"
    xmlns:xlink="http://www.w3.org/1999/xlink"
    xmlns:freesewing="http://freesewing.org/namespaces/freesewing" viewBox ="0 0 1927 1494"
    width ="1927mm"
    height ="1494mm"
    freesewing:version ="1.5.0"
    freesewing:origin ="joost.core.freesewing.org" 
>

<style type="text/css">
    <![CDATA[
    path { fill: none; stroke: #000000; stroke-opacity:1; stroke-width: 0.5; stroke-miterlimit:4; stroke-dashoffset:0; stroke-linecap:round; stroke-linejoin:round; }
    path.hidden { fill: none; stroke: none; }]]>
</style>


<!-- Start of group #patternContainer -->
<g id="patternContainer" >
    
    <!-- Start of group #backBlock -->
    <g id="backBlock" >
    </g>
    <!-- End of group #backBlock -->
    
    <!-- Start of group #frontBlock -->
    <g id="frontBlock" >
    </g>
    <!-- End of group #frontBlock -->
    
    <!-- Start of group #sleeveBlock -->
    <g id="sleeveBlock" >
    </g>
    <!-- End of group #sleeveBlock -->
    
    <!-- Start of group #topsleeveBlock -->
    <g id="topsleeveBlock" >
    </g>
    <!-- End of group #topsleeveBlock -->
    
    <!-- Start of group #undersleeveBlock -->
    <g id="undersleeveBlock" >
    </g>
    <!-- End of group #undersleeveBlock -->
    
    <!-- Start of group #front -->
    <g id="front"  transform=" translate(87.505 5)  translate(0 0) " >
        <path class="hidden" id="2"  d=" M  -82.505,0  L  342.5,0  L  342.5,1483.9  L  -82.505,1483.9  z " />
<path transform="translate( 0, 0 )" style="stroke: hsl(26.9, 55%, 50%);" id="210"  d=" M  0,93  L  -77.505,93  C  -77.505,93  -82.505,139.28  -82.505,324.4  L  -82.505,1483.9  L  342.5,1483.9  L  342.5,1010  C  342.5,870  308.125,707.8  308.125,580  C  308.125,452.2  325,340.375  325,324.4  C  303.125,324.4  284.922,316.264  265.279,296.621  C  245.636,276.978  232.5,220.433  232.5,172.2  C  232.5,123.967  240.826,37.359  242.5,27.5  L  80.579,0  C  77.23,19.718  80.579,93  0,93  z " />
<path transform="translate( 0, 0 )" style="stroke: hsl(53.8, 55%, 50%);" id="431"  d=" M  0,93  L  -77.505,93  C  -77.505,93  -82.505,140.274  -82.505,329.37  L  -82.505,1483.9  L  342.5,1483.9  L  342.5,1010  C  342.5,870  308.125,705.315  308.125,580  C  308.125,454.685  325,345.034  325,329.37  C  303.125,329.37  285.202,321.186  265.443,301.427  C  245.684,281.668  232.5,223.747  232.5,174.685  C  232.5,125.623  240.826,37.359  242.5,27.5  L  80.579,0  C  77.23,19.718  80.579,93  0,93  z " />
<path transform="translate( 0, 0 )" style="stroke: hsl(80.7, 55%, 50%);" id="652"  d=" M  0,93  L  -77.505,93  C  -77.505,93  -82.505,141.268  -82.505,334.34  L  -82.505,1483.9  L  342.5,1483.9  L  342.5,1010  C  342.5,870  308.125,702.83  308.125,580  C  308.125,457.17  325,349.694  325,334.34  C  303.125,334.34  285.477,326.109  265.604,306.236  C  245.731,286.363  232.5,227.06  232.5,177.17  C  232.5,127.28  240.826,37.359  242.5,27.5  L  80.579,0  C  77.23,19.718  80.579,93  0,93  z " />
<path transform="translate( 0, 0 )" style="stroke: hsl(107.6, 55%, 50%);" id="873"  d=" M  0,93  L  -77.505,93  C  -77.505,93  -82.505,142.262  -82.505,339.31  L  -82.505,1483.9  L  342.5,1483.9  L  342.5,1010  C  342.5,870  308.125,700.345  308.125,580  C  308.125,459.655  325,354.353  325,339.31  C  303.125,339.31  285.745,331.033  265.761,311.049  C  245.777,291.065  232.5,230.373  232.5,179.655  C  232.5,128.937  240.826,37.359  242.5,27.5  L  80.579,0  C  77.23,19.718  80.579,93  0,93  z " />
<path transform="translate( 0, 0 )" style="stroke: hsl(134.5, 55%, 50%);" id="1094"  d=" M  0,93  L  -77.505,93  C  -77.505,93  -82.505,143.256  -82.505,344.28  L  -82.505,1483.9  L  342.5,1483.9  L  342.5,1010  C  342.5,870  308.125,697.86  308.125,580  C  308.125,462.14  325,359.013  325,344.28  C  303.125,344.28  286.009,335.957  265.916,315.864  C  245.823,295.771  232.5,233.687  232.5,182.14  C  232.5,130.593  240.826,37.359  242.5,27.5  L  80.579,0  C  77.23,19.718  80.579,93  0,93  z " />
<path transform="translate( 0, 0 )" style="stroke: hsl(161.4, 55%, 50%);" id="1315"  d=" M  0,93  L  -77.505,93  C  -77.505,93  -82.505,144.25  -82.505,349.25  L  -82.505,1483.9  L  342.5,1483.9  L  342.5,1010  C  342.5,870  308.125,695.375  308.125,580  C  308.125,464.625  325,363.672  325,349.25  C  303.125,349.25  286.265,340.883  266.066,320.684  C  245.867,300.485  232.5,237  232.5,184.625  C  232.5,132.25  240.826,37.359  242.5,27.5  L  80.579,0  C  77.23,19.718  80.579,93  0,93  z " />
<path transform="translate( 0, 0 )" style="stroke: hsl(188.3, 55%, 50%);" id="1536"  d=" M  0,93  L  -77.505,93  C  -77.505,93  -82.505,145.244  -82.505,354.22  L  -82.505,1483.9  L  342.5,1483.9  L  342.5,1010  C  342.5,870  308.125,692.89  308.125,580  C  308.125,467.11  325,368.331  325,354.22  C  303.125,354.22  286.52,345.81  266.215,325.505  C  245.91,305.2  232.5,240.313  232.5,187.11  C  232.5,133.907  240.826,37.359  242.5,27.5  L  80.579,0  C  77.23,19.718  80.579,93  0,93  z " />
<path transform="translate( 0, 0 )" style="stroke: hsl(215.2, 55%, 50%);" id="1757"  d=" M  0,93  L  -77.505,93  C  -77.505,93  -82.505,146.238  -82.505,359.19  L  -82.505,1483.9  L  342.5,1483.9  L  342.5,1010  C  342.5,870  308.125,690.405  308.125,580  C  308.125,469.595  325,372.991  325,359.19  C  303.125,359.19  286.767,350.737  266.36,330.33  C  245.953,309.923  232.5,243.627  232.5,189.595  C  232.5,135.563  240.826,37.359  242.5,27.5  L  80.579,0  C  77.23,19.718  80.579,93  0,93  z " />
<path transform="translate( 0, 0 )" style="stroke: hsl(242.1, 55%, 50%);" id="1978"  d=" M  0,93  L  -77.505,93  C  -77.505,93  -82.505,147.232  -82.505,364.16  L  -82.505,1483.9  L  342.5,1483.9  L  342.5,1010  C  342.5,870  308.125,687.92  308.125,580  C  308.125,472.08  325,377.65  325,364.16  C  303.125,364.16  287.011,355.665  266.503,335.157  C  245.995,314.649  232.5,246.94  232.5,192.08  C  232.5,137.22  240.826,37.359  242.5,27.5  L  80.579,0  C  77.23,19.718  80.579,93  0,93  z " />
<path transform="translate( 0, 0 )" style="stroke: hsl(269, 55%, 50%);" id="2199"  d=" M  0,93  L  -77.505,93  C  -77.505,93  -82.505,148.226  -82.505,369.13  L  -82.505,1483.9  L  342.5,1483.9  L  342.5,1010  C  342.5,870  308.125,685.435  308.125,580  C  308.125,474.565  325,382.309  325,369.13  C  303.125,369.13  287.25,360.594  266.643,339.987  C  246.036,319.38  232.5,250.253  232.5,194.565  C  232.5,138.877  240.826,37.359  242.5,27.5  L  80.579,0  C  77.23,19.718  80.579,93  0,93  z " />
<path transform="translate( 0, 0 )" style="stroke: hsl(295.9, 55%, 50%);" id="2420"  d=" M  0,93  L  -77.505,93  C  -77.505,93  -82.505,149.22  -82.505,374.1  L  -82.505,1483.9  L  342.5,1483.9  L  342.5,1010  C  342.5,870  308.125,682.95  308.125,580  C  308.125,477.05  325,386.969  325,374.1  C  303.125,374.1  287.482,365.524  266.779,344.821  C  246.076,324.118  232.5,253.567  232.5,197.05  C  232.5,140.533  240.826,37.359  242.5,27.5  L  80.579,0  C  77.23,19.718  80.579,93  0,93  z " />
    </g>
    <!-- End of group #front -->
    
    <!-- Start of group #back -->
    <g id="back"  transform=" translate(55.88 5)  translate(1045.856 0) " >
        <path class="hidden" id="3"  d=" M  -50.88,0  L  325,0  L  325,545  L  -50.88,545  z " />
<path transform="translate( 0, 0 )" style="stroke: hsl(26.9, 55%, 50%);" id="211"  d=" M  0,20  L  0,172.2  L  -50.88,172.2  L  -50.88,545  L  106.375,545  C  106.375,434.7  123.25,324.4  123.25,324.4  C  123.25,324.4  140.125,434.7  140.125,545  L  308.125,545  C  308.125,452.2  325,340.375  325,324.4  C  303.125,324.4  284.922,316.264  265.279,296.621  C  245.636,276.978  237.5,220.433  237.5,172.2  C  237.5,123.967  240.826,37.359  242.5,27.5  L  80.579,0  C  77.23,19.718  0,20  0,20  z " />
<path transform="translate( 0, 0 )" style="stroke: hsl(53.8, 55%, 50%);" id="432"  d=" M  0,20  L  0,174.685  L  -50.88,174.685  L  -50.88,545  L  106.375,545  C  106.375,437.185  123.25,329.37  123.25,329.37  C  123.25,329.37  140.125,437.185  140.125,545  L  308.125,545  C  308.125,454.685  325,345.034  325,329.37  C  303.125,329.37  285.202,321.186  265.443,301.427  C  245.684,281.668  237.5,223.747  237.5,174.685  C  237.5,125.623  240.826,37.359  242.5,27.5  L  80.579,0  C  77.23,19.718  0,20  0,20  z " />
<path transform="translate( 0, 0 )" style="stroke: hsl(80.7, 55%, 50%);" id="653"  d=" M  0,20  L  0,177.17  L  -50.88,177.17  L  -50.88,545  L  106.375,545  C  106.375,439.67  123.25,334.34  123.25,334.34  C  123.25,334.34  140.125,439.67  140.125,545  L  308.125,545  C  308.125,457.17  325,349.694  325,334.34  C  303.125,334.34  285.477,326.109  265.604,306.236  C  245.731,286.363  237.5,227.06  237.5,177.17  C  237.5,127.28  240.826,37.359  242.5,27.5  L  80.579,0  C  77.23,19.718  0,20  0,20  z " />
<path transform="translate( 0, 0 )" style="stroke: hsl(107.6, 55%, 50%);" id="874"  d=" M  0,20  L  0,179.655  L  -50.88,179.655  L  -50.88,545  L  106.375,545  C  106.375,442.155  123.25,339.31  123.25,339.31  C  123.25,339.31  140.125,442.155  140.125,545  L  308.125,545  C  308.125,459.655  325,354.353  325,339.31  C  303.125,339.31  285.745,331.033  265.761,311.049  C  245.777,291.065  237.5,230.373  237.5,179.655  C  237.5,128.937  240.826,37.359  242.5,27.5  L  80.579,0  C  77.23,19.718  0,20  0,20  z " />
<path transform="translate( 0, 0 )" style="stroke: hsl(134.5, 55%, 50%);" id="1095"  d=" M  0,20  L  0,182.14  L  -50.88,182.14  L  -50.88,545  L  106.375,545  C  106.375,444.64  123.25,344.28  123.25,344.28  C  123.25,344.28  140.125,444.64  140.125,545  L  308.125,545  C  308.125,462.14  325,359.013  325,344.28  C  303.125,344.28  286.009,335.957  265.916,315.864  C  245.823,295.771  237.5,233.687  237.5,182.14  C  237.5,130.593  240.826,37.359  242.5,27.5  L  80.579,0  C  77.23,19.718  0,20  0,20  z " />
<path transform="translate( 0, 0 )" style="stroke: hsl(161.4, 55%, 50%);" id="1316"  d=" M  0,20  L  0,184.625  L  -50.88,184.625  L  -50.88,545  L  106.375,545  C  106.375,447.125  123.25,349.25  123.25,349.25  C  123.25,349.25  140.125,447.125  140.125,545  L  308.125,545  C  308.125,464.625  325,363.672  325,349.25  C  303.125,349.25  286.265,340.883  266.066,320.684  C  245.867,300.485  237.5,237  237.5,184.625  C  237.5,132.25  240.826,37.359  242.5,27.5  L  80.579,0  C  77.23,19.718  0,20  0,20  z " />
<path transform="translate( 0, 0 )" style="stroke: hsl(188.3, 55%, 50%);" id="1537"  d=" M  0,20  L  0,187.11  L  -50.88,187.11  L  -50.88,545  L  106.375,545  C  106.375,449.61  123.25,354.22  123.25,354.22  C  123.25,354.22  140.125,449.61  140.125,545  L  308.125,545  C  308.125,467.11  325,368.331  325,354.22  C  303.125,354.22  286.52,345.81  266.215,325.505  C  245.91,305.2  237.5,240.313  237.5,187.11  C  237.5,133.907  240.826,37.359  242.5,27.5  L  80.579,0  C  77.23,19.718  0,20  0,20  z " />
<path transform="translate( 0, 0 )" style="stroke: hsl(215.2, 55%, 50%);" id="1758"  d=" M  0,20  L  0,189.595  L  -50.88,189.595  L  -50.88,545  L  106.375,545  C  106.375,452.095  123.25,359.19  123.25,359.19  C  123.25,359.19  140.125,452.095  140.125,545  L  308.125,545  C  308.125,469.595  325,372.991  325,359.19  C  303.125,359.19  286.767,350.737  266.36,330.33  C  245.953,309.923  237.5,243.627  237.5,189.595  C  237.5,135.563  240.826,37.359  242.5,27.5  L  80.579,0  C  77.23,19.718  0,20  0,20  z " />
<path transform="translate( 0, 0 )" style="stroke: hsl(242.1, 55%, 50%);" id="1979"  d=" M  0,20  L  0,192.08  L  -50.88,192.08  L  -50.88,545  L  106.375,545  C  106.375,454.58  123.25,364.16  123.25,364.16  C  123.25,364.16  140.125,454.58  140.125,545  L  308.125,545  C  308.125,472.08  325,377.65  325,364.16  C  303.125,364.16  287.011,355.665  266.503,335.157  C  245.995,314.649  237.5,246.94  237.5,192.08  C  237.5,137.22  240.826,37.359  242.5,27.5  L  80.579,0  C  77.23,19.718  0,20  0,20  z " />
<path transform="translate( 0, 0 )" style="stroke: hsl(269, 55%, 50%);" id="2200"  d=" M  0,20  L  0,194.565  L  -50.88,194.565  L  -50.88,545  L  106.375,545  C  106.375,457.065  123.25,369.13  123.25,369.13  C  123.25,369.13  140.125,457.065  140.125,545  L  308.125,545  C  308.125,474.565  325,382.309  325,369.13  C  303.125,369.13  287.25,360.594  266.643,339.987  C  246.036,319.38  237.5,250.253  237.5,194.565  C  237.5,138.877  240.826,37.359  242.5,27.5  L  80.579,0  C  77.23,19.718  0,20  0,20  z " />
<path transform="translate( 0, 0 )" style="stroke: hsl(295.9, 55%, 50%);" id="2421"  d=" M  0,20  L  0,197.05  L  -50.88,197.05  L  -50.88,545  L  106.375,545  C  106.375,459.55  123.25,374.1  123.25,374.1  C  123.25,374.1  140.125,459.55  140.125,545  L  308.125,545  C  308.125,477.05  325,386.969  325,374.1  C  303.125,374.1  287.482,365.524  266.779,344.821  C  246.076,324.118  237.5,253.567  237.5,197.05  C  237.5,140.533  240.826,37.359  242.5,27.5  L  80.579,0  C  77.23,19.718  0,20  0,20  z " />
    </g>
    <!-- End of group #back -->
    
    <!-- Start of group #tail -->
    <g id="tail"  transform=" translate(216.296 5)  translate(1431.736 0) " >
        <path class="hidden" id="4"  d=" M  -211.296,0  L  274.375,0  L  274.375,130  L  -211.296,130  z " />
<path transform="translate( 0, 0 )" style="stroke: hsl(26.9, 55%, 50%);" id="212"  d=" M  -211.296,50  -211.296,0  L  0,0  L  274.375,0  L  274.375,50 " />
<path transform="translate( 0, 0 )" style="stroke: hsl(26.9, 55%, 50%);" id="213"  d=" M  -211.296,80  -211.296,130  L  -0,130  L  274.375,130  L  274.375,80 " />
<path transform="translate( 0, 0 )" style="stroke: hsl(53.8, 55%, 50%);" id="433"  d=" M  -211.296,50  -211.296,0  L  0,0  L  274.375,0  L  274.375,50 " />
<path transform="translate( 0, 0 )" style="stroke: hsl(53.8, 55%, 50%);" id="434"  d=" M  -211.296,80  -211.296,130  L  -0,130  L  274.375,130  L  274.375,80 " />
<path transform="translate( 0, 0 )" style="stroke: hsl(80.7, 55%, 50%);" id="654"  d=" M  -211.296,50  -211.296,0  L  0,0  L  274.375,0  L  274.375,50 " />
<path transform="translate( 0, 0 )" style="stroke: hsl(80.7, 55%, 50%);" id="655"  d=" M  -211.296,80  -211.296,130  L  -0,130  L  274.375,130  L  274.375,80 " />
<path transform="translate( 0, 0 )" style="stroke: hsl(107.6, 55%, 50%);" id="875"  d=" M  -211.296,50  -211.296,0  L  0,0  L  274.375,0  L  274.375,50 " />
<path transform="translate( 0, 0 )" style="stroke: hsl(107.6, 55%, 50%);" id="876"  d=" M  -211.296,80  -211.296,130  L  -0,130  L  274.375,130  L  274.375,80 " />
<path transform="translate( 0, 0 )" style="stroke: hsl(134.5, 55%, 50%);" id="1096"  d=" M  -211.296,50  -211.296,0  L  0,0  L  274.375,0  L  274.375,50 " />
<path transform="translate( 0, 0 )" style="stroke: hsl(134.5, 55%, 50%);" id="1097"  d=" M  -211.296,80  -211.296,130  L  -0,130  L  274.375,130  L  274.375,80 " />
<path transform="translate( 0, 0 )" style="stroke: hsl(161.4, 55%, 50%);" id="1317"  d=" M  -211.296,50  -211.296,0  L  0,0  L  274.375,0  L  274.375,50 " />
<path transform="translate( 0, 0 )" style="stroke: hsl(161.4, 55%, 50%);" id="1318"  d=" M  -211.296,80  -211.296,130  L  -0,130  L  274.375,130  L  274.375,80 " />
<path transform="translate( 0, 0 )" style="stroke: hsl(188.3, 55%, 50%);" id="1538"  d=" M  -211.296,50  -211.296,0  L  0,0  L  274.375,0  L  274.375,50 " />
<path transform="translate( 0, 0 )" style="stroke: hsl(188.3, 55%, 50%);" id="1539"  d=" M  -211.296,80  -211.296,130  L  -0,130  L  274.375,130  L  274.375,80 " />
<path transform="translate( 0, 0 )" style="stroke: hsl(215.2, 55%, 50%);" id="1759"  d=" M  -211.296,50  -211.296,0  L  0,0  L  274.375,0  L  274.375,50 " />
<path transform="translate( 0, 0 )" style="stroke: hsl(215.2, 55%, 50%);" id="1760"  d=" M  -211.296,80  -211.296,130  L  -0,130  L  274.375,130  L  274.375,80 " />
<path transform="translate( 0, 0 )" style="stroke: hsl(242.1, 55%, 50%);" id="1980"  d=" M  -211.296,50  -211.296,0  L  0,0  L  274.375,0  L  274.375,50 " />
<path transform="translate( 0, 0 )" style="stroke: hsl(242.1, 55%, 50%);" id="1981"  d=" M  -211.296,80  -211.296,130  L  -0,130  L  274.375,130  L  274.375,80 " />
<path transform="translate( 0, 0 )" style="stroke: hsl(269, 55%, 50%);" id="2201"  d=" M  -211.296,50  -211.296,0  L  0,0  L  274.375,0  L  274.375,50 " />
<path transform="translate( 0, 0 )" style="stroke: hsl(269, 55%, 50%);" id="2202"  d=" M  -211.296,80  -211.296,130  L  -0,130  L  274.375,130  L  274.375,80 " />
<path transform="translate( 0, 0 )" style="stroke: hsl(295.9, 55%, 50%);" id="2422"  d=" M  -211.296,50  -211.296,0  L  0,0  L  274.375,0  L  274.375,50 " />
<path transform="translate( 0, 0 )" style="stroke: hsl(295.9, 55%, 50%);" id="2423"  d=" M  -211.296,80  -211.296,130  L  -0,130  L  274.375,130  L  274.375,80 " />
    </g>
    <!-- End of group #tail -->
    
    <!-- Start of group #topsleeve -->
    <g id="topsleeve"  transform=" translate(199.626 5)  translate(435.005 0) " >
        <path class="hidden" id="5"  d=" M  -194.626,0  L  143.183,0  L  143.183,817.265  L  -194.626,817.265  z " />
<path transform="translate( 0, 0 )" style="stroke: hsl(26.9, 55%, 50%);" id="214"  d=" M  127.286,380  C  136.279,329  141.429,260  141.429,195  C  141.429,130  127.286,65  127.286,65  C  127.286,65  79.554,0  0,0  C  -79.554,0  -116.679,65  -127.286,117  C  -137.893,169  -143.197,195  -159.107,195  C  -159.107,195  -146.144,313.996  -141.429,380  L  -117.853,710.02  L  -123.1,807.379  L  37.748,816.047  C  51.19,816.772  62.675,806.461  63.4,793.019  L  67.335,720  z " />
<path transform="translate( -1.571, 0 )" style="stroke: hsl(53.8, 55%, 50%);" id="435"  d=" M  128.857,380  C  137.85,329  143.174,264.667  143.174,198.5  C  143.174,132.333  128.857,66.167  128.857,66.167  C  128.857,66.167  80.536,0  0,0  C  -80.536,0  -118.119,66.166  -128.857,119.1  C  -139.595,172.034  -144.964,198.5  -161.071,198.5  C  -161.071,198.5  -148.481,313.836  -143.174,380  L  -116.638,710.82  L  -121.456,808.201  L  39.743,816.177  C  53.189,816.842  64.627,806.482  65.292,793.036  L  68.906,720  z " />
<path transform="translate( -3.144, 0 )" style="stroke: hsl(80.7, 55%, 50%);" id="656"  d=" M  130.43,380  C  139.423,329  144.922,269.334  144.922,202  C  144.922,134.666  130.43,67.333  130.43,67.333  C  130.43,67.333  81.519,0  0,0  C  -81.519,0  -119.561,67.334  -130.43,121.2  C  -141.299,175.066  -146.734,202  -163.037,202  C  -163.037,202  -150.823,313.675  -144.922,380  L  -115.418,711.625  L  -119.806,809.026  L  41.741,816.304  C  55.189,816.91  66.582,806.499  67.188,793.051  L  70.479,720  z " />
<path transform="translate( -4.719, 0 )" style="stroke: hsl(107.6, 55%, 50%);" id="877"  d=" M  132.005,380  C  140.998,329  146.672,274  146.672,205.5  C  146.672,137  132.005,68.5  132.005,68.5  C  132.005,68.5  82.503,0  0,0  C  -82.503,0  -121.004,68.5  -132.005,123.3  C  -143.006,178.1  -148.506,205.5  -165.006,205.5  C  -165.006,205.5  -153.168,313.513  -146.672,380  L  -114.193,712.433  L  -118.151,809.853  L  43.741,816.431  C  57.192,816.977  68.539,806.516  69.085,793.065  L  72.054,720  z " />
<path transform="translate( -6.295, 0 )" style="stroke: hsl(134.5, 55%, 50%);" id="1098"  d=" M  133.581,380  C  142.574,329  148.423,278.667  148.423,209  C  148.423,139.333  133.581,69.667  133.581,69.667  C  133.581,69.667  83.488,0  0,0  C  -83.488,0  -122.449,69.667  -133.581,125.4  C  -144.713,181.133  -150.279,209  -166.976,209  C  -166.976,209  -155.515,313.35  -148.423,380  L  -112.964,713.246  L  -116.491,810.682  L  45.744,816.554  C  59.197,817.041  70.498,806.53  70.985,793.077  L  73.63,720  z " />
<path transform="translate( -7.873, 0 )" style="stroke: hsl(161.4, 55%, 50%);" id="1319"  d=" M  135.159,380  C  144.152,329  150.177,283.334  150.177,212.5  C  150.177,141.666  135.159,70.833  135.159,70.833  C  135.159,70.833  84.474,0  0,0  C  -84.474,0  -123.896,70.834  -135.159,127.5  C  -146.422,184.166  -152.054,212.5  -168.949,212.5  C  -168.949,212.5  -157.866,313.187  -150.177,380  L  -111.73,714.063  L  -114.825,811.514  L  47.75,816.677  C  61.205,817.104  72.46,806.543  72.887,793.088  L  75.208,720  z " />
<path transform="translate( -9.453, 0 )" style="stroke: hsl(188.3, 55%, 50%);" id="1540"  d=" M  136.739,380  C  145.732,329  151.932,288  151.932,216  C  151.932,144  136.739,72  136.739,72  C  136.739,72  85.462,0  0,0  C  -85.462,0  -125.344,72  -136.739,129.6  C  -148.134,187.2  -153.832,216  -170.924,216  C  -170.924,216  -160.22,313.023  -151.932,380  L  -110.49,714.883  L  -113.153,812.347  L  49.759,816.798  C  63.216,817.166  74.423,806.555  74.791,793.098  L  76.788,720  z " />
<path transform="translate( -11.034, 0 )" style="stroke: hsl(215.2, 55%, 50%);" id="1761"  d=" M  138.32,380  C  147.313,329  153.689,292.667  153.689,219.5  C  153.689,146.333  138.32,73.167  138.32,73.167  C  138.32,73.167  86.45,0  0,0  C  -86.45,0  -126.793,73.167  -138.32,131.7  C  -149.847,190.233  -155.61,219.5  -172.9,219.5  C  -172.9,219.5  -162.578,312.859  -153.689,380  L  -109.246,715.707  L  -111.476,813.181  L  51.77,816.916  C  65.228,817.224  76.389,806.563  76.697,793.105  L  78.369,720  z " />
<path transform="translate( -12.616, 0 )" style="stroke: hsl(242.1, 55%, 50%);" id="1982"  d=" M  139.902,380  C  148.895,329  155.447,297.334  155.447,223  C  155.447,148.666  139.902,74.333  139.902,74.333  C  139.902,74.333  87.439,0  0,0  C  -87.439,0  -128.243,74.333  -139.902,133.8  C  -151.561,193.267  -157.39,223  -174.877,223  C  -174.877,223  -164.937,312.692  -155.447,380  L  -107.997,716.536  L  -109.794,814.019  L  53.783,817.034  C  67.243,817.282  78.355,806.572  78.603,793.112  L  79.951,720  z " />
<path transform="translate( -14.2, 0 )" style="stroke: hsl(269, 55%, 50%);" id="2203"  d=" M  141.486,380  C  150.479,329  157.207,302  157.207,226.5  C  157.207,151  141.486,75.5  141.486,75.5  C  141.486,75.5  88.429,0  0,0  C  -88.429,0  -129.695,75.5  -141.486,135.9  C  -153.277,196.3  -159.172,226.5  -176.857,226.5  C  -176.857,226.5  -167.3,312.527  -157.207,380  L  -106.744,717.368  L  -108.107,814.858  L  55.799,817.149  C  69.26,817.337  80.325,806.578  80.513,793.117  L  81.535,720  z " />
<path transform="translate( -15.786, 0 )" style="stroke: hsl(295.9, 55%, 50%);" id="2424"  d=" M  143.072,380  C  152.065,329  158.969,306.667  158.969,230  C  158.969,153.333  143.072,76.667  143.072,76.667  C  143.072,76.667  89.42,0  0,0  C  -89.42,0  -131.149,76.667  -143.072,138  C  -154.995,199.333  -160.956,230  -178.84,230  C  -178.84,230  -169.666,312.36  -158.969,380  L  -105.484,718.204  L  -106.412,815.7  L  57.819,817.264  C  71.28,817.392  82.297,806.583  82.425,793.122  L  83.121,720  z " />
    </g>
    <!-- End of group #topsleeve -->
    
    <!-- Start of group #undersleeve -->
    <g id="undersleeve"  transform=" translate(128.09 -60)  translate(782.814 0) " >
        <path class="hidden" id="6"  d=" M  -123.09,65  L  129.952,65  L  129.952,816.564  L  -123.09,816.564  z " />
<path transform="translate( 0, 0 )" style="stroke: hsl(26.9, 55%, 50%);" id="215"  d=" M  127.286,380  C  136.279,329  119.676,259.671  113.143,195  C  106.61,130.329  95.464,65  95.464,65  C  75.577,128.219  -15.911,195  -63.643,195  L  -95.465,195  C  -95.465,195  -75.739,314.087  -74.25,380  L  -66.803,709.563  L  -74.366,806.769  L  35.47,815.315  C  48.891,816.359  60.619,806.325  61.663,792.904  L  67.335,720  z " />
<path transform="translate( -1.571, 0 )" style="stroke: hsl(53.8, 55%, 50%);" id="436"  d=" M  128.857,380  C  137.85,329  121.296,264.321  114.54,198.5  C  107.784,132.679  96.643,66.167  96.643,66.167  C  76.347,130.479  -16.107,198.5  -64.429,198.5  L  -96.643,198.5  C  -96.643,198.5  -77.208,313.972  -75.167,380  L  -64.96,710.136  L  -72.125,807.372  L  37.432,815.445  C  50.858,816.434  62.543,806.353  63.532,792.927  L  68.906,720  z " />
<path transform="translate( -3.144, 0 )" style="stroke: hsl(80.7, 55%, 50%);" id="657"  d=" M  130.43,380  C  139.423,329  122.922,268.971  115.938,202  C  108.954,135.029  97.822,67.333  97.822,67.333  C  77.109,132.737  -16.304,202  -65.215,202  L  -97.823,202  C  -97.823,202  -78.678,313.858  -76.084,380  L  -63.112,710.707  L  -69.878,807.972  L  39.397,815.574  C  52.827,816.508  64.47,806.379  65.404,792.949  L  70.479,720  z " />
<path transform="translate( -4.719, 0 )" style="stroke: hsl(107.6, 55%, 50%);" id="878"  d=" M  132.005,380  C  140.998,329  124.555,273.619  117.338,205.5  C  110.121,137.381  99.004,68.5  99.004,68.5  C  77.869,134.994  -16.501,205.5  -66.003,205.5  L  -99.004,205.5  C  -99.004,205.5  -80.152,313.745  -77.003,380  L  -61.26,711.277  L  -67.626,808.569  L  41.365,815.701  C  54.798,816.58  66.4,806.402  67.279,792.969  L  72.054,720  z " />
<path transform="translate( -6.295, 0 )" style="stroke: hsl(134.5, 55%, 50%);" id="1099"  d=" M  133.581,380  C  142.574,329  126.193,278.267  118.739,209  C  111.285,139.733  100.186,69.667  100.186,69.667  C  78.617,137.248  -16.698,209  -66.791,209  L  -100.186,209  C  -100.186,209  -81.626,313.631  -77.922,380  L  -59.404,711.845  L  -65.37,809.162  L  43.335,815.825  C  56.772,816.649  68.332,806.425  69.156,792.988  L  73.63,720  z " />
<path transform="translate( -7.873, 0 )" style="stroke: hsl(161.4, 55%, 50%);" id="1320"  d=" M  135.159,380  C  144.152,329  127.837,282.915  120.141,212.5  C  112.445,142.085  101.369,70.833  101.369,70.833  C  79.372,139.504  -16.895,212.5  -67.579,212.5  L  -101.369,212.5  C  -101.369,212.5  -83.103,313.518  -78.843,380  L  -57.543,712.412  L  -63.107,809.753  L  45.309,815.95  C  58.749,816.718  70.267,806.446  71.035,793.006  L  75.208,720  z " />
<path transform="translate( -9.453, 0 )" style="stroke: hsl(188.3, 55%, 50%);" id="1541"  d=" M  136.739,380  C  145.732,329  129.489,287.561  121.546,216  C  113.603,144.439  102.554,72  102.554,72  C  80.142,141.765  -17.092,216  -68.369,216  L  -102.554,216  C  -102.554,216  -84.581,313.405  -79.764,380  L  -55.678,712.977  L  -60.84,810.34  L  47.285,816.072  C  60.728,816.785  72.204,806.465  72.917,793.022  L  76.788,720  z " />
<path transform="translate( -11.034, 0 )" style="stroke: hsl(215.2, 55%, 50%);" id="1762"  d=" M  138.32,380  C  147.313,329  131.145,292.207  122.951,219.5  C  114.757,146.793  103.74,73.167  103.74,73.167  C  80.892,144.02  -17.29,219.5  -69.16,219.5  L  -103.74,219.5  C  -103.74,219.5  -86.063,313.292  -80.687,380  L  -53.809,713.54  L  -58.568,810.924  L  49.264,816.194  C  62.71,816.851  74.143,806.484  74.8,793.038  L  78.369,720  z " />
<path transform="translate( -12.616, 0 )" style="stroke: hsl(242.1, 55%, 50%);" id="1983"  d=" M  139.902,380  C  148.895,329  132.808,296.852  124.357,223  C  115.906,149.148  104.926,74.333  104.926,74.333  C  81.635,146.273  -17.488,223  -69.951,223  L  -104.927,223  C  -104.927,223  -87.545,313.179  -81.61,380  L  -51.937,714.102  L  -56.293,811.505  L  51.244,816.314  C  64.693,816.915  76.083,806.501  76.684,793.052  L  79.951,720  z " />
<path transform="translate( -14.2, 0 )" style="stroke: hsl(269, 55%, 50%);" id="2204"  d=" M  141.486,380  C  150.479,329  134.477,301.496  125.765,226.5  C  117.053,151.504  106.114,75.5  106.114,75.5  C  82.379,148.527  -17.686,226.5  -70.743,226.5  L  -106.115,226.5  C  -106.115,226.5  -89.029,313.067  -82.534,380  L  -50.06,714.662  L  -54.012,812.082  L  53.228,816.432  C  66.679,816.978  78.025,806.516  78.571,793.065  L  81.535,720  z " />
<path transform="translate( -15.786, 0 )" style="stroke: hsl(295.9, 55%, 50%);" id="2425"  d=" M  143.072,380  C  152.065,329  136.153,306.139  127.175,230  C  118.197,153.861  107.304,76.667  107.304,76.667  C  83.13,150.783  -17.884,230  -71.536,230  L  -107.304,230  C  -107.304,230  -90.515,312.956  -83.459,380  L  -48.178,715.22  L  -51.725,812.655  L  55.215,816.548  C  68.668,817.038  79.971,806.529  80.461,793.076  L  83.121,720  z " />
    </g>
    <!-- End of group #undersleeve -->
    
    <!-- Start of group #belt -->
    <g id="belt"  transform=" translate(5 5)  translate(1431.736 140) " >
        <path class="hidden" id="7"  d=" M  0,0  L  400.023,0  L  400.023,70  L  0,70  z " />
<path transform="translate( 0, 0 )" style="stroke: hsl(26.9, 55%, 50%);" id="216"  d=" M  400.023,0  L  10,0  C  4.477,0  0,4.477  0,10  L  0,60  C  0,65.523  4.477,70  10,70  L  400.023,70  L  400.023,0  z " />
<path transform="translate( 0, 0 )" style="stroke: hsl(53.8, 55%, 50%);" id="437"  d=" M  400.023,0  L  10,0  C  4.477,0  0,4.477  0,10  L  0,60  C  0,65.523  4.477,70  10,70  L  400.023,70  L  400.023,0  z " />
<path transform="translate( 0, 0 )" style="stroke: hsl(80.7, 55%, 50%);" id="658"  d=" M  400.023,0  L  10,0  C  4.477,0  0,4.477  0,10  L  0,60  C  0,65.523  4.477,70  10,70  L  400.023,70  L  400.023,0  z " />
<path transform="translate( 0, 0 )" style="stroke: hsl(107.6, 55%, 50%);" id="879"  d=" M  400.023,0  L  10,0  C  4.477,0  0,4.477  0,10  L  0,60  C  0,65.523  4.477,70  10,70  L  400.023,70  L  400.023,0  z " />
<path transform="translate( 0, 0 )" style="stroke: hsl(134.5, 55%, 50%);" id="1100"  d=" M  400.023,0  L  10,0  C  4.477,0  0,4.477  0,10  L  0,60  C  0,65.523  4.477,70  10,70  L  400.023,70  L  400.023,0  z " />
<path transform="translate( 0, 0 )" style="stroke: hsl(161.4, 55%, 50%);" id="1321"  d=" M  400.023,0  L  10,0  C  4.477,0  0,4.477  0,10  L  0,60  C  0,65.523  4.477,70  10,70  L  400.023,70  L  400.023,0  z " />
<path transform="translate( 0, 0 )" style="stroke: hsl(188.3, 55%, 50%);" id="1542"  d=" M  400.023,0  L  10,0  C  4.477,0  0,4.477  0,10  L  0,60  C  0,65.523  4.477,70  10,70  L  400.023,70  L  400.023,0  z " />
<path transform="translate( 0, 0 )" style="stroke: hsl(215.2, 55%, 50%);" id="1763"  d=" M  400.023,0  L  10,0  C  4.477,0  0,4.477  0,10  L  0,60  C  0,65.523  4.477,70  10,70  L  400.023,70  L  400.023,0  z " />
<path transform="translate( 0, 0 )" style="stroke: hsl(242.1, 55%, 50%);" id="1984"  d=" M  400.023,0  L  10,0  C  4.477,0  0,4.477  0,10  L  0,60  C  0,65.523  4.477,70  10,70  L  400.023,70  L  400.023,0  z " />
<path transform="translate( 0, 0 )" style="stroke: hsl(269, 55%, 50%);" id="2205"  d=" M  400.023,0  L  10,0  C  4.477,0  0,4.477  0,10  L  0,60  C  0,65.523  4.477,70  10,70  L  400.023,70  L  400.023,0  z " />
<path transform="translate( 0, 0 )" style="stroke: hsl(295.9, 55%, 50%);" id="2426"  d=" M  400.023,0  L  10,0  C  4.477,0  0,4.477  0,10  L  0,60  C  0,65.523  4.477,70  10,70  L  400.023,70  L  400.023,0  z " />
    </g>
    <!-- End of group #belt -->
    
    <!-- Start of group #collarStand -->
    <g id="collarStand"  transform=" translate(176.885 -71.76)  translate(1431.736 220) " >
        <path class="hidden" id="8"  d=" M  -171.885,76.76  L  171.885,76.76  L  171.885,128.368  L  -171.885,128.368  z " />
<path transform="translate( 0, 0 )" style="stroke: hsl(26.9, 55%, 50%);" id="217"  d=" M  -171.885,128.368  C  -171.885,128.368  -154.697,76.76  0,76.76  C  154.697,76.76  171.885,128.368  171.885,128.368  C  144.745,128.368  85.943,101.76  0,101.76  C  -85.943,101.76  -144.745,128.368  -171.885,128.368  z " />
<path transform="translate( 0, 0 )" style="stroke: hsl(53.8, 55%, 50%);" id="438"  d=" M  -171.885,128.368  C  -171.885,128.368  -154.697,76.76  0,76.76  C  154.697,76.76  171.885,128.368  171.885,128.368  C  144.745,128.368  85.943,101.76  0,101.76  C  -85.943,101.76  -144.745,128.368  -171.885,128.368  z " />
<path transform="translate( 0, 0 )" style="stroke: hsl(80.7, 55%, 50%);" id="659"  d=" M  -171.885,128.368  C  -171.885,128.368  -154.697,76.76  0,76.76  C  154.697,76.76  171.885,128.368  171.885,128.368  C  144.745,128.368  85.943,101.76  0,101.76  C  -85.943,101.76  -144.745,128.368  -171.885,128.368  z " />
<path transform="translate( 0, 0 )" style="stroke: hsl(107.6, 55%, 50%);" id="880"  d=" M  -171.885,128.368  C  -171.885,128.368  -154.697,76.76  0,76.76  C  154.697,76.76  171.885,128.368  171.885,128.368  C  144.745,128.368  85.943,101.76  0,101.76  C  -85.943,101.76  -144.745,128.368  -171.885,128.368  z " />
<path transform="translate( 0, 0 )" style="stroke: hsl(134.5, 55%, 50%);" id="1101"  d=" M  -171.885,128.368  C  -171.885,128.368  -154.697,76.76  0,76.76  C  154.697,76.76  171.885,128.368  171.885,128.368  C  144.745,128.368  85.943,101.76  0,101.76  C  -85.943,101.76  -144.745,128.368  -171.885,128.368  z " />
<path transform="translate( 0, 0 )" style="stroke: hsl(161.4, 55%, 50%);" id="1322"  d=" M  -171.885,128.368  C  -171.885,128.368  -154.697,76.76  0,76.76  C  154.697,76.76  171.885,128.368  171.885,128.368  C  144.745,128.368  85.943,101.76  0,101.76  C  -85.943,101.76  -144.745,128.368  -171.885,128.368  z " />
<path transform="translate( 0, 0 )" style="stroke: hsl(188.3, 55%, 50%);" id="1543"  d=" M  -171.885,128.368  C  -171.885,128.368  -154.697,76.76  0,76.76  C  154.697,76.76  171.885,128.368  171.885,128.368  C  144.745,128.368  85.943,101.76  0,101.76  C  -85.943,101.76  -144.745,128.368  -171.885,128.368  z " />
<path transform="translate( 0, 0 )" style="stroke: hsl(215.2, 55%, 50%);" id="1764"  d=" M  -171.885,128.368  C  -171.885,128.368  -154.697,76.76  0,76.76  C  154.697,76.76  171.885,128.368  171.885,128.368  C  144.745,128.368  85.943,101.76  0,101.76  C  -85.943,101.76  -144.745,128.368  -171.885,128.368  z " />
<path transform="translate( 0, 0 )" style="stroke: hsl(242.1, 55%, 50%);" id="1985"  d=" M  -171.885,128.368  C  -171.885,128.368  -154.697,76.76  0,76.76  C  154.697,76.76  171.885,128.368  171.885,128.368  C  144.745,128.368  85.943,101.76  0,101.76  C  -85.943,101.76  -144.745,128.368  -171.885,128.368  z " />
<path transform="translate( 0, 0 )" style="stroke: hsl(269, 55%, 50%);" id="2206"  d=" M  -171.885,128.368  C  -171.885,128.368  -154.697,76.76  0,76.76  C  154.697,76.76  171.885,128.368  171.885,128.368  C  144.745,128.368  85.943,101.76  0,101.76  C  -85.943,101.76  -144.745,128.368  -171.885,128.368  z " />
<path transform="translate( 0, 0 )" style="stroke: hsl(295.9, 55%, 50%);" id="2427"  d=" M  -171.885,128.368  C  -171.885,128.368  -154.697,76.76  0,76.76  C  154.697,76.76  171.885,128.368  171.885,128.368  C  144.745,128.368  85.943,101.76  0,101.76  C  -85.943,101.76  -144.745,128.368  -171.885,128.368  z " />
    </g>
    <!-- End of group #collarStand -->
    
    <!-- Start of group #collar -->
    <g id="collar"  transform=" translate(5 5)  translate(1431.736 437.858) " >
        <path class="hidden" id="9"  d=" M  0,0  L  263.948,0  L  263.948,154.668  L  0,154.668  z " />
<path transform="translate( 0, 0 )" style="stroke: hsl(26.9, 55%, 50%);" id="218"  d=" M  0,76.76  C  17.017,76.76  32.369,77.385  46.596,78.526  C  63.764,81.44  78.839,85.001  91.945,88.932  C  109.76,96.022  123.091,103.403  133.078,110.475  C  156.879,135.404  157.852,151.68  157.852,151.68  L  210.935,154.668  L  263.948,67.319  C  199.814,30.027  135.699,0  0,0  z " />
<path transform="translate( 0, 0 )" style="stroke: hsl(53.8, 55%, 50%);" id="439"  d=" M  0,76.76  C  17.017,76.76  32.369,77.385  46.596,78.526  C  63.764,81.44  78.839,85.001  91.945,88.932  C  109.76,96.022  123.091,103.403  133.078,110.475  C  156.879,135.404  157.852,151.68  157.852,151.68  L  210.935,154.668  L  263.948,67.319  C  199.814,30.027  135.699,0  0,0  z " />
<path transform="translate( 0, 0 )" style="stroke: hsl(80.7, 55%, 50%);" id="660"  d=" M  0,76.76  C  17.017,76.76  32.369,77.385  46.596,78.526  C  63.764,81.44  78.839,85.001  91.945,88.932  C  109.76,96.022  123.091,103.403  133.078,110.475  C  156.879,135.404  157.852,151.68  157.852,151.68  L  210.935,154.668  L  263.948,67.319  C  199.814,30.027  135.699,0  0,0  z " />
<path transform="translate( 0, 0 )" style="stroke: hsl(107.6, 55%, 50%);" id="881"  d=" M  0,76.76  C  17.017,76.76  32.369,77.385  46.596,78.526  C  63.764,81.44  78.839,85.001  91.945,88.932  C  109.76,96.022  123.091,103.403  133.078,110.475  C  156.879,135.404  157.852,151.68  157.852,151.68  L  210.935,154.668  L  263.948,67.319  C  199.814,30.027  135.699,0  0,0  z " />
<path transform="translate( 0, 0 )" style="stroke: hsl(134.5, 55%, 50%);" id="1102"  d=" M  0,76.76  C  17.017,76.76  32.369,77.385  46.596,78.526  C  63.764,81.44  78.839,85.001  91.945,88.932  C  109.76,96.022  123.091,103.403  133.078,110.475  C  156.879,135.404  157.852,151.68  157.852,151.68  L  210.935,154.668  L  263.948,67.319  C  199.814,30.027  135.699,0  0,0  z " />
<path transform="translate( 0, 0 )" style="stroke: hsl(161.4, 55%, 50%);" id="1323"  d=" M  0,76.76  C  17.017,76.76  32.369,77.385  46.596,78.526  C  63.764,81.44  78.839,85.001  91.945,88.932  C  109.76,96.022  123.091,103.403  133.078,110.475  C  156.879,135.404  157.852,151.68  157.852,151.68  L  210.935,154.668  L  263.948,67.319  C  199.814,30.027  135.699,0  0,0  z " />
<path transform="translate( 0, 0 )" style="stroke: hsl(188.3, 55%, 50%);" id="1544"  d=" M  0,76.76  C  17.017,76.76  32.369,77.385  46.596,78.526  C  63.764,81.44  78.839,85.001  91.945,88.932  C  109.76,96.022  123.091,103.403  133.078,110.475  C  156.879,135.404  157.852,151.68  157.852,151.68  L  210.935,154.668  L  263.948,67.319  C  199.814,30.027  135.699,0  0,0  z " />
<path transform="translate( 0, 0 )" style="stroke: hsl(215.2, 55%, 50%);" id="1765"  d=" M  0,76.76  C  17.017,76.76  32.369,77.385  46.596,78.526  C  63.764,81.44  78.839,85.001  91.945,88.932  C  109.76,96.022  123.091,103.403  133.078,110.475  C  156.879,135.404  157.852,151.68  157.852,151.68  L  210.935,154.668  L  263.948,67.319  C  199.814,30.027  135.699,0  0,0  z " />
<path transform="translate( 0, 0 )" style="stroke: hsl(242.1, 55%, 50%);" id="1986"  d=" M  0,76.76  C  17.017,76.76  32.369,77.385  46.596,78.526  C  63.764,81.44  78.839,85.001  91.945,88.932  C  109.76,96.022  123.091,103.403  133.078,110.475  C  156.879,135.404  157.852,151.68  157.852,151.68  L  210.935,154.668  L  263.948,67.319  C  199.814,30.027  135.699,0  0,0  z " />
<path transform="translate( 0, 0 )" style="stroke: hsl(269, 55%, 50%);" id="2207"  d=" M  0,76.76  C  17.017,76.76  32.369,77.385  46.596,78.526  C  63.764,81.44  78.839,85.001  91.945,88.932  C  109.76,96.022  123.091,103.403  133.078,110.475  C  156.879,135.404  157.852,151.68  157.852,151.68  L  210.935,154.668  L  263.948,67.319  C  199.814,30.027  135.699,0  0,0  z " />
<path transform="translate( 0, 0 )" style="stroke: hsl(295.9, 55%, 50%);" id="2428"  d=" M  0,76.76  C  17.017,76.76  32.369,77.385  46.596,78.526  C  63.764,81.44  78.839,85.001  91.945,88.932  C  109.76,96.022  123.091,103.403  133.078,110.475  C  156.879,135.404  157.852,151.68  157.852,151.68  L  210.935,154.668  L  263.948,67.319  C  199.814,30.027  135.699,0  0,0  z " />
    </g>
    <!-- End of group #collar -->
    
    <!-- Start of group #cuffFacing -->
    <g id="cuffFacing"  transform=" translate(5.001 5)  translate(1431.736 281.608) " >
        <path class="hidden" id="10"  d=" M  -0.001,0  L  320,0  L  320,146.25  L  -0.001,146.25  z " />
<path transform="translate( 0, 0 )" style="stroke: hsl(26.9, 55%, 50%);" id="219"  d=" M  0,0  L  0,121.875  C  -0,135.337  10.913,146.25  24.375,146.25  L  295.625,146.25  C  309.087,146.25  320,135.337  320,121.875  L  320,0  z " />
<path transform="translate( 0, 0 )" style="stroke: hsl(53.8, 55%, 50%);" id="440"  d=" M  0,0  L  0,121.875  C  -0,135.337  10.913,146.25  24.375,146.25  L  295.625,146.25  C  309.087,146.25  320,135.337  320,121.875  L  320,0  z " />
<path transform="translate( 0, 0 )" style="stroke: hsl(80.7, 55%, 50%);" id="661"  d=" M  0,0  L  0,121.875  C  -0,135.337  10.913,146.25  24.375,146.25  L  295.624,146.25  C  309.086,146.25  319.999,135.337  319.999,121.875  L  319.999,0  z " />
<path transform="translate( 0, 0 )" style="stroke: hsl(107.6, 55%, 50%);" id="882"  d=" M  0,0  L  0,121.875  C  -0,135.337  10.913,146.25  24.375,146.25  L  295.625,146.25  C  309.087,146.25  320,135.337  320,121.875  L  320,0  z " />
<path transform="translate( 0, 0 )" style="stroke: hsl(134.5, 55%, 50%);" id="1103"  d=" M  0,0  L  0,121.875  C  -0,135.337  10.913,146.25  24.375,146.25  L  295.625,146.25  C  309.087,146.25  320,135.337  320,121.875  L  320,0  z " />
<path transform="translate( 0, 0 )" style="stroke: hsl(161.4, 55%, 50%);" id="1324"  d=" M  0,0  L  0,121.875  C  -0,135.337  10.913,146.25  24.375,146.25  L  295.625,146.25  C  309.087,146.25  320,135.337  320,121.875  L  320,0  z " />
<path transform="translate( 0, 0 )" style="stroke: hsl(188.3, 55%, 50%);" id="1545"  d=" M  0,0  L  0,121.875  C  -0,135.337  10.913,146.25  24.375,146.25  L  295.625,146.25  C  309.087,146.25  320,135.337  320,121.875  L  320,0  z " />
<path transform="translate( 0, 0 )" style="stroke: hsl(215.2, 55%, 50%);" id="1766"  d=" M  0,0  L  0,121.875  C  -0,135.337  10.913,146.25  24.375,146.25  L  295.625,146.25  C  309.087,146.25  320,135.337  320,121.875  L  320,0  z " />
<path transform="translate( 0, 0 )" style="stroke: hsl(242.1, 55%, 50%);" id="1987"  d=" M  0,0  L  0,121.875  C  -0,135.337  10.913,146.25  24.375,146.25  L  295.625,146.25  C  309.087,146.25  320,135.337  320,121.875  L  320,0  z " />
<path transform="translate( -0.0010000000000048, 0 )" style="stroke: hsl(269, 55%, 50%);" id="2208"  d=" M  0,0  L  0,121.875  C  -0,135.337  10.913,146.25  24.375,146.25  L  295.626,146.25  C  309.088,146.25  320.001,135.337  320.001,121.875  L  320.001,0  z " />
<path transform="translate( 0, 0 )" style="stroke: hsl(295.9, 55%, 50%);" id="2429"  d=" M  0,0  L  0,121.875  C  -0,135.337  10.913,146.25  24.375,146.25  L  295.625,146.25  C  309.087,146.25  320,135.337  320,121.875  L  320,0  z " />
    </g>
    <!-- End of group #cuffFacing -->
    
    <!-- Start of group #pocket -->
    <g id="pocket"  transform=" translate(-77.505 -712.5)  translate(1431.736 602.526) " >
        <path class="hidden" id="11"  d=" M  82.505,717.5  L  282.315,717.5  L  282.315,945.4  L  82.505,945.4  z " />
<path transform="translate( 0, 0 )" style="stroke: hsl(26.9, 55%, 50%);" id="220"  d=" M  82.505,717.5  L  82.505,895.4  C  82.505,923.014  104.891,945.4  132.505,945.4  L  232.315,945.4  C  259.929,945.4  282.315,923.014  282.315,895.4  L  282.315,717.5  L  82.505,717.5  z " />
<path transform="translate( 0, 0 )" style="stroke: hsl(53.8, 55%, 50%);" id="441"  d=" M  82.505,717.5  L  82.505,895.4  C  82.505,923.014  104.891,945.4  132.505,945.4  L  232.315,945.4  C  259.929,945.4  282.315,923.014  282.315,895.4  L  282.315,717.5  L  82.505,717.5  z " />
<path transform="translate( 0, 0 )" style="stroke: hsl(80.7, 55%, 50%);" id="662"  d=" M  82.505,717.5  L  82.505,895.4  C  82.505,923.014  104.891,945.4  132.505,945.4  L  232.315,945.4  C  259.929,945.4  282.315,923.014  282.315,895.4  L  282.315,717.5  L  82.505,717.5  z " />
<path transform="translate( 0, 0 )" style="stroke: hsl(107.6, 55%, 50%);" id="883"  d=" M  82.505,717.5  L  82.505,895.4  C  82.505,923.014  104.891,945.4  132.505,945.4  L  232.315,945.4  C  259.929,945.4  282.315,923.014  282.315,895.4  L  282.315,717.5  L  82.505,717.5  z " />
<path transform="translate( 0, 0 )" style="stroke: hsl(134.5, 55%, 50%);" id="1104"  d=" M  82.505,717.5  L  82.505,895.4  C  82.505,923.014  104.891,945.4  132.505,945.4  L  232.315,945.4  C  259.929,945.4  282.315,923.014  282.315,895.4  L  282.315,717.5  L  82.505,717.5  z " />
<path transform="translate( 0, 0 )" style="stroke: hsl(161.4, 55%, 50%);" id="1325"  d=" M  82.505,717.5  L  82.505,895.4  C  82.505,923.014  104.891,945.4  132.505,945.4  L  232.315,945.4  C  259.929,945.4  282.315,923.014  282.315,895.4  L  282.315,717.5  L  82.505,717.5  z " />
<path transform="translate( 0, 0 )" style="stroke: hsl(188.3, 55%, 50%);" id="1546"  d=" M  82.505,717.5  L  82.505,895.4  C  82.505,923.014  104.891,945.4  132.505,945.4  L  232.315,945.4  C  259.929,945.4  282.315,923.014  282.315,895.4  L  282.315,717.5  L  82.505,717.5  z " />
<path transform="translate( 0, 0 )" style="stroke: hsl(215.2, 55%, 50%);" id="1767"  d=" M  82.505,717.5  L  82.505,895.4  C  82.505,923.014  104.891,945.4  132.505,945.4  L  232.315,945.4  C  259.929,945.4  282.315,923.014  282.315,895.4  L  282.315,717.5  L  82.505,717.5  z " />
<path transform="translate( 0, 0 )" style="stroke: hsl(242.1, 55%, 50%);" id="1988"  d=" M  82.505,717.5  L  82.505,895.4  C  82.505,923.014  104.891,945.4  132.505,945.4  L  232.315,945.4  C  259.929,945.4  282.315,923.014  282.315,895.4  L  282.315,717.5  L  82.505,717.5  z " />
<path transform="translate( 0, 0 )" style="stroke: hsl(269, 55%, 50%);" id="2209"  d=" M  82.505,717.5  L  82.505,895.4  C  82.505,923.014  104.891,945.4  132.505,945.4  L  232.315,945.4  C  259.929,945.4  282.315,923.014  282.315,895.4  L  282.315,717.5  L  82.505,717.5  z " />
<path transform="translate( 0, 0 )" style="stroke: hsl(295.9, 55%, 50%);" id="2430"  d=" M  82.505,717.5  L  82.505,895.4  C  82.505,923.014  104.891,945.4  132.505,945.4  L  232.315,945.4  C  259.929,945.4  282.315,923.014  282.315,895.4  L  282.315,717.5  L  82.505,717.5  z " />
    </g>
    <!-- End of group #pocket -->
    
    <!-- Start of group #pocketFlap -->
    <g id="pocketFlap"  transform=" translate(-76.88 -700.016)  translate(1705.684 437.858) " >
        <path class="hidden" id="12"  d=" M  81.88,705.016  L  282.94,705.016  L  282.94,787.468  L  81.88,787.468  z " />
<path transform="translate( 0, 0 )" style="stroke: hsl(26.9, 55%, 50%);" id="221"  d=" M  81.88,705.016  L  84.505,757.468  C  85.333,774.016  97.936,787.468  114.505,787.468  L  250.315,787.468  C  266.884,787.468  279.487,774.016  280.315,757.468  L  282.94,705.016  z " />
<path transform="translate( 0, 0 )" style="stroke: hsl(53.8, 55%, 50%);" id="442"  d=" M  81.88,705.016  L  84.505,757.468  C  85.333,774.016  97.936,787.468  114.505,787.468  L  250.315,787.468  C  266.884,787.468  279.487,774.016  280.315,757.468  L  282.94,705.016  z " />
<path transform="translate( 0, 0 )" style="stroke: hsl(80.7, 55%, 50%);" id="663"  d=" M  81.88,705.016  L  84.505,757.468  C  85.333,774.016  97.936,787.468  114.505,787.468  L  250.315,787.468  C  266.884,787.468  279.487,774.016  280.315,757.468  L  282.94,705.016  z " />
<path transform="translate( 0, 0 )" style="stroke: hsl(107.6, 55%, 50%);" id="884"  d=" M  81.88,705.016  L  84.505,757.468  C  85.333,774.016  97.936,787.468  114.505,787.468  L  250.315,787.468  C  266.884,787.468  279.487,774.016  280.315,757.468  L  282.94,705.016  z " />
<path transform="translate( 0, 0 )" style="stroke: hsl(134.5, 55%, 50%);" id="1105"  d=" M  81.88,705.016  L  84.505,757.468  C  85.333,774.016  97.936,787.468  114.505,787.468  L  250.315,787.468  C  266.884,787.468  279.487,774.016  280.315,757.468  L  282.94,705.016  z " />
<path transform="translate( 0, 0 )" style="stroke: hsl(161.4, 55%, 50%);" id="1326"  d=" M  81.88,705.016  L  84.505,757.468  C  85.333,774.016  97.936,787.468  114.505,787.468  L  250.315,787.468  C  266.884,787.468  279.487,774.016  280.315,757.468  L  282.94,705.016  z " />
<path transform="translate( 0, 0 )" style="stroke: hsl(188.3, 55%, 50%);" id="1547"  d=" M  81.88,705.016  L  84.505,757.468  C  85.333,774.016  97.936,787.468  114.505,787.468  L  250.315,787.468  C  266.884,787.468  279.487,774.016  280.315,757.468  L  282.94,705.016  z " />
<path transform="translate( 0, 0 )" style="stroke: hsl(215.2, 55%, 50%);" id="1768"  d=" M  81.88,705.016  L  84.505,757.468  C  85.333,774.016  97.936,787.468  114.505,787.468  L  250.315,787.468  C  266.884,787.468  279.487,774.016  280.315,757.468  L  282.94,705.016  z " />
<path transform="translate( 0, 0 )" style="stroke: hsl(242.1, 55%, 50%);" id="1989"  d=" M  81.88,705.016  L  84.505,757.468  C  85.333,774.016  97.936,787.468  114.505,787.468  L  250.315,787.468  C  266.884,787.468  279.487,774.016  280.315,757.468  L  282.94,705.016  z " />
<path transform="translate( 0, 0 )" style="stroke: hsl(269, 55%, 50%);" id="2210"  d=" M  81.88,705.016  L  84.505,757.468  C  85.333,774.016  97.936,787.468  114.505,787.468  L  250.315,787.468  C  266.884,787.468  279.487,774.016  280.315,757.468  L  282.94,705.016  z " />
<path transform="translate( 0, 0 )" style="stroke: hsl(295.9, 55%, 50%);" id="2431"  d=" M  81.88,705.016  L  84.505,757.468  C  85.333,774.016  97.936,787.468  114.505,787.468  L  250.315,787.468  C  266.884,787.468  279.487,774.016  280.315,757.468  L  282.94,705.016  z " />
    </g>
    <!-- End of group #pocketFlap -->
    
    <!-- Start of group #chestPocketWelt -->
    <g id="chestPocketWelt"  transform=" translate(5 5)  translate(1641.546 602.526) " >
        <path class="hidden" id="13"  d=" M  0,0  L  41.34,0  L  41.34,184.016  L  0,184.016  z " />
<path transform="translate( 0, 0 )" style="stroke: hsl(26.9, 55%, 50%);" id="222"  d=" M  0,0  L  41.34,0  L  41.34,184.016  L  0,184.016  L  0,0  z " />
<path transform="translate( 0, 0 )" style="stroke: hsl(53.8, 55%, 50%);" id="443"  d=" M  0,0  L  41.34,0  L  41.34,184.016  L  0,184.016  L  0,0  z " />
<path transform="translate( 0, 0 )" style="stroke: hsl(80.7, 55%, 50%);" id="664"  d=" M  0,0  L  41.34,0  L  41.34,184.016  L  0,184.016  L  0,0  z " />
<path transform="translate( 0, 0 )" style="stroke: hsl(107.6, 55%, 50%);" id="885"  d=" M  0,0  L  41.34,0  L  41.34,184.016  L  0,184.016  L  0,0  z " />
<path transform="translate( 0, 0 )" style="stroke: hsl(134.5, 55%, 50%);" id="1106"  d=" M  0,0  L  41.34,0  L  41.34,184.016  L  0,184.016  L  0,0  z " />
<path transform="translate( 0, 0 )" style="stroke: hsl(161.4, 55%, 50%);" id="1327"  d=" M  0,0  L  41.34,0  L  41.34,184.016  L  0,184.016  L  0,0  z " />
<path transform="translate( 0, 0 )" style="stroke: hsl(188.3, 55%, 50%);" id="1548"  d=" M  0,0  L  41.34,0  L  41.34,184.016  L  0,184.016  L  0,0  z " />
<path transform="translate( 0, 0 )" style="stroke: hsl(215.2, 55%, 50%);" id="1769"  d=" M  0,0  L  41.34,0  L  41.34,184.016  L  0,184.016  L  0,0  z " />
<path transform="translate( 0, 0 )" style="stroke: hsl(242.1, 55%, 50%);" id="1990"  d=" M  0,0  L  41.34,0  L  41.34,184.016  L  0,184.016  L  0,0  z " />
<path transform="translate( 0, 0 )" style="stroke: hsl(269, 55%, 50%);" id="2211"  d=" M  0,0  L  41.34,0  L  41.34,184.016  L  0,184.016  L  0,0  z " />
<path transform="translate( 0, 0 )" style="stroke: hsl(295.9, 55%, 50%);" id="2432"  d=" M  0,0  L  41.34,0  L  41.34,184.016  L  0,184.016  L  0,0  z " />
    </g>
    <!-- End of group #chestPocketWelt -->
    
    <!-- Start of group #sampler-front -->
    <g id="sampler-front" >
    </g>
    <!-- End of group #sampler-front -->
    
    <!-- Start of group #sampler-back -->
    <g id="sampler-back" >
    </g>
    <!-- End of group #sampler-back -->
    
    <!-- Start of group #sampler-tail -->
    <g id="sampler-tail" >
    </g>
    <!-- End of group #sampler-tail -->
    
    <!-- Start of group #sampler-topsleeve -->
    <g id="sampler-topsleeve" >
    </g>
    <!-- End of group #sampler-topsleeve -->
    
    <!-- Start of group #sampler-undersleeve -->
    <g id="sampler-undersleeve" >
    </g>
    <!-- End of group #sampler-undersleeve -->
    
    <!-- Start of group #sampler-belt -->
    <g id="sampler-belt" >
    </g>
    <!-- End of group #sampler-belt -->
    
    <!-- Start of group #sampler-collarStand -->
    <g id="sampler-collarStand" >
    </g>
    <!-- End of group #sampler-collarStand -->
    
    <!-- Start of group #sampler-collar -->
    <g id="sampler-collar" >
    </g>
    <!-- End of group #sampler-collar -->
    
    <!-- Start of group #sampler-cuffFacing -->
    <g id="sampler-cuffFacing" >
    </g>
    <!-- End of group #sampler-cuffFacing -->
    
    <!-- Start of group #sampler-pocket -->
    <g id="sampler-pocket" >
    </g>
    <!-- End of group #sampler-pocket -->
    
    <!-- Start of group #sampler-pocketFlap -->
    <g id="sampler-pocketFlap" >
    </g>
    <!-- End of group #sampler-pocketFlap -->
    
    <!-- Start of group #sampler-chestPocketWelt -->
    <g id="sampler-chestPocketWelt" >
    </g>
    <!-- End of group #sampler-chestPocketWelt -->
</g>
<!-- End of group #patternContainer -->

</svg>

