<?xml version="1.0" encoding="UTF-8" standalone="no"?>
<svg
    xmlns="http://www.w3.org/2000/svg"
    xmlns:svg="http://www.w3.org/2000/svg"
    xmlns:xlink="http://www.w3.org/1999/xlink"
    xmlns:freesewing="http://freesewing.org/namespaces/freesewing" viewBox ="0 0 1888 1494"
    width ="1888mm"
    height ="1494mm"
    freesewing:version ="1.5.0"
    freesewing:origin ="joost.core.freesewing.org" 
>

<style type="text/css">
    <![CDATA[
    path { fill: none; stroke: #000000; stroke-opacity:1; stroke-width: 0.5; stroke-miterlimit:4; stroke-dashoffset:0; stroke-linecap:round; stroke-linejoin:round; }
    path.hidden { fill: none; stroke: none; }]]>
</style>


<!-- Start of group #patternContainer -->
<g id="patternContainer" >
    
    <!-- Start of group #backBlock -->
    <g id="backBlock" >
    </g>
    <!-- End of group #backBlock -->
    
    <!-- Start of group #frontBlock -->
    <g id="frontBlock" >
    </g>
    <!-- End of group #frontBlock -->
    
    <!-- Start of group #sleeveBlock -->
    <g id="sleeveBlock" >
    </g>
    <!-- End of group #sleeveBlock -->
    
    <!-- Start of group #topsleeveBlock -->
    <g id="topsleeveBlock" >
    </g>
    <!-- End of group #topsleeveBlock -->
    
    <!-- Start of group #undersleeveBlock -->
    <g id="undersleeveBlock" >
    </g>
    <!-- End of group #undersleeveBlock -->
    
    <!-- Start of group #front -->
    <g id="front"  transform=" translate(87.505 5)  translate(0 0) " >
        <path class="hidden" id="2"  d=" M  -82.505,0  L  342.5,0  L  342.5,1483.9  L  -82.505,1483.9  z " />
<path transform="translate( 0, 0 )" style="stroke: hsl(26.9, 55%, 50%);" id="210"  d=" M  0,93  L  -77.505,93  C  -77.505,93  -82.505,142.12  -82.505,338.6  L  -82.505,1483.9  L  342.5,1483.9  L  342.5,1010  C  342.5,870  308.125,700.7  308.125,580  C  308.125,459.3  325,353.688  325,338.6  C  301.25,338.6  280.795,329.885  259.755,308.845  C  238.715,287.805  225,229.9  225,179.3  C  225,128.7  233.247,37.345  235,27.5  L  80.579,0  C  77.072,19.69  80.579,93  0,93  z " />
<path transform="translate( 0, 0 )" style="stroke: hsl(53.8, 55%, 50%);" id="431"  d=" M  0,93  L  -77.505,93  C  -77.505,93  -82.505,142.12  -82.505,338.6  L  -82.505,1483.9  L  342.5,1483.9  L  342.5,1010  C  342.5,870  308.125,700.7  308.125,580  C  308.125,459.3  325,353.688  325,338.6  C  301.625,338.6  281.79,329.972  260.959,309.141  C  240.128,288.31  226.5,229.9  226.5,179.3  C  226.5,128.7  234.763,37.348  236.5,27.5  L  80.579,0  C  77.105,19.696  80.579,93  0,93  z " />
<path transform="translate( 0, 0 )" style="stroke: hsl(80.7, 55%, 50%);" id="652"  d=" M  0,93  L  -77.505,93  C  -77.505,93  -82.505,142.12  -82.505,338.6  L  -82.505,1483.9  L  342.5,1483.9  L  342.5,1010  C  342.5,870  308.125,700.7  308.125,580  C  308.125,459.3  325,353.688  325,338.6  C  302,338.6  282.779,330.059  262.16,309.44  C  241.541,288.821  228,229.9  228,179.3  C  228,128.7  236.279,37.351  238,27.5  L  80.579,0  C  77.137,19.702  80.579,93  0,93  z " />
<path transform="translate( 0, 0 )" style="stroke: hsl(107.6, 55%, 50%);" id="873"  d=" M  0,93  L  -77.505,93  C  -77.505,93  -82.505,142.12  -82.505,338.6  L  -82.505,1483.9  L  342.5,1483.9  L  342.5,1010  C  342.5,870  308.125,700.7  308.125,580  C  308.125,459.3  325,353.688  325,338.6  C  302.375,338.6  283.76,330.148  263.356,309.744  C  242.952,289.34  229.5,229.9  229.5,179.3  C  229.5,128.7  237.795,37.354  239.5,27.5  L  80.579,0  C  77.169,19.707  80.579,93  0,93  z " />
<path transform="translate( 0, 0 )" style="stroke: hsl(134.5, 55%, 50%);" id="1094"  d=" M  0,93  L  -77.505,93  C  -77.505,93  -82.505,142.12  -82.505,338.6  L  -82.505,1483.9  L  342.5,1483.9  L  342.5,1010  C  342.5,870  308.125,700.7  308.125,580  C  308.125,459.3  325,353.688  325,338.6  C  302.75,338.6  284.736,330.238  264.549,310.051  C  244.362,289.864  231,229.9  231,179.3  C  231,128.7  239.31,37.356  241,27.5  L  80.579,0  C  77.2,19.712  80.579,93  0,93  z " />
<path transform="translate( 0, 0 )" style="stroke: hsl(161.4, 55%, 50%);" id="1315"  d=" M  0,93  L  -77.505,93  C  -77.505,93  -82.505,142.12  -82.505,338.6  L  -82.505,1483.9  L  342.5,1483.9  L  342.5,1010  C  342.5,870  308.125,700.7  308.125,580  C  308.125,459.3  325,353.688  325,338.6  C  303.125,338.6  285.707,330.329  265.739,310.361  C  245.771,290.393  232.5,229.9  232.5,179.3  C  232.5,128.7  240.826,37.359  242.5,27.5  L  80.579,0  C  77.23,19.718  80.579,93  0,93  z " />
<path transform="translate( 0, 0 )" style="stroke: hsl(188.3, 55%, 50%);" id="1536"  d=" M  0,93  L  -77.505,93  C  -77.505,93  -82.505,142.12  -82.505,338.6  L  -82.505,1483.9  L  342.5,1483.9  L  342.5,1010  C  342.5,870  308.125,700.7  308.125,580  C  308.125,459.3  325,353.688  325,338.6  C  303.5,338.6  286.669,330.421  266.924,310.676  C  247.179,290.931  234,229.9  234,179.3  C  234,128.7  242.341,37.361  244,27.5  L  80.579,0  C  77.26,19.723  80.579,93  0,93  z " />
<path transform="translate( 0, 0 )" style="stroke: hsl(215.2, 55%, 50%);" id="1757"  d=" M  0,93  L  -77.505,93  C  -77.505,93  -82.505,142.12  -82.505,338.6  L  -82.505,1483.9  L  342.5,1483.9  L  342.5,1010  C  342.5,870  308.125,700.7  308.125,580  C  308.125,459.3  325,353.688  325,338.6  C  303.875,338.6  287.626,330.514  268.106,310.994  C  248.586,291.474  235.5,229.9  235.5,179.3  C  235.5,128.7  243.855,37.364  245.5,27.5  L  80.579,0  C  77.289,19.728  80.579,93  0,93  z " />
<path transform="translate( 0, 0 )" style="stroke: hsl(242.1, 55%, 50%);" id="1978"  d=" M  0,93  L  -77.505,93  C  -77.505,93  -82.505,142.12  -82.505,338.6  L  -82.505,1483.9  L  342.5,1483.9  L  342.5,1010  C  342.5,870  308.125,700.7  308.125,580  C  308.125,459.3  325,353.688  325,338.6  C  304.25,338.6  288.577,330.609  269.284,311.316  C  249.991,292.023  237,229.9  237,179.3  C  237,128.7  245.37,37.366  247,27.5  L  80.579,0  C  77.318,19.732  80.579,93  0,93  z " />
<path transform="translate( 0, 0 )" style="stroke: hsl(269, 55%, 50%);" id="2199"  d=" M  0,93  L  -77.505,93  C  -77.505,93  -82.505,142.12  -82.505,338.6  L  -82.505,1483.9  L  342.5,1483.9  L  342.5,1010  C  342.5,870  308.125,700.7  308.125,580  C  308.125,459.3  325,353.688  325,338.6  C  304.625,338.6  289.52,330.704  270.458,311.642  C  251.396,292.58  238.5,229.9  238.5,179.3  C  238.5,128.7  246.884,37.369  248.5,27.5  L  80.579,0  C  77.347,19.737  80.579,93  0,93  z " />
<path transform="translate( 0, 0 )" style="stroke: hsl(295.9, 55%, 50%);" id="2420"  d=" M  0,93  L  -77.505,93  C  -77.505,93  -82.505,142.12  -82.505,338.6  L  -82.505,1483.9  L  342.5,1483.9  L  342.5,1010  C  342.5,870  308.125,700.7  308.125,580  C  308.125,459.3  325,353.688  325,338.6  C  305,338.6  290.457,330.801  271.628,311.972  C  252.799,293.143  240,229.9  240,179.3  C  240,128.7  248.398,37.371  250,27.5  L  80.579,0  C  77.375,19.742  80.579,93  0,93  z " />
    </g>
    <!-- End of group #front -->
    
    <!-- Start of group #back -->
    <g id="back"  transform=" translate(55.88 5)  translate(1006.558 0) " >
        <path class="hidden" id="3"  d=" M  -50.88,0  L  325,0  L  325,545  L  -50.88,545  z " />
<path transform="translate( 0, 0 )" style="stroke: hsl(26.9, 55%, 50%);" id="211"  d=" M  0,20  L  0,179.3  L  -50.88,179.3  L  -50.88,545  L  106.375,545  C  106.375,441.8  123.25,338.6  123.25,338.6  C  123.25,338.6  140.125,441.8  140.125,545  L  308.125,545  C  308.125,459.3  325,353.688  325,338.6  C  301.25,338.6  280.795,329.885  259.755,308.845  C  238.715,287.805  230,229.9  230,179.3  C  230,128.7  233.247,37.345  235,27.5  L  80.579,0  C  77.072,19.69  0,20  0,20  z " />
<path transform="translate( 0, 0 )" style="stroke: hsl(53.8, 55%, 50%);" id="432"  d=" M  0,20  L  0,179.3  L  -50.88,179.3  L  -50.88,545  L  106.375,545  C  106.375,441.8  123.25,338.6  123.25,338.6  C  123.25,338.6  140.125,441.8  140.125,545  L  308.125,545  C  308.125,459.3  325,353.688  325,338.6  C  301.625,338.6  281.79,329.972  260.959,309.141  C  240.128,288.31  231.5,229.9  231.5,179.3  C  231.5,128.7  234.763,37.348  236.5,27.5  L  80.579,0  C  77.105,19.696  0,20  0,20  z " />
<path transform="translate( 0, 0 )" style="stroke: hsl(80.7, 55%, 50%);" id="653"  d=" M  0,20  L  0,179.3  L  -50.88,179.3  L  -50.88,545  L  106.375,545  C  106.375,441.8  123.25,338.6  123.25,338.6  C  123.25,338.6  140.125,441.8  140.125,545  L  308.125,545  C  308.125,459.3  325,353.688  325,338.6  C  302,338.6  282.779,330.059  262.16,309.44  C  241.541,288.821  233,229.9  233,179.3  C  233,128.7  236.279,37.351  238,27.5  L  80.579,0  C  77.137,19.702  0,20  0,20  z " />
<path transform="translate( 0, 0 )" style="stroke: hsl(107.6, 55%, 50%);" id="874"  d=" M  0,20  L  0,179.3  L  -50.88,179.3  L  -50.88,545  L  106.375,545  C  106.375,441.8  123.25,338.6  123.25,338.6  C  123.25,338.6  140.125,441.8  140.125,545  L  308.125,545  C  308.125,459.3  325,353.688  325,338.6  C  302.375,338.6  283.76,330.148  263.356,309.744  C  242.952,289.34  234.5,229.9  234.5,179.3  C  234.5,128.7  237.795,37.354  239.5,27.5  L  80.579,0  C  77.169,19.707  0,20  0,20  z " />
<path transform="translate( 0, 0 )" style="stroke: hsl(134.5, 55%, 50%);" id="1095"  d=" M  0,20  L  0,179.3  L  -50.88,179.3  L  -50.88,545  L  106.375,545  C  106.375,441.8  123.25,338.6  123.25,338.6  C  123.25,338.6  140.125,441.8  140.125,545  L  308.125,545  C  308.125,459.3  325,353.688  325,338.6  C  302.75,338.6  284.736,330.238  264.549,310.051  C  244.362,289.864  236,229.9  236,179.3  C  236,128.7  239.31,37.356  241,27.5  L  80.579,0  C  77.2,19.712  0,20  0,20  z " />
<path transform="translate( 0, 0 )" style="stroke: hsl(161.4, 55%, 50%);" id="1316"  d=" M  0,20  L  0,179.3  L  -50.88,179.3  L  -50.88,545  L  106.375,545  C  106.375,441.8  123.25,338.6  123.25,338.6  C  123.25,338.6  140.125,441.8  140.125,545  L  308.125,545  C  308.125,459.3  325,353.688  325,338.6  C  303.125,338.6  285.707,330.329  265.739,310.361  C  245.771,290.393  237.5,229.9  237.5,179.3  C  237.5,128.7  240.826,37.359  242.5,27.5  L  80.579,0  C  77.23,19.718  0,20  0,20  z " />
<path transform="translate( 0, 0 )" style="stroke: hsl(188.3, 55%, 50%);" id="1537"  d=" M  0,20  L  0,179.3  L  -50.88,179.3  L  -50.88,545  L  106.375,545  C  106.375,441.8  123.25,338.6  123.25,338.6  C  123.25,338.6  140.125,441.8  140.125,545  L  308.125,545  C  308.125,459.3  325,353.688  325,338.6  C  303.5,338.6  286.669,330.421  266.924,310.676  C  247.179,290.931  239,229.9  239,179.3  C  239,128.7  242.341,37.361  244,27.5  L  80.579,0  C  77.26,19.723  0,20  0,20  z " />
<path transform="translate( 0, 0 )" style="stroke: hsl(215.2, 55%, 50%);" id="1758"  d=" M  0,20  L  0,179.3  L  -50.88,179.3  L  -50.88,545  L  106.375,545  C  106.375,441.8  123.25,338.6  123.25,338.6  C  123.25,338.6  140.125,441.8  140.125,545  L  308.125,545  C  308.125,459.3  325,353.688  325,338.6  C  303.875,338.6  287.626,330.514  268.106,310.994  C  248.586,291.474  240.5,229.9  240.5,179.3  C  240.5,128.7  243.855,37.364  245.5,27.5  L  80.579,0  C  77.289,19.728  0,20  0,20  z " />
<path transform="translate( 0, 0 )" style="stroke: hsl(242.1, 55%, 50%);" id="1979"  d=" M  0,20  L  0,179.3  L  -50.88,179.3  L  -50.88,545  L  106.375,545  C  106.375,441.8  123.25,338.6  123.25,338.6  C  123.25,338.6  140.125,441.8  140.125,545  L  308.125,545  C  308.125,459.3  325,353.688  325,338.6  C  304.25,338.6  288.577,330.609  269.284,311.316  C  249.991,292.023  242,229.9  242,179.3  C  242,128.7  245.37,37.366  247,27.5  L  80.579,0  C  77.318,19.732  0,20  0,20  z " />
<path transform="translate( 0, 0 )" style="stroke: hsl(269, 55%, 50%);" id="2200"  d=" M  0,20  L  0,179.3  L  -50.88,179.3  L  -50.88,545  L  106.375,545  C  106.375,441.8  123.25,338.6  123.25,338.6  C  123.25,338.6  140.125,441.8  140.125,545  L  308.125,545  C  308.125,459.3  325,353.688  325,338.6  C  304.625,338.6  289.52,330.704  270.458,311.642  C  251.396,292.58  243.5,229.9  243.5,179.3  C  243.5,128.7  246.884,37.369  248.5,27.5  L  80.579,0  C  77.347,19.737  0,20  0,20  z " />
<path transform="translate( 0, 0 )" style="stroke: hsl(295.9, 55%, 50%);" id="2421"  d=" M  0,20  L  0,179.3  L  -50.88,179.3  L  -50.88,545  L  106.375,545  C  106.375,441.8  123.25,338.6  123.25,338.6  C  123.25,338.6  140.125,441.8  140.125,545  L  308.125,545  C  308.125,459.3  325,353.688  325,338.6  C  305,338.6  290.457,330.801  271.628,311.972  C  252.799,293.143  245,229.9  245,179.3  C  245,128.7  248.398,37.371  250,27.5  L  80.579,0  C  77.375,19.742  0,20  0,20  z " />
    </g>
    <!-- End of group #back -->
    
    <!-- Start of group #tail -->
    <g id="tail"  transform=" translate(216.296 5)  translate(1392.438 0) " >
        <path class="hidden" id="4"  d=" M  -211.296,0  L  274.375,0  L  274.375,130  L  -211.296,130  z " />
<path transform="translate( 0, 0 )" style="stroke: hsl(26.9, 55%, 50%);" id="212"  d=" M  -211.296,50  -211.296,0  L  0,0  L  274.375,0  L  274.375,50 " />
<path transform="translate( 0, 0 )" style="stroke: hsl(26.9, 55%, 50%);" id="213"  d=" M  -211.296,80  -211.296,130  L  -0,130  L  274.375,130  L  274.375,80 " />
<path transform="translate( 0, 0 )" style="stroke: hsl(53.8, 55%, 50%);" id="433"  d=" M  -211.296,50  -211.296,0  L  0,0  L  274.375,0  L  274.375,50 " />
<path transform="translate( 0, 0 )" style="stroke: hsl(53.8, 55%, 50%);" id="434"  d=" M  -211.296,80  -211.296,130  L  -0,130  L  274.375,130  L  274.375,80 " />
<path transform="translate( 0, 0 )" style="stroke: hsl(80.7, 55%, 50%);" id="654"  d=" M  -211.296,50  -211.296,0  L  0,0  L  274.375,0  L  274.375,50 " />
<path transform="translate( 0, 0 )" style="stroke: hsl(80.7, 55%, 50%);" id="655"  d=" M  -211.296,80  -211.296,130  L  -0,130  L  274.375,130  L  274.375,80 " />
<path transform="translate( 0, 0 )" style="stroke: hsl(107.6, 55%, 50%);" id="875"  d=" M  -211.296,50  -211.296,0  L  0,0  L  274.375,0  L  274.375,50 " />
<path transform="translate( 0, 0 )" style="stroke: hsl(107.6, 55%, 50%);" id="876"  d=" M  -211.296,80  -211.296,130  L  -0,130  L  274.375,130  L  274.375,80 " />
<path transform="translate( 0, 0 )" style="stroke: hsl(134.5, 55%, 50%);" id="1096"  d=" M  -211.296,50  -211.296,0  L  0,0  L  274.375,0  L  274.375,50 " />
<path transform="translate( 0, 0 )" style="stroke: hsl(134.5, 55%, 50%);" id="1097"  d=" M  -211.296,80  -211.296,130  L  -0,130  L  274.375,130  L  274.375,80 " />
<path transform="translate( 0, 0 )" style="stroke: hsl(161.4, 55%, 50%);" id="1317"  d=" M  -211.296,50  -211.296,0  L  0,0  L  274.375,0  L  274.375,50 " />
<path transform="translate( 0, 0 )" style="stroke: hsl(161.4, 55%, 50%);" id="1318"  d=" M  -211.296,80  -211.296,130  L  -0,130  L  274.375,130  L  274.375,80 " />
<path transform="translate( 0, 0 )" style="stroke: hsl(188.3, 55%, 50%);" id="1538"  d=" M  -211.296,50  -211.296,0  L  0,0  L  274.375,0  L  274.375,50 " />
<path transform="translate( 0, 0 )" style="stroke: hsl(188.3, 55%, 50%);" id="1539"  d=" M  -211.296,80  -211.296,130  L  -0,130  L  274.375,130  L  274.375,80 " />
<path transform="translate( 0, 0 )" style="stroke: hsl(215.2, 55%, 50%);" id="1759"  d=" M  -211.296,50  -211.296,0  L  0,0  L  274.375,0  L  274.375,50 " />
<path transform="translate( 0, 0 )" style="stroke: hsl(215.2, 55%, 50%);" id="1760"  d=" M  -211.296,80  -211.296,130  L  -0,130  L  274.375,130  L  274.375,80 " />
<path transform="translate( 0, 0 )" style="stroke: hsl(242.1, 55%, 50%);" id="1980"  d=" M  -211.296,50  -211.296,0  L  0,0  L  274.375,0  L  274.375,50 " />
<path transform="translate( 0, 0 )" style="stroke: hsl(242.1, 55%, 50%);" id="1981"  d=" M  -211.296,80  -211.296,130  L  -0,130  L  274.375,130  L  274.375,80 " />
<path transform="translate( 0, 0 )" style="stroke: hsl(269, 55%, 50%);" id="2201"  d=" M  -211.296,50  -211.296,0  L  0,0  L  274.375,0  L  274.375,50 " />
<path transform="translate( 0, 0 )" style="stroke: hsl(269, 55%, 50%);" id="2202"  d=" M  -211.296,80  -211.296,130  L  -0,130  L  274.375,130  L  274.375,80 " />
<path transform="translate( 0, 0 )" style="stroke: hsl(295.9, 55%, 50%);" id="2422"  d=" M  -211.296,50  -211.296,0  L  0,0  L  274.375,0  L  274.375,50 " />
<path transform="translate( 0, 0 )" style="stroke: hsl(295.9, 55%, 50%);" id="2423"  d=" M  -211.296,80  -211.296,130  L  -0,130  L  274.375,130  L  274.375,80 " />
    </g>
    <!-- End of group #tail -->
    
    <!-- Start of group #topsleeve -->
    <g id="topsleeve"  transform=" translate(171.901 5)  translate(435.005 0) " >
        <path class="hidden" id="5"  d=" M  -166.901,0  L  148.357,0  L  148.357,816.566  L  -166.901,816.566  z " />
<path transform="translate( 0, 0 )" style="stroke: hsl(26.9, 55%, 50%);" id="214"  d=" M  133.521,380  C  142.514,329  148.357,273.334  148.357,205  C  148.357,136.666  133.521,68.333  133.521,68.333  C  133.521,68.333  83.451,0  0,0  C  -83.451,0  -122.394,68.333  -133.521,123  C  -144.648,177.667  -150.211,205  -166.901,205  C  -166.901,205  -155.426,313.357  -148.357,380  L  -113.011,713.215  L  -116.554,810.651  L  45.668,816.55  C  59.121,817.039  70.424,806.53  70.913,793.077  L  73.57,720  z " />
<path transform="translate( 0.35199999999999, 0 )" style="stroke: hsl(53.8, 55%, 50%);" id="435"  d=" M  133.169,380  C  142.162,329  147.966,273.334  147.966,205  C  147.966,136.666  133.169,68.333  133.169,68.333  C  133.169,68.333  83.231,0  0,0  C  -83.231,0  -122.072,68.333  -133.169,123  C  -144.266,177.667  -149.815,205  -166.461,205  C  -166.461,205  -154.902,313.393  -147.966,380  L  -113.286,713.034  L  -116.925,810.466  L  45.221,816.522  C  58.674,817.025  69.986,806.527  70.489,793.074  L  73.218,720  z " />
<path transform="translate( 0.702, 0 )" style="stroke: hsl(80.7, 55%, 50%);" id="656"  d=" M  132.819,380  C  141.812,329  147.577,273.334  147.577,205  C  147.577,136.666  132.819,68.333  132.819,68.333  C  132.819,68.333  83.012,0  0,0  C  -83.012,0  -121.75,68.333  -132.819,123  C  -143.888,177.667  -149.422,205  -166.024,205  C  -166.024,205  -154.381,313.43  -147.577,380  L  -113.559,712.853  L  -117.294,810.281  L  44.776,816.494  C  58.228,817.01  69.551,806.523  70.067,793.071  L  72.868,720  z " />
<path transform="translate( 1.05, 0 )" style="stroke: hsl(107.6, 55%, 50%);" id="877"  d=" M  132.471,380  C  141.464,329  147.19,273.334  147.19,205  C  147.19,136.666  132.471,68.333  132.471,68.333  C  132.471,68.333  82.794,0  0,0  C  -82.794,0  -121.432,68.333  -132.471,123  C  -143.51,177.667  -149.03,205  -165.589,205  C  -165.589,205  -153.862,313.465  -147.19,380  L  -113.83,712.674  L  -117.66,810.099  L  44.334,816.468  C  57.786,816.997  69.118,806.521  69.647,793.069  L  72.52,720  z " />
<path transform="translate( 1.397, 0 )" style="stroke: hsl(134.5, 55%, 50%);" id="1098"  d=" M  132.124,380  C  141.117,329  146.804,273.334  146.804,205  C  146.804,136.666  132.124,68.333  132.124,68.333  C  132.124,68.333  82.578,0  0,0  C  -82.578,0  -121.113,68.334  -132.124,123  C  -143.135,177.666  -148.64,205  -165.155,205  C  -165.155,205  -153.345,313.501  -146.804,380  L  -114.101,712.495  L  -118.026,809.916  L  43.893,816.44  C  57.344,816.982  68.687,806.517  69.229,793.066  L  72.173,720  z " />
<path transform="translate( 1.741, 0 )" style="stroke: hsl(161.4, 55%, 50%);" id="1319"  d=" M  131.78,380  C  140.773,329  146.422,273.334  146.422,205  C  146.422,136.666  131.78,68.333  131.78,68.333  C  131.78,68.333  82.363,0  0,0  C  -82.363,0  -120.798,68.333  -131.78,123  C  -142.762,177.667  -148.253,205  -164.725,205  C  -164.725,205  -152.833,313.537  -146.422,380  L  -114.369,712.318  L  -118.388,809.735  L  43.456,816.412  C  56.907,816.967  68.26,806.514  68.815,793.063  L  71.829,720  z " />
<path transform="translate( 2.084, 0 )" style="stroke: hsl(188.3, 55%, 50%);" id="1540"  d=" M  131.437,380  C  140.43,329  146.041,273.334  146.041,205  C  146.041,136.666  131.437,68.333  131.437,68.333  C  131.437,68.333  82.148,0  0,0  C  -82.148,0  -120.484,68.334  -131.437,123  C  -142.39,177.666  -147.867,205  -164.296,205  C  -164.296,205  -152.322,313.572  -146.041,380  L  -114.635,712.141  L  -118.748,809.554  L  43.02,816.385  C  56.47,816.953  67.833,806.51  68.401,793.06  L  71.486,720  z " />
<path transform="translate( 2.424, 0 )" style="stroke: hsl(215.2, 55%, 50%);" id="1761"  d=" M  131.097,380  C  140.09,329  145.663,273.334  145.663,205  C  145.663,136.666  131.097,68.333  131.097,68.333  C  131.097,68.333  81.936,0  0,0  C  -81.936,0  -120.172,68.333  -131.097,123  C  -142.022,177.667  -147.484,205  -163.871,205  C  -163.871,205  -151.816,313.607  -145.663,380  L  -114.9,711.967  L  -119.106,809.376  L  42.588,816.357  C  56.037,816.938  67.411,806.506  67.992,793.057  L  71.146,720  z " />
<path transform="translate( 2.763, 0 )" style="stroke: hsl(242.1, 55%, 50%);" id="1982"  d=" M  130.758,380  C  139.751,329  145.287,273.334  145.287,205  C  145.287,136.666  130.758,68.333  130.758,68.333  C  130.758,68.333  81.724,0  0,0  C  -81.724,0  -119.861,68.333  -130.758,123  C  -141.655,177.667  -147.103,205  -163.447,205  C  -163.447,205  -151.312,313.642  -145.287,380  L  -115.164,711.793  L  -119.463,809.198  L  42.157,816.33  C  55.606,816.924  66.989,806.503  67.583,793.054  L  70.807,720  z " />
<path transform="translate( 3.099, 0 )" style="stroke: hsl(269, 55%, 50%);" id="2203"  d=" M  130.422,380  C  139.415,329  144.913,273.334  144.913,205  C  144.913,136.666  130.422,68.333  130.422,68.333  C  130.422,68.333  81.514,0  0,0  C  -81.514,0  -119.553,68.333  -130.422,123  C  -141.291,177.667  -146.725,205  -163.027,205  C  -163.027,205  -150.811,313.676  -144.913,380  L  -115.424,711.62  L  -119.815,809.021  L  41.73,816.303  C  55.178,816.909  66.572,806.499  67.178,793.051  L  70.471,720  z " />
<path transform="translate( 3.434, 0 )" style="stroke: hsl(295.9, 55%, 50%);" id="2424"  d=" M  130.087,380  C  139.08,329  144.541,273.334  144.541,205  C  144.541,136.666  130.087,68.333  130.087,68.333  C  130.087,68.333  81.304,0  0,0  C  -81.304,0  -119.246,68.334  -130.087,123  C  -140.928,177.666  -146.348,205  -162.609,205  C  -162.609,205  -150.312,313.711  -144.541,380  L  -115.684,711.449  L  -120.166,808.846  L  41.305,816.277  C  54.753,816.896  66.155,806.496  66.774,793.048  L  70.136,720  z " />
    </g>
    <!-- End of group #topsleeve -->
    
    <!-- Start of group #undersleeve -->
    <g id="undersleeve"  transform=" translate(105.141 -63.333)  translate(760.263 0) " >
        <path class="hidden" id="6"  d=" M  -100.141,68.333  L  136.154,68.333  L  136.154,815.868  L  -100.141,815.868  z " />
<path transform="translate( 0, 0 )" style="stroke: hsl(26.9, 55%, 50%);" id="215"  d=" M  133.521,380  C  142.514,329  125.962,272.945  118.685,205  C  111.408,137.055  100.141,68.333  100.141,68.333  C  78.946,134.669  -16.69,205  -66.761,205  L  -100.141,205  C  -100.141,205  -81.569,313.636  -77.887,380  L  -59.475,711.824  L  -65.455,809.14  L  43.261,815.821  C  56.698,816.647  68.259,806.424  69.085,792.987  L  73.57,720  z " />
<path transform="translate( 0.35199999999999, 0 )" style="stroke: hsl(53.8, 55%, 50%);" id="436"  d=" M  133.169,380  C  142.162,329  125.63,272.947  118.372,205  C  111.114,137.053  99.877,68.333  99.877,68.333  C  78.699,134.667  -16.646,205  -66.585,205  L  -99.877,205  C  -99.877,205  -81.241,313.66  -77.682,380  L  -59.889,711.697  L  -65.959,809.008  L  42.82,815.794  C  56.256,816.632  67.827,806.419  68.665,792.983  L  73.218,720  z " />
<path transform="translate( 0.702, 0 )" style="stroke: hsl(80.7, 55%, 50%);" id="657"  d=" M  132.819,380  C  141.812,329  125.3,272.949  118.061,205  C  110.822,137.051  99.614,68.333  99.614,68.333  C  78.478,134.674  -16.602,205  -66.409,205  L  -99.614,205  C  -99.614,205  -80.913,313.686  -77.478,380  L  -60.301,711.571  L  -66.46,808.876  L  42.383,815.765  C  55.818,816.616  67.398,806.414  68.249,792.979  L  72.868,720  z " />
<path transform="translate( 1.05, 0 )" style="stroke: hsl(107.6, 55%, 50%);" id="878"  d=" M  132.471,380  C  141.464,329  124.973,272.951  117.752,205  C  110.531,137.049  99.353,68.333  99.353,68.333  C  78.235,134.672  -16.559,205  -66.235,205  L  -99.353,205  C  -99.353,205  -80.588,313.711  -77.275,380  L  -60.712,711.445  L  -66.96,808.745  L  41.947,815.738  C  55.381,816.601  66.971,806.409  67.834,792.975  L  72.52,720  z " />
<path transform="translate( 1.397, 0 )" style="stroke: hsl(134.5, 55%, 50%);" id="1099"  d=" M  132.124,380  C  141.117,329  124.646,272.953  117.444,205  C  110.242,137.047  99.093,68.333  99.093,68.333  C  77.994,134.671  -16.516,205  -66.062,205  L  -99.093,205  C  -99.093,205  -80.262,313.736  -77.072,380  L  -61.12,711.32  L  -67.456,808.614  L  41.514,815.71  C  54.948,816.585  66.546,806.405  67.421,792.971  L  72.173,720  z " />
<path transform="translate( 1.741, 0 )" style="stroke: hsl(161.4, 55%, 50%);" id="1320"  d=" M  131.78,380  C  140.773,329  124.321,272.955  117.138,205  C  109.955,137.045  98.835,68.333  98.835,68.333  C  77.768,134.674  -16.473,205  -65.89,205  L  -98.835,205  C  -98.835,205  -79.941,313.76  -76.872,380  L  -61.525,711.196  L  -67.948,808.484  L  41.084,815.682  C  54.517,816.569  66.125,806.399  67.012,792.966  L  71.829,720  z " />
<path transform="translate( 2.084, 0 )" style="stroke: hsl(188.3, 55%, 50%);" id="1541"  d=" M  131.437,380  C  140.43,329  123.998,272.957  116.833,205  C  109.668,137.043  98.578,68.333  98.578,68.333  C  77.529,134.673  -16.43,205  -65.719,205  L  -98.578,205  C  -98.578,205  -79.621,313.786  -76.672,380  L  -61.929,711.072  L  -68.439,808.354  L  40.655,815.654  C  54.087,816.553  65.705,806.393  66.604,792.961  L  71.486,720  z " />
<path transform="translate( 2.424, 0 )" style="stroke: hsl(215.2, 55%, 50%);" id="1762"  d=" M  131.097,380  C  140.09,329  123.677,272.959  116.531,205  C  109.385,137.041  98.323,68.333  98.323,68.333  C  77.307,134.677  -16.387,205  -65.549,205  L  -98.323,205  C  -98.323,205  -79.302,313.811  -76.473,380  L  -62.328,710.949  L  -68.924,808.226  L  40.231,815.628  C  53.662,816.539  65.288,806.389  66.199,792.958  L  71.146,720  z " />
<path transform="translate( 2.763, 0 )" style="stroke: hsl(242.1, 55%, 50%);" id="1983"  d=" M  130.758,380  C  139.751,329  123.357,272.961  116.229,205  C  109.101,137.039  98.068,68.333  98.068,68.333  C  77.072,134.676  -16.345,205  -65.379,205  L  -98.069,205  C  -98.069,205  -78.986,313.835  -76.276,380  L  -62.726,710.826  L  -69.409,808.097  L  39.806,815.6  C  53.236,816.523  64.872,806.383  65.795,792.953  L  70.807,720  z " />
<path transform="translate( 3.099, 0 )" style="stroke: hsl(269, 55%, 50%);" id="2204"  d=" M  130.422,380  C  139.415,329  123.041,272.963  115.931,205  C  108.821,137.037  97.816,68.333  97.816,68.333  C  76.853,134.68  -16.303,205  -65.211,205  L  -97.817,205  C  -97.817,205  -78.672,313.86  -76.08,380  L  -63.122,710.704  L  -69.89,807.969  L  39.387,815.573  C  52.817,816.507  64.461,806.379  65.395,792.949  L  70.471,720  z " />
<path transform="translate( 3.434, 0 )" style="stroke: hsl(295.9, 55%, 50%);" id="2425"  d=" M  130.087,380  C  139.08,329  122.725,272.965  115.633,205  C  108.541,137.035  97.565,68.333  97.565,68.333  C  76.606,134.674  -16.261,205  -65.043,205  L  -97.565,205  C  -97.565,205  -78.358,313.884  -75.884,380  L  -63.516,710.583  L  -70.369,807.842  L  38.968,815.546  C  52.397,816.492  64.05,806.373  64.996,792.944  L  70.136,720  z " />
    </g>
    <!-- End of group #undersleeve -->
    
    <!-- Start of group #belt -->
    <g id="belt"  transform=" translate(5 5)  translate(1392.438 140) " >
        <path class="hidden" id="7"  d=" M  0,0  L  400.023,0  L  400.023,70  L  0,70  z " />
<path transform="translate( 0, 0 )" style="stroke: hsl(26.9, 55%, 50%);" id="216"  d=" M  400.023,0  L  10,0  C  4.477,0  0,4.477  0,10  L  0,60  C  0,65.523  4.477,70  10,70  L  400.023,70  L  400.023,0  z " />
<path transform="translate( 0, 0 )" style="stroke: hsl(53.8, 55%, 50%);" id="437"  d=" M  400.023,0  L  10,0  C  4.477,0  0,4.477  0,10  L  0,60  C  0,65.523  4.477,70  10,70  L  400.023,70  L  400.023,0  z " />
<path transform="translate( 0, 0 )" style="stroke: hsl(80.7, 55%, 50%);" id="658"  d=" M  400.023,0  L  10,0  C  4.477,0  0,4.477  0,10  L  0,60  C  0,65.523  4.477,70  10,70  L  400.023,70  L  400.023,0  z " />
<path transform="translate( 0, 0 )" style="stroke: hsl(107.6, 55%, 50%);" id="879"  d=" M  400.023,0  L  10,0  C  4.477,0  0,4.477  0,10  L  0,60  C  0,65.523  4.477,70  10,70  L  400.023,70  L  400.023,0  z " />
<path transform="translate( 0, 0 )" style="stroke: hsl(134.5, 55%, 50%);" id="1100"  d=" M  400.023,0  L  10,0  C  4.477,0  0,4.477  0,10  L  0,60  C  0,65.523  4.477,70  10,70  L  400.023,70  L  400.023,0  z " />
<path transform="translate( 0, 0 )" style="stroke: hsl(161.4, 55%, 50%);" id="1321"  d=" M  400.023,0  L  10,0  C  4.477,0  0,4.477  0,10  L  0,60  C  0,65.523  4.477,70  10,70  L  400.023,70  L  400.023,0  z " />
<path transform="translate( 0, 0 )" style="stroke: hsl(188.3, 55%, 50%);" id="1542"  d=" M  400.023,0  L  10,0  C  4.477,0  0,4.477  0,10  L  0,60  C  0,65.523  4.477,70  10,70  L  400.023,70  L  400.023,0  z " />
<path transform="translate( 0, 0 )" style="stroke: hsl(215.2, 55%, 50%);" id="1763"  d=" M  400.023,0  L  10,0  C  4.477,0  0,4.477  0,10  L  0,60  C  0,65.523  4.477,70  10,70  L  400.023,70  L  400.023,0  z " />
<path transform="translate( 0, 0 )" style="stroke: hsl(242.1, 55%, 50%);" id="1984"  d=" M  400.023,0  L  10,0  C  4.477,0  0,4.477  0,10  L  0,60  C  0,65.523  4.477,70  10,70  L  400.023,70  L  400.023,0  z " />
<path transform="translate( 0, 0 )" style="stroke: hsl(269, 55%, 50%);" id="2205"  d=" M  400.023,0  L  10,0  C  4.477,0  0,4.477  0,10  L  0,60  C  0,65.523  4.477,70  10,70  L  400.023,70  L  400.023,0  z " />
<path transform="translate( 0, 0 )" style="stroke: hsl(295.9, 55%, 50%);" id="2426"  d=" M  400.023,0  L  10,0  C  4.477,0  0,4.477  0,10  L  0,60  C  0,65.523  4.477,70  10,70  L  400.023,70  L  400.023,0  z " />
    </g>
    <!-- End of group #belt -->
    
    <!-- Start of group #collarStand -->
    <g id="collarStand"  transform=" translate(176.938 -71.76)  translate(1392.438 220) " >
        <path class="hidden" id="8"  d=" M  -171.938,76.76  L  171.938,76.76  L  171.938,128.376  L  -171.938,128.376  z " />
<path transform="translate( 0, 0 )" style="stroke: hsl(26.9, 55%, 50%);" id="217"  d=" M  -171.827,128.359  C  -171.827,128.359  -154.644,76.76  0,76.76  C  154.644,76.76  171.827,128.359  171.827,128.359  C  144.696,128.359  85.914,101.76  0,101.76  C  -85.914,101.76  -144.696,128.359  -171.827,128.359  z " />
<path transform="translate( 0, 0 )" style="stroke: hsl(53.8, 55%, 50%);" id="438"  d=" M  -171.839,128.36  C  -171.839,128.36  -154.655,76.76  0,76.76  C  154.655,76.76  171.839,128.36  171.839,128.36  C  144.706,128.36  85.92,101.76  0,101.76  C  -85.92,101.76  -144.706,128.36  -171.839,128.36  z " />
<path transform="translate( 0, 0 )" style="stroke: hsl(80.7, 55%, 50%);" id="659"  d=" M  -171.851,128.362  C  -171.851,128.362  -154.666,76.76  0,76.76  C  154.666,76.76  171.851,128.362  171.851,128.362  C  144.716,128.362  85.926,101.76  0,101.76  C  -85.926,101.76  -144.716,128.362  -171.851,128.362  z " />
<path transform="translate( 0, 0 )" style="stroke: hsl(107.6, 55%, 50%);" id="880"  d=" M  -171.863,128.364  C  -171.863,128.364  -154.677,76.76  0,76.76  C  154.677,76.76  171.863,128.364  171.863,128.364  C  144.727,128.364  85.932,101.76  0,101.76  C  -85.932,101.76  -144.727,128.364  -171.863,128.364  z " />
<path transform="translate( 0, 0 )" style="stroke: hsl(134.5, 55%, 50%);" id="1101"  d=" M  -171.874,128.366  C  -171.874,128.366  -154.687,76.76  0,76.76  C  154.687,76.76  171.874,128.366  171.874,128.366  C  144.736,128.366  85.937,101.76  0,101.76  C  -85.937,101.76  -144.736,128.366  -171.874,128.366  z " />
<path transform="translate( 0, 0 )" style="stroke: hsl(161.4, 55%, 50%);" id="1322"  d=" M  -171.885,128.368  C  -171.885,128.368  -154.697,76.76  0,76.76  C  154.697,76.76  171.885,128.368  171.885,128.368  C  144.745,128.368  85.943,101.76  0,101.76  C  -85.943,101.76  -144.745,128.368  -171.885,128.368  z " />
<path transform="translate( 0, 0 )" style="stroke: hsl(188.3, 55%, 50%);" id="1543"  d=" M  -171.896,128.369  C  -171.896,128.369  -154.706,76.76  0,76.76  C  154.706,76.76  171.896,128.369  171.896,128.369  C  144.754,128.369  85.948,101.76  0,101.76  C  -85.948,101.76  -144.754,128.369  -171.896,128.369  z " />
<path transform="translate( 0, 0 )" style="stroke: hsl(215.2, 55%, 50%);" id="1764"  d=" M  -171.907,128.371  C  -171.907,128.371  -154.716,76.76  0,76.76  C  154.716,76.76  171.907,128.371  171.907,128.371  C  144.764,128.371  85.954,101.76  0,101.76  C  -85.954,101.76  -144.764,128.371  -171.907,128.371  z " />
<path transform="translate( 0, 0 )" style="stroke: hsl(242.1, 55%, 50%);" id="1985"  d=" M  -171.917,128.373  C  -171.917,128.373  -154.725,76.76  0,76.76  C  154.725,76.76  171.917,128.373  171.917,128.373  C  144.772,128.373  85.959,101.76  0,101.76  C  -85.959,101.76  -144.772,128.373  -171.917,128.373  z " />
<path transform="translate( 0, 0 )" style="stroke: hsl(269, 55%, 50%);" id="2206"  d=" M  -171.928,128.374  C  -171.928,128.374  -154.735,76.76  0,76.76  C  154.735,76.76  171.928,128.374  171.928,128.374  C  144.781,128.374  85.964,101.76  0,101.76  C  -85.964,101.76  -144.781,128.374  -171.928,128.374  z " />
<path transform="translate( 0, 0 )" style="stroke: hsl(295.9, 55%, 50%);" id="2427"  d=" M  -171.938,128.376  C  -171.938,128.376  -154.744,76.76  0,76.76  C  154.744,76.76  171.938,128.376  171.938,128.376  C  144.79,128.376  85.969,101.76  0,101.76  C  -85.969,101.76  -144.79,128.376  -171.938,128.376  z " />
    </g>
    <!-- End of group #collarStand -->
    
    <!-- Start of group #collar -->
    <g id="collar"  transform=" translate(5 5)  translate(1392.438 437.866) " >
        <path class="hidden" id="9"  d=" M  0,0  L  264.014,0  L  264.014,154.684  L  0,154.684  z " />
<path transform="translate( 0, 0 )" style="stroke: hsl(26.9, 55%, 50%);" id="218"  d=" M  0,76.76  C  17.011,76.76  32.358,77.384  46.58,78.526  C  63.742,81.44  78.813,84.999  91.914,88.93  C  109.723,96.017  123.05,103.397  133.032,110.468  C  156.824,135.391  157.796,151.664  157.796,151.664  L  210.861,154.651  L  263.872,67.304  C  199.752,30.02  135.653,0  0,0  z " />
<path transform="translate( 0, 0 )" style="stroke: hsl(53.8, 55%, 50%);" id="439"  d=" M  0,76.76  C  17.012,76.76  32.361,77.384  46.583,78.526  C  63.747,81.44  78.818,84.999  91.92,88.93  C  109.73,96.017  123.058,103.397  133.041,110.469  C  156.835,135.393  157.808,151.666  157.808,151.666  L  210.876,154.654  L  263.888,67.306  C  199.765,30.02  135.662,0  0,0  z " />
<path transform="translate( 0, 0 )" style="stroke: hsl(80.7, 55%, 50%);" id="660"  d=" M  0,76.76  C  17.013,76.76  32.363,77.384  46.587,78.526  C  63.751,81.44  78.823,84.999  91.927,88.93  C  109.738,96.017  123.067,103.398  133.051,110.47  C  156.846,135.394  157.818,151.669  157.818,151.669  L  210.89,154.658  L  263.902,67.309  C  199.778,30.022  135.672,0  0,0  z " />
<path transform="translate( 0, 0 )" style="stroke: hsl(107.6, 55%, 50%);" id="881"  d=" M  0,76.76  C  17.014,76.76  32.365,77.384  46.59,78.526  C  63.755,81.44  78.829,84.999  91.933,88.931  C  109.746,96.018  123.076,103.399  133.061,110.472  C  156.857,135.398  157.83,151.674  157.83,151.674  L  210.905,154.662  L  263.917,67.315  C  199.79,30.024  135.681,0  0,0  z " />
<path transform="translate( 0, 0 )" style="stroke: hsl(134.5, 55%, 50%);" id="1102"  d=" M  0,76.76  C  17.016,76.76  32.368,77.384  46.593,78.526  C  63.76,81.44  78.834,85  91.939,88.932  C  109.753,96.02  123.083,103.401  133.069,110.474  C  156.868,135.403  157.841,151.678  157.841,151.678  L  210.92,154.667  L  263.933,67.317  C  199.802,30.027  135.69,0  0,0  z " />
<path transform="translate( 0, 0 )" style="stroke: hsl(161.4, 55%, 50%);" id="1323"  d=" M  0,76.76  C  17.017,76.76  32.369,77.385  46.596,78.526  C  63.764,81.44  78.839,85.001  91.945,88.932  C  109.76,96.022  123.091,103.403  133.078,110.475  C  156.879,135.404  157.852,151.68  157.852,151.68  L  210.935,154.668  L  263.948,67.319  C  199.814,30.027  135.699,0  0,0  z " />
<path transform="translate( 0, 0 )" style="stroke: hsl(188.3, 55%, 50%);" id="1544"  d=" M  0,76.76  C  17.018,76.76  32.372,77.385  46.599,78.526  C  63.768,81.44  78.844,85.001  91.951,88.932  C  109.767,96.022  123.099,103.403  133.087,110.476  C  156.889,135.406  157.863,151.682  157.863,151.682  L  210.95,154.671  L  263.962,67.323  C  199.825,30.029  135.707,0  0,0  z " />
<path transform="translate( 0, 0 )" style="stroke: hsl(215.2, 55%, 50%);" id="1765"  d=" M  0,76.76  C  17.019,76.76  32.374,77.385  46.602,78.527  C  63.772,81.442  78.849,85.001  91.957,88.934  C  109.774,96.024  123.107,103.405  133.095,110.477  C  156.9,135.408  157.873,151.686  157.873,151.686  L  210.963,154.675  L  263.976,67.327  C  199.836,30.03  135.716,0  0,0  z " />
<path transform="translate( 0, 0 )" style="stroke: hsl(242.1, 55%, 50%);" id="1986"  d=" M  0,76.76  C  17.02,76.76  32.375,77.385  46.604,78.527  C  63.776,81.442  78.854,85.001  91.962,88.934  C  109.781,96.024  123.114,103.406  133.103,110.48  C  156.908,135.412  157.882,151.691  157.882,151.691  L  210.977,154.681  L  263.988,67.33  C  199.848,30.034  135.724,0  0,0  z " />
<path transform="translate( 0, 0 )" style="stroke: hsl(269, 55%, 50%);" id="2207"  d=" M  0,76.76  C  17.021,76.76  32.378,77.385  46.607,78.527  C  63.78,81.442  78.859,85.002  91.968,88.934  C  109.788,96.024  123.122,103.406  133.112,110.481  C  156.919,135.413  157.893,151.693  157.893,151.693  L  210.99,154.683  L  264.002,67.335  C  199.859,30.034  135.733,0  0,0  z " />
<path transform="translate( 0, 0 )" style="stroke: hsl(295.9, 55%, 50%);" id="2428"  d=" M  0,76.76  C  17.022,76.76  32.379,77.385  46.61,78.527  C  63.784,81.442  78.864,85.002  91.974,88.934  C  109.795,96.024  123.13,103.408  133.12,110.482  C  156.928,135.417  157.902,151.695  157.902,151.695  L  211.002,154.684  L  264.014,67.335  C  199.869,30.036  135.74,0  0,0  z " />
    </g>
    <!-- End of group #collar -->
    
    <!-- Start of group #cuffFacing -->
    <g id="cuffFacing"  transform=" translate(5.001 5)  translate(1392.438 281.616) " >
        <path class="hidden" id="10"  d=" M  -0.001,0  L  320,0  L  320,146.25  L  -0.001,146.25  z " />
<path transform="translate( 0, 0 )" style="stroke: hsl(26.9, 55%, 50%);" id="219"  d=" M  0,0  L  0,121.875  C  -0,135.337  10.913,146.25  24.375,146.25  L  295.625,146.25  C  309.087,146.25  320,135.337  320,121.875  L  320,0  z " />
<path transform="translate( 0, 0 )" style="stroke: hsl(53.8, 55%, 50%);" id="440"  d=" M  0,0  L  0,121.875  C  -0,135.337  10.913,146.25  24.375,146.25  L  295.625,146.25  C  309.087,146.25  320,135.337  320,121.875  L  320,0  z " />
<path transform="translate( 0, 0 )" style="stroke: hsl(80.7, 55%, 50%);" id="661"  d=" M  0,0  L  0,121.875  C  -0,135.337  10.913,146.25  24.375,146.25  L  295.624,146.25  C  309.086,146.25  319.999,135.337  319.999,121.875  L  319.999,0  z " />
<path transform="translate( 0, 0 )" style="stroke: hsl(107.6, 55%, 50%);" id="882"  d=" M  0,0  L  0,121.875  C  -0,135.337  10.913,146.25  24.375,146.25  L  295.625,146.25  C  309.087,146.25  320,135.337  320,121.875  L  320,0  z " />
<path transform="translate( 0, 0 )" style="stroke: hsl(134.5, 55%, 50%);" id="1103"  d=" M  0,0  L  0,121.875  C  -0,135.337  10.913,146.25  24.375,146.25  L  295.625,146.25  C  309.087,146.25  320,135.337  320,121.875  L  320,0  z " />
<path transform="translate( -0.0010000000000048, 0 )" style="stroke: hsl(161.4, 55%, 50%);" id="1324"  d=" M  0,0  L  0,121.875  C  -0,135.337  10.913,146.25  24.375,146.25  L  295.626,146.25  C  309.088,146.25  320.001,135.337  320.001,121.875  L  320.001,0  z " />
<path transform="translate( 0, 0 )" style="stroke: hsl(188.3, 55%, 50%);" id="1545"  d=" M  0,0  L  0,121.875  C  -0,135.337  10.913,146.25  24.375,146.25  L  295.625,146.25  C  309.087,146.25  320,135.337  320,121.875  L  320,0  z " />
<path transform="translate( 0, 0 )" style="stroke: hsl(215.2, 55%, 50%);" id="1766"  d=" M  0,0  L  0,121.875  C  -0,135.337  10.913,146.25  24.375,146.25  L  295.625,146.25  C  309.087,146.25  320,135.337  320,121.875  L  320,0  z " />
<path transform="translate( 0, 0 )" style="stroke: hsl(242.1, 55%, 50%);" id="1987"  d=" M  0,0  L  0,121.875  C  -0,135.337  10.913,146.25  24.375,146.25  L  295.625,146.25  C  309.087,146.25  320,135.337  320,121.875  L  320,0  z " />
<path transform="translate( 0, 0 )" style="stroke: hsl(269, 55%, 50%);" id="2208"  d=" M  0,0  L  0,121.875  C  -0,135.337  10.913,146.25  24.375,146.25  L  295.625,146.25  C  309.087,146.25  320,135.337  320,121.875  L  320,0  z " />
<path transform="translate( 0, 0 )" style="stroke: hsl(295.9, 55%, 50%);" id="2429"  d=" M  0,0  L  0,121.875  C  -0,135.337  10.913,146.25  24.375,146.25  L  295.625,146.25  C  309.087,146.25  320,135.337  320,121.875  L  320,0  z " />
    </g>
    <!-- End of group #cuffFacing -->
    
    <!-- Start of group #pocket -->
    <g id="pocket"  transform=" translate(-77.505 -712.5)  translate(1392.438 602.55) " >
        <path class="hidden" id="11"  d=" M  82.505,717.5  L  282.315,717.5  L  282.315,945.4  L  82.505,945.4  z " />
<path transform="translate( 0, 0 )" style="stroke: hsl(26.9, 55%, 50%);" id="220"  d=" M  82.505,717.5  L  82.505,895.4  C  82.505,923.014  104.891,945.4  132.505,945.4  L  232.315,945.4  C  259.929,945.4  282.315,923.014  282.315,895.4  L  282.315,717.5  L  82.505,717.5  z " />
<path transform="translate( 0, 0 )" style="stroke: hsl(53.8, 55%, 50%);" id="441"  d=" M  82.505,717.5  L  82.505,895.4  C  82.505,923.014  104.891,945.4  132.505,945.4  L  232.315,945.4  C  259.929,945.4  282.315,923.014  282.315,895.4  L  282.315,717.5  L  82.505,717.5  z " />
<path transform="translate( 0, 0 )" style="stroke: hsl(80.7, 55%, 50%);" id="662"  d=" M  82.505,717.5  L  82.505,895.4  C  82.505,923.014  104.891,945.4  132.505,945.4  L  232.315,945.4  C  259.929,945.4  282.315,923.014  282.315,895.4  L  282.315,717.5  L  82.505,717.5  z " />
<path transform="translate( 0, 0 )" style="stroke: hsl(107.6, 55%, 50%);" id="883"  d=" M  82.505,717.5  L  82.505,895.4  C  82.505,923.014  104.891,945.4  132.505,945.4  L  232.315,945.4  C  259.929,945.4  282.315,923.014  282.315,895.4  L  282.315,717.5  L  82.505,717.5  z " />
<path transform="translate( 0, 0 )" style="stroke: hsl(134.5, 55%, 50%);" id="1104"  d=" M  82.505,717.5  L  82.505,895.4  C  82.505,923.014  104.891,945.4  132.505,945.4  L  232.315,945.4  C  259.929,945.4  282.315,923.014  282.315,895.4  L  282.315,717.5  L  82.505,717.5  z " />
<path transform="translate( 0, 0 )" style="stroke: hsl(161.4, 55%, 50%);" id="1325"  d=" M  82.505,717.5  L  82.505,895.4  C  82.505,923.014  104.891,945.4  132.505,945.4  L  232.315,945.4  C  259.929,945.4  282.315,923.014  282.315,895.4  L  282.315,717.5  L  82.505,717.5  z " />
<path transform="translate( 0, 0 )" style="stroke: hsl(188.3, 55%, 50%);" id="1546"  d=" M  82.505,717.5  L  82.505,895.4  C  82.505,923.014  104.891,945.4  132.505,945.4  L  232.315,945.4  C  259.929,945.4  282.315,923.014  282.315,895.4  L  282.315,717.5  L  82.505,717.5  z " />
<path transform="translate( 0, 0 )" style="stroke: hsl(215.2, 55%, 50%);" id="1767"  d=" M  82.505,717.5  L  82.505,895.4  C  82.505,923.014  104.891,945.4  132.505,945.4  L  232.315,945.4  C  259.929,945.4  282.315,923.014  282.315,895.4  L  282.315,717.5  L  82.505,717.5  z " />
<path transform="translate( 0, 0 )" style="stroke: hsl(242.1, 55%, 50%);" id="1988"  d=" M  82.505,717.5  L  82.505,895.4  C  82.505,923.014  104.891,945.4  132.505,945.4  L  232.315,945.4  C  259.929,945.4  282.315,923.014  282.315,895.4  L  282.315,717.5  L  82.505,717.5  z " />
<path transform="translate( 0, 0 )" style="stroke: hsl(269, 55%, 50%);" id="2209"  d=" M  82.505,717.5  L  82.505,895.4  C  82.505,923.014  104.891,945.4  132.505,945.4  L  232.315,945.4  C  259.929,945.4  282.315,923.014  282.315,895.4  L  282.315,717.5  L  82.505,717.5  z " />
<path transform="translate( 0, 0 )" style="stroke: hsl(295.9, 55%, 50%);" id="2430"  d=" M  82.505,717.5  L  82.505,895.4  C  82.505,923.014  104.891,945.4  132.505,945.4  L  232.315,945.4  C  259.929,945.4  282.315,923.014  282.315,895.4  L  282.315,717.5  L  82.505,717.5  z " />
    </g>
    <!-- End of group #pocket -->
    
    <!-- Start of group #pocketFlap -->
    <g id="pocketFlap"  transform=" translate(-76.88 -700.016)  translate(1666.452 437.866) " >
        <path class="hidden" id="12"  d=" M  81.88,705.016  L  282.94,705.016  L  282.94,787.468  L  81.88,787.468  z " />
<path transform="translate( 0, 0 )" style="stroke: hsl(26.9, 55%, 50%);" id="221"  d=" M  81.88,705.016  L  84.505,757.468  C  85.333,774.016  97.936,787.468  114.505,787.468  L  250.315,787.468  C  266.884,787.468  279.487,774.016  280.315,757.468  L  282.94,705.016  z " />
<path transform="translate( 0, 0 )" style="stroke: hsl(53.8, 55%, 50%);" id="442"  d=" M  81.88,705.016  L  84.505,757.468  C  85.333,774.016  97.936,787.468  114.505,787.468  L  250.315,787.468  C  266.884,787.468  279.487,774.016  280.315,757.468  L  282.94,705.016  z " />
<path transform="translate( 0, 0 )" style="stroke: hsl(80.7, 55%, 50%);" id="663"  d=" M  81.88,705.016  L  84.505,757.468  C  85.333,774.016  97.936,787.468  114.505,787.468  L  250.315,787.468  C  266.884,787.468  279.487,774.016  280.315,757.468  L  282.94,705.016  z " />
<path transform="translate( 0, 0 )" style="stroke: hsl(107.6, 55%, 50%);" id="884"  d=" M  81.88,705.016  L  84.505,757.468  C  85.333,774.016  97.936,787.468  114.505,787.468  L  250.315,787.468  C  266.884,787.468  279.487,774.016  280.315,757.468  L  282.94,705.016  z " />
<path transform="translate( 0, 0 )" style="stroke: hsl(134.5, 55%, 50%);" id="1105"  d=" M  81.88,705.016  L  84.505,757.468  C  85.333,774.016  97.936,787.468  114.505,787.468  L  250.315,787.468  C  266.884,787.468  279.487,774.016  280.315,757.468  L  282.94,705.016  z " />
<path transform="translate( 0, 0 )" style="stroke: hsl(161.4, 55%, 50%);" id="1326"  d=" M  81.88,705.016  L  84.505,757.468  C  85.333,774.016  97.936,787.468  114.505,787.468  L  250.315,787.468  C  266.884,787.468  279.487,774.016  280.315,757.468  L  282.94,705.016  z " />
<path transform="translate( 0, 0 )" style="stroke: hsl(188.3, 55%, 50%);" id="1547"  d=" M  81.88,705.016  L  84.505,757.468  C  85.333,774.016  97.936,787.468  114.505,787.468  L  250.315,787.468  C  266.884,787.468  279.487,774.016  280.315,757.468  L  282.94,705.016  z " />
<path transform="translate( 0, 0 )" style="stroke: hsl(215.2, 55%, 50%);" id="1768"  d=" M  81.88,705.016  L  84.505,757.468  C  85.333,774.016  97.936,787.468  114.505,787.468  L  250.315,787.468  C  266.884,787.468  279.487,774.016  280.315,757.468  L  282.94,705.016  z " />
<path transform="translate( 0, 0 )" style="stroke: hsl(242.1, 55%, 50%);" id="1989"  d=" M  81.88,705.016  L  84.505,757.468  C  85.333,774.016  97.936,787.468  114.505,787.468  L  250.315,787.468  C  266.884,787.468  279.487,774.016  280.315,757.468  L  282.94,705.016  z " />
<path transform="translate( 0, 0 )" style="stroke: hsl(269, 55%, 50%);" id="2210"  d=" M  81.88,705.016  L  84.505,757.468  C  85.333,774.016  97.936,787.468  114.505,787.468  L  250.315,787.468  C  266.884,787.468  279.487,774.016  280.315,757.468  L  282.94,705.016  z " />
<path transform="translate( 0, 0 )" style="stroke: hsl(295.9, 55%, 50%);" id="2431"  d=" M  81.88,705.016  L  84.505,757.468  C  85.333,774.016  97.936,787.468  114.505,787.468  L  250.315,787.468  C  266.884,787.468  279.487,774.016  280.315,757.468  L  282.94,705.016  z " />
    </g>
    <!-- End of group #pocketFlap -->
    
    <!-- Start of group #chestPocketWelt -->
    <g id="chestPocketWelt"  transform=" translate(5 5)  translate(1602.248 602.55) " >
        <path class="hidden" id="13"  d=" M  0,0  L  41.34,0  L  41.34,184.016  L  0,184.016  z " />
<path transform="translate( 0, 0 )" style="stroke: hsl(26.9, 55%, 50%);" id="222"  d=" M  0,0  L  41.34,0  L  41.34,184.016  L  0,184.016  L  0,0  z " />
<path transform="translate( 0, 0 )" style="stroke: hsl(53.8, 55%, 50%);" id="443"  d=" M  0,0  L  41.34,0  L  41.34,184.016  L  0,184.016  L  0,0  z " />
<path transform="translate( 0, 0 )" style="stroke: hsl(80.7, 55%, 50%);" id="664"  d=" M  0,0  L  41.34,0  L  41.34,184.016  L  0,184.016  L  0,0  z " />
<path transform="translate( 0, 0 )" style="stroke: hsl(107.6, 55%, 50%);" id="885"  d=" M  0,0  L  41.34,0  L  41.34,184.016  L  0,184.016  L  0,0  z " />
<path transform="translate( 0, 0 )" style="stroke: hsl(134.5, 55%, 50%);" id="1106"  d=" M  0,0  L  41.34,0  L  41.34,184.016  L  0,184.016  L  0,0  z " />
<path transform="translate( 0, 0 )" style="stroke: hsl(161.4, 55%, 50%);" id="1327"  d=" M  0,0  L  41.34,0  L  41.34,184.016  L  0,184.016  L  0,0  z " />
<path transform="translate( 0, 0 )" style="stroke: hsl(188.3, 55%, 50%);" id="1548"  d=" M  0,0  L  41.34,0  L  41.34,184.016  L  0,184.016  L  0,0  z " />
<path transform="translate( 0, 0 )" style="stroke: hsl(215.2, 55%, 50%);" id="1769"  d=" M  0,0  L  41.34,0  L  41.34,184.016  L  0,184.016  L  0,0  z " />
<path transform="translate( 0, 0 )" style="stroke: hsl(242.1, 55%, 50%);" id="1990"  d=" M  0,0  L  41.34,0  L  41.34,184.016  L  0,184.016  L  0,0  z " />
<path transform="translate( 0, 0 )" style="stroke: hsl(269, 55%, 50%);" id="2211"  d=" M  0,0  L  41.34,0  L  41.34,184.016  L  0,184.016  L  0,0  z " />
<path transform="translate( 0, 0 )" style="stroke: hsl(295.9, 55%, 50%);" id="2432"  d=" M  0,0  L  41.34,0  L  41.34,184.016  L  0,184.016  L  0,0  z " />
    </g>
    <!-- End of group #chestPocketWelt -->
    
    <!-- Start of group #sampler-front -->
    <g id="sampler-front" >
    </g>
    <!-- End of group #sampler-front -->
    
    <!-- Start of group #sampler-back -->
    <g id="sampler-back" >
    </g>
    <!-- End of group #sampler-back -->
    
    <!-- Start of group #sampler-tail -->
    <g id="sampler-tail" >
    </g>
    <!-- End of group #sampler-tail -->
    
    <!-- Start of group #sampler-topsleeve -->
    <g id="sampler-topsleeve" >
    </g>
    <!-- End of group #sampler-topsleeve -->
    
    <!-- Start of group #sampler-undersleeve -->
    <g id="sampler-undersleeve" >
    </g>
    <!-- End of group #sampler-undersleeve -->
    
    <!-- Start of group #sampler-belt -->
    <g id="sampler-belt" >
    </g>
    <!-- End of group #sampler-belt -->
    
    <!-- Start of group #sampler-collarStand -->
    <g id="sampler-collarStand" >
    </g>
    <!-- End of group #sampler-collarStand -->
    
    <!-- Start of group #sampler-collar -->
    <g id="sampler-collar" >
    </g>
    <!-- End of group #sampler-collar -->
    
    <!-- Start of group #sampler-cuffFacing -->
    <g id="sampler-cuffFacing" >
    </g>
    <!-- End of group #sampler-cuffFacing -->
    
    <!-- Start of group #sampler-pocket -->
    <g id="sampler-pocket" >
    </g>
    <!-- End of group #sampler-pocket -->
    
    <!-- Start of group #sampler-pocketFlap -->
    <g id="sampler-pocketFlap" >
    </g>
    <!-- End of group #sampler-pocketFlap -->
    
    <!-- Start of group #sampler-chestPocketWelt -->
    <g id="sampler-chestPocketWelt" >
    </g>
    <!-- End of group #sampler-chestPocketWelt -->
</g>
<!-- End of group #patternContainer -->

</svg>

