<?xml version="1.0" encoding="UTF-8" standalone="no"?>
<svg
    xmlns="http://www.w3.org/2000/svg"
    xmlns:svg="http://www.w3.org/2000/svg"
    xmlns:xlink="http://www.w3.org/1999/xlink"
    xmlns:freesewing="http://freesewing.org/namespaces/freesewing" viewBox ="0 0 1921 1494"
    width ="1921mm"
    height ="1494mm"
    freesewing:version ="1.5.0"
    freesewing:origin ="joost.core.freesewing.org" 
>

<style type="text/css">
    <![CDATA[
    path { fill: none; stroke: #000000; stroke-opacity:1; stroke-width: 0.5; stroke-miterlimit:4; stroke-dashoffset:0; stroke-linecap:round; stroke-linejoin:round; }
    path.hidden { fill: none; stroke: none; }]]>
</style>


<!-- Start of group #patternContainer -->
<g id="patternContainer" >
    
    <!-- Start of group #backBlock -->
    <g id="backBlock" >
    </g>
    <!-- End of group #backBlock -->
    
    <!-- Start of group #frontBlock -->
    <g id="frontBlock" >
    </g>
    <!-- End of group #frontBlock -->
    
    <!-- Start of group #sleeveBlock -->
    <g id="sleeveBlock" >
    </g>
    <!-- End of group #sleeveBlock -->
    
    <!-- Start of group #topsleeveBlock -->
    <g id="topsleeveBlock" >
    </g>
    <!-- End of group #topsleeveBlock -->
    
    <!-- Start of group #undersleeveBlock -->
    <g id="undersleeveBlock" >
    </g>
    <!-- End of group #undersleeveBlock -->
    
    <!-- Start of group #front -->
    <g id="front"  transform=" translate(87.505 5)  translate(0 0) " >
        <path class="hidden" id="2"  d=" M  -82.505,0  L  345,0  L  345,1483.9  L  -82.505,1483.9  z " />
<path transform="translate( 0, 0 )" style="stroke: hsl(26.9, 55%, 50%);" id="210"  d=" M  0,93  L  -77.505,93  C  -77.505,93  -82.505,142.12  -82.505,338.6  L  -82.505,1483.9  L  342.5,1483.9  L  342.5,1010  C  342.5,870  296.875,700.7  296.875,580  C  296.875,459.3  310,353.688  310,338.6  C  290.625,338.6  277.001,330.965  258.568,312.532  C  240.135,294.099  227.5,229.9  227.5,179.3  C  227.5,128.7  240.826,37.359  242.5,27.5  L  80.579,0  C  77.23,19.718  80.579,93  0,93  z " />
<path transform="translate( 0, 0 )" style="stroke: hsl(53.8, 55%, 50%);" id="431"  d=" M  0,93  L  -77.505,93  C  -77.505,93  -82.505,142.12  -82.505,338.6  L  -82.505,1483.9  L  342.5,1483.9  L  342.5,1010  C  342.5,870  299.5,700.7  299.5,580  C  299.5,459.3  313.5,353.688  313.5,338.6  C  293.542,338.6  279.061,330.812  260.258,312.009  C  241.455,293.206  228.667,229.9  228.667,179.3  C  228.667,128.7  240.826,37.359  242.5,27.5  L  80.579,0  C  77.23,19.718  80.579,93  0,93  z " />
<path transform="translate( 0, 0 )" style="stroke: hsl(80.7, 55%, 50%);" id="652"  d=" M  0,93  L  -77.505,93  C  -77.505,93  -82.505,142.12  -82.505,338.6  L  -82.505,1483.9  L  342.5,1483.9  L  342.5,1010  C  342.5,870  302.125,700.7  302.125,580  C  302.125,459.3  317,353.688  317,338.6  C  296.458,338.6  281.101,330.662  261.936,311.497  C  242.771,292.332  229.833,229.9  229.833,179.3  C  229.833,128.7  240.826,37.359  242.5,27.5  L  80.579,0  C  77.23,19.718  80.579,93  0,93  z " />
<path transform="translate( 0, 0 )" style="stroke: hsl(107.6, 55%, 50%);" id="873"  d=" M  0,93  L  -77.505,93  C  -77.505,93  -82.505,142.12  -82.505,338.6  L  -82.505,1483.9  L  342.5,1483.9  L  342.5,1010  C  342.5,870  304.75,700.7  304.75,580  C  304.75,459.3  320.5,353.688  320.5,338.6  C  299.375,338.6  283.126,330.514  263.606,310.994  C  244.086,291.474  231,229.9  231,179.3  C  231,128.7  240.826,37.359  242.5,27.5  L  80.579,0  C  77.23,19.718  80.579,93  0,93  z " />
<path transform="translate( 0, 0 )" style="stroke: hsl(134.5, 55%, 50%);" id="1094"  d=" M  0,93  L  -77.505,93  C  -77.505,93  -82.505,142.12  -82.505,338.6  L  -82.505,1483.9  L  342.5,1483.9  L  342.5,1010  C  342.5,870  307.375,700.7  307.375,580  C  307.375,459.3  324,353.688  324,338.6  C  302.292,338.6  285.137,330.37  265.267,310.5  C  245.397,290.63  232.167,229.9  232.167,179.3  C  232.167,128.7  240.826,37.359  242.5,27.5  L  80.579,0  C  77.23,19.718  80.579,93  0,93  z " />
<path transform="translate( 0, 0 )" style="stroke: hsl(161.4, 55%, 50%);" id="1315"  d=" M  0,93  L  -77.505,93  C  -77.505,93  -82.505,142.12  -82.505,338.6  L  -82.505,1483.9  L  342.5,1483.9  L  342.5,1010  C  342.5,870  310,700.7  310,580  C  310,459.3  327.5,353.688  327.5,338.6  C  305.208,338.6  287.129,330.228  266.917,310.016  C  246.705,289.804  233.333,229.9  233.333,179.3  C  233.333,128.7  240.826,37.359  242.5,27.5  L  80.579,0  C  77.23,19.718  80.579,93  0,93  z " />
<path transform="translate( 0, 0 )" style="stroke: hsl(188.3, 55%, 50%);" id="1536"  d=" M  0,93  L  -77.505,93  C  -77.505,93  -82.505,142.12  -82.505,338.6  L  -82.505,1483.9  L  342.5,1483.9  L  342.5,1010  C  342.5,870  312.625,700.7  312.625,580  C  312.625,459.3  331,353.688  331,338.6  C  308.125,338.6  289.107,330.089  268.559,309.541  C  248.011,288.993  234.5,229.9  234.5,179.3  C  234.5,128.7  240.826,37.359  242.5,27.5  L  80.579,0  C  77.23,19.718  80.579,93  0,93  z " />
<path transform="translate( 0, 0 )" style="stroke: hsl(215.2, 55%, 50%);" id="1757"  d=" M  0,93  L  -77.505,93  C  -77.505,93  -82.505,142.12  -82.505,338.6  L  -82.505,1483.9  L  342.5,1483.9  L  342.5,1010  C  342.5,870  315.25,700.7  315.25,580  C  315.25,459.3  334.5,353.688  334.5,338.6  C  311.042,338.6  291.069,329.952  270.192,309.075  C  249.315,288.198  235.667,229.9  235.667,179.3  C  235.667,128.7  240.826,37.359  242.5,27.5  L  80.579,0  C  77.23,19.718  80.579,93  0,93  z " />
<path transform="translate( 0, 0 )" style="stroke: hsl(242.1, 55%, 50%);" id="1978"  d=" M  0,93  L  -77.505,93  C  -77.505,93  -82.505,142.12  -82.505,338.6  L  -82.505,1483.9  L  342.5,1483.9  L  342.5,1010  C  342.5,870  317.875,700.7  317.875,580  C  317.875,459.3  338,353.688  338,338.6  C  313.958,338.6  293.017,329.818  271.816,308.617  C  250.615,287.416  236.833,229.9  236.833,179.3  C  236.833,128.7  240.826,37.359  242.5,27.5  L  80.579,0  C  77.23,19.718  80.579,93  0,93  z " />
<path transform="translate( 0, 0 )" style="stroke: hsl(269, 55%, 50%);" id="2199"  d=" M  0,93  L  -77.505,93  C  -77.505,93  -82.505,142.12  -82.505,338.6  L  -82.505,1483.9  L  342.5,1483.9  L  342.5,1010  C  342.5,870  320.5,700.7  320.5,580  C  320.5,459.3  341.5,353.688  341.5,338.6  C  316.875,338.6  294.951,329.687  273.432,308.168  C  251.913,286.649  238,229.9  238,179.3  C  238,128.7  240.826,37.359  242.5,27.5  L  80.579,0  C  77.23,19.718  80.579,93  0,93  z " />
<path transform="translate( 0, 0 )" style="stroke: hsl(295.9, 55%, 50%);" id="2420"  d=" M  0,93  L  -77.505,93  C  -77.505,93  -82.505,142.12  -82.505,338.6  L  -82.505,1483.9  L  342.5,1483.9  L  342.5,1010  C  342.5,870  323.125,700.7  323.125,580  C  323.125,459.3  345,353.688  345,338.6  C  319.792,338.6  296.872,329.557  275.041,307.726  C  253.21,285.895  239.167,229.9  239.167,179.3  C  239.167,128.7  240.826,37.359  242.5,27.5  L  80.579,0  C  77.23,19.718  80.579,93  0,93  z " />
    </g>
    <!-- End of group #front -->
    
    <!-- Start of group #back -->
    <g id="back"  transform=" translate(55.88 5)  translate(1014.467 0) " >
        <path class="hidden" id="3"  d=" M  -50.88,0  L  345,0  L  345,545  L  -50.88,545  z " />
<path transform="translate( 0, 0 )" style="stroke: hsl(26.9, 55%, 50%);" id="211"  d=" M  0,20  L  0,179.3  L  -50.88,179.3  L  -50.88,545  L  105.625,545  C  105.625,441.8  118.75,338.6  118.75,338.6  C  118.75,338.6  131.875,441.8  131.875,545  L  296.875,545  C  296.875,459.3  310,353.688  310,338.6  C  290.625,338.6  277.001,330.965  258.568,312.532  C  240.135,294.099  232.5,229.9  232.5,179.3  C  232.5,128.7  240.826,37.359  242.5,27.5  L  80.579,0  C  77.23,19.718  0,20  0,20  z " />
<path transform="translate( 0, 0 )" style="stroke: hsl(53.8, 55%, 50%);" id="432"  d=" M  0,20  L  0,179.3  L  -50.88,179.3  L  -50.88,545  L  105.8,545  C  105.8,441.8  119.8,338.6  119.8,338.6  C  119.8,338.6  133.8,441.8  133.8,545  L  299.5,545  C  299.5,459.3  313.5,353.688  313.5,338.6  C  293.542,338.6  279.061,330.812  260.258,312.009  C  241.455,293.206  233.667,229.9  233.667,179.3  C  233.667,128.7  240.826,37.359  242.5,27.5  L  80.579,0  C  77.23,19.718  0,20  0,20  z " />
<path transform="translate( 0, 0 )" style="stroke: hsl(80.7, 55%, 50%);" id="653"  d=" M  0,20  L  0,179.3  L  -50.88,179.3  L  -50.88,545  L  105.975,545  C  105.975,441.8  120.85,338.6  120.85,338.6  C  120.85,338.6  135.725,441.8  135.725,545  L  302.125,545  C  302.125,459.3  317,353.688  317,338.6  C  296.458,338.6  281.101,330.662  261.936,311.497  C  242.771,292.332  234.833,229.9  234.833,179.3  C  234.833,128.7  240.826,37.359  242.5,27.5  L  80.579,0  C  77.23,19.718  0,20  0,20  z " />
<path transform="translate( 0, 0 )" style="stroke: hsl(107.6, 55%, 50%);" id="874"  d=" M  0,20  L  0,179.3  L  -50.88,179.3  L  -50.88,545  L  106.15,545  C  106.15,441.8  121.9,338.6  121.9,338.6  C  121.9,338.6  137.65,441.8  137.65,545  L  304.75,545  C  304.75,459.3  320.5,353.688  320.5,338.6  C  299.375,338.6  283.126,330.514  263.606,310.994  C  244.086,291.474  236,229.9  236,179.3  C  236,128.7  240.826,37.359  242.5,27.5  L  80.579,0  C  77.23,19.718  0,20  0,20  z " />
<path transform="translate( 0, 0 )" style="stroke: hsl(134.5, 55%, 50%);" id="1095"  d=" M  0,20  L  0,179.3  L  -50.88,179.3  L  -50.88,545  L  106.325,545  C  106.325,441.8  122.95,338.6  122.95,338.6  C  122.95,338.6  139.575,441.8  139.575,545  L  307.375,545  C  307.375,459.3  324,353.688  324,338.6  C  302.292,338.6  285.137,330.37  265.267,310.5  C  245.397,290.63  237.167,229.9  237.167,179.3  C  237.167,128.7  240.826,37.359  242.5,27.5  L  80.579,0  C  77.23,19.718  0,20  0,20  z " />
<path transform="translate( 0, 0 )" style="stroke: hsl(161.4, 55%, 50%);" id="1316"  d=" M  0,20  L  0,179.3  L  -50.88,179.3  L  -50.88,545  L  106.5,545  C  106.5,441.8  124,338.6  124,338.6  C  124,338.6  141.5,441.8  141.5,545  L  310,545  C  310,459.3  327.5,353.688  327.5,338.6  C  305.208,338.6  287.129,330.228  266.917,310.016  C  246.705,289.804  238.333,229.9  238.333,179.3  C  238.333,128.7  240.826,37.359  242.5,27.5  L  80.579,0  C  77.23,19.718  0,20  0,20  z " />
<path transform="translate( 0, 0 )" style="stroke: hsl(188.3, 55%, 50%);" id="1537"  d=" M  0,20  L  0,179.3  L  -50.88,179.3  L  -50.88,545  L  106.675,545  C  106.675,441.8  125.05,338.6  125.05,338.6  C  125.05,338.6  143.425,441.8  143.425,545  L  312.625,545  C  312.625,459.3  331,353.688  331,338.6  C  308.125,338.6  289.107,330.089  268.559,309.541  C  248.011,288.993  239.5,229.9  239.5,179.3  C  239.5,128.7  240.826,37.359  242.5,27.5  L  80.579,0  C  77.23,19.718  0,20  0,20  z " />
<path transform="translate( 0, 0 )" style="stroke: hsl(215.2, 55%, 50%);" id="1758"  d=" M  0,20  L  0,179.3  L  -50.88,179.3  L  -50.88,545  L  106.85,545  C  106.85,441.8  126.1,338.6  126.1,338.6  C  126.1,338.6  145.35,441.8  145.35,545  L  315.25,545  C  315.25,459.3  334.5,353.688  334.5,338.6  C  311.042,338.6  291.069,329.952  270.192,309.075  C  249.315,288.198  240.667,229.9  240.667,179.3  C  240.667,128.7  240.826,37.359  242.5,27.5  L  80.579,0  C  77.23,19.718  0,20  0,20  z " />
<path transform="translate( 0, 0 )" style="stroke: hsl(242.1, 55%, 50%);" id="1979"  d=" M  0,20  L  0,179.3  L  -50.88,179.3  L  -50.88,545  L  107.025,545  C  107.025,441.8  127.15,338.6  127.15,338.6  C  127.15,338.6  147.275,441.8  147.275,545  L  317.875,545  C  317.875,459.3  338,353.688  338,338.6  C  313.958,338.6  293.017,329.818  271.816,308.617  C  250.615,287.416  241.833,229.9  241.833,179.3  C  241.833,128.7  240.826,37.359  242.5,27.5  L  80.579,0  C  77.23,19.718  0,20  0,20  z " />
<path transform="translate( 0, 0 )" style="stroke: hsl(269, 55%, 50%);" id="2200"  d=" M  0,20  L  0,179.3  L  -50.88,179.3  L  -50.88,545  L  107.2,545  C  107.2,441.8  128.2,338.6  128.2,338.6  C  128.2,338.6  149.2,441.8  149.2,545  L  320.5,545  C  320.5,459.3  341.5,353.688  341.5,338.6  C  316.875,338.6  294.951,329.687  273.432,308.168  C  251.913,286.649  243,229.9  243,179.3  C  243,128.7  240.826,37.359  242.5,27.5  L  80.579,0  C  77.23,19.718  0,20  0,20  z " />
<path transform="translate( 0, 0 )" style="stroke: hsl(295.9, 55%, 50%);" id="2421"  d=" M  0,20  L  0,179.3  L  -50.88,179.3  L  -50.88,545  L  107.375,545  C  107.375,441.8  129.25,338.6  129.25,338.6  C  129.25,338.6  151.125,441.8  151.125,545  L  323.125,545  C  323.125,459.3  345,353.688  345,338.6  C  319.792,338.6  296.872,329.557  275.041,307.726  C  253.21,285.895  244.167,229.9  244.167,179.3  C  244.167,128.7  240.826,37.359  242.5,27.5  L  80.579,0  C  77.23,19.718  0,20  0,20  z " />
    </g>
    <!-- End of group #back -->
    
    <!-- Start of group #tail -->
    <g id="tail"  transform=" translate(216.296 5)  translate(1420.347 0) " >
        <path class="hidden" id="4"  d=" M  -211.296,0  L  279.375,0  L  279.375,130  L  -211.296,130  z " />
<path transform="translate( 0, 0 )" style="stroke: hsl(26.9, 55%, 50%);" id="212"  d=" M  -211.296,50  -211.296,0  L  0,0  L  270.625,0  L  270.625,50 " />
<path transform="translate( 0, 0 )" style="stroke: hsl(26.9, 55%, 50%);" id="213"  d=" M  -211.296,80  -211.296,130  L  -0,130  L  270.625,130  L  270.625,80 " />
<path transform="translate( 0, 0 )" style="stroke: hsl(53.8, 55%, 50%);" id="433"  d=" M  -211.296,50  -211.296,0  L  0,0  L  271.5,0  L  271.5,50 " />
<path transform="translate( 0, 0 )" style="stroke: hsl(53.8, 55%, 50%);" id="434"  d=" M  -211.296,80  -211.296,130  L  -0,130  L  271.5,130  L  271.5,80 " />
<path transform="translate( 0, 0 )" style="stroke: hsl(80.7, 55%, 50%);" id="654"  d=" M  -211.296,50  -211.296,0  L  0,0  L  272.375,0  L  272.375,50 " />
<path transform="translate( 0, 0 )" style="stroke: hsl(80.7, 55%, 50%);" id="655"  d=" M  -211.296,80  -211.296,130  L  -0,130  L  272.375,130  L  272.375,80 " />
<path transform="translate( 0, 0 )" style="stroke: hsl(107.6, 55%, 50%);" id="875"  d=" M  -211.296,50  -211.296,0  L  0,0  L  273.25,0  L  273.25,50 " />
<path transform="translate( 0, 0 )" style="stroke: hsl(107.6, 55%, 50%);" id="876"  d=" M  -211.296,80  -211.296,130  L  -0,130  L  273.25,130  L  273.25,80 " />
<path transform="translate( 0, 0 )" style="stroke: hsl(134.5, 55%, 50%);" id="1096"  d=" M  -211.296,50  -211.296,0  L  0,0  L  274.125,0  L  274.125,50 " />
<path transform="translate( 0, 0 )" style="stroke: hsl(134.5, 55%, 50%);" id="1097"  d=" M  -211.296,80  -211.296,130  L  -0,130  L  274.125,130  L  274.125,80 " />
<path transform="translate( 0, 0 )" style="stroke: hsl(161.4, 55%, 50%);" id="1317"  d=" M  -211.296,50  -211.296,0  L  0,0  L  275,0  L  275,50 " />
<path transform="translate( 0, 0 )" style="stroke: hsl(161.4, 55%, 50%);" id="1318"  d=" M  -211.296,80  -211.296,130  L  -0,130  L  275,130  L  275,80 " />
<path transform="translate( 0, 0 )" style="stroke: hsl(188.3, 55%, 50%);" id="1538"  d=" M  -211.296,50  -211.296,0  L  0,0  L  275.875,0  L  275.875,50 " />
<path transform="translate( 0, 0 )" style="stroke: hsl(188.3, 55%, 50%);" id="1539"  d=" M  -211.296,80  -211.296,130  L  -0,130  L  275.875,130  L  275.875,80 " />
<path transform="translate( 0, 0 )" style="stroke: hsl(215.2, 55%, 50%);" id="1759"  d=" M  -211.296,50  -211.296,0  L  0,0  L  276.75,0  L  276.75,50 " />
<path transform="translate( 0, 0 )" style="stroke: hsl(215.2, 55%, 50%);" id="1760"  d=" M  -211.296,80  -211.296,130  L  -0,130  L  276.75,130  L  276.75,80 " />
<path transform="translate( 0, 0 )" style="stroke: hsl(242.1, 55%, 50%);" id="1980"  d=" M  -211.296,50  -211.296,0  L  0,0  L  277.625,0  L  277.625,50 " />
<path transform="translate( 0, 0 )" style="stroke: hsl(242.1, 55%, 50%);" id="1981"  d=" M  -211.296,80  -211.296,130  L  -0,130  L  277.625,130  L  277.625,80 " />
<path transform="translate( 0, 0 )" style="stroke: hsl(269, 55%, 50%);" id="2201"  d=" M  -211.296,50  -211.296,0  L  0,0  L  278.5,0  L  278.5,50 " />
<path transform="translate( 0, 0 )" style="stroke: hsl(269, 55%, 50%);" id="2202"  d=" M  -211.296,80  -211.296,130  L  -0,130  L  278.5,130  L  278.5,80 " />
<path transform="translate( 0, 0 )" style="stroke: hsl(295.9, 55%, 50%);" id="2422"  d=" M  -211.296,50  -211.296,0  L  0,0  L  279.375,0  L  279.375,50 " />
<path transform="translate( 0, 0 )" style="stroke: hsl(295.9, 55%, 50%);" id="2423"  d=" M  -211.296,80  -211.296,130  L  -0,130  L  279.375,130  L  279.375,80 " />
    </g>
    <!-- End of group #tail -->
    
    <!-- Start of group #topsleeve -->
    <g id="topsleeve"  transform=" translate(178.723 5)  translate(437.505 0) " >
        <path class="hidden" id="5"  d=" M  -173.723,0  L  144.64,0  L  144.64,816.665  L  -173.723,816.665  z " />
<path transform="translate( 0, 0 )" style="stroke: hsl(26.9, 55%, 50%);" id="214"  d=" M  129.658,380  C  138.651,329  144.064,273.334  144.064,205  C  144.064,136.666  129.658,68.333  129.658,68.333  C  129.658,68.333  81.036,0  0,0  C  -81.036,0  -118.853,68.334  -129.658,123  C  -140.463,177.666  -145.865,205  -162.072,205  C  -162.072,205  -149.673,313.754  -144.064,380  L  -116.018,711.229  L  -120.617,808.62  L  40.76,816.241  C  54.207,816.876  65.623,806.49  66.258,793.043  L  69.707,720  z " />
<path transform="translate( -0.48100000000001, 0 )" style="stroke: hsl(53.8, 55%, 50%);" id="435"  d=" M  130.139,380  C  139.132,329  144.599,273.334  144.599,205  C  144.599,136.666  130.139,68.333  130.139,68.333  C  130.139,68.333  81.337,0  0,0  C  -81.337,0  -119.294,68.333  -130.139,123  C  -140.984,177.667  -146.407,205  -162.674,205  C  -162.674,205  -150.39,313.705  -144.599,380  L  -115.645,711.476  L  -120.113,808.874  L  41.371,816.281  C  54.819,816.898  66.22,806.497  66.837,793.049  L  70.188,720  z " />
<path transform="translate( -0.971, 0 )" style="stroke: hsl(80.7, 55%, 50%);" id="656"  d=" M  130.629,380  C  139.622,329  145.143,273.334  145.143,205  C  145.143,136.666  130.629,68.333  130.629,68.333  C  130.629,68.333  81.643,0  0,0  C  -81.643,0  -119.743,68.333  -130.629,123  C  -141.515,177.667  -146.958,205  -163.286,205  C  -163.286,205  -151.119,313.654  -145.143,380  L  -115.264,711.727  L  -119.598,809.131  L  41.993,816.321  C  55.442,816.919  66.829,806.502  67.427,793.053  L  70.678,720  z " />
<path transform="translate( -1.469, 0 )" style="stroke: hsl(107.6, 55%, 50%);" id="877"  d=" M  131.127,380  C  140.12,329  145.697,273.334  145.697,205  C  145.697,136.666  131.127,68.333  131.127,68.333  C  131.127,68.333  81.954,0  0,0  C  -81.954,0  -120.2,68.333  -131.127,123  C  -142.054,177.667  -147.518,205  -163.909,205  C  -163.909,205  -151.861,313.603  -145.697,380  L  -114.876,711.982  L  -119.074,809.392  L  42.626,816.361  C  56.076,816.94  67.448,806.508  68.027,793.058  L  71.176,720  z " />
<path transform="translate( -1.975, 0 )" style="stroke: hsl(134.5, 55%, 50%);" id="1098"  d=" M  131.633,380  C  140.626,329  146.259,273.334  146.259,205  C  146.259,136.666  131.633,68.333  131.633,68.333  C  131.633,68.333  82.271,0  0,0  C  -82.271,0  -120.664,68.334  -131.633,123  C  -142.602,177.666  -148.087,205  -164.541,205  C  -164.541,205  -152.614,313.551  -146.259,380  L  -114.483,712.242  L  -118.543,809.657  L  43.268,816.4  C  56.718,816.961  68.076,806.511  68.637,793.061  L  71.682,720  z " />
<path transform="translate( -2.49, 0 )" style="stroke: hsl(161.4, 55%, 50%);" id="1319"  d=" M  132.148,380  C  141.141,329  146.831,273.334  146.831,205  C  146.831,136.666  132.148,68.333  132.148,68.333  C  132.148,68.333  82.593,0  0,0  C  -82.593,0  -121.135,68.333  -132.148,123  C  -143.161,177.667  -148.667,205  -165.185,205  C  -165.185,205  -153.381,313.499  -146.831,380  L  -114.082,712.507  L  -118.001,809.928  L  43.923,816.441  C  57.374,816.982  68.717,806.517  69.258,793.066  L  72.197,720  z " />
<path transform="translate( -3.012, 0 )" style="stroke: hsl(188.3, 55%, 50%);" id="1540"  d=" M  132.67,380  C  141.663,329  147.411,273.334  147.411,205  C  147.411,136.666  132.67,68.333  132.67,68.333  C  132.67,68.333  82.919,0  0,0  C  -82.919,0  -121.614,68.334  -132.67,123  C  -143.726,177.666  -149.254,205  -165.837,205  C  -165.837,205  -154.158,313.445  -147.411,380  L  -113.675,712.776  L  -117.451,810.203  L  44.586,816.483  C  58.038,817.004  69.366,806.522  69.887,793.07  L  72.719,720  z " />
<path transform="translate( -3.542, 0 )" style="stroke: hsl(215.2, 55%, 50%);" id="1761"  d=" M  133.2,380  C  142.193,329  148,273.334  148,205  C  148,136.666  133.2,68.333  133.2,68.333  C  133.2,68.333  83.25,0  0,0  C  -83.25,0  -122.1,68.334  -133.2,123  C  -144.3,177.666  -149.85,205  -166.5,205  C  -166.5,205  -154.948,313.39  -148,380  L  -113.262,713.049  L  -116.893,810.481  L  45.26,816.524  C  58.713,817.025  70.025,806.527  70.526,793.074  L  73.249,720  z " />
<path transform="translate( -4.08, 0 )" style="stroke: hsl(242.1, 55%, 50%);" id="1982"  d=" M  133.738,380  C  142.731,329  148.598,273.334  148.598,205  C  148.598,136.666  133.738,68.333  133.738,68.333  C  133.738,68.333  83.586,0  0,0  C  -83.586,0  -122.593,68.333  -133.738,123  C  -144.883,177.667  -150.455,205  -167.172,205  C  -167.172,205  -155.749,313.335  -148.598,380  L  -112.842,713.327  L  -116.326,810.765  L  45.944,816.567  C  59.397,817.048  70.693,806.532  71.174,793.079  L  73.787,720  z " />
<path transform="translate( -4.626, 0 )" style="stroke: hsl(269, 55%, 50%);" id="2203"  d=" M  134.284,380  C  143.277,329  149.204,273.334  149.204,205  C  149.204,136.666  134.284,68.333  134.284,68.333  C  134.284,68.333  83.928,0  0,0  C  -83.928,0  -123.093,68.334  -134.284,123  C  -145.475,177.666  -151.07,205  -167.855,205  C  -167.855,205  -156.562,313.278  -149.204,380  L  -112.415,713.609  L  -115.75,811.052  L  46.637,816.609  C  60.091,817.07  71.371,806.536  71.832,793.082  L  74.333,720  z " />
<path transform="translate( -5.178, 0 )" style="stroke: hsl(295.9, 55%, 50%);" id="2424"  d=" M  134.836,380  C  143.829,329  149.818,273.334  149.818,205  C  149.818,136.666  134.836,68.333  134.836,68.333  C  134.836,68.333  84.273,0  0,0  C  -84.273,0  -123.599,68.333  -134.836,123  C  -146.073,177.667  -151.691,205  -168.545,205  C  -168.545,205  -157.385,313.221  -149.818,380  L  -111.982,713.895  L  -115.166,811.343  L  47.339,816.652  C  60.794,817.092  72.057,806.541  72.497,793.086  L  74.885,720  z " />
    </g>
    <!-- End of group #topsleeve -->
    
    <!-- Start of group #undersleeve -->
    <g id="undersleeve"  transform=" translate(111.305 -63.333)  translate(765.868 0) " >
        <path class="hidden" id="6"  d=" M  -106.305,68.333  L  132.294,68.333  L  132.294,815.965  L  -106.305,815.965  z " />
<path transform="translate( 0, 0 )" style="stroke: hsl(26.9, 55%, 50%);" id="215"  d=" M  129.658,380  C  138.651,329  122.321,272.967  115.252,205  C  108.183,137.033  97.243,68.333  97.243,68.333  C  76.317,134.677  -16.207,205  -64.829,205  L  -97.244,205  C  -97.244,205  -77.957,313.915  -75.634,380  L  -64.019,710.427  L  -70.981,807.678  L  38.432,815.51  C  51.86,816.472  63.524,806.366  64.486,792.938  L  69.707,720  z " />
<path transform="translate( -0.48100000000001, 0 )" style="stroke: hsl(53.8, 55%, 50%);" id="436"  d=" M  130.139,380  C  139.132,329  122.774,272.965  115.679,205  C  108.584,137.035  97.604,68.333  97.604,68.333  C  76.638,134.673  -16.267,205  -65.069,205  L  -97.604,205  C  -97.604,205  -78.406,313.88  -75.914,380  L  -63.454,710.601  L  -70.294,807.861  L  39.033,815.55  C  52.462,816.494  64.114,806.374  65.058,792.945  L  70.188,720  z " />
<path transform="translate( -0.971, 0 )" style="stroke: hsl(80.7, 55%, 50%);" id="657"  d=" M  130.629,380  C  139.622,329  123.236,272.962  116.115,205  C  108.994,137.038  97.972,68.333  97.972,68.333  C  76.985,134.676  -16.329,205  -65.315,205  L  -97.972,205  C  -97.972,205  -78.864,313.844  -76.2,380  L  -62.878,710.779  L  -69.594,808.047  L  39.645,815.589  C  53.075,816.516  64.714,806.381  65.641,792.951  L  70.678,720  z " />
<path transform="translate( -1.469, 0 )" style="stroke: hsl(107.6, 55%, 50%);" id="878"  d=" M  131.127,380  C  140.12,329  123.705,272.959  116.557,205  C  109.409,137.041  98.345,68.333  98.345,68.333  C  77.321,134.674  -16.391,205  -65.563,205  L  -98.345,205  C  -98.345,205  -79.331,313.808  -76.491,380  L  -62.293,710.96  L  -68.882,808.237  L  40.268,815.63  C  53.699,816.54  65.324,806.389  66.234,792.958  L  71.176,720  z " />
<path transform="translate( -1.975, 0 )" style="stroke: hsl(134.5, 55%, 50%);" id="1099"  d=" M  131.633,380  C  140.626,329  124.182,272.956  117.007,205  C  109.832,137.044  98.725,68.333  98.725,68.333  C  77.675,134.677  -16.454,205  -65.817,205  L  -98.725,205  C  -98.725,205  -79.804,313.771  -76.786,380  L  -61.697,711.142  L  -68.158,808.428  L  40.9,815.671  C  54.332,816.563  65.944,806.397  66.836,792.965  L  71.682,720  z " />
<path transform="translate( -2.49, 0 )" style="stroke: hsl(161.4, 55%, 50%);" id="1320"  d=" M  132.148,380  C  141.141,329  124.668,272.953  117.465,205  C  110.262,137.047  99.111,68.333  99.111,68.333  C  78.016,134.673  -16.519,205  -66.074,205  L  -99.111,205  C  -99.111,205  -80.285,313.734  -77.086,380  L  -61.091,711.329  L  -67.42,808.623  L  41.544,815.712  C  54.978,816.586  66.576,806.404  67.45,792.97  L  72.197,720  z " />
<path transform="translate( -3.012, 0 )" style="stroke: hsl(188.3, 55%, 50%);" id="1541"  d=" M  132.67,380  C  141.663,329  125.16,272.95  117.929,205  C  110.698,137.05  99.502,68.333  99.502,68.333  C  78.361,134.669  -16.584,205  -66.335,205  L  -99.503,205  C  -99.503,205  -80.774,313.696  -77.391,380  L  -60.477,711.517  L  -66.674,808.82  L  42.196,815.754  C  55.631,816.609  67.216,806.412  68.071,792.977  L  72.719,720  z " />
<path transform="translate( -3.542, 0 )" style="stroke: hsl(215.2, 55%, 50%);" id="1762"  d=" M  133.2,380  C  142.193,329  125.66,272.947  118.4,205  C  111.14,137.053  99.9,68.333  99.9,68.333  C  78.725,134.669  -16.65,205  -66.6,205  L  -99.9,205  C  -99.9,205  -81.269,313.659  -77.7,380  L  -59.853,711.708  L  -65.915,809.019  L  42.859,815.795  C  56.295,816.632  67.866,806.419  68.703,792.983  L  73.249,720  z " />
<path transform="translate( -4.08, 0 )" style="stroke: hsl(242.1, 55%, 50%);" id="1983"  d=" M  133.738,380  C  142.731,329  126.167,272.944  118.878,205  C  111.589,137.056  100.303,68.333  100.303,68.333  C  79.099,134.67  -16.717,205  -66.869,205  L  -100.304,205  C  -100.304,205  -81.773,313.62  -78.014,380  L  -59.219,711.902  L  -65.144,809.222  L  43.532,815.839  C  56.969,816.657  68.525,806.427  69.343,792.99  L  73.787,720  z " />
<path transform="translate( -4.626, 0 )" style="stroke: hsl(269, 55%, 50%);" id="2204"  d=" M  134.284,380  C  143.277,329  126.682,272.941  119.364,205  C  112.046,137.059  100.713,68.333  100.713,68.333  C  79.468,134.668  -16.786,205  -67.142,205  L  -100.713,205  C  -100.713,205  -82.283,313.581  -78.332,380  L  -58.575,712.098  L  -64.362,809.426  L  44.214,815.881  C  57.652,816.68  69.194,806.434  69.993,792.996  L  74.333,720  z " />
<path transform="translate( -5.178, 0 )" style="stroke: hsl(295.9, 55%, 50%);" id="2425"  d=" M  134.836,380  C  143.829,329  127.202,272.938  119.854,205  C  112.506,137.062  101.127,68.333  101.127,68.333  C  79.86,134.672  -16.855,205  -67.418,205  L  -101.127,205  C  -101.127,205  -82.8,313.541  -78.654,380  L  -57.925,712.296  L  -63.571,809.632  L  44.905,815.924  C  58.344,816.704  69.871,806.441  70.651,793.002  L  74.885,720  z " />
    </g>
    <!-- End of group #undersleeve -->
    
    <!-- Start of group #belt -->
    <g id="belt"  transform=" translate(5 5)  translate(1420.347 140) " >
        <path class="hidden" id="7"  d=" M  0,0  L  405.023,0  L  405.023,70  L  0,70  z " />
<path transform="translate( 0, 0 )" style="stroke: hsl(26.9, 55%, 50%);" id="216"  d=" M  396.273,0  L  10,0  C  4.477,0  0,4.477  0,10  L  0,60  C  0,65.523  4.477,70  10,70  L  396.273,70  L  396.273,0  z " />
<path transform="translate( 0, 0 )" style="stroke: hsl(53.8, 55%, 50%);" id="437"  d=" M  397.148,0  L  10,0  C  4.477,0  0,4.477  0,10  L  0,60  C  0,65.523  4.477,70  10,70  L  397.148,70  L  397.148,0  z " />
<path transform="translate( 0, 0 )" style="stroke: hsl(80.7, 55%, 50%);" id="658"  d=" M  398.023,0  L  10,0  C  4.477,0  0,4.477  0,10  L  0,60  C  0,65.523  4.477,70  10,70  L  398.023,70  L  398.023,0  z " />
<path transform="translate( 0, 0 )" style="stroke: hsl(107.6, 55%, 50%);" id="879"  d=" M  398.898,0  L  10,0  C  4.477,0  0,4.477  0,10  L  0,60  C  0,65.523  4.477,70  10,70  L  398.898,70  L  398.898,0  z " />
<path transform="translate( 0, 0 )" style="stroke: hsl(134.5, 55%, 50%);" id="1100"  d=" M  399.773,0  L  10,0  C  4.477,0  0,4.477  0,10  L  0,60  C  0,65.523  4.477,70  10,70  L  399.773,70  L  399.773,0  z " />
<path transform="translate( 0, 0 )" style="stroke: hsl(161.4, 55%, 50%);" id="1321"  d=" M  400.648,0  L  10,0  C  4.477,0  0,4.477  0,10  L  0,60  C  0,65.523  4.477,70  10,70  L  400.648,70  L  400.648,0  z " />
<path transform="translate( 0, 0 )" style="stroke: hsl(188.3, 55%, 50%);" id="1542"  d=" M  401.523,0  L  10,0  C  4.477,0  0,4.477  0,10  L  0,60  C  0,65.523  4.477,70  10,70  L  401.523,70  L  401.523,0  z " />
<path transform="translate( 0, 0 )" style="stroke: hsl(215.2, 55%, 50%);" id="1763"  d=" M  402.398,0  L  10,0  C  4.477,0  0,4.477  0,10  L  0,60  C  0,65.523  4.477,70  10,70  L  402.398,70  L  402.398,0  z " />
<path transform="translate( 0, 0 )" style="stroke: hsl(242.1, 55%, 50%);" id="1984"  d=" M  403.273,0  L  10,0  C  4.477,0  0,4.477  0,10  L  0,60  C  0,65.523  4.477,70  10,70  L  403.273,70  L  403.273,0  z " />
<path transform="translate( 0, 0 )" style="stroke: hsl(269, 55%, 50%);" id="2205"  d=" M  404.148,0  L  10,0  C  4.477,0  0,4.477  0,10  L  0,60  C  0,65.523  4.477,70  10,70  L  404.148,70  L  404.148,0  z " />
<path transform="translate( 0, 0 )" style="stroke: hsl(295.9, 55%, 50%);" id="2426"  d=" M  405.023,0  L  10,0  C  4.477,0  0,4.477  0,10  L  0,60  C  0,65.523  4.477,70  10,70  L  405.023,70  L  405.023,0  z " />
    </g>
    <!-- End of group #belt -->
    
    <!-- Start of group #collarStand -->
    <g id="collarStand"  transform=" translate(176.885 -71.76)  translate(1420.347 220) " >
        <path class="hidden" id="8"  d=" M  -171.885,76.76  L  171.885,76.76  L  171.885,128.368  L  -171.885,128.368  z " />
<path transform="translate( 0, 0 )" style="stroke: hsl(26.9, 55%, 50%);" id="217"  d=" M  -171.885,128.368  C  -171.885,128.368  -154.697,76.76  0,76.76  C  154.697,76.76  171.885,128.368  171.885,128.368  C  144.745,128.368  85.943,101.76  0,101.76  C  -85.943,101.76  -144.745,128.368  -171.885,128.368  z " />
<path transform="translate( 0, 0 )" style="stroke: hsl(53.8, 55%, 50%);" id="438"  d=" M  -171.885,128.368  C  -171.885,128.368  -154.697,76.76  0,76.76  C  154.697,76.76  171.885,128.368  171.885,128.368  C  144.745,128.368  85.943,101.76  0,101.76  C  -85.943,101.76  -144.745,128.368  -171.885,128.368  z " />
<path transform="translate( 0, 0 )" style="stroke: hsl(80.7, 55%, 50%);" id="659"  d=" M  -171.885,128.368  C  -171.885,128.368  -154.697,76.76  0,76.76  C  154.697,76.76  171.885,128.368  171.885,128.368  C  144.745,128.368  85.943,101.76  0,101.76  C  -85.943,101.76  -144.745,128.368  -171.885,128.368  z " />
<path transform="translate( 0, 0 )" style="stroke: hsl(107.6, 55%, 50%);" id="880"  d=" M  -171.885,128.368  C  -171.885,128.368  -154.697,76.76  0,76.76  C  154.697,76.76  171.885,128.368  171.885,128.368  C  144.745,128.368  85.943,101.76  0,101.76  C  -85.943,101.76  -144.745,128.368  -171.885,128.368  z " />
<path transform="translate( 0, 0 )" style="stroke: hsl(134.5, 55%, 50%);" id="1101"  d=" M  -171.885,128.368  C  -171.885,128.368  -154.697,76.76  0,76.76  C  154.697,76.76  171.885,128.368  171.885,128.368  C  144.745,128.368  85.943,101.76  0,101.76  C  -85.943,101.76  -144.745,128.368  -171.885,128.368  z " />
<path transform="translate( 0, 0 )" style="stroke: hsl(161.4, 55%, 50%);" id="1322"  d=" M  -171.885,128.368  C  -171.885,128.368  -154.697,76.76  0,76.76  C  154.697,76.76  171.885,128.368  171.885,128.368  C  144.745,128.368  85.943,101.76  0,101.76  C  -85.943,101.76  -144.745,128.368  -171.885,128.368  z " />
<path transform="translate( 0, 0 )" style="stroke: hsl(188.3, 55%, 50%);" id="1543"  d=" M  -171.885,128.368  C  -171.885,128.368  -154.697,76.76  0,76.76  C  154.697,76.76  171.885,128.368  171.885,128.368  C  144.745,128.368  85.943,101.76  0,101.76  C  -85.943,101.76  -144.745,128.368  -171.885,128.368  z " />
<path transform="translate( 0, 0 )" style="stroke: hsl(215.2, 55%, 50%);" id="1764"  d=" M  -171.885,128.368  C  -171.885,128.368  -154.697,76.76  0,76.76  C  154.697,76.76  171.885,128.368  171.885,128.368  C  144.745,128.368  85.943,101.76  0,101.76  C  -85.943,101.76  -144.745,128.368  -171.885,128.368  z " />
<path transform="translate( 0, 0 )" style="stroke: hsl(242.1, 55%, 50%);" id="1985"  d=" M  -171.885,128.368  C  -171.885,128.368  -154.697,76.76  0,76.76  C  154.697,76.76  171.885,128.368  171.885,128.368  C  144.745,128.368  85.943,101.76  0,101.76  C  -85.943,101.76  -144.745,128.368  -171.885,128.368  z " />
<path transform="translate( 0, 0 )" style="stroke: hsl(269, 55%, 50%);" id="2206"  d=" M  -171.885,128.368  C  -171.885,128.368  -154.697,76.76  0,76.76  C  154.697,76.76  171.885,128.368  171.885,128.368  C  144.745,128.368  85.943,101.76  0,101.76  C  -85.943,101.76  -144.745,128.368  -171.885,128.368  z " />
<path transform="translate( 0, 0 )" style="stroke: hsl(295.9, 55%, 50%);" id="2427"  d=" M  -171.885,128.368  C  -171.885,128.368  -154.697,76.76  0,76.76  C  154.697,76.76  171.885,128.368  171.885,128.368  C  144.745,128.368  85.943,101.76  0,101.76  C  -85.943,101.76  -144.745,128.368  -171.885,128.368  z " />
    </g>
    <!-- End of group #collarStand -->
    
    <!-- Start of group #collar -->
    <g id="collar"  transform=" translate(5 5)  translate(1420.347 437.858) " >
        <path class="hidden" id="9"  d=" M  0,0  L  263.948,0  L  263.948,154.668  L  0,154.668  z " />
<path transform="translate( 0, 0 )" style="stroke: hsl(26.9, 55%, 50%);" id="218"  d=" M  0,76.76  C  17.017,76.76  32.369,77.385  46.596,78.526  C  63.764,81.44  78.839,85.001  91.945,88.932  C  109.76,96.022  123.091,103.403  133.078,110.475  C  156.879,135.404  157.852,151.68  157.852,151.68  L  210.935,154.668  L  263.948,67.319  C  199.814,30.027  135.699,0  0,0  z " />
<path transform="translate( 0, 0 )" style="stroke: hsl(53.8, 55%, 50%);" id="439"  d=" M  0,76.76  C  17.017,76.76  32.369,77.385  46.596,78.526  C  63.764,81.44  78.839,85.001  91.945,88.932  C  109.76,96.022  123.091,103.403  133.078,110.475  C  156.879,135.404  157.852,151.68  157.852,151.68  L  210.935,154.668  L  263.948,67.319  C  199.814,30.027  135.699,0  0,0  z " />
<path transform="translate( 0, 0 )" style="stroke: hsl(80.7, 55%, 50%);" id="660"  d=" M  0,76.76  C  17.017,76.76  32.369,77.385  46.596,78.526  C  63.764,81.44  78.839,85.001  91.945,88.932  C  109.76,96.022  123.091,103.403  133.078,110.475  C  156.879,135.404  157.852,151.68  157.852,151.68  L  210.935,154.668  L  263.948,67.319  C  199.814,30.027  135.699,0  0,0  z " />
<path transform="translate( 0, 0 )" style="stroke: hsl(107.6, 55%, 50%);" id="881"  d=" M  0,76.76  C  17.017,76.76  32.369,77.385  46.596,78.526  C  63.764,81.44  78.839,85.001  91.945,88.932  C  109.76,96.022  123.091,103.403  133.078,110.475  C  156.879,135.404  157.852,151.68  157.852,151.68  L  210.935,154.668  L  263.948,67.319  C  199.814,30.027  135.699,0  0,0  z " />
<path transform="translate( 0, 0 )" style="stroke: hsl(134.5, 55%, 50%);" id="1102"  d=" M  0,76.76  C  17.017,76.76  32.369,77.385  46.596,78.526  C  63.764,81.44  78.839,85.001  91.945,88.932  C  109.76,96.022  123.091,103.403  133.078,110.475  C  156.879,135.404  157.852,151.68  157.852,151.68  L  210.935,154.668  L  263.948,67.319  C  199.814,30.027  135.699,0  0,0  z " />
<path transform="translate( 0, 0 )" style="stroke: hsl(161.4, 55%, 50%);" id="1323"  d=" M  0,76.76  C  17.017,76.76  32.369,77.385  46.596,78.526  C  63.764,81.44  78.839,85.001  91.945,88.932  C  109.76,96.022  123.091,103.403  133.078,110.475  C  156.879,135.404  157.852,151.68  157.852,151.68  L  210.935,154.668  L  263.948,67.319  C  199.814,30.027  135.699,0  0,0  z " />
<path transform="translate( 0, 0 )" style="stroke: hsl(188.3, 55%, 50%);" id="1544"  d=" M  0,76.76  C  17.017,76.76  32.369,77.385  46.596,78.526  C  63.764,81.44  78.839,85.001  91.945,88.932  C  109.76,96.022  123.091,103.403  133.078,110.475  C  156.879,135.404  157.852,151.68  157.852,151.68  L  210.935,154.668  L  263.948,67.319  C  199.814,30.027  135.699,0  0,0  z " />
<path transform="translate( 0, 0 )" style="stroke: hsl(215.2, 55%, 50%);" id="1765"  d=" M  0,76.76  C  17.017,76.76  32.369,77.385  46.596,78.526  C  63.764,81.44  78.839,85.001  91.945,88.932  C  109.76,96.022  123.091,103.403  133.078,110.475  C  156.879,135.404  157.852,151.68  157.852,151.68  L  210.935,154.668  L  263.948,67.319  C  199.814,30.027  135.699,0  0,0  z " />
<path transform="translate( 0, 0 )" style="stroke: hsl(242.1, 55%, 50%);" id="1986"  d=" M  0,76.76  C  17.017,76.76  32.369,77.385  46.596,78.526  C  63.764,81.44  78.839,85.001  91.945,88.932  C  109.76,96.022  123.091,103.403  133.078,110.475  C  156.879,135.404  157.852,151.68  157.852,151.68  L  210.935,154.668  L  263.948,67.319  C  199.814,30.027  135.699,0  0,0  z " />
<path transform="translate( 0, 0 )" style="stroke: hsl(269, 55%, 50%);" id="2207"  d=" M  0,76.76  C  17.017,76.76  32.369,77.385  46.596,78.526  C  63.764,81.44  78.839,85.001  91.945,88.932  C  109.76,96.022  123.091,103.403  133.078,110.475  C  156.879,135.404  157.852,151.68  157.852,151.68  L  210.935,154.668  L  263.948,67.319  C  199.814,30.027  135.699,0  0,0  z " />
<path transform="translate( 0, 0 )" style="stroke: hsl(295.9, 55%, 50%);" id="2428"  d=" M  0,76.76  C  17.017,76.76  32.369,77.385  46.596,78.526  C  63.764,81.44  78.839,85.001  91.945,88.932  C  109.76,96.022  123.091,103.403  133.078,110.475  C  156.879,135.404  157.852,151.68  157.852,151.68  L  210.935,154.668  L  263.948,67.319  C  199.814,30.027  135.699,0  0,0  z " />
    </g>
    <!-- End of group #collar -->
    
    <!-- Start of group #cuffFacing -->
    <g id="cuffFacing"  transform=" translate(5.001 5)  translate(1420.347 281.608) " >
        <path class="hidden" id="10"  d=" M  -0.001,0  L  320,0  L  320,146.25  L  -0.001,146.25  z " />
<path transform="translate( 0, 0 )" style="stroke: hsl(26.9, 55%, 50%);" id="219"  d=" M  0,0  L  0,121.875  C  -0,135.337  10.913,146.25  24.375,146.25  L  295.625,146.25  C  309.087,146.25  320,135.337  320,121.875  L  320,0  z " />
<path transform="translate( 0, 0 )" style="stroke: hsl(53.8, 55%, 50%);" id="440"  d=" M  0,0  L  0,121.875  C  -0,135.337  10.913,146.25  24.375,146.25  L  295.625,146.25  C  309.087,146.25  320,135.337  320,121.875  L  320,0  z " />
<path transform="translate( 0, 0 )" style="stroke: hsl(80.7, 55%, 50%);" id="661"  d=" M  0,0  L  0,121.875  C  -0,135.337  10.913,146.25  24.375,146.25  L  295.625,146.25  C  309.087,146.25  320,135.337  320,121.875  L  320,0  z " />
<path transform="translate( 0, 0 )" style="stroke: hsl(107.6, 55%, 50%);" id="882"  d=" M  0,0  L  0,121.875  C  -0,135.337  10.913,146.25  24.375,146.25  L  295.624,146.25  C  309.086,146.25  319.999,135.337  319.999,121.875  L  319.999,0  z " />
<path transform="translate( 0, 0 )" style="stroke: hsl(134.5, 55%, 50%);" id="1103"  d=" M  0,0  L  0,121.875  C  -0,135.337  10.913,146.25  24.375,146.25  L  295.624,146.25  C  309.086,146.25  319.999,135.337  319.999,121.875  L  319.999,0  z " />
<path transform="translate( 0, 0 )" style="stroke: hsl(161.4, 55%, 50%);" id="1324"  d=" M  0,0  L  0,121.875  C  -0,135.337  10.913,146.25  24.375,146.25  L  295.624,146.25  C  309.086,146.25  319.999,135.337  319.999,121.875  L  319.999,0  z " />
<path transform="translate( 0, 0 )" style="stroke: hsl(188.3, 55%, 50%);" id="1545"  d=" M  0,0  L  0,121.875  C  -0,135.337  10.913,146.25  24.375,146.25  L  295.625,146.25  C  309.087,146.25  320,135.337  320,121.875  L  320,0  z " />
<path transform="translate( -0.0010000000000048, 0 )" style="stroke: hsl(215.2, 55%, 50%);" id="1766"  d=" M  0,0  L  0,121.875  C  -0,135.337  10.913,146.25  24.375,146.25  L  295.626,146.25  C  309.088,146.25  320.001,135.337  320.001,121.875  L  320.001,0  z " />
<path transform="translate( -0.0010000000000048, 0 )" style="stroke: hsl(242.1, 55%, 50%);" id="1987"  d=" M  0,0  L  0,121.875  C  -0,135.337  10.913,146.25  24.375,146.25  L  295.626,146.25  C  309.088,146.25  320.001,135.337  320.001,121.875  L  320.001,0  z " />
<path transform="translate( 0, 0 )" style="stroke: hsl(269, 55%, 50%);" id="2208"  d=" M  0,0  L  0,121.875  C  -0,135.337  10.913,146.25  24.375,146.25  L  295.625,146.25  C  309.087,146.25  320,135.337  320,121.875  L  320,0  z " />
<path transform="translate( 0, 0 )" style="stroke: hsl(295.9, 55%, 50%);" id="2429"  d=" M  0,0  L  0,121.875  C  -0,135.337  10.913,146.25  24.375,146.25  L  295.625,146.25  C  309.087,146.25  320,135.337  320,121.875  L  320,0  z " />
    </g>
    <!-- End of group #cuffFacing -->
    
    <!-- Start of group #pocket -->
    <g id="pocket"  transform=" translate(-77.505 -712.5)  translate(1420.347 602.526) " >
        <path class="hidden" id="11"  d=" M  82.505,717.5  L  282.315,717.5  L  282.315,945.4  L  82.505,945.4  z " />
<path transform="translate( 0, 0 )" style="stroke: hsl(26.9, 55%, 50%);" id="220"  d=" M  82.505,717.5  L  82.505,895.4  C  82.505,923.014  104.891,945.4  132.505,945.4  L  232.315,945.4  C  259.929,945.4  282.315,923.014  282.315,895.4  L  282.315,717.5  L  82.505,717.5  z " />
<path transform="translate( 0, 0 )" style="stroke: hsl(53.8, 55%, 50%);" id="441"  d=" M  82.505,717.5  L  82.505,895.4  C  82.505,923.014  104.891,945.4  132.505,945.4  L  232.315,945.4  C  259.929,945.4  282.315,923.014  282.315,895.4  L  282.315,717.5  L  82.505,717.5  z " />
<path transform="translate( 0, 0 )" style="stroke: hsl(80.7, 55%, 50%);" id="662"  d=" M  82.505,717.5  L  82.505,895.4  C  82.505,923.014  104.891,945.4  132.505,945.4  L  232.315,945.4  C  259.929,945.4  282.315,923.014  282.315,895.4  L  282.315,717.5  L  82.505,717.5  z " />
<path transform="translate( 0, 0 )" style="stroke: hsl(107.6, 55%, 50%);" id="883"  d=" M  82.505,717.5  L  82.505,895.4  C  82.505,923.014  104.891,945.4  132.505,945.4  L  232.315,945.4  C  259.929,945.4  282.315,923.014  282.315,895.4  L  282.315,717.5  L  82.505,717.5  z " />
<path transform="translate( 0, 0 )" style="stroke: hsl(134.5, 55%, 50%);" id="1104"  d=" M  82.505,717.5  L  82.505,895.4  C  82.505,923.014  104.891,945.4  132.505,945.4  L  232.315,945.4  C  259.929,945.4  282.315,923.014  282.315,895.4  L  282.315,717.5  L  82.505,717.5  z " />
<path transform="translate( 0, 0 )" style="stroke: hsl(161.4, 55%, 50%);" id="1325"  d=" M  82.505,717.5  L  82.505,895.4  C  82.505,923.014  104.891,945.4  132.505,945.4  L  232.315,945.4  C  259.929,945.4  282.315,923.014  282.315,895.4  L  282.315,717.5  L  82.505,717.5  z " />
<path transform="translate( 0, 0 )" style="stroke: hsl(188.3, 55%, 50%);" id="1546"  d=" M  82.505,717.5  L  82.505,895.4  C  82.505,923.014  104.891,945.4  132.505,945.4  L  232.315,945.4  C  259.929,945.4  282.315,923.014  282.315,895.4  L  282.315,717.5  L  82.505,717.5  z " />
<path transform="translate( 0, 0 )" style="stroke: hsl(215.2, 55%, 50%);" id="1767"  d=" M  82.505,717.5  L  82.505,895.4  C  82.505,923.014  104.891,945.4  132.505,945.4  L  232.315,945.4  C  259.929,945.4  282.315,923.014  282.315,895.4  L  282.315,717.5  L  82.505,717.5  z " />
<path transform="translate( 0, 0 )" style="stroke: hsl(242.1, 55%, 50%);" id="1988"  d=" M  82.505,717.5  L  82.505,895.4  C  82.505,923.014  104.891,945.4  132.505,945.4  L  232.315,945.4  C  259.929,945.4  282.315,923.014  282.315,895.4  L  282.315,717.5  L  82.505,717.5  z " />
<path transform="translate( 0, 0 )" style="stroke: hsl(269, 55%, 50%);" id="2209"  d=" M  82.505,717.5  L  82.505,895.4  C  82.505,923.014  104.891,945.4  132.505,945.4  L  232.315,945.4  C  259.929,945.4  282.315,923.014  282.315,895.4  L  282.315,717.5  L  82.505,717.5  z " />
<path transform="translate( 0, 0 )" style="stroke: hsl(295.9, 55%, 50%);" id="2430"  d=" M  82.505,717.5  L  82.505,895.4  C  82.505,923.014  104.891,945.4  132.505,945.4  L  232.315,945.4  C  259.929,945.4  282.315,923.014  282.315,895.4  L  282.315,717.5  L  82.505,717.5  z " />
    </g>
    <!-- End of group #pocket -->
    
    <!-- Start of group #pocketFlap -->
    <g id="pocketFlap"  transform=" translate(-76.88 -700.016)  translate(1694.295 437.858) " >
        <path class="hidden" id="12"  d=" M  81.88,705.016  L  282.94,705.016  L  282.94,787.468  L  81.88,787.468  z " />
<path transform="translate( 0, 0 )" style="stroke: hsl(26.9, 55%, 50%);" id="221"  d=" M  81.88,705.016  L  84.505,757.468  C  85.333,774.016  97.936,787.468  114.505,787.468  L  250.315,787.468  C  266.884,787.468  279.487,774.016  280.315,757.468  L  282.94,705.016  z " />
<path transform="translate( 0, 0 )" style="stroke: hsl(53.8, 55%, 50%);" id="442"  d=" M  81.88,705.016  L  84.505,757.468  C  85.333,774.016  97.936,787.468  114.505,787.468  L  250.315,787.468  C  266.884,787.468  279.487,774.016  280.315,757.468  L  282.94,705.016  z " />
<path transform="translate( 0, 0 )" style="stroke: hsl(80.7, 55%, 50%);" id="663"  d=" M  81.88,705.016  L  84.505,757.468  C  85.333,774.016  97.936,787.468  114.505,787.468  L  250.315,787.468  C  266.884,787.468  279.487,774.016  280.315,757.468  L  282.94,705.016  z " />
<path transform="translate( 0, 0 )" style="stroke: hsl(107.6, 55%, 50%);" id="884"  d=" M  81.88,705.016  L  84.505,757.468  C  85.333,774.016  97.936,787.468  114.505,787.468  L  250.315,787.468  C  266.884,787.468  279.487,774.016  280.315,757.468  L  282.94,705.016  z " />
<path transform="translate( 0, 0 )" style="stroke: hsl(134.5, 55%, 50%);" id="1105"  d=" M  81.88,705.016  L  84.505,757.468  C  85.333,774.016  97.936,787.468  114.505,787.468  L  250.315,787.468  C  266.884,787.468  279.487,774.016  280.315,757.468  L  282.94,705.016  z " />
<path transform="translate( 0, 0 )" style="stroke: hsl(161.4, 55%, 50%);" id="1326"  d=" M  81.88,705.016  L  84.505,757.468  C  85.333,774.016  97.936,787.468  114.505,787.468  L  250.315,787.468  C  266.884,787.468  279.487,774.016  280.315,757.468  L  282.94,705.016  z " />
<path transform="translate( 0, 0 )" style="stroke: hsl(188.3, 55%, 50%);" id="1547"  d=" M  81.88,705.016  L  84.505,757.468  C  85.333,774.016  97.936,787.468  114.505,787.468  L  250.315,787.468  C  266.884,787.468  279.487,774.016  280.315,757.468  L  282.94,705.016  z " />
<path transform="translate( 0, 0 )" style="stroke: hsl(215.2, 55%, 50%);" id="1768"  d=" M  81.88,705.016  L  84.505,757.468  C  85.333,774.016  97.936,787.468  114.505,787.468  L  250.315,787.468  C  266.884,787.468  279.487,774.016  280.315,757.468  L  282.94,705.016  z " />
<path transform="translate( 0, 0 )" style="stroke: hsl(242.1, 55%, 50%);" id="1989"  d=" M  81.88,705.016  L  84.505,757.468  C  85.333,774.016  97.936,787.468  114.505,787.468  L  250.315,787.468  C  266.884,787.468  279.487,774.016  280.315,757.468  L  282.94,705.016  z " />
<path transform="translate( 0, 0 )" style="stroke: hsl(269, 55%, 50%);" id="2210"  d=" M  81.88,705.016  L  84.505,757.468  C  85.333,774.016  97.936,787.468  114.505,787.468  L  250.315,787.468  C  266.884,787.468  279.487,774.016  280.315,757.468  L  282.94,705.016  z " />
<path transform="translate( 0, 0 )" style="stroke: hsl(295.9, 55%, 50%);" id="2431"  d=" M  81.88,705.016  L  84.505,757.468  C  85.333,774.016  97.936,787.468  114.505,787.468  L  250.315,787.468  C  266.884,787.468  279.487,774.016  280.315,757.468  L  282.94,705.016  z " />
    </g>
    <!-- End of group #pocketFlap -->
    
    <!-- Start of group #chestPocketWelt -->
    <g id="chestPocketWelt"  transform=" translate(5 5)  translate(1630.157 602.526) " >
        <path class="hidden" id="13"  d=" M  0,0  L  41.34,0  L  41.34,184.016  L  0,184.016  z " />
<path transform="translate( 0, 0 )" style="stroke: hsl(26.9, 55%, 50%);" id="222"  d=" M  0,0  L  41.34,0  L  41.34,184.016  L  0,184.016  L  0,0  z " />
<path transform="translate( 0, 0 )" style="stroke: hsl(53.8, 55%, 50%);" id="443"  d=" M  0,0  L  41.34,0  L  41.34,184.016  L  0,184.016  L  0,0  z " />
<path transform="translate( 0, 0 )" style="stroke: hsl(80.7, 55%, 50%);" id="664"  d=" M  0,0  L  41.34,0  L  41.34,184.016  L  0,184.016  L  0,0  z " />
<path transform="translate( 0, 0 )" style="stroke: hsl(107.6, 55%, 50%);" id="885"  d=" M  0,0  L  41.34,0  L  41.34,184.016  L  0,184.016  L  0,0  z " />
<path transform="translate( 0, 0 )" style="stroke: hsl(134.5, 55%, 50%);" id="1106"  d=" M  0,0  L  41.34,0  L  41.34,184.016  L  0,184.016  L  0,0  z " />
<path transform="translate( 0, 0 )" style="stroke: hsl(161.4, 55%, 50%);" id="1327"  d=" M  0,0  L  41.34,0  L  41.34,184.016  L  0,184.016  L  0,0  z " />
<path transform="translate( 0, 0 )" style="stroke: hsl(188.3, 55%, 50%);" id="1548"  d=" M  0,0  L  41.34,0  L  41.34,184.016  L  0,184.016  L  0,0  z " />
<path transform="translate( 0, 0 )" style="stroke: hsl(215.2, 55%, 50%);" id="1769"  d=" M  0,0  L  41.34,0  L  41.34,184.016  L  0,184.016  L  0,0  z " />
<path transform="translate( 0, 0 )" style="stroke: hsl(242.1, 55%, 50%);" id="1990"  d=" M  0,0  L  41.34,0  L  41.34,184.016  L  0,184.016  L  0,0  z " />
<path transform="translate( 0, 0 )" style="stroke: hsl(269, 55%, 50%);" id="2211"  d=" M  0,0  L  41.34,0  L  41.34,184.016  L  0,184.016  L  0,0  z " />
<path transform="translate( 0, 0 )" style="stroke: hsl(295.9, 55%, 50%);" id="2432"  d=" M  0,0  L  41.34,0  L  41.34,184.016  L  0,184.016  L  0,0  z " />
    </g>
    <!-- End of group #chestPocketWelt -->
    
    <!-- Start of group #sampler-front -->
    <g id="sampler-front" >
    </g>
    <!-- End of group #sampler-front -->
    
    <!-- Start of group #sampler-back -->
    <g id="sampler-back" >
    </g>
    <!-- End of group #sampler-back -->
    
    <!-- Start of group #sampler-tail -->
    <g id="sampler-tail" >
    </g>
    <!-- End of group #sampler-tail -->
    
    <!-- Start of group #sampler-topsleeve -->
    <g id="sampler-topsleeve" >
    </g>
    <!-- End of group #sampler-topsleeve -->
    
    <!-- Start of group #sampler-undersleeve -->
    <g id="sampler-undersleeve" >
    </g>
    <!-- End of group #sampler-undersleeve -->
    
    <!-- Start of group #sampler-belt -->
    <g id="sampler-belt" >
    </g>
    <!-- End of group #sampler-belt -->
    
    <!-- Start of group #sampler-collarStand -->
    <g id="sampler-collarStand" >
    </g>
    <!-- End of group #sampler-collarStand -->
    
    <!-- Start of group #sampler-collar -->
    <g id="sampler-collar" >
    </g>
    <!-- End of group #sampler-collar -->
    
    <!-- Start of group #sampler-cuffFacing -->
    <g id="sampler-cuffFacing" >
    </g>
    <!-- End of group #sampler-cuffFacing -->
    
    <!-- Start of group #sampler-pocket -->
    <g id="sampler-pocket" >
    </g>
    <!-- End of group #sampler-pocket -->
    
    <!-- Start of group #sampler-pocketFlap -->
    <g id="sampler-pocketFlap" >
    </g>
    <!-- End of group #sampler-pocketFlap -->
    
    <!-- Start of group #sampler-chestPocketWelt -->
    <g id="sampler-chestPocketWelt" >
    </g>
    <!-- End of group #sampler-chestPocketWelt -->
</g>
<!-- End of group #patternContainer -->

</svg>

