<?xml version="1.0" encoding="UTF-8" standalone="no"?>
<svg
    xmlns="http://www.w3.org/2000/svg"
    xmlns:svg="http://www.w3.org/2000/svg"
    xmlns:xlink="http://www.w3.org/1999/xlink"
    xmlns:freesewing="http://freesewing.org/namespaces/freesewing" viewBox ="0 0 1924 1494"
    width ="1924mm"
    height ="1494mm"
    freesewing:version ="1.5.0"
    freesewing:origin ="joost.core.freesewing.org" 
>

<style type="text/css">
    <![CDATA[
    path { fill: none; stroke: #000000; stroke-opacity:1; stroke-width: 0.5; stroke-miterlimit:4; stroke-dashoffset:0; stroke-linecap:round; stroke-linejoin:round; }
    path.hidden { fill: none; stroke: none; }]]>
</style>


<!-- Start of group #patternContainer -->
<g id="patternContainer" >
    
    <!-- Start of group #backBlock -->
    <g id="backBlock" >
    </g>
    <!-- End of group #backBlock -->
    
    <!-- Start of group #frontBlock -->
    <g id="frontBlock" >
    </g>
    <!-- End of group #frontBlock -->
    
    <!-- Start of group #sleeveBlock -->
    <g id="sleeveBlock" >
    </g>
    <!-- End of group #sleeveBlock -->
    
    <!-- Start of group #topsleeveBlock -->
    <g id="topsleeveBlock" >
    </g>
    <!-- End of group #topsleeveBlock -->
    
    <!-- Start of group #undersleeveBlock -->
    <g id="undersleeveBlock" >
    </g>
    <!-- End of group #undersleeveBlock -->
    
    <!-- Start of group #front -->
    <g id="front"  transform=" translate(87.505 5)  translate(0 0) " >
        <path class="hidden" id="2"  d=" M  -82.505,0  L  342.5,0  L  342.5,1483.9  L  -82.505,1483.9  z " />
<path transform="translate( 0, 0 )" style="stroke: hsl(26.9, 55%, 50%);" id="210"  d=" M  0,93  L  -77.505,93  C  -77.505,93  -82.505,142.12  -82.505,338.6  L  -82.505,1483.9  L  342.5,1483.9  L  342.5,1010  C  342.5,870  308.125,700.7  308.125,580  C  308.125,459.3  325,353.688  325,338.6  C  303.125,338.6  285.707,330.329  265.739,310.361  C  245.771,290.393  232.5,229.9  232.5,179.3  C  232.5,128.7  240.826,37.359  242.5,27.5  L  80.579,0  C  77.23,19.718  80.579,93  0,93  z " />
<path transform="translate( 0, 0 )" style="stroke: hsl(53.8, 55%, 50%);" id="431"  d=" M  0,93  L  -77.505,93  C  -77.505,93  -82.505,142.12  -82.505,338.6  L  -82.505,1483.9  L  342.5,1483.9  L  342.5,1010  C  342.5,870  308.125,700.7  308.125,580  C  308.125,459.3  325,353.688  325,338.6  C  303.125,338.6  285.707,330.329  265.739,310.361  C  245.771,290.393  232.5,229.9  232.5,179.3  C  232.5,128.7  240.826,37.359  242.5,27.5  L  80.579,0  C  77.23,19.718  80.579,93  0,93  z " />
<path transform="translate( 0, 0 )" style="stroke: hsl(80.7, 55%, 50%);" id="652"  d=" M  0,93  L  -77.505,93  C  -77.505,93  -82.505,142.12  -82.505,338.6  L  -82.505,1483.9  L  342.5,1483.9  L  342.5,1010  C  342.5,870  308.125,700.7  308.125,580  C  308.125,459.3  325,353.688  325,338.6  C  303.125,338.6  285.707,330.329  265.739,310.361  C  245.771,290.393  232.5,229.9  232.5,179.3  C  232.5,128.7  240.826,37.359  242.5,27.5  L  80.579,0  C  77.23,19.718  80.579,93  0,93  z " />
<path transform="translate( 0, 0 )" style="stroke: hsl(107.6, 55%, 50%);" id="873"  d=" M  0,93  L  -77.505,93  C  -77.505,93  -82.505,142.12  -82.505,338.6  L  -82.505,1483.9  L  342.5,1483.9  L  342.5,1010  C  342.5,870  308.125,700.7  308.125,580  C  308.125,459.3  325,353.688  325,338.6  C  303.125,338.6  285.707,330.329  265.739,310.361  C  245.771,290.393  232.5,229.9  232.5,179.3  C  232.5,128.7  240.826,37.359  242.5,27.5  L  80.579,0  C  77.23,19.718  80.579,93  0,93  z " />
<path transform="translate( 0, 0 )" style="stroke: hsl(134.5, 55%, 50%);" id="1094"  d=" M  0,93  L  -77.505,93  C  -77.505,93  -82.505,142.12  -82.505,338.6  L  -82.505,1483.9  L  342.5,1483.9  L  342.5,1010  C  342.5,870  308.125,700.7  308.125,580  C  308.125,459.3  325,353.688  325,338.6  C  303.125,338.6  285.707,330.329  265.739,310.361  C  245.771,290.393  232.5,229.9  232.5,179.3  C  232.5,128.7  240.826,37.359  242.5,27.5  L  80.579,0  C  77.23,19.718  80.579,93  0,93  z " />
<path transform="translate( 0, 0 )" style="stroke: hsl(161.4, 55%, 50%);" id="1315"  d=" M  0,93  L  -77.505,93  C  -77.505,93  -82.505,142.12  -82.505,338.6  L  -82.505,1483.9  L  342.5,1483.9  L  342.5,1010  C  342.5,870  308.125,700.7  308.125,580  C  308.125,459.3  325,353.688  325,338.6  C  303.125,338.6  285.707,330.329  265.739,310.361  C  245.771,290.393  232.5,229.9  232.5,179.3  C  232.5,128.7  240.826,37.359  242.5,27.5  L  80.579,0  C  77.23,19.718  80.579,93  0,93  z " />
<path transform="translate( 0, 0 )" style="stroke: hsl(188.3, 55%, 50%);" id="1536"  d=" M  0,93  L  -77.505,93  C  -77.505,93  -82.505,142.12  -82.505,338.6  L  -82.505,1483.9  L  342.5,1483.9  L  342.5,1010  C  342.5,870  308.125,700.7  308.125,580  C  308.125,459.3  325,353.688  325,338.6  C  303.125,338.6  285.707,330.329  265.739,310.361  C  245.771,290.393  232.5,229.9  232.5,179.3  C  232.5,128.7  240.826,37.359  242.5,27.5  L  80.579,0  C  77.23,19.718  80.579,93  0,93  z " />
<path transform="translate( 0, 0 )" style="stroke: hsl(215.2, 55%, 50%);" id="1757"  d=" M  0,93  L  -77.505,93  C  -77.505,93  -82.505,142.12  -82.505,338.6  L  -82.505,1483.9  L  342.5,1483.9  L  342.5,1010  C  342.5,870  308.125,700.7  308.125,580  C  308.125,459.3  325,353.688  325,338.6  C  303.125,338.6  285.707,330.329  265.739,310.361  C  245.771,290.393  232.5,229.9  232.5,179.3  C  232.5,128.7  240.826,37.359  242.5,27.5  L  80.579,0  C  77.23,19.718  80.579,93  0,93  z " />
<path transform="translate( 0, 0 )" style="stroke: hsl(242.1, 55%, 50%);" id="1978"  d=" M  0,93  L  -77.505,93  C  -77.505,93  -82.505,142.12  -82.505,338.6  L  -82.505,1483.9  L  342.5,1483.9  L  342.5,1010  C  342.5,870  308.125,700.7  308.125,580  C  308.125,459.3  325,353.688  325,338.6  C  303.125,338.6  285.707,330.329  265.739,310.361  C  245.771,290.393  232.5,229.9  232.5,179.3  C  232.5,128.7  240.826,37.359  242.5,27.5  L  80.579,0  C  77.23,19.718  80.579,93  0,93  z " />
<path transform="translate( 0, 0 )" style="stroke: hsl(269, 55%, 50%);" id="2199"  d=" M  0,93  L  -77.505,93  C  -77.505,93  -82.505,142.12  -82.505,338.6  L  -82.505,1483.9  L  342.5,1483.9  L  342.5,1010  C  342.5,870  308.125,700.7  308.125,580  C  308.125,459.3  325,353.688  325,338.6  C  303.125,338.6  285.707,330.329  265.739,310.361  C  245.771,290.393  232.5,229.9  232.5,179.3  C  232.5,128.7  240.826,37.359  242.5,27.5  L  80.579,0  C  77.23,19.718  80.579,93  0,93  z " />
<path transform="translate( 0, 0 )" style="stroke: hsl(295.9, 55%, 50%);" id="2420"  d=" M  0,93  L  -77.505,93  C  -77.505,93  -82.505,142.12  -82.505,338.6  L  -82.505,1483.9  L  342.5,1483.9  L  342.5,1010  C  342.5,870  308.125,700.7  308.125,580  C  308.125,459.3  325,353.688  325,338.6  C  303.125,338.6  285.707,330.329  265.739,310.361  C  245.771,290.393  232.5,229.9  232.5,179.3  C  232.5,128.7  240.826,37.359  242.5,27.5  L  80.579,0  C  77.23,19.718  80.579,93  0,93  z " />
    </g>
    <!-- End of group #front -->
    
    <!-- Start of group #back -->
    <g id="back"  transform=" translate(55.88 5)  translate(1042.228 0) " >
        <path class="hidden" id="3"  d=" M  -50.88,0  L  325,0  L  325,545  L  -50.88,545  z " />
<path transform="translate( 0, 0 )" style="stroke: hsl(26.9, 55%, 50%);" id="211"  d=" M  0,20  L  0,179.3  L  -50.88,179.3  L  -50.88,545  L  106.375,545  C  106.375,441.8  123.25,338.6  123.25,338.6  C  123.25,338.6  140.125,441.8  140.125,545  L  308.125,545  C  308.125,459.3  325,353.688  325,338.6  C  303.125,338.6  285.707,330.329  265.739,310.361  C  245.771,290.393  237.5,229.9  237.5,179.3  C  237.5,128.7  240.826,37.359  242.5,27.5  L  80.579,0  C  77.23,19.718  0,20  0,20  z " />
<path transform="translate( 0, 0 )" style="stroke: hsl(53.8, 55%, 50%);" id="432"  d=" M  0,20  L  0,179.3  L  -50.88,179.3  L  -50.88,545  L  106.375,545  C  106.375,441.8  123.25,338.6  123.25,338.6  C  123.25,338.6  140.125,441.8  140.125,545  L  308.125,545  C  308.125,459.3  325,353.688  325,338.6  C  303.125,338.6  285.707,330.329  265.739,310.361  C  245.771,290.393  237.5,229.9  237.5,179.3  C  237.5,128.7  240.826,37.359  242.5,27.5  L  80.579,0  C  77.23,19.718  0,20  0,20  z " />
<path transform="translate( 0, 0 )" style="stroke: hsl(80.7, 55%, 50%);" id="653"  d=" M  0,20  L  0,179.3  L  -50.88,179.3  L  -50.88,545  L  106.375,545  C  106.375,441.8  123.25,338.6  123.25,338.6  C  123.25,338.6  140.125,441.8  140.125,545  L  308.125,545  C  308.125,459.3  325,353.688  325,338.6  C  303.125,338.6  285.707,330.329  265.739,310.361  C  245.771,290.393  237.5,229.9  237.5,179.3  C  237.5,128.7  240.826,37.359  242.5,27.5  L  80.579,0  C  77.23,19.718  0,20  0,20  z " />
<path transform="translate( 0, 0 )" style="stroke: hsl(107.6, 55%, 50%);" id="874"  d=" M  0,20  L  0,179.3  L  -50.88,179.3  L  -50.88,545  L  106.375,545  C  106.375,441.8  123.25,338.6  123.25,338.6  C  123.25,338.6  140.125,441.8  140.125,545  L  308.125,545  C  308.125,459.3  325,353.688  325,338.6  C  303.125,338.6  285.707,330.329  265.739,310.361  C  245.771,290.393  237.5,229.9  237.5,179.3  C  237.5,128.7  240.826,37.359  242.5,27.5  L  80.579,0  C  77.23,19.718  0,20  0,20  z " />
<path transform="translate( 0, 0 )" style="stroke: hsl(134.5, 55%, 50%);" id="1095"  d=" M  0,20  L  0,179.3  L  -50.88,179.3  L  -50.88,545  L  106.375,545  C  106.375,441.8  123.25,338.6  123.25,338.6  C  123.25,338.6  140.125,441.8  140.125,545  L  308.125,545  C  308.125,459.3  325,353.688  325,338.6  C  303.125,338.6  285.707,330.329  265.739,310.361  C  245.771,290.393  237.5,229.9  237.5,179.3  C  237.5,128.7  240.826,37.359  242.5,27.5  L  80.579,0  C  77.23,19.718  0,20  0,20  z " />
<path transform="translate( 0, 0 )" style="stroke: hsl(161.4, 55%, 50%);" id="1316"  d=" M  0,20  L  0,179.3  L  -50.88,179.3  L  -50.88,545  L  106.375,545  C  106.375,441.8  123.25,338.6  123.25,338.6  C  123.25,338.6  140.125,441.8  140.125,545  L  308.125,545  C  308.125,459.3  325,353.688  325,338.6  C  303.125,338.6  285.707,330.329  265.739,310.361  C  245.771,290.393  237.5,229.9  237.5,179.3  C  237.5,128.7  240.826,37.359  242.5,27.5  L  80.579,0  C  77.23,19.718  0,20  0,20  z " />
<path transform="translate( 0, 0 )" style="stroke: hsl(188.3, 55%, 50%);" id="1537"  d=" M  0,20  L  0,179.3  L  -50.88,179.3  L  -50.88,545  L  106.375,545  C  106.375,441.8  123.25,338.6  123.25,338.6  C  123.25,338.6  140.125,441.8  140.125,545  L  308.125,545  C  308.125,459.3  325,353.688  325,338.6  C  303.125,338.6  285.707,330.329  265.739,310.361  C  245.771,290.393  237.5,229.9  237.5,179.3  C  237.5,128.7  240.826,37.359  242.5,27.5  L  80.579,0  C  77.23,19.718  0,20  0,20  z " />
<path transform="translate( 0, 0 )" style="stroke: hsl(215.2, 55%, 50%);" id="1758"  d=" M  0,20  L  0,179.3  L  -50.88,179.3  L  -50.88,545  L  106.375,545  C  106.375,441.8  123.25,338.6  123.25,338.6  C  123.25,338.6  140.125,441.8  140.125,545  L  308.125,545  C  308.125,459.3  325,353.688  325,338.6  C  303.125,338.6  285.707,330.329  265.739,310.361  C  245.771,290.393  237.5,229.9  237.5,179.3  C  237.5,128.7  240.826,37.359  242.5,27.5  L  80.579,0  C  77.23,19.718  0,20  0,20  z " />
<path transform="translate( 0, 0 )" style="stroke: hsl(242.1, 55%, 50%);" id="1979"  d=" M  0,20  L  0,179.3  L  -50.88,179.3  L  -50.88,545  L  106.375,545  C  106.375,441.8  123.25,338.6  123.25,338.6  C  123.25,338.6  140.125,441.8  140.125,545  L  308.125,545  C  308.125,459.3  325,353.688  325,338.6  C  303.125,338.6  285.707,330.329  265.739,310.361  C  245.771,290.393  237.5,229.9  237.5,179.3  C  237.5,128.7  240.826,37.359  242.5,27.5  L  80.579,0  C  77.23,19.718  0,20  0,20  z " />
<path transform="translate( 0, 0 )" style="stroke: hsl(269, 55%, 50%);" id="2200"  d=" M  0,20  L  0,179.3  L  -50.88,179.3  L  -50.88,545  L  106.375,545  C  106.375,441.8  123.25,338.6  123.25,338.6  C  123.25,338.6  140.125,441.8  140.125,545  L  308.125,545  C  308.125,459.3  325,353.688  325,338.6  C  303.125,338.6  285.707,330.329  265.739,310.361  C  245.771,290.393  237.5,229.9  237.5,179.3  C  237.5,128.7  240.826,37.359  242.5,27.5  L  80.579,0  C  77.23,19.718  0,20  0,20  z " />
<path transform="translate( 0, 0 )" style="stroke: hsl(295.9, 55%, 50%);" id="2421"  d=" M  0,20  L  0,179.3  L  -50.88,179.3  L  -50.88,545  L  106.375,545  C  106.375,441.8  123.25,338.6  123.25,338.6  C  123.25,338.6  140.125,441.8  140.125,545  L  308.125,545  C  308.125,459.3  325,353.688  325,338.6  C  303.125,338.6  285.707,330.329  265.739,310.361  C  245.771,290.393  237.5,229.9  237.5,179.3  C  237.5,128.7  240.826,37.359  242.5,27.5  L  80.579,0  C  77.23,19.718  0,20  0,20  z " />
    </g>
    <!-- End of group #back -->
    
    <!-- Start of group #tail -->
    <g id="tail"  transform=" translate(216.296 5)  translate(1428.108 0) " >
        <path class="hidden" id="4"  d=" M  -211.296,0  L  274.375,0  L  274.375,130  L  -211.296,130  z " />
<path transform="translate( 0, 0 )" style="stroke: hsl(26.9, 55%, 50%);" id="212"  d=" M  -211.296,50  -211.296,0  L  0,0  L  274.375,0  L  274.375,50 " />
<path transform="translate( 0, 0 )" style="stroke: hsl(26.9, 55%, 50%);" id="213"  d=" M  -211.296,80  -211.296,130  L  -0,130  L  274.375,130  L  274.375,80 " />
<path transform="translate( 0, 0 )" style="stroke: hsl(53.8, 55%, 50%);" id="433"  d=" M  -211.296,50  -211.296,0  L  0,0  L  274.375,0  L  274.375,50 " />
<path transform="translate( 0, 0 )" style="stroke: hsl(53.8, 55%, 50%);" id="434"  d=" M  -211.296,80  -211.296,130  L  -0,130  L  274.375,130  L  274.375,80 " />
<path transform="translate( 0, 0 )" style="stroke: hsl(80.7, 55%, 50%);" id="654"  d=" M  -211.296,50  -211.296,0  L  0,0  L  274.375,0  L  274.375,50 " />
<path transform="translate( 0, 0 )" style="stroke: hsl(80.7, 55%, 50%);" id="655"  d=" M  -211.296,80  -211.296,130  L  -0,130  L  274.375,130  L  274.375,80 " />
<path transform="translate( 0, 0 )" style="stroke: hsl(107.6, 55%, 50%);" id="875"  d=" M  -211.296,50  -211.296,0  L  0,0  L  274.375,0  L  274.375,50 " />
<path transform="translate( 0, 0 )" style="stroke: hsl(107.6, 55%, 50%);" id="876"  d=" M  -211.296,80  -211.296,130  L  -0,130  L  274.375,130  L  274.375,80 " />
<path transform="translate( 0, 0 )" style="stroke: hsl(134.5, 55%, 50%);" id="1096"  d=" M  -211.296,50  -211.296,0  L  0,0  L  274.375,0  L  274.375,50 " />
<path transform="translate( 0, 0 )" style="stroke: hsl(134.5, 55%, 50%);" id="1097"  d=" M  -211.296,80  -211.296,130  L  -0,130  L  274.375,130  L  274.375,80 " />
<path transform="translate( 0, 0 )" style="stroke: hsl(161.4, 55%, 50%);" id="1317"  d=" M  -211.296,50  -211.296,0  L  0,0  L  274.375,0  L  274.375,50 " />
<path transform="translate( 0, 0 )" style="stroke: hsl(161.4, 55%, 50%);" id="1318"  d=" M  -211.296,80  -211.296,130  L  -0,130  L  274.375,130  L  274.375,80 " />
<path transform="translate( 0, 0 )" style="stroke: hsl(188.3, 55%, 50%);" id="1538"  d=" M  -211.296,50  -211.296,0  L  0,0  L  274.375,0  L  274.375,50 " />
<path transform="translate( 0, 0 )" style="stroke: hsl(188.3, 55%, 50%);" id="1539"  d=" M  -211.296,80  -211.296,130  L  -0,130  L  274.375,130  L  274.375,80 " />
<path transform="translate( 0, 0 )" style="stroke: hsl(215.2, 55%, 50%);" id="1759"  d=" M  -211.296,50  -211.296,0  L  0,0  L  274.375,0  L  274.375,50 " />
<path transform="translate( 0, 0 )" style="stroke: hsl(215.2, 55%, 50%);" id="1760"  d=" M  -211.296,80  -211.296,130  L  -0,130  L  274.375,130  L  274.375,80 " />
<path transform="translate( 0, 0 )" style="stroke: hsl(242.1, 55%, 50%);" id="1980"  d=" M  -211.296,50  -211.296,0  L  0,0  L  274.375,0  L  274.375,50 " />
<path transform="translate( 0, 0 )" style="stroke: hsl(242.1, 55%, 50%);" id="1981"  d=" M  -211.296,80  -211.296,130  L  -0,130  L  274.375,130  L  274.375,80 " />
<path transform="translate( 0, 0 )" style="stroke: hsl(269, 55%, 50%);" id="2201"  d=" M  -211.296,50  -211.296,0  L  0,0  L  274.375,0  L  274.375,50 " />
<path transform="translate( 0, 0 )" style="stroke: hsl(269, 55%, 50%);" id="2202"  d=" M  -211.296,80  -211.296,130  L  -0,130  L  274.375,130  L  274.375,80 " />
<path transform="translate( 0, 0 )" style="stroke: hsl(295.9, 55%, 50%);" id="2422"  d=" M  -211.296,50  -211.296,0  L  0,0  L  274.375,0  L  274.375,50 " />
<path transform="translate( 0, 0 )" style="stroke: hsl(295.9, 55%, 50%);" id="2423"  d=" M  -211.296,80  -211.296,130  L  -0,130  L  274.375,130  L  274.375,80 " />
    </g>
    <!-- End of group #tail -->
    
    <!-- Start of group #topsleeve -->
    <g id="topsleeve"  transform=" translate(169.725 125)  translate(435.005 0) " >
        <path class="hidden" id="5"  d=" M  -164.725,-120  L  167.582,-120  L  167.582,747.346  L  -164.725,747.346  z " />
<path transform="translate( 0, 0 )" style="stroke: hsl(26.9, 55%, 50%);" id="214"  d=" M  131.78,380  C  138.921,339.5  146.422,273.334  146.422,205  C  146.422,136.666  131.78,68.333  131.78,68.333  C  131.78,68.333  82.363,0  0,0  C  -82.363,0  -120.798,68.333  -131.78,123  C  -142.762,177.667  -148.253,205  -164.725,205  C  -164.725,205  -155.27,326.232  -146.422,380  L  -102.18,648.837  L  -102.788,746.335  L  59.189,747.346  C  72.651,747.43  83.632,736.585  83.716,723.123  L  84.172,650  z " />
<path transform="translate( 2.116, -12 )" style="stroke: hsl(53.8, 55%, 50%);" id="435"  d=" M  131.78,380  C  139.239,337.7  146.422,273.334  146.422,205  C  146.422,136.666  131.78,68.333  131.78,68.333  C  131.78,68.333  82.363,0  0,0  C  -82.363,0  -120.798,68.333  -131.78,123  C  -142.762,177.667  -148.253,205  -164.725,205  C  -164.725,205  -154.85,324.103  -146.422,380  L  -104.283,659.488  L  -105.597,756.979  L  56.369,759.162  C  69.83,759.344  80.889,748.579  81.071,735.118  L  82.056,662  z " />
<path transform="translate( 4.233, -24 )" style="stroke: hsl(80.7, 55%, 50%);" id="656"  d=" M  131.78,380  C  139.556,335.9  146.422,273.334  146.422,205  C  146.422,136.666  131.78,68.333  131.78,68.333  C  131.78,68.333  82.363,0  0,0  C  -82.363,0  -120.798,68.333  -131.78,123  C  -142.762,177.667  -148.253,205  -164.725,205  C  -164.725,205  -154.431,321.95  -146.422,380  L  -106.379,670.25  L  -108.341,767.73  L  53.607,770.989  C  67.066,771.26  78.197,760.569  78.468,747.11  L  79.939,674  z " />
<path transform="translate( 6.348, -36 )" style="stroke: hsl(107.6, 55%, 50%);" id="877"  d=" M  131.78,380  C  139.873,334.1  146.422,273.334  146.422,205  C  146.422,136.666  131.78,68.333  131.78,68.333  C  131.78,68.333  82.363,0  0,0  C  -82.363,0  -120.798,68.333  -131.78,123  C  -142.762,177.667  -148.253,205  -164.725,205  C  -164.725,205  -154.013,319.778  -146.422,380  L  -108.468,681.11  L  -111.026,778.576  L  50.899,782.826  C  64.356,783.179  75.553,772.556  75.906,759.099  L  77.824,686  z " />
<path transform="translate( 8.464, -48 )" style="stroke: hsl(134.5, 55%, 50%);" id="1098"  d=" M  131.78,380  C  140.191,332.3  146.422,273.334  146.422,205  C  146.422,136.666  131.78,68.333  131.78,68.333  C  131.78,68.333  82.363,0  0,0  C  -82.363,0  -120.798,68.333  -131.78,123  C  -142.762,177.667  -148.253,205  -164.725,205  C  -164.725,205  -153.596,317.589  -146.422,380  L  -110.553,692.055  L  -113.663,789.505  L  48.235,794.672  C  61.69,795.102  72.946,784.542  73.376,771.087  L  75.708,698  z " />
<path transform="translate( 10.58, -60 )" style="stroke: hsl(161.4, 55%, 50%);" id="1319"  d=" M  131.78,380  C  140.508,330.5  146.422,273.334  146.422,205  C  146.422,136.666  131.78,68.333  131.78,68.333  C  131.78,68.333  82.363,0  0,0  C  -82.363,0  -120.798,68.333  -131.78,123  C  -142.762,177.667  -148.253,205  -164.725,205  C  -164.725,205  -153.179,315.384  -146.422,380  L  -112.635,703.079  L  -116.256,800.512  L  45.613,806.528  C  59.066,807.028  70.376,796.528  70.876,783.075  L  73.592,710  z " />
<path transform="translate( 12.696, -72 )" style="stroke: hsl(188.3, 55%, 50%);" id="1540"  d=" M  131.78,380  C  140.826,328.7  146.422,273.334  146.422,205  C  146.422,136.666  131.78,68.333  131.78,68.333  C  131.78,68.333  82.363,0  0,0  C  -82.363,0  -120.798,68.333  -131.78,123  C  -142.762,177.667  -148.253,205  -164.725,205  C  -164.725,205  -152.763,313.166  -146.422,380  L  -114.715,714.171  L  -118.811,811.585  L  43.027,818.39  C  56.477,818.956  67.838,808.511  68.404,795.061  L  71.476,722  z " />
<path transform="translate( 14.811, -84 )" style="stroke: hsl(215.2, 55%, 50%);" id="1761"  d=" M  131.78,380  C  141.143,326.9  146.422,273.334  146.422,205  C  146.422,136.666  131.78,68.333  131.78,68.333  C  131.78,68.333  82.363,0  0,0  C  -82.363,0  -120.798,68.333  -131.78,123  C  -142.762,177.667  -148.253,205  -164.725,205  C  -164.725,205  -152.348,310.935  -146.422,380  L  -116.793,725.325  L  -121.332,822.719  L  40.473,830.259  C  53.92,830.886  65.33,820.492  65.957,807.045  L  69.361,734  z " />
<path transform="translate( 16.927, -96 )" style="stroke: hsl(242.1, 55%, 50%);" id="1982"  d=" M  131.78,380  C  141.46,325.1  146.422,273.334  146.422,205  C  146.422,136.666  131.78,68.333  131.78,68.333  C  131.78,68.333  82.363,0  0,0  C  -82.363,0  -120.798,68.333  -131.78,123  C  -142.762,177.667  -148.253,205  -164.725,205  C  -164.725,205  -151.932,308.692  -146.422,380  L  -118.871,736.536  L  -123.822,833.91  L  37.95,842.136  C  51.395,842.82  62.848,832.475  63.532,819.03  L  67.245,746  z " />
<path transform="translate( 19.044, -108 )" style="stroke: hsl(269, 55%, 50%);" id="2203"  d=" M  131.78,380  C  141.778,323.3  146.422,273.334  146.422,205  C  146.422,136.666  131.78,68.333  131.78,68.333  C  131.78,68.333  82.363,0  0,0  C  -82.363,0  -120.798,68.333  -131.78,123  C  -142.762,177.667  -148.253,205  -164.725,205  C  -164.725,205  -151.517,306.44  -146.422,380  L  -120.948,747.796  L  -126.287,845.15  L  35.451,854.019  C  48.893,854.756  60.387,844.458  61.124,831.016  L  65.128,758  z " />
<path transform="translate( 21.16, -120 )" style="stroke: hsl(295.9, 55%, 50%);" id="2424"  d=" M  131.78,380  C  142.095,321.5  146.422,273.334  146.422,205  C  146.422,136.666  131.78,68.333  131.78,68.333  C  131.78,68.333  82.363,0  0,0  C  -82.363,0  -120.798,68.333  -131.78,123  C  -142.762,177.667  -148.253,205  -164.725,205  C  -164.725,205  -151.101,304.18  -146.422,380  L  -123.025,759.103  L  -128.726,856.436  L  32.978,865.908  C  46.417,866.695  57.949,856.439  58.736,843  L  63.012,770  z " />
    </g>
    <!-- End of group #topsleeve -->
    
    <!-- Start of group #undersleeve -->
    <g id="undersleeve"  transform=" translate(103.835 56.667)  translate(777.312 0) " >
        <path class="hidden" id="6"  d=" M  -98.835,-51.667  L  156.081,-51.667  L  156.081,746.538  L  -98.835,746.538  z " />
<path transform="translate( 0, 0 )" style="stroke: hsl(26.9, 55%, 50%);" id="215"  d=" M  131.78,380  C  138.921,339.5  124.321,272.955  117.138,205  C  109.955,137.045  98.835,68.333  98.835,68.333  C  77.768,134.674  -16.473,205  -65.89,205  L  -98.835,205  C  -98.835,205  -82.371,327  -76.872,380  L  -49.379,645.002  L  -53.025,742.434  L  56.168,746.521  C  69.621,747.024  80.934,736.527  81.437,723.074  L  84.172,650  z " />
<path transform="translate( 2.116, -12 )" style="stroke: hsl(53.8, 55%, 50%);" id="436"  d=" M  131.78,380  C  139.239,337.7  124.321,272.955  117.138,205  C  109.955,137.045  98.835,68.333  98.835,68.333  C  77.768,134.674  -16.473,205  -65.89,205  L  -98.835,205  C  -98.835,205  -81.954,324.757  -76.872,380  L  -51.463,656.214  L  -55.684,753.623  L  53.483,758.354  C  66.932,758.937  78.307,748.506  78.89,735.057  L  82.056,662  z " />
<path transform="translate( 4.233, -24 )" style="stroke: hsl(80.7, 55%, 50%);" id="657"  d=" M  131.78,380  C  139.556,335.9  124.321,272.955  117.138,205  C  109.955,137.045  98.835,68.333  98.835,68.333  C  77.768,134.674  -16.473,205  -65.89,205  L  -98.835,205  C  -98.835,205  -81.537,322.502  -76.872,380  L  -53.546,667.491  L  -58.295,764.875  L  50.844,770.197  C  64.29,770.853  75.721,760.484  76.377,747.038  L  79.939,674  z " />
<path transform="translate( 6.348, -36 )" style="stroke: hsl(107.6, 55%, 50%);" id="878"  d=" M  131.78,380  C  139.873,334.1  124.321,272.955  117.138,205  C  109.955,137.045  98.835,68.333  98.835,68.333  C  77.768,134.674  -16.473,205  -65.89,205  L  -98.835,205  C  -98.835,205  -81.121,320.235  -76.872,380  L  -55.627,678.825  L  -60.862,776.184  L  48.249,782.05  C  61.692,782.773  73.175,772.462  73.898,759.019  L  77.824,686  z " />
<path transform="translate( 8.464, -48 )" style="stroke: hsl(134.5, 55%, 50%);" id="1099"  d=" M  131.78,380  C  140.191,332.3  124.321,272.955  117.138,205  C  109.955,137.045  98.835,68.333  98.835,68.333  C  77.768,134.674  -16.473,205  -65.89,205  L  -98.835,205  C  -98.835,205  -80.705,317.958  -76.872,380  L  -57.709,690.21  L  -63.392,787.544  L  45.691,793.913  C  59.13,794.698  70.661,784.439  71.446,771  L  75.708,698  z " />
<path transform="translate( 10.58, -60 )" style="stroke: hsl(161.4, 55%, 50%);" id="1320"  d=" M  131.78,380  C  140.508,330.5  124.321,272.955  117.138,205  C  109.955,137.045  98.835,68.333  98.835,68.333  C  77.768,134.674  -16.473,205  -65.89,205  L  -98.835,205  C  -98.835,205  -80.288,315.672  -76.872,380  L  -59.79,701.64  L  -65.889,798.949  L  43.166,805.784  C  56.602,806.626  68.176,796.418  69.018,782.982  L  73.592,710  z " />
<path transform="translate( 12.696, -72 )" style="stroke: hsl(188.3, 55%, 50%);" id="1541"  d=" M  131.78,380  C  140.826,328.7  124.321,272.955  117.138,205  C  109.955,137.045  98.835,68.333  98.835,68.333  C  77.768,134.674  -16.473,205  -65.89,205  L  -98.835,205  C  -98.835,205  -79.872,313.378  -76.872,380  L  -61.872,713.11  L  -68.358,810.394  L  40.669,817.662  C  54.101,818.558  65.716,808.395  66.612,794.963  L  71.476,722  z " />
<path transform="translate( 14.811, -84 )" style="stroke: hsl(215.2, 55%, 50%);" id="1762"  d=" M  131.78,380  C  141.143,326.9  124.321,272.955  117.138,205  C  109.955,137.045  98.835,68.333  98.835,68.333  C  77.768,134.674  -16.473,205  -65.89,205  L  -98.835,205  C  -98.835,205  -79.456,311.076  -76.872,380  L  -63.953,724.617  L  -70.798,821.876  L  38.201,829.548  C  51.63,830.493  63.282,820.373  64.227,806.944  L  69.361,734  z " />
<path transform="translate( 16.927, -96 )" style="stroke: hsl(242.1, 55%, 50%);" id="1983"  d=" M  131.78,380  C  141.46,325.1  124.321,272.955  117.138,205  C  109.955,137.045  98.835,68.333  98.835,68.333  C  77.768,134.674  -16.473,205  -65.89,205  L  -98.835,205  C  -98.835,205  -79.039,308.769  -76.872,380  L  -66.036,736.157  L  -73.217,833.392  L  35.755,841.44  C  49.18,842.431  60.868,832.351  61.859,818.926  L  67.245,746  z " />
<path transform="translate( 19.044, -108 )" style="stroke: hsl(269, 55%, 50%);" id="2204"  d=" M  131.78,380  C  141.778,323.3  124.321,272.955  117.138,205  C  109.955,137.045  98.835,68.333  98.835,68.333  C  77.768,134.674  -16.473,205  -65.89,205  L  -98.835,205  C  -98.835,205  -78.622,306.455  -76.872,380  L  -68.12,747.725  L  -75.616,844.936  L  33.329,853.337  C  46.751,854.372  58.471,844.33  59.506,830.908  L  65.128,758  z " />
<path transform="translate( 21.16, -120 )" style="stroke: hsl(295.9, 55%, 50%);" id="2425"  d=" M  131.78,380  C  142.095,321.5  124.321,272.955  117.138,205  C  109.955,137.045  98.835,68.333  98.835,68.333  C  77.768,134.674  -16.473,205  -65.89,205  L  -98.835,205  C  -98.835,205  -78.205,304.135  -76.872,380  L  -70.205,759.321  L  -77.996,856.509  L  30.924,865.24  C  44.343,866.316  56.093,856.31  57.169,842.891  L  63.012,770  z " />
    </g>
    <!-- End of group #undersleeve -->
    
    <!-- Start of group #belt -->
    <g id="belt"  transform=" translate(5 5)  translate(1428.108 140) " >
        <path class="hidden" id="7"  d=" M  0,0  L  400.023,0  L  400.023,70  L  0,70  z " />
<path transform="translate( 0, 0 )" style="stroke: hsl(26.9, 55%, 50%);" id="216"  d=" M  400.023,0  L  10,0  C  4.477,0  0,4.477  0,10  L  0,60  C  0,65.523  4.477,70  10,70  L  400.023,70  L  400.023,0  z " />
<path transform="translate( 0, 0 )" style="stroke: hsl(53.8, 55%, 50%);" id="437"  d=" M  400.023,0  L  10,0  C  4.477,0  0,4.477  0,10  L  0,60  C  0,65.523  4.477,70  10,70  L  400.023,70  L  400.023,0  z " />
<path transform="translate( 0, 0 )" style="stroke: hsl(80.7, 55%, 50%);" id="658"  d=" M  400.023,0  L  10,0  C  4.477,0  0,4.477  0,10  L  0,60  C  0,65.523  4.477,70  10,70  L  400.023,70  L  400.023,0  z " />
<path transform="translate( 0, 0 )" style="stroke: hsl(107.6, 55%, 50%);" id="879"  d=" M  400.023,0  L  10,0  C  4.477,0  0,4.477  0,10  L  0,60  C  0,65.523  4.477,70  10,70  L  400.023,70  L  400.023,0  z " />
<path transform="translate( 0, 0 )" style="stroke: hsl(134.5, 55%, 50%);" id="1100"  d=" M  400.023,0  L  10,0  C  4.477,0  0,4.477  0,10  L  0,60  C  0,65.523  4.477,70  10,70  L  400.023,70  L  400.023,0  z " />
<path transform="translate( 0, 0 )" style="stroke: hsl(161.4, 55%, 50%);" id="1321"  d=" M  400.023,0  L  10,0  C  4.477,0  0,4.477  0,10  L  0,60  C  0,65.523  4.477,70  10,70  L  400.023,70  L  400.023,0  z " />
<path transform="translate( 0, 0 )" style="stroke: hsl(188.3, 55%, 50%);" id="1542"  d=" M  400.023,0  L  10,0  C  4.477,0  0,4.477  0,10  L  0,60  C  0,65.523  4.477,70  10,70  L  400.023,70  L  400.023,0  z " />
<path transform="translate( 0, 0 )" style="stroke: hsl(215.2, 55%, 50%);" id="1763"  d=" M  400.023,0  L  10,0  C  4.477,0  0,4.477  0,10  L  0,60  C  0,65.523  4.477,70  10,70  L  400.023,70  L  400.023,0  z " />
<path transform="translate( 0, 0 )" style="stroke: hsl(242.1, 55%, 50%);" id="1984"  d=" M  400.023,0  L  10,0  C  4.477,0  0,4.477  0,10  L  0,60  C  0,65.523  4.477,70  10,70  L  400.023,70  L  400.023,0  z " />
<path transform="translate( 0, 0 )" style="stroke: hsl(269, 55%, 50%);" id="2205"  d=" M  400.023,0  L  10,0  C  4.477,0  0,4.477  0,10  L  0,60  C  0,65.523  4.477,70  10,70  L  400.023,70  L  400.023,0  z " />
<path transform="translate( 0, 0 )" style="stroke: hsl(295.9, 55%, 50%);" id="2426"  d=" M  400.023,0  L  10,0  C  4.477,0  0,4.477  0,10  L  0,60  C  0,65.523  4.477,70  10,70  L  400.023,70  L  400.023,0  z " />
    </g>
    <!-- End of group #belt -->
    
    <!-- Start of group #collarStand -->
    <g id="collarStand"  transform=" translate(176.885 -71.76)  translate(1428.108 220) " >
        <path class="hidden" id="8"  d=" M  -171.885,76.76  L  171.885,76.76  L  171.885,128.368  L  -171.885,128.368  z " />
<path transform="translate( 0, 0 )" style="stroke: hsl(26.9, 55%, 50%);" id="217"  d=" M  -171.885,128.368  C  -171.885,128.368  -154.697,76.76  0,76.76  C  154.697,76.76  171.885,128.368  171.885,128.368  C  144.745,128.368  85.943,101.76  0,101.76  C  -85.943,101.76  -144.745,128.368  -171.885,128.368  z " />
<path transform="translate( 0, 0 )" style="stroke: hsl(53.8, 55%, 50%);" id="438"  d=" M  -171.885,128.368  C  -171.885,128.368  -154.697,76.76  0,76.76  C  154.697,76.76  171.885,128.368  171.885,128.368  C  144.745,128.368  85.943,101.76  0,101.76  C  -85.943,101.76  -144.745,128.368  -171.885,128.368  z " />
<path transform="translate( 0, 0 )" style="stroke: hsl(80.7, 55%, 50%);" id="659"  d=" M  -171.885,128.368  C  -171.885,128.368  -154.697,76.76  0,76.76  C  154.697,76.76  171.885,128.368  171.885,128.368  C  144.745,128.368  85.943,101.76  0,101.76  C  -85.943,101.76  -144.745,128.368  -171.885,128.368  z " />
<path transform="translate( 0, 0 )" style="stroke: hsl(107.6, 55%, 50%);" id="880"  d=" M  -171.885,128.368  C  -171.885,128.368  -154.697,76.76  0,76.76  C  154.697,76.76  171.885,128.368  171.885,128.368  C  144.745,128.368  85.943,101.76  0,101.76  C  -85.943,101.76  -144.745,128.368  -171.885,128.368  z " />
<path transform="translate( 0, 0 )" style="stroke: hsl(134.5, 55%, 50%);" id="1101"  d=" M  -171.885,128.368  C  -171.885,128.368  -154.697,76.76  0,76.76  C  154.697,76.76  171.885,128.368  171.885,128.368  C  144.745,128.368  85.943,101.76  0,101.76  C  -85.943,101.76  -144.745,128.368  -171.885,128.368  z " />
<path transform="translate( 0, 0 )" style="stroke: hsl(161.4, 55%, 50%);" id="1322"  d=" M  -171.885,128.368  C  -171.885,128.368  -154.697,76.76  0,76.76  C  154.697,76.76  171.885,128.368  171.885,128.368  C  144.745,128.368  85.943,101.76  0,101.76  C  -85.943,101.76  -144.745,128.368  -171.885,128.368  z " />
<path transform="translate( 0, 0 )" style="stroke: hsl(188.3, 55%, 50%);" id="1543"  d=" M  -171.885,128.368  C  -171.885,128.368  -154.697,76.76  0,76.76  C  154.697,76.76  171.885,128.368  171.885,128.368  C  144.745,128.368  85.943,101.76  0,101.76  C  -85.943,101.76  -144.745,128.368  -171.885,128.368  z " />
<path transform="translate( 0, 0 )" style="stroke: hsl(215.2, 55%, 50%);" id="1764"  d=" M  -171.885,128.368  C  -171.885,128.368  -154.697,76.76  0,76.76  C  154.697,76.76  171.885,128.368  171.885,128.368  C  144.745,128.368  85.943,101.76  0,101.76  C  -85.943,101.76  -144.745,128.368  -171.885,128.368  z " />
<path transform="translate( 0, 0 )" style="stroke: hsl(242.1, 55%, 50%);" id="1985"  d=" M  -171.885,128.368  C  -171.885,128.368  -154.697,76.76  0,76.76  C  154.697,76.76  171.885,128.368  171.885,128.368  C  144.745,128.368  85.943,101.76  0,101.76  C  -85.943,101.76  -144.745,128.368  -171.885,128.368  z " />
<path transform="translate( 0, 0 )" style="stroke: hsl(269, 55%, 50%);" id="2206"  d=" M  -171.885,128.368  C  -171.885,128.368  -154.697,76.76  0,76.76  C  154.697,76.76  171.885,128.368  171.885,128.368  C  144.745,128.368  85.943,101.76  0,101.76  C  -85.943,101.76  -144.745,128.368  -171.885,128.368  z " />
<path transform="translate( 0, 0 )" style="stroke: hsl(295.9, 55%, 50%);" id="2427"  d=" M  -171.885,128.368  C  -171.885,128.368  -154.697,76.76  0,76.76  C  154.697,76.76  171.885,128.368  171.885,128.368  C  144.745,128.368  85.943,101.76  0,101.76  C  -85.943,101.76  -144.745,128.368  -171.885,128.368  z " />
    </g>
    <!-- End of group #collarStand -->
    
    <!-- Start of group #collar -->
    <g id="collar"  transform=" translate(5 5)  translate(1428.108 437.858) " >
        <path class="hidden" id="9"  d=" M  0,0  L  263.948,0  L  263.948,154.668  L  0,154.668  z " />
<path transform="translate( 0, 0 )" style="stroke: hsl(26.9, 55%, 50%);" id="218"  d=" M  0,76.76  C  17.017,76.76  32.369,77.385  46.596,78.526  C  63.764,81.44  78.839,85.001  91.945,88.932  C  109.76,96.022  123.091,103.403  133.078,110.475  C  156.879,135.404  157.852,151.68  157.852,151.68  L  210.935,154.668  L  263.948,67.319  C  199.814,30.027  135.699,0  0,0  z " />
<path transform="translate( 0, 0 )" style="stroke: hsl(53.8, 55%, 50%);" id="439"  d=" M  0,76.76  C  17.017,76.76  32.369,77.385  46.596,78.526  C  63.764,81.44  78.839,85.001  91.945,88.932  C  109.76,96.022  123.091,103.403  133.078,110.475  C  156.879,135.404  157.852,151.68  157.852,151.68  L  210.935,154.668  L  263.948,67.319  C  199.814,30.027  135.699,0  0,0  z " />
<path transform="translate( 0, 0 )" style="stroke: hsl(80.7, 55%, 50%);" id="660"  d=" M  0,76.76  C  17.017,76.76  32.369,77.385  46.596,78.526  C  63.764,81.44  78.839,85.001  91.945,88.932  C  109.76,96.022  123.091,103.403  133.078,110.475  C  156.879,135.404  157.852,151.68  157.852,151.68  L  210.935,154.668  L  263.948,67.319  C  199.814,30.027  135.699,0  0,0  z " />
<path transform="translate( 0, 0 )" style="stroke: hsl(107.6, 55%, 50%);" id="881"  d=" M  0,76.76  C  17.017,76.76  32.369,77.385  46.596,78.526  C  63.764,81.44  78.839,85.001  91.945,88.932  C  109.76,96.022  123.091,103.403  133.078,110.475  C  156.879,135.404  157.852,151.68  157.852,151.68  L  210.935,154.668  L  263.948,67.319  C  199.814,30.027  135.699,0  0,0  z " />
<path transform="translate( 0, 0 )" style="stroke: hsl(134.5, 55%, 50%);" id="1102"  d=" M  0,76.76  C  17.017,76.76  32.369,77.385  46.596,78.526  C  63.764,81.44  78.839,85.001  91.945,88.932  C  109.76,96.022  123.091,103.403  133.078,110.475  C  156.879,135.404  157.852,151.68  157.852,151.68  L  210.935,154.668  L  263.948,67.319  C  199.814,30.027  135.699,0  0,0  z " />
<path transform="translate( 0, 0 )" style="stroke: hsl(161.4, 55%, 50%);" id="1323"  d=" M  0,76.76  C  17.017,76.76  32.369,77.385  46.596,78.526  C  63.764,81.44  78.839,85.001  91.945,88.932  C  109.76,96.022  123.091,103.403  133.078,110.475  C  156.879,135.404  157.852,151.68  157.852,151.68  L  210.935,154.668  L  263.948,67.319  C  199.814,30.027  135.699,0  0,0  z " />
<path transform="translate( 0, 0 )" style="stroke: hsl(188.3, 55%, 50%);" id="1544"  d=" M  0,76.76  C  17.017,76.76  32.369,77.385  46.596,78.526  C  63.764,81.44  78.839,85.001  91.945,88.932  C  109.76,96.022  123.091,103.403  133.078,110.475  C  156.879,135.404  157.852,151.68  157.852,151.68  L  210.935,154.668  L  263.948,67.319  C  199.814,30.027  135.699,0  0,0  z " />
<path transform="translate( 0, 0 )" style="stroke: hsl(215.2, 55%, 50%);" id="1765"  d=" M  0,76.76  C  17.017,76.76  32.369,77.385  46.596,78.526  C  63.764,81.44  78.839,85.001  91.945,88.932  C  109.76,96.022  123.091,103.403  133.078,110.475  C  156.879,135.404  157.852,151.68  157.852,151.68  L  210.935,154.668  L  263.948,67.319  C  199.814,30.027  135.699,0  0,0  z " />
<path transform="translate( 0, 0 )" style="stroke: hsl(242.1, 55%, 50%);" id="1986"  d=" M  0,76.76  C  17.017,76.76  32.369,77.385  46.596,78.526  C  63.764,81.44  78.839,85.001  91.945,88.932  C  109.76,96.022  123.091,103.403  133.078,110.475  C  156.879,135.404  157.852,151.68  157.852,151.68  L  210.935,154.668  L  263.948,67.319  C  199.814,30.027  135.699,0  0,0  z " />
<path transform="translate( 0, 0 )" style="stroke: hsl(269, 55%, 50%);" id="2207"  d=" M  0,76.76  C  17.017,76.76  32.369,77.385  46.596,78.526  C  63.764,81.44  78.839,85.001  91.945,88.932  C  109.76,96.022  123.091,103.403  133.078,110.475  C  156.879,135.404  157.852,151.68  157.852,151.68  L  210.935,154.668  L  263.948,67.319  C  199.814,30.027  135.699,0  0,0  z " />
<path transform="translate( 0, 0 )" style="stroke: hsl(295.9, 55%, 50%);" id="2428"  d=" M  0,76.76  C  17.017,76.76  32.369,77.385  46.596,78.526  C  63.764,81.44  78.839,85.001  91.945,88.932  C  109.76,96.022  123.091,103.403  133.078,110.475  C  156.879,135.404  157.852,151.68  157.852,151.68  L  210.935,154.668  L  263.948,67.319  C  199.814,30.027  135.699,0  0,0  z " />
    </g>
    <!-- End of group #collar -->
    
    <!-- Start of group #cuffFacing -->
    <g id="cuffFacing"  transform=" translate(5 5)  translate(1428.108 281.608) " >
        <path class="hidden" id="10"  d=" M  0,0  L  320,0  L  320,146.25  L  0,146.25  z " />
<path transform="translate( 0, 0 )" style="stroke: hsl(26.9, 55%, 50%);" id="219"  d=" M  0,0  L  0,121.875  C  -0,135.337  10.913,146.25  24.375,146.25  L  295.625,146.25  C  309.087,146.25  320,135.337  320,121.875  L  320,0  z " />
<path transform="translate( 0, 0 )" style="stroke: hsl(53.8, 55%, 50%);" id="440"  d=" M  0,0  L  0,121.875  C  -0,135.337  10.913,146.25  24.375,146.25  L  295.625,146.25  C  309.087,146.25  320,135.337  320,121.875  L  320,0  z " />
<path transform="translate( 0, 0 )" style="stroke: hsl(80.7, 55%, 50%);" id="661"  d=" M  0,0  L  0,121.875  C  -0,135.337  10.913,146.25  24.375,146.25  L  295.624,146.25  C  309.086,146.25  319.999,135.337  319.999,121.875  L  319.999,0  z " />
<path transform="translate( 0, 0 )" style="stroke: hsl(107.6, 55%, 50%);" id="882"  d=" M  0,0  L  0,121.875  C  -0,135.337  10.913,146.25  24.375,146.25  L  295.625,146.25  C  309.087,146.25  320,135.337  320,121.875  L  320,0  z " />
<path transform="translate( 0, 0 )" style="stroke: hsl(134.5, 55%, 50%);" id="1103"  d=" M  0,0  L  0,121.875  C  -0,135.337  10.913,146.25  24.375,146.25  L  295.625,146.25  C  309.087,146.25  320,135.337  320,121.875  L  320,0  z " />
<path transform="translate( 0, 0 )" style="stroke: hsl(161.4, 55%, 50%);" id="1324"  d=" M  0,0  L  0,121.875  C  -0,135.337  10.913,146.25  24.375,146.25  L  295.624,146.25  C  309.086,146.25  319.999,135.337  319.999,121.875  L  319.999,0  z " />
<path transform="translate( 0, 0 )" style="stroke: hsl(188.3, 55%, 50%);" id="1545"  d=" M  0,0  L  0,121.875  C  -0,135.337  10.913,146.25  24.375,146.25  L  295.625,146.25  C  309.087,146.25  320,135.337  320,121.875  L  320,0  z " />
<path transform="translate( 0, 0 )" style="stroke: hsl(215.2, 55%, 50%);" id="1766"  d=" M  0,0  L  0,121.875  C  -0,135.337  10.913,146.25  24.375,146.25  L  295.625,146.25  C  309.087,146.25  320,135.337  320,121.875  L  320,0  z " />
<path transform="translate( 0, 0 )" style="stroke: hsl(242.1, 55%, 50%);" id="1987"  d=" M  0,0  L  0,121.875  C  -0,135.337  10.913,146.25  24.375,146.25  L  295.625,146.25  C  309.087,146.25  320,135.337  320,121.875  L  320,0  z " />
<path transform="translate( 0, 0 )" style="stroke: hsl(269, 55%, 50%);" id="2208"  d=" M  0,0  L  0,121.875  C  -0,135.337  10.913,146.25  24.375,146.25  L  295.624,146.25  C  309.086,146.25  319.999,135.337  319.999,121.875  L  319.999,0  z " />
<path transform="translate( 0, 0 )" style="stroke: hsl(295.9, 55%, 50%);" id="2429"  d=" M  0,0  L  0,121.875  C  -0,135.337  10.913,146.25  24.375,146.25  L  295.625,146.25  C  309.087,146.25  320,135.337  320,121.875  L  320,0  z " />
    </g>
    <!-- End of group #cuffFacing -->
    
    <!-- Start of group #pocket -->
    <g id="pocket"  transform=" translate(-77.505 -712.5)  translate(1428.108 602.526) " >
        <path class="hidden" id="11"  d=" M  82.505,717.5  L  282.315,717.5  L  282.315,945.4  L  82.505,945.4  z " />
<path transform="translate( 0, 0 )" style="stroke: hsl(26.9, 55%, 50%);" id="220"  d=" M  82.505,717.5  L  82.505,895.4  C  82.505,923.014  104.891,945.4  132.505,945.4  L  232.315,945.4  C  259.929,945.4  282.315,923.014  282.315,895.4  L  282.315,717.5  L  82.505,717.5  z " />
<path transform="translate( 0, 0 )" style="stroke: hsl(53.8, 55%, 50%);" id="441"  d=" M  82.505,717.5  L  82.505,895.4  C  82.505,923.014  104.891,945.4  132.505,945.4  L  232.315,945.4  C  259.929,945.4  282.315,923.014  282.315,895.4  L  282.315,717.5  L  82.505,717.5  z " />
<path transform="translate( 0, 0 )" style="stroke: hsl(80.7, 55%, 50%);" id="662"  d=" M  82.505,717.5  L  82.505,895.4  C  82.505,923.014  104.891,945.4  132.505,945.4  L  232.315,945.4  C  259.929,945.4  282.315,923.014  282.315,895.4  L  282.315,717.5  L  82.505,717.5  z " />
<path transform="translate( 0, 0 )" style="stroke: hsl(107.6, 55%, 50%);" id="883"  d=" M  82.505,717.5  L  82.505,895.4  C  82.505,923.014  104.891,945.4  132.505,945.4  L  232.315,945.4  C  259.929,945.4  282.315,923.014  282.315,895.4  L  282.315,717.5  L  82.505,717.5  z " />
<path transform="translate( 0, 0 )" style="stroke: hsl(134.5, 55%, 50%);" id="1104"  d=" M  82.505,717.5  L  82.505,895.4  C  82.505,923.014  104.891,945.4  132.505,945.4  L  232.315,945.4  C  259.929,945.4  282.315,923.014  282.315,895.4  L  282.315,717.5  L  82.505,717.5  z " />
<path transform="translate( 0, 0 )" style="stroke: hsl(161.4, 55%, 50%);" id="1325"  d=" M  82.505,717.5  L  82.505,895.4  C  82.505,923.014  104.891,945.4  132.505,945.4  L  232.315,945.4  C  259.929,945.4  282.315,923.014  282.315,895.4  L  282.315,717.5  L  82.505,717.5  z " />
<path transform="translate( 0, 0 )" style="stroke: hsl(188.3, 55%, 50%);" id="1546"  d=" M  82.505,717.5  L  82.505,895.4  C  82.505,923.014  104.891,945.4  132.505,945.4  L  232.315,945.4  C  259.929,945.4  282.315,923.014  282.315,895.4  L  282.315,717.5  L  82.505,717.5  z " />
<path transform="translate( 0, 0 )" style="stroke: hsl(215.2, 55%, 50%);" id="1767"  d=" M  82.505,717.5  L  82.505,895.4  C  82.505,923.014  104.891,945.4  132.505,945.4  L  232.315,945.4  C  259.929,945.4  282.315,923.014  282.315,895.4  L  282.315,717.5  L  82.505,717.5  z " />
<path transform="translate( 0, 0 )" style="stroke: hsl(242.1, 55%, 50%);" id="1988"  d=" M  82.505,717.5  L  82.505,895.4  C  82.505,923.014  104.891,945.4  132.505,945.4  L  232.315,945.4  C  259.929,945.4  282.315,923.014  282.315,895.4  L  282.315,717.5  L  82.505,717.5  z " />
<path transform="translate( 0, 0 )" style="stroke: hsl(269, 55%, 50%);" id="2209"  d=" M  82.505,717.5  L  82.505,895.4  C  82.505,923.014  104.891,945.4  132.505,945.4  L  232.315,945.4  C  259.929,945.4  282.315,923.014  282.315,895.4  L  282.315,717.5  L  82.505,717.5  z " />
<path transform="translate( 0, 0 )" style="stroke: hsl(295.9, 55%, 50%);" id="2430"  d=" M  82.505,717.5  L  82.505,895.4  C  82.505,923.014  104.891,945.4  132.505,945.4  L  232.315,945.4  C  259.929,945.4  282.315,923.014  282.315,895.4  L  282.315,717.5  L  82.505,717.5  z " />
    </g>
    <!-- End of group #pocket -->
    
    <!-- Start of group #pocketFlap -->
    <g id="pocketFlap"  transform=" translate(-76.88 -700.016)  translate(1702.056 437.858) " >
        <path class="hidden" id="12"  d=" M  81.88,705.016  L  282.94,705.016  L  282.94,787.468  L  81.88,787.468  z " />
<path transform="translate( 0, 0 )" style="stroke: hsl(26.9, 55%, 50%);" id="221"  d=" M  81.88,705.016  L  84.505,757.468  C  85.333,774.016  97.936,787.468  114.505,787.468  L  250.315,787.468  C  266.884,787.468  279.487,774.016  280.315,757.468  L  282.94,705.016  z " />
<path transform="translate( 0, 0 )" style="stroke: hsl(53.8, 55%, 50%);" id="442"  d=" M  81.88,705.016  L  84.505,757.468  C  85.333,774.016  97.936,787.468  114.505,787.468  L  250.315,787.468  C  266.884,787.468  279.487,774.016  280.315,757.468  L  282.94,705.016  z " />
<path transform="translate( 0, 0 )" style="stroke: hsl(80.7, 55%, 50%);" id="663"  d=" M  81.88,705.016  L  84.505,757.468  C  85.333,774.016  97.936,787.468  114.505,787.468  L  250.315,787.468  C  266.884,787.468  279.487,774.016  280.315,757.468  L  282.94,705.016  z " />
<path transform="translate( 0, 0 )" style="stroke: hsl(107.6, 55%, 50%);" id="884"  d=" M  81.88,705.016  L  84.505,757.468  C  85.333,774.016  97.936,787.468  114.505,787.468  L  250.315,787.468  C  266.884,787.468  279.487,774.016  280.315,757.468  L  282.94,705.016  z " />
<path transform="translate( 0, 0 )" style="stroke: hsl(134.5, 55%, 50%);" id="1105"  d=" M  81.88,705.016  L  84.505,757.468  C  85.333,774.016  97.936,787.468  114.505,787.468  L  250.315,787.468  C  266.884,787.468  279.487,774.016  280.315,757.468  L  282.94,705.016  z " />
<path transform="translate( 0, 0 )" style="stroke: hsl(161.4, 55%, 50%);" id="1326"  d=" M  81.88,705.016  L  84.505,757.468  C  85.333,774.016  97.936,787.468  114.505,787.468  L  250.315,787.468  C  266.884,787.468  279.487,774.016  280.315,757.468  L  282.94,705.016  z " />
<path transform="translate( 0, 0 )" style="stroke: hsl(188.3, 55%, 50%);" id="1547"  d=" M  81.88,705.016  L  84.505,757.468  C  85.333,774.016  97.936,787.468  114.505,787.468  L  250.315,787.468  C  266.884,787.468  279.487,774.016  280.315,757.468  L  282.94,705.016  z " />
<path transform="translate( 0, 0 )" style="stroke: hsl(215.2, 55%, 50%);" id="1768"  d=" M  81.88,705.016  L  84.505,757.468  C  85.333,774.016  97.936,787.468  114.505,787.468  L  250.315,787.468  C  266.884,787.468  279.487,774.016  280.315,757.468  L  282.94,705.016  z " />
<path transform="translate( 0, 0 )" style="stroke: hsl(242.1, 55%, 50%);" id="1989"  d=" M  81.88,705.016  L  84.505,757.468  C  85.333,774.016  97.936,787.468  114.505,787.468  L  250.315,787.468  C  266.884,787.468  279.487,774.016  280.315,757.468  L  282.94,705.016  z " />
<path transform="translate( 0, 0 )" style="stroke: hsl(269, 55%, 50%);" id="2210"  d=" M  81.88,705.016  L  84.505,757.468  C  85.333,774.016  97.936,787.468  114.505,787.468  L  250.315,787.468  C  266.884,787.468  279.487,774.016  280.315,757.468  L  282.94,705.016  z " />
<path transform="translate( 0, 0 )" style="stroke: hsl(295.9, 55%, 50%);" id="2431"  d=" M  81.88,705.016  L  84.505,757.468  C  85.333,774.016  97.936,787.468  114.505,787.468  L  250.315,787.468  C  266.884,787.468  279.487,774.016  280.315,757.468  L  282.94,705.016  z " />
    </g>
    <!-- End of group #pocketFlap -->
    
    <!-- Start of group #chestPocketWelt -->
    <g id="chestPocketWelt"  transform=" translate(5 5)  translate(1637.918 602.526) " >
        <path class="hidden" id="13"  d=" M  0,0  L  41.34,0  L  41.34,184.016  L  0,184.016  z " />
<path transform="translate( 0, 0 )" style="stroke: hsl(26.9, 55%, 50%);" id="222"  d=" M  0,0  L  41.34,0  L  41.34,184.016  L  0,184.016  L  0,0  z " />
<path transform="translate( 0, 0 )" style="stroke: hsl(53.8, 55%, 50%);" id="443"  d=" M  0,0  L  41.34,0  L  41.34,184.016  L  0,184.016  L  0,0  z " />
<path transform="translate( 0, 0 )" style="stroke: hsl(80.7, 55%, 50%);" id="664"  d=" M  0,0  L  41.34,0  L  41.34,184.016  L  0,184.016  L  0,0  z " />
<path transform="translate( 0, 0 )" style="stroke: hsl(107.6, 55%, 50%);" id="885"  d=" M  0,0  L  41.34,0  L  41.34,184.016  L  0,184.016  L  0,0  z " />
<path transform="translate( 0, 0 )" style="stroke: hsl(134.5, 55%, 50%);" id="1106"  d=" M  0,0  L  41.34,0  L  41.34,184.016  L  0,184.016  L  0,0  z " />
<path transform="translate( 0, 0 )" style="stroke: hsl(161.4, 55%, 50%);" id="1327"  d=" M  0,0  L  41.34,0  L  41.34,184.016  L  0,184.016  L  0,0  z " />
<path transform="translate( 0, 0 )" style="stroke: hsl(188.3, 55%, 50%);" id="1548"  d=" M  0,0  L  41.34,0  L  41.34,184.016  L  0,184.016  L  0,0  z " />
<path transform="translate( 0, 0 )" style="stroke: hsl(215.2, 55%, 50%);" id="1769"  d=" M  0,0  L  41.34,0  L  41.34,184.016  L  0,184.016  L  0,0  z " />
<path transform="translate( 0, 0 )" style="stroke: hsl(242.1, 55%, 50%);" id="1990"  d=" M  0,0  L  41.34,0  L  41.34,184.016  L  0,184.016  L  0,0  z " />
<path transform="translate( 0, 0 )" style="stroke: hsl(269, 55%, 50%);" id="2211"  d=" M  0,0  L  41.34,0  L  41.34,184.016  L  0,184.016  L  0,0  z " />
<path transform="translate( 0, 0 )" style="stroke: hsl(295.9, 55%, 50%);" id="2432"  d=" M  0,0  L  41.34,0  L  41.34,184.016  L  0,184.016  L  0,0  z " />
    </g>
    <!-- End of group #chestPocketWelt -->
    
    <!-- Start of group #sampler-front -->
    <g id="sampler-front" >
    </g>
    <!-- End of group #sampler-front -->
    
    <!-- Start of group #sampler-back -->
    <g id="sampler-back" >
    </g>
    <!-- End of group #sampler-back -->
    
    <!-- Start of group #sampler-tail -->
    <g id="sampler-tail" >
    </g>
    <!-- End of group #sampler-tail -->
    
    <!-- Start of group #sampler-topsleeve -->
    <g id="sampler-topsleeve" >
    </g>
    <!-- End of group #sampler-topsleeve -->
    
    <!-- Start of group #sampler-undersleeve -->
    <g id="sampler-undersleeve" >
    </g>
    <!-- End of group #sampler-undersleeve -->
    
    <!-- Start of group #sampler-belt -->
    <g id="sampler-belt" >
    </g>
    <!-- End of group #sampler-belt -->
    
    <!-- Start of group #sampler-collarStand -->
    <g id="sampler-collarStand" >
    </g>
    <!-- End of group #sampler-collarStand -->
    
    <!-- Start of group #sampler-collar -->
    <g id="sampler-collar" >
    </g>
    <!-- End of group #sampler-collar -->
    
    <!-- Start of group #sampler-cuffFacing -->
    <g id="sampler-cuffFacing" >
    </g>
    <!-- End of group #sampler-cuffFacing -->
    
    <!-- Start of group #sampler-pocket -->
    <g id="sampler-pocket" >
    </g>
    <!-- End of group #sampler-pocket -->
    
    <!-- Start of group #sampler-pocketFlap -->
    <g id="sampler-pocketFlap" >
    </g>
    <!-- End of group #sampler-pocketFlap -->
    
    <!-- Start of group #sampler-chestPocketWelt -->
    <g id="sampler-chestPocketWelt" >
    </g>
    <!-- End of group #sampler-chestPocketWelt -->
</g>
<!-- End of group #patternContainer -->

</svg>

