<?xml version="1.0" encoding="UTF-8" standalone="no"?>
<svg
    xmlns="http://www.w3.org/2000/svg"
    xmlns:svg="http://www.w3.org/2000/svg"
    xmlns:xlink="http://www.w3.org/1999/xlink"
    xmlns:freesewing="http://freesewing.org/namespaces/freesewing" viewBox ="0 0 1109 710"
    width ="1109mm"
    height ="710mm"
    freesewing:version ="1.5.0"
    freesewing:origin ="joost.core.freesewing.org" 
>

<style type="text/css">
    <![CDATA[
    path { fill: none; stroke: #000000; stroke-opacity:1; stroke-width: 0.5; stroke-miterlimit:4; stroke-dashoffset:0; stroke-linecap:round; stroke-linejoin:round; }
    path.hidden { fill: none; stroke: none; }]]>
</style>


<!-- Start of group #patternContainer -->
<g id="patternContainer" >
    
    <!-- Start of group #backBlock -->
    <g id="backBlock"  transform=" translate(5 5)  translate(508.766 0) " >
        <path class="hidden" id="2"  d=" M  0,0  L  290,0  L  290,620  L  0,620  z " />
<path transform="translate( 0, 0 )" style="stroke: hsl(26.9, 55%, 50%);" id="18"  d=" M  0,20  L  0,250  L  0,500  L  0,620  L  290,620  L  290,250  C  273.75,250  260.446,243.918  245.764,229.236  C  231.082,214.554  225,170.833  225,135  C  225,99.167  233.176,37.332  235,27.5  L  86.777,0  C  83.129,19.664  0,20  0,20  z " />
<path transform="translate( 0, 0 )" style="stroke: hsl(53.8, 55%, 50%);" id="38"  d=" M  0,20  L  0,256.075  L  0,500  L  0,620  L  290,620  L  290,256.075  C  273.75,256.075  260.779,249.936  245.959,235.116  C  231.139,220.296  225,174.884  225,138.038  C  225,101.192  233.176,37.332  235,27.5  L  86.777,0  C  83.129,19.664  0,20  0,20  z " />
<path transform="translate( 0, 0 )" style="stroke: hsl(80.7, 55%, 50%);" id="58"  d=" M  0,20  L  0,262.15  L  0,500  L  0,620  L  290,620  L  290,262.15  C  273.75,262.15  261.1,255.956  246.147,241.003  C  231.194,226.05  225,178.933  225,141.075  C  225,103.217  233.176,37.332  235,27.5  L  86.777,0  C  83.129,19.664  0,20  0,20  z " />
<path transform="translate( 0, 0 )" style="stroke: hsl(107.6, 55%, 50%);" id="78"  d=" M  0,20  L  0,268.225  L  0,500  L  0,620  L  290,620  L  290,268.225  C  273.75,268.225  261.411,261.978  246.329,246.896  C  231.247,231.814  225,182.984  225,144.113  C  225,105.242  233.176,37.332  235,27.5  L  86.777,0  C  83.129,19.664  0,20  0,20  z " />
<path transform="translate( 0, 0 )" style="stroke: hsl(134.5, 55%, 50%);" id="98"  d=" M  0,20  L  0,274.3  L  0,500  L  0,620  L  290,620  L  290,274.3  C  273.75,274.3  261.713,268.001  246.506,252.794  C  231.299,237.587  225,187.033  225,147.15  C  225,107.267  233.176,37.332  235,27.5  L  86.777,0  C  83.129,19.664  0,20  0,20  z " />
<path transform="translate( 0, 0 )" style="stroke: hsl(161.4, 55%, 50%);" id="118"  d=" M  0,20  L  0,280.375  L  0,500  L  0,620  L  290,620  L  290,280.375  C  273.75,280.375  262.005,274.026  246.677,258.698  C  231.349,243.37  225,191.084  225,150.188  C  225,109.292  233.176,37.332  235,27.5  L  86.777,0  C  83.129,19.664  0,20  0,20  z " />
<path transform="translate( 0, 0 )" style="stroke: hsl(188.3, 55%, 50%);" id="138"  d=" M  0,20  L  0,286.45  L  0,500  L  0,620  L  290,620  L  290,286.45  C  273.75,286.45  262.288,280.052  246.843,264.607  C  231.398,249.162  225,195.133  225,153.225  C  225,111.317  233.176,37.332  235,27.5  L  86.777,0  C  83.129,19.664  0,20  0,20  z " />
<path transform="translate( 0, 0 )" style="stroke: hsl(215.2, 55%, 50%);" id="158"  d=" M  0,20  L  0,292.525  L  0,500  L  0,620  L  290,620  L  290,292.525  C  273.75,292.525  262.563,286.08  247.004,270.521  C  231.445,254.962  225,199.184  225,156.263  C  225,113.342  233.176,37.332  235,27.5  L  86.777,0  C  83.129,19.664  0,20  0,20  z " />
<path transform="translate( 0, 0 )" style="stroke: hsl(242.1, 55%, 50%);" id="178"  d=" M  0,20  L  0,298.6  L  0,500  L  0,620  L  290,620  L  290,298.6  C  273.75,298.6  262.829,292.109  247.16,276.44  C  231.491,260.771  225,203.233  225,159.3  C  225,115.367  233.176,37.332  235,27.5  L  86.777,0  C  83.129,19.664  0,20  0,20  z " />
<path transform="translate( 0, 0 )" style="stroke: hsl(269, 55%, 50%);" id="198"  d=" M  0,20  L  0,304.675  L  0,500  L  0,620  L  290,620  L  290,304.675  C  273.75,304.675  263.087,298.14  247.311,282.364  C  231.535,266.588  225,207.284  225,162.338  C  225,117.392  233.176,37.332  235,27.5  L  86.777,0  C  83.129,19.664  0,20  0,20  z " />
<path transform="translate( 0, 0 )" style="stroke: hsl(295.9, 55%, 50%);" id="218"  d=" M  0,20  L  0,310.75  L  0,500  L  0,620  L  290,620  L  290,310.75  C  273.75,310.75  263.338,304.172  247.458,288.292  C  231.578,272.412  225,211.333  225,165.375  C  225,119.417  233.176,37.332  235,27.5  L  86.777,0  C  83.129,19.664  0,20  0,20  z " />
    </g>
    <!-- End of group #backBlock -->
    
    <!-- Start of group #frontBlock -->
    <g id="frontBlock"  transform=" translate(5 5)  translate(808.766 0) " >
        <path class="hidden" id="3"  d=" M  0,0  L  290,0  L  290,620  L  0,620  z " />
<path transform="translate( 0, 0 )" style="stroke: hsl(26.9, 55%, 50%);" id="19"  d=" M  0,99  L  0,250  L  0,500  L  0,620  L  290,620  L  290,250  C  273.75,250  260.446,243.918  245.764,229.236  C  231.082,214.554  220,170.833  220,135  C  220,99.167  233.176,37.332  235,27.5  L  86.777,0  C  83.129,19.664  86.777,99  0,99  z " />
<path transform="translate( 0, 0 )" style="stroke: hsl(53.8, 55%, 50%);" id="39"  d=" M  0,99  L  0,256.075  L  0,500  L  0,620  L  290,620  L  290,256.075  C  273.75,256.075  260.779,249.936  245.959,235.116  C  231.139,220.296  220,174.884  220,138.038  C  220,101.192  233.176,37.332  235,27.5  L  86.777,0  C  83.129,19.664  86.777,99  0,99  z " />
<path transform="translate( 0, 0 )" style="stroke: hsl(80.7, 55%, 50%);" id="59"  d=" M  0,99  L  0,262.15  L  0,500  L  0,620  L  290,620  L  290,262.15  C  273.75,262.15  261.1,255.956  246.147,241.003  C  231.194,226.05  220,178.933  220,141.075  C  220,103.217  233.176,37.332  235,27.5  L  86.777,0  C  83.129,19.664  86.777,99  0,99  z " />
<path transform="translate( 0, 0 )" style="stroke: hsl(107.6, 55%, 50%);" id="79"  d=" M  0,99  L  0,268.225  L  0,500  L  0,620  L  290,620  L  290,268.225  C  273.75,268.225  261.411,261.978  246.329,246.896  C  231.247,231.814  220,182.984  220,144.113  C  220,105.242  233.176,37.332  235,27.5  L  86.777,0  C  83.129,19.664  86.777,99  0,99  z " />
<path transform="translate( 0, 0 )" style="stroke: hsl(134.5, 55%, 50%);" id="99"  d=" M  0,99  L  0,274.3  L  0,500  L  0,620  L  290,620  L  290,274.3  C  273.75,274.3  261.713,268.001  246.506,252.794  C  231.299,237.587  220,187.033  220,147.15  C  220,107.267  233.176,37.332  235,27.5  L  86.777,0  C  83.129,19.664  86.777,99  0,99  z " />
<path transform="translate( 0, 0 )" style="stroke: hsl(161.4, 55%, 50%);" id="119"  d=" M  0,99  L  0,280.375  L  0,500  L  0,620  L  290,620  L  290,280.375  C  273.75,280.375  262.005,274.026  246.677,258.698  C  231.349,243.37  220,191.084  220,150.188  C  220,109.292  233.176,37.332  235,27.5  L  86.777,0  C  83.129,19.664  86.777,99  0,99  z " />
<path transform="translate( 0, 0 )" style="stroke: hsl(188.3, 55%, 50%);" id="139"  d=" M  0,99  L  0,286.45  L  0,500  L  0,620  L  290,620  L  290,286.45  C  273.75,286.45  262.288,280.052  246.843,264.607  C  231.398,249.162  220,195.133  220,153.225  C  220,111.317  233.176,37.332  235,27.5  L  86.777,0  C  83.129,19.664  86.777,99  0,99  z " />
<path transform="translate( 0, 0 )" style="stroke: hsl(215.2, 55%, 50%);" id="159"  d=" M  0,99  L  0,292.525  L  0,500  L  0,620  L  290,620  L  290,292.525  C  273.75,292.525  262.563,286.08  247.004,270.521  C  231.445,254.962  220,199.184  220,156.263  C  220,113.342  233.176,37.332  235,27.5  L  86.777,0  C  83.129,19.664  86.777,99  0,99  z " />
<path transform="translate( 0, 0 )" style="stroke: hsl(242.1, 55%, 50%);" id="179"  d=" M  0,99  L  0,298.6  L  0,500  L  0,620  L  290,620  L  290,298.6  C  273.75,298.6  262.829,292.109  247.16,276.44  C  231.491,260.771  220,203.233  220,159.3  C  220,115.367  233.176,37.332  235,27.5  L  86.777,0  C  83.129,19.664  86.777,99  0,99  z " />
<path transform="translate( 0, 0 )" style="stroke: hsl(269, 55%, 50%);" id="199"  d=" M  0,99  L  0,304.675  L  0,500  L  0,620  L  290,620  L  290,304.675  C  273.75,304.675  263.087,298.14  247.311,282.364  C  231.535,266.588  220,207.284  220,162.338  C  220,117.392  233.176,37.332  235,27.5  L  86.777,0  C  83.129,19.664  86.777,99  0,99  z " />
<path transform="translate( 0, 0 )" style="stroke: hsl(295.9, 55%, 50%);" id="219"  d=" M  0,99  L  0,310.75  L  0,500  L  0,620  L  290,620  L  290,310.75  C  273.75,310.75  263.338,304.172  247.458,288.292  C  231.578,272.412  220,211.333  220,165.375  C  220,119.417  233.176,37.332  235,27.5  L  86.777,0  C  83.129,19.664  86.777,99  0,99  z " />
    </g>
    <!-- End of group #frontBlock -->
    
    <!-- Start of group #sleeveBlock -->
    <g id="sleeveBlock" >
    </g>
    <!-- End of group #sleeveBlock -->
    
    <!-- Start of group #topsleeveBlock -->
    <g id="topsleeveBlock"  transform=" translate(181.826 5)  translate(0 0) " >
        <path class="hidden" id="4"  d=" M  -176.826,0  L  102.571,0  L  102.571,700  L  -176.826,700  z " />
<path transform="translate( 0, 0 )" style="stroke: hsl(26.9, 55%, 50%);" id="20"  d=" M  38.288,700  L  89.423,410  C  97.093,366.5  99.359,240.54  99.359,180.405  C  99.359,120.27  89.423,60.135  89.423,60.135  C  89.423,60.135  55.889,0  0,0  C  -55.889,0  -81.971,60.135  -89.423,108.243  C  -96.875,156.351  -100.601,180.405  -111.779,180.405  C  -111.779,180.405  -92.689,357.093  -99.359,410  L  -132.711,674.535  z " />
<path transform="translate( -2.818, 0 )" style="stroke: hsl(53.8, 55%, 50%);" id="40"  d=" M  41.106,700  L  92.241,410  C  99.911,366.5  102.49,243.834  102.49,182.875  C  102.49,121.916  92.241,60.958  92.241,60.958  C  92.241,60.958  57.651,0  0,0  C  -57.651,0  -84.554,60.958  -92.241,109.725  C  -99.928,158.492  -103.771,182.875  -115.301,182.875  C  -115.301,182.875  -96.853,356.797  -102.49,410  L  -130.675,676.014  z " />
<path transform="translate( -5.444, 0 )" style="stroke: hsl(80.7, 55%, 50%);" id="60"  d=" M  43.732,700  L  94.867,410  C  102.537,366.5  105.408,246.422  105.408,184.816  C  105.408,123.21  94.867,61.605  94.867,61.605  C  94.867,61.605  59.292,0  0,0  C  -59.292,0  -86.961,61.606  -94.867,110.89  C  -102.773,160.174  -106.726,184.816  -118.584,184.816  C  -118.584,184.816  -100.736,356.519  -105.408,410  L  -128.768,677.406  z " />
<path transform="translate( -8.458, 0 )" style="stroke: hsl(107.6, 55%, 50%);" id="80"  d=" M  46.746,700  L  97.881,410  C  105.551,366.5  108.757,250.003  108.757,187.502  C  108.757,125.001  97.881,62.501  97.881,62.501  C  97.881,62.501  61.176,0  0,0  C  -61.176,0  -89.724,62.5  -97.881,112.501  C  -106.038,162.502  -110.116,187.502  -122.351,187.502  C  -122.351,187.502  -105.195,356.196  -108.757,410  L  -126.565,679.021  z " />
<path transform="translate( -11.305, 0 )" style="stroke: hsl(134.5, 55%, 50%);" id="100"  d=" M  49.593,700  L  100.728,410  C  108.398,366.5  111.92,252.964  111.92,189.723  C  111.92,126.482  100.728,63.241  100.728,63.241  C  100.728,63.241  62.955,0  0,0  C  -62.955,0  -92.334,63.242  -100.728,113.834  C  -109.122,164.426  -113.319,189.723  -125.91,189.723  C  -125.91,189.723  -109.41,355.887  -111.92,410  L  -124.471,680.562  z " />
<path transform="translate( -14.153, 0 )" style="stroke: hsl(161.4, 55%, 50%);" id="120"  d=" M  52.441,700  L  103.576,410  C  111.246,366.5  115.084,255.804  115.084,191.853  C  115.084,127.902  103.576,63.951  103.576,63.951  C  103.576,63.951  64.735,0  0,0  C  -64.735,0  -94.945,63.951  -103.576,115.112  C  -112.207,166.273  -116.523,191.853  -129.47,191.853  C  -129.47,191.853  -113.628,355.576  -115.084,410  L  -122.362,682.12  z " />
<path transform="translate( -17.056, 0 )" style="stroke: hsl(188.3, 55%, 50%);" id="140"  d=" M  55.344,700  L  106.479,410  C  114.149,366.5  118.31,258.678  118.31,194.008  C  118.31,129.338  106.479,64.669  106.479,64.669  C  106.479,64.669  66.549,0  0,0  C  -66.549,0  -97.606,64.669  -106.479,116.405  C  -115.352,168.141  -119.789,194.008  -133.099,194.008  C  -133.099,194.008  -117.932,355.255  -118.31,410  L  -120.199,683.724  z " />
<path transform="translate( -20.016, 0 )" style="stroke: hsl(215.2, 55%, 50%);" id="160"  d=" M  58.304,700  L  109.439,410  C  117.109,366.5  121.599,261.582  121.599,196.186  C  121.599,130.79  109.439,65.395  109.439,65.395  C  109.439,65.395  68.399,0  0,0  C  -68.399,0  -100.319,65.396  -109.439,117.712  C  -118.559,170.028  -123.119,196.186  -136.799,196.186  C  -136.799,196.186  -122.323,354.925  -121.599,410  L  -117.978,685.375  z " />
<path transform="translate( -22.908, 0 )" style="stroke: hsl(242.1, 55%, 50%);" id="180"  d=" M  61.196,700  L  112.331,410  C  120.001,366.5  124.812,264.198  124.812,198.148  C  124.812,132.098  112.331,66.049  112.331,66.049  C  112.331,66.049  70.207,0  0,0  C  -70.207,0  -102.97,66.05  -112.331,118.889  C  -121.692,171.728  -126.373,198.148  -140.414,198.148  C  -140.414,198.148  -126.616,354.599  -124.812,410  L  -115.793,687.003  z " />
<path transform="translate( -25.915, 0 )" style="stroke: hsl(269, 55%, 50%);" id="200"  d=" M  64.203,700  L  115.338,410  C  123.008,366.5  128.153,267.002  128.153,200.251  C  128.153,133.5  115.338,66.75  115.338,66.75  C  115.338,66.75  72.086,0  0,0  C  -72.086,0  -105.727,66.751  -115.338,120.151  C  -124.949,173.551  -129.755,200.251  -144.172,200.251  C  -144.172,200.251  -131.082,354.257  -128.153,410  L  -113.507,688.711  z " />
<path transform="translate( -28.91, 0 )" style="stroke: hsl(295.9, 55%, 50%);" id="220"  d=" M  67.198,700  L  118.333,410  C  126.003,366.5  131.481,269.672  131.481,202.254  C  131.481,134.836  118.333,67.418  118.333,67.418  C  118.333,67.418  73.958,0  0,0  C  -73.958,0  -108.472,67.417  -118.333,121.352  C  -128.194,175.287  -133.125,202.254  -147.916,202.254  C  -147.916,202.254  -135.535,353.915  -131.481,410  L  -111.212,690.427  z " />
    </g>
    <!-- End of group #topsleeveBlock -->
    
    <!-- Start of group #undersleeveBlock -->
    <g id="undersleeveBlock"  transform=" translate(122.66 -55.135)  translate(289.397 0) " >
        <path class="hidden" id="5"  d=" M  -117.66,60.135  L  91.709,60.135  L  91.709,700  L  -117.66,700  z " />
<path transform="translate( 0, 0 )" style="stroke: hsl(26.9, 55%, 50%);" id="21"  d=" M  38.288,700  L  89.423,410  C  97.093,366.5  83.322,240.418  79.487,180.405  C  75.652,120.392  67.067,60.135  67.067,60.135  C  51.693,119.027  -11.178,180.405  -44.711,180.405  L  -67.067,180.405  C  -67.067,180.405  -43.212,356.56  -52.163,410  L  -96.918,677.201  L  38.288,700  z " />
<path transform="translate( -2.818, 0 )" style="stroke: hsl(53.8, 55%, 50%);" id="41"  d=" M  41.106,700  L  92.241,410  C  99.911,366.5  86.011,243.701  81.992,182.875  C  77.973,122.049  69.181,60.958  69.181,60.958  C  53.395,120.625  -11.53,182.875  -46.121,182.875  L  -69.181,182.875  C  -69.181,182.875  -45.822,356.313  -53.807,410  L  -93.732,678.432  L  41.106,700  z " />
<path transform="translate( -5.444, 0 )" style="stroke: hsl(80.7, 55%, 50%);" id="61"  d=" M  43.732,700  L  94.867,410  C  102.537,366.5  88.51,246.28  84.326,184.816  C  80.142,123.352  71.15,61.605  71.15,61.605  C  55.007,121.879  -11.858,184.816  -47.433,184.816  L  -71.15,184.816  C  -71.15,184.816  -48.256,356.085  -55.339,410  L  -90.753,679.575  L  43.732,700  z " />
<path transform="translate( -8.458, 0 )" style="stroke: hsl(107.6, 55%, 50%);" id="81"  d=" M  46.746,700  L  97.881,410  C  105.551,366.5  91.395,249.849  87.005,187.502  C  82.615,125.155  73.411,62.501  73.411,62.501  C  56.834,123.619  -12.235,187.502  -48.941,187.502  L  -73.411,187.502  C  -73.411,187.502  -51.052,355.824  -57.097,410  L  -87.321,680.88  L  46.746,700  z " />
<path transform="translate( -11.305, 0 )" style="stroke: hsl(134.5, 55%, 50%);" id="101"  d=" M  49.593,700  L  100.728,410  C  108.398,366.5  94.117,252.798  89.536,189.723  C  84.955,126.648  75.546,63.241  75.546,63.241  C  58.59,125.059  -12.591,189.723  -50.364,189.723  L  -75.546,189.723  C  -75.546,189.723  -53.696,355.579  -58.758,410  L  -84.069,682.108  L  49.593,700  z " />
<path transform="translate( -14.153, 0 )" style="stroke: hsl(161.4, 55%, 50%);" id="121"  d=" M  52.441,700  L  103.576,410  C  111.246,366.5  96.84,255.626  92.068,191.853  C  87.296,128.08  77.682,63.951  77.682,63.951  C  60.327,126.431  -12.947,191.853  -51.788,191.853  L  -77.682,191.853  C  -77.682,191.853  -56.342,355.334  -60.419,410  L  -80.805,683.33  L  52.441,700  z " />
<path transform="translate( -17.056, 0 )" style="stroke: hsl(188.3, 55%, 50%);" id="141"  d=" M  55.344,700  L  106.479,410  C  114.149,366.5  99.618,258.487  94.648,194.008  C  89.678,129.529  79.859,64.669  79.859,64.669  C  62.106,127.82  -13.31,194.008  -53.239,194.008  L  -79.859,194.008  C  -79.859,194.008  -59.042,355.086  -62.113,410  L  -77.467,684.571  L  55.344,700  z " />
<path transform="translate( -20.016, 0 )" style="stroke: hsl(215.2, 55%, 50%);" id="161"  d=" M  58.304,700  L  109.439,410  C  117.109,366.5  102.455,261.377  97.279,196.186  C  92.103,130.995  82.079,65.395  82.079,65.395  C  63.946,129.231  -13.68,196.186  -54.719,196.186  L  -82.079,196.186  C  -82.079,196.186  -61.797,354.835  -63.839,410  L  -74.051,685.828  L  58.304,700  z " />
<path transform="translate( -22.908, 0 )" style="stroke: hsl(242.1, 55%, 50%);" id="181"  d=" M  61.196,700  L  112.331,410  C  120.001,366.5  105.225,263.979  99.85,198.148  C  94.475,132.317  84.248,66.049  84.248,66.049  C  65.737,130.496  -14.041,198.148  -56.165,198.148  L  -84.248,198.148  C  -84.248,198.148  -64.49,354.59  -65.526,410  L  -70.704,687.049  L  61.196,700  z " />
<path transform="translate( -25.915, 0 )" style="stroke: hsl(269, 55%, 50%);" id="201"  d=" M  64.203,700  L  115.338,410  C  123.008,366.5  108.111,266.768  102.523,200.251  C  96.935,133.734  86.503,66.75  86.503,66.75  C  67.585,131.848  -14.417,200.251  -57.669,200.251  L  -86.504,200.251  C  -86.504,200.251  -67.295,354.338  -67.281,410  L  -67.21,688.312  L  64.203,700  z " />
<path transform="translate( -28.91, 0 )" style="stroke: hsl(295.9, 55%, 50%);" id="221"  d=" M  67.198,700  L  118.333,410  C  126.003,366.5  110.985,269.422  105.185,202.254  C  99.385,135.086  88.75,67.418  88.75,67.418  C  69.46,133.144  -14.792,202.254  -59.167,202.254  L  -88.75,202.254  C  -88.75,202.254  -70.09,354.087  -69.028,410  L  -63.72,689.562  L  67.198,700  z " />
    </g>
    <!-- End of group #undersleeveBlock -->
    
    <!-- Start of group #sampler-backBlock -->
    <g id="sampler-backBlock" >
    </g>
    <!-- End of group #sampler-backBlock -->
    
    <!-- Start of group #sampler-frontBlock -->
    <g id="sampler-frontBlock" >
    </g>
    <!-- End of group #sampler-frontBlock -->
    
    <!-- Start of group #sampler-topsleeveBlock -->
    <g id="sampler-topsleeveBlock" >
    </g>
    <!-- End of group #sampler-topsleeveBlock -->
    
    <!-- Start of group #sampler-undersleeveBlock -->
    <g id="sampler-undersleeveBlock" >
    </g>
    <!-- End of group #sampler-undersleeveBlock -->
</g>
<!-- End of group #patternContainer -->

</svg>

