<?xml version="1.0" encoding="UTF-8" standalone="no"?>
<svg
    xmlns="http://www.w3.org/2000/svg"
    xmlns:svg="http://www.w3.org/2000/svg"
    xmlns:xlink="http://www.w3.org/1999/xlink"
    xmlns:freesewing="http://freesewing.org/namespaces/freesewing" viewBox ="0 0 1137 710"
    width ="1137mm"
    height ="710mm"
    freesewing:version ="1.5.0"
    freesewing:origin ="joost.core.freesewing.org" 
>

<style type="text/css">
    <![CDATA[
    path { fill: none; stroke: #000000; stroke-opacity:1; stroke-width: 0.5; stroke-miterlimit:4; stroke-dashoffset:0; stroke-linecap:round; stroke-linejoin:round; }
    path.hidden { fill: none; stroke: none; }]]>
</style>


<!-- Start of group #patternContainer -->
<g id="patternContainer" >
    
    <!-- Start of group #backBlock -->
    <g id="backBlock"  transform=" translate(5 5)  translate(496.624 0) " >
        <path class="hidden" id="2"  d=" M  0,0  L  310,0  L  310,620  L  0,620  z " />
<path transform="translate( 0, 0 )" style="stroke: hsl(26.9, 55%, 50%);" id="18"  d=" M  0,20  L  0,290.5  L  0,500  L  0,620  L  280,620  L  280,290.5  C  266.25,290.5  258.374,284.774  244.55,270.95  C  230.726,257.126  225,197.833  225,155.25  C  225,112.667  233.176,37.332  235,27.5  L  86.777,0  C  83.129,19.664  0,20  0,20  z " />
<path transform="translate( 0, 0 )" style="stroke: hsl(53.8, 55%, 50%);" id="38"  d=" M  0,20  L  0,290.5  L  0,500  L  0,620  L  283,620  L  283,290.5  C  268.5,290.5  259.647,284.555  245.296,270.204  C  230.945,255.853  225,197.833  225,155.25  C  225,112.667  233.176,37.332  235,27.5  L  86.777,0  C  83.129,19.664  0,20  0,20  z " />
<path transform="translate( 0, 0 )" style="stroke: hsl(80.7, 55%, 50%);" id="58"  d=" M  0,20  L  0,290.5  L  0,500  L  0,620  L  286,620  L  286,290.5  C  270.75,290.5  260.882,284.344  246.019,269.481  C  231.156,254.618  225,197.833  225,155.25  C  225,112.667  233.176,37.332  235,27.5  L  86.777,0  C  83.129,19.664  0,20  0,20  z " />
<path transform="translate( 0, 0 )" style="stroke: hsl(107.6, 55%, 50%);" id="78"  d=" M  0,20  L  0,290.5  L  0,500  L  0,620  L  289,620  L  289,290.5  C  273,290.5  262.082,284.138  246.722,268.778  C  231.362,253.418  225,197.833  225,155.25  C  225,112.667  233.176,37.332  235,27.5  L  86.777,0  C  83.129,19.664  0,20  0,20  z " />
<path transform="translate( 0, 0 )" style="stroke: hsl(134.5, 55%, 50%);" id="98"  d=" M  0,20  L  0,290.5  L  0,500  L  0,620  L  292,620  L  292,290.5  C  275.25,290.5  263.244,283.938  247.403,268.097  C  231.562,252.256  225,197.833  225,155.25  C  225,112.667  233.176,37.332  235,27.5  L  86.777,0  C  83.129,19.664  0,20  0,20  z " />
<path transform="translate( 0, 0 )" style="stroke: hsl(161.4, 55%, 50%);" id="118"  d=" M  0,20  L  0,290.5  L  0,500  L  0,620  L  295,620  L  295,290.5  C  277.5,290.5  264.373,283.745  248.064,267.436  C  231.755,251.127  225,197.833  225,155.25  C  225,112.667  233.176,37.332  235,27.5  L  86.777,0  C  83.129,19.664  0,20  0,20  z " />
<path transform="translate( 0, 0 )" style="stroke: hsl(188.3, 55%, 50%);" id="138"  d=" M  0,20  L  0,290.5  L  0,500  L  0,620  L  298,620  L  298,290.5  C  279.75,290.5  265.469,283.557  248.706,266.794  C  231.943,250.031  225,197.833  225,155.25  C  225,112.667  233.176,37.332  235,27.5  L  86.777,0  C  83.129,19.664  0,20  0,20  z " />
<path transform="translate( 0, 0 )" style="stroke: hsl(215.2, 55%, 50%);" id="158"  d=" M  0,20  L  0,290.5  L  0,500  L  0,620  L  301,620  L  301,290.5  C  282,290.5  266.532,283.374  249.329,266.171  C  232.126,248.968  225,197.833  225,155.25  C  225,112.667  233.176,37.332  235,27.5  L  86.777,0  C  83.129,19.664  0,20  0,20  z " />
<path transform="translate( 0, 0 )" style="stroke: hsl(242.1, 55%, 50%);" id="178"  d=" M  0,20  L  0,290.5  L  0,500  L  0,620  L  304,620  L  304,290.5  C  284.25,290.5  267.567,283.197  249.935,265.565  C  232.303,247.933  225,197.833  225,155.25  C  225,112.667  233.176,37.332  235,27.5  L  86.777,0  C  83.129,19.664  0,20  0,20  z " />
<path transform="translate( 0, 0 )" style="stroke: hsl(269, 55%, 50%);" id="198"  d=" M  0,20  L  0,290.5  L  0,500  L  0,620  L  307,620  L  307,290.5  C  286.5,290.5  268.572,283.024  250.524,264.976  C  232.476,246.928  225,197.833  225,155.25  C  225,112.667  233.176,37.332  235,27.5  L  86.777,0  C  83.129,19.664  0,20  0,20  z " />
<path transform="translate( 0, 0 )" style="stroke: hsl(295.9, 55%, 50%);" id="218"  d=" M  0,20  L  0,290.5  L  0,500  L  0,620  L  310,620  L  310,290.5  C  288.75,290.5  269.552,282.856  251.098,264.402  C  232.644,245.948  225,197.833  225,155.25  C  225,112.667  233.176,37.332  235,27.5  L  86.777,0  C  83.129,19.664  0,20  0,20  z " />
    </g>
    <!-- End of group #backBlock -->
    
    <!-- Start of group #frontBlock -->
    <g id="frontBlock"  transform=" translate(5 5)  translate(816.624 0) " >
        <path class="hidden" id="3"  d=" M  0,0  L  310,0  L  310,620  L  0,620  z " />
<path transform="translate( 0, 0 )" style="stroke: hsl(26.9, 55%, 50%);" id="19"  d=" M  0,99  L  0,290.5  L  0,500  L  0,620  L  280,620  L  280,290.5  C  266.25,290.5  258.374,284.774  244.55,270.95  C  230.726,257.126  220,197.833  220,155.25  C  220,112.667  233.176,37.332  235,27.5  L  86.777,0  C  83.129,19.664  86.777,99  0,99  z " />
<path transform="translate( 0, 0 )" style="stroke: hsl(53.8, 55%, 50%);" id="39"  d=" M  0,99  L  0,290.5  L  0,500  L  0,620  L  283,620  L  283,290.5  C  268.5,290.5  259.647,284.555  245.296,270.204  C  230.945,255.853  220,197.833  220,155.25  C  220,112.667  233.176,37.332  235,27.5  L  86.777,0  C  83.129,19.664  86.777,99  0,99  z " />
<path transform="translate( 0, 0 )" style="stroke: hsl(80.7, 55%, 50%);" id="59"  d=" M  0,99  L  0,290.5  L  0,500  L  0,620  L  286,620  L  286,290.5  C  270.75,290.5  260.882,284.344  246.019,269.481  C  231.156,254.618  220,197.833  220,155.25  C  220,112.667  233.176,37.332  235,27.5  L  86.777,0  C  83.129,19.664  86.777,99  0,99  z " />
<path transform="translate( 0, 0 )" style="stroke: hsl(107.6, 55%, 50%);" id="79"  d=" M  0,99  L  0,290.5  L  0,500  L  0,620  L  289,620  L  289,290.5  C  273,290.5  262.082,284.138  246.722,268.778  C  231.362,253.418  220,197.833  220,155.25  C  220,112.667  233.176,37.332  235,27.5  L  86.777,0  C  83.129,19.664  86.777,99  0,99  z " />
<path transform="translate( 0, 0 )" style="stroke: hsl(134.5, 55%, 50%);" id="99"  d=" M  0,99  L  0,290.5  L  0,500  L  0,620  L  292,620  L  292,290.5  C  275.25,290.5  263.244,283.938  247.403,268.097  C  231.562,252.256  220,197.833  220,155.25  C  220,112.667  233.176,37.332  235,27.5  L  86.777,0  C  83.129,19.664  86.777,99  0,99  z " />
<path transform="translate( 0, 0 )" style="stroke: hsl(161.4, 55%, 50%);" id="119"  d=" M  0,99  L  0,290.5  L  0,500  L  0,620  L  295,620  L  295,290.5  C  277.5,290.5  264.373,283.745  248.064,267.436  C  231.755,251.127  220,197.833  220,155.25  C  220,112.667  233.176,37.332  235,27.5  L  86.777,0  C  83.129,19.664  86.777,99  0,99  z " />
<path transform="translate( 0, 0 )" style="stroke: hsl(188.3, 55%, 50%);" id="139"  d=" M  0,99  L  0,290.5  L  0,500  L  0,620  L  298,620  L  298,290.5  C  279.75,290.5  265.469,283.557  248.706,266.794  C  231.943,250.031  220,197.833  220,155.25  C  220,112.667  233.176,37.332  235,27.5  L  86.777,0  C  83.129,19.664  86.777,99  0,99  z " />
<path transform="translate( 0, 0 )" style="stroke: hsl(215.2, 55%, 50%);" id="159"  d=" M  0,99  L  0,290.5  L  0,500  L  0,620  L  301,620  L  301,290.5  C  282,290.5  266.532,283.374  249.329,266.171  C  232.126,248.968  220,197.833  220,155.25  C  220,112.667  233.176,37.332  235,27.5  L  86.777,0  C  83.129,19.664  86.777,99  0,99  z " />
<path transform="translate( 0, 0 )" style="stroke: hsl(242.1, 55%, 50%);" id="179"  d=" M  0,99  L  0,290.5  L  0,500  L  0,620  L  304,620  L  304,290.5  C  284.25,290.5  267.567,283.197  249.935,265.565  C  232.303,247.933  220,197.833  220,155.25  C  220,112.667  233.176,37.332  235,27.5  L  86.777,0  C  83.129,19.664  86.777,99  0,99  z " />
<path transform="translate( 0, 0 )" style="stroke: hsl(269, 55%, 50%);" id="199"  d=" M  0,99  L  0,290.5  L  0,500  L  0,620  L  307,620  L  307,290.5  C  286.5,290.5  268.572,283.024  250.524,264.976  C  232.476,246.928  220,197.833  220,155.25  C  220,112.667  233.176,37.332  235,27.5  L  86.777,0  C  83.129,19.664  86.777,99  0,99  z " />
<path transform="translate( 0, 0 )" style="stroke: hsl(295.9, 55%, 50%);" id="219"  d=" M  0,99  L  0,290.5  L  0,500  L  0,620  L  310,620  L  310,290.5  C  288.75,290.5  269.552,282.856  251.098,264.402  C  232.644,245.948  220,197.833  220,155.25  C  220,112.667  233.176,37.332  235,27.5  L  86.777,0  C  83.129,19.664  86.777,99  0,99  z " />
    </g>
    <!-- End of group #frontBlock -->
    
    <!-- Start of group #sleeveBlock -->
    <g id="sleeveBlock" >
    </g>
    <!-- End of group #sleeveBlock -->
    
    <!-- Start of group #topsleeveBlock -->
    <g id="topsleeveBlock"  transform=" translate(159.442 5)  translate(0 0) " >
        <path class="hidden" id="4"  d=" M  -154.442,0  L  118.032,0  L  118.032,700  L  -154.442,700  z " />
<path transform="translate( 0, 0 )" style="stroke: hsl(26.9, 55%, 50%);" id="20"  d=" M  54.075,700  L  105.21,410  C  112.88,366.5  116.9,257.422  116.9,193.066  C  116.9,128.71  105.21,64.355  105.21,64.355  C  105.21,64.355  65.756,0  0,0  C  -65.756,0  -96.443,64.356  -105.21,115.84  C  -113.977,167.324  -118.361,193.066  -131.512,193.066  C  -131.512,193.066  -116.051,355.396  -116.9,410  L  -121.146,683.021  z " />
<path transform="translate( -0.948, 0 )" style="stroke: hsl(53.8, 55%, 50%);" id="40"  d=" M  55.023,700  L  106.158,410  C  113.828,366.5  117.953,258.363  117.953,193.772  C  117.953,129.181  106.158,64.591  106.158,64.591  C  106.158,64.591  66.349,0  0,0  C  -66.349,0  -97.311,64.591  -106.158,116.263  C  -115.005,167.935  -119.428,193.772  -132.697,193.772  C  -132.697,193.772  -117.456,355.291  -117.953,410  L  -120.439,683.546  z " />
<path transform="translate( -1.852, 0 )" style="stroke: hsl(80.7, 55%, 50%);" id="60"  d=" M  55.927,700  L  107.062,410  C  114.732,366.5  118.958,259.15  118.958,194.362  C  118.958,129.574  107.062,64.787  107.062,64.787  C  107.062,64.787  66.914,0  0,0  C  -66.914,0  -98.14,64.787  -107.062,116.617  C  -115.984,168.447  -120.445,194.362  -133.827,194.362  C  -133.827,194.362  -118.797,355.19  -118.958,410  L  -119.762,684.048  z " />
<path transform="translate( -2.913, 0 )" style="stroke: hsl(107.6, 55%, 50%);" id="80"  d=" M  56.988,700  L  108.123,410  C  115.793,366.5  120.137,260.312  120.137,195.234  C  120.137,130.156  108.123,65.078  108.123,65.078  C  108.123,65.078  67.577,0  0,0  C  -67.577,0  -99.112,65.077  -108.123,117.14  C  -117.134,169.203  -121.639,195.234  -135.154,195.234  C  -135.154,195.234  -120.371,355.072  -120.137,410  L  -118.968,684.639  z " />
<path transform="translate( -3.909, 0 )" style="stroke: hsl(134.5, 55%, 50%);" id="100"  d=" M  57.984,700  L  109.119,410  C  116.789,366.5  121.243,261.264  121.243,195.948  C  121.243,130.632  109.119,65.316  109.119,65.316  C  109.119,65.316  68.199,0  0,0  C  -68.199,0  -100.026,65.316  -109.119,117.569  C  -118.212,169.822  -122.759,195.948  -136.399,195.948  C  -136.399,195.948  -121.848,354.961  -121.243,410  L  -118.219,685.195  z " />
<path transform="translate( -4.799, 0 )" style="stroke: hsl(161.4, 55%, 50%);" id="120"  d=" M  58.874,700  L  110.009,410  C  117.679,366.5  122.232,261.9  122.232,196.425  C  122.232,130.95  110.009,65.475  110.009,65.475  C  110.009,65.475  68.756,0  0,0  C  -68.756,0  -100.842,65.475  -110.009,117.855  C  -119.176,170.235  -123.76,196.425  -137.511,196.425  C  -137.511,196.425  -123.169,354.861  -122.232,410  L  -117.549,685.695  z " />
<path transform="translate( -5.909, 0 )" style="stroke: hsl(188.3, 55%, 50%);" id="140"  d=" M  59.984,700  L  111.119,410  C  118.789,366.5  123.466,263.075  123.466,197.306  C  123.466,131.537  111.119,65.769  111.119,65.769  C  111.119,65.769  69.449,0  0,0  C  -69.449,0  -101.859,65.77  -111.119,118.384  C  -120.379,170.998  -125.009,197.306  -138.899,197.306  C  -138.899,197.306  -124.817,354.736  -123.466,410  L  -116.711,686.319  z " />
<path transform="translate( -7.014, 0 )" style="stroke: hsl(215.2, 55%, 50%);" id="160"  d=" M  61.089,700  L  112.224,410  C  119.894,366.5  124.693,264.198  124.693,198.148  C  124.693,132.098  112.224,66.049  112.224,66.049  C  112.224,66.049  70.14,0  0,0  C  -70.14,0  -102.872,66.049  -112.224,118.889  C  -121.576,171.729  -126.252,198.148  -140.28,198.148  C  -140.28,198.148  -126.457,354.611  -124.693,410  L  -115.875,686.943  z " />
<path transform="translate( -7.821, 0 )" style="stroke: hsl(242.1, 55%, 50%);" id="180"  d=" M  61.896,700  L  113.031,410  C  120.701,366.5  125.59,264.519  125.59,198.389  C  125.59,132.259  113.031,66.13  113.031,66.13  C  113.031,66.13  70.644,0  0,0  C  -70.644,0  -103.612,66.129  -113.031,119.033  C  -122.45,171.937  -127.16,198.389  -141.289,198.389  C  -141.289,198.389  -127.656,354.521  -125.59,410  L  -115.262,687.399  z " />
<path transform="translate( -9.104, 0 )" style="stroke: hsl(269, 55%, 50%);" id="200"  d=" M  63.179,700  L  114.314,410  C  121.984,366.5  127.016,266.03  127.016,199.522  C  127.016,133.014  114.314,66.507  114.314,66.507  C  114.314,66.507  71.446,0  0,0  C  -71.446,0  -104.788,66.507  -114.314,119.713  C  -123.84,172.919  -128.603,199.522  -142.892,199.522  C  -142.892,199.522  -129.562,354.374  -127.016,410  L  -114.287,688.128  z " />
<path transform="translate( -10.191, 0 )" style="stroke: hsl(295.9, 55%, 50%);" id="220"  d=" M  64.266,700  L  115.401,410  C  123.071,366.5  128.223,267.002  128.223,200.251  C  128.223,133.5  115.401,66.75  115.401,66.75  C  115.401,66.75  72.126,0  0,0  C  -72.126,0  -105.784,66.751  -115.401,120.151  C  -125.018,173.551  -129.826,200.251  -144.251,200.251  C  -144.251,200.251  -131.176,354.251  -128.223,410  L  -113.458,688.746  z " />
    </g>
    <!-- End of group #topsleeveBlock -->
    
    <!-- Start of group #undersleeveBlock -->
    <g id="undersleeveBlock"  transform=" translate(101.742 -59.355)  translate(282.474 0) " >
        <path class="hidden" id="5"  d=" M  -96.742,64.355  L  107.408,64.355  L  107.408,700  L  -96.742,700  z " />
<path transform="translate( 0, 0 )" style="stroke: hsl(26.9, 55%, 50%);" id="21"  d=" M  54.075,700  L  105.21,410  C  112.88,366.5  98.403,257.236  93.52,193.066  C  88.637,128.896  78.907,64.355  78.907,64.355  C  61.334,127.215  -13.151,193.066  -52.605,193.066  L  -78.908,193.066  C  -78.908,193.066  -57.862,355.194  -61.373,410  L  -78.928,684.029  L  54.075,700  z " />
<path transform="translate( -0.948, 0 )" style="stroke: hsl(53.8, 55%, 50%);" id="41"  d=" M  55.023,700  L  106.158,410  C  113.828,366.5  99.311,258.173  94.363,193.772  C  89.415,129.371  79.618,64.591  79.618,64.591  C  61.902,127.667  -13.27,193.772  -53.079,193.772  L  -79.619,193.772  C  -79.619,193.772  -58.744,355.113  -61.926,410  L  -77.836,684.434  L  55.023,700  z " />
<path transform="translate( -1.852, 0 )" style="stroke: hsl(80.7, 55%, 50%);" id="61"  d=" M  55.927,700  L  107.062,410  C  114.732,366.5  100.174,258.956  95.166,194.362  C  90.158,129.768  80.296,64.787  80.296,64.787  C  62.466,128.047  -13.383,194.362  -53.531,194.362  L  -80.297,194.362  C  -80.297,194.362  -59.584,355.037  -62.453,410  L  -76.796,684.818  L  55.927,700  z " />
<path transform="translate( -2.913, 0 )" style="stroke: hsl(107.6, 55%, 50%);" id="81"  d=" M  56.988,700  L  108.123,410  C  115.793,366.5  101.193,260.113  96.109,195.234  C  91.025,130.355  81.092,65.078  81.092,65.078  C  63.123,128.614  -13.515,195.234  -54.061,195.234  L  -81.092,195.234  C  -81.092,195.234  -60.572,354.946  -63.072,410  L  -75.571,685.269  L  56.988,700  z " />
<path transform="translate( -3.909, 0 )" style="stroke: hsl(134.5, 55%, 50%);" id="101"  d=" M  57.984,700  L  109.119,410  C  116.789,366.5  102.148,261.06  96.995,195.948  C  91.842,130.836  81.839,65.316  81.839,65.316  C  63.719,129.07  -13.64,195.948  -54.559,195.948  L  -81.839,195.948  C  -81.839,195.948  -61.499,354.861  -63.653,410  L  -74.421,685.692  L  57.984,700  z " />
<path transform="translate( -4.799, 0 )" style="stroke: hsl(161.4, 55%, 50%);" id="121"  d=" M  58.874,700  L  110.009,410  C  117.679,366.5  102.996,261.692  97.786,196.425  C  92.576,131.158  82.507,65.475  82.507,65.475  C  64.296,129.381  -13.751,196.425  -55.005,196.425  L  -82.507,196.425  C  -82.507,196.425  -62.328,354.786  -64.172,410  L  -73.392,686.069  L  58.874,700  z " />
<path transform="translate( -5.909, 0 )" style="stroke: hsl(188.3, 55%, 50%);" id="141"  d=" M  59.984,700  L  111.119,410  C  118.789,366.5  104.062,262.862  98.772,197.306  C  93.482,131.75  83.339,65.769  83.339,65.769  C  64.97,129.948  -13.89,197.306  -55.559,197.306  L  -83.339,197.306  C  -83.339,197.306  -63.361,354.692  -64.819,410  L  -72.108,686.538  L  59.984,700  z " />
<path transform="translate( -7.014, 0 )" style="stroke: hsl(215.2, 55%, 50%);" id="161"  d=" M  61.089,700  L  112.224,410  C  119.894,366.5  105.125,263.979  99.755,198.148  C  94.385,132.317  84.168,66.049  84.168,66.049  C  65.656,130.494  -14.028,198.148  -56.112,198.148  L  -84.168,198.148  C  -84.168,198.148  -64.391,354.599  -65.464,410  L  -70.827,687.004  L  61.089,700  z " />
<path transform="translate( -7.821, 0 )" style="stroke: hsl(242.1, 55%, 50%);" id="181"  d=" M  61.896,700  L  113.031,410  C  120.701,366.5  105.888,264.297  100.472,198.389  C  95.056,132.481  84.773,66.13  84.773,66.13  C  66.184,130.648  -14.129,198.389  -56.515,198.389  L  -84.773,198.389  C  -84.773,198.389  -65.144,354.531  -65.935,410  L  -69.892,687.344  L  61.896,700  z " />
<path transform="translate( -9.104, 0 )" style="stroke: hsl(269, 55%, 50%);" id="201"  d=" M  63.179,700  L  114.314,410  C  121.984,366.5  107.126,265.801  101.612,199.522  C  96.098,133.243  85.735,66.507  85.735,66.507  C  66.964,131.382  -14.289,199.522  -57.157,199.522  L  -85.736,199.522  C  -85.736,199.522  -66.339,354.423  -66.683,410  L  -68.401,687.883  L  63.179,700  z " />
<path transform="translate( -10.191, 0 )" style="stroke: hsl(295.9, 55%, 50%);" id="221"  d=" M  64.266,700  L  115.401,410  C  123.071,366.5  108.17,266.767  102.579,200.251  C  96.988,133.735  86.551,66.75  86.551,66.75  C  67.626,131.848  -14.425,200.251  -57.701,200.251  L  -86.551,200.251  C  -86.551,200.251  -67.353,354.332  -67.317,410  L  -67.138,688.339  L  64.266,700  z " />
    </g>
    <!-- End of group #undersleeveBlock -->
    
    <!-- Start of group #sampler-backBlock -->
    <g id="sampler-backBlock" >
    </g>
    <!-- End of group #sampler-backBlock -->
    
    <!-- Start of group #sampler-frontBlock -->
    <g id="sampler-frontBlock" >
    </g>
    <!-- End of group #sampler-frontBlock -->
    
    <!-- Start of group #sampler-topsleeveBlock -->
    <g id="sampler-topsleeveBlock" >
    </g>
    <!-- End of group #sampler-topsleeveBlock -->
    
    <!-- Start of group #sampler-undersleeveBlock -->
    <g id="sampler-undersleeveBlock" >
    </g>
    <!-- End of group #sampler-undersleeveBlock -->
</g>
<!-- End of group #patternContainer -->

</svg>

