<?xml version="1.0" encoding="UTF-8" standalone="no"?>
<svg
    xmlns="http://www.w3.org/2000/svg"
    xmlns:svg="http://www.w3.org/2000/svg"
    xmlns:xlink="http://www.w3.org/1999/xlink"
    xmlns:freesewing="http://freesewing.org/namespaces/freesewing" viewBox ="0 0 1068 750"
    width ="1068mm"
    height ="750mm"
    freesewing:version ="1.5.0"
    freesewing:origin ="joost.core.freesewing.org" 
>

<style type="text/css">
    <![CDATA[
    path { fill: none; stroke: #000000; stroke-opacity:1; stroke-width: 0.5; stroke-miterlimit:4; stroke-dashoffset:0; stroke-linecap:round; stroke-linejoin:round; }
    path.hidden { fill: none; stroke: none; }]]>
</style>


<!-- Start of group #patternContainer -->
<g id="patternContainer" >
    
    <!-- Start of group #backBlock -->
    <g id="backBlock"  transform=" translate(5 165)  translate(0 0) " >
        <path class="hidden" id="2"  d=" M  0,-160  L  290,-160  L  290,580  L  0,580  z " />
<path transform="translate( 0, 0 )" style="stroke: hsl(26.9, 55%, 50%);" id="18"  d=" M  0,20  L  0,290.5  L  0,500  L  0,580  L  290,580  L  290,290.5  C  273.75,290.5  262.473,284.071  246.951,268.549  C  231.429,253.027  225,197.833  225,155.25  C  225,112.667  233.176,37.332  235,27.5  L  86.777,0  C  83.129,19.664  0,20  0,20  z " />
<path transform="translate( 0, -16 )" style="stroke: hsl(53.8, 55%, 50%);" id="38"  d=" M  0,20  L  0,290.5  L  0,500  L  0,596  L  290,596  L  290,290.5  C  273.75,290.5  262.473,284.071  246.951,268.549  C  231.429,253.027  225,197.833  225,155.25  C  225,112.667  233.176,37.332  235,27.5  L  86.777,0  C  83.129,19.664  0,20  0,20  z " />
<path transform="translate( 0, -32 )" style="stroke: hsl(80.7, 55%, 50%);" id="58"  d=" M  0,20  L  0,290.5  L  0,500  L  0,612  L  290,612  L  290,290.5  C  273.75,290.5  262.473,284.071  246.951,268.549  C  231.429,253.027  225,197.833  225,155.25  C  225,112.667  233.176,37.332  235,27.5  L  86.777,0  C  83.129,19.664  0,20  0,20  z " />
<path transform="translate( 0, -48 )" style="stroke: hsl(107.6, 55%, 50%);" id="78"  d=" M  0,20  L  0,290.5  L  0,500  L  0,628  L  290,628  L  290,290.5  C  273.75,290.5  262.473,284.071  246.951,268.549  C  231.429,253.027  225,197.833  225,155.25  C  225,112.667  233.176,37.332  235,27.5  L  86.777,0  C  83.129,19.664  0,20  0,20  z " />
<path transform="translate( 0, -64 )" style="stroke: hsl(134.5, 55%, 50%);" id="98"  d=" M  0,20  L  0,290.5  L  0,500  L  0,644  L  290,644  L  290,290.5  C  273.75,290.5  262.473,284.071  246.951,268.549  C  231.429,253.027  225,197.833  225,155.25  C  225,112.667  233.176,37.332  235,27.5  L  86.777,0  C  83.129,19.664  0,20  0,20  z " />
<path transform="translate( 0, -80 )" style="stroke: hsl(161.4, 55%, 50%);" id="118"  d=" M  0,20  L  0,290.5  L  0,500  L  0,660  L  290,660  L  290,290.5  C  273.75,290.5  262.473,284.071  246.951,268.549  C  231.429,253.027  225,197.833  225,155.25  C  225,112.667  233.176,37.332  235,27.5  L  86.777,0  C  83.129,19.664  0,20  0,20  z " />
<path transform="translate( 0, -96 )" style="stroke: hsl(188.3, 55%, 50%);" id="138"  d=" M  0,20  L  0,290.5  L  0,500  L  0,676  L  290,676  L  290,290.5  C  273.75,290.5  262.473,284.071  246.951,268.549  C  231.429,253.027  225,197.833  225,155.25  C  225,112.667  233.176,37.332  235,27.5  L  86.777,0  C  83.129,19.664  0,20  0,20  z " />
<path transform="translate( 0, -112 )" style="stroke: hsl(215.2, 55%, 50%);" id="158"  d=" M  0,20  L  0,290.5  L  0,500  L  0,692  L  290,692  L  290,290.5  C  273.75,290.5  262.473,284.071  246.951,268.549  C  231.429,253.027  225,197.833  225,155.25  C  225,112.667  233.176,37.332  235,27.5  L  86.777,0  C  83.129,19.664  0,20  0,20  z " />
<path transform="translate( 0, -128 )" style="stroke: hsl(242.1, 55%, 50%);" id="178"  d=" M  0,20  L  0,290.5  L  0,500  L  0,708  L  290,708  L  290,290.5  C  273.75,290.5  262.473,284.071  246.951,268.549  C  231.429,253.027  225,197.833  225,155.25  C  225,112.667  233.176,37.332  235,27.5  L  86.777,0  C  83.129,19.664  0,20  0,20  z " />
<path transform="translate( 0, -144 )" style="stroke: hsl(269, 55%, 50%);" id="198"  d=" M  0,20  L  0,290.5  L  0,500  L  0,724  L  290,724  L  290,290.5  C  273.75,290.5  262.473,284.071  246.951,268.549  C  231.429,253.027  225,197.833  225,155.25  C  225,112.667  233.176,37.332  235,27.5  L  86.777,0  C  83.129,19.664  0,20  0,20  z " />
<path transform="translate( 0, -160 )" style="stroke: hsl(295.9, 55%, 50%);" id="218"  d=" M  0,20  L  0,290.5  L  0,500  L  0,740  L  290,740  L  290,290.5  C  273.75,290.5  262.473,284.071  246.951,268.549  C  231.429,253.027  225,197.833  225,155.25  C  225,112.667  233.176,37.332  235,27.5  L  86.777,0  C  83.129,19.664  0,20  0,20  z " />
    </g>
    <!-- End of group #backBlock -->
    
    <!-- Start of group #frontBlock -->
    <g id="frontBlock"  transform=" translate(5 165)  translate(300 0) " >
        <path class="hidden" id="3"  d=" M  0,-160  L  290,-160  L  290,580  L  0,580  z " />
<path transform="translate( 0, 0 )" style="stroke: hsl(26.9, 55%, 50%);" id="19"  d=" M  0,99  L  0,290.5  L  0,500  L  0,580  L  290,580  L  290,290.5  C  273.75,290.5  262.473,284.071  246.951,268.549  C  231.429,253.027  220,197.833  220,155.25  C  220,112.667  233.176,37.332  235,27.5  L  86.777,0  C  83.129,19.664  86.777,99  0,99  z " />
<path transform="translate( 0, -16 )" style="stroke: hsl(53.8, 55%, 50%);" id="39"  d=" M  0,99  L  0,290.5  L  0,500  L  0,596  L  290,596  L  290,290.5  C  273.75,290.5  262.473,284.071  246.951,268.549  C  231.429,253.027  220,197.833  220,155.25  C  220,112.667  233.176,37.332  235,27.5  L  86.777,0  C  83.129,19.664  86.777,99  0,99  z " />
<path transform="translate( 0, -32 )" style="stroke: hsl(80.7, 55%, 50%);" id="59"  d=" M  0,99  L  0,290.5  L  0,500  L  0,612  L  290,612  L  290,290.5  C  273.75,290.5  262.473,284.071  246.951,268.549  C  231.429,253.027  220,197.833  220,155.25  C  220,112.667  233.176,37.332  235,27.5  L  86.777,0  C  83.129,19.664  86.777,99  0,99  z " />
<path transform="translate( 0, -48 )" style="stroke: hsl(107.6, 55%, 50%);" id="79"  d=" M  0,99  L  0,290.5  L  0,500  L  0,628  L  290,628  L  290,290.5  C  273.75,290.5  262.473,284.071  246.951,268.549  C  231.429,253.027  220,197.833  220,155.25  C  220,112.667  233.176,37.332  235,27.5  L  86.777,0  C  83.129,19.664  86.777,99  0,99  z " />
<path transform="translate( 0, -64 )" style="stroke: hsl(134.5, 55%, 50%);" id="99"  d=" M  0,99  L  0,290.5  L  0,500  L  0,644  L  290,644  L  290,290.5  C  273.75,290.5  262.473,284.071  246.951,268.549  C  231.429,253.027  220,197.833  220,155.25  C  220,112.667  233.176,37.332  235,27.5  L  86.777,0  C  83.129,19.664  86.777,99  0,99  z " />
<path transform="translate( 0, -80 )" style="stroke: hsl(161.4, 55%, 50%);" id="119"  d=" M  0,99  L  0,290.5  L  0,500  L  0,660  L  290,660  L  290,290.5  C  273.75,290.5  262.473,284.071  246.951,268.549  C  231.429,253.027  220,197.833  220,155.25  C  220,112.667  233.176,37.332  235,27.5  L  86.777,0  C  83.129,19.664  86.777,99  0,99  z " />
<path transform="translate( 0, -96 )" style="stroke: hsl(188.3, 55%, 50%);" id="139"  d=" M  0,99  L  0,290.5  L  0,500  L  0,676  L  290,676  L  290,290.5  C  273.75,290.5  262.473,284.071  246.951,268.549  C  231.429,253.027  220,197.833  220,155.25  C  220,112.667  233.176,37.332  235,27.5  L  86.777,0  C  83.129,19.664  86.777,99  0,99  z " />
<path transform="translate( 0, -112 )" style="stroke: hsl(215.2, 55%, 50%);" id="159"  d=" M  0,99  L  0,290.5  L  0,500  L  0,692  L  290,692  L  290,290.5  C  273.75,290.5  262.473,284.071  246.951,268.549  C  231.429,253.027  220,197.833  220,155.25  C  220,112.667  233.176,37.332  235,27.5  L  86.777,0  C  83.129,19.664  86.777,99  0,99  z " />
<path transform="translate( 0, -128 )" style="stroke: hsl(242.1, 55%, 50%);" id="179"  d=" M  0,99  L  0,290.5  L  0,500  L  0,708  L  290,708  L  290,290.5  C  273.75,290.5  262.473,284.071  246.951,268.549  C  231.429,253.027  220,197.833  220,155.25  C  220,112.667  233.176,37.332  235,27.5  L  86.777,0  C  83.129,19.664  86.777,99  0,99  z " />
<path transform="translate( 0, -144 )" style="stroke: hsl(269, 55%, 50%);" id="199"  d=" M  0,99  L  0,290.5  L  0,500  L  0,724  L  290,724  L  290,290.5  C  273.75,290.5  262.473,284.071  246.951,268.549  C  231.429,253.027  220,197.833  220,155.25  C  220,112.667  233.176,37.332  235,27.5  L  86.777,0  C  83.129,19.664  86.777,99  0,99  z " />
<path transform="translate( 0, -160 )" style="stroke: hsl(295.9, 55%, 50%);" id="219"  d=" M  0,99  L  0,290.5  L  0,500  L  0,740  L  290,740  L  290,290.5  C  273.75,290.5  262.473,284.071  246.951,268.549  C  231.429,253.027  220,197.833  220,155.25  C  220,112.667  233.176,37.332  235,27.5  L  86.777,0  C  83.129,19.664  86.777,99  0,99  z " />
    </g>
    <!-- End of group #frontBlock -->
    
    <!-- Start of group #sleeveBlock -->
    <g id="sleeveBlock" >
    </g>
    <!-- End of group #sleeveBlock -->
    
    <!-- Start of group #topsleeveBlock -->
    <g id="topsleeveBlock"  transform=" translate(140.566 5)  translate(600 0) " >
        <path class="hidden" id="4"  d=" M  -135.566,0  L  120.503,0  L  120.503,700  L  -135.566,700  z " />
<path transform="translate( 0, 0 )" style="stroke: hsl(26.9, 55%, 50%);" id="20"  d=" M  57.318,700  L  108.453,410  C  116.123,366.5  120.503,260.63  120.503,195.472  C  120.503,130.314  108.453,65.157  108.453,65.157  C  108.453,65.157  67.783,0  0,0  C  -67.783,0  -99.415,65.157  -108.453,117.283  C  -117.491,169.409  -122.01,195.472  -135.566,195.472  C  -135.566,195.472  -120.86,355.035  -120.503,410  L  -118.72,684.823  z " />
<path transform="translate( 0, 0 )" style="stroke: hsl(53.8, 55%, 50%);" id="40"  d=" M  57.318,700  L  108.453,410  C  116.123,366.5  120.503,260.63  120.503,195.472  C  120.503,130.314  108.453,65.157  108.453,65.157  C  108.453,65.157  67.783,0  0,0  C  -67.783,0  -99.415,65.157  -108.453,117.283  C  -117.491,169.409  -122.01,195.472  -135.566,195.472  C  -135.566,195.472  -120.86,355.035  -120.503,410  L  -118.72,684.823  z " />
<path transform="translate( 0, 0 )" style="stroke: hsl(80.7, 55%, 50%);" id="60"  d=" M  57.318,700  L  108.453,410  C  116.123,366.5  120.503,260.63  120.503,195.472  C  120.503,130.314  108.453,65.157  108.453,65.157  C  108.453,65.157  67.783,0  0,0  C  -67.783,0  -99.415,65.157  -108.453,117.283  C  -117.491,169.409  -122.01,195.472  -135.566,195.472  C  -135.566,195.472  -120.86,355.035  -120.503,410  L  -118.72,684.823  z " />
<path transform="translate( 0, 0 )" style="stroke: hsl(107.6, 55%, 50%);" id="80"  d=" M  57.318,700  L  108.453,410  C  116.123,366.5  120.503,260.63  120.503,195.472  C  120.503,130.314  108.453,65.157  108.453,65.157  C  108.453,65.157  67.783,0  0,0  C  -67.783,0  -99.415,65.157  -108.453,117.283  C  -117.491,169.409  -122.01,195.472  -135.566,195.472  C  -135.566,195.472  -120.86,355.035  -120.503,410  L  -118.72,684.823  z " />
<path transform="translate( 0, 0 )" style="stroke: hsl(134.5, 55%, 50%);" id="100"  d=" M  57.318,700  L  108.453,410  C  116.123,366.5  120.503,260.63  120.503,195.472  C  120.503,130.314  108.453,65.157  108.453,65.157  C  108.453,65.157  67.783,0  0,0  C  -67.783,0  -99.415,65.157  -108.453,117.283  C  -117.491,169.409  -122.01,195.472  -135.566,195.472  C  -135.566,195.472  -120.86,355.035  -120.503,410  L  -118.72,684.823  z " />
<path transform="translate( 0, 0 )" style="stroke: hsl(161.4, 55%, 50%);" id="120"  d=" M  57.318,700  L  108.453,410  C  116.123,366.5  120.503,260.63  120.503,195.472  C  120.503,130.314  108.453,65.157  108.453,65.157  C  108.453,65.157  67.783,0  0,0  C  -67.783,0  -99.415,65.157  -108.453,117.283  C  -117.491,169.409  -122.01,195.472  -135.566,195.472  C  -135.566,195.472  -120.86,355.035  -120.503,410  L  -118.72,684.823  z " />
<path transform="translate( 0, 0 )" style="stroke: hsl(188.3, 55%, 50%);" id="140"  d=" M  57.318,700  L  108.453,410  C  116.123,366.5  120.503,260.63  120.503,195.472  C  120.503,130.314  108.453,65.157  108.453,65.157  C  108.453,65.157  67.783,0  0,0  C  -67.783,0  -99.415,65.157  -108.453,117.283  C  -117.491,169.409  -122.01,195.472  -135.566,195.472  C  -135.566,195.472  -120.86,355.035  -120.503,410  L  -118.72,684.823  z " />
<path transform="translate( 0, 0 )" style="stroke: hsl(215.2, 55%, 50%);" id="160"  d=" M  57.318,700  L  108.453,410  C  116.123,366.5  120.503,260.63  120.503,195.472  C  120.503,130.314  108.453,65.157  108.453,65.157  C  108.453,65.157  67.783,0  0,0  C  -67.783,0  -99.415,65.157  -108.453,117.283  C  -117.491,169.409  -122.01,195.472  -135.566,195.472  C  -135.566,195.472  -120.86,355.035  -120.503,410  L  -118.72,684.823  z " />
<path transform="translate( 0, 0 )" style="stroke: hsl(242.1, 55%, 50%);" id="180"  d=" M  57.318,700  L  108.453,410  C  116.123,366.5  120.503,260.63  120.503,195.472  C  120.503,130.314  108.453,65.157  108.453,65.157  C  108.453,65.157  67.783,0  0,0  C  -67.783,0  -99.415,65.157  -108.453,117.283  C  -117.491,169.409  -122.01,195.472  -135.566,195.472  C  -135.566,195.472  -120.86,355.035  -120.503,410  L  -118.72,684.823  z " />
<path transform="translate( 0, 0 )" style="stroke: hsl(269, 55%, 50%);" id="200"  d=" M  57.318,700  L  108.453,410  C  116.123,366.5  120.503,260.63  120.503,195.472  C  120.503,130.314  108.453,65.157  108.453,65.157  C  108.453,65.157  67.783,0  0,0  C  -67.783,0  -99.415,65.157  -108.453,117.283  C  -117.491,169.409  -122.01,195.472  -135.566,195.472  C  -135.566,195.472  -120.86,355.035  -120.503,410  L  -118.72,684.823  z " />
<path transform="translate( 0, 0 )" style="stroke: hsl(295.9, 55%, 50%);" id="220"  d=" M  57.318,700  L  108.453,410  C  116.123,366.5  120.503,260.63  120.503,195.472  C  120.503,130.314  108.453,65.157  108.453,65.157  C  108.453,65.157  67.783,0  0,0  C  -67.783,0  -99.415,65.157  -108.453,117.283  C  -117.491,169.409  -122.01,195.472  -135.566,195.472  C  -135.566,195.472  -120.86,355.035  -120.503,410  L  -118.72,684.823  z " />
    </g>
    <!-- End of group #topsleeveBlock -->
    
    <!-- Start of group #undersleeveBlock -->
    <g id="undersleeveBlock"  transform=" translate(86.34 -60.157)  translate(866.069 0) " >
        <path class="hidden" id="5"  d=" M  -81.34,65.157  L  110.635,65.157  L  110.635,700  L  -81.34,700  z " />
<path transform="translate( 0, 0 )" style="stroke: hsl(26.9, 55%, 50%);" id="21"  d=" M  57.318,700  L  108.453,410  C  116.123,366.5  101.51,260.43  96.403,195.472  C  91.296,130.514  81.34,65.157  81.34,65.157  C  63.325,128.766  -13.557,195.472  -54.227,195.472  L  -81.34,195.472  C  -81.34,195.472  -60.879,354.918  -63.264,410  L  -75.19,685.409  L  57.318,700  z " />
<path transform="translate( 0, 0 )" style="stroke: hsl(53.8, 55%, 50%);" id="41"  d=" M  57.318,700  L  108.453,410  C  116.123,366.5  101.51,260.43  96.403,195.472  C  91.296,130.514  81.34,65.157  81.34,65.157  C  63.325,128.766  -13.557,195.472  -54.227,195.472  L  -81.34,195.472  C  -81.34,195.472  -60.879,354.918  -63.264,410  L  -75.19,685.409  L  57.318,700  z " />
<path transform="translate( 0, 0 )" style="stroke: hsl(80.7, 55%, 50%);" id="61"  d=" M  57.318,700  L  108.453,410  C  116.123,366.5  101.51,260.43  96.403,195.472  C  91.296,130.514  81.34,65.157  81.34,65.157  C  63.325,128.766  -13.557,195.472  -54.227,195.472  L  -81.34,195.472  C  -81.34,195.472  -60.879,354.918  -63.264,410  L  -75.19,685.409  L  57.318,700  z " />
<path transform="translate( 0, 0 )" style="stroke: hsl(107.6, 55%, 50%);" id="81"  d=" M  57.318,700  L  108.453,410  C  116.123,366.5  101.51,260.43  96.403,195.472  C  91.296,130.514  81.34,65.157  81.34,65.157  C  63.325,128.766  -13.557,195.472  -54.227,195.472  L  -81.34,195.472  C  -81.34,195.472  -60.879,354.918  -63.264,410  L  -75.19,685.409  L  57.318,700  z " />
<path transform="translate( 0, 0 )" style="stroke: hsl(134.5, 55%, 50%);" id="101"  d=" M  57.318,700  L  108.453,410  C  116.123,366.5  101.51,260.43  96.403,195.472  C  91.296,130.514  81.34,65.157  81.34,65.157  C  63.325,128.766  -13.557,195.472  -54.227,195.472  L  -81.34,195.472  C  -81.34,195.472  -60.879,354.918  -63.264,410  L  -75.19,685.409  L  57.318,700  z " />
<path transform="translate( 0, 0 )" style="stroke: hsl(161.4, 55%, 50%);" id="121"  d=" M  57.318,700  L  108.453,410  C  116.123,366.5  101.51,260.43  96.403,195.472  C  91.296,130.514  81.34,65.157  81.34,65.157  C  63.325,128.766  -13.557,195.472  -54.227,195.472  L  -81.34,195.472  C  -81.34,195.472  -60.879,354.918  -63.264,410  L  -75.19,685.409  L  57.318,700  z " />
<path transform="translate( 0, 0 )" style="stroke: hsl(188.3, 55%, 50%);" id="141"  d=" M  57.318,700  L  108.453,410  C  116.123,366.5  101.51,260.43  96.403,195.472  C  91.296,130.514  81.34,65.157  81.34,65.157  C  63.325,128.766  -13.557,195.472  -54.227,195.472  L  -81.34,195.472  C  -81.34,195.472  -60.879,354.918  -63.264,410  L  -75.19,685.409  L  57.318,700  z " />
<path transform="translate( 0, 0 )" style="stroke: hsl(215.2, 55%, 50%);" id="161"  d=" M  57.318,700  L  108.453,410  C  116.123,366.5  101.51,260.43  96.403,195.472  C  91.296,130.514  81.34,65.157  81.34,65.157  C  63.325,128.766  -13.557,195.472  -54.227,195.472  L  -81.34,195.472  C  -81.34,195.472  -60.879,354.918  -63.264,410  L  -75.19,685.409  L  57.318,700  z " />
<path transform="translate( 0, 0 )" style="stroke: hsl(242.1, 55%, 50%);" id="181"  d=" M  57.318,700  L  108.453,410  C  116.123,366.5  101.51,260.43  96.403,195.472  C  91.296,130.514  81.34,65.157  81.34,65.157  C  63.325,128.766  -13.557,195.472  -54.227,195.472  L  -81.34,195.472  C  -81.34,195.472  -60.879,354.918  -63.264,410  L  -75.19,685.409  L  57.318,700  z " />
<path transform="translate( 0, 0 )" style="stroke: hsl(269, 55%, 50%);" id="201"  d=" M  57.318,700  L  108.453,410  C  116.123,366.5  101.51,260.43  96.403,195.472  C  91.296,130.514  81.34,65.157  81.34,65.157  C  63.325,128.766  -13.557,195.472  -54.227,195.472  L  -81.34,195.472  C  -81.34,195.472  -60.879,354.918  -63.264,410  L  -75.19,685.409  L  57.318,700  z " />
<path transform="translate( 0, 0 )" style="stroke: hsl(295.9, 55%, 50%);" id="221"  d=" M  57.318,700  L  108.453,410  C  116.123,366.5  101.51,260.43  96.403,195.472  C  91.296,130.514  81.34,65.157  81.34,65.157  C  63.325,128.766  -13.557,195.472  -54.227,195.472  L  -81.34,195.472  C  -81.34,195.472  -60.879,354.918  -63.264,410  L  -75.19,685.409  L  57.318,700  z " />
    </g>
    <!-- End of group #undersleeveBlock -->
    
    <!-- Start of group #sampler-backBlock -->
    <g id="sampler-backBlock" >
    </g>
    <!-- End of group #sampler-backBlock -->
    
    <!-- Start of group #sampler-frontBlock -->
    <g id="sampler-frontBlock" >
    </g>
    <!-- End of group #sampler-frontBlock -->
    
    <!-- Start of group #sampler-topsleeveBlock -->
    <g id="sampler-topsleeveBlock" >
    </g>
    <!-- End of group #sampler-topsleeveBlock -->
    
    <!-- Start of group #sampler-undersleeveBlock -->
    <g id="sampler-undersleeveBlock" >
    </g>
    <!-- End of group #sampler-undersleeveBlock -->
</g>
<!-- End of group #patternContainer -->

</svg>

