<?xml version="1.0" encoding="UTF-8" standalone="no"?>
<svg
    xmlns="http://www.w3.org/2000/svg"
    xmlns:svg="http://www.w3.org/2000/svg"
    xmlns:xlink="http://www.w3.org/1999/xlink"
    xmlns:freesewing="http://freesewing.org/namespaces/freesewing" viewBox ="0 0 1394 770"
    width ="1394mm"
    height ="770mm"
    freesewing:version ="1.8.0"
    freesewing:origin ="core.she.freesewing.org" 
>

<style type="text/css">
    <![CDATA[
    path { fill: none; stroke: #000000; stroke-opacity:1; stroke-width: 0.5; stroke-miterlimit:4; stroke-dashoffset:0; stroke-linecap:round; stroke-linejoin:round; }
    path.hidden { fill: none; stroke: none; }]]>
</style>


<!-- Start of group #patternContainer -->
<g id="patternContainer" >
    
    <!-- Start of group #backBlock -->
    <g id="backBlock" >
    </g>
    <!-- End of group #backBlock -->
    
    <!-- Start of group #frontBlock -->
    <g id="frontBlock" >
    </g>
    <!-- End of group #frontBlock -->
    
    <!-- Start of group #sleeveBlock -->
    <g id="sleeveBlock" >
    </g>
    <!-- End of group #sleeveBlock -->
    
    <!-- Start of group #front -->
    <g id="front"  transform=" translate(5 0.172)  translate(0 0) " >
        <path class="hidden" id="2"  d=" M  0,4.828  L  305,4.828  L  305,765  L  0,765  z " />
<path transform="translate( 0, 0 )" style="stroke: hsl(26.9, 55%, 50%);" id="37"  d=" M  0,528.5  L  109,528.5  L  182.575,699.975  L  182.575,765 " />
<path transform="translate( 0, 0 )" style="stroke: hsl(26.9, 55%, 50%);" id="38"  d=" M  0,99  L  0,317  L  0,540  L  0,765  L  272.5,765  C  257.5,540  305,317  305,317  C  283.387,317  265.188,308.998  245.87,289.68  C  226.552,270.362  213.55,215.5  213.55,168.5  C  213.55,121.5  233.176,37.332  235,27.5  L  112.8,4.828  C  110.068,19.555  86.777,99  0,99  z " />
<path transform="translate( 0, 0 )" style="stroke: hsl(53.8, 55%, 50%);" id="77"  d=" M  0,528.5  L  109,528.5  L  182.575,699.975  L  182.575,765 " />
<path transform="translate( 0, 0 )" style="stroke: hsl(53.8, 55%, 50%);" id="78"  d=" M  0,99  L  0,317  L  0,540  L  0,765  L  272.5,765  C  257.5,540  305,317  305,317  C  283.74,317  266.115,309.081  246.997,289.963  C  227.879,270.845  214.96,215.5  214.96,168.5  C  214.96,121.5  233.176,37.332  235,27.5  L  112.8,4.828  C  110.068,19.555  86.777,99  0,99  z " />
<path transform="translate( 0, 0 )" style="stroke: hsl(80.7, 55%, 50%);" id="117"  d=" M  0,528.5  L  109,528.5  L  182.575,699.975  L  182.575,765 " />
<path transform="translate( 0, 0 )" style="stroke: hsl(80.7, 55%, 50%);" id="118"  d=" M  0,99  L  0,317  L  0,540  L  0,765  L  272.5,765  C  257.5,540  305,317  305,317  C  284.092,317  267.035,309.165  248.12,290.25  C  229.205,271.335  216.37,215.5  216.37,168.5  C  216.37,121.5  233.176,37.332  235,27.5  L  112.8,4.828  C  110.068,19.555  86.777,99  0,99  z " />
<path transform="translate( 0, 0 )" style="stroke: hsl(107.6, 55%, 50%);" id="157"  d=" M  0,528.5  L  109,528.5  L  182.575,699.975  L  182.575,765 " />
<path transform="translate( 0, 0 )" style="stroke: hsl(107.6, 55%, 50%);" id="158"  d=" M  0,99  L  0,317  L  0,540  L  0,765  L  272.5,765  C  257.5,540  305,317  305,317  C  284.445,317  267.95,309.25  249.24,290.54  C  230.53,271.83  217.78,215.5  217.78,168.5  C  217.78,121.5  233.176,37.332  235,27.5  L  112.8,4.828  C  110.068,19.555  86.777,99  0,99  z " />
<path transform="translate( 0, 0 )" style="stroke: hsl(134.5, 55%, 50%);" id="197"  d=" M  0,528.5  L  109,528.5  L  182.575,699.975  L  182.575,765 " />
<path transform="translate( 0, 0 )" style="stroke: hsl(134.5, 55%, 50%);" id="198"  d=" M  0,99  L  0,317  L  0,540  L  0,765  L  272.5,765  C  257.5,540  305,317  305,317  C  284.797,317  268.858,309.336  250.356,290.834  C  231.854,272.332  219.19,215.5  219.19,168.5  C  219.19,121.5  233.176,37.332  235,27.5  L  112.8,4.828  C  110.068,19.555  86.777,99  0,99  z " />
<path transform="translate( 0, 0 )" style="stroke: hsl(161.4, 55%, 50%);" id="237"  d=" M  0,528.5  L  109,528.5  L  182.575,699.975  L  182.575,765 " />
<path transform="translate( 0, 0 )" style="stroke: hsl(161.4, 55%, 50%);" id="238"  d=" M  0,99  L  0,317  L  0,540  L  0,765  L  272.5,765  C  257.5,540  305,317  305,317  C  285.15,317  269.761,309.423  251.469,291.131  C  233.177,272.839  220.6,215.5  220.6,168.5  C  220.6,121.5  233.176,37.332  235,27.5  L  112.8,4.828  C  110.068,19.555  86.777,99  0,99  z " />
<path transform="translate( 0, 0 )" style="stroke: hsl(188.3, 55%, 50%);" id="277"  d=" M  0,528.5  L  109,528.5  L  182.575,699.975  L  182.575,765 " />
<path transform="translate( 0, 0 )" style="stroke: hsl(188.3, 55%, 50%);" id="278"  d=" M  0,99  L  0,317  L  0,540  L  0,765  L  272.5,765  C  257.5,540  305,317  305,317  C  285.502,317  270.657,309.511  252.578,291.432  C  234.499,273.353  222.01,215.5  222.01,168.5  C  222.01,121.5  233.176,37.332  235,27.5  L  112.8,4.828  C  110.068,19.555  86.777,99  0,99  z " />
<path transform="translate( 0, 0 )" style="stroke: hsl(215.2, 55%, 50%);" id="317"  d=" M  0,528.5  L  109,528.5  L  182.575,699.975  L  182.575,765 " />
<path transform="translate( 0, 0 )" style="stroke: hsl(215.2, 55%, 50%);" id="318"  d=" M  0,99  L  0,317  L  0,540  L  0,765  L  272.5,765  C  257.5,540  305,317  305,317  C  285.855,317  271.547,309.601  253.683,291.737  C  235.819,273.873  223.42,215.5  223.42,168.5  C  223.42,121.5  233.176,37.332  235,27.5  L  112.8,4.828  C  110.068,19.555  86.777,99  0,99  z " />
<path transform="translate( 0, 0 )" style="stroke: hsl(242.1, 55%, 50%);" id="357"  d=" M  0,528.5  L  109,528.5  L  182.575,699.975  L  182.575,765 " />
<path transform="translate( 0, 0 )" style="stroke: hsl(242.1, 55%, 50%);" id="358"  d=" M  0,99  L  0,317  L  0,540  L  0,765  L  272.5,765  C  257.5,540  305,317  305,317  C  286.207,317  272.429,309.691  254.784,292.046  C  237.139,274.401  224.83,215.5  224.83,168.5  C  224.83,121.5  233.176,37.332  235,27.5  L  112.8,4.828  C  110.068,19.555  86.777,99  0,99  z " />
<path transform="translate( 0, 0 )" style="stroke: hsl(269, 55%, 50%);" id="397"  d=" M  0,528.5  L  109,528.5  L  182.575,699.975  L  182.575,765 " />
<path transform="translate( 0, 0 )" style="stroke: hsl(269, 55%, 50%);" id="398"  d=" M  0,99  L  0,317  L  0,540  L  0,765  L  272.5,765  C  257.5,540  305,317  305,317  C  286.56,317  273.305,309.783  255.881,292.359  C  238.457,274.935  226.24,215.5  226.24,168.5  C  226.24,121.5  233.176,37.332  235,27.5  L  112.8,4.828  C  110.068,19.555  86.777,99  0,99  z " />
<path transform="translate( 0, 0 )" style="stroke: hsl(295.9, 55%, 50%);" id="437"  d=" M  0,528.5  L  109,528.5  L  182.575,699.975  L  182.575,765 " />
<path transform="translate( 0, 0 )" style="stroke: hsl(295.9, 55%, 50%);" id="438"  d=" M  0,99  L  0,317  L  0,540  L  0,765  L  272.5,765  C  257.5,540  305,317  305,317  C  286.912,317  274.174,309.876  256.974,292.676  C  239.774,275.476  227.65,215.5  227.65,168.5  C  227.65,121.5  233.176,37.332  235,27.5  L  112.8,4.828  C  110.068,19.555  86.777,99  0,99  z " />
    </g>
    <!-- End of group #front -->
    
    <!-- Start of group #back -->
    <g id="back"  transform=" translate(5 0.172)  translate(315 0) " >
        <path class="hidden" id="3"  d=" M  0,4.828  L  305,4.828  L  305,765  L  0,765  z " />
<path transform="translate( 0, 0 )" style="stroke: hsl(26.9, 55%, 50%);" id="39"  d=" M  0,20  L  0,317  L  0,540  L  0,765  L  272.5,765  C  257.5,540  305,317  305,317  C  283.387,317  265.188,308.998  245.87,289.68  C  226.552,270.362  218.55,215.5  218.55,168.5  C  218.55,121.5  233.176,37.332  235,27.5  L  112.8,4.828  C  110.068,19.555  0,20  0,20  z " />
<path transform="translate( 0, 0 )" style="stroke: hsl(53.8, 55%, 50%);" id="79"  d=" M  0,20  L  0,317  L  0,540  L  0,765  L  272.5,765  C  257.5,540  305,317  305,317  C  283.74,317  266.115,309.081  246.997,289.963  C  227.879,270.845  219.96,215.5  219.96,168.5  C  219.96,121.5  233.176,37.332  235,27.5  L  112.8,4.828  C  110.068,19.555  0,20  0,20  z " />
<path transform="translate( 0, 0 )" style="stroke: hsl(80.7, 55%, 50%);" id="119"  d=" M  0,20  L  0,317  L  0,540  L  0,765  L  272.5,765  C  257.5,540  305,317  305,317  C  284.092,317  267.035,309.165  248.12,290.25  C  229.205,271.335  221.37,215.5  221.37,168.5  C  221.37,121.5  233.176,37.332  235,27.5  L  112.8,4.828  C  110.068,19.555  0,20  0,20  z " />
<path transform="translate( 0, 0 )" style="stroke: hsl(107.6, 55%, 50%);" id="159"  d=" M  0,20  L  0,317  L  0,540  L  0,765  L  272.5,765  C  257.5,540  305,317  305,317  C  284.445,317  267.95,309.25  249.24,290.54  C  230.53,271.83  222.78,215.5  222.78,168.5  C  222.78,121.5  233.176,37.332  235,27.5  L  112.8,4.828  C  110.068,19.555  0,20  0,20  z " />
<path transform="translate( 0, 0 )" style="stroke: hsl(134.5, 55%, 50%);" id="199"  d=" M  0,20  L  0,317  L  0,540  L  0,765  L  272.5,765  C  257.5,540  305,317  305,317  C  284.797,317  268.858,309.336  250.356,290.834  C  231.854,272.332  224.19,215.5  224.19,168.5  C  224.19,121.5  233.176,37.332  235,27.5  L  112.8,4.828  C  110.068,19.555  0,20  0,20  z " />
<path transform="translate( 0, 0 )" style="stroke: hsl(161.4, 55%, 50%);" id="239"  d=" M  0,20  L  0,317  L  0,540  L  0,765  L  272.5,765  C  257.5,540  305,317  305,317  C  285.15,317  269.761,309.423  251.469,291.131  C  233.177,272.839  225.6,215.5  225.6,168.5  C  225.6,121.5  233.176,37.332  235,27.5  L  112.8,4.828  C  110.068,19.555  0,20  0,20  z " />
<path transform="translate( 0, 0 )" style="stroke: hsl(188.3, 55%, 50%);" id="279"  d=" M  0,20  L  0,317  L  0,540  L  0,765  L  272.5,765  C  257.5,540  305,317  305,317  C  285.502,317  270.657,309.511  252.578,291.432  C  234.499,273.353  227.01,215.5  227.01,168.5  C  227.01,121.5  233.176,37.332  235,27.5  L  112.8,4.828  C  110.068,19.555  0,20  0,20  z " />
<path transform="translate( 0, 0 )" style="stroke: hsl(215.2, 55%, 50%);" id="319"  d=" M  0,20  L  0,317  L  0,540  L  0,765  L  272.5,765  C  257.5,540  305,317  305,317  C  285.855,317  271.547,309.601  253.683,291.737  C  235.819,273.873  228.42,215.5  228.42,168.5  C  228.42,121.5  233.176,37.332  235,27.5  L  112.8,4.828  C  110.068,19.555  0,20  0,20  z " />
<path transform="translate( 0, 0 )" style="stroke: hsl(242.1, 55%, 50%);" id="359"  d=" M  0,20  L  0,317  L  0,540  L  0,765  L  272.5,765  C  257.5,540  305,317  305,317  C  286.207,317  272.429,309.691  254.784,292.046  C  237.139,274.401  229.83,215.5  229.83,168.5  C  229.83,121.5  233.176,37.332  235,27.5  L  112.8,4.828  C  110.068,19.555  0,20  0,20  z " />
<path transform="translate( 0, 0 )" style="stroke: hsl(269, 55%, 50%);" id="399"  d=" M  0,20  L  0,317  L  0,540  L  0,765  L  272.5,765  C  257.5,540  305,317  305,317  C  286.56,317  273.305,309.783  255.881,292.359  C  238.457,274.935  231.24,215.5  231.24,168.5  C  231.24,121.5  233.176,37.332  235,27.5  L  112.8,4.828  C  110.068,19.555  0,20  0,20  z " />
<path transform="translate( 0, 0 )" style="stroke: hsl(295.9, 55%, 50%);" id="439"  d=" M  0,20  L  0,317  L  0,540  L  0,765  L  272.5,765  C  257.5,540  305,317  305,317  C  286.912,317  274.174,309.876  256.974,292.676  C  239.774,275.476  232.65,215.5  232.65,168.5  C  232.65,121.5  233.176,37.332  235,27.5  L  112.8,4.828  C  110.068,19.555  0,20  0,20  z " />
    </g>
    <!-- End of group #back -->
    
    <!-- Start of group #sleeve -->
    <g id="sleeve"  transform=" translate(212.042 5)  translate(630 0) " >
        <path class="hidden" id="4"  d=" M  -207.042,0  L  207.042,0  L  207.042,690  L  -207.042,690  z " />
<path transform="translate( 0, 0 )" style="stroke: hsl(26.9, 55%, 50%);" id="40"  d=" M  -117.5,690  L  -207.042,250.668  C  -207.042,250.668  -166.11,195.861  -151.067,172.303  C  -136.024,148.745  -103.521,88.556  -103.521,88.556  C  -103.521,88.556  -82.752,51.049  -61.512,32.88  C  -40.272,14.711  -27.951,-0  5,0  C  27.951,0  49.916,15.842  70.138,35.138  C  90.36,54.434  108.521,103.556  108.521,103.556  C  108.521,103.556  129.765,162.235  145.318,185.459  C  160.871,208.683  207.042,250.668  207.042,250.668  L  117.5,690  z " />
<path transform="translate( 0, 0 )" style="stroke: hsl(53.8, 55%, 50%);" id="80"  d=" M  -117.5,690  L  -206.709,249.337  C  -206.709,249.337  -165.883,194.916  -150.823,171.423  C  -135.763,147.93  -103.355,88.112  -103.355,88.112  C  -103.355,88.112  -82.644,50.745  -61.408,32.641  C  -40.172,14.537  -27.906,-0  5,0  C  27.906,0  49.817,15.657  70.033,34.894  C  90.249,54.131  108.355,103.112  108.355,103.112  C  108.355,103.112  129.511,161.442  145.086,184.597  C  160.661,207.752  206.709,249.337  206.709,249.337  L  117.5,690  z " />
<path transform="translate( 0, 0 )" style="stroke: hsl(80.7, 55%, 50%);" id="120"  d=" M  -117.5,690  L  -206.422,248.186  C  -206.422,248.186  -165.686,194.099  -150.611,170.662  C  -135.536,147.225  -103.211,87.729  -103.211,87.729  C  -103.211,87.729  -82.554,50.484  -61.321,32.436  C  -40.088,14.388  -27.867,-0  5,0  C  27.867,0  49.731,15.499  69.941,34.685  C  90.151,53.871  108.211,102.729  108.211,102.729  C  108.211,102.729  129.29,160.756  144.884,183.851  C  160.478,206.946  206.422,248.186  206.422,248.186  L  117.5,690  z " />
<path transform="translate( 0, 0 )" style="stroke: hsl(107.6, 55%, 50%);" id="160"  d=" M  -117.5,690  L  -206.092,246.868  C  -206.092,246.868  -165.462,193.163  -150.369,169.79  C  -135.276,146.417  -103.046,87.289  -103.046,87.289  C  -103.046,87.289  -82.447,50.181  -61.218,32.198  C  -39.989,14.215  -27.822,-0  5,0  C  27.822,0  49.631,15.316  69.835,34.443  C  90.039,53.57  108.046,102.289  108.046,102.289  C  108.046,102.289  129.039,159.97  144.654,182.997  C  160.269,206.024  206.092,246.868  206.092,246.868  L  117.5,690  z " />
<path transform="translate( 0, 0 )" style="stroke: hsl(134.5, 55%, 50%);" id="200"  d=" M  -117.5,690  L  -205.807,245.729  C  -205.807,245.729  -165.267,192.355  -150.159,169.038  C  -135.051,145.721  -102.904,86.91  -102.904,86.91  C  -102.904,86.91  -82.357,49.922  -61.131,31.995  C  -39.905,14.068  -27.784,-0  5,0  C  27.784,0  49.545,15.157  69.744,34.234  C  89.943,53.311  107.904,101.91  107.904,101.91  C  107.904,101.91  128.821,159.294  144.456,182.261  C  160.091,205.228  205.807,245.729  205.807,245.729  L  117.5,690  z " />
<path transform="translate( 0, 0 )" style="stroke: hsl(161.4, 55%, 50%);" id="240"  d=" M  -117.5,690  L  -205.481,244.424  C  -205.481,244.424  -165.046,191.429  -149.92,168.175  C  -134.794,144.921  -102.741,86.475  -102.741,86.475  C  -102.741,86.475  -82.252,49.624  -61.029,31.761  C  -39.806,13.898  -27.74,-0  5,0  C  27.74,0  49.445,14.975  69.639,33.994  C  89.833,53.013  107.741,101.475  107.741,101.475  C  107.741,101.475  128.572,158.517  144.229,181.416  C  159.886,204.315  205.481,244.424  205.481,244.424  L  117.5,690  z " />
<path transform="translate( 0, 0 )" style="stroke: hsl(188.3, 55%, 50%);" id="280"  d=" M  -117.5,690  L  -205.199,243.296  C  -205.199,243.296  -164.854,190.629  -149.713,167.431  C  -134.572,144.233  -102.6,86.099  -102.6,86.099  C  -102.6,86.099  -82.162,49.366  -60.942,31.559  C  -39.722,13.752  -27.702,-0  5,0  C  27.702,0  49.36,14.818  69.549,33.787  C  89.738,52.756  107.6,101.099  107.6,101.099  C  107.6,101.099  128.356,157.845  144.032,180.685  C  159.708,203.525  205.199,243.296  205.199,243.296  L  117.5,690  z " />
<path transform="translate( 0, 0 )" style="stroke: hsl(215.2, 55%, 50%);" id="320"  d=" M  -117.5,690  L  -204.876,242.004  C  -204.876,242.004  -164.633,189.71  -149.475,166.576  C  -134.317,143.442  -102.438,85.668  -102.438,85.668  C  -102.438,85.668  -82.059,49.07  -60.842,31.327  C  -39.625,13.584  -27.658,-0  5,0  C  27.658,0  49.262,14.639  69.445,33.55  C  89.628,52.461  107.438,100.668  107.438,100.668  C  107.438,100.668  128.108,157.079  143.807,179.85  C  159.506,202.621  204.876,242.004  204.876,242.004  L  117.5,690  z " />
<path transform="translate( 0, 0 )" style="stroke: hsl(242.1, 55%, 50%);" id="360"  d=" M  -117.5,690  L  -204.69,241.259  C  -204.69,241.259  -164.507,189.181  -149.338,166.084  C  -134.169,142.987  -102.345,85.42  -102.345,85.42  C  -102.345,85.42  -82,48.9  -60.785,31.194  C  -39.57,13.488  -27.633,-0  5,0  C  27.633,0  49.206,14.536  69.386,33.414  C  89.566,52.292  107.345,100.42  107.345,100.42  C  107.345,100.42  127.966,156.636  143.678,179.368  C  159.39,202.1  204.69,241.259  204.69,241.259  L  117.5,690  z " />
<path transform="translate( 0, 0 )" style="stroke: hsl(269, 55%, 50%);" id="400"  d=" M  -117.5,690  L  -204.277,239.608  C  -204.277,239.608  -164.227,188.009  -149.035,164.993  C  -133.843,141.977  -102.139,84.869  -102.139,84.869  C  -102.139,84.869  -81.866,48.522  -60.655,30.897  C  -39.444,13.272  -27.578,-0  5,0  C  27.578,0  49.08,14.307  69.253,33.111  C  89.426,51.915  107.139,99.869  107.139,99.869  C  107.139,99.869  127.65,155.656  143.391,178.3  C  159.132,200.944  204.277,239.608  204.277,239.608  L  117.5,690  z " />
<path transform="translate( 0, 0 )" style="stroke: hsl(295.9, 55%, 50%);" id="440"  d=" M  -117.5,690  L  -204.093,238.87  C  -204.093,238.87  -164.103,187.484  -148.9,164.505  C  -133.697,141.526  -102.047,84.623  -102.047,84.623  C  -102.047,84.623  -81.807,48.353  -60.598,30.765  C  -39.389,13.177  -27.553,-0  5,0  C  27.553,0  49.022,14.203  69.192,32.974  C  89.362,51.745  107.047,99.623  107.047,99.623  C  107.047,99.623  127.51,155.218  143.264,177.823  C  159.018,200.428  204.093,238.87  204.093,238.87  L  117.5,690  z " />
    </g>
    <!-- End of group #sleeve -->
    
    <!-- Start of group #hood -->
    <g id="hood"  transform=" translate(10.142 353.1)  translate(1054.084 0) " >
        <path class="hidden" id="5"  d=" M  -5.142,-348.1  L  324.426,-348.1  L  324.426,0  L  -5.142,0  z " />
<path transform="translate( 0, 0 )" style="stroke: hsl(26.9, 55%, 50%);" id="41"  d=" M  0,0  L  -5.142,-58.775  C  -5.142,-58.775  79.65,-58.775  79.65,-348.1  C  274.276,-348.1  324.426,-267.86  324.426,-208.86  C  324.426,-149.86  274.276,-23.996  274.276,-23.996  L  0,0  z " />
<path transform="translate( 0, 0 )" style="stroke: hsl(53.8, 55%, 50%);" id="81"  d=" M  0,0  L  -5.142,-58.775  C  -5.142,-58.775  79.65,-58.775  79.65,-348.1  C  274.276,-348.1  324.426,-267.86  324.426,-208.86  C  324.426,-149.86  274.276,-23.996  274.276,-23.996  L  0,0  z " />
<path transform="translate( 0, 0 )" style="stroke: hsl(80.7, 55%, 50%);" id="121"  d=" M  0,0  L  -5.142,-58.775  C  -5.142,-58.775  79.65,-58.775  79.65,-348.1  C  274.276,-348.1  324.426,-267.86  324.426,-208.86  C  324.426,-149.86  274.276,-23.996  274.276,-23.996  L  0,0  z " />
<path transform="translate( 0, 0 )" style="stroke: hsl(107.6, 55%, 50%);" id="161"  d=" M  0,0  L  -5.142,-58.775  C  -5.142,-58.775  79.65,-58.775  79.65,-348.1  C  274.276,-348.1  324.426,-267.86  324.426,-208.86  C  324.426,-149.86  274.276,-23.996  274.276,-23.996  L  0,0  z " />
<path transform="translate( 0, 0 )" style="stroke: hsl(134.5, 55%, 50%);" id="201"  d=" M  0,0  L  -5.142,-58.775  C  -5.142,-58.775  79.65,-58.775  79.65,-348.1  C  274.276,-348.1  324.426,-267.86  324.426,-208.86  C  324.426,-149.86  274.276,-23.996  274.276,-23.996  L  0,0  z " />
<path transform="translate( 0, 0 )" style="stroke: hsl(161.4, 55%, 50%);" id="241"  d=" M  0,0  L  -5.142,-58.775  C  -5.142,-58.775  79.65,-58.775  79.65,-348.1  C  274.276,-348.1  324.426,-267.86  324.426,-208.86  C  324.426,-149.86  274.276,-23.996  274.276,-23.996  L  0,0  z " />
<path transform="translate( 0, 0 )" style="stroke: hsl(188.3, 55%, 50%);" id="281"  d=" M  0,0  L  -5.142,-58.775  C  -5.142,-58.775  79.65,-58.775  79.65,-348.1  C  274.276,-348.1  324.426,-267.86  324.426,-208.86  C  324.426,-149.86  274.276,-23.996  274.276,-23.996  L  0,0  z " />
<path transform="translate( 0, 0 )" style="stroke: hsl(215.2, 55%, 50%);" id="321"  d=" M  0,0  L  -5.142,-58.775  C  -5.142,-58.775  79.65,-58.775  79.65,-348.1  C  274.276,-348.1  324.426,-267.86  324.426,-208.86  C  324.426,-149.86  274.276,-23.996  274.276,-23.996  L  0,0  z " />
<path transform="translate( 0, 0 )" style="stroke: hsl(242.1, 55%, 50%);" id="361"  d=" M  0,0  L  -5.142,-58.775  C  -5.142,-58.775  79.65,-58.775  79.65,-348.1  C  274.276,-348.1  324.426,-267.86  324.426,-208.86  C  324.426,-149.86  274.276,-23.996  274.276,-23.996  L  0,0  z " />
<path transform="translate( 0, 0 )" style="stroke: hsl(269, 55%, 50%);" id="401"  d=" M  0,0  L  -5.142,-58.775  C  -5.142,-58.775  79.65,-58.775  79.65,-348.1  C  274.276,-348.1  324.426,-267.86  324.426,-208.86  C  324.426,-149.86  274.276,-23.996  274.276,-23.996  L  0,0  z " />
<path transform="translate( 0, 0 )" style="stroke: hsl(295.9, 55%, 50%);" id="441"  d=" M  0,0  L  -5.142,-58.775  C  -5.142,-58.775  79.65,-58.775  79.65,-348.1  C  274.276,-348.1  324.426,-267.86  324.426,-208.86  C  324.426,-149.86  274.276,-23.996  274.276,-23.996  L  0,0  z " />
    </g>
    <!-- End of group #hood -->
    
    <!-- Start of group #pouch -->
    <g id="pouch" >
    </g>
    <!-- End of group #pouch -->
    
    <!-- Start of group #sampler-front -->
    <g id="sampler-front" >
    </g>
    <!-- End of group #sampler-front -->
    
    <!-- Start of group #sampler-back -->
    <g id="sampler-back" >
    </g>
    <!-- End of group #sampler-back -->
    
    <!-- Start of group #sampler-sleeve -->
    <g id="sampler-sleeve" >
    </g>
    <!-- End of group #sampler-sleeve -->
    
    <!-- Start of group #sampler-hood -->
    <g id="sampler-hood" >
    </g>
    <!-- End of group #sampler-hood -->
</g>
<!-- End of group #patternContainer -->

</svg>

