<?xml version="1.0" encoding="UTF-8" standalone="no"?>
<svg
    xmlns="http://www.w3.org/2000/svg"
    xmlns:svg="http://www.w3.org/2000/svg"
    xmlns:xlink="http://www.w3.org/1999/xlink"
    xmlns:freesewing="http://freesewing.org/namespaces/freesewing" viewBox ="0 0 1399 770"
    width ="1399mm"
    height ="770mm"
    freesewing:version ="1.5.0"
    freesewing:origin ="joost.core.freesewing.org" 
>

<style type="text/css">
    <![CDATA[
    path { fill: none; stroke: #000000; stroke-opacity:1; stroke-width: 0.5; stroke-miterlimit:4; stroke-dashoffset:0; stroke-linecap:round; stroke-linejoin:round; }
    path.hidden { fill: none; stroke: none; }]]>
</style>


<!-- Start of group #patternContainer -->
<g id="patternContainer" >
    
    <!-- Start of group #backBlock -->
    <g id="backBlock" >
    </g>
    <!-- End of group #backBlock -->
    
    <!-- Start of group #frontBlock -->
    <g id="frontBlock" >
    </g>
    <!-- End of group #frontBlock -->
    
    <!-- Start of group #sleeveBlock -->
    <g id="sleeveBlock" >
    </g>
    <!-- End of group #sleeveBlock -->
    
    <!-- Start of group #front -->
    <g id="front"  transform=" translate(5 0.172)  translate(0 0) " >
        <path class="hidden" id="2"  d=" M  0,4.828  L  305,4.828  L  305,765  L  0,765  z " />
<path transform="translate( 0, 0 )" style="stroke: hsl(26.9, 55%, 50%);" id="37"  d=" M  0,528.5  L  109,528.5  L  182.575,699.975  L  182.575,765 " />
<path transform="translate( 0, 0 )" style="stroke: hsl(26.9, 55%, 50%);" id="38"  d=" M  0,99  L  0,278.5  L  0,540  L  0,765  L  272.5,765  C  257.5,540  305,278.5  305,278.5  C  285.875,278.5  269.518,271.462  252.528,254.472  C  235.538,237.482  223.5,189.833  223.5,149.25  C  223.5,108.667  233.176,37.332  235,27.5  L  112.8,4.828  C  110.068,19.555  86.777,99  0,99  z " />
<path transform="translate( 0, 0 )" style="stroke: hsl(53.8, 55%, 50%);" id="77"  d=" M  0,528.5  L  109,528.5  L  182.575,699.975  L  182.575,765 " />
<path transform="translate( 0, 0 )" style="stroke: hsl(53.8, 55%, 50%);" id="78"  d=" M  0,99  L  0,284.275  L  0,540  L  0,765  L  272.5,765  C  257.5,540  305,284.275  305,284.275  C  285.875,284.275  269.855,277.18  252.725,260.05  C  235.595,242.92  223.5,193.684  223.5,152.138  C  223.5,110.592  233.176,37.332  235,27.5  L  112.8,4.828  C  110.068,19.555  86.777,99  0,99  z " />
<path transform="translate( 0, 0 )" style="stroke: hsl(80.7, 55%, 50%);" id="117"  d=" M  0,528.5  L  109,528.5  L  182.575,699.975  L  182.575,765 " />
<path transform="translate( 0, 0 )" style="stroke: hsl(80.7, 55%, 50%);" id="118"  d=" M  0,99  L  0,290.05  L  0,540  L  0,765  L  272.5,765  C  257.5,540  305,290.05  305,290.05  C  285.875,290.05  270.181,282.899  252.916,265.634  C  235.651,248.369  223.5,197.533  223.5,155.025  C  223.5,112.517  233.176,37.332  235,27.5  L  112.8,4.828  C  110.068,19.555  86.777,99  0,99  z " />
<path transform="translate( 0, 0 )" style="stroke: hsl(107.6, 55%, 50%);" id="157"  d=" M  0,528.5  L  109,528.5  L  182.575,699.975  L  182.575,765 " />
<path transform="translate( 0, 0 )" style="stroke: hsl(107.6, 55%, 50%);" id="158"  d=" M  0,99  L  0,295.825  L  0,540  L  0,765  L  272.5,765  C  257.5,540  305,295.825  305,295.825  C  285.875,295.825  270.5,288.619  253.103,271.222  C  235.706,253.825  223.5,201.384  223.5,157.913  C  223.5,114.442  233.176,37.332  235,27.5  L  112.8,4.828  C  110.068,19.555  86.777,99  0,99  z " />
<path transform="translate( 0, 0 )" style="stroke: hsl(134.5, 55%, 50%);" id="197"  d=" M  0,528.5  L  109,528.5  L  182.575,699.975  L  182.575,765 " />
<path transform="translate( 0, 0 )" style="stroke: hsl(134.5, 55%, 50%);" id="198"  d=" M  0,99  L  0,301.6  L  0,540  L  0,765  L  272.5,765  C  257.5,540  305,301.6  305,301.6  C  285.875,301.6  270.809,294.341  253.284,276.816  C  235.759,259.291  223.5,205.233  223.5,160.8  C  223.5,116.367  233.176,37.332  235,27.5  L  112.8,4.828  C  110.068,19.555  86.777,99  0,99  z " />
<path transform="translate( 0, 0 )" style="stroke: hsl(161.4, 55%, 50%);" id="237"  d=" M  0,528.5  L  109,528.5  L  182.575,699.975  L  182.575,765 " />
<path transform="translate( 0, 0 )" style="stroke: hsl(161.4, 55%, 50%);" id="238"  d=" M  0,99  L  0,307.375  L  0,540  L  0,765  L  272.5,765  C  257.5,540  305,307.375  305,307.375  C  285.875,307.375  271.109,300.064  253.46,282.415  C  235.811,264.766  223.5,209.084  223.5,163.688  C  223.5,118.292  233.176,37.332  235,27.5  L  112.8,4.828  C  110.068,19.555  86.777,99  0,99  z " />
<path transform="translate( 0, 0 )" style="stroke: hsl(188.3, 55%, 50%);" id="277"  d=" M  0,528.5  L  109,528.5  L  182.575,699.975  L  182.575,765 " />
<path transform="translate( 0, 0 )" style="stroke: hsl(188.3, 55%, 50%);" id="278"  d=" M  0,99  L  0,313.15  L  0,540  L  0,765  L  272.5,765  C  257.5,540  305,313.15  305,313.15  C  285.875,313.15  271.405,305.789  253.633,288.017  C  235.861,270.245  223.5,212.933  223.5,166.575  C  223.5,120.217  233.176,37.332  235,27.5  L  112.8,4.828  C  110.068,19.555  86.777,99  0,99  z " />
<path transform="translate( 0, 0 )" style="stroke: hsl(215.2, 55%, 50%);" id="317"  d=" M  0,528.5  L  109,528.5  L  182.575,699.975  L  182.575,765 " />
<path transform="translate( 0, 0 )" style="stroke: hsl(215.2, 55%, 50%);" id="318"  d=" M  0,99  L  0,318.925  L  0,540  L  0,765  L  272.5,765  C  257.5,540  305,318.925  305,318.925  C  285.875,318.925  271.69,311.515  253.8,293.625  C  235.91,275.735  223.5,216.784  223.5,169.463  C  223.5,122.142  233.176,37.332  235,27.5  L  112.8,4.828  C  110.068,19.555  86.777,99  0,99  z " />
<path transform="translate( 0, 0 )" style="stroke: hsl(242.1, 55%, 50%);" id="357"  d=" M  0,528.5  L  109,528.5  L  182.575,699.975  L  182.575,765 " />
<path transform="translate( 0, 0 )" style="stroke: hsl(242.1, 55%, 50%);" id="358"  d=" M  0,99  L  0,324.7  L  0,540  L  0,765  L  272.5,765  C  257.5,540  305,324.7  305,324.7  C  285.875,324.7  271.97,317.242  253.964,299.236  C  235.958,281.23  223.5,220.633  223.5,172.35  C  223.5,124.067  233.176,37.332  235,27.5  L  112.8,4.828  C  110.068,19.555  86.777,99  0,99  z " />
<path transform="translate( 0, 0 )" style="stroke: hsl(269, 55%, 50%);" id="397"  d=" M  0,528.5  L  109,528.5  L  182.575,699.975  L  182.575,765 " />
<path transform="translate( 0, 0 )" style="stroke: hsl(269, 55%, 50%);" id="398"  d=" M  0,99  L  0,330.475  L  0,540  L  0,765  L  272.5,765  C  257.5,540  305,330.475  305,330.475  C  285.875,330.475  272.241,322.97  254.123,304.852  C  236.005,286.734  223.5,224.484  223.5,175.238  C  223.5,125.992  233.176,37.332  235,27.5  L  112.8,4.828  C  110.068,19.555  86.777,99  0,99  z " />
<path transform="translate( 0, 0 )" style="stroke: hsl(295.9, 55%, 50%);" id="437"  d=" M  0,528.5  L  109,528.5  L  182.575,699.975  L  182.575,765 " />
<path transform="translate( 0, 0 )" style="stroke: hsl(295.9, 55%, 50%);" id="438"  d=" M  0,99  L  0,336.25  L  0,540  L  0,765  L  272.5,765  C  257.5,540  305,336.25  305,336.25  C  285.875,336.25  272.506,328.7  254.278,310.472  C  236.05,292.244  223.5,228.333  223.5,178.125  C  223.5,127.917  233.176,37.332  235,27.5  L  112.8,4.828  C  110.068,19.555  86.777,99  0,99  z " />
    </g>
    <!-- End of group #front -->
    
    <!-- Start of group #back -->
    <g id="back"  transform=" translate(5 0.172)  translate(315 0) " >
        <path class="hidden" id="3"  d=" M  0,4.828  L  305,4.828  L  305,765  L  0,765  z " />
<path transform="translate( 0, 0 )" style="stroke: hsl(26.9, 55%, 50%);" id="39"  d=" M  0,20  L  0,278.5  L  0,540  L  0,765  L  272.5,765  C  257.5,540  305,278.5  305,278.5  C  285.875,278.5  269.518,271.462  252.528,254.472  C  235.538,237.482  228.5,189.833  228.5,149.25  C  228.5,108.667  233.176,37.332  235,27.5  L  112.8,4.828  C  110.068,19.555  0,20  0,20  z " />
<path transform="translate( 0, 0 )" style="stroke: hsl(53.8, 55%, 50%);" id="79"  d=" M  0,20  L  0,284.275  L  0,540  L  0,765  L  272.5,765  C  257.5,540  305,284.275  305,284.275  C  285.875,284.275  269.855,277.18  252.725,260.05  C  235.595,242.92  228.5,193.684  228.5,152.138  C  228.5,110.592  233.176,37.332  235,27.5  L  112.8,4.828  C  110.068,19.555  0,20  0,20  z " />
<path transform="translate( 0, 0 )" style="stroke: hsl(80.7, 55%, 50%);" id="119"  d=" M  0,20  L  0,290.05  L  0,540  L  0,765  L  272.5,765  C  257.5,540  305,290.05  305,290.05  C  285.875,290.05  270.181,282.899  252.916,265.634  C  235.651,248.369  228.5,197.533  228.5,155.025  C  228.5,112.517  233.176,37.332  235,27.5  L  112.8,4.828  C  110.068,19.555  0,20  0,20  z " />
<path transform="translate( 0, 0 )" style="stroke: hsl(107.6, 55%, 50%);" id="159"  d=" M  0,20  L  0,295.825  L  0,540  L  0,765  L  272.5,765  C  257.5,540  305,295.825  305,295.825  C  285.875,295.825  270.5,288.619  253.103,271.222  C  235.706,253.825  228.5,201.384  228.5,157.913  C  228.5,114.442  233.176,37.332  235,27.5  L  112.8,4.828  C  110.068,19.555  0,20  0,20  z " />
<path transform="translate( 0, 0 )" style="stroke: hsl(134.5, 55%, 50%);" id="199"  d=" M  0,20  L  0,301.6  L  0,540  L  0,765  L  272.5,765  C  257.5,540  305,301.6  305,301.6  C  285.875,301.6  270.809,294.341  253.284,276.816  C  235.759,259.291  228.5,205.233  228.5,160.8  C  228.5,116.367  233.176,37.332  235,27.5  L  112.8,4.828  C  110.068,19.555  0,20  0,20  z " />
<path transform="translate( 0, 0 )" style="stroke: hsl(161.4, 55%, 50%);" id="239"  d=" M  0,20  L  0,307.375  L  0,540  L  0,765  L  272.5,765  C  257.5,540  305,307.375  305,307.375  C  285.875,307.375  271.109,300.064  253.46,282.415  C  235.811,264.766  228.5,209.084  228.5,163.688  C  228.5,118.292  233.176,37.332  235,27.5  L  112.8,4.828  C  110.068,19.555  0,20  0,20  z " />
<path transform="translate( 0, 0 )" style="stroke: hsl(188.3, 55%, 50%);" id="279"  d=" M  0,20  L  0,313.15  L  0,540  L  0,765  L  272.5,765  C  257.5,540  305,313.15  305,313.15  C  285.875,313.15  271.405,305.789  253.633,288.017  C  235.861,270.245  228.5,212.933  228.5,166.575  C  228.5,120.217  233.176,37.332  235,27.5  L  112.8,4.828  C  110.068,19.555  0,20  0,20  z " />
<path transform="translate( 0, 0 )" style="stroke: hsl(215.2, 55%, 50%);" id="319"  d=" M  0,20  L  0,318.925  L  0,540  L  0,765  L  272.5,765  C  257.5,540  305,318.925  305,318.925  C  285.875,318.925  271.69,311.515  253.8,293.625  C  235.91,275.735  228.5,216.784  228.5,169.463  C  228.5,122.142  233.176,37.332  235,27.5  L  112.8,4.828  C  110.068,19.555  0,20  0,20  z " />
<path transform="translate( 0, 0 )" style="stroke: hsl(242.1, 55%, 50%);" id="359"  d=" M  0,20  L  0,324.7  L  0,540  L  0,765  L  272.5,765  C  257.5,540  305,324.7  305,324.7  C  285.875,324.7  271.97,317.242  253.964,299.236  C  235.958,281.23  228.5,220.633  228.5,172.35  C  228.5,124.067  233.176,37.332  235,27.5  L  112.8,4.828  C  110.068,19.555  0,20  0,20  z " />
<path transform="translate( 0, 0 )" style="stroke: hsl(269, 55%, 50%);" id="399"  d=" M  0,20  L  0,330.475  L  0,540  L  0,765  L  272.5,765  C  257.5,540  305,330.475  305,330.475  C  285.875,330.475  272.241,322.97  254.123,304.852  C  236.005,286.734  228.5,224.484  228.5,175.238  C  228.5,125.992  233.176,37.332  235,27.5  L  112.8,4.828  C  110.068,19.555  0,20  0,20  z " />
<path transform="translate( 0, 0 )" style="stroke: hsl(295.9, 55%, 50%);" id="439"  d=" M  0,20  L  0,336.25  L  0,540  L  0,765  L  272.5,765  C  257.5,540  305,336.25  305,336.25  C  285.875,336.25  272.506,328.7  254.278,310.472  C  236.05,292.244  228.5,228.333  228.5,178.125  C  228.5,127.917  233.176,37.332  235,27.5  L  112.8,4.828  C  110.068,19.555  0,20  0,20  z " />
    </g>
    <!-- End of group #back -->
    
    <!-- Start of group #sleeve -->
    <g id="sleeve"  transform=" translate(214.788 5)  translate(630 0) " >
        <path class="hidden" id="4"  d=" M  -209.788,0  L  209.788,0  L  209.788,690  L  -209.788,690  z " />
<path transform="translate( 0, 0 )" style="stroke: hsl(26.9, 55%, 50%);" id="40"  d=" M  -117.5,690  L  -194.877,202.008  C  -194.877,202.008  -157.965,161.209  -142.161,140.176  C  -126.357,119.143  -97.439,72.336  -97.439,72.336  C  -97.439,72.336  -78.785,39.806  -57.661,24.124  C  -36.537,8.442  -26.309,-0  5,0  C  26.309,0  46.122,9.097  66.142,26.166  C  86.162,43.235  102.439,87.336  102.439,87.336  C  102.439,87.336  120.469,133.603  136.98,154.086  C  153.491,174.569  194.877,202.008  194.877,202.008  L  117.5,690  z " />
<path transform="translate( 0, 0 )" style="stroke: hsl(53.8, 55%, 50%);" id="80"  d=" M  -117.5,690  L  -196.407,208.129  C  -196.407,208.129  -158.968,165.585  -143.276,144.212  C  -127.584,122.839  -98.204,74.376  -98.204,74.376  C  -98.204,74.376  -79.295,41.238  -58.158,25.23  C  -37.021,9.222  -26.515,-0  5,0  C  26.515,0  46.615,9.944  66.659,27.302  C  86.703,44.66  103.204,89.376  103.204,89.376  C  103.204,89.376  121.635,137.155  138.005,158.013  C  154.375,178.871  196.407,208.129  196.407,208.129  L  117.5,690  z " />
<path transform="translate( 0, 0 )" style="stroke: hsl(80.7, 55%, 50%);" id="120"  d=" M  -117.5,690  L  -197.901,214.105  C  -197.901,214.105  -159.953,169.851  -144.365,148.153  C  -128.777,126.455  -98.951,76.368  -98.951,76.368  C  -98.951,76.368  -79.79,42.632  -58.64,26.309  C  -37.49,9.986  -26.717,-0  5,0  C  26.717,0  47.093,10.771  67.16,28.409  C  87.227,46.047  103.951,91.368  103.951,91.368  C  103.951,91.368  122.776,140.639  139.015,161.854  C  155.254,183.069  197.901,214.105  197.901,214.105  L  117.5,690  z " />
<path transform="translate( 0, 0 )" style="stroke: hsl(107.6, 55%, 50%);" id="160"  d=" M  -117.5,690  L  -199.438,220.253  C  -199.438,220.253  -160.973,174.236  -145.488,152.211  C  -130.003,130.186  -99.719,78.418  -99.719,78.418  C  -99.719,78.418  -80.295,44.061  -59.131,27.418  C  -37.967,10.775  -26.924,-0  5,0  C  26.924,0  47.58,11.623  67.671,29.546  C  87.762,47.469  104.719,93.418  104.719,93.418  C  104.719,93.418  123.951,144.239  140.061,165.811  C  156.171,187.383  199.438,220.253  199.438,220.253  L  117.5,690  z " />
<path transform="translate( 0, 0 )" style="stroke: hsl(134.5, 55%, 50%);" id="200"  d=" M  -117.5,690  L  -200.805,225.721  C  -200.805,225.721  -161.887,178.131  -146.489,155.82  C  -131.091,133.509  -100.403,80.24  -100.403,80.24  C  -100.403,80.24  -80.743,45.326  -59.566,28.402  C  -38.389,11.478  -27.109,-0  5,0  C  27.109,0  48.008,12.38  68.122,30.555  C  88.236,48.73  105.403,95.24  105.403,95.24  C  105.403,95.24  124.995,147.45  140.995,169.334  C  156.995,191.218  200.805,225.721  200.805,225.721  L  117.5,690  z " />
<path transform="translate( 0, 0 )" style="stroke: hsl(161.4, 55%, 50%);" id="240"  d=" M  -117.5,690  L  -202.426,232.203  C  -202.426,232.203  -162.975,182.745  -147.676,160.101  C  -132.377,137.457  -101.213,82.401  -101.213,82.401  C  -101.213,82.401  -81.27,46.823  -60.077,29.569  C  -38.884,12.315  -27.328,-0  5,0  C  27.328,0  48.511,13.28  68.652,31.75  C  88.793,50.22  106.213,97.401  106.213,97.401  C  106.213,97.401  126.235,151.273  142.111,173.516  C  157.987,195.759  202.426,232.203  202.426,232.203  L  117.5,690  z " />
<path transform="translate( 0, 0 )" style="stroke: hsl(188.3, 55%, 50%);" id="280"  d=" M  -117.5,690  L  -203.909,238.135  C  -203.909,238.135  -163.978,186.963  -148.765,164.02  C  -133.552,141.077  -101.955,84.378  -101.955,84.378  C  -101.955,84.378  -81.749,48.184  -60.542,30.633  C  -39.335,13.082  -27.528,-0  5,0  C  27.528,0  48.968,14.102  69.134,32.84  C  89.3,51.578  106.955,99.378  106.955,99.378  C  106.955,99.378  127.369,154.783  143.136,177.348  C  158.903,199.913  203.909,238.135  203.909,238.135  L  117.5,690  z " />
<path transform="translate( 0, 0 )" style="stroke: hsl(215.2, 55%, 50%);" id="320"  d=" M  -117.5,690  L  -205.387,244.047  C  -205.387,244.047  -164.98,191.161  -149.85,167.926  C  -134.72,144.691  -102.694,86.349  -102.694,86.349  C  -102.694,86.349  -82.223,49.538  -61.001,31.694  C  -39.779,13.85  -27.727,-0  5,0  C  27.727,0  49.418,14.924  69.61,33.926  C  89.802,52.928  107.694,101.349  107.694,101.349  C  107.694,101.349  128.501,158.293  144.164,181.172  C  159.827,204.051  205.387,244.047  205.387,244.047  L  117.5,690  z " />
<path transform="translate( 0, 0 )" style="stroke: hsl(242.1, 55%, 50%);" id="360"  d=" M  -117.5,690  L  -206.709,249.337  C  -206.709,249.337  -165.883,194.916  -150.823,171.423  C  -135.763,147.93  -103.355,88.112  -103.355,88.112  C  -103.355,88.112  -82.644,50.745  -61.408,32.641  C  -40.172,14.537  -27.906,-0  5,0  C  27.906,0  49.817,15.657  70.033,34.894  C  90.249,54.131  108.355,103.112  108.355,103.112  C  108.355,103.112  129.511,161.442  145.086,184.597  C  160.661,207.752  206.709,249.337  206.709,249.337  L  117.5,690  z " />
<path transform="translate( 0, 0 )" style="stroke: hsl(269, 55%, 50%);" id="400"  d=" M  -117.5,690  L  -208.4,256.101  C  -208.4,256.101  -167.042,199.713  -152.067,175.895  C  -137.092,152.077  -104.2,90.367  -104.2,90.367  C  -104.2,90.367  -83.182,52.285  -61.928,33.852  C  -40.674,15.419  -28.134,-0  5,0  C  28.134,0  50.324,16.598  70.57,36.133  C  90.816,55.668  109.2,105.367  109.2,105.367  C  109.2,105.367  130.804,165.479  146.27,188.98  C  161.736,212.481  208.4,256.101  208.4,256.101  L  117.5,690  z " />
<path transform="translate( 0, 0 )" style="stroke: hsl(295.9, 55%, 50%);" id="440"  d=" M  -117.5,690  L  -209.788,261.652  C  -209.788,261.652  -167.997,203.647  -153.09,179.567  C  -138.183,155.487  -104.894,92.217  -104.894,92.217  C  -104.894,92.217  -83.621,53.543  -62.351,34.844  C  -41.081,16.145  -28.321,-0  5,0  C  28.321,0  50.738,17.367  71.009,37.145  C  91.28,56.923  109.894,107.217  109.894,107.217  C  109.894,107.217  131.864,168.801  147.246,192.581  C  162.628,216.361  209.788,261.652  209.788,261.652  L  117.5,690  z " />
    </g>
    <!-- End of group #sleeve -->
    
    <!-- Start of group #hood -->
    <g id="hood"  transform=" translate(10.142 353.1)  translate(1059.576 0) " >
        <path class="hidden" id="5"  d=" M  -5.142,-348.1  L  324.426,-348.1  L  324.426,0  L  -5.142,0  z " />
<path transform="translate( 0, 0 )" style="stroke: hsl(26.9, 55%, 50%);" id="41"  d=" M  0,0  L  -5.142,-58.775  C  -5.142,-58.775  79.65,-58.775  79.65,-348.1  C  274.276,-348.1  324.426,-267.86  324.426,-208.86  C  324.426,-149.86  274.276,-23.996  274.276,-23.996  L  0,0  z " />
<path transform="translate( 0, 0 )" style="stroke: hsl(53.8, 55%, 50%);" id="81"  d=" M  0,0  L  -5.142,-58.775  C  -5.142,-58.775  79.65,-58.775  79.65,-348.1  C  274.276,-348.1  324.426,-267.86  324.426,-208.86  C  324.426,-149.86  274.276,-23.996  274.276,-23.996  L  0,0  z " />
<path transform="translate( 0, 0 )" style="stroke: hsl(80.7, 55%, 50%);" id="121"  d=" M  0,0  L  -5.142,-58.775  C  -5.142,-58.775  79.65,-58.775  79.65,-348.1  C  274.276,-348.1  324.426,-267.86  324.426,-208.86  C  324.426,-149.86  274.276,-23.996  274.276,-23.996  L  0,0  z " />
<path transform="translate( 0, 0 )" style="stroke: hsl(107.6, 55%, 50%);" id="161"  d=" M  0,0  L  -5.142,-58.775  C  -5.142,-58.775  79.65,-58.775  79.65,-348.1  C  274.276,-348.1  324.426,-267.86  324.426,-208.86  C  324.426,-149.86  274.276,-23.996  274.276,-23.996  L  0,0  z " />
<path transform="translate( 0, 0 )" style="stroke: hsl(134.5, 55%, 50%);" id="201"  d=" M  0,0  L  -5.142,-58.775  C  -5.142,-58.775  79.65,-58.775  79.65,-348.1  C  274.276,-348.1  324.426,-267.86  324.426,-208.86  C  324.426,-149.86  274.276,-23.996  274.276,-23.996  L  0,0  z " />
<path transform="translate( 0, 0 )" style="stroke: hsl(161.4, 55%, 50%);" id="241"  d=" M  0,0  L  -5.142,-58.775  C  -5.142,-58.775  79.65,-58.775  79.65,-348.1  C  274.276,-348.1  324.426,-267.86  324.426,-208.86  C  324.426,-149.86  274.276,-23.996  274.276,-23.996  L  0,0  z " />
<path transform="translate( 0, 0 )" style="stroke: hsl(188.3, 55%, 50%);" id="281"  d=" M  0,0  L  -5.142,-58.775  C  -5.142,-58.775  79.65,-58.775  79.65,-348.1  C  274.276,-348.1  324.426,-267.86  324.426,-208.86  C  324.426,-149.86  274.276,-23.996  274.276,-23.996  L  0,0  z " />
<path transform="translate( 0, 0 )" style="stroke: hsl(215.2, 55%, 50%);" id="321"  d=" M  0,0  L  -5.142,-58.775  C  -5.142,-58.775  79.65,-58.775  79.65,-348.1  C  274.276,-348.1  324.426,-267.86  324.426,-208.86  C  324.426,-149.86  274.276,-23.996  274.276,-23.996  L  0,0  z " />
<path transform="translate( 0, 0 )" style="stroke: hsl(242.1, 55%, 50%);" id="361"  d=" M  0,0  L  -5.142,-58.775  C  -5.142,-58.775  79.65,-58.775  79.65,-348.1  C  274.276,-348.1  324.426,-267.86  324.426,-208.86  C  324.426,-149.86  274.276,-23.996  274.276,-23.996  L  0,0  z " />
<path transform="translate( 0, 0 )" style="stroke: hsl(269, 55%, 50%);" id="401"  d=" M  0,0  L  -5.142,-58.775  C  -5.142,-58.775  79.65,-58.775  79.65,-348.1  C  274.276,-348.1  324.426,-267.86  324.426,-208.86  C  324.426,-149.86  274.276,-23.996  274.276,-23.996  L  0,0  z " />
<path transform="translate( 0, 0 )" style="stroke: hsl(295.9, 55%, 50%);" id="441"  d=" M  0,0  L  -5.142,-58.775  C  -5.142,-58.775  79.65,-58.775  79.65,-348.1  C  274.276,-348.1  324.426,-267.86  324.426,-208.86  C  324.426,-149.86  274.276,-23.996  274.276,-23.996  L  0,0  z " />
    </g>
    <!-- End of group #hood -->
    
    <!-- Start of group #pouch -->
    <g id="pouch" >
    </g>
    <!-- End of group #pouch -->
    
    <!-- Start of group #sampler-front -->
    <g id="sampler-front" >
    </g>
    <!-- End of group #sampler-front -->
    
    <!-- Start of group #sampler-back -->
    <g id="sampler-back" >
    </g>
    <!-- End of group #sampler-back -->
    
    <!-- Start of group #sampler-sleeve -->
    <g id="sampler-sleeve" >
    </g>
    <!-- End of group #sampler-sleeve -->
    
    <!-- Start of group #sampler-hood -->
    <g id="sampler-hood" >
    </g>
    <!-- End of group #sampler-hood -->
</g>
<!-- End of group #patternContainer -->

</svg>

