<?xml version="1.0" encoding="UTF-8" standalone="no"?>
<svg
    xmlns="http://www.w3.org/2000/svg"
    xmlns:svg="http://www.w3.org/2000/svg"
    xmlns:xlink="http://www.w3.org/1999/xlink"
    xmlns:freesewing="http://freesewing.org/namespaces/freesewing" viewBox ="0 0 575 743"
    width ="575mm"
    height ="743mm"
    freesewing:version ="1.5.0"
    freesewing:origin ="joost.core.freesewing.org" 
>

<style type="text/css">
    <![CDATA[
    path { fill: none; stroke: #000000; stroke-opacity:1; stroke-width: 0.5; stroke-miterlimit:4; stroke-dashoffset:0; stroke-linecap:round; stroke-linejoin:round; }
    path.hidden { fill: none; stroke: none; }]]>
</style>


<!-- Start of group #patternContainer -->
<g id="patternContainer" >
    
    <!-- Start of group #frontBlock -->
    <g id="frontBlock" >
    </g>
    <!-- End of group #frontBlock -->
    
    <!-- Start of group #backBlock -->
    <g id="backBlock" >
    </g>
    <!-- End of group #backBlock -->
    
    <!-- Start of group #front -->
    <g id="front"  transform=" translate(5 -1.567)  translate(0 0) " >
        <path class="hidden" id="2"  d=" M  0,6.567  L  277.5,6.567  L  277.5,740  L  0,740  z " />
<path transform="translate( 0, 0 )" style="stroke: hsl(26.9, 55%, 50%);" id="8"  d=" M  0,500  L  0,740  L  252.5,740  L  252.5,500  C  252.5,415.333  277.5,246  277.5,246  C  165.116,246  150.848,127.846  165.116,11.433  L  125.414,6.567  C  109.878,133.328  109.06,140  0,140  z " />
<path transform="translate( 0, 0 )" style="stroke: hsl(53.8, 55%, 50%);" id="16"  d=" M  0,500  L  0,740  L  252.5,740  L  252.5,500  C  252.5,415.333  277.5,246  277.5,246  C  165.116,246  150.848,127.846  165.116,11.433  L  125.414,6.567  C  109.878,133.328  109.06,140  0,140  z " />
<path transform="translate( 0, 0 )" style="stroke: hsl(80.7, 55%, 50%);" id="24"  d=" M  0,500  L  0,740  L  252.5,740  L  252.5,500  C  252.5,415.333  276.328,254  276.328,254  C  165.116,254  150.848,127.846  165.116,11.433  L  125.414,6.567  C  109.878,133.328  109.06,140  0,140  z " />
<path transform="translate( 0, 0 )" style="stroke: hsl(107.6, 55%, 50%);" id="32"  d=" M  0,500  L  0,740  L  252.5,740  L  252.5,500  C  252.5,415.333  274.323,268  274.323,268  C  165.116,268  150.848,127.846  165.116,11.433  L  125.414,6.567  C  109.878,133.328  109.06,140  0,140  z " />
<path transform="translate( 0, 0 )" style="stroke: hsl(134.5, 55%, 50%);" id="40"  d=" M  0,500  L  0,740  L  252.5,740  L  252.5,500  C  252.5,415.333  272.378,282  272.378,282  C  165.116,282  150.848,127.846  165.116,11.433  L  125.414,6.567  C  109.878,133.328  109.06,140  0,140  z " />
<path transform="translate( 0, 0 )" style="stroke: hsl(161.4, 55%, 50%);" id="48"  d=" M  0,500  L  0,740  L  252.5,740  L  252.5,500  C  252.5,415.333  270.494,296  270.494,296  C  165.116,296  150.848,127.846  165.116,11.433  L  125.414,6.567  C  109.878,133.328  109.06,140  0,140  z " />
<path transform="translate( 0, 0 )" style="stroke: hsl(188.3, 55%, 50%);" id="56"  d=" M  0,500  L  0,740  L  252.5,740  L  252.5,500  C  252.5,415.333  268.674,310  268.674,310  C  165.116,310  150.848,127.846  165.116,11.433  L  125.414,6.567  C  109.878,133.328  109.06,140  0,140  z " />
<path transform="translate( 0, 0 )" style="stroke: hsl(215.2, 55%, 50%);" id="64"  d=" M  0,500  L  0,740  L  252.5,740  L  252.5,500  C  252.5,415.333  266.92,324  266.92,324  C  165.116,324  150.848,127.846  165.116,11.433  L  125.414,6.567  C  109.878,133.328  109.06,140  0,140  z " />
<path transform="translate( 0, 0 )" style="stroke: hsl(242.1, 55%, 50%);" id="72"  d=" M  0,500  L  0,740  L  252.5,740  L  252.5,500  C  252.5,415.333  265.234,338  265.234,338  C  165.116,338  150.848,127.846  165.116,11.433  L  125.414,6.567  C  109.878,133.328  109.06,140  0,140  z " />
<path transform="translate( 0, 0 )" style="stroke: hsl(269, 55%, 50%);" id="80"  d=" M  0,500  L  0,740  L  252.5,740  L  252.5,500  C  252.5,415.333  263.619,352  263.619,352  C  165.116,352  150.848,127.846  165.116,11.433  L  125.414,6.567  C  109.878,133.328  109.06,140  0,140  z " />
<path transform="translate( 0, 0 )" style="stroke: hsl(295.9, 55%, 50%);" id="88"  d=" M  0,500  L  0,740  L  252.5,740  L  252.5,500  C  252.5,415.333  262.08,366  262.08,366  C  165.116,366  150.848,127.846  165.116,11.433  L  125.414,6.567  C  109.878,133.328  109.06,140  0,140  z " />
    </g>
    <!-- End of group #front -->
    
    <!-- Start of group #back -->
    <g id="back"  transform=" translate(5 -1.567)  translate(287.5 0) " >
        <path class="hidden" id="3"  d=" M  0,6.567  L  277.5,6.567  L  277.5,740  L  0,740  z " />
<path transform="translate( 0, 0 )" style="stroke: hsl(26.9, 55%, 50%);" id="9"  d=" M  0,500  L  0,740  L  252.5,740  L  252.5,500  C  252.5,415.333  277.5,246  277.5,246  C  189.998,246  147.292,156.865  165.116,11.433  L  125.414,6.567  C  122.236,32.5  62.707,32.5  0,32.5  z " />
<path transform="translate( 0, 0 )" style="stroke: hsl(53.8, 55%, 50%);" id="17"  d=" M  0,500  L  0,740  L  252.5,740  L  252.5,500  C  252.5,415.333  277.5,246  277.5,246  C  189.998,246  147.292,156.865  165.116,11.433  L  125.414,6.567  C  122.236,32.5  62.707,32.5  0,32.5  z " />
<path transform="translate( 0, 0 )" style="stroke: hsl(80.7, 55%, 50%);" id="25"  d=" M  0,500  L  0,740  L  252.5,740  L  252.5,500  C  252.5,415.333  276.328,254  276.328,254  C  188.944,254  146.683,161.825  165.116,11.433  L  125.414,6.567  C  122.236,32.5  62.707,32.5  0,32.5  z " />
<path transform="translate( 0, 0 )" style="stroke: hsl(107.6, 55%, 50%);" id="33"  d=" M  0,500  L  0,740  L  252.5,740  L  252.5,500  C  252.5,415.333  274.323,268  274.323,268  C  187.118,268  145.619,170.505  165.116,11.433  L  125.414,6.567  C  122.236,32.5  62.707,32.5  0,32.5  z " />
<path transform="translate( 0, 0 )" style="stroke: hsl(134.5, 55%, 50%);" id="41"  d=" M  0,500  L  0,740  L  252.5,740  L  252.5,500  C  252.5,415.333  272.378,282  272.378,282  C  185.315,282  144.556,179.185  165.116,11.433  L  125.414,6.567  C  122.236,32.5  62.707,32.5  0,32.5  z " />
<path transform="translate( 0, 0 )" style="stroke: hsl(161.4, 55%, 50%);" id="49"  d=" M  0,500  L  0,740  L  252.5,740  L  252.5,500  C  252.5,415.333  270.494,296  270.494,296  C  183.535,296  143.492,187.865  165.116,11.433  L  125.414,6.567  C  122.236,32.5  62.707,32.5  0,32.5  z " />
<path transform="translate( 0, 0 )" style="stroke: hsl(188.3, 55%, 50%);" id="57"  d=" M  0,500  L  0,740  L  252.5,740  L  252.5,500  C  252.5,415.333  268.674,310  268.674,310  C  181.78,310  142.428,196.545  165.116,11.433  L  125.414,6.567  C  122.236,32.5  62.707,32.5  0,32.5  z " />
<path transform="translate( 0, 0 )" style="stroke: hsl(215.2, 55%, 50%);" id="65"  d=" M  0,500  L  0,740  L  252.5,740  L  252.5,500  C  252.5,415.333  266.92,324  266.92,324  C  180.05,324  141.364,205.225  165.116,11.433  L  125.414,6.567  C  122.236,32.5  62.707,32.5  0,32.5  z " />
<path transform="translate( 0, 0 )" style="stroke: hsl(242.1, 55%, 50%);" id="73"  d=" M  0,500  L  0,740  L  252.5,740  L  252.5,500  C  252.5,415.333  265.234,338  265.234,338  C  178.345,338  140.3,213.905  165.116,11.433  L  125.414,6.567  C  122.236,32.5  62.707,32.5  0,32.5  z " />
<path transform="translate( 0, 0 )" style="stroke: hsl(269, 55%, 50%);" id="81"  d=" M  0,500  L  0,740  L  252.5,740  L  252.5,500  C  252.5,415.333  263.619,352  263.619,352  C  176.668,352  139.237,222.585  165.116,11.433  L  125.414,6.567  C  122.236,32.5  62.707,32.5  0,32.5  z " />
<path transform="translate( 0, 0 )" style="stroke: hsl(295.9, 55%, 50%);" id="89"  d=" M  0,500  L  0,740  L  252.5,740  L  252.5,500  C  252.5,415.333  262.08,366  262.08,366  C  175.019,366  138.173,231.265  165.116,11.433  L  125.414,6.567  C  122.236,32.5  62.707,32.5  0,32.5  z " />
    </g>
    <!-- End of group #back -->
    
    <!-- Start of group #sampler-front -->
    <g id="sampler-front" >
    </g>
    <!-- End of group #sampler-front -->
    
    <!-- Start of group #sampler-back -->
    <g id="sampler-back" >
    </g>
    <!-- End of group #sampler-back -->
</g>
<!-- End of group #patternContainer -->

</svg>

