<?xml version="1.0" encoding="UTF-8" standalone="no"?>
<svg
    xmlns="http://www.w3.org/2000/svg"
    xmlns:svg="http://www.w3.org/2000/svg"
    xmlns:xlink="http://www.w3.org/1999/xlink"
    xmlns:freesewing="http://freesewing.org/namespaces/freesewing" viewBox ="0 0 566 743"
    width ="566mm"
    height ="743mm"
    freesewing:version ="1.5.0"
    freesewing:origin ="joost.core.freesewing.org" 
>

<style type="text/css">
    <![CDATA[
    path { fill: none; stroke: #000000; stroke-opacity:1; stroke-width: 0.5; stroke-miterlimit:4; stroke-dashoffset:0; stroke-linecap:round; stroke-linejoin:round; }
    path.hidden { fill: none; stroke: none; }]]>
</style>


<!-- Start of group #patternContainer -->
<g id="patternContainer" >
    
    <!-- Start of group #frontBlock -->
    <g id="frontBlock" >
    </g>
    <!-- End of group #frontBlock -->
    
    <!-- Start of group #backBlock -->
    <g id="backBlock" >
    </g>
    <!-- End of group #backBlock -->
    
    <!-- Start of group #front -->
    <g id="front"  transform=" translate(5 -1.567)  translate(0 0) " >
        <path class="hidden" id="2"  d=" M  0,6.567  L  273.204,6.567  L  273.204,740  L  0,740  z " />
<path transform="translate( 0, 0 )" style="stroke: hsl(26.9, 55%, 50%);" id="8"  d=" M  0,500  L  0,740  L  252.5,740  L  252.5,500  C  252.5,415.333  273.204,276  273.204,276  C  165.116,276  150.848,127.846  165.116,11.433  L  125.414,6.567  C  109.878,133.328  109.06,140  0,140  z " />
<path transform="translate( 0, 0 )" style="stroke: hsl(53.8, 55%, 50%);" id="16"  d=" M  0,500  L  0,740  L  252.5,740  L  252.5,500  C  252.5,415.333  273.204,276  273.204,276  C  165.116,276  150.848,127.846  165.116,11.433  L  125.414,6.567  C  109.878,133.328  109.06,140  0,140  z " />
<path transform="translate( 0, 0 )" style="stroke: hsl(80.7, 55%, 50%);" id="24"  d=" M  0,500  L  0,740  L  252.5,740  L  252.5,500  C  252.5,415.333  273.204,276  273.204,276  C  165.116,276  150.848,127.846  165.116,11.433  L  125.414,6.567  C  109.878,133.328  109.06,140  0,140  z " />
<path transform="translate( 0, 0 )" style="stroke: hsl(107.6, 55%, 50%);" id="32"  d=" M  0,500  L  0,740  L  252.5,740  L  252.5,500  C  252.5,415.333  273.204,276  273.204,276  C  165.116,276  150.848,127.846  165.116,11.433  L  125.414,6.567  C  109.878,133.328  109.06,140  0,140  z " />
<path transform="translate( 0, 0 )" style="stroke: hsl(134.5, 55%, 50%);" id="40"  d=" M  0,500  L  0,740  L  252.5,740  L  252.5,500  C  252.5,415.333  273.204,276  273.204,276  C  165.116,276  150.848,127.846  165.116,11.433  L  125.414,6.567  C  109.878,133.328  109.06,140  0,140  z " />
<path transform="translate( 0, 0 )" style="stroke: hsl(161.4, 55%, 50%);" id="48"  d=" M  0,500  L  0,740  L  252.5,740  L  252.5,500  C  252.5,415.333  273.204,276  273.204,276  C  165.116,276  150.848,127.846  165.116,11.433  L  125.414,6.567  C  109.878,133.328  109.06,140  0,140  z " />
<path transform="translate( 0, 0 )" style="stroke: hsl(188.3, 55%, 50%);" id="56"  d=" M  0,500  L  0,740  L  252.5,740  L  252.5,500  C  252.5,415.333  273.204,276  273.204,276  C  165.116,276  150.848,127.846  165.116,11.433  L  125.414,6.567  C  109.878,133.328  109.06,140  0,140  z " />
<path transform="translate( 0, 0 )" style="stroke: hsl(215.2, 55%, 50%);" id="64"  d=" M  0,500  L  0,740  L  252.5,740  L  252.5,500  C  252.5,415.333  273.204,276  273.204,276  C  165.116,276  150.848,127.846  165.116,11.433  L  125.414,6.567  C  109.878,133.328  109.06,140  0,140  z " />
<path transform="translate( 0, 0 )" style="stroke: hsl(242.1, 55%, 50%);" id="72"  d=" M  0,500  L  0,740  L  252.5,740  L  252.5,500  C  252.5,415.333  273.204,276  273.204,276  C  165.116,276  150.848,127.846  165.116,11.433  L  125.414,6.567  C  109.878,133.328  109.06,140  0,140  z " />
<path transform="translate( 0, 0 )" style="stroke: hsl(269, 55%, 50%);" id="80"  d=" M  0,500  L  0,740  L  252.5,740  L  252.5,500  C  252.5,415.333  273.204,276  273.204,276  C  165.116,276  150.848,127.846  165.116,11.433  L  125.414,6.567  C  109.878,133.328  109.06,140  0,140  z " />
<path transform="translate( 0, 0 )" style="stroke: hsl(295.9, 55%, 50%);" id="88"  d=" M  0,500  L  0,740  L  252.5,740  L  252.5,500  C  252.5,415.333  273.204,276  273.204,276  C  165.116,276  150.848,127.846  165.116,11.433  L  125.414,6.567  C  109.878,133.328  109.06,140  0,140  z " />
    </g>
    <!-- End of group #front -->
    
    <!-- Start of group #back -->
    <g id="back"  transform=" translate(5 -1.567)  translate(283.204 0) " >
        <path class="hidden" id="3"  d=" M  0,6.567  L  273.204,6.567  L  273.204,740  L  0,740  z " />
<path transform="translate( 0, 0 )" style="stroke: hsl(26.9, 55%, 50%);" id="9"  d=" M  0,500  L  0,740  L  252.5,740  L  252.5,500  C  252.5,415.333  273.204,276  273.204,276  C  202.947,276  148.903,143.716  165.116,11.433  L  125.414,6.567  C  122.236,32.5  62.707,32.5  0,32.5  z " />
<path transform="translate( 0, 0 )" style="stroke: hsl(53.8, 55%, 50%);" id="17"  d=" M  0,500  L  0,740  L  252.5,740  L  252.5,500  C  252.5,415.333  273.204,276  273.204,276  C  197.326,276  147.606,154.299  165.116,11.433  L  125.414,6.567  C  122.236,32.5  62.707,32.5  0,32.5  z " />
<path transform="translate( 0, 0 )" style="stroke: hsl(80.7, 55%, 50%);" id="25"  d=" M  0,500  L  0,740  L  252.5,740  L  252.5,500  C  252.5,415.333  273.204,276  273.204,276  C  191.706,276  146.309,164.882  165.116,11.433  L  125.414,6.567  C  122.236,32.5  62.707,32.5  0,32.5  z " />
<path transform="translate( 0, 0 )" style="stroke: hsl(107.6, 55%, 50%);" id="33"  d=" M  0,500  L  0,740  L  252.5,740  L  252.5,500  C  252.5,415.333  273.204,276  273.204,276  C  186.085,276  145.012,175.465  165.116,11.433  L  125.414,6.567  C  122.236,32.5  62.707,32.5  0,32.5  z " />
<path transform="translate( 0, 0 )" style="stroke: hsl(134.5, 55%, 50%);" id="41"  d=" M  0,500  L  0,740  L  252.5,740  L  252.5,500  C  252.5,415.333  273.204,276  273.204,276  C  180.465,276  143.715,186.047  165.116,11.433  L  125.414,6.567  C  122.236,32.5  62.707,32.5  0,32.5  z " />
<path transform="translate( 0, 0 )" style="stroke: hsl(161.4, 55%, 50%);" id="49"  d=" M  0,500  L  0,740  L  252.5,740  L  252.5,500  C  252.5,415.333  273.204,276  273.204,276  C  174.844,276  142.418,196.63  165.116,11.433  L  125.414,6.567  C  122.236,32.5  62.707,32.5  0,32.5  z " />
<path transform="translate( 0, 0 )" style="stroke: hsl(188.3, 55%, 50%);" id="57"  d=" M  0,500  L  0,740  L  252.5,740  L  252.5,500  C  252.5,415.333  273.204,276  273.204,276  C  169.224,276  141.121,207.213  165.116,11.433  L  125.414,6.567  C  122.236,32.5  62.707,32.5  0,32.5  z " />
<path transform="translate( 0, 0 )" style="stroke: hsl(215.2, 55%, 50%);" id="65"  d=" M  0,500  L  0,740  L  252.5,740  L  252.5,500  C  252.5,415.333  273.204,276  273.204,276  C  163.603,276  139.824,217.795  165.116,11.433  L  125.414,6.567  C  122.236,32.5  62.707,32.5  0,32.5  z " />
<path transform="translate( 0, 0 )" style="stroke: hsl(242.1, 55%, 50%);" id="73"  d=" M  0,500  L  0,740  L  252.5,740  L  252.5,500  C  252.5,415.333  273.204,276  273.204,276  C  157.983,276  138.527,228.378  165.116,11.433  L  125.414,6.567  C  122.236,32.5  62.707,32.5  0,32.5  z " />
<path transform="translate( 0, 0 )" style="stroke: hsl(269, 55%, 50%);" id="81"  d=" M  0,500  L  0,740  L  252.5,740  L  252.5,500  C  252.5,415.333  273.204,276  273.204,276  C  152.362,276  137.23,238.96  165.116,11.433  L  125.414,6.567  C  122.236,32.5  62.707,32.5  0,32.5  z " />
<path transform="translate( 0, 0 )" style="stroke: hsl(295.9, 55%, 50%);" id="89"  d=" M  0,500  L  0,740  L  252.5,740  L  252.5,500  C  252.5,415.333  273.204,276  273.204,276  C  146.741,276  135.933,249.543  165.116,11.433  L  125.414,6.567  C  122.236,32.5  62.707,32.5  0,32.5  z " />
    </g>
    <!-- End of group #back -->
    
    <!-- Start of group #sampler-front -->
    <g id="sampler-front" >
    </g>
    <!-- End of group #sampler-front -->
    
    <!-- Start of group #sampler-back -->
    <g id="sampler-back" >
    </g>
    <!-- End of group #sampler-back -->
</g>
<!-- End of group #patternContainer -->

</svg>

