<?xml version="1.0" encoding="UTF-8" standalone="no"?>
<svg
    width ="906.67559141756"
    height ="3204.329530621"
    viewbox ="0 0 906.67559141756 3204.329530621" xmlns:dc="http://purl.org/dc/elements/1.1/"
    xmlns:cc="http://creativecommons.org/ns#"
    xmlns:rdf="http://www.w3.org/1999/02/22-rdf-syntax-ns#"
    xmlns:svg="http://www.w3.org/2000/svg"
    xmlns="http://www.w3.org/2000/svg"
    xmlns:xlink="http://www.w3.org/1999/xlink"
    xmlns:sodipodi="http://sodipodi.sourceforge.net/DTD/sodipodi-0.dtd"
    xmlns:inkscape="http://www.inkscape.org/namespaces/inkscape" 
>

<style type="text/css">
    <![CDATA[
    path { fill: none; stroke: #000000; stroke-opacity:1; stroke-width: 0.5; stroke-miterlimit:4; stroke-dashoffset:0; stroke-linecap:round; stroke-linejoin:round; }
    path.hidden { fill: none; stroke: none; }]]>
</style>


<!-- Start of group #patternScaleContainer -->
<g id="patternScaleContainer"  transform=" scale(3.54330709 ) " >
    
    <!-- Start of group #front -->
    <g id="front"  transform=" translate(5 159.333)  translate(0 0) " >
        <path class="hidden" id="2"  d=" M  0,-154.333  L  245.884,-154.333  L  245.884,740  L  0,740  z " />
<path transform="translate( 0, 0 )" style="stroke: hsl(26.9, 55%, 50%);" id="8"  d=" M  0,500  L  0,740  L  227.25,740  L  227.25,500  C  227.25,415.333  245.884,276  245.884,276  C  157.775,276  143.452,127.393  157.775,10.533  L  118.073,5.667  C  111.414,60  111.414,60  0,60  z " />
<path transform="translate( 0, -16 )" style="stroke: hsl(53.8, 55%, 50%);" id="16"  d=" M  0,500  L  0,740  L  227.25,740  L  227.25,500  C  227.25,415.333  245.884,276  245.884,276  C  157.775,276  143.452,127.393  157.775,10.533  L  118.073,5.667  C  109.453,76  109.453,76  0,76  z " />
<path transform="translate( 0, -32 )" style="stroke: hsl(80.7, 55%, 50%);" id="24"  d=" M  0,500  L  0,740  L  227.25,740  L  227.25,500  C  227.25,415.333  245.884,276  245.884,276  C  157.775,276  143.452,127.393  157.775,10.533  L  118.073,5.667  C  107.492,92  107.492,92  0,92  z " />
<path transform="translate( 0, -48 )" style="stroke: hsl(107.6, 55%, 50%);" id="32"  d=" M  0,500  L  0,740  L  227.25,740  L  227.25,500  C  227.25,415.333  245.884,276  245.884,276  C  157.775,276  143.452,127.393  157.775,10.533  L  118.073,5.667  C  105.531,108  105.531,108  0,108  z " />
<path transform="translate( 0, -64 )" style="stroke: hsl(134.5, 55%, 50%);" id="40"  d=" M  0,500  L  0,740  L  227.25,740  L  227.25,500  C  227.25,415.333  245.884,276  245.884,276  C  157.775,276  143.452,127.393  157.775,10.533  L  118.073,5.667  C  103.57,124  103.57,124  0,124  z " />
<path transform="translate( 0, -80 )" style="stroke: hsl(161.4, 55%, 50%);" id="48"  d=" M  0,500  L  0,740  L  227.25,740  L  227.25,500  C  227.25,415.333  245.884,276  245.884,276  C  157.775,276  143.452,127.393  157.775,10.533  L  118.073,5.667  C  101.609,140  101.609,140  0,140  z " />
<path transform="translate( 0, -96 )" style="stroke: hsl(188.3, 55%, 50%);" id="56"  d=" M  0,500  L  0,740  L  227.25,740  L  227.25,500  C  227.25,415.333  245.884,276  245.884,276  C  157.775,276  143.452,127.393  157.775,10.533  L  118.073,5.667  C  99.648,156  99.648,156  0,156  z " />
<path transform="translate( 0, -112 )" style="stroke: hsl(215.2, 55%, 50%);" id="64"  d=" M  0,500  L  0,740  L  227.25,740  L  227.25,500  C  227.25,415.333  245.884,276  245.884,276  C  157.775,276  143.452,127.393  157.775,10.533  L  118.073,5.667  C  97.687,172  97.687,172  0,172  z " />
<path transform="translate( 0, -128 )" style="stroke: hsl(242.1, 55%, 50%);" id="72"  d=" M  0,500  L  0,740  L  227.25,740  L  227.25,500  C  227.25,415.333  245.884,276  245.884,276  C  157.775,276  143.452,127.393  157.775,10.533  L  118.073,5.667  C  95.726,188  95.726,188  0,188  z " />
<path transform="translate( 0, -144 )" style="stroke: hsl(269, 55%, 50%);" id="80"  d=" M  0,500  L  0,740  L  227.25,740  L  227.25,500  C  227.25,415.333  245.884,276  245.884,276  C  157.775,276  143.452,127.393  157.775,10.533  L  118.073,5.667  C  93.765,204  93.765,204  0,204  z " />
<path transform="translate( 0, -160 )" style="stroke: hsl(295.9, 55%, 50%);" id="88"  d=" M  0,500  L  0,740  L  227.25,740  L  227.25,500  C  227.25,415.333  245.884,276  245.884,276  C  157.775,276  143.452,127.393  157.775,10.533  L  118.073,5.667  C  91.804,220  91.804,220  0,220  z " />
    </g>
    <!-- End of group #front -->
</g>
<!-- End of group #patternScaleContainer -->

</svg>

