<?xml version="1.0" encoding="UTF-8" standalone="no"?>
<svg
    width ="1302.1086626616"
    height ="2828.8240184511"
    viewbox ="0 0 1302.1086626616 2828.8240184511" xmlns:dc="http://purl.org/dc/elements/1.1/"
    xmlns:cc="http://creativecommons.org/ns#"
    xmlns:rdf="http://www.w3.org/1999/02/22-rdf-syntax-ns#"
    xmlns:svg="http://www.w3.org/2000/svg"
    xmlns="http://www.w3.org/2000/svg"
    xmlns:xlink="http://www.w3.org/1999/xlink"
    xmlns:sodipodi="http://sodipodi.sourceforge.net/DTD/sodipodi-0.dtd"
    xmlns:inkscape="http://www.inkscape.org/namespaces/inkscape" 
>

<style type="text/css">
    <![CDATA[
    path { fill: none; stroke: #000000; stroke-opacity:1; stroke-width: 0.5; stroke-miterlimit:4; stroke-dashoffset:0; stroke-linecap:round; stroke-linejoin:round; }
    path.hidden { fill: none; stroke: none; }]]>
</style>


<!-- Start of group #patternScaleContainer -->
<g id="patternScaleContainer"  transform=" scale(3.54330709 ) " >
    
    <!-- Start of group #sleeve -->
    <g id="sleeve"  transform=" translate(183.742 5)  translate(0 0) " >
        <path class="hidden" id="2"  d=" M  -178.742,0  L  178.742,0  L  178.742,788.357  L  -178.742,788.357  z " />
<path transform="translate( 0, 0 )" style="stroke: hsl(26.9, 55%, 50%);" id="204"  d=" M  -156.958,156.958  C  -156.958,156.958  -126.902,126.879  -113.791,110.233  C  -100.68,93.587  -78.479,57.319  -78.479,57.319  C  -78.479,57.319  -65.198,29.044  -48.087,16.547  C  -30.976,4.05  -21.189,-0  5,0  C  21.189,0  40.785,4.902  56.8,18.776  C  72.815,32.65  83.479,72.319  83.479,72.319  C  83.479,72.319  95.001,108.472  108.892,124.473  C  122.783,140.474  156.958,156.958  156.958,156.958  L  142.5,760  C  142.5,760  111.875,763  81.25,763  C  65.827,762.471  50.625,761.845  50.625,761.845  L  30.625,761.845  C  10.302,761.009  0,760  0,760  L  -20,760  C  -20,760  -50.625,757  -81.25,757  C  -111.875,757  -142.5,760  -142.5,760  z " />
<path transform="translate( 0, 2.753 )" style="stroke: hsl(53.8, 55%, 50%);" id="413"  d=" M  -159.728,154.205  C  -159.728,154.205  -129.561,125.168  -115.923,108.466  C  -102.285,91.764  -79.864,56.402  -79.864,56.402  C  -79.864,56.402  -66.198,28.387  -48.585,15.948  C  -30.972,3.509  -21.563,-0  5,0  C  21.563,0  40.74,4.22  57.24,18.102  C  73.74,31.984  84.864,71.402  84.864,71.402  C  84.864,71.402  96.708,106.869  111.169,122.864  C  125.63,138.859  159.728,154.205  159.728,154.205  L  142.5,760  C  142.5,760  111.875,763  81.25,763  C  65.827,762.471  50.625,761.845  50.625,761.845  L  30.625,761.845  C  10.302,761.009  0,760  0,760  L  -20,760  C  -20,760  -50.625,757  -81.25,757  C  -111.875,757  -142.5,760  -142.5,760  z " />
<path transform="translate( 0, 5.474 )" style="stroke: hsl(80.7, 55%, 50%);" id="622"  d=" M  -162.337,151.484  C  -162.337,151.484  -132.086,123.453  -117.935,106.718  C  -103.784,89.983  -81.169,55.495  -81.169,55.495  C  -81.169,55.495  -67.143,27.734  -49.051,15.365  C  -30.959,2.996  -21.916,-0  5,0  C  21.916,0  40.686,3.569  57.649,17.446  C  74.612,31.323  86.169,70.495  86.169,70.495  C  86.169,70.495  98.312,105.301  113.326,121.266  C  128.34,137.231  162.337,151.484  162.337,151.484  L  142.5,760  C  142.5,760  111.875,763  81.25,763  C  65.827,762.471  50.625,761.845  50.625,761.845  L  30.625,761.845  C  10.302,761.009  0,760  0,760  L  -20,760  C  -20,760  -50.625,757  -81.25,757  C  -111.875,757  -142.5,760  -142.5,760  z " />
<path transform="translate( 0, 8.489 )" style="stroke: hsl(107.6, 55%, 50%);" id="831"  d=" M  -164.424,148.469  C  -164.424,148.469  -134.17,121.479  -119.555,104.772  C  -104.94,88.065  -82.212,54.49  -82.212,54.49  C  -82.212,54.49  -67.895,27.005  -49.393,14.742  C  -30.891,2.479  -22.197,-0  5,0  C  22.197,0  40.579,2.925  57.939,16.757  C  75.299,30.589  87.212,69.49  87.212,69.49  C  87.212,69.49  99.575,103.594  115.092,119.466  C  130.609,135.338  164.424,148.469  164.424,148.469  L  142.5,760  C  142.5,760  111.875,763  81.25,763  C  65.827,762.471  50.625,761.845  50.625,761.845  L  30.625,761.845  C  10.302,761.009  0,760  0,760  L  -20,760  C  -20,760  -50.625,757  -81.25,757  C  -111.875,757  -142.5,760  -142.5,760  z " />
<path transform="translate( 0, 10.662 )" style="stroke: hsl(134.5, 55%, 50%);" id="1040"  d=" M  -167.257,146.296  C  -167.257,146.296  -136.874,120.136  -121.734,103.384  C  -106.594,86.632  -83.629,53.765  -83.629,53.765  C  -83.629,53.765  -68.92,26.477  -49.927,14.266  C  -30.934,2.055  -22.58,-0  5,0  C  22.58,0  40.574,2.369  58.414,16.211  C  76.254,30.053  88.629,68.765  88.629,68.765  C  88.629,68.765  101.333,102.358  117.411,118.212  C  133.489,134.066  167.257,146.296  167.257,146.296  L  142.5,760  C  142.5,760  111.875,763  81.25,763  C  65.827,762.471  50.625,761.845  50.625,761.845  L  30.625,761.845  C  10.302,761.009  0,760  0,760  L  -20,760  C  -20,760  -50.625,757  -81.25,757  C  -111.875,757  -142.5,760  -142.5,760  z " />
<path transform="translate( 0, 13.186 )" style="stroke: hsl(161.4, 55%, 50%);" id="1249"  d=" M  -169.522,143.772  C  -169.522,143.772  -139.098,118.492  -123.486,101.759  C  -107.874,85.026  -84.761,52.924  -84.761,52.924  C  -84.761,52.924  -69.737,25.86  -50.325,13.739  C  -30.913,1.618  -22.885,-0  5,0  C  22.885,0  40.511,1.812  58.76,15.621  C  77.009,29.43  89.761,67.924  89.761,67.924  C  89.761,67.924  102.721,100.948  119.305,116.718  C  135.889,132.488  169.522,143.772  169.522,143.772  L  142.5,760  C  142.5,760  111.875,763  81.25,763  C  65.827,762.471  50.625,761.845  50.625,761.845  L  30.625,761.845  C  10.302,761.009  0,760  0,760  L  -20,760  C  -20,760  -50.625,757  -81.25,757  C  -111.875,757  -142.5,760  -142.5,760  z " />
<path transform="translate( 0, 15.765 )" style="stroke: hsl(188.3, 55%, 50%);" id="1458"  d=" M  -171.539,141.193  C  -171.539,141.193  -141.11,116.783  -125.052,100.096  C  -108.994,83.409  -85.77,52.064  -85.77,52.064  C  -85.77,52.064  -70.465,25.226  -50.669,13.209  C  -30.873,1.192  -23.158,-0  5,0  C  23.158,0  40.426,1.272  59.052,15.033  C  77.678,28.794  90.77,67.064  90.77,67.064  C  90.77,67.064  103.951,99.521  121.012,115.18  C  138.073,130.839  171.539,141.193  171.539,141.193  L  142.5,760  C  142.5,760  111.875,763  81.25,763  C  65.827,762.471  50.625,761.845  50.625,761.845  L  30.625,761.845  C  10.302,761.009  0,760  0,760  L  -20,760  C  -20,760  -50.625,757  -81.25,757  C  -111.875,757  -142.5,760  -142.5,760  z " />
<path transform="translate( 0, 18.575 )" style="stroke: hsl(215.2, 55%, 50%);" id="1667"  d=" M  -173.082,138.383  C  -173.082,138.383  -142.716,114.867  -126.262,98.277  C  -109.808,81.687  -86.541,51.128  -86.541,51.128  C  -86.541,51.128  -71.018,24.534  -50.901,12.649  C  -30.784,0.764  -23.366,-0  5,0  C  23.366,0  40.298,0.737  59.239,14.42  C  78.18,28.103  91.541,66.128  91.541,66.128  C  91.541,66.128  104.876,97.987  122.364,113.483  C  139.852,128.979  173.082,138.383  173.082,138.383  L  142.5,760  C  142.5,760  111.875,763  81.25,763  C  65.827,762.471  50.625,761.845  50.625,761.845  L  30.625,761.845  C  10.302,761.009  0,760  0,760  L  -20,760  C  -20,760  -50.625,757  -81.25,757  C  -111.875,757  -142.5,760  -142.5,760  z " />
<path transform="translate( 0, 20.437 )" style="stroke: hsl(242.1, 55%, 50%);" id="1876"  d=" M  -175.643,136.521  C  -175.643,136.521  -145.174,113.678  -128.234,97.086  C  -111.294,80.494  -87.822,50.507  -87.822,50.507  C  -87.822,50.507  -71.944,24.072  -51.389,12.251  C  -30.834,0.43  -23.712,-0  5,0  C  23.712,0  40.3,0.29  59.673,13.962  C  79.046,27.634  92.822,65.507  92.822,65.507  C  92.822,65.507  106.468,96.966  124.469,112.401  C  142.47,127.836  175.643,136.521  175.643,136.521  L  142.5,760  C  142.5,760  111.875,763  81.25,763  C  65.827,762.471  50.625,761.845  50.625,761.845  L  30.625,761.845  C  10.302,761.009  0,760  0,760  L  -20,760  C  -20,760  -50.625,757  -81.25,757  C  -111.875,757  -142.5,760  -142.5,760  z " />
<path transform="translate( 0, 22.739 )" style="stroke: hsl(269, 55%, 50%);" id="2085"  d=" M  -177.49,134.219  C  -177.49,134.219  -147.026,112.123  -129.671,95.602  C  -112.316,79.081  -88.745,49.74  -88.745,49.74  C  -88.745,49.74  -72.609,23.5  -51.707,11.785  C  -30.805,0.07  -23.961,-0  5,0  C  23.961,0  40.227,-0.172  59.943,13.444  C  79.659,27.06  93.745,64.74  93.745,64.74  C  93.745,64.74  107.599,95.725  126.04,111.024  C  144.481,126.323  177.49,134.219  177.49,134.219  L  142.5,760  C  142.5,760  111.875,763  81.25,763  C  65.827,762.471  50.625,761.845  50.625,761.845  L  30.625,761.845  C  10.302,761.009  0,760  0,760  L  -20,760  C  -20,760  -50.625,757  -81.25,757  C  -111.875,757  -142.5,760  -142.5,760  z " />
<path transform="translate( 0, 25.357 )" style="stroke: hsl(295.9, 55%, 50%);" id="2294"  d=" M  -178.742,131.601  C  -178.742,131.601  -148.367,110.295  -130.66,93.903  C  -112.953,77.511  -89.371,48.867  -89.371,48.867  C  -89.371,48.867  -73.054,22.849  -51.882,11.273  C  -30.71,-0.303  -24.13,-0  5,0  C  24.13,0  40.093,-0.638  60.077,12.886  C  80.061,26.41  94.371,63.867  94.371,63.867  C  94.371,63.867  108.35,94.325  127.167,109.431  C  145.984,124.537  178.742,131.601  178.742,131.601  L  142.5,760  C  142.5,760  111.875,763  81.25,763  C  65.827,762.471  50.625,761.845  50.625,761.845  L  30.625,761.845  C  10.302,761.009  0,760  0,760  L  -20,760  C  -20,760  -50.625,757  -81.25,757  C  -111.875,757  -142.5,760  -142.5,760  z " />
    </g>
    <!-- End of group #sleeve -->
</g>
<!-- End of group #patternScaleContainer -->

</svg>

