<?xml version="1.0" encoding="UTF-8" standalone="no"?>
<svg
    width ="1526.7472455534"
    height ="301.18110265"
    viewbox ="0 0 1526.7472455534 301.18110265" xmlns:dc="http://purl.org/dc/elements/1.1/"
    xmlns:cc="http://creativecommons.org/ns#"
    xmlns:rdf="http://www.w3.org/1999/02/22-rdf-syntax-ns#"
    xmlns:svg="http://www.w3.org/2000/svg"
    xmlns="http://www.w3.org/2000/svg"
    xmlns:xlink="http://www.w3.org/1999/xlink"
    xmlns:sodipodi="http://sodipodi.sourceforge.net/DTD/sodipodi-0.dtd"
    xmlns:inkscape="http://www.inkscape.org/namespaces/inkscape" 
>

<style type="text/css">
    <![CDATA[
    path { fill: none; stroke: #000000; stroke-opacity:1; stroke-width: 0.5; stroke-miterlimit:4; stroke-dashoffset:0; stroke-linecap:round; stroke-linejoin:round; }
    path.hidden { fill: none; stroke: none; }]]>
</style>


<!-- Start of group #patternScaleContainer -->
<g id="patternScaleContainer"  transform=" scale(3.54330709 ) " >
    
    <!-- Start of group #collar -->
    <g id="collar"  transform=" translate(215.441 80)  translate(0 0) " >
        <path class="hidden" id="2"  d=" M  -210.441,-75  L  210.441,-75  L  210.441,0  L  -210.441,0  z " />
<path transform="translate( 0, 0 )" style="stroke: hsl(26.9, 55%, 50%);" id="206"  d=" M  0,-15  C  173.104,-15  203.88,0  203.88,0  L  209.129,-60  C  209.129,-60  151.466,-50  104.565,-50  L  -104.565,-50  C  -151.466,-50  -209.129,-60  -209.129,-60  L  -203.88,0  C  -203.88,0  -173.104,-15  0,-15  z " />
<path transform="translate( 0, 0 )" style="stroke: hsl(53.8, 55%, 50%);" id="415"  d=" M  0,-15  C  173.104,-15  203.88,0  203.88,0  L  209.26,-61.5  C  209.26,-61.5  151.466,-51.5  104.63,-51.5  L  -104.63,-51.5  C  -151.466,-51.5  -209.26,-61.5  -209.26,-61.5  L  -203.88,0  C  -203.88,0  -173.104,-15  0,-15  z " />
<path transform="translate( 0, 0 )" style="stroke: hsl(80.7, 55%, 50%);" id="624"  d=" M  0,-15  C  173.104,-15  203.88,0  203.88,0  L  209.391,-63  C  209.391,-63  151.466,-53  104.696,-53  L  -104.696,-53  C  -151.466,-53  -209.391,-63  -209.391,-63  L  -203.88,0  C  -203.88,0  -173.104,-15  0,-15  z " />
<path transform="translate( 0, 0 )" style="stroke: hsl(107.6, 55%, 50%);" id="833"  d=" M  0,-15  C  173.104,-15  203.88,0  203.88,0  L  209.523,-64.5  C  209.523,-64.5  151.466,-54.5  104.762,-54.5  L  -104.762,-54.5  C  -151.466,-54.5  -209.523,-64.5  -209.523,-64.5  L  -203.88,0  C  -203.88,0  -173.104,-15  0,-15  z " />
<path transform="translate( 0, 0 )" style="stroke: hsl(134.5, 55%, 50%);" id="1042"  d=" M  0,-15  C  173.104,-15  203.88,0  203.88,0  L  209.654,-66  C  209.654,-66  151.466,-56  104.827,-56  L  -104.827,-56  C  -151.466,-56  -209.654,-66  -209.654,-66  L  -203.88,0  C  -203.88,0  -173.104,-15  0,-15  z " />
<path transform="translate( 0, 0 )" style="stroke: hsl(161.4, 55%, 50%);" id="1251"  d=" M  0,-15  C  173.104,-15  203.88,0  203.88,0  L  209.785,-67.5  C  209.785,-67.5  151.466,-57.5  104.893,-57.5  L  -104.893,-57.5  C  -151.466,-57.5  -209.785,-67.5  -209.785,-67.5  L  -203.88,0  C  -203.88,0  -173.104,-15  0,-15  z " />
<path transform="translate( 0, 0 )" style="stroke: hsl(188.3, 55%, 50%);" id="1460"  d=" M  0,-15  C  173.104,-15  203.88,0  203.88,0  L  209.916,-69  C  209.916,-69  151.466,-59  104.958,-59  L  -104.958,-59  C  -151.466,-59  -209.916,-69  -209.916,-69  L  -203.88,0  C  -203.88,0  -173.104,-15  0,-15  z " />
<path transform="translate( 0, 0 )" style="stroke: hsl(215.2, 55%, 50%);" id="1669"  d=" M  0,-15  C  173.104,-15  203.88,0  203.88,0  L  210.048,-70.5  C  210.048,-70.5  151.466,-60.5  105.024,-60.5  L  -105.024,-60.5  C  -151.466,-60.5  -210.048,-70.5  -210.048,-70.5  L  -203.88,0  C  -203.88,0  -173.104,-15  0,-15  z " />
<path transform="translate( 0, 0 )" style="stroke: hsl(242.1, 55%, 50%);" id="1878"  d=" M  0,-15  C  173.104,-15  203.88,0  203.88,0  L  210.179,-72  C  210.179,-72  151.466,-62  105.09,-62  L  -105.09,-62  C  -151.466,-62  -210.179,-72  -210.179,-72  L  -203.88,0  C  -203.88,0  -173.104,-15  0,-15  z " />
<path transform="translate( 0, 0 )" style="stroke: hsl(269, 55%, 50%);" id="2087"  d=" M  0,-15  C  173.104,-15  203.88,0  203.88,0  L  210.31,-73.5  C  210.31,-73.5  151.466,-63.5  105.155,-63.5  L  -105.155,-63.5  C  -151.466,-63.5  -210.31,-73.5  -210.31,-73.5  L  -203.88,0  C  -203.88,0  -173.104,-15  0,-15  z " />
<path transform="translate( 0, 0 )" style="stroke: hsl(295.9, 55%, 50%);" id="2296"  d=" M  0,-15  C  173.104,-15  203.88,0  203.88,0  L  210.441,-75  C  210.441,-75  151.466,-65  105.221,-65  L  -105.221,-65  C  -151.466,-65  -210.441,-75  -210.441,-75  L  -203.88,0  C  -203.88,0  -173.104,-15  0,-15  z " />
    </g>
    <!-- End of group #collar -->
</g>
<!-- End of group #patternScaleContainer -->

</svg>

