<?xml version="1.0" encoding="UTF-8" standalone="no"?>
<svg
    xmlns="http://www.w3.org/2000/svg"
    xmlns:svg="http://www.w3.org/2000/svg"
    xmlns:xlink="http://www.w3.org/1999/xlink"
    xmlns:freesewing="http://freesewing.org/namespaces/freesewing" viewBox ="0 0 1934 1007"
    width ="1934mm"
    height ="1007mm"
    freesewing:version ="1.5.0"
    freesewing:origin ="joost.core.freesewing.org" 
>

<style type="text/css">
    <![CDATA[
    path { fill: none; stroke: #000000; stroke-opacity:1; stroke-width: 0.5; stroke-miterlimit:4; stroke-dashoffset:0; stroke-linecap:round; stroke-linejoin:round; }
    path.hidden { fill: none; stroke: none; }]]>
</style>


<!-- Start of group #patternContainer -->
<g id="patternContainer" >
    
    <!-- Start of group #backBlock -->
    <g id="backBlock" >
    </g>
    <!-- End of group #backBlock -->
    
    <!-- Start of group #frontBlock -->
    <g id="frontBlock" >
    </g>
    <!-- End of group #frontBlock -->
    
    <!-- Start of group #sleeveBlock -->
    <g id="sleeveBlock" >
    </g>
    <!-- End of group #sleeveBlock -->
    
    <!-- Start of group #block -->
    <g id="block" >
    </g>
    <!-- End of group #block -->
    
    <!-- Start of group #frontAndBackBlock -->
    <g id="frontAndBackBlock" >
    </g>
    <!-- End of group #frontAndBackBlock -->
    
    <!-- Start of group #frontRight -->
    <g id="frontRight"  transform=" translate(315 5)  translate(0 0) " >
        <path class="hidden" id="2"  d=" M  -310,0  L  30,0  L  30,835  L  -310,835  z " />
<path transform="translate( 0, 0 )" style="stroke: hsl(26.9, 55%, 50%);" id="200"  d=" M  -310,284.5  C  -288.75,284.5  -269.166,276.922  -250.872,258.628  C  -232.578,240.334  -220,193.833  -220,152.25  C  -220,110.667  -233.338,37.361  -235,27.5  L  -71.847,0  C  -68.523,19.722  -71.847,100.842  0,100.842  L  20,100.842  C  23.592,100.842  26.997,100.639  30,100.278  L  30,100.842  L  30,835  L  -249,835  C  -249,835  -280,835  -280,835  C  -280,835  -280,755  -280,755  C  -280,734  -276.99,705.994  -277.5,685  C  -277.94,666.875  -280.75,612.5  -280.75,540  C  -280.75,412.25  -310,316.437  -310,284.5 " />
<path transform="translate( 0, 0 )" style="stroke: hsl(53.8, 55%, 50%);" id="409"  d=" M  -310,284.5  C  -288.75,284.5  -269.166,276.922  -250.872,258.628  C  -232.578,240.334  -220,193.833  -220,152.25  C  -220,110.667  -233.338,37.361  -235,27.5  L  -71.847,0  C  -68.523,19.722  -71.847,100.842  0,100.842  L  20,100.842  C  23.592,100.842  26.997,100.639  30,100.278  L  30,100.842  L  30,835  L  -249,835  C  -249,835  -280,835  -280,835  C  -280,835  -280,755  -280,755  C  -280,734  -276.99,705.994  -277.5,685  C  -277.94,666.875  -280.75,612.5  -280.75,540  C  -280.75,412.25  -310,316.437  -310,284.5 " />
<path transform="translate( 0, 0 )" style="stroke: hsl(80.7, 55%, 50%);" id="618"  d=" M  -310,284.5  C  -288.75,284.5  -269.166,276.922  -250.872,258.628  C  -232.578,240.334  -220,193.833  -220,152.25  C  -220,110.667  -233.338,37.361  -235,27.5  L  -71.847,0  C  -68.523,19.722  -71.847,100.842  0,100.842  L  20,100.842  C  23.592,100.842  26.997,100.639  30,100.278  L  30,100.842  L  30,835  L  -249,835  C  -249,835  -280,835  -280,835  C  -280,835  -280,755  -280,755  C  -280,734  -276.99,705.994  -277.5,685  C  -277.94,666.875  -280.75,612.5  -280.75,540  C  -280.75,412.25  -310,316.437  -310,284.5 " />
<path transform="translate( 0, 0 )" style="stroke: hsl(107.6, 55%, 50%);" id="827"  d=" M  -310,284.5  C  -288.75,284.5  -269.166,276.922  -250.872,258.628  C  -232.578,240.334  -220,193.833  -220,152.25  C  -220,110.667  -233.338,37.361  -235,27.5  L  -71.847,0  C  -68.523,19.722  -71.847,100.842  0,100.842  L  20,100.842  C  23.592,100.842  26.997,100.639  30,100.278  L  30,100.842  L  30,835  L  -249,835  C  -249,835  -280,835  -280,835  C  -280,835  -280,755  -280,755  C  -280,734  -276.99,705.994  -277.5,685  C  -277.94,666.875  -280.75,612.5  -280.75,540  C  -280.75,412.25  -310,316.437  -310,284.5 " />
<path transform="translate( 0, 0 )" style="stroke: hsl(134.5, 55%, 50%);" id="1036"  d=" M  -310,284.5  C  -288.75,284.5  -269.166,276.922  -250.872,258.628  C  -232.578,240.334  -220,193.833  -220,152.25  C  -220,110.667  -233.338,37.361  -235,27.5  L  -71.847,0  C  -68.523,19.722  -71.847,100.842  0,100.842  L  20,100.842  C  23.592,100.842  26.997,100.639  30,100.278  L  30,100.842  L  30,835  L  -249,835  C  -249,835  -280,835  -280,835  C  -280,835  -280,755  -280,755  C  -280,734  -276.99,705.994  -277.5,685  C  -277.94,666.875  -280.75,612.5  -280.75,540  C  -280.75,412.25  -310,316.437  -310,284.5 " />
<path transform="translate( 0, 0 )" style="stroke: hsl(161.4, 55%, 50%);" id="1245"  d=" M  -310,284.5  C  -288.75,284.5  -269.166,276.922  -250.872,258.628  C  -232.578,240.334  -220,193.833  -220,152.25  C  -220,110.667  -233.338,37.361  -235,27.5  L  -71.847,0  C  -68.523,19.722  -71.847,100.842  0,100.842  L  20,100.842  C  23.592,100.842  26.997,100.639  30,100.278  L  30,100.842  L  30,835  L  -249,835  C  -249,835  -280,835  -280,835  C  -280,835  -280,755  -280,755  C  -280,734  -276.99,705.994  -277.5,685  C  -277.94,666.875  -280.75,612.5  -280.75,540  C  -280.75,412.25  -310,316.437  -310,284.5 " />
<path transform="translate( 0, 0 )" style="stroke: hsl(188.3, 55%, 50%);" id="1454"  d=" M  -310,284.5  C  -288.75,284.5  -269.166,276.922  -250.872,258.628  C  -232.578,240.334  -220,193.833  -220,152.25  C  -220,110.667  -233.338,37.361  -235,27.5  L  -71.847,0  C  -68.523,19.722  -71.847,100.842  0,100.842  L  20,100.842  C  23.592,100.842  26.997,100.639  30,100.278  L  30,100.842  L  30,835  L  -249,835  C  -249,835  -280,835  -280,835  C  -280,835  -280,755  -280,755  C  -280,734  -276.99,705.994  -277.5,685  C  -277.94,666.875  -280.75,612.5  -280.75,540  C  -280.75,412.25  -310,316.437  -310,284.5 " />
<path transform="translate( 0, 0 )" style="stroke: hsl(215.2, 55%, 50%);" id="1663"  d=" M  -310,284.5  C  -288.75,284.5  -269.166,276.922  -250.872,258.628  C  -232.578,240.334  -220,193.833  -220,152.25  C  -220,110.667  -233.338,37.361  -235,27.5  L  -71.847,0  C  -68.523,19.722  -71.847,100.842  0,100.842  L  20,100.842  C  23.592,100.842  26.997,100.639  30,100.278  L  30,100.842  L  30,835  L  -249,835  C  -249,835  -280,835  -280,835  C  -280,835  -280,755  -280,755  C  -280,734  -276.99,705.994  -277.5,685  C  -277.94,666.875  -280.75,612.5  -280.75,540  C  -280.75,412.25  -310,316.437  -310,284.5 " />
<path transform="translate( 0, 0 )" style="stroke: hsl(242.1, 55%, 50%);" id="1872"  d=" M  -310,284.5  C  -288.75,284.5  -269.166,276.922  -250.872,258.628  C  -232.578,240.334  -220,193.833  -220,152.25  C  -220,110.667  -233.338,37.361  -235,27.5  L  -71.847,0  C  -68.523,19.722  -71.847,100.842  0,100.842  L  20,100.842  C  23.592,100.842  26.997,100.639  30,100.278  L  30,100.842  L  30,835  L  -249,835  C  -249,835  -280,835  -280,835  C  -280,835  -280,755  -280,755  C  -280,734  -276.99,705.994  -277.5,685  C  -277.94,666.875  -280.75,612.5  -280.75,540  C  -280.75,412.25  -310,316.437  -310,284.5 " />
<path transform="translate( 0, 0 )" style="stroke: hsl(269, 55%, 50%);" id="2081"  d=" M  -310,284.5  C  -288.75,284.5  -269.166,276.922  -250.872,258.628  C  -232.578,240.334  -220,193.833  -220,152.25  C  -220,110.667  -233.338,37.361  -235,27.5  L  -71.847,0  C  -68.523,19.722  -71.847,100.842  0,100.842  L  20,100.842  C  23.592,100.842  26.997,100.639  30,100.278  L  30,100.842  L  30,835  L  -249,835  C  -249,835  -280,835  -280,835  C  -280,835  -280,755  -280,755  C  -280,734  -276.99,705.994  -277.5,685  C  -277.94,666.875  -280.75,612.5  -280.75,540  C  -280.75,412.25  -310,316.437  -310,284.5 " />
<path transform="translate( 0, 0 )" style="stroke: hsl(295.9, 55%, 50%);" id="2290"  d=" M  -310,284.5  C  -288.75,284.5  -269.166,276.922  -250.872,258.628  C  -232.578,240.334  -220,193.833  -220,152.25  C  -220,110.667  -233.338,37.361  -235,27.5  L  -71.847,0  C  -68.523,19.722  -71.847,100.842  0,100.842  L  20,100.842  C  23.592,100.842  26.997,100.639  30,100.278  L  30,100.842  L  30,835  L  -249,835  C  -249,835  -280,835  -280,835  C  -280,835  -280,755  -280,755  C  -280,734  -276.99,705.994  -277.5,685  C  -277.94,666.875  -280.75,612.5  -280.75,540  C  -280.75,412.25  -310,316.437  -310,284.5 " />
    </g>
    <!-- End of group #frontRight -->
    
    <!-- Start of group #frontLeft -->
    <g id="frontLeft"  transform=" translate(92.5 5)  translate(350 0) " >
        <path class="hidden" id="3"  d=" M  -87.5,0  L  310,0  L  310,835  L  -87.5,835  z " />
<path transform="translate( 0, 0 )" style="stroke: hsl(26.9, 55%, 50%);" id="201"  d=" M  310,284.5  C  288.75,284.5  269.166,276.922  250.872,258.628  C  232.578,240.334  220,193.833  220,152.25  C  220,110.667  233.338,37.361  235,27.5  L  71.847,0  C  68.523,19.722  71.847,100.842  0,100.842  L  -35,100.842  C  -47.324,100.185  -41.466,100.842  -52.5,99.005  C  -63.534,100.842  -57.676,100.185  -70,100.842  L  -87.5,100.842  L  -87.5,835  L  249,835  C  249,835  280,835  280,835  C  280,835  280,755  280,755  C  280,734  276.99,705.994  277.5,685  C  277.94,666.875  280.75,612.5  280.75,540  C  280.75,412.25  310,316.437  310,284.5 " />
<path transform="translate( 0, 0 )" style="stroke: hsl(53.8, 55%, 50%);" id="410"  d=" M  310,284.5  C  288.75,284.5  269.166,276.922  250.872,258.628  C  232.578,240.334  220,193.833  220,152.25  C  220,110.667  233.338,37.361  235,27.5  L  71.847,0  C  68.523,19.722  71.847,100.842  0,100.842  L  -35,100.842  C  -47.324,100.185  -41.466,100.842  -52.5,99.005  C  -63.534,100.842  -57.676,100.185  -70,100.842  L  -87.5,100.842  L  -87.5,835  L  249,835  C  249,835  280,835  280,835  C  280,835  280,755  280,755  C  280,734  276.99,705.994  277.5,685  C  277.94,666.875  280.75,612.5  280.75,540  C  280.75,412.25  310,316.437  310,284.5 " />
<path transform="translate( 0, 0 )" style="stroke: hsl(80.7, 55%, 50%);" id="619"  d=" M  310,284.5  C  288.75,284.5  269.166,276.922  250.872,258.628  C  232.578,240.334  220,193.833  220,152.25  C  220,110.667  233.338,37.361  235,27.5  L  71.847,0  C  68.523,19.722  71.847,100.842  0,100.842  L  -35,100.842  C  -47.324,100.185  -41.466,100.842  -52.5,99.005  C  -63.534,100.842  -57.676,100.185  -70,100.842  L  -87.5,100.842  L  -87.5,835  L  249,835  C  249,835  280,835  280,835  C  280,835  280,755  280,755  C  280,734  276.99,705.994  277.5,685  C  277.94,666.875  280.75,612.5  280.75,540  C  280.75,412.25  310,316.437  310,284.5 " />
<path transform="translate( 0, 0 )" style="stroke: hsl(107.6, 55%, 50%);" id="828"  d=" M  310,284.5  C  288.75,284.5  269.166,276.922  250.872,258.628  C  232.578,240.334  220,193.833  220,152.25  C  220,110.667  233.338,37.361  235,27.5  L  71.847,0  C  68.523,19.722  71.847,100.842  0,100.842  L  -35,100.842  C  -47.324,100.185  -41.466,100.842  -52.5,99.005  C  -63.534,100.842  -57.676,100.185  -70,100.842  L  -87.5,100.842  L  -87.5,835  L  249,835  C  249,835  280,835  280,835  C  280,835  280,755  280,755  C  280,734  276.99,705.994  277.5,685  C  277.94,666.875  280.75,612.5  280.75,540  C  280.75,412.25  310,316.437  310,284.5 " />
<path transform="translate( 0, 0 )" style="stroke: hsl(134.5, 55%, 50%);" id="1037"  d=" M  310,284.5  C  288.75,284.5  269.166,276.922  250.872,258.628  C  232.578,240.334  220,193.833  220,152.25  C  220,110.667  233.338,37.361  235,27.5  L  71.847,0  C  68.523,19.722  71.847,100.842  0,100.842  L  -35,100.842  C  -47.324,100.185  -41.466,100.842  -52.5,99.005  C  -63.534,100.842  -57.676,100.185  -70,100.842  L  -87.5,100.842  L  -87.5,835  L  249,835  C  249,835  280,835  280,835  C  280,835  280,755  280,755  C  280,734  276.99,705.994  277.5,685  C  277.94,666.875  280.75,612.5  280.75,540  C  280.75,412.25  310,316.437  310,284.5 " />
<path transform="translate( 0, 0 )" style="stroke: hsl(161.4, 55%, 50%);" id="1246"  d=" M  310,284.5  C  288.75,284.5  269.166,276.922  250.872,258.628  C  232.578,240.334  220,193.833  220,152.25  C  220,110.667  233.338,37.361  235,27.5  L  71.847,0  C  68.523,19.722  71.847,100.842  0,100.842  L  -35,100.842  C  -47.324,100.185  -41.466,100.842  -52.5,99.005  C  -63.534,100.842  -57.676,100.185  -70,100.842  L  -87.5,100.842  L  -87.5,835  L  249,835  C  249,835  280,835  280,835  C  280,835  280,755  280,755  C  280,734  276.99,705.994  277.5,685  C  277.94,666.875  280.75,612.5  280.75,540  C  280.75,412.25  310,316.437  310,284.5 " />
<path transform="translate( 0, 0 )" style="stroke: hsl(188.3, 55%, 50%);" id="1455"  d=" M  310,284.5  C  288.75,284.5  269.166,276.922  250.872,258.628  C  232.578,240.334  220,193.833  220,152.25  C  220,110.667  233.338,37.361  235,27.5  L  71.847,0  C  68.523,19.722  71.847,100.842  0,100.842  L  -35,100.842  C  -47.324,100.185  -41.466,100.842  -52.5,99.005  C  -63.534,100.842  -57.676,100.185  -70,100.842  L  -87.5,100.842  L  -87.5,835  L  249,835  C  249,835  280,835  280,835  C  280,835  280,755  280,755  C  280,734  276.99,705.994  277.5,685  C  277.94,666.875  280.75,612.5  280.75,540  C  280.75,412.25  310,316.437  310,284.5 " />
<path transform="translate( 0, 0 )" style="stroke: hsl(215.2, 55%, 50%);" id="1664"  d=" M  310,284.5  C  288.75,284.5  269.166,276.922  250.872,258.628  C  232.578,240.334  220,193.833  220,152.25  C  220,110.667  233.338,37.361  235,27.5  L  71.847,0  C  68.523,19.722  71.847,100.842  0,100.842  L  -35,100.842  C  -47.324,100.185  -41.466,100.842  -52.5,99.005  C  -63.534,100.842  -57.676,100.185  -70,100.842  L  -87.5,100.842  L  -87.5,835  L  249,835  C  249,835  280,835  280,835  C  280,835  280,755  280,755  C  280,734  276.99,705.994  277.5,685  C  277.94,666.875  280.75,612.5  280.75,540  C  280.75,412.25  310,316.437  310,284.5 " />
<path transform="translate( 0, 0 )" style="stroke: hsl(242.1, 55%, 50%);" id="1873"  d=" M  310,284.5  C  288.75,284.5  269.166,276.922  250.872,258.628  C  232.578,240.334  220,193.833  220,152.25  C  220,110.667  233.338,37.361  235,27.5  L  71.847,0  C  68.523,19.722  71.847,100.842  0,100.842  L  -35,100.842  C  -47.324,100.185  -41.466,100.842  -52.5,99.005  C  -63.534,100.842  -57.676,100.185  -70,100.842  L  -87.5,100.842  L  -87.5,835  L  249,835  C  249,835  280,835  280,835  C  280,835  280,755  280,755  C  280,734  276.99,705.994  277.5,685  C  277.94,666.875  280.75,612.5  280.75,540  C  280.75,412.25  310,316.437  310,284.5 " />
<path transform="translate( 0, 0 )" style="stroke: hsl(269, 55%, 50%);" id="2082"  d=" M  310,284.5  C  288.75,284.5  269.166,276.922  250.872,258.628  C  232.578,240.334  220,193.833  220,152.25  C  220,110.667  233.338,37.361  235,27.5  L  71.847,0  C  68.523,19.722  71.847,100.842  0,100.842  L  -35,100.842  C  -47.324,100.185  -41.466,100.842  -52.5,99.005  C  -63.534,100.842  -57.676,100.185  -70,100.842  L  -87.5,100.842  L  -87.5,835  L  249,835  C  249,835  280,835  280,835  C  280,835  280,755  280,755  C  280,734  276.99,705.994  277.5,685  C  277.94,666.875  280.75,612.5  280.75,540  C  280.75,412.25  310,316.437  310,284.5 " />
<path transform="translate( 0, 0 )" style="stroke: hsl(295.9, 55%, 50%);" id="2291"  d=" M  310,284.5  C  288.75,284.5  269.166,276.922  250.872,258.628  C  232.578,240.334  220,193.833  220,152.25  C  220,110.667  233.338,37.361  235,27.5  L  71.847,0  C  68.523,19.722  71.847,100.842  0,100.842  L  -35,100.842  C  -47.324,100.185  -41.466,100.842  -52.5,99.005  C  -63.534,100.842  -57.676,100.185  -70,100.842  L  -87.5,100.842  L  -87.5,835  L  249,835  C  249,835  280,835  280,835  C  280,835  280,755  280,755  C  280,734  276.99,705.994  277.5,685  C  277.94,666.875  280.75,612.5  280.75,540  C  280.75,412.25  310,316.437  310,284.5 " />
    </g>
    <!-- End of group #frontLeft -->
    
    <!-- Start of group #buttonPlacket -->
    <g id="buttonPlacket" >
    </g>
    <!-- End of group #buttonPlacket -->
    
    <!-- Start of group #buttonholePlacket -->
    <g id="buttonholePlacket" >
    </g>
    <!-- End of group #buttonholePlacket -->
    
    <!-- Start of group #yoke -->
    <g id="yoke"  transform=" translate(240 5)  translate(0 845) " >
        <path class="hidden" id="4"  d=" M  -235,0  L  235,0  L  235,152.25  L  -235,152.25  z " />
<path transform="translate( 0, 0 )" style="stroke: hsl(26.9, 55%, 50%);" id="202"  d=" M  225,152.25  C  225,110.667  233.338,37.361  235,27.5  L  71.847,0  C  68.523,19.722  0,20  0,20  C  0,20  -68.523,19.722  -71.847,0  L  -235,27.5  C  -233.338,37.361  -225,110.667  -225,152.25  z " />
<path transform="translate( 0, 0 )" style="stroke: hsl(53.8, 55%, 50%);" id="411"  d=" M  225,152.25  C  225,110.667  233.338,37.361  235,27.5  L  71.847,0  C  68.523,19.722  0,20  0,20  C  0,20  -68.523,19.722  -71.847,0  L  -235,27.5  C  -233.338,37.361  -225,110.667  -225,152.25  z " />
<path transform="translate( 0, 0 )" style="stroke: hsl(80.7, 55%, 50%);" id="620"  d=" M  225,152.25  C  225,110.667  233.338,37.361  235,27.5  L  71.847,0  C  68.523,19.722  0,20  0,20  C  0,20  -68.523,19.722  -71.847,0  L  -235,27.5  C  -233.338,37.361  -225,110.667  -225,152.25  z " />
<path transform="translate( 0, 0 )" style="stroke: hsl(107.6, 55%, 50%);" id="829"  d=" M  225,152.25  C  225,110.667  233.338,37.361  235,27.5  L  71.847,0  C  68.523,19.722  0,20  0,20  C  0,20  -68.523,19.722  -71.847,0  L  -235,27.5  C  -233.338,37.361  -225,110.667  -225,152.25  z " />
<path transform="translate( 0, 0 )" style="stroke: hsl(134.5, 55%, 50%);" id="1038"  d=" M  225,152.25  C  225,110.667  233.338,37.361  235,27.5  L  71.847,0  C  68.523,19.722  0,20  0,20  C  0,20  -68.523,19.722  -71.847,0  L  -235,27.5  C  -233.338,37.361  -225,110.667  -225,152.25  z " />
<path transform="translate( 0, 0 )" style="stroke: hsl(161.4, 55%, 50%);" id="1247"  d=" M  225,152.25  C  225,110.667  233.338,37.361  235,27.5  L  71.847,0  C  68.523,19.722  0,20  0,20  C  0,20  -68.523,19.722  -71.847,0  L  -235,27.5  C  -233.338,37.361  -225,110.667  -225,152.25  z " />
<path transform="translate( 0, 0 )" style="stroke: hsl(188.3, 55%, 50%);" id="1456"  d=" M  225,152.25  C  225,110.667  233.338,37.361  235,27.5  L  71.847,0  C  68.523,19.722  0,20  0,20  C  0,20  -68.523,19.722  -71.847,0  L  -235,27.5  C  -233.338,37.361  -225,110.667  -225,152.25  z " />
<path transform="translate( 0, 0 )" style="stroke: hsl(215.2, 55%, 50%);" id="1665"  d=" M  225,152.25  C  225,110.667  233.338,37.361  235,27.5  L  71.847,0  C  68.523,19.722  0,20  0,20  C  0,20  -68.523,19.722  -71.847,0  L  -235,27.5  C  -233.338,37.361  -225,110.667  -225,152.25  z " />
<path transform="translate( 0, 0 )" style="stroke: hsl(242.1, 55%, 50%);" id="1874"  d=" M  225,152.25  C  225,110.667  233.338,37.361  235,27.5  L  71.847,0  C  68.523,19.722  0,20  0,20  C  0,20  -68.523,19.722  -71.847,0  L  -235,27.5  C  -233.338,37.361  -225,110.667  -225,152.25  z " />
<path transform="translate( 0, 0 )" style="stroke: hsl(269, 55%, 50%);" id="2083"  d=" M  225,152.25  C  225,110.667  233.338,37.361  235,27.5  L  71.847,0  C  68.523,19.722  0,20  0,20  C  0,20  -68.523,19.722  -71.847,0  L  -235,27.5  C  -233.338,37.361  -225,110.667  -225,152.25  z " />
<path transform="translate( 0, 0 )" style="stroke: hsl(295.9, 55%, 50%);" id="2292"  d=" M  225,152.25  C  225,110.667  233.338,37.361  235,27.5  L  71.847,0  C  68.523,19.722  0,20  0,20  C  0,20  -68.523,19.722  -71.847,0  L  -235,27.5  C  -233.338,37.361  -225,110.667  -225,152.25  z " />
    </g>
    <!-- End of group #yoke -->
    
    <!-- Start of group #back -->
    <g id="back"  transform=" translate(5 -147.25)  translate(757.5 0) " >
        <path class="hidden" id="5"  d=" M  0,152.25  L  310,152.25  L  310,835  L  0,835  z " />
<path transform="translate( 0, 0 )" style="stroke: hsl(26.9, 55%, 50%);" id="203"  d=" M  0,152.25  L  112.5,152.25  C  168.75,152.25  225.036,157.25  225.036,157.25  C  223.351,193.794  232.578,240.334  250.872,258.628  C  269.166,276.922  288.75,284.5  310,284.5  C  310,335.6  280.75,412.25  280.75,540  C  280.75,612.5  277.94,666.875  277.5,685  C  276.99,705.994  280,734  280,755  L  280,835  L  0,835  L  0,152.25  z " />
<path transform="translate( 0, 0 )" style="stroke: hsl(53.8, 55%, 50%);" id="412"  d=" M  0,152.25  L  112.5,152.25  C  168.75,152.25  225.036,157.25  225.036,157.25  C  223.351,193.794  232.578,240.334  250.872,258.628  C  269.166,276.922  288.75,284.5  310,284.5  C  310,335.6  280.75,412.25  280.75,540  C  280.75,612.5  277.94,666.875  277.5,685  C  276.99,705.994  280,734  280,755  L  280,835  L  0,835  L  0,152.25  z " />
<path transform="translate( 0, 0 )" style="stroke: hsl(80.7, 55%, 50%);" id="621"  d=" M  0,152.25  L  112.5,152.25  C  168.75,152.25  225.036,157.25  225.036,157.25  C  223.351,193.794  232.578,240.334  250.872,258.628  C  269.166,276.922  288.75,284.5  310,284.5  C  310,335.6  280.75,412.25  280.75,540  C  280.75,612.5  277.94,666.875  277.5,685  C  276.99,705.994  280,734  280,755  L  280,835  L  0,835  L  0,152.25  z " />
<path transform="translate( 0, 0 )" style="stroke: hsl(107.6, 55%, 50%);" id="830"  d=" M  0,152.25  L  112.5,152.25  C  168.75,152.25  225.036,157.25  225.036,157.25  C  223.351,193.794  232.578,240.334  250.872,258.628  C  269.166,276.922  288.75,284.5  310,284.5  C  310,335.6  280.75,412.25  280.75,540  C  280.75,612.5  277.94,666.875  277.5,685  C  276.99,705.994  280,734  280,755  L  280,835  L  0,835  L  0,152.25  z " />
<path transform="translate( 0, 0 )" style="stroke: hsl(134.5, 55%, 50%);" id="1039"  d=" M  0,152.25  L  112.5,152.25  C  168.75,152.25  225.036,157.25  225.036,157.25  C  223.351,193.794  232.578,240.334  250.872,258.628  C  269.166,276.922  288.75,284.5  310,284.5  C  310,335.6  280.75,412.25  280.75,540  C  280.75,612.5  277.94,666.875  277.5,685  C  276.99,705.994  280,734  280,755  L  280,835  L  0,835  L  0,152.25  z " />
<path transform="translate( 0, 0 )" style="stroke: hsl(161.4, 55%, 50%);" id="1248"  d=" M  0,152.25  L  112.5,152.25  C  168.75,152.25  225.036,157.25  225.036,157.25  C  223.351,193.794  232.578,240.334  250.872,258.628  C  269.166,276.922  288.75,284.5  310,284.5  C  310,335.6  280.75,412.25  280.75,540  C  280.75,612.5  277.94,666.875  277.5,685  C  276.99,705.994  280,734  280,755  L  280,835  L  0,835  L  0,152.25  z " />
<path transform="translate( 0, 0 )" style="stroke: hsl(188.3, 55%, 50%);" id="1457"  d=" M  0,152.25  L  112.5,152.25  C  168.75,152.25  225.036,157.25  225.036,157.25  C  223.351,193.794  232.578,240.334  250.872,258.628  C  269.166,276.922  288.75,284.5  310,284.5  C  310,335.6  280.75,412.25  280.75,540  C  280.75,612.5  277.94,666.875  277.5,685  C  276.99,705.994  280,734  280,755  L  280,835  L  0,835  L  0,152.25  z " />
<path transform="translate( 0, 0 )" style="stroke: hsl(215.2, 55%, 50%);" id="1666"  d=" M  0,152.25  L  112.5,152.25  C  168.75,152.25  225.036,157.25  225.036,157.25  C  223.351,193.794  232.578,240.334  250.872,258.628  C  269.166,276.922  288.75,284.5  310,284.5  C  310,335.6  280.75,412.25  280.75,540  C  280.75,612.5  277.94,666.875  277.5,685  C  276.99,705.994  280,734  280,755  L  280,835  L  0,835  L  0,152.25  z " />
<path transform="translate( 0, 0 )" style="stroke: hsl(242.1, 55%, 50%);" id="1875"  d=" M  0,152.25  L  112.5,152.25  C  168.75,152.25  225.036,157.25  225.036,157.25  C  223.351,193.794  232.578,240.334  250.872,258.628  C  269.166,276.922  288.75,284.5  310,284.5  C  310,335.6  280.75,412.25  280.75,540  C  280.75,612.5  277.94,666.875  277.5,685  C  276.99,705.994  280,734  280,755  L  280,835  L  0,835  L  0,152.25  z " />
<path transform="translate( 0, 0 )" style="stroke: hsl(269, 55%, 50%);" id="2084"  d=" M  0,152.25  L  112.5,152.25  C  168.75,152.25  225.036,157.25  225.036,157.25  C  223.351,193.794  232.578,240.334  250.872,258.628  C  269.166,276.922  288.75,284.5  310,284.5  C  310,335.6  280.75,412.25  280.75,540  C  280.75,612.5  277.94,666.875  277.5,685  C  276.99,705.994  280,734  280,755  L  280,835  L  0,835  L  0,152.25  z " />
<path transform="translate( 0, 0 )" style="stroke: hsl(295.9, 55%, 50%);" id="2293"  d=" M  0,152.25  L  112.5,152.25  C  168.75,152.25  225.036,157.25  225.036,157.25  C  223.351,193.794  232.578,240.334  250.872,258.628  C  269.166,276.922  288.75,284.5  310,284.5  C  310,335.6  280.75,412.25  280.75,540  C  280.75,612.5  277.94,666.875  277.5,685  C  276.99,705.994  280,734  280,755  L  280,835  L  0,835  L  0,152.25  z " />
    </g>
    <!-- End of group #back -->
    
    <!-- Start of group #sleeve -->
    <g id="sleeve"  transform=" translate(210.431 5)  translate(1077.5 0) " >
        <path class="hidden" id="6"  d=" M  -205.431,0  L  205.431,0  L  205.431,678  L  -205.431,678  z " />
<path transform="translate( 0, 0 )" style="stroke: hsl(26.9, 55%, 50%);" id="204"  d=" M  -205.431,206.3  C  -205.431,206.3  -167.111,165.017  -150.122,143.097  C  -133.133,121.177  -102.716,73.767  -102.716,73.767  C  -102.716,73.767  -82.634,40.877  -60.108,24.7  C  -37.582,8.523  -27.733,-0  5,0  C  27.733,0  47.083,8.997  68.485,26.634  C  89.887,44.271  107.716,88.767  107.716,88.767  C  107.716,88.767  127.31,135.797  145.04,157.123  C  162.77,178.449  205.431,206.3  205.431,206.3  L  142.5,675  C  142.5,675  111.875,678  81.25,678  C  65.827,677.471  50.625,676.845  50.625,676.845  L  30.625,676.845  C  10.302,676.009  0,675  0,675  L  -20,675  C  -20,675  -50.625,672  -81.25,672  C  -111.875,672  -142.5,675  -142.5,675  z " />
<path transform="translate( 0, 0 )" style="stroke: hsl(53.8, 55%, 50%);" id="413"  d=" M  -205.431,206.3  C  -205.431,206.3  -167.111,165.017  -150.122,143.097  C  -133.133,121.177  -102.716,73.767  -102.716,73.767  C  -102.716,73.767  -82.634,40.877  -60.108,24.7  C  -37.582,8.523  -27.733,-0  5,0  C  27.733,0  47.083,8.997  68.485,26.634  C  89.887,44.271  107.716,88.767  107.716,88.767  C  107.716,88.767  127.31,135.797  145.04,157.123  C  162.77,178.449  205.431,206.3  205.431,206.3  L  142.5,675  C  142.5,675  111.875,678  81.25,678  C  65.827,677.471  50.625,676.845  50.625,676.845  L  30.625,676.845  C  10.302,676.009  0,675  0,675  L  -20,675  C  -20,675  -50.625,672  -81.25,672  C  -111.875,672  -142.5,675  -142.5,675  z " />
<path transform="translate( 0, 0 )" style="stroke: hsl(80.7, 55%, 50%);" id="622"  d=" M  -205.431,206.3  C  -205.431,206.3  -167.111,165.017  -150.122,143.097  C  -133.133,121.177  -102.716,73.767  -102.716,73.767  C  -102.716,73.767  -82.634,40.877  -60.108,24.7  C  -37.582,8.523  -27.733,-0  5,0  C  27.733,0  47.083,8.997  68.485,26.634  C  89.887,44.271  107.716,88.767  107.716,88.767  C  107.716,88.767  127.31,135.797  145.04,157.123  C  162.77,178.449  205.431,206.3  205.431,206.3  L  142.5,675  C  142.5,675  111.875,678  81.25,678  C  65.827,677.471  50.625,676.845  50.625,676.845  L  30.625,676.845  C  10.302,676.009  0,675  0,675  L  -20,675  C  -20,675  -50.625,672  -81.25,672  C  -111.875,672  -142.5,675  -142.5,675  z " />
<path transform="translate( 0, 0 )" style="stroke: hsl(107.6, 55%, 50%);" id="831"  d=" M  -205.431,206.3  C  -205.431,206.3  -167.111,165.017  -150.122,143.097  C  -133.133,121.177  -102.716,73.767  -102.716,73.767  C  -102.716,73.767  -82.634,40.877  -60.108,24.7  C  -37.582,8.523  -27.733,-0  5,0  C  27.733,0  47.083,8.997  68.485,26.634  C  89.887,44.271  107.716,88.767  107.716,88.767  C  107.716,88.767  127.31,135.797  145.04,157.123  C  162.77,178.449  205.431,206.3  205.431,206.3  L  142.5,675  C  142.5,675  111.875,678  81.25,678  C  65.827,677.471  50.625,676.845  50.625,676.845  L  30.625,676.845  C  10.302,676.009  0,675  0,675  L  -20,675  C  -20,675  -50.625,672  -81.25,672  C  -111.875,672  -142.5,675  -142.5,675  z " />
<path transform="translate( 0, 0 )" style="stroke: hsl(134.5, 55%, 50%);" id="1040"  d=" M  -205.431,206.3  C  -205.431,206.3  -167.111,165.017  -150.122,143.097  C  -133.133,121.177  -102.716,73.767  -102.716,73.767  C  -102.716,73.767  -82.634,40.877  -60.108,24.7  C  -37.582,8.523  -27.733,-0  5,0  C  27.733,0  47.083,8.997  68.485,26.634  C  89.887,44.271  107.716,88.767  107.716,88.767  C  107.716,88.767  127.31,135.797  145.04,157.123  C  162.77,178.449  205.431,206.3  205.431,206.3  L  142.5,675  C  142.5,675  111.875,678  81.25,678  C  65.827,677.471  50.625,676.845  50.625,676.845  L  30.625,676.845  C  10.302,676.009  0,675  0,675  L  -20,675  C  -20,675  -50.625,672  -81.25,672  C  -111.875,672  -142.5,675  -142.5,675  z " />
<path transform="translate( 0, 0 )" style="stroke: hsl(161.4, 55%, 50%);" id="1249"  d=" M  -205.431,206.3  C  -205.431,206.3  -167.111,165.017  -150.122,143.097  C  -133.133,121.177  -102.716,73.767  -102.716,73.767  C  -102.716,73.767  -82.634,40.877  -60.108,24.7  C  -37.582,8.523  -27.733,-0  5,0  C  27.733,0  47.083,8.997  68.485,26.634  C  89.887,44.271  107.716,88.767  107.716,88.767  C  107.716,88.767  127.31,135.797  145.04,157.123  C  162.77,178.449  205.431,206.3  205.431,206.3  L  142.5,675  C  142.5,675  111.875,678  81.25,678  C  65.827,677.471  50.625,676.845  50.625,676.845  L  30.625,676.845  C  10.302,676.009  0,675  0,675  L  -20,675  C  -20,675  -50.625,672  -81.25,672  C  -111.875,672  -142.5,675  -142.5,675  z " />
<path transform="translate( 0, 0 )" style="stroke: hsl(188.3, 55%, 50%);" id="1458"  d=" M  -205.431,206.3  C  -205.431,206.3  -167.111,165.017  -150.122,143.097  C  -133.133,121.177  -102.716,73.767  -102.716,73.767  C  -102.716,73.767  -82.634,40.877  -60.108,24.7  C  -37.582,8.523  -27.733,-0  5,0  C  27.733,0  47.083,8.997  68.485,26.634  C  89.887,44.271  107.716,88.767  107.716,88.767  C  107.716,88.767  127.31,135.797  145.04,157.123  C  162.77,178.449  205.431,206.3  205.431,206.3  L  142.5,675  C  142.5,675  111.875,678  81.25,678  C  65.827,677.471  50.625,676.845  50.625,676.845  L  30.625,676.845  C  10.302,676.009  0,675  0,675  L  -20,675  C  -20,675  -50.625,672  -81.25,672  C  -111.875,672  -142.5,675  -142.5,675  z " />
<path transform="translate( 0, 0 )" style="stroke: hsl(215.2, 55%, 50%);" id="1667"  d=" M  -205.431,206.3  C  -205.431,206.3  -167.111,165.017  -150.122,143.097  C  -133.133,121.177  -102.716,73.767  -102.716,73.767  C  -102.716,73.767  -82.634,40.877  -60.108,24.7  C  -37.582,8.523  -27.733,-0  5,0  C  27.733,0  47.083,8.997  68.485,26.634  C  89.887,44.271  107.716,88.767  107.716,88.767  C  107.716,88.767  127.31,135.797  145.04,157.123  C  162.77,178.449  205.431,206.3  205.431,206.3  L  142.5,675  C  142.5,675  111.875,678  81.25,678  C  65.827,677.471  50.625,676.845  50.625,676.845  L  30.625,676.845  C  10.302,676.009  0,675  0,675  L  -20,675  C  -20,675  -50.625,672  -81.25,672  C  -111.875,672  -142.5,675  -142.5,675  z " />
<path transform="translate( 0, 0 )" style="stroke: hsl(242.1, 55%, 50%);" id="1876"  d=" M  -205.431,206.3  C  -205.431,206.3  -167.111,165.017  -150.122,143.097  C  -133.133,121.177  -102.716,73.767  -102.716,73.767  C  -102.716,73.767  -82.634,40.877  -60.108,24.7  C  -37.582,8.523  -27.733,-0  5,0  C  27.733,0  47.083,8.997  68.485,26.634  C  89.887,44.271  107.716,88.767  107.716,88.767  C  107.716,88.767  127.31,135.797  145.04,157.123  C  162.77,178.449  205.431,206.3  205.431,206.3  L  142.5,675  C  142.5,675  111.875,678  81.25,678  C  65.827,677.471  50.625,676.845  50.625,676.845  L  30.625,676.845  C  10.302,676.009  0,675  0,675  L  -20,675  C  -20,675  -50.625,672  -81.25,672  C  -111.875,672  -142.5,675  -142.5,675  z " />
<path transform="translate( 0, 0 )" style="stroke: hsl(269, 55%, 50%);" id="2085"  d=" M  -205.431,206.3  C  -205.431,206.3  -167.111,165.017  -150.122,143.097  C  -133.133,121.177  -102.716,73.767  -102.716,73.767  C  -102.716,73.767  -82.634,40.877  -60.108,24.7  C  -37.582,8.523  -27.733,-0  5,0  C  27.733,0  47.083,8.997  68.485,26.634  C  89.887,44.271  107.716,88.767  107.716,88.767  C  107.716,88.767  127.31,135.797  145.04,157.123  C  162.77,178.449  205.431,206.3  205.431,206.3  L  142.5,675  C  142.5,675  111.875,678  81.25,678  C  65.827,677.471  50.625,676.845  50.625,676.845  L  30.625,676.845  C  10.302,676.009  0,675  0,675  L  -20,675  C  -20,675  -50.625,672  -81.25,672  C  -111.875,672  -142.5,675  -142.5,675  z " />
<path transform="translate( 0, 0 )" style="stroke: hsl(295.9, 55%, 50%);" id="2294"  d=" M  -205.431,206.3  C  -205.431,206.3  -167.111,165.017  -150.122,143.097  C  -133.133,121.177  -102.716,73.767  -102.716,73.767  C  -102.716,73.767  -82.634,40.877  -60.108,24.7  C  -37.582,8.523  -27.733,-0  5,0  C  27.733,0  47.083,8.997  68.485,26.634  C  89.887,44.271  107.716,88.767  107.716,88.767  C  107.716,88.767  127.31,135.797  145.04,157.123  C  162.77,178.449  205.431,206.3  205.431,206.3  L  142.5,675  C  142.5,675  111.875,678  81.25,678  C  65.827,677.471  50.625,676.845  50.625,676.845  L  30.625,676.845  C  10.302,676.009  0,675  0,675  L  -20,675  C  -20,675  -50.625,672  -81.25,672  C  -111.875,672  -142.5,675  -142.5,675  z " />
    </g>
    <!-- End of group #sleeve -->
    
    <!-- Start of group #collarStand -->
    <g id="collarStand"  transform=" translate(232.478 10)  translate(480 845) " >
        <path class="hidden" id="7"  d=" M  -227.478,-5  L  234.95,-5  L  234.95,70  L  -227.478,70  z " />
<path transform="translate( 0, 0 )" style="stroke: hsl(26.9, 55%, 50%);" id="205"  d=" M  0,10  C  86.738,10  130.108,15  162.635,15  C  206.004,15  207.538,13.343  217.5,12.471  L  234.933,10.946  C  234.279,3.474  233.626,-3.997  216.192,-2.471  C  206.23,-1.599  206.004,0  162.635,0  C  130.108,0  86.738,-5  0,-5  C  -86.738,-5  -130.108,0  -162.635,0  C  -206.004,0  -206.23,-1.599  -216.192,-2.471  C  -226.154,-3.343  -226.808,4.128  -227.462,11.6  L  -217.5,12.471  C  -207.538,13.343  -206.004,15  -162.635,15  C  -130.108,15  -86.738,10  0,10  z " />
<path transform="translate( 0, 0 )" style="stroke: hsl(53.8, 55%, 50%);" id="414"  d=" M  0,15.5  C  86.552,15.5  129.828,20.5  162.285,20.5  C  205.561,20.5  207.311,18.833  217.273,17.961  L  234.707,16.436  C  233.813,6.225  232.92,-3.986  215.487,-2.461  C  205.525,-1.589  205.561,0  162.285,0  C  129.828,0  86.552,-5  0,-5  C  -86.552,-5  -129.828,0  -162.285,0  C  -205.561,0  -205.525,-1.589  -215.487,-2.461  C  -225.449,-3.333  -226.342,6.878  -227.235,17.089  L  -217.273,17.961  C  -207.311,18.833  -205.561,20.5  -162.285,20.5  C  -129.828,20.5  -86.552,15.5  0,15.5  z " />
<path transform="translate( 0, 0 )" style="stroke: hsl(80.7, 55%, 50%);" id="623"  d=" M  0,21  C  86.552,21  129.828,26  162.285,26  C  205.561,26  207.551,24.323  217.513,23.451  L  234.946,21.925  C  233.813,8.975  232.68,-3.976  215.247,-2.451  C  205.285,-1.579  205.561,0  162.285,0  C  129.828,0  86.552,-5  0,-5  C  -86.552,-5  -129.828,0  -162.285,0  C  -205.561,0  -205.285,-1.579  -215.247,-2.451  C  -225.209,-3.322  -226.342,9.629  -227.475,22.579  L  -217.513,23.451  C  -207.551,24.323  -205.561,26  -162.285,26  C  -129.828,26  -86.552,21  0,21  z " />
<path transform="translate( 0, 0 )" style="stroke: hsl(107.6, 55%, 50%);" id="832"  d=" M  0,26.5  C  86.454,26.5  129.682,31.5  162.102,31.5  C  205.329,31.5  207.547,29.812  217.509,28.94  L  234.942,27.415  C  233.57,11.725  232.197,-3.965  214.763,-2.44  C  204.801,-1.568  205.329,0  162.102,0  C  129.682,0  86.454,-5  0,-5  C  -86.454,-5  -129.682,0  -162.102,0  C  -205.329,0  -204.801,-1.568  -214.763,-2.44  C  -224.725,-3.312  -226.098,12.378  -227.471,28.069  L  -217.509,28.94  C  -207.547,29.812  -205.329,31.5  -162.102,31.5  C  -129.682,31.5  -86.454,26.5  0,26.5  z " />
<path transform="translate( 0, 0 )" style="stroke: hsl(134.5, 55%, 50%);" id="1041"  d=" M  0,32  C  86.357,32  129.535,37  161.919,37  C  205.097,37  207.542,35.302  217.504,34.43  L  234.938,32.904  C  233.326,14.475  231.713,-3.955  214.28,-2.43  C  204.318,-1.558  205.097,0  161.919,0  C  129.535,0  86.357,-5  0,-5  C  -86.357,-5  -129.535,0  -161.919,0  C  -205.097,0  -204.318,-1.558  -214.28,-2.43  C  -224.242,-3.301  -225.854,15.129  -227.466,33.558  L  -217.504,34.43  C  -207.542,35.302  -205.097,37  -161.919,37  C  -129.535,37  -86.357,32  0,32  z " />
<path transform="translate( 0, 0 )" style="stroke: hsl(161.4, 55%, 50%);" id="1250"  d=" M  0,37.5  C  86.106,37.5  129.16,42.5  161.45,42.5  C  204.503,42.5  207.156,40.791  217.118,39.919  L  234.551,38.394  C  232.699,17.225  230.847,-3.944  213.414,-2.419  C  203.452,-1.547  204.503,0  161.45,0  C  129.16,0  86.106,-5  0,-5  C  -86.106,-5  -129.16,0  -161.45,0  C  -204.503,0  -203.452,-1.547  -213.414,-2.419  C  -223.376,-3.291  -225.228,17.878  -227.08,39.048  L  -217.118,39.919  C  -207.156,40.791  -204.503,42.5  -161.45,42.5  C  -129.16,42.5  -86.106,37.5  0,37.5  z " />
<path transform="translate( 0, 0 )" style="stroke: hsl(188.3, 55%, 50%);" id="1459"  d=" M  0,43  C  86.106,43  129.16,48  161.45,48  C  204.503,48  207.396,46.281  217.358,45.409  L  234.791,43.883  C  232.7,19.975  230.608,-3.934  213.174,-2.409  C  203.212,-1.537  204.503,0  161.45,0  C  129.16,0  86.106,-5  0,-5  C  -86.106,-5  -129.16,0  -161.45,0  C  -204.503,0  -203.212,-1.537  -213.174,-2.409  C  -223.136,-3.28  -225.228,20.629  -227.32,44.537  L  -217.358,45.409  C  -207.396,46.281  -204.503,48  -161.45,48  C  -129.16,48  -86.106,43  0,43  z " />
<path transform="translate( 0, 0 )" style="stroke: hsl(215.2, 55%, 50%);" id="1668"  d=" M  0,48.5  C  86.074,48.5  129.111,53.5  161.389,53.5  C  204.426,53.5  207.554,51.77  217.516,50.898  L  234.95,49.373  C  232.619,22.725  230.287,-3.923  212.854,-2.398  C  202.892,-1.526  204.426,0  161.389,0  C  129.111,0  86.074,-5  0,-5  C  -86.074,-5  -129.111,0  -161.389,0  C  -204.426,0  -202.892,-1.526  -212.854,-2.398  C  -222.816,-3.27  -225.147,23.378  -227.478,50.027  L  -217.516,50.898  C  -207.554,51.77  -204.426,53.5  -161.389,53.5  C  -129.111,53.5  -86.074,48.5  0,48.5  z " />
<path transform="translate( 0, 0 )" style="stroke: hsl(242.1, 55%, 50%);" id="1877"  d=" M  0,54  C  85.977,54  128.965,59  161.207,59  C  204.195,59  207.551,57.26  217.513,56.388  L  234.947,54.863  C  232.375,25.475  229.804,-3.913  212.371,-2.388  C  202.409,-1.516  204.195,0  161.207,0  C  128.965,0  85.977,-5  0,-5  C  -85.977,-5  -128.965,0  -161.207,0  C  -204.195,0  -202.409,-1.516  -212.371,-2.388  C  -222.333,-3.259  -224.904,26.129  -227.475,55.516  L  -217.513,56.388  C  -207.551,57.26  -204.195,59  -161.207,59  C  -128.965,59  -85.977,54  0,54  z " />
<path transform="translate( 0, 0 )" style="stroke: hsl(269, 55%, 50%);" id="2086"  d=" M  0,59.5  C  85.695,59.5  128.543,64.5  160.679,64.5  C  203.526,64.5  207.087,62.749  217.049,61.877  L  234.482,60.352  C  231.671,28.224  228.861,-3.903  211.427,-2.377  C  201.465,-1.505  203.526,0  160.679,0  C  128.543,0  85.695,-5  0,-5  C  -85.695,-5  -128.543,0  -160.679,0  C  -203.526,0  -201.465,-1.505  -211.427,-2.377  C  -221.389,-3.249  -224.2,28.878  -227.011,61.006  L  -217.049,61.877  C  -207.087,62.749  -203.526,64.5  -160.679,64.5  C  -128.543,64.5  -85.695,59.5  0,59.5  z " />
<path transform="translate( 0, 0 )" style="stroke: hsl(295.9, 55%, 50%);" id="2295"  d=" M  0,65  C  85.695,65  128.543,70  160.679,70  C  203.526,70  207.326,68.239  217.288,67.367  L  234.722,65.842  C  231.671,30.975  228.621,-3.892  211.188,-2.367  C  201.226,-1.495  203.526,0  160.679,0  C  128.543,0  85.695,-5  0,-5  C  -85.695,-5  -128.543,0  -160.679,0  C  -203.526,0  -201.226,-1.495  -211.188,-2.367  C  -221.149,-3.238  -224.2,31.629  -227.25,66.495  L  -217.288,67.367  C  -207.326,68.239  -203.526,70  -160.679,70  C  -128.543,70  -85.695,65  0,65  z " />
    </g>
    <!-- End of group #collarStand -->
    
    <!-- Start of group #collar -->
    <g id="collar"  transform=" translate(217.803 107)  translate(1498.362 0) " >
        <path class="hidden" id="8"  d=" M  -212.803,-102  L  212.803,-102  L  212.803,0  L  -212.803,0  z " />
<path transform="translate( 0, 0 )" style="stroke: hsl(26.9, 55%, 50%);" id="206"  d=" M  0,-15  C  173.104,-15  203.88,0  203.88,0  L  207.992,-47  C  207.992,-47  151.466,-37  103.996,-37  L  -103.996,-37  C  -151.466,-37  -207.992,-47  -207.992,-47  L  -203.88,0  C  -203.88,0  -173.104,-15  0,-15  z " />
<path transform="translate( 0, 0 )" style="stroke: hsl(53.8, 55%, 50%);" id="415"  d=" M  0,-15  C  173.104,-15  203.88,0  203.88,0  L  208.473,-52.5  C  208.473,-52.5  151.466,-42.5  104.237,-42.5  L  -104.237,-42.5  C  -151.466,-42.5  -208.473,-52.5  -208.473,-52.5  L  -203.88,0  C  -203.88,0  -173.104,-15  0,-15  z " />
<path transform="translate( 0, 0 )" style="stroke: hsl(80.7, 55%, 50%);" id="624"  d=" M  0,-15  C  173.104,-15  203.88,0  203.88,0  L  208.954,-58  C  208.954,-58  151.466,-48  104.477,-48  L  -104.477,-48  C  -151.466,-48  -208.954,-58  -208.954,-58  L  -203.88,0  C  -203.88,0  -173.104,-15  0,-15  z " />
<path transform="translate( 0, 0 )" style="stroke: hsl(107.6, 55%, 50%);" id="833"  d=" M  0,-15  C  173.104,-15  203.88,0  203.88,0  L  209.435,-63.5  C  209.435,-63.5  151.466,-53.5  104.718,-53.5  L  -104.718,-53.5  C  -151.466,-53.5  -209.435,-63.5  -209.435,-63.5  L  -203.88,0  C  -203.88,0  -173.104,-15  0,-15  z " />
<path transform="translate( 0, 0 )" style="stroke: hsl(134.5, 55%, 50%);" id="1042"  d=" M  0,-15  C  173.104,-15  203.88,0  203.88,0  L  209.916,-69  C  209.916,-69  151.466,-59  104.958,-59  L  -104.958,-59  C  -151.466,-59  -209.916,-69  -209.916,-69  L  -203.88,0  C  -203.88,0  -173.104,-15  0,-15  z " />
<path transform="translate( 0, 0 )" style="stroke: hsl(161.4, 55%, 50%);" id="1251"  d=" M  0,-15  C  173.104,-15  203.88,0  203.88,0  L  210.397,-74.5  C  210.397,-74.5  151.466,-64.5  105.199,-64.5  L  -105.199,-64.5  C  -151.466,-64.5  -210.397,-74.5  -210.397,-74.5  L  -203.88,0  C  -203.88,0  -173.104,-15  0,-15  z " />
<path transform="translate( 0, 0 )" style="stroke: hsl(188.3, 55%, 50%);" id="1460"  d=" M  0,-15  C  173.104,-15  203.88,0  203.88,0  L  210.879,-80  C  210.879,-80  151.466,-70  105.44,-70  L  -105.44,-70  C  -151.466,-70  -210.879,-80  -210.879,-80  L  -203.88,0  C  -203.88,0  -173.104,-15  0,-15  z " />
<path transform="translate( 0, 0 )" style="stroke: hsl(215.2, 55%, 50%);" id="1669"  d=" M  0,-15  C  173.104,-15  203.88,0  203.88,0  L  211.36,-85.5  C  211.36,-85.5  151.466,-75.5  105.68,-75.5  L  -105.68,-75.5  C  -151.466,-75.5  -211.36,-85.5  -211.36,-85.5  L  -203.88,0  C  -203.88,0  -173.104,-15  0,-15  z " />
<path transform="translate( 0, 0 )" style="stroke: hsl(242.1, 55%, 50%);" id="1878"  d=" M  0,-15  C  173.104,-15  203.88,0  203.88,0  L  211.841,-91  C  211.841,-91  151.466,-81  105.921,-81  L  -105.921,-81  C  -151.466,-81  -211.841,-91  -211.841,-91  L  -203.88,0  C  -203.88,0  -173.104,-15  0,-15  z " />
<path transform="translate( 0, 0 )" style="stroke: hsl(269, 55%, 50%);" id="2087"  d=" M  0,-15  C  173.104,-15  203.88,0  203.88,0  L  212.322,-96.5  C  212.322,-96.5  151.466,-86.5  106.161,-86.5  L  -106.161,-86.5  C  -151.466,-86.5  -212.322,-96.5  -212.322,-96.5  L  -203.88,0  C  -203.88,0  -173.104,-15  0,-15  z " />
<path transform="translate( 0, 0 )" style="stroke: hsl(295.9, 55%, 50%);" id="2296"  d=" M  0,-15  C  173.104,-15  203.88,0  203.88,0  L  212.803,-102  C  212.803,-102  151.466,-92  106.402,-92  L  -106.402,-92  C  -151.466,-92  -212.803,-102  -212.803,-102  L  -203.88,0  C  -203.88,0  -173.104,-15  0,-15  z " />
    </g>
    <!-- End of group #collar -->
    
    <!-- Start of group #undercollar -->
    <g id="undercollar"  transform=" translate(217.803 107)  translate(1498.362 112) " >
        <path class="hidden" id="9"  d=" M  -212.803,-102  L  212.803,-102  L  212.803,0  L  -212.803,0  z " />
<path transform="translate( 0, 0 )" style="stroke: hsl(26.9, 55%, 50%);" id="207"  d=" M  203.88,0  L  207.992,-47  C  207.992,-47  151.466,-37  103.996,-37  L  -103.996,-37  C  -151.466,-37  -207.992,-47  -207.992,-47  L  -203.88,0  C  -203.88,0  -173.104,-17  0,-18  C  173.104,-17  203.88,0  203.88,0  z " />
<path transform="translate( 0, 0 )" style="stroke: hsl(53.8, 55%, 50%);" id="416"  d=" M  203.88,0  L  208.473,-52.5  C  208.473,-52.5  151.466,-42.5  104.237,-42.5  L  -104.237,-42.5  C  -151.466,-42.5  -208.473,-52.5  -208.473,-52.5  L  -203.88,0  C  -203.88,0  -173.104,-17  0,-18  C  173.104,-17  203.88,0  203.88,0  z " />
<path transform="translate( 0, 0 )" style="stroke: hsl(80.7, 55%, 50%);" id="625"  d=" M  203.88,0  L  208.954,-58  C  208.954,-58  151.466,-48  104.477,-48  L  -104.477,-48  C  -151.466,-48  -208.954,-58  -208.954,-58  L  -203.88,0  C  -203.88,0  -173.104,-17  0,-18  C  173.104,-17  203.88,0  203.88,0  z " />
<path transform="translate( 0, 0 )" style="stroke: hsl(107.6, 55%, 50%);" id="834"  d=" M  203.88,0  L  209.435,-63.5  C  209.435,-63.5  151.466,-53.5  104.718,-53.5  L  -104.718,-53.5  C  -151.466,-53.5  -209.435,-63.5  -209.435,-63.5  L  -203.88,0  C  -203.88,0  -173.104,-17  0,-18  C  173.104,-17  203.88,0  203.88,0  z " />
<path transform="translate( 0, 0 )" style="stroke: hsl(134.5, 55%, 50%);" id="1043"  d=" M  203.88,0  L  209.916,-69  C  209.916,-69  151.466,-59  104.958,-59  L  -104.958,-59  C  -151.466,-59  -209.916,-69  -209.916,-69  L  -203.88,0  C  -203.88,0  -173.104,-17  0,-18  C  173.104,-17  203.88,0  203.88,0  z " />
<path transform="translate( 0, 0 )" style="stroke: hsl(161.4, 55%, 50%);" id="1252"  d=" M  203.88,0  L  210.397,-74.5  C  210.397,-74.5  151.466,-64.5  105.199,-64.5  L  -105.199,-64.5  C  -151.466,-64.5  -210.397,-74.5  -210.397,-74.5  L  -203.88,0  C  -203.88,0  -173.104,-17  0,-18  C  173.104,-17  203.88,0  203.88,0  z " />
<path transform="translate( 0, 0 )" style="stroke: hsl(188.3, 55%, 50%);" id="1461"  d=" M  203.88,0  L  210.879,-80  C  210.879,-80  151.466,-70  105.44,-70  L  -105.44,-70  C  -151.466,-70  -210.879,-80  -210.879,-80  L  -203.88,0  C  -203.88,0  -173.104,-17  0,-18  C  173.104,-17  203.88,0  203.88,0  z " />
<path transform="translate( 0, 0 )" style="stroke: hsl(215.2, 55%, 50%);" id="1670"  d=" M  203.88,0  L  211.36,-85.5  C  211.36,-85.5  151.466,-75.5  105.68,-75.5  L  -105.68,-75.5  C  -151.466,-75.5  -211.36,-85.5  -211.36,-85.5  L  -203.88,0  C  -203.88,0  -173.104,-17  0,-18  C  173.104,-17  203.88,0  203.88,0  z " />
<path transform="translate( 0, 0 )" style="stroke: hsl(242.1, 55%, 50%);" id="1879"  d=" M  203.88,0  L  211.841,-91  C  211.841,-91  151.466,-81  105.921,-81  L  -105.921,-81  C  -151.466,-81  -211.841,-91  -211.841,-91  L  -203.88,0  C  -203.88,0  -173.104,-17  0,-18  C  173.104,-17  203.88,0  203.88,0  z " />
<path transform="translate( 0, 0 )" style="stroke: hsl(269, 55%, 50%);" id="2088"  d=" M  203.88,0  L  212.322,-96.5  C  212.322,-96.5  151.466,-86.5  106.161,-86.5  L  -106.161,-86.5  C  -151.466,-86.5  -212.322,-96.5  -212.322,-96.5  L  -203.88,0  C  -203.88,0  -173.104,-17  0,-18  C  173.104,-17  203.88,0  203.88,0  z " />
<path transform="translate( 0, 0 )" style="stroke: hsl(295.9, 55%, 50%);" id="2297"  d=" M  203.88,0  L  212.803,-102  C  212.803,-102  151.466,-92  106.402,-92  L  -106.402,-92  C  -151.466,-92  -212.803,-102  -212.803,-102  L  -203.88,0  C  -203.88,0  -173.104,-17  0,-18  C  173.104,-17  203.88,0  203.88,0  z " />
    </g>
    <!-- End of group #undercollar -->
    
    <!-- Start of group #sleevePlacketUnderlap -->
    <g id="sleevePlacketUnderlap"  transform=" translate(5 5)  translate(1498.362 377) " >
        <path class="hidden" id="10"  d=" M  0,0  L  188.75,0  L  188.75,36  L  0,36  z " />
<path transform="translate( 0, 0 )" style="stroke: hsl(26.9, 55%, 50%);" id="208"  d=" M  0,0  L  188.75,0  L  188.75,36  L  0,36  z " />
<path transform="translate( 0, 0 )" style="stroke: hsl(53.8, 55%, 50%);" id="417"  d=" M  0,0  L  188.75,0  L  188.75,36  L  0,36  z " />
<path transform="translate( 0, 0 )" style="stroke: hsl(80.7, 55%, 50%);" id="626"  d=" M  0,0  L  188.75,0  L  188.75,36  L  0,36  z " />
<path transform="translate( 0, 0 )" style="stroke: hsl(107.6, 55%, 50%);" id="835"  d=" M  0,0  L  188.75,0  L  188.75,36  L  0,36  z " />
<path transform="translate( 0, 0 )" style="stroke: hsl(134.5, 55%, 50%);" id="1044"  d=" M  0,0  L  188.75,0  L  188.75,36  L  0,36  z " />
<path transform="translate( 0, 0 )" style="stroke: hsl(161.4, 55%, 50%);" id="1253"  d=" M  0,0  L  188.75,0  L  188.75,36  L  0,36  z " />
<path transform="translate( 0, 0 )" style="stroke: hsl(188.3, 55%, 50%);" id="1462"  d=" M  0,0  L  188.75,0  L  188.75,36  L  0,36  z " />
<path transform="translate( 0, 0 )" style="stroke: hsl(215.2, 55%, 50%);" id="1671"  d=" M  0,0  L  188.75,0  L  188.75,36  L  0,36  z " />
<path transform="translate( 0, 0 )" style="stroke: hsl(242.1, 55%, 50%);" id="1880"  d=" M  0,0  L  188.75,0  L  188.75,36  L  0,36  z " />
<path transform="translate( 0, 0 )" style="stroke: hsl(269, 55%, 50%);" id="2089"  d=" M  0,0  L  188.75,0  L  188.75,36  L  0,36  z " />
<path transform="translate( 0, 0 )" style="stroke: hsl(295.9, 55%, 50%);" id="2298"  d=" M  0,0  L  188.75,0  L  188.75,36  L  0,36  z " />
    </g>
    <!-- End of group #sleevePlacketUnderlap -->
    
    <!-- Start of group #sleevePlacketOverlap -->
    <g id="sleevePlacketOverlap"  transform=" translate(5 5)  translate(1498.362 299) " >
        <path class="hidden" id="11"  d=" M  0,0  L  235,0  L  235,68  L  0,68  z " />
<path transform="translate( 0, 0 )" style="stroke: hsl(26.9, 55%, 50%);" id="209"  d=" M  0,0  L  235,0  L  235,41.333  L  216.25,41.333  L  211.25,49.667  L  198.75,49.667  L  198.75,68  L  0,68  z " />
<path transform="translate( 0, 0 )" style="stroke: hsl(53.8, 55%, 50%);" id="418"  d=" M  0,0  L  235,0  L  235,41.333  L  216.25,41.333  L  211.25,49.667  L  198.75,49.667  L  198.75,68  L  0,68  z " />
<path transform="translate( 0, 0 )" style="stroke: hsl(80.7, 55%, 50%);" id="627"  d=" M  0,0  L  235,0  L  235,41.333  L  216.25,41.333  L  211.25,49.667  L  198.75,49.667  L  198.75,68  L  0,68  z " />
<path transform="translate( 0, 0 )" style="stroke: hsl(107.6, 55%, 50%);" id="836"  d=" M  0,0  L  235,0  L  235,41.333  L  216.25,41.333  L  211.25,49.667  L  198.75,49.667  L  198.75,68  L  0,68  z " />
<path transform="translate( 0, 0 )" style="stroke: hsl(134.5, 55%, 50%);" id="1045"  d=" M  0,0  L  235,0  L  235,41.333  L  216.25,41.333  L  211.25,49.667  L  198.75,49.667  L  198.75,68  L  0,68  z " />
<path transform="translate( 0, 0 )" style="stroke: hsl(161.4, 55%, 50%);" id="1254"  d=" M  0,0  L  235,0  L  235,41.333  L  216.25,41.333  L  211.25,49.667  L  198.75,49.667  L  198.75,68  L  0,68  z " />
<path transform="translate( 0, 0 )" style="stroke: hsl(188.3, 55%, 50%);" id="1463"  d=" M  0,0  L  235,0  L  235,41.333  L  216.25,41.333  L  211.25,49.667  L  198.75,49.667  L  198.75,68  L  0,68  z " />
<path transform="translate( 0, 0 )" style="stroke: hsl(215.2, 55%, 50%);" id="1672"  d=" M  0,0  L  235,0  L  235,41.333  L  216.25,41.333  L  211.25,49.667  L  198.75,49.667  L  198.75,68  L  0,68  z " />
<path transform="translate( 0, 0 )" style="stroke: hsl(242.1, 55%, 50%);" id="1881"  d=" M  0,0  L  235,0  L  235,41.333  L  216.25,41.333  L  211.25,49.667  L  198.75,49.667  L  198.75,68  L  0,68  z " />
<path transform="translate( 0, 0 )" style="stroke: hsl(269, 55%, 50%);" id="2090"  d=" M  0,0  L  235,0  L  235,41.333  L  216.25,41.333  L  211.25,49.667  L  198.75,49.667  L  198.75,68  L  0,68  z " />
<path transform="translate( 0, 0 )" style="stroke: hsl(295.9, 55%, 50%);" id="2299"  d=" M  0,0  L  235,0  L  235,41.333  L  216.25,41.333  L  211.25,49.667  L  198.75,49.667  L  198.75,68  L  0,68  z " />
    </g>
    <!-- End of group #sleevePlacketOverlap -->
    
    <!-- Start of group #barrelCuff -->
    <g id="barrelCuff"  transform=" translate(127.5 5)  translate(1498.362 224) " >
        <path class="hidden" id="12"  d=" M  -122.5,0  L  122.5,0  L  122.5,65  L  -122.5,65  z " />
<path transform="translate( 0, 0 )" style="stroke: hsl(26.9, 55%, 50%);" id="210"  d=" M  0,0  L  106.25,-0  L  122.5,16.25  L  122.5,65  L  -122.5,65  L  -122.5,16.25  L  -106.25,0  z " />
<path transform="translate( 0, 0 )" style="stroke: hsl(53.8, 55%, 50%);" id="419"  d=" M  0,0  L  106.25,-0  L  122.5,16.25  L  122.5,65  L  -122.5,65  L  -122.5,16.25  L  -106.25,0  z " />
<path transform="translate( 0, 0 )" style="stroke: hsl(80.7, 55%, 50%);" id="628"  d=" M  0,0  L  106.25,-0  L  122.5,16.25  L  122.5,65  L  -122.5,65  L  -122.5,16.25  L  -106.25,0  z " />
<path transform="translate( 0, 0 )" style="stroke: hsl(107.6, 55%, 50%);" id="837"  d=" M  0,0  L  106.25,-0  L  122.5,16.25  L  122.5,65  L  -122.5,65  L  -122.5,16.25  L  -106.25,0  z " />
<path transform="translate( 0, 0 )" style="stroke: hsl(134.5, 55%, 50%);" id="1046"  d=" M  0,0  L  106.25,-0  L  122.5,16.25  L  122.5,65  L  -122.5,65  L  -122.5,16.25  L  -106.25,0  z " />
<path transform="translate( 0, 0 )" style="stroke: hsl(161.4, 55%, 50%);" id="1255"  d=" M  0,0  L  106.25,-0  L  122.5,16.25  L  122.5,65  L  -122.5,65  L  -122.5,16.25  L  -106.25,0  z " />
<path transform="translate( 0, 0 )" style="stroke: hsl(188.3, 55%, 50%);" id="1464"  d=" M  0,0  L  106.25,-0  L  122.5,16.25  L  122.5,65  L  -122.5,65  L  -122.5,16.25  L  -106.25,0  z " />
<path transform="translate( 0, 0 )" style="stroke: hsl(215.2, 55%, 50%);" id="1673"  d=" M  0,0  L  106.25,-0  L  122.5,16.25  L  122.5,65  L  -122.5,65  L  -122.5,16.25  L  -106.25,0  z " />
<path transform="translate( 0, 0 )" style="stroke: hsl(242.1, 55%, 50%);" id="1882"  d=" M  0,0  L  106.25,-0  L  122.5,16.25  L  122.5,65  L  -122.5,65  L  -122.5,16.25  L  -106.25,0  z " />
<path transform="translate( 0, 0 )" style="stroke: hsl(269, 55%, 50%);" id="2091"  d=" M  0,0  L  106.25,-0  L  122.5,16.25  L  122.5,65  L  -122.5,65  L  -122.5,16.25  L  -106.25,0  z " />
<path transform="translate( 0, 0 )" style="stroke: hsl(295.9, 55%, 50%);" id="2300"  d=" M  0,0  L  106.25,-0  L  122.5,16.25  L  122.5,65  L  -122.5,65  L  -122.5,16.25  L  -106.25,0  z " />
    </g>
    <!-- End of group #barrelCuff -->
    
    <!-- Start of group #frenchCuff -->
    <g id="frenchCuff" >
    </g>
    <!-- End of group #frenchCuff -->
    
    <!-- Start of group #sampler-frontRight -->
    <g id="sampler-frontRight" >
    </g>
    <!-- End of group #sampler-frontRight -->
    
    <!-- Start of group #sampler-frontLeft -->
    <g id="sampler-frontLeft" >
    </g>
    <!-- End of group #sampler-frontLeft -->
    
    <!-- Start of group #sampler-yoke -->
    <g id="sampler-yoke" >
    </g>
    <!-- End of group #sampler-yoke -->
    
    <!-- Start of group #sampler-back -->
    <g id="sampler-back" >
    </g>
    <!-- End of group #sampler-back -->
    
    <!-- Start of group #sampler-sleeve -->
    <g id="sampler-sleeve" >
    </g>
    <!-- End of group #sampler-sleeve -->
    
    <!-- Start of group #sampler-collarStand -->
    <g id="sampler-collarStand" >
    </g>
    <!-- End of group #sampler-collarStand -->
    
    <!-- Start of group #sampler-collar -->
    <g id="sampler-collar" >
    </g>
    <!-- End of group #sampler-collar -->
    
    <!-- Start of group #sampler-undercollar -->
    <g id="sampler-undercollar" >
    </g>
    <!-- End of group #sampler-undercollar -->
    
    <!-- Start of group #sampler-sleevePlacketUnderlap -->
    <g id="sampler-sleevePlacketUnderlap" >
    </g>
    <!-- End of group #sampler-sleevePlacketUnderlap -->
    
    <!-- Start of group #sampler-sleevePlacketOverlap -->
    <g id="sampler-sleevePlacketOverlap" >
    </g>
    <!-- End of group #sampler-sleevePlacketOverlap -->
    
    <!-- Start of group #sampler-barrelCuff -->
    <g id="sampler-barrelCuff" >
    </g>
    <!-- End of group #sampler-barrelCuff -->
</g>
<!-- End of group #patternContainer -->

</svg>

