<?xml version="1.0" encoding="UTF-8" standalone="no"?>
<svg
    width ="1204.7244106"
    height ="2738.97638057"
    viewbox ="0 0 1204.7244106 2738.97638057" xmlns:dc="http://purl.org/dc/elements/1.1/"
    xmlns:cc="http://creativecommons.org/ns#"
    xmlns:rdf="http://www.w3.org/1999/02/22-rdf-syntax-ns#"
    xmlns:svg="http://www.w3.org/2000/svg"
    xmlns="http://www.w3.org/2000/svg"
    xmlns:xlink="http://www.w3.org/1999/xlink"
    xmlns:sodipodi="http://sodipodi.sourceforge.net/DTD/sodipodi-0.dtd"
    xmlns:inkscape="http://www.inkscape.org/namespaces/inkscape" 
>

<style type="text/css">
    <![CDATA[
    path { fill: none; stroke: #000000; stroke-opacity:1; stroke-width: 0.5; stroke-miterlimit:4; stroke-dashoffset:0; stroke-linecap:round; stroke-linejoin:round; }
    path.hidden { fill: none; stroke: none; }]]>
</style>


<!-- Start of group #patternScaleContainer -->
<g id="patternScaleContainer"  transform=" scale(3.54330709 ) " >
    
    <!-- Start of group #sleeve -->
    <g id="sleeve"  transform=" translate(170 5)  translate(0 0) " >
        <path class="hidden" id="2"  d=" M  -165,0  L  165,0  L  165,763  L  -165,763  z " />
<path transform="translate( 0, 0 )" style="stroke: hsl(26.9, 55%, 50%);" id="204"  d=" M  -163.399,149.969  C  -163.399,149.969  -133.144,122.464  -118.759,105.741  C  -104.374,89.018  -81.7,54.99  -81.7,54.99  C  -81.7,54.99  -67.526,27.368  -49.226,15.051  C  -30.926,2.734  -22.059,-0  5,0  C  22.059,0  40.633,3.243  57.797,17.099  C  74.961,30.955  86.7,69.99  86.7,69.99  C  86.7,69.99  98.956,104.441  114.224,120.362  C  129.492,136.283  163.399,149.969  163.399,149.969  L  135,760  C  135,760  106.25,763  77.5,763  C  63.022,762.471  48.75,761.845  48.75,761.845  L  28.75,761.845  C  9.672,761.009  0,760  0,760  L  -20,760  C  -20,760  -48.75,757  -77.5,757  C  -106.25,757  -135,760  -135,760  z " />
<path transform="translate( 0, 0 )" style="stroke: hsl(53.8, 55%, 50%);" id="413"  d=" M  -163.399,149.969  C  -163.399,149.969  -133.144,122.464  -118.759,105.741  C  -104.374,89.018  -81.7,54.99  -81.7,54.99  C  -81.7,54.99  -67.526,27.368  -49.226,15.051  C  -30.926,2.734  -22.059,-0  5,0  C  22.059,0  40.633,3.243  57.797,17.099  C  74.961,30.955  86.7,69.99  86.7,69.99  C  86.7,69.99  98.956,104.441  114.224,120.362  C  129.492,136.283  163.399,149.969  163.399,149.969  L  138,760  C  138,760  108.5,763  79,763  C  64.144,762.471  49.5,761.845  49.5,761.845  L  29.5,761.845  C  9.924,761.009  0,760  0,760  L  -20,760  C  -20,760  -49.5,757  -79,757  C  -108.5,757  -138,760  -138,760  z " />
<path transform="translate( 0, 0 )" style="stroke: hsl(80.7, 55%, 50%);" id="622"  d=" M  -163.399,149.969  C  -163.399,149.969  -133.144,122.464  -118.759,105.741  C  -104.374,89.018  -81.7,54.99  -81.7,54.99  C  -81.7,54.99  -67.526,27.368  -49.226,15.051  C  -30.926,2.734  -22.059,-0  5,0  C  22.059,0  40.633,3.243  57.797,17.099  C  74.961,30.955  86.7,69.99  86.7,69.99  C  86.7,69.99  98.956,104.441  114.224,120.362  C  129.492,136.283  163.399,149.969  163.399,149.969  L  141,760  C  141,760  110.75,763  80.5,763  C  65.266,762.471  50.25,761.845  50.25,761.845  L  30.25,761.845  C  10.176,761.009  0,760  0,760  L  -20,760  C  -20,760  -50.25,757  -80.5,757  C  -110.75,757  -141,760  -141,760  z " />
<path transform="translate( 0, 0 )" style="stroke: hsl(107.6, 55%, 50%);" id="831"  d=" M  -163.399,149.969  C  -163.399,149.969  -133.144,122.464  -118.759,105.741  C  -104.374,89.018  -81.7,54.99  -81.7,54.99  C  -81.7,54.99  -67.526,27.368  -49.226,15.051  C  -30.926,2.734  -22.059,-0  5,0  C  22.059,0  40.633,3.243  57.797,17.099  C  74.961,30.955  86.7,69.99  86.7,69.99  C  86.7,69.99  98.956,104.441  114.224,120.362  C  129.492,136.283  163.399,149.969  163.399,149.969  L  144,760  C  144,760  113,763  82,763  C  66.388,762.471  51,761.845  51,761.845  L  31,761.845  C  10.428,761.009  0,760  0,760  L  -20,760  C  -20,760  -51,757  -82,757  C  -113,757  -144,760  -144,760  z " />
<path transform="translate( 0, 0 )" style="stroke: hsl(134.5, 55%, 50%);" id="1040"  d=" M  -163.399,149.969  C  -163.399,149.969  -133.144,122.464  -118.759,105.741  C  -104.374,89.018  -81.7,54.99  -81.7,54.99  C  -81.7,54.99  -67.526,27.368  -49.226,15.051  C  -30.926,2.734  -22.059,-0  5,0  C  22.059,0  40.633,3.243  57.797,17.099  C  74.961,30.955  86.7,69.99  86.7,69.99  C  86.7,69.99  98.956,104.441  114.224,120.362  C  129.492,136.283  163.399,149.969  163.399,149.969  L  147,760  C  147,760  115.25,763  83.5,763  C  67.511,762.471  51.75,761.845  51.75,761.845  L  31.75,761.845  C  10.681,761.009  0,760  0,760  L  -20,760  C  -20,760  -51.75,757  -83.5,757  C  -115.25,757  -147,760  -147,760  z " />
<path transform="translate( 0, 0 )" style="stroke: hsl(161.4, 55%, 50%);" id="1249"  d=" M  -163.399,149.969  C  -163.399,149.969  -133.144,122.464  -118.759,105.741  C  -104.374,89.018  -81.7,54.99  -81.7,54.99  C  -81.7,54.99  -67.526,27.368  -49.226,15.051  C  -30.926,2.734  -22.059,-0  5,0  C  22.059,0  40.633,3.243  57.797,17.099  C  74.961,30.955  86.7,69.99  86.7,69.99  C  86.7,69.99  98.956,104.441  114.224,120.362  C  129.492,136.283  163.399,149.969  163.399,149.969  L  150,760  C  150,760  117.5,763  85,763  C  68.633,762.471  52.5,761.845  52.5,761.845  L  32.5,761.845  C  10.933,761.009  0,760  0,760  L  -20,760  C  -20,760  -52.5,757  -85,757  C  -117.5,757  -150,760  -150,760  z " />
<path transform="translate( 0, 0 )" style="stroke: hsl(188.3, 55%, 50%);" id="1458"  d=" M  -163.399,149.969  C  -163.399,149.969  -133.144,122.464  -118.759,105.741  C  -104.374,89.018  -81.7,54.99  -81.7,54.99  C  -81.7,54.99  -67.526,27.368  -49.226,15.051  C  -30.926,2.734  -22.059,-0  5,0  C  22.059,0  40.633,3.243  57.797,17.099  C  74.961,30.955  86.7,69.99  86.7,69.99  C  86.7,69.99  98.956,104.441  114.224,120.362  C  129.492,136.283  163.399,149.969  163.399,149.969  L  153,760  C  153,760  119.75,763  86.5,763  C  69.755,762.471  53.25,761.845  53.25,761.845  L  33.25,761.845  C  11.185,761.009  0,760  0,760  L  -20,760  C  -20,760  -53.25,757  -86.5,757  C  -119.75,757  -153,760  -153,760  z " />
<path transform="translate( 0, 0 )" style="stroke: hsl(215.2, 55%, 50%);" id="1667"  d=" M  -163.399,149.969  C  -163.399,149.969  -133.144,122.464  -118.759,105.741  C  -104.374,89.018  -81.7,54.99  -81.7,54.99  C  -81.7,54.99  -67.526,27.368  -49.226,15.051  C  -30.926,2.734  -22.059,-0  5,0  C  22.059,0  40.633,3.243  57.797,17.099  C  74.961,30.955  86.7,69.99  86.7,69.99  C  86.7,69.99  98.956,104.441  114.224,120.362  C  129.492,136.283  163.399,149.969  163.399,149.969  L  156,760  C  156,760  122,763  88,763  C  70.878,762.471  54,761.845  54,761.845  L  34,761.845  C  11.438,761.009  0,760  0,760  L  -20,760  C  -20,760  -54,757  -88,757  C  -122,757  -156,760  -156,760  z " />
<path transform="translate( 0, 0 )" style="stroke: hsl(242.1, 55%, 50%);" id="1876"  d=" M  -163.399,149.969  C  -163.399,149.969  -133.144,122.464  -118.759,105.741  C  -104.374,89.018  -81.7,54.99  -81.7,54.99  C  -81.7,54.99  -67.526,27.368  -49.226,15.051  C  -30.926,2.734  -22.059,-0  5,0  C  22.059,0  40.633,3.243  57.797,17.099  C  74.961,30.955  86.7,69.99  86.7,69.99  C  86.7,69.99  98.956,104.441  114.224,120.362  C  129.492,136.283  163.399,149.969  163.399,149.969  L  159,760  C  159,760  124.25,763  89.5,763  C  72,762.471  54.75,761.845  54.75,761.845  L  34.75,761.845  C  11.69,761.009  0,760  0,760  L  -20,760  C  -20,760  -54.75,757  -89.5,757  C  -124.25,757  -159,760  -159,760  z " />
<path transform="translate( 0, 0 )" style="stroke: hsl(269, 55%, 50%);" id="2085"  d=" M  -163.399,149.969  C  -163.399,149.969  -133.144,122.464  -118.759,105.741  C  -104.374,89.018  -81.7,54.99  -81.7,54.99  C  -81.7,54.99  -67.526,27.368  -49.226,15.051  C  -30.926,2.734  -22.059,-0  5,0  C  22.059,0  40.633,3.243  57.797,17.099  C  74.961,30.955  86.7,69.99  86.7,69.99  C  86.7,69.99  98.956,104.441  114.224,120.362  C  129.492,136.283  163.399,149.969  163.399,149.969  L  162,760  C  162,760  126.5,763  91,763  C  73.122,762.471  55.5,761.845  55.5,761.845  L  35.5,761.845  C  11.942,761.009  0,760  0,760  L  -20,760  C  -20,760  -55.5,757  -91,757  C  -126.5,757  -162,760  -162,760  z " />
<path transform="translate( 0, 0 )" style="stroke: hsl(295.9, 55%, 50%);" id="2294"  d=" M  -163.399,149.969  C  -163.399,149.969  -133.144,122.464  -118.759,105.741  C  -104.374,89.018  -81.7,54.99  -81.7,54.99  C  -81.7,54.99  -67.526,27.368  -49.226,15.051  C  -30.926,2.734  -22.059,-0  5,0  C  22.059,0  40.633,3.243  57.797,17.099  C  74.961,30.955  86.7,69.99  86.7,69.99  C  86.7,69.99  98.956,104.441  114.224,120.362  C  129.492,136.283  163.399,149.969  163.399,149.969  L  165,760  C  165,760  128.75,763  92.5,763  C  74.245,762.471  56.25,761.845  56.25,761.845  L  36.25,761.845  C  12.195,761.009  0,760  0,760  L  -20,760  C  -20,760  -56.25,757  -92.5,757  C  -128.75,757  -165,760  -165,760  z " />
    </g>
    <!-- End of group #sleeve -->
</g>
<!-- End of group #patternScaleContainer -->

</svg>

