<?xml version="1.0" encoding="UTF-8" standalone="no"?>
<svg
    width ="1193.3787412978"
    height ="2738.97638057"
    viewbox ="0 0 1193.3787412978 2738.97638057" xmlns:dc="http://purl.org/dc/elements/1.1/"
    xmlns:cc="http://creativecommons.org/ns#"
    xmlns:rdf="http://www.w3.org/1999/02/22-rdf-syntax-ns#"
    xmlns:svg="http://www.w3.org/2000/svg"
    xmlns="http://www.w3.org/2000/svg"
    xmlns:xlink="http://www.w3.org/1999/xlink"
    xmlns:sodipodi="http://sodipodi.sourceforge.net/DTD/sodipodi-0.dtd"
    xmlns:inkscape="http://www.inkscape.org/namespaces/inkscape" 
>

<style type="text/css">
    <![CDATA[
    path { fill: none; stroke: #000000; stroke-opacity:1; stroke-width: 0.5; stroke-miterlimit:4; stroke-dashoffset:0; stroke-linecap:round; stroke-linejoin:round; }
    path.hidden { fill: none; stroke: none; }]]>
</style>


<!-- Start of group #patternScaleContainer -->
<g id="patternScaleContainer"  transform=" scale(3.54330709 ) " >
    
    <!-- Start of group #sleeve -->
    <g id="sleeve"  transform=" translate(168.399 5)  translate(0 0) " >
        <path class="hidden" id="2"  d=" M  -163.399,0  L  163.399,0  L  163.399,763  L  -163.399,763  z " />
<path transform="translate( 0, 0 )" style="stroke: hsl(26.9, 55%, 50%);" id="204"  d=" M  -163.399,149.969  C  -163.399,149.969  -133.144,122.464  -118.759,105.741  C  -104.374,89.018  -81.7,54.99  -81.7,54.99  C  -81.7,54.99  -67.526,27.368  -49.226,15.051  C  -30.926,2.734  -22.059,-0  5,0  C  22.059,0  40.633,3.243  57.797,17.099  C  74.961,30.955  86.7,69.99  86.7,69.99  C  86.7,69.99  98.956,104.441  114.224,120.362  C  129.492,136.283  163.399,149.969  163.399,149.969  L  122.5,760  C  122.5,760  91.875,763  61.25,763  C  30.625,763  0,760  0,760  L  0,760  C  0,760  -30.625,757  -61.25,757  C  -91.875,757  -122.5,760  -122.5,760  z " />
<path transform="translate( 0, 0 )" style="stroke: hsl(53.8, 55%, 50%);" id="413"  d=" M  -163.399,149.969  C  -163.399,149.969  -133.144,122.464  -118.759,105.741  C  -104.374,89.018  -81.7,54.99  -81.7,54.99  C  -81.7,54.99  -67.526,27.368  -49.226,15.051  C  -30.926,2.734  -22.059,-0  5,0  C  22.059,0  40.633,3.243  57.797,17.099  C  74.961,30.955  86.7,69.99  86.7,69.99  C  86.7,69.99  98.956,104.441  114.224,120.362  C  129.492,136.283  163.399,149.969  163.399,149.969  L  122.5,760  C  122.5,760  91.875,763  61.25,763  C  30.625,763  0,760  0,760  L  -8,760  C  -8,760  -38.625,757  -69.25,757  C  -99.875,757  -130.5,760  -130.5,760  z " />
<path transform="translate( 0, 0 )" style="stroke: hsl(80.7, 55%, 50%);" id="622"  d=" M  -163.399,149.969  C  -163.399,149.969  -133.144,122.464  -118.759,105.741  C  -104.374,89.018  -81.7,54.99  -81.7,54.99  C  -81.7,54.99  -67.526,27.368  -49.226,15.051  C  -30.926,2.734  -22.059,-0  5,0  C  22.059,0  40.633,3.243  57.797,17.099  C  74.961,30.955  86.7,69.99  86.7,69.99  C  86.7,69.99  98.956,104.441  114.224,120.362  C  129.492,136.283  163.399,149.969  163.399,149.969  L  122.5,760  C  122.5,760  91.875,763  61.25,763  C  30.625,763  0,760  0,760  L  -16,760  C  -16,760  -46.625,757  -77.25,757  C  -107.875,757  -138.5,760  -138.5,760  z " />
<path transform="translate( 0, 0 )" style="stroke: hsl(107.6, 55%, 50%);" id="831"  d=" M  -163.399,149.969  C  -163.399,149.969  -133.144,122.464  -118.759,105.741  C  -104.374,89.018  -81.7,54.99  -81.7,54.99  C  -81.7,54.99  -67.526,27.368  -49.226,15.051  C  -30.926,2.734  -22.059,-0  5,0  C  22.059,0  40.633,3.243  57.797,17.099  C  74.961,30.955  86.7,69.99  86.7,69.99  C  86.7,69.99  98.956,104.441  114.224,120.362  C  129.492,136.283  163.399,149.969  163.399,149.969  L  134.5,760  C  134.5,760  103.875,763  73.25,763  C  57.827,762.471  42.625,761.845  42.625,761.845  L  30.625,761.845  C  10.302,761.009  0,760  0,760  L  -12,760  C  -12,760  -42.625,757  -73.25,757  C  -103.875,757  -134.5,760  -134.5,760  z " />
<path transform="translate( 0, 0 )" style="stroke: hsl(134.5, 55%, 50%);" id="1040"  d=" M  -163.399,149.969  C  -163.399,149.969  -133.144,122.464  -118.759,105.741  C  -104.374,89.018  -81.7,54.99  -81.7,54.99  C  -81.7,54.99  -67.526,27.368  -49.226,15.051  C  -30.926,2.734  -22.059,-0  5,0  C  22.059,0  40.633,3.243  57.797,17.099  C  74.961,30.955  86.7,69.99  86.7,69.99  C  86.7,69.99  98.956,104.441  114.224,120.362  C  129.492,136.283  163.399,149.969  163.399,149.969  L  138.5,760  C  138.5,760  107.875,763  77.25,763  C  61.827,762.471  46.625,761.845  46.625,761.845  L  30.625,761.845  C  10.302,761.009  0,760  0,760  L  -16,760  C  -16,760  -46.625,757  -77.25,757  C  -107.875,757  -138.5,760  -138.5,760  z " />
<path transform="translate( 0, 0 )" style="stroke: hsl(161.4, 55%, 50%);" id="1249"  d=" M  -163.399,149.969  C  -163.399,149.969  -133.144,122.464  -118.759,105.741  C  -104.374,89.018  -81.7,54.99  -81.7,54.99  C  -81.7,54.99  -67.526,27.368  -49.226,15.051  C  -30.926,2.734  -22.059,-0  5,0  C  22.059,0  40.633,3.243  57.797,17.099  C  74.961,30.955  86.7,69.99  86.7,69.99  C  86.7,69.99  98.956,104.441  114.224,120.362  C  129.492,136.283  163.399,149.969  163.399,149.969  L  142.5,760  C  142.5,760  111.875,763  81.25,763  C  65.827,762.471  50.625,761.845  50.625,761.845  L  30.625,761.845  C  10.302,761.009  0,760  0,760  L  -20,760  C  -20,760  -50.625,757  -81.25,757  C  -111.875,757  -142.5,760  -142.5,760  z " />
<path transform="translate( 0, 0 )" style="stroke: hsl(188.3, 55%, 50%);" id="1458"  d=" M  -163.399,149.969  C  -163.399,149.969  -133.144,122.464  -118.759,105.741  C  -104.374,89.018  -81.7,54.99  -81.7,54.99  C  -81.7,54.99  -67.526,27.368  -49.226,15.051  C  -30.926,2.734  -22.059,-0  5,0  C  22.059,0  40.633,3.243  57.797,17.099  C  74.961,30.955  86.7,69.99  86.7,69.99  C  86.7,69.99  98.956,104.441  114.224,120.362  C  129.492,136.283  163.399,149.969  163.399,149.969  L  146.5,760  C  146.5,760  115.875,763  85.25,763  C  69.827,762.471  54.625,761.845  54.625,761.845  L  30.625,761.845  C  10.302,761.009  0,760  0,760  L  -24,760  C  -24,760  -54.625,757  -85.25,757  C  -115.875,757  -146.5,760  -146.5,760  z " />
<path transform="translate( 0, 0 )" style="stroke: hsl(215.2, 55%, 50%);" id="1667"  d=" M  -163.399,149.969  C  -163.399,149.969  -133.144,122.464  -118.759,105.741  C  -104.374,89.018  -81.7,54.99  -81.7,54.99  C  -81.7,54.99  -67.526,27.368  -49.226,15.051  C  -30.926,2.734  -22.059,-0  5,0  C  22.059,0  40.633,3.243  57.797,17.099  C  74.961,30.955  86.7,69.99  86.7,69.99  C  86.7,69.99  98.956,104.441  114.224,120.362  C  129.492,136.283  163.399,149.969  163.399,149.969  L  150.5,760  C  150.5,760  119.875,763  89.25,763  C  73.827,762.471  58.625,761.845  58.625,761.845  L  30.625,761.845  C  10.302,761.009  0,760  0,760  L  -28,760  C  -28,760  -58.625,757  -89.25,757  C  -119.875,757  -150.5,760  -150.5,760  z " />
<path transform="translate( 0, 0 )" style="stroke: hsl(242.1, 55%, 50%);" id="1876"  d=" M  -163.399,149.969  C  -163.399,149.969  -133.144,122.464  -118.759,105.741  C  -104.374,89.018  -81.7,54.99  -81.7,54.99  C  -81.7,54.99  -67.526,27.368  -49.226,15.051  C  -30.926,2.734  -22.059,-0  5,0  C  22.059,0  40.633,3.243  57.797,17.099  C  74.961,30.955  86.7,69.99  86.7,69.99  C  86.7,69.99  98.956,104.441  114.224,120.362  C  129.492,136.283  163.399,149.969  163.399,149.969  L  154.5,760  C  154.5,760  123.875,763  93.25,763  C  77.827,762.471  62.625,761.845  62.625,761.845  L  30.625,761.845  C  10.302,761.009  0,760  0,760  L  -32,760  C  -32,760  -62.625,757  -93.25,757  C  -123.875,757  -154.5,760  -154.5,760  z " />
<path transform="translate( 0, 0 )" style="stroke: hsl(269, 55%, 50%);" id="2085"  d=" M  -163.399,149.969  C  -163.399,149.969  -133.144,122.464  -118.759,105.741  C  -104.374,89.018  -81.7,54.99  -81.7,54.99  C  -81.7,54.99  -67.526,27.368  -49.226,15.051  C  -30.926,2.734  -22.059,-0  5,0  C  22.059,0  40.633,3.243  57.797,17.099  C  74.961,30.955  86.7,69.99  86.7,69.99  C  86.7,69.99  98.956,104.441  114.224,120.362  C  129.492,136.283  163.399,149.969  163.399,149.969  L  158.5,760  C  158.5,760  127.875,763  97.25,763  C  81.827,762.471  66.625,761.845  66.625,761.845  L  30.625,761.845  C  10.302,761.009  0,760  0,760  L  -36,760  C  -36,760  -66.625,757  -97.25,757  C  -127.875,757  -158.5,760  -158.5,760  z " />
<path transform="translate( 0, 0 )" style="stroke: hsl(295.9, 55%, 50%);" id="2294"  d=" M  -163.399,149.969  C  -163.399,149.969  -133.144,122.464  -118.759,105.741  C  -104.374,89.018  -81.7,54.99  -81.7,54.99  C  -81.7,54.99  -67.526,27.368  -49.226,15.051  C  -30.926,2.734  -22.059,-0  5,0  C  22.059,0  40.633,3.243  57.797,17.099  C  74.961,30.955  86.7,69.99  86.7,69.99  C  86.7,69.99  98.956,104.441  114.224,120.362  C  129.492,136.283  163.399,149.969  163.399,149.969  L  162.5,760  C  162.5,760  131.875,763  101.25,763  C  85.827,762.471  70.625,761.845  70.625,761.845  L  30.625,761.845  C  10.302,761.009  0,760  0,760  L  -40,760  C  -40,760  -70.625,757  -101.25,757  C  -131.875,757  -162.5,760  -162.5,760  z " />
    </g>
    <!-- End of group #sleeve -->
</g>
<!-- End of group #patternScaleContainer -->

</svg>

