<?xml version="1.0" encoding="UTF-8" standalone="no"?>
<svg
    xmlns="http://www.w3.org/2000/svg"
    xmlns:svg="http://www.w3.org/2000/svg"
    xmlns:xlink="http://www.w3.org/1999/xlink"
    xmlns:freesewing="http://freesewing.org/namespaces/freesewing" viewBox ="0 0 1498 1007"
    width ="1498mm"
    height ="1007mm"
    freesewing:version ="1.5.0"
    freesewing:origin ="joost.core.freesewing.org" 
>

<style type="text/css">
    <![CDATA[
    path { fill: none; stroke: #000000; stroke-opacity:1; stroke-width: 0.5; stroke-miterlimit:4; stroke-dashoffset:0; stroke-linecap:round; stroke-linejoin:round; }
    path.hidden { fill: none; stroke: none; }]]>
</style>


<!-- Start of group #patternContainer -->
<g id="patternContainer" >
    
    <!-- Start of group #backBlock -->
    <g id="backBlock" >
    </g>
    <!-- End of group #backBlock -->
    
    <!-- Start of group #frontBlock -->
    <g id="frontBlock" >
    </g>
    <!-- End of group #frontBlock -->
    
    <!-- Start of group #sleeveBlock -->
    <g id="sleeveBlock" >
    </g>
    <!-- End of group #sleeveBlock -->
    
    <!-- Start of group #block -->
    <g id="block" >
    </g>
    <!-- End of group #block -->
    
    <!-- Start of group #frontAndBackBlock -->
    <g id="frontAndBackBlock" >
    </g>
    <!-- End of group #frontAndBackBlock -->
    
    <!-- Start of group #frontRight -->
    <g id="frontRight"  transform=" translate(315 5)  translate(0 0) " >
        <path class="hidden" id="2"  d=" M  -310,0  L  30,0  L  30,835  L  -310,835  z " />
<path transform="translate( 0, 0 )" style="stroke: hsl(26.9, 55%, 50%);" id="200"  d=" M  -310,284.5  C  -288.75,284.5  -269.166,276.922  -250.872,258.628  C  -232.578,240.334  -220,193.833  -220,152.25  C  -220,110.667  -233.338,37.361  -235,27.5  L  -71.847,0  C  -68.523,19.722  -71.847,100.842  0,100.842  L  20,100.842  C  23.592,100.842  26.997,100.639  30,100.278  L  30,100.842  L  30,835  L  -249,835  C  -249,835  -280,835  -280,835  C  -280,835  -280,755  -280,755  C  -280,734  -276.99,705.994  -277.5,685  C  -277.94,666.875  -280.75,612.5  -280.75,540  C  -280.75,412.25  -310,316.437  -310,284.5 " />
<path transform="translate( 0, 0 )" style="stroke: hsl(53.8, 55%, 50%);" id="409"  d=" M  -310,284.5  C  -288.75,284.5  -269.166,276.922  -250.872,258.628  C  -232.578,240.334  -220,193.833  -220,152.25  C  -220,110.667  -233.338,37.361  -235,27.5  L  -71.847,0  C  -68.523,19.722  -71.847,100.842  0,100.842  L  20,100.842  C  23.592,100.842  26.997,100.639  30,100.278  L  30,100.842  L  30,835  L  -249,835  C  -249,835  -280,835  -280,835  C  -280,835  -280,755  -280,755  C  -280,734  -276.99,705.994  -277.5,685  C  -277.94,666.875  -280.75,612.5  -280.75,540  C  -280.75,412.25  -310,316.437  -310,284.5 " />
<path transform="translate( 0, 0 )" style="stroke: hsl(80.7, 55%, 50%);" id="618"  d=" M  -310,284.5  C  -288.75,284.5  -269.166,276.922  -250.872,258.628  C  -232.578,240.334  -220,193.833  -220,152.25  C  -220,110.667  -233.338,37.361  -235,27.5  L  -71.847,0  C  -68.523,19.722  -71.847,100.842  0,100.842  L  20,100.842  C  23.592,100.842  26.997,100.639  30,100.278  L  30,100.842  L  30,835  L  -249,835  C  -249,835  -280,835  -280,835  C  -280,835  -280,755  -280,755  C  -280,734  -276.99,705.994  -277.5,685  C  -277.94,666.875  -280.75,612.5  -280.75,540  C  -280.75,412.25  -310,316.437  -310,284.5 " />
<path transform="translate( 0, 0 )" style="stroke: hsl(107.6, 55%, 50%);" id="827"  d=" M  -310,284.5  C  -288.75,284.5  -269.166,276.922  -250.872,258.628  C  -232.578,240.334  -220,193.833  -220,152.25  C  -220,110.667  -233.338,37.361  -235,27.5  L  -71.847,0  C  -68.523,19.722  -71.847,100.842  0,100.842  L  20,100.842  C  23.592,100.842  26.997,100.639  30,100.278  L  30,100.842  L  30,835  L  -249,835  C  -249,835  -280,835  -280,835  C  -280,835  -280,755  -280,755  C  -280,734  -276.99,705.994  -277.5,685  C  -277.94,666.875  -280.75,612.5  -280.75,540  C  -280.75,412.25  -310,316.437  -310,284.5 " />
<path transform="translate( 0, 0 )" style="stroke: hsl(134.5, 55%, 50%);" id="1036"  d=" M  -310,284.5  C  -288.75,284.5  -269.166,276.922  -250.872,258.628  C  -232.578,240.334  -220,193.833  -220,152.25  C  -220,110.667  -233.338,37.361  -235,27.5  L  -71.847,0  C  -68.523,19.722  -71.847,100.842  0,100.842  L  20,100.842  C  23.592,100.842  26.997,100.639  30,100.278  L  30,100.842  L  30,835  L  -249,835  C  -249,835  -280,835  -280,835  C  -280,835  -280,755  -280,755  C  -280,734  -276.99,705.994  -277.5,685  C  -277.94,666.875  -280.75,612.5  -280.75,540  C  -280.75,412.25  -310,316.437  -310,284.5 " />
<path transform="translate( 0, 0 )" style="stroke: hsl(161.4, 55%, 50%);" id="1245"  d=" M  -310,284.5  C  -288.75,284.5  -269.166,276.922  -250.872,258.628  C  -232.578,240.334  -220,193.833  -220,152.25  C  -220,110.667  -233.338,37.361  -235,27.5  L  -71.847,0  C  -68.523,19.722  -71.847,100.842  0,100.842  L  20,100.842  C  23.592,100.842  26.997,100.639  30,100.278  L  30,100.842  L  30,835  L  -249,835  C  -249,835  -280,835  -280,835  C  -280,835  -280,755  -280,755  C  -280,734  -276.99,705.994  -277.5,685  C  -277.94,666.875  -280.75,612.5  -280.75,540  C  -280.75,412.25  -310,316.437  -310,284.5 " />
<path transform="translate( 0, 0 )" style="stroke: hsl(188.3, 55%, 50%);" id="1454"  d=" M  -310,284.5  C  -288.75,284.5  -269.166,276.922  -250.872,258.628  C  -232.578,240.334  -220,193.833  -220,152.25  C  -220,110.667  -233.338,37.361  -235,27.5  L  -71.847,0  C  -68.523,19.722  -71.847,100.842  0,100.842  L  20,100.842  C  23.592,100.842  26.997,100.639  30,100.278  L  30,100.842  L  30,835  L  -249,835  C  -249,835  -280,835  -280,835  C  -280,835  -280,755  -280,755  C  -280,734  -276.99,705.994  -277.5,685  C  -277.94,666.875  -280.75,612.5  -280.75,540  C  -280.75,412.25  -310,316.437  -310,284.5 " />
<path transform="translate( 0, 0 )" style="stroke: hsl(215.2, 55%, 50%);" id="1663"  d=" M  -310,284.5  C  -288.75,284.5  -269.166,276.922  -250.872,258.628  C  -232.578,240.334  -220,193.833  -220,152.25  C  -220,110.667  -233.338,37.361  -235,27.5  L  -71.847,0  C  -68.523,19.722  -71.847,100.842  0,100.842  L  20,100.842  C  23.592,100.842  26.997,100.639  30,100.278  L  30,100.842  L  30,835  L  -249,835  C  -249,835  -280,835  -280,835  C  -280,835  -280,755  -280,755  C  -280,734  -276.99,705.994  -277.5,685  C  -277.94,666.875  -280.75,612.5  -280.75,540  C  -280.75,412.25  -310,316.437  -310,284.5 " />
<path transform="translate( 0, 0 )" style="stroke: hsl(242.1, 55%, 50%);" id="1872"  d=" M  -310,284.5  C  -288.75,284.5  -269.166,276.922  -250.872,258.628  C  -232.578,240.334  -220,193.833  -220,152.25  C  -220,110.667  -233.338,37.361  -235,27.5  L  -71.847,0  C  -68.523,19.722  -71.847,100.842  0,100.842  L  20,100.842  C  23.592,100.842  26.997,100.639  30,100.278  L  30,100.842  L  30,835  L  -249,835  C  -249,835  -280,835  -280,835  C  -280,835  -280,755  -280,755  C  -280,734  -276.99,705.994  -277.5,685  C  -277.94,666.875  -280.75,612.5  -280.75,540  C  -280.75,412.25  -310,316.437  -310,284.5 " />
<path transform="translate( 0, 0 )" style="stroke: hsl(269, 55%, 50%);" id="2081"  d=" M  -310,284.5  C  -288.75,284.5  -269.166,276.922  -250.872,258.628  C  -232.578,240.334  -220,193.833  -220,152.25  C  -220,110.667  -233.338,37.361  -235,27.5  L  -71.847,0  C  -68.523,19.722  -71.847,100.842  0,100.842  L  20,100.842  C  23.592,100.842  26.997,100.639  30,100.278  L  30,100.842  L  30,835  L  -249,835  C  -249,835  -280,835  -280,835  C  -280,835  -280,755  -280,755  C  -280,734  -276.99,705.994  -277.5,685  C  -277.94,666.875  -280.75,612.5  -280.75,540  C  -280.75,412.25  -310,316.437  -310,284.5 " />
<path transform="translate( 0, 0 )" style="stroke: hsl(295.9, 55%, 50%);" id="2290"  d=" M  -310,284.5  C  -288.75,284.5  -269.166,276.922  -250.872,258.628  C  -232.578,240.334  -220,193.833  -220,152.25  C  -220,110.667  -233.338,37.361  -235,27.5  L  -71.847,0  C  -68.523,19.722  -71.847,100.842  0,100.842  L  20,100.842  C  23.592,100.842  26.997,100.639  30,100.278  L  30,100.842  L  30,835  L  -249,835  C  -249,835  -280,835  -280,835  C  -280,835  -280,755  -280,755  C  -280,734  -276.99,705.994  -277.5,685  C  -277.94,666.875  -280.75,612.5  -280.75,540  C  -280.75,412.25  -310,316.437  -310,284.5 " />
    </g>
    <!-- End of group #frontRight -->
    
    <!-- Start of group #frontLeft -->
    <g id="frontLeft"  transform=" translate(92.5 5)  translate(350 0) " >
        <path class="hidden" id="3"  d=" M  -87.5,0  L  310,0  L  310,835  L  -87.5,835  z " />
<path transform="translate( 0, 0 )" style="stroke: hsl(26.9, 55%, 50%);" id="201"  d=" M  310,284.5  C  288.75,284.5  269.166,276.922  250.872,258.628  C  232.578,240.334  220,193.833  220,152.25  C  220,110.667  233.338,37.361  235,27.5  L  71.847,0  C  68.523,19.722  71.847,100.842  0,100.842  L  -35,100.842  C  -47.324,100.185  -41.466,100.842  -52.5,99.005  C  -63.534,100.842  -57.676,100.185  -70,100.842  L  -87.5,100.842  L  -87.5,835  L  249,835  C  249,835  280,835  280,835  C  280,835  280,755  280,755  C  280,734  276.99,705.994  277.5,685  C  277.94,666.875  280.75,612.5  280.75,540  C  280.75,412.25  310,316.437  310,284.5 " />
<path transform="translate( 0, 0 )" style="stroke: hsl(53.8, 55%, 50%);" id="410"  d=" M  310,284.5  C  288.75,284.5  269.166,276.922  250.872,258.628  C  232.578,240.334  220,193.833  220,152.25  C  220,110.667  233.338,37.361  235,27.5  L  71.847,0  C  68.523,19.722  71.847,100.842  0,100.842  L  -35,100.842  C  -47.324,100.185  -41.466,100.842  -52.5,99.005  C  -63.534,100.842  -57.676,100.185  -70,100.842  L  -87.5,100.842  L  -87.5,835  L  249,835  C  249,835  280,835  280,835  C  280,835  280,755  280,755  C  280,734  276.99,705.994  277.5,685  C  277.94,666.875  280.75,612.5  280.75,540  C  280.75,412.25  310,316.437  310,284.5 " />
<path transform="translate( 0, 0 )" style="stroke: hsl(80.7, 55%, 50%);" id="619"  d=" M  310,284.5  C  288.75,284.5  269.166,276.922  250.872,258.628  C  232.578,240.334  220,193.833  220,152.25  C  220,110.667  233.338,37.361  235,27.5  L  71.847,0  C  68.523,19.722  71.847,100.842  0,100.842  L  -35,100.842  C  -47.324,100.185  -41.466,100.842  -52.5,99.005  C  -63.534,100.842  -57.676,100.185  -70,100.842  L  -87.5,100.842  L  -87.5,835  L  249,835  C  249,835  280,835  280,835  C  280,835  280,755  280,755  C  280,734  276.99,705.994  277.5,685  C  277.94,666.875  280.75,612.5  280.75,540  C  280.75,412.25  310,316.437  310,284.5 " />
<path transform="translate( 0, 0 )" style="stroke: hsl(107.6, 55%, 50%);" id="828"  d=" M  310,284.5  C  288.75,284.5  269.166,276.922  250.872,258.628  C  232.578,240.334  220,193.833  220,152.25  C  220,110.667  233.338,37.361  235,27.5  L  71.847,0  C  68.523,19.722  71.847,100.842  0,100.842  L  -35,100.842  C  -47.324,100.185  -41.466,100.842  -52.5,99.005  C  -63.534,100.842  -57.676,100.185  -70,100.842  L  -87.5,100.842  L  -87.5,835  L  249,835  C  249,835  280,835  280,835  C  280,835  280,755  280,755  C  280,734  276.99,705.994  277.5,685  C  277.94,666.875  280.75,612.5  280.75,540  C  280.75,412.25  310,316.437  310,284.5 " />
<path transform="translate( 0, 0 )" style="stroke: hsl(134.5, 55%, 50%);" id="1037"  d=" M  310,284.5  C  288.75,284.5  269.166,276.922  250.872,258.628  C  232.578,240.334  220,193.833  220,152.25  C  220,110.667  233.338,37.361  235,27.5  L  71.847,0  C  68.523,19.722  71.847,100.842  0,100.842  L  -35,100.842  C  -47.324,100.185  -41.466,100.842  -52.5,99.005  C  -63.534,100.842  -57.676,100.185  -70,100.842  L  -87.5,100.842  L  -87.5,835  L  249,835  C  249,835  280,835  280,835  C  280,835  280,755  280,755  C  280,734  276.99,705.994  277.5,685  C  277.94,666.875  280.75,612.5  280.75,540  C  280.75,412.25  310,316.437  310,284.5 " />
<path transform="translate( 0, 0 )" style="stroke: hsl(161.4, 55%, 50%);" id="1246"  d=" M  310,284.5  C  288.75,284.5  269.166,276.922  250.872,258.628  C  232.578,240.334  220,193.833  220,152.25  C  220,110.667  233.338,37.361  235,27.5  L  71.847,0  C  68.523,19.722  71.847,100.842  0,100.842  L  -35,100.842  C  -47.324,100.185  -41.466,100.842  -52.5,99.005  C  -63.534,100.842  -57.676,100.185  -70,100.842  L  -87.5,100.842  L  -87.5,835  L  249,835  C  249,835  280,835  280,835  C  280,835  280,755  280,755  C  280,734  276.99,705.994  277.5,685  C  277.94,666.875  280.75,612.5  280.75,540  C  280.75,412.25  310,316.437  310,284.5 " />
<path transform="translate( 0, 0 )" style="stroke: hsl(188.3, 55%, 50%);" id="1455"  d=" M  310,284.5  C  288.75,284.5  269.166,276.922  250.872,258.628  C  232.578,240.334  220,193.833  220,152.25  C  220,110.667  233.338,37.361  235,27.5  L  71.847,0  C  68.523,19.722  71.847,100.842  0,100.842  L  -35,100.842  C  -47.324,100.185  -41.466,100.842  -52.5,99.005  C  -63.534,100.842  -57.676,100.185  -70,100.842  L  -87.5,100.842  L  -87.5,835  L  249,835  C  249,835  280,835  280,835  C  280,835  280,755  280,755  C  280,734  276.99,705.994  277.5,685  C  277.94,666.875  280.75,612.5  280.75,540  C  280.75,412.25  310,316.437  310,284.5 " />
<path transform="translate( 0, 0 )" style="stroke: hsl(215.2, 55%, 50%);" id="1664"  d=" M  310,284.5  C  288.75,284.5  269.166,276.922  250.872,258.628  C  232.578,240.334  220,193.833  220,152.25  C  220,110.667  233.338,37.361  235,27.5  L  71.847,0  C  68.523,19.722  71.847,100.842  0,100.842  L  -35,100.842  C  -47.324,100.185  -41.466,100.842  -52.5,99.005  C  -63.534,100.842  -57.676,100.185  -70,100.842  L  -87.5,100.842  L  -87.5,835  L  249,835  C  249,835  280,835  280,835  C  280,835  280,755  280,755  C  280,734  276.99,705.994  277.5,685  C  277.94,666.875  280.75,612.5  280.75,540  C  280.75,412.25  310,316.437  310,284.5 " />
<path transform="translate( 0, 0 )" style="stroke: hsl(242.1, 55%, 50%);" id="1873"  d=" M  310,284.5  C  288.75,284.5  269.166,276.922  250.872,258.628  C  232.578,240.334  220,193.833  220,152.25  C  220,110.667  233.338,37.361  235,27.5  L  71.847,0  C  68.523,19.722  71.847,100.842  0,100.842  L  -35,100.842  C  -47.324,100.185  -41.466,100.842  -52.5,99.005  C  -63.534,100.842  -57.676,100.185  -70,100.842  L  -87.5,100.842  L  -87.5,835  L  249,835  C  249,835  280,835  280,835  C  280,835  280,755  280,755  C  280,734  276.99,705.994  277.5,685  C  277.94,666.875  280.75,612.5  280.75,540  C  280.75,412.25  310,316.437  310,284.5 " />
<path transform="translate( 0, 0 )" style="stroke: hsl(269, 55%, 50%);" id="2082"  d=" M  310,284.5  C  288.75,284.5  269.166,276.922  250.872,258.628  C  232.578,240.334  220,193.833  220,152.25  C  220,110.667  233.338,37.361  235,27.5  L  71.847,0  C  68.523,19.722  71.847,100.842  0,100.842  L  -35,100.842  C  -47.324,100.185  -41.466,100.842  -52.5,99.005  C  -63.534,100.842  -57.676,100.185  -70,100.842  L  -87.5,100.842  L  -87.5,835  L  249,835  C  249,835  280,835  280,835  C  280,835  280,755  280,755  C  280,734  276.99,705.994  277.5,685  C  277.94,666.875  280.75,612.5  280.75,540  C  280.75,412.25  310,316.437  310,284.5 " />
<path transform="translate( 0, 0 )" style="stroke: hsl(295.9, 55%, 50%);" id="2291"  d=" M  310,284.5  C  288.75,284.5  269.166,276.922  250.872,258.628  C  232.578,240.334  220,193.833  220,152.25  C  220,110.667  233.338,37.361  235,27.5  L  71.847,0  C  68.523,19.722  71.847,100.842  0,100.842  L  -35,100.842  C  -47.324,100.185  -41.466,100.842  -52.5,99.005  C  -63.534,100.842  -57.676,100.185  -70,100.842  L  -87.5,100.842  L  -87.5,835  L  249,835  C  249,835  280,835  280,835  C  280,835  280,755  280,755  C  280,734  276.99,705.994  277.5,685  C  277.94,666.875  280.75,612.5  280.75,540  C  280.75,412.25  310,316.437  310,284.5 " />
    </g>
    <!-- End of group #frontLeft -->
    
    <!-- Start of group #buttonPlacket -->
    <g id="buttonPlacket" >
    </g>
    <!-- End of group #buttonPlacket -->
    
    <!-- Start of group #buttonholePlacket -->
    <g id="buttonholePlacket" >
    </g>
    <!-- End of group #buttonholePlacket -->
    
    <!-- Start of group #yoke -->
    <g id="yoke"  transform=" translate(240 5)  translate(0 845) " >
        <path class="hidden" id="4"  d=" M  -235,0  L  235,0  L  235,152.25  L  -235,152.25  z " />
<path transform="translate( 0, 0 )" style="stroke: hsl(26.9, 55%, 50%);" id="202"  d=" M  225,152.25  C  225,110.667  233.338,37.361  235,27.5  L  71.847,0  C  68.523,19.722  0,20  0,20  C  0,20  -68.523,19.722  -71.847,0  L  -235,27.5  C  -233.338,37.361  -225,110.667  -225,152.25  z " />
<path transform="translate( 0, 0 )" style="stroke: hsl(53.8, 55%, 50%);" id="411"  d=" M  225,152.25  C  225,110.667  233.338,37.361  235,27.5  L  71.847,0  C  68.523,19.722  0,20  0,20  C  0,20  -68.523,19.722  -71.847,0  L  -235,27.5  C  -233.338,37.361  -225,110.667  -225,152.25  z " />
<path transform="translate( 0, 0 )" style="stroke: hsl(80.7, 55%, 50%);" id="620"  d=" M  225,152.25  C  225,110.667  233.338,37.361  235,27.5  L  71.847,0  C  68.523,19.722  0,20  0,20  C  0,20  -68.523,19.722  -71.847,0  L  -235,27.5  C  -233.338,37.361  -225,110.667  -225,152.25  z " />
<path transform="translate( 0, 0 )" style="stroke: hsl(107.6, 55%, 50%);" id="829"  d=" M  225,152.25  C  225,110.667  233.338,37.361  235,27.5  L  71.847,0  C  68.523,19.722  0,20  0,20  C  0,20  -68.523,19.722  -71.847,0  L  -235,27.5  C  -233.338,37.361  -225,110.667  -225,152.25  z " />
<path transform="translate( 0, 0 )" style="stroke: hsl(134.5, 55%, 50%);" id="1038"  d=" M  225,152.25  C  225,110.667  233.338,37.361  235,27.5  L  71.847,0  C  68.523,19.722  0,20  0,20  C  0,20  -68.523,19.722  -71.847,0  L  -235,27.5  C  -233.338,37.361  -225,110.667  -225,152.25  z " />
<path transform="translate( 0, 0 )" style="stroke: hsl(161.4, 55%, 50%);" id="1247"  d=" M  225,152.25  C  225,110.667  233.338,37.361  235,27.5  L  71.847,0  C  68.523,19.722  0,20  0,20  C  0,20  -68.523,19.722  -71.847,0  L  -235,27.5  C  -233.338,37.361  -225,110.667  -225,152.25  z " />
<path transform="translate( 0, 0 )" style="stroke: hsl(188.3, 55%, 50%);" id="1456"  d=" M  225,152.25  C  225,110.667  233.338,37.361  235,27.5  L  71.847,0  C  68.523,19.722  0,20  0,20  C  0,20  -68.523,19.722  -71.847,0  L  -235,27.5  C  -233.338,37.361  -225,110.667  -225,152.25  z " />
<path transform="translate( 0, 0 )" style="stroke: hsl(215.2, 55%, 50%);" id="1665"  d=" M  225,152.25  C  225,110.667  233.338,37.361  235,27.5  L  71.847,0  C  68.523,19.722  0,20  0,20  C  0,20  -68.523,19.722  -71.847,0  L  -235,27.5  C  -233.338,37.361  -225,110.667  -225,152.25  z " />
<path transform="translate( 0, 0 )" style="stroke: hsl(242.1, 55%, 50%);" id="1874"  d=" M  225,152.25  C  225,110.667  233.338,37.361  235,27.5  L  71.847,0  C  68.523,19.722  0,20  0,20  C  0,20  -68.523,19.722  -71.847,0  L  -235,27.5  C  -233.338,37.361  -225,110.667  -225,152.25  z " />
<path transform="translate( 0, 0 )" style="stroke: hsl(269, 55%, 50%);" id="2083"  d=" M  225,152.25  C  225,110.667  233.338,37.361  235,27.5  L  71.847,0  C  68.523,19.722  0,20  0,20  C  0,20  -68.523,19.722  -71.847,0  L  -235,27.5  C  -233.338,37.361  -225,110.667  -225,152.25  z " />
<path transform="translate( 0, 0 )" style="stroke: hsl(295.9, 55%, 50%);" id="2292"  d=" M  225,152.25  C  225,110.667  233.338,37.361  235,27.5  L  71.847,0  C  68.523,19.722  0,20  0,20  C  0,20  -68.523,19.722  -71.847,0  L  -235,27.5  C  -233.338,37.361  -225,110.667  -225,152.25  z " />
    </g>
    <!-- End of group #yoke -->
    
    <!-- Start of group #back -->
    <g id="back"  transform=" translate(5 -147.25)  translate(757.5 0) " >
        <path class="hidden" id="5"  d=" M  0,152.25  L  310,152.25  L  310,835  L  0,835  z " />
<path transform="translate( 0, 0 )" style="stroke: hsl(26.9, 55%, 50%);" id="203"  d=" M  0,152.25  L  112.5,152.25  C  168.75,152.25  225.036,157.25  225.036,157.25  C  223.351,193.794  232.578,240.334  250.872,258.628  C  269.166,276.922  288.75,284.5  310,284.5  C  310,335.6  280.75,412.25  280.75,540  C  280.75,612.5  277.94,666.875  277.5,685  C  276.99,705.994  280,734  280,755  L  280,835  L  0,835  L  0,152.25  z " />
<path transform="translate( 0, 0 )" style="stroke: hsl(53.8, 55%, 50%);" id="412"  d=" M  0,152.25  L  112.5,152.25  C  168.75,152.25  225.036,157.25  225.036,157.25  C  223.351,193.794  232.578,240.334  250.872,258.628  C  269.166,276.922  288.75,284.5  310,284.5  C  310,335.6  280.75,412.25  280.75,540  C  280.75,612.5  277.94,666.875  277.5,685  C  276.99,705.994  280,734  280,755  L  280,835  L  0,835  L  0,152.25  z " />
<path transform="translate( 0, 0 )" style="stroke: hsl(80.7, 55%, 50%);" id="621"  d=" M  0,152.25  L  112.5,152.25  C  168.75,152.25  225.036,157.25  225.036,157.25  C  223.351,193.794  232.578,240.334  250.872,258.628  C  269.166,276.922  288.75,284.5  310,284.5  C  310,335.6  280.75,412.25  280.75,540  C  280.75,612.5  277.94,666.875  277.5,685  C  276.99,705.994  280,734  280,755  L  280,835  L  0,835  L  0,152.25  z " />
<path transform="translate( 0, 0 )" style="stroke: hsl(107.6, 55%, 50%);" id="830"  d=" M  0,152.25  L  112.5,152.25  C  168.75,152.25  225.036,157.25  225.036,157.25  C  223.351,193.794  232.578,240.334  250.872,258.628  C  269.166,276.922  288.75,284.5  310,284.5  C  310,335.6  280.75,412.25  280.75,540  C  280.75,612.5  277.94,666.875  277.5,685  C  276.99,705.994  280,734  280,755  L  280,835  L  0,835  L  0,152.25  z " />
<path transform="translate( 0, 0 )" style="stroke: hsl(134.5, 55%, 50%);" id="1039"  d=" M  0,152.25  L  112.5,152.25  C  168.75,152.25  225.036,157.25  225.036,157.25  C  223.351,193.794  232.578,240.334  250.872,258.628  C  269.166,276.922  288.75,284.5  310,284.5  C  310,335.6  280.75,412.25  280.75,540  C  280.75,612.5  277.94,666.875  277.5,685  C  276.99,705.994  280,734  280,755  L  280,835  L  0,835  L  0,152.25  z " />
<path transform="translate( 0, 0 )" style="stroke: hsl(161.4, 55%, 50%);" id="1248"  d=" M  0,152.25  L  112.5,152.25  C  168.75,152.25  225.036,157.25  225.036,157.25  C  223.351,193.794  232.578,240.334  250.872,258.628  C  269.166,276.922  288.75,284.5  310,284.5  C  310,335.6  280.75,412.25  280.75,540  C  280.75,612.5  277.94,666.875  277.5,685  C  276.99,705.994  280,734  280,755  L  280,835  L  0,835  L  0,152.25  z " />
<path transform="translate( 0, 0 )" style="stroke: hsl(188.3, 55%, 50%);" id="1457"  d=" M  0,152.25  L  112.5,152.25  C  168.75,152.25  225.036,157.25  225.036,157.25  C  223.351,193.794  232.578,240.334  250.872,258.628  C  269.166,276.922  288.75,284.5  310,284.5  C  310,335.6  280.75,412.25  280.75,540  C  280.75,612.5  277.94,666.875  277.5,685  C  276.99,705.994  280,734  280,755  L  280,835  L  0,835  L  0,152.25  z " />
<path transform="translate( 0, 0 )" style="stroke: hsl(215.2, 55%, 50%);" id="1666"  d=" M  0,152.25  L  112.5,152.25  C  168.75,152.25  225.036,157.25  225.036,157.25  C  223.351,193.794  232.578,240.334  250.872,258.628  C  269.166,276.922  288.75,284.5  310,284.5  C  310,335.6  280.75,412.25  280.75,540  C  280.75,612.5  277.94,666.875  277.5,685  C  276.99,705.994  280,734  280,755  L  280,835  L  0,835  L  0,152.25  z " />
<path transform="translate( 0, 0 )" style="stroke: hsl(242.1, 55%, 50%);" id="1875"  d=" M  0,152.25  L  112.5,152.25  C  168.75,152.25  225.036,157.25  225.036,157.25  C  223.351,193.794  232.578,240.334  250.872,258.628  C  269.166,276.922  288.75,284.5  310,284.5  C  310,335.6  280.75,412.25  280.75,540  C  280.75,612.5  277.94,666.875  277.5,685  C  276.99,705.994  280,734  280,755  L  280,835  L  0,835  L  0,152.25  z " />
<path transform="translate( 0, 0 )" style="stroke: hsl(269, 55%, 50%);" id="2084"  d=" M  0,152.25  L  112.5,152.25  C  168.75,152.25  225.036,157.25  225.036,157.25  C  223.351,193.794  232.578,240.334  250.872,258.628  C  269.166,276.922  288.75,284.5  310,284.5  C  310,335.6  280.75,412.25  280.75,540  C  280.75,612.5  277.94,666.875  277.5,685  C  276.99,705.994  280,734  280,755  L  280,835  L  0,835  L  0,152.25  z " />
<path transform="translate( 0, 0 )" style="stroke: hsl(295.9, 55%, 50%);" id="2293"  d=" M  0,152.25  L  112.5,152.25  C  168.75,152.25  225.036,157.25  225.036,157.25  C  223.351,193.794  232.578,240.334  250.872,258.628  C  269.166,276.922  288.75,284.5  310,284.5  C  310,335.6  280.75,412.25  280.75,540  C  280.75,612.5  277.94,666.875  277.5,685  C  276.99,705.994  280,734  280,755  L  280,835  L  0,835  L  0,152.25  z " />
    </g>
    <!-- End of group #back -->
    
    <!-- Start of group #sleeve -->
    <g id="sleeve"  transform=" translate(210.431 5)  translate(1077.5 0) " >
        <path class="hidden" id="6"  d=" M  -205.431,0  L  205.431,0  L  205.431,678  L  -205.431,678  z " />
<path transform="translate( 0, 0 )" style="stroke: hsl(26.9, 55%, 50%);" id="204"  d=" M  -205.431,206.3  C  -205.431,206.3  -167.111,165.017  -150.122,143.097  C  -133.133,121.177  -102.716,73.767  -102.716,73.767  C  -102.716,73.767  -82.634,40.877  -60.108,24.7  C  -37.582,8.523  -27.733,-0  5,0  C  27.733,0  47.083,8.997  68.485,26.634  C  89.887,44.271  107.716,88.767  107.716,88.767  C  107.716,88.767  127.31,135.797  145.04,157.123  C  162.77,178.449  205.431,206.3  205.431,206.3  L  142.5,675  C  142.5,675  111.875,678  81.25,678  C  65.827,677.471  50.625,676.845  50.625,676.845  L  30.625,676.845  C  10.302,676.009  0,675  0,675  L  -20,675  C  -20,675  -50.625,672  -81.25,672  C  -111.875,672  -142.5,675  -142.5,675  z " />
<path transform="translate( 0, 0 )" style="stroke: hsl(53.8, 55%, 50%);" id="413"  d=" M  -203.762,206.97  C  -203.762,206.97  -165.581,165.357  -148.852,143.521  C  -132.123,121.685  -101.881,73.99  -101.881,73.99  C  -101.881,73.99  -82.012,41.022  -59.754,24.858  C  -37.496,8.694  -27.508,-0  5,0  C  27.508,0  47.017,9.219  68.157,26.82  C  89.297,44.421  106.881,88.99  106.881,88.99  C  106.881,88.99  126.272,136.24  143.729,157.499  C  161.186,178.758  203.762,206.97  203.762,206.97  L  142.5,675  C  142.5,675  111.875,678  81.25,678  C  65.827,677.471  50.625,676.845  50.625,676.845  L  30.625,676.845  C  10.302,676.009  0,675  0,675  L  -20,675  C  -20,675  -50.625,672  -81.25,672  C  -111.875,672  -142.5,675  -142.5,675  z " />
<path transform="translate( 0, 0 )" style="stroke: hsl(80.7, 55%, 50%);" id="622"  d=" M  -202.557,209.018  C  -202.557,209.018  -164.386,166.69  -147.925,144.855  C  -131.464,123.02  -101.279,74.673  -101.279,74.673  C  -101.279,74.673  -81.55,41.491  -59.541,25.263  C  -37.532,9.035  -27.345,-0  5,0  C  27.345,0  47.072,9.624  67.972,27.258  C  88.872,44.892  106.279,89.673  106.279,89.673  C  106.279,89.673  125.574,137.48  142.743,158.763  C  159.912,180.046  202.557,209.018  202.557,209.018  L  142.5,675  C  142.5,675  111.875,678  81.25,678  C  65.827,677.471  50.625,676.845  50.625,676.845  L  30.625,676.845  C  10.302,676.009  0,675  0,675  L  -20,675  C  -20,675  -50.625,672  -81.25,672  C  -111.875,672  -142.5,675  -142.5,675  z " />
<path transform="translate( 0, 0 )" style="stroke: hsl(107.6, 55%, 50%);" id="831"  d=" M  -201.062,209.629  C  -201.062,209.629  -163.019,166.998  -146.788,145.242  C  -130.557,123.486  -100.531,74.876  -100.531,74.876  C  -100.531,74.876  -80.994,41.621  -59.225,25.408  C  -37.456,9.195  -27.143,-0  5,0  C  27.143,0  47.014,9.829  67.678,27.428  C  88.342,45.027  105.531,89.876  105.531,89.876  C  105.531,89.876  124.644,137.888  141.571,159.107  C  158.498,180.326  201.062,209.629  201.062,209.629  L  142.5,675  C  142.5,675  111.875,678  81.25,678  C  65.827,677.471  50.625,676.845  50.625,676.845  L  30.625,676.845  C  10.302,676.009  0,675  0,675  L  -20,675  C  -20,675  -50.625,672  -81.25,672  C  -111.875,672  -142.5,675  -142.5,675  z " />
<path transform="translate( 0, 0 )" style="stroke: hsl(134.5, 55%, 50%);" id="1040"  d=" M  -199.951,211.451  C  -199.951,211.451  -161.927,168.178  -145.936,146.43  C  -129.945,124.682  -99.976,75.484  -99.976,75.484  C  -99.976,75.484  -80.569,42.037  -59.026,25.771  C  -37.483,9.505  -26.994,-0  5,0  C  26.994,0  47.057,10.197  67.504,27.821  C  87.951,45.445  104.976,90.484  104.976,90.484  C  104.976,90.484  123.995,138.998  140.665,160.23  C  157.335,181.462  199.951,211.451  199.951,211.451  L  142.5,675  C  142.5,675  111.875,678  81.25,678  C  65.827,677.471  50.625,676.845  50.625,676.845  L  30.625,676.845  C  10.302,676.009  0,675  0,675  L  -20,675  C  -20,675  -50.625,672  -81.25,672  C  -111.875,672  -142.5,675  -142.5,675  z " />
<path transform="translate( 0, 0 )" style="stroke: hsl(161.4, 55%, 50%);" id="1249"  d=" M  -198.492,211.543  C  -198.492,211.543  -160.624,168.122  -144.83,146.475  C  -129.036,124.828  -99.246,75.514  -99.246,75.514  C  -99.246,75.514  -80.031,42.046  -58.706,25.82  C  -37.381,9.594  -26.796,-0  5,0  C  26.796,0  46.969,10.322  67.202,27.89  C  87.435,45.458  104.246,90.514  104.246,90.514  C  104.246,90.514  123.071,139.103  139.534,160.245  C  155.997,181.387  198.492,211.543  198.492,211.543  L  142.5,675  C  142.5,675  111.875,678  81.25,678  C  65.827,677.471  50.625,676.845  50.625,676.845  L  30.625,676.845  C  10.302,676.009  0,675  0,675  L  -20,675  C  -20,675  -50.625,672  -81.25,672  C  -111.875,672  -142.5,675  -142.5,675  z " />
<path transform="translate( 0, 0 )" style="stroke: hsl(188.3, 55%, 50%);" id="1458"  d=" M  -197.5,213.3  C  -197.5,213.3  -159.643,169.261  -144.067,147.621  C  -128.492,125.981  -98.75,76.1  -98.75,76.1  C  -98.75,76.1  -79.65,42.444  -58.531,26.169  C  -37.412,9.894  -26.663,-0  5,0  C  26.663,0  47.016,10.674  67.051,28.267  C  87.086,45.859  103.75,91.1  103.75,91.1  C  103.75,91.1  122.494,140.175  138.724,161.33  C  154.953,182.484  197.5,213.3  197.5,213.3  L  142.5,675  C  142.5,675  111.875,678  81.25,678  C  65.827,677.471  50.625,676.845  50.625,676.845  L  30.625,676.845  C  10.302,676.009  0,675  0,675  L  -20,675  C  -20,675  -50.625,672  -81.25,672  C  -111.875,672  -142.5,675  -142.5,675  z " />
<path transform="translate( 0, 0 )" style="stroke: hsl(215.2, 55%, 50%);" id="1667"  d=" M  -196.459,214.605  C  -196.459,214.605  -158.646,170.08  -143.271,148.469  C  -127.896,126.858  -98.23,76.535  -98.23,76.535  C  -98.23,76.535  -79.255,42.737  -58.334,26.436  C  -37.413,10.135  -26.522,-0  5,0  C  26.522,0  47.03,10.963  66.874,28.559  C  86.718,46.155  103.23,91.535  103.23,91.535  C  103.23,91.535  121.873,140.987  137.888,162.128  C  153.903,183.269  196.459,214.605  196.459,214.605  L  142.5,675  C  142.5,675  111.875,678  81.25,678  C  65.827,677.471  50.625,676.845  50.625,676.845  L  30.625,676.845  C  10.302,676.009  0,675  0,675  L  -20,675  C  -20,675  -50.625,672  -81.25,672  C  -111.875,672  -142.5,675  -142.5,675  z " />
<path transform="translate( 0, 0 )" style="stroke: hsl(242.1, 55%, 50%);" id="1876"  d=" M  -195.393,215.544  C  -195.393,215.544  -157.647,170.64  -142.457,149.075  C  -127.267,127.51  -97.697,76.848  -97.697,76.848  C  -97.697,76.848  -78.855,42.942  -58.122,26.634  C  -37.389,10.326  -26.378,-0  5,0  C  26.378,0  47.02,11.195  66.682,28.78  C  86.344,46.365  102.697,91.848  102.697,91.848  C  102.697,91.848  121.223,141.582  137.041,162.691  C  152.859,183.8  195.393,215.544  195.393,215.544  L  142.5,675  C  142.5,675  111.875,678  81.25,678  C  65.827,677.471  50.625,676.845  50.625,676.845  L  30.625,676.845  C  10.302,676.009  0,675  0,675  L  -20,675  C  -20,675  -50.625,672  -81.25,672  C  -111.875,672  -142.5,675  -142.5,675  z " />
<path transform="translate( 0, 0 )" style="stroke: hsl(269, 55%, 50%);" id="2085"  d=" M  -194.146,215.377  C  -194.146,215.377  -156.552,170.421  -141.515,148.954  C  -126.478,127.487  -97.073,76.792  -97.073,76.792  C  -97.073,76.792  -78.399,42.893  -57.843,26.632  C  -37.287,10.371  -26.21,-0  5,0  C  26.21,0  46.927,11.268  66.416,28.794  C  85.905,46.32  102.073,91.792  102.073,91.792  C  102.073,91.792  120.421,141.528  136.08,162.546  C  151.739,183.564  194.146,215.377  194.146,215.377  L  142.5,675  C  142.5,675  111.875,678  81.25,678  C  65.827,677.471  50.625,676.845  50.625,676.845  L  30.625,676.845  C  10.302,676.009  0,675  0,675  L  -20,675  C  -20,675  -50.625,672  -81.25,672  C  -111.875,672  -142.5,675  -142.5,675  z " />
<path transform="translate( 0, 0 )" style="stroke: hsl(295.9, 55%, 50%);" id="2294"  d=" M  -193.23,216.504  C  -193.23,216.504  -155.677,171.122  -140.813,149.685  C  -125.949,128.248  -96.615,77.168  -96.615,77.168  C  -96.615,77.168  -78.051,43.144  -57.669,26.864  C  -37.287,10.584  -26.086,-0  5,0  C  26.086,0  46.937,11.522  66.259,29.048  C  85.581,46.574  101.615,92.168  101.615,92.168  C  101.615,92.168  119.873,142.233  135.347,163.234  C  150.821,184.235  193.23,216.504  193.23,216.504  L  142.5,675  C  142.5,675  111.875,678  81.25,678  C  65.827,677.471  50.625,676.845  50.625,676.845  L  30.625,676.845  C  10.302,676.009  0,675  0,675  L  -20,675  C  -20,675  -50.625,672  -81.25,672  C  -111.875,672  -142.5,675  -142.5,675  z " />
    </g>
    <!-- End of group #sleeve -->
    
    <!-- Start of group #collarStand -->
    <g id="collarStand"  transform=" translate(232.46 10)  translate(480 845) " >
        <path class="hidden" id="7"  d=" M  -227.46,-5  L  234.932,-5  L  234.932,35  L  -227.46,35  z " />
<path transform="translate( 0, 0 )" style="stroke: hsl(26.9, 55%, 50%);" id="205"  d=" M  0,30  C  86.389,30  129.584,35  161.98,35  C  205.174,35  207.536,33.305  217.498,32.433  L  234.932,30.908  C  233.406,13.474  231.881,-3.959  214.448,-2.433  C  204.486,-1.561  205.174,0  161.98,0  C  129.584,0  86.389,-5  0,-5  C  -86.389,-5  -129.584,0  -161.98,0  C  -205.174,0  -204.486,-1.561  -214.448,-2.433  C  -224.41,-3.305  -225.935,14.128  -227.46,31.562  L  -217.498,32.433  C  -207.536,33.305  -205.174,35  -161.98,35  C  -129.584,35  -86.389,30  0,30  z " />
<path transform="translate( 0, 0 )" style="stroke: hsl(53.8, 55%, 50%);" id="414"  d=" M  0,30  C  86.389,30  129.584,35  161.98,35  C  205.174,35  207.536,33.305  217.498,32.433  L  234.932,30.908  C  233.406,13.474  231.881,-3.959  214.448,-2.433  C  204.486,-1.561  205.174,0  161.98,0  C  129.584,0  86.389,-5  0,-5  C  -86.389,-5  -129.584,0  -161.98,0  C  -205.174,0  -204.486,-1.561  -214.448,-2.433  C  -224.41,-3.305  -225.935,14.128  -227.46,31.562  L  -217.498,32.433  C  -207.536,33.305  -205.174,35  -161.98,35  C  -129.584,35  -86.389,30  0,30  z " />
<path transform="translate( 0, 0 )" style="stroke: hsl(80.7, 55%, 50%);" id="623"  d=" M  0,30  C  86.389,30  129.584,35  161.98,35  C  205.174,35  207.536,33.305  217.498,32.433  L  234.932,30.908  C  233.406,13.474  231.881,-3.959  214.448,-2.433  C  204.486,-1.561  205.174,0  161.98,0  C  129.584,0  86.389,-5  0,-5  C  -86.389,-5  -129.584,0  -161.98,0  C  -205.174,0  -204.486,-1.561  -214.448,-2.433  C  -224.41,-3.305  -225.935,14.128  -227.46,31.562  L  -217.498,32.433  C  -207.536,33.305  -205.174,35  -161.98,35  C  -129.584,35  -86.389,30  0,30  z " />
<path transform="translate( 0, 0 )" style="stroke: hsl(107.6, 55%, 50%);" id="832"  d=" M  0,30  C  86.389,30  129.584,35  161.98,35  C  205.174,35  207.536,33.305  217.498,32.433  L  234.932,30.908  C  233.406,13.474  231.881,-3.959  214.448,-2.433  C  204.486,-1.561  205.174,0  161.98,0  C  129.584,0  86.389,-5  0,-5  C  -86.389,-5  -129.584,0  -161.98,0  C  -205.174,0  -204.486,-1.561  -214.448,-2.433  C  -224.41,-3.305  -225.935,14.128  -227.46,31.562  L  -217.498,32.433  C  -207.536,33.305  -205.174,35  -161.98,35  C  -129.584,35  -86.389,30  0,30  z " />
<path transform="translate( 0, 0 )" style="stroke: hsl(134.5, 55%, 50%);" id="1041"  d=" M  0,30  C  86.389,30  129.584,35  161.98,35  C  205.174,35  207.536,33.305  217.498,32.433  L  234.932,30.908  C  233.406,13.474  231.881,-3.959  214.448,-2.433  C  204.486,-1.561  205.174,0  161.98,0  C  129.584,0  86.389,-5  0,-5  C  -86.389,-5  -129.584,0  -161.98,0  C  -205.174,0  -204.486,-1.561  -214.448,-2.433  C  -224.41,-3.305  -225.935,14.128  -227.46,31.562  L  -217.498,32.433  C  -207.536,33.305  -205.174,35  -161.98,35  C  -129.584,35  -86.389,30  0,30  z " />
<path transform="translate( 0, 0 )" style="stroke: hsl(161.4, 55%, 50%);" id="1250"  d=" M  0,30  C  86.389,30  129.584,35  161.98,35  C  205.174,35  207.536,33.305  217.498,32.433  L  234.932,30.908  C  233.406,13.474  231.881,-3.959  214.448,-2.433  C  204.486,-1.561  205.174,0  161.98,0  C  129.584,0  86.389,-5  0,-5  C  -86.389,-5  -129.584,0  -161.98,0  C  -205.174,0  -204.486,-1.561  -214.448,-2.433  C  -224.41,-3.305  -225.935,14.128  -227.46,31.562  L  -217.498,32.433  C  -207.536,33.305  -205.174,35  -161.98,35  C  -129.584,35  -86.389,30  0,30  z " />
<path transform="translate( 0, 0 )" style="stroke: hsl(188.3, 55%, 50%);" id="1459"  d=" M  0,30  C  86.389,30  129.584,35  161.98,35  C  205.174,35  207.536,33.305  217.498,32.433  L  234.932,30.908  C  233.406,13.474  231.881,-3.959  214.448,-2.433  C  204.486,-1.561  205.174,0  161.98,0  C  129.584,0  86.389,-5  0,-5  C  -86.389,-5  -129.584,0  -161.98,0  C  -205.174,0  -204.486,-1.561  -214.448,-2.433  C  -224.41,-3.305  -225.935,14.128  -227.46,31.562  L  -217.498,32.433  C  -207.536,33.305  -205.174,35  -161.98,35  C  -129.584,35  -86.389,30  0,30  z " />
<path transform="translate( 0, 0 )" style="stroke: hsl(215.2, 55%, 50%);" id="1668"  d=" M  0,30  C  86.389,30  129.584,35  161.98,35  C  205.174,35  207.536,33.305  217.498,32.433  L  234.932,30.908  C  233.406,13.474  231.881,-3.959  214.448,-2.433  C  204.486,-1.561  205.174,0  161.98,0  C  129.584,0  86.389,-5  0,-5  C  -86.389,-5  -129.584,0  -161.98,0  C  -205.174,0  -204.486,-1.561  -214.448,-2.433  C  -224.41,-3.305  -225.935,14.128  -227.46,31.562  L  -217.498,32.433  C  -207.536,33.305  -205.174,35  -161.98,35  C  -129.584,35  -86.389,30  0,30  z " />
<path transform="translate( 0, 0 )" style="stroke: hsl(242.1, 55%, 50%);" id="1877"  d=" M  0,30  C  86.389,30  129.584,35  161.98,35  C  205.174,35  207.536,33.305  217.498,32.433  L  234.932,30.908  C  233.406,13.474  231.881,-3.959  214.448,-2.433  C  204.486,-1.561  205.174,0  161.98,0  C  129.584,0  86.389,-5  0,-5  C  -86.389,-5  -129.584,0  -161.98,0  C  -205.174,0  -204.486,-1.561  -214.448,-2.433  C  -224.41,-3.305  -225.935,14.128  -227.46,31.562  L  -217.498,32.433  C  -207.536,33.305  -205.174,35  -161.98,35  C  -129.584,35  -86.389,30  0,30  z " />
<path transform="translate( 0, 0 )" style="stroke: hsl(269, 55%, 50%);" id="2086"  d=" M  0,30  C  86.389,30  129.584,35  161.98,35  C  205.174,35  207.536,33.305  217.498,32.433  L  234.932,30.908  C  233.406,13.474  231.881,-3.959  214.448,-2.433  C  204.486,-1.561  205.174,0  161.98,0  C  129.584,0  86.389,-5  0,-5  C  -86.389,-5  -129.584,0  -161.98,0  C  -205.174,0  -204.486,-1.561  -214.448,-2.433  C  -224.41,-3.305  -225.935,14.128  -227.46,31.562  L  -217.498,32.433  C  -207.536,33.305  -205.174,35  -161.98,35  C  -129.584,35  -86.389,30  0,30  z " />
<path transform="translate( 0, 0 )" style="stroke: hsl(295.9, 55%, 50%);" id="2295"  d=" M  0,30  C  86.389,30  129.584,35  161.98,35  C  205.174,35  207.536,33.305  217.498,32.433  L  234.932,30.908  C  233.406,13.474  231.881,-3.959  214.448,-2.433  C  204.486,-1.561  205.174,0  161.98,0  C  129.584,0  86.389,-5  0,-5  C  -86.389,-5  -129.584,0  -161.98,0  C  -205.174,0  -204.486,-1.561  -214.448,-2.433  C  -224.41,-3.305  -225.935,14.128  -227.46,31.562  L  -217.498,32.433  C  -207.536,33.305  -205.174,35  -161.98,35  C  -129.584,35  -86.389,30  0,30  z " />
    </g>
    <!-- End of group #collarStand -->
    
    <!-- Start of group #collar -->
    <g id="collar"  transform=" translate(214.741 72)  translate(480 895) " >
        <path class="hidden" id="8"  d=" M  -209.741,-67  L  209.741,-67  L  209.741,0  L  -209.741,0  z " />
<path transform="translate( 0, 0 )" style="stroke: hsl(26.9, 55%, 50%);" id="206"  d=" M  0,-15  C  173.104,-15  203.88,0  203.88,0  L  209.741,-67  C  209.741,-67  151.466,-57  104.871,-57  L  -104.871,-57  C  -151.466,-57  -209.741,-67  -209.741,-67  L  -203.88,0  C  -203.88,0  -173.104,-15  0,-15  z " />
<path transform="translate( 0, 0 )" style="stroke: hsl(53.8, 55%, 50%);" id="415"  d=" M  0,-15  C  173.104,-15  203.88,0  203.88,0  L  209.741,-67  C  209.741,-67  151.466,-57  104.871,-57  L  -104.871,-57  C  -151.466,-57  -209.741,-67  -209.741,-67  L  -203.88,0  C  -203.88,0  -173.104,-15  0,-15  z " />
<path transform="translate( 0, 0 )" style="stroke: hsl(80.7, 55%, 50%);" id="624"  d=" M  0,-15  C  173.104,-15  203.88,0  203.88,0  L  209.741,-67  C  209.741,-67  151.466,-57  104.871,-57  L  -104.871,-57  C  -151.466,-57  -209.741,-67  -209.741,-67  L  -203.88,0  C  -203.88,0  -173.104,-15  0,-15  z " />
<path transform="translate( 0, 0 )" style="stroke: hsl(107.6, 55%, 50%);" id="833"  d=" M  0,-15  C  173.104,-15  203.88,0  203.88,0  L  209.741,-67  C  209.741,-67  151.466,-57  104.871,-57  L  -104.871,-57  C  -151.466,-57  -209.741,-67  -209.741,-67  L  -203.88,0  C  -203.88,0  -173.104,-15  0,-15  z " />
<path transform="translate( 0, 0 )" style="stroke: hsl(134.5, 55%, 50%);" id="1042"  d=" M  0,-15  C  173.104,-15  203.88,0  203.88,0  L  209.741,-67  C  209.741,-67  151.466,-57  104.871,-57  L  -104.871,-57  C  -151.466,-57  -209.741,-67  -209.741,-67  L  -203.88,0  C  -203.88,0  -173.104,-15  0,-15  z " />
<path transform="translate( 0, 0 )" style="stroke: hsl(161.4, 55%, 50%);" id="1251"  d=" M  0,-15  C  173.104,-15  203.88,0  203.88,0  L  209.741,-67  C  209.741,-67  151.466,-57  104.871,-57  L  -104.871,-57  C  -151.466,-57  -209.741,-67  -209.741,-67  L  -203.88,0  C  -203.88,0  -173.104,-15  0,-15  z " />
<path transform="translate( 0, 0 )" style="stroke: hsl(188.3, 55%, 50%);" id="1460"  d=" M  0,-15  C  173.104,-15  203.88,0  203.88,0  L  209.741,-67  C  209.741,-67  151.466,-57  104.871,-57  L  -104.871,-57  C  -151.466,-57  -209.741,-67  -209.741,-67  L  -203.88,0  C  -203.88,0  -173.104,-15  0,-15  z " />
<path transform="translate( 0, 0 )" style="stroke: hsl(215.2, 55%, 50%);" id="1669"  d=" M  0,-15  C  173.104,-15  203.88,0  203.88,0  L  209.741,-67  C  209.741,-67  151.466,-57  104.871,-57  L  -104.871,-57  C  -151.466,-57  -209.741,-67  -209.741,-67  L  -203.88,0  C  -203.88,0  -173.104,-15  0,-15  z " />
<path transform="translate( 0, 0 )" style="stroke: hsl(242.1, 55%, 50%);" id="1878"  d=" M  0,-15  C  173.104,-15  203.88,0  203.88,0  L  209.741,-67  C  209.741,-67  151.466,-57  104.871,-57  L  -104.871,-57  C  -151.466,-57  -209.741,-67  -209.741,-67  L  -203.88,0  C  -203.88,0  -173.104,-15  0,-15  z " />
<path transform="translate( 0, 0 )" style="stroke: hsl(269, 55%, 50%);" id="2087"  d=" M  0,-15  C  173.104,-15  203.88,0  203.88,0  L  209.741,-67  C  209.741,-67  151.466,-57  104.871,-57  L  -104.871,-57  C  -151.466,-57  -209.741,-67  -209.741,-67  L  -203.88,0  C  -203.88,0  -173.104,-15  0,-15  z " />
<path transform="translate( 0, 0 )" style="stroke: hsl(295.9, 55%, 50%);" id="2296"  d=" M  0,-15  C  173.104,-15  203.88,0  203.88,0  L  209.741,-67  C  209.741,-67  151.466,-57  104.871,-57  L  -104.871,-57  C  -151.466,-57  -209.741,-67  -209.741,-67  L  -203.88,0  C  -203.88,0  -173.104,-15  0,-15  z " />
    </g>
    <!-- End of group #collar -->
    
    <!-- Start of group #undercollar -->
    <g id="undercollar"  transform=" translate(214.741 72)  translate(909.482 895) " >
        <path class="hidden" id="9"  d=" M  -209.741,-67  L  209.741,-67  L  209.741,0  L  -209.741,0  z " />
<path transform="translate( 0, 0 )" style="stroke: hsl(26.9, 55%, 50%);" id="207"  d=" M  203.88,0  L  209.741,-67  C  209.741,-67  151.466,-57  104.871,-57  L  -104.871,-57  C  -151.466,-57  -209.741,-67  -209.741,-67  L  -203.88,0  C  -203.88,0  -173.104,-17  0,-18  C  173.104,-17  203.88,0  203.88,0  z " />
<path transform="translate( 0, 0 )" style="stroke: hsl(53.8, 55%, 50%);" id="416"  d=" M  203.88,0  L  209.741,-67  C  209.741,-67  151.466,-57  104.871,-57  L  -104.871,-57  C  -151.466,-57  -209.741,-67  -209.741,-67  L  -203.88,0  C  -203.88,0  -173.104,-17  0,-18  C  173.104,-17  203.88,0  203.88,0  z " />
<path transform="translate( 0, 0 )" style="stroke: hsl(80.7, 55%, 50%);" id="625"  d=" M  203.88,0  L  209.741,-67  C  209.741,-67  151.466,-57  104.871,-57  L  -104.871,-57  C  -151.466,-57  -209.741,-67  -209.741,-67  L  -203.88,0  C  -203.88,0  -173.104,-17  0,-18  C  173.104,-17  203.88,0  203.88,0  z " />
<path transform="translate( 0, 0 )" style="stroke: hsl(107.6, 55%, 50%);" id="834"  d=" M  203.88,0  L  209.741,-67  C  209.741,-67  151.466,-57  104.871,-57  L  -104.871,-57  C  -151.466,-57  -209.741,-67  -209.741,-67  L  -203.88,0  C  -203.88,0  -173.104,-17  0,-18  C  173.104,-17  203.88,0  203.88,0  z " />
<path transform="translate( 0, 0 )" style="stroke: hsl(134.5, 55%, 50%);" id="1043"  d=" M  203.88,0  L  209.741,-67  C  209.741,-67  151.466,-57  104.871,-57  L  -104.871,-57  C  -151.466,-57  -209.741,-67  -209.741,-67  L  -203.88,0  C  -203.88,0  -173.104,-17  0,-18  C  173.104,-17  203.88,0  203.88,0  z " />
<path transform="translate( 0, 0 )" style="stroke: hsl(161.4, 55%, 50%);" id="1252"  d=" M  203.88,0  L  209.741,-67  C  209.741,-67  151.466,-57  104.871,-57  L  -104.871,-57  C  -151.466,-57  -209.741,-67  -209.741,-67  L  -203.88,0  C  -203.88,0  -173.104,-17  0,-18  C  173.104,-17  203.88,0  203.88,0  z " />
<path transform="translate( 0, 0 )" style="stroke: hsl(188.3, 55%, 50%);" id="1461"  d=" M  203.88,0  L  209.741,-67  C  209.741,-67  151.466,-57  104.871,-57  L  -104.871,-57  C  -151.466,-57  -209.741,-67  -209.741,-67  L  -203.88,0  C  -203.88,0  -173.104,-17  0,-18  C  173.104,-17  203.88,0  203.88,0  z " />
<path transform="translate( 0, 0 )" style="stroke: hsl(215.2, 55%, 50%);" id="1670"  d=" M  203.88,0  L  209.741,-67  C  209.741,-67  151.466,-57  104.871,-57  L  -104.871,-57  C  -151.466,-57  -209.741,-67  -209.741,-67  L  -203.88,0  C  -203.88,0  -173.104,-17  0,-18  C  173.104,-17  203.88,0  203.88,0  z " />
<path transform="translate( 0, 0 )" style="stroke: hsl(242.1, 55%, 50%);" id="1879"  d=" M  203.88,0  L  209.741,-67  C  209.741,-67  151.466,-57  104.871,-57  L  -104.871,-57  C  -151.466,-57  -209.741,-67  -209.741,-67  L  -203.88,0  C  -203.88,0  -173.104,-17  0,-18  C  173.104,-17  203.88,0  203.88,0  z " />
<path transform="translate( 0, 0 )" style="stroke: hsl(269, 55%, 50%);" id="2088"  d=" M  203.88,0  L  209.741,-67  C  209.741,-67  151.466,-57  104.871,-57  L  -104.871,-57  C  -151.466,-57  -209.741,-67  -209.741,-67  L  -203.88,0  C  -203.88,0  -173.104,-17  0,-18  C  173.104,-17  203.88,0  203.88,0  z " />
<path transform="translate( 0, 0 )" style="stroke: hsl(295.9, 55%, 50%);" id="2297"  d=" M  203.88,0  L  209.741,-67  C  209.741,-67  151.466,-57  104.871,-57  L  -104.871,-57  C  -151.466,-57  -209.741,-67  -209.741,-67  L  -203.88,0  C  -203.88,0  -173.104,-17  0,-18  C  173.104,-17  203.88,0  203.88,0  z " />
    </g>
    <!-- End of group #undercollar -->
    
    <!-- Start of group #sleevePlacketUnderlap -->
    <g id="sleevePlacketUnderlap"  transform=" translate(5 5)  translate(757.5 692.75) " >
        <path class="hidden" id="10"  d=" M  0,0  L  188.75,0  L  188.75,36  L  0,36  z " />
<path transform="translate( 0, 0 )" style="stroke: hsl(26.9, 55%, 50%);" id="208"  d=" M  0,0  L  188.75,0  L  188.75,36  L  0,36  z " />
<path transform="translate( 0, 0 )" style="stroke: hsl(53.8, 55%, 50%);" id="417"  d=" M  0,0  L  188.75,0  L  188.75,36  L  0,36  z " />
<path transform="translate( 0, 0 )" style="stroke: hsl(80.7, 55%, 50%);" id="626"  d=" M  0,0  L  188.75,0  L  188.75,36  L  0,36  z " />
<path transform="translate( 0, 0 )" style="stroke: hsl(107.6, 55%, 50%);" id="835"  d=" M  0,0  L  188.75,0  L  188.75,36  L  0,36  z " />
<path transform="translate( 0, 0 )" style="stroke: hsl(134.5, 55%, 50%);" id="1044"  d=" M  0,0  L  188.75,0  L  188.75,36  L  0,36  z " />
<path transform="translate( 0, 0 )" style="stroke: hsl(161.4, 55%, 50%);" id="1253"  d=" M  0,0  L  188.75,0  L  188.75,36  L  0,36  z " />
<path transform="translate( 0, 0 )" style="stroke: hsl(188.3, 55%, 50%);" id="1462"  d=" M  0,0  L  188.75,0  L  188.75,36  L  0,36  z " />
<path transform="translate( 0, 0 )" style="stroke: hsl(215.2, 55%, 50%);" id="1671"  d=" M  0,0  L  188.75,0  L  188.75,36  L  0,36  z " />
<path transform="translate( 0, 0 )" style="stroke: hsl(242.1, 55%, 50%);" id="1880"  d=" M  0,0  L  188.75,0  L  188.75,36  L  0,36  z " />
<path transform="translate( 0, 0 )" style="stroke: hsl(269, 55%, 50%);" id="2089"  d=" M  0,0  L  188.75,0  L  188.75,36  L  0,36  z " />
<path transform="translate( 0, 0 )" style="stroke: hsl(295.9, 55%, 50%);" id="2298"  d=" M  0,0  L  188.75,0  L  188.75,36  L  0,36  z " />
    </g>
    <!-- End of group #sleevePlacketUnderlap -->
    
    <!-- Start of group #sleevePlacketOverlap -->
    <g id="sleevePlacketOverlap"  transform=" translate(5 5)  translate(1077.5 763) " >
        <path class="hidden" id="11"  d=" M  0,0  L  235,0  L  235,68  L  0,68  z " />
<path transform="translate( 0, 0 )" style="stroke: hsl(26.9, 55%, 50%);" id="209"  d=" M  0,0  L  235,0  L  235,41.333  L  216.25,41.333  L  211.25,49.667  L  198.75,49.667  L  198.75,68  L  0,68  z " />
<path transform="translate( 0, 0 )" style="stroke: hsl(53.8, 55%, 50%);" id="418"  d=" M  0,0  L  235,0  L  235,41.333  L  216.25,41.333  L  211.25,49.667  L  198.75,49.667  L  198.75,68  L  0,68  z " />
<path transform="translate( 0, 0 )" style="stroke: hsl(80.7, 55%, 50%);" id="627"  d=" M  0,0  L  235,0  L  235,41.333  L  216.25,41.333  L  211.25,49.667  L  198.75,49.667  L  198.75,68  L  0,68  z " />
<path transform="translate( 0, 0 )" style="stroke: hsl(107.6, 55%, 50%);" id="836"  d=" M  0,0  L  235,0  L  235,41.333  L  216.25,41.333  L  211.25,49.667  L  198.75,49.667  L  198.75,68  L  0,68  z " />
<path transform="translate( 0, 0 )" style="stroke: hsl(134.5, 55%, 50%);" id="1045"  d=" M  0,0  L  235,0  L  235,41.333  L  216.25,41.333  L  211.25,49.667  L  198.75,49.667  L  198.75,68  L  0,68  z " />
<path transform="translate( 0, 0 )" style="stroke: hsl(161.4, 55%, 50%);" id="1254"  d=" M  0,0  L  235,0  L  235,41.333  L  216.25,41.333  L  211.25,49.667  L  198.75,49.667  L  198.75,68  L  0,68  z " />
<path transform="translate( 0, 0 )" style="stroke: hsl(188.3, 55%, 50%);" id="1463"  d=" M  0,0  L  235,0  L  235,41.333  L  216.25,41.333  L  211.25,49.667  L  198.75,49.667  L  198.75,68  L  0,68  z " />
<path transform="translate( 0, 0 )" style="stroke: hsl(215.2, 55%, 50%);" id="1672"  d=" M  0,0  L  235,0  L  235,41.333  L  216.25,41.333  L  211.25,49.667  L  198.75,49.667  L  198.75,68  L  0,68  z " />
<path transform="translate( 0, 0 )" style="stroke: hsl(242.1, 55%, 50%);" id="1881"  d=" M  0,0  L  235,0  L  235,41.333  L  216.25,41.333  L  211.25,49.667  L  198.75,49.667  L  198.75,68  L  0,68  z " />
<path transform="translate( 0, 0 )" style="stroke: hsl(269, 55%, 50%);" id="2090"  d=" M  0,0  L  235,0  L  235,41.333  L  216.25,41.333  L  211.25,49.667  L  198.75,49.667  L  198.75,68  L  0,68  z " />
<path transform="translate( 0, 0 )" style="stroke: hsl(295.9, 55%, 50%);" id="2299"  d=" M  0,0  L  235,0  L  235,41.333  L  216.25,41.333  L  211.25,49.667  L  198.75,49.667  L  198.75,68  L  0,68  z " />
    </g>
    <!-- End of group #sleevePlacketOverlap -->
    
    <!-- Start of group #barrelCuff -->
    <g id="barrelCuff"  transform=" translate(127.5 5)  translate(1077.5 688) " >
        <path class="hidden" id="12"  d=" M  -122.5,0  L  122.5,0  L  122.5,65  L  -122.5,65  z " />
<path transform="translate( 0, 0 )" style="stroke: hsl(26.9, 55%, 50%);" id="210"  d=" M  0,0  L  106.25,-0  L  122.5,16.25  L  122.5,65  L  -122.5,65  L  -122.5,16.25  L  -106.25,0  z " />
<path transform="translate( 0, 0 )" style="stroke: hsl(53.8, 55%, 50%);" id="419"  d=" M  0,0  L  106.25,-0  L  122.5,16.25  L  122.5,65  L  -122.5,65  L  -122.5,16.25  L  -106.25,0  z " />
<path transform="translate( 0, 0 )" style="stroke: hsl(80.7, 55%, 50%);" id="628"  d=" M  0,0  L  106.25,-0  L  122.5,16.25  L  122.5,65  L  -122.5,65  L  -122.5,16.25  L  -106.25,0  z " />
<path transform="translate( 0, 0 )" style="stroke: hsl(107.6, 55%, 50%);" id="837"  d=" M  0,0  L  106.25,-0  L  122.5,16.25  L  122.5,65  L  -122.5,65  L  -122.5,16.25  L  -106.25,0  z " />
<path transform="translate( 0, 0 )" style="stroke: hsl(134.5, 55%, 50%);" id="1046"  d=" M  0,0  L  106.25,-0  L  122.5,16.25  L  122.5,65  L  -122.5,65  L  -122.5,16.25  L  -106.25,0  z " />
<path transform="translate( 0, 0 )" style="stroke: hsl(161.4, 55%, 50%);" id="1255"  d=" M  0,0  L  106.25,-0  L  122.5,16.25  L  122.5,65  L  -122.5,65  L  -122.5,16.25  L  -106.25,0  z " />
<path transform="translate( 0, 0 )" style="stroke: hsl(188.3, 55%, 50%);" id="1464"  d=" M  0,0  L  106.25,-0  L  122.5,16.25  L  122.5,65  L  -122.5,65  L  -122.5,16.25  L  -106.25,0  z " />
<path transform="translate( 0, 0 )" style="stroke: hsl(215.2, 55%, 50%);" id="1673"  d=" M  0,0  L  106.25,-0  L  122.5,16.25  L  122.5,65  L  -122.5,65  L  -122.5,16.25  L  -106.25,0  z " />
<path transform="translate( 0, 0 )" style="stroke: hsl(242.1, 55%, 50%);" id="1882"  d=" M  0,0  L  106.25,-0  L  122.5,16.25  L  122.5,65  L  -122.5,65  L  -122.5,16.25  L  -106.25,0  z " />
<path transform="translate( 0, 0 )" style="stroke: hsl(269, 55%, 50%);" id="2091"  d=" M  0,0  L  106.25,-0  L  122.5,16.25  L  122.5,65  L  -122.5,65  L  -122.5,16.25  L  -106.25,0  z " />
<path transform="translate( 0, 0 )" style="stroke: hsl(295.9, 55%, 50%);" id="2300"  d=" M  0,0  L  106.25,-0  L  122.5,16.25  L  122.5,65  L  -122.5,65  L  -122.5,16.25  L  -106.25,0  z " />
    </g>
    <!-- End of group #barrelCuff -->
    
    <!-- Start of group #frenchCuff -->
    <g id="frenchCuff" >
    </g>
    <!-- End of group #frenchCuff -->
    
    <!-- Start of group #sampler-frontRight -->
    <g id="sampler-frontRight" >
    </g>
    <!-- End of group #sampler-frontRight -->
    
    <!-- Start of group #sampler-frontLeft -->
    <g id="sampler-frontLeft" >
    </g>
    <!-- End of group #sampler-frontLeft -->
    
    <!-- Start of group #sampler-yoke -->
    <g id="sampler-yoke" >
    </g>
    <!-- End of group #sampler-yoke -->
    
    <!-- Start of group #sampler-back -->
    <g id="sampler-back" >
    </g>
    <!-- End of group #sampler-back -->
    
    <!-- Start of group #sampler-sleeve -->
    <g id="sampler-sleeve" >
    </g>
    <!-- End of group #sampler-sleeve -->
    
    <!-- Start of group #sampler-collarStand -->
    <g id="sampler-collarStand" >
    </g>
    <!-- End of group #sampler-collarStand -->
    
    <!-- Start of group #sampler-collar -->
    <g id="sampler-collar" >
    </g>
    <!-- End of group #sampler-collar -->
    
    <!-- Start of group #sampler-undercollar -->
    <g id="sampler-undercollar" >
    </g>
    <!-- End of group #sampler-undercollar -->
    
    <!-- Start of group #sampler-sleevePlacketUnderlap -->
    <g id="sampler-sleevePlacketUnderlap" >
    </g>
    <!-- End of group #sampler-sleevePlacketUnderlap -->
    
    <!-- Start of group #sampler-sleevePlacketOverlap -->
    <g id="sampler-sleevePlacketOverlap" >
    </g>
    <!-- End of group #sampler-sleevePlacketOverlap -->
    
    <!-- Start of group #sampler-barrelCuff -->
    <g id="sampler-barrelCuff" >
    </g>
    <!-- End of group #sampler-barrelCuff -->
</g>
<!-- End of group #patternContainer -->

</svg>

