<?xml version="1.0" encoding="UTF-8" standalone="no"?>
<svg
    width ="1045.27559155"
    height ="439.37007916"
    viewbox ="0 0 1045.27559155 439.37007916" xmlns:dc="http://purl.org/dc/elements/1.1/"
    xmlns:cc="http://creativecommons.org/ns#"
    xmlns:rdf="http://www.w3.org/1999/02/22-rdf-syntax-ns#"
    xmlns:svg="http://www.w3.org/2000/svg"
    xmlns="http://www.w3.org/2000/svg"
    xmlns:xlink="http://www.w3.org/1999/xlink"
    xmlns:sodipodi="http://sodipodi.sourceforge.net/DTD/sodipodi-0.dtd"
    xmlns:inkscape="http://www.inkscape.org/namespaces/inkscape" 
>

<style type="text/css">
    <![CDATA[
    path { fill: none; stroke: #000000; stroke-opacity:1; stroke-width: 0.5; stroke-miterlimit:4; stroke-dashoffset:0; stroke-linecap:round; stroke-linejoin:round; }
    path.hidden { fill: none; stroke: none; }]]>
</style>


<!-- Start of group #patternScaleContainer -->
<g id="patternScaleContainer"  transform=" scale(3.54330709 ) " >
    
    <!-- Start of group #sleevePlacketUnderlap -->
    <g id="sleevePlacketUnderlap"  transform=" translate(-5 5)  translate(0 78) " >
        <path class="hidden" id="2"  d=" M  10,0  L  246.25,0  L  246.25,36  L  10,36  z " />
<path transform="translate( 0, 0 )" style="stroke: hsl(26.9, 55%, 50%);" id="208"  d=" M  10,0  L  146.25,0  L  146.25,36  L  10,36  z " />
<path transform="translate( 0, 0 )" style="stroke: hsl(53.8, 55%, 50%);" id="417"  d=" M  10,0  L  156.25,0  L  156.25,36  L  10,36  z " />
<path transform="translate( 0, 0 )" style="stroke: hsl(80.7, 55%, 50%);" id="626"  d=" M  10,0  L  166.25,0  L  166.25,36  L  10,36  z " />
<path transform="translate( 0, 0 )" style="stroke: hsl(107.6, 55%, 50%);" id="835"  d=" M  10,0  L  176.25,0  L  176.25,36  L  10,36  z " />
<path transform="translate( 0, 0 )" style="stroke: hsl(134.5, 55%, 50%);" id="1044"  d=" M  10,0  L  186.25,0  L  186.25,36  L  10,36  z " />
<path transform="translate( 0, 0 )" style="stroke: hsl(161.4, 55%, 50%);" id="1253"  d=" M  10,0  L  196.25,0  L  196.25,36  L  10,36  z " />
<path transform="translate( 0, 0 )" style="stroke: hsl(188.3, 55%, 50%);" id="1462"  d=" M  10,0  L  206.25,0  L  206.25,36  L  10,36  z " />
<path transform="translate( 0, 0 )" style="stroke: hsl(215.2, 55%, 50%);" id="1671"  d=" M  10,0  L  216.25,0  L  216.25,36  L  10,36  z " />
<path transform="translate( 0, 0 )" style="stroke: hsl(242.1, 55%, 50%);" id="1880"  d=" M  10,0  L  226.25,0  L  226.25,36  L  10,36  z " />
<path transform="translate( 0, 0 )" style="stroke: hsl(269, 55%, 50%);" id="2089"  d=" M  10,0  L  236.25,0  L  236.25,36  L  10,36  z " />
<path transform="translate( 0, 0 )" style="stroke: hsl(295.9, 55%, 50%);" id="2298"  d=" M  10,0  L  246.25,0  L  246.25,36  L  10,36  z " />
    </g>
    <!-- End of group #sleevePlacketUnderlap -->
    
    <!-- Start of group #sleevePlacketOverlap -->
    <g id="sleevePlacketOverlap"  transform=" translate(-5 5)  translate(0 0) " >
        <path class="hidden" id="3"  d=" M  10,0  L  295,0  L  295,68  L  10,68  z " />
<path transform="translate( 0, 0 )" style="stroke: hsl(26.9, 55%, 50%);" id="209"  d=" M  10,0  L  195,0  L  195,41.333  L  176.25,41.333  L  161.25,49.667  L  148.75,49.667  L  148.75,68  L  10,68  z " />
<path transform="translate( 0, 0 )" style="stroke: hsl(53.8, 55%, 50%);" id="418"  d=" M  10,0  L  205,0  L  205,41.333  L  186.25,41.333  L  171.25,49.667  L  158.75,49.667  L  158.75,68  L  10,68  z " />
<path transform="translate( 0, 0 )" style="stroke: hsl(80.7, 55%, 50%);" id="627"  d=" M  10,0  L  215,0  L  215,41.333  L  196.25,41.333  L  181.25,49.667  L  168.75,49.667  L  168.75,68  L  10,68  z " />
<path transform="translate( 0, 0 )" style="stroke: hsl(107.6, 55%, 50%);" id="836"  d=" M  10,0  L  225,0  L  225,41.333  L  206.25,41.333  L  191.25,49.667  L  178.75,49.667  L  178.75,68  L  10,68  z " />
<path transform="translate( 0, 0 )" style="stroke: hsl(134.5, 55%, 50%);" id="1045"  d=" M  10,0  L  235,0  L  235,41.333  L  216.25,41.333  L  201.25,49.667  L  188.75,49.667  L  188.75,68  L  10,68  z " />
<path transform="translate( 0, 0 )" style="stroke: hsl(161.4, 55%, 50%);" id="1254"  d=" M  10,0  L  245,0  L  245,41.333  L  226.25,41.333  L  211.25,49.667  L  198.75,49.667  L  198.75,68  L  10,68  z " />
<path transform="translate( 0, 0 )" style="stroke: hsl(188.3, 55%, 50%);" id="1463"  d=" M  10,0  L  255,0  L  255,41.333  L  236.25,41.333  L  221.25,49.667  L  208.75,49.667  L  208.75,68  L  10,68  z " />
<path transform="translate( 0, 0 )" style="stroke: hsl(215.2, 55%, 50%);" id="1672"  d=" M  10,0  L  265,0  L  265,41.333  L  246.25,41.333  L  231.25,49.667  L  218.75,49.667  L  218.75,68  L  10,68  z " />
<path transform="translate( 0, 0 )" style="stroke: hsl(242.1, 55%, 50%);" id="1881"  d=" M  10,0  L  275,0  L  275,41.333  L  256.25,41.333  L  241.25,49.667  L  228.75,49.667  L  228.75,68  L  10,68  z " />
<path transform="translate( 0, 0 )" style="stroke: hsl(269, 55%, 50%);" id="2090"  d=" M  10,0  L  285,0  L  285,41.333  L  266.25,41.333  L  251.25,49.667  L  238.75,49.667  L  238.75,68  L  10,68  z " />
<path transform="translate( 0, 0 )" style="stroke: hsl(295.9, 55%, 50%);" id="2299"  d=" M  10,0  L  295,0  L  295,41.333  L  276.25,41.333  L  261.25,49.667  L  248.75,49.667  L  248.75,68  L  10,68  z " />
    </g>
    <!-- End of group #sleevePlacketOverlap -->
</g>
<!-- End of group #patternScaleContainer -->

</svg>

