<?xml version="1.0" encoding="UTF-8" standalone="no"?>
<svg
    xmlns="http://www.w3.org/2000/svg"
    xmlns:svg="http://www.w3.org/2000/svg"
    xmlns:xlink="http://www.w3.org/1999/xlink"
    xmlns:freesewing="http://freesewing.org/namespaces/freesewing" viewBox ="0 0 1438 888"
    width ="1438mm"
    height ="888mm"
    freesewing:version ="1.7.0"
    freesewing:origin ="core.she.freesewing.org" 
>

<style type="text/css">
    <![CDATA[
    path { fill: none; stroke: #000000; stroke-opacity:1; stroke-width: 0.5; stroke-miterlimit:4; stroke-dashoffset:0; stroke-linecap:round; stroke-linejoin:round; }
    path.hidden { fill: none; stroke: none; }]]>
</style>


<!-- Start of group #patternContainer -->
<g id="patternContainer" >
    
    <!-- Start of group #backBlock -->
    <g id="backBlock" >
    </g>
    <!-- End of group #backBlock -->
    
    <!-- Start of group #frontBlock -->
    <g id="frontBlock" >
    </g>
    <!-- End of group #frontBlock -->
    
    <!-- Start of group #sleeveBlock -->
    <g id="sleeveBlock" >
    </g>
    <!-- End of group #sleeveBlock -->
    
    <!-- Start of group #topsleeveBlock -->
    <g id="topsleeveBlock" >
    </g>
    <!-- End of group #topsleeveBlock -->
    
    <!-- Start of group #undersleeveBlock -->
    <g id="undersleeveBlock" >
    </g>
    <!-- End of group #undersleeveBlock -->
    
    <!-- Start of group #back -->
    <g id="back"  transform=" translate(5 5)  translate(311.6 0) " >
        <path class="hidden" id="2"  d=" M  0,0  L  259.108,0  L  259.108,751.85  L  0,751.85  z " />
<path transform="translate( 0, 0 )" style="stroke: hsl(26.9, 55%, 50%);" id="290"  d=" M  5.4,20  C  5.4,20  84.058,19.814  86.777,0  L  232.5,20  C  231.14,29.907  220,103.667  220,145.5  C  220,187.333  227.155,229.299  244.428,246.572  C  227.155,263.845  210.092,408.857  210.092,490  C  210.092,509.333  211.472,528.667  213.128,548  L  253.021,557.71  C  256.323,582.217  258.717,609.051  258.717,635  L  258.717,751.85  L  11.25,751.85  L  11.25,635  C  11.25,586.667  14.625,538.333  14.625,490  C  14.625,389.111  -0,288.222  0,187.333  C  0,103.666  5.4,20  5.4,20  z " />
<path transform="translate( 0, 0 )" style="stroke: hsl(53.8, 55%, 50%);" id="594"  d=" M  5.4,20  C  5.4,20  84.058,19.814  86.777,0  L  232.5,20  C  231.14,29.907  220,104.95  220,147.425  C  220,189.9  227.197,232.901  244.573,250.277  C  227.197,267.653  210.134,410.092  210.134,490  C  210.134,509.333  211.514,528.667  213.17,548  L  253.063,557.71  C  256.365,582.217  258.759,609.051  258.759,635  L  258.759,751.85  L  11.25,751.85  L  11.25,635  C  11.25,586.667  14.625,538.333  14.625,490  C  14.625,389.967  -0,289.933  0,189.9  C  0,104.95  5.4,20  5.4,20  z " />
<path transform="translate( 0, 0 )" style="stroke: hsl(80.7, 55%, 50%);" id="898"  d=" M  5.4,20  C  5.4,20  84.058,19.814  86.777,0  L  232.5,20  C  231.14,29.907  220,106.233  220,149.35  C  220,192.467  227.239,236.509  244.715,253.985  C  227.239,271.461  210.176,411.328  210.176,490  C  210.176,509.333  211.556,528.667  213.212,548  L  253.105,557.71  C  256.407,582.217  258.801,609.051  258.801,635  L  258.801,751.85  L  11.25,751.85  L  11.25,635  C  11.25,586.667  14.625,538.333  14.625,490  C  14.625,390.822  -0,291.645  0,192.467  C  0,106.233  5.4,20  5.4,20  z " />
<path transform="translate( 0, 0 )" style="stroke: hsl(107.6, 55%, 50%);" id="1202"  d=" M  5.4,20  C  5.4,20  84.058,19.814  86.777,0  L  232.5,20  C  231.14,29.907  220,107.517  220,151.275  C  220,195.033  227.28,240.122  244.854,257.696  C  227.28,275.27  210.217,412.565  210.217,490  C  210.217,509.333  211.597,528.667  213.253,548  L  253.146,557.71  C  256.448,582.217  258.842,609.051  258.842,635  L  258.842,751.85  L  11.25,751.85  L  11.25,635  C  11.25,586.667  14.625,538.333  14.625,490  C  14.625,391.678  -0,293.355  0,195.033  C  0,107.516  5.4,20  5.4,20  z " />
<path transform="translate( 0, 0 )" style="stroke: hsl(134.5, 55%, 50%);" id="1506"  d=" M  5.4,20  C  5.4,20  84.058,19.814  86.777,0  L  232.5,20  C  231.14,29.907  220,108.8  220,153.2  C  220,197.6  227.32,243.738  244.991,261.409  C  227.32,279.08  210.257,413.803  210.257,490  C  210.257,509.333  211.637,528.667  213.293,548  L  253.186,557.71  C  256.488,582.217  258.882,609.051  258.882,635  L  258.882,751.85  L  11.25,751.85  L  11.25,635  C  11.25,586.667  14.625,538.333  14.625,490  C  14.625,392.533  -0,295.067  0,197.6  C  0,108.8  5.4,20  5.4,20  z " />
<path transform="translate( 0, 0 )" style="stroke: hsl(161.4, 55%, 50%);" id="1810"  d=" M  5.4,20  C  5.4,20  84.058,19.814  86.777,0  L  232.5,20  C  231.14,29.907  220,110.083  220,155.125  C  220,200.167  227.359,247.359  245.125,265.125  C  227.359,282.891  210.296,415.042  210.296,490  C  210.296,509.333  211.676,528.667  213.332,548  L  253.224,557.708  C  256.526,582.211  258.921,609.051  258.921,635  L  258.921,751.85  L  11.25,751.85  L  11.25,635  C  11.25,586.667  14.625,538.333  14.625,490  C  14.625,393.389  -0,296.778  0,200.167  C  0,110.083  5.4,20  5.4,20  z " />
<path transform="translate( 0, 0 )" style="stroke: hsl(188.3, 55%, 50%);" id="2114"  d=" M  5.4,20  C  5.4,20  84.058,19.814  86.777,0  L  232.5,20  C  231.14,29.907  220,111.367  220,157.05  C  220,202.733  227.398,250.984  245.257,268.843  C  227.398,286.702  210.335,416.281  210.335,490  C  210.335,509.333  211.715,528.667  213.371,548  L  253.263,557.708  C  256.565,582.211  258.96,609.051  258.96,635  L  258.96,751.85  L  11.25,751.85  L  11.25,635  C  11.25,586.667  14.625,538.333  14.625,490  C  14.625,394.244  -0,298.489  0,202.733  C  0,111.366  5.4,20  5.4,20  z " />
<path transform="translate( 0, 0 )" style="stroke: hsl(215.2, 55%, 50%);" id="2418"  d=" M  5.4,20  C  5.4,20  84.058,19.814  86.777,0  L  232.5,20  C  231.14,29.907  220,112.65  220,158.975  C  220,205.3  227.436,254.612  245.387,272.563  C  227.436,290.514  210.373,417.521  210.373,490  C  210.373,509.333  211.753,528.667  213.409,548  L  253.301,557.708  C  256.603,582.211  258.998,609.051  258.998,635  L  258.998,751.85  L  11.25,751.85  L  11.25,635  C  11.25,586.667  14.625,538.333  14.625,490  C  14.625,395.1  -0,300.2  0,205.3  C  0,112.65  5.4,20  5.4,20  z " />
<path transform="translate( 0, 0 )" style="stroke: hsl(242.1, 55%, 50%);" id="2722"  d=" M  5.4,20  C  5.4,20  84.058,19.814  86.777,0  L  232.5,20  C  231.14,29.907  220,113.933  220,160.9  C  220,207.867  227.473,258.245  245.514,276.286  C  227.473,294.327  210.41,418.762  210.41,490  C  210.41,509.333  211.79,528.667  213.446,548  L  253.338,557.708  C  256.64,582.211  259.035,609.051  259.035,635  L  259.035,751.85  L  11.25,751.85  L  11.25,635  C  11.25,586.667  14.625,538.333  14.625,490  C  14.625,395.956  -0,301.911  0,207.867  C  0,113.933  5.4,20  5.4,20  z " />
<path transform="translate( 0, 0 )" style="stroke: hsl(269, 55%, 50%);" id="3026"  d=" M  5.4,20  C  5.4,20  84.058,19.814  86.777,0  L  232.5,20  C  231.14,29.907  220,115.217  220,162.825  C  220,210.433  227.509,261.881  245.639,280.011  C  227.509,298.141  210.446,420.004  210.446,490  C  210.446,509.333  211.826,528.667  213.482,548  L  253.374,557.708  C  256.676,582.211  259.071,609.051  259.071,635  L  259.071,751.85  L  11.25,751.85  L  11.25,635  C  11.25,586.667  14.625,538.333  14.625,490  C  14.625,396.811  -0,303.622  0,210.433  C  0,115.216  5.4,20  5.4,20  z " />
<path transform="translate( 0, 0 )" style="stroke: hsl(295.9, 55%, 50%);" id="3330"  d=" M  5.4,20  C  5.4,20  84.058,19.814  86.777,0  L  232.5,20  C  231.14,29.907  220,116.5  220,164.75  C  220,213  227.546,265.522  245.762,283.738  C  227.546,301.954  210.483,421.246  210.483,490  C  210.483,509.333  211.863,528.667  213.519,548  L  253.409,557.706  C  256.715,582.226  259.108,609.051  259.108,635  L  259.108,751.85  L  11.25,751.85  L  11.25,635  C  11.25,586.667  14.625,538.333  14.625,490  C  14.625,397.667  -0,305.333  0,213  C  0,116.5  5.4,20  5.4,20  z " />
    </g>
    <!-- End of group #back -->
    
    <!-- Start of group #front -->
    <g id="front"  transform=" translate(26.6 11.084)  translate(0 0) " >
        <path class="hidden" id="3"  d=" M  -21.6,-6.084  L  280,-6.084  L  280,768.275  L  -21.6,768.275  z " />
<path transform="translate( 0, 0 )" style="stroke: hsl(26.9, 55%, 50%);" id="291"  d=" M  150.916,500.875  L  247.111,500.875  M  255.598,697.263  L  113.4,697.263  L  113.4,500.875  L  137.012,500.875 " />
<path transform="translate( 0, 0 )" style="stroke: hsl(26.9, 55%, 50%);" id="292"  d=" M  -21.6,413.35  C  -21.6,268.377  -18.821,91.746  -18.821,91.746  L  11.168,90.922  L  65.439,67.16  L  94.774,-6.084  L  238.212,20.375  C  235.491,35.126  218,103.667  218,145.5  C  218,187.333  227.155,229.299  244.428,246.572  C  255.828,257.972  267.675,264.965  280,268.357  C  280,268.357  246.973,408.857  246.973,490  C  246.973,538.333  255.598,586.667  255.598,635  L  255.598,757.965  L  76.679,768.021  C  12.78,771.612  -11.996,738.527  -19.939,594.627  C  -21.6,564.535  -21.6,541.553  -21.6,518.571  L  -21.6,413.35  z  M  143.964,562.5  C  143.964,562.5  151.277,514.167  151.277,490  C  151.277,441.333  143.964,344  143.964,344  C  143.964,344  136.651,441.333  136.651,490  C  136.651,514.167  143.964,562.5  143.964,562.5  z " />
<path transform="translate( 0, 0 )" style="stroke: hsl(26.9, 55%, 50%);" id="293"  d=" M  82.5,271  L  82.5,255.87  L  186.602,242.165  L  186.602,257.295  L  82.5,271  z " />
<path transform="translate( 0, 0 )" style="stroke: hsl(26.9, 55%, 50%);" id="294"  d=" M  -21.6,413.35  L  50.971,73.495 " />
<path transform="translate( 0, 0 )" style="stroke: hsl(53.8, 55%, 50%);" id="595"  d=" M  150.916,500.875  L  247.111,500.875  M  255.598,697.263  L  113.4,697.263  L  113.4,500.875  L  137.012,500.875 " />
<path transform="translate( 0, 0 )" style="stroke: hsl(53.8, 55%, 50%);" id="596"  d=" M  -21.6,414.698  C  -21.6,272.189  -18.78,92.966  -18.78,92.966  L  11.194,91.728  L  65.382,68.013  L  94.86,-6.084  L  238.302,20.376  C  235.581,35.127  218,104.95  218,147.425  C  218,189.9  227.197,232.901  244.573,250.277  C  256.041,261.745  267.803,268.779  280,272.174  C  280,272.174  246.973,410.092  246.973,490  C  246.973,538.333  255.598,586.667  255.598,635  L  255.598,757.964  L  76.679,768.02  C  12.78,771.612  -11.996,738.527  -19.939,594.627  C  -21.6,564.535  -21.6,541.553  -21.6,518.572  L  -21.6,414.698  z  M  143.964,562.5  C  143.964,562.5  151.277,514.167  151.277,490  C  151.277,442.189  143.964,346.567  143.964,346.567  C  143.964,346.567  136.651,442.189  136.651,490  C  136.651,514.167  143.964,562.5  143.964,562.5  z " />
<path transform="translate( 0, 0 )" style="stroke: hsl(53.8, 55%, 50%);" id="597"  d=" M  82.5,274.85  L  82.5,259.72  L  186.602,246.015  L  186.602,261.145  L  82.5,274.85  z " />
<path transform="translate( 0, 0 )" style="stroke: hsl(53.8, 55%, 50%);" id="598"  d=" M  -21.6,414.698  L  50.92,74.342 " />
<path transform="translate( 0, 0 )" style="stroke: hsl(80.7, 55%, 50%);" id="899"  d=" M  150.916,500.875  L  247.111,500.875  M  255.598,697.263  L  113.4,697.263  L  113.4,500.875  L  137.012,500.875 " />
<path transform="translate( 0, 0 )" style="stroke: hsl(80.7, 55%, 50%);" id="900"  d=" M  -21.6,416.045  C  -21.6,276.001  -18.655,91.515  -18.655,91.515  L  11.334,90.699  L  65.75,66.851  L  94.943,-6.082  L  238.391,20.377  C  235.67,35.128  218,106.233  218,149.35  C  218,192.467  227.239,236.509  244.715,253.985  C  256.074,265.344  267.574,272.379  280,275.99  C  280,275.99  246.973,411.328  246.973,490  C  246.973,538.333  255.598,586.667  255.598,635  L  255.598,757.962  L  76.679,768.02  C  12.78,771.612  -11.996,738.527  -19.939,594.627  C  -21.6,564.535  -21.6,541.553  -21.6,518.571  L  -21.6,416.045  z  M  143.964,562.5  C  143.964,562.5  151.277,514.167  151.277,490  C  151.277,443.044  143.964,349.133  143.964,349.133  C  143.964,349.133  136.651,443.044  136.651,490  C  136.651,514.167  143.964,562.5  143.964,562.5  z " />
<path transform="translate( 0, 0 )" style="stroke: hsl(80.7, 55%, 50%);" id="901"  d=" M  82.5,278.7  L  82.5,263.57  L  186.602,249.865  L  186.602,264.995  L  82.5,278.7  z " />
<path transform="translate( 0, 0 )" style="stroke: hsl(80.7, 55%, 50%);" id="902"  d=" M  -21.6,416.045  L  51.291,73.188 " />
<path transform="translate( 0, 0 )" style="stroke: hsl(107.6, 55%, 50%);" id="1203"  d=" M  150.916,500.875  L  247.111,500.875  M  255.598,697.263  L  113.4,697.263  L  113.4,500.875  L  137.012,500.875 " />
<path transform="translate( 0, 0 )" style="stroke: hsl(107.6, 55%, 50%);" id="1204"  d=" M  -21.6,417.393  C  -21.6,279.812  -18.614,92.699  -18.614,92.699  L  11.363,91.526  L  65.685,67.731  L  95.026,-6.082  L  238.476,20.379  C  235.755,35.13  218,107.517  218,151.275  C  218,195.033  227.28,240.122  244.854,257.696  C  256.277,269.119  267.699,276.193  280,279.807  C  280,279.807  246.973,412.565  246.973,490  C  246.973,538.333  255.598,586.667  255.598,635  L  255.598,757.96  L  76.679,768.019  C  12.78,771.612  -11.996,738.527  -19.939,594.627  C  -21.6,564.535  -21.6,541.553  -21.6,518.572  L  -21.6,417.393  z  M  143.964,562.5  C  143.964,562.5  151.277,514.167  151.277,490  C  151.277,443.9  143.964,351.7  143.964,351.7  C  143.964,351.7  136.651,443.9  136.651,490  C  136.651,514.167  143.964,562.5  143.964,562.5  z " />
<path transform="translate( 0, 0 )" style="stroke: hsl(107.6, 55%, 50%);" id="1205"  d=" M  82.5,282.55  L  82.5,267.42  L  186.602,253.715  L  186.602,268.845  L  82.5,282.55  z " />
<path transform="translate( 0, 0 )" style="stroke: hsl(107.6, 55%, 50%);" id="1206"  d=" M  -21.6,417.393  L  51.234,74.061 " />
<path transform="translate( 0, 0 )" style="stroke: hsl(134.5, 55%, 50%);" id="1507"  d=" M  150.916,500.875  L  247.111,500.875  M  255.598,697.263  L  113.4,697.263  L  113.4,500.875  L  137.012,500.875 " />
<path transform="translate( 0, 0 )" style="stroke: hsl(134.5, 55%, 50%);" id="1508"  d=" M  -21.6,418.74  C  -21.6,283.624  -18.483,91.134  -18.483,91.134  L  11.507,90.343  L  66.087,66.397  L  95.108,-6.083  L  238.566,20.382  C  235.845,35.133  218,108.8  218,153.2  C  218,197.6  227.32,243.738  244.991,261.409  C  256.477,272.895  267.823,280.008  280,283.624  C  280,283.624  246.973,413.803  246.973,490  C  246.973,538.333  255.598,586.667  255.598,635  L  255.598,757.959  L  76.68,768.019  C  12.78,771.611  -11.996,738.527  -19.939,594.627  C  -21.6,564.535  -21.6,541.553  -21.6,518.571  L  -21.6,418.74  z  M  143.964,562.5  C  143.964,562.5  151.277,514.167  151.277,490  C  151.277,444.756  143.964,354.267  143.964,354.267  C  143.964,354.267  136.651,444.756  136.651,490  C  136.651,514.167  143.964,562.5  143.964,562.5  z " />
<path transform="translate( 0, 0 )" style="stroke: hsl(134.5, 55%, 50%);" id="1509"  d=" M  82.5,286.4  L  82.5,271.27  L  186.602,257.565  L  186.602,272.695  L  82.5,286.4  z " />
<path transform="translate( 0, 0 )" style="stroke: hsl(134.5, 55%, 50%);" id="1510"  d=" M  -21.6,418.74  L  51.64,72.735 " />
<path transform="translate( 0, 0 )" style="stroke: hsl(161.4, 55%, 50%);" id="1811"  d=" M  150.916,500.875  L  247.111,500.875  M  255.598,697.263  L  113.4,697.263  L  113.4,500.875  L  137.012,500.875 " />
<path transform="translate( 0, 0 )" style="stroke: hsl(161.4, 55%, 50%);" id="1812"  d=" M  -21.6,420.088  C  -21.6,287.436  -18.441,92.277  -18.441,92.277  L  11.54,91.205  L  66.018,67.317  L  95.197,-6.081  L  238.653,20.383  C  235.932,35.134  218,110.083  218,155.125  C  218,200.167  227.359,247.359  245.125,265.125  C  256.673,276.673  267.943,283.824  280,287.442  C  280,287.442  246.973,415.042  246.973,490  C  246.973,538.333  255.598,586.667  255.598,635  L  255.598,757.957  L  76.68,768.018  C  12.78,771.611  -11.996,738.527  -19.939,594.627  C  -21.6,564.535  -21.6,541.553  -21.6,518.572  L  -21.6,420.088  z  M  143.964,562.5  C  143.964,562.5  151.277,514.167  151.277,490  C  151.277,445.611  143.964,356.833  143.964,356.833  C  143.964,356.833  136.651,445.611  136.651,490  C  136.651,514.167  143.964,562.5  143.964,562.5  z " />
<path transform="translate( 0, 0 )" style="stroke: hsl(161.4, 55%, 50%);" id="1813"  d=" M  82.5,290.25  L  82.5,275.12  L  186.602,261.415  L  186.602,276.545  L  82.5,290.25  z " />
<path transform="translate( 0, 0 )" style="stroke: hsl(161.4, 55%, 50%);" id="1814"  d=" M  -21.6,420.088  L  51.576,73.65 " />
<path transform="translate( 0, 0 )" style="stroke: hsl(188.3, 55%, 50%);" id="2115"  d=" M  150.916,500.875  L  247.111,500.875  M  255.598,697.263  L  113.4,697.263  L  113.4,500.875  L  137.012,500.875 " />
<path transform="translate( 0, 0 )" style="stroke: hsl(188.3, 55%, 50%);" id="2116"  d=" M  -21.6,421.435  C  -21.6,291.248  -18.397,93.423  -18.397,93.423  L  11.55,91.647  L  66.05,67.746  L  95.281,-6.082  L  238.74,20.385  C  236.019,35.136  218,111.367  218,157.05  C  218,202.733  227.398,250.984  245.257,268.843  C  256.865,280.451  268.062,287.64  280,291.259  C  280,291.259  246.973,416.281  246.973,490  C  246.973,538.333  255.598,586.667  255.598,635  L  255.598,757.956  L  76.68,768.018  C  12.78,771.611  -11.996,738.527  -19.939,594.627  C  -21.6,564.535  -21.6,541.553  -21.6,518.571  L  -21.6,421.435  z  M  143.964,562.5  C  143.964,562.5  151.277,514.167  151.277,490  C  151.277,446.467  143.964,359.4  143.964,359.4  C  143.964,359.4  136.651,446.467  136.651,490  C  136.651,514.167  143.964,562.5  143.964,562.5  z " />
<path transform="translate( 0, 0 )" style="stroke: hsl(188.3, 55%, 50%);" id="2117"  d=" M  82.5,294.1  L  82.5,278.97  L  186.602,265.265  L  186.602,280.395  L  82.5,294.1  z " />
<path transform="translate( 0, 0 )" style="stroke: hsl(188.3, 55%, 50%);" id="2118"  d=" M  -21.6,421.435  L  51.613,74.078 " />
<path transform="translate( 0, 0 )" style="stroke: hsl(215.2, 55%, 50%);" id="2419"  d=" M  150.916,500.875  L  247.111,500.875  M  255.598,697.263  L  113.4,697.263  L  113.4,500.875  L  137.012,500.875 " />
<path transform="translate( 0, 0 )" style="stroke: hsl(215.2, 55%, 50%);" id="2420"  d=" M  -21.6,422.783  C  -21.6,295.06  -18.262,91.707  -18.262,91.707  L  11.722,90.739  L  66.38,66.745  L  95.362,-6.081  L  238.826,20.389  C  236.104,35.14  218,112.65  218,158.975  C  218,205.3  227.436,254.612  245.387,272.563  C  257.055,284.231  268.179,291.457  280,295.077  C  280,295.077  246.973,417.521  246.973,490  C  246.973,538.333  255.598,586.667  255.598,635  L  255.598,757.954  L  76.68,768.017  C  12.78,771.611  -11.996,738.527  -19.939,594.627  C  -21.6,564.535  -21.6,541.553  -21.6,518.572  L  -21.6,422.783  z  M  143.964,562.5  C  143.964,562.5  151.277,514.167  151.277,490  C  151.277,447.322  143.964,361.967  143.964,361.967  C  143.964,361.967  136.651,447.322  136.651,490  C  136.651,514.167  143.964,562.5  143.964,562.5  z " />
<path transform="translate( 0, 0 )" style="stroke: hsl(215.2, 55%, 50%);" id="2421"  d=" M  82.5,297.95  L  82.5,282.82  L  186.602,269.115  L  186.602,284.245  L  82.5,297.95  z " />
<path transform="translate( 0, 0 )" style="stroke: hsl(215.2, 55%, 50%);" id="2422"  d=" M  -21.6,422.783  L  51.946,73.081 " />
<path transform="translate( 0, 0 )" style="stroke: hsl(242.1, 55%, 50%);" id="2723"  d=" M  150.916,500.875  L  247.111,500.875  M  255.598,697.263  L  113.4,697.263  L  113.4,500.875  L  137.012,500.875 " />
<path transform="translate( 0, 0 )" style="stroke: hsl(242.1, 55%, 50%);" id="2724"  d=" M  -21.6,424.13  C  -21.6,298.872  -18.217,92.815  -18.217,92.815  L  11.752,91.445  L  66.348,67.486  L  95.448,-6.078  L  238.916,20.391  C  236.195,35.142  218,113.933  218,160.9  C  218,207.867  227.473,258.245  245.514,276.286  C  257.241,288.013  268.293,295.274  280,298.894  C  280,298.894  246.973,418.762  246.973,490  C  246.973,538.333  255.598,586.667  255.598,635  L  255.598,757.953  L  76.68,768.017  C  12.78,771.611  -11.996,738.527  -19.939,594.627  C  -21.6,564.535  -21.6,541.553  -21.6,518.571  L  -21.6,424.13  z  M  143.964,562.5  C  143.964,562.5  151.277,514.167  151.277,490  C  151.277,448.178  143.964,364.533  143.964,364.533  C  143.964,364.533  136.651,448.178  136.651,490  C  136.651,514.167  143.964,562.5  143.964,562.5  z " />
<path transform="translate( 0, 0 )" style="stroke: hsl(242.1, 55%, 50%);" id="2725"  d=" M  82.5,301.8  L  82.5,286.67  L  186.602,272.965  L  186.602,288.095  L  82.5,301.8  z " />
<path transform="translate( 0, 0 )" style="stroke: hsl(242.1, 55%, 50%);" id="2726"  d=" M  -21.6,424.13  L  51.92,73.818 " />
<path transform="translate( 0, 0 )" style="stroke: hsl(269, 55%, 50%);" id="3027"  d=" M  150.916,500.875  L  247.111,500.875  M  255.598,697.263  L  113.4,697.263  L  113.4,500.875  L  137.012,500.875 " />
<path transform="translate( 0, 0 )" style="stroke: hsl(269, 55%, 50%);" id="3028"  d=" M  -21.6,425.478  C  -21.6,302.684  -18.076,90.987  -18.076,90.987  L  11.911,90.121  L  66.777,66.005  L  95.532,-6.078  L  239.003,20.393  C  236.281,35.144  218,115.217  218,162.825  C  218,210.433  227.509,261.881  245.639,280.011  C  257.424,291.796  268.406,299.093  280,302.712  C  280,302.712  246.973,420.004  246.973,490  C  246.973,538.333  255.598,586.667  255.598,635  L  255.598,757.951  L  76.68,768.016  C  12.78,771.611  -11.996,738.527  -19.939,594.627  C  -21.6,564.535  -21.6,541.553  -21.6,518.572  L  -21.6,425.478  z  M  143.964,562.5  C  143.964,562.5  151.277,514.167  151.277,490  C  151.277,449.033  143.964,367.1  143.964,367.1  C  143.964,367.1  136.651,449.033  136.651,490  C  136.651,514.167  143.964,562.5  143.964,562.5  z " />
<path transform="translate( 0, 0 )" style="stroke: hsl(269, 55%, 50%);" id="3029"  d=" M  82.5,305.65  L  82.5,290.52  L  186.602,276.815  L  186.602,291.945  L  82.5,305.65  z " />
<path transform="translate( 0, 0 )" style="stroke: hsl(269, 55%, 50%);" id="3030"  d=" M  -21.6,425.478  L  52.351,72.346 " />
<path transform="translate( 0, 0 )" style="stroke: hsl(295.9, 55%, 50%);" id="3331"  d=" M  150.916,500.875  L  247.111,500.875  M  255.598,697.263  L  113.4,697.263  L  113.4,500.875  L  137.012,500.875 " />
<path transform="translate( 0, 0 )" style="stroke: hsl(295.9, 55%, 50%);" id="3332"  d=" M  -21.6,426.825  C  -21.6,306.496  -18.031,92.055  -18.031,92.055  L  11.948,90.93  L  66.716,66.869  L  95.614,-6.077  L  239.09,20.393  C  236.369,35.144  218,116.5  218,164.75  C  218,213  227.546,265.522  245.762,283.738  C  257.602,295.578  268.516,302.911  280,306.53  C  280,306.53  246.973,421.246  246.973,490  C  246.973,538.333  255.598,586.667  255.598,635  L  255.598,757.95  L  76.68,768.016  C  12.78,771.611  -11.996,738.527  -19.939,594.627  C  -21.6,564.535  -21.6,541.553  -21.6,518.571  L  -21.6,426.825  z  M  143.964,562.5  C  143.964,562.5  151.277,514.167  151.277,490  C  151.277,449.889  143.964,369.667  143.964,369.667  C  143.964,369.667  136.651,449.889  136.651,490  C  136.651,514.167  143.964,562.5  143.964,562.5  z " />
<path transform="translate( 0, 0 )" style="stroke: hsl(295.9, 55%, 50%);" id="3333"  d=" M  82.5,309.5  L  82.5,294.37  L  186.602,280.665  L  186.602,295.795  L  82.5,309.5  z " />
<path transform="translate( 0, 0 )" style="stroke: hsl(295.9, 55%, 50%);" id="3334"  d=" M  -21.6,426.825  L  52.297,73.203 " />
    </g>
    <!-- End of group #front -->
    
    <!-- Start of group #side -->
    <g id="side"  transform=" translate(-267.474 -241.572)  translate(1124.189 0) " >
        <path class="hidden" id="4"  d=" M  272.474,246.572  L  404.407,246.572  L  404.407,757.965  L  272.474,757.965  z " />
<path transform="translate( 0, 0 )" style="stroke: hsl(26.9, 55%, 50%);" id="295"  d=" M  272.474,757.965  L  272.474,635  C  272.474,586.667  281.099,538.333  281.099,490  C  281.099,408.857  280,268.357  280,268.357  C  286.597,270.173  293.2,271  300,271  C  320,271  338.299,263.845  355.572,246.572  C  372.845,263.845  355.782,408.857  355.782,490  C  355.782,509.333  357.162,528.667  358.83,548.145  L  399.992,559.576  C  401.711,578.83  404.407,609.051  404.407,635  L  404.407,754.505  L  364.407,751.85  L  272.474,757.965  z " />
<path transform="translate( 0, 0.00099999999997635 )" style="stroke: hsl(53.8, 55%, 50%);" id="599"  d=" M  272.474,757.964  L  272.474,635  C  272.474,586.667  281.099,538.333  281.099,490  C  281.099,410.092  280,272.174  280,272.174  C  286.625,274.018  293.2,274.85  300,274.85  C  320,274.85  338.051,267.653  355.427,250.277  C  372.803,267.653  355.74,410.092  355.74,490  C  355.74,509.333  357.12,528.667  358.788,548.145  L  399.95,559.576  C  401.669,578.83  404.365,609.051  404.365,635  L  404.365,754.506  L  364.365,751.85  L  272.474,757.964  z " />
<path transform="translate( 0, 0.0030000000000427 )" style="stroke: hsl(80.7, 55%, 50%);" id="903"  d=" M  272.474,757.962  L  272.474,635  C  272.474,586.667  281.099,538.333  281.099,490  C  281.099,411.328  280,275.99  280,275.99  C  286.268,277.813  293,278.7  300,278.7  C  320,278.7  337.809,271.461  355.285,253.985  C  372.761,271.461  355.698,411.328  355.698,490  C  355.698,509.333  357.078,528.667  358.746,548.145  L  399.908,559.576  C  401.627,578.83  404.323,609.051  404.323,635  L  404.323,754.506  L  364.323,751.85  L  272.474,757.962  z " />
<path transform="translate( 0, 0.0049999999999955 )" style="stroke: hsl(107.6, 55%, 50%);" id="1207"  d=" M  272.474,757.96  L  272.474,635  C  272.474,586.667  281.099,538.333  281.099,490  C  281.099,412.565  280,279.807  280,279.807  C  286.297,281.658  293,282.55  300,282.55  C  320,282.55  337.572,275.27  355.146,257.696  C  372.72,275.27  355.657,412.565  355.657,490  C  355.657,509.333  357.037,528.667  358.705,548.145  L  399.867,559.576  C  401.586,578.83  404.282,609.051  404.282,635  L  404.282,754.506  L  364.282,751.85  L  272.474,757.96  z " />
<path transform="translate( 0, 0.0060000000000855 )" style="stroke: hsl(134.5, 55%, 50%);" id="1511"  d=" M  272.474,757.959  L  272.474,635  C  272.474,586.667  281.099,538.333  281.099,490  C  281.099,413.803  280,283.624  280,283.624  C  286.326,285.503  293,286.4  300,286.4  C  320,286.4  337.338,279.08  355.009,261.409  C  372.68,279.08  355.617,413.803  355.617,490  C  355.617,509.333  356.997,528.667  358.665,548.145  L  399.827,559.576  C  401.546,578.83  404.242,609.051  404.242,635  L  404.242,754.507  L  364.242,751.85  L  272.474,757.959  z " />
<path transform="translate( 0, 0.0080000000000382 )" style="stroke: hsl(161.4, 55%, 50%);" id="1815"  d=" M  272.474,757.957  L  272.474,635  C  272.474,586.667  281.099,538.333  281.099,490  C  281.099,415.042  280,287.442  280,287.442  C  286.354,289.349  293,290.25  300,290.25  C  320,290.25  337.109,282.891  354.875,265.125  C  372.641,282.891  355.578,415.042  355.578,490  C  355.578,509.333  356.958,528.667  358.626,548.145  L  399.788,559.576  C  401.507,578.83  404.203,609.051  404.203,635  L  404.203,754.507  L  364.203,751.85  L  272.474,757.957  z " />
<path transform="translate( 0, 0.0090000000000146 )" style="stroke: hsl(188.3, 55%, 50%);" id="2119"  d=" M  272.474,757.956  L  272.474,635  C  272.474,586.667  281.099,538.333  281.099,490  C  281.099,416.281  280,291.259  280,291.259  C  286.382,293.194  293,294.1  300,294.1  C  320,294.1  336.884,286.702  354.743,268.843  C  372.602,286.702  355.539,416.281  355.539,490  C  355.539,509.333  356.919,528.667  358.587,548.145  L  399.749,559.576  C  401.468,578.83  404.164,609.051  404.164,635  L  404.164,754.508  L  364.164,751.85  L  272.474,757.956  z " />
<path transform="translate( 0, 0.011000000000081 )" style="stroke: hsl(215.2, 55%, 50%);" id="2423"  d=" M  272.474,757.954  L  272.474,635  C  272.474,586.667  281.099,538.333  281.099,490  C  281.099,417.521  280,295.077  280,295.077  C  286.409,297.039  293,297.95  300,297.95  C  320,297.95  336.662,290.514  354.613,272.563  C  372.564,290.514  355.501,417.521  355.501,490  C  355.501,509.333  356.881,528.667  358.549,548.145  L  399.711,559.576  C  401.43,578.83  404.126,609.051  404.126,635  L  404.126,754.508  L  364.126,751.85  L  272.474,757.954  z " />
<path transform="translate( 0, 0.012000000000057 )" style="stroke: hsl(242.1, 55%, 50%);" id="2727"  d=" M  272.474,757.953  L  272.474,635  C  272.474,586.667  281.099,538.333  281.099,490  C  281.099,418.762  280,298.894  280,298.894  C  286.435,300.885  293,301.8  300,301.8  C  320,301.8  336.445,294.327  354.486,276.286  C  372.527,294.327  355.464,418.762  355.464,490  C  355.464,509.333  356.844,528.667  358.512,548.145  L  399.674,559.576  C  401.393,578.83  404.089,609.051  404.089,635  L  404.089,754.509  L  364.089,751.85  L  272.474,757.953  z " />
<path transform="translate( 0, 0.01400000000001 )" style="stroke: hsl(269, 55%, 50%);" id="3031"  d=" M  272.474,757.951  L  272.474,635  C  272.474,586.667  281.099,538.333  281.099,490  C  281.099,420.004  280,302.712  280,302.712  C  286.462,304.73  293,305.65  300,305.65  C  320,305.65  336.231,298.141  354.361,280.011  C  372.491,298.141  355.428,420.004  355.428,490  C  355.428,509.333  356.808,528.667  358.476,548.145  L  399.638,559.576  C  401.357,578.83  404.053,609.051  404.053,635  L  404.053,754.509  L  364.053,751.85  L  272.474,757.951  z " />
<path transform="translate( 0, 0.014999999999986 )" style="stroke: hsl(295.9, 55%, 50%);" id="3335"  d=" M  272.474,757.95  L  272.474,635  C  272.474,586.667  281.099,538.333  281.099,490  C  281.099,421.246  280,306.53  280,306.53  C  286.487,308.576  293,309.5  300,309.5  C  320,309.5  336.022,301.954  354.238,283.738  C  372.454,301.954  355.391,421.246  355.391,490  C  355.391,509.333  356.771,528.667  358.439,548.145  L  399.601,559.576  C  401.32,578.83  404.016,609.051  404.016,635  L  404.016,754.51  L  364.016,751.85  L  272.474,757.95  z " />
    </g>
    <!-- End of group #side -->
    
    <!-- Start of group #collar -->
    <g id="collar"  transform=" translate(145.427 120.915)  translate(0 784.359) " >
        <path class="hidden" id="5"  d=" M  -140.427,-115.915  L  288.421,-115.915  L  288.421,-22.637  L  -140.427,-22.637  z " />
<path transform="translate( 0, 0 )" style="stroke: hsl(26.9, 55%, 50%);" id="296"  d=" M  -139.726,-55.469  L  -90.205,-22.948  C  -90.205,-22.948  -80.883,-28.021  -58.623,-33.33  C  -58.623,-33.33  -48.006,-65.914  73.997,-65.914  C  196,-65.914  206.617,-33.33  206.617,-33.33  C  228.877,-28.021  238.199,-22.948  238.199,-22.948  L  287.72,-55.469  L  282.322,-84.98  C  230.241,-92.713  208.2,-115.913  73.997,-115.913  C  -60.206,-115.913  -82.247,-92.713  -134.328,-84.98  L  -139.726,-55.469  z " />
<path transform="translate( -0.036000000000001, -0.0090000000000003 )" style="stroke: hsl(53.8, 55%, 50%);" id="600"  d=" M  -140.391,-55.127  L  -90.969,-22.628  C  -90.969,-22.628  -81.471,-27.77  -59.313,-33.081  C  -59.313,-33.081  -47.97,-65.904  74.033,-65.905  C  196.036,-65.904  207.379,-33.081  207.379,-33.081  C  229.537,-27.77  239.035,-22.628  239.035,-22.628  L  288.457,-55.127  L  283.454,-84.707  C  231.099,-92.506  208.236,-115.905  74.033,-115.905  C  -60.17,-115.905  -83.033,-92.506  -135.388,-84.707  L  -140.391,-55.127  z " />
<path transform="translate( -0.067999999999998, -0.021000000000001 )" style="stroke: hsl(80.7, 55%, 50%);" id="904"  d=" M  -139.455,-55.686  L  -89.811,-23.045  C  -89.811,-23.045  -80.561,-28.092  -58.376,-33.373  C  -58.376,-33.373  -47.937,-65.892  74.065,-65.893  C  196.067,-65.892  206.506,-33.373  206.506,-33.373  C  228.691,-28.092  237.941,-23.045  237.941,-23.045  L  287.585,-55.686  L  282.153,-85.189  C  230.131,-92.865  208.267,-115.893  74.065,-115.893  C  -60.137,-115.893  -82.001,-92.865  -134.023,-85.189  L  -139.455,-55.686  z " />
<path transform="translate( -0.105, -0.031000000000006 )" style="stroke: hsl(107.6, 55%, 50%);" id="1208"  d=" M  -140.135,-55.33  L  -90.602,-22.717  C  -90.602,-22.717  -81.17,-27.835  -58.937,-33.156  C  -58.937,-33.156  -47.902,-65.886  74.102,-65.883  C  196.106,-65.886  207.141,-33.156  207.141,-33.156  C  229.374,-27.835  238.806,-22.717  238.806,-22.717  L  288.339,-55.33  L  283.245,-84.893  C  230.959,-92.641  208.306,-115.884  74.102,-115.884  C  -60.102,-115.884  -82.755,-92.641  -135.041,-84.893  L  -140.135,-55.33  z " />
<path transform="translate( -0.13800000000001, -0.039000000000001 )" style="stroke: hsl(134.5, 55%, 50%);" id="1512"  d=" M  -139.068,-55.969  L  -89.283,-23.2  C  -89.283,-23.2  -80.134,-28.209  -57.913,-33.485  C  -57.913,-33.485  -47.868,-65.876  74.135,-65.875  C  196.138,-65.876  206.183,-33.485  206.183,-33.485  C  228.404,-28.209  237.553,-23.2  237.553,-23.2  L  287.338,-55.969  L  281.855,-85.464  C  229.925,-93.067  208.338,-115.875  74.135,-115.875  C  -60.068,-115.875  -81.655,-93.067  -133.585,-85.464  L  -139.068,-55.969  z " />
<path transform="translate( -0.179, -0.049999999999997 )" style="stroke: hsl(161.4, 55%, 50%);" id="1816"  d=" M  -139.771,-55.592  L  -90.105,-22.855  C  -90.105,-22.855  -80.766,-27.938  -58.63,-33.223  C  -58.63,-33.223  -47.827,-65.865  74.176,-65.864  C  196.179,-65.865  206.982,-33.223  206.982,-33.223  C  229.118,-27.938  238.457,-22.855  238.457,-22.855  L  288.123,-55.592  L  282.904,-85.135  C  230.722,-92.817  208.379,-115.864  74.176,-115.864  C  -60.027,-115.864  -82.37,-92.817  -134.552,-85.135  L  -139.771,-55.592  z " />
<path transform="translate( -0.217, -0.058000000000007 )" style="stroke: hsl(188.3, 55%, 50%);" id="2120"  d=" M  -140.137,-55.457  L  -90.461,-22.688  C  -90.461,-22.688  -81.035,-27.806  -58.808,-33.127  C  -58.808,-33.127  -47.788,-65.856  74.214,-65.856  C  196.216,-65.856  207.236,-33.127  207.236,-33.127  C  229.463,-27.806  238.889,-22.688  238.889,-22.688  L  288.565,-55.457  L  284.03,-85.112  C  231.576,-92.798  208.416,-115.857  74.214,-115.856  C  -59.988,-115.857  -83.148,-92.798  -135.602,-85.112  L  -140.137,-55.457  z " />
<path transform="translate( -0.25, -0.067000000000007 )" style="stroke: hsl(215.2, 55%, 50%);" id="2424"  d=" M  -139.285,-55.922  L  -89.459,-23.049  C  -89.459,-23.049  -80.247,-28.085  -58.101,-33.355  C  -58.101,-33.355  -47.756,-65.847  74.247,-65.847  C  196.25,-65.847  206.595,-33.355  206.595,-33.355  C  228.741,-28.085  237.953,-23.049  237.953,-23.049  L  287.779,-55.922  L  282.432,-85.442  C  230.386,-93.043  208.45,-115.846  74.247,-115.846  C  -59.956,-115.846  -81.892,-93.043  -133.938,-85.442  L  -139.285,-55.922  z " />
<path transform="translate( -0.29000000000001, -0.079999999999998 )" style="stroke: hsl(242.1, 55%, 50%);" id="2728"  d=" M  -139.859,-55.629  L  -90.109,-22.768  C  -90.109,-22.768  -80.744,-27.864  -58.582,-33.161  C  -58.582,-33.161  -47.716,-65.835  74.287,-65.834  C  196.29,-65.835  207.156,-33.161  207.156,-33.161  C  229.318,-27.864  238.683,-22.768  238.683,-22.768  L  288.433,-55.629  L  283.469,-85.216  C  231.173,-92.871  208.49,-115.834  74.287,-115.834  C  -59.916,-115.834  -82.599,-92.871  -134.895,-85.216  L  -139.859,-55.629  z " />
<path transform="translate( -0.322, -0.091000000000008 )" style="stroke: hsl(269, 55%, 50%);" id="3032"  d=" M  -138.664,-56.331  L  -88.653,-23.306  C  -88.653,-23.306  -79.603,-28.28  -57.343,-33.553  C  -57.343,-33.553  -47.683,-65.824  74.319,-65.823  C  196.321,-65.824  205.981,-33.553  205.981,-33.553  C  228.241,-28.28  237.291,-23.306  237.291,-23.306  L  287.302,-56.331  L  281.829,-85.828  C  229.951,-93.327  208.521,-115.824  74.319,-115.824  C  -59.883,-115.824  -81.313,-93.327  -133.191,-85.828  L  -138.664,-56.331  z " />
<path transform="translate( -0.36199999999999, -0.10000000000001 )" style="stroke: hsl(295.9, 55%, 50%);" id="3336"  d=" M  -139.321,-55.973  L  -89.421,-22.981  C  -89.421,-22.981  -80.192,-28.025  -58.029,-33.303  C  -58.029,-33.303  -47.644,-65.815  74.359,-65.814  C  196.362,-65.815  206.747,-33.303  206.747,-33.303  C  228.91,-28.025  238.139,-22.981  238.139,-22.981  L  288.039,-55.973  L  282.809,-85.513  C  230.697,-93.088  208.562,-115.814  74.359,-115.814  C  -59.844,-115.814  -81.979,-93.088  -134.091,-85.513  L  -139.321,-55.973  z " />
    </g>
    <!-- End of group #collar -->
    
    <!-- Start of group #collarstand -->
    <g id="collarstand"  transform=" translate(64.349 70.914)  translate(580.708 722.611) " >
        <path class="hidden" id="6"  d=" M  -59.349,-65.914  L  207.343,-65.914  L  207.343,-33.09  L  -59.349,-33.09  z " />
<path transform="translate( 0, 0 )" style="stroke: hsl(26.9, 55%, 50%);" id="297"  d=" M  -58.623,-33.33  C  -58.623,-33.33  -48.006,-65.914  73.997,-65.914  C  196,-65.914  206.617,-33.33  206.617,-33.33  C  180.903,-39.463  138.659,-45.914  73.997,-45.914  C  9.335,-45.914  -32.909,-39.463  -58.623,-33.33  z " />
<path transform="translate( -0.036000000000001, -0.0090000000000003 )" style="stroke: hsl(53.8, 55%, 50%);" id="601"  d=" M  -59.313,-33.081  C  -59.313,-33.081  -47.97,-65.904  74.033,-65.905  C  196.036,-65.904  207.379,-33.081  207.379,-33.081  C  181.164,-39.366  138.695,-45.904  74.033,-45.905  C  9.371,-45.904  -33.098,-39.366  -59.313,-33.081  z " />
<path transform="translate( -0.067999999999998, -0.021000000000001 )" style="stroke: hsl(80.7, 55%, 50%);" id="905"  d=" M  -58.376,-33.373  C  -58.376,-33.373  -47.937,-65.892  74.065,-65.893  C  196.067,-65.892  206.506,-33.373  206.506,-33.373  C  180.879,-39.474  138.726,-45.892  74.065,-45.893  C  9.404,-45.892  -32.749,-39.474  -58.376,-33.373  z " />
<path transform="translate( -0.105, -0.030999999999999 )" style="stroke: hsl(107.6, 55%, 50%);" id="1209"  d=" M  -58.937,-33.156  C  -58.937,-33.156  -47.902,-65.886  74.102,-65.883  C  196.106,-65.886  207.141,-33.156  207.141,-33.156  C  181.15,-39.377  138.764,-45.885  74.102,-45.883  C  9.44,-45.885  -32.946,-39.377  -58.937,-33.156  z " />
<path transform="translate( -0.13800000000001, -0.039000000000001 )" style="stroke: hsl(134.5, 55%, 50%);" id="1513"  d=" M  -57.913,-33.485  C  -57.913,-33.485  -47.868,-65.876  74.135,-65.875  C  196.138,-65.876  206.183,-33.485  206.183,-33.485  C  180.821,-39.506  138.797,-45.876  74.135,-45.875  C  9.473,-45.876  -32.551,-39.506  -57.913,-33.485  z " />
<path transform="translate( -0.179, -0.050000000000004 )" style="stroke: hsl(161.4, 55%, 50%);" id="1817"  d=" M  -58.63,-33.223  C  -58.63,-33.223  -47.827,-65.865  74.176,-65.864  C  196.179,-65.865  206.982,-33.223  206.982,-33.223  C  181.104,-39.401  138.838,-45.865  74.176,-45.864  C  9.514,-45.865  -32.752,-39.401  -58.63,-33.223  z " />
<path transform="translate( -0.217, -0.058 )" style="stroke: hsl(188.3, 55%, 50%);" id="2121"  d=" M  -58.808,-33.127  C  -58.808,-33.127  -47.788,-65.856  74.214,-65.856  C  196.216,-65.856  207.236,-33.127  207.236,-33.127  C  181.253,-39.348  138.875,-45.856  74.214,-45.856  C  9.553,-45.856  -32.825,-39.348  -58.808,-33.127  z " />
<path transform="translate( -0.25, -0.067 )" style="stroke: hsl(215.2, 55%, 50%);" id="2425"  d=" M  -58.101,-33.355  C  -58.101,-33.355  -47.756,-65.847  74.247,-65.847  C  196.25,-65.847  206.595,-33.355  206.595,-33.355  C  181.014,-39.443  138.909,-45.847  74.247,-45.847  C  9.585,-45.847  -32.52,-39.443  -58.101,-33.355  z " />
<path transform="translate( -0.29000000000001, -0.079999999999998 )" style="stroke: hsl(242.1, 55%, 50%);" id="2729"  d=" M  -58.582,-33.161  C  -58.582,-33.161  -47.716,-65.835  74.287,-65.834  C  196.29,-65.835  207.156,-33.161  207.156,-33.161  C  181.248,-39.355  138.949,-45.835  74.287,-45.834  C  9.625,-45.835  -32.674,-39.355  -58.582,-33.161  z " />
<path transform="translate( -0.322, -0.091000000000001 )" style="stroke: hsl(269, 55%, 50%);" id="3033"  d=" M  -57.343,-33.553  C  -57.343,-33.553  -47.683,-65.824  74.319,-65.823  C  196.321,-65.824  205.981,-33.553  205.981,-33.553  C  180.879,-39.498  138.98,-45.824  74.319,-45.823  C  9.658,-45.824  -32.241,-39.498  -57.343,-33.553  z " />
<path transform="translate( -0.36199999999999, -0.1 )" style="stroke: hsl(295.9, 55%, 50%);" id="3337"  d=" M  -58.029,-33.303  C  -58.029,-33.303  -47.644,-65.815  74.359,-65.814  C  196.362,-65.815  206.747,-33.303  206.747,-33.303  C  181.147,-39.401  139.021,-45.815  74.359,-45.814  C  9.697,-45.815  -32.429,-39.401  -58.029,-33.303  z " />
    </g>
    <!-- End of group #collarstand -->
    
    <!-- Start of group #undercollar -->
    <g id="undercollar"  transform=" translate(145.427 120.915)  translate(438.848 784.359) " >
        <path class="hidden" id="7"  d=" M  -140.427,-115.915  L  288.421,-115.915  L  288.421,-22.637  L  -140.427,-22.637  z " />
<path transform="translate( 0, 0 )" style="stroke: hsl(26.9, 55%, 50%);" id="298"  d=" M  -139.726,-55.469  L  -90.205,-22.948  C  -90.205,-22.948  -48.006,-45.914  73.997,-45.914  C  196,-45.914  238.199,-22.948  238.199,-22.948  L  287.72,-55.469  L  282.322,-84.98  C  230.241,-92.713  208.2,-115.913  73.997,-115.913  C  -60.206,-115.913  -82.247,-92.713  -134.328,-84.98  L  -139.726,-55.469  z " />
<path transform="translate( -0.036000000000001, -0.0090000000000003 )" style="stroke: hsl(53.8, 55%, 50%);" id="602"  d=" M  -140.391,-55.127  L  -90.969,-22.628  C  -90.969,-22.628  -47.97,-45.904  74.033,-45.905  C  196.036,-45.904  239.035,-22.628  239.035,-22.628  L  288.457,-55.127  L  283.454,-84.707  C  231.099,-92.506  208.236,-115.905  74.033,-115.905  C  -60.17,-115.905  -83.033,-92.506  -135.388,-84.707  L  -140.391,-55.127  z " />
<path transform="translate( -0.067999999999998, -0.021000000000001 )" style="stroke: hsl(80.7, 55%, 50%);" id="906"  d=" M  -139.455,-55.686  L  -89.811,-23.045  C  -89.811,-23.045  -47.937,-45.892  74.065,-45.893  C  196.067,-45.892  237.941,-23.045  237.941,-23.045  L  287.585,-55.686  L  282.153,-85.189  C  230.131,-92.865  208.267,-115.893  74.065,-115.893  C  -60.137,-115.893  -82.001,-92.865  -134.023,-85.189  L  -139.455,-55.686  z " />
<path transform="translate( -0.105, -0.030999999999999 )" style="stroke: hsl(107.6, 55%, 50%);" id="1210"  d=" M  -140.135,-55.33  L  -90.602,-22.717  C  -90.602,-22.717  -47.902,-45.886  74.102,-45.883  C  196.106,-45.886  238.806,-22.717  238.806,-22.717  L  288.339,-55.33  L  283.245,-84.893  C  230.959,-92.641  208.306,-115.884  74.102,-115.884  C  -60.102,-115.884  -82.755,-92.641  -135.041,-84.893  L  -140.135,-55.33  z " />
<path transform="translate( -0.13800000000001, -0.039000000000001 )" style="stroke: hsl(134.5, 55%, 50%);" id="1514"  d=" M  -139.068,-55.969  L  -89.283,-23.2  C  -89.283,-23.2  -47.868,-45.876  74.135,-45.875  C  196.138,-45.876  237.553,-23.2  237.553,-23.2  L  287.338,-55.969  L  281.855,-85.464  C  229.925,-93.067  208.338,-115.875  74.135,-115.875  C  -60.068,-115.875  -81.655,-93.067  -133.585,-85.464  L  -139.068,-55.969  z " />
<path transform="translate( -0.179, -0.050000000000004 )" style="stroke: hsl(161.4, 55%, 50%);" id="1818"  d=" M  -139.771,-55.592  L  -90.105,-22.855  C  -90.105,-22.855  -47.827,-45.865  74.176,-45.864  C  196.179,-45.865  238.457,-22.855  238.457,-22.855  L  288.123,-55.592  L  282.904,-85.135  C  230.722,-92.817  208.379,-115.864  74.176,-115.864  C  -60.027,-115.864  -82.37,-92.817  -134.552,-85.135  L  -139.771,-55.592  z " />
<path transform="translate( -0.217, -0.058 )" style="stroke: hsl(188.3, 55%, 50%);" id="2122"  d=" M  -140.137,-55.457  L  -90.461,-22.688  C  -90.461,-22.688  -47.788,-45.856  74.214,-45.856  C  196.216,-45.856  238.889,-22.688  238.889,-22.688  L  288.565,-55.457  L  284.03,-85.112  C  231.576,-92.798  208.416,-115.857  74.214,-115.856  C  -59.988,-115.857  -83.148,-92.798  -135.602,-85.112  L  -140.137,-55.457  z " />
<path transform="translate( -0.25, -0.067 )" style="stroke: hsl(215.2, 55%, 50%);" id="2426"  d=" M  -139.285,-55.922  L  -89.459,-23.049  C  -89.459,-23.049  -47.756,-45.847  74.247,-45.847  C  196.25,-45.847  237.953,-23.049  237.953,-23.049  L  287.779,-55.922  L  282.432,-85.442  C  230.386,-93.043  208.45,-115.846  74.247,-115.846  C  -59.956,-115.846  -81.892,-93.043  -133.938,-85.442  L  -139.285,-55.922  z " />
<path transform="translate( -0.29000000000001, -0.079999999999998 )" style="stroke: hsl(242.1, 55%, 50%);" id="2730"  d=" M  -139.859,-55.629  L  -90.109,-22.768  C  -90.109,-22.768  -47.716,-45.835  74.287,-45.834  C  196.29,-45.835  238.683,-22.768  238.683,-22.768  L  288.433,-55.629  L  283.469,-85.216  C  231.173,-92.871  208.49,-115.834  74.287,-115.834  C  -59.916,-115.834  -82.599,-92.871  -134.895,-85.216  L  -139.859,-55.629  z " />
<path transform="translate( -0.322, -0.091000000000001 )" style="stroke: hsl(269, 55%, 50%);" id="3034"  d=" M  -138.664,-56.331  L  -88.653,-23.306  C  -88.653,-23.306  -47.683,-45.824  74.319,-45.823  C  196.321,-45.824  237.291,-23.306  237.291,-23.306  L  287.302,-56.331  L  281.829,-85.828  C  229.951,-93.327  208.521,-115.824  74.319,-115.824  C  -59.883,-115.824  -81.313,-93.327  -133.191,-85.828  L  -138.664,-56.331  z " />
<path transform="translate( -0.36199999999999, -0.1 )" style="stroke: hsl(295.9, 55%, 50%);" id="3338"  d=" M  -139.321,-55.973  L  -89.421,-22.981  C  -89.421,-22.981  -47.644,-45.815  74.359,-45.814  C  196.362,-45.815  238.139,-22.981  238.139,-22.981  L  288.039,-55.973  L  282.809,-85.513  C  230.697,-93.088  208.562,-115.814  74.359,-115.814  C  -59.844,-115.814  -81.979,-93.088  -134.091,-85.513  L  -139.321,-55.973  z " />
    </g>
    <!-- End of group #undercollar -->
    
    <!-- Start of group #topsleeve -->
    <g id="topsleeve"  transform=" translate(182.186 5)  translate(580.708 0) " >
        <path class="hidden" id="8"  d=" M  -177.186,0  L  122.16,0  L  122.16,712.611  L  -177.186,712.611  z " />
<path transform="translate( 0, 0 )" style="stroke: hsl(26.9, 55%, 50%);" id="299"  d=" M  108.073,410  C  116.008,365  120.081,251.456  120.081,188.592  C  120.081,125.728  108.073,62.864  108.073,62.864  C  108.073,62.864  67.546,0  0,0  C  -67.546,0  -99.067,62.864  -108.073,113.155  C  -117.079,163.446  -121.582,188.592  -135.091,188.592  C  -135.091,188.592  -122.878,352.11  -120.081,410  L  -106.095,699.449  L  95.09,712.611  L  108.411,638.152  L  72.54,611.519  L  108.073,410  z " />
<path transform="translate( -1.869, 0 )" style="stroke: hsl(53.8, 55%, 50%);" id="603"  d=" M  109.942,410  C  117.877,365  122.158,253.2  122.158,189.9  C  122.158,126.6  109.942,63.3  109.942,63.3  C  109.942,63.3  68.714,0  0,0  C  -68.714,0  -100.78,63.3  -109.942,113.94  C  -119.104,164.58  -123.685,189.9  -137.427,189.9  C  -137.427,189.9  -125.658,351.923  -122.158,410  L  -104.658,700.383  L  96.974,712.375  L  110.274,638.151  L  74.409,611.519  L  109.942,410  z " />
<path transform="translate( -3.699, 0 )" style="stroke: hsl(80.7, 55%, 50%);" id="907"  d=" M  111.772,410  C  119.707,365  124.191,254.8  124.191,191.1  C  124.191,127.4  111.772,63.7  111.772,63.7  C  111.772,63.7  69.858,0  0,0  C  -69.858,0  -102.457,63.7  -111.772,114.66  C  -121.087,165.62  -125.744,191.1  -139.715,191.1  C  -139.715,191.1  -128.38,351.739  -124.191,410  L  -103.247,701.303  L  98.816,712.143  L  112.098,638.15  L  76.239,611.519  L  111.772,410  z " />
<path transform="translate( -5.59, 0 )" style="stroke: hsl(107.6, 55%, 50%);" id="1211"  d=" M  113.663,410  C  121.598,365  126.292,256.511  126.292,192.383  C  126.292,128.255  113.663,64.128  113.663,64.128  C  113.663,64.128  71.039,0  0,0  C  -71.039,0  -104.191,64.128  -113.663,115.43  C  -123.135,166.732  -127.871,192.383  -142.079,192.383  C  -142.079,192.383  -131.194,351.548  -126.292,410  L  -101.784,702.259  L  100.72,711.903  L  113.983,638.149  L  78.13,611.519  L  113.663,410  z " />
<path transform="translate( -7.462, 0 )" style="stroke: hsl(134.5, 55%, 50%);" id="1515"  d=" M  115.535,410  C  123.47,365  128.372,258.132  128.372,193.599  C  128.372,129.066  115.535,64.533  115.535,64.533  C  115.535,64.533  72.209,0  0,0  C  -72.209,0  -105.907,64.532  -115.535,116.159  C  -125.163,167.786  -129.977,193.599  -144.419,193.599  C  -144.419,193.599  -133.981,351.358  -128.372,410  L  -100.329,703.211  L  102.602,711.665  L  115.848,638.148  L  80.002,611.519  L  115.535,410  z " />
<path transform="translate( -9.137, 0 )" style="stroke: hsl(161.4, 55%, 50%);" id="1819"  d=" M  117.21,410  C  125.145,365  130.233,259.234  130.233,194.425  C  130.233,129.616  117.21,64.808  117.21,64.808  C  117.21,64.808  73.256,0  0,0  C  -73.256,0  -107.443,64.808  -117.21,116.655  C  -126.977,168.502  -131.861,194.425  -146.512,194.425  C  -146.512,194.425  -136.475,351.187  -130.233,410  L  -99.022,704.067  L  104.286,711.452  L  117.517,638.147  L  81.677,611.519  L  117.21,410  z " />
<path transform="translate( -11.18, 0 )" style="stroke: hsl(188.3, 55%, 50%);" id="2123"  d=" M  119.253,410  C  127.188,365  132.503,261.19  132.503,195.892  C  132.503,130.594  119.253,65.297  119.253,65.297  C  119.253,65.297  74.533,0  0,0  C  -74.533,0  -109.315,65.297  -119.253,117.535  C  -129.191,169.773  -134.16,195.892  -149.066,195.892  C  -149.066,195.892  -139.519,350.976  -132.503,410  L  -97.423,705.117  L  106.337,711.192  L  119.552,638.146  L  83.72,611.519  L  119.253,410  z " />
<path transform="translate( -13.113, 0 )" style="stroke: hsl(215.2, 55%, 50%);" id="2427"  d=" M  121.186,410  C  129.121,365  134.651,262.84  134.651,197.13  C  134.651,131.42  121.186,65.71  121.186,65.71  C  121.186,65.71  75.741,0  0,0  C  -75.741,0  -111.087,65.71  -121.186,118.278  C  -131.285,170.846  -136.334,197.13  -151.482,197.13  C  -151.482,197.13  -142.401,350.777  -134.651,410  L  -95.903,706.115  L  108.277,710.946  L  121.478,638.144  L  85.653,611.519  L  121.186,410  z " />
<path transform="translate( -14.976, 0 )" style="stroke: hsl(242.1, 55%, 50%);" id="2731"  d=" M  123.049,410  C  130.984,365  136.721,264.283  136.721,198.212  C  136.721,132.141  123.049,66.071  123.049,66.071  C  123.049,66.071  76.906,0  0,0  C  -76.906,0  -112.795,66.07  -123.049,118.927  C  -133.303,171.784  -138.43,198.212  -153.811,198.212  C  -153.811,198.212  -145.179,350.584  -136.721,410  L  -94.433,707.082  L  110.145,710.709  L  123.333,638.143  L  87.516,611.519  L  123.049,410  z " />
<path transform="translate( -16.881, 0 )" style="stroke: hsl(269, 55%, 50%);" id="3035"  d=" M  124.954,410  C  132.889,365  138.838,265.792  138.838,199.344  C  138.838,132.896  124.954,66.448  124.954,66.448  C  124.954,66.448  78.096,0  0,0  C  -78.096,0  -114.541,66.447  -124.954,119.606  C  -135.367,172.765  -140.573,199.344  -156.192,199.344  C  -156.192,199.344  -148.021,350.385  -138.838,410  L  -92.924,708.077  L  112.053,710.466  L  125.229,638.141  L  89.421,611.519  L  124.954,410  z " />
<path transform="translate( -18.709, 0 )" style="stroke: hsl(295.9, 55%, 50%);" id="3339"  d=" M  126.782,410  C  134.717,365  140.869,267.088  140.869,200.316  C  140.869,133.544  126.782,66.772  126.782,66.772  C  126.782,66.772  79.239,0  0,0  C  -79.239,0  -116.217,66.773  -126.782,120.19  C  -137.347,173.607  -142.63,200.316  -158.477,200.316  C  -158.477,200.316  -150.749,350.193  -140.869,410  L  -91.469,709.035  L  113.884,710.233  L  127.049,638.14  L  91.249,611.519  L  126.782,410  z " />
    </g>
    <!-- End of group #topsleeve -->
    
    <!-- Start of group #undersleeve -->
    <g id="undersleeve"  transform=" translate(118.796 -57.864)  translate(890.054 0) " >
        <path class="hidden" id="9"  d=" M  -113.796,62.864  L  110.339,62.864  L  110.339,713.524  L  -113.796,713.524  z " />
<path transform="translate( 0, 0 )" style="stroke: hsl(26.9, 55%, 50%);" id="300"  d=" M  55.175,710  L  95.019,713.524  L  108.429,638.156  L  72.54,611.519  L  108.073,410  C  116.008,365  100.943,251.266  96.065,188.592  C  91.187,125.918  81.055,62.864  81.055,62.864  C  63.509,124.269  -13.509,188.592  -54.037,188.592  L  -81.055,188.592  C  -81.055,188.592  -63.102,352.086  -63.043,410  L  -62.75,699.57  L  55.175,710  z " />
<path transform="translate( -1.869, 0 )" style="stroke: hsl(53.8, 55%, 50%);" id="604"  d=" M  57.044,710  L  96.907,713.304  L  110.294,638.155  L  74.409,611.519  L  109.942,410  C  117.877,365  102.729,253.002  97.726,189.9  C  92.723,126.798  82.456,63.3  82.456,63.3  C  64.687,125.12  -13.743,189.9  -54.971,189.9  L  -82.457,189.9  C  -82.457,189.9  -64.847,351.949  -64.133,410  L  -60.565,700.251  L  57.044,710  z " />
<path transform="translate( -3.699, 0 )" style="stroke: hsl(80.7, 55%, 50%);" id="908"  d=" M  58.874,710  L  98.754,713.089  L  112.12,638.154  L  76.239,611.519  L  111.772,410  C  119.707,365  104.476,254.594  99.353,191.1  C  94.23,127.606  83.829,63.7  83.829,63.7  C  65.834,125.896  -13.972,191.1  -55.886,191.1  L  -83.829,191.1  C  -83.829,191.1  -66.556,351.817  -65.2,410  L  -58.421,700.916  L  58.874,710  z " />
<path transform="translate( -5.59, 0 )" style="stroke: hsl(107.6, 55%, 50%);" id="1212"  d=" M  60.765,710  L  100.662,712.866  L  114.006,638.153  L  78.13,611.519  L  113.663,410  C  121.598,365  106.285,256.296  101.034,192.383  C  95.783,128.47  85.247,64.128  85.247,64.128  C  67.025,126.729  -14.208,192.383  -56.831,192.383  L  -85.247,192.383  C  -85.247,192.383  -68.323,351.68  -66.303,410  L  -56.201,701.598  L  60.765,710  z " />
<path transform="translate( -7.462, 0 )" style="stroke: hsl(134.5, 55%, 50%);" id="1516"  d=" M  62.637,710  L  102.55,712.645  L  115.874,638.153  L  80.002,611.519  L  115.535,410  C  123.47,365  108.075,257.908  102.698,193.599  C  97.321,129.29  86.651,64.533  86.651,64.533  C  68.193,127.514  -14.442,193.599  -57.767,193.599  L  -86.651,193.599  C  -86.651,193.599  -70.074,351.546  -67.395,410  L  -54,702.271  L  62.637,710  z " />
<path transform="translate( -9.137, 0 )" style="stroke: hsl(161.4, 55%, 50%);" id="1820"  d=" M  64.312,710  L  104.237,712.447  L  117.544,638.152  L  81.677,611.519  L  117.21,410  C  125.145,365  109.669,259.002  104.187,194.425  C  98.705,129.848  87.907,64.808  87.907,64.808  C  69.267,128.049  -14.651,194.425  -58.605,194.425  L  -87.908,194.425  C  -87.908,194.425  -71.642,351.426  -68.373,410  L  -52.028,702.87  L  64.312,710  z " />
<path transform="translate( -11.18, 0 )" style="stroke: hsl(188.3, 55%, 50%);" id="2124"  d=" M  66.355,710  L  106.294,712.205  L  119.581,638.151  L  83.72,611.519  L  119.253,410  C  127.188,365  111.63,260.947  106.003,195.892  C  100.376,130.837  89.44,65.297  89.44,65.297  C  70.535,128.997  -14.907,195.892  -59.627,195.892  L  -89.44,195.892  C  -89.44,195.892  -73.553,351.281  -69.564,410  L  -49.617,703.596  L  66.355,710  z " />
<path transform="translate( -13.113, 0 )" style="stroke: hsl(215.2, 55%, 50%);" id="2428"  d=" M  68.288,710  L  108.239,711.976  L  121.508,638.15  L  85.653,611.519  L  121.186,410  C  129.121,365  113.481,262.587  107.721,197.13  C  101.961,131.673  90.889,65.71  90.889,65.71  C  71.772,129.806  -15.148,197.13  -60.593,197.13  L  -90.89,197.13  C  -90.89,197.13  -75.364,351.144  -70.692,410  L  -47.334,704.281  L  68.288,710  z " />
<path transform="translate( -14.976, 0 )" style="stroke: hsl(242.1, 55%, 50%);" id="2732"  d=" M  70.151,710  L  110.112,711.755  L  123.365,638.148  L  87.516,611.519  L  123.049,410  C  130.984,365  115.263,264.02  109.377,198.212  C  103.491,132.404  92.287,66.071  92.287,66.071  C  72.932,130.499  -15.381,198.212  -61.525,198.212  L  -92.287,198.212  C  -92.287,198.212  -77.109,351.013  -71.779,410  L  -45.128,704.936  L  70.151,710  z " />
<path transform="translate( -16.881, 0 )" style="stroke: hsl(269, 55%, 50%);" id="3036"  d=" M  72.056,710  L  112.027,711.53  L  125.264,638.147  L  89.421,611.519  L  124.954,410  C  132.889,365  117.087,265.519  111.07,199.344  C  105.053,133.169  93.715,66.448  93.715,66.448  C  74.148,131.235  -15.619,199.344  -62.477,199.344  L  -93.716,199.344  C  -93.716,199.344  -78.894,350.88  -72.89,410  L  -42.869,705.602  L  72.056,710  z " />
<path transform="translate( -18.709, 0 )" style="stroke: hsl(295.9, 55%, 50%);" id="3340"  d=" M  73.884,710  L  113.863,711.313  L  127.085,638.146  L  91.249,611.519  L  126.782,410  C  134.717,365  118.835,266.805  112.695,200.316  C  106.555,133.827  95.086,66.772  95.086,66.772  C  75.327,131.868  -15.848,200.316  -63.391,200.316  L  -95.087,200.316  C  -95.087,200.316  -80.608,350.752  -73.956,410  L  -40.698,706.238  L  73.884,710  z " />
    </g>
    <!-- End of group #undersleeve -->
    
    <!-- Start of group #pocket -->
    <g id="pocket"  transform=" translate(5 45)  translate(1266.122 0) " >
        <path class="hidden" id="10"  d=" M  0,-40  L  162,-40  L  162,196.388  L  0,196.388  z " />
<path transform="translate( 0, 0 )" style="stroke: hsl(26.9, 55%, 50%);" id="301"  d=" M  0,-40  L  0,163.988  C  -0,181.882  14.506,196.388  32.4,196.388  L  129.6,196.388  C  147.494,196.388  162,181.882  162,163.988  L  162,-40  z " />
<path transform="translate( 0, 0 )" style="stroke: hsl(53.8, 55%, 50%);" id="605"  d=" M  0,-40  L  0,163.988  C  -0,181.882  14.506,196.388  32.4,196.388  L  129.6,196.388  C  147.494,196.388  162,181.882  162,163.988  L  162,-40  z " />
<path transform="translate( 0, 0 )" style="stroke: hsl(80.7, 55%, 50%);" id="909"  d=" M  0,-40  L  0,163.988  C  -0,181.882  14.506,196.388  32.4,196.388  L  129.6,196.388  C  147.494,196.388  162,181.882  162,163.988  L  162,-40  z " />
<path transform="translate( 0, 0 )" style="stroke: hsl(107.6, 55%, 50%);" id="1213"  d=" M  0,-40  L  0,163.988  C  -0,181.882  14.506,196.388  32.4,196.388  L  129.6,196.388  C  147.494,196.388  162,181.882  162,163.988  L  162,-40  z " />
<path transform="translate( 0, 0 )" style="stroke: hsl(134.5, 55%, 50%);" id="1517"  d=" M  0,-40  L  0,163.988  C  -0,181.882  14.506,196.388  32.4,196.388  L  129.6,196.388  C  147.494,196.388  162,181.882  162,163.988  L  162,-40  z " />
<path transform="translate( 0, 0 )" style="stroke: hsl(161.4, 55%, 50%);" id="1821"  d=" M  0,-40  L  0,163.988  C  -0,181.882  14.506,196.388  32.4,196.388  L  129.6,196.388  C  147.494,196.388  162,181.882  162,163.988  L  162,-40  z " />
<path transform="translate( 0, 0 )" style="stroke: hsl(188.3, 55%, 50%);" id="2125"  d=" M  0,-40  L  0,163.988  C  -0,181.882  14.506,196.388  32.4,196.388  L  129.6,196.388  C  147.494,196.388  162,181.882  162,163.988  L  162,-40  z " />
<path transform="translate( 0, 0 )" style="stroke: hsl(215.2, 55%, 50%);" id="2429"  d=" M  0,-40  L  0,163.988  C  -0,181.882  14.506,196.388  32.4,196.388  L  129.6,196.388  C  147.494,196.388  162,181.882  162,163.988  L  162,-40  z " />
<path transform="translate( 0, 0 )" style="stroke: hsl(242.1, 55%, 50%);" id="2733"  d=" M  0,-40  L  0,163.988  C  -0,181.882  14.506,196.388  32.4,196.388  L  129.6,196.388  C  147.494,196.388  162,181.882  162,163.988  L  162,-40  z " />
<path transform="translate( 0, 0 )" style="stroke: hsl(269, 55%, 50%);" id="3037"  d=" M  0,-40  L  0,163.988  C  -0,181.882  14.506,196.388  32.4,196.388  L  129.6,196.388  C  147.494,196.388  162,181.882  162,163.988  L  162,-40  z " />
<path transform="translate( 0, 0 )" style="stroke: hsl(295.9, 55%, 50%);" id="3341"  d=" M  0,-40  L  0,163.988  C  -0,181.882  14.506,196.388  32.4,196.388  L  129.6,196.388  C  147.494,196.388  162,181.882  162,163.988  L  162,-40  z " />
    </g>
    <!-- End of group #pocket -->
    
    <!-- Start of group #chestPocketWelt -->
    <g id="chestPocketWelt"  transform=" translate(6.975 20)  translate(1266.122 521.934) " >
        <path class="hidden" id="11"  d=" M  -1.975,-15  L  105,-15  L  105,15  L  -1.975,15  z " />
<path transform="translate( 0, 0 )" style="stroke: hsl(26.9, 55%, 50%);" id="302"  d=" M  -1.975,15  L  103.025,15  L  105,0  L  103.025,-15  L  -1.975,-15  L  0,0  z " />
<path transform="translate( 0, 0 )" style="stroke: hsl(53.8, 55%, 50%);" id="606"  d=" M  -1.975,15  L  103.025,15  L  105,0  L  103.025,-15  L  -1.975,-15  L  0,0  z " />
<path transform="translate( 0, 0 )" style="stroke: hsl(80.7, 55%, 50%);" id="910"  d=" M  -1.975,15  L  103.025,15  L  105,0  L  103.025,-15  L  -1.975,-15  L  0,0  z " />
<path transform="translate( 0, 0 )" style="stroke: hsl(107.6, 55%, 50%);" id="1214"  d=" M  -1.975,15  L  103.025,15  L  105,0  L  103.025,-15  L  -1.975,-15  L  0,0  z " />
<path transform="translate( 0, 0 )" style="stroke: hsl(134.5, 55%, 50%);" id="1518"  d=" M  -1.975,15  L  103.025,15  L  105,0  L  103.025,-15  L  -1.975,-15  L  0,0  z " />
<path transform="translate( 0, 0 )" style="stroke: hsl(161.4, 55%, 50%);" id="1822"  d=" M  -1.975,15  L  103.025,15  L  105,0  L  103.025,-15  L  -1.975,-15  L  0,0  z " />
<path transform="translate( 0, 0 )" style="stroke: hsl(188.3, 55%, 50%);" id="2126"  d=" M  -1.975,15  L  103.025,15  L  105,0  L  103.025,-15  L  -1.975,-15  L  0,0  z " />
<path transform="translate( 0, 0 )" style="stroke: hsl(215.2, 55%, 50%);" id="2430"  d=" M  -1.975,15  L  103.025,15  L  105,0  L  103.025,-15  L  -1.975,-15  L  0,0  z " />
<path transform="translate( 0, 0 )" style="stroke: hsl(242.1, 55%, 50%);" id="2734"  d=" M  -1.975,15  L  103.025,15  L  105,0  L  103.025,-15  L  -1.975,-15  L  0,0  z " />
<path transform="translate( 0, 0 )" style="stroke: hsl(269, 55%, 50%);" id="3038"  d=" M  -1.975,15  L  103.025,15  L  105,0  L  103.025,-15  L  -1.975,-15  L  0,0  z " />
<path transform="translate( 0, 0 )" style="stroke: hsl(295.9, 55%, 50%);" id="3342"  d=" M  -1.975,15  L  103.025,15  L  105,0  L  103.025,-15  L  -1.975,-15  L  0,0  z " />
    </g>
    <!-- End of group #chestPocketWelt -->
    
    <!-- Start of group #chestPocketBag -->
    <g id="chestPocketBag"  transform=" translate(5 22.773)  translate(1266.122 376.388) " >
        <path class="hidden" id="12"  d=" M  0,-17.773  L  135,-17.773  L  135,117.773  L  0,117.773  z " />
<path transform="translate( 0, 0 )" style="stroke: hsl(26.9, 55%, 50%);" id="303"  d=" M  0,40  L  0,0  L  135,-17.773  L  135,40  M  135,60  L  135,117.773  L  0,100  L  0,60 " />
<path transform="translate( 0, 0 )" style="stroke: hsl(53.8, 55%, 50%);" id="607"  d=" M  0,40  L  0,0  L  135,-17.773  L  135,40  M  135,60  L  135,117.773  L  0,100  L  0,60 " />
<path transform="translate( 0, 0 )" style="stroke: hsl(80.7, 55%, 50%);" id="911"  d=" M  0,40  L  0,0  L  135,-17.773  L  135,40  M  135,60  L  135,117.773  L  0,100  L  0,60 " />
<path transform="translate( 0, 0 )" style="stroke: hsl(107.6, 55%, 50%);" id="1215"  d=" M  0,40  L  0,0  L  135,-17.773  L  135,40  M  135,60  L  135,117.773  L  0,100  L  0,60 " />
<path transform="translate( 0, 0 )" style="stroke: hsl(134.5, 55%, 50%);" id="1519"  d=" M  0,40  L  0,0  L  135,-17.773  L  135,40  M  135,60  L  135,117.773  L  0,100  L  0,60 " />
<path transform="translate( 0, 0 )" style="stroke: hsl(161.4, 55%, 50%);" id="1823"  d=" M  0,40  L  0,0  L  135,-17.773  L  135,40  M  135,60  L  135,117.773  L  0,100  L  0,60 " />
<path transform="translate( 0, 0 )" style="stroke: hsl(188.3, 55%, 50%);" id="2127"  d=" M  0,40  L  0,0  L  135,-17.773  L  135,40  M  135,60  L  135,117.773  L  0,100  L  0,60 " />
<path transform="translate( 0, 0 )" style="stroke: hsl(215.2, 55%, 50%);" id="2431"  d=" M  0,40  L  0,0  L  135,-17.773  L  135,40  M  135,60  L  135,117.773  L  0,100  L  0,60 " />
<path transform="translate( 0, 0 )" style="stroke: hsl(242.1, 55%, 50%);" id="2735"  d=" M  0,40  L  0,0  L  135,-17.773  L  135,40  M  135,60  L  135,117.773  L  0,100  L  0,60 " />
<path transform="translate( 0, 0 )" style="stroke: hsl(269, 55%, 50%);" id="3039"  d=" M  0,40  L  0,0  L  135,-17.773  L  135,40  M  135,60  L  135,117.773  L  0,100  L  0,60 " />
<path transform="translate( 0, 0 )" style="stroke: hsl(295.9, 55%, 50%);" id="3343"  d=" M  0,40  L  0,0  L  135,-17.773  L  135,40  M  135,60  L  135,117.773  L  0,100  L  0,60 " />
    </g>
    <!-- End of group #chestPocketBag -->
    
    <!-- Start of group #innerPocketWelt -->
    <g id="innerPocketWelt"  transform=" translate(5 5)  translate(1266.122 246.388) " >
        <path class="hidden" id="13"  d=" M  0,0  L  155,0  L  155,10  L  0,10  z " />
<path transform="translate( 0, 0 )" style="stroke: hsl(26.9, 55%, 50%);" id="304"  d=" M  0,0  L  155,0  L  155,10  L  0,10  z " />
<path transform="translate( 0, 0 )" style="stroke: hsl(53.8, 55%, 50%);" id="608"  d=" M  0,0  L  155,0  L  155,10  L  0,10  z " />
<path transform="translate( 0, 0 )" style="stroke: hsl(80.7, 55%, 50%);" id="912"  d=" M  0,0  L  155,0  L  155,10  L  0,10  z " />
<path transform="translate( 0, 0 )" style="stroke: hsl(107.6, 55%, 50%);" id="1216"  d=" M  0,0  L  155,0  L  155,10  L  0,10  z " />
<path transform="translate( 0, 0 )" style="stroke: hsl(134.5, 55%, 50%);" id="1520"  d=" M  0,0  L  155,0  L  155,10  L  0,10  z " />
<path transform="translate( 0, 0 )" style="stroke: hsl(161.4, 55%, 50%);" id="1824"  d=" M  0,0  L  155,0  L  155,10  L  0,10  z " />
<path transform="translate( 0, 0 )" style="stroke: hsl(188.3, 55%, 50%);" id="2128"  d=" M  0,0  L  155,0  L  155,10  L  0,10  z " />
<path transform="translate( 0, 0 )" style="stroke: hsl(215.2, 55%, 50%);" id="2432"  d=" M  0,0  L  155,0  L  155,10  L  0,10  z " />
<path transform="translate( 0, 0 )" style="stroke: hsl(242.1, 55%, 50%);" id="2736"  d=" M  0,0  L  155,0  L  155,10  L  0,10  z " />
<path transform="translate( 0, 0 )" style="stroke: hsl(269, 55%, 50%);" id="3040"  d=" M  0,0  L  155,0  L  155,10  L  0,10  z " />
<path transform="translate( 0, 0 )" style="stroke: hsl(295.9, 55%, 50%);" id="3344"  d=" M  0,0  L  155,0  L  155,10  L  0,10  z " />
    </g>
    <!-- End of group #innerPocketWelt -->
    
    <!-- Start of group #innerPocketBag -->
    <g id="innerPocketBag"  transform=" translate(5 5)  translate(1266.122 266.388) " >
        <path class="hidden" id="14"  d=" M  0,0  L  155,0  L  155,100  L  0,100  z " />
<path transform="translate( 0, 0 )" style="stroke: hsl(26.9, 55%, 50%);" id="305"  d=" M  0,40  L  0,0  L  155,0  L  155,40  M  155,60  L  155,100  L  0,100  L  0,60 " />
<path transform="translate( 0, 0 )" style="stroke: hsl(53.8, 55%, 50%);" id="609"  d=" M  0,40  L  0,0  L  155,0  L  155,40  M  155,60  L  155,100  L  0,100  L  0,60 " />
<path transform="translate( 0, 0 )" style="stroke: hsl(80.7, 55%, 50%);" id="913"  d=" M  0,40  L  0,0  L  155,0  L  155,40  M  155,60  L  155,100  L  0,100  L  0,60 " />
<path transform="translate( 0, 0 )" style="stroke: hsl(107.6, 55%, 50%);" id="1217"  d=" M  0,40  L  0,0  L  155,0  L  155,40  M  155,60  L  155,100  L  0,100  L  0,60 " />
<path transform="translate( 0, 0 )" style="stroke: hsl(134.5, 55%, 50%);" id="1521"  d=" M  0,40  L  0,0  L  155,0  L  155,40  M  155,60  L  155,100  L  0,100  L  0,60 " />
<path transform="translate( 0, 0 )" style="stroke: hsl(161.4, 55%, 50%);" id="1825"  d=" M  0,40  L  0,0  L  155,0  L  155,40  M  155,60  L  155,100  L  0,100  L  0,60 " />
<path transform="translate( 0, 0 )" style="stroke: hsl(188.3, 55%, 50%);" id="2129"  d=" M  0,40  L  0,0  L  155,0  L  155,40  M  155,60  L  155,100  L  0,100  L  0,60 " />
<path transform="translate( 0, 0 )" style="stroke: hsl(215.2, 55%, 50%);" id="2433"  d=" M  0,40  L  0,0  L  155,0  L  155,40  M  155,60  L  155,100  L  0,100  L  0,60 " />
<path transform="translate( 0, 0 )" style="stroke: hsl(242.1, 55%, 50%);" id="2737"  d=" M  0,40  L  0,0  L  155,0  L  155,40  M  155,60  L  155,100  L  0,100  L  0,60 " />
<path transform="translate( 0, 0 )" style="stroke: hsl(269, 55%, 50%);" id="3041"  d=" M  0,40  L  0,0  L  155,0  L  155,40  M  155,60  L  155,100  L  0,100  L  0,60 " />
<path transform="translate( 0, 0 )" style="stroke: hsl(295.9, 55%, 50%);" id="3345"  d=" M  0,40  L  0,0  L  155,0  L  155,40  M  155,60  L  155,100  L  0,100  L  0,60 " />
    </g>
    <!-- End of group #innerPocketBag -->
    
    <!-- Start of group #innerPocketFacingExtension -->
    <g id="innerPocketFacingExtension" >
    </g>
    <!-- End of group #innerPocketFacingExtension -->
    
    <!-- Start of group #sampler-back -->
    <g id="sampler-back" >
    </g>
    <!-- End of group #sampler-back -->
    
    <!-- Start of group #sampler-front -->
    <g id="sampler-front" >
    </g>
    <!-- End of group #sampler-front -->
    
    <!-- Start of group #sampler-side -->
    <g id="sampler-side" >
    </g>
    <!-- End of group #sampler-side -->
    
    <!-- Start of group #sampler-collar -->
    <g id="sampler-collar" >
    </g>
    <!-- End of group #sampler-collar -->
    
    <!-- Start of group #sampler-collarstand -->
    <g id="sampler-collarstand" >
    </g>
    <!-- End of group #sampler-collarstand -->
    
    <!-- Start of group #sampler-undercollar -->
    <g id="sampler-undercollar" >
    </g>
    <!-- End of group #sampler-undercollar -->
    
    <!-- Start of group #sampler-topsleeve -->
    <g id="sampler-topsleeve" >
    </g>
    <!-- End of group #sampler-topsleeve -->
    
    <!-- Start of group #sampler-undersleeve -->
    <g id="sampler-undersleeve" >
    </g>
    <!-- End of group #sampler-undersleeve -->
    
    <!-- Start of group #sampler-pocket -->
    <g id="sampler-pocket" >
    </g>
    <!-- End of group #sampler-pocket -->
    
    <!-- Start of group #sampler-chestPocketWelt -->
    <g id="sampler-chestPocketWelt" >
    </g>
    <!-- End of group #sampler-chestPocketWelt -->
    
    <!-- Start of group #sampler-chestPocketBag -->
    <g id="sampler-chestPocketBag" >
    </g>
    <!-- End of group #sampler-chestPocketBag -->
    
    <!-- Start of group #sampler-innerPocketWelt -->
    <g id="sampler-innerPocketWelt" >
    </g>
    <!-- End of group #sampler-innerPocketWelt -->
    
    <!-- Start of group #sampler-innerPocketBag -->
    <g id="sampler-innerPocketBag" >
    </g>
    <!-- End of group #sampler-innerPocketBag -->
</g>
<!-- End of group #patternContainer -->

</svg>

