<?xml version="1.0" encoding="UTF-8" standalone="no"?>
<svg
    xmlns="http://www.w3.org/2000/svg"
    xmlns:svg="http://www.w3.org/2000/svg"
    xmlns:xlink="http://www.w3.org/1999/xlink"
    xmlns:freesewing="http://freesewing.org/namespaces/freesewing" viewBox ="0 0 1460 888"
    width ="1460mm"
    height ="888mm"
    freesewing:version ="1.7.0"
    freesewing:origin ="core.she.freesewing.org" 
>

<style type="text/css">
    <![CDATA[
    path { fill: none; stroke: #000000; stroke-opacity:1; stroke-width: 0.5; stroke-miterlimit:4; stroke-dashoffset:0; stroke-linecap:round; stroke-linejoin:round; }
    path.hidden { fill: none; stroke: none; }]]>
</style>


<!-- Start of group #patternContainer -->
<g id="patternContainer" >
    
    <!-- Start of group #backBlock -->
    <g id="backBlock" >
    </g>
    <!-- End of group #backBlock -->
    
    <!-- Start of group #frontBlock -->
    <g id="frontBlock" >
    </g>
    <!-- End of group #frontBlock -->
    
    <!-- Start of group #sleeveBlock -->
    <g id="sleeveBlock" >
    </g>
    <!-- End of group #sleeveBlock -->
    
    <!-- Start of group #topsleeveBlock -->
    <g id="topsleeveBlock" >
    </g>
    <!-- End of group #topsleeveBlock -->
    
    <!-- Start of group #undersleeveBlock -->
    <g id="undersleeveBlock" >
    </g>
    <!-- End of group #undersleeveBlock -->
    
    <!-- Start of group #back -->
    <g id="back"  transform=" translate(5 5)  translate(326.6 0) " >
        <path class="hidden" id="2"  d=" M  0,0  L  265.147,0  L  265.147,751.85  L  0,751.85  z " />
<path transform="translate( 0, 0 )" style="stroke: hsl(26.9, 55%, 50%);" id="290"  d=" M  5.4,20  C  5.4,20  84.058,19.814  86.777,0  L  232.5,20  C  231.14,29.907  220,110.083  220,155.125  C  220,200.167  226.085,254.785  240.775,269.475  C  226.085,284.165  216.022,416.492  216.022,490  C  216.022,509.333  217.482,528.667  219.234,548  L  259.071,557.369  C  262.599,581.952  265.147,608.95  265.147,635  L  265.147,751.85  L  1.25,751.85  L  1.25,635  C  1.25,586.667  8.625,538.333  8.625,490  C  8.625,393.389  -0,296.778  0,200.167  C  0,110.083  5.4,20  5.4,20  z " />
<path transform="translate( 0, 0 )" style="stroke: hsl(53.8, 55%, 50%);" id="594"  d=" M  5.4,20  C  5.4,20  84.058,19.814  86.777,0  L  232.5,20  C  231.14,29.907  220,110.083  220,155.125  C  220,200.167  226.36,253.18  241.715,268.535  C  226.36,283.89  214.897,416.178  214.897,490  C  214.897,509.333  216.341,528.667  218.074,548  L  257.922,557.436  C  261.404,582  263.922,608.969  263.922,635  L  263.922,751.85  L  3.25,751.85  L  3.25,635  C  3.25,586.667  9.825,538.333  9.825,490  C  9.825,393.389  -0,296.778  0,200.167  C  0,110.083  5.4,20  5.4,20  z " />
<path transform="translate( 0, 0 )" style="stroke: hsl(80.7, 55%, 50%);" id="898"  d=" M  5.4,20  C  5.4,20  84.058,19.814  86.777,0  L  232.5,20  C  231.14,29.907  220,110.083  220,155.125  C  220,200.167  226.625,251.639  242.618,267.632  C  226.625,283.625  213.762,415.877  213.762,490  C  213.762,509.333  215.19,528.667  216.904,548  L  256.764,557.505  C  260.201,582.054  262.687,608.988  262.687,635  L  262.687,751.85  L  5.25,751.85  L  5.25,635  C  5.25,586.667  11.025,538.333  11.025,490  C  11.025,393.389  -0,296.778  0,200.167  C  0,110.083  5.4,20  5.4,20  z " />
<path transform="translate( 0, 0 )" style="stroke: hsl(107.6, 55%, 50%);" id="1202"  d=" M  5.4,20  C  5.4,20  84.058,19.814  86.777,0  L  232.5,20  C  231.14,29.907  220,110.083  220,155.125  C  220,200.167  226.879,250.157  243.486,266.764  C  226.879,283.371  212.616,415.588  212.616,490  C  212.616,509.333  214.028,528.667  215.722,548  L  255.593,557.573  C  258.984,582.101  261.441,609.017  261.441,635  L  261.441,751.85  L  7.25,751.85  L  7.25,635  C  7.25,586.667  12.225,538.333  12.225,490  C  12.225,393.389  -0,296.778  0,200.167  C  0,110.083  5.4,20  5.4,20  z " />
<path transform="translate( 0, 0 )" style="stroke: hsl(134.5, 55%, 50%);" id="1506"  d=" M  5.4,20  C  5.4,20  84.058,19.814  86.777,0  L  232.5,20  C  231.14,29.907  220,110.083  220,155.125  C  220,200.167  227.123,248.731  244.321,265.929  C  227.123,283.127  211.46,415.31  211.46,490  C  211.46,509.333  212.856,528.667  214.531,548  L  254.412,557.64  C  257.76,582.166  260.185,609.034  260.185,635  L  260.185,751.85  L  9.25,751.85  L  9.25,635  C  9.25,586.667  13.425,538.333  13.425,490  C  13.425,393.389  -0,296.778  0,200.167  C  0,110.083  5.4,20  5.4,20  z " />
<path transform="translate( 0, 0 )" style="stroke: hsl(161.4, 55%, 50%);" id="1810"  d=" M  5.4,20  C  5.4,20  84.058,19.814  86.777,0  L  232.5,20  C  231.14,29.907  220,110.083  220,155.125  C  220,200.167  227.359,247.359  245.125,265.125  C  227.359,282.891  210.296,415.042  210.296,490  C  210.296,509.333  211.676,528.667  213.332,548  L  253.224,557.708  C  256.526,582.211  258.921,609.051  258.921,635  L  258.921,751.85  L  11.25,751.85  L  11.25,635  C  11.25,586.667  14.625,538.333  14.625,490  C  14.625,393.389  -0,296.778  0,200.167  C  0,110.083  5.4,20  5.4,20  z " />
<path transform="translate( 0, 0 )" style="stroke: hsl(188.3, 55%, 50%);" id="2114"  d=" M  5.4,20  C  5.4,20  84.058,19.814  86.777,0  L  232.5,20  C  231.14,29.907  220,110.083  220,155.125  C  220,200.167  227.586,246.038  245.899,264.351  C  227.586,282.664  209.123,414.784  209.123,490  C  209.123,509.333  210.487,528.667  212.124,548  L  252.027,557.777  C  255.283,582.257  257.648,609.079  257.648,635  L  257.648,751.85  L  13.25,751.85  L  13.25,635  C  13.25,586.667  15.825,538.333  15.825,490  C  15.825,393.389  -0,296.778  0,200.167  C  0,110.083  5.4,20  5.4,20  z " />
<path transform="translate( 0, 0 )" style="stroke: hsl(215.2, 55%, 50%);" id="2418"  d=" M  5.4,20  C  5.4,20  84.058,19.814  86.777,0  L  232.5,20  C  231.14,29.907  220,110.083  220,155.125  C  220,200.167  227.805,244.761  246.647,263.603  C  227.805,282.445  207.942,414.534  207.942,490  C  207.942,509.333  209.29,528.667  210.908,548  L  250.821,557.845  C  254.034,582.322  256.367,609.094  256.367,635  L  256.367,751.85  L  15.25,751.85  L  15.25,635  C  15.25,586.667  17.025,538.333  17.025,490  C  17.025,393.389  -0,296.778  0,200.167  C  0,110.083  5.4,20  5.4,20  z " />
<path transform="translate( 0, 0 )" style="stroke: hsl(242.1, 55%, 50%);" id="2722"  d=" M  5.4,20  C  5.4,20  84.058,19.814  86.777,0  L  232.5,20  C  231.14,29.907  220,110.083  220,155.125  C  220,200.167  228.016,243.532  247.367,262.883  C  228.016,282.234  206.753,414.294  206.753,490  C  206.753,509.333  208.085,528.667  209.683,548  L  249.607,557.913  C  252.777,582.383  255.078,609.109  255.078,635  L  255.078,751.85  L  17.25,751.85  L  17.25,635  C  17.25,586.667  18.225,538.333  18.225,490  C  18.225,393.389  -0,296.778  0,200.167  C  0,110.083  5.4,20  5.4,20  z " />
<path transform="translate( 0, 0 )" style="stroke: hsl(269, 55%, 50%);" id="3026"  d=" M  5.4,20  C  5.4,20  84.058,19.814  86.777,0  L  232.5,20  C  231.14,29.907  220,110.083  220,155.125  C  220,200.167  228.219,242.345  248.062,262.188  C  228.219,282.031  205.556,414.063  205.556,490  C  205.556,509.333  206.872,528.667  208.451,548  L  248.386,557.982  C  251.509,582.424  253.781,609.136  253.781,635  L  253.781,751.85  L  19.25,751.85  L  19.25,635  C  19.25,586.667  19.425,538.333  19.425,490  C  19.425,393.389  -0,296.778  0,200.167  C  0,110.083  5.4,20  5.4,20  z " />
<path transform="translate( 0, 0 )" style="stroke: hsl(295.9, 55%, 50%);" id="3330"  d=" M  5.4,20  C  5.4,20  84.058,19.814  86.777,0  L  232.5,20  C  231.14,29.907  220,110.083  220,155.125  C  220,200.167  228.416,241.196  248.735,261.515  C  228.416,281.834  204.353,413.838  204.353,490  C  204.353,509.333  205.653,528.667  207.213,548  L  247.158,558.052  C  250.236,582.489  252.478,609.162  252.478,635  L  252.478,751.85  L  21.25,751.85  L  21.25,635  C  21.25,586.667  20.625,538.333  20.625,490  C  20.625,393.389  -0,296.778  0,200.167  C  0,110.083  5.4,20  5.4,20  z " />
    </g>
    <!-- End of group #back -->
    
    <!-- Start of group #front -->
    <g id="front"  transform=" translate(26.6 11.162)  translate(0 0) " >
        <path class="hidden" id="3"  d=" M  -21.6,-6.162  L  295,-6.162  L  295,768.404  L  -21.6,768.404  z " />
<path transform="translate( 0, 0 )" style="stroke: hsl(26.9, 55%, 50%);" id="291"  d=" M  148.064,500.875  L  234.119,500.875  M  243.098,697.263  L  113.4,697.263  L  113.4,500.875  L  139.864,500.875 " />
<path transform="translate( 0, 0 )" style="stroke: hsl(26.9, 55%, 50%);" id="292"  d=" M  -21.6,420.088  C  -21.6,287.443  -18.441,92.362  -18.441,92.362  L  11.54,91.285  L  66.013,67.4  L  95.195,-6.004  L  238.653,20.466  C  235.931,35.217  218,110.083  218,155.125  C  218,200.167  226.085,254.785  240.775,269.475  C  250.03,278.73  257.238,284.569  265,287.601  C  265,287.601  233.973,416.492  233.973,490  C  233.973,538.333  243.098,586.667  243.098,635  L  243.098,757.378  L  72.929,767.844  C  12.155,771.582  -11.996,738.527  -19.939,594.627  C  -21.6,564.535  -21.6,541.553  -21.6,518.572  L  -21.6,420.088  z  M  143.964,562.5  C  143.964,562.5  148.277,514.167  148.277,490  C  148.277,445.611  143.964,356.833  143.964,356.833  C  143.964,356.833  139.651,445.611  139.651,490  C  139.651,514.167  143.964,562.5  143.964,562.5  z " />
<path transform="translate( 0, 0 )" style="stroke: hsl(26.9, 55%, 50%);" id="293"  d=" M  82.5,290.25  L  82.5,275.12  L  186.602,261.415  L  186.602,276.545  L  82.5,290.25  z " />
<path transform="translate( 0, 0 )" style="stroke: hsl(26.9, 55%, 50%);" id="294"  d=" M  -21.6,420.088  L  51.57,73.733 " />
<path transform="translate( 0, 0 )" style="stroke: hsl(53.8, 55%, 50%);" id="595"  d=" M  148.635,500.875  L  236.718,500.875  M  245.598,697.263  L  113.4,697.263  L  113.4,500.875  L  139.293,500.875 " />
<path transform="translate( 0, 0 )" style="stroke: hsl(53.8, 55%, 50%);" id="596"  d=" M  -21.6,420.088  C  -21.6,287.442  -18.441,92.346  -18.441,92.346  L  11.54,91.268  L  66.015,67.383  L  95.195,-6.017  L  238.653,20.45  C  235.931,35.201  218,110.083  218,155.125  C  218,200.167  226.36,253.18  241.715,268.535  C  251.389,278.209  259.306,284.312  268,287.563  C  268,287.563  236.573,416.178  236.573,490  C  236.573,538.333  245.598,586.667  245.598,635  L  245.598,757.502  L  73.68,767.882  C  12.28,771.589  -11.996,738.527  -19.939,594.627  C  -21.6,564.535  -21.6,541.553  -21.6,518.572  L  -21.6,420.088  z  M  143.964,562.5  C  143.964,562.5  148.877,514.167  148.877,490  C  148.877,445.611  143.964,356.833  143.964,356.833  C  143.964,356.833  139.051,445.611  139.051,490  C  139.051,514.167  143.964,562.5  143.964,562.5  z " />
<path transform="translate( 0, 0 )" style="stroke: hsl(53.8, 55%, 50%);" id="597"  d=" M  82.5,290.25  L  82.5,275.12  L  186.602,261.415  L  186.602,276.545  L  82.5,290.25  z " />
<path transform="translate( 0, 0 )" style="stroke: hsl(53.8, 55%, 50%);" id="598"  d=" M  -21.6,420.088  L  51.572,73.716 " />
<path transform="translate( 0, 0 )" style="stroke: hsl(80.7, 55%, 50%);" id="899"  d=" M  149.205,500.875  L  239.316,500.875  M  248.098,697.263  L  113.4,697.263  L  113.4,500.875  L  138.723,500.875 " />
<path transform="translate( 0, 0 )" style="stroke: hsl(80.7, 55%, 50%);" id="900"  d=" M  -21.6,420.088  C  -21.6,287.441  -18.441,92.327  -18.441,92.327  L  11.54,91.251  L  66.016,67.365  L  95.195,-6.032  L  238.653,20.431  C  235.932,35.182  218,110.083  218,155.125  C  218,200.167  226.625,251.639  242.618,267.632  C  252.854,277.868  261.613,284.266  271,287.529  C  271,287.529  239.173,415.877  239.173,490  C  239.173,538.333  248.098,586.667  248.098,635  L  248.098,757.621  L  74.429,767.917  C  12.405,771.595  -11.996,738.527  -19.939,594.627  C  -21.6,564.535  -21.6,541.553  -21.6,518.572  L  -21.6,420.088  z  M  143.964,562.5  C  143.964,562.5  149.477,514.167  149.477,490  C  149.477,445.611  143.964,356.833  143.964,356.833  C  143.964,356.833  138.451,445.611  138.451,490  C  138.451,514.167  143.964,562.5  143.964,562.5  z " />
<path transform="translate( 0, 0 )" style="stroke: hsl(80.7, 55%, 50%);" id="901"  d=" M  82.5,290.25  L  82.5,275.12  L  186.602,261.415  L  186.602,276.545  L  82.5,290.25  z " />
<path transform="translate( 0, 0 )" style="stroke: hsl(80.7, 55%, 50%);" id="902"  d=" M  -21.6,420.088  L  51.573,73.698 " />
<path transform="translate( 0, 0 )" style="stroke: hsl(107.6, 55%, 50%);" id="1203"  d=" M  149.776,500.875  L  241.914,500.875  M  250.598,697.263  L  113.4,697.263  L  113.4,500.875  L  138.152,500.875 " />
<path transform="translate( 0, 0 )" style="stroke: hsl(107.6, 55%, 50%);" id="1204"  d=" M  -21.6,420.088  C  -21.6,287.439  -18.441,92.313  -18.441,92.313  L  11.54,91.238  L  66.016,67.352  L  95.195,-6.049  L  238.653,20.417  C  235.932,35.168  218,110.083  218,155.125  C  218,200.167  226.879,250.157  243.486,266.764  C  254.114,277.392  263.637,284.036  274,287.498  C  274,287.498  241.773,415.588  241.773,490  C  241.773,538.333  250.598,586.667  250.598,635  L  250.598,757.737  L  75.18,767.952  C  12.53,771.6  -11.996,738.527  -19.939,594.627  C  -21.6,564.535  -21.6,541.553  -21.6,518.572  L  -21.6,420.088  z  M  143.964,562.5  C  143.964,562.5  150.077,514.167  150.077,490  C  150.077,445.611  143.964,356.833  143.964,356.833  C  143.964,356.833  137.851,445.611  137.851,490  C  137.851,514.167  143.964,562.5  143.964,562.5  z " />
<path transform="translate( 0, 0 )" style="stroke: hsl(107.6, 55%, 50%);" id="1205"  d=" M  82.5,290.25  L  82.5,275.12  L  186.602,261.415  L  186.602,276.545  L  82.5,290.25  z " />
<path transform="translate( 0, 0 )" style="stroke: hsl(107.6, 55%, 50%);" id="1206"  d=" M  -21.6,420.088  L  51.573,73.685 " />
<path transform="translate( 0, 0 )" style="stroke: hsl(134.5, 55%, 50%);" id="1507"  d=" M  150.346,500.875  L  244.513,500.875  M  253.098,697.263  L  113.4,697.263  L  113.4,500.875  L  137.582,500.875 " />
<path transform="translate( 0, 0 )" style="stroke: hsl(134.5, 55%, 50%);" id="1508"  d=" M  -21.6,420.088  C  -21.6,287.438  -18.441,92.297  -18.441,92.297  L  11.54,91.219  L  66.018,67.332  L  95.196,-6.065  L  238.653,20.401  C  235.932,35.152  218,110.083  218,155.125  C  218,200.167  227.123,248.731  244.321,265.929  C  255.5,277.108  265.953,284.03  277,287.469  C  277,287.469  244.373,415.31  244.373,490  C  244.373,538.333  253.098,586.667  253.098,635  L  253.098,757.849  L  75.93,767.986  C  12.655,771.606  -11.996,738.527  -19.939,594.627  C  -21.6,564.535  -21.6,541.553  -21.6,518.572  L  -21.6,420.088  z  M  143.964,562.5  C  143.964,562.5  150.677,514.167  150.677,490  C  150.677,445.611  143.964,356.833  143.964,356.833  C  143.964,356.833  137.251,445.611  137.251,490  C  137.251,514.167  143.964,562.5  143.964,562.5  z " />
<path transform="translate( 0, 0 )" style="stroke: hsl(134.5, 55%, 50%);" id="1509"  d=" M  82.5,290.25  L  82.5,275.12  L  186.602,261.415  L  186.602,276.545  L  82.5,290.25  z " />
<path transform="translate( 0, 0 )" style="stroke: hsl(134.5, 55%, 50%);" id="1510"  d=" M  -21.6,420.088  L  51.574,73.665 " />
<path transform="translate( 0, 0 )" style="stroke: hsl(161.4, 55%, 50%);" id="1811"  d=" M  150.916,500.875  L  247.111,500.875  M  255.598,697.263  L  113.4,697.263  L  113.4,500.875  L  137.012,500.875 " />
<path transform="translate( 0, 0 )" style="stroke: hsl(161.4, 55%, 50%);" id="1812"  d=" M  -21.6,420.088  C  -21.6,287.436  -18.441,92.277  -18.441,92.277  L  11.54,91.205  L  66.018,67.317  L  95.197,-6.081  L  238.653,20.383  C  235.932,35.134  218,110.083  218,155.125  C  218,200.167  227.359,247.359  245.125,265.125  C  256.673,276.673  267.943,283.824  280,287.442  C  280,287.442  246.973,415.042  246.973,490  C  246.973,538.333  255.598,586.667  255.598,635  L  255.598,757.957  L  76.68,768.018  C  12.78,771.611  -11.996,738.527  -19.939,594.627  C  -21.6,564.535  -21.6,541.553  -21.6,518.572  L  -21.6,420.088  z  M  143.964,562.5  C  143.964,562.5  151.277,514.167  151.277,490  C  151.277,445.611  143.964,356.833  143.964,356.833  C  143.964,356.833  136.651,445.611  136.651,490  C  136.651,514.167  143.964,562.5  143.964,562.5  z " />
<path transform="translate( 0, 0 )" style="stroke: hsl(161.4, 55%, 50%);" id="1813"  d=" M  82.5,290.25  L  82.5,275.12  L  186.602,261.415  L  186.602,276.545  L  82.5,290.25  z " />
<path transform="translate( 0, 0 )" style="stroke: hsl(161.4, 55%, 50%);" id="1814"  d=" M  -21.6,420.088  L  51.576,73.65 " />
<path transform="translate( 0, 0 )" style="stroke: hsl(188.3, 55%, 50%);" id="2115"  d=" M  151.487,500.875  L  249.71,500.875  M  258.098,697.263  L  113.4,697.263  L  113.4,500.875  L  136.441,500.875 " />
<path transform="translate( 0, 0 )" style="stroke: hsl(188.3, 55%, 50%);" id="2116"  d=" M  -21.6,420.088  C  -21.6,287.435  -18.441,92.265  -18.441,92.265  L  11.54,91.19  L  66.017,67.302  L  95.195,-6.099  L  238.653,20.368  C  235.932,35.119  218,110.083  218,155.125  C  218,200.167  227.586,246.038  245.899,264.351  C  257.986,276.438  270.279,283.851  283,287.417  C  283,287.417  249.573,414.784  249.573,490  C  249.573,538.333  258.098,586.667  258.098,635  L  258.098,758.062  L  77.43,768.05  C  12.905,771.617  -11.996,738.527  -19.939,594.627  C  -21.6,564.535  -21.6,541.553  -21.6,518.572  L  -21.6,420.088  z  M  143.964,562.5  C  143.964,562.5  151.877,514.167  151.877,490  C  151.877,445.611  143.964,356.833  143.964,356.833  C  143.964,356.833  136.051,445.611  136.051,490  C  136.051,514.167  143.964,562.5  143.964,562.5  z " />
<path transform="translate( 0, 0 )" style="stroke: hsl(188.3, 55%, 50%);" id="2117"  d=" M  82.5,290.25  L  82.5,275.12  L  186.602,261.415  L  186.602,276.545  L  82.5,290.25  z " />
<path transform="translate( 0, 0 )" style="stroke: hsl(188.3, 55%, 50%);" id="2118"  d=" M  -21.6,420.088  L  51.576,73.634 " />
<path transform="translate( 0, 0 )" style="stroke: hsl(215.2, 55%, 50%);" id="2419"  d=" M  152.057,500.875  L  252.308,500.875  M  260.598,697.263  L  113.4,697.263  L  113.4,500.875  L  135.871,500.875 " />
<path transform="translate( 0, 0 )" style="stroke: hsl(215.2, 55%, 50%);" id="2420"  d=" M  -21.6,420.088  C  -21.6,287.434  -18.441,92.248  -18.441,92.248  L  11.54,91.173  L  66.018,67.285  L  95.194,-6.112  L  238.653,20.352  C  235.932,35.103  218,110.083  218,155.125  C  218,200.167  227.805,244.761  246.647,263.603  C  259.083,276.039  272.245,283.667  286,287.394  C  286,287.394  252.173,414.534  252.173,490  C  252.173,538.333  260.598,586.667  260.598,635  L  260.598,758.164  L  78.18,768.08  C  13.03,771.622  -11.996,738.527  -19.939,594.627  C  -21.6,564.535  -21.6,541.553  -21.6,518.572  L  -21.6,420.088  z  M  143.964,562.5  C  143.964,562.5  152.477,514.167  152.477,490  C  152.477,445.611  143.964,356.833  143.964,356.833  C  143.964,356.833  135.451,445.611  135.451,490  C  135.451,514.167  143.964,562.5  143.964,562.5  z " />
<path transform="translate( 0, 0 )" style="stroke: hsl(215.2, 55%, 50%);" id="2421"  d=" M  82.5,290.25  L  82.5,275.12  L  186.602,261.415  L  186.602,276.545  L  82.5,290.25  z " />
<path transform="translate( 0, 0 )" style="stroke: hsl(215.2, 55%, 50%);" id="2422"  d=" M  -21.6,420.088  L  51.577,73.617 " />
<path transform="translate( 0, 0 )" style="stroke: hsl(242.1, 55%, 50%);" id="2723"  d=" M  152.628,500.875  L  254.906,500.875  M  263.098,697.263  L  113.4,697.263  L  113.4,500.875  L  135.3,500.875 " />
<path transform="translate( 0, 0 )" style="stroke: hsl(242.1, 55%, 50%);" id="2724"  d=" M  -21.6,420.088  C  -21.6,287.432  -18.441,92.234  -18.441,92.234  L  11.54,91.157  L  66.018,67.269  L  95.194,-6.134  L  238.653,20.337  C  235.931,35.088  218,110.083  218,155.125  C  218,200.167  228.016,243.532  247.367,262.883  C  260.139,275.655  274.187,283.489  289,287.372  C  289,287.372  254.773,414.294  254.773,490  C  254.773,538.333  263.098,586.667  263.098,635  L  263.098,758.263  L  78.929,768.11  C  13.155,771.627  -11.996,738.527  -19.939,594.627  C  -21.6,564.535  -21.6,541.553  -21.6,518.572  L  -21.6,420.088  z  M  143.964,562.5  C  143.964,562.5  153.077,514.167  153.077,490  C  153.077,445.611  143.964,356.833  143.964,356.833  C  143.964,356.833  134.851,445.611  134.851,490  C  134.851,514.167  143.964,562.5  143.964,562.5  z " />
<path transform="translate( 0, 0 )" style="stroke: hsl(242.1, 55%, 50%);" id="2725"  d=" M  82.5,290.25  L  82.5,275.12  L  186.602,261.415  L  186.602,276.545  L  82.5,290.25  z " />
<path transform="translate( 0, 0 )" style="stroke: hsl(242.1, 55%, 50%);" id="2726"  d=" M  -21.6,420.088  L  51.577,73.601 " />
<path transform="translate( 0, 0 )" style="stroke: hsl(269, 55%, 50%);" id="3027"  d=" M  153.198,500.875  L  257.505,500.875  M  265.598,697.263  L  113.4,697.263  L  113.4,500.875  L  134.73,500.875 " />
<path transform="translate( 0, 0 )" style="stroke: hsl(269, 55%, 50%);" id="3028"  d=" M  -21.6,420.088  C  -21.6,287.431  -18.441,92.218  -18.441,92.218  L  11.54,91.139  L  66.022,67.25  L  95.198,-6.145  L  238.653,20.323  C  235.931,35.074  218,110.083  218,155.125  C  218,200.167  228.219,242.345  248.062,262.188  C  261.158,275.284  276.107,283.317  292,287.352  C  292,287.352  257.373,414.063  257.373,490  C  257.373,538.333  265.598,586.667  265.598,635  L  265.598,758.359  L  79.68,768.139  C  13.28,771.631  -11.996,738.527  -19.939,594.627  C  -21.6,564.535  -21.6,541.553  -21.6,518.572  L  -21.6,420.088  z  M  143.964,562.5  C  143.964,562.5  153.677,514.167  153.677,490  C  153.677,445.611  143.964,356.833  143.964,356.833  C  143.964,356.833  134.251,445.611  134.251,490  C  134.251,514.167  143.964,562.5  143.964,562.5  z " />
<path transform="translate( 0, 0 )" style="stroke: hsl(269, 55%, 50%);" id="3029"  d=" M  82.5,290.25  L  82.5,275.12  L  186.602,261.415  L  186.602,276.545  L  82.5,290.25  z " />
<path transform="translate( 0, 0 )" style="stroke: hsl(269, 55%, 50%);" id="3030"  d=" M  -21.6,420.088  L  51.579,73.583 " />
<path transform="translate( 0, 0 )" style="stroke: hsl(295.9, 55%, 50%);" id="3331"  d=" M  153.768,500.875  L  260.103,500.875  M  268.098,697.263  L  113.4,697.263  L  113.4,500.875  L  134.16,500.875 " />
<path transform="translate( 0, 0 )" style="stroke: hsl(295.9, 55%, 50%);" id="3332"  d=" M  -21.6,420.088  C  -21.6,287.43  -18.441,92.203  -18.441,92.203  L  11.54,91.125  L  66.021,67.236  L  95.196,-6.162  L  238.653,20.307  C  235.931,35.058  218,110.083  218,155.125  C  218,200.167  228.416,241.196  248.735,261.515  C  262.349,275.129  278.488,283.399  295,287.333  C  295,287.333  259.973,413.838  259.973,490  C  259.973,538.333  268.098,586.667  268.098,635  L  268.098,758.452  L  80.429,768.167  C  13.405,771.636  -11.996,738.527  -19.939,594.627  C  -21.6,564.535  -21.6,541.553  -21.6,518.572  L  -21.6,420.088  z  M  143.964,562.5  C  143.964,562.5  154.277,514.167  154.277,490  C  154.277,445.611  143.964,356.833  143.964,356.833  C  143.964,356.833  133.651,445.611  133.651,490  C  133.651,514.167  143.964,562.5  143.964,562.5  z " />
<path transform="translate( 0, 0 )" style="stroke: hsl(295.9, 55%, 50%);" id="3333"  d=" M  82.5,290.25  L  82.5,275.12  L  186.602,261.415  L  186.602,276.545  L  82.5,290.25  z " />
<path transform="translate( 0, 0 )" style="stroke: hsl(295.9, 55%, 50%);" id="3334"  d=" M  -21.6,420.088  L  51.579,73.569 " />
    </g>
    <!-- End of group #front -->
    
    <!-- Start of group #side -->
    <g id="side"  transform=" translate(-235 -255.441)  translate(1137.734 0) " >
        <path class="hidden" id="4"  d=" M  240,260.441  L  380.646,260.441  L  380.646,757.378  L  240,757.378  z " />
<path transform="translate( 0, 0 )" style="stroke: hsl(26.9, 55%, 50%);" id="295"  d=" M  244.974,757.378  L  244.974,635  C  244.974,586.667  254.099,538.333  254.099,490  C  254.099,416.492  265,287.601  265,287.601  C  269.648,289.417  274.45,290.25  280,290.25  C  295,290.25  304.535,284.165  319.225,269.475  C  333.915,284.165  323.852,416.492  323.852,490  C  323.852,509.333  325.312,528.667  327.077,548.145  L  368.297,559.373  C  370.238,579.928  372.977,608.95  372.977,635  L  372.977,754.358  L  332.977,751.85  L  244.974,757.378  z " />
<path transform="translate( -5.5, -0.12399999999991 )" style="stroke: hsl(53.8, 55%, 50%);" id="599"  d=" M  250.474,757.502  L  250.474,635  C  250.474,586.667  259.499,538.333  259.499,490  C  259.499,416.178  268,287.563  268,287.563  C  272.854,289.379  278.08,290.25  284,290.25  C  300,290.25  310.93,283.89  326.285,268.535  C  341.64,283.89  330.177,416.178  330.177,490  C  330.177,509.333  331.621,528.667  333.367,548.145  L  374.575,559.413  C  376.397,578.919  379.202,608.969  379.202,635  L  379.202,754.393  L  339.202,751.85  L  250.474,757.502  z " />
<path transform="translate( -11, -0.24299999999994 )" style="stroke: hsl(80.7, 55%, 50%);" id="903"  d=" M  255.974,757.621  L  255.974,635  C  255.974,586.667  264.899,538.333  264.899,490  C  264.899,415.877  271,287.529  271,287.529  C  276.358,289.391  281.88,290.25  288,290.25  C  305,290.25  317.389,283.625  333.382,267.632  C  349.375,283.625  336.512,415.877  336.512,490  C  336.512,509.333  337.94,528.667  339.666,548.145  L  380.862,559.452  C  384.27,596.351  385.437,608.988  385.437,635  L  385.437,754.425  L  345.437,751.85  L  255.974,757.621  z " />
<path transform="translate( -16.5, -0.35899999999992 )" style="stroke: hsl(107.6, 55%, 50%);" id="1207"  d=" M  261.474,757.737  L  261.474,635  C  261.474,586.667  270.299,538.333  270.299,490  C  270.299,415.588  274,287.498  274,287.498  C  279.57,289.358  285.52,290.25  292,290.25  C  310,290.25  323.907,283.371  340.514,266.764  C  357.121,283.371  342.858,415.588  342.858,490  C  342.858,509.333  344.27,528.667  345.977,548.145  L  387.162,559.496  C  389.06,580.28  391.683,609.017  391.683,635  L  391.683,754.455  L  351.683,751.85  L  261.474,757.737  z " />
<path transform="translate( -22, -0.471 )" style="stroke: hsl(134.5, 55%, 50%);" id="1511"  d=" M  266.974,757.849  L  266.974,635  C  266.974,586.667  275.699,538.333  275.699,490  C  275.699,415.31  277,287.469  277,287.469  C  283.131,289.377  289.35,290.25  296,290.25  C  315,290.25  330.481,283.127  347.679,265.929  C  364.877,283.127  349.214,415.31  349.214,490  C  349.214,509.333  350.61,528.667  352.298,548.145  L  393.471,559.536  C  395.255,579.299  397.939,609.034  397.939,635  L  397.939,754.482  L  357.939,751.85  L  266.974,757.849  z " />
<path transform="translate( -27.5, -0.57899999999995 )" style="stroke: hsl(161.4, 55%, 50%);" id="1815"  d=" M  272.474,757.957  L  272.474,635  C  272.474,586.667  281.099,538.333  281.099,490  C  281.099,415.042  280,287.442  280,287.442  C  286.354,289.349  293,290.25  300,290.25  C  320,290.25  337.109,282.891  354.875,265.125  C  372.641,282.891  355.578,415.042  355.578,490  C  355.578,509.333  356.958,528.667  358.626,548.145  L  399.788,559.576  C  401.507,578.83  404.203,609.051  404.203,635  L  404.203,754.507  L  364.203,751.85  L  272.474,757.957  z " />
<path transform="translate( -33, -0.68399999999997 )" style="stroke: hsl(188.3, 55%, 50%);" id="2119"  d=" M  277.974,758.062  L  277.974,635  C  277.974,586.667  286.499,538.333  286.499,490  C  286.499,414.784  283,287.417  283,287.417  C  289.976,289.373  296.86,290.25  304,290.25  C  325,290.25  343.788,282.664  362.101,264.351  C  380.414,282.664  361.951,414.784  361.951,490  C  361.951,509.333  363.315,528.667  364.964,548.145  L  406.114,559.618  C  407.742,578.07  410.476,609.079  410.476,635  L  410.476,754.53  L  370.476,751.85  L  277.974,758.062  z " />
<path transform="translate( -38.5, -0.78599999999994 )" style="stroke: hsl(215.2, 55%, 50%);" id="2423"  d=" M  283.474,758.164  L  283.474,635  C  283.474,586.667  291.899,538.333  291.899,490  C  291.899,414.534  286,287.394  286,287.394  C  293.212,289.348  300.52,290.25  308,290.25  C  330,290.25  350.511,282.445  369.353,263.603  C  388.195,282.445  368.332,414.534  368.332,490  C  368.332,509.333  369.68,528.667  371.31,548.145  L  412.449,559.66  C  414.5,583.194  416.757,609.094  416.757,635  L  416.757,754.551  L  376.757,751.85  L  283.474,758.164  z " />
<path transform="translate( -44, -0.88499999999999 )" style="stroke: hsl(242.1, 55%, 50%);" id="2727"  d=" M  288.974,758.263  L  288.974,635  C  288.974,586.667  297.299,538.333  297.299,490  C  297.299,414.294  289,287.372  289,287.372  C  296.443,289.323  304.18,290.25  312,290.25  C  335,290.25  357.282,282.234  376.633,262.883  C  395.984,282.234  374.721,414.294  374.721,490  C  374.721,509.333  376.053,528.667  377.663,548.145  L  418.791,559.704  C  424.47,625.647  423.046,609.109  423.046,635  L  423.046,754.571  L  383.046,751.85  L  288.974,758.263  z " />
<path transform="translate( -49.5, -0.98099999999999 )" style="stroke: hsl(269, 55%, 50%);" id="3031"  d=" M  294.474,758.359  L  294.474,635  C  294.474,586.667  302.699,538.333  302.699,490  C  302.699,414.063  292,287.352  292,287.352  C  299.669,289.3  307.84,290.25  316,290.25  C  340,290.25  364.095,282.031  383.938,262.188  C  403.781,282.031  381.118,414.063  381.118,490  C  381.118,509.333  382.434,528.667  384.025,548.145  L  425.14,559.741  C  426.943,580.926  429.343,609.136  429.343,635  L  429.343,754.588  L  389.343,751.85  L  294.474,758.359  z " />
<path transform="translate( -55, -1.074 )" style="stroke: hsl(295.9, 55%, 50%);" id="3335"  d=" M  299.974,758.452  L  299.974,635  C  299.974,586.667  308.099,538.333  308.099,490  C  308.099,413.838  295,287.333  295,287.333  C  303.397,289.333  311.75,290.25  320,290.25  C  345,290.25  370.946,281.834  391.265,261.515  C  411.584,281.834  387.521,413.838  387.521,490  C  387.521,509.333  388.821,528.667  390.393,548.145  L  431.496,559.783  C  433.474,583.317  435.646,609.162  435.646,635  L  435.646,754.604  L  395.646,751.85  L  299.974,758.452  z " />
    </g>
    <!-- End of group #side -->
    
    <!-- Start of group #collar -->
    <g id="collar"  transform=" translate(144.771 120.788)  translate(0 784.566) " >
        <path class="hidden" id="5"  d=" M  -139.771,-115.788  L  288.127,-115.788  L  288.127,-22.775  L  -139.771,-22.775  z " />
<path transform="translate( 0, 0 )" style="stroke: hsl(26.9, 55%, 50%);" id="296"  d=" M  -139.771,-55.508  L  -90.109,-22.776  C  -90.109,-22.776  -80.768,-27.859  -58.631,-33.144  C  -58.631,-33.144  -47.825,-65.788  74.178,-65.787  C  196.181,-65.788  206.987,-33.144  206.987,-33.144  C  229.124,-27.859  238.465,-22.776  238.465,-22.776  L  288.127,-55.508  L  282.913,-85.052  C  230.73,-92.736  208.381,-115.787  74.178,-115.787  C  -60.025,-115.787  -82.374,-92.736  -134.557,-85.052  L  -139.771,-55.508  z " />
<path transform="translate( 0, 0.012999999999991 )" style="stroke: hsl(53.8, 55%, 50%);" id="600"  d=" M  -139.768,-55.523  L  -90.104,-22.789  C  -90.104,-22.789  -80.765,-27.872  -58.629,-33.157  C  -58.629,-33.157  -47.825,-65.801  74.178,-65.8  C  196.181,-65.801  206.985,-33.157  206.985,-33.157  C  229.121,-27.872  238.46,-22.789  238.46,-22.789  L  288.124,-55.523  L  282.911,-85.067  C  230.728,-92.75  208.381,-115.8  74.178,-115.8  C  -60.025,-115.8  -82.372,-92.75  -134.555,-85.067  L  -139.768,-55.523  z " />
<path transform="translate( 0.00099999999999056, 0.028999999999996 )" style="stroke: hsl(80.7, 55%, 50%);" id="904"  d=" M  -139.768,-55.54  L  -90.103,-22.807  C  -90.103,-22.807  -80.764,-27.89  -58.629,-33.175  C  -58.629,-33.175  -47.827,-65.817  74.177,-65.816  C  196.181,-65.817  206.983,-33.175  206.983,-33.175  C  229.118,-27.89  238.457,-22.807  238.457,-22.807  L  288.122,-55.54  L  282.908,-85.084  C  230.726,-92.767  208.381,-115.816  74.177,-115.816  C  -60.027,-115.816  -82.372,-92.767  -134.554,-85.084  L  -139.768,-55.54  z " />
<path transform="translate( 0.00099999999999056, 0.045999999999992 )" style="stroke: hsl(107.6, 55%, 50%);" id="1208"  d=" M  -139.771,-55.555  L  -90.106,-22.821  C  -90.106,-22.821  -80.767,-27.905  -58.63,-33.19  C  -58.63,-33.19  -47.827,-65.834  74.177,-65.833  C  196.181,-65.834  206.984,-33.19  206.984,-33.19  C  229.121,-27.905  238.46,-22.821  238.46,-22.821  L  288.125,-55.555  L  282.91,-85.099  C  230.727,-92.783  208.381,-115.833  74.177,-115.833  C  -60.027,-115.833  -82.373,-92.783  -134.556,-85.099  L  -139.771,-55.555  z " />
<path transform="translate( 0.0039999999999907, 0.060999999999993 )" style="stroke: hsl(134.5, 55%, 50%);" id="1512"  d=" M  -139.771,-55.575  L  -90.105,-22.839  C  -90.105,-22.839  -80.766,-27.922  -58.631,-33.206  C  -58.631,-33.206  -47.829,-65.848  74.174,-65.848  C  196.177,-65.848  206.979,-33.206  206.979,-33.206  C  229.114,-27.922  238.453,-22.839  238.453,-22.839  L  288.119,-55.575  L  282.904,-85.118  C  230.721,-92.801  208.377,-115.848  74.174,-115.848  C  -60.029,-115.848  -82.373,-92.801  -134.556,-85.118  L  -139.771,-55.575  z " />
<path transform="translate( 0.0019999999999953, 0.076999999999998 )" style="stroke: hsl(161.4, 55%, 50%);" id="1816"  d=" M  -139.771,-55.592  L  -90.105,-22.855  C  -90.105,-22.855  -80.766,-27.938  -58.63,-33.223  C  -58.63,-33.223  -47.827,-65.865  74.176,-65.864  C  196.179,-65.865  206.982,-33.223  206.982,-33.223  C  229.118,-27.938  238.457,-22.855  238.457,-22.855  L  288.123,-55.592  L  282.904,-85.135  C  230.722,-92.817  208.379,-115.864  74.176,-115.864  C  -60.027,-115.864  -82.37,-92.817  -134.552,-85.135  L  -139.771,-55.592  z " />
<path transform="translate( 0.0039999999999907, 0.093999999999994 )" style="stroke: hsl(188.3, 55%, 50%);" id="2120"  d=" M  -139.774,-55.606  L  -90.108,-22.87  C  -90.108,-22.87  -80.768,-27.953  -58.632,-33.238  C  -58.632,-33.238  -47.828,-65.882  74.174,-65.881  C  196.176,-65.882  206.98,-33.238  206.98,-33.238  C  229.116,-27.953  238.456,-22.87  238.456,-22.87  L  288.122,-55.606  L  282.906,-85.15  C  230.723,-92.833  208.376,-115.881  74.174,-115.881  C  -60.028,-115.881  -82.375,-92.833  -134.558,-85.15  L  -139.774,-55.606  z " />
<path transform="translate( 0.0049999999999955, 0.10799999999999 )" style="stroke: hsl(215.2, 55%, 50%);" id="2424"  d=" M  -139.772,-55.623  L  -90.105,-22.886  C  -90.105,-22.886  -80.766,-27.969  -58.631,-33.254  C  -58.631,-33.254  -47.83,-65.896  74.173,-65.895  C  196.176,-65.896  206.977,-33.254  206.977,-33.254  C  229.112,-27.969  238.451,-22.886  238.451,-22.886  L  288.118,-55.623  L  282.901,-85.167  C  230.719,-92.849  208.376,-115.894  74.173,-115.894  C  -60.03,-115.894  -82.373,-92.849  -134.555,-85.167  L  -139.772,-55.623  z " />
<path transform="translate( 0.0049999999999955, 0.12899999999999 )" style="stroke: hsl(242.1, 55%, 50%);" id="2728"  d=" M  -139.776,-55.641  L  -90.11,-22.904  C  -90.11,-22.904  -80.77,-27.988  -58.634,-33.274  C  -58.634,-33.274  -47.829,-65.919  74.173,-65.916  C  196.175,-65.919  206.98,-33.274  206.98,-33.274  C  229.116,-27.988  238.456,-22.904  238.456,-22.904  L  288.122,-55.641  L  282.908,-85.185  C  230.724,-92.867  208.375,-115.915  74.173,-115.915  C  -60.029,-115.915  -82.378,-92.867  -134.562,-85.185  L  -139.776,-55.641  z " />
<path transform="translate( 0.0069999999999908, 0.14099999999999 )" style="stroke: hsl(269, 55%, 50%);" id="3032"  d=" M  -139.774,-55.66  L  -90.106,-22.92  C  -90.106,-22.92  -80.768,-28.002  -58.633,-33.286  C  -58.633,-33.286  -47.832,-65.927  74.171,-65.928  C  196.174,-65.927  206.975,-33.286  206.975,-33.286  C  229.11,-28.002  238.448,-22.92  238.448,-22.92  L  288.116,-55.66  L  282.903,-85.204  C  230.72,-92.885  208.374,-115.928  74.171,-115.928  C  -60.032,-115.928  -82.378,-92.885  -134.561,-85.204  L  -139.774,-55.66  z " />
<path transform="translate( 0.0069999999999908, 0.15599999999999 )" style="stroke: hsl(295.9, 55%, 50%);" id="3336"  d=" M  -139.775,-55.673  L  -90.107,-22.934  C  -90.107,-22.934  -80.768,-28.017  -58.633,-33.302  C  -58.633,-33.302  -47.831,-65.944  74.171,-65.943  C  196.173,-65.944  206.975,-33.302  206.975,-33.302  C  229.11,-28.017  238.449,-22.934  238.449,-22.934  L  288.117,-55.673  L  282.902,-85.216  C  230.719,-92.898  208.373,-115.944  74.171,-115.944  C  -60.031,-115.944  -82.377,-92.898  -134.56,-85.216  L  -139.775,-55.673  z " />
    </g>
    <!-- End of group #collar -->
    
    <!-- Start of group #collarstand -->
    <g id="collarstand"  transform=" translate(63.631 70.787)  translate(601.747 722.308) " >
        <path class="hidden" id="6"  d=" M  -58.631,-65.787  L  206.987,-65.787  L  206.987,-33.144  L  -58.631,-33.144  z " />
<path transform="translate( 0, 0 )" style="stroke: hsl(26.9, 55%, 50%);" id="297"  d=" M  -58.631,-33.144  C  -58.631,-33.144  -47.825,-65.788  74.178,-65.787  C  196.181,-65.788  206.987,-33.144  206.987,-33.144  C  181.108,-39.324  138.84,-45.788  74.178,-45.787  C  9.516,-45.788  -32.752,-39.324  -58.631,-33.144  z " />
<path transform="translate( 0, 0.012999999999998 )" style="stroke: hsl(53.8, 55%, 50%);" id="601"  d=" M  -58.629,-33.157  C  -58.629,-33.157  -47.825,-65.801  74.178,-65.8  C  196.181,-65.801  206.985,-33.157  206.985,-33.157  C  181.107,-39.337  138.84,-45.801  74.178,-45.8  C  9.516,-45.801  -32.751,-39.337  -58.629,-33.157  z " />
<path transform="translate( 0.00099999999999056, 0.029000000000003 )" style="stroke: hsl(80.7, 55%, 50%);" id="905"  d=" M  -58.629,-33.175  C  -58.629,-33.175  -47.827,-65.817  74.177,-65.816  C  196.181,-65.817  206.983,-33.175  206.983,-33.175  C  181.106,-39.353  138.839,-45.817  74.177,-45.816  C  9.515,-45.817  -32.752,-39.353  -58.629,-33.175  z " />
<path transform="translate( 0.00099999999999056, 0.045999999999999 )" style="stroke: hsl(107.6, 55%, 50%);" id="1209"  d=" M  -58.63,-33.19  C  -58.63,-33.19  -47.827,-65.834  74.177,-65.833  C  196.181,-65.834  206.984,-33.19  206.984,-33.19  C  181.106,-39.369  138.839,-45.834  74.177,-45.833  C  9.515,-45.834  -32.752,-39.369  -58.63,-33.19  z " />
<path transform="translate( 0.0039999999999907, 0.061 )" style="stroke: hsl(134.5, 55%, 50%);" id="1513"  d=" M  -58.631,-33.206  C  -58.631,-33.206  -47.829,-65.848  74.174,-65.848  C  196.177,-65.848  206.979,-33.206  206.979,-33.206  C  181.102,-39.385  138.836,-45.848  74.174,-45.848  C  9.512,-45.848  -32.754,-39.385  -58.631,-33.206  z " />
<path transform="translate( 0.0019999999999953, 0.076999999999998 )" style="stroke: hsl(161.4, 55%, 50%);" id="1817"  d=" M  -58.63,-33.223  C  -58.63,-33.223  -47.827,-65.865  74.176,-65.864  C  196.179,-65.865  206.982,-33.223  206.982,-33.223  C  181.104,-39.401  138.838,-45.865  74.176,-45.864  C  9.514,-45.865  -32.752,-39.401  -58.63,-33.223  z " />
<path transform="translate( 0.0039999999999907, 0.094000000000001 )" style="stroke: hsl(188.3, 55%, 50%);" id="2121"  d=" M  -58.632,-33.238  C  -58.632,-33.238  -47.828,-65.882  74.174,-65.881  C  196.176,-65.882  206.98,-33.238  206.98,-33.238  C  181.102,-39.418  138.835,-45.882  74.174,-45.881  C  9.513,-45.882  -32.754,-39.418  -58.632,-33.238  z " />
<path transform="translate( 0.0049999999999955, 0.108 )" style="stroke: hsl(215.2, 55%, 50%);" id="2425"  d=" M  -58.631,-33.254  C  -58.631,-33.254  -47.83,-65.896  74.173,-65.895  C  196.176,-65.896  206.977,-33.254  206.977,-33.254  C  181.101,-39.432  138.835,-45.896  74.173,-45.895  C  9.511,-45.896  -32.755,-39.432  -58.631,-33.254  z " />
<path transform="translate( 0.0049999999999955, 0.129 )" style="stroke: hsl(242.1, 55%, 50%);" id="2729"  d=" M  -58.634,-33.274  C  -58.634,-33.274  -47.829,-65.919  74.173,-65.916  C  196.175,-65.919  206.98,-33.274  206.98,-33.274  C  181.101,-39.453  138.834,-45.918  74.173,-45.916  C  9.512,-45.918  -32.755,-39.453  -58.634,-33.274  z " />
<path transform="translate( 0.0069999999999908, 0.141 )" style="stroke: hsl(269, 55%, 50%);" id="3033"  d=" M  -58.633,-33.286  C  -58.633,-33.286  -47.832,-65.927  74.171,-65.928  C  196.174,-65.927  206.975,-33.286  206.975,-33.286  C  181.098,-39.465  138.833,-45.927  74.171,-45.928  C  9.509,-45.927  -32.756,-39.465  -58.633,-33.286  z " />
<path transform="translate( 0.0069999999999908, 0.156 )" style="stroke: hsl(295.9, 55%, 50%);" id="3337"  d=" M  -58.633,-33.302  C  -58.633,-33.302  -47.831,-65.944  74.171,-65.943  C  196.173,-65.944  206.975,-33.302  206.975,-33.302  C  181.098,-39.48  138.832,-45.944  74.171,-45.943  C  9.51,-45.944  -32.756,-39.48  -58.633,-33.302  z " />
    </g>
    <!-- End of group #collarstand -->
    
    <!-- Start of group #undercollar -->
    <g id="undercollar"  transform=" translate(144.771 120.788)  translate(437.898 784.566) " >
        <path class="hidden" id="7"  d=" M  -139.771,-115.788  L  288.127,-115.788  L  288.127,-22.775  L  -139.771,-22.775  z " />
<path transform="translate( 0, 0 )" style="stroke: hsl(26.9, 55%, 50%);" id="298"  d=" M  -139.771,-55.508  L  -90.109,-22.776  C  -90.109,-22.776  -47.825,-45.788  74.178,-45.787  C  196.181,-45.788  238.465,-22.776  238.465,-22.776  L  288.127,-55.508  L  282.913,-85.052  C  230.73,-92.736  208.381,-115.787  74.178,-115.787  C  -60.025,-115.787  -82.374,-92.736  -134.557,-85.052  L  -139.771,-55.508  z " />
<path transform="translate( 0, 0.012999999999998 )" style="stroke: hsl(53.8, 55%, 50%);" id="602"  d=" M  -139.768,-55.523  L  -90.104,-22.789  C  -90.104,-22.789  -47.825,-45.801  74.178,-45.8  C  196.181,-45.801  238.46,-22.789  238.46,-22.789  L  288.124,-55.523  L  282.911,-85.067  C  230.728,-92.75  208.381,-115.8  74.178,-115.8  C  -60.025,-115.8  -82.372,-92.75  -134.555,-85.067  L  -139.768,-55.523  z " />
<path transform="translate( 0.00099999999999056, 0.029000000000003 )" style="stroke: hsl(80.7, 55%, 50%);" id="906"  d=" M  -139.768,-55.54  L  -90.103,-22.807  C  -90.103,-22.807  -47.827,-45.817  74.177,-45.816  C  196.181,-45.817  238.457,-22.807  238.457,-22.807  L  288.122,-55.54  L  282.908,-85.084  C  230.726,-92.767  208.381,-115.816  74.177,-115.816  C  -60.027,-115.816  -82.372,-92.767  -134.554,-85.084  L  -139.768,-55.54  z " />
<path transform="translate( 0.00099999999999056, 0.045999999999999 )" style="stroke: hsl(107.6, 55%, 50%);" id="1210"  d=" M  -139.771,-55.555  L  -90.106,-22.821  C  -90.106,-22.821  -47.827,-45.834  74.177,-45.833  C  196.181,-45.834  238.46,-22.821  238.46,-22.821  L  288.125,-55.555  L  282.91,-85.099  C  230.727,-92.783  208.381,-115.833  74.177,-115.833  C  -60.027,-115.833  -82.373,-92.783  -134.556,-85.099  L  -139.771,-55.555  z " />
<path transform="translate( 0.0039999999999907, 0.061 )" style="stroke: hsl(134.5, 55%, 50%);" id="1514"  d=" M  -139.771,-55.575  L  -90.105,-22.839  C  -90.105,-22.839  -47.829,-45.848  74.174,-45.848  C  196.177,-45.848  238.453,-22.839  238.453,-22.839  L  288.119,-55.575  L  282.904,-85.118  C  230.721,-92.801  208.377,-115.848  74.174,-115.848  C  -60.029,-115.848  -82.373,-92.801  -134.556,-85.118  L  -139.771,-55.575  z " />
<path transform="translate( 0.0019999999999953, 0.076999999999998 )" style="stroke: hsl(161.4, 55%, 50%);" id="1818"  d=" M  -139.771,-55.592  L  -90.105,-22.855  C  -90.105,-22.855  -47.827,-45.865  74.176,-45.864  C  196.179,-45.865  238.457,-22.855  238.457,-22.855  L  288.123,-55.592  L  282.904,-85.135  C  230.722,-92.817  208.379,-115.864  74.176,-115.864  C  -60.027,-115.864  -82.37,-92.817  -134.552,-85.135  L  -139.771,-55.592  z " />
<path transform="translate( 0.0039999999999907, 0.094000000000001 )" style="stroke: hsl(188.3, 55%, 50%);" id="2122"  d=" M  -139.774,-55.606  L  -90.108,-22.87  C  -90.108,-22.87  -47.828,-45.882  74.174,-45.881  C  196.176,-45.882  238.456,-22.87  238.456,-22.87  L  288.122,-55.606  L  282.906,-85.15  C  230.723,-92.833  208.376,-115.881  74.174,-115.881  C  -60.028,-115.881  -82.375,-92.833  -134.558,-85.15  L  -139.774,-55.606  z " />
<path transform="translate( 0.0049999999999955, 0.108 )" style="stroke: hsl(215.2, 55%, 50%);" id="2426"  d=" M  -139.772,-55.623  L  -90.105,-22.886  C  -90.105,-22.886  -47.83,-45.896  74.173,-45.895  C  196.176,-45.896  238.451,-22.886  238.451,-22.886  L  288.118,-55.623  L  282.901,-85.167  C  230.719,-92.849  208.376,-115.894  74.173,-115.894  C  -60.03,-115.894  -82.373,-92.849  -134.555,-85.167  L  -139.772,-55.623  z " />
<path transform="translate( 0.0049999999999955, 0.129 )" style="stroke: hsl(242.1, 55%, 50%);" id="2730"  d=" M  -139.776,-55.641  L  -90.11,-22.904  C  -90.11,-22.904  -47.829,-45.919  74.173,-45.916  C  196.175,-45.919  238.456,-22.904  238.456,-22.904  L  288.122,-55.641  L  282.908,-85.185  C  230.724,-92.867  208.375,-115.915  74.173,-115.915  C  -60.029,-115.915  -82.378,-92.867  -134.562,-85.185  L  -139.776,-55.641  z " />
<path transform="translate( 0.0069999999999908, 0.141 )" style="stroke: hsl(269, 55%, 50%);" id="3034"  d=" M  -139.774,-55.66  L  -90.106,-22.92  C  -90.106,-22.92  -47.832,-45.927  74.171,-45.928  C  196.174,-45.927  238.448,-22.92  238.448,-22.92  L  288.116,-55.66  L  282.903,-85.204  C  230.72,-92.885  208.374,-115.928  74.171,-115.928  C  -60.032,-115.928  -82.378,-92.885  -134.561,-85.204  L  -139.774,-55.66  z " />
<path transform="translate( 0.0069999999999908, 0.156 )" style="stroke: hsl(295.9, 55%, 50%);" id="3338"  d=" M  -139.775,-55.673  L  -90.107,-22.934  C  -90.107,-22.934  -47.831,-45.944  74.171,-45.943  C  196.173,-45.944  238.449,-22.934  238.449,-22.934  L  288.117,-55.673  L  282.902,-85.216  C  230.719,-92.898  208.373,-115.944  74.171,-115.944  C  -60.031,-115.944  -82.377,-92.898  -134.56,-85.216  L  -139.775,-55.673  z " />
    </g>
    <!-- End of group #undercollar -->
    
    <!-- Start of group #topsleeve -->
    <g id="topsleeve"  transform=" translate(175.694 5)  translate(601.747 0) " >
        <path class="hidden" id="8"  d=" M  -170.694,0  L  124.355,0  L  124.355,712.308  L  -170.694,712.308  z " />
<path transform="translate( 0, 0 )" style="stroke: hsl(26.9, 55%, 50%);" id="299"  d=" M  110.47,410  C  118.405,365  122.744,253.663  122.744,190.247  C  122.744,126.831  110.47,63.416  110.47,63.416  C  110.47,63.416  69.044,0  0,0  C  -69.044,0  -101.264,63.415  -110.47,114.148  C  -119.676,164.881  -124.279,190.247  -138.087,190.247  C  -138.087,190.247  -126.442,351.87  -122.744,410  L  -104.252,700.648  L  97.505,712.308  L  110.801,638.151  L  74.937,611.519  L  110.47,410  z " />
<path transform="translate( -1.306, 0 )" style="stroke: hsl(53.8, 55%, 50%);" id="603"  d=" M  111.776,410  C  119.711,365  124.196,254.8  124.196,191.1  C  124.196,127.4  111.776,63.7  111.776,63.7  C  111.776,63.7  69.86,0  0,0  C  -69.86,0  -102.461,63.7  -111.776,114.66  C  -121.091,165.62  -125.748,191.1  -139.72,191.1  C  -139.72,191.1  -128.386,351.739  -124.196,410  L  -103.244,701.305  L  98.821,712.142  L  112.102,638.15  L  76.243,611.519  L  111.776,410  z " />
<path transform="translate( -2.682, 0 )" style="stroke: hsl(80.7, 55%, 50%);" id="907"  d=" M  113.152,410  C  121.087,365  125.724,256.043  125.724,192.032  C  125.724,128.021  113.152,64.011  113.152,64.011  C  113.152,64.011  70.72,0  0,0  C  -70.72,0  -103.723,64.01  -113.152,115.219  C  -122.581,166.428  -127.296,192.032  -141.44,192.032  C  -141.44,192.032  -130.433,351.6  -125.724,410  L  -102.179,702  L  100.206,711.968  L  113.474,638.15  L  77.619,611.519  L  113.152,410  z " />
<path transform="translate( -3.831, 0 )" style="stroke: hsl(107.6, 55%, 50%);" id="1211"  d=" M  114.301,410  C  122.236,365  127.001,256.667  127.001,192.5  C  127.001,128.333  114.301,64.167  114.301,64.167  C  114.301,64.167  71.438,0  0,0  C  -71.438,0  -104.776,64.166  -114.301,115.5  C  -123.826,166.834  -128.589,192.5  -142.876,192.5  C  -142.876,192.5  -132.144,351.483  -127.001,410  L  -101.288,702.583  L  101.362,711.822  L  114.619,638.149  L  78.768,611.519  L  114.301,410  z " />
<path transform="translate( -5.476, 0 )" style="stroke: hsl(134.5, 55%, 50%);" id="1515"  d=" M  115.946,410  C  123.881,365  128.829,258.447  128.829,193.835  C  128.829,129.223  115.946,64.612  115.946,64.612  C  115.946,64.612  72.466,0  0,0  C  -72.466,0  -106.284,64.611  -115.946,116.301  C  -125.608,167.991  -130.439,193.835  -144.932,193.835  C  -144.932,193.835  -134.593,351.315  -128.829,410  L  -100.008,703.421  L  103.016,711.613  L  116.258,638.148  L  80.413,611.519  L  115.946,410  z " />
<path transform="translate( -6.74, 0 )" style="stroke: hsl(161.4, 55%, 50%);" id="1819"  d=" M  117.21,410  C  125.145,365  130.233,259.234  130.233,194.425  C  130.233,129.616  117.21,64.808  117.21,64.808  C  117.21,64.808  73.256,0  0,0  C  -73.256,0  -107.443,64.808  -117.21,116.655  C  -126.977,168.502  -131.861,194.425  -146.512,194.425  C  -146.512,194.425  -136.475,351.187  -130.233,410  L  -99.022,704.067  L  104.286,711.452  L  117.517,638.147  L  81.677,611.519  L  117.21,410  z " />
<path transform="translate( -8.38, 0 )" style="stroke: hsl(188.3, 55%, 50%);" id="2123"  d=" M  118.85,410  C  126.785,365  132.056,260.872  132.056,195.654  C  132.056,130.436  118.85,65.218  118.85,65.218  C  118.85,65.218  74.281,0  0,0  C  -74.281,0  -108.946,65.218  -118.85,117.392  C  -128.754,169.566  -133.706,195.654  -148.562,195.654  C  -148.562,195.654  -138.919,351.018  -132.056,410  L  -97.739,704.909  L  105.933,711.243  L  119.151,638.146  L  83.317,611.519  L  118.85,410  z " />
<path transform="translate( -9.757, 0 )" style="stroke: hsl(215.2, 55%, 50%);" id="2427"  d=" M  120.227,410  C  128.162,365  133.586,261.826  133.586,196.369  C  133.586,130.912  120.227,65.456  120.227,65.456  C  120.227,65.456  75.142,0  0,0  C  -75.142,0  -110.208,65.456  -120.227,117.821  C  -130.246,170.186  -135.256,196.369  -150.284,196.369  C  -150.284,196.369  -140.972,350.876  -133.586,410  L  -96.657,705.619  L  107.315,711.068  L  120.523,638.145  L  84.694,611.519  L  120.227,410  z " />
<path transform="translate( -11.385, 0 )" style="stroke: hsl(242.1, 55%, 50%);" id="2731"  d=" M  121.855,410  C  129.79,365  135.394,263.32  135.394,197.49  C  135.394,131.66  121.855,65.83  121.855,65.83  C  121.855,65.83  76.159,0  0,0  C  -76.159,0  -111.7,65.83  -121.855,118.494  C  -132.01,171.158  -137.087,197.49  -152.319,197.49  C  -152.319,197.49  -143.398,350.707  -135.394,410  L  -95.376,706.461  L  108.948,710.861  L  122.144,638.144  L  86.322,611.519  L  121.855,410  z " />
<path transform="translate( -12.879, 0 )" style="stroke: hsl(269, 55%, 50%);" id="3035"  d=" M  123.349,410  C  131.284,365  137.054,264.444  137.054,198.333  C  137.054,132.222  123.349,66.111  123.349,66.111  C  123.349,66.111  77.093,0  0,0  C  -77.093,0  -113.07,66.112  -123.349,119  C  -133.628,171.888  -138.768,198.333  -154.186,198.333  C  -154.186,198.333  -145.626,350.553  -137.054,410  L  -94.196,707.238  L  110.445,710.671  L  123.631,638.142  L  87.816,611.519  L  123.349,410  z " />
<path transform="translate( -14.492, 0 )" style="stroke: hsl(295.9, 55%, 50%);" id="3339"  d=" M  124.962,410  C  132.897,365  138.847,265.792  138.847,199.344  C  138.847,132.896  124.962,66.448  124.962,66.448  C  124.962,66.448  78.101,0  0,0  C  -78.101,0  -114.549,66.447  -124.962,119.606  C  -135.375,172.765  -140.582,199.344  -156.202,199.344  C  -156.202,199.344  -148.033,350.383  -138.847,410  L  -92.917,708.081  L  112.061,710.465  L  125.237,638.141  L  89.429,611.519  L  124.962,410  z " />
    </g>
    <!-- End of group #topsleeve -->
    
    <!-- Start of group #undersleeve -->
    <g id="undersleeve"  transform=" translate(113.214 -58.416)  translate(906.796 0) " >
        <path class="hidden" id="9"  d=" M  -108.214,63.416  L  112.724,63.416  L  112.724,713.242  L  -108.214,713.242  z " />
<path transform="translate( 0, 0 )" style="stroke: hsl(26.9, 55%, 50%);" id="300"  d=" M  57.572,710  L  97.44,713.242  L  110.821,638.155  L  74.937,611.519  L  110.47,410  C  118.405,365  103.233,253.463  98.196,190.247  C  93.159,127.031  82.852,63.416  82.852,63.416  C  65.008,125.341  -13.809,190.247  -55.235,190.247  L  -82.853,190.247  C  -82.853,190.247  -65.34,351.912  -64.441,410  L  -59.946,700.443  L  57.572,710  z " />
<path transform="translate( -1.306, 0 )" style="stroke: hsl(53.8, 55%, 50%);" id="604"  d=" M  58.878,710  L  98.758,713.088  L  112.124,638.154  L  76.243,611.519  L  111.776,410  C  119.711,365  104.479,254.594  99.356,191.1  C  94.233,127.606  83.832,63.7  83.832,63.7  C  65.837,125.896  -13.972,191.1  -55.888,191.1  L  -83.832,191.1  C  -83.832,191.1  -66.56,351.817  -65.203,410  L  -58.416,700.917  L  58.878,710  z " />
<path transform="translate( -2.682, 0 )" style="stroke: hsl(80.7, 55%, 50%);" id="908"  d=" M  60.254,710  L  100.146,712.926  L  113.497,638.154  L  77.619,611.519  L  113.152,410  C  121.087,365  105.796,255.83  100.58,192.032  C  95.364,128.234  84.864,64.011  84.864,64.011  C  66.697,126.499  -14.144,192.032  -56.576,192.032  L  -84.864,192.032  C  -84.864,192.032  -67.846,351.717  -66.005,410  L  -56.802,701.414  L  60.254,710  z " />
<path transform="translate( -3.831, 0 )" style="stroke: hsl(107.6, 55%, 50%);" id="1212"  d=" M  61.403,710  L  101.305,712.79  L  114.643,638.153  L  78.768,611.519  L  114.301,410  C  122.236,365  106.885,256.449  101.601,192.5  C  96.317,128.551  85.726,64.167  85.726,64.167  C  67.44,126.801  -14.288,192.5  -57.151,192.5  L  -85.726,192.5  C  -85.726,192.5  -68.921,351.634  -66.676,410  L  -55.452,701.828  L  61.403,710  z " />
<path transform="translate( -5.476, 0 )" style="stroke: hsl(134.5, 55%, 50%);" id="1516"  d=" M  63.048,710  L  102.963,712.596  L  116.283,638.152  L  80.413,611.519  L  115.946,410  C  123.881,365  108.467,258.221  103.063,193.835  C  97.659,129.449  86.959,64.612  86.959,64.612  C  68.443,127.664  -14.493,193.835  -57.973,193.835  L  -86.96,193.835  C  -86.96,193.835  -70.459,351.517  -67.635,410  L  -53.517,702.418  L  63.048,710  z " />
<path transform="translate( -6.74, 0 )" style="stroke: hsl(161.4, 55%, 50%);" id="1820"  d=" M  64.312,710  L  104.237,712.447  L  117.544,638.152  L  81.677,611.519  L  117.21,410  C  125.145,365  109.669,259.002  104.187,194.425  C  98.705,129.848  87.907,64.808  87.907,64.808  C  69.267,128.049  -14.651,194.425  -58.605,194.425  L  -87.908,194.425  C  -87.908,194.425  -71.642,351.426  -68.373,410  L  -52.028,702.87  L  64.312,710  z " />
<path transform="translate( -8.38, 0 )" style="stroke: hsl(188.3, 55%, 50%);" id="2124"  d=" M  65.952,710  L  105.889,712.253  L  119.179,638.151  L  83.317,611.519  L  118.85,410  C  126.785,365  111.244,260.631  105.644,195.654  C  100.044,130.677  89.137,65.218  89.137,65.218  C  70.282,128.844  -14.856,195.654  -59.425,195.654  L  -89.138,195.654  C  -89.138,195.654  -73.176,351.31  -69.329,410  L  -50.093,703.453  L  65.952,710  z " />
<path transform="translate( -9.757, 0 )" style="stroke: hsl(215.2, 55%, 50%);" id="2428"  d=" M  67.329,710  L  107.274,712.09  L  120.552,638.15  L  84.694,611.519  L  120.227,410  C  128.162,365  112.557,261.578  106.868,196.369  C  101.179,131.16  90.17,65.456  90.17,65.456  C  71.162,129.307  -15.028,196.369  -60.113,196.369  L  -90.17,196.369  C  -90.17,196.369  -74.465,351.212  -70.132,410  L  -48.468,703.942  L  67.329,710  z " />
<path transform="translate( -11.385, 0 )" style="stroke: hsl(242.1, 55%, 50%);" id="2732"  d=" M  68.957,710  L  108.912,711.897  L  122.175,638.149  L  86.322,611.519  L  121.855,410  C  129.79,365  114.12,263.064  108.316,197.49  C  102.512,131.916  91.391,65.83  91.391,65.83  C  72.185,130.034  -15.232,197.49  -60.927,197.49  L  -91.391,197.49  C  -91.391,197.49  -75.99,351.097  -71.082,410  L  -46.542,704.516  L  68.957,710  z " />
<path transform="translate( -12.879, 0 )" style="stroke: hsl(269, 55%, 50%);" id="3036"  d=" M  70.451,710  L  110.414,711.72  L  123.664,638.148  L  87.816,611.519  L  123.349,410  C  131.284,365  115.549,264.18  109.644,198.333  C  103.739,132.486  92.512,66.111  92.512,66.111  C  73.122,130.576  -15.419,198.333  -61.675,198.333  L  -92.512,198.333  C  -92.512,198.333  -77.39,350.991  -71.954,410  L  -44.772,705.041  L  70.451,710  z " />
<path transform="translate( -14.492, 0 )" style="stroke: hsl(295.9, 55%, 50%);" id="3340"  d=" M  72.064,710  L  112.035,711.529  L  125.272,638.147  L  89.429,611.519  L  124.962,410  C  132.897,365  117.095,265.519  111.077,199.344  C  105.059,133.169  93.721,66.448  93.721,66.448  C  74.154,131.235  -15.62,199.344  -62.481,199.344  L  -93.722,199.344  C  -93.722,199.344  -78.902,350.879  -72.895,410  L  -42.86,705.605  L  72.064,710  z " />
    </g>
    <!-- End of group #undersleeve -->
    
    <!-- Start of group #pocket -->
    <g id="pocket"  transform=" translate(5 45)  translate(1288.38 0) " >
        <path class="hidden" id="10"  d=" M  0,-40  L  162,-40  L  162,196.388  L  0,196.388  z " />
<path transform="translate( 0, 0 )" style="stroke: hsl(26.9, 55%, 50%);" id="301"  d=" M  0,-40  L  0,163.988  C  -0,181.882  14.506,196.388  32.4,196.388  L  129.6,196.388  C  147.494,196.388  162,181.882  162,163.988  L  162,-40  z " />
<path transform="translate( 0, 0 )" style="stroke: hsl(53.8, 55%, 50%);" id="605"  d=" M  0,-40  L  0,163.988  C  -0,181.882  14.506,196.388  32.4,196.388  L  129.6,196.388  C  147.494,196.388  162,181.882  162,163.988  L  162,-40  z " />
<path transform="translate( 0, 0 )" style="stroke: hsl(80.7, 55%, 50%);" id="909"  d=" M  0,-40  L  0,163.988  C  -0,181.882  14.506,196.388  32.4,196.388  L  129.6,196.388  C  147.494,196.388  162,181.882  162,163.988  L  162,-40  z " />
<path transform="translate( 0, 0 )" style="stroke: hsl(107.6, 55%, 50%);" id="1213"  d=" M  0,-40  L  0,163.988  C  -0,181.882  14.506,196.388  32.4,196.388  L  129.6,196.388  C  147.494,196.388  162,181.882  162,163.988  L  162,-40  z " />
<path transform="translate( 0, 0 )" style="stroke: hsl(134.5, 55%, 50%);" id="1517"  d=" M  0,-40  L  0,163.988  C  -0,181.882  14.506,196.388  32.4,196.388  L  129.6,196.388  C  147.494,196.388  162,181.882  162,163.988  L  162,-40  z " />
<path transform="translate( 0, 0 )" style="stroke: hsl(161.4, 55%, 50%);" id="1821"  d=" M  0,-40  L  0,163.988  C  -0,181.882  14.506,196.388  32.4,196.388  L  129.6,196.388  C  147.494,196.388  162,181.882  162,163.988  L  162,-40  z " />
<path transform="translate( 0, 0 )" style="stroke: hsl(188.3, 55%, 50%);" id="2125"  d=" M  0,-40  L  0,163.988  C  -0,181.882  14.506,196.388  32.4,196.388  L  129.6,196.388  C  147.494,196.388  162,181.882  162,163.988  L  162,-40  z " />
<path transform="translate( 0, 0 )" style="stroke: hsl(215.2, 55%, 50%);" id="2429"  d=" M  0,-40  L  0,163.988  C  -0,181.882  14.506,196.388  32.4,196.388  L  129.6,196.388  C  147.494,196.388  162,181.882  162,163.988  L  162,-40  z " />
<path transform="translate( 0, 0 )" style="stroke: hsl(242.1, 55%, 50%);" id="2733"  d=" M  0,-40  L  0,163.988  C  -0,181.882  14.506,196.388  32.4,196.388  L  129.6,196.388  C  147.494,196.388  162,181.882  162,163.988  L  162,-40  z " />
<path transform="translate( 0, 0 )" style="stroke: hsl(269, 55%, 50%);" id="3037"  d=" M  0,-40  L  0,163.988  C  -0,181.882  14.506,196.388  32.4,196.388  L  129.6,196.388  C  147.494,196.388  162,181.882  162,163.988  L  162,-40  z " />
<path transform="translate( 0, 0 )" style="stroke: hsl(295.9, 55%, 50%);" id="3341"  d=" M  0,-40  L  0,163.988  C  -0,181.882  14.506,196.388  32.4,196.388  L  129.6,196.388  C  147.494,196.388  162,181.882  162,163.988  L  162,-40  z " />
    </g>
    <!-- End of group #pocket -->
    
    <!-- Start of group #chestPocketWelt -->
    <g id="chestPocketWelt"  transform=" translate(6.975 20)  translate(1288.38 521.934) " >
        <path class="hidden" id="11"  d=" M  -1.975,-15  L  105,-15  L  105,15  L  -1.975,15  z " />
<path transform="translate( 0, 0 )" style="stroke: hsl(26.9, 55%, 50%);" id="302"  d=" M  -1.975,15  L  103.025,15  L  105,0  L  103.025,-15  L  -1.975,-15  L  0,0  z " />
<path transform="translate( 0, 0 )" style="stroke: hsl(53.8, 55%, 50%);" id="606"  d=" M  -1.975,15  L  103.025,15  L  105,0  L  103.025,-15  L  -1.975,-15  L  0,0  z " />
<path transform="translate( 0, 0 )" style="stroke: hsl(80.7, 55%, 50%);" id="910"  d=" M  -1.975,15  L  103.025,15  L  105,0  L  103.025,-15  L  -1.975,-15  L  0,0  z " />
<path transform="translate( 0, 0 )" style="stroke: hsl(107.6, 55%, 50%);" id="1214"  d=" M  -1.975,15  L  103.025,15  L  105,0  L  103.025,-15  L  -1.975,-15  L  0,0  z " />
<path transform="translate( 0, 0 )" style="stroke: hsl(134.5, 55%, 50%);" id="1518"  d=" M  -1.975,15  L  103.025,15  L  105,0  L  103.025,-15  L  -1.975,-15  L  0,0  z " />
<path transform="translate( 0, 0 )" style="stroke: hsl(161.4, 55%, 50%);" id="1822"  d=" M  -1.975,15  L  103.025,15  L  105,0  L  103.025,-15  L  -1.975,-15  L  0,0  z " />
<path transform="translate( 0, 0 )" style="stroke: hsl(188.3, 55%, 50%);" id="2126"  d=" M  -1.975,15  L  103.025,15  L  105,0  L  103.025,-15  L  -1.975,-15  L  0,0  z " />
<path transform="translate( 0, 0 )" style="stroke: hsl(215.2, 55%, 50%);" id="2430"  d=" M  -1.975,15  L  103.025,15  L  105,0  L  103.025,-15  L  -1.975,-15  L  0,0  z " />
<path transform="translate( 0, 0 )" style="stroke: hsl(242.1, 55%, 50%);" id="2734"  d=" M  -1.975,15  L  103.025,15  L  105,0  L  103.025,-15  L  -1.975,-15  L  0,0  z " />
<path transform="translate( 0, 0 )" style="stroke: hsl(269, 55%, 50%);" id="3038"  d=" M  -1.975,15  L  103.025,15  L  105,0  L  103.025,-15  L  -1.975,-15  L  0,0  z " />
<path transform="translate( 0, 0 )" style="stroke: hsl(295.9, 55%, 50%);" id="3342"  d=" M  -1.975,15  L  103.025,15  L  105,0  L  103.025,-15  L  -1.975,-15  L  0,0  z " />
    </g>
    <!-- End of group #chestPocketWelt -->
    
    <!-- Start of group #chestPocketBag -->
    <g id="chestPocketBag"  transform=" translate(5 22.773)  translate(1288.38 376.388) " >
        <path class="hidden" id="12"  d=" M  0,-17.773  L  135,-17.773  L  135,117.773  L  0,117.773  z " />
<path transform="translate( 0, 0 )" style="stroke: hsl(26.9, 55%, 50%);" id="303"  d=" M  0,40  L  0,0  L  135,-17.773  L  135,40  M  135,60  L  135,117.773  L  0,100  L  0,60 " />
<path transform="translate( 0, 0 )" style="stroke: hsl(53.8, 55%, 50%);" id="607"  d=" M  0,40  L  0,0  L  135,-17.773  L  135,40  M  135,60  L  135,117.773  L  0,100  L  0,60 " />
<path transform="translate( 0, 0 )" style="stroke: hsl(80.7, 55%, 50%);" id="911"  d=" M  0,40  L  0,0  L  135,-17.773  L  135,40  M  135,60  L  135,117.773  L  0,100  L  0,60 " />
<path transform="translate( 0, 0 )" style="stroke: hsl(107.6, 55%, 50%);" id="1215"  d=" M  0,40  L  0,0  L  135,-17.773  L  135,40  M  135,60  L  135,117.773  L  0,100  L  0,60 " />
<path transform="translate( 0, 0 )" style="stroke: hsl(134.5, 55%, 50%);" id="1519"  d=" M  0,40  L  0,0  L  135,-17.773  L  135,40  M  135,60  L  135,117.773  L  0,100  L  0,60 " />
<path transform="translate( 0, 0 )" style="stroke: hsl(161.4, 55%, 50%);" id="1823"  d=" M  0,40  L  0,0  L  135,-17.773  L  135,40  M  135,60  L  135,117.773  L  0,100  L  0,60 " />
<path transform="translate( 0, 0 )" style="stroke: hsl(188.3, 55%, 50%);" id="2127"  d=" M  0,40  L  0,0  L  135,-17.773  L  135,40  M  135,60  L  135,117.773  L  0,100  L  0,60 " />
<path transform="translate( 0, 0 )" style="stroke: hsl(215.2, 55%, 50%);" id="2431"  d=" M  0,40  L  0,0  L  135,-17.773  L  135,40  M  135,60  L  135,117.773  L  0,100  L  0,60 " />
<path transform="translate( 0, 0 )" style="stroke: hsl(242.1, 55%, 50%);" id="2735"  d=" M  0,40  L  0,0  L  135,-17.773  L  135,40  M  135,60  L  135,117.773  L  0,100  L  0,60 " />
<path transform="translate( 0, 0 )" style="stroke: hsl(269, 55%, 50%);" id="3039"  d=" M  0,40  L  0,0  L  135,-17.773  L  135,40  M  135,60  L  135,117.773  L  0,100  L  0,60 " />
<path transform="translate( 0, 0 )" style="stroke: hsl(295.9, 55%, 50%);" id="3343"  d=" M  0,40  L  0,0  L  135,-17.773  L  135,40  M  135,60  L  135,117.773  L  0,100  L  0,60 " />
    </g>
    <!-- End of group #chestPocketBag -->
    
    <!-- Start of group #innerPocketWelt -->
    <g id="innerPocketWelt"  transform=" translate(5 5)  translate(1288.38 246.388) " >
        <path class="hidden" id="13"  d=" M  0,0  L  155,0  L  155,10  L  0,10  z " />
<path transform="translate( 0, 0 )" style="stroke: hsl(26.9, 55%, 50%);" id="304"  d=" M  0,0  L  155,0  L  155,10  L  0,10  z " />
<path transform="translate( 0, 0 )" style="stroke: hsl(53.8, 55%, 50%);" id="608"  d=" M  0,0  L  155,0  L  155,10  L  0,10  z " />
<path transform="translate( 0, 0 )" style="stroke: hsl(80.7, 55%, 50%);" id="912"  d=" M  0,0  L  155,0  L  155,10  L  0,10  z " />
<path transform="translate( 0, 0 )" style="stroke: hsl(107.6, 55%, 50%);" id="1216"  d=" M  0,0  L  155,0  L  155,10  L  0,10  z " />
<path transform="translate( 0, 0 )" style="stroke: hsl(134.5, 55%, 50%);" id="1520"  d=" M  0,0  L  155,0  L  155,10  L  0,10  z " />
<path transform="translate( 0, 0 )" style="stroke: hsl(161.4, 55%, 50%);" id="1824"  d=" M  0,0  L  155,0  L  155,10  L  0,10  z " />
<path transform="translate( 0, 0 )" style="stroke: hsl(188.3, 55%, 50%);" id="2128"  d=" M  0,0  L  155,0  L  155,10  L  0,10  z " />
<path transform="translate( 0, 0 )" style="stroke: hsl(215.2, 55%, 50%);" id="2432"  d=" M  0,0  L  155,0  L  155,10  L  0,10  z " />
<path transform="translate( 0, 0 )" style="stroke: hsl(242.1, 55%, 50%);" id="2736"  d=" M  0,0  L  155,0  L  155,10  L  0,10  z " />
<path transform="translate( 0, 0 )" style="stroke: hsl(269, 55%, 50%);" id="3040"  d=" M  0,0  L  155,0  L  155,10  L  0,10  z " />
<path transform="translate( 0, 0 )" style="stroke: hsl(295.9, 55%, 50%);" id="3344"  d=" M  0,0  L  155,0  L  155,10  L  0,10  z " />
    </g>
    <!-- End of group #innerPocketWelt -->
    
    <!-- Start of group #innerPocketBag -->
    <g id="innerPocketBag"  transform=" translate(5 5)  translate(1288.38 266.388) " >
        <path class="hidden" id="14"  d=" M  0,0  L  155,0  L  155,100  L  0,100  z " />
<path transform="translate( 0, 0 )" style="stroke: hsl(26.9, 55%, 50%);" id="305"  d=" M  0,40  L  0,0  L  155,0  L  155,40  M  155,60  L  155,100  L  0,100  L  0,60 " />
<path transform="translate( 0, 0 )" style="stroke: hsl(53.8, 55%, 50%);" id="609"  d=" M  0,40  L  0,0  L  155,0  L  155,40  M  155,60  L  155,100  L  0,100  L  0,60 " />
<path transform="translate( 0, 0 )" style="stroke: hsl(80.7, 55%, 50%);" id="913"  d=" M  0,40  L  0,0  L  155,0  L  155,40  M  155,60  L  155,100  L  0,100  L  0,60 " />
<path transform="translate( 0, 0 )" style="stroke: hsl(107.6, 55%, 50%);" id="1217"  d=" M  0,40  L  0,0  L  155,0  L  155,40  M  155,60  L  155,100  L  0,100  L  0,60 " />
<path transform="translate( 0, 0 )" style="stroke: hsl(134.5, 55%, 50%);" id="1521"  d=" M  0,40  L  0,0  L  155,0  L  155,40  M  155,60  L  155,100  L  0,100  L  0,60 " />
<path transform="translate( 0, 0 )" style="stroke: hsl(161.4, 55%, 50%);" id="1825"  d=" M  0,40  L  0,0  L  155,0  L  155,40  M  155,60  L  155,100  L  0,100  L  0,60 " />
<path transform="translate( 0, 0 )" style="stroke: hsl(188.3, 55%, 50%);" id="2129"  d=" M  0,40  L  0,0  L  155,0  L  155,40  M  155,60  L  155,100  L  0,100  L  0,60 " />
<path transform="translate( 0, 0 )" style="stroke: hsl(215.2, 55%, 50%);" id="2433"  d=" M  0,40  L  0,0  L  155,0  L  155,40  M  155,60  L  155,100  L  0,100  L  0,60 " />
<path transform="translate( 0, 0 )" style="stroke: hsl(242.1, 55%, 50%);" id="2737"  d=" M  0,40  L  0,0  L  155,0  L  155,40  M  155,60  L  155,100  L  0,100  L  0,60 " />
<path transform="translate( 0, 0 )" style="stroke: hsl(269, 55%, 50%);" id="3041"  d=" M  0,40  L  0,0  L  155,0  L  155,40  M  155,60  L  155,100  L  0,100  L  0,60 " />
<path transform="translate( 0, 0 )" style="stroke: hsl(295.9, 55%, 50%);" id="3345"  d=" M  0,40  L  0,0  L  155,0  L  155,40  M  155,60  L  155,100  L  0,100  L  0,60 " />
    </g>
    <!-- End of group #innerPocketBag -->
    
    <!-- Start of group #innerPocketFacingExtension -->
    <g id="innerPocketFacingExtension" >
    </g>
    <!-- End of group #innerPocketFacingExtension -->
    
    <!-- Start of group #sampler-back -->
    <g id="sampler-back" >
    </g>
    <!-- End of group #sampler-back -->
    
    <!-- Start of group #sampler-front -->
    <g id="sampler-front" >
    </g>
    <!-- End of group #sampler-front -->
    
    <!-- Start of group #sampler-side -->
    <g id="sampler-side" >
    </g>
    <!-- End of group #sampler-side -->
    
    <!-- Start of group #sampler-collar -->
    <g id="sampler-collar" >
    </g>
    <!-- End of group #sampler-collar -->
    
    <!-- Start of group #sampler-collarstand -->
    <g id="sampler-collarstand" >
    </g>
    <!-- End of group #sampler-collarstand -->
    
    <!-- Start of group #sampler-undercollar -->
    <g id="sampler-undercollar" >
    </g>
    <!-- End of group #sampler-undercollar -->
    
    <!-- Start of group #sampler-topsleeve -->
    <g id="sampler-topsleeve" >
    </g>
    <!-- End of group #sampler-topsleeve -->
    
    <!-- Start of group #sampler-undersleeve -->
    <g id="sampler-undersleeve" >
    </g>
    <!-- End of group #sampler-undersleeve -->
    
    <!-- Start of group #sampler-pocket -->
    <g id="sampler-pocket" >
    </g>
    <!-- End of group #sampler-pocket -->
    
    <!-- Start of group #sampler-chestPocketWelt -->
    <g id="sampler-chestPocketWelt" >
    </g>
    <!-- End of group #sampler-chestPocketWelt -->
    
    <!-- Start of group #sampler-chestPocketBag -->
    <g id="sampler-chestPocketBag" >
    </g>
    <!-- End of group #sampler-chestPocketBag -->
    
    <!-- Start of group #sampler-innerPocketWelt -->
    <g id="sampler-innerPocketWelt" >
    </g>
    <!-- End of group #sampler-innerPocketWelt -->
    
    <!-- Start of group #sampler-innerPocketBag -->
    <g id="sampler-innerPocketBag" >
    </g>
    <!-- End of group #sampler-innerPocketBag -->
</g>
<!-- End of group #patternContainer -->

</svg>

