<?xml version="1.0" encoding="UTF-8" standalone="no"?>
<svg
    width ="2645.4153568585"
    height ="1405.197639138"
    viewbox ="0 0 2645.4153568585 1405.197639138" xmlns:dc="http://purl.org/dc/elements/1.1/"
    xmlns:cc="http://creativecommons.org/ns#"
    xmlns:rdf="http://www.w3.org/1999/02/22-rdf-syntax-ns#"
    xmlns:svg="http://www.w3.org/2000/svg"
    xmlns="http://www.w3.org/2000/svg"
    xmlns:xlink="http://www.w3.org/1999/xlink"
    xmlns:sodipodi="http://sodipodi.sourceforge.net/DTD/sodipodi-0.dtd"
    xmlns:inkscape="http://www.inkscape.org/namespaces/inkscape" 
>

<style type="text/css">
    <![CDATA[
    path { fill: none; stroke: #000000; stroke-opacity:1; stroke-width: 0.5; stroke-miterlimit:4; stroke-dashoffset:0; stroke-linecap:round; stroke-linejoin:round; }
    path.hidden { fill: none; stroke: none; }]]>
</style>


<!-- Start of group #patternScaleContainer -->
<g id="patternScaleContainer"  transform=" scale(3.54330709 ) " >
    
    <!-- Start of group #block -->
    <g id="block"  transform=" translate(0 0)  translate(746.595 0) " >
    </g>
    <!-- End of group #block -->
    
    <!-- Start of group #front -->
    <g id="front"  transform=" translate(-296.41 5.188)  translate(465.412 0) " >
        <path class="hidden" id="2"  d=" M  301.41,-0.188  L  418.625,-0.188  L  418.625,259.935  L  301.41,259.935  z " />
<path transform="translate( 0, 0 )" style="stroke: hsl(26.9, 55%, 50%);" id="18"  d=" M  301.41,13.5  L  301.41,86.16  C  366.379,86.16  357.295,161.415  306.114,239.233  L  337.592,259.935  C  337.592,259.935  418.625,206.937  418.625,123.836  L  418.625,13.5  C  391.138,13.5  350.115,13.5  301.41,13.5  z " />
<path transform="translate( 0, 0 )" style="stroke: hsl(53.8, 55%, 50%);" id="38"  d=" M  301.41,12.131  L  301.41,86.16  C  366.379,86.16  357.295,161.415  306.114,239.233  L  337.592,259.935  C  337.592,259.935  418.625,206.937  418.625,123.836  L  418.625,13.5  C  391.138,13.5  350.115,12.927  301.41,12.131  z " />
<path transform="translate( 0, 0 )" style="stroke: hsl(80.7, 55%, 50%);" id="58"  d=" M  301.41,10.762  L  301.41,86.16  C  366.379,86.16  357.295,161.415  306.114,239.233  L  337.592,259.935  C  337.592,259.935  418.625,206.937  418.625,123.836  L  418.625,13.5  C  391.138,13.5  350.115,12.354  301.41,10.762  z " />
<path transform="translate( 0, 0 )" style="stroke: hsl(107.6, 55%, 50%);" id="78"  d=" M  301.41,9.393  L  301.41,86.16  C  366.379,86.16  357.295,161.415  306.114,239.233  L  337.592,259.935  C  337.592,259.935  418.625,206.937  418.625,123.836  L  418.625,13.5  C  391.138,13.5  350.115,11.78  301.41,9.393  z " />
<path transform="translate( 0, 0 )" style="stroke: hsl(134.5, 55%, 50%);" id="98"  d=" M  301.41,8.025  L  301.41,86.16  C  366.379,86.16  357.295,161.415  306.114,239.233  L  337.592,259.935  C  337.592,259.935  418.625,206.937  418.625,123.836  L  418.625,13.5  C  391.138,13.5  350.115,11.207  301.41,8.025  z " />
<path transform="translate( 0, 0 )" style="stroke: hsl(161.4, 55%, 50%);" id="118"  d=" M  301.41,6.656  L  301.41,86.16  C  366.379,86.16  357.295,161.415  306.114,239.233  L  337.592,259.935  C  337.592,259.935  418.625,206.937  418.625,123.836  L  418.625,13.5  C  391.138,13.5  350.115,10.634  301.41,6.656  z " />
<path transform="translate( 0, 0 )" style="stroke: hsl(188.3, 55%, 50%);" id="138"  d=" M  301.41,5.287  L  301.41,86.16  C  366.379,86.16  357.295,161.415  306.114,239.233  L  337.592,259.935  C  337.592,259.935  418.625,206.937  418.625,123.836  L  418.625,13.5  C  391.138,13.5  350.115,10.06  301.41,5.287  z " />
<path transform="translate( 0, 0 )" style="stroke: hsl(215.2, 55%, 50%);" id="158"  d=" M  301.41,3.918  L  301.41,86.16  C  366.379,86.16  357.295,161.415  306.114,239.233  L  337.592,259.935  C  337.592,259.935  418.625,206.937  418.625,123.836  L  418.625,13.5  C  391.138,13.5  350.115,9.487  301.41,3.918  z " />
<path transform="translate( 0, 0 )" style="stroke: hsl(242.1, 55%, 50%);" id="178"  d=" M  301.41,2.549  L  301.41,86.16  C  366.379,86.16  357.295,161.415  306.114,239.233  L  337.592,259.935  C  337.592,259.935  418.625,206.937  418.625,123.836  L  418.625,13.5  C  391.138,13.5  350.115,8.914  301.41,2.549  z " />
<path transform="translate( 0, 0 )" style="stroke: hsl(269, 55%, 50%);" id="198"  d=" M  301.41,1.18  L  301.41,86.16  C  366.379,86.16  357.295,161.415  306.114,239.233  L  337.592,259.935  C  337.592,259.935  418.625,206.937  418.625,123.836  L  418.625,13.5  C  391.138,13.5  350.115,8.34  301.41,1.18  z " />
<path transform="translate( 0, 0 )" style="stroke: hsl(295.9, 55%, 50%);" id="218"  d=" M  301.41,-0.188  L  301.41,86.16  C  366.379,86.16  357.295,161.415  306.114,239.233  L  337.592,259.935  C  337.592,259.935  418.625,206.937  418.625,123.836  L  418.625,13.5  C  391.138,13.5  350.115,7.767  301.41,-0.188  z " />
    </g>
    <!-- End of group #front -->
    
    <!-- Start of group #back -->
    <g id="back"  transform=" translate(5 -8.5)  translate(0 0) " >
        <path class="hidden" id="3"  d=" M  0,13.5  L  243.462,13.5  L  243.462,400.078  L  0,400.078  z " />
<path transform="translate( 0, 0 )" style="stroke: hsl(26.9, 55%, 50%);" id="19"  d=" M  0,13.5  L  0,275.4  C  18.838,275.4  32.809,294.878  37.676,313.076  L  46.718,346.888  L  243.462,294.927  L  142.333,13.5  C  92.006,13.5  41.444,13.5  0,13.5  z " />
<path transform="translate( 0, 5.319 )" style="stroke: hsl(53.8, 55%, 50%);" id="39"  d=" M  0,8.181  L  0,275.4  C  18.838,275.4  32.809,294.878  37.676,313.076  L  46.718,346.888  L  243.462,294.927  L  142.333,9.509  C  92.006,8.76  41.444,8.181  0,8.181  z " />
<path transform="translate( 0, 10.638 )" style="stroke: hsl(80.7, 55%, 50%);" id="59"  d=" M  0,2.862  L  0,275.4  C  18.838,275.4  32.809,294.878  37.676,313.076  L  46.718,346.888  L  243.462,294.927  L  142.333,5.519  C  92.006,4.02  41.444,2.862  0,2.862  z " />
<path transform="translate( 0, 15.957 )" style="stroke: hsl(107.6, 55%, 50%);" id="79"  d=" M  0,-2.457  L  0,275.4  C  18.838,275.4  32.809,294.878  37.676,313.076  L  46.718,346.888  L  243.462,294.927  L  142.333,1.528  C  92.006,-0.719  41.444,-2.457  0,-2.457  z " />
<path transform="translate( 0, 21.276 )" style="stroke: hsl(134.5, 55%, 50%);" id="99"  d=" M  0,-7.776  L  0,275.4  C  18.838,275.4  32.809,294.878  37.676,313.076  L  46.718,346.888  L  243.462,294.927  L  142.333,-2.463  C  92.006,-5.459  41.444,-7.776  0,-7.776  z " />
<path transform="translate( 0, 26.595 )" style="stroke: hsl(161.4, 55%, 50%);" id="119"  d=" M  0,-13.095  L  0,275.4  C  18.838,275.4  32.809,294.878  37.676,313.076  L  46.718,346.888  L  243.462,294.927  L  142.333,-6.454  C  92.006,-10.199  41.444,-13.095  0,-13.095  z " />
<path transform="translate( 0, 31.914 )" style="stroke: hsl(188.3, 55%, 50%);" id="139"  d=" M  0,-18.414  L  0,275.4  C  18.838,275.4  32.809,294.878  37.676,313.076  L  46.718,346.888  L  243.462,294.927  L  142.333,-10.444  C  92.006,-14.939  41.444,-18.414  0,-18.414  z " />
<path transform="translate( 0, 37.233 )" style="stroke: hsl(215.2, 55%, 50%);" id="159"  d=" M  0,-23.733  L  0,275.4  C  18.838,275.4  32.809,294.878  37.676,313.076  L  46.718,346.888  L  243.462,294.927  L  142.333,-14.435  C  92.006,-19.678  41.444,-23.733  0,-23.733  z " />
<path transform="translate( 0, 42.552 )" style="stroke: hsl(242.1, 55%, 50%);" id="179"  d=" M  0,-29.052  L  0,275.4  C  18.838,275.4  32.809,294.878  37.676,313.076  L  46.718,346.888  L  243.462,294.927  L  142.333,-18.426  C  92.006,-24.418  41.444,-29.052  0,-29.052  z " />
<path transform="translate( 0, 47.871 )" style="stroke: hsl(269, 55%, 50%);" id="199"  d=" M  0,-34.371  L  0,275.4  C  18.838,275.4  32.809,294.878  37.676,313.076  L  46.718,346.888  L  243.462,294.927  L  142.333,-22.417  C  92.006,-29.158  41.444,-34.371  0,-34.371  z " />
<path transform="translate( 0, 53.19 )" style="stroke: hsl(295.9, 55%, 50%);" id="219"  d=" M  0,-39.69  L  0,275.4  C  18.838,275.4  32.809,294.878  37.676,313.076  L  46.718,346.888  L  243.462,294.927  L  142.333,-26.407  C  92.006,-33.898  41.444,-39.69  0,-39.69  z " />
    </g>
    <!-- End of group #back -->
    
    <!-- Start of group #side -->
    <g id="side"  transform=" translate(-115.891 -8.5)  translate(253.462 0) " >
        <path class="hidden" id="4"  d=" M  120.891,13.5  L  322.841,13.5  L  322.841,348.95  L  120.891,348.95  z " />
<path transform="translate( 0, 0 )" style="stroke: hsl(26.9, 55%, 50%);" id="20"  d=" M  142.333,13.5  C  142.333,13.5  104.676,241.712  129.165,310.786  C  129.165,310.786  259.093,250.289  321.648,244.816  L  301.41,13.5  C  253.446,13.5  197.272,13.5  142.333,13.5  z " />
<path transform="translate( 0, 3.991 )" style="stroke: hsl(53.8, 55%, 50%);" id="40"  d=" M  142.333,9.509  C  142.333,9.509  104.795,241.707  129.212,310.558  C  129.212,310.558  259.212,250.284  321.767,244.811  L  301.41,12.131  C  253.446,11.348  197.272,10.327  142.333,9.509  z " />
<path transform="translate( 0, 7.981 )" style="stroke: hsl(80.7, 55%, 50%);" id="60"  d=" M  142.333,5.519  C  142.333,5.519  104.914,241.702  129.26,310.329  C  129.26,310.329  259.331,250.279  321.886,244.806  L  301.41,10.762  C  253.446,9.197  197.272,7.154  142.333,5.519  z " />
<path transform="translate( 0, 11.972 )" style="stroke: hsl(107.6, 55%, 50%);" id="80"  d=" M  142.333,1.528  C  142.333,1.528  105.034,241.697  129.308,310.098  C  129.308,310.098  259.451,250.274  322.006,244.801  L  301.41,9.393  C  253.446,7.045  197.272,3.981  142.333,1.528  z " />
<path transform="translate( 0, 15.963 )" style="stroke: hsl(134.5, 55%, 50%);" id="100"  d=" M  142.333,-2.463  C  142.333,-2.463  105.153,241.692  129.427,310.091  C  129.427,310.091  259.57,250.269  322.125,244.796  L  301.41,8.025  C  253.446,4.894  197.272,0.807  142.333,-2.463  z " />
<path transform="translate( 0, 19.954 )" style="stroke: hsl(161.4, 55%, 50%);" id="120"  d=" M  142.333,-6.454  C  142.333,-6.454  105.272,241.686  129.475,309.857  C  129.475,309.857  259.689,250.263  322.244,244.79  L  301.41,6.656  C  253.446,2.742  197.272,-2.366  142.333,-6.454  z " />
<path transform="translate( 0, 23.944 )" style="stroke: hsl(188.3, 55%, 50%);" id="140"  d=" M  142.333,-10.444  C  142.333,-10.444  105.427,239.788  129.453,309.513  C  129.453,309.513  259.808,250.258  322.363,244.785  L  301.41,5.287  C  253.446,0.591  197.272,-5.539  142.333,-10.444  z " />
<path transform="translate( 0, 27.935 )" style="stroke: hsl(215.2, 55%, 50%);" id="160"  d=" M  142.333,-14.435  C  142.333,-14.435  105.547,239.783  129.573,309.507  C  129.573,309.507  259.928,250.253  322.483,244.78  L  301.41,3.918  C  253.446,-1.561  197.272,-8.712  142.333,-14.435  z " />
<path transform="translate( 0, 31.926 )" style="stroke: hsl(242.1, 55%, 50%);" id="180"  d=" M  142.333,-18.426  C  142.333,-18.426  105.666,239.778  129.621,309.279  C  129.621,309.279  260.047,250.248  322.602,244.775  L  301.41,2.549  C  253.446,-3.713  197.272,-11.886  142.333,-18.426  z " />
<path transform="translate( 0, 35.917 )" style="stroke: hsl(269, 55%, 50%);" id="200"  d=" M  142.333,-22.417  C  142.333,-22.417  105.785,239.773  129.669,309.05  C  129.669,309.05  260.166,250.243  322.721,244.77  L  301.41,1.18  C  253.446,-5.864  197.272,-15.059  142.333,-22.417  z " />
<path transform="translate( 0, 39.907 )" style="stroke: hsl(295.9, 55%, 50%);" id="220"  d=" M  142.333,-26.407  C  142.333,-26.407  105.905,239.767  129.789,309.043  C  129.789,309.043  260.286,250.237  322.841,244.764  L  301.41,-0.188  C  253.446,-8.015  197.272,-18.232  142.333,-26.407  z " />
    </g>
    <!-- End of group #side -->
    
    <!-- Start of group #inset -->
    <g id="inset"  transform=" translate(-296.41 -81.16)  translate(592.627 0) " >
        <path class="hidden" id="5"  d=" M  301.41,86.16  L  445.378,86.16  L  445.378,245.7  L  301.41,245.7  z " />
<path transform="translate( 0, 0 )" style="stroke: hsl(26.9, 55%, 50%);" id="21"  d=" M  301.41,86.16  C  394.41,86.16  352.748,183.456  445.378,191.549  L  440.64,245.7  L  301.41,245.7  z " />
<path transform="translate( 0, 0 )" style="stroke: hsl(53.8, 55%, 50%);" id="41"  d=" M  301.41,86.16  C  394.41,86.16  352.748,183.456  445.378,191.549  L  440.64,245.7  L  301.41,245.7  z " />
<path transform="translate( 0, 0 )" style="stroke: hsl(80.7, 55%, 50%);" id="61"  d=" M  301.41,86.16  C  394.41,86.16  352.748,183.456  445.378,191.549  L  440.64,245.7  L  301.41,245.7  z " />
<path transform="translate( 0, 0 )" style="stroke: hsl(107.6, 55%, 50%);" id="81"  d=" M  301.41,86.16  C  394.41,86.16  352.748,183.456  445.378,191.549  L  440.64,245.7  L  301.41,245.7  z " />
<path transform="translate( 0, 0 )" style="stroke: hsl(134.5, 55%, 50%);" id="101"  d=" M  301.41,86.16  C  394.41,86.16  352.748,183.456  445.378,191.549  L  440.64,245.7  L  301.41,245.7  z " />
<path transform="translate( 0, 0 )" style="stroke: hsl(161.4, 55%, 50%);" id="121"  d=" M  301.41,86.16  C  394.41,86.16  352.748,183.456  445.378,191.549  L  440.64,245.7  L  301.41,245.7  z " />
<path transform="translate( 0, 0 )" style="stroke: hsl(188.3, 55%, 50%);" id="141"  d=" M  301.41,86.16  C  394.41,86.16  352.748,183.456  445.378,191.549  L  440.64,245.7  L  301.41,245.7  z " />
<path transform="translate( 0, 0 )" style="stroke: hsl(215.2, 55%, 50%);" id="161"  d=" M  301.41,86.16  C  394.41,86.16  352.748,183.456  445.378,191.549  L  440.64,245.7  L  301.41,245.7  z " />
<path transform="translate( 0, 0 )" style="stroke: hsl(242.1, 55%, 50%);" id="181"  d=" M  301.41,86.16  C  394.41,86.16  352.748,183.456  445.378,191.549  L  440.64,245.7  L  301.41,245.7  z " />
<path transform="translate( 0, 0 )" style="stroke: hsl(269, 55%, 50%);" id="201"  d=" M  301.41,86.16  C  394.41,86.16  352.748,183.456  445.378,191.549  L  440.64,245.7  L  301.41,245.7  z " />
<path transform="translate( 0, 0 )" style="stroke: hsl(295.9, 55%, 50%);" id="221"  d=" M  301.41,86.16  C  394.41,86.16  352.748,183.456  445.378,191.549  L  440.64,245.7  L  301.41,245.7  z " />
    </g>
    <!-- End of group #inset -->
    
    <!-- Start of group #sampler-front -->
    <g id="sampler-front"  transform=" translate(0 0)  translate(746.595 0) " >
    </g>
    <!-- End of group #sampler-front -->
    
    <!-- Start of group #sampler-back -->
    <g id="sampler-back"  transform=" translate(0 0)  translate(746.595 0) " >
    </g>
    <!-- End of group #sampler-back -->
    
    <!-- Start of group #sampler-side -->
    <g id="sampler-side"  transform=" translate(0 0)  translate(746.595 0) " >
    </g>
    <!-- End of group #sampler-side -->
    
    <!-- Start of group #sampler-inset -->
    <g id="sampler-inset"  transform=" translate(0 0)  translate(746.595 0) " >
    </g>
    <!-- End of group #sampler-inset -->
</g>
<!-- End of group #patternScaleContainer -->

</svg>

