<?xml version="1.0" encoding="UTF-8" standalone="no"?>
<svg
    xmlns="http://www.w3.org/2000/svg"
    xmlns:svg="http://www.w3.org/2000/svg"
    xmlns:xlink="http://www.w3.org/1999/xlink"
    xmlns:freesewing="http://freesewing.org/namespaces/freesewing" viewBox ="0 0 771 380"
    width ="771mm"
    height ="380mm"
    freesewing:version ="1.5.0"
    freesewing:origin ="joost.core.freesewing.org" 
>

<style type="text/css">
    <![CDATA[
    path { fill: none; stroke: #000000; stroke-opacity:1; stroke-width: 0.5; stroke-miterlimit:4; stroke-dashoffset:0; stroke-linecap:round; stroke-linejoin:round; }
    path.hidden { fill: none; stroke: none; }]]>
</style>


<!-- Start of group #patternContainer -->
<g id="patternContainer" >
    
    <!-- Start of group #block -->
    <g id="block" >
    </g>
    <!-- End of group #block -->
    
    <!-- Start of group #front -->
    <g id="front"  transform=" translate(115.307 11.156)  translate(382.992 0) " >
        <path class="hidden" id="2"  d=" M  -110.307,-6.156  L  110.307,-6.156  L  110.307,262.643  L  -110.307,262.643  z " />
<path transform="translate( 0, 0 )" style="stroke: hsl(26.9, 55%, 50%);" id="18"  d=" M  -110.307,89.25  L  -105.844,-6.156  C  -105.844,-6.156  -52.922,0  0,0  C  52.922,0  105.844,-6.156  105.844,-6.156  L  110.307,89.25  C  30.169,118.418  51.52,173.53  80.688,253.668  L  56.03,262.643  C  56.03,262.643  11.522,214.747  0,183.092  C  -11.522,214.747  -56.03,262.643  -56.03,262.643  L  -80.688,253.668  C  -51.52,173.53  -30.169,118.418  -110.307,89.25  z " />
<path transform="translate( 0, 0 )" style="stroke: hsl(53.8, 55%, 50%);" id="38"  d=" M  -110.307,89.25  L  -105.844,-6.156  C  -105.844,-6.156  -52.922,0  0,0  C  52.922,0  105.844,-6.156  105.844,-6.156  L  110.307,89.25  C  30.169,118.418  51.52,173.53  80.688,253.668  L  56.03,262.643  C  56.03,262.643  11.522,214.747  0,183.092  C  -11.522,214.747  -56.03,262.643  -56.03,262.643  L  -80.688,253.668  C  -51.52,173.53  -30.169,118.418  -110.307,89.25  z " />
<path transform="translate( 0, 0 )" style="stroke: hsl(80.7, 55%, 50%);" id="58"  d=" M  -110.307,89.25  L  -105.844,-6.156  C  -105.844,-6.156  -52.922,0  0,0  C  52.922,0  105.844,-6.156  105.844,-6.156  L  110.307,89.25  C  30.169,118.418  51.52,173.53  80.688,253.668  L  56.03,262.643  C  56.03,262.643  11.522,214.747  0,183.092  C  -11.522,214.747  -56.03,262.643  -56.03,262.643  L  -80.688,253.668  C  -51.52,173.53  -30.169,118.418  -110.307,89.25  z " />
<path transform="translate( 0, 0 )" style="stroke: hsl(107.6, 55%, 50%);" id="78"  d=" M  -110.307,89.25  L  -105.844,-6.156  C  -105.844,-6.156  -52.922,0  0,0  C  52.922,0  105.844,-6.156  105.844,-6.156  L  110.307,89.25  C  30.169,118.418  51.52,173.53  80.688,253.668  L  56.03,262.643  C  56.03,262.643  11.522,214.747  0,183.092  C  -11.522,214.747  -56.03,262.643  -56.03,262.643  L  -80.688,253.668  C  -51.52,173.53  -30.169,118.418  -110.307,89.25  z " />
<path transform="translate( 0, 0 )" style="stroke: hsl(134.5, 55%, 50%);" id="98"  d=" M  -110.307,89.25  L  -105.844,-6.156  C  -105.844,-6.156  -52.922,0  0,0  C  52.922,0  105.844,-6.156  105.844,-6.156  L  110.307,89.25  C  30.169,118.418  51.52,173.53  80.688,253.668  L  56.03,262.643  C  56.03,262.643  11.522,214.747  0,183.092  C  -11.522,214.747  -56.03,262.643  -56.03,262.643  L  -80.688,253.668  C  -51.52,173.53  -30.169,118.418  -110.307,89.25  z " />
<path transform="translate( 0, 0 )" style="stroke: hsl(161.4, 55%, 50%);" id="118"  d=" M  -110.307,89.25  L  -105.844,-6.156  C  -105.844,-6.156  -52.922,0  0,0  C  52.922,0  105.844,-6.156  105.844,-6.156  L  110.307,89.25  C  30.169,118.418  51.52,173.53  80.688,253.668  L  56.03,262.643  C  56.03,262.643  11.522,214.747  0,183.092  C  -11.522,214.747  -56.03,262.643  -56.03,262.643  L  -80.688,253.668  C  -51.52,173.53  -30.169,118.418  -110.307,89.25  z " />
<path transform="translate( 0, 0 )" style="stroke: hsl(188.3, 55%, 50%);" id="138"  d=" M  -110.307,89.25  L  -105.844,-6.156  C  -105.844,-6.156  -52.922,0  0,0  C  52.922,0  105.844,-6.156  105.844,-6.156  L  110.307,89.25  C  30.169,118.418  51.52,173.53  80.688,253.668  L  56.03,262.643  C  56.03,262.643  11.522,214.747  0,183.092  C  -11.522,214.747  -56.03,262.643  -56.03,262.643  L  -80.688,253.668  C  -51.52,173.53  -30.169,118.418  -110.307,89.25  z " />
<path transform="translate( 0, 0 )" style="stroke: hsl(215.2, 55%, 50%);" id="158"  d=" M  -110.307,89.25  L  -105.844,-6.156  C  -105.844,-6.156  -52.922,0  0,0  C  52.922,0  105.844,-6.156  105.844,-6.156  L  110.307,89.25  C  30.169,118.418  51.52,173.53  80.688,253.668  L  56.03,262.643  C  56.03,262.643  11.522,214.747  0,183.092  C  -11.522,214.747  -56.03,262.643  -56.03,262.643  L  -80.688,253.668  C  -51.52,173.53  -30.169,118.418  -110.307,89.25  z " />
<path transform="translate( 0, 0 )" style="stroke: hsl(242.1, 55%, 50%);" id="178"  d=" M  -110.307,89.25  L  -105.844,-6.156  C  -105.844,-6.156  -52.922,0  0,0  C  52.922,0  105.844,-6.156  105.844,-6.156  L  110.307,89.25  C  30.169,118.418  51.52,173.53  80.688,253.668  L  56.03,262.643  C  56.03,262.643  11.522,214.747  0,183.092  C  -11.522,214.747  -56.03,262.643  -56.03,262.643  L  -80.688,253.668  C  -51.52,173.53  -30.169,118.418  -110.307,89.25  z " />
<path transform="translate( 0, 0 )" style="stroke: hsl(269, 55%, 50%);" id="198"  d=" M  -110.307,89.25  L  -105.844,-6.156  C  -105.844,-6.156  -52.922,0  0,0  C  52.922,0  105.844,-6.156  105.844,-6.156  L  110.307,89.25  C  30.169,118.418  51.52,173.53  80.688,253.668  L  56.03,262.643  C  56.03,262.643  11.522,214.747  0,183.092  C  -11.522,214.747  -56.03,262.643  -56.03,262.643  L  -80.688,253.668  C  -51.52,173.53  -30.169,118.418  -110.307,89.25  z " />
<path transform="translate( 0, 0 )" style="stroke: hsl(295.9, 55%, 50%);" id="218"  d=" M  -110.307,89.25  L  -105.844,-6.156  C  -105.844,-6.156  -52.922,0  0,0  C  52.922,0  105.844,-6.156  105.844,-6.156  L  110.307,89.25  C  30.169,118.418  51.52,173.53  80.688,253.668  L  56.03,262.643  C  56.03,262.643  11.522,214.747  0,183.092  C  -11.522,214.747  -56.03,262.643  -56.03,262.643  L  -80.688,253.668  C  -51.52,173.53  -30.169,118.418  -110.307,89.25  z " />
    </g>
    <!-- End of group #front -->
    
    <!-- Start of group #back -->
    <g id="back"  transform=" translate(5 54.625)  translate(0 0) " >
        <path class="hidden" id="3"  d=" M  0,-49.625  L  172.904,-49.625  L  172.904,320.601  L  0,320.601  z " />
<path transform="translate( 0, 0 )" style="stroke: hsl(26.9, 55%, 50%);" id="19"  d=" M  0,255  C  32.801,255  32.801,320.601  32.801,320.601  L  144.612,229.857  L  136.086,-43.469  C  136.086,-43.469  68.043,-49.625  0,-49.625  L  0,255  z " />
<path transform="translate( 0, 0 )" style="stroke: hsl(53.8, 55%, 50%);" id="39"  d=" M  0,255  C  32.801,255  32.801,320.601  32.801,320.601  L  149.087,235.668  L  136.086,-37.469  C  136.086,-37.469  68.043,-43.625  0,-43.625  L  0,255  z " />
<path transform="translate( 0, 0 )" style="stroke: hsl(80.7, 55%, 50%);" id="59"  d=" M  0,255  C  32.801,255  32.801,320.601  32.801,320.601  L  153.086,241.433  L  136.086,-31.469  C  136.086,-31.469  68.043,-37.625  0,-37.625  L  0,255  z " />
<path transform="translate( 0, 0 )" style="stroke: hsl(107.6, 55%, 50%);" id="79"  d=" M  0,255  C  32.801,255  32.801,320.601  32.801,320.601  L  156.67,247.168  L  136.086,-25.469  C  136.086,-25.469  68.043,-31.625  0,-31.625  L  0,255  z " />
<path transform="translate( 0, 0 )" style="stroke: hsl(134.5, 55%, 50%);" id="99"  d=" M  0,255  C  32.801,255  32.801,320.601  32.801,320.601  L  159.887,252.887  L  136.086,-19.469  C  136.086,-19.469  68.043,-25.625  0,-25.625  L  0,255  z " />
<path transform="translate( 0, 0 )" style="stroke: hsl(161.4, 55%, 50%);" id="119"  d=" M  0,255  C  32.801,255  32.801,320.601  32.801,320.601  L  162.77,258.6  L  136.086,-13.469  C  136.086,-13.469  68.043,-19.625  0,-19.625  L  0,255  z " />
<path transform="translate( 0, 0 )" style="stroke: hsl(188.3, 55%, 50%);" id="139"  d=" M  0,255  C  32.801,255  32.801,320.601  32.801,320.601  L  165.345,264.316  L  136.086,-7.469  C  136.086,-7.469  68.043,-13.625  0,-13.625  L  0,255  z " />
<path transform="translate( 0, 0 )" style="stroke: hsl(215.2, 55%, 50%);" id="159"  d=" M  0,255  C  32.801,255  32.801,320.601  32.801,320.601  L  167.633,270.041  L  136.086,-1.469  C  136.086,-1.469  68.043,-7.625  0,-7.625  L  0,255  z " />
<path transform="translate( 0, 0 )" style="stroke: hsl(242.1, 55%, 50%);" id="179"  d=" M  0,255  C  32.801,255  32.801,320.601  32.801,320.601  L  169.648,275.782  L  136.086,4.531  C  136.086,4.531  68.043,-1.625  0,-1.625  L  0,255  z " />
<path transform="translate( 0, 0 )" style="stroke: hsl(269, 55%, 50%);" id="199"  d=" M  0,255  C  32.801,255  32.801,320.601  32.801,320.601  L  171.403,281.543  L  136.086,10.531  C  136.086,10.531  68.043,4.375  0,4.375  L  0,255  z " />
<path transform="translate( 0, 0 )" style="stroke: hsl(295.9, 55%, 50%);" id="219"  d=" M  0,255  C  32.801,255  32.801,320.601  32.801,320.601  L  172.904,287.328  L  136.086,16.531  C  136.086,16.531  68.043,10.375  0,10.375  L  0,255  z " />
    </g>
    <!-- End of group #back -->
    
    <!-- Start of group #side -->
    <g id="side"  transform=" translate(5 48.469)  translate(182.904 0) " >
        <path class="hidden" id="4"  d=" M  0,-43.469  L  190.088,-43.469  L  190.088,290  L  0,290  z " />
<path transform="translate( 0, 0 )" style="stroke: hsl(26.9, 55%, 50%);" id="20"  d=" M  0,-43.469  L  190.088,-31.156  L  190.088,230  L  19.089,229.284  z " />
<path transform="translate( 0, 0 )" style="stroke: hsl(53.8, 55%, 50%);" id="40"  d=" M  0,-37.469  L  190.088,-25.156  L  190.088,236  L  19.089,235.284  z " />
<path transform="translate( 0, 0 )" style="stroke: hsl(80.7, 55%, 50%);" id="60"  d=" M  0,-31.469  L  190.088,-19.156  L  190.088,242  L  19.089,241.285  z " />
<path transform="translate( 0, 0 )" style="stroke: hsl(107.6, 55%, 50%);" id="80"  d=" M  0,-25.469  L  190.088,-13.156  L  190.088,248  L  19.089,247.285  z " />
<path transform="translate( 0, 0 )" style="stroke: hsl(134.5, 55%, 50%);" id="100"  d=" M  0,-19.469  L  190.088,-7.156  L  190.088,254  L  19.089,253.285  z " />
<path transform="translate( 0, 0 )" style="stroke: hsl(161.4, 55%, 50%);" id="120"  d=" M  0,-13.469  L  190.088,-1.156  L  190.088,260  L  19.089,259.284  z " />
<path transform="translate( 0, 0 )" style="stroke: hsl(188.3, 55%, 50%);" id="140"  d=" M  0,-7.469  L  190.088,4.844  L  190.088,266  L  19.089,265.285  z " />
<path transform="translate( 0, 0 )" style="stroke: hsl(215.2, 55%, 50%);" id="160"  d=" M  0,-1.469  L  190.088,10.844  L  190.088,272  L  19.089,271.284  z " />
<path transform="translate( 0, 0 )" style="stroke: hsl(242.1, 55%, 50%);" id="180"  d=" M  0,4.531  L  190.088,16.844  L  190.088,278  L  19.089,277.285  z " />
<path transform="translate( 0, 0 )" style="stroke: hsl(269, 55%, 50%);" id="200"  d=" M  0,10.531  L  190.088,22.844  L  190.088,284  L  19.089,283.285  z " />
<path transform="translate( 0, 0 )" style="stroke: hsl(295.9, 55%, 50%);" id="220"  d=" M  0,16.531  L  190.088,28.844  L  190.088,290  L  19.089,289.284  z " />
    </g>
    <!-- End of group #side -->
    
    <!-- Start of group #inset -->
    <g id="inset"  transform=" translate(5 5)  translate(613.606 0) " >
        <path class="hidden" id="5"  d=" M  0,0  L  147.029,0  L  147.029,165.75  L  0,165.75  z " />
<path transform="translate( 0, 0 )" style="stroke: hsl(26.9, 55%, 50%);" id="21"  d=" M  0,0  L  0,165.75  L  135,165.75  L  147.029,113.09  C  51.098,91.177  78.721,0  0,0  z " />
<path transform="translate( 0, 0 )" style="stroke: hsl(53.8, 55%, 50%);" id="41"  d=" M  0,0  L  0,165.75  L  135,165.75  L  147.029,113.09  C  51.098,91.177  78.721,0  0,0  z " />
<path transform="translate( 0, 0 )" style="stroke: hsl(80.7, 55%, 50%);" id="61"  d=" M  0,0  L  0,165.75  L  135,165.75  L  147.029,113.09  C  51.098,91.177  78.721,0  0,0  z " />
<path transform="translate( 0, 0 )" style="stroke: hsl(107.6, 55%, 50%);" id="81"  d=" M  0,0  L  0,165.75  L  135,165.75  L  147.029,113.09  C  51.098,91.177  78.721,0  0,0  z " />
<path transform="translate( 0, 0 )" style="stroke: hsl(134.5, 55%, 50%);" id="101"  d=" M  0,0  L  0,165.75  L  135,165.75  L  147.029,113.09  C  51.098,91.177  78.721,0  0,0  z " />
<path transform="translate( 0, 0 )" style="stroke: hsl(161.4, 55%, 50%);" id="121"  d=" M  0,0  L  0,165.75  L  135,165.75  L  147.029,113.09  C  51.098,91.177  78.721,0  0,0  z " />
<path transform="translate( 0, 0 )" style="stroke: hsl(188.3, 55%, 50%);" id="141"  d=" M  0,0  L  0,165.75  L  135,165.75  L  147.029,113.09  C  51.098,91.177  78.721,0  0,0  z " />
<path transform="translate( 0, 0 )" style="stroke: hsl(215.2, 55%, 50%);" id="161"  d=" M  0,0  L  0,165.75  L  135,165.75  L  147.029,113.09  C  51.098,91.177  78.721,0  0,0  z " />
<path transform="translate( 0, 0 )" style="stroke: hsl(242.1, 55%, 50%);" id="181"  d=" M  0,0  L  0,165.75  L  135,165.75  L  147.029,113.09  C  51.098,91.177  78.721,0  0,0  z " />
<path transform="translate( 0, 0 )" style="stroke: hsl(269, 55%, 50%);" id="201"  d=" M  0,0  L  0,165.75  L  135,165.75  L  147.029,113.09  C  51.098,91.177  78.721,0  0,0  z " />
<path transform="translate( 0, 0 )" style="stroke: hsl(295.9, 55%, 50%);" id="221"  d=" M  0,0  L  0,165.75  L  135,165.75  L  147.029,113.09  C  51.098,91.177  78.721,0  0,0  z " />
    </g>
    <!-- End of group #inset -->
    
    <!-- Start of group #sampler-front -->
    <g id="sampler-front" >
    </g>
    <!-- End of group #sampler-front -->
    
    <!-- Start of group #sampler-back -->
    <g id="sampler-back" >
    </g>
    <!-- End of group #sampler-back -->
    
    <!-- Start of group #sampler-side -->
    <g id="sampler-side" >
    </g>
    <!-- End of group #sampler-side -->
    
    <!-- Start of group #sampler-inset -->
    <g id="sampler-inset" >
    </g>
    <!-- End of group #sampler-inset -->
</g>
<!-- End of group #patternContainer -->

</svg>

