<?xml version="1.0" encoding="UTF-8" standalone="no"?>
<svg
    width ="2705.3114199079"
    height ="1430.1708675083"
    viewbox ="0 0 2705.3114199079 1430.1708675083" xmlns:dc="http://purl.org/dc/elements/1.1/"
    xmlns:cc="http://creativecommons.org/ns#"
    xmlns:rdf="http://www.w3.org/1999/02/22-rdf-syntax-ns#"
    xmlns:svg="http://www.w3.org/2000/svg"
    xmlns="http://www.w3.org/2000/svg"
    xmlns:xlink="http://www.w3.org/1999/xlink"
    xmlns:sodipodi="http://sodipodi.sourceforge.net/DTD/sodipodi-0.dtd"
    xmlns:inkscape="http://www.inkscape.org/namespaces/inkscape" 
>

<style type="text/css">
    <![CDATA[
    path { fill: none; stroke: #000000; stroke-opacity:1; stroke-width: 0.5; stroke-miterlimit:4; stroke-dashoffset:0; stroke-linecap:round; stroke-linejoin:round; }
    path.hidden { fill: none; stroke: none; }]]>
</style>


<!-- Start of group #patternScaleContainer -->
<g id="patternScaleContainer"  transform=" scale(3.54330709 ) " >
    
    <!-- Start of group #block -->
    <g id="block"  transform=" translate(0 0)  translate(763.499 0) " >
    </g>
    <!-- End of group #block -->
    
    <!-- Start of group #front -->
    <g id="front"  transform=" translate(-296.41 -1.656)  translate(479.27 0) " >
        <path class="hidden" id="2"  d=" M  301.41,6.656  L  418.625,6.656  L  418.625,259.935  L  301.41,259.935  z " />
<path transform="translate( 0, 0 )" style="stroke: hsl(26.9, 55%, 50%);" id="18"  d=" M  301.41,6.656  L  301.41,86.16  C  366.379,86.16  357.295,161.415  306.114,239.233  L  337.592,259.935  C  337.592,259.935  418.625,206.937  418.625,123.836  L  418.625,13.5  C  391.138,13.5  350.115,10.634  301.41,6.656  z " />
<path transform="translate( 0, 0 )" style="stroke: hsl(53.8, 55%, 50%);" id="38"  d=" M  301.41,6.656  L  301.41,86.16  C  366.379,86.16  357.295,161.415  306.114,239.233  L  337.592,259.935  C  337.592,259.935  418.625,206.937  418.625,123.836  L  418.625,13.5  C  391.138,13.5  350.115,10.634  301.41,6.656  z " />
<path transform="translate( 0, 0 )" style="stroke: hsl(80.7, 55%, 50%);" id="58"  d=" M  301.41,6.656  L  301.41,86.16  C  366.379,86.16  357.295,161.415  306.114,239.233  L  337.592,259.935  C  337.592,259.935  418.625,206.937  418.625,123.836  L  418.625,13.5  C  391.138,13.5  350.115,10.634  301.41,6.656  z " />
<path transform="translate( 0, 0 )" style="stroke: hsl(107.6, 55%, 50%);" id="78"  d=" M  301.41,6.656  L  301.41,86.16  C  366.379,86.16  357.295,161.415  306.114,239.233  L  337.592,259.935  C  337.592,259.935  418.625,206.937  418.625,123.836  L  418.625,13.5  C  391.138,13.5  350.115,10.634  301.41,6.656  z " />
<path transform="translate( 0, 0 )" style="stroke: hsl(134.5, 55%, 50%);" id="98"  d=" M  301.41,6.656  L  301.41,86.16  C  366.379,86.16  357.295,161.415  306.114,239.233  L  337.592,259.935  C  337.592,259.935  418.625,206.937  418.625,123.836  L  418.625,13.5  C  391.138,13.5  350.115,10.634  301.41,6.656  z " />
<path transform="translate( 0, 0 )" style="stroke: hsl(161.4, 55%, 50%);" id="118"  d=" M  301.41,6.656  L  301.41,86.16  C  366.379,86.16  357.295,161.415  306.114,239.233  L  337.592,259.935  C  337.592,259.935  418.625,206.937  418.625,123.836  L  418.625,13.5  C  391.138,13.5  350.115,10.634  301.41,6.656  z " />
<path transform="translate( 0, 0 )" style="stroke: hsl(188.3, 55%, 50%);" id="138"  d=" M  301.41,6.656  L  301.41,86.16  C  366.379,86.16  357.295,161.415  306.114,239.233  L  337.592,259.935  C  337.592,259.935  418.625,206.937  418.625,123.836  L  418.625,13.5  C  391.138,13.5  350.115,10.634  301.41,6.656  z " />
<path transform="translate( 0, 0 )" style="stroke: hsl(215.2, 55%, 50%);" id="158"  d=" M  301.41,6.656  L  301.41,86.16  C  366.379,86.16  357.295,161.415  306.114,239.233  L  337.592,259.935  C  337.592,259.935  418.625,206.937  418.625,123.836  L  418.625,13.5  C  391.138,13.5  350.115,10.634  301.41,6.656  z " />
<path transform="translate( 0, 0 )" style="stroke: hsl(242.1, 55%, 50%);" id="178"  d=" M  301.41,6.656  L  301.41,86.16  C  366.379,86.16  357.295,161.415  306.114,239.233  L  337.592,259.935  C  337.592,259.935  418.625,206.937  418.625,123.836  L  418.625,13.5  C  391.138,13.5  350.115,10.634  301.41,6.656  z " />
<path transform="translate( 0, 0 )" style="stroke: hsl(269, 55%, 50%);" id="198"  d=" M  301.41,6.656  L  301.41,86.16  C  366.379,86.16  357.295,161.415  306.114,239.233  L  337.592,259.935  C  337.592,259.935  418.625,206.937  418.625,123.836  L  418.625,13.5  C  391.138,13.5  350.115,10.634  301.41,6.656  z " />
<path transform="translate( 0, 0 )" style="stroke: hsl(295.9, 55%, 50%);" id="218"  d=" M  301.41,6.656  L  301.41,86.16  C  366.379,86.16  357.295,161.415  306.114,239.233  L  337.592,259.935  C  337.592,259.935  418.625,206.937  418.625,123.836  L  418.625,13.5  C  391.138,13.5  350.115,10.634  301.41,6.656  z " />
    </g>
    <!-- End of group #front -->
    
    <!-- Start of group #back -->
    <g id="back"  transform=" translate(5 18.095)  translate(0 0) " >
        <path class="hidden" id="3"  d=" M  0,-13.095  L  252.829,-13.095  L  252.829,380.531  L  0,380.531  z " />
<path transform="translate( 0, 0 )" style="stroke: hsl(26.9, 55%, 50%);" id="19"  d=" M  0,-13.095  L  0,275.4  C  18.838,275.4  32.976,294.834  37.676,313.076  L  37.676,313.076  L  234.73,262.302  L  142.333,-6.454  C  92.006,-10.199  41.444,-13.095  0,-13.095  z " />
<path transform="translate( 0, 0 )" style="stroke: hsl(53.8, 55%, 50%);" id="39"  d=" M  0,-13.095  L  0,275.4  C  18.838,275.4  32.942,294.842  37.676,313.076  L  39.435,319.851  L  236.426,268.833  L  142.333,-6.454  C  92.006,-10.199  41.444,-13.095  0,-13.095  z " />
<path transform="translate( 0, 0 )" style="stroke: hsl(80.7, 55%, 50%);" id="59"  d=" M  0,-13.095  L  0,275.4  C  18.838,275.4  32.909,294.851  37.676,313.076  L  41.219,326.62  L  238.147,275.361  L  142.333,-6.454  C  92.006,-10.199  41.444,-13.095  0,-13.095  z " />
<path transform="translate( 0, 0 )" style="stroke: hsl(107.6, 55%, 50%);" id="79"  d=" M  0,-13.095  L  0,275.4  C  18.838,275.4  32.876,294.86  37.676,313.076  L  43.027,333.383  L  239.893,281.886  L  142.333,-6.454  C  92.006,-10.199  41.444,-13.095  0,-13.095  z " />
<path transform="translate( 0, 0 )" style="stroke: hsl(134.5, 55%, 50%);" id="99"  d=" M  0,-13.095  L  0,275.4  C  18.838,275.4  32.842,294.869  37.676,313.076  L  44.86,340.139  L  241.665,288.408  L  142.333,-6.454  C  92.006,-10.199  41.444,-13.095  0,-13.095  z " />
<path transform="translate( 0, 0 )" style="stroke: hsl(161.4, 55%, 50%);" id="119"  d=" M  0,-13.095  L  0,275.4  C  18.838,275.4  32.809,294.878  37.676,313.076  L  46.718,346.888  L  243.462,294.927  L  142.333,-6.454  C  92.006,-10.199  41.444,-13.095  0,-13.095  z " />
<path transform="translate( 0, 0 )" style="stroke: hsl(188.3, 55%, 50%);" id="139"  d=" M  0,-13.095  L  0,275.4  C  18.838,275.4  32.776,294.886  37.676,313.076  L  48.601,353.63  L  245.285,301.442  L  142.333,-6.454  C  92.006,-10.199  41.444,-13.095  0,-13.095  z " />
<path transform="translate( 0, 0 )" style="stroke: hsl(215.2, 55%, 50%);" id="159"  d=" M  0,-13.095  L  0,275.4  C  18.838,275.4  32.743,294.895  37.676,313.076  L  50.508,360.366  L  247.132,307.954  L  142.333,-6.454  C  92.006,-10.199  41.444,-13.095  0,-13.095  z " />
<path transform="translate( 0, 0 )" style="stroke: hsl(242.1, 55%, 50%);" id="179"  d=" M  0,-13.095  L  0,275.4  C  18.838,275.4  32.709,294.905  37.676,313.076  L  52.44,367.095  L  249.005,314.462  L  142.333,-6.454  C  92.006,-10.199  41.444,-13.095  0,-13.095  z " />
<path transform="translate( 0, 0 )" style="stroke: hsl(269, 55%, 50%);" id="199"  d=" M  0,-13.095  L  0,275.4  C  18.838,275.4  32.676,294.914  37.676,313.076  L  54.397,373.816  L  250.904,320.967  L  142.333,-6.454  C  92.006,-10.199  41.444,-13.095  0,-13.095  z " />
<path transform="translate( 0, 0 )" style="stroke: hsl(295.9, 55%, 50%);" id="219"  d=" M  0,-13.095  L  0,275.4  C  18.838,275.4  32.643,294.923  37.676,313.076  L  56.379,380.531  L  252.829,327.469  L  142.333,-6.454  C  92.006,-10.199  41.444,-13.095  0,-13.095  z " />
    </g>
    <!-- End of group #back -->
    
    <!-- Start of group #side -->
    <g id="side"  transform=" translate(-113.548 11.454)  translate(262.829 0) " >
        <path class="hidden" id="4"  d=" M  118.548,-6.454  L  324.989,-6.454  L  324.989,343.804  L  118.548,343.804  z " />
<path transform="translate( 0, 0 )" style="stroke: hsl(26.9, 55%, 50%);" id="20"  d=" M  142.333,-6.454  C  142.333,-6.454  102.614,206.519  125.826,275.792  C  125.826,275.792  256.944,218.883  319.499,213.41  L  301.41,6.656  C  253.446,2.742  197.272,-2.366  142.333,-6.454  z " />
<path transform="translate( 0, 0 )" style="stroke: hsl(53.8, 55%, 50%);" id="40"  d=" M  142.333,-6.454  C  142.333,-6.454  103.163,212.795  126.511,282.511  C  126.511,282.511  257.493,225.159  320.048,219.686  L  301.41,6.656  C  253.446,2.742  197.272,-2.366  142.333,-6.454  z " />
<path transform="translate( 0, 0 )" style="stroke: hsl(80.7, 55%, 50%);" id="60"  d=" M  142.333,-6.454  C  142.333,-6.454  103.661,220.965  127.268,289.355  C  127.268,289.355  258.042,231.435  320.597,225.962  L  301.41,6.656  C  253.446,2.742  197.272,-2.366  142.333,-6.454  z " />
<path transform="translate( 0, 0 )" style="stroke: hsl(107.6, 55%, 50%);" id="80"  d=" M  142.333,-6.454  C  142.333,-6.454  104.21,227.241  128.025,296.302  C  128.025,296.302  258.591,237.711  321.146,232.238  L  301.41,6.656  C  253.446,2.742  197.272,-2.366  142.333,-6.454  z " />
<path transform="translate( 0, 0 )" style="stroke: hsl(134.5, 55%, 50%);" id="100"  d=" M  142.333,-6.454  C  142.333,-6.454  104.759,233.517  128.714,303.022  C  128.714,303.022  259.14,243.987  321.695,238.514  L  301.41,6.656  C  253.446,2.742  197.272,-2.366  142.333,-6.454  z " />
<path transform="translate( 0, 0 )" style="stroke: hsl(161.4, 55%, 50%);" id="120"  d=" M  142.333,-6.454  C  142.333,-6.454  105.272,241.686  129.475,309.857  C  129.475,309.857  259.689,250.263  322.244,244.79  L  301.41,6.656  C  253.446,2.742  197.272,-2.366  142.333,-6.454  z " />
<path transform="translate( 0, 0 )" style="stroke: hsl(188.3, 55%, 50%);" id="140"  d=" M  142.333,-6.454  C  142.333,-6.454  105.821,247.962  130.166,316.582  C  130.166,316.582  260.238,256.539  322.793,251.066  L  301.41,6.656  C  253.446,2.742  197.272,-2.366  142.333,-6.454  z " />
<path transform="translate( 0, 0 )" style="stroke: hsl(215.2, 55%, 50%);" id="160"  d=" M  142.333,-6.454  C  142.333,-6.454  106.37,254.238  130.931,323.527  C  130.931,323.527  260.787,262.815  323.342,257.342  L  301.41,6.656  C  253.446,2.742  197.272,-2.366  142.333,-6.454  z " />
<path transform="translate( 0, 0 )" style="stroke: hsl(242.1, 55%, 50%);" id="180"  d=" M  142.333,-6.454  C  142.333,-6.454  106.9,262.407  131.698,330.354  C  131.698,330.354  261.336,269.091  323.891,263.618  L  301.41,6.656  C  253.446,2.742  197.272,-2.366  142.333,-6.454  z " />
<path transform="translate( 0, 0 )" style="stroke: hsl(269, 55%, 50%);" id="200"  d=" M  142.333,-6.454  C  142.333,-6.454  107.449,268.683  132.392,337.081  C  132.392,337.081  261.885,275.367  324.44,269.894  L  301.41,6.656  C  253.446,2.742  197.272,-2.366  142.333,-6.454  z " />
<path transform="translate( 0, 0 )" style="stroke: hsl(295.9, 55%, 50%);" id="220"  d=" M  142.333,-6.454  C  142.333,-6.454  107.998,274.959  133.089,343.804  C  133.089,343.804  262.434,281.643  324.989,276.17  L  301.41,6.656  C  253.446,2.742  197.272,-2.366  142.333,-6.454  z " />
    </g>
    <!-- End of group #side -->
    
    <!-- Start of group #inset -->
    <g id="inset"  transform=" translate(-296.41 -18.16)  translate(606.485 0) " >
        <path class="hidden" id="5"  d=" M  301.41,23.16  L  448.424,23.16  L  448.424,214.2  L  301.41,214.2  z " />
<path transform="translate( 0, 0 )" style="stroke: hsl(26.9, 55%, 50%);" id="21"  d=" M  301.41,86.16  C  392.41,86.16  351.693,186.955  442.331,194.874  L  440.64,214.2  L  301.41,214.2  z " />
<path transform="translate( 0, -6.3 )" style="stroke: hsl(53.8, 55%, 50%);" id="41"  d=" M  301.41,86.16  C  392.41,86.16  352.302,186.291  442.94,194.209  L  440.64,220.5  L  301.41,220.5  z " />
<path transform="translate( 0, -12.6 )" style="stroke: hsl(80.7, 55%, 50%);" id="61"  d=" M  301.41,86.16  C  393.41,86.16  351.916,185.538  443.55,193.544  L  440.64,226.8  L  301.41,226.8  z " />
<path transform="translate( 0, -18.9 )" style="stroke: hsl(107.6, 55%, 50%);" id="81"  d=" M  301.41,86.16  C  393.41,86.16  352.525,184.873  444.159,192.879  L  440.64,233.1  L  301.41,233.1  z " />
<path transform="translate( 0, -25.2 )" style="stroke: hsl(134.5, 55%, 50%);" id="101"  d=" M  301.41,86.16  C  394.41,86.16  352.138,184.121  444.768,192.214  L  440.64,239.4  L  301.41,239.4  z " />
<path transform="translate( 0, -31.5 )" style="stroke: hsl(161.4, 55%, 50%);" id="121"  d=" M  301.41,86.16  C  394.41,86.16  352.748,183.456  445.378,191.549  L  440.64,245.7  L  301.41,245.7  z " />
<path transform="translate( 0, -37.8 )" style="stroke: hsl(188.3, 55%, 50%);" id="141"  d=" M  301.41,86.16  C  394.41,86.16  353.357,182.791  445.987,190.884  L  440.64,252  L  301.41,252  z " />
<path transform="translate( 0, -44.1 )" style="stroke: hsl(215.2, 55%, 50%);" id="161"  d=" M  301.41,86.16  C  395.41,86.16  352.97,182.039  446.596,190.219  L  440.64,258.3  L  301.41,258.3  z " />
<path transform="translate( 0, -50.4 )" style="stroke: hsl(242.1, 55%, 50%);" id="181"  d=" M  301.41,86.16  C  395.41,86.16  353.58,181.375  447.206,189.555  L  440.64,264.6  L  301.41,264.6  z " />
<path transform="translate( 0, -56.7 )" style="stroke: hsl(269, 55%, 50%);" id="201"  d=" M  301.41,86.16  C  395.41,86.16  354.189,180.71  447.815,188.89  L  440.64,270.9  L  301.41,270.9  z " />
<path transform="translate( 0, -63 )" style="stroke: hsl(295.9, 55%, 50%);" id="221"  d=" M  301.41,86.16  C  395.41,86.16  354.798,180.044  448.424,188.224  L  440.64,277.2  L  301.41,277.2  z " />
    </g>
    <!-- End of group #inset -->
    
    <!-- Start of group #sampler-front -->
    <g id="sampler-front"  transform=" translate(0 0)  translate(763.499 0) " >
    </g>
    <!-- End of group #sampler-front -->
    
    <!-- Start of group #sampler-back -->
    <g id="sampler-back"  transform=" translate(0 0)  translate(763.499 0) " >
    </g>
    <!-- End of group #sampler-back -->
    
    <!-- Start of group #sampler-side -->
    <g id="sampler-side"  transform=" translate(0 0)  translate(763.499 0) " >
    </g>
    <!-- End of group #sampler-side -->
    
    <!-- Start of group #sampler-inset -->
    <g id="sampler-inset"  transform=" translate(0 0)  translate(763.499 0) " >
    </g>
    <!-- End of group #sampler-inset -->
</g>
<!-- End of group #patternScaleContainer -->

</svg>

