<?xml version="1.0" encoding="UTF-8" standalone="no"?>
<svg
    xmlns="http://www.w3.org/2000/svg"
    xmlns:svg="http://www.w3.org/2000/svg"
    xmlns:xlink="http://www.w3.org/1999/xlink"
    xmlns:freesewing="http://freesewing.org/namespaces/freesewing" viewBox ="0 0 775 385"
    width ="775mm"
    height ="385mm"
    freesewing:version ="1.5.0"
    freesewing:origin ="joost.core.freesewing.org" 
>

<style type="text/css">
    <![CDATA[
    path { fill: none; stroke: #000000; stroke-opacity:1; stroke-width: 0.5; stroke-miterlimit:4; stroke-dashoffset:0; stroke-linecap:round; stroke-linejoin:round; }
    path.hidden { fill: none; stroke: none; }]]>
</style>


<!-- Start of group #patternContainer -->
<g id="patternContainer" >
    
    <!-- Start of group #block -->
    <g id="block" >
    </g>
    <!-- End of group #block -->
    
    <!-- Start of group #front -->
    <g id="front"  transform=" translate(115.569 11.156)  translate(386.802 0) " >
        <path class="hidden" id="2"  d=" M  -110.569,-6.156  L  110.569,-6.156  L  110.569,276.06  L  -110.569,276.06  z " />
<path transform="translate( 0, 0 )" style="stroke: hsl(26.9, 55%, 50%);" id="18"  d=" M  -109.169,66.5  L  -105.844,-6.156  C  -105.844,-6.156  -52.922,0  0,0  C  52.922,0  105.844,-6.156  105.844,-6.156  L  109.169,66.5  C  29.031,95.668  39.633,117.919  68.801,198.057  L  44.143,207.031  C  44.143,207.031  8.764,161.959  0,137.88  C  -8.764,161.959  -44.143,207.031  -44.143,207.031  L  -68.801,198.057  C  -39.633,117.919  -29.031,95.668  -109.169,66.5  z " />
<path transform="translate( 0, 0 )" style="stroke: hsl(53.8, 55%, 50%);" id="38"  d=" M  -109.309,69.3  L  -105.844,-6.156  C  -105.844,-6.156  -52.922,0  0,0  C  52.922,0  105.844,-6.156  105.844,-6.156  L  109.309,69.3  C  29.171,98.468  40.943,124.342  70.11,204.48  L  45.453,213.455  C  45.453,213.455  9.067,168.066  0,143.154  C  -9.067,168.066  -45.453,213.455  -45.453,213.455  L  -70.11,204.48  C  -40.943,124.342  -29.171,98.468  -109.309,69.3  z " />
<path transform="translate( 0, 0 )" style="stroke: hsl(80.7, 55%, 50%);" id="58"  d=" M  -109.449,72.1  L  -105.844,-6.156  C  -105.844,-6.156  -52.922,0  0,0  C  52.922,0  105.844,-6.156  105.844,-6.156  L  109.449,72.1  C  29.311,101.268  42.355,131.048  71.523,211.186  L  46.866,220.161  C  46.866,220.161  9.395,174.435  0,148.623  C  -9.395,174.435  -46.866,220.161  -46.866,220.161  L  -71.523,211.186  C  -42.355,131.048  -29.311,101.268  -109.449,72.1  z " />
<path transform="translate( 0, 0 )" style="stroke: hsl(107.6, 55%, 50%);" id="78"  d=" M  -109.589,74.9  L  -105.844,-6.156  C  -105.844,-6.156  -52.922,0  0,0  C  52.922,0  105.844,-6.156  105.844,-6.156  L  109.589,74.9  C  29.451,104.068  43.8,137.842  72.968,217.98  L  48.31,226.955  C  48.31,226.955  9.73,180.885  0,154.152  C  -9.73,180.885  -48.31,226.955  -48.31,226.955  L  -72.968,217.98  C  -43.8,137.842  -29.451,104.068  -109.589,74.9  z " />
<path transform="translate( 0, 0 )" style="stroke: hsl(134.5, 55%, 50%);" id="98"  d=" M  -109.729,77.7  L  -105.844,-6.156  C  -105.844,-6.156  -52.922,0  0,0  C  52.922,0  105.844,-6.156  105.844,-6.156  L  109.729,77.7  C  29.591,106.868  45.272,144.712  74.44,224.85  L  49.782,233.824  C  49.782,233.824  10.072,187.406  0,159.734  C  -10.072,187.406  -49.782,233.824  -49.782,233.824  L  -74.44,224.85  C  -45.272,144.712  -29.591,106.868  -109.729,77.7  z " />
<path transform="translate( 0, 0 )" style="stroke: hsl(161.4, 55%, 50%);" id="118"  d=" M  -109.869,80.5  L  -105.844,-6.156  C  -105.844,-6.156  -52.922,0  0,0  C  52.922,0  105.844,-6.156  105.844,-6.156  L  109.869,80.5  C  29.731,109.668  46.769,151.648  75.937,231.786  L  51.279,240.761  C  51.279,240.761  10.419,193.988  0,165.362  C  -10.419,193.988  -51.279,240.761  -51.279,240.761  L  -75.937,231.786  C  -46.769,151.648  -29.731,109.668  -109.869,80.5  z " />
<path transform="translate( 0, 0 )" style="stroke: hsl(188.3, 55%, 50%);" id="138"  d=" M  -110.009,83.3  L  -105.844,-6.156  C  -105.844,-6.156  -52.922,0  0,0  C  52.922,0  105.844,-6.156  105.844,-6.156  L  110.009,83.3  C  29.871,112.468  48.288,158.646  77.455,238.784  L  52.798,247.758  C  52.798,247.758  10.772,200.627  0,171.032  C  -10.772,200.627  -52.798,247.758  -52.798,247.758  L  -77.455,238.784  C  -48.288,158.646  -29.871,112.468  -110.009,83.3  z " />
<path transform="translate( 0, 0 )" style="stroke: hsl(215.2, 55%, 50%);" id="158"  d=" M  -110.149,86.1  L  -105.844,-6.156  C  -105.844,-6.156  -52.922,0  0,0  C  52.922,0  105.844,-6.156  105.844,-6.156  L  110.149,86.1  C  30.011,115.268  49.824,165.693  78.992,245.831  L  54.335,254.806  C  54.335,254.806  11.128,207.312  0,176.737  C  -11.128,207.312  -54.335,254.806  -54.335,254.806  L  -78.992,245.831  C  -49.824,165.693  -30.011,115.268  -110.149,86.1  z " />
<path transform="translate( 0, 0 )" style="stroke: hsl(242.1, 55%, 50%);" id="178"  d=" M  -110.289,88.9  L  -105.844,-6.156  C  -105.844,-6.156  -52.922,0  0,0  C  52.922,0  105.844,-6.156  105.844,-6.156  L  110.289,88.9  C  30.151,118.068  51.378,172.787  80.546,252.925  L  55.888,261.899  C  55.888,261.899  11.489,214.039  0,182.474  C  -11.489,214.039  -55.888,261.899  -55.888,261.899  L  -80.546,252.925  C  -51.378,172.787  -30.151,118.068  -110.289,88.9  z " />
<path transform="translate( 0, 0 )" style="stroke: hsl(269, 55%, 50%);" id="198"  d=" M  -110.429,91.7  L  -105.844,-6.156  C  -105.844,-6.156  -52.922,0  0,0  C  52.922,0  105.844,-6.156  105.844,-6.156  L  110.429,91.7  C  30.291,120.868  52.893,179.774  82.061,259.912  L  57.404,268.886  C  57.404,268.886  11.84,220.668  0,188.137  C  -11.84,220.668  -57.404,268.886  -57.404,268.886  L  -82.061,259.912  C  -52.893,179.774  -30.291,120.868  -110.429,91.7  z " />
<path transform="translate( 0, 0 )" style="stroke: hsl(295.9, 55%, 50%);" id="218"  d=" M  -110.569,94.5  L  -105.844,-6.156  C  -105.844,-6.156  -52.922,0  0,0  C  52.922,0  105.844,-6.156  105.844,-6.156  L  110.569,94.5  C  30.431,123.668  54.476,186.947  83.644,267.085  L  58.986,276.06  C  58.986,276.06  12.208,227.469  0,193.929  C  -12.208,227.469  -58.986,276.06  -58.986,276.06  L  -83.644,267.085  C  -54.476,186.947  -30.431,123.668  -110.569,94.5  z " />
    </g>
    <!-- End of group #front -->
    
    <!-- Start of group #back -->
    <g id="back"  transform=" translate(5 44.625)  translate(0 0) " >
        <path class="hidden" id="3"  d=" M  0,-39.625  L  176.714,-39.625  L  176.714,335.601  L  0,335.601  z " />
<path transform="translate( 0, 0 )" style="stroke: hsl(26.9, 55%, 50%);" id="19"  d=" M  0,190  C  32.801,190  32.801,255.601  32.801,255.601  L  176.714,250.605  L  136.086,46.531  C  136.086,46.531  68.043,40.375  0,40.375  L  0,190  z " />
<path transform="translate( 0, 0 )" style="stroke: hsl(53.8, 55%, 50%);" id="39"  d=" M  0,198  C  32.801,198  32.801,263.601  32.801,263.601  L  176.239,250.886  L  136.086,38.531  C  136.086,38.531  68.043,32.375  0,32.375  L  0,198  z " />
<path transform="translate( 0, 0 )" style="stroke: hsl(80.7, 55%, 50%);" id="59"  d=" M  0,206  C  32.801,206  32.801,271.601  32.801,271.601  L  175.352,251.223  L  136.086,30.531  C  136.086,30.531  68.043,24.375  0,24.375  L  0,206  z " />
<path transform="translate( 0, 0 )" style="stroke: hsl(107.6, 55%, 50%);" id="79"  d=" M  0,214  C  32.801,214  32.801,279.601  32.801,279.601  L  174.053,251.605  L  136.086,22.531  C  136.086,22.531  68.043,16.375  0,16.375  L  0,214  z " />
<path transform="translate( 0, 0 )" style="stroke: hsl(134.5, 55%, 50%);" id="99"  d=" M  0,222  C  32.801,222  32.801,287.601  32.801,287.601  L  172.336,252.02  L  136.086,14.531  C  136.086,14.531  68.043,8.375  0,8.375  L  0,222  z " />
<path transform="translate( 0, 0 )" style="stroke: hsl(161.4, 55%, 50%);" id="119"  d=" M  0,230  C  32.801,230  32.801,295.601  32.801,295.601  L  170.186,252.458  L  136.086,6.531  C  136.086,6.531  68.043,0.375  0,0.375  L  0,230  z " />
<path transform="translate( 0, 0 )" style="stroke: hsl(188.3, 55%, 50%);" id="139"  d=" M  0,238  C  32.801,238  32.801,303.601  32.801,303.601  L  167.583,252.907  L  136.086,-1.469  C  136.086,-1.469  68.043,-7.625  0,-7.625  L  0,238  z " />
<path transform="translate( 0, 0 )" style="stroke: hsl(215.2, 55%, 50%);" id="159"  d=" M  0,246  C  32.801,246  32.801,311.601  32.801,311.601  L  164.495,253.354  L  136.086,-9.469  C  136.086,-9.469  68.043,-15.625  0,-15.625  L  0,246  z " />
<path transform="translate( 0, 0 )" style="stroke: hsl(242.1, 55%, 50%);" id="179"  d=" M  0,254  C  32.801,254  32.801,319.601  32.801,319.601  L  160.881,253.787  L  136.086,-17.469  C  136.086,-17.469  68.043,-23.625  0,-23.625  L  0,254  z " />
<path transform="translate( 0, 0 )" style="stroke: hsl(269, 55%, 50%);" id="199"  d=" M  0,262  C  32.801,262  32.801,327.601  32.801,327.601  L  156.683,254.189  L  136.086,-25.469  C  136.086,-25.469  68.043,-31.625  0,-31.625  L  0,262  z " />
<path transform="translate( 0, 0 )" style="stroke: hsl(295.9, 55%, 50%);" id="219"  d=" M  0,270  C  32.801,270  32.801,335.601  32.801,335.601  L  151.819,254.541  L  136.086,-33.469  C  136.086,-33.469  68.043,-39.625  0,-39.625  L  0,270  z " />
    </g>
    <!-- End of group #back -->
    
    <!-- Start of group #side -->
    <g id="side"  transform=" translate(5 38.469)  translate(186.714 0) " >
        <path class="hidden" id="4"  d=" M  0,-33.469  L  190.088,-33.469  L  190.088,255  L  0,255  z " />
<path transform="translate( 0, 0 )" style="stroke: hsl(26.9, 55%, 50%);" id="20"  d=" M  0,46.531  L  190.088,58.844  L  190.088,255  L  19.091,254.038  z " />
<path transform="translate( 0, 0 )" style="stroke: hsl(53.8, 55%, 50%);" id="40"  d=" M  0,38.531  L  190.088,50.844  L  190.088,255  L  19.09,254.078  z " />
<path transform="translate( 0, 0 )" style="stroke: hsl(80.7, 55%, 50%);" id="60"  d=" M  0,30.531  L  190.088,42.844  L  190.088,255  L  19.09,254.113  z " />
<path transform="translate( 0, 0 )" style="stroke: hsl(107.6, 55%, 50%);" id="80"  d=" M  0,22.531  L  190.088,34.844  L  190.088,255  L  19.09,254.147  z " />
<path transform="translate( 0, 0 )" style="stroke: hsl(134.5, 55%, 50%);" id="100"  d=" M  0,14.531  L  190.088,26.844  L  190.088,255  L  19.09,254.177  z " />
<path transform="translate( 0, 0 )" style="stroke: hsl(161.4, 55%, 50%);" id="120"  d=" M  0,6.531  L  190.088,18.844  L  190.088,255  L  19.09,254.206  z " />
<path transform="translate( 0, 0 )" style="stroke: hsl(188.3, 55%, 50%);" id="140"  d=" M  0,-1.469  L  190.088,10.844  L  190.088,255  L  19.09,254.234  z " />
<path transform="translate( 0, 0 )" style="stroke: hsl(215.2, 55%, 50%);" id="160"  d=" M  0,-9.469  L  190.088,2.844  L  190.088,255  L  19.09,254.258  z " />
<path transform="translate( 0, 0 )" style="stroke: hsl(242.1, 55%, 50%);" id="180"  d=" M  0,-17.469  L  190.088,-5.156  L  190.088,255  L  19.09,254.282  z " />
<path transform="translate( 0, 0 )" style="stroke: hsl(269, 55%, 50%);" id="200"  d=" M  0,-25.469  L  190.088,-13.156  L  190.088,255  L  19.089,254.304  z " />
<path transform="translate( 0, 0 )" style="stroke: hsl(295.9, 55%, 50%);" id="220"  d=" M  0,-33.469  L  190.088,-21.156  L  190.088,255  L  19.089,254.324  z " />
    </g>
    <!-- End of group #side -->
    
    <!-- Start of group #inset -->
    <g id="inset"  transform=" translate(5 5)  translate(617.94 0) " >
        <path class="hidden" id="5"  d=" M  0,0  L  147.029,0  L  147.029,175.5  L  0,175.5  z " />
<path transform="translate( 0, 0 )" style="stroke: hsl(26.9, 55%, 50%);" id="21"  d=" M  0,0  L  0,123.5  L  135,123.5  L  147.029,70.84  C  51.098,48.927  78.721,0  0,0  z " />
<path transform="translate( 0, 0 )" style="stroke: hsl(53.8, 55%, 50%);" id="41"  d=" M  0,0  L  0,128.7  L  135,128.7  L  147.029,76.04  C  51.098,54.127  78.721,0  0,0  z " />
<path transform="translate( 0, 0 )" style="stroke: hsl(80.7, 55%, 50%);" id="61"  d=" M  0,0  L  0,133.9  L  135,133.9  L  147.029,81.24  C  51.098,59.327  78.721,0  0,0  z " />
<path transform="translate( 0, 0 )" style="stroke: hsl(107.6, 55%, 50%);" id="81"  d=" M  0,0  L  0,139.1  L  135,139.1  L  147.029,86.44  C  51.098,64.527  78.721,0  0,0  z " />
<path transform="translate( 0, 0 )" style="stroke: hsl(134.5, 55%, 50%);" id="101"  d=" M  0,0  L  0,144.3  L  135,144.3  L  147.029,91.64  C  51.098,69.727  78.721,0  0,0  z " />
<path transform="translate( 0, 0 )" style="stroke: hsl(161.4, 55%, 50%);" id="121"  d=" M  0,0  L  0,149.5  L  135,149.5  L  147.029,96.84  C  51.098,74.927  78.721,0  0,0  z " />
<path transform="translate( 0, 0 )" style="stroke: hsl(188.3, 55%, 50%);" id="141"  d=" M  0,0  L  0,154.7  L  135,154.7  L  147.029,102.04  C  51.098,80.127  78.721,0  0,0  z " />
<path transform="translate( 0, 0 )" style="stroke: hsl(215.2, 55%, 50%);" id="161"  d=" M  0,0  L  0,159.9  L  135,159.9  L  147.029,107.24  C  51.098,85.327  78.721,0  0,0  z " />
<path transform="translate( 0, 0 )" style="stroke: hsl(242.1, 55%, 50%);" id="181"  d=" M  0,0  L  0,165.1  L  135,165.1  L  147.029,112.44  C  51.098,90.527  78.721,0  0,0  z " />
<path transform="translate( 0, 0 )" style="stroke: hsl(269, 55%, 50%);" id="201"  d=" M  0,0  L  0,170.3  L  135,170.3  L  147.029,117.64  C  51.098,95.727  78.721,0  0,0  z " />
<path transform="translate( 0, 0 )" style="stroke: hsl(295.9, 55%, 50%);" id="221"  d=" M  0,0  L  0,175.5  L  135,175.5  L  147.029,122.84  C  51.098,100.927  78.721,0  0,0  z " />
    </g>
    <!-- End of group #inset -->
    
    <!-- Start of group #sampler-front -->
    <g id="sampler-front" >
    </g>
    <!-- End of group #sampler-front -->
    
    <!-- Start of group #sampler-back -->
    <g id="sampler-back" >
    </g>
    <!-- End of group #sampler-back -->
    
    <!-- Start of group #sampler-side -->
    <g id="sampler-side" >
    </g>
    <!-- End of group #sampler-side -->
    
    <!-- Start of group #sampler-inset -->
    <g id="sampler-inset" >
    </g>
    <!-- End of group #sampler-inset -->
</g>
<!-- End of group #patternContainer -->

</svg>

