<?xml version="1.0" encoding="UTF-8" standalone="no"?>
<svg
    xmlns="http://www.w3.org/2000/svg"
    xmlns:svg="http://www.w3.org/2000/svg"
    xmlns:xlink="http://www.w3.org/1999/xlink"
    xmlns:freesewing="http://freesewing.org/namespaces/freesewing" viewBox ="0 0 371 109"
    width ="371mm"
    height ="109mm"
    freesewing:version ="1.5.0"
    freesewing:origin ="joost.core.freesewing.org" 
>

<style type="text/css">
    <![CDATA[
    path { fill: none; stroke: #000000; stroke-opacity:1; stroke-width: 0.5; stroke-miterlimit:4; stroke-dashoffset:0; stroke-linecap:round; stroke-linejoin:round; }
    path.hidden { fill: none; stroke: none; }]]>
</style>


<!-- Start of group #patternContainer -->
<g id="patternContainer" >
    
    <!-- Start of group #bowTie1 -->
    <g id="bowTie1"  transform=" translate(5 37.5)  translate(0 34) " >
        <path class="hidden" id="2"  d=" M  0,-32.5  L  330,-32.5  L  330,32.5  L  0,32.5  z " />
<path transform="translate( 0, 0 )" style="stroke: hsl(26.9, 55%, 50%);" id="8"  d=" M  0,-12  L  70,-12  L  120,-15  C  129.982,-15.599  160,-32.5  170,-32.5  C  180,-32.5  210,-15  220,-15  C  230,-15  260,-32.5  270,-32.5  L  270,0  L  270,32.5  C  260,32.5  230,15  220,15  C  210,15  180,32.5  170,32.5  C  160,32.5  129.982,15.599  120,15  L  70,12  L  0,12  Z " />
<path transform="translate( 0, 0 )" style="stroke: hsl(53.8, 55%, 50%);" id="16"  d=" M  0,-12  L  70,-12  L  120,-15  C  129.982,-15.599  162,-32.5  172,-32.5  C  182,-32.5  214,-15  224,-15  C  234,-15  266,-32.5  276,-32.5  L  276,0  L  276,32.5  C  266,32.5  234,15  224,15  C  214,15  182,32.5  172,32.5  C  162,32.5  129.982,15.599  120,15  L  70,12  L  0,12  Z " />
<path transform="translate( 0, 0 )" style="stroke: hsl(80.7, 55%, 50%);" id="24"  d=" M  0,-12  L  70,-12  L  120,-15  C  129.982,-15.599  164,-32.5  174,-32.5  C  184,-32.5  218,-15  228,-15  C  238,-15  272,-32.5  282,-32.5  L  282,0  L  282,32.5  C  272,32.5  238,15  228,15  C  218,15  184,32.5  174,32.5  C  164,32.5  129.982,15.599  120,15  L  70,12  L  0,12  Z " />
<path transform="translate( 0, 0 )" style="stroke: hsl(107.6, 55%, 50%);" id="32"  d=" M  0,-12  L  70,-12  L  120,-15  C  129.982,-15.599  166,-32.5  176,-32.5  C  186,-32.5  222,-15  232,-15  C  242,-15  278,-32.5  288,-32.5  L  288,0  L  288,32.5  C  278,32.5  242,15  232,15  C  222,15  186,32.5  176,32.5  C  166,32.5  129.982,15.599  120,15  L  70,12  L  0,12  Z " />
<path transform="translate( 0, 0 )" style="stroke: hsl(134.5, 55%, 50%);" id="40"  d=" M  0,-12  L  70,-12  L  120,-15  C  129.982,-15.599  168,-32.5  178,-32.5  C  188,-32.5  226,-15  236,-15  C  246,-15  284,-32.5  294,-32.5  L  294,0  L  294,32.5  C  284,32.5  246,15  236,15  C  226,15  188,32.5  178,32.5  C  168,32.5  129.982,15.599  120,15  L  70,12  L  0,12  Z " />
<path transform="translate( 0, 0 )" style="stroke: hsl(161.4, 55%, 50%);" id="48"  d=" M  0,-12  L  70,-12  L  120,-15  C  129.982,-15.599  170,-32.5  180,-32.5  C  190,-32.5  230,-15  240,-15  C  250,-15  290,-32.5  300,-32.5  L  300,0  L  300,32.5  C  290,32.5  250,15  240,15  C  230,15  190,32.5  180,32.5  C  170,32.5  129.982,15.599  120,15  L  70,12  L  0,12  Z " />
<path transform="translate( 0, 0 )" style="stroke: hsl(188.3, 55%, 50%);" id="56"  d=" M  0,-12  L  70,-12  L  120,-15  C  129.982,-15.599  172,-32.5  182,-32.5  C  192,-32.5  234,-15  244,-15  C  254,-15  296,-32.5  306,-32.5  L  306,0  L  306,32.5  C  296,32.5  254,15  244,15  C  234,15  192,32.5  182,32.5  C  172,32.5  129.982,15.599  120,15  L  70,12  L  0,12  Z " />
<path transform="translate( 0, 0 )" style="stroke: hsl(215.2, 55%, 50%);" id="64"  d=" M  0,-12  L  70,-12  L  120,-15  C  129.982,-15.599  174,-32.5  184,-32.5  C  194,-32.5  238,-15  248,-15  C  258,-15  302,-32.5  312,-32.5  L  312,0  L  312,32.5  C  302,32.5  258,15  248,15  C  238,15  194,32.5  184,32.5  C  174,32.5  129.982,15.599  120,15  L  70,12  L  0,12  Z " />
<path transform="translate( 0, 0 )" style="stroke: hsl(242.1, 55%, 50%);" id="72"  d=" M  0,-12  L  70,-12  L  120,-15  C  129.982,-15.599  176,-32.5  186,-32.5  C  196,-32.5  242,-15  252,-15  C  262,-15  308,-32.5  318,-32.5  L  318,0  L  318,32.5  C  308,32.5  262,15  252,15  C  242,15  196,32.5  186,32.5  C  176,32.5  129.982,15.599  120,15  L  70,12  L  0,12  Z " />
<path transform="translate( 0, 0 )" style="stroke: hsl(269, 55%, 50%);" id="80"  d=" M  0,-12  L  70,-12  L  120,-15  C  129.982,-15.599  178,-32.5  188,-32.5  C  198,-32.5  246,-15  256,-15  C  266,-15  314,-32.5  324,-32.5  L  324,0  L  324,32.5  C  314,32.5  266,15  256,15  C  246,15  198,32.5  188,32.5  C  178,32.5  129.982,15.599  120,15  L  70,12  L  0,12  Z " />
<path transform="translate( 0, 0 )" style="stroke: hsl(295.9, 55%, 50%);" id="88"  d=" M  0,-12  L  70,-12  L  120,-15  C  129.982,-15.599  180,-32.5  190,-32.5  C  200,-32.5  250,-15  260,-15  C  270,-15  320,-32.5  330,-32.5  L  330,0  L  330,32.5  C  320,32.5  270,15  260,15  C  250,15  200,32.5  190,32.5  C  180,32.5  129.982,15.599  120,15  L  70,12  L  0,12  Z " />
    </g>
    <!-- End of group #bowTie1 -->
    
    <!-- Start of group #bowTie2 -->
    <g id="bowTie2" >
    </g>
    <!-- End of group #bowTie2 -->
    
    <!-- Start of group #bowTie3 -->
    <g id="bowTie3" >
    </g>
    <!-- End of group #bowTie3 -->
    
    <!-- Start of group #collarBand -->
    <g id="collarBand"  transform=" translate(5 17)  translate(0 0) " >
        <path class="hidden" id="3"  d=" M  0,-12  L  361,-12  L  361,12  L  0,12  z " />
<path transform="translate( 0, 0 )" style="stroke: hsl(26.9, 55%, 50%);" id="9"  d=" M  0,-12  L  361,-12  L  361,12  L  0,12  Z " />
<path transform="translate( 0, 0 )" style="stroke: hsl(53.8, 55%, 50%);" id="17"  d=" M  0,-12  L  361,-12  L  361,12  L  0,12  Z " />
<path transform="translate( 0, 0 )" style="stroke: hsl(80.7, 55%, 50%);" id="25"  d=" M  0,-12  L  361,-12  L  361,12  L  0,12  Z " />
<path transform="translate( 0, 0 )" style="stroke: hsl(107.6, 55%, 50%);" id="33"  d=" M  0,-12  L  361,-12  L  361,12  L  0,12  Z " />
<path transform="translate( 0, 0 )" style="stroke: hsl(134.5, 55%, 50%);" id="41"  d=" M  0,-12  L  361,-12  L  361,12  L  0,12  Z " />
<path transform="translate( 0, 0 )" style="stroke: hsl(161.4, 55%, 50%);" id="49"  d=" M  0,-12  L  361,-12  L  361,12  L  0,12  Z " />
<path transform="translate( 0, 0 )" style="stroke: hsl(188.3, 55%, 50%);" id="57"  d=" M  0,-12  L  361,-12  L  361,12  L  0,12  Z " />
<path transform="translate( 0, 0 )" style="stroke: hsl(215.2, 55%, 50%);" id="65"  d=" M  0,-12  L  361,-12  L  361,12  L  0,12  Z " />
<path transform="translate( 0, 0 )" style="stroke: hsl(242.1, 55%, 50%);" id="73"  d=" M  0,-12  L  361,-12  L  361,12  L  0,12  Z " />
<path transform="translate( 0, 0 )" style="stroke: hsl(269, 55%, 50%);" id="81"  d=" M  0,-12  L  361,-12  L  361,12  L  0,12  Z " />
<path transform="translate( 0, 0 )" style="stroke: hsl(295.9, 55%, 50%);" id="89"  d=" M  0,-12  L  361,-12  L  361,12  L  0,12  Z " />
    </g>
    <!-- End of group #collarBand -->
    
    <!-- Start of group #sampler-bowTie1 -->
    <g id="sampler-bowTie1" >
    </g>
    <!-- End of group #sampler-bowTie1 -->
    
    <!-- Start of group #sampler-collarBand -->
    <g id="sampler-collarBand" >
    </g>
    <!-- End of group #sampler-collarBand -->
</g>
<!-- End of group #patternContainer -->

</svg>

