<?xml version="1.0" encoding="UTF-8" standalone="no"?>
<svg
    xmlns="http://www.w3.org/2000/svg"
    xmlns:svg="http://www.w3.org/2000/svg"
    xmlns:xlink="http://www.w3.org/1999/xlink"
    xmlns:freesewing="http://freesewing.org/namespaces/freesewing" viewBox ="0 0 636 347"
    width ="636mm"
    height ="347mm"
    freesewing:version ="1.5.0"
    freesewing:origin ="joost.core.freesewing.org" 
>

<style type="text/css">
    <![CDATA[
    path { fill: none; stroke: #000000; stroke-opacity:1; stroke-width: 0.5; stroke-miterlimit:4; stroke-dashoffset:0; stroke-linecap:round; stroke-linejoin:round; }
    path.hidden { fill: none; stroke: none; }]]>
</style>


<!-- Start of group #patternContainer -->
<g id="patternContainer" >
    
    <!-- Start of group #top -->
    <g id="top"  transform=" translate(13.526 5)  translate(0 0) " >
        <path class="hidden" id="2"  d=" M  -8.526,0  L  401.686,0  L  401.686,116.147  L  -8.526,116.147  z " />
<path transform="translate( 0, 0 )" style="stroke: hsl(26.9, 55%, 50%);" id="18"  d=" M  0,0  L  204.763,0  C  253.42,0  290.242,15.267  302.687,19.599  C  333.322,30.263  363.145,35.434  384.426,62.545  L  393.814,74.505  L  346.678,111.505  L  337.29,99.545  C  332.283,93.166  314.241,81.905  293.967,81.905  C  273.693,81.905  249.554,91.447  244.566,92.343  C  239.578,93.239  212.873,107.45  152.052,107.45  C  40.547,107.45  -0,44.602  0,0  Z " />
<path transform="translate( -0.851, 0 )" style="stroke: hsl(53.8, 55%, 50%);" id="38"  d=" M  0,0  L  205.614,0  C  254.473,0  291.448,15.33  303.945,19.681  C  334.706,30.39  364.655,35.582  386.023,62.805  L  395.45,74.815  L  348.118,111.968  L  338.691,99.958  C  333.663,93.552  315.546,82.246  295.188,82.246  C  274.83,82.246  250.59,91.823  245.582,92.726  C  240.574,93.629  213.756,107.896  152.683,107.896  C  40.715,107.896  -0,44.787  0,0  Z " />
<path transform="translate( -1.216, 0 )" style="stroke: hsl(80.7, 55%, 50%);" id="58"  d=" M  0,0  L  205.979,0  C  254.925,0  291.965,15.357  304.484,19.715  C  335.3,30.443  365.303,35.644  386.709,62.916  L  396.153,74.948  L  348.737,112.167  L  339.293,100.135  C  334.256,93.718  316.107,82.392  295.713,82.392  C  275.319,82.392  251.037,91.989  246.019,92.892  C  241.001,93.795  214.137,108.088  152.955,108.088  C  40.788,108.088  -0,44.867  0,0  Z " />
<path transform="translate( -2.559, 0 )" style="stroke: hsl(107.6, 55%, 50%);" id="78"  d=" M  0,0  L  207.322,0  C  256.587,0  293.868,15.458  306.469,19.844  C  337.487,30.641  367.683,35.877  389.23,63.326  L  398.736,75.436  L  351.011,112.898  L  341.505,100.788  C  336.435,94.329  318.168,82.929  297.641,82.929  C  277.114,82.929  252.674,92.587  247.623,93.497  C  242.572,94.407  215.533,108.793  153.952,108.793  C  41.054,108.793  -0,45.159  0,0  Z " />
<path transform="translate( -3.297, 0 )" style="stroke: hsl(134.5, 55%, 50%);" id="98"  d=" M  0,0  L  208.06,0  C  257.5,0  294.914,15.512  307.56,19.915  C  338.687,30.752  368.991,36.006  390.615,63.552  L  400.155,75.705  L  352.26,113.3  L  342.72,101.147  C  337.632,94.666  319.3,83.224  298.7,83.224  C  278.1,83.224  253.572,92.917  248.504,93.83  C  243.436,94.743  216.3,109.18  154.5,109.18  C  41.2,109.18  -0,45.32  0,0  Z " />
<path transform="translate( -4.158, 0 )" style="stroke: hsl(161.4, 55%, 50%);" id="118"  d=" M  0,0  L  208.921,0  C  258.566,0  296.136,15.576  308.833,19.997  C  340.089,30.879  370.518,36.155  392.231,63.815  L  401.81,76.018  L  353.717,113.769  L  344.138,101.566  C  339.029,95.057  320.621,83.568  299.936,83.568  C  279.251,83.568  254.621,93.299  249.532,94.216  C  244.443,95.133  217.195,109.632  155.139,109.632  C  41.37,109.632  -0,45.507  0,0  Z " />
<path transform="translate( -5.026, 0 )" style="stroke: hsl(188.3, 55%, 50%);" id="138"  d=" M  0,0  L  209.789,0  C  259.64,0  297.367,15.641  310.117,20.08  C  341.503,31.007  372.058,36.305  393.861,64.08  L  403.48,76.334  L  355.187,114.241  L  345.568,101.987  C  340.438,95.451  321.953,83.915  301.182,83.915  C  280.411,83.915  255.68,93.688  250.569,94.608  C  245.458,95.528  218.097,110.087  155.784,110.087  C  41.543,110.087  -0,45.697  0,0  Z " />
<path transform="translate( -5.893, 0 )" style="stroke: hsl(215.2, 55%, 50%);" id="158"  d=" M  0,0  L  210.656,0  C  260.713,0  298.596,15.706  311.399,20.163  C  342.915,31.135  373.597,36.455  395.49,64.345  L  405.149,76.65  L  356.656,114.714  L  346.997,102.409  C  341.846,95.847  323.285,84.263  302.428,84.263  C  281.571,84.263  256.737,94.076  251.605,95  C  246.473,95.924  218.999,110.542  156.428,110.542  C  41.714,110.542  -0,45.886  0,0  Z " />
<path transform="translate( -6.769, 0 )" style="stroke: hsl(242.1, 55%, 50%);" id="178"  d=" M  0,0  L  211.532,0  C  261.797,0  299.836,15.771  312.692,20.247  C  344.339,31.265  375.149,36.606  397.133,64.612  L  406.832,76.968  L  358.137,115.19  L  348.438,102.834  C  343.266,96.245  324.628,84.613  303.684,84.613  C  282.74,84.613  257.803,94.468  252.65,95.395  C  247.497,96.322  219.909,111.002  157.078,111.002  C  41.888,111.002  -0,46.076  0,0  Z " />
<path transform="translate( -7.396, 0 )" style="stroke: hsl(269, 55%, 50%);" id="198"  d=" M  0,0  L  212.159,0  C  262.573,0  300.725,15.818  313.62,20.307  C  345.36,31.357  376.262,36.714  398.311,64.804  L  408.038,77.196  L  359.2,115.532  L  349.473,103.14  C  344.285,96.531  325.59,84.864  304.584,84.864  C  283.578,84.864  258.567,94.747  253.399,95.677  C  248.231,96.607  220.561,111.331  157.544,111.331  C  42.012,111.331  -0,46.213  0,0  Z " />
<path transform="translate( -8.526, 0 )" style="stroke: hsl(295.9, 55%, 50%);" id="218"  d=" M  0,0  L  213.289,0  C  263.972,0  302.326,15.903  315.29,20.416  C  347.2,31.524  378.266,36.911  400.433,65.15  L  410.212,77.608  L  361.113,116.147  L  351.334,103.689  C  346.118,97.044  327.325,85.316  306.207,85.316  C  285.089,85.316  259.945,95.252  254.75,96.188  C  249.555,97.124  221.736,111.924  158.383,111.924  C  42.236,111.924  -0,46.459  0,0  Z " />
    </g>
    <!-- End of group #top -->
    
    <!-- Start of group #side -->
    <g id="side"  transform=" translate(5 5)  translate(0 126.147) " >
        <path class="hidden" id="3"  d=" M  0,0  L  261.199,0  L  261.199,211.177  L  0,211.177  z " />
<path transform="translate( 0, 0 )" style="stroke: hsl(26.9, 55%, 50%);" id="19"  d=" M  76.026,0  C  76.026,50.684  115.758,91.455  132.167,103.362  C  156.779,121.223  207.354,122.56  247.845,124.683  L  249.734,139.77  C  257.292,200.12  217.941,202.736  197.667,202.736  C  172.325,202.736  112.325,176.917  52.174,115.224  C  20.329,82.563  -0,25.342  0,0 " />
<path transform="translate( 0, 0 )" style="stroke: hsl(26.9, 55%, 50%);" id="20"  d=" M  0,0  L  76.026,0 " />
<path transform="translate( 0, 0 )" style="stroke: hsl(53.8, 55%, 50%);" id="39"  d=" M  76.342,0  C  76.342,50.894  116.24,91.834  132.717,103.791  C  157.432,121.726  208.214,123.069  248.874,125.2  L  250.775,140.35  C  258.38,200.947  218.847,203.578  198.489,203.578  C  173.042,203.578  112.792,177.652  52.391,115.703  C  20.414,82.907  -0,25.447  0,0 " />
<path transform="translate( 0, 0 )" style="stroke: hsl(53.8, 55%, 50%);" id="40"  d=" M  0,0  L  76.342,0 " />
<path transform="translate( 0, 0 )" style="stroke: hsl(80.7, 55%, 50%);" id="59"  d=" M  76.478,0  C  76.478,50.985  116.447,91.998  132.953,103.976  C  157.712,121.942  208.585,123.287  249.317,125.423  L  251.224,140.6  C  258.848,201.305  219.236,203.94  198.842,203.94  C  173.349,203.94  112.994,177.968  52.485,115.909  C  20.451,83.054  -0,25.493  0,0 " />
<path transform="translate( 0, 0 )" style="stroke: hsl(80.7, 55%, 50%);" id="60"  d=" M  0,0  L  76.478,0 " />
<path transform="translate( 0, 0 )" style="stroke: hsl(107.6, 55%, 50%);" id="79"  d=" M  76.976,0  C  76.976,51.317  117.205,92.599  133.819,104.655  C  158.739,122.739  209.944,124.092  250.942,126.241  L  252.868,141.516  C  260.57,202.613  220.665,205.269  200.138,205.269  C  174.479,205.269  113.727,179.127  52.826,116.664  C  20.584,83.595  -0,25.659  0,0 " />
<path transform="translate( 0, 0 )" style="stroke: hsl(107.6, 55%, 50%);" id="80"  d=" M  0,0  L  76.976,0 " />
<path transform="translate( 0, 0 )" style="stroke: hsl(134.5, 55%, 50%);" id="99"  d=" M  77.25,0  C  77.25,51.5  117.623,92.928  134.296,105.027  C  159.305,123.175  210.692,124.533  251.835,126.69  L  253.771,142.02  C  261.514,203.331  221.45,206  200.85,206  C  175.1,206  114.132,179.765  53.014,117.079  C  20.657,83.892  -0,25.75  0,0 " />
<path transform="translate( 0, 0 )" style="stroke: hsl(134.5, 55%, 50%);" id="100"  d=" M  0,0  L  77.25,0 " />
<path transform="translate( 0, 0 )" style="stroke: hsl(161.4, 55%, 50%);" id="119"  d=" M  77.57,0  C  77.57,51.713  118.111,93.312  134.852,105.461  C  159.965,123.684  211.564,125.049  252.877,127.214  L  254.826,142.605  C  262.618,204.171  222.366,206.852  201.681,206.852  C  175.824,206.852  114.606,180.508  53.234,117.564  C  20.743,84.24  -0,25.857  0,0 " />
<path transform="translate( 0, 0 )" style="stroke: hsl(161.4, 55%, 50%);" id="120"  d=" M  0,0  L  77.57,0 " />
<path transform="translate( 0, 0 )" style="stroke: hsl(188.3, 55%, 50%);" id="139"  d=" M  77.892,0  C  77.892,51.928  118.601,93.701  135.412,105.9  C  160.629,124.199  212.442,125.57  253.927,127.743  L  255.888,143.197  C  263.732,205.015  223.29,207.711  202.519,207.711  C  176.555,207.711  115.082,181.257  53.455,118.052  C  20.829,84.59  -0,25.964  0,0 " />
<path transform="translate( 0, 0 )" style="stroke: hsl(188.3, 55%, 50%);" id="140"  d=" M  0,0  L  77.892,0 " />
<path transform="translate( 0, 0 )" style="stroke: hsl(215.2, 55%, 50%);" id="159"  d=" M  78.214,0  C  78.214,52.143  119.09,94.088  135.971,106.338  C  161.292,124.713  213.321,126.087  254.978,128.271  L  256.95,143.79  C  264.838,205.861  224.213,208.571  203.356,208.571  C  177.285,208.571  115.556,182.009  53.675,118.54  C  20.915,84.939  -0,26.071  0,0 " />
<path transform="translate( 0, 0 )" style="stroke: hsl(215.2, 55%, 50%);" id="160"  d=" M  0,0  L  78.214,0 " />
<path transform="translate( 0, 0 )" style="stroke: hsl(242.1, 55%, 50%);" id="179"  d=" M  78.539,0  C  78.539,52.359  119.586,94.478  136.537,106.779  C  161.964,125.23  214.207,126.612  256.037,128.804  L  258.022,144.385  C  265.96,206.712  225.145,209.437  204.201,209.437  C  178.021,209.437  116.036,182.764  53.898,119.032  C  21.002,85.292  -0,26.18  0,0 " />
<path transform="translate( 0, 0 )" style="stroke: hsl(242.1, 55%, 50%);" id="180"  d=" M  0,0  L  78.539,0 " />
<path transform="translate( 0, 0 )" style="stroke: hsl(269, 55%, 50%);" id="199"  d=" M  78.772,0  C  78.772,52.515  119.94,94.759  136.941,107.096  C  162.443,125.602  214.842,126.986  256.796,129.186  L  258.79,144.812  C  266.768,207.323  225.813,210.058  204.807,210.058  C  178.55,210.058  116.382,183.306  54.059,119.385  C  21.065,85.545  -0,26.257  0,0 " />
<path transform="translate( 0, 0 )" style="stroke: hsl(269, 55%, 50%);" id="200"  d=" M  0,0  L  78.772,0 " />
<path transform="translate( 0, 0 )" style="stroke: hsl(295.9, 55%, 50%);" id="219"  d=" M  79.191,0  C  79.191,52.794  120.579,95.263  137.671,107.666  C  163.309,126.271  215.987,127.663  258.164,129.874  L  260.174,145.584  C  268.213,208.425  227.015,211.177  205.897,211.177  C  179.5,211.177  117,184.283  54.346,120.021  C  21.176,86  -0,26.397  0,0 " />
<path transform="translate( 0, 0 )" style="stroke: hsl(295.9, 55%, 50%);" id="220"  d=" M  0,0  L  79.191,0 " />
    </g>
    <!-- End of group #side -->
    
    <!-- Start of group #brimBottom -->
    <g id="brimBottom"  transform=" translate(107.648 93.919)  translate(420.212 0) " >
        <path class="hidden" id="4"  d=" M  -102.648,-88.919  L  102.648,-88.919  L  102.648,58.205  L  -102.648,58.205  z " />
<path transform="translate( 0, 0 )" style="stroke: hsl(26.9, 55%, 50%);" id="21"  d=" M  -88.312,-78.276  C  -75.589,-50.991  -70.248,-0  0,0  C  70.248,0  75.589,-50.991  88.312,-78.276  C  118.961,36.107  40.142,58.205  -0,58.205  C  -40.142,58.205  -118.961,36.107  -88.312,-78.276  z " />
<path transform="translate( 0, -0.242 )" style="stroke: hsl(53.8, 55%, 50%);" id="41"  d=" M  -88.679,-78.601  C  -75.903,-51.202  -70.54,-0  0,0  C  70.54,0  75.903,-51.202  88.679,-78.601  C  119.455,36.257  40.308,58.447  -0,58.447  C  -40.308,58.447  -119.455,36.257  -88.679,-78.601  z " />
<path transform="translate( 0, -2.712 )" style="stroke: hsl(80.7, 55%, 50%);" id="61"  d=" M  -92.426,-81.923  C  -79.11,-53.366  -73.52,-0  0,0  C  73.52,0  79.11,-53.366  92.426,-81.923  C  124.502,37.788  42.012,60.917  -0,60.917  C  -42.012,60.917  -124.502,37.788  -92.426,-81.923  z " />
<path transform="translate( 0, -0.728 )" style="stroke: hsl(107.6, 55%, 50%);" id="81"  d=" M  -89.415,-79.254  C  -76.533,-51.628  -71.126,-0  0,0  C  71.126,0  76.533,-51.628  89.415,-79.254  C  120.447,36.559  40.643,58.933  -0,58.933  C  -40.643,58.933  -120.447,36.559  -89.415,-79.254  z " />
<path transform="translate( 0, -0.938 )" style="stroke: hsl(134.5, 55%, 50%);" id="101"  d=" M  -89.734,-79.537  C  -76.806,-51.812  -71.379,-0  0,0  C  71.379,0  76.806,-51.812  89.734,-79.537  C  120.876,36.688  40.788,59.143  -0,59.143  C  -40.788,59.143  -120.876,36.688  -89.734,-79.537  z " />
<path transform="translate( 0, -1.182 )" style="stroke: hsl(161.4, 55%, 50%);" id="121"  d=" M  -90.105,-79.866  C  -77.123,-52.026  -71.674,-0  0,0  C  71.674,0  77.123,-52.026  90.105,-79.866  C  121.376,36.839  40.957,59.387  -0,59.387  C  -40.957,59.387  -121.376,36.839  -90.105,-79.866  z " />
<path transform="translate( 0, -1.429 )" style="stroke: hsl(188.3, 55%, 50%);" id="141"  d=" M  -90.479,-80.197  C  -77.443,-52.242  -71.972,-0  0,0  C  71.972,0  77.443,-52.242  90.479,-80.197  C  121.88,36.993  41.127,59.634  -0,59.634  C  -41.127,59.634  -121.88,36.993  -90.479,-80.197  z " />
<path transform="translate( 0, -1.676 )" style="stroke: hsl(215.2, 55%, 50%);" id="161"  d=" M  -90.853,-80.529  C  -77.763,-52.458  -72.27,-0  0,0  C  72.27,0  77.763,-52.458  90.853,-80.529  C  122.384,37.146  41.297,59.881  -0,59.881  C  -41.297,59.881  -122.384,37.146  -90.853,-80.529  z " />
<path transform="translate( 0, -1.924 )" style="stroke: hsl(242.1, 55%, 50%);" id="181"  d=" M  -91.231,-80.864  C  -78.087,-52.677  -72.57,-0  0,0  C  72.57,0  78.087,-52.677  91.231,-80.864  C  122.893,37.3  41.469,60.129  -0,60.129  C  -41.469,60.129  -122.893,37.3  -91.231,-80.864  z " />
<path transform="translate( 0, -4.539 )" style="stroke: hsl(269, 55%, 50%);" id="201"  d=" M  -95.198,-84.38  C  -81.482,-54.967  -75.726,-0  0,0  C  75.726,0  81.482,-54.967  95.198,-84.38  C  128.237,38.922  43.272,62.744  -0,62.744  C  -43.272,62.744  -128.237,38.922  -95.198,-84.38  z " />
<path transform="translate( 0, -2.424 )" style="stroke: hsl(295.9, 55%, 50%);" id="221"  d=" M  -91.989,-81.535  C  -78.736,-53.113  -73.173,-0  0,0  C  73.173,0  78.736,-53.113  91.989,-81.535  C  123.914,37.611  41.813,60.629  -0,60.629  C  -41.813,60.629  -123.914,37.611  -91.989,-81.535  z " />
    </g>
    <!-- End of group #brimBottom -->
    
    <!-- Start of group #brimTop -->
    <g id="brimTop" >
    </g>
    <!-- End of group #brimTop -->
    
    <!-- Start of group #brimPlastic -->
    <g id="brimPlastic" >
    </g>
    <!-- End of group #brimPlastic -->
    
    <!-- Start of group #sampler-top -->
    <g id="sampler-top" >
    </g>
    <!-- End of group #sampler-top -->
    
    <!-- Start of group #sampler-side -->
    <g id="sampler-side" >
    </g>
    <!-- End of group #sampler-side -->
    
    <!-- Start of group #sampler-brimBottom -->
    <g id="sampler-brimBottom" >
    </g>
    <!-- End of group #sampler-brimBottom -->
</g>
<!-- End of group #patternContainer -->

</svg>

