<?xml version="1.0" encoding="UTF-8" standalone="no"?>
<svg
    xmlns="http://www.w3.org/2000/svg"
    xmlns:svg="http://www.w3.org/2000/svg"
    xmlns:xlink="http://www.w3.org/1999/xlink"
    xmlns:freesewing="http://freesewing.org/namespaces/freesewing" viewBox ="0 0 1509 1017"
    width ="1509mm"
    height ="1017mm"
    freesewing:version ="1.5.0"
    freesewing:origin ="joost.core.freesewing.org" 
>

<style type="text/css">
    <![CDATA[
    path { fill: none; stroke: #000000; stroke-opacity:1; stroke-width: 0.5; stroke-miterlimit:4; stroke-dashoffset:0; stroke-linecap:round; stroke-linejoin:round; }
    path.hidden { fill: none; stroke: none; }]]>
</style>


<!-- Start of group #patternContainer -->
<g id="patternContainer" >
    
    <!-- Start of group #backBlock -->
    <g id="backBlock" >
    </g>
    <!-- End of group #backBlock -->
    
    <!-- Start of group #frontBlock -->
    <g id="frontBlock" >
    </g>
    <!-- End of group #frontBlock -->
    
    <!-- Start of group #sleeveBlock -->
    <g id="sleeveBlock" >
    </g>
    <!-- End of group #sleeveBlock -->
    
    <!-- Start of group #block -->
    <g id="block" >
    </g>
    <!-- End of group #block -->
    
    <!-- Start of group #frontAndBackBlock -->
    <g id="frontAndBackBlock" >
    </g>
    <!-- End of group #frontAndBackBlock -->
    
    <!-- Start of group #frontRight -->
    <g id="frontRight"  transform=" translate(315 5)  translate(0 0) " >
        <path class="hidden" id="2"  d=" M  -310,0  L  30,0  L  30,835  L  -310,835  z " />
<path transform="translate( 0, 0 )" style="stroke: hsl(26.9, 55%, 50%);" id="200"  d=" M  -310,245  C  -288.75,245  -266.327,237.909  -249.209,220.791  C  -232.091,203.673  -220,167.5  -220,132.5  C  -220,97.5  -233.338,37.361  -235,27.5  L  -71.847,0  C  -68.523,19.722  -71.847,100.842  0,100.842  L  20,100.842  C  23.592,100.842  26.997,100.639  30,100.278  L  30,100.842  L  30,835  L  -249,835  C  -249,835  -280,835  -280,835  C  -280,835  -280,755  -280,755  C  -280,734  -276.99,705.994  -277.5,685  C  -277.94,666.875  -280.75,612.5  -280.75,540  C  -280.75,392.5  -310,281.875  -310,245 " />
<path transform="translate( 0, 0 )" style="stroke: hsl(53.8, 55%, 50%);" id="409"  d=" M  -310,250.925  C  -288.75,250.925  -266.788,243.755  -249.479,226.446  C  -232.17,209.137  -220,171.451  -220,135.463  C  -220,99.475  -233.338,37.361  -235,27.5  L  -71.847,0  C  -68.523,19.722  -71.847,100.842  0,100.842  L  20,100.842  C  23.592,100.842  26.997,100.639  30,100.278  L  30,100.842  L  30,835  L  -249,835  C  -249,835  -280,835  -280,835  C  -280,835  -280,755  -280,755  C  -280,734  -276.99,705.994  -277.5,685  C  -277.94,666.875  -280.75,612.5  -280.75,540  C  -280.75,395.463  -310,287.059  -310,250.925 " />
<path transform="translate( 0, 0 )" style="stroke: hsl(80.7, 55%, 50%);" id="618"  d=" M  -310,256.85  C  -288.75,256.85  -267.237,249.603  -249.742,232.108  C  -232.247,214.613  -220,175.4  -220,138.425  C  -220,101.45  -233.338,37.361  -235,27.5  L  -71.847,0  C  -68.523,19.722  -71.847,100.842  0,100.842  L  20,100.842  C  23.592,100.842  26.997,100.639  30,100.278  L  30,100.842  L  30,835  L  -249,835  C  -249,835  -280,835  -280,835  C  -280,835  -280,755  -280,755  C  -280,734  -276.99,705.994  -277.5,685  C  -277.94,666.875  -280.75,612.5  -280.75,540  C  -280.75,398.425  -310,292.244  -310,256.85 " />
<path transform="translate( 0, 0 )" style="stroke: hsl(107.6, 55%, 50%);" id="827"  d=" M  -310,262.775  C  -288.75,262.775  -267.671,255.454  -249.996,237.779  C  -232.321,220.104  -220,179.351  -220,141.388  C  -220,103.425  -233.338,37.361  -235,27.5  L  -71.847,0  C  -68.523,19.722  -71.847,100.842  0,100.842  L  20,100.842  C  23.592,100.842  26.997,100.639  30,100.278  L  30,100.842  L  30,835  L  -249,835  C  -249,835  -280,835  -280,835  C  -280,835  -280,755  -280,755  C  -280,734  -276.99,705.994  -277.5,685  C  -277.94,666.875  -280.75,612.5  -280.75,540  C  -280.75,401.388  -310,297.428  -310,262.775 " />
<path transform="translate( 0, 0 )" style="stroke: hsl(134.5, 55%, 50%);" id="1036"  d=" M  -310,268.7  C  -288.75,268.7  -268.094,261.306  -250.244,243.456  C  -232.394,225.606  -220,183.3  -220,144.35  C  -220,105.4  -233.338,37.361  -235,27.5  L  -71.847,0  C  -68.523,19.722  -71.847,100.842  0,100.842  L  20,100.842  C  23.592,100.842  26.997,100.639  30,100.278  L  30,100.842  L  30,835  L  -249,835  C  -249,835  -280,835  -280,835  C  -280,835  -280,755  -280,755  C  -280,734  -276.99,705.994  -277.5,685  C  -277.94,666.875  -280.75,612.5  -280.75,540  C  -280.75,404.35  -310,302.612  -310,268.7 " />
<path transform="translate( 0, 0 )" style="stroke: hsl(161.4, 55%, 50%);" id="1245"  d=" M  -310,274.625  C  -288.75,274.625  -268.506,267.161  -250.485,249.14  C  -232.464,231.119  -220,187.251  -220,147.313  C  -220,107.375  -233.338,37.361  -235,27.5  L  -71.847,0  C  -68.523,19.722  -71.847,100.842  0,100.842  L  20,100.842  C  23.592,100.842  26.997,100.639  30,100.278  L  30,100.842  L  30,835  L  -249,835  C  -249,835  -280,835  -280,835  C  -280,835  -280,755  -280,755  C  -280,734  -276.99,705.994  -277.5,685  C  -277.94,666.875  -280.75,612.5  -280.75,540  C  -280.75,407.313  -310,307.797  -310,274.625 " />
<path transform="translate( 0, 0 )" style="stroke: hsl(188.3, 55%, 50%);" id="1454"  d=" M  -310,280.55  C  -288.75,280.55  -268.905,273.017  -250.719,254.831  C  -232.533,236.645  -220,191.2  -220,150.275  C  -220,109.35  -233.338,37.361  -235,27.5  L  -71.847,0  C  -68.523,19.722  -71.847,100.842  0,100.842  L  20,100.842  C  23.592,100.842  26.997,100.639  30,100.278  L  30,100.842  L  30,835  L  -249,835  C  -249,835  -280,835  -280,835  C  -280,835  -280,755  -280,755  C  -280,734  -276.99,705.994  -277.5,685  C  -277.94,666.875  -280.75,612.5  -280.75,540  C  -280.75,410.275  -310,312.981  -310,280.55 " />
<path transform="translate( 0, 0 )" style="stroke: hsl(215.2, 55%, 50%);" id="1663"  d=" M  -310,286.475  C  -288.75,286.475  -269.294,278.875  -250.947,260.528  C  -232.6,242.181  -220,195.151  -220,153.238  C  -220,111.325  -233.338,37.361  -235,27.5  L  -71.847,0  C  -68.523,19.722  -71.847,100.842  0,100.842  L  20,100.842  C  23.592,100.842  26.997,100.639  30,100.278  L  30,100.842  L  30,835  L  -249,835  C  -249,835  -280,835  -280,835  C  -280,835  -280,755  -280,755  C  -280,734  -276.99,705.994  -277.5,685  C  -277.94,666.875  -280.75,612.5  -280.75,540  C  -280.75,413.238  -310,318.166  -310,286.475 " />
<path transform="translate( 0, 0 )" style="stroke: hsl(242.1, 55%, 50%);" id="1872"  d=" M  -310,292.4  C  -288.75,292.4  -269.673,284.735  -251.169,266.231  C  -232.665,247.727  -220,199.1  -220,156.2  C  -220,113.3  -233.338,37.361  -235,27.5  L  -71.847,0  C  -68.523,19.722  -71.847,100.842  0,100.842  L  20,100.842  C  23.592,100.842  26.997,100.639  30,100.278  L  30,100.842  L  30,835  L  -249,835  C  -249,835  -280,835  -280,835  C  -280,835  -280,755  -280,755  C  -280,734  -276.99,705.994  -277.5,685  C  -277.94,666.875  -280.75,612.5  -280.75,540  C  -280.75,416.2  -310,323.35  -310,292.4 " />
<path transform="translate( 0, 0 )" style="stroke: hsl(269, 55%, 50%);" id="2081"  d=" M  -310,298.325  C  -288.75,298.325  -270.04,290.597  -251.384,271.941  C  -232.728,253.285  -220,203.051  -220,159.163  C  -220,115.275  -233.338,37.361  -235,27.5  L  -71.847,0  C  -68.523,19.722  -71.847,100.842  0,100.842  L  20,100.842  C  23.592,100.842  26.997,100.639  30,100.278  L  30,100.842  L  30,835  L  -249,835  C  -249,835  -280,835  -280,835  C  -280,835  -280,755  -280,755  C  -280,734  -276.99,705.994  -277.5,685  C  -277.94,666.875  -280.75,612.5  -280.75,540  C  -280.75,419.163  -310,328.534  -310,298.325 " />
<path transform="translate( 0, 0 )" style="stroke: hsl(295.9, 55%, 50%);" id="2290"  d=" M  -310,304.25  C  -288.75,304.25  -270.399,296.461  -251.594,277.656  C  -232.789,258.851  -220,207  -220,162.125  C  -220,117.25  -233.338,37.361  -235,27.5  L  -71.847,0  C  -68.523,19.722  -71.847,100.842  0,100.842  L  20,100.842  C  23.592,100.842  26.997,100.639  30,100.278  L  30,100.842  L  30,835  L  -249,835  C  -249,835  -280,835  -280,835  C  -280,835  -280,755  -280,755  C  -280,734  -276.99,705.994  -277.5,685  C  -277.94,666.875  -280.75,612.5  -280.75,540  C  -280.75,422.125  -310,333.719  -310,304.25 " />
    </g>
    <!-- End of group #frontRight -->
    
    <!-- Start of group #frontLeft -->
    <g id="frontLeft"  transform=" translate(92.5 5)  translate(350 0) " >
        <path class="hidden" id="3"  d=" M  -87.5,0  L  310,0  L  310,835  L  -87.5,835  z " />
<path transform="translate( 0, 0 )" style="stroke: hsl(26.9, 55%, 50%);" id="201"  d=" M  310,245  C  288.75,245  266.327,237.909  249.209,220.791  C  232.091,203.673  220,167.5  220,132.5  C  220,97.5  233.338,37.361  235,27.5  L  71.847,0  C  68.523,19.722  71.847,100.842  0,100.842  L  -35,100.842  C  -47.324,100.185  -41.466,100.842  -52.5,99.005  C  -63.534,100.842  -57.676,100.185  -70,100.842  L  -87.5,100.842  L  -87.5,835  L  249,835  C  249,835  280,835  280,835  C  280,835  280,755  280,755  C  280,734  276.99,705.994  277.5,685  C  277.94,666.875  280.75,612.5  280.75,540  C  280.75,392.5  310,281.875  310,245 " />
<path transform="translate( 0, 0 )" style="stroke: hsl(53.8, 55%, 50%);" id="410"  d=" M  310,250.925  C  288.75,250.925  266.788,243.755  249.479,226.446  C  232.17,209.137  220,171.451  220,135.463  C  220,99.475  233.338,37.361  235,27.5  L  71.847,0  C  68.523,19.722  71.847,100.842  0,100.842  L  -35,100.842  C  -47.324,100.185  -41.466,100.842  -52.5,99.005  C  -63.534,100.842  -57.676,100.185  -70,100.842  L  -87.5,100.842  L  -87.5,835  L  249,835  C  249,835  280,835  280,835  C  280,835  280,755  280,755  C  280,734  276.99,705.994  277.5,685  C  277.94,666.875  280.75,612.5  280.75,540  C  280.75,395.463  310,287.059  310,250.925 " />
<path transform="translate( 0, 0 )" style="stroke: hsl(80.7, 55%, 50%);" id="619"  d=" M  310,256.85  C  288.75,256.85  267.237,249.603  249.742,232.108  C  232.247,214.613  220,175.4  220,138.425  C  220,101.45  233.338,37.361  235,27.5  L  71.847,0  C  68.523,19.722  71.847,100.842  0,100.842  L  -35,100.842  C  -47.324,100.185  -41.466,100.842  -52.5,99.005  C  -63.534,100.842  -57.676,100.185  -70,100.842  L  -87.5,100.842  L  -87.5,835  L  249,835  C  249,835  280,835  280,835  C  280,835  280,755  280,755  C  280,734  276.99,705.994  277.5,685  C  277.94,666.875  280.75,612.5  280.75,540  C  280.75,398.425  310,292.244  310,256.85 " />
<path transform="translate( 0, 0 )" style="stroke: hsl(107.6, 55%, 50%);" id="828"  d=" M  310,262.775  C  288.75,262.775  267.671,255.454  249.996,237.779  C  232.321,220.104  220,179.351  220,141.388  C  220,103.425  233.338,37.361  235,27.5  L  71.847,0  C  68.523,19.722  71.847,100.842  0,100.842  L  -35,100.842  C  -47.324,100.185  -41.466,100.842  -52.5,99.005  C  -63.534,100.842  -57.676,100.185  -70,100.842  L  -87.5,100.842  L  -87.5,835  L  249,835  C  249,835  280,835  280,835  C  280,835  280,755  280,755  C  280,734  276.99,705.994  277.5,685  C  277.94,666.875  280.75,612.5  280.75,540  C  280.75,401.388  310,297.428  310,262.775 " />
<path transform="translate( 0, 0 )" style="stroke: hsl(134.5, 55%, 50%);" id="1037"  d=" M  310,268.7  C  288.75,268.7  268.094,261.306  250.244,243.456  C  232.394,225.606  220,183.3  220,144.35  C  220,105.4  233.338,37.361  235,27.5  L  71.847,0  C  68.523,19.722  71.847,100.842  0,100.842  L  -35,100.842  C  -47.324,100.185  -41.466,100.842  -52.5,99.005  C  -63.534,100.842  -57.676,100.185  -70,100.842  L  -87.5,100.842  L  -87.5,835  L  249,835  C  249,835  280,835  280,835  C  280,835  280,755  280,755  C  280,734  276.99,705.994  277.5,685  C  277.94,666.875  280.75,612.5  280.75,540  C  280.75,404.35  310,302.612  310,268.7 " />
<path transform="translate( 0, 0 )" style="stroke: hsl(161.4, 55%, 50%);" id="1246"  d=" M  310,274.625  C  288.75,274.625  268.506,267.161  250.485,249.14  C  232.464,231.119  220,187.251  220,147.313  C  220,107.375  233.338,37.361  235,27.5  L  71.847,0  C  68.523,19.722  71.847,100.842  0,100.842  L  -35,100.842  C  -47.324,100.185  -41.466,100.842  -52.5,99.005  C  -63.534,100.842  -57.676,100.185  -70,100.842  L  -87.5,100.842  L  -87.5,835  L  249,835  C  249,835  280,835  280,835  C  280,835  280,755  280,755  C  280,734  276.99,705.994  277.5,685  C  277.94,666.875  280.75,612.5  280.75,540  C  280.75,407.313  310,307.797  310,274.625 " />
<path transform="translate( 0, 0 )" style="stroke: hsl(188.3, 55%, 50%);" id="1455"  d=" M  310,280.55  C  288.75,280.55  268.905,273.017  250.719,254.831  C  232.533,236.645  220,191.2  220,150.275  C  220,109.35  233.338,37.361  235,27.5  L  71.847,0  C  68.523,19.722  71.847,100.842  0,100.842  L  -35,100.842  C  -47.324,100.185  -41.466,100.842  -52.5,99.005  C  -63.534,100.842  -57.676,100.185  -70,100.842  L  -87.5,100.842  L  -87.5,835  L  249,835  C  249,835  280,835  280,835  C  280,835  280,755  280,755  C  280,734  276.99,705.994  277.5,685  C  277.94,666.875  280.75,612.5  280.75,540  C  280.75,410.275  310,312.981  310,280.55 " />
<path transform="translate( 0, 0 )" style="stroke: hsl(215.2, 55%, 50%);" id="1664"  d=" M  310,286.475  C  288.75,286.475  269.294,278.875  250.947,260.528  C  232.6,242.181  220,195.151  220,153.238  C  220,111.325  233.338,37.361  235,27.5  L  71.847,0  C  68.523,19.722  71.847,100.842  0,100.842  L  -35,100.842  C  -47.324,100.185  -41.466,100.842  -52.5,99.005  C  -63.534,100.842  -57.676,100.185  -70,100.842  L  -87.5,100.842  L  -87.5,835  L  249,835  C  249,835  280,835  280,835  C  280,835  280,755  280,755  C  280,734  276.99,705.994  277.5,685  C  277.94,666.875  280.75,612.5  280.75,540  C  280.75,413.238  310,318.166  310,286.475 " />
<path transform="translate( 0, 0 )" style="stroke: hsl(242.1, 55%, 50%);" id="1873"  d=" M  310,292.4  C  288.75,292.4  269.673,284.735  251.169,266.231  C  232.665,247.727  220,199.1  220,156.2  C  220,113.3  233.338,37.361  235,27.5  L  71.847,0  C  68.523,19.722  71.847,100.842  0,100.842  L  -35,100.842  C  -47.324,100.185  -41.466,100.842  -52.5,99.005  C  -63.534,100.842  -57.676,100.185  -70,100.842  L  -87.5,100.842  L  -87.5,835  L  249,835  C  249,835  280,835  280,835  C  280,835  280,755  280,755  C  280,734  276.99,705.994  277.5,685  C  277.94,666.875  280.75,612.5  280.75,540  C  280.75,416.2  310,323.35  310,292.4 " />
<path transform="translate( 0, 0 )" style="stroke: hsl(269, 55%, 50%);" id="2082"  d=" M  310,298.325  C  288.75,298.325  270.04,290.597  251.384,271.941  C  232.728,253.285  220,203.051  220,159.163  C  220,115.275  233.338,37.361  235,27.5  L  71.847,0  C  68.523,19.722  71.847,100.842  0,100.842  L  -35,100.842  C  -47.324,100.185  -41.466,100.842  -52.5,99.005  C  -63.534,100.842  -57.676,100.185  -70,100.842  L  -87.5,100.842  L  -87.5,835  L  249,835  C  249,835  280,835  280,835  C  280,835  280,755  280,755  C  280,734  276.99,705.994  277.5,685  C  277.94,666.875  280.75,612.5  280.75,540  C  280.75,419.163  310,328.534  310,298.325 " />
<path transform="translate( 0, 0 )" style="stroke: hsl(295.9, 55%, 50%);" id="2291"  d=" M  310,304.25  C  288.75,304.25  270.399,296.461  251.594,277.656  C  232.789,258.851  220,207  220,162.125  C  220,117.25  233.338,37.361  235,27.5  L  71.847,0  C  68.523,19.722  71.847,100.842  0,100.842  L  -35,100.842  C  -47.324,100.185  -41.466,100.842  -52.5,99.005  C  -63.534,100.842  -57.676,100.185  -70,100.842  L  -87.5,100.842  L  -87.5,835  L  249,835  C  249,835  280,835  280,835  C  280,835  280,755  280,755  C  280,734  276.99,705.994  277.5,685  C  277.94,666.875  280.75,612.5  280.75,540  C  280.75,422.125  310,333.719  310,304.25 " />
    </g>
    <!-- End of group #frontLeft -->
    
    <!-- Start of group #buttonPlacket -->
    <g id="buttonPlacket" >
    </g>
    <!-- End of group #buttonPlacket -->
    
    <!-- Start of group #buttonholePlacket -->
    <g id="buttonholePlacket" >
    </g>
    <!-- End of group #buttonholePlacket -->
    
    <!-- Start of group #yoke -->
    <g id="yoke"  transform=" translate(240 5)  translate(0 845) " >
        <path class="hidden" id="4"  d=" M  -235,0  L  235,0  L  235,162.125  L  -235,162.125  z " />
<path transform="translate( 0, 0 )" style="stroke: hsl(26.9, 55%, 50%);" id="202"  d=" M  225,132.5  C  225,97.5  233.338,37.361  235,27.5  L  71.847,0  C  68.523,19.722  0,20  0,20  C  0,20  -68.523,19.722  -71.847,0  L  -235,27.5  C  -233.338,37.361  -225,97.5  -225,132.5  z " />
<path transform="translate( 0, 0 )" style="stroke: hsl(53.8, 55%, 50%);" id="411"  d=" M  225,135.463  C  225,99.475  233.338,37.361  235,27.5  L  71.847,0  C  68.523,19.722  0,20  0,20  C  0,20  -68.523,19.722  -71.847,0  L  -235,27.5  C  -233.338,37.361  -225,99.475  -225,135.463  z " />
<path transform="translate( 0, 0 )" style="stroke: hsl(80.7, 55%, 50%);" id="620"  d=" M  225,138.425  C  225,101.45  233.338,37.361  235,27.5  L  71.847,0  C  68.523,19.722  0,20  0,20  C  0,20  -68.523,19.722  -71.847,0  L  -235,27.5  C  -233.338,37.361  -225,101.45  -225,138.425  z " />
<path transform="translate( 0, 0 )" style="stroke: hsl(107.6, 55%, 50%);" id="829"  d=" M  225,141.388  C  225,103.425  233.338,37.361  235,27.5  L  71.847,0  C  68.523,19.722  0,20  0,20  C  0,20  -68.523,19.722  -71.847,0  L  -235,27.5  C  -233.338,37.361  -225,103.425  -225,141.388  z " />
<path transform="translate( 0, 0 )" style="stroke: hsl(134.5, 55%, 50%);" id="1038"  d=" M  225,144.35  C  225,105.4  233.338,37.361  235,27.5  L  71.847,0  C  68.523,19.722  0,20  0,20  C  0,20  -68.523,19.722  -71.847,0  L  -235,27.5  C  -233.338,37.361  -225,105.4  -225,144.35  z " />
<path transform="translate( 0, 0 )" style="stroke: hsl(161.4, 55%, 50%);" id="1247"  d=" M  225,147.313  C  225,107.375  233.338,37.361  235,27.5  L  71.847,0  C  68.523,19.722  0,20  0,20  C  0,20  -68.523,19.722  -71.847,0  L  -235,27.5  C  -233.338,37.361  -225,107.375  -225,147.313  z " />
<path transform="translate( 0, 0 )" style="stroke: hsl(188.3, 55%, 50%);" id="1456"  d=" M  225,150.275  C  225,109.35  233.338,37.361  235,27.5  L  71.847,0  C  68.523,19.722  0,20  0,20  C  0,20  -68.523,19.722  -71.847,0  L  -235,27.5  C  -233.338,37.361  -225,109.35  -225,150.275  z " />
<path transform="translate( 0, 0 )" style="stroke: hsl(215.2, 55%, 50%);" id="1665"  d=" M  225,153.238  C  225,111.325  233.338,37.361  235,27.5  L  71.847,0  C  68.523,19.722  0,20  0,20  C  0,20  -68.523,19.722  -71.847,0  L  -235,27.5  C  -233.338,37.361  -225,111.325  -225,153.238  z " />
<path transform="translate( 0, 0 )" style="stroke: hsl(242.1, 55%, 50%);" id="1874"  d=" M  225,156.2  C  225,113.3  233.338,37.361  235,27.5  L  71.847,0  C  68.523,19.722  0,20  0,20  C  0,20  -68.523,19.722  -71.847,0  L  -235,27.5  C  -233.338,37.361  -225,113.3  -225,156.2  z " />
<path transform="translate( 0, 0 )" style="stroke: hsl(269, 55%, 50%);" id="2083"  d=" M  225,159.163  C  225,115.275  233.338,37.361  235,27.5  L  71.847,0  C  68.523,19.722  0,20  0,20  C  0,20  -68.523,19.722  -71.847,0  L  -235,27.5  C  -233.338,37.361  -225,115.275  -225,159.163  z " />
<path transform="translate( 0, 0 )" style="stroke: hsl(295.9, 55%, 50%);" id="2292"  d=" M  225,162.125  C  225,117.25  233.338,37.361  235,27.5  L  71.847,0  C  68.523,19.722  0,20  0,20  C  0,20  -68.523,19.722  -71.847,0  L  -235,27.5  C  -233.338,37.361  -225,117.25  -225,162.125  z " />
    </g>
    <!-- End of group #yoke -->
    
    <!-- Start of group #back -->
    <g id="back"  transform=" translate(5 -127.5)  translate(757.5 0) " >
        <path class="hidden" id="5"  d=" M  0,132.5  L  310,132.5  L  310,835  L  0,835  z " />
<path transform="translate( 0, 0 )" style="stroke: hsl(26.9, 55%, 50%);" id="203"  d=" M  0,132.5  L  112.5,132.5  C  168.75,132.5  225.048,137.5  225.048,137.5  C  223.648,167.467  232.091,203.673  249.209,220.791  C  266.327,237.909  288.75,245  310,245  C  310,304  280.75,392.5  280.75,540  C  280.75,612.5  277.94,666.875  277.5,685  C  276.99,705.994  280,734  280,755  L  280,835  L  0,835  L  0,132.5  z " />
<path transform="translate( 0, -2.963 )" style="stroke: hsl(53.8, 55%, 50%);" id="412"  d=" M  0,135.463  L  112.5,135.463  C  168.75,135.463  225.046,140.463  225.046,140.463  C  223.603,171.417  232.17,209.137  249.479,226.446  C  266.788,243.755  288.75,250.925  310,250.925  C  310,308.74  280.75,395.463  280.75,540  C  280.75,612.5  277.94,666.875  277.5,685  C  276.99,705.994  280,734  280,755  L  280,835  L  0,835  L  0,135.463  z " />
<path transform="translate( 0, -5.925 )" style="stroke: hsl(80.7, 55%, 50%);" id="621"  d=" M  0,138.425  L  112.5,138.425  C  168.75,138.425  225.044,143.425  225.044,143.425  C  223.559,175.366  232.247,214.613  249.742,232.108  C  267.237,249.603  288.75,256.85  310,256.85  C  310,313.48  280.75,398.425  280.75,540  C  280.75,612.5  277.94,666.875  277.5,685  C  276.99,705.994  280,734  280,755  L  280,835  L  0,835  L  0,138.425  z " />
<path transform="translate( 0, -8.888 )" style="stroke: hsl(107.6, 55%, 50%);" id="830"  d=" M  0,141.388  L  112.5,141.388  C  168.75,141.388  225.042,146.388  225.042,146.388  C  223.514,179.316  232.321,220.104  249.996,237.779  C  267.671,255.454  288.75,262.775  310,262.775  C  310,318.22  280.75,401.388  280.75,540  C  280.75,612.5  277.94,666.875  277.5,685  C  276.99,705.994  280,734  280,755  L  280,835  L  0,835  L  0,141.388  z " />
<path transform="translate( 0, -11.85 )" style="stroke: hsl(134.5, 55%, 50%);" id="1039"  d=" M  0,144.35  L  112.5,144.35  C  168.75,144.35  225.041,149.35  225.041,149.35  C  223.47,183.264  232.394,225.606  250.244,243.456  C  268.094,261.306  288.75,268.7  310,268.7  C  310,322.96  280.75,404.35  280.75,540  C  280.75,612.5  277.94,666.875  277.5,685  C  276.99,705.994  280,734  280,755  L  280,835  L  0,835  L  0,144.35  z " />
<path transform="translate( 0, -14.813 )" style="stroke: hsl(161.4, 55%, 50%);" id="1248"  d=" M  0,147.313  L  112.5,147.313  C  168.75,147.313  225.039,152.313  225.039,152.313  C  223.425,187.214  232.464,231.119  250.485,249.14  C  268.506,267.161  288.75,274.625  310,274.625  C  310,327.7  280.75,407.313  280.75,540  C  280.75,612.5  277.94,666.875  277.5,685  C  276.99,705.994  280,734  280,755  L  280,835  L  0,835  L  0,147.313  z " />
<path transform="translate( 0, -17.775 )" style="stroke: hsl(188.3, 55%, 50%);" id="1457"  d=" M  0,150.275  L  112.5,150.275  C  168.75,150.275  225.037,155.275  225.037,155.275  C  223.381,191.162  232.533,236.645  250.719,254.831  C  268.905,273.017  288.75,280.55  310,280.55  C  310,332.44  280.75,410.275  280.75,540  C  280.75,612.5  277.94,666.875  277.5,685  C  276.99,705.994  280,734  280,755  L  280,835  L  0,835  L  0,150.275  z " />
<path transform="translate( 0, -20.738 )" style="stroke: hsl(215.2, 55%, 50%);" id="1666"  d=" M  0,153.238  L  112.5,153.238  C  168.75,153.238  225.036,158.238  225.036,158.238  C  223.336,195.112  232.6,242.181  250.947,260.528  C  269.294,278.875  288.75,286.475  310,286.475  C  310,337.18  280.75,413.238  280.75,540  C  280.75,612.5  277.94,666.875  277.5,685  C  276.99,705.994  280,734  280,755  L  280,835  L  0,835  L  0,153.238  z " />
<path transform="translate( 0, -23.7 )" style="stroke: hsl(242.1, 55%, 50%);" id="1875"  d=" M  0,156.2  L  112.5,156.2  C  168.75,156.2  225.035,161.2  225.035,161.2  C  223.292,199.06  232.665,247.727  251.169,266.231  C  269.673,284.735  288.75,292.4  310,292.4  C  310,341.92  280.75,416.2  280.75,540  C  280.75,612.5  277.94,666.875  277.5,685  C  276.99,705.994  280,734  280,755  L  280,835  L  0,835  L  0,156.2  z " />
<path transform="translate( 0, -26.663 )" style="stroke: hsl(269, 55%, 50%);" id="2084"  d=" M  0,159.163  L  112.5,159.163  C  168.75,159.163  225.033,164.163  225.033,164.163  C  223.247,203.01  232.728,253.285  251.384,271.941  C  270.04,290.597  288.75,298.325  310,298.325  C  310,346.66  280.75,419.163  280.75,540  C  280.75,612.5  277.94,666.875  277.5,685  C  276.99,705.994  280,734  280,755  L  280,835  L  0,835  L  0,159.163  z " />
<path transform="translate( 0, -29.625 )" style="stroke: hsl(295.9, 55%, 50%);" id="2293"  d=" M  0,162.125  L  112.5,162.125  C  168.75,162.125  225.032,167.125  225.032,167.125  C  223.203,206.958  232.789,258.851  251.594,277.656  C  270.399,296.461  288.75,304.25  310,304.25  C  310,351.4  280.75,422.125  280.75,540  C  280.75,612.5  277.94,666.875  277.5,685  C  276.99,705.994  280,734  280,755  L  280,835  L  0,835  L  0,162.125  z " />
    </g>
    <!-- End of group #back -->
    
    <!-- Start of group #sleeve -->
    <g id="sleeve"  transform=" translate(215.818 5)  translate(1077.5 0) " >
        <path class="hidden" id="6"  d=" M  -210.818,0  L  210.818,0  L  210.818,678  L  -210.818,678  z " />
<path transform="translate( 0, 0 )" style="stroke: hsl(26.9, 55%, 50%);" id="204"  d=" M  -193.686,164.018  C  -193.686,164.018  -159.388,134.413  -141.6,115.247  C  -123.812,96.081  -96.843,59.673  -96.843,59.673  C  -96.843,59.673  -78.551,30.783  -56.29,17.066  C  -34.029,3.349  -26.148,-0  5,0  C  26.148,0  43.435,3.328  64.522,18.789  C  85.609,34.25  101.843,74.673  101.843,74.673  C  101.843,74.673  118.563,111.865  137.306,130.098  C  156.049,148.331  193.686,164.018  193.686,164.018  L  142.5,675  C  142.5,675  111.875,678  81.25,678  C  65.827,677.471  50.625,676.845  50.625,676.845  L  30.625,676.845  C  10.302,676.009  0,675  0,675  L  -20,675  C  -20,675  -50.625,672  -81.25,672  C  -111.875,672  -142.5,675  -142.5,675  z " />
<path transform="translate( 0, 0 )" style="stroke: hsl(53.8, 55%, 50%);" id="413"  d=" M  -195.554,170.746  C  -195.554,170.746  -160.591,139.311  -142.947,119.673  C  -125.303,100.035  -97.777,61.915  -97.777,61.915  C  -97.777,61.915  -79.217,32.408  -56.913,18.284  C  -34.609,4.16  -26.4,-0  5,0  C  26.4,0  44.032,4.225  65.169,20.043  C  86.306,35.861  102.777,76.915  102.777,76.915  C  102.777,76.915  119.938,115.605  138.5,134.378  C  157.062,153.151  195.554,170.746  195.554,170.746  L  142.5,675  C  142.5,675  111.875,678  81.25,678  C  65.827,677.471  50.625,676.845  50.625,676.845  L  30.625,676.845  C  10.302,676.009  0,675  0,675  L  -20,675  C  -20,675  -50.625,672  -81.25,672  C  -111.875,672  -142.5,675  -142.5,675  z " />
<path transform="translate( 0, 0 )" style="stroke: hsl(80.7, 55%, 50%);" id="622"  d=" M  -197.391,177.359  C  -197.391,177.359  -161.784,144.114  -144.275,124.025  C  -126.766,103.936  -98.696,64.12  -98.696,64.12  C  -98.696,64.12  -79.866,33.999  -57.52,19.481  C  -35.174,4.963  -26.648,-0  5,0  C  26.648,0  44.615,5.11  65.8,21.275  C  86.985,37.44  103.696,79.12  103.696,79.12  C  103.696,79.12  121.297,119.309  139.689,138.593  C  158.081,157.877  197.391,177.359  197.391,177.359  L  142.5,675  C  142.5,675  111.875,678  81.25,678  C  65.827,677.471  50.625,676.845  50.625,676.845  L  30.625,676.845  C  10.302,676.009  0,675  0,675  L  -20,675  C  -20,675  -50.625,672  -81.25,672  C  -111.875,672  -142.5,675  -142.5,675  z " />
<path transform="translate( 0, 0 )" style="stroke: hsl(107.6, 55%, 50%);" id="831"  d=" M  -198.996,183.136  C  -198.996,183.136  -162.832,148.299  -145.437,127.828  C  -128.042,107.357  -99.498,66.045  -99.498,66.045  C  -99.498,66.045  -80.427,35.383  -58.045,20.526  C  -35.663,5.669  -26.864,-0  5,0  C  26.864,0  45.117,5.883  66.345,22.347  C  87.573,38.811  104.498,81.045  104.498,81.045  C  104.498,81.045  122.491,122.565  140.739,142.28  C  158.987,161.995  198.996,183.136  198.996,183.136  L  142.5,675  C  142.5,675  111.875,678  81.25,678  C  65.827,677.471  50.625,676.845  50.625,676.845  L  30.625,676.845  C  10.302,676.009  0,675  0,675  L  -20,675  C  -20,675  -50.625,672  -81.25,672  C  -111.875,672  -142.5,675  -142.5,675  z " />
<path transform="translate( 0, 0 )" style="stroke: hsl(134.5, 55%, 50%);" id="1040"  d=" M  -200.861,189.849  C  -200.861,189.849  -164.061,153.156  -146.791,132.251  C  -129.521,111.346  -100.431,68.283  -100.431,68.283  C  -100.431,68.283  -81.073,36.983  -58.649,21.737  C  -36.225,6.491  -27.116,-0  5,0  C  27.116,0  45.694,6.785  66.972,23.593  C  88.25,40.401  105.431,83.283  105.431,83.283  C  105.431,83.283  123.883,126.373  141.972,146.573  C  160.061,166.773  200.861,189.849  200.861,189.849  L  142.5,675  C  142.5,675  111.875,678  81.25,678  C  65.827,677.471  50.625,676.845  50.625,676.845  L  30.625,676.845  C  10.302,676.009  0,675  0,675  L  -20,675  C  -20,675  -50.625,672  -81.25,672  C  -111.875,672  -142.5,675  -142.5,675  z " />
<path transform="translate( 0, 0 )" style="stroke: hsl(161.4, 55%, 50%);" id="1249"  d=" M  -202.584,196.052  C  -202.584,196.052  -165.205,157.633  -148.045,136.338  C  -130.885,115.043  -101.292,70.351  -101.292,70.351  C  -101.292,70.351  -81.666,38.457  -59.203,22.856  C  -36.74,7.255  -27.349,-0  5,0  C  27.349,0  46.222,7.617  67.547,24.741  C  88.872,41.865  106.292,85.351  106.292,85.351  C  106.292,85.351  125.171,129.91  143.12,150.545  C  161.069,171.18  202.584,196.052  202.584,196.052  L  142.5,675  C  142.5,675  111.875,678  81.25,678  C  65.827,677.471  50.625,676.845  50.625,676.845  L  30.625,676.845  C  10.302,676.009  0,675  0,675  L  -20,675  C  -20,675  -50.625,672  -81.25,672  C  -111.875,672  -142.5,675  -142.5,675  z " />
<path transform="translate( 0, 0 )" style="stroke: hsl(188.3, 55%, 50%);" id="1458"  d=" M  -204.296,202.215  C  -204.296,202.215  -166.348,162.076  -149.293,140.402  C  -132.238,118.728  -102.148,72.405  -102.148,72.405  C  -102.148,72.405  -82.249,39.914  -59.748,23.965  C  -37.247,8.016  -27.58,-0  5,0  C  27.58,0  46.741,8.447  68.112,25.88  C  89.483,43.313  107.148,87.405  107.148,87.405  C  107.148,87.405  126.456,133.445  144.271,154.499  C  162.086,175.553  204.296,202.215  204.296,202.215  L  142.5,675  C  142.5,675  111.875,678  81.25,678  C  65.827,677.471  50.625,676.845  50.625,676.845  L  30.625,676.845  C  10.302,676.009  0,675  0,675  L  -20,675  C  -20,675  -50.625,672  -81.25,672  C  -111.875,672  -142.5,675  -142.5,675  z " />
<path transform="translate( 0, 0 )" style="stroke: hsl(215.2, 55%, 50%);" id="1667"  d=" M  -205.998,208.342  C  -205.998,208.342  -167.491,166.486  -150.535,144.443  C  -133.579,122.4  -102.999,74.447  -102.999,74.447  C  -102.999,74.447  -82.825,41.357  -60.286,25.066  C  -37.747,8.775  -27.81,-0  5,0  C  27.81,0  47.252,9.27  68.67,27.009  C  90.088,44.748  107.999,89.447  107.999,89.447  C  107.999,89.447  127.736,136.976  145.424,158.436  C  163.112,179.896  205.998,208.342  205.998,208.342  L  142.5,675  C  142.5,675  111.875,678  81.25,678  C  65.827,677.471  50.625,676.845  50.625,676.845  L  30.625,676.845  C  10.302,676.009  0,675  0,675  L  -20,675  C  -20,675  -50.625,672  -81.25,672  C  -111.875,672  -142.5,675  -142.5,675  z " />
<path transform="translate( 0, 0 )" style="stroke: hsl(242.1, 55%, 50%);" id="1876"  d=" M  -207.692,214.441  C  -207.692,214.441  -168.636,170.869  -151.774,148.468  C  -134.912,126.067  -103.846,76.48  -103.846,76.48  C  -103.846,76.48  -83.394,42.789  -60.818,26.162  C  -38.242,9.535  -28.038,-0  5,0  C  28.038,0  47.757,10.093  69.221,28.133  C  90.685,46.173  108.846,91.48  108.846,91.48  C  108.846,91.48  129.011,140.506  146.578,162.359  C  164.145,184.212  207.692,214.441  207.692,214.441  L  142.5,675  C  142.5,675  111.875,678  81.25,678  C  65.827,677.471  50.625,676.845  50.625,676.845  L  30.625,676.845  C  10.302,676.009  0,675  0,675  L  -20,675  C  -20,675  -50.625,672  -81.25,672  C  -111.875,672  -142.5,675  -142.5,675  z " />
<path transform="translate( 0, 0 )" style="stroke: hsl(269, 55%, 50%);" id="2085"  d=" M  -209.38,220.519  C  -209.38,220.519  -169.782,175.232  -153.01,152.48  C  -136.238,129.728  -104.69,78.506  -104.69,78.506  C  -104.69,78.506  -83.958,44.21  -61.344,27.252  C  -38.73,10.294  -28.266,-0  5,0  C  28.266,0  48.255,10.913  69.766,29.25  C  91.277,47.587  109.69,93.506  109.69,93.506  C  109.69,93.506  130.283,144.039  147.735,166.274  C  165.187,188.509  209.38,220.519  209.38,220.519  L  142.5,675  C  142.5,675  111.875,678  81.25,678  C  65.827,677.471  50.625,676.845  50.625,676.845  L  30.625,676.845  C  10.302,676.009  0,675  0,675  L  -20,675  C  -20,675  -50.625,672  -81.25,672  C  -111.875,672  -142.5,675  -142.5,675  z " />
<path transform="translate( 0, 0 )" style="stroke: hsl(295.9, 55%, 50%);" id="2294"  d=" M  -210.818,225.695  C  -210.818,225.695  -170.765,178.943  -154.065,155.898  C  -137.365,132.853  -105.409,80.232  -105.409,80.232  C  -105.409,80.232  -84.435,45.417  -61.789,28.18  C  -39.143,10.943  -28.46,-0  5,0  C  28.46,0  48.676,11.612  70.227,30.2  C  91.778,48.788  110.409,95.232  110.409,95.232  C  110.409,95.232  131.368,147.058  148.726,169.612  C  166.084,192.166  210.818,225.695  210.818,225.695  L  142.5,675  C  142.5,675  111.875,678  81.25,678  C  65.827,677.471  50.625,676.845  50.625,676.845  L  30.625,676.845  C  10.302,676.009  0,675  0,675  L  -20,675  C  -20,675  -50.625,672  -81.25,672  C  -111.875,672  -142.5,675  -142.5,675  z " />
    </g>
    <!-- End of group #sleeve -->
    
    <!-- Start of group #collarStand -->
    <g id="collarStand"  transform=" translate(232.46 10)  translate(480 845) " >
        <path class="hidden" id="7"  d=" M  -227.46,-5  L  234.932,-5  L  234.932,35  L  -227.46,35  z " />
<path transform="translate( 0, 0 )" style="stroke: hsl(26.9, 55%, 50%);" id="205"  d=" M  0,30  C  86.389,30  129.584,35  161.98,35  C  205.174,35  207.536,33.305  217.498,32.433  L  234.932,30.908  C  233.406,13.474  231.881,-3.959  214.448,-2.433  C  204.486,-1.561  205.174,0  161.98,0  C  129.584,0  86.389,-5  0,-5  C  -86.389,-5  -129.584,0  -161.98,0  C  -205.174,0  -204.486,-1.561  -214.448,-2.433  C  -224.41,-3.305  -225.935,14.128  -227.46,31.562  L  -217.498,32.433  C  -207.536,33.305  -205.174,35  -161.98,35  C  -129.584,35  -86.389,30  0,30  z " />
<path transform="translate( 0, 0 )" style="stroke: hsl(53.8, 55%, 50%);" id="414"  d=" M  0,30  C  86.389,30  129.584,35  161.98,35  C  205.174,35  207.536,33.305  217.498,32.433  L  234.932,30.908  C  233.406,13.474  231.881,-3.959  214.448,-2.433  C  204.486,-1.561  205.174,0  161.98,0  C  129.584,0  86.389,-5  0,-5  C  -86.389,-5  -129.584,0  -161.98,0  C  -205.174,0  -204.486,-1.561  -214.448,-2.433  C  -224.41,-3.305  -225.935,14.128  -227.46,31.562  L  -217.498,32.433  C  -207.536,33.305  -205.174,35  -161.98,35  C  -129.584,35  -86.389,30  0,30  z " />
<path transform="translate( 0, 0 )" style="stroke: hsl(80.7, 55%, 50%);" id="623"  d=" M  0,30  C  86.389,30  129.584,35  161.98,35  C  205.174,35  207.536,33.305  217.498,32.433  L  234.932,30.908  C  233.406,13.474  231.881,-3.959  214.448,-2.433  C  204.486,-1.561  205.174,0  161.98,0  C  129.584,0  86.389,-5  0,-5  C  -86.389,-5  -129.584,0  -161.98,0  C  -205.174,0  -204.486,-1.561  -214.448,-2.433  C  -224.41,-3.305  -225.935,14.128  -227.46,31.562  L  -217.498,32.433  C  -207.536,33.305  -205.174,35  -161.98,35  C  -129.584,35  -86.389,30  0,30  z " />
<path transform="translate( 0, 0 )" style="stroke: hsl(107.6, 55%, 50%);" id="832"  d=" M  0,30  C  86.389,30  129.584,35  161.98,35  C  205.174,35  207.536,33.305  217.498,32.433  L  234.932,30.908  C  233.406,13.474  231.881,-3.959  214.448,-2.433  C  204.486,-1.561  205.174,0  161.98,0  C  129.584,0  86.389,-5  0,-5  C  -86.389,-5  -129.584,0  -161.98,0  C  -205.174,0  -204.486,-1.561  -214.448,-2.433  C  -224.41,-3.305  -225.935,14.128  -227.46,31.562  L  -217.498,32.433  C  -207.536,33.305  -205.174,35  -161.98,35  C  -129.584,35  -86.389,30  0,30  z " />
<path transform="translate( 0, 0 )" style="stroke: hsl(134.5, 55%, 50%);" id="1041"  d=" M  0,30  C  86.389,30  129.584,35  161.98,35  C  205.174,35  207.536,33.305  217.498,32.433  L  234.932,30.908  C  233.406,13.474  231.881,-3.959  214.448,-2.433  C  204.486,-1.561  205.174,0  161.98,0  C  129.584,0  86.389,-5  0,-5  C  -86.389,-5  -129.584,0  -161.98,0  C  -205.174,0  -204.486,-1.561  -214.448,-2.433  C  -224.41,-3.305  -225.935,14.128  -227.46,31.562  L  -217.498,32.433  C  -207.536,33.305  -205.174,35  -161.98,35  C  -129.584,35  -86.389,30  0,30  z " />
<path transform="translate( 0, 0 )" style="stroke: hsl(161.4, 55%, 50%);" id="1250"  d=" M  0,30  C  86.389,30  129.584,35  161.98,35  C  205.174,35  207.536,33.305  217.498,32.433  L  234.932,30.908  C  233.406,13.474  231.881,-3.959  214.448,-2.433  C  204.486,-1.561  205.174,0  161.98,0  C  129.584,0  86.389,-5  0,-5  C  -86.389,-5  -129.584,0  -161.98,0  C  -205.174,0  -204.486,-1.561  -214.448,-2.433  C  -224.41,-3.305  -225.935,14.128  -227.46,31.562  L  -217.498,32.433  C  -207.536,33.305  -205.174,35  -161.98,35  C  -129.584,35  -86.389,30  0,30  z " />
<path transform="translate( 0, 0 )" style="stroke: hsl(188.3, 55%, 50%);" id="1459"  d=" M  0,30  C  86.389,30  129.584,35  161.98,35  C  205.174,35  207.536,33.305  217.498,32.433  L  234.932,30.908  C  233.406,13.474  231.881,-3.959  214.448,-2.433  C  204.486,-1.561  205.174,0  161.98,0  C  129.584,0  86.389,-5  0,-5  C  -86.389,-5  -129.584,0  -161.98,0  C  -205.174,0  -204.486,-1.561  -214.448,-2.433  C  -224.41,-3.305  -225.935,14.128  -227.46,31.562  L  -217.498,32.433  C  -207.536,33.305  -205.174,35  -161.98,35  C  -129.584,35  -86.389,30  0,30  z " />
<path transform="translate( 0, 0 )" style="stroke: hsl(215.2, 55%, 50%);" id="1668"  d=" M  0,30  C  86.389,30  129.584,35  161.98,35  C  205.174,35  207.536,33.305  217.498,32.433  L  234.932,30.908  C  233.406,13.474  231.881,-3.959  214.448,-2.433  C  204.486,-1.561  205.174,0  161.98,0  C  129.584,0  86.389,-5  0,-5  C  -86.389,-5  -129.584,0  -161.98,0  C  -205.174,0  -204.486,-1.561  -214.448,-2.433  C  -224.41,-3.305  -225.935,14.128  -227.46,31.562  L  -217.498,32.433  C  -207.536,33.305  -205.174,35  -161.98,35  C  -129.584,35  -86.389,30  0,30  z " />
<path transform="translate( 0, 0 )" style="stroke: hsl(242.1, 55%, 50%);" id="1877"  d=" M  0,30  C  86.389,30  129.584,35  161.98,35  C  205.174,35  207.536,33.305  217.498,32.433  L  234.932,30.908  C  233.406,13.474  231.881,-3.959  214.448,-2.433  C  204.486,-1.561  205.174,0  161.98,0  C  129.584,0  86.389,-5  0,-5  C  -86.389,-5  -129.584,0  -161.98,0  C  -205.174,0  -204.486,-1.561  -214.448,-2.433  C  -224.41,-3.305  -225.935,14.128  -227.46,31.562  L  -217.498,32.433  C  -207.536,33.305  -205.174,35  -161.98,35  C  -129.584,35  -86.389,30  0,30  z " />
<path transform="translate( 0, 0 )" style="stroke: hsl(269, 55%, 50%);" id="2086"  d=" M  0,30  C  86.389,30  129.584,35  161.98,35  C  205.174,35  207.536,33.305  217.498,32.433  L  234.932,30.908  C  233.406,13.474  231.881,-3.959  214.448,-2.433  C  204.486,-1.561  205.174,0  161.98,0  C  129.584,0  86.389,-5  0,-5  C  -86.389,-5  -129.584,0  -161.98,0  C  -205.174,0  -204.486,-1.561  -214.448,-2.433  C  -224.41,-3.305  -225.935,14.128  -227.46,31.562  L  -217.498,32.433  C  -207.536,33.305  -205.174,35  -161.98,35  C  -129.584,35  -86.389,30  0,30  z " />
<path transform="translate( 0, 0 )" style="stroke: hsl(295.9, 55%, 50%);" id="2295"  d=" M  0,30  C  86.389,30  129.584,35  161.98,35  C  205.174,35  207.536,33.305  217.498,32.433  L  234.932,30.908  C  233.406,13.474  231.881,-3.959  214.448,-2.433  C  204.486,-1.561  205.174,0  161.98,0  C  129.584,0  86.389,-5  0,-5  C  -86.389,-5  -129.584,0  -161.98,0  C  -205.174,0  -204.486,-1.561  -214.448,-2.433  C  -224.41,-3.305  -225.935,14.128  -227.46,31.562  L  -217.498,32.433  C  -207.536,33.305  -205.174,35  -161.98,35  C  -129.584,35  -86.389,30  0,30  z " />
    </g>
    <!-- End of group #collarStand -->
    
    <!-- Start of group #collar -->
    <g id="collar"  transform=" translate(214.741 72)  translate(1077.5 688) " >
        <path class="hidden" id="8"  d=" M  -209.741,-67  L  209.741,-67  L  209.741,0  L  -209.741,0  z " />
<path transform="translate( 0, 0 )" style="stroke: hsl(26.9, 55%, 50%);" id="206"  d=" M  0,-15  C  173.104,-15  203.88,0  203.88,0  L  209.741,-67  C  209.741,-67  151.466,-57  104.871,-57  L  -104.871,-57  C  -151.466,-57  -209.741,-67  -209.741,-67  L  -203.88,0  C  -203.88,0  -173.104,-15  0,-15  z " />
<path transform="translate( 0, 0 )" style="stroke: hsl(53.8, 55%, 50%);" id="415"  d=" M  0,-15  C  173.104,-15  203.88,0  203.88,0  L  209.741,-67  C  209.741,-67  151.466,-57  104.871,-57  L  -104.871,-57  C  -151.466,-57  -209.741,-67  -209.741,-67  L  -203.88,0  C  -203.88,0  -173.104,-15  0,-15  z " />
<path transform="translate( 0, 0 )" style="stroke: hsl(80.7, 55%, 50%);" id="624"  d=" M  0,-15  C  173.104,-15  203.88,0  203.88,0  L  209.741,-67  C  209.741,-67  151.466,-57  104.871,-57  L  -104.871,-57  C  -151.466,-57  -209.741,-67  -209.741,-67  L  -203.88,0  C  -203.88,0  -173.104,-15  0,-15  z " />
<path transform="translate( 0, 0 )" style="stroke: hsl(107.6, 55%, 50%);" id="833"  d=" M  0,-15  C  173.104,-15  203.88,0  203.88,0  L  209.741,-67  C  209.741,-67  151.466,-57  104.871,-57  L  -104.871,-57  C  -151.466,-57  -209.741,-67  -209.741,-67  L  -203.88,0  C  -203.88,0  -173.104,-15  0,-15  z " />
<path transform="translate( 0, 0 )" style="stroke: hsl(134.5, 55%, 50%);" id="1042"  d=" M  0,-15  C  173.104,-15  203.88,0  203.88,0  L  209.741,-67  C  209.741,-67  151.466,-57  104.871,-57  L  -104.871,-57  C  -151.466,-57  -209.741,-67  -209.741,-67  L  -203.88,0  C  -203.88,0  -173.104,-15  0,-15  z " />
<path transform="translate( 0, 0 )" style="stroke: hsl(161.4, 55%, 50%);" id="1251"  d=" M  0,-15  C  173.104,-15  203.88,0  203.88,0  L  209.741,-67  C  209.741,-67  151.466,-57  104.871,-57  L  -104.871,-57  C  -151.466,-57  -209.741,-67  -209.741,-67  L  -203.88,0  C  -203.88,0  -173.104,-15  0,-15  z " />
<path transform="translate( 0, 0 )" style="stroke: hsl(188.3, 55%, 50%);" id="1460"  d=" M  0,-15  C  173.104,-15  203.88,0  203.88,0  L  209.741,-67  C  209.741,-67  151.466,-57  104.871,-57  L  -104.871,-57  C  -151.466,-57  -209.741,-67  -209.741,-67  L  -203.88,0  C  -203.88,0  -173.104,-15  0,-15  z " />
<path transform="translate( 0, 0 )" style="stroke: hsl(215.2, 55%, 50%);" id="1669"  d=" M  0,-15  C  173.104,-15  203.88,0  203.88,0  L  209.741,-67  C  209.741,-67  151.466,-57  104.871,-57  L  -104.871,-57  C  -151.466,-57  -209.741,-67  -209.741,-67  L  -203.88,0  C  -203.88,0  -173.104,-15  0,-15  z " />
<path transform="translate( 0, 0 )" style="stroke: hsl(242.1, 55%, 50%);" id="1878"  d=" M  0,-15  C  173.104,-15  203.88,0  203.88,0  L  209.741,-67  C  209.741,-67  151.466,-57  104.871,-57  L  -104.871,-57  C  -151.466,-57  -209.741,-67  -209.741,-67  L  -203.88,0  C  -203.88,0  -173.104,-15  0,-15  z " />
<path transform="translate( 0, 0 )" style="stroke: hsl(269, 55%, 50%);" id="2087"  d=" M  0,-15  C  173.104,-15  203.88,0  203.88,0  L  209.741,-67  C  209.741,-67  151.466,-57  104.871,-57  L  -104.871,-57  C  -151.466,-57  -209.741,-67  -209.741,-67  L  -203.88,0  C  -203.88,0  -173.104,-15  0,-15  z " />
<path transform="translate( 0, 0 )" style="stroke: hsl(295.9, 55%, 50%);" id="2296"  d=" M  0,-15  C  173.104,-15  203.88,0  203.88,0  L  209.741,-67  C  209.741,-67  151.466,-57  104.871,-57  L  -104.871,-57  C  -151.466,-57  -209.741,-67  -209.741,-67  L  -203.88,0  C  -203.88,0  -173.104,-15  0,-15  z " />
    </g>
    <!-- End of group #collar -->
    
    <!-- Start of group #undercollar -->
    <g id="undercollar"  transform=" translate(214.741 72)  translate(1077.5 765) " >
        <path class="hidden" id="9"  d=" M  -209.741,-67  L  209.741,-67  L  209.741,0  L  -209.741,0  z " />
<path transform="translate( 0, 0 )" style="stroke: hsl(26.9, 55%, 50%);" id="207"  d=" M  203.88,0  L  209.741,-67  C  209.741,-67  151.466,-57  104.871,-57  L  -104.871,-57  C  -151.466,-57  -209.741,-67  -209.741,-67  L  -203.88,0  C  -203.88,0  -173.104,-17  0,-18  C  173.104,-17  203.88,0  203.88,0  z " />
<path transform="translate( 0, 0 )" style="stroke: hsl(53.8, 55%, 50%);" id="416"  d=" M  203.88,0  L  209.741,-67  C  209.741,-67  151.466,-57  104.871,-57  L  -104.871,-57  C  -151.466,-57  -209.741,-67  -209.741,-67  L  -203.88,0  C  -203.88,0  -173.104,-17  0,-18  C  173.104,-17  203.88,0  203.88,0  z " />
<path transform="translate( 0, 0 )" style="stroke: hsl(80.7, 55%, 50%);" id="625"  d=" M  203.88,0  L  209.741,-67  C  209.741,-67  151.466,-57  104.871,-57  L  -104.871,-57  C  -151.466,-57  -209.741,-67  -209.741,-67  L  -203.88,0  C  -203.88,0  -173.104,-17  0,-18  C  173.104,-17  203.88,0  203.88,0  z " />
<path transform="translate( 0, 0 )" style="stroke: hsl(107.6, 55%, 50%);" id="834"  d=" M  203.88,0  L  209.741,-67  C  209.741,-67  151.466,-57  104.871,-57  L  -104.871,-57  C  -151.466,-57  -209.741,-67  -209.741,-67  L  -203.88,0  C  -203.88,0  -173.104,-17  0,-18  C  173.104,-17  203.88,0  203.88,0  z " />
<path transform="translate( 0, 0 )" style="stroke: hsl(134.5, 55%, 50%);" id="1043"  d=" M  203.88,0  L  209.741,-67  C  209.741,-67  151.466,-57  104.871,-57  L  -104.871,-57  C  -151.466,-57  -209.741,-67  -209.741,-67  L  -203.88,0  C  -203.88,0  -173.104,-17  0,-18  C  173.104,-17  203.88,0  203.88,0  z " />
<path transform="translate( 0, 0 )" style="stroke: hsl(161.4, 55%, 50%);" id="1252"  d=" M  203.88,0  L  209.741,-67  C  209.741,-67  151.466,-57  104.871,-57  L  -104.871,-57  C  -151.466,-57  -209.741,-67  -209.741,-67  L  -203.88,0  C  -203.88,0  -173.104,-17  0,-18  C  173.104,-17  203.88,0  203.88,0  z " />
<path transform="translate( 0, 0 )" style="stroke: hsl(188.3, 55%, 50%);" id="1461"  d=" M  203.88,0  L  209.741,-67  C  209.741,-67  151.466,-57  104.871,-57  L  -104.871,-57  C  -151.466,-57  -209.741,-67  -209.741,-67  L  -203.88,0  C  -203.88,0  -173.104,-17  0,-18  C  173.104,-17  203.88,0  203.88,0  z " />
<path transform="translate( 0, 0 )" style="stroke: hsl(215.2, 55%, 50%);" id="1670"  d=" M  203.88,0  L  209.741,-67  C  209.741,-67  151.466,-57  104.871,-57  L  -104.871,-57  C  -151.466,-57  -209.741,-67  -209.741,-67  L  -203.88,0  C  -203.88,0  -173.104,-17  0,-18  C  173.104,-17  203.88,0  203.88,0  z " />
<path transform="translate( 0, 0 )" style="stroke: hsl(242.1, 55%, 50%);" id="1879"  d=" M  203.88,0  L  209.741,-67  C  209.741,-67  151.466,-57  104.871,-57  L  -104.871,-57  C  -151.466,-57  -209.741,-67  -209.741,-67  L  -203.88,0  C  -203.88,0  -173.104,-17  0,-18  C  173.104,-17  203.88,0  203.88,0  z " />
<path transform="translate( 0, 0 )" style="stroke: hsl(269, 55%, 50%);" id="2088"  d=" M  203.88,0  L  209.741,-67  C  209.741,-67  151.466,-57  104.871,-57  L  -104.871,-57  C  -151.466,-57  -209.741,-67  -209.741,-67  L  -203.88,0  C  -203.88,0  -173.104,-17  0,-18  C  173.104,-17  203.88,0  203.88,0  z " />
<path transform="translate( 0, 0 )" style="stroke: hsl(295.9, 55%, 50%);" id="2297"  d=" M  203.88,0  L  209.741,-67  C  209.741,-67  151.466,-57  104.871,-57  L  -104.871,-57  C  -151.466,-57  -209.741,-67  -209.741,-67  L  -203.88,0  C  -203.88,0  -173.104,-17  0,-18  C  173.104,-17  203.88,0  203.88,0  z " />
    </g>
    <!-- End of group #undercollar -->
    
    <!-- Start of group #sleevePlacketUnderlap -->
    <g id="sleevePlacketUnderlap"  transform=" translate(5 5)  translate(757.5 787.5) " >
        <path class="hidden" id="10"  d=" M  0,0  L  188.75,0  L  188.75,36  L  0,36  z " />
<path transform="translate( 0, 0 )" style="stroke: hsl(26.9, 55%, 50%);" id="208"  d=" M  0,0  L  188.75,0  L  188.75,36  L  0,36  z " />
<path transform="translate( 0, 0 )" style="stroke: hsl(53.8, 55%, 50%);" id="417"  d=" M  0,0  L  188.75,0  L  188.75,36  L  0,36  z " />
<path transform="translate( 0, 0 )" style="stroke: hsl(80.7, 55%, 50%);" id="626"  d=" M  0,0  L  188.75,0  L  188.75,36  L  0,36  z " />
<path transform="translate( 0, 0 )" style="stroke: hsl(107.6, 55%, 50%);" id="835"  d=" M  0,0  L  188.75,0  L  188.75,36  L  0,36  z " />
<path transform="translate( 0, 0 )" style="stroke: hsl(134.5, 55%, 50%);" id="1044"  d=" M  0,0  L  188.75,0  L  188.75,36  L  0,36  z " />
<path transform="translate( 0, 0 )" style="stroke: hsl(161.4, 55%, 50%);" id="1253"  d=" M  0,0  L  188.75,0  L  188.75,36  L  0,36  z " />
<path transform="translate( 0, 0 )" style="stroke: hsl(188.3, 55%, 50%);" id="1462"  d=" M  0,0  L  188.75,0  L  188.75,36  L  0,36  z " />
<path transform="translate( 0, 0 )" style="stroke: hsl(215.2, 55%, 50%);" id="1671"  d=" M  0,0  L  188.75,0  L  188.75,36  L  0,36  z " />
<path transform="translate( 0, 0 )" style="stroke: hsl(242.1, 55%, 50%);" id="1880"  d=" M  0,0  L  188.75,0  L  188.75,36  L  0,36  z " />
<path transform="translate( 0, 0 )" style="stroke: hsl(269, 55%, 50%);" id="2089"  d=" M  0,0  L  188.75,0  L  188.75,36  L  0,36  z " />
<path transform="translate( 0, 0 )" style="stroke: hsl(295.9, 55%, 50%);" id="2298"  d=" M  0,0  L  188.75,0  L  188.75,36  L  0,36  z " />
    </g>
    <!-- End of group #sleevePlacketUnderlap -->
    
    <!-- Start of group #sleevePlacketOverlap -->
    <g id="sleevePlacketOverlap"  transform=" translate(5 5)  translate(480 895) " >
        <path class="hidden" id="11"  d=" M  0,0  L  235,0  L  235,68  L  0,68  z " />
<path transform="translate( 0, 0 )" style="stroke: hsl(26.9, 55%, 50%);" id="209"  d=" M  0,0  L  235,0  L  235,41.333  L  216.25,41.333  L  211.25,49.667  L  198.75,49.667  L  198.75,68  L  0,68  z " />
<path transform="translate( 0, 0 )" style="stroke: hsl(53.8, 55%, 50%);" id="418"  d=" M  0,0  L  235,0  L  235,41.333  L  216.25,41.333  L  211.25,49.667  L  198.75,49.667  L  198.75,68  L  0,68  z " />
<path transform="translate( 0, 0 )" style="stroke: hsl(80.7, 55%, 50%);" id="627"  d=" M  0,0  L  235,0  L  235,41.333  L  216.25,41.333  L  211.25,49.667  L  198.75,49.667  L  198.75,68  L  0,68  z " />
<path transform="translate( 0, 0 )" style="stroke: hsl(107.6, 55%, 50%);" id="836"  d=" M  0,0  L  235,0  L  235,41.333  L  216.25,41.333  L  211.25,49.667  L  198.75,49.667  L  198.75,68  L  0,68  z " />
<path transform="translate( 0, 0 )" style="stroke: hsl(134.5, 55%, 50%);" id="1045"  d=" M  0,0  L  235,0  L  235,41.333  L  216.25,41.333  L  211.25,49.667  L  198.75,49.667  L  198.75,68  L  0,68  z " />
<path transform="translate( 0, 0 )" style="stroke: hsl(161.4, 55%, 50%);" id="1254"  d=" M  0,0  L  235,0  L  235,41.333  L  216.25,41.333  L  211.25,49.667  L  198.75,49.667  L  198.75,68  L  0,68  z " />
<path transform="translate( 0, 0 )" style="stroke: hsl(188.3, 55%, 50%);" id="1463"  d=" M  0,0  L  235,0  L  235,41.333  L  216.25,41.333  L  211.25,49.667  L  198.75,49.667  L  198.75,68  L  0,68  z " />
<path transform="translate( 0, 0 )" style="stroke: hsl(215.2, 55%, 50%);" id="1672"  d=" M  0,0  L  235,0  L  235,41.333  L  216.25,41.333  L  211.25,49.667  L  198.75,49.667  L  198.75,68  L  0,68  z " />
<path transform="translate( 0, 0 )" style="stroke: hsl(242.1, 55%, 50%);" id="1881"  d=" M  0,0  L  235,0  L  235,41.333  L  216.25,41.333  L  211.25,49.667  L  198.75,49.667  L  198.75,68  L  0,68  z " />
<path transform="translate( 0, 0 )" style="stroke: hsl(269, 55%, 50%);" id="2090"  d=" M  0,0  L  235,0  L  235,41.333  L  216.25,41.333  L  211.25,49.667  L  198.75,49.667  L  198.75,68  L  0,68  z " />
<path transform="translate( 0, 0 )" style="stroke: hsl(295.9, 55%, 50%);" id="2299"  d=" M  0,0  L  235,0  L  235,41.333  L  216.25,41.333  L  211.25,49.667  L  198.75,49.667  L  198.75,68  L  0,68  z " />
    </g>
    <!-- End of group #sleevePlacketOverlap -->
    
    <!-- Start of group #barrelCuff -->
    <g id="barrelCuff"  transform=" translate(127.5 5)  translate(757.5 712.5) " >
        <path class="hidden" id="12"  d=" M  -122.5,0  L  122.5,0  L  122.5,65  L  -122.5,65  z " />
<path transform="translate( 0, 0 )" style="stroke: hsl(26.9, 55%, 50%);" id="210"  d=" M  0,0  L  106.25,-0  L  122.5,16.25  L  122.5,65  L  -122.5,65  L  -122.5,16.25  L  -106.25,0  z " />
<path transform="translate( 0, 0 )" style="stroke: hsl(53.8, 55%, 50%);" id="419"  d=" M  0,0  L  106.25,-0  L  122.5,16.25  L  122.5,65  L  -122.5,65  L  -122.5,16.25  L  -106.25,0  z " />
<path transform="translate( 0, 0 )" style="stroke: hsl(80.7, 55%, 50%);" id="628"  d=" M  0,0  L  106.25,-0  L  122.5,16.25  L  122.5,65  L  -122.5,65  L  -122.5,16.25  L  -106.25,0  z " />
<path transform="translate( 0, 0 )" style="stroke: hsl(107.6, 55%, 50%);" id="837"  d=" M  0,0  L  106.25,-0  L  122.5,16.25  L  122.5,65  L  -122.5,65  L  -122.5,16.25  L  -106.25,0  z " />
<path transform="translate( 0, 0 )" style="stroke: hsl(134.5, 55%, 50%);" id="1046"  d=" M  0,0  L  106.25,-0  L  122.5,16.25  L  122.5,65  L  -122.5,65  L  -122.5,16.25  L  -106.25,0  z " />
<path transform="translate( 0, 0 )" style="stroke: hsl(161.4, 55%, 50%);" id="1255"  d=" M  0,0  L  106.25,-0  L  122.5,16.25  L  122.5,65  L  -122.5,65  L  -122.5,16.25  L  -106.25,0  z " />
<path transform="translate( 0, 0 )" style="stroke: hsl(188.3, 55%, 50%);" id="1464"  d=" M  0,0  L  106.25,-0  L  122.5,16.25  L  122.5,65  L  -122.5,65  L  -122.5,16.25  L  -106.25,0  z " />
<path transform="translate( 0, 0 )" style="stroke: hsl(215.2, 55%, 50%);" id="1673"  d=" M  0,0  L  106.25,-0  L  122.5,16.25  L  122.5,65  L  -122.5,65  L  -122.5,16.25  L  -106.25,0  z " />
<path transform="translate( 0, 0 )" style="stroke: hsl(242.1, 55%, 50%);" id="1882"  d=" M  0,0  L  106.25,-0  L  122.5,16.25  L  122.5,65  L  -122.5,65  L  -122.5,16.25  L  -106.25,0  z " />
<path transform="translate( 0, 0 )" style="stroke: hsl(269, 55%, 50%);" id="2091"  d=" M  0,0  L  106.25,-0  L  122.5,16.25  L  122.5,65  L  -122.5,65  L  -122.5,16.25  L  -106.25,0  z " />
<path transform="translate( 0, 0 )" style="stroke: hsl(295.9, 55%, 50%);" id="2300"  d=" M  0,0  L  106.25,-0  L  122.5,16.25  L  122.5,65  L  -122.5,65  L  -122.5,16.25  L  -106.25,0  z " />
    </g>
    <!-- End of group #barrelCuff -->
    
    <!-- Start of group #frenchCuff -->
    <g id="frenchCuff" >
    </g>
    <!-- End of group #frenchCuff -->
    
    <!-- Start of group #sampler-frontRight -->
    <g id="sampler-frontRight" >
    </g>
    <!-- End of group #sampler-frontRight -->
    
    <!-- Start of group #sampler-frontLeft -->
    <g id="sampler-frontLeft" >
    </g>
    <!-- End of group #sampler-frontLeft -->
    
    <!-- Start of group #sampler-yoke -->
    <g id="sampler-yoke" >
    </g>
    <!-- End of group #sampler-yoke -->
    
    <!-- Start of group #sampler-back -->
    <g id="sampler-back" >
    </g>
    <!-- End of group #sampler-back -->
    
    <!-- Start of group #sampler-sleeve -->
    <g id="sampler-sleeve" >
    </g>
    <!-- End of group #sampler-sleeve -->
    
    <!-- Start of group #sampler-collarStand -->
    <g id="sampler-collarStand" >
    </g>
    <!-- End of group #sampler-collarStand -->
    
    <!-- Start of group #sampler-collar -->
    <g id="sampler-collar" >
    </g>
    <!-- End of group #sampler-collar -->
    
    <!-- Start of group #sampler-undercollar -->
    <g id="sampler-undercollar" >
    </g>
    <!-- End of group #sampler-undercollar -->
    
    <!-- Start of group #sampler-sleevePlacketUnderlap -->
    <g id="sampler-sleevePlacketUnderlap" >
    </g>
    <!-- End of group #sampler-sleevePlacketUnderlap -->
    
    <!-- Start of group #sampler-sleevePlacketOverlap -->
    <g id="sampler-sleevePlacketOverlap" >
    </g>
    <!-- End of group #sampler-sleevePlacketOverlap -->
    
    <!-- Start of group #sampler-barrelCuff -->
    <g id="sampler-barrelCuff" >
    </g>
    <!-- End of group #sampler-barrelCuff -->
</g>
<!-- End of group #patternContainer -->

</svg>

