<?xml version="1.0" encoding="UTF-8" standalone="no"?>
<svg
    width ="1592.6527574274"
    height ="272.83464593"
    viewbox ="0 0 1592.6527574274 272.83464593" xmlns:dc="http://purl.org/dc/elements/1.1/"
    xmlns:cc="http://creativecommons.org/ns#"
    xmlns:rdf="http://www.w3.org/1999/02/22-rdf-syntax-ns#"
    xmlns:svg="http://www.w3.org/2000/svg"
    xmlns="http://www.w3.org/2000/svg"
    xmlns:xlink="http://www.w3.org/1999/xlink"
    xmlns:sodipodi="http://sodipodi.sourceforge.net/DTD/sodipodi-0.dtd"
    xmlns:inkscape="http://www.inkscape.org/namespaces/inkscape" 
>

<style type="text/css">
    <![CDATA[
    path { fill: none; stroke: #000000; stroke-opacity:1; stroke-width: 0.5; stroke-miterlimit:4; stroke-dashoffset:0; stroke-linecap:round; stroke-linejoin:round; }
    path.hidden { fill: none; stroke: none; }]]>
</style>


<!-- Start of group #patternScaleContainer -->
<g id="patternScaleContainer"  transform=" scale(3.54330709 ) " >
    
    <!-- Start of group #collar -->
    <g id="collar"  transform=" translate(224.741 72)  translate(0 0) " >
        <path class="hidden" id="2"  d=" M  -219.741,-67  L  219.741,-67  L  219.741,0  L  -219.741,0  z " />
<path transform="translate( 0, 0 )" style="stroke: hsl(26.9, 55%, 50%);" id="206"  d=" M  0,-15  C  173.104,-15  213.88,0  213.88,0  L  219.741,-67  C  219.741,-67  151.466,-57  109.871,-57  L  -109.871,-57  C  -151.466,-57  -219.741,-67  -219.741,-67  L  -213.88,0  C  -213.88,0  -173.104,-15  0,-15  z " />
<path transform="translate( 0, 0 )" style="stroke: hsl(53.8, 55%, 50%);" id="415"  d=" M  0,-15  C  173.104,-15  212.63,0  212.63,0  L  218.491,-67  C  218.491,-67  151.466,-57  109.246,-57  L  -109.246,-57  C  -151.466,-57  -218.491,-67  -218.491,-67  L  -212.63,0  C  -212.63,0  -173.104,-15  0,-15  z " />
<path transform="translate( 0, 0 )" style="stroke: hsl(80.7, 55%, 50%);" id="624"  d=" M  0,-15  C  173.104,-15  211.38,0  211.38,0  L  217.241,-67  C  217.241,-67  151.466,-57  108.621,-57  L  -108.621,-57  C  -151.466,-57  -217.241,-67  -217.241,-67  L  -211.38,0  C  -211.38,0  -173.104,-15  0,-15  z " />
<path transform="translate( 0, 0 )" style="stroke: hsl(107.6, 55%, 50%);" id="833"  d=" M  0,-15  C  173.104,-15  210.13,0  210.13,0  L  215.991,-67  C  215.991,-67  151.466,-57  107.996,-57  L  -107.996,-57  C  -151.466,-57  -215.991,-67  -215.991,-67  L  -210.13,0  C  -210.13,0  -173.104,-15  0,-15  z " />
<path transform="translate( 0, 0 )" style="stroke: hsl(134.5, 55%, 50%);" id="1042"  d=" M  0,-15  C  173.104,-15  208.88,0  208.88,0  L  214.741,-67  C  214.741,-67  151.466,-57  107.371,-57  L  -107.371,-57  C  -151.466,-57  -214.741,-67  -214.741,-67  L  -208.88,0  C  -208.88,0  -173.104,-15  0,-15  z " />
<path transform="translate( 0, 0 )" style="stroke: hsl(161.4, 55%, 50%);" id="1251"  d=" M  0,-15  C  173.104,-15  207.63,0  207.63,0  L  213.491,-67  C  213.491,-67  151.466,-57  106.746,-57  L  -106.746,-57  C  -151.466,-57  -213.491,-67  -213.491,-67  L  -207.63,0  C  -207.63,0  -173.104,-15  0,-15  z " />
<path transform="translate( 0, 0 )" style="stroke: hsl(188.3, 55%, 50%);" id="1460"  d=" M  0,-15  C  173.104,-15  206.38,0  206.38,0  L  212.241,-67  C  212.241,-67  151.466,-57  106.121,-57  L  -106.121,-57  C  -151.466,-57  -212.241,-67  -212.241,-67  L  -206.38,0  C  -206.38,0  -173.104,-15  0,-15  z " />
<path transform="translate( 0, 0 )" style="stroke: hsl(215.2, 55%, 50%);" id="1669"  d=" M  0,-15  C  173.104,-15  205.13,0  205.13,0  L  210.991,-67  C  210.991,-67  151.466,-57  105.496,-57  L  -105.496,-57  C  -151.466,-57  -210.991,-67  -210.991,-67  L  -205.13,0  C  -205.13,0  -173.104,-15  0,-15  z " />
<path transform="translate( 0, 0 )" style="stroke: hsl(242.1, 55%, 50%);" id="1878"  d=" M  0,-15  C  173.104,-15  203.88,0  203.88,0  L  209.741,-67  C  209.741,-67  151.466,-57  104.871,-57  L  -104.871,-57  C  -151.466,-57  -209.741,-67  -209.741,-67  L  -203.88,0  C  -203.88,0  -173.104,-15  0,-15  z " />
<path transform="translate( 0, 0 )" style="stroke: hsl(269, 55%, 50%);" id="2087"  d=" M  0,-15  C  173.104,-15  202.63,0  202.63,0  L  208.491,-67  C  208.491,-67  151.466,-57  104.246,-57  L  -104.246,-57  C  -151.466,-57  -208.491,-67  -208.491,-67  L  -202.63,0  C  -202.63,0  -173.104,-15  0,-15  z " />
<path transform="translate( 0, 0 )" style="stroke: hsl(295.9, 55%, 50%);" id="2296"  d=" M  0,-15  C  173.104,-15  201.38,0  201.38,0  L  207.241,-67  C  207.241,-67  151.466,-57  103.621,-57  L  -103.621,-57  C  -151.466,-57  -207.241,-67  -207.241,-67  L  -201.38,0  C  -201.38,0  -173.104,-15  0,-15  z " />
    </g>
    <!-- End of group #collar -->
</g>
<!-- End of group #patternScaleContainer -->

</svg>

