<?xml version="1.0" encoding="UTF-8" standalone="no"?>
<svg
    xmlns="http://www.w3.org/2000/svg"
    xmlns:svg="http://www.w3.org/2000/svg"
    xmlns:xlink="http://www.w3.org/1999/xlink"
    xmlns:freesewing="http://freesewing.org/namespaces/freesewing" viewBox ="0 0 1498 1057"
    width ="1498mm"
    height ="1057mm"
    freesewing:version ="1.5.0"
    freesewing:origin ="joost.core.freesewing.org" 
>

<style type="text/css">
    <![CDATA[
    path { fill: none; stroke: #000000; stroke-opacity:1; stroke-width: 0.5; stroke-miterlimit:4; stroke-dashoffset:0; stroke-linecap:round; stroke-linejoin:round; }
    path.hidden { fill: none; stroke: none; }]]>
</style>


<!-- Start of group #patternContainer -->
<g id="patternContainer" >
    
    <!-- Start of group #backBlock -->
    <g id="backBlock" >
    </g>
    <!-- End of group #backBlock -->
    
    <!-- Start of group #frontBlock -->
    <g id="frontBlock" >
    </g>
    <!-- End of group #frontBlock -->
    
    <!-- Start of group #sleeveBlock -->
    <g id="sleeveBlock" >
    </g>
    <!-- End of group #sleeveBlock -->
    
    <!-- Start of group #block -->
    <g id="block" >
    </g>
    <!-- End of group #block -->
    
    <!-- Start of group #frontAndBackBlock -->
    <g id="frontAndBackBlock" >
    </g>
    <!-- End of group #frontAndBackBlock -->
    
    <!-- Start of group #frontRight -->
    <g id="frontRight"  transform=" translate(315 5)  translate(0 0) " >
        <path class="hidden" id="2"  d=" M  -310,0  L  30,0  L  30,835  L  -310,835  z " />
<path transform="translate( 0, 0 )" style="stroke: hsl(26.9, 55%, 50%);" id="200"  d=" M  -310,284.5  C  -288.75,284.5  -269.166,276.922  -250.872,258.628  C  -232.578,240.334  -220,193.833  -220,152.25  C  -220,110.667  -233.338,37.361  -235,27.5  L  -71.847,0  C  -68.523,19.722  -71.847,91.543  0,91.543  L  20,91.543  C  23.592,91.543  26.997,91.363  30,91.043  L  30,91.543  L  30,835  L  -249,835  C  -249,835  -280,835  -280,835  C  -280,835  -280,755  -280,755  C  -280,734  -276.99,705.994  -277.5,685  C  -277.94,666.875  -280.75,612.5  -280.75,540  C  -280.75,412.25  -310,316.437  -310,284.5 " />
<path transform="translate( 0, 0 )" style="stroke: hsl(53.8, 55%, 50%);" id="409"  d=" M  -310,284.5  C  -288.75,284.5  -269.166,276.922  -250.872,258.628  C  -232.578,240.334  -220,193.833  -220,152.25  C  -220,110.667  -233.338,37.361  -235,27.5  L  -71.847,0  C  -68.523,19.722  -71.847,93.925  0,93.925  L  20,93.925  C  23.592,93.925  26.997,93.739  30,93.409  L  30,93.925  L  30,835  L  -249,835  C  -249,835  -280,835  -280,835  C  -280,835  -280,755  -280,755  C  -280,734  -276.99,705.994  -277.5,685  C  -277.94,666.875  -280.75,612.5  -280.75,540  C  -280.75,412.25  -310,316.437  -310,284.5 " />
<path transform="translate( 0, 0 )" style="stroke: hsl(80.7, 55%, 50%);" id="618"  d=" M  -310,284.5  C  -288.75,284.5  -269.166,276.922  -250.872,258.628  C  -232.578,240.334  -220,193.833  -220,152.25  C  -220,110.667  -233.338,37.361  -235,27.5  L  -71.847,0  C  -68.523,19.722  -71.847,96.624  0,96.624  L  20,96.624  C  23.592,96.624  26.997,96.432  30,96.089  L  30,96.624  L  30,835  L  -249,835  C  -249,835  -280,835  -280,835  C  -280,835  -280,755  -280,755  C  -280,734  -276.99,705.994  -277.5,685  C  -277.94,666.875  -280.75,612.5  -280.75,540  C  -280.75,412.25  -310,316.437  -310,284.5 " />
<path transform="translate( 0, 0 )" style="stroke: hsl(107.6, 55%, 50%);" id="827"  d=" M  -310,284.5  C  -288.75,284.5  -269.166,276.922  -250.872,258.628  C  -232.578,240.334  -220,193.833  -220,152.25  C  -220,110.667  -233.338,37.361  -235,27.5  L  -71.847,0  C  -68.523,19.722  -71.847,99.166  0,99.166  L  20,99.166  C  23.592,99.166  26.997,98.967  30,98.614  L  30,99.166  L  30,835  L  -249,835  C  -249,835  -280,835  -280,835  C  -280,835  -280,755  -280,755  C  -280,734  -276.99,705.994  -277.5,685  C  -277.94,666.875  -280.75,612.5  -280.75,540  C  -280.75,412.25  -310,316.437  -310,284.5 " />
<path transform="translate( 0, 0 )" style="stroke: hsl(134.5, 55%, 50%);" id="1036"  d=" M  -310,284.5  C  -288.75,284.5  -269.166,276.922  -250.872,258.628  C  -232.578,240.334  -220,193.833  -220,152.25  C  -220,110.667  -233.338,37.361  -235,27.5  L  -71.847,0  C  -68.523,19.722  -71.847,101.349  0,101.349  L  20,101.349  C  23.592,101.349  26.997,101.145  30,100.781  L  30,101.349  L  30,835  L  -249,835  C  -249,835  -280,835  -280,835  C  -280,835  -280,755  -280,755  C  -280,734  -276.99,705.994  -277.5,685  C  -277.94,666.875  -280.75,612.5  -280.75,540  C  -280.75,412.25  -310,316.437  -310,284.5 " />
<path transform="translate( 0, 0 )" style="stroke: hsl(161.4, 55%, 50%);" id="1245"  d=" M  -310,284.5  C  -288.75,284.5  -269.166,276.922  -250.872,258.628  C  -232.578,240.334  -220,193.833  -220,152.25  C  -220,110.667  -233.338,37.361  -235,27.5  L  -71.847,0  C  -68.523,19.722  -71.847,103.803  0,103.803  L  20,103.803  C  23.592,103.803  26.997,103.593  30,103.218  L  30,103.803  L  30,835  L  -249,835  C  -249,835  -280,835  -280,835  C  -280,835  -280,755  -280,755  C  -280,734  -276.99,705.994  -277.5,685  C  -277.94,666.875  -280.75,612.5  -280.75,540  C  -280.75,412.25  -310,316.437  -310,284.5 " />
<path transform="translate( 0, 0 )" style="stroke: hsl(188.3, 55%, 50%);" id="1454"  d=" M  -310,284.5  C  -288.75,284.5  -269.166,276.922  -250.872,258.628  C  -232.578,240.334  -220,193.833  -220,152.25  C  -220,110.667  -233.338,37.361  -235,27.5  L  -71.847,0  C  -68.523,19.722  -71.847,106.393  0,106.393  L  20,106.393  C  23.592,106.393  26.997,106.176  30,105.791  L  30,106.393  L  30,835  L  -249,835  C  -249,835  -280,835  -280,835  C  -280,835  -280,755  -280,755  C  -280,734  -276.99,705.994  -277.5,685  C  -277.94,666.875  -280.75,612.5  -280.75,540  C  -280.75,412.25  -310,316.437  -310,284.5 " />
<path transform="translate( 0, 0 )" style="stroke: hsl(215.2, 55%, 50%);" id="1663"  d=" M  -310,284.5  C  -288.75,284.5  -269.166,276.922  -250.872,258.628  C  -232.578,240.334  -220,193.833  -220,152.25  C  -220,110.667  -233.338,37.361  -235,27.5  L  -71.847,0  C  -68.523,19.722  -71.847,108.608  0,108.608  L  20,108.608  C  23.592,108.608  26.997,108.386  30,107.99  L  30,108.608  L  30,835  L  -249,835  C  -249,835  -280,835  -280,835  C  -280,835  -280,755  -280,755  C  -280,734  -276.99,705.994  -277.5,685  C  -277.94,666.875  -280.75,612.5  -280.75,540  C  -280.75,412.25  -310,316.437  -310,284.5 " />
<path transform="translate( 0, 0 )" style="stroke: hsl(242.1, 55%, 50%);" id="1872"  d=" M  -310,284.5  C  -288.75,284.5  -269.166,276.922  -250.872,258.628  C  -232.578,240.334  -220,193.833  -220,152.25  C  -220,110.667  -233.338,37.361  -235,27.5  L  -71.847,0  C  -68.523,19.722  -71.847,111.053  0,111.053  L  20,111.053  C  23.592,111.053  26.997,110.825  30,110.418  L  30,111.053  L  30,835  L  -249,835  C  -249,835  -280,835  -280,835  C  -280,835  -280,755  -280,755  C  -280,734  -276.99,705.994  -277.5,685  C  -277.94,666.875  -280.75,612.5  -280.75,540  C  -280.75,412.25  -310,316.437  -310,284.5 " />
<path transform="translate( 0, 0 )" style="stroke: hsl(269, 55%, 50%);" id="2081"  d=" M  -310,284.5  C  -288.75,284.5  -269.166,276.922  -250.872,258.628  C  -232.578,240.334  -220,193.833  -220,152.25  C  -220,110.667  -233.338,37.361  -235,27.5  L  -71.847,0  C  -68.523,19.722  -71.847,113.166  0,113.166  L  20,113.166  C  23.592,113.166  26.997,112.932  30,112.517  L  30,113.166  L  30,835  L  -249,835  C  -249,835  -280,835  -280,835  C  -280,835  -280,755  -280,755  C  -280,734  -276.99,705.994  -277.5,685  C  -277.94,666.875  -280.75,612.5  -280.75,540  C  -280.75,412.25  -310,316.437  -310,284.5 " />
<path transform="translate( 0, 0 )" style="stroke: hsl(295.9, 55%, 50%);" id="2290"  d=" M  -310,284.5  C  -288.75,284.5  -269.166,276.922  -250.872,258.628  C  -232.578,240.334  -220,193.833  -220,152.25  C  -220,110.667  -233.338,37.361  -235,27.5  L  -71.847,0  C  -68.523,19.722  -71.847,115.769  0,115.769  L  20,115.769  C  23.592,115.769  26.997,115.529  30,115.102  L  30,115.769  L  30,835  L  -249,835  C  -249,835  -280,835  -280,835  C  -280,835  -280,755  -280,755  C  -280,734  -276.99,705.994  -277.5,685  C  -277.94,666.875  -280.75,612.5  -280.75,540  C  -280.75,412.25  -310,316.437  -310,284.5 " />
    </g>
    <!-- End of group #frontRight -->
    
    <!-- Start of group #frontLeft -->
    <g id="frontLeft"  transform=" translate(92.5 5)  translate(350 0) " >
        <path class="hidden" id="3"  d=" M  -87.5,0  L  310,0  L  310,835  L  -87.5,835  z " />
<path transform="translate( 0, 0 )" style="stroke: hsl(26.9, 55%, 50%);" id="201"  d=" M  310,284.5  C  288.75,284.5  269.166,276.922  250.872,258.628  C  232.578,240.334  220,193.833  220,152.25  C  220,110.667  233.338,37.361  235,27.5  L  71.847,0  C  68.523,19.722  71.847,91.543  0,91.543  L  -35,91.543  C  -47.324,90.961  -41.466,91.543  -52.5,89.915  C  -63.534,91.543  -57.676,90.961  -70,91.543  L  -87.5,91.543  L  -87.5,835  L  249,835  C  249,835  280,835  280,835  C  280,835  280,755  280,755  C  280,734  276.99,705.994  277.5,685  C  277.94,666.875  280.75,612.5  280.75,540  C  280.75,412.25  310,316.437  310,284.5 " />
<path transform="translate( 0, 0 )" style="stroke: hsl(53.8, 55%, 50%);" id="410"  d=" M  310,284.5  C  288.75,284.5  269.166,276.922  250.872,258.628  C  232.578,240.334  220,193.833  220,152.25  C  220,110.667  233.338,37.361  235,27.5  L  71.847,0  C  68.523,19.722  71.847,93.925  0,93.925  L  -35,93.925  C  -47.324,93.324  -41.466,93.925  -52.5,92.243  C  -63.534,93.925  -57.676,93.324  -70,93.925  L  -87.5,93.925  L  -87.5,835  L  249,835  C  249,835  280,835  280,835  C  280,835  280,755  280,755  C  280,734  276.99,705.994  277.5,685  C  277.94,666.875  280.75,612.5  280.75,540  C  280.75,412.25  310,316.437  310,284.5 " />
<path transform="translate( 0, 0 )" style="stroke: hsl(80.7, 55%, 50%);" id="619"  d=" M  310,284.5  C  288.75,284.5  269.166,276.922  250.872,258.628  C  232.578,240.334  220,193.833  220,152.25  C  220,110.667  233.338,37.361  235,27.5  L  71.847,0  C  68.523,19.722  71.847,96.624  0,96.624  L  -35,96.624  C  -47.324,96.001  -41.466,96.624  -52.5,94.881  C  -63.534,96.624  -57.676,96.001  -70,96.624  L  -87.5,96.624  L  -87.5,835  L  249,835  C  249,835  280,835  280,835  C  280,835  280,755  280,755  C  280,734  276.99,705.994  277.5,685  C  277.94,666.875  280.75,612.5  280.75,540  C  280.75,412.25  310,316.437  310,284.5 " />
<path transform="translate( 0, 0 )" style="stroke: hsl(107.6, 55%, 50%);" id="828"  d=" M  310,284.5  C  288.75,284.5  269.166,276.922  250.872,258.628  C  232.578,240.334  220,193.833  220,152.25  C  220,110.667  233.338,37.361  235,27.5  L  71.847,0  C  68.523,19.722  71.847,99.166  0,99.166  L  -35,99.166  C  -47.324,98.523  -41.466,99.166  -52.5,97.366  C  -63.534,99.166  -57.676,98.523  -70,99.166  L  -87.5,99.166  L  -87.5,835  L  249,835  C  249,835  280,835  280,835  C  280,835  280,755  280,755  C  280,734  276.99,705.994  277.5,685  C  277.94,666.875  280.75,612.5  280.75,540  C  280.75,412.25  310,316.437  310,284.5 " />
<path transform="translate( 0, 0 )" style="stroke: hsl(134.5, 55%, 50%);" id="1037"  d=" M  310,284.5  C  288.75,284.5  269.166,276.922  250.872,258.628  C  232.578,240.334  220,193.833  220,152.25  C  220,110.667  233.338,37.361  235,27.5  L  71.847,0  C  68.523,19.722  71.847,101.349  0,101.349  L  -35,101.349  C  -47.324,100.688  -41.466,101.349  -52.5,99.5  C  -63.534,101.349  -57.676,100.688  -70,101.349  L  -87.5,101.349  L  -87.5,835  L  249,835  C  249,835  280,835  280,835  C  280,835  280,755  280,755  C  280,734  276.99,705.994  277.5,685  C  277.94,666.875  280.75,612.5  280.75,540  C  280.75,412.25  310,316.437  310,284.5 " />
<path transform="translate( 0, 0 )" style="stroke: hsl(161.4, 55%, 50%);" id="1246"  d=" M  310,284.5  C  288.75,284.5  269.166,276.922  250.872,258.628  C  232.578,240.334  220,193.833  220,152.25  C  220,110.667  233.338,37.361  235,27.5  L  71.847,0  C  68.523,19.722  71.847,103.803  0,103.803  L  -35,103.803  C  -47.324,103.122  -41.466,103.803  -52.5,101.899  C  -63.534,103.803  -57.676,103.122  -70,103.803  L  -87.5,103.803  L  -87.5,835  L  249,835  C  249,835  280,835  280,835  C  280,835  280,755  280,755  C  280,734  276.99,705.994  277.5,685  C  277.94,666.875  280.75,612.5  280.75,540  C  280.75,412.25  310,316.437  310,284.5 " />
<path transform="translate( 0, 0 )" style="stroke: hsl(188.3, 55%, 50%);" id="1455"  d=" M  310,284.5  C  288.75,284.5  269.166,276.922  250.872,258.628  C  232.578,240.334  220,193.833  220,152.25  C  220,110.667  233.338,37.361  235,27.5  L  71.847,0  C  68.523,19.722  71.847,106.393  0,106.393  L  -35,106.393  C  -47.324,105.691  -41.466,106.393  -52.5,104.431  C  -63.534,106.393  -57.676,105.691  -70,106.393  L  -87.5,106.393  L  -87.5,835  L  249,835  C  249,835  280,835  280,835  C  280,835  280,755  280,755  C  280,734  276.99,705.994  277.5,685  C  277.94,666.875  280.75,612.5  280.75,540  C  280.75,412.25  310,316.437  310,284.5 " />
<path transform="translate( 0, 0 )" style="stroke: hsl(215.2, 55%, 50%);" id="1664"  d=" M  310,284.5  C  288.75,284.5  269.166,276.922  250.872,258.628  C  232.578,240.334  220,193.833  220,152.25  C  220,110.667  233.338,37.361  235,27.5  L  71.847,0  C  68.523,19.722  71.847,108.608  0,108.608  L  -35,108.608  C  -47.324,107.888  -41.466,108.608  -52.5,106.596  C  -63.534,108.608  -57.676,107.888  -70,108.608  L  -87.5,108.608  L  -87.5,835  L  249,835  C  249,835  280,835  280,835  C  280,835  280,755  280,755  C  280,734  276.99,705.994  277.5,685  C  277.94,666.875  280.75,612.5  280.75,540  C  280.75,412.25  310,316.437  310,284.5 " />
<path transform="translate( 0, 0 )" style="stroke: hsl(242.1, 55%, 50%);" id="1873"  d=" M  310,284.5  C  288.75,284.5  269.166,276.922  250.872,258.628  C  232.578,240.334  220,193.833  220,152.25  C  220,110.667  233.338,37.361  235,27.5  L  71.847,0  C  68.523,19.722  71.847,111.053  0,111.053  L  -35,111.053  C  -47.324,110.313  -41.466,111.053  -52.5,108.986  C  -63.534,111.053  -57.676,110.313  -70,111.053  L  -87.5,111.053  L  -87.5,835  L  249,835  C  249,835  280,835  280,835  C  280,835  280,755  280,755  C  280,734  276.99,705.994  277.5,685  C  277.94,666.875  280.75,612.5  280.75,540  C  280.75,412.25  310,316.437  310,284.5 " />
<path transform="translate( 0, 0 )" style="stroke: hsl(269, 55%, 50%);" id="2082"  d=" M  310,284.5  C  288.75,284.5  269.166,276.922  250.872,258.628  C  232.578,240.334  220,193.833  220,152.25  C  220,110.667  233.338,37.361  235,27.5  L  71.847,0  C  68.523,19.722  71.847,113.166  0,113.166  L  -35,113.166  C  -47.324,112.409  -41.466,113.166  -52.5,111.052  C  -63.534,113.166  -57.676,112.409  -70,113.166  L  -87.5,113.166  L  -87.5,835  L  249,835  C  249,835  280,835  280,835  C  280,835  280,755  280,755  C  280,734  276.99,705.994  277.5,685  C  277.94,666.875  280.75,612.5  280.75,540  C  280.75,412.25  310,316.437  310,284.5 " />
<path transform="translate( 0, 0 )" style="stroke: hsl(295.9, 55%, 50%);" id="2291"  d=" M  310,284.5  C  288.75,284.5  269.166,276.922  250.872,258.628  C  232.578,240.334  220,193.833  220,152.25  C  220,110.667  233.338,37.361  235,27.5  L  71.847,0  C  68.523,19.722  71.847,115.769  0,115.769  L  -35,115.769  C  -47.324,114.991  -41.466,115.769  -52.5,113.596  C  -63.534,115.769  -57.676,114.991  -70,115.769  L  -87.5,115.769  L  -87.5,835  L  249,835  C  249,835  280,835  280,835  C  280,835  280,755  280,755  C  280,734  276.99,705.994  277.5,685  C  277.94,666.875  280.75,612.5  280.75,540  C  280.75,412.25  310,316.437  310,284.5 " />
    </g>
    <!-- End of group #frontLeft -->
    
    <!-- Start of group #buttonPlacket -->
    <g id="buttonPlacket" >
    </g>
    <!-- End of group #buttonPlacket -->
    
    <!-- Start of group #buttonholePlacket -->
    <g id="buttonholePlacket" >
    </g>
    <!-- End of group #buttonholePlacket -->
    
    <!-- Start of group #yoke -->
    <g id="yoke"  transform=" translate(240 5)  translate(0 895) " >
        <path class="hidden" id="4"  d=" M  -235,0  L  235,0  L  235,152.25  L  -235,152.25  z " />
<path transform="translate( 0, 0 )" style="stroke: hsl(26.9, 55%, 50%);" id="202"  d=" M  225,152.25  C  225,110.667  233.338,37.361  235,27.5  L  71.847,0  C  68.523,19.722  0,20  0,20  C  0,20  -68.523,19.722  -71.847,0  L  -235,27.5  C  -233.338,37.361  -225,110.667  -225,152.25  z " />
<path transform="translate( 0, 0 )" style="stroke: hsl(53.8, 55%, 50%);" id="411"  d=" M  225,152.25  C  225,110.667  233.338,37.361  235,27.5  L  71.847,0  C  68.523,19.722  0,20  0,20  C  0,20  -68.523,19.722  -71.847,0  L  -235,27.5  C  -233.338,37.361  -225,110.667  -225,152.25  z " />
<path transform="translate( 0, 0 )" style="stroke: hsl(80.7, 55%, 50%);" id="620"  d=" M  225,152.25  C  225,110.667  233.338,37.361  235,27.5  L  71.847,0  C  68.523,19.722  0,20  0,20  C  0,20  -68.523,19.722  -71.847,0  L  -235,27.5  C  -233.338,37.361  -225,110.667  -225,152.25  z " />
<path transform="translate( 0, 0 )" style="stroke: hsl(107.6, 55%, 50%);" id="829"  d=" M  225,152.25  C  225,110.667  233.338,37.361  235,27.5  L  71.847,0  C  68.523,19.722  0,20  0,20  C  0,20  -68.523,19.722  -71.847,0  L  -235,27.5  C  -233.338,37.361  -225,110.667  -225,152.25  z " />
<path transform="translate( 0, 0 )" style="stroke: hsl(134.5, 55%, 50%);" id="1038"  d=" M  225,152.25  C  225,110.667  233.338,37.361  235,27.5  L  71.847,0  C  68.523,19.722  0,20  0,20  C  0,20  -68.523,19.722  -71.847,0  L  -235,27.5  C  -233.338,37.361  -225,110.667  -225,152.25  z " />
<path transform="translate( 0, 0 )" style="stroke: hsl(161.4, 55%, 50%);" id="1247"  d=" M  225,152.25  C  225,110.667  233.338,37.361  235,27.5  L  71.847,0  C  68.523,19.722  0,20  0,20  C  0,20  -68.523,19.722  -71.847,0  L  -235,27.5  C  -233.338,37.361  -225,110.667  -225,152.25  z " />
<path transform="translate( 0, 0 )" style="stroke: hsl(188.3, 55%, 50%);" id="1456"  d=" M  225,152.25  C  225,110.667  233.338,37.361  235,27.5  L  71.847,0  C  68.523,19.722  0,20  0,20  C  0,20  -68.523,19.722  -71.847,0  L  -235,27.5  C  -233.338,37.361  -225,110.667  -225,152.25  z " />
<path transform="translate( 0, 0 )" style="stroke: hsl(215.2, 55%, 50%);" id="1665"  d=" M  225,152.25  C  225,110.667  233.338,37.361  235,27.5  L  71.847,0  C  68.523,19.722  0,20  0,20  C  0,20  -68.523,19.722  -71.847,0  L  -235,27.5  C  -233.338,37.361  -225,110.667  -225,152.25  z " />
<path transform="translate( 0, 0 )" style="stroke: hsl(242.1, 55%, 50%);" id="1874"  d=" M  225,152.25  C  225,110.667  233.338,37.361  235,27.5  L  71.847,0  C  68.523,19.722  0,20  0,20  C  0,20  -68.523,19.722  -71.847,0  L  -235,27.5  C  -233.338,37.361  -225,110.667  -225,152.25  z " />
<path transform="translate( 0, 0 )" style="stroke: hsl(269, 55%, 50%);" id="2083"  d=" M  225,152.25  C  225,110.667  233.338,37.361  235,27.5  L  71.847,0  C  68.523,19.722  0,20  0,20  C  0,20  -68.523,19.722  -71.847,0  L  -235,27.5  C  -233.338,37.361  -225,110.667  -225,152.25  z " />
<path transform="translate( 0, 0 )" style="stroke: hsl(295.9, 55%, 50%);" id="2292"  d=" M  225,152.25  C  225,110.667  233.338,37.361  235,27.5  L  71.847,0  C  68.523,19.722  0,20  0,20  C  0,20  -68.523,19.722  -71.847,0  L  -235,27.5  C  -233.338,37.361  -225,110.667  -225,152.25  z " />
    </g>
    <!-- End of group #yoke -->
    
    <!-- Start of group #back -->
    <g id="back"  transform=" translate(5 -147.25)  translate(757.5 0) " >
        <path class="hidden" id="5"  d=" M  0,152.25  L  310,152.25  L  310,835  L  0,835  z " />
<path transform="translate( 0, 0 )" style="stroke: hsl(26.9, 55%, 50%);" id="203"  d=" M  0,152.25  L  112.5,152.25  C  168.75,152.25  225.036,157.25  225.036,157.25  C  223.351,193.794  232.578,240.334  250.872,258.628  C  269.166,276.922  288.75,284.5  310,284.5  C  310,335.6  280.75,412.25  280.75,540  C  280.75,612.5  277.94,666.875  277.5,685  C  276.99,705.994  280,734  280,755  L  280,835  L  0,835  L  0,152.25  z " />
<path transform="translate( 0, 0 )" style="stroke: hsl(53.8, 55%, 50%);" id="412"  d=" M  0,152.25  L  112.5,152.25  C  168.75,152.25  225.036,157.25  225.036,157.25  C  223.351,193.794  232.578,240.334  250.872,258.628  C  269.166,276.922  288.75,284.5  310,284.5  C  310,335.6  280.75,412.25  280.75,540  C  280.75,612.5  277.94,666.875  277.5,685  C  276.99,705.994  280,734  280,755  L  280,835  L  0,835  L  0,152.25  z " />
<path transform="translate( 0, 0 )" style="stroke: hsl(80.7, 55%, 50%);" id="621"  d=" M  0,152.25  L  112.5,152.25  C  168.75,152.25  225.036,157.25  225.036,157.25  C  223.351,193.794  232.578,240.334  250.872,258.628  C  269.166,276.922  288.75,284.5  310,284.5  C  310,335.6  280.75,412.25  280.75,540  C  280.75,612.5  277.94,666.875  277.5,685  C  276.99,705.994  280,734  280,755  L  280,835  L  0,835  L  0,152.25  z " />
<path transform="translate( 0, 0 )" style="stroke: hsl(107.6, 55%, 50%);" id="830"  d=" M  0,152.25  L  112.5,152.25  C  168.75,152.25  225.036,157.25  225.036,157.25  C  223.351,193.794  232.578,240.334  250.872,258.628  C  269.166,276.922  288.75,284.5  310,284.5  C  310,335.6  280.75,412.25  280.75,540  C  280.75,612.5  277.94,666.875  277.5,685  C  276.99,705.994  280,734  280,755  L  280,835  L  0,835  L  0,152.25  z " />
<path transform="translate( 0, 0 )" style="stroke: hsl(134.5, 55%, 50%);" id="1039"  d=" M  0,152.25  L  112.5,152.25  C  168.75,152.25  225.036,157.25  225.036,157.25  C  223.351,193.794  232.578,240.334  250.872,258.628  C  269.166,276.922  288.75,284.5  310,284.5  C  310,335.6  280.75,412.25  280.75,540  C  280.75,612.5  277.94,666.875  277.5,685  C  276.99,705.994  280,734  280,755  L  280,835  L  0,835  L  0,152.25  z " />
<path transform="translate( 0, 0 )" style="stroke: hsl(161.4, 55%, 50%);" id="1248"  d=" M  0,152.25  L  112.5,152.25  C  168.75,152.25  225.036,157.25  225.036,157.25  C  223.351,193.794  232.578,240.334  250.872,258.628  C  269.166,276.922  288.75,284.5  310,284.5  C  310,335.6  280.75,412.25  280.75,540  C  280.75,612.5  277.94,666.875  277.5,685  C  276.99,705.994  280,734  280,755  L  280,835  L  0,835  L  0,152.25  z " />
<path transform="translate( 0, 0 )" style="stroke: hsl(188.3, 55%, 50%);" id="1457"  d=" M  0,152.25  L  112.5,152.25  C  168.75,152.25  225.036,157.25  225.036,157.25  C  223.351,193.794  232.578,240.334  250.872,258.628  C  269.166,276.922  288.75,284.5  310,284.5  C  310,335.6  280.75,412.25  280.75,540  C  280.75,612.5  277.94,666.875  277.5,685  C  276.99,705.994  280,734  280,755  L  280,835  L  0,835  L  0,152.25  z " />
<path transform="translate( 0, 0 )" style="stroke: hsl(215.2, 55%, 50%);" id="1666"  d=" M  0,152.25  L  112.5,152.25  C  168.75,152.25  225.036,157.25  225.036,157.25  C  223.351,193.794  232.578,240.334  250.872,258.628  C  269.166,276.922  288.75,284.5  310,284.5  C  310,335.6  280.75,412.25  280.75,540  C  280.75,612.5  277.94,666.875  277.5,685  C  276.99,705.994  280,734  280,755  L  280,835  L  0,835  L  0,152.25  z " />
<path transform="translate( 0, 0 )" style="stroke: hsl(242.1, 55%, 50%);" id="1875"  d=" M  0,152.25  L  112.5,152.25  C  168.75,152.25  225.036,157.25  225.036,157.25  C  223.351,193.794  232.578,240.334  250.872,258.628  C  269.166,276.922  288.75,284.5  310,284.5  C  310,335.6  280.75,412.25  280.75,540  C  280.75,612.5  277.94,666.875  277.5,685  C  276.99,705.994  280,734  280,755  L  280,835  L  0,835  L  0,152.25  z " />
<path transform="translate( 0, 0 )" style="stroke: hsl(269, 55%, 50%);" id="2084"  d=" M  0,152.25  L  112.5,152.25  C  168.75,152.25  225.036,157.25  225.036,157.25  C  223.351,193.794  232.578,240.334  250.872,258.628  C  269.166,276.922  288.75,284.5  310,284.5  C  310,335.6  280.75,412.25  280.75,540  C  280.75,612.5  277.94,666.875  277.5,685  C  276.99,705.994  280,734  280,755  L  280,835  L  0,835  L  0,152.25  z " />
<path transform="translate( 0, 0 )" style="stroke: hsl(295.9, 55%, 50%);" id="2293"  d=" M  0,152.25  L  112.5,152.25  C  168.75,152.25  225.036,157.25  225.036,157.25  C  223.351,193.794  232.578,240.334  250.872,258.628  C  269.166,276.922  288.75,284.5  310,284.5  C  310,335.6  280.75,412.25  280.75,540  C  280.75,612.5  277.94,666.875  277.5,685  C  276.99,705.994  280,734  280,755  L  280,835  L  0,835  L  0,152.25  z " />
    </g>
    <!-- End of group #back -->
    
    <!-- Start of group #sleeve -->
    <g id="sleeve"  transform=" translate(210.431 5)  translate(1077.5 0) " >
        <path class="hidden" id="6"  d=" M  -205.431,0  L  205.431,0  L  205.431,678  L  -205.431,678  z " />
<path transform="translate( 0, 0 )" style="stroke: hsl(26.9, 55%, 50%);" id="204"  d=" M  -205.431,206.3  C  -205.431,206.3  -167.111,165.017  -150.122,143.097  C  -133.133,121.177  -102.716,73.767  -102.716,73.767  C  -102.716,73.767  -82.634,40.877  -60.108,24.7  C  -37.582,8.523  -27.733,-0  5,0  C  27.733,0  47.083,8.997  68.485,26.634  C  89.887,44.271  107.716,88.767  107.716,88.767  C  107.716,88.767  127.31,135.797  145.04,157.123  C  162.77,178.449  205.431,206.3  205.431,206.3  L  142.5,675  C  142.5,675  111.875,678  81.25,678  C  65.827,677.471  50.625,676.845  50.625,676.845  L  30.625,676.845  C  10.302,676.009  0,675  0,675  L  -20,675  C  -20,675  -50.625,672  -81.25,672  C  -111.875,672  -142.5,675  -142.5,675  z " />
<path transform="translate( 0, 0 )" style="stroke: hsl(53.8, 55%, 50%);" id="413"  d=" M  -205.431,206.3  C  -205.431,206.3  -167.111,165.017  -150.122,143.097  C  -133.133,121.177  -102.716,73.767  -102.716,73.767  C  -102.716,73.767  -82.634,40.877  -60.108,24.7  C  -37.582,8.523  -27.733,-0  5,0  C  27.733,0  47.083,8.997  68.485,26.634  C  89.887,44.271  107.716,88.767  107.716,88.767  C  107.716,88.767  127.31,135.797  145.04,157.123  C  162.77,178.449  205.431,206.3  205.431,206.3  L  142.5,675  C  142.5,675  111.875,678  81.25,678  C  65.827,677.471  50.625,676.845  50.625,676.845  L  30.625,676.845  C  10.302,676.009  0,675  0,675  L  -20,675  C  -20,675  -50.625,672  -81.25,672  C  -111.875,672  -142.5,675  -142.5,675  z " />
<path transform="translate( 0, 0 )" style="stroke: hsl(80.7, 55%, 50%);" id="622"  d=" M  -205.431,206.3  C  -205.431,206.3  -167.111,165.017  -150.122,143.097  C  -133.133,121.177  -102.716,73.767  -102.716,73.767  C  -102.716,73.767  -82.634,40.877  -60.108,24.7  C  -37.582,8.523  -27.733,-0  5,0  C  27.733,0  47.083,8.997  68.485,26.634  C  89.887,44.271  107.716,88.767  107.716,88.767  C  107.716,88.767  127.31,135.797  145.04,157.123  C  162.77,178.449  205.431,206.3  205.431,206.3  L  142.5,675  C  142.5,675  111.875,678  81.25,678  C  65.827,677.471  50.625,676.845  50.625,676.845  L  30.625,676.845  C  10.302,676.009  0,675  0,675  L  -20,675  C  -20,675  -50.625,672  -81.25,672  C  -111.875,672  -142.5,675  -142.5,675  z " />
<path transform="translate( 0, 0 )" style="stroke: hsl(107.6, 55%, 50%);" id="831"  d=" M  -205.431,206.3  C  -205.431,206.3  -167.111,165.017  -150.122,143.097  C  -133.133,121.177  -102.716,73.767  -102.716,73.767  C  -102.716,73.767  -82.634,40.877  -60.108,24.7  C  -37.582,8.523  -27.733,-0  5,0  C  27.733,0  47.083,8.997  68.485,26.634  C  89.887,44.271  107.716,88.767  107.716,88.767  C  107.716,88.767  127.31,135.797  145.04,157.123  C  162.77,178.449  205.431,206.3  205.431,206.3  L  142.5,675  C  142.5,675  111.875,678  81.25,678  C  65.827,677.471  50.625,676.845  50.625,676.845  L  30.625,676.845  C  10.302,676.009  0,675  0,675  L  -20,675  C  -20,675  -50.625,672  -81.25,672  C  -111.875,672  -142.5,675  -142.5,675  z " />
<path transform="translate( 0, 0 )" style="stroke: hsl(134.5, 55%, 50%);" id="1040"  d=" M  -205.431,206.3  C  -205.431,206.3  -167.111,165.017  -150.122,143.097  C  -133.133,121.177  -102.716,73.767  -102.716,73.767  C  -102.716,73.767  -82.634,40.877  -60.108,24.7  C  -37.582,8.523  -27.733,-0  5,0  C  27.733,0  47.083,8.997  68.485,26.634  C  89.887,44.271  107.716,88.767  107.716,88.767  C  107.716,88.767  127.31,135.797  145.04,157.123  C  162.77,178.449  205.431,206.3  205.431,206.3  L  142.5,675  C  142.5,675  111.875,678  81.25,678  C  65.827,677.471  50.625,676.845  50.625,676.845  L  30.625,676.845  C  10.302,676.009  0,675  0,675  L  -20,675  C  -20,675  -50.625,672  -81.25,672  C  -111.875,672  -142.5,675  -142.5,675  z " />
<path transform="translate( 0, 0 )" style="stroke: hsl(161.4, 55%, 50%);" id="1249"  d=" M  -205.431,206.3  C  -205.431,206.3  -167.111,165.017  -150.122,143.097  C  -133.133,121.177  -102.716,73.767  -102.716,73.767  C  -102.716,73.767  -82.634,40.877  -60.108,24.7  C  -37.582,8.523  -27.733,-0  5,0  C  27.733,0  47.083,8.997  68.485,26.634  C  89.887,44.271  107.716,88.767  107.716,88.767  C  107.716,88.767  127.31,135.797  145.04,157.123  C  162.77,178.449  205.431,206.3  205.431,206.3  L  142.5,675  C  142.5,675  111.875,678  81.25,678  C  65.827,677.471  50.625,676.845  50.625,676.845  L  30.625,676.845  C  10.302,676.009  0,675  0,675  L  -20,675  C  -20,675  -50.625,672  -81.25,672  C  -111.875,672  -142.5,675  -142.5,675  z " />
<path transform="translate( 0, 0 )" style="stroke: hsl(188.3, 55%, 50%);" id="1458"  d=" M  -205.431,206.3  C  -205.431,206.3  -167.111,165.017  -150.122,143.097  C  -133.133,121.177  -102.716,73.767  -102.716,73.767  C  -102.716,73.767  -82.634,40.877  -60.108,24.7  C  -37.582,8.523  -27.733,-0  5,0  C  27.733,0  47.083,8.997  68.485,26.634  C  89.887,44.271  107.716,88.767  107.716,88.767  C  107.716,88.767  127.31,135.797  145.04,157.123  C  162.77,178.449  205.431,206.3  205.431,206.3  L  142.5,675  C  142.5,675  111.875,678  81.25,678  C  65.827,677.471  50.625,676.845  50.625,676.845  L  30.625,676.845  C  10.302,676.009  0,675  0,675  L  -20,675  C  -20,675  -50.625,672  -81.25,672  C  -111.875,672  -142.5,675  -142.5,675  z " />
<path transform="translate( 0, 0 )" style="stroke: hsl(215.2, 55%, 50%);" id="1667"  d=" M  -205.431,206.3  C  -205.431,206.3  -167.111,165.017  -150.122,143.097  C  -133.133,121.177  -102.716,73.767  -102.716,73.767  C  -102.716,73.767  -82.634,40.877  -60.108,24.7  C  -37.582,8.523  -27.733,-0  5,0  C  27.733,0  47.083,8.997  68.485,26.634  C  89.887,44.271  107.716,88.767  107.716,88.767  C  107.716,88.767  127.31,135.797  145.04,157.123  C  162.77,178.449  205.431,206.3  205.431,206.3  L  142.5,675  C  142.5,675  111.875,678  81.25,678  C  65.827,677.471  50.625,676.845  50.625,676.845  L  30.625,676.845  C  10.302,676.009  0,675  0,675  L  -20,675  C  -20,675  -50.625,672  -81.25,672  C  -111.875,672  -142.5,675  -142.5,675  z " />
<path transform="translate( 0, 0 )" style="stroke: hsl(242.1, 55%, 50%);" id="1876"  d=" M  -205.431,206.3  C  -205.431,206.3  -167.111,165.017  -150.122,143.097  C  -133.133,121.177  -102.716,73.767  -102.716,73.767  C  -102.716,73.767  -82.634,40.877  -60.108,24.7  C  -37.582,8.523  -27.733,-0  5,0  C  27.733,0  47.083,8.997  68.485,26.634  C  89.887,44.271  107.716,88.767  107.716,88.767  C  107.716,88.767  127.31,135.797  145.04,157.123  C  162.77,178.449  205.431,206.3  205.431,206.3  L  142.5,675  C  142.5,675  111.875,678  81.25,678  C  65.827,677.471  50.625,676.845  50.625,676.845  L  30.625,676.845  C  10.302,676.009  0,675  0,675  L  -20,675  C  -20,675  -50.625,672  -81.25,672  C  -111.875,672  -142.5,675  -142.5,675  z " />
<path transform="translate( 0, 0 )" style="stroke: hsl(269, 55%, 50%);" id="2085"  d=" M  -205.431,206.3  C  -205.431,206.3  -167.111,165.017  -150.122,143.097  C  -133.133,121.177  -102.716,73.767  -102.716,73.767  C  -102.716,73.767  -82.634,40.877  -60.108,24.7  C  -37.582,8.523  -27.733,-0  5,0  C  27.733,0  47.083,8.997  68.485,26.634  C  89.887,44.271  107.716,88.767  107.716,88.767  C  107.716,88.767  127.31,135.797  145.04,157.123  C  162.77,178.449  205.431,206.3  205.431,206.3  L  142.5,675  C  142.5,675  111.875,678  81.25,678  C  65.827,677.471  50.625,676.845  50.625,676.845  L  30.625,676.845  C  10.302,676.009  0,675  0,675  L  -20,675  C  -20,675  -50.625,672  -81.25,672  C  -111.875,672  -142.5,675  -142.5,675  z " />
<path transform="translate( 0, 0 )" style="stroke: hsl(295.9, 55%, 50%);" id="2294"  d=" M  -205.431,206.3  C  -205.431,206.3  -167.111,165.017  -150.122,143.097  C  -133.133,121.177  -102.716,73.767  -102.716,73.767  C  -102.716,73.767  -82.634,40.877  -60.108,24.7  C  -37.582,8.523  -27.733,-0  5,0  C  27.733,0  47.083,8.997  68.485,26.634  C  89.887,44.271  107.716,88.767  107.716,88.767  C  107.716,88.767  127.31,135.797  145.04,157.123  C  162.77,178.449  205.431,206.3  205.431,206.3  L  142.5,675  C  142.5,675  111.875,678  81.25,678  C  65.827,677.471  50.625,676.845  50.625,676.845  L  30.625,676.845  C  10.302,676.009  0,675  0,675  L  -20,675  C  -20,675  -50.625,672  -81.25,672  C  -111.875,672  -142.5,675  -142.5,675  z " />
    </g>
    <!-- End of group #sleeve -->
    
    <!-- Start of group #collarStand -->
    <g id="collarStand"  transform=" translate(244.958 10)  translate(0 845) " >
        <path class="hidden" id="7"  d=" M  -239.958,-5  L  247.43,-5  L  247.43,35  L  -239.958,35  z " />
<path transform="translate( 0, 0 )" style="stroke: hsl(26.9, 55%, 50%);" id="205"  d=" M  0,30  C  83.379,30  125.068,35  156.335,35  C  198.025,35  200.01,33.305  209.972,32.433  L  227.406,30.908  C  225.88,13.474  224.355,-3.959  206.922,-2.433  C  196.96,-1.561  198.025,0  156.335,0  C  125.068,0  83.379,-5  0,-5  C  -83.379,-5  -125.068,0  -156.335,0  C  -198.025,0  -196.96,-1.561  -206.922,-2.433  C  -216.884,-3.305  -218.409,14.128  -219.934,31.562  L  -209.972,32.433  C  -200.01,33.305  -198.025,35  -156.335,35  C  -125.068,35  -83.379,30  0,30  z " />
<path transform="translate( 0, 0 )" style="stroke: hsl(53.8, 55%, 50%);" id="414"  d=" M  0,30  C  84.205,30  126.307,35  157.884,35  C  199.986,35  202.075,33.305  212.037,32.433  L  229.471,30.908  C  227.945,13.474  226.42,-3.959  208.987,-2.433  C  199.025,-1.561  199.986,0  157.884,0  C  126.307,0  84.205,-5  0,-5  C  -84.205,-5  -126.307,0  -157.884,0  C  -199.986,0  -199.025,-1.561  -208.987,-2.433  C  -218.949,-3.305  -220.474,14.128  -221.999,31.562  L  -212.037,32.433  C  -202.075,33.305  -199.986,35  -157.884,35  C  -126.307,35  -84.205,30  0,30  z " />
<path transform="translate( 0, 0 )" style="stroke: hsl(80.7, 55%, 50%);" id="623"  d=" M  0,30  C  84.999,30  127.499,35  159.374,35  C  201.873,35  204.061,33.305  214.023,32.433  L  231.457,30.908  C  229.931,13.474  228.406,-3.959  210.973,-2.433  C  201.011,-1.561  201.873,0  159.374,0  C  127.499,0  84.999,-5  0,-5  C  -84.999,-5  -127.499,0  -159.374,0  C  -201.873,0  -201.011,-1.561  -210.973,-2.433  C  -220.935,-3.305  -222.46,14.128  -223.985,31.562  L  -214.023,32.433  C  -204.061,33.305  -201.873,35  -159.374,35  C  -127.499,35  -84.999,30  0,30  z " />
<path transform="translate( 0, 0 )" style="stroke: hsl(107.6, 55%, 50%);" id="832"  d=" M  0,30  C  85.794,30  128.69,35  160.863,35  C  203.76,35  206.047,33.305  216.009,32.433  L  233.443,30.908  C  231.917,13.474  230.392,-3.959  212.959,-2.433  C  202.997,-1.561  203.76,0  160.863,0  C  128.69,0  85.794,-5  0,-5  C  -85.794,-5  -128.69,0  -160.863,0  C  -203.76,0  -202.997,-1.561  -212.959,-2.433  C  -222.921,-3.305  -224.446,14.128  -225.971,31.562  L  -216.009,32.433  C  -206.047,33.305  -203.76,35  -160.863,35  C  -128.69,35  -85.794,30  0,30  z " />
<path transform="translate( 0, 0 )" style="stroke: hsl(134.5, 55%, 50%);" id="1041"  d=" M  0,30  C  86.588,30  129.882,35  162.353,35  C  205.647,35  208.033,33.305  217.995,32.433  L  235.429,30.908  C  233.903,13.474  232.378,-3.959  214.945,-2.433  C  204.983,-1.561  205.647,0  162.353,0  C  129.882,0  86.588,-5  0,-5  C  -86.588,-5  -129.882,0  -162.353,0  C  -205.647,0  -204.983,-1.561  -214.945,-2.433  C  -224.907,-3.305  -226.432,14.128  -227.957,31.562  L  -217.995,32.433  C  -208.033,33.305  -205.647,35  -162.353,35  C  -129.882,35  -86.588,30  0,30  z " />
<path transform="translate( 0, 0 )" style="stroke: hsl(161.4, 55%, 50%);" id="1250"  d=" M  0,30  C  87.382,30  131.074,35  163.842,35  C  207.533,35  210.019,33.305  219.981,32.433  L  237.415,30.908  C  235.889,13.474  234.364,-3.959  216.931,-2.433  C  206.969,-1.561  207.533,0  163.842,0  C  131.074,0  87.382,-5  0,-5  C  -87.382,-5  -131.074,0  -163.842,0  C  -207.533,0  -206.969,-1.561  -216.931,-2.433  C  -226.893,-3.305  -228.418,14.128  -229.943,31.562  L  -219.981,32.433  C  -210.019,33.305  -207.533,35  -163.842,35  C  -131.074,35  -87.382,30  0,30  z " />
<path transform="translate( 0, 0 )" style="stroke: hsl(188.3, 55%, 50%);" id="1459"  d=" M  0,30  C  88.177,30  132.265,35  165.332,35  C  209.42,35  212.005,33.305  221.967,32.433  L  239.401,30.908  C  237.875,13.474  236.35,-3.959  218.917,-2.433  C  208.955,-1.561  209.42,0  165.332,0  C  132.265,0  88.177,-5  0,-5  C  -88.177,-5  -132.265,0  -165.332,0  C  -209.42,0  -208.955,-1.561  -218.917,-2.433  C  -228.879,-3.305  -230.404,14.128  -231.929,31.562  L  -221.967,32.433  C  -212.005,33.305  -209.42,35  -165.332,35  C  -132.265,35  -88.177,30  0,30  z " />
<path transform="translate( 0, 0 )" style="stroke: hsl(215.2, 55%, 50%);" id="1668"  d=" M  0,30  C  89.004,30  133.507,35  166.883,35  C  211.385,35  214.074,33.305  224.036,32.433  L  241.47,30.908  C  239.944,13.474  238.419,-3.959  220.986,-2.433  C  211.024,-1.561  211.385,0  166.883,0  C  133.507,0  89.004,-5  0,-5  C  -89.004,-5  -133.507,0  -166.883,0  C  -211.385,0  -211.024,-1.561  -220.986,-2.433  C  -230.948,-3.305  -232.473,14.128  -233.998,31.562  L  -224.036,32.433  C  -214.074,33.305  -211.385,35  -166.883,35  C  -133.507,35  -89.004,30  0,30  z " />
<path transform="translate( 0, 0 )" style="stroke: hsl(242.1, 55%, 50%);" id="1877"  d=" M  0,30  C  89.799,30  134.699,35  168.374,35  C  213.273,35  216.061,33.305  226.023,32.433  L  243.457,30.908  C  241.931,13.474  240.406,-3.959  222.973,-2.433  C  213.011,-1.561  213.273,0  168.374,0  C  134.699,0  89.799,-5  0,-5  C  -89.799,-5  -134.699,0  -168.374,0  C  -213.273,0  -213.011,-1.561  -222.973,-2.433  C  -232.935,-3.305  -234.46,14.128  -235.985,31.562  L  -226.023,32.433  C  -216.061,33.305  -213.273,35  -168.374,35  C  -134.699,35  -89.799,30  0,30  z " />
<path transform="translate( 0, 0 )" style="stroke: hsl(269, 55%, 50%);" id="2086"  d=" M  0,30  C  90.594,30  135.891,35  169.864,35  C  215.161,35  218.048,33.305  228.01,32.433  L  245.444,30.908  C  243.918,13.474  242.393,-3.959  224.96,-2.433  C  214.998,-1.561  215.161,0  169.864,0  C  135.891,0  90.594,-5  0,-5  C  -90.594,-5  -135.891,0  -169.864,0  C  -215.161,0  -214.998,-1.561  -224.96,-2.433  C  -234.922,-3.305  -236.447,14.128  -237.972,31.562  L  -228.01,32.433  C  -218.048,33.305  -215.161,35  -169.864,35  C  -135.891,35  -90.594,30  0,30  z " />
<path transform="translate( 0, 0 )" style="stroke: hsl(295.9, 55%, 50%);" id="2295"  d=" M  0,30  C  91.388,30  137.083,35  171.353,35  C  217.047,35  220.034,33.305  229.996,32.433  L  247.43,30.908  C  245.904,13.474  244.379,-3.959  226.946,-2.433  C  216.984,-1.561  217.047,0  171.353,0  C  137.083,0  91.388,-5  0,-5  C  -91.388,-5  -137.083,0  -171.353,0  C  -217.047,0  -216.984,-1.561  -226.946,-2.433  C  -236.908,-3.305  -238.433,14.128  -239.958,31.562  L  -229.996,32.433  C  -220.034,33.305  -217.047,35  -171.353,35  C  -137.083,35  -91.388,30  0,30  z " />
    </g>
    <!-- End of group #collarStand -->
    
    <!-- Start of group #collar -->
    <g id="collar"  transform=" translate(227.177 72)  translate(480 895) " >
        <path class="hidden" id="8"  d=" M  -222.177,-67  L  222.177,-67  L  222.177,0  L  -222.177,0  z " />
<path transform="translate( 0, 0 )" style="stroke: hsl(26.9, 55%, 50%);" id="206"  d=" M  0,-15  C  167.135,-15  196.419,0  196.419,0  L  202.28,-67  C  202.28,-67  146.243,-57  101.14,-57  L  -101.14,-57  C  -146.243,-57  -202.28,-67  -202.28,-67  L  -196.419,0  C  -196.419,0  -167.135,-15  0,-15  z " />
<path transform="translate( 0, 0 )" style="stroke: hsl(53.8, 55%, 50%);" id="415"  d=" M  0,-15  C  168.726,-15  198.408,0  198.408,0  L  204.269,-67  C  204.269,-67  147.636,-57  102.135,-57  L  -102.135,-57  C  -147.636,-57  -204.269,-67  -204.269,-67  L  -198.408,0  C  -198.408,0  -168.726,-15  0,-15  z " />
<path transform="translate( 0, 0 )" style="stroke: hsl(80.7, 55%, 50%);" id="624"  d=" M  0,-15  C  170.318,-15  200.398,0  200.398,0  L  206.259,-67  C  206.259,-67  149.029,-57  103.13,-57  L  -103.13,-57  C  -149.029,-57  -206.259,-67  -206.259,-67  L  -200.398,0  C  -200.398,0  -170.318,-15  0,-15  z " />
<path transform="translate( 0, 0 )" style="stroke: hsl(107.6, 55%, 50%);" id="833"  d=" M  0,-15  C  171.91,-15  202.388,0  202.388,0  L  208.249,-67  C  208.249,-67  150.422,-57  104.125,-57  L  -104.125,-57  C  -150.422,-57  -208.249,-67  -208.249,-67  L  -202.388,0  C  -202.388,0  -171.91,-15  0,-15  z " />
<path transform="translate( 0, 0 )" style="stroke: hsl(134.5, 55%, 50%);" id="1042"  d=" M  0,-15  C  173.502,-15  204.377,0  204.377,0  L  210.238,-67  C  210.238,-67  151.814,-57  105.119,-57  L  -105.119,-57  C  -151.814,-57  -210.238,-67  -210.238,-67  L  -204.377,0  C  -204.377,0  -173.502,-15  0,-15  z " />
<path transform="translate( 0, 0 )" style="stroke: hsl(161.4, 55%, 50%);" id="1251"  d=" M  0,-15  C  175.094,-15  206.367,0  206.367,0  L  212.228,-67  C  212.228,-67  153.207,-57  106.114,-57  L  -106.114,-57  C  -153.207,-57  -212.228,-67  -212.228,-67  L  -206.367,0  C  -206.367,0  -175.094,-15  0,-15  z " />
<path transform="translate( 0, 0 )" style="stroke: hsl(188.3, 55%, 50%);" id="1460"  d=" M  0,-15  C  176.686,-15  208.357,0  208.357,0  L  214.218,-67  C  214.218,-67  154.6,-57  107.109,-57  L  -107.109,-57  C  -154.6,-57  -214.218,-67  -214.218,-67  L  -208.357,0  C  -208.357,0  -176.686,-15  0,-15  z " />
<path transform="translate( 0, 0 )" style="stroke: hsl(215.2, 55%, 50%);" id="1669"  d=" M  0,-15  C  178.277,-15  210.346,0  210.346,0  L  216.207,-67  C  216.207,-67  155.992,-57  108.104,-57  L  -108.104,-57  C  -155.992,-57  -216.207,-67  -216.207,-67  L  -210.346,0  C  -210.346,0  -178.277,-15  0,-15  z " />
<path transform="translate( 0, 0 )" style="stroke: hsl(242.1, 55%, 50%);" id="1878"  d=" M  0,-15  C  179.869,-15  212.336,0  212.336,0  L  218.197,-67  C  218.197,-67  157.385,-57  109.099,-57  L  -109.099,-57  C  -157.385,-57  -218.197,-67  -218.197,-67  L  -212.336,0  C  -212.336,0  -179.869,-15  0,-15  z " />
<path transform="translate( 0, 0 )" style="stroke: hsl(269, 55%, 50%);" id="2087"  d=" M  0,-15  C  181.461,-15  214.326,0  214.326,0  L  220.187,-67  C  220.187,-67  158.778,-57  110.094,-57  L  -110.094,-57  C  -158.778,-57  -220.187,-67  -220.187,-67  L  -214.326,0  C  -214.326,0  -181.461,-15  0,-15  z " />
<path transform="translate( 0, 0 )" style="stroke: hsl(295.9, 55%, 50%);" id="2296"  d=" M  0,-15  C  183.053,-15  216.316,0  216.316,0  L  222.177,-67  C  222.177,-67  160.171,-57  111.089,-57  L  -111.089,-57  C  -160.171,-57  -222.177,-67  -222.177,-67  L  -216.316,0  C  -216.316,0  -183.053,-15  0,-15  z " />
    </g>
    <!-- End of group #collar -->
    
    <!-- Start of group #undercollar -->
    <g id="undercollar"  transform=" translate(227.177 72)  translate(934.354 895) " >
        <path class="hidden" id="9"  d=" M  -222.177,-67  L  222.177,-67  L  222.177,0  L  -222.177,0  z " />
<path transform="translate( 0, 0 )" style="stroke: hsl(26.9, 55%, 50%);" id="207"  d=" M  196.419,0  L  202.28,-67  C  202.28,-67  146.243,-57  101.14,-57  L  -101.14,-57  C  -146.243,-57  -202.28,-67  -202.28,-67  L  -196.419,0  C  -196.419,0  -167.135,-17  0,-18  C  167.135,-17  196.419,0  196.419,0  z " />
<path transform="translate( 0, 0 )" style="stroke: hsl(53.8, 55%, 50%);" id="416"  d=" M  198.408,0  L  204.269,-67  C  204.269,-67  147.636,-57  102.135,-57  L  -102.135,-57  C  -147.636,-57  -204.269,-67  -204.269,-67  L  -198.408,0  C  -198.408,0  -168.726,-17  0,-18  C  168.726,-17  198.408,0  198.408,0  z " />
<path transform="translate( 0, 0 )" style="stroke: hsl(80.7, 55%, 50%);" id="625"  d=" M  200.398,0  L  206.259,-67  C  206.259,-67  149.029,-57  103.13,-57  L  -103.13,-57  C  -149.029,-57  -206.259,-67  -206.259,-67  L  -200.398,0  C  -200.398,0  -170.318,-17  0,-18  C  170.318,-17  200.398,0  200.398,0  z " />
<path transform="translate( 0, 0 )" style="stroke: hsl(107.6, 55%, 50%);" id="834"  d=" M  202.388,0  L  208.249,-67  C  208.249,-67  150.422,-57  104.125,-57  L  -104.125,-57  C  -150.422,-57  -208.249,-67  -208.249,-67  L  -202.388,0  C  -202.388,0  -171.91,-17  0,-18  C  171.91,-17  202.388,0  202.388,0  z " />
<path transform="translate( 0, 0 )" style="stroke: hsl(134.5, 55%, 50%);" id="1043"  d=" M  204.377,0  L  210.238,-67  C  210.238,-67  151.814,-57  105.119,-57  L  -105.119,-57  C  -151.814,-57  -210.238,-67  -210.238,-67  L  -204.377,0  C  -204.377,0  -173.502,-17  0,-18  C  173.502,-17  204.377,0  204.377,0  z " />
<path transform="translate( 0, 0 )" style="stroke: hsl(161.4, 55%, 50%);" id="1252"  d=" M  206.367,0  L  212.228,-67  C  212.228,-67  153.207,-57  106.114,-57  L  -106.114,-57  C  -153.207,-57  -212.228,-67  -212.228,-67  L  -206.367,0  C  -206.367,0  -175.094,-17  0,-18  C  175.094,-17  206.367,0  206.367,0  z " />
<path transform="translate( 0, 0 )" style="stroke: hsl(188.3, 55%, 50%);" id="1461"  d=" M  208.357,0  L  214.218,-67  C  214.218,-67  154.6,-57  107.109,-57  L  -107.109,-57  C  -154.6,-57  -214.218,-67  -214.218,-67  L  -208.357,0  C  -208.357,0  -176.686,-17  0,-18  C  176.686,-17  208.357,0  208.357,0  z " />
<path transform="translate( 0, 0 )" style="stroke: hsl(215.2, 55%, 50%);" id="1670"  d=" M  210.346,0  L  216.207,-67  C  216.207,-67  155.992,-57  108.104,-57  L  -108.104,-57  C  -155.992,-57  -216.207,-67  -216.207,-67  L  -210.346,0  C  -210.346,0  -178.277,-17  0,-18  C  178.277,-17  210.346,0  210.346,0  z " />
<path transform="translate( 0, 0 )" style="stroke: hsl(242.1, 55%, 50%);" id="1879"  d=" M  212.336,0  L  218.197,-67  C  218.197,-67  157.385,-57  109.099,-57  L  -109.099,-57  C  -157.385,-57  -218.197,-67  -218.197,-67  L  -212.336,0  C  -212.336,0  -179.869,-17  0,-18  C  179.869,-17  212.336,0  212.336,0  z " />
<path transform="translate( 0, 0 )" style="stroke: hsl(269, 55%, 50%);" id="2088"  d=" M  214.326,0  L  220.187,-67  C  220.187,-67  158.778,-57  110.094,-57  L  -110.094,-57  C  -158.778,-57  -220.187,-67  -220.187,-67  L  -214.326,0  C  -214.326,0  -181.461,-17  0,-18  C  181.461,-17  214.326,0  214.326,0  z " />
<path transform="translate( 0, 0 )" style="stroke: hsl(295.9, 55%, 50%);" id="2297"  d=" M  216.316,0  L  222.177,-67  C  222.177,-67  160.171,-57  111.089,-57  L  -111.089,-57  C  -160.171,-57  -222.177,-67  -222.177,-67  L  -216.316,0  C  -216.316,0  -183.053,-17  0,-18  C  183.053,-17  216.316,0  216.316,0  z " />
    </g>
    <!-- End of group #undercollar -->
    
    <!-- Start of group #sleevePlacketUnderlap -->
    <g id="sleevePlacketUnderlap"  transform=" translate(5 5)  translate(757.5 692.75) " >
        <path class="hidden" id="10"  d=" M  0,0  L  188.75,0  L  188.75,36  L  0,36  z " />
<path transform="translate( 0, 0 )" style="stroke: hsl(26.9, 55%, 50%);" id="208"  d=" M  0,0  L  188.75,0  L  188.75,36  L  0,36  z " />
<path transform="translate( 0, 0 )" style="stroke: hsl(53.8, 55%, 50%);" id="417"  d=" M  0,0  L  188.75,0  L  188.75,36  L  0,36  z " />
<path transform="translate( 0, 0 )" style="stroke: hsl(80.7, 55%, 50%);" id="626"  d=" M  0,0  L  188.75,0  L  188.75,36  L  0,36  z " />
<path transform="translate( 0, 0 )" style="stroke: hsl(107.6, 55%, 50%);" id="835"  d=" M  0,0  L  188.75,0  L  188.75,36  L  0,36  z " />
<path transform="translate( 0, 0 )" style="stroke: hsl(134.5, 55%, 50%);" id="1044"  d=" M  0,0  L  188.75,0  L  188.75,36  L  0,36  z " />
<path transform="translate( 0, 0 )" style="stroke: hsl(161.4, 55%, 50%);" id="1253"  d=" M  0,0  L  188.75,0  L  188.75,36  L  0,36  z " />
<path transform="translate( 0, 0 )" style="stroke: hsl(188.3, 55%, 50%);" id="1462"  d=" M  0,0  L  188.75,0  L  188.75,36  L  0,36  z " />
<path transform="translate( 0, 0 )" style="stroke: hsl(215.2, 55%, 50%);" id="1671"  d=" M  0,0  L  188.75,0  L  188.75,36  L  0,36  z " />
<path transform="translate( 0, 0 )" style="stroke: hsl(242.1, 55%, 50%);" id="1880"  d=" M  0,0  L  188.75,0  L  188.75,36  L  0,36  z " />
<path transform="translate( 0, 0 )" style="stroke: hsl(269, 55%, 50%);" id="2089"  d=" M  0,0  L  188.75,0  L  188.75,36  L  0,36  z " />
<path transform="translate( 0, 0 )" style="stroke: hsl(295.9, 55%, 50%);" id="2298"  d=" M  0,0  L  188.75,0  L  188.75,36  L  0,36  z " />
    </g>
    <!-- End of group #sleevePlacketUnderlap -->
    
    <!-- Start of group #sleevePlacketOverlap -->
    <g id="sleevePlacketOverlap"  transform=" translate(5 5)  translate(1077.5 763) " >
        <path class="hidden" id="11"  d=" M  0,0  L  235,0  L  235,68  L  0,68  z " />
<path transform="translate( 0, 0 )" style="stroke: hsl(26.9, 55%, 50%);" id="209"  d=" M  0,0  L  235,0  L  235,41.333  L  216.25,41.333  L  211.25,49.667  L  198.75,49.667  L  198.75,68  L  0,68  z " />
<path transform="translate( 0, 0 )" style="stroke: hsl(53.8, 55%, 50%);" id="418"  d=" M  0,0  L  235,0  L  235,41.333  L  216.25,41.333  L  211.25,49.667  L  198.75,49.667  L  198.75,68  L  0,68  z " />
<path transform="translate( 0, 0 )" style="stroke: hsl(80.7, 55%, 50%);" id="627"  d=" M  0,0  L  235,0  L  235,41.333  L  216.25,41.333  L  211.25,49.667  L  198.75,49.667  L  198.75,68  L  0,68  z " />
<path transform="translate( 0, 0 )" style="stroke: hsl(107.6, 55%, 50%);" id="836"  d=" M  0,0  L  235,0  L  235,41.333  L  216.25,41.333  L  211.25,49.667  L  198.75,49.667  L  198.75,68  L  0,68  z " />
<path transform="translate( 0, 0 )" style="stroke: hsl(134.5, 55%, 50%);" id="1045"  d=" M  0,0  L  235,0  L  235,41.333  L  216.25,41.333  L  211.25,49.667  L  198.75,49.667  L  198.75,68  L  0,68  z " />
<path transform="translate( 0, 0 )" style="stroke: hsl(161.4, 55%, 50%);" id="1254"  d=" M  0,0  L  235,0  L  235,41.333  L  216.25,41.333  L  211.25,49.667  L  198.75,49.667  L  198.75,68  L  0,68  z " />
<path transform="translate( 0, 0 )" style="stroke: hsl(188.3, 55%, 50%);" id="1463"  d=" M  0,0  L  235,0  L  235,41.333  L  216.25,41.333  L  211.25,49.667  L  198.75,49.667  L  198.75,68  L  0,68  z " />
<path transform="translate( 0, 0 )" style="stroke: hsl(215.2, 55%, 50%);" id="1672"  d=" M  0,0  L  235,0  L  235,41.333  L  216.25,41.333  L  211.25,49.667  L  198.75,49.667  L  198.75,68  L  0,68  z " />
<path transform="translate( 0, 0 )" style="stroke: hsl(242.1, 55%, 50%);" id="1881"  d=" M  0,0  L  235,0  L  235,41.333  L  216.25,41.333  L  211.25,49.667  L  198.75,49.667  L  198.75,68  L  0,68  z " />
<path transform="translate( 0, 0 )" style="stroke: hsl(269, 55%, 50%);" id="2090"  d=" M  0,0  L  235,0  L  235,41.333  L  216.25,41.333  L  211.25,49.667  L  198.75,49.667  L  198.75,68  L  0,68  z " />
<path transform="translate( 0, 0 )" style="stroke: hsl(295.9, 55%, 50%);" id="2299"  d=" M  0,0  L  235,0  L  235,41.333  L  216.25,41.333  L  211.25,49.667  L  198.75,49.667  L  198.75,68  L  0,68  z " />
    </g>
    <!-- End of group #sleevePlacketOverlap -->
    
    <!-- Start of group #barrelCuff -->
    <g id="barrelCuff"  transform=" translate(127.5 5)  translate(1077.5 688) " >
        <path class="hidden" id="12"  d=" M  -122.5,0  L  122.5,0  L  122.5,65  L  -122.5,65  z " />
<path transform="translate( 0, 0 )" style="stroke: hsl(26.9, 55%, 50%);" id="210"  d=" M  0,0  L  106.25,-0  L  122.5,16.25  L  122.5,65  L  -122.5,65  L  -122.5,16.25  L  -106.25,0  z " />
<path transform="translate( 0, 0 )" style="stroke: hsl(53.8, 55%, 50%);" id="419"  d=" M  0,0  L  106.25,-0  L  122.5,16.25  L  122.5,65  L  -122.5,65  L  -122.5,16.25  L  -106.25,0  z " />
<path transform="translate( 0, 0 )" style="stroke: hsl(80.7, 55%, 50%);" id="628"  d=" M  0,0  L  106.25,-0  L  122.5,16.25  L  122.5,65  L  -122.5,65  L  -122.5,16.25  L  -106.25,0  z " />
<path transform="translate( 0, 0 )" style="stroke: hsl(107.6, 55%, 50%);" id="837"  d=" M  0,0  L  106.25,-0  L  122.5,16.25  L  122.5,65  L  -122.5,65  L  -122.5,16.25  L  -106.25,0  z " />
<path transform="translate( 0, 0 )" style="stroke: hsl(134.5, 55%, 50%);" id="1046"  d=" M  0,0  L  106.25,-0  L  122.5,16.25  L  122.5,65  L  -122.5,65  L  -122.5,16.25  L  -106.25,0  z " />
<path transform="translate( 0, 0 )" style="stroke: hsl(161.4, 55%, 50%);" id="1255"  d=" M  0,0  L  106.25,-0  L  122.5,16.25  L  122.5,65  L  -122.5,65  L  -122.5,16.25  L  -106.25,0  z " />
<path transform="translate( 0, 0 )" style="stroke: hsl(188.3, 55%, 50%);" id="1464"  d=" M  0,0  L  106.25,-0  L  122.5,16.25  L  122.5,65  L  -122.5,65  L  -122.5,16.25  L  -106.25,0  z " />
<path transform="translate( 0, 0 )" style="stroke: hsl(215.2, 55%, 50%);" id="1673"  d=" M  0,0  L  106.25,-0  L  122.5,16.25  L  122.5,65  L  -122.5,65  L  -122.5,16.25  L  -106.25,0  z " />
<path transform="translate( 0, 0 )" style="stroke: hsl(242.1, 55%, 50%);" id="1882"  d=" M  0,0  L  106.25,-0  L  122.5,16.25  L  122.5,65  L  -122.5,65  L  -122.5,16.25  L  -106.25,0  z " />
<path transform="translate( 0, 0 )" style="stroke: hsl(269, 55%, 50%);" id="2091"  d=" M  0,0  L  106.25,-0  L  122.5,16.25  L  122.5,65  L  -122.5,65  L  -122.5,16.25  L  -106.25,0  z " />
<path transform="translate( 0, 0 )" style="stroke: hsl(295.9, 55%, 50%);" id="2300"  d=" M  0,0  L  106.25,-0  L  122.5,16.25  L  122.5,65  L  -122.5,65  L  -122.5,16.25  L  -106.25,0  z " />
    </g>
    <!-- End of group #barrelCuff -->
    
    <!-- Start of group #frenchCuff -->
    <g id="frenchCuff" >
    </g>
    <!-- End of group #frenchCuff -->
    
    <!-- Start of group #sampler-frontRight -->
    <g id="sampler-frontRight" >
    </g>
    <!-- End of group #sampler-frontRight -->
    
    <!-- Start of group #sampler-frontLeft -->
    <g id="sampler-frontLeft" >
    </g>
    <!-- End of group #sampler-frontLeft -->
    
    <!-- Start of group #sampler-yoke -->
    <g id="sampler-yoke" >
    </g>
    <!-- End of group #sampler-yoke -->
    
    <!-- Start of group #sampler-back -->
    <g id="sampler-back" >
    </g>
    <!-- End of group #sampler-back -->
    
    <!-- Start of group #sampler-sleeve -->
    <g id="sampler-sleeve" >
    </g>
    <!-- End of group #sampler-sleeve -->
    
    <!-- Start of group #sampler-collarStand -->
    <g id="sampler-collarStand" >
    </g>
    <!-- End of group #sampler-collarStand -->
    
    <!-- Start of group #sampler-collar -->
    <g id="sampler-collar" >
    </g>
    <!-- End of group #sampler-collar -->
    
    <!-- Start of group #sampler-undercollar -->
    <g id="sampler-undercollar" >
    </g>
    <!-- End of group #sampler-undercollar -->
    
    <!-- Start of group #sampler-sleevePlacketUnderlap -->
    <g id="sampler-sleevePlacketUnderlap" >
    </g>
    <!-- End of group #sampler-sleevePlacketUnderlap -->
    
    <!-- Start of group #sampler-sleevePlacketOverlap -->
    <g id="sampler-sleevePlacketOverlap" >
    </g>
    <!-- End of group #sampler-sleevePlacketOverlap -->
    
    <!-- Start of group #sampler-barrelCuff -->
    <g id="sampler-barrelCuff" >
    </g>
    <!-- End of group #sampler-barrelCuff -->
</g>
<!-- End of group #patternContainer -->

</svg>

