<?xml version="1.0" encoding="UTF-8" standalone="no"?>
<!-- Created with Inkscape (http://www.inkscape.org/) -->

<svg
   xmlns:svg="http://www.w3.org/2000/svg"
   xmlns="http://www.w3.org/2000/svg"
   version="1.1"
   width="1000"
   height="650"
   id="svg4180">
  <defs
     id="defs4182">
    <marker
       refX="0"
       refY="0"
       orient="auto"
       id="Arrow1Mend"
       style="overflow:visible">
      <path
         d="M 0,0 5,-5 -12.5,0 5,5 0,0 z"
         transform="matrix(-0.4,0,0,-0.4,-4,0)"
         id="path4844"
         style="fill-rule:evenodd;stroke:#000000;stroke-width:1pt;marker-start:none" />
    </marker>
    <marker
       refX="0"
       refY="0"
       orient="auto"
       id="Arrow1Mstart"
       style="overflow:visible">
      <path
         d="M 0,0 5,-5 -12.5,0 5,5 0,0 z"
         transform="matrix(0.4,0,0,0.4,4,0)"
         id="path4841"
         style="fill-rule:evenodd;stroke:#000000;stroke-width:1pt;marker-start:none" />
    </marker>
    <marker
       refX="0"
       refY="0"
       orient="auto"
       id="Arrow1Mstartz"
       style="overflow:visible">
      <path
         d="M 0,0 5,-5 -12.5,0 5,5 0,0 z"
         transform="matrix(0.4,0,0,0.4,4,0)"
         id="path5479"
         style="fill:#ff5b77;fill-rule:evenodd;stroke:#ff5b77;stroke-width:1pt;marker-start:none" />
    </marker>
    <marker
       refX="0"
       refY="0"
       orient="auto"
       id="Arrow1Mends"
       style="overflow:visible">
      <path
         d="M 0,0 5,-5 -12.5,0 5,5 0,0 z"
         transform="matrix(-0.4,0,0,-0.4,-4,0)"
         id="path5482"
         style="fill:#ff5b77;fill-rule:evenodd;stroke:#ff5b77;stroke-width:1pt;marker-start:none" />
    </marker>
    <marker
       refX="0"
       refY="0"
       orient="auto"
       id="Arrow1Mstartz-9"
       style="overflow:visible">
      <path
         d="M 0,0 5,-5 -12.5,0 5,5 0,0 z"
         transform="matrix(0.4,0,0,0.4,4,0)"
         id="path5479-7"
         style="fill:#ff5b77;fill-rule:evenodd;stroke:#ff5b77;stroke-width:1pt;marker-start:none" />
    </marker>
    <marker
       refX="0"
       refY="0"
       orient="auto"
       id="Arrow1Mends-9"
       style="overflow:visible">
      <path
         d="M 0,0 5,-5 -12.5,0 5,5 0,0 z"
         transform="matrix(-0.4,0,0,-0.4,-4,0)"
         id="path5482-4"
         style="fill:#ff5b77;fill-rule:evenodd;stroke:#ff5b77;stroke-width:1pt;marker-start:none" />
    </marker>
  </defs>
  <g
     transform="translate(0,-402.362)"
     id="layer1">
    <g
       transform="matrix(2.54596,0,0,2.54596,-827.098,75.4813)"
       id="g5893" />
    <g
       transform="matrix(2.6244,0,0,2.6244,-875.141,53.3955)"
       id="g6512">
      <g
         id="g6514">
        <g
           transform="matrix(-1,0,0,1,1221.97,0)"
           id="g6520">
          <g
             transform="matrix(-0.99828,0,0,0.99828,1402.5,-0.553957)"
             id="g3773">
            <g
               id="g3869" />
          </g>
          <g
             transform="matrix(-0.99828,0,0,0.99828,1214.66,-0.553957)"
             id="g8460">
            <g
               id="g8462">
              <rect
                 width="38.8701"
                 height="209.258"
                 x="593.181"
                 y="153.906"
                 id="rect8464"
                 style="fill:#86739c;stroke:#000000;stroke-width:1;stroke-linecap:round;stroke-linejoin:round;stroke-miterlimit:4;stroke-opacity:1;stroke-dasharray:none;stroke-dashoffset:0" />
              <path
                 d="M 610.993,154.668 610.993,362.774"
                 id="path8466"
                 style="fill:#86739c;fill-opacity:1;stroke:#000000;stroke-width:0.5;stroke-linecap:round;stroke-linejoin:round;stroke-miterlimit:4;stroke-opacity:1;stroke-dasharray:none;stroke-dashoffset:0" />
              <g
                 transform="matrix(-1,0,0,1,1221.97,0)"
                 id="g8468">
                <path
                   d="M 638.304,159.416 667.232,170.755 C 659.593,189.972 657.36,211.512 660.179,224.059 657.19,233.211 656.108,254.365 655.983,269.951 655.73,301.264 661.964,366.38 661.964,366.38 661.964,366.38 634.823,366.642 625.961,366.894 613.521,367.249 611.518,342.413 611.518,321.915 611.518,321.915 610.773,286.982 613.616,265.099 621.094,263.589 638.304,159.416 638.304,159.416 z"
                   id="path8470"
                   style="fill:#653f95;fill-opacity:1;stroke:#000000;stroke-width:1;stroke-linecap:round;stroke-linejoin:round;stroke-miterlimit:4;stroke-opacity:1;stroke-dasharray:none;stroke-dashoffset:0" />
                <path
                   d="M 667.048,170.733 C 671.516,171.281 673.51,185.231 677.954,205.031 686.658,243.819 686.734,308.343 691.875,347.362 L 671.423,349.594 C 666.953,309.641 661.714,269.37 658.799,230.038 659.086,228.159 659.658,226.084 660.172,224.126 657.638,212.505 659.189,190.817 667.048,170.733 z"
                   id="path8472"
                   style="fill:#653f95;fill-opacity:1;stroke:#000000;stroke-width:1;stroke-linecap:round;stroke-linejoin:round;stroke-miterlimit:4;stroke-opacity:1;stroke-dasharray:none;stroke-dashoffset:0" />
                <path
                   d="M 642.457,242.725 C 640.965,260.691 641.262,278.21 642.457,295.505"
                   id="path8474"
                   style="fill:#653f95;fill-opacity:0.301653;stroke:#000000;stroke-width:0.5;stroke-linecap:round;stroke-linejoin:round;stroke-miterlimit:4;stroke-opacity:1;stroke-dasharray:none;stroke-dashoffset:0" />
                <path
                   d="M 659.882,225.047 674.151,349.17"
                   id="path8476"
                   style="fill:#653f95;fill-opacity:0.301653;stroke:#000000;stroke-width:0.5;stroke-linecap:round;stroke-linejoin:round;stroke-miterlimit:4;stroke-opacity:1;stroke-dasharray:none;stroke-dashoffset:0" />
                <path
                   d="M 658.872,217.724 C 647.339,266.302 653.33,316.341 657.357,366.216"
                   id="path8478"
                   style="fill:none;stroke:#000000;stroke-width:0.5;stroke-linecap:round;stroke-linejoin:round;stroke-miterlimit:4;stroke-opacity:1;stroke-dasharray:none;stroke-dashoffset:0" />
                <path
                   d="M 658.556,329.677 644.038,329.677 C 640.714,329.677 638.038,327.001 638.038,323.677 L 638.038,293.359 656.599,293.359"
                   id="path8480"
                   style="fill:#653f95;fill-opacity:1;stroke:#000000;stroke-width:1;stroke-linecap:round;stroke-linejoin:round;stroke-miterlimit:4;stroke-opacity:1;stroke-dashoffset:0" />
                <path
                   d="M 638.304,159.416 667.232,170.755 C 659.593,189.972 657.36,211.512 660.179,224.059 657.19,233.211 656.108,254.365 655.983,269.951 655.73,301.264 661.964,366.38 661.964,366.38 661.964,366.38 634.823,366.642 625.961,366.894 613.521,367.249 611.518,342.413 611.518,321.915 611.518,321.915 611.026,285.719 613.869,263.836 621.347,262.326 638.304,159.416 638.304,159.416 z"
                   id="path8482"
                   style="fill:none;stroke:#000000;stroke-width:1;stroke-linecap:round;stroke-linejoin:round;stroke-miterlimit:4;stroke-opacity:1;stroke-dasharray:none;stroke-dashoffset:0" />
                <path
                   d="M 626.518,169.326 644.107,182.451 C 632.508,207.318 624.465,252.018 611.669,269.406 616.016,255.134 617.933,224.821 621.066,207.886 623.391,195.319 626.141,182.728 626.518,169.326 z"
                   id="path8484"
                   style="fill:#653f95;fill-opacity:1;stroke:#000000;stroke-width:1;stroke-linecap:round;stroke-linejoin:round;stroke-miterlimit:4;stroke-opacity:1;stroke-dasharray:none;stroke-dashoffset:0" />
                <path
                   d="M 626.429,149.237 C 635.011,155.305 643.178,161.713 644.821,173.482 L 634.595,175.351 626.518,169.328 626.429,149.237 z"
                   id="path8486"
                   style="fill:#653f95;fill-opacity:1;stroke:#000000;stroke-width:1;stroke-linecap:round;stroke-linejoin:round;stroke-miterlimit:4;stroke-opacity:1;stroke-dasharray:none;stroke-dashoffset:0" />
                <path
                   d="M 691.063,330.804 691.795,333.472"
                   id="path8488"
                   style="fill:none;stroke:#000000;stroke-width:1;stroke-linecap:round;stroke-linejoin:round;stroke-miterlimit:4;stroke-opacity:1;stroke-dasharray:none;stroke-dashoffset:0" />
                <path
                   d="M 691.242,334.152 691.974,336.82"
                   id="path8490"
                   style="fill:none;stroke:#000000;stroke-width:1;stroke-linecap:round;stroke-linejoin:round;stroke-miterlimit:4;stroke-opacity:1;stroke-dasharray:none;stroke-dashoffset:0" />
                <path
                   d="M 691.51,337.5 692.242,340.168"
                   id="path8492"
                   style="fill:none;stroke:#000000;stroke-width:1;stroke-linecap:round;stroke-linejoin:round;stroke-miterlimit:4;stroke-opacity:1;stroke-dasharray:none;stroke-dashoffset:0" />
                <path
                   d="M 691.823,340.804 692.555,343.472"
                   id="path8494"
                   style="fill:none;stroke:#000000;stroke-width:1;stroke-linecap:round;stroke-linejoin:round;stroke-miterlimit:4;stroke-opacity:1;stroke-dasharray:none;stroke-dashoffset:0" />
              </g>
              <path
                 d="M 638.304,159.416 667.232,170.755 C 659.593,189.972 657.36,211.512 660.179,224.059 657.19,233.211 656.108,254.365 655.983,269.951 655.73,301.264 661.964,366.38 661.964,366.38 661.964,366.38 634.823,366.642 625.961,366.894 604.638,358.969 606.931,287.115 608.755,266.551 616.233,265.041 638.304,159.416 638.304,159.416 z"
                 id="path8496"
                 style="fill:#653f95;fill-opacity:1;stroke:#000000;stroke-width:1;stroke-linecap:round;stroke-linejoin:round;stroke-miterlimit:4;stroke-opacity:1;stroke-dasharray:none;stroke-dashoffset:0" />
              <path
                 d="M 667.048,170.733 C 671.516,171.281 673.51,185.231 677.954,205.031 686.658,243.819 686.734,308.343 691.875,347.362 L 671.423,349.594 C 666.953,309.641 661.714,269.37 658.799,230.038 659.086,228.159 659.658,226.084 660.172,224.126 657.638,212.505 659.189,190.817 667.048,170.733 z"
                 id="path8498"
                 style="fill:#653f95;fill-opacity:1;stroke:#000000;stroke-width:1;stroke-linecap:round;stroke-linejoin:round;stroke-miterlimit:4;stroke-opacity:1;stroke-dasharray:none;stroke-dashoffset:0" />
              <rect
                 width="24.004"
                 height="5.82134"
                 x="599.65"
                 y="274.073"
                 transform="matrix(0.99561,-0.093602,0.093602,0.99561,0,0)"
                 id="rect8500"
                 style="fill:#653f95;fill-opacity:0.301653;stroke:#000000;stroke-width:0.987036;stroke-linecap:round;stroke-linejoin:round;stroke-miterlimit:4;stroke-opacity:1;stroke-dasharray:none;stroke-dashoffset:0" />
              <path
                 d="M 642.457,242.725 C 640.965,260.691 641.262,278.21 642.457,295.505"
                 id="path8502"
                 style="fill:#653f95;fill-opacity:0.301653;stroke:#000000;stroke-width:0.5;stroke-linecap:round;stroke-linejoin:round;stroke-miterlimit:4;stroke-opacity:1;stroke-dasharray:none;stroke-dashoffset:0" />
              <path
                 d="M 659.882,225.047 674.151,349.17"
                 id="path8504"
                 style="fill:#653f95;fill-opacity:0.301653;stroke:#000000;stroke-width:0.5;stroke-linecap:round;stroke-linejoin:round;stroke-miterlimit:4;stroke-opacity:1;stroke-dasharray:none;stroke-dashoffset:0" />
              <path
                 d="M 658.872,217.724 C 647.339,266.302 653.33,316.341 657.357,366.216"
                 id="path8506"
                 style="fill:none;stroke:#000000;stroke-width:0.5;stroke-linecap:round;stroke-linejoin:round;stroke-miterlimit:4;stroke-opacity:1;stroke-dasharray:none;stroke-dashoffset:0" />
              <path
                 d="M 658.556,329.677 644.038,329.677 C 640.714,329.677 638.038,327.001 638.038,323.677 L 638.038,293.359 656.599,293.359"
                 id="path8508"
                 style="fill:#653f95;fill-opacity:1;stroke:#000000;stroke-width:1;stroke-linecap:round;stroke-linejoin:round;stroke-miterlimit:4;stroke-opacity:1;stroke-dashoffset:0" />
              <path
                 d="M 638.304,159.416 667.232,170.755 C 659.593,189.972 657.36,211.512 660.179,224.059 657.19,233.211 656.108,254.365 655.983,269.951 655.73,301.264 661.964,366.38 661.964,366.38 661.964,366.38 634.823,366.642 625.961,366.894 604.638,358.969 606.931,287.115 608.755,266.551 616.233,265.041 638.304,159.416 638.304,159.416 z"
                 id="path8510"
                 style="fill:none;stroke:#000000;stroke-width:1;stroke-linecap:round;stroke-linejoin:round;stroke-miterlimit:4;stroke-opacity:1;stroke-dasharray:none;stroke-dashoffset:0" />
              <path
                 d="M 626.518,169.326 644.107,182.451 C 632.508,207.318 621.309,250.123 608.513,267.511 612.86,253.239 617.933,224.821 621.066,207.886 623.391,195.319 626.141,182.728 626.518,169.326 z"
                 id="path8512"
                 style="fill:#653f95;fill-opacity:1;stroke:#000000;stroke-width:1;stroke-linecap:round;stroke-linejoin:round;stroke-miterlimit:4;stroke-opacity:1;stroke-dasharray:none;stroke-dashoffset:0" />
              <path
                 d="M 626.429,149.237 C 635.011,155.305 643.178,161.713 644.821,173.482 L 634.595,175.351 626.518,169.328 626.429,149.237 z"
                 id="path8514"
                 style="fill:#653f95;fill-opacity:1;stroke:#000000;stroke-width:1;stroke-linecap:round;stroke-linejoin:round;stroke-miterlimit:4;stroke-opacity:1;stroke-dasharray:none;stroke-dashoffset:0" />
              <path
                 d="M 691.063,330.804 691.795,333.472"
                 id="path8516"
                 style="fill:none;stroke:#000000;stroke-width:1;stroke-linecap:round;stroke-linejoin:round;stroke-miterlimit:4;stroke-opacity:1;stroke-dasharray:none;stroke-dashoffset:0" />
              <path
                 d="M 691.242,334.152 691.974,336.82"
                 id="path8518"
                 style="fill:none;stroke:#000000;stroke-width:1;stroke-linecap:round;stroke-linejoin:round;stroke-miterlimit:4;stroke-opacity:1;stroke-dasharray:none;stroke-dashoffset:0" />
              <path
                 d="M 691.51,337.5 692.242,340.168"
                 id="path8520"
                 style="fill:none;stroke:#000000;stroke-width:1;stroke-linecap:round;stroke-linejoin:round;stroke-miterlimit:4;stroke-opacity:1;stroke-dasharray:none;stroke-dashoffset:0" />
              <path
                 d="M 691.823,340.804 692.555,343.472"
                 id="path8522"
                 style="fill:none;stroke:#000000;stroke-width:1;stroke-linecap:round;stroke-linejoin:round;stroke-miterlimit:4;stroke-opacity:1;stroke-dasharray:none;stroke-dashoffset:0" />
              <path
                 d="M 626.428,269.326 A 1.96429,1.96429 0 1 1 622.5,269.326 1.96429,1.96429 0 1 1 626.428,269.326 z"
                 transform="translate(-12.4044,-0.591067)"
                 id="path8524"
                 style="fill:none;stroke:#000000;stroke-width:1;stroke-linecap:round;stroke-linejoin:round;stroke-miterlimit:4;stroke-opacity:1;stroke-dasharray:none;stroke-dashoffset:0" />
              <path
                 d="M 610.117,297.921 615.296,297.921"
                 id="path8526"
                 style="fill:none;stroke:#000000;stroke-width:1;stroke-linecap:round;stroke-linejoin:round;stroke-miterlimit:4;stroke-opacity:1;stroke-dasharray:none;stroke-dashoffset:0" />
              <path
                 d="M 595.446,156.972 C 606.275,153.672 616.642,153.516 626.518,156.883 L 626.518,149.326 C 623.332,147.66 618.383,146.514 611.205,146.514 604.922,146.514 598.334,147.739 595.446,149.316 L 595.446,156.972 z"
                 id="path8528"
                 style="fill:#653f95;fill-opacity:1;stroke:#000000;stroke-width:1;stroke-linecap:round;stroke-linejoin:round;stroke-miterlimit:4;stroke-opacity:1;stroke-dasharray:none;stroke-dashoffset:0" />
            </g>
          </g>
          <rect
             width="39.3901"
             height="207.137"
             x="-803.856"
             y="154.848"
             transform="scale(-1,1)"
             id="rect8881"
             style="fill:#86739c;stroke:#000000;stroke-width:0.99828;stroke-linecap:round;stroke-linejoin:round;stroke-miterlimit:4;stroke-opacity:1;stroke-dasharray:none;stroke-dashoffset:0" />
          <path
             d="M 785.488,155.413 785.488,361.596"
             id="path8883"
             style="fill:#86739c;fill-opacity:1;stroke:#000000;stroke-width:0.49914;stroke-linecap:round;stroke-linejoin:round;stroke-miterlimit:4;stroke-opacity:1;stroke-dasharray:none;stroke-dashoffset:0" />
          <path
             d="M 812.768,158.588 841.646,169.907 C 834.021,189.091 831.791,210.594 834.605,223.12 831.622,232.256 830.541,253.374 830.417,268.933 830.164,300.192 836.387,365.196 836.387,365.196 836.387,365.196 809.293,365.457 800.446,365.709 788.028,366.063 786.028,341.27 786.028,320.807 786.028,320.807 785.284,285.934 788.123,264.089 795.588,262.582 812.768,158.588 812.768,158.588 z"
             id="path8887"
             style="fill:#653f95;fill-opacity:1;stroke:#000000;stroke-width:0.99828;stroke-linecap:round;stroke-linejoin:round;stroke-miterlimit:4;stroke-opacity:1;stroke-dasharray:none;stroke-dashoffset:0" />
          <path
             d="M 841.463,169.885 C 845.923,170.432 847.914,184.358 852.35,204.124 861.039,242.846 861.115,307.259 866.247,346.211 L 845.83,348.439 C 841.368,308.554 836.138,268.353 833.228,229.088 833.514,227.213 834.085,225.141 834.599,223.187 832.069,211.586 833.617,189.935 841.463,169.885 z"
             id="path8889"
             style="fill:#653f95;fill-opacity:1;stroke:#000000;stroke-width:0.99828;stroke-linecap:round;stroke-linejoin:round;stroke-miterlimit:4;stroke-opacity:1;stroke-dasharray:none;stroke-dashoffset:0" />
          <path
             d="M 816.914,241.754 C 815.425,259.689 815.721,277.178 816.914,294.443"
             id="path8891"
             style="fill:#653f95;fill-opacity:0.301653;stroke:#000000;stroke-width:0.49914;stroke-linecap:round;stroke-linejoin:round;stroke-miterlimit:4;stroke-opacity:1;stroke-dasharray:none;stroke-dashoffset:0" />
          <path
             d="M 834.309,224.106 848.553,348.015"
             id="path8893"
             style="fill:#653f95;fill-opacity:0.301653;stroke:#000000;stroke-width:0.49914;stroke-linecap:round;stroke-linejoin:round;stroke-miterlimit:4;stroke-opacity:1;stroke-dasharray:none;stroke-dashoffset:0" />
          <path
             d="M 833.301,216.796 C 821.788,265.29 827.768,315.243 831.788,365.032"
             id="path8895"
             style="fill:none;stroke:#000000;stroke-width:0.49914;stroke-linecap:round;stroke-linejoin:round;stroke-miterlimit:4;stroke-opacity:1;stroke-dasharray:none;stroke-dashoffset:0" />
          <path
             d="M 832.985,328.556 818.492,328.556 C 815.174,328.556 812.503,325.885 812.503,322.566 L 812.503,292.3 831.032,292.3"
             id="path8897"
             style="fill:#653f95;fill-opacity:1;stroke:#000000;stroke-width:0.99828;stroke-linecap:round;stroke-linejoin:round;stroke-miterlimit:4;stroke-opacity:1;stroke-dashoffset:0" />
          <path
             d="M 812.768,158.588 841.646,169.907 C 834.021,189.091 831.791,210.594 834.605,223.12 831.622,232.256 830.541,253.374 830.417,268.933 830.164,300.192 836.387,365.196 836.387,365.196 836.387,365.196 809.293,365.457 800.446,365.709 788.028,366.063 786.028,341.27 786.028,320.807 786.028,320.807 785.537,284.674 788.375,262.828 795.84,261.321 812.768,158.588 812.768,158.588 z"
             id="path8899"
             style="fill:none;stroke:#000000;stroke-width:0.99828;stroke-linecap:round;stroke-linejoin:round;stroke-miterlimit:4;stroke-opacity:1;stroke-dasharray:none;stroke-dashoffset:0" />
          <path
             d="M 801.002,168.481 818.561,181.583 C 806.982,206.407 798.953,251.031 786.179,268.389 790.518,254.141 792.432,223.88 795.56,206.974 797.881,194.429 800.626,181.86 801.002,168.481 z"
             id="path8901"
             style="fill:#653f95;fill-opacity:1;stroke:#000000;stroke-width:0.99828;stroke-linecap:round;stroke-linejoin:round;stroke-miterlimit:4;stroke-opacity:1;stroke-dasharray:none;stroke-dashoffset:0" />
          <path
             d="M 865.436,329.681 866.167,332.344"
             id="path8905"
             style="fill:none;stroke:#000000;stroke-width:0.99828;stroke-linecap:round;stroke-linejoin:round;stroke-miterlimit:4;stroke-opacity:1;stroke-dasharray:none;stroke-dashoffset:0" />
          <path
             d="M 865.615,333.023 866.346,335.687"
             id="path8907"
             style="fill:none;stroke:#000000;stroke-width:0.99828;stroke-linecap:round;stroke-linejoin:round;stroke-miterlimit:4;stroke-opacity:1;stroke-dasharray:none;stroke-dashoffset:0" />
          <path
             d="M 865.883,336.366 866.613,339.029"
             id="path8909"
             style="fill:none;stroke:#000000;stroke-width:0.99828;stroke-linecap:round;stroke-linejoin:round;stroke-miterlimit:4;stroke-opacity:1;stroke-dasharray:none;stroke-dashoffset:0" />
          <path
             d="M 866.195,339.664 866.926,342.327"
             id="path8911"
             style="fill:none;stroke:#000000;stroke-width:0.99828;stroke-linecap:round;stroke-linejoin:round;stroke-miterlimit:4;stroke-opacity:1;stroke-dasharray:none;stroke-dashoffset:0" />
          <path
             d="M 758.224,158.588 729.346,169.907 C 736.971,189.091 739.201,210.594 736.387,223.12 739.37,232.256 740.451,253.374 740.575,268.933 740.828,300.192 734.605,365.196 734.605,365.196 734.605,365.196 761.699,365.457 770.546,365.709 791.832,357.798 789.543,286.067 787.722,265.539 780.257,264.031 758.224,158.588 758.224,158.588 z"
             id="path8913"
             style="fill:#653f95;fill-opacity:1;stroke:#000000;stroke-width:0.99828;stroke-linecap:round;stroke-linejoin:round;stroke-miterlimit:4;stroke-opacity:1;stroke-dasharray:none;stroke-dashoffset:0" />
          <path
             d="M 729.529,169.885 C 725.069,170.432 723.078,184.358 718.642,204.124 709.953,242.846 709.877,307.259 704.745,346.211 L 725.162,348.439 C 729.624,308.554 734.854,268.353 737.764,229.088 737.478,227.213 736.907,225.141 736.393,223.187 738.923,211.586 737.375,189.935 729.529,169.885 z"
             id="path8915"
             style="fill:#653f95;fill-opacity:1;stroke:#000000;stroke-width:0.99828;stroke-linecap:round;stroke-linejoin:round;stroke-miterlimit:4;stroke-opacity:1;stroke-dasharray:none;stroke-dashoffset:0" />
          <rect
             width="23.9627"
             height="5.81133"
             x="-790.633"
             y="142.435"
             transform="matrix(-0.99561,-0.093602,-0.093602,0.99561,0,0)"
             id="rect8917"
             style="fill:#653f95;fill-opacity:0.301653;stroke:#000000;stroke-width:0.985339;stroke-linecap:round;stroke-linejoin:round;stroke-miterlimit:4;stroke-opacity:1;stroke-dasharray:none;stroke-dashoffset:0" />
          <path
             d="M 754.078,241.754 C 755.567,259.689 755.271,277.178 754.078,294.443"
             id="path8919"
             style="fill:#653f95;fill-opacity:0.301653;stroke:#000000;stroke-width:0.49914;stroke-linecap:round;stroke-linejoin:round;stroke-miterlimit:4;stroke-opacity:1;stroke-dasharray:none;stroke-dashoffset:0" />
          <path
             d="M 736.683,224.106 722.439,348.015"
             id="path8921"
             style="fill:#653f95;fill-opacity:0.301653;stroke:#000000;stroke-width:0.49914;stroke-linecap:round;stroke-linejoin:round;stroke-miterlimit:4;stroke-opacity:1;stroke-dasharray:none;stroke-dashoffset:0" />
          <path
             d="M 737.691,216.796 C 749.204,265.29 743.224,315.243 739.204,365.032"
             id="path8923"
             style="fill:none;stroke:#000000;stroke-width:0.49914;stroke-linecap:round;stroke-linejoin:round;stroke-miterlimit:4;stroke-opacity:1;stroke-dasharray:none;stroke-dashoffset:0" />
          <path
             d="M 738.007,328.556 752.5,328.556 C 755.818,328.556 758.489,325.885 758.489,322.566 L 758.489,292.3 739.96,292.3"
             id="path8925"
             style="fill:#653f95;fill-opacity:1;stroke:#000000;stroke-width:0.99828;stroke-linecap:round;stroke-linejoin:round;stroke-miterlimit:4;stroke-opacity:1;stroke-dashoffset:0" />
          <path
             d="M 758.224,158.588 729.346,169.907 C 736.971,189.091 739.201,210.594 736.387,223.12 739.37,232.256 740.451,253.374 740.575,268.933 740.828,300.192 734.605,365.196 734.605,365.196 734.605,365.196 761.699,365.457 770.546,365.709 791.832,357.798 789.543,286.067 787.722,265.539 780.257,264.031 758.224,158.588 758.224,158.588 z"
             id="path8927"
             style="fill:none;stroke:#000000;stroke-width:0.99828;stroke-linecap:round;stroke-linejoin:round;stroke-miterlimit:4;stroke-opacity:1;stroke-dasharray:none;stroke-dashoffset:0" />
          <path
             d="M 769.99,168.481 752.431,181.583 C 764.01,206.407 775.19,249.139 787.964,266.497 783.624,252.249 778.56,223.88 775.432,206.974 773.111,194.429 770.366,181.86 769.99,168.481 z"
             id="path8929"
             style="fill:#653f95;fill-opacity:1;stroke:#000000;stroke-width:0.99828;stroke-linecap:round;stroke-linejoin:round;stroke-miterlimit:4;stroke-opacity:1;stroke-dasharray:none;stroke-dashoffset:0" />
          <path
             d="M 770.078,148.426 C 761.292,153.532 752.684,160.68 751.857,175.95 L 757.914,177.677 769.99,168.483 770.078,148.426 z"
             id="path8931"
             style="fill:#653f95;fill-opacity:1;stroke:#000000;stroke-width:0.99828;stroke-linecap:round;stroke-linejoin:round;stroke-miterlimit:4;stroke-opacity:1;stroke-dasharray:none;stroke-dashoffset:0" />
          <path
             d="M 705.556,329.681 704.825,332.344"
             id="path8933"
             style="fill:none;stroke:#000000;stroke-width:0.99828;stroke-linecap:round;stroke-linejoin:round;stroke-miterlimit:4;stroke-opacity:1;stroke-dasharray:none;stroke-dashoffset:0" />
          <path
             d="M 705.377,333.023 704.646,335.687"
             id="path8935"
             style="fill:none;stroke:#000000;stroke-width:0.99828;stroke-linecap:round;stroke-linejoin:round;stroke-miterlimit:4;stroke-opacity:1;stroke-dasharray:none;stroke-dashoffset:0" />
          <path
             d="M 705.109,336.366 704.379,339.029"
             id="path8937"
             style="fill:none;stroke:#000000;stroke-width:0.99828;stroke-linecap:round;stroke-linejoin:round;stroke-miterlimit:4;stroke-opacity:1;stroke-dasharray:none;stroke-dashoffset:0" />
          <path
             d="M 704.797,339.664 704.066,342.327"
             id="path8939"
             style="fill:none;stroke:#000000;stroke-width:0.99828;stroke-linecap:round;stroke-linejoin:round;stroke-miterlimit:4;stroke-opacity:1;stroke-dasharray:none;stroke-dashoffset:0" />
          <path
             d="M 626.428,269.326 A 1.96429,1.96429 0 1 1 622.5,269.326 1.96429,1.96429 0 1 1 626.428,269.326 z"
             transform="matrix(-0.99828,0,0,0.99828,1407.81,-1.14401)"
             id="path8941"
             style="fill:none;stroke:#000000;stroke-width:1;stroke-linecap:round;stroke-linejoin:round;stroke-miterlimit:4;stroke-opacity:1;stroke-dasharray:none;stroke-dashoffset:0" />
          <path
             d="M 786.362,296.855 781.192,296.855"
             id="path8943"
             style="fill:none;stroke:#000000;stroke-width:0.99828;stroke-linecap:round;stroke-linejoin:round;stroke-miterlimit:4;stroke-opacity:1;stroke-dasharray:none;stroke-dashoffset:0" />
          <path
             d="M 801.008,159.957 C 790.198,156.663 779.849,156.507 769.99,159.869 L 769.99,148.515 C 773.17,146.852 778.111,145.708 785.276,145.708 791.548,145.708 798.125,146.931 801.008,148.505 L 801.008,159.957 z"
             id="path8945"
             style="fill:#653f95;fill-opacity:1;stroke:#000000;stroke-width:0.99828;stroke-linecap:round;stroke-linejoin:round;stroke-miterlimit:4;stroke-opacity:1;stroke-dasharray:none;stroke-dashoffset:0" />
          <path
             d="M 800.829,148.426 C 809.616,153.532 818.223,160.68 819.05,175.95 L 812.993,177.677 800.918,168.483 800.829,148.426 z"
             id="path8968"
             style="fill:#653f95;fill-opacity:1;stroke:#000000;stroke-width:0.99828;stroke-linecap:round;stroke-linejoin:round;stroke-miterlimit:4;stroke-opacity:1;stroke-dasharray:none;stroke-dashoffset:0" />
        </g>
      </g>
    </g>
  </g>
</svg>
