<?xml version="1.0" encoding="UTF-8" standalone="no"?>
<svg
    width ="3364.8448851051"
    height ="2636.3657505507"
    viewbox ="0 0 3364.8448851051 2636.3657505507" xmlns:dc="http://purl.org/dc/elements/1.1/"
    xmlns:cc="http://creativecommons.org/ns#"
    xmlns:rdf="http://www.w3.org/1999/02/22-rdf-syntax-ns#"
    xmlns:svg="http://www.w3.org/2000/svg"
    xmlns="http://www.w3.org/2000/svg"
    xmlns:xlink="http://www.w3.org/1999/xlink"
    xmlns:sodipodi="http://sodipodi.sourceforge.net/DTD/sodipodi-0.dtd"
    xmlns:inkscape="http://www.inkscape.org/namespaces/inkscape" 
>

<style type="text/css">
    <![CDATA[
    path { fill: none; stroke: #000000; stroke-opacity:1; stroke-width: 0.5; stroke-miterlimit:4; stroke-dashoffset:0; stroke-linecap:round; stroke-linejoin:round; }
    path.hidden { fill: none; stroke: none; }]]>
</style>


<!-- Start of group #patternScaleContainer -->
<g id="patternScaleContainer"  transform=" scale(3.54330709 ) " >
    
    <!-- Start of group #backBlock -->
    <g id="backBlock"  transform=" translate(5 55.25)  translate(662.134 0) " >
        <path class="hidden" id="2"  d=" M  0,-50.25  L  277.5,-50.25  L  277.5,620  L  0,620  z " />
<path transform="translate( 0, 0 )" style="stroke: hsl(26.9, 55%, 50%);" id="8"  d=" M  0,20  L  0,215  L  0,500  L  0,620  L  277.5,620  L  277.5,215  C  264.375,215  254.128,210.003  242.063,197.938  C  229.998,185.873  225,147.5  225,117.5  C  225,87.5  233.176,37.332  235,27.5  L  86.777,0  C  83.129,19.664  0,20  0,20  z " />
<path transform="translate( 0, -5.025 )" style="stroke: hsl(53.8, 55%, 50%);" id="17"  d=" M  0,20  L  0,220.025  L  0,500  L  0,620  L  277.5,620  L  277.5,220.025  C  264.375,220.025  254.386,214.983  242.214,202.811  C  230.042,190.639  225,150.851  225,120.013  C  225,89.175  233.176,37.332  235,27.5  L  86.777,0  C  83.129,19.664  0,20  0,20  z " />
<path transform="translate( 0, -10.05 )" style="stroke: hsl(80.7, 55%, 50%);" id="26"  d=" M  0,20  L  0,225.05  L  0,500  L  0,620  L  277.5,620  L  277.5,225.05  C  264.375,225.05  254.636,219.965  242.361,207.69  C  230.086,195.415  225,154.2  225,122.525  C  225,90.85  233.176,37.332  235,27.5  L  86.777,0  C  83.129,19.664  0,20  0,20  z " />
<path transform="translate( 0, -15.075 )" style="stroke: hsl(107.6, 55%, 50%);" id="35"  d=" M  0,20  L  0,230.075  L  0,500  L  0,620  L  277.5,620  L  277.5,230.075  C  264.375,230.075  254.878,224.949  242.502,212.573  C  230.126,200.197  225,157.551  225,125.038  C  225,92.525  233.176,37.332  235,27.5  L  86.777,0  C  83.129,19.664  0,20  0,20  z " />
<path transform="translate( 0, -20.1 )" style="stroke: hsl(134.5, 55%, 50%);" id="44"  d=" M  0,20  L  0,235.1  L  0,500  L  0,620  L  277.5,620  L  277.5,235.1  C  264.375,235.1  255.113,229.934  242.64,217.461  C  230.167,204.988  225,160.9  225,127.55  C  225,94.2  233.176,37.332  235,27.5  L  86.777,0  C  83.129,19.664  0,20  0,20  z " />
<path transform="translate( 0, -25.125 )" style="stroke: hsl(161.4, 55%, 50%);" id="53"  d=" M  0,20  L  0,240.125  L  0,500  L  0,620  L  277.5,620  L  277.5,240.125  C  264.375,240.125  255.34,234.92  242.773,222.353  C  230.206,209.786  225,164.251  225,130.063  C  225,95.875  233.176,37.332  235,27.5  L  86.777,0  C  83.129,19.664  0,20  0,20  z " />
<path transform="translate( 0, -30.15 )" style="stroke: hsl(188.3, 55%, 50%);" id="62"  d=" M  0,20  L  0,245.15  L  0,500  L  0,620  L  277.5,620  L  277.5,245.15  C  264.375,245.15  255.56,239.907  242.902,227.249  C  230.244,214.591  225,167.6  225,132.575  C  225,97.55  233.176,37.332  235,27.5  L  86.777,0  C  83.129,19.664  0,20  0,20  z " />
<path transform="translate( 0, -35.175 )" style="stroke: hsl(215.2, 55%, 50%);" id="71"  d=" M  0,20  L  0,250.175  L  0,500  L  0,620  L  277.5,620  L  277.5,250.175  C  264.375,250.175  255.773,244.895  243.027,232.149  C  230.281,219.403  225,170.951  225,135.088  C  225,99.225  233.176,37.332  235,27.5  L  86.777,0  C  83.129,19.664  0,20  0,20  z " />
<path transform="translate( 0, -40.2 )" style="stroke: hsl(242.1, 55%, 50%);" id="80"  d=" M  0,20  L  0,255.2  L  0,500  L  0,620  L  277.5,620  L  277.5,255.2  C  264.375,255.2  255.981,249.885  243.148,237.052  C  230.315,224.219  225,174.3  225,137.6  C  225,100.9  233.176,37.332  235,27.5  L  86.777,0  C  83.129,19.664  0,20  0,20  z " />
<path transform="translate( 0, -45.225 )" style="stroke: hsl(269, 55%, 50%);" id="89"  d=" M  0,20  L  0,260.225  L  0,500  L  0,620  L  277.5,620  L  277.5,260.225  C  264.375,260.225  256.182,254.875  243.266,241.959  C  230.35,229.043  225,177.651  225,140.113  C  225,102.575  233.176,37.332  235,27.5  L  86.777,0  C  83.129,19.664  0,20  0,20  z " />
<path transform="translate( 0, -50.25 )" style="stroke: hsl(295.9, 55%, 50%);" id="98"  d=" M  0,20  L  0,265.25  L  0,500  L  0,620  L  277.5,620  L  277.5,265.25  C  264.375,265.25  256.378,259.867  243.381,246.87  C  230.384,233.873  225,181  225,142.625  C  225,104.25  233.176,37.332  235,27.5  L  86.777,0  C  83.129,19.664  0,20  0,20  z " />
    </g>
    <!-- End of group #backBlock -->
    
    <!-- Start of group #frontBlock -->
    <g id="frontBlock"  transform=" translate(5 55.25)  translate(374.634 0) " >
        <path class="hidden" id="3"  d=" M  0,-50.25  L  277.5,-50.25  L  277.5,620  L  0,620  z " />
<path transform="translate( 0, 0 )" style="stroke: hsl(26.9, 55%, 50%);" id="9"  d=" M  0,99  L  0,215  L  0,500  L  0,620  L  277.5,620  L  277.5,215  C  264.375,215  254.128,210.003  242.063,197.938  C  229.998,185.873  220,147.5  220,117.5  C  220,87.5  233.176,37.332  235,27.5  L  86.777,0  C  83.129,19.664  86.777,99  0,99  z " />
<path transform="translate( 0, -5.025 )" style="stroke: hsl(53.8, 55%, 50%);" id="18"  d=" M  0,99  L  0,220.025  L  0,500  L  0,620  L  277.5,620  L  277.5,220.025  C  264.375,220.025  254.386,214.983  242.214,202.811  C  230.042,190.639  220,150.851  220,120.013  C  220,89.175  233.176,37.332  235,27.5  L  86.777,0  C  83.129,19.664  86.777,99  0,99  z " />
<path transform="translate( 0, -10.05 )" style="stroke: hsl(80.7, 55%, 50%);" id="27"  d=" M  0,99  L  0,225.05  L  0,500  L  0,620  L  277.5,620  L  277.5,225.05  C  264.375,225.05  254.636,219.965  242.361,207.69  C  230.086,195.415  220,154.2  220,122.525  C  220,90.85  233.176,37.332  235,27.5  L  86.777,0  C  83.129,19.664  86.777,99  0,99  z " />
<path transform="translate( 0, -15.075 )" style="stroke: hsl(107.6, 55%, 50%);" id="36"  d=" M  0,99  L  0,230.075  L  0,500  L  0,620  L  277.5,620  L  277.5,230.075  C  264.375,230.075  254.878,224.949  242.502,212.573  C  230.126,200.197  220,157.551  220,125.038  C  220,92.525  233.176,37.332  235,27.5  L  86.777,0  C  83.129,19.664  86.777,99  0,99  z " />
<path transform="translate( 0, -20.1 )" style="stroke: hsl(134.5, 55%, 50%);" id="45"  d=" M  0,99  L  0,235.1  L  0,500  L  0,620  L  277.5,620  L  277.5,235.1  C  264.375,235.1  255.113,229.934  242.64,217.461  C  230.167,204.988  220,160.9  220,127.55  C  220,94.2  233.176,37.332  235,27.5  L  86.777,0  C  83.129,19.664  86.777,99  0,99  z " />
<path transform="translate( 0, -25.125 )" style="stroke: hsl(161.4, 55%, 50%);" id="54"  d=" M  0,99  L  0,240.125  L  0,500  L  0,620  L  277.5,620  L  277.5,240.125  C  264.375,240.125  255.34,234.92  242.773,222.353  C  230.206,209.786  220,164.251  220,130.063  C  220,95.875  233.176,37.332  235,27.5  L  86.777,0  C  83.129,19.664  86.777,99  0,99  z " />
<path transform="translate( 0, -30.15 )" style="stroke: hsl(188.3, 55%, 50%);" id="63"  d=" M  0,99  L  0,245.15  L  0,500  L  0,620  L  277.5,620  L  277.5,245.15  C  264.375,245.15  255.56,239.907  242.902,227.249  C  230.244,214.591  220,167.6  220,132.575  C  220,97.55  233.176,37.332  235,27.5  L  86.777,0  C  83.129,19.664  86.777,99  0,99  z " />
<path transform="translate( 0, -35.175 )" style="stroke: hsl(215.2, 55%, 50%);" id="72"  d=" M  0,99  L  0,250.175  L  0,500  L  0,620  L  277.5,620  L  277.5,250.175  C  264.375,250.175  255.773,244.895  243.027,232.149  C  230.281,219.403  220,170.951  220,135.088  C  220,99.225  233.176,37.332  235,27.5  L  86.777,0  C  83.129,19.664  86.777,99  0,99  z " />
<path transform="translate( 0, -40.2 )" style="stroke: hsl(242.1, 55%, 50%);" id="81"  d=" M  0,99  L  0,255.2  L  0,500  L  0,620  L  277.5,620  L  277.5,255.2  C  264.375,255.2  255.981,249.885  243.148,237.052  C  230.315,224.219  220,174.3  220,137.6  C  220,100.9  233.176,37.332  235,27.5  L  86.777,0  C  83.129,19.664  86.777,99  0,99  z " />
<path transform="translate( 0, -45.225 )" style="stroke: hsl(269, 55%, 50%);" id="90"  d=" M  0,99  L  0,260.225  L  0,500  L  0,620  L  277.5,620  L  277.5,260.225  C  264.375,260.225  256.182,254.875  243.266,241.959  C  230.35,229.043  220,177.651  220,140.113  C  220,102.575  233.176,37.332  235,27.5  L  86.777,0  C  83.129,19.664  86.777,99  0,99  z " />
<path transform="translate( 0, -50.25 )" style="stroke: hsl(295.9, 55%, 50%);" id="99"  d=" M  0,99  L  0,265.25  L  0,500  L  0,620  L  277.5,620  L  277.5,265.25  C  264.375,265.25  256.378,259.867  243.381,246.87  C  230.384,233.873  220,181  220,142.625  C  220,104.25  233.176,37.332  235,27.5  L  86.777,0  C  83.129,19.664  86.777,99  0,99  z " />
    </g>
    <!-- End of group #frontBlock -->
    
    <!-- Start of group #sleeveBlock -->
    <g id="sleeveBlock"  transform=" translate(187.317 39.041)  translate(0 0) " >
        <path class="hidden" id="4"  d=" M  -182.317,-34.041  L  182.317,-34.041  L  182.317,700  L  -182.317,700  z " />
<path transform="translate( 0, 0 )" style="stroke: hsl(26.9, 55%, 50%);" id="10"  d=" M  -117.5,700  L  -146.751,140.462  C  -146.751,140.462  -118.845,114.592  -106.212,99.33  C  -93.579,84.068  -73.376,51.821  -73.376,51.821  C  -73.376,51.821  -61.524,25.088  -45.341,13.659  C  -29.158,2.23  -19.812,-0  5,0  C  19.812,0  39.034,3.055  54.11,15.909  C  69.186,28.763  78.376,66.821  78.376,66.821  C  78.376,66.821  88.092,99.329  101.572,113.848  C  115.052,128.367  146.751,140.462  146.751,140.462  L  117.5,700  z " />
<path transform="translate( 0, -2.852 )" style="stroke: hsl(53.8, 55%, 50%);" id="19"  d=" M  -117.5,700  L  -149.731,143.314  C  -149.731,143.314  -121.327,116.807  -108.446,101.229  C  -95.565,85.651  -74.866,52.771  -74.866,52.771  C  -74.866,52.771  -62.597,25.772  -46.075,14.126  C  -29.553,2.48  -20.214,-0  5,0  C  20.214,0  39.401,3.27  54.814,16.349  C  70.227,29.428  79.866,67.771  79.866,67.771  C  79.866,67.771  90.062,100.888  103.787,115.728  C  117.512,130.568  149.731,143.314  149.731,143.314  L  117.5,700  z " />
<path transform="translate( 0, -6.899 )" style="stroke: hsl(80.7, 55%, 50%);" id="28"  d=" M  -117.5,700  L  -153.959,147.361  C  -153.959,147.361  -124.847,119.952  -111.614,103.924  C  -98.381,87.896  -76.98,54.12  -76.98,54.12  C  -76.98,54.12  -64.12,26.743  -47.117,14.789  C  -30.114,2.835  -20.785,-0  5,0  C  20.785,0  39.925,3.578  55.816,16.976  C  71.707,30.374  81.98,69.12  81.98,69.12  C  81.98,69.12  92.859,103.1  106.931,118.397  C  121.003,133.694  153.959,147.361  153.959,147.361  L  117.5,700  z " />
<path transform="translate( 0, -10.237 )" style="stroke: hsl(107.6, 55%, 50%);" id="37"  d=" M  -117.5,700  L  -157.447,150.699  C  -157.447,150.699  -127.751,122.546  -114.228,106.147  C  -100.705,89.748  -78.724,55.233  -78.724,55.233  C  -78.724,55.233  -65.377,27.546  -47.977,15.338  C  -30.577,3.13  -21.255,-0  5,0  C  21.255,0  40.36,3.836  56.644,17.496  C  72.928,31.156  83.724,70.233  83.724,70.233  C  83.724,70.233  95.167,104.927  109.526,120.599  C  123.885,136.271  157.447,150.699  157.447,150.699  L  117.5,700  z " />
<path transform="translate( 0, -13.297 )" style="stroke: hsl(134.5, 55%, 50%);" id="46"  d=" M  -117.5,700  L  -160.644,153.759  C  -160.644,153.759  -130.413,124.924  -116.624,108.185  C  -102.835,91.446  -80.322,56.253  -80.322,56.253  C  -80.322,56.253  -66.53,28.282  -48.766,15.841  C  -31.002,3.4  -21.687,-0  5,0  C  21.687,0  40.758,4.072  57.404,17.973  C  74.05,31.874  85.322,71.253  85.322,71.253  C  85.322,71.253  97.283,106.603  111.905,122.619  C  126.527,138.635  160.644,153.759  160.644,153.759  L  117.5,700  z " />
<path transform="translate( 0, -16.419 )" style="stroke: hsl(161.4, 55%, 50%);" id="55"  d=" M  -117.5,700  L  -163.906,156.881  C  -163.906,156.881  -133.129,127.351  -119.069,110.265  C  -105.009,93.179  -81.953,57.294  -81.953,57.294  C  -81.953,57.294  -67.707,29.031  -49.572,16.353  C  -31.437,3.675  -22.127,-0  5,0  C  22.127,0  41.167,4.315  58.181,18.461  C  75.195,32.607  86.953,72.294  86.953,72.294  C  86.953,72.294  99.445,108.315  114.335,124.682  C  129.225,141.049  163.906,156.881  163.906,156.881  L  117.5,700  z " />
<path transform="translate( 0, -20.479 )" style="stroke: hsl(188.3, 55%, 50%);" id="64"  d=" M  -117.5,700  L  -168.147,160.941  C  -168.147,160.941  -136.661,130.506  -122.248,112.969  C  -107.835,95.432  -84.074,58.647  -84.074,58.647  C  -84.074,58.647  -69.237,30.008  -50.619,17.021  C  -32.001,4.034  -22.7,-0  5,0  C  22.7,0  41.698,4.633  59.193,19.098  C  76.688,33.563  89.074,73.647  89.074,73.647  C  89.074,73.647  102.254,110.54  117.494,127.364  C  132.734,144.188  168.147,160.941  168.147,160.941  L  117.5,700  z " />
<path transform="translate( 0, -23.862 )" style="stroke: hsl(215.2, 55%, 50%);" id="73"  d=" M  -117.5,700  L  -171.682,164.324  C  -171.682,164.324  -139.605,133.136  -124.898,115.223  C  -110.191,97.31  -85.841,59.775  -85.841,59.775  C  -85.841,59.775  -70.513,30.822  -51.493,17.578  C  -32.473,4.334  -23.177,-0  5,0  C  23.177,0  42.144,4.9  60.038,19.63  C  77.932,34.36  90.841,74.775  90.841,74.775  C  90.841,74.775  104.597,112.397  120.128,129.601  C  135.659,146.805  171.682,164.324  171.682,164.324  L  117.5,700  z " />
<path transform="translate( 0, -27.249 )" style="stroke: hsl(242.1, 55%, 50%);" id="82"  d=" M  -117.5,700  L  -175.22,167.711  C  -175.22,167.711  -142.551,135.768  -127.549,117.479  C  -112.547,99.19  -87.61,60.904  -87.61,60.904  C  -87.61,60.904  -71.79,31.638  -52.367,18.136  C  -32.944,4.634  -23.655,-0  5,0  C  23.655,0  42.59,5.168  60.885,20.163  C  79.18,35.158  92.61,75.904  92.61,75.904  C  92.61,75.904  106.942,114.257  122.765,131.841  C  138.588,149.425  175.22,167.711  175.22,167.711  L  117.5,700  z " />
<path transform="translate( 0, -30.654 )" style="stroke: hsl(269, 55%, 50%);" id="91"  d=" M  -117.5,700  L  -178.778,171.116  C  -178.778,171.116  -145.515,138.414  -130.217,119.747  C  -114.919,101.08  -89.389,62.039  -89.389,62.039  C  -89.389,62.039  -73.076,32.458  -53.248,18.697  C  -33.42,4.936  -24.135,-0  5,0  C  24.135,0  43.04,5.441  61.738,20.702  C  80.436,35.963  94.389,77.039  94.389,77.039  C  94.389,77.039  109.302,116.128  125.418,134.094  C  141.534,152.06  178.778,171.116  178.778,171.116  L  117.5,700  z " />
<path transform="translate( 0, -34.041 )" style="stroke: hsl(295.9, 55%, 50%);" id="100"  d=" M  -117.5,700  L  -182.317,174.503  C  -182.317,174.503  -148.462,141.048  -132.869,122.004  C  -117.276,102.96  -91.159,63.168  -91.159,63.168  C  -91.159,63.168  -74.354,33.274  -54.123,19.255  C  -33.892,5.236  -24.613,-0  5,0  C  24.613,0  43.489,5.712  62.588,21.237  C  81.687,36.762  96.159,78.168  96.159,78.168  C  96.159,78.168  111.649,117.99  128.057,136.336  C  144.465,154.682  182.317,174.503  182.317,174.503  L  117.5,700  z " />
    </g>
    <!-- End of group #sleeveBlock -->
    
    <!-- Start of group #sampler-backBlock -->
    <g id="sampler-backBlock"  transform=" translate(0 0)  translate(949.634 0) " >
    </g>
    <!-- End of group #sampler-backBlock -->
    
    <!-- Start of group #sampler-frontBlock -->
    <g id="sampler-frontBlock"  transform=" translate(0 0)  translate(949.634 0) " >
    </g>
    <!-- End of group #sampler-frontBlock -->
    
    <!-- Start of group #sampler-sleeveBlock -->
    <g id="sampler-sleeveBlock"  transform=" translate(0 0)  translate(949.634 0) " >
    </g>
    <!-- End of group #sampler-sleeveBlock -->
</g>
<!-- End of group #patternScaleContainer -->

</svg>

