<?xml version="1.0" encoding="UTF-8" standalone="no"?>
<svg
    width ="3626.8086648829"
    height ="2598.8952780739"
    viewbox ="0 0 3626.8086648829 2598.8952780739" xmlns:dc="http://purl.org/dc/elements/1.1/"
    xmlns:cc="http://creativecommons.org/ns#"
    xmlns:rdf="http://www.w3.org/1999/02/22-rdf-syntax-ns#"
    xmlns:svg="http://www.w3.org/2000/svg"
    xmlns="http://www.w3.org/2000/svg"
    xmlns:xlink="http://www.w3.org/1999/xlink"
    xmlns:sodipodi="http://sodipodi.sourceforge.net/DTD/sodipodi-0.dtd"
    xmlns:inkscape="http://www.inkscape.org/namespaces/inkscape" 
>

<style type="text/css">
    <![CDATA[
    path { fill: none; stroke: #000000; stroke-opacity:1; stroke-width: 0.5; stroke-miterlimit:4; stroke-dashoffset:0; stroke-linecap:round; stroke-linejoin:round; }
    path.hidden { fill: none; stroke: none; }]]>
</style>


<!-- Start of group #patternScaleContainer -->
<g id="patternScaleContainer"  transform=" scale(3.54330709 ) " >
    
    <!-- Start of group #backBlock -->
    <g id="backBlock"  transform=" translate(55 5)  translate(703.566 0) " >
        <path class="hidden" id="2"  d=" M  -50,0  L  260,0  L  260,620  L  -50,620  z " />
<path transform="translate( 0, 0 )" style="stroke: hsl(26.9, 55%, 50%);" id="8"  d=" M  0,20  L  0,248.5  L  0,500  L  0,620  L  260,620  L  260,248.5  C  251.25,248.5  247.868,244.576  238.396,235.104  C  228.924,225.632  225,169.833  225,134.25  C  225,98.667  233.176,37.332  235,27.5  L  86.777,0  C  83.129,19.664  0,20  0,20  z " />
<path transform="translate( -5, 0 )" style="stroke: hsl(53.8, 55%, 50%);" id="17"  d=" M  0,20  L  0,248.5  L  0,500  L  0,620  L  265,620  L  265,248.5  C  255,248.5  250.288,244.161  239.814,233.687  C  229.34,223.213  225,169.833  225,134.25  C  225,98.667  233.176,37.332  235,27.5  L  86.777,0  C  83.129,19.664  0,20  0,20  z " />
<path transform="translate( -10, 0 )" style="stroke: hsl(80.7, 55%, 50%);" id="26"  d=" M  0,20  L  0,248.5  L  0,500  L  0,620  L  270,620  L  270,248.5  C  258.75,248.5  252.556,243.772  241.142,232.358  C  229.728,220.944  225,169.833  225,134.25  C  225,98.667  233.176,37.332  235,27.5  L  86.777,0  C  83.129,19.664  0,20  0,20  z " />
<path transform="translate( -15, 0 )" style="stroke: hsl(107.6, 55%, 50%);" id="35"  d=" M  0,20  L  0,248.5  L  0,500  L  0,620  L  275,620  L  275,248.5  C  262.5,248.5  254.686,243.407  242.39,231.111  C  230.094,218.815  225,169.833  225,134.25  C  225,98.667  233.176,37.332  235,27.5  L  86.777,0  C  83.129,19.664  0,20  0,20  z " />
<path transform="translate( -20, 0 )" style="stroke: hsl(134.5, 55%, 50%);" id="44"  d=" M  0,20  L  0,248.5  L  0,500  L  0,620  L  280,620  L  280,248.5  C  266.25,248.5  256.69,243.063  243.564,229.937  C  230.438,216.811  225,169.833  225,134.25  C  225,98.667  233.176,37.332  235,27.5  L  86.777,0  C  83.129,19.664  0,20  0,20  z " />
<path transform="translate( -25, 0 )" style="stroke: hsl(161.4, 55%, 50%);" id="53"  d=" M  0,20  L  0,248.5  L  0,500  L  0,620  L  285,620  L  285,248.5  C  270,248.5  258.579,242.739  244.67,228.83  C  230.761,214.921  225,169.833  225,134.25  C  225,98.667  233.176,37.332  235,27.5  L  86.777,0  C  83.129,19.664  0,20  0,20  z " />
<path transform="translate( -30, 0 )" style="stroke: hsl(188.3, 55%, 50%);" id="62"  d=" M  0,20  L  0,248.5  L  0,500  L  0,620  L  290,620  L  290,248.5  C  273.75,248.5  260.363,242.433  245.715,227.785  C  231.067,213.137  225,169.833  225,134.25  C  225,98.667  233.176,37.332  235,27.5  L  86.777,0  C  83.129,19.664  0,20  0,20  z " />
<path transform="translate( -35, 0 )" style="stroke: hsl(215.2, 55%, 50%);" id="71"  d=" M  0,20  L  0,248.5  L  0,500  L  0,620  L  295,620  L  295,248.5  C  277.5,248.5  262.049,242.143  246.703,226.797  C  231.357,211.451  225,169.833  225,134.25  C  225,98.667  233.176,37.332  235,27.5  L  86.777,0  C  83.129,19.664  0,20  0,20  z " />
<path transform="translate( -40, 0 )" style="stroke: hsl(242.1, 55%, 50%);" id="80"  d=" M  0,20  L  0,248.5  L  0,500  L  0,620  L  300,620  L  300,248.5  C  281.25,248.5  263.646,241.869  247.639,225.862  C  231.632,209.855  225,169.833  225,134.25  C  225,98.667  233.176,37.332  235,27.5  L  86.777,0  C  83.129,19.664  0,20  0,20  z " />
<path transform="translate( -45, 0 )" style="stroke: hsl(269, 55%, 50%);" id="89"  d=" M  0,20  L  0,248.5  L  0,500  L  0,620  L  305,620  L  305,248.5  C  285,248.5  265.162,241.609  248.527,224.974  C  231.892,208.339  225,169.833  225,134.25  C  225,98.667  233.176,37.332  235,27.5  L  86.777,0  C  83.129,19.664  0,20  0,20  z " />
<path transform="translate( -50, 0 )" style="stroke: hsl(295.9, 55%, 50%);" id="98"  d=" M  0,20  L  0,248.5  L  0,500  L  0,620  L  310,620  L  310,248.5  C  288.75,248.5  266.601,241.362  249.37,224.131  C  232.139,206.9  225,169.833  225,134.25  C  225,98.667  233.176,37.332  235,27.5  L  86.777,0  C  83.129,19.664  0,20  0,20  z " />
    </g>
    <!-- End of group #backBlock -->
    
    <!-- Start of group #frontBlock -->
    <g id="frontBlock"  transform=" translate(55 5)  translate(383.566 0) " >
        <path class="hidden" id="3"  d=" M  -50,0  L  260,0  L  260,620  L  -50,620  z " />
<path transform="translate( 0, 0 )" style="stroke: hsl(26.9, 55%, 50%);" id="9"  d=" M  0,99  L  0,248.5  L  0,500  L  0,620  L  260,620  L  260,248.5  C  251.25,248.5  247.868,244.576  238.396,235.104  C  228.924,225.632  220,169.833  220,134.25  C  220,98.667  233.176,37.332  235,27.5  L  86.777,0  C  83.129,19.664  86.777,99  0,99  z " />
<path transform="translate( -5, 0 )" style="stroke: hsl(53.8, 55%, 50%);" id="18"  d=" M  0,99  L  0,248.5  L  0,500  L  0,620  L  265,620  L  265,248.5  C  255,248.5  250.288,244.161  239.814,233.687  C  229.34,223.213  220,169.833  220,134.25  C  220,98.667  233.176,37.332  235,27.5  L  86.777,0  C  83.129,19.664  86.777,99  0,99  z " />
<path transform="translate( -10, 0 )" style="stroke: hsl(80.7, 55%, 50%);" id="27"  d=" M  0,99  L  0,248.5  L  0,500  L  0,620  L  270,620  L  270,248.5  C  258.75,248.5  252.556,243.772  241.142,232.358  C  229.728,220.944  220,169.833  220,134.25  C  220,98.667  233.176,37.332  235,27.5  L  86.777,0  C  83.129,19.664  86.777,99  0,99  z " />
<path transform="translate( -15, 0 )" style="stroke: hsl(107.6, 55%, 50%);" id="36"  d=" M  0,99  L  0,248.5  L  0,500  L  0,620  L  275,620  L  275,248.5  C  262.5,248.5  254.686,243.407  242.39,231.111  C  230.094,218.815  220,169.833  220,134.25  C  220,98.667  233.176,37.332  235,27.5  L  86.777,0  C  83.129,19.664  86.777,99  0,99  z " />
<path transform="translate( -20, 0 )" style="stroke: hsl(134.5, 55%, 50%);" id="45"  d=" M  0,99  L  0,248.5  L  0,500  L  0,620  L  280,620  L  280,248.5  C  266.25,248.5  256.69,243.063  243.564,229.937  C  230.438,216.811  220,169.833  220,134.25  C  220,98.667  233.176,37.332  235,27.5  L  86.777,0  C  83.129,19.664  86.777,99  0,99  z " />
<path transform="translate( -25, 0 )" style="stroke: hsl(161.4, 55%, 50%);" id="54"  d=" M  0,99  L  0,248.5  L  0,500  L  0,620  L  285,620  L  285,248.5  C  270,248.5  258.579,242.739  244.67,228.83  C  230.761,214.921  220,169.833  220,134.25  C  220,98.667  233.176,37.332  235,27.5  L  86.777,0  C  83.129,19.664  86.777,99  0,99  z " />
<path transform="translate( -30, 0 )" style="stroke: hsl(188.3, 55%, 50%);" id="63"  d=" M  0,99  L  0,248.5  L  0,500  L  0,620  L  290,620  L  290,248.5  C  273.75,248.5  260.363,242.433  245.715,227.785  C  231.067,213.137  220,169.833  220,134.25  C  220,98.667  233.176,37.332  235,27.5  L  86.777,0  C  83.129,19.664  86.777,99  0,99  z " />
<path transform="translate( -35, 0 )" style="stroke: hsl(215.2, 55%, 50%);" id="72"  d=" M  0,99  L  0,248.5  L  0,500  L  0,620  L  295,620  L  295,248.5  C  277.5,248.5  262.049,242.143  246.703,226.797  C  231.357,211.451  220,169.833  220,134.25  C  220,98.667  233.176,37.332  235,27.5  L  86.777,0  C  83.129,19.664  86.777,99  0,99  z " />
<path transform="translate( -40, 0 )" style="stroke: hsl(242.1, 55%, 50%);" id="81"  d=" M  0,99  L  0,248.5  L  0,500  L  0,620  L  300,620  L  300,248.5  C  281.25,248.5  263.646,241.869  247.639,225.862  C  231.632,209.855  220,169.833  220,134.25  C  220,98.667  233.176,37.332  235,27.5  L  86.777,0  C  83.129,19.664  86.777,99  0,99  z " />
<path transform="translate( -45, 0 )" style="stroke: hsl(269, 55%, 50%);" id="90"  d=" M  0,99  L  0,248.5  L  0,500  L  0,620  L  305,620  L  305,248.5  C  285,248.5  265.162,241.609  248.527,224.974  C  231.892,208.339  220,169.833  220,134.25  C  220,98.667  233.176,37.332  235,27.5  L  86.777,0  C  83.129,19.664  86.777,99  0,99  z " />
<path transform="translate( -50, 0 )" style="stroke: hsl(295.9, 55%, 50%);" id="99"  d=" M  0,99  L  0,248.5  L  0,500  L  0,620  L  310,620  L  310,248.5  C  288.75,248.5  266.601,241.362  249.37,224.131  C  232.139,206.9  220,169.833  220,134.25  C  220,98.667  233.176,37.332  235,27.5  L  86.777,0  C  83.129,19.664  86.777,99  0,99  z " />
    </g>
    <!-- End of group #frontBlock -->
    
    <!-- Start of group #sleeveBlock -->
    <g id="sleeveBlock"  transform=" translate(191.783 28.466)  translate(0 0) " >
        <path class="hidden" id="4"  d=" M  -186.783,-23.466  L  186.783,-23.466  L  186.783,700  L  -186.783,700  z " />
<path transform="translate( 0, 0 )" style="stroke: hsl(26.9, 55%, 50%);" id="10"  d=" M  -117.5,700  L  -162.267,155.312  C  -162.267,155.312  -131.765,126.131  -117.841,109.22  C  -103.917,92.309  -81.134,56.771  -81.134,56.771  C  -81.134,56.771  -67.115,28.655  -49.167,16.096  C  -31.219,3.537  -21.906,-0  5,0  C  21.906,0  40.961,4.193  57.79,18.216  C  74.619,32.239  86.134,71.771  86.134,71.771  C  86.134,71.771  98.359,107.455  113.114,123.646  C  127.869,139.837  162.267,155.312  162.267,155.312  L  117.5,700  z " />
<path transform="translate( 0, -2.426 )" style="stroke: hsl(53.8, 55%, 50%);" id="19"  d=" M  -117.5,700  L  -164.801,157.738  C  -164.801,157.738  -133.875,128.017  -119.74,110.836  C  -105.605,93.655  -82.401,57.579  -82.401,57.579  C  -82.401,57.579  -68.03,29.237  -49.793,16.494  C  -31.556,3.751  -22.248,-0  5,0  C  22.248,0  41.279,4.383  58.395,18.596  C  75.511,32.809  87.401,72.579  87.401,72.579  C  87.401,72.579  100.037,108.784  115.001,125.248  C  129.965,141.712  164.801,157.738  164.801,157.738  L  117.5,700  z " />
<path transform="translate( 0, -4.546 )" style="stroke: hsl(80.7, 55%, 50%);" id="28"  d=" M  -117.5,700  L  -167.016,159.858  C  -167.016,159.858  -135.719,129.663  -121.4,112.247  C  -107.081,94.831  -83.508,58.286  -83.508,58.286  C  -83.508,58.286  -68.828,29.748  -50.339,16.843  C  -31.85,3.938  -22.547,-0  5,0  C  22.547,0  41.557,4.548  58.923,18.928  C  76.289,33.308  88.508,73.286  88.508,73.286  C  88.508,73.286  101.505,109.946  116.651,126.648  C  131.797,143.35  167.016,159.858  167.016,159.858  L  117.5,700  z " />
<path transform="translate( 0, -6.371 )" style="stroke: hsl(107.6, 55%, 50%);" id="37"  d=" M  -117.5,700  L  -168.923,161.683  C  -168.923,161.683  -137.308,131.083  -122.83,113.463  C  -108.352,95.843  -84.462,58.894  -84.462,58.894  C  -84.462,58.894  -69.516,30.187  -50.81,17.143  C  -32.104,4.099  -22.805,-0  5,0  C  22.805,0  41.795,4.691  59.378,19.214  C  76.961,33.737  89.462,73.894  89.462,73.894  C  89.462,73.894  102.768,110.947  118.072,127.855  C  133.376,144.763  168.923,161.683  168.923,161.683  L  117.5,700  z " />
<path transform="translate( 0, -9.028 )" style="stroke: hsl(134.5, 55%, 50%);" id="46"  d=" M  -117.5,700  L  -171.699,164.34  C  -171.699,164.34  -139.62,133.147  -124.911,115.233  C  -110.202,97.318  -85.85,59.78  -85.85,59.78  C  -85.85,59.78  -70.519,30.825  -51.497,17.58  C  -32.474,4.334  -23.18,-0  5,0  C  23.18,0  42.146,4.901  60.042,19.632  C  77.939,34.363  90.85,74.78  90.85,74.78  C  90.85,74.78  104.609,112.406  120.141,129.611  C  135.674,146.817  171.699,164.34  171.699,164.34  L  117.5,700  z " />
<path transform="translate( 0, -11.32 )" style="stroke: hsl(161.4, 55%, 50%);" id="55"  d=" M  -117.5,700  L  -174.094,166.632  C  -174.094,166.632  -141.614,134.93  -126.706,116.76  C  -111.798,98.59  -87.047,60.544  -87.047,60.544  C  -87.047,60.544  -71.384,31.378  -52.089,17.958  C  -32.794,4.538  -23.503,-0  5,0  C  23.503,0  42.447,5.083  60.615,19.993  C  78.783,34.903  92.047,75.544  92.047,75.544  C  92.047,75.544  106.196,113.664  121.926,131.127  C  137.656,148.59  174.094,166.632  174.094,166.632  L  117.5,700  z " />
<path transform="translate( 0, -13.805 )" style="stroke: hsl(188.3, 55%, 50%);" id="64"  d=" M  -117.5,700  L  -176.689,169.117  C  -176.689,169.117  -143.775,136.86  -128.651,118.415  C  -113.527,99.97  -88.345,61.372  -88.345,61.372  C  -88.345,61.372  -72.321,31.976  -52.731,18.367  C  -33.141,4.758  -23.853,-0  5,0  C  23.853,0  42.776,5.281  61.237,20.385  C  79.698,35.489  93.345,76.372  93.345,76.372  C  93.345,76.372  107.917,115.029  123.86,132.771  C  139.803,150.513  176.689,169.117  176.689,169.117  L  117.5,700  z " />
<path transform="translate( 0, -16.284 )" style="stroke: hsl(215.2, 55%, 50%);" id="73"  d=" M  -117.5,700  L  -179.279,171.596  C  -179.279,171.596  -145.933,138.788  -130.593,120.067  C  -115.253,101.346  -89.64,62.199  -89.64,62.199  C  -89.64,62.199  -73.256,32.574  -53.371,18.776  C  -33.486,4.978  -24.203,-0  5,0  C  24.203,0  43.103,5.479  61.858,20.777  C  80.613,36.075  94.64,77.199  94.64,77.199  C  94.64,77.199  109.635,116.392  125.792,134.412  C  141.949,152.432  179.279,171.596  179.279,171.596  L  117.5,700  z " />
<path transform="translate( 0, -18.156 )" style="stroke: hsl(242.1, 55%, 50%);" id="82"  d=" M  -117.5,700  L  -181.235,173.468  C  -181.235,173.468  -147.562,140.243  -132.059,121.314  C  -116.556,102.385  -90.618,62.823  -90.618,62.823  C  -90.618,62.823  -73.962,33.025  -53.855,19.085  C  -33.748,5.145  -24.467,-0  5,0  C  24.467,0  43.352,5.629  62.328,21.074  C  81.304,36.519  95.618,77.823  95.618,77.823  C  95.618,77.823  110.932,117.421  127.251,135.651  C  143.57,153.881  181.235,173.468  181.235,173.468  L  117.5,700  z " />
<path transform="translate( 0, -21.377 )" style="stroke: hsl(269, 55%, 50%);" id="91"  d=" M  -117.5,700  L  -184.601,176.689  C  -184.601,176.689  -150.363,142.746  -134.581,123.459  C  -118.799,104.172  -92.301,63.896  -92.301,63.896  C  -92.301,63.896  -75.179,33.8  -54.689,19.615  C  -34.199,5.43  -24.921,-0  5,0  C  24.921,0  43.78,5.887  63.137,21.583  C  82.494,37.279  97.301,78.896  97.301,78.896  C  97.301,78.896  113.165,119.191  129.761,137.782  C  146.357,156.373  184.601,176.689  184.601,176.689  L  117.5,700  z " />
<path transform="translate( 0, -23.466 )" style="stroke: hsl(295.9, 55%, 50%);" id="100"  d=" M  -117.5,700  L  -186.783,178.778  C  -186.783,178.778  -152.182,144.371  -136.218,124.852  C  -120.254,105.333  -93.392,64.593  -93.392,64.593  C  -93.392,64.593  -75.968,34.304  -55.229,19.96  C  -34.49,5.616  -25.216,-0  5,0  C  25.216,0  44.056,6.056  63.661,21.915  C  83.266,37.774  98.392,79.593  98.392,79.593  C  98.392,79.593  114.613,120.341  131.39,139.166  C  148.167,157.991  186.783,178.778  186.783,178.778  L  117.5,700  z " />
    </g>
    <!-- End of group #sleeveBlock -->
    
    <!-- Start of group #sampler-backBlock -->
    <g id="sampler-backBlock"  transform=" translate(0 0)  translate(1023.566 0) " >
    </g>
    <!-- End of group #sampler-backBlock -->
    
    <!-- Start of group #sampler-frontBlock -->
    <g id="sampler-frontBlock"  transform=" translate(0 0)  translate(1023.566 0) " >
    </g>
    <!-- End of group #sampler-frontBlock -->
    
    <!-- Start of group #sampler-sleeveBlock -->
    <g id="sampler-sleeveBlock"  transform=" translate(0 0)  translate(1023.566 0) " >
    </g>
    <!-- End of group #sampler-sleeveBlock -->
</g>
<!-- End of group #patternScaleContainer -->

</svg>

