<?xml version="1.0" encoding="UTF-8" standalone="no"?>
<svg
    width ="1243.7716547318"
    height ="2515.7480339"
    viewbox ="0 0 1243.7716547318 2515.7480339" xmlns:dc="http://purl.org/dc/elements/1.1/"
    xmlns:cc="http://creativecommons.org/ns#"
    xmlns:rdf="http://www.w3.org/1999/02/22-rdf-syntax-ns#"
    xmlns:svg="http://www.w3.org/2000/svg"
    xmlns="http://www.w3.org/2000/svg"
    xmlns:xlink="http://www.w3.org/1999/xlink"
    xmlns:sodipodi="http://sodipodi.sourceforge.net/DTD/sodipodi-0.dtd"
    xmlns:inkscape="http://www.inkscape.org/namespaces/inkscape" 
>

<style type="text/css">
    <![CDATA[
    path { fill: none; stroke: #000000; stroke-opacity:1; stroke-width: 0.5; stroke-miterlimit:4; stroke-dashoffset:0; stroke-linecap:round; stroke-linejoin:round; }
    path.hidden { fill: none; stroke: none; }]]>
</style>

<!-- Start of group #patternScaleContainer -->
<g id="patternScaleContainer"  transform=" scale(3.54330709 ) " >
    
    <!-- Start of group #sleeveBlock -->
    <g id="sleeveBlock"  transform=" translate(175.51 5)  translate(0 0) " >
        <path class="hidden" id="2"  d=" M  -170.51,0  L  170.51,0  L  170.51,700  L  -170.51,700  z " />
<path transform="translate( 0, 0 )" style="stroke: hsl(26.9, 55%, 50%);" id="10"  d=" M  -95,700  L  -170.51,163.202  C  -170.51,163.202  -138.629,132.263  -124.019,114.475  C  -109.409,96.687  -85.255,59.401  -85.255,59.401  C  -85.255,59.401  -70.09,30.553  -51.203,17.394  C  -32.316,4.235  -23.019,-0  5,0  C  23.019,0  41.996,4.812  59.758,19.454  C  77.52,34.096  90.255,74.401  90.255,74.401  C  90.255,74.401  103.82,111.782  119.254,128.86  C  134.688,145.938  170.51,163.202  170.51,163.202  L  95,700  z " />
<path transform="translate( 0, 0 )" style="stroke: hsl(53.8, 55%, 50%);" id="19"  d=" M  -100,700  L  -170.51,163.202  C  -170.51,163.202  -138.629,132.263  -124.019,114.475  C  -109.409,96.687  -85.255,59.401  -85.255,59.401  C  -85.255,59.401  -70.09,30.553  -51.203,17.394  C  -32.316,4.235  -23.019,-0  5,0  C  23.019,0  41.996,4.812  59.758,19.454  C  77.52,34.096  90.255,74.401  90.255,74.401  C  90.255,74.401  103.82,111.782  119.254,128.86  C  134.688,145.938  170.51,163.202  170.51,163.202  L  100,700  z " />
<path transform="translate( 0, 0 )" style="stroke: hsl(80.7, 55%, 50%);" id="28"  d=" M  -105,700  L  -170.51,163.202  C  -170.51,163.202  -138.629,132.263  -124.019,114.475  C  -109.409,96.687  -85.255,59.401  -85.255,59.401  C  -85.255,59.401  -70.09,30.553  -51.203,17.394  C  -32.316,4.235  -23.019,-0  5,0  C  23.019,0  41.996,4.812  59.758,19.454  C  77.52,34.096  90.255,74.401  90.255,74.401  C  90.255,74.401  103.82,111.782  119.254,128.86  C  134.688,145.938  170.51,163.202  170.51,163.202  L  105,700  z " />
<path transform="translate( 0, 0 )" style="stroke: hsl(107.6, 55%, 50%);" id="37"  d=" M  -110,700  L  -170.51,163.202  C  -170.51,163.202  -138.629,132.263  -124.019,114.475  C  -109.409,96.687  -85.255,59.401  -85.255,59.401  C  -85.255,59.401  -70.09,30.553  -51.203,17.394  C  -32.316,4.235  -23.019,-0  5,0  C  23.019,0  41.996,4.812  59.758,19.454  C  77.52,34.096  90.255,74.401  90.255,74.401  C  90.255,74.401  103.82,111.782  119.254,128.86  C  134.688,145.938  170.51,163.202  170.51,163.202  L  110,700  z " />
<path transform="translate( 0, 0 )" style="stroke: hsl(134.5, 55%, 50%);" id="46"  d=" M  -115,700  L  -170.51,163.202  C  -170.51,163.202  -138.629,132.263  -124.019,114.475  C  -109.409,96.687  -85.255,59.401  -85.255,59.401  C  -85.255,59.401  -70.09,30.553  -51.203,17.394  C  -32.316,4.235  -23.019,-0  5,0  C  23.019,0  41.996,4.812  59.758,19.454  C  77.52,34.096  90.255,74.401  90.255,74.401  C  90.255,74.401  103.82,111.782  119.254,128.86  C  134.688,145.938  170.51,163.202  170.51,163.202  L  115,700  z " />
<path transform="translate( 0, 0 )" style="stroke: hsl(161.4, 55%, 50%);" id="55"  d=" M  -120,700  L  -170.51,163.202  C  -170.51,163.202  -138.629,132.263  -124.019,114.475  C  -109.409,96.687  -85.255,59.401  -85.255,59.401  C  -85.255,59.401  -70.09,30.553  -51.203,17.394  C  -32.316,4.235  -23.019,-0  5,0  C  23.019,0  41.996,4.812  59.758,19.454  C  77.52,34.096  90.255,74.401  90.255,74.401  C  90.255,74.401  103.82,111.782  119.254,128.86  C  134.688,145.938  170.51,163.202  170.51,163.202  L  120,700  z " />
<path transform="translate( 0, 0 )" style="stroke: hsl(188.3, 55%, 50%);" id="64"  d=" M  -125,700  L  -170.51,163.202  C  -170.51,163.202  -138.629,132.263  -124.019,114.475  C  -109.409,96.687  -85.255,59.401  -85.255,59.401  C  -85.255,59.401  -70.09,30.553  -51.203,17.394  C  -32.316,4.235  -23.019,-0  5,0  C  23.019,0  41.996,4.812  59.758,19.454  C  77.52,34.096  90.255,74.401  90.255,74.401  C  90.255,74.401  103.82,111.782  119.254,128.86  C  134.688,145.938  170.51,163.202  170.51,163.202  L  125,700  z " />
<path transform="translate( 0, 0 )" style="stroke: hsl(215.2, 55%, 50%);" id="73"  d=" M  -130,700  L  -170.51,163.202  C  -170.51,163.202  -138.629,132.263  -124.019,114.475  C  -109.409,96.687  -85.255,59.401  -85.255,59.401  C  -85.255,59.401  -70.09,30.553  -51.203,17.394  C  -32.316,4.235  -23.019,-0  5,0  C  23.019,0  41.996,4.812  59.758,19.454  C  77.52,34.096  90.255,74.401  90.255,74.401  C  90.255,74.401  103.82,111.782  119.254,128.86  C  134.688,145.938  170.51,163.202  170.51,163.202  L  130,700  z " />
<path transform="translate( 0, 0 )" style="stroke: hsl(242.1, 55%, 50%);" id="82"  d=" M  -135,700  L  -170.51,163.202  C  -170.51,163.202  -138.629,132.263  -124.019,114.475  C  -109.409,96.687  -85.255,59.401  -85.255,59.401  C  -85.255,59.401  -70.09,30.553  -51.203,17.394  C  -32.316,4.235  -23.019,-0  5,0  C  23.019,0  41.996,4.812  59.758,19.454  C  77.52,34.096  90.255,74.401  90.255,74.401  C  90.255,74.401  103.82,111.782  119.254,128.86  C  134.688,145.938  170.51,163.202  170.51,163.202  L  135,700  z " />
<path transform="translate( 0, 0 )" style="stroke: hsl(269, 55%, 50%);" id="91"  d=" M  -140,700  L  -170.51,163.202  C  -170.51,163.202  -138.629,132.263  -124.019,114.475  C  -109.409,96.687  -85.255,59.401  -85.255,59.401  C  -85.255,59.401  -70.09,30.553  -51.203,17.394  C  -32.316,4.235  -23.019,-0  5,0  C  23.019,0  41.996,4.812  59.758,19.454  C  77.52,34.096  90.255,74.401  90.255,74.401  C  90.255,74.401  103.82,111.782  119.254,128.86  C  134.688,145.938  170.51,163.202  170.51,163.202  L  140,700  z " />
<path transform="translate( 0, 0 )" style="stroke: hsl(295.9, 55%, 50%);" id="100"  d=" M  -145,700  L  -170.51,163.202  C  -170.51,163.202  -138.629,132.263  -124.019,114.475  C  -109.409,96.687  -85.255,59.401  -85.255,59.401  C  -85.255,59.401  -70.09,30.553  -51.203,17.394  C  -32.316,4.235  -23.019,-0  5,0  C  23.019,0  41.996,4.812  59.758,19.454  C  77.52,34.096  90.255,74.401  90.255,74.401  C  90.255,74.401  103.82,111.782  119.254,128.86  C  134.688,145.938  170.51,163.202  170.51,163.202  L  145,700  z " />
    </g>
    <!-- End of group #sleeveBlock -->
</g>
<!-- End of group #patternScaleContainer -->

</svg>

