<?xml version="1.0" encoding="UTF-8" standalone="no"?>
<svg
    xmlns="http://www.w3.org/2000/svg"
    xmlns:svg="http://www.w3.org/2000/svg"
    xmlns:xlink="http://www.w3.org/1999/xlink"
    xmlns:freesewing="http://freesewing.org/namespaces/freesewing" viewBox ="0 0 1079 710"
    width ="1079mm"
    height ="710mm"
    freesewing:version ="1.8.0"
    freesewing:origin ="core.she.freesewing.org" 
>

<style type="text/css">
    <![CDATA[
    path { fill: none; stroke: #000000; stroke-opacity:1; stroke-width: 0.5; stroke-miterlimit:4; stroke-dashoffset:0; stroke-linecap:round; stroke-linejoin:round; }
    path.hidden { fill: none; stroke: none; }]]>
</style>


<!-- Start of group #patternContainer -->
<g id="patternContainer" >
    
    <!-- Start of group #backBlock -->
    <g id="backBlock"  transform=" translate(5 5)  translate(478.78 0) " >
        <path class="hidden" id="2"  d=" M  0,0  L  290,0  L  290,620  L  0,620  z " />
<path transform="translate( 0, 0 )" style="stroke: hsl(26.9, 55%, 50%);" id="18"  d=" M  0,20  L  0,290.5  L  0,500  L  0,620  L  290,620  L  290,290.5  C  272.137,290.5  258.455,283.653  241.926,267.124  C  225.397,250.595  218.55,197.833  218.55,155.25  C  218.55,112.667  233.176,37.332  235,27.5  L  86.777,0  C  83.129,19.664  0,20  0,20  z " />
<path transform="translate( 0, 0 )" style="stroke: hsl(53.8, 55%, 50%);" id="38"  d=" M  0,20  L  0,290.5  L  0,500  L  0,620  L  290,620  L  290,290.5  C  272.49,290.5  259.346,283.742  243.032,267.428  C  226.718,251.114  219.96,197.833  219.96,155.25  C  219.96,112.667  233.176,37.332  235,27.5  L  86.777,0  C  83.129,19.664  0,20  0,20  z " />
<path transform="translate( 0, 0 )" style="stroke: hsl(80.7, 55%, 50%);" id="58"  d=" M  0,20  L  0,290.5  L  0,500  L  0,620  L  290,620  L  290,290.5  C  272.842,290.5  260.231,283.833  244.134,267.736  C  228.037,251.639  221.37,197.833  221.37,155.25  C  221.37,112.667  233.176,37.332  235,27.5  L  86.777,0  C  83.129,19.664  0,20  0,20  z " />
<path transform="translate( 0, 0 )" style="stroke: hsl(107.6, 55%, 50%);" id="78"  d=" M  0,20  L  0,290.5  L  0,500  L  0,620  L  290,620  L  290,290.5  C  273.195,290.5  261.106,283.924  245.231,268.049  C  229.356,252.174  222.78,197.833  222.78,155.25  C  222.78,112.667  233.176,37.332  235,27.5  L  86.777,0  C  83.129,19.664  0,20  0,20  z " />
<path transform="translate( 0, 0 )" style="stroke: hsl(134.5, 55%, 50%);" id="98"  d=" M  0,20  L  0,290.5  L  0,500  L  0,620  L  290,620  L  290,290.5  C  273.547,290.5  261.977,284.017  246.325,268.365  C  230.673,252.713  224.19,197.833  224.19,155.25  C  224.19,112.667  233.176,37.332  235,27.5  L  86.777,0  C  83.129,19.664  0,20  0,20  z " />
<path transform="translate( 0, 0 )" style="stroke: hsl(161.4, 55%, 50%);" id="118"  d=" M  0,20  L  0,290.5  L  0,500  L  0,620  L  290,620  L  290,290.5  C  273.9,290.5  262.839,284.111  247.414,268.686  C  231.989,253.261  225.6,197.833  225.6,155.25  C  225.6,112.667  233.176,37.332  235,27.5  L  86.777,0  C  83.129,19.664  0,20  0,20  z " />
<path transform="translate( 0, 0 )" style="stroke: hsl(188.3, 55%, 50%);" id="138"  d=" M  0,20  L  0,290.5  L  0,500  L  0,620  L  290,620  L  290,290.5  C  274.252,290.5  263.692,284.206  248.498,269.012  C  233.304,253.818  227.01,197.833  227.01,155.25  C  227.01,112.667  233.176,37.332  235,27.5  L  86.777,0  C  83.129,19.664  0,20  0,20  z " />
<path transform="translate( 0, 0 )" style="stroke: hsl(215.2, 55%, 50%);" id="158"  d=" M  0,20  L  0,290.5  L  0,500  L  0,620  L  290,620  L  290,290.5  C  274.605,290.5  264.537,284.303  249.577,269.343  C  234.617,254.383  228.42,197.833  228.42,155.25  C  228.42,112.667  233.176,37.332  235,27.5  L  86.777,0  C  83.129,19.664  0,20  0,20  z " />
<path transform="translate( 0, 0 )" style="stroke: hsl(242.1, 55%, 50%);" id="178"  d=" M  0,20  L  0,290.5  L  0,500  L  0,620  L  290,620  L  290,290.5  C  274.957,290.5  265.375,284.401  250.652,269.678  C  235.929,254.955  229.83,197.833  229.83,155.25  C  229.83,112.667  233.176,37.332  235,27.5  L  86.777,0  C  83.129,19.664  0,20  0,20  z " />
<path transform="translate( 0, 0 )" style="stroke: hsl(269, 55%, 50%);" id="198"  d=" M  0,20  L  0,290.5  L  0,500  L  0,620  L  290,620  L  290,290.5  C  275.31,290.5  266.203,284.501  251.721,270.019  C  237.239,255.537  231.24,197.833  231.24,155.25  C  231.24,112.667  233.176,37.332  235,27.5  L  86.777,0  C  83.129,19.664  0,20  0,20  z " />
<path transform="translate( 0, 0 )" style="stroke: hsl(295.9, 55%, 50%);" id="218"  d=" M  0,20  L  0,290.5  L  0,500  L  0,620  L  290,620  L  290,290.5  C  275.662,290.5  267.024,284.602  252.786,270.364  C  238.548,256.126  232.65,197.833  232.65,155.25  C  232.65,112.667  233.176,37.332  235,27.5  L  86.777,0  C  83.129,19.664  0,20  0,20  z " />
    </g>
    <!-- End of group #backBlock -->
    
    <!-- Start of group #frontBlock -->
    <g id="frontBlock"  transform=" translate(5 5)  translate(778.78 0) " >
        <path class="hidden" id="3"  d=" M  0,0  L  290,0  L  290,620  L  0,620  z " />
<path transform="translate( 0, 0 )" style="stroke: hsl(26.9, 55%, 50%);" id="19"  d=" M  0,99  L  0,290.5  L  0,500  L  0,620  L  290,620  L  290,290.5  C  272.137,290.5  258.455,283.653  241.926,267.124  C  225.397,250.595  213.55,197.833  213.55,155.25  C  213.55,112.667  233.176,37.332  235,27.5  L  86.777,0  C  83.129,19.664  86.777,99  0,99  z " />
<path transform="translate( 0, 0 )" style="stroke: hsl(53.8, 55%, 50%);" id="39"  d=" M  0,99  L  0,290.5  L  0,500  L  0,620  L  290,620  L  290,290.5  C  272.49,290.5  259.346,283.742  243.032,267.428  C  226.718,251.114  214.96,197.833  214.96,155.25  C  214.96,112.667  233.176,37.332  235,27.5  L  86.777,0  C  83.129,19.664  86.777,99  0,99  z " />
<path transform="translate( 0, 0 )" style="stroke: hsl(80.7, 55%, 50%);" id="59"  d=" M  0,99  L  0,290.5  L  0,500  L  0,620  L  290,620  L  290,290.5  C  272.842,290.5  260.231,283.833  244.134,267.736  C  228.037,251.639  216.37,197.833  216.37,155.25  C  216.37,112.667  233.176,37.332  235,27.5  L  86.777,0  C  83.129,19.664  86.777,99  0,99  z " />
<path transform="translate( 0, 0 )" style="stroke: hsl(107.6, 55%, 50%);" id="79"  d=" M  0,99  L  0,290.5  L  0,500  L  0,620  L  290,620  L  290,290.5  C  273.195,290.5  261.106,283.924  245.231,268.049  C  229.356,252.174  217.78,197.833  217.78,155.25  C  217.78,112.667  233.176,37.332  235,27.5  L  86.777,0  C  83.129,19.664  86.777,99  0,99  z " />
<path transform="translate( 0, 0 )" style="stroke: hsl(134.5, 55%, 50%);" id="99"  d=" M  0,99  L  0,290.5  L  0,500  L  0,620  L  290,620  L  290,290.5  C  273.547,290.5  261.977,284.017  246.325,268.365  C  230.673,252.713  219.19,197.833  219.19,155.25  C  219.19,112.667  233.176,37.332  235,27.5  L  86.777,0  C  83.129,19.664  86.777,99  0,99  z " />
<path transform="translate( 0, 0 )" style="stroke: hsl(161.4, 55%, 50%);" id="119"  d=" M  0,99  L  0,290.5  L  0,500  L  0,620  L  290,620  L  290,290.5  C  273.9,290.5  262.839,284.111  247.414,268.686  C  231.989,253.261  220.6,197.833  220.6,155.25  C  220.6,112.667  233.176,37.332  235,27.5  L  86.777,0  C  83.129,19.664  86.777,99  0,99  z " />
<path transform="translate( 0, 0 )" style="stroke: hsl(188.3, 55%, 50%);" id="139"  d=" M  0,99  L  0,290.5  L  0,500  L  0,620  L  290,620  L  290,290.5  C  274.252,290.5  263.692,284.206  248.498,269.012  C  233.304,253.818  222.01,197.833  222.01,155.25  C  222.01,112.667  233.176,37.332  235,27.5  L  86.777,0  C  83.129,19.664  86.777,99  0,99  z " />
<path transform="translate( 0, 0 )" style="stroke: hsl(215.2, 55%, 50%);" id="159"  d=" M  0,99  L  0,290.5  L  0,500  L  0,620  L  290,620  L  290,290.5  C  274.605,290.5  264.537,284.303  249.577,269.343  C  234.617,254.383  223.42,197.833  223.42,155.25  C  223.42,112.667  233.176,37.332  235,27.5  L  86.777,0  C  83.129,19.664  86.777,99  0,99  z " />
<path transform="translate( 0, 0 )" style="stroke: hsl(242.1, 55%, 50%);" id="179"  d=" M  0,99  L  0,290.5  L  0,500  L  0,620  L  290,620  L  290,290.5  C  274.957,290.5  265.375,284.401  250.652,269.678  C  235.929,254.955  224.83,197.833  224.83,155.25  C  224.83,112.667  233.176,37.332  235,27.5  L  86.777,0  C  83.129,19.664  86.777,99  0,99  z " />
<path transform="translate( 0, 0 )" style="stroke: hsl(269, 55%, 50%);" id="199"  d=" M  0,99  L  0,290.5  L  0,500  L  0,620  L  290,620  L  290,290.5  C  275.31,290.5  266.203,284.501  251.721,270.019  C  237.239,255.537  226.24,197.833  226.24,155.25  C  226.24,112.667  233.176,37.332  235,27.5  L  86.777,0  C  83.129,19.664  86.777,99  0,99  z " />
<path transform="translate( 0, 0 )" style="stroke: hsl(295.9, 55%, 50%);" id="219"  d=" M  0,99  L  0,290.5  L  0,500  L  0,620  L  290,620  L  290,290.5  C  275.662,290.5  267.024,284.602  252.786,270.364  C  238.548,256.126  227.65,197.833  227.65,155.25  C  227.65,112.667  233.176,37.332  235,27.5  L  86.777,0  C  83.129,19.664  86.777,99  0,99  z " />
    </g>
    <!-- End of group #frontBlock -->
    
    <!-- Start of group #sleeveBlock -->
    <g id="sleeveBlock" >
    </g>
    <!-- End of group #sleeveBlock -->
    
    <!-- Start of group #topsleeveBlock -->
    <g id="topsleeveBlock"  transform=" translate(143.826 5)  translate(0 0) " >
        <path class="hidden" id="4"  d=" M  -138.826,0  L  123.401,0  L  123.401,700  L  -138.826,700  z " />
<path transform="translate( 0, 0 )" style="stroke: hsl(26.9, 55%, 50%);" id="20"  d=" M  59.926,700  L  111.061,410  C  118.731,366.5  123.401,263.075  123.401,197.306  C  123.401,131.537  111.061,65.769  111.061,65.769  C  111.061,65.769  69.413,0  0,0  C  -69.413,0  -101.806,65.769  -111.061,118.384  C  -120.316,170.999  -124.944,197.306  -138.826,197.306  C  -138.826,197.306  -124.73,354.743  -123.401,410  L  -116.755,686.286  z " />
<path transform="translate( 0.831, 0 )" style="stroke: hsl(53.8, 55%, 50%);" id="40"  d=" M  59.095,700  L  110.23,410  C  117.9,366.5  122.478,261.9  122.478,196.425  C  122.478,130.95  110.23,65.475  110.23,65.475  C  110.23,65.475  68.894,0  0,0  C  -68.894,0  -101.044,65.475  -110.23,117.855  C  -119.416,170.235  -124.009,196.425  -137.787,196.425  C  -137.787,196.425  -123.497,354.836  -122.478,410  L  -117.382,685.819  z " />
<path transform="translate( 1.204, 0 )" style="stroke: hsl(80.7, 55%, 50%);" id="60"  d=" M  58.722,700  L  109.857,410  C  117.527,366.5  122.063,261.9  122.063,196.425  C  122.063,130.95  109.857,65.475  109.857,65.475  C  109.857,65.475  68.661,0  0,0  C  -68.661,0  -100.702,65.475  -109.857,117.855  C  -119.012,170.235  -123.589,196.425  -137.321,196.425  C  -137.321,196.425  -122.943,354.878  -122.063,410  L  -117.663,685.609  z " />
<path transform="translate( 1.75, 0 )" style="stroke: hsl(107.6, 55%, 50%);" id="80"  d=" M  58.176,700  L  109.311,410  C  116.981,366.5  121.457,261.423  121.457,196.067  C  121.457,130.711  109.311,65.356  109.311,65.356  C  109.311,65.356  68.319,0  0,0  C  -68.319,0  -100.202,65.356  -109.311,117.64  C  -118.42,169.924  -122.975,196.067  -136.639,196.067  C  -136.639,196.067  -122.134,354.939  -121.457,410  L  -118.074,685.303  z " />
<path transform="translate( 2.287, 0 )" style="stroke: hsl(134.5, 55%, 50%);" id="100"  d=" M  57.639,700  L  108.774,410  C  116.444,366.5  120.86,260.946  120.86,195.709  C  120.86,130.472  108.774,65.236  108.774,65.236  C  108.774,65.236  67.984,0  0,0  C  -67.984,0  -99.709,65.235  -108.774,117.425  C  -117.839,169.615  -122.371,195.709  -135.967,195.709  C  -135.967,195.709  -121.336,354.999  -120.86,410  L  -118.479,685.003  z " />
<path transform="translate( 2.875, 0 )" style="stroke: hsl(161.4, 55%, 50%);" id="120"  d=" M  57.051,700  L  108.186,410  C  115.856,366.5  120.207,260.312  120.207,195.234  C  120.207,130.156  108.186,65.078  108.186,65.078  C  108.186,65.078  67.616,0  0,0  C  -67.616,0  -99.171,65.078  -108.186,117.14  C  -117.201,169.202  -121.709,195.234  -135.232,195.234  C  -135.232,195.234  -120.464,355.066  -120.207,410  L  -118.92,684.674  z " />
<path transform="translate( 3.651, 0 )" style="stroke: hsl(188.3, 55%, 50%);" id="140"  d=" M  56.275,700  L  107.41,410  C  115.08,366.5  119.344,259.15  119.344,194.362  C  119.344,129.574  107.41,64.787  107.41,64.787  C  107.41,64.787  67.131,0  0,0  C  -67.131,0  -98.459,64.787  -107.41,116.617  C  -116.361,168.447  -120.836,194.362  -134.262,194.362  C  -134.262,194.362  -119.312,355.152  -119.344,410  L  -119.502,684.241  z " />
<path transform="translate( 3.982, 0 )" style="stroke: hsl(215.2, 55%, 50%);" id="160"  d=" M  55.944,700  L  107.079,410  C  114.749,366.5  118.977,259.15  118.977,194.362  C  118.977,129.574  107.079,64.787  107.079,64.787  C  107.079,64.787  66.924,0  0,0  C  -66.924,0  -98.156,64.787  -107.079,116.617  C  -116.002,168.447  -120.464,194.362  -133.849,194.362  C  -133.849,194.362  -118.822,355.188  -118.977,410  L  -119.75,684.057  z " />
<path transform="translate( 4.422, 0 )" style="stroke: hsl(242.1, 55%, 50%);" id="180"  d=" M  55.504,700  L  106.639,410  C  114.309,366.5  118.488,258.835  118.488,194.126  C  118.488,129.417  106.639,64.709  106.639,64.709  C  106.639,64.709  66.649,0  0,0  C  -66.649,0  -97.752,64.709  -106.639,116.476  C  -115.526,168.243  -119.969,194.126  -133.299,194.126  C  -133.299,194.126  -118.17,355.238  -118.488,410  L  -120.079,683.813  z " />
<path transform="translate( 4.912, 0 )" style="stroke: hsl(269, 55%, 50%);" id="200"  d=" M  55.014,700  L  106.149,410  C  113.819,366.5  117.943,258.363  117.943,193.772  C  117.943,129.181  106.149,64.591  106.149,64.591  C  106.149,64.591  66.343,0  0,0  C  -66.343,0  -97.303,64.591  -106.149,116.263  C  -114.995,167.935  -119.418,193.772  -132.686,193.772  C  -132.686,193.772  -117.442,355.292  -117.943,410  L  -120.446,683.541  z " />
<path transform="translate( 5.392, 0 )" style="stroke: hsl(295.9, 55%, 50%);" id="220"  d=" M  54.534,700  L  105.669,410  C  113.339,366.5  117.41,257.892  117.41,193.419  C  117.41,128.946  105.669,64.473  105.669,64.473  C  105.669,64.473  66.043,0  0,0  C  -66.043,0  -96.863,64.472  -105.669,116.051  C  -114.475,167.63  -118.878,193.419  -132.086,193.419  C  -132.086,193.419  -116.731,355.345  -117.41,410  L  -120.804,683.275  z " />
    </g>
    <!-- End of group #topsleeveBlock -->
    
    <!-- Start of group #undersleeveBlock -->
    <g id="undersleeveBlock"  transform=" translate(88.296 -59.473)  translate(272.227 0) " >
        <path class="hidden" id="5"  d=" M  -83.296,64.473  L  113.257,64.473  L  113.257,700  L  -83.296,700  z " />
<path transform="translate( 0, 0 )" style="stroke: hsl(26.9, 55%, 50%);" id="21"  d=" M  59.926,700  L  111.061,410  C  118.731,366.5  104.009,262.862  98.721,197.306  C  93.433,131.75  83.296,65.769  83.296,65.769  C  64.942,129.951  -13.883,197.306  -55.531,197.306  L  -83.296,197.306  C  -83.296,197.306  -63.308,354.697  -64.786,410  L  -72.175,686.514  L  59.926,700  z " />
<path transform="translate( 0.831, 0 )" style="stroke: hsl(53.8, 55%, 50%);" id="41"  d=" M  59.095,700  L  110.23,410  C  117.9,366.5  103.203,261.692  97.982,196.425  C  92.761,131.158  82.672,65.475  82.672,65.475  C  64.442,129.379  -13.779,196.425  -55.115,196.425  L  -82.673,196.425  C  -82.673,196.425  -62.534,354.768  -64.301,410  L  -73.137,686.163  L  59.095,700  z " />
<path transform="translate( 1.204, 0 )" style="stroke: hsl(80.7, 55%, 50%);" id="61"  d=" M  58.722,700  L  109.857,410  C  117.527,366.5  102.854,261.693  97.651,196.425  C  92.448,131.157  82.393,65.475  82.393,65.475  C  64.2,129.383  -13.732,196.425  -54.929,196.425  L  -82.393,196.425  C  -82.393,196.425  -62.186,354.799  -64.083,410  L  -73.569,686.005  L  58.722,700  z " />
<path transform="translate( 1.75, 0 )" style="stroke: hsl(107.6, 55%, 50%);" id="81"  d=" M  58.176,700  L  109.311,410  C  116.981,366.5  102.331,261.219  97.165,196.067  C  91.999,130.915  81.983,65.356  81.983,65.356  C  63.871,129.155  -13.664,196.067  -54.655,196.067  L  -81.983,196.067  C  -81.983,196.067  -61.678,354.845  -63.765,410  L  -74.2,685.774  L  58.176,700  z " />
<path transform="translate( 2.287, 0 )" style="stroke: hsl(134.5, 55%, 50%);" id="101"  d=" M  57.639,700  L  108.774,410  C  116.444,366.5  101.818,260.744  96.688,195.709  C  91.558,130.674  81.58,65.236  81.58,65.236  C  63.528,128.921  -13.597,195.709  -54.387,195.709  L  -81.581,195.709  C  -81.581,195.709  -61.178,354.891  -63.452,410  L  -74.82,685.546  L  57.639,700  z " />
<path transform="translate( 2.875, 0 )" style="stroke: hsl(161.4, 55%, 50%);" id="121"  d=" M  57.051,700  L  108.186,410  C  115.856,366.5  101.252,260.113  96.165,195.234  C  91.078,130.355  81.139,65.078  81.139,65.078  C  63.167,128.614  -13.523,195.234  -54.093,195.234  L  -81.14,195.234  C  -81.14,195.234  -60.631,354.94  -63.109,410  L  -75.499,685.297  L  57.051,700  z " />
<path transform="translate( 3.651, 0 )" style="stroke: hsl(188.3, 55%, 50%);" id="141"  d=" M  56.275,700  L  107.41,410  C  115.08,366.5  100.5,258.955  95.476,194.362  C  90.452,129.769  80.557,64.787  80.557,64.787  C  62.714,128.05  -13.426,194.362  -53.705,194.362  L  -80.558,194.362  C  -80.558,194.362  -59.908,355.007  -62.656,410  L  -76.394,684.967  L  56.275,700  z " />
<path transform="translate( 3.982, 0 )" style="stroke: hsl(215.2, 55%, 50%);" id="161"  d=" M  55.944,700  L  107.079,410  C  114.749,366.5  100.19,258.956  95.181,194.362  C  90.172,129.768  80.309,64.787  80.309,64.787  C  62.479,128.048  -13.385,194.362  -53.539,194.362  L  -80.309,194.362  C  -80.309,194.362  -59.601,355.035  -62.463,410  L  -76.775,684.826  L  55.944,700  z " />
<path transform="translate( 4.422, 0 )" style="stroke: hsl(242.1, 55%, 50%);" id="181"  d=" M  55.504,700  L  106.639,410  C  114.309,366.5  99.771,258.643  94.79,194.126  C  89.809,129.609  79.979,64.709  79.979,64.709  C  62.207,127.898  -13.33,194.126  -53.319,194.126  L  -79.979,194.126  C  -79.979,194.126  -59.191,355.072  -62.206,410  L  -77.282,684.638  L  55.504,700  z " />
<path transform="translate( 4.912, 0 )" style="stroke: hsl(269, 55%, 50%);" id="201"  d=" M  55.014,700  L  106.149,410  C  113.819,366.5  99.303,258.173  94.355,193.772  C  89.407,129.371  79.612,64.591  79.612,64.591  C  61.894,127.666  -13.269,193.772  -53.075,193.772  L  -79.612,193.772  C  -79.612,193.772  -58.735,355.114  -61.92,410  L  -77.847,684.43  L  55.014,700  z " />
<path transform="translate( 5.392, 0 )" style="stroke: hsl(295.9, 55%, 50%);" id="221"  d=" M  54.534,700  L  105.669,410  C  113.339,366.5  98.843,257.704  93.928,193.419  C  89.013,129.134  79.252,64.473  79.252,64.473  C  61.607,127.441  -13.209,193.419  -52.835,193.419  L  -79.252,193.419  C  -79.252,193.419  -58.288,355.155  -61.64,410  L  -78.399,684.225  L  54.534,700  z " />
    </g>
    <!-- End of group #undersleeveBlock -->
    
    <!-- Start of group #sampler-backBlock -->
    <g id="sampler-backBlock" >
    </g>
    <!-- End of group #sampler-backBlock -->
    
    <!-- Start of group #sampler-frontBlock -->
    <g id="sampler-frontBlock" >
    </g>
    <!-- End of group #sampler-frontBlock -->
    
    <!-- Start of group #sampler-topsleeveBlock -->
    <g id="sampler-topsleeveBlock" >
    </g>
    <!-- End of group #sampler-topsleeveBlock -->
    
    <!-- Start of group #sampler-undersleeveBlock -->
    <g id="sampler-undersleeveBlock" >
    </g>
    <!-- End of group #sampler-undersleeveBlock -->
</g>
<!-- End of group #patternContainer -->

</svg>

