<?xml version="1.0" encoding="UTF-8" standalone="no"?>
<!-- Created with Inkscape (http://www.inkscape.org/) -->

<svg
   xmlns:dc="http://purl.org/dc/elements/1.1/"
   xmlns:cc="http://creativecommons.org/ns#"
   xmlns:rdf="http://www.w3.org/1999/02/22-rdf-syntax-ns#"
   xmlns:svg="http://www.w3.org/2000/svg"
   xmlns="http://www.w3.org/2000/svg"
   xmlns:sodipodi="http://sodipodi.sourceforge.net/DTD/sodipodi-0.dtd"
   xmlns:inkscape="http://www.inkscape.org/namespaces/inkscape"
   width="1023.8"
   height="546.55"
   id="svg13134"
   version="1.1"
   inkscape:version="0.47 r22583"
   sodipodi:docname="lengthbonus.svg">
  <sodipodi:namedview
     id="base"
     pagecolor="#ffffff"
     bordercolor="#666666"
     borderopacity="1.0"
     inkscape:pageopacity="0.0"
     inkscape:pageshadow="2"
     inkscape:zoom="0.7"
     inkscape:cx="556.377"
     inkscape:cy="282.986"
     inkscape:document-units="px"
     inkscape:current-layer="g14301"
     showgrid="false"
     inkscape:window-width="1832"
     inkscape:window-height="1057"
     inkscape:window-x="-8"
     inkscape:window-y="-8"
     inkscape:window-maximized="0" />
  <defs
     id="defs13136">
    <marker
       style="overflow:visible"
       id="Arrow1Send"
       refX="0"
       refY="0"
       orient="auto"
       inkscape:stockid="Arrow1Send">
      <path
         transform="matrix(-0.2,0,0,-0.2,-1.2,0)"
         style="fill-rule:evenodd;stroke:#000000;stroke-width:1pt;marker-start:none"
         d="M 0,0 5,-5 -12.5,0 5,5 0,0 z"
         id="path4192" />
    </marker>
    <marker
       style="overflow:visible"
       id="Arrow1Sstart"
       refX="0"
       refY="0"
       orient="auto"
       inkscape:stockid="Arrow1Sstart">
      <path
         transform="matrix(0.2,0,0,0.2,1.2,0)"
         style="fill-rule:evenodd;stroke:#000000;stroke-width:1pt;marker-start:none"
         d="M 0,0 5,-5 -12.5,0 5,5 0,0 z"
         id="path4189" />
    </marker>
    <inkscape:perspective
       id="perspective3754"
       inkscape:persp3d-origin="508.165 : 182.187 : 1"
       inkscape:vp_z="1016.33 : 273.281 : 1"
       inkscape:vp_y="0 : 1000 : 0"
       inkscape:vp_x="0 : 273.281 : 1"
       sodipodi:type="inkscape:persp3d" />
    <inkscape:perspective
       sodipodi:type="inkscape:persp3d"
       inkscape:vp_x="0 : 0.5 : 1"
       inkscape:vp_y="0 : 1000 : 0"
       inkscape:vp_z="1 : 0.5 : 1"
       inkscape:persp3d-origin="0.5 : 0.333333 : 1"
       id="perspective7799" />
    <marker
       style="overflow:visible"
       id="Arrow1MstartQR"
       refX="0"
       refY="0"
       orient="auto"
       inkscape:stockid="Arrow1MstartQR">
      <path
         transform="matrix(0.4,0,0,0.4,4,0)"
         style="fill:#ff5b77;fill-rule:evenodd;stroke:#ff5b77;stroke-width:1pt;marker-start:none"
         d="M 0,0 5,-5 -12.5,0 5,5 0,0 z"
         id="path5084" />
    </marker>
    <marker
       inkscape:stockid="Arrow1Mend3"
       orient="auto"
       refY="0"
       refX="0"
       id="Arrow1Mend3"
       style="overflow:visible">
      <path
         id="path5087"
         d="M 0,0 5,-5 -12.5,0 5,5 0,0 z"
         style="fill:#ff5b77;fill-rule:evenodd;stroke:#ff5b77;stroke-width:1pt;marker-start:none"
         transform="matrix(-0.4,0,0,-0.4,-4,0)" />
    </marker>
    <marker
       style="overflow:visible"
       id="Arrow1Sstart6"
       refX="0"
       refY="0"
       orient="auto"
       inkscape:stockid="Arrow1Sstart6">
      <path
         transform="matrix(0.2,0,0,0.2,1.2,0)"
         style="fill:#ff5b77;fill-rule:evenodd;stroke:#ff5b77;stroke-width:1pt;marker-start:none"
         d="M 0,0 5,-5 -12.5,0 5,5 0,0 z"
         id="path8850" />
    </marker>
    <marker
       style="overflow:visible"
       id="Arrow1SendT"
       refX="0"
       refY="0"
       orient="auto"
       inkscape:stockid="Arrow1SendT">
      <path
         transform="matrix(-0.2,0,0,-0.2,-1.2,0)"
         style="fill:#ff5b77;fill-rule:evenodd;stroke:#ff5b77;stroke-width:1pt;marker-start:none"
         d="M 0,0 5,-5 -12.5,0 5,5 0,0 z"
         id="path8853" />
    </marker>
    <inkscape:perspective
       id="perspective7799-9"
       inkscape:persp3d-origin="0.5 : 0.333333 : 1"
       inkscape:vp_z="1 : 0.5 : 1"
       inkscape:vp_y="0 : 1000 : 0"
       inkscape:vp_x="0 : 0.5 : 1"
       sodipodi:type="inkscape:persp3d" />
    <marker
       inkscape:stockid="Arrow1MstartQR"
       orient="auto"
       refY="0"
       refX="0"
       id="Arrow1MstartQR-8"
       style="overflow:visible">
      <path
         id="path5084-5"
         d="M 0,0 5,-5 -12.5,0 5,5 0,0 z"
         style="fill:#ff5b77;fill-rule:evenodd;stroke:#ff5b77;stroke-width:1pt;marker-start:none"
         transform="matrix(0.4,0,0,0.4,4,0)" />
    </marker>
    <marker
       style="overflow:visible"
       id="Arrow1Mend3-9"
       refX="0"
       refY="0"
       orient="auto"
       inkscape:stockid="Arrow1Mend3">
      <path
         transform="matrix(-0.4,0,0,-0.4,-4,0)"
         style="fill:#ff5b77;fill-rule:evenodd;stroke:#ff5b77;stroke-width:1pt;marker-start:none"
         d="M 0,0 5,-5 -12.5,0 5,5 0,0 z"
         id="path5087-2" />
    </marker>
  </defs>
  <g
     transform="translate(-101.463,-456.7)"
     id="layer1"
     inkscape:groupmode="layer"
     inkscape:label="Layer 1">
    <g
       id="g14301">
      <g
         id="g8987">
        <path
           d="M 299.499,458.7 246.561,488.084 C 242.497,509.424 451.961,528.415 458.542,493.865 L 401.601,458.7 C 392.164,468.137 372.055,467.502 350.55,467.502 325.826,467.647 308.804,468.004 299.499,458.7 z"
           id="back"
           sodipodi:nodetypes="cccccc"
           style="fill:#8e8e8e;stroke:#545454;stroke-width:4;stroke-miterlimit:4;stroke-dasharray:none" />
        <path
           id="front"
           d="M 299.499,458.7 193.642,474.299 C 194.373,481.148 192.903,522.525 192.903,550.488 192.903,578.309 190.721,602.176 181.23,617.005 176.119,624.349 194.357,641.655 187.786,641.655 187.786,663.093 186.483,723.755 186.483,809.5 186.483,870.439 184.149,959.068 182.689,974.179 345.243,974.179 378.517,974.179 518.412,974.179 516.952,959.068 514.618,870.439 514.618,809.5 514.618,723.755 513.315,663.093 513.315,641.655 506.744,641.655 524.982,624.349 519.871,617.005 510.38,602.176 508.198,578.309 508.198,550.488 508.198,522.525 506.728,481.148 507.458,474.299 L 401.601,458.7 C 401.601,472.522 391.503,491.277 350.55,491.516 309.598,491.277 299.499,472.522 299.499,458.7 z"
           style="fill:#212121;stroke:#545454;stroke-width:4;stroke-miterlimit:4;stroke-dasharray:none" />
        <path
           d="M 93.5313,28 C 79.5014,28 58.9645,56.0721 47.7813,95.8438 35.9305,138.228 4.18039,211.771 5.77874,288.54 8.40712,414.781 -2.04816,543.106 4.875,554.812 36.4055,554.812 25.6546,555.406 58.5625,555.406 66.8991,535.48 67.8869,440.913 80.2902,308.951 85.9992,274.488 84.8944,206.489 92.2143,177.656 111.734,144.005 99.4279,52.1964 93.5313,28 z M 407.156,28 C 401.26,52.1964 389.668,144.005 409.187,177.656 416.507,206.489 420.17,280.917 421.594,316.094 434.2,448.869 434.805,518.197 442.125,555.406 484.022,555.406 471.146,554.812 495.812,554.812 502.341,537.644 496.935,420.811 494.938,298.914 493.618,218.328 465.517,140.948 452.906,95.8438 441.723,56.0721 421.186,28 407.156,28 z"
           transform="translate(100.999,445.844)"
           id="sleeves"
           style="fill:#212121;stroke:#545454;stroke-width:4;stroke-miterlimit:4;stroke-dasharray:none"
           sodipodi:nodetypes="ccsccccccccccscc" />
      </g>
      <g
         id="g8992"
         transform="translate(517.143,0)">
        <path
           style="fill:#8e8e8e;stroke:#545454;stroke-width:4;stroke-miterlimit:4;stroke-dasharray:none"
           sodipodi:nodetypes="cccccc"
           id="path8994"
           d="M 299.499,458.7 246.561,488.084 C 242.497,509.424 451.961,528.415 458.542,493.865 L 401.601,458.7 C 392.164,468.137 372.055,467.502 350.55,467.502 325.826,467.647 308.804,468.004 299.499,458.7 z" />
        <path
           style="fill:#212121;stroke:#545454;stroke-width:4;stroke-miterlimit:4;stroke-dasharray:none"
           d="M 299.499,458.7 193.642,474.299 C 194.373,481.148 192.903,522.525 192.903,550.488 192.903,578.309 190.721,602.176 181.23,617.005 176.119,624.349 194.357,641.655 187.786,641.655 187.786,663.093 186.483,723.755 186.483,809.5 186.483,870.439 184.149,983.354 182.689,998.465 345.243,998.465 378.517,998.465 518.412,998.465 516.952,983.354 514.618,870.439 514.618,809.5 514.618,723.755 513.315,663.093 513.315,641.655 506.744,641.655 524.982,624.349 519.871,617.005 510.38,602.176 508.198,578.309 508.198,550.488 508.198,522.525 506.728,481.148 507.458,474.299 L 401.601,458.7 C 401.601,472.522 391.503,491.277 350.55,491.516 309.598,491.277 299.499,472.522 299.499,458.7 z"
           id="path8996"
           sodipodi:nodetypes="ccsccsccsccscccc" />
        <path
           sodipodi:nodetypes="ccsccccccccccscc"
           style="fill:#212121;stroke:#545454;stroke-width:4;stroke-miterlimit:4;stroke-dasharray:none"
           id="path8998"
           transform="translate(100.999,445.844)"
           d="M 93.5313,28 C 79.5014,28 58.9645,56.0721 47.7813,95.8438 35.9305,138.228 -2.96246,211.771 -1.36411,288.54 1.26427,414.781 13.6661,543.106 20.5893,554.812 52.1198,554.812 41.3689,555.406 74.2768,555.406 82.6134,535.48 60.744,440.913 73.1473,308.951 78.8563,274.488 84.8944,206.489 92.2143,177.656 111.734,144.005 99.4279,52.1964 93.5313,28 z M 407.156,28 C 401.26,52.1964 389.668,144.005 409.187,177.656 416.507,206.489 430.17,280.917 431.594,316.094 444.2,448.869 424.805,518.197 432.125,555.406 474.022,555.406 461.146,554.812 485.812,554.812 492.341,537.644 506.935,420.811 504.938,298.914 503.618,218.328 465.517,140.948 452.906,95.8438 441.723,56.0721 421.186,28 407.156,28 z" />
      </g>
    </g>
  </g>
  <metadata
     id="metadata14382">
    <rdf:RDF>
      <cc:Work
         rdf:about="">
        <dc:title></dc:title>
        <dc:format>image/svg+xml</dc:format>
        <dc:type
           rdf:resource="http://purl.org/dc/dcmitype/StillImage" />
      </cc:Work>
    </rdf:RDF>
  </metadata>
</svg>
