<?xml version="1.0" encoding="UTF-8" standalone="no"?>
<svg
    xmlns="http://www.w3.org/2000/svg"
    xmlns:svg="http://www.w3.org/2000/svg"
    xmlns:xlink="http://www.w3.org/1999/xlink"
    xmlns:freesewing="http://freesewing.org/namespaces/freesewing" viewBox ="0 0 1090 710"
    width ="1090mm"
    height ="710mm"
    freesewing:version ="1.5.0"
    freesewing:origin ="joost.core.freesewing.org" 
>

<style type="text/css">
    <![CDATA[
    path { fill: none; stroke: #000000; stroke-opacity:1; stroke-width: 0.5; stroke-miterlimit:4; stroke-dashoffset:0; stroke-linecap:round; stroke-linejoin:round; }
    path.hidden { fill: none; stroke: none; }]]>
</style>


<!-- Start of group #patternContainer -->
<g id="patternContainer" >
    
    <!-- Start of group #backBlock -->
    <g id="backBlock"  transform=" translate(5 5)  translate(489.846 0) " >
        <path class="hidden" id="2"  d=" M  0,0  L  290,0  L  290,620  L  0,620  z " />
<path transform="translate( 0, 0 )" style="stroke: hsl(26.9, 55%, 50%);" id="18"  d=" M  0,20  L  0,290.5  L  0,500  L  0,620  L  290,620  L  290,290.5  C  273.75,290.5  262.473,284.071  246.951,268.549  C  231.429,253.027  225,197.833  225,155.25  C  225,112.667  233.176,37.332  235,27.5  L  86.777,0  C  83.129,19.664  0,20  0,20  z " />
<path transform="translate( 0, 0 )" style="stroke: hsl(53.8, 55%, 50%);" id="38"  d=" M  0,20  L  0,290.5  L  0,500  L  0,620  L  290,620  L  290,290.5  C  273.75,290.5  262.473,284.071  246.951,268.549  C  231.429,253.027  225,197.833  225,155.25  C  225,112.667  233.176,37.332  235,27.5  L  86.777,0  C  83.129,19.664  0,20  0,20  z " />
<path transform="translate( 0, 0 )" style="stroke: hsl(80.7, 55%, 50%);" id="58"  d=" M  0,20  L  0,290.5  L  0,500  L  0,620  L  290,620  L  290,290.5  C  273.75,290.5  262.473,284.071  246.951,268.549  C  231.429,253.027  225,197.833  225,155.25  C  225,112.667  233.176,37.332  235,27.5  L  86.777,0  C  83.129,19.664  0,20  0,20  z " />
<path transform="translate( 0, 0 )" style="stroke: hsl(107.6, 55%, 50%);" id="78"  d=" M  0,20  L  0,290.5  L  0,500  L  0,620  L  290,620  L  290,290.5  C  273.75,290.5  262.473,284.071  246.951,268.549  C  231.429,253.027  225,197.833  225,155.25  C  225,112.667  233.176,37.332  235,27.5  L  86.777,0  C  83.129,19.664  0,20  0,20  z " />
<path transform="translate( 0, 0 )" style="stroke: hsl(134.5, 55%, 50%);" id="98"  d=" M  0,20  L  0,290.5  L  0,500  L  0,620  L  290,620  L  290,290.5  C  273.75,290.5  262.473,284.071  246.951,268.549  C  231.429,253.027  225,197.833  225,155.25  C  225,112.667  233.176,37.332  235,27.5  L  86.777,0  C  83.129,19.664  0,20  0,20  z " />
<path transform="translate( 0, 0 )" style="stroke: hsl(161.4, 55%, 50%);" id="118"  d=" M  0,20  L  0,290.5  L  0,500  L  0,620  L  290,620  L  290,290.5  C  273.75,290.5  262.473,284.071  246.951,268.549  C  231.429,253.027  225,197.833  225,155.25  C  225,112.667  233.176,37.332  235,27.5  L  86.777,0  C  83.129,19.664  0,20  0,20  z " />
<path transform="translate( 0, 0 )" style="stroke: hsl(188.3, 55%, 50%);" id="138"  d=" M  0,20  L  0,290.5  L  0,500  L  0,620  L  290,620  L  290,290.5  C  273.75,290.5  262.473,284.071  246.951,268.549  C  231.429,253.027  225,197.833  225,155.25  C  225,112.667  233.176,37.332  235,27.5  L  86.777,0  C  83.129,19.664  0,20  0,20  z " />
<path transform="translate( 0, 0 )" style="stroke: hsl(215.2, 55%, 50%);" id="158"  d=" M  0,20  L  0,290.5  L  0,500  L  0,620  L  290,620  L  290,290.5  C  273.75,290.5  262.473,284.071  246.951,268.549  C  231.429,253.027  225,197.833  225,155.25  C  225,112.667  233.176,37.332  235,27.5  L  86.777,0  C  83.129,19.664  0,20  0,20  z " />
<path transform="translate( 0, 0 )" style="stroke: hsl(242.1, 55%, 50%);" id="178"  d=" M  0,20  L  0,290.5  L  0,500  L  0,620  L  290,620  L  290,290.5  C  273.75,290.5  262.473,284.071  246.951,268.549  C  231.429,253.027  225,197.833  225,155.25  C  225,112.667  233.176,37.332  235,27.5  L  86.777,0  C  83.129,19.664  0,20  0,20  z " />
<path transform="translate( 0, 0 )" style="stroke: hsl(269, 55%, 50%);" id="198"  d=" M  0,20  L  0,290.5  L  0,500  L  0,620  L  290,620  L  290,290.5  C  273.75,290.5  262.473,284.071  246.951,268.549  C  231.429,253.027  225,197.833  225,155.25  C  225,112.667  233.176,37.332  235,27.5  L  86.777,0  C  83.129,19.664  0,20  0,20  z " />
<path transform="translate( 0, 0 )" style="stroke: hsl(295.9, 55%, 50%);" id="218"  d=" M  0,20  L  0,290.5  L  0,500  L  0,620  L  290,620  L  290,290.5  C  273.75,290.5  262.473,284.071  246.951,268.549  C  231.429,253.027  225,197.833  225,155.25  C  225,112.667  233.176,37.332  235,27.5  L  86.777,0  C  83.129,19.664  0,20  0,20  z " />
    </g>
    <!-- End of group #backBlock -->
    
    <!-- Start of group #frontBlock -->
    <g id="frontBlock"  transform=" translate(5 5)  translate(789.846 0) " >
        <path class="hidden" id="3"  d=" M  0,0  L  290,0  L  290,620  L  0,620  z " />
<path transform="translate( 0, 0 )" style="stroke: hsl(26.9, 55%, 50%);" id="19"  d=" M  0,99  L  0,290.5  L  0,500  L  0,620  L  290,620  L  290,290.5  C  273.75,290.5  262.473,284.071  246.951,268.549  C  231.429,253.027  220,197.833  220,155.25  C  220,112.667  233.176,37.332  235,27.5  L  86.777,0  C  83.129,19.664  86.777,99  0,99  z " />
<path transform="translate( 0, 0 )" style="stroke: hsl(53.8, 55%, 50%);" id="39"  d=" M  0,99  L  0,290.5  L  0,500  L  0,620  L  290,620  L  290,290.5  C  273.75,290.5  262.473,284.071  246.951,268.549  C  231.429,253.027  220,197.833  220,155.25  C  220,112.667  233.176,37.332  235,27.5  L  86.777,0  C  83.129,19.664  86.777,99  0,99  z " />
<path transform="translate( 0, 0 )" style="stroke: hsl(80.7, 55%, 50%);" id="59"  d=" M  0,99  L  0,290.5  L  0,500  L  0,620  L  290,620  L  290,290.5  C  273.75,290.5  262.473,284.071  246.951,268.549  C  231.429,253.027  220,197.833  220,155.25  C  220,112.667  233.176,37.332  235,27.5  L  86.777,0  C  83.129,19.664  86.777,99  0,99  z " />
<path transform="translate( 0, 0 )" style="stroke: hsl(107.6, 55%, 50%);" id="79"  d=" M  0,99  L  0,290.5  L  0,500  L  0,620  L  290,620  L  290,290.5  C  273.75,290.5  262.473,284.071  246.951,268.549  C  231.429,253.027  220,197.833  220,155.25  C  220,112.667  233.176,37.332  235,27.5  L  86.777,0  C  83.129,19.664  86.777,99  0,99  z " />
<path transform="translate( 0, 0 )" style="stroke: hsl(134.5, 55%, 50%);" id="99"  d=" M  0,99  L  0,290.5  L  0,500  L  0,620  L  290,620  L  290,290.5  C  273.75,290.5  262.473,284.071  246.951,268.549  C  231.429,253.027  220,197.833  220,155.25  C  220,112.667  233.176,37.332  235,27.5  L  86.777,0  C  83.129,19.664  86.777,99  0,99  z " />
<path transform="translate( 0, 0 )" style="stroke: hsl(161.4, 55%, 50%);" id="119"  d=" M  0,99  L  0,290.5  L  0,500  L  0,620  L  290,620  L  290,290.5  C  273.75,290.5  262.473,284.071  246.951,268.549  C  231.429,253.027  220,197.833  220,155.25  C  220,112.667  233.176,37.332  235,27.5  L  86.777,0  C  83.129,19.664  86.777,99  0,99  z " />
<path transform="translate( 0, 0 )" style="stroke: hsl(188.3, 55%, 50%);" id="139"  d=" M  0,99  L  0,290.5  L  0,500  L  0,620  L  290,620  L  290,290.5  C  273.75,290.5  262.473,284.071  246.951,268.549  C  231.429,253.027  220,197.833  220,155.25  C  220,112.667  233.176,37.332  235,27.5  L  86.777,0  C  83.129,19.664  86.777,99  0,99  z " />
<path transform="translate( 0, 0 )" style="stroke: hsl(215.2, 55%, 50%);" id="159"  d=" M  0,99  L  0,290.5  L  0,500  L  0,620  L  290,620  L  290,290.5  C  273.75,290.5  262.473,284.071  246.951,268.549  C  231.429,253.027  220,197.833  220,155.25  C  220,112.667  233.176,37.332  235,27.5  L  86.777,0  C  83.129,19.664  86.777,99  0,99  z " />
<path transform="translate( 0, 0 )" style="stroke: hsl(242.1, 55%, 50%);" id="179"  d=" M  0,99  L  0,290.5  L  0,500  L  0,620  L  290,620  L  290,290.5  C  273.75,290.5  262.473,284.071  246.951,268.549  C  231.429,253.027  220,197.833  220,155.25  C  220,112.667  233.176,37.332  235,27.5  L  86.777,0  C  83.129,19.664  86.777,99  0,99  z " />
<path transform="translate( 0, 0 )" style="stroke: hsl(269, 55%, 50%);" id="199"  d=" M  0,99  L  0,290.5  L  0,500  L  0,620  L  290,620  L  290,290.5  C  273.75,290.5  262.473,284.071  246.951,268.549  C  231.429,253.027  220,197.833  220,155.25  C  220,112.667  233.176,37.332  235,27.5  L  86.777,0  C  83.129,19.664  86.777,99  0,99  z " />
<path transform="translate( 0, 0 )" style="stroke: hsl(295.9, 55%, 50%);" id="219"  d=" M  0,99  L  0,290.5  L  0,500  L  0,620  L  290,620  L  290,290.5  C  273.75,290.5  262.473,284.071  246.951,268.549  C  231.429,253.027  220,197.833  220,155.25  C  220,112.667  233.176,37.332  235,27.5  L  86.777,0  C  83.129,19.664  86.777,99  0,99  z " />
    </g>
    <!-- End of group #frontBlock -->
    
    <!-- Start of group #sleeveBlock -->
    <g id="sleeveBlock" >
    </g>
    <!-- End of group #sleeveBlock -->
    
    <!-- Start of group #topsleeveBlock -->
    <g id="topsleeveBlock"  transform=" translate(147.159 5)  translate(0 0) " >
        <path class="hidden" id="4"  d=" M  -142.159,0  L  126.363,0  L  126.363,700  L  -142.159,700  z " />
<path transform="translate( 0, 0 )" style="stroke: hsl(26.9, 55%, 50%);" id="20"  d=" M  62.592,700  L  113.727,410  C  121.397,366.5  126.363,247.132  126.363,185.349  C  126.363,123.566  113.727,61.783  113.727,61.783  C  113.727,61.783  71.079,0  0,0  C  -71.079,0  -104.25,61.782  -113.727,111.209  C  -123.204,160.636  -127.943,185.349  -142.159,185.349  C  -142.159,185.349  -128.689,354.441  -126.363,410  L  -114.733,687.793  z " />
<path transform="translate( 1.734, 0 )" style="stroke: hsl(53.8, 55%, 50%);" id="40"  d=" M  60.858,700  L  111.993,410  C  119.663,366.5  124.437,251.1  124.437,188.325  C  124.437,125.55  111.993,62.775  111.993,62.775  C  111.993,62.775  69.996,0  0,0  C  -69.996,0  -102.66,62.775  -111.993,112.995  C  -121.326,163.215  -125.992,188.325  -139.991,188.325  C  -139.991,188.325  -126.114,354.637  -124.437,410  L  -116.05,686.812  z " />
<path transform="translate( 3.234, 0 )" style="stroke: hsl(80.7, 55%, 50%);" id="60"  d=" M  59.358,700  L  110.493,410  C  118.163,366.5  122.77,255.388  122.77,191.541  C  122.77,127.694  110.493,63.847  110.493,63.847  C  110.493,63.847  69.058,0  0,0  C  -69.058,0  -101.285,63.847  -110.493,114.925  C  -119.701,166.003  -124.305,191.541  -138.116,191.541  C  -138.116,191.541  -123.887,354.807  -122.77,410  L  -117.184,685.967  z " />
<path transform="translate( 4.794, 0 )" style="stroke: hsl(107.6, 55%, 50%);" id="80"  d=" M  57.798,700  L  108.933,410  C  116.603,366.5  121.037,259.282  121.037,194.461  C  121.037,129.64  108.933,64.82  108.933,64.82  C  108.933,64.82  68.083,0  0,0  C  -68.083,0  -99.855,64.821  -108.933,116.677  C  -118.011,168.533  -122.55,194.461  -136.166,194.461  C  -136.166,194.461  -121.573,354.982  -121.037,410  L  -118.359,685.092  z " />
<path transform="translate( 6.308, 0 )" style="stroke: hsl(134.5, 55%, 50%);" id="100"  d=" M  56.284,700  L  107.419,410  C  115.089,366.5  119.354,263.05  119.354,197.287  C  119.354,131.524  107.419,65.762  107.419,65.762  C  107.419,65.762  67.137,0  0,0  C  -67.137,0  -98.467,65.762  -107.419,118.372  C  -116.371,170.982  -120.847,197.287  -134.274,197.287  C  -134.274,197.287  -119.326,355.151  -119.354,410  L  -119.495,684.247  z " />
<path transform="translate( 7.762, 0 )" style="stroke: hsl(161.4, 55%, 50%);" id="120"  d=" M  54.83,700  L  105.965,410  C  113.635,366.5  117.739,266.746  117.739,200.059  C  117.739,133.372  105.965,66.686  105.965,66.686  C  105.965,66.686  66.228,0  0,0  C  -66.228,0  -97.134,66.686  -105.965,120.035  C  -114.796,173.384  -119.211,200.059  -132.456,200.059  C  -132.456,200.059  -117.17,355.312  -117.739,410  L  -120.583,683.439  z " />
<path transform="translate( 9.231, 0 )" style="stroke: hsl(188.3, 55%, 50%);" id="140"  d=" M  53.361,700  L  104.496,410  C  112.166,366.5  116.107,270.167  116.107,202.625  C  116.107,135.083  104.496,67.542  104.496,67.542  C  104.496,67.542  65.31,0  0,0  C  -65.31,0  -95.788,67.541  -104.496,121.575  C  -113.204,175.609  -117.558,202.625  -130.62,202.625  C  -130.62,202.625  -114.993,355.474  -116.107,410  L  -121.678,682.627  z " />
<path transform="translate( 10.641, 0 )" style="stroke: hsl(215.2, 55%, 50%);" id="160"  d=" M  51.951,700  L  103.086,410  C  110.756,366.5  114.54,273.528  114.54,205.146  C  114.54,136.764  103.086,68.382  103.086,68.382  C  103.086,68.382  64.429,0  0,0  C  -64.429,0  -94.495,68.382  -103.086,123.088  C  -111.677,177.794  -115.972,205.146  -128.857,205.146  C  -128.857,205.146  -112.903,355.63  -114.54,410  L  -122.726,681.851  z " />
<path transform="translate( 12.01, 0 )" style="stroke: hsl(242.1, 55%, 50%);" id="180"  d=" M  50.582,700  L  101.717,410  C  109.387,366.5  113.019,276.79  113.019,207.592  C  113.019,138.394  101.717,69.197  101.717,69.197  C  101.717,69.197  63.573,0  0,0  C  -63.573,0  -93.24,69.197  -101.717,124.555  C  -110.194,179.913  -114.432,207.592  -127.146,207.592  C  -127.146,207.592  -110.875,355.779  -113.019,410  L  -123.74,681.102  z " />
<path transform="translate( 13.433, 0 )" style="stroke: hsl(269, 55%, 50%);" id="200"  d=" M  49.159,700  L  100.294,410  C  107.964,366.5  111.438,279.664  111.438,209.748  C  111.438,139.832  100.294,69.916  100.294,69.916  C  100.294,69.916  62.684,0  0,0  C  -62.684,0  -91.936,69.916  -100.294,125.849  C  -108.652,181.782  -112.831,209.748  -125.367,209.748  C  -125.367,209.748  -108.767,355.935  -111.438,410  L  -124.791,680.327  z " />
<path transform="translate( 14.707, 0 )" style="stroke: hsl(295.9, 55%, 50%);" id="220"  d=" M  47.885,700  L  99.02,410  C  106.69,366.5  110.022,282.788  110.022,212.091  C  110.022,141.394  99.02,70.697  99.02,70.697  C  99.02,70.697  61.888,0  0,0  C  -61.888,0  -90.768,70.698  -99.02,127.255  C  -107.272,183.812  -111.398,212.091  -123.775,212.091  C  -123.775,212.091  -106.881,356.073  -110.022,410  L  -125.729,679.636  z " />
    </g>
    <!-- End of group #topsleeveBlock -->
    
    <!-- Start of group #undersleeveBlock -->
    <g id="undersleeveBlock"  transform=" translate(90.295 -56.783)  translate(278.522 0) " >
        <path class="hidden" id="5"  d=" M  -85.295,61.783  L  116.029,61.783  L  116.029,700  L  -85.295,700  z " />
<path transform="translate( 0, 0 )" style="stroke: hsl(26.9, 55%, 50%);" id="21"  d=" M  62.592,700  L  113.727,410  C  121.397,366.5  106.119,246.927  101.091,185.349  C  96.063,123.771  85.295,61.783  85.295,61.783  C  67.567,122.15  -14.216,185.349  -56.863,185.349  L  -85.295,185.349  C  -85.295,185.349  -65.792,354.472  -66.341,410  L  -69.084,687.637  L  62.592,700  z " />
<path transform="translate( 1.734, 0 )" style="stroke: hsl(53.8, 55%, 50%);" id="41"  d=" M  60.858,700  L  111.993,410  C  119.663,366.5  104.594,250.897  99.549,188.325  C  94.504,125.753  83.995,62.775  83.995,62.775  C  66.165,124.084  -13.999,188.325  -55.997,188.325  L  -83.995,188.325  C  -83.995,188.325  -64.176,354.619  -65.329,410  L  -71.095,686.907  L  60.858,700  z " />
<path transform="translate( 3.234, 0 )" style="stroke: hsl(80.7, 55%, 50%);" id="61"  d=" M  59.358,700  L  110.493,410  C  118.163,366.5  103.295,255.186  98.216,191.541  C  93.137,127.896  82.87,63.847  82.87,63.847  C  64.941,126.187  -13.812,191.541  -55.247,191.541  L  -82.87,191.541  C  -82.87,191.541  -62.778,354.745  -64.454,410  L  -72.832,686.274  L  59.358,700  z " />
<path transform="translate( 4.794, 0 )" style="stroke: hsl(107.6, 55%, 50%);" id="81"  d=" M  57.798,700  L  108.933,410  C  116.603,366.5  101.927,259.081  96.829,194.461  C  91.731,129.841  81.7,64.82  81.7,64.82  C  63.707,128.102  -13.617,194.461  -54.467,194.461  L  -81.7,194.461  C  -81.7,194.461  -61.326,354.878  -63.544,410  L  -74.636,685.613  L  57.798,700  z " />
<path transform="translate( 6.308, 0 )" style="stroke: hsl(134.5, 55%, 50%);" id="101"  d=" M  56.284,700  L  107.419,410  C  115.089,366.5  100.599,262.851  95.484,197.287  C  90.369,131.723  80.564,65.762  80.564,65.762  C  62.519,129.96  -13.427,197.287  -53.709,197.287  L  -80.564,197.287  C  -80.564,197.287  -59.917,355.006  -62.661,410  L  -76.383,684.971  L  56.284,700  z " />
<path transform="translate( 7.762, 0 )" style="stroke: hsl(161.4, 55%, 50%);" id="121"  d=" M  54.83,700  L  105.965,410  C  113.635,366.5  99.321,266.548  94.191,200.059  C  89.061,133.57  79.474,66.686  79.474,66.686  C  61.409,131.794  -13.246,200.059  -52.983,200.059  L  -79.474,200.059  C  -79.474,200.059  -58.564,355.13  -61.813,410  L  -78.059,684.351  L  54.83,700  z " />
<path transform="translate( 9.231, 0 )" style="stroke: hsl(188.3, 55%, 50%);" id="141"  d=" M  53.361,700  L  104.496,410  C  112.166,366.5  98.022,269.971  92.885,202.625  C  87.748,135.279  78.372,67.542  78.372,67.542  C  60.295,133.492  -13.062,202.625  -52.248,202.625  L  -78.372,202.625  C  -78.372,202.625  -57.197,355.255  -60.956,410  L  -79.749,683.724  L  53.361,700  z " />
<path transform="translate( 10.641, 0 )" style="stroke: hsl(215.2, 55%, 50%);" id="161"  d=" M  51.951,700  L  103.086,410  C  110.756,366.5  96.776,273.334  91.632,205.146  C  86.488,136.958  77.314,68.382  77.314,68.382  C  59.253,135.17  -12.886,205.146  -51.543,205.146  L  -77.315,205.146  C  -77.315,205.146  -55.887,355.376  -60.134,410  L  -81.368,683.121  L  51.951,700  z " />
<path transform="translate( 12.01, 0 )" style="stroke: hsl(242.1, 55%, 50%);" id="181"  d=" M  50.582,700  L  101.717,410  C  109.387,366.5  95.564,276.598  90.415,207.592  C  85.266,138.586  76.288,69.197  76.288,69.197  C  58.23,136.794  -12.715,207.592  -50.859,207.592  L  -76.288,207.592  C  -76.288,207.592  -54.615,355.493  -59.335,410  L  -82.937,682.533  L  50.582,700  z " />
<path transform="translate( 13.433, 0 )" style="stroke: hsl(269, 55%, 50%);" id="201"  d=" M  49.159,700  L  100.294,410  C  107.964,366.5  94.291,279.475  89.15,209.748  C  84.009,140.021  75.22,69.916  75.22,69.916  C  57.211,138.236  -12.537,209.748  -50.147,209.748  L  -75.221,209.748  C  -75.221,209.748  -53.293,355.616  -58.505,410  L  -84.565,681.921  L  49.159,700  z " />
<path transform="translate( 14.707, 0 )" style="stroke: hsl(295.9, 55%, 50%);" id="221"  d=" M  47.885,700  L  99.02,410  C  106.69,366.5  93.162,282.601  88.018,212.091  C  82.874,141.581  74.265,70.697  74.265,70.697  C  56.293,139.803  -12.378,212.091  -49.51,212.091  L  -74.265,212.091  C  -74.265,212.091  -52.11,355.726  -57.762,410  L  -86.022,681.372  L  47.885,700  z " />
    </g>
    <!-- End of group #undersleeveBlock -->
    
    <!-- Start of group #sampler-backBlock -->
    <g id="sampler-backBlock" >
    </g>
    <!-- End of group #sampler-backBlock -->
    
    <!-- Start of group #sampler-frontBlock -->
    <g id="sampler-frontBlock" >
    </g>
    <!-- End of group #sampler-frontBlock -->
    
    <!-- Start of group #sampler-topsleeveBlock -->
    <g id="sampler-topsleeveBlock" >
    </g>
    <!-- End of group #sampler-topsleeveBlock -->
    
    <!-- Start of group #sampler-undersleeveBlock -->
    <g id="sampler-undersleeveBlock" >
    </g>
    <!-- End of group #sampler-undersleeveBlock -->
</g>
<!-- End of group #patternContainer -->

</svg>

