<?xml version="1.0" encoding="UTF-8" standalone="no"?>
<svg
    xmlns="http://www.w3.org/2000/svg"
    xmlns:svg="http://www.w3.org/2000/svg"
    xmlns:xlink="http://www.w3.org/1999/xlink"
    xmlns:freesewing="http://freesewing.org/namespaces/freesewing" viewBox ="0 0 1283 726"
    width ="1283mm"
    height ="726mm"
    freesewing:version ="1.5.0"
    freesewing:origin ="joost.core.freesewing.org" 
>

<style type="text/css">
    <![CDATA[
    path { fill: none; stroke: #000000; stroke-opacity:1; stroke-width: 0.5; stroke-miterlimit:4; stroke-dashoffset:0; stroke-linecap:round; stroke-linejoin:round; }
    path.hidden { fill: none; stroke: none; }]]>
</style>


<!-- Start of group #patternContainer -->
<g id="patternContainer" >
    
    <!-- Start of group #backBlock -->
    <g id="backBlock"  transform=" translate(5 5)  translate(682.874 0) " >
        <path class="hidden" id="2"  d=" M  0,0  L  290,0  L  290,620  L  0,620  z " />
<path transform="translate( 0, 0 )" style="stroke: hsl(26.9, 55%, 50%);" id="18"  d=" M  0,20  L  0,290.5  L  0,500  L  0,620  L  290,620  L  290,290.5  C  273.75,290.5  262.473,284.071  246.951,268.549  C  231.429,253.027  225,197.833  225,155.25  C  225,112.667  233.176,37.332  235,27.5  L  86.777,0  C  83.129,19.664  0,20  0,20  z " />
<path transform="translate( 0, 0 )" style="stroke: hsl(53.8, 55%, 50%);" id="38"  d=" M  0,20  L  0,290.5  L  0,500  L  0,620  L  290,620  L  290,290.5  C  273.75,290.5  262.473,284.071  246.951,268.549  C  231.429,253.027  225,197.833  225,155.25  C  225,112.667  233.176,37.332  235,27.5  L  86.777,0  C  83.129,19.664  0,20  0,20  z " />
<path transform="translate( 0, 0 )" style="stroke: hsl(80.7, 55%, 50%);" id="58"  d=" M  0,20  L  0,290.5  L  0,500  L  0,620  L  290,620  L  290,290.5  C  273.75,290.5  262.473,284.071  246.951,268.549  C  231.429,253.027  225,197.833  225,155.25  C  225,112.667  233.176,37.332  235,27.5  L  86.777,0  C  83.129,19.664  0,20  0,20  z " />
<path transform="translate( 0, 0 )" style="stroke: hsl(107.6, 55%, 50%);" id="78"  d=" M  0,20  L  0,290.5  L  0,500  L  0,620  L  290,620  L  290,290.5  C  273.75,290.5  262.473,284.071  246.951,268.549  C  231.429,253.027  225,197.833  225,155.25  C  225,112.667  233.176,37.332  235,27.5  L  86.777,0  C  83.129,19.664  0,20  0,20  z " />
<path transform="translate( 0, 0 )" style="stroke: hsl(134.5, 55%, 50%);" id="98"  d=" M  0,20  L  0,290.5  L  0,500  L  0,620  L  290,620  L  290,290.5  C  273.75,290.5  262.473,284.071  246.951,268.549  C  231.429,253.027  225,197.833  225,155.25  C  225,112.667  233.176,37.332  235,27.5  L  86.777,0  C  83.129,19.664  0,20  0,20  z " />
<path transform="translate( 0, 0 )" style="stroke: hsl(161.4, 55%, 50%);" id="118"  d=" M  0,20  L  0,290.5  L  0,500  L  0,620  L  290,620  L  290,290.5  C  273.75,290.5  262.473,284.071  246.951,268.549  C  231.429,253.027  225,197.833  225,155.25  C  225,112.667  233.176,37.332  235,27.5  L  86.777,0  C  83.129,19.664  0,20  0,20  z " />
<path transform="translate( 0, 0 )" style="stroke: hsl(188.3, 55%, 50%);" id="138"  d=" M  0,20  L  0,290.5  L  0,500  L  0,620  L  290,620  L  290,290.5  C  273.75,290.5  262.473,284.071  246.951,268.549  C  231.429,253.027  225,197.833  225,155.25  C  225,112.667  233.176,37.332  235,27.5  L  86.777,0  C  83.129,19.664  0,20  0,20  z " />
<path transform="translate( 0, 0 )" style="stroke: hsl(215.2, 55%, 50%);" id="158"  d=" M  0,20  L  0,290.5  L  0,500  L  0,620  L  290,620  L  290,290.5  C  273.75,290.5  262.473,284.071  246.951,268.549  C  231.429,253.027  225,197.833  225,155.25  C  225,112.667  233.176,37.332  235,27.5  L  86.777,0  C  83.129,19.664  0,20  0,20  z " />
<path transform="translate( 0, 0 )" style="stroke: hsl(242.1, 55%, 50%);" id="178"  d=" M  0,20  L  0,290.5  L  0,500  L  0,620  L  290,620  L  290,290.5  C  273.75,290.5  262.473,284.071  246.951,268.549  C  231.429,253.027  225,197.833  225,155.25  C  225,112.667  233.176,37.332  235,27.5  L  86.777,0  C  83.129,19.664  0,20  0,20  z " />
<path transform="translate( 0, 0 )" style="stroke: hsl(269, 55%, 50%);" id="198"  d=" M  0,20  L  0,290.5  L  0,500  L  0,620  L  290,620  L  290,290.5  C  273.75,290.5  262.473,284.071  246.951,268.549  C  231.429,253.027  225,197.833  225,155.25  C  225,112.667  233.176,37.332  235,27.5  L  86.777,0  C  83.129,19.664  0,20  0,20  z " />
<path transform="translate( 0, 0 )" style="stroke: hsl(295.9, 55%, 50%);" id="218"  d=" M  0,20  L  0,290.5  L  0,500  L  0,620  L  290,620  L  290,290.5  C  273.75,290.5  262.473,284.071  246.951,268.549  C  231.429,253.027  225,197.833  225,155.25  C  225,112.667  233.176,37.332  235,27.5  L  86.777,0  C  83.129,19.664  0,20  0,20  z " />
    </g>
    <!-- End of group #backBlock -->
    
    <!-- Start of group #frontBlock -->
    <g id="frontBlock"  transform=" translate(5 5)  translate(982.874 0) " >
        <path class="hidden" id="3"  d=" M  0,0  L  290,0  L  290,620  L  0,620  z " />
<path transform="translate( 0, 0 )" style="stroke: hsl(26.9, 55%, 50%);" id="19"  d=" M  0,99  L  0,290.5  L  0,500  L  0,620  L  290,620  L  290,290.5  C  273.75,290.5  262.473,284.071  246.951,268.549  C  231.429,253.027  220,197.833  220,155.25  C  220,112.667  233.176,37.332  235,27.5  L  86.777,0  C  83.129,19.664  86.777,99  0,99  z " />
<path transform="translate( 0, 0 )" style="stroke: hsl(53.8, 55%, 50%);" id="39"  d=" M  0,99  L  0,290.5  L  0,500  L  0,620  L  290,620  L  290,290.5  C  273.75,290.5  262.473,284.071  246.951,268.549  C  231.429,253.027  220,197.833  220,155.25  C  220,112.667  233.176,37.332  235,27.5  L  86.777,0  C  83.129,19.664  86.777,99  0,99  z " />
<path transform="translate( 0, 0 )" style="stroke: hsl(80.7, 55%, 50%);" id="59"  d=" M  0,99  L  0,290.5  L  0,500  L  0,620  L  290,620  L  290,290.5  C  273.75,290.5  262.473,284.071  246.951,268.549  C  231.429,253.027  220,197.833  220,155.25  C  220,112.667  233.176,37.332  235,27.5  L  86.777,0  C  83.129,19.664  86.777,99  0,99  z " />
<path transform="translate( 0, 0 )" style="stroke: hsl(107.6, 55%, 50%);" id="79"  d=" M  0,99  L  0,290.5  L  0,500  L  0,620  L  290,620  L  290,290.5  C  273.75,290.5  262.473,284.071  246.951,268.549  C  231.429,253.027  220,197.833  220,155.25  C  220,112.667  233.176,37.332  235,27.5  L  86.777,0  C  83.129,19.664  86.777,99  0,99  z " />
<path transform="translate( 0, 0 )" style="stroke: hsl(134.5, 55%, 50%);" id="99"  d=" M  0,99  L  0,290.5  L  0,500  L  0,620  L  290,620  L  290,290.5  C  273.75,290.5  262.473,284.071  246.951,268.549  C  231.429,253.027  220,197.833  220,155.25  C  220,112.667  233.176,37.332  235,27.5  L  86.777,0  C  83.129,19.664  86.777,99  0,99  z " />
<path transform="translate( 0, 0 )" style="stroke: hsl(161.4, 55%, 50%);" id="119"  d=" M  0,99  L  0,290.5  L  0,500  L  0,620  L  290,620  L  290,290.5  C  273.75,290.5  262.473,284.071  246.951,268.549  C  231.429,253.027  220,197.833  220,155.25  C  220,112.667  233.176,37.332  235,27.5  L  86.777,0  C  83.129,19.664  86.777,99  0,99  z " />
<path transform="translate( 0, 0 )" style="stroke: hsl(188.3, 55%, 50%);" id="139"  d=" M  0,99  L  0,290.5  L  0,500  L  0,620  L  290,620  L  290,290.5  C  273.75,290.5  262.473,284.071  246.951,268.549  C  231.429,253.027  220,197.833  220,155.25  C  220,112.667  233.176,37.332  235,27.5  L  86.777,0  C  83.129,19.664  86.777,99  0,99  z " />
<path transform="translate( 0, 0 )" style="stroke: hsl(215.2, 55%, 50%);" id="159"  d=" M  0,99  L  0,290.5  L  0,500  L  0,620  L  290,620  L  290,290.5  C  273.75,290.5  262.473,284.071  246.951,268.549  C  231.429,253.027  220,197.833  220,155.25  C  220,112.667  233.176,37.332  235,27.5  L  86.777,0  C  83.129,19.664  86.777,99  0,99  z " />
<path transform="translate( 0, 0 )" style="stroke: hsl(242.1, 55%, 50%);" id="179"  d=" M  0,99  L  0,290.5  L  0,500  L  0,620  L  290,620  L  290,290.5  C  273.75,290.5  262.473,284.071  246.951,268.549  C  231.429,253.027  220,197.833  220,155.25  C  220,112.667  233.176,37.332  235,27.5  L  86.777,0  C  83.129,19.664  86.777,99  0,99  z " />
<path transform="translate( 0, 0 )" style="stroke: hsl(269, 55%, 50%);" id="199"  d=" M  0,99  L  0,290.5  L  0,500  L  0,620  L  290,620  L  290,290.5  C  273.75,290.5  262.473,284.071  246.951,268.549  C  231.429,253.027  220,197.833  220,155.25  C  220,112.667  233.176,37.332  235,27.5  L  86.777,0  C  83.129,19.664  86.777,99  0,99  z " />
<path transform="translate( 0, 0 )" style="stroke: hsl(295.9, 55%, 50%);" id="219"  d=" M  0,99  L  0,290.5  L  0,500  L  0,620  L  290,620  L  290,290.5  C  273.75,290.5  262.473,284.071  246.951,268.549  C  231.429,253.027  220,197.833  220,155.25  C  220,112.667  233.176,37.332  235,27.5  L  86.777,0  C  83.129,19.664  86.777,99  0,99  z " />
    </g>
    <!-- End of group #frontBlock -->
    
    <!-- Start of group #sleeveBlock -->
    <g id="sleeveBlock" >
    </g>
    <!-- End of group #sleeveBlock -->
    
    <!-- Start of group #topsleeveBlock -->
    <g id="topsleeveBlock"  transform=" translate(140.566 5)  translate(0 0) " >
        <path class="hidden" id="4"  d=" M  -135.566,0  L  226.449,0  L  226.449,715.858  L  -135.566,715.858  z " />
<path transform="translate( 0, 0 )" style="stroke: hsl(26.9, 55%, 50%);" id="20"  d=" M  108.453,700  L  108.453,410  C  108.453,366.5  120.503,260.63  120.503,195.472  C  120.503,130.314  108.453,65.157  108.453,65.157  C  108.453,65.157  67.783,0  0,0  C  -67.783,0  -99.415,65.157  -108.453,117.283  C  -117.491,169.409  -122.01,195.472  -135.566,195.472  C  -135.566,195.472  -131.099,348.828  -120.503,410  L  -67.525,715.858  z " />
<path transform="translate( 10.127, 0 )" style="stroke: hsl(53.8, 55%, 50%);" id="40"  d=" M  98.326,700  L  108.453,410  C  109.972,366.5  120.503,260.63  120.503,195.472  C  120.503,130.314  108.453,65.157  108.453,65.157  C  108.453,65.157  67.783,0  0,0  C  -67.783,0  -99.415,65.157  -108.453,117.283  C  -117.491,169.409  -122.01,195.472  -135.566,195.472  C  -135.566,195.472  -128.984,350.053  -120.503,410  L  -78.096,709.737  z " />
<path transform="translate( 20.278, 0 )" style="stroke: hsl(80.7, 55%, 50%);" id="60"  d=" M  88.175,700  L  108.453,410  C  111.495,366.5  120.503,260.63  120.503,195.472  C  120.503,130.314  108.453,65.157  108.453,65.157  C  108.453,65.157  67.783,0  0,0  C  -67.783,0  -99.415,65.157  -108.453,117.283  C  -117.491,169.409  -122.01,195.472  -135.566,195.472  C  -135.566,195.472  -126.908,351.287  -120.503,410  L  -88.48,703.567  z " />
<path transform="translate( 30.48, 0 )" style="stroke: hsl(107.6, 55%, 50%);" id="80"  d=" M  77.973,700  L  108.453,410  C  113.025,366.5  120.503,260.63  120.503,195.472  C  120.503,130.314  108.453,65.157  108.453,65.157  C  108.453,65.157  67.783,0  0,0  C  -67.783,0  -99.415,65.157  -108.453,117.283  C  -117.491,169.409  -122.01,195.472  -135.566,195.472  C  -135.566,195.472  -124.864,352.529  -120.503,410  L  -98.698,697.352  z " />
<path transform="translate( 40.757, 0 )" style="stroke: hsl(134.5, 55%, 50%);" id="100"  d=" M  67.696,700  L  108.453,410  C  114.567,366.5  120.503,260.63  120.503,195.472  C  120.503,130.314  108.453,65.157  108.453,65.157  C  108.453,65.157  67.783,0  0,0  C  -67.783,0  -99.415,65.157  -108.453,117.283  C  -117.491,169.409  -122.01,195.472  -135.566,195.472  C  -135.566,195.472  -122.849,353.78  -120.503,410  L  -108.771,691.101  z " />
<path transform="translate( 51.135, 0 )" style="stroke: hsl(161.4, 55%, 50%);" id="120"  d=" M  57.318,700  L  108.453,410  C  116.123,366.5  120.503,260.63  120.503,195.472  C  120.503,130.314  108.453,65.157  108.453,65.157  C  108.453,65.157  67.783,0  0,0  C  -67.783,0  -99.415,65.157  -108.453,117.283  C  -117.491,169.409  -122.01,195.472  -135.566,195.472  C  -135.566,195.472  -120.86,355.035  -120.503,410  L  -118.72,684.823  z " />
<path transform="translate( 61.641, 0 )" style="stroke: hsl(188.3, 55%, 50%);" id="140"  d=" M  46.812,700  L  108.453,410  C  117.699,366.5  120.503,260.63  120.503,195.472  C  120.503,130.314  108.453,65.157  108.453,65.157  C  108.453,65.157  67.783,0  0,0  C  -67.783,0  -99.415,65.157  -108.453,117.283  C  -117.491,169.409  -122.01,195.472  -135.566,195.472  C  -135.566,195.472  -118.89,356.294  -120.503,410  L  -128.569,678.526  z " />
<path transform="translate( 72.305, 0 )" style="stroke: hsl(215.2, 55%, 50%);" id="160"  d=" M  36.148,700  L  108.453,410  C  119.299,366.5  120.503,260.63  120.503,195.472  C  120.503,130.314  108.453,65.157  108.453,65.157  C  108.453,65.157  67.783,0  0,0  C  -67.783,0  -99.415,65.157  -108.453,117.283  C  -117.491,169.409  -122.01,195.472  -135.566,195.472  C  -135.566,195.472  -116.935,357.557  -120.503,410  L  -138.345,672.218  z " />
<path transform="translate( 83.156, 0 )" style="stroke: hsl(242.1, 55%, 50%);" id="180"  d=" M  25.297,700  L  108.453,410  C  120.926,366.5  120.503,260.63  120.503,195.472  C  120.503,130.314  108.453,65.157  108.453,65.157  C  108.453,65.157  67.783,0  0,0  C  -67.783,0  -99.415,65.157  -108.453,117.283  C  -117.491,169.409  -122.01,195.472  -135.566,195.472  C  -135.566,195.472  -114.989,358.818  -120.503,410  L  -148.074,665.91  z " />
<path transform="translate( 94.227, 0 )" style="stroke: hsl(269, 55%, 50%);" id="200"  d=" M  14.226,700  L  108.453,410  C  122.587,366.5  120.503,260.63  120.503,195.472  C  120.503,130.314  108.453,65.157  108.453,65.157  C  108.453,65.157  67.783,0  0,0  C  -67.783,0  -99.415,65.157  -108.453,117.283  C  -117.491,169.409  -122.01,195.472  -135.566,195.472  C  -135.566,195.472  -113.046,360.078  -120.503,410  L  -157.787,659.61  z " />
<path transform="translate( 105.551, 0 )" style="stroke: hsl(295.9, 55%, 50%);" id="220"  d=" M  2.902,700  L  108.453,410  C  124.286,366.5  120.503,260.63  120.503,195.472  C  120.503,130.314  108.453,65.157  108.453,65.157  C  108.453,65.157  67.783,0  0,0  C  -67.783,0  -99.415,65.157  -108.453,117.283  C  -117.491,169.409  -122.01,195.472  -135.566,195.472  C  -135.566,195.472  -111.101,361.334  -120.503,410  L  -167.514,653.331  z " />
    </g>
    <!-- End of group #topsleeveBlock -->
    
    <!-- Start of group #undersleeveBlock -->
    <g id="undersleeveBlock"  transform=" translate(86.34 -60.157)  translate(372.015 0) " >
        <path class="hidden" id="5"  d=" M  -81.34,65.157  L  219.519,65.157  L  219.519,708.808  L  -81.34,708.808  z " />
<path transform="translate( 0, 0 )" style="stroke: hsl(26.9, 55%, 50%);" id="21"  d=" M  108.453,700  L  108.453,410  C  108.453,366.5  101.51,260.43  96.403,195.472  C  91.296,130.514  81.34,65.157  81.34,65.157  C  63.325,128.766  -13.557,195.472  -54.227,195.472  L  -81.34,195.472  C  -81.34,195.472  -71.004,350.239  -63.264,410  L  -24.565,708.808  L  108.453,700  z " />
<path transform="translate( 10.127, 0 )" style="stroke: hsl(53.8, 55%, 50%);" id="41"  d=" M  98.326,700  L  108.453,410  C  109.972,366.5  101.51,260.43  96.403,195.472  C  91.296,130.514  81.34,65.157  81.34,65.157  C  63.325,128.766  -13.557,195.472  -54.227,195.472  L  -81.34,195.472  C  -81.34,195.472  -68.933,351.166  -63.264,410  L  -34.918,704.17  L  98.326,700  z " />
<path transform="translate( 20.278, 0 )" style="stroke: hsl(80.7, 55%, 50%);" id="61"  d=" M  88.175,700  L  108.453,410  C  111.495,366.5  101.51,260.43  96.403,195.472  C  91.296,130.514  81.34,65.157  81.34,65.157  C  63.325,128.766  -13.557,195.472  -54.227,195.472  L  -81.34,195.472  C  -81.34,195.472  -66.89,352.099  -63.264,410  L  -45.133,699.506  L  88.175,700  z " />
<path transform="translate( 30.48, 0 )" style="stroke: hsl(107.6, 55%, 50%);" id="81"  d=" M  77.973,700  L  108.453,410  C  113.025,366.5  101.51,260.43  96.403,195.472  C  91.296,130.514  81.34,65.157  81.34,65.157  C  63.325,128.766  -13.557,195.472  -54.227,195.472  L  -81.34,195.472  C  -81.34,195.472  -64.87,353.036  -63.264,410  L  -55.235,694.82  L  77.973,700  z " />
<path transform="translate( 40.757, 0 )" style="stroke: hsl(134.5, 55%, 50%);" id="101"  d=" M  67.696,700  L  108.453,410  C  114.567,366.5  101.51,260.43  96.403,195.472  C  91.296,130.514  81.34,65.157  81.34,65.157  C  63.325,128.766  -13.557,195.472  -54.227,195.472  L  -81.34,195.472  C  -81.34,195.472  -62.868,353.976  -63.264,410  L  -65.246,690.119  L  67.696,700  z " />
<path transform="translate( 51.135, 0 )" style="stroke: hsl(161.4, 55%, 50%);" id="121"  d=" M  57.318,700  L  108.453,410  C  116.123,366.5  101.51,260.43  96.403,195.472  C  91.296,130.514  81.34,65.157  81.34,65.157  C  63.325,128.766  -13.557,195.472  -54.227,195.472  L  -81.34,195.472  C  -81.34,195.472  -60.879,354.918  -63.264,410  L  -75.19,685.409  L  57.318,700  z " />
<path transform="translate( 61.641, 0 )" style="stroke: hsl(188.3, 55%, 50%);" id="141"  d=" M  46.812,700  L  108.453,410  C  117.699,366.5  101.51,260.43  96.403,195.472  C  91.296,130.514  81.34,65.157  81.34,65.157  C  63.325,128.766  -13.557,195.472  -54.227,195.472  L  -81.34,195.472  C  -81.34,195.472  -58.898,355.86  -63.264,410  L  -85.092,680.697  L  46.812,700  z " />
<path transform="translate( 72.305, 0 )" style="stroke: hsl(215.2, 55%, 50%);" id="161"  d=" M  36.148,700  L  108.453,410  C  119.299,366.5  101.51,260.43  96.403,195.472  C  91.296,130.514  81.34,65.157  81.34,65.157  C  63.325,128.766  -13.557,195.472  -54.227,195.472  L  -81.34,195.472  C  -81.34,195.472  -56.921,356.802  -63.264,410  L  -94.981,675.989  L  36.148,700  z " />
<path transform="translate( 83.156, 0 )" style="stroke: hsl(242.1, 55%, 50%);" id="181"  d=" M  25.297,700  L  108.453,410  C  120.926,366.5  101.51,260.43  96.403,195.472  C  91.296,130.514  81.34,65.157  81.34,65.157  C  63.325,128.766  -13.557,195.472  -54.227,195.472  L  -81.34,195.472  C  -81.34,195.472  -54.94,357.742  -63.264,410  L  -104.884,671.291  L  25.297,700  z " />
<path transform="translate( 94.227, 0 )" style="stroke: hsl(269, 55%, 50%);" id="201"  d=" M  14.226,700  L  108.453,410  C  122.587,366.5  101.51,260.43  96.403,195.472  C  91.296,130.514  81.34,65.157  81.34,65.157  C  63.325,128.766  -13.557,195.472  -54.227,195.472  L  -81.34,195.472  C  -81.34,195.472  -52.95,358.678  -63.264,410  L  -114.834,666.612  L  14.226,700  z " />
<path transform="translate( 105.551, 0 )" style="stroke: hsl(295.9, 55%, 50%);" id="221"  d=" M  2.902,700  L  108.453,410  C  124.286,366.5  101.51,260.43  96.403,195.472  C  91.296,130.514  81.34,65.157  81.34,65.157  C  63.325,128.766  -13.557,195.472  -54.227,195.472  L  -81.34,195.472  C  -81.34,195.472  -50.944,359.608  -63.264,410  L  -124.864,661.958  L  2.902,700  z " />
    </g>
    <!-- End of group #undersleeveBlock -->
    
    <!-- Start of group #sampler-backBlock -->
    <g id="sampler-backBlock" >
    </g>
    <!-- End of group #sampler-backBlock -->
    
    <!-- Start of group #sampler-frontBlock -->
    <g id="sampler-frontBlock" >
    </g>
    <!-- End of group #sampler-frontBlock -->
    
    <!-- Start of group #sampler-topsleeveBlock -->
    <g id="sampler-topsleeveBlock" >
    </g>
    <!-- End of group #sampler-topsleeveBlock -->
    
    <!-- Start of group #sampler-undersleeveBlock -->
    <g id="sampler-undersleeveBlock" >
    </g>
    <!-- End of group #sampler-undersleeveBlock -->
</g>
<!-- End of group #patternContainer -->

</svg>

