<?xml version="1.0" encoding="UTF-8" standalone="no"?>
<svg
    xmlns="http://www.w3.org/2000/svg"
    xmlns:svg="http://www.w3.org/2000/svg"
    xmlns:xlink="http://www.w3.org/1999/xlink"
    xmlns:freesewing="http://freesewing.org/namespaces/freesewing" viewBox ="0 0 1424 770"
    width ="1424mm"
    height ="770mm"
    freesewing:version ="1.5.0"
    freesewing:origin ="joost.core.freesewing.org" 
>

<style type="text/css">
    <![CDATA[
    path { fill: none; stroke: #000000; stroke-opacity:1; stroke-width: 0.5; stroke-miterlimit:4; stroke-dashoffset:0; stroke-linecap:round; stroke-linejoin:round; }
    path.hidden { fill: none; stroke: none; }]]>
</style>


<!-- Start of group #patternContainer -->
<g id="patternContainer" >
    
    <!-- Start of group #backBlock -->
    <g id="backBlock" >
    </g>
    <!-- End of group #backBlock -->
    
    <!-- Start of group #frontBlock -->
    <g id="frontBlock" >
    </g>
    <!-- End of group #frontBlock -->
    
    <!-- Start of group #sleeveBlock -->
    <g id="sleeveBlock" >
    </g>
    <!-- End of group #sleeveBlock -->
    
    <!-- Start of group #front -->
    <g id="front"  transform=" translate(5 0.172)  translate(0 0) " >
        <path class="hidden" id="2"  d=" M  0,4.828  L  320,4.828  L  320,765  L  0,765  z " />
<path transform="translate( 0, 0 )" style="stroke: hsl(26.9, 55%, 50%);" id="37"  d=" M  0,528.5  L  109,528.5  L  182.575,699.975  L  182.575,765 " />
<path transform="translate( 0, 0 )" style="stroke: hsl(26.9, 55%, 50%);" id="38"  d=" M  0,99  L  0,317  L  0,540  L  0,765  L  272.5,765  C  257.5,540  280,317  280,317  C  266.5,317  259.801,311.201  245.8,297.2  C  231.799,283.199  221,215.5  221,168.5  C  221,121.5  233.176,37.332  235,27.5  L  112.8,4.828  C  110.068,19.555  86.777,99  0,99  z " />
<path transform="translate( 0, 0 )" style="stroke: hsl(53.8, 55%, 50%);" id="77"  d=" M  0,528.5  L  109,528.5  L  182.575,699.975  L  182.575,765 " />
<path transform="translate( 0, 0 )" style="stroke: hsl(53.8, 55%, 50%);" id="78"  d=" M  0,99  L  0,317  L  0,540  L  0,765  L  272.5,765  C  257.5,540  284,317  284,317  C  269.6,317  261.824,310.922  247.151,296.249  C  232.478,281.576  221.4,215.5  221.4,168.5  C  221.4,121.5  233.176,37.332  235,27.5  L  112.8,4.828  C  110.068,19.555  86.777,99  0,99  z " />
<path transform="translate( 0, 0 )" style="stroke: hsl(80.7, 55%, 50%);" id="117"  d=" M  0,528.5  L  109,528.5  L  182.575,699.975  L  182.575,765 " />
<path transform="translate( 0, 0 )" style="stroke: hsl(80.7, 55%, 50%);" id="118"  d=" M  0,99  L  0,317  L  0,540  L  0,765  L  272.5,765  C  257.5,540  288,317  288,317  C  272.7,317  263.791,310.653  248.469,295.331  C  233.147,280.009  221.8,215.5  221.8,168.5  C  221.8,121.5  233.176,37.332  235,27.5  L  112.8,4.828  C  110.068,19.555  86.777,99  0,99  z " />
<path transform="translate( 0, 0 )" style="stroke: hsl(107.6, 55%, 50%);" id="157"  d=" M  0,528.5  L  109,528.5  L  182.575,699.975  L  182.575,765 " />
<path transform="translate( 0, 0 )" style="stroke: hsl(107.6, 55%, 50%);" id="158"  d=" M  0,99  L  0,317  L  0,540  L  0,765  L  272.5,765  C  257.5,540  292,317  292,317  C  275.8,317  265.707,310.393  249.757,294.443  C  233.807,278.493  222.2,215.5  222.2,168.5  C  222.2,121.5  233.176,37.332  235,27.5  L  112.8,4.828  C  110.068,19.555  86.777,99  0,99  z " />
<path transform="translate( 0, 0 )" style="stroke: hsl(134.5, 55%, 50%);" id="197"  d=" M  0,528.5  L  109,528.5  L  182.575,699.975  L  182.575,765 " />
<path transform="translate( 0, 0 )" style="stroke: hsl(134.5, 55%, 50%);" id="198"  d=" M  0,99  L  0,317  L  0,540  L  0,765  L  272.5,765  C  257.5,540  296,317  296,317  C  278.9,317  267.572,310.142  251.015,293.585  C  234.458,277.028  222.6,215.5  222.6,168.5  C  222.6,121.5  233.176,37.332  235,27.5  L  112.8,4.828  C  110.068,19.555  86.777,99  0,99  z " />
<path transform="translate( 0, 0 )" style="stroke: hsl(161.4, 55%, 50%);" id="237"  d=" M  0,528.5  L  109,528.5  L  182.575,699.975  L  182.575,765 " />
<path transform="translate( 0, 0 )" style="stroke: hsl(161.4, 55%, 50%);" id="238"  d=" M  0,99  L  0,317  L  0,540  L  0,765  L  272.5,765  C  257.5,540  300,317  300,317  C  282,317  269.389,309.899  252.245,292.755  C  235.101,275.611  223,215.5  223,168.5  C  223,121.5  233.176,37.332  235,27.5  L  112.8,4.828  C  110.068,19.555  86.777,99  0,99  z " />
<path transform="translate( 0, 0 )" style="stroke: hsl(188.3, 55%, 50%);" id="277"  d=" M  0,528.5  L  109,528.5  L  182.575,699.975  L  182.575,765 " />
<path transform="translate( 0, 0 )" style="stroke: hsl(188.3, 55%, 50%);" id="278"  d=" M  0,99  L  0,317  L  0,540  L  0,765  L  272.5,765  C  257.5,540  304,317  304,317  C  285.1,317  271.16,309.664  253.448,291.952  C  235.736,274.24  223.4,215.5  223.4,168.5  C  223.4,121.5  233.176,37.332  235,27.5  L  112.8,4.828  C  110.068,19.555  86.777,99  0,99  z " />
<path transform="translate( 0, 0 )" style="stroke: hsl(215.2, 55%, 50%);" id="317"  d=" M  0,528.5  L  109,528.5  L  182.575,699.975  L  182.575,765 " />
<path transform="translate( 0, 0 )" style="stroke: hsl(215.2, 55%, 50%);" id="318"  d=" M  0,99  L  0,317  L  0,540  L  0,765  L  272.5,765  C  257.5,540  308,317  308,317  C  288.2,317  272.888,309.436  254.626,291.174  C  236.364,272.912  223.8,215.5  223.8,168.5  C  223.8,121.5  233.176,37.332  235,27.5  L  112.8,4.828  C  110.068,19.555  86.777,99  0,99  z " />
<path transform="translate( 0, 0 )" style="stroke: hsl(242.1, 55%, 50%);" id="357"  d=" M  0,528.5  L  109,528.5  L  182.575,699.975  L  182.575,765 " />
<path transform="translate( 0, 0 )" style="stroke: hsl(242.1, 55%, 50%);" id="358"  d=" M  0,99  L  0,317  L  0,540  L  0,765  L  272.5,765  C  257.5,540  312,317  312,317  C  291.3,317  274.575,309.215  255.78,290.42  C  236.985,271.625  224.2,215.5  224.2,168.5  C  224.2,121.5  233.176,37.332  235,27.5  L  112.8,4.828  C  110.068,19.555  86.777,99  0,99  z " />
<path transform="translate( 0, 0 )" style="stroke: hsl(269, 55%, 50%);" id="397"  d=" M  0,528.5  L  109,528.5  L  182.575,699.975  L  182.575,765 " />
<path transform="translate( 0, 0 )" style="stroke: hsl(269, 55%, 50%);" id="398"  d=" M  0,99  L  0,317  L  0,540  L  0,765  L  272.5,765  C  257.5,540  316,317  316,317  C  294.4,317  276.223,309.001  256.911,289.689  C  237.599,270.377  224.6,215.5  224.6,168.5  C  224.6,121.5  233.176,37.332  235,27.5  L  112.8,4.828  C  110.068,19.555  86.777,99  0,99  z " />
<path transform="translate( 0, 0 )" style="stroke: hsl(295.9, 55%, 50%);" id="437"  d=" M  0,528.5  L  109,528.5  L  182.575,699.975  L  182.575,765 " />
<path transform="translate( 0, 0 )" style="stroke: hsl(295.9, 55%, 50%);" id="438"  d=" M  0,99  L  0,317  L  0,540  L  0,765  L  272.5,765  C  257.5,540  320,317  320,317  C  297.5,317  277.831,308.793  258.019,288.981  C  238.207,269.169  225,215.5  225,168.5  C  225,121.5  233.176,37.332  235,27.5  L  112.8,4.828  C  110.068,19.555  86.777,99  0,99  z " />
    </g>
    <!-- End of group #front -->
    
    <!-- Start of group #back -->
    <g id="back"  transform=" translate(5 0.172)  translate(330 0) " >
        <path class="hidden" id="3"  d=" M  0,4.828  L  320,4.828  L  320,765  L  0,765  z " />
<path transform="translate( 0, 0 )" style="stroke: hsl(26.9, 55%, 50%);" id="39"  d=" M  0,20  L  0,317  L  0,540  L  0,765  L  272.5,765  C  257.5,540  280,317  280,317  C  266.5,317  259.801,311.201  245.8,297.2  C  231.799,283.199  226,215.5  226,168.5  C  226,121.5  233.176,37.332  235,27.5  L  112.8,4.828  C  110.068,19.555  0,20  0,20  z " />
<path transform="translate( 0, 0 )" style="stroke: hsl(53.8, 55%, 50%);" id="79"  d=" M  0,20  L  0,317  L  0,540  L  0,765  L  272.5,765  C  257.5,540  284,317  284,317  C  269.6,317  261.824,310.922  247.151,296.249  C  232.478,281.576  226.4,215.5  226.4,168.5  C  226.4,121.5  233.176,37.332  235,27.5  L  112.8,4.828  C  110.068,19.555  0,20  0,20  z " />
<path transform="translate( 0, 0 )" style="stroke: hsl(80.7, 55%, 50%);" id="119"  d=" M  0,20  L  0,317  L  0,540  L  0,765  L  272.5,765  C  257.5,540  288,317  288,317  C  272.7,317  263.791,310.653  248.469,295.331  C  233.147,280.009  226.8,215.5  226.8,168.5  C  226.8,121.5  233.176,37.332  235,27.5  L  112.8,4.828  C  110.068,19.555  0,20  0,20  z " />
<path transform="translate( 0, 0 )" style="stroke: hsl(107.6, 55%, 50%);" id="159"  d=" M  0,20  L  0,317  L  0,540  L  0,765  L  272.5,765  C  257.5,540  292,317  292,317  C  275.8,317  265.707,310.393  249.757,294.443  C  233.807,278.493  227.2,215.5  227.2,168.5  C  227.2,121.5  233.176,37.332  235,27.5  L  112.8,4.828  C  110.068,19.555  0,20  0,20  z " />
<path transform="translate( 0, 0 )" style="stroke: hsl(134.5, 55%, 50%);" id="199"  d=" M  0,20  L  0,317  L  0,540  L  0,765  L  272.5,765  C  257.5,540  296,317  296,317  C  278.9,317  267.572,310.142  251.015,293.585  C  234.458,277.028  227.6,215.5  227.6,168.5  C  227.6,121.5  233.176,37.332  235,27.5  L  112.8,4.828  C  110.068,19.555  0,20  0,20  z " />
<path transform="translate( 0, 0 )" style="stroke: hsl(161.4, 55%, 50%);" id="239"  d=" M  0,20  L  0,317  L  0,540  L  0,765  L  272.5,765  C  257.5,540  300,317  300,317  C  282,317  269.389,309.899  252.245,292.755  C  235.101,275.611  228,215.5  228,168.5  C  228,121.5  233.176,37.332  235,27.5  L  112.8,4.828  C  110.068,19.555  0,20  0,20  z " />
<path transform="translate( 0, 0 )" style="stroke: hsl(188.3, 55%, 50%);" id="279"  d=" M  0,20  L  0,317  L  0,540  L  0,765  L  272.5,765  C  257.5,540  304,317  304,317  C  285.1,317  271.16,309.664  253.448,291.952  C  235.736,274.24  228.4,215.5  228.4,168.5  C  228.4,121.5  233.176,37.332  235,27.5  L  112.8,4.828  C  110.068,19.555  0,20  0,20  z " />
<path transform="translate( 0, 0 )" style="stroke: hsl(215.2, 55%, 50%);" id="319"  d=" M  0,20  L  0,317  L  0,540  L  0,765  L  272.5,765  C  257.5,540  308,317  308,317  C  288.2,317  272.888,309.436  254.626,291.174  C  236.364,272.912  228.8,215.5  228.8,168.5  C  228.8,121.5  233.176,37.332  235,27.5  L  112.8,4.828  C  110.068,19.555  0,20  0,20  z " />
<path transform="translate( 0, 0 )" style="stroke: hsl(242.1, 55%, 50%);" id="359"  d=" M  0,20  L  0,317  L  0,540  L  0,765  L  272.5,765  C  257.5,540  312,317  312,317  C  291.3,317  274.575,309.215  255.78,290.42  C  236.985,271.625  229.2,215.5  229.2,168.5  C  229.2,121.5  233.176,37.332  235,27.5  L  112.8,4.828  C  110.068,19.555  0,20  0,20  z " />
<path transform="translate( 0, 0 )" style="stroke: hsl(269, 55%, 50%);" id="399"  d=" M  0,20  L  0,317  L  0,540  L  0,765  L  272.5,765  C  257.5,540  316,317  316,317  C  294.4,317  276.223,309.001  256.911,289.689  C  237.599,270.377  229.6,215.5  229.6,168.5  C  229.6,121.5  233.176,37.332  235,27.5  L  112.8,4.828  C  110.068,19.555  0,20  0,20  z " />
<path transform="translate( 0, 0 )" style="stroke: hsl(295.9, 55%, 50%);" id="439"  d=" M  0,20  L  0,317  L  0,540  L  0,765  L  272.5,765  C  257.5,540  320,317  320,317  C  297.5,317  277.831,308.793  258.019,288.981  C  238.207,269.169  230,215.5  230,168.5  C  230,121.5  233.176,37.332  235,27.5  L  112.8,4.828  C  110.068,19.555  0,20  0,20  z " />
    </g>
    <!-- End of group #back -->
    
    <!-- Start of group #sleeve -->
    <g id="sleeve"  transform=" translate(212.333 5)  translate(660 0) " >
        <path class="hidden" id="4"  d=" M  -207.333,0  L  207.333,0  L  207.333,690  L  -207.333,690  z " />
<path transform="translate( 0, 0 )" style="stroke: hsl(26.9, 55%, 50%);" id="40"  d=" M  -117.5,690  L  -201.107,226.927  C  -201.107,226.927  -162.089,178.99  -146.71,156.616  C  -131.331,134.242  -100.554,80.642  -100.554,80.642  C  -100.554,80.642  -80.842,45.605  -59.662,28.619  C  -38.482,11.633  -27.15,-0  5,0  C  27.15,0  48.102,12.547  68.221,30.777  C  88.34,49.007  105.554,95.642  105.554,95.642  C  105.554,95.642  125.225,148.16  141.202,170.111  C  157.179,192.062  201.107,226.927  201.107,226.927  L  117.5,690  z " />
<path transform="translate( 0, 0 )" style="stroke: hsl(53.8, 55%, 50%);" id="80"  d=" M  -117.5,690  L  -201.674,229.196  C  -201.674,229.196  -162.469,180.605  -147.125,158.115  C  -131.781,135.625  -100.837,81.399  -100.837,81.399  C  -100.837,81.399  -81.025,46.128  -59.84,29.027  C  -38.655,11.926  -27.226,-0  5,0  C  27.226,0  48.278,12.862  68.406,31.195  C  88.534,49.528  105.837,96.399  105.837,96.399  C  105.837,96.399  125.66,149.499  141.593,171.576  C  157.526,193.653  201.674,229.196  201.674,229.196  L  117.5,690  z " />
<path transform="translate( 0, 0 )" style="stroke: hsl(80.7, 55%, 50%);" id="120"  d=" M  -117.5,690  L  -202.247,231.488  C  -202.247,231.488  -162.854,182.236  -147.545,159.629  C  -132.236,137.022  -101.124,82.163  -101.124,82.163  C  -101.124,82.163  -81.211,46.656  -60.021,29.439  C  -38.831,12.222  -27.303,-0  5,0  C  27.303,0  48.455,13.181  68.593,31.618  C  88.731,50.055  106.124,97.163  106.124,97.163  C  106.124,97.163  126.099,150.851  141.988,173.055  C  157.877,195.259  202.247,231.488  202.247,231.488  L  117.5,690  z " />
<path transform="translate( 0, 0 )" style="stroke: hsl(107.6, 55%, 50%);" id="160"  d=" M  -117.5,690  L  -202.916,234.163  C  -202.916,234.163  -163.306,184.139  -148.036,161.396  C  -132.766,138.653  -101.458,83.054  -101.458,83.054  C  -101.458,83.054  -81.428,47.272  -60.231,29.92  C  -39.034,12.568  -27.394,-0  5,0  C  27.394,0  48.662,13.551  68.811,32.11  C  88.96,50.669  106.458,98.054  106.458,98.054  C  106.458,98.054  126.61,152.431  142.449,174.781  C  158.288,197.131  202.916,234.163  202.916,234.163  L  117.5,690  z " />
<path transform="translate( 0, 0 )" style="stroke: hsl(134.5, 55%, 50%);" id="200"  d=" M  -117.5,690  L  -203.501,236.505  C  -203.501,236.505  -163.701,185.804  -148.465,162.943  C  -133.229,140.082  -101.751,83.835  -101.751,83.835  C  -101.751,83.835  -81.616,47.81  -60.413,30.34  C  -39.21,12.87  -27.473,-0  5,0  C  27.473,0  48.842,13.875  69.001,32.54  C  89.16,51.205  106.751,98.835  106.751,98.835  C  106.751,98.835  127.057,153.818  142.853,176.295  C  158.649,198.772  203.501,236.505  203.501,236.505  L  117.5,690  z " />
<path transform="translate( 0, 0 )" style="stroke: hsl(161.4, 55%, 50%);" id="240"  d=" M  -117.5,690  L  -204.093,238.87  C  -204.093,238.87  -164.103,187.484  -148.9,164.505  C  -133.697,141.526  -102.047,84.623  -102.047,84.623  C  -102.047,84.623  -81.807,48.353  -60.598,30.765  C  -39.389,13.177  -27.553,-0  5,0  C  27.553,0  49.022,14.203  69.192,32.974  C  89.362,51.745  107.047,99.623  107.047,99.623  C  107.047,99.623  127.51,155.218  143.264,177.823  C  159.018,200.428  204.093,238.87  204.093,238.87  L  117.5,690  z " />
<path transform="translate( 0, 0 )" style="stroke: hsl(188.3, 55%, 50%);" id="280"  d=" M  -117.5,690  L  -204.783,241.631  C  -204.783,241.631  -164.57,189.446  -149.406,166.33  C  -134.242,143.214  -102.392,85.544  -102.392,85.544  C  -102.392,85.544  -82.029,48.986  -60.813,31.261  C  -39.597,13.536  -27.646,-0  5,0  C  27.646,0  49.233,14.587  69.415,33.482  C  89.597,52.377  107.392,100.544  107.392,100.544  C  107.392,100.544  128.037,156.856  143.742,179.608  C  159.447,202.36  204.783,241.631  204.783,241.631  L  117.5,690  z " />
<path transform="translate( 0, 0 )" style="stroke: hsl(215.2, 55%, 50%);" id="320"  d=" M  -117.5,690  L  -205.387,244.047  C  -205.387,244.047  -164.98,191.161  -149.85,167.926  C  -134.72,144.691  -102.694,86.349  -102.694,86.349  C  -102.694,86.349  -82.223,49.538  -61.001,31.694  C  -39.779,13.85  -27.727,-0  5,0  C  27.727,0  49.418,14.924  69.61,33.926  C  89.802,52.928  107.694,101.349  107.694,101.349  C  107.694,101.349  128.501,158.293  144.164,181.172  C  159.827,204.051  205.387,244.047  205.387,244.047  L  117.5,690  z " />
<path transform="translate( 0, 0 )" style="stroke: hsl(242.1, 55%, 50%);" id="360"  d=" M  -117.5,690  L  -206.092,246.868  C  -206.092,246.868  -165.462,193.163  -150.369,169.79  C  -135.276,146.417  -103.046,87.289  -103.046,87.289  C  -103.046,87.289  -82.447,50.181  -61.218,32.198  C  -39.989,14.215  -27.822,-0  5,0  C  27.822,0  49.631,15.316  69.835,34.443  C  90.039,53.57  108.046,102.289  108.046,102.289  C  108.046,102.289  129.039,159.97  144.654,182.997  C  160.269,206.024  206.092,246.868  206.092,246.868  L  117.5,690  z " />
<path transform="translate( 0, 0 )" style="stroke: hsl(269, 55%, 50%);" id="400"  d=" M  -117.5,690  L  -206.709,249.337  C  -206.709,249.337  -165.883,194.916  -150.823,171.423  C  -135.763,147.93  -103.355,88.112  -103.355,88.112  C  -103.355,88.112  -82.644,50.745  -61.408,32.641  C  -40.172,14.537  -27.906,-0  5,0  C  27.906,0  49.817,15.657  70.033,34.894  C  90.249,54.131  108.355,103.112  108.355,103.112  C  108.355,103.112  129.511,161.442  145.086,184.597  C  160.661,207.752  206.709,249.337  206.709,249.337  L  117.5,690  z " />
<path transform="translate( 0, 0 )" style="stroke: hsl(295.9, 55%, 50%);" id="440"  d=" M  -117.5,690  L  -207.333,251.83  C  -207.333,251.83  -166.31,196.684  -151.282,173.071  C  -136.254,149.458  -103.667,88.943  -103.667,88.943  C  -103.667,88.943  -82.843,51.313  -61.6,33.087  C  -40.357,14.861  -27.99,-0  5,0  C  27.99,0  50.005,16.004  70.232,35.351  C  90.459,54.698  108.667,103.943  108.667,103.943  C  108.667,103.943  129.988,162.928  145.522,186.212  C  161.056,209.496  207.333,251.83  207.333,251.83  L  117.5,690  z " />
    </g>
    <!-- End of group #sleeve -->
    
    <!-- Start of group #hood -->
    <g id="hood"  transform=" translate(10.142 353.1)  translate(1084.666 0) " >
        <path class="hidden" id="5"  d=" M  -5.142,-348.1  L  324.426,-348.1  L  324.426,0  L  -5.142,0  z " />
<path transform="translate( 0, 0 )" style="stroke: hsl(26.9, 55%, 50%);" id="41"  d=" M  0,0  L  -5.142,-58.775  C  -5.142,-58.775  79.65,-58.775  79.65,-348.1  C  274.276,-348.1  324.426,-267.86  324.426,-208.86  C  324.426,-149.86  274.276,-23.996  274.276,-23.996  L  0,0  z " />
<path transform="translate( 0, 0 )" style="stroke: hsl(53.8, 55%, 50%);" id="81"  d=" M  0,0  L  -5.142,-58.775  C  -5.142,-58.775  79.65,-58.775  79.65,-348.1  C  274.276,-348.1  324.426,-267.86  324.426,-208.86  C  324.426,-149.86  274.276,-23.996  274.276,-23.996  L  0,0  z " />
<path transform="translate( 0, 0 )" style="stroke: hsl(80.7, 55%, 50%);" id="121"  d=" M  0,0  L  -5.142,-58.775  C  -5.142,-58.775  79.65,-58.775  79.65,-348.1  C  274.276,-348.1  324.426,-267.86  324.426,-208.86  C  324.426,-149.86  274.276,-23.996  274.276,-23.996  L  0,0  z " />
<path transform="translate( 0, 0 )" style="stroke: hsl(107.6, 55%, 50%);" id="161"  d=" M  0,0  L  -5.142,-58.775  C  -5.142,-58.775  79.65,-58.775  79.65,-348.1  C  274.276,-348.1  324.426,-267.86  324.426,-208.86  C  324.426,-149.86  274.276,-23.996  274.276,-23.996  L  0,0  z " />
<path transform="translate( 0, 0 )" style="stroke: hsl(134.5, 55%, 50%);" id="201"  d=" M  0,0  L  -5.142,-58.775  C  -5.142,-58.775  79.65,-58.775  79.65,-348.1  C  274.276,-348.1  324.426,-267.86  324.426,-208.86  C  324.426,-149.86  274.276,-23.996  274.276,-23.996  L  0,0  z " />
<path transform="translate( 0, 0 )" style="stroke: hsl(161.4, 55%, 50%);" id="241"  d=" M  0,0  L  -5.142,-58.775  C  -5.142,-58.775  79.65,-58.775  79.65,-348.1  C  274.276,-348.1  324.426,-267.86  324.426,-208.86  C  324.426,-149.86  274.276,-23.996  274.276,-23.996  L  0,0  z " />
<path transform="translate( 0, 0 )" style="stroke: hsl(188.3, 55%, 50%);" id="281"  d=" M  0,0  L  -5.142,-58.775  C  -5.142,-58.775  79.65,-58.775  79.65,-348.1  C  274.276,-348.1  324.426,-267.86  324.426,-208.86  C  324.426,-149.86  274.276,-23.996  274.276,-23.996  L  0,0  z " />
<path transform="translate( 0, 0 )" style="stroke: hsl(215.2, 55%, 50%);" id="321"  d=" M  0,0  L  -5.142,-58.775  C  -5.142,-58.775  79.65,-58.775  79.65,-348.1  C  274.276,-348.1  324.426,-267.86  324.426,-208.86  C  324.426,-149.86  274.276,-23.996  274.276,-23.996  L  0,0  z " />
<path transform="translate( 0, 0 )" style="stroke: hsl(242.1, 55%, 50%);" id="361"  d=" M  0,0  L  -5.142,-58.775  C  -5.142,-58.775  79.65,-58.775  79.65,-348.1  C  274.276,-348.1  324.426,-267.86  324.426,-208.86  C  324.426,-149.86  274.276,-23.996  274.276,-23.996  L  0,0  z " />
<path transform="translate( 0, 0 )" style="stroke: hsl(269, 55%, 50%);" id="401"  d=" M  0,0  L  -5.142,-58.775  C  -5.142,-58.775  79.65,-58.775  79.65,-348.1  C  274.276,-348.1  324.426,-267.86  324.426,-208.86  C  324.426,-149.86  274.276,-23.996  274.276,-23.996  L  0,0  z " />
<path transform="translate( 0, 0 )" style="stroke: hsl(295.9, 55%, 50%);" id="441"  d=" M  0,0  L  -5.142,-58.775  C  -5.142,-58.775  79.65,-58.775  79.65,-348.1  C  274.276,-348.1  324.426,-267.86  324.426,-208.86  C  324.426,-149.86  274.276,-23.996  274.276,-23.996  L  0,0  z " />
    </g>
    <!-- End of group #hood -->
    
    <!-- Start of group #pouch -->
    <g id="pouch" >
    </g>
    <!-- End of group #pouch -->
    
    <!-- Start of group #sampler-front -->
    <g id="sampler-front" >
    </g>
    <!-- End of group #sampler-front -->
    
    <!-- Start of group #sampler-back -->
    <g id="sampler-back" >
    </g>
    <!-- End of group #sampler-back -->
    
    <!-- Start of group #sampler-sleeve -->
    <g id="sampler-sleeve" >
    </g>
    <!-- End of group #sampler-sleeve -->
    
    <!-- Start of group #sampler-hood -->
    <g id="sampler-hood" >
    </g>
    <!-- End of group #sampler-hood -->
</g>
<!-- End of group #patternContainer -->

</svg>

