<?xml version="1.0" encoding="UTF-8" standalone="no"?>
<svg
    xmlns="http://www.w3.org/2000/svg"
    xmlns:svg="http://www.w3.org/2000/svg"
    xmlns:xlink="http://www.w3.org/1999/xlink"
    xmlns:freesewing="http://freesewing.org/namespaces/freesewing" viewBox ="0 0 1904 1191"
    width ="1904mm"
    height ="1191mm"
    freesewing:version ="1.5.0"
    freesewing:origin ="joost.core.freesewing.org" 
>

<style type="text/css">
    <![CDATA[
    path { fill: none; stroke: #000000; stroke-opacity:1; stroke-width: 0.5; stroke-miterlimit:4; stroke-dashoffset:0; stroke-linecap:round; stroke-linejoin:round; }
    path.hidden { fill: none; stroke: none; }]]>
</style>


<!-- Start of group #patternContainer -->
<g id="patternContainer" >
    
    <!-- Start of group #backBlock -->
    <g id="backBlock" >
    </g>
    <!-- End of group #backBlock -->
    
    <!-- Start of group #frontBlock -->
    <g id="frontBlock" >
    </g>
    <!-- End of group #frontBlock -->
    
    <!-- Start of group #sleeveBlock -->
    <g id="sleeveBlock" >
    </g>
    <!-- End of group #sleeveBlock -->
    
    <!-- Start of group #front -->
    <g id="front"  transform=" translate(5 -50.608)  translate(1022.371 0) " >
        <path class="hidden" id="2"  d=" M  0,55.608  L  310,55.608  L  310,750  L  0,750  z " />
<path transform="translate( 0, 0 )" style="stroke: hsl(26.9, 55%, 50%);" id="122"  d=" M  -0,109  L  0,285  L  0,500  L  -0,750  L  260,750  L  260,285  C  251.25,285  248.633,280.945  238.844,271.156  C  229.055,261.367  89.156,55.608  89.156,55.608  C  75,82.128  48.595,109  -0,109  z " />
<path transform="translate( 0, 0 )" style="stroke: hsl(53.8, 55%, 50%);" id="252"  d=" M  -0,109  L  0,285  L  0,500  L  -0,750  L  265,750  L  265,285  C  255,285  251.226,280.5  240.363,269.637  C  229.5,258.774  89.156,55.608  89.156,55.608  C  75,82.128  48.595,109  -0,109  z " />
<path transform="translate( 0, 0 )" style="stroke: hsl(80.7, 55%, 50%);" id="382"  d=" M  -0,109  L  0,285  L  0,500  L  -0,750  L  270,750  L  270,285  C  258.75,285  253.673,280.081  241.796,268.204  C  229.919,256.327  89.156,55.608  89.156,55.608  C  75,82.128  48.595,109  -0,109  z " />
<path transform="translate( 0, 0 )" style="stroke: hsl(107.6, 55%, 50%);" id="512"  d=" M  -0,109  L  0,285  L  0,500  L  -0,750  L  275,750  L  275,285  C  262.5,285  255.986,279.684  243.151,266.849  C  230.316,254.014  89.156,55.608  89.156,55.608  C  75,82.128  48.595,109  -0,109  z " />
<path transform="translate( 0, 0 )" style="stroke: hsl(134.5, 55%, 50%);" id="642"  d=" M  -0,109  L  0,285  L  0,500  L  -0,750  L  280,750  L  280,285  C  266.25,285  258.174,279.308  244.433,265.567  C  230.692,251.826  89.156,55.608  89.156,55.608  C  75,82.128  48.595,109  -0,109  z " />
<path transform="translate( 0, 0 )" style="stroke: hsl(161.4, 55%, 50%);" id="772"  d=" M  -0,109  L  0,285  L  0,500  L  -0,750  L  285,750  L  285,285  C  270,285  260.252,278.952  245.65,264.35  C  231.048,249.748  89.156,55.608  89.156,55.608  C  75,82.128  48.595,109  -0,109  z " />
<path transform="translate( 0, 0 )" style="stroke: hsl(188.3, 55%, 50%);" id="902"  d=" M  -0,109  L  0,285  L  0,500  L  -0,750  L  290,750  L  290,285  C  273.75,285  262.222,278.614  246.804,263.196  C  231.386,247.778  89.156,55.608  89.156,55.608  C  75,82.128  48.595,109  -0,109  z " />
<path transform="translate( 0, 0 )" style="stroke: hsl(215.2, 55%, 50%);" id="1032"  d=" M  -0,109  L  0,285  L  0,500  L  -0,750  L  295,750  L  295,285  C  277.5,285  264.094,278.292  247.901,262.099  C  231.708,245.906  89.156,55.608  89.156,55.608  C  75,82.128  48.595,109  -0,109  z " />
<path transform="translate( 0, 0 )" style="stroke: hsl(242.1, 55%, 50%);" id="1162"  d=" M  -0,109  L  0,285  L  0,500  L  -0,750  L  300,750  L  300,285  C  281.25,285  265.878,277.986  248.946,261.054  C  232.014,244.122  89.156,55.608  89.156,55.608  C  75,82.128  48.595,109  -0,109  z " />
<path transform="translate( 0, 0 )" style="stroke: hsl(269, 55%, 50%);" id="1292"  d=" M  -0,109  L  0,285  L  0,500  L  -0,750  L  305,750  L  305,285  C  285,285  267.577,277.695  249.941,260.059  C  232.305,242.423  89.156,55.608  89.156,55.608  C  75,82.128  48.595,109  -0,109  z " />
<path transform="translate( 0, 0 )" style="stroke: hsl(295.9, 55%, 50%);" id="1422"  d=" M  -0,109  L  0,285  L  0,500  L  -0,750  L  310,750  L  310,285  C  288.75,285  269.199,277.417  250.891,259.109  C  232.583,240.801  89.156,55.608  89.156,55.608  C  75,82.128  48.595,109  -0,109  z " />
    </g>
    <!-- End of group #front -->
    
    <!-- Start of group #back -->
    <g id="back"  transform=" translate(5 -23.212)  translate(702.371 0) " >
        <path class="hidden" id="3"  d=" M  0,28.212  L  310,28.212  L  310,750  L  0,750  z " />
<path transform="translate( 0, 0 )" style="stroke: hsl(26.9, 55%, 50%);" id="123"  d=" M  -0,30  L  0,285  L  0,500  L  -0,750  L  260,750  L  260,285  C  251.25,285  248.633,280.945  238.844,271.156  C  229.055,261.367  58.457,28.212  58.457,28.212  C  44.38,29.438  25.165,30  -0,30  z " />
<path transform="translate( 0, 0 )" style="stroke: hsl(53.8, 55%, 50%);" id="253"  d=" M  -0,30  L  0,285  L  0,500  L  -0,750  L  265,750  L  265,285  C  255,285  251.226,280.5  240.363,269.637  C  229.5,258.774  58.457,28.212  58.457,28.212  C  44.38,29.438  25.165,30  -0,30  z " />
<path transform="translate( 0, 0 )" style="stroke: hsl(80.7, 55%, 50%);" id="383"  d=" M  -0,30  L  0,285  L  0,500  L  -0,750  L  270,750  L  270,285  C  258.75,285  253.673,280.081  241.796,268.204  C  229.919,256.327  58.457,28.212  58.457,28.212  C  44.38,29.438  25.165,30  -0,30  z " />
<path transform="translate( 0, 0 )" style="stroke: hsl(107.6, 55%, 50%);" id="513"  d=" M  -0,30  L  0,285  L  0,500  L  -0,750  L  275,750  L  275,285  C  262.5,285  255.986,279.684  243.151,266.849  C  230.316,254.014  58.457,28.212  58.457,28.212  C  44.38,29.438  25.165,30  -0,30  z " />
<path transform="translate( 0, 0 )" style="stroke: hsl(134.5, 55%, 50%);" id="643"  d=" M  -0,30  L  0,285  L  0,500  L  -0,750  L  280,750  L  280,285  C  266.25,285  258.174,279.308  244.433,265.567  C  230.692,251.826  58.457,28.212  58.457,28.212  C  44.38,29.438  25.165,30  -0,30  z " />
<path transform="translate( 0, 0 )" style="stroke: hsl(161.4, 55%, 50%);" id="773"  d=" M  -0,30  L  0,285  L  0,500  L  -0,750  L  285,750  L  285,285  C  270,285  260.252,278.952  245.65,264.35  C  231.048,249.748  58.457,28.212  58.457,28.212  C  44.38,29.438  25.165,30  -0,30  z " />
<path transform="translate( 0, 0 )" style="stroke: hsl(188.3, 55%, 50%);" id="903"  d=" M  -0,30  L  0,285  L  0,500  L  -0,750  L  290,750  L  290,285  C  273.75,285  262.222,278.614  246.804,263.196  C  231.386,247.778  58.457,28.212  58.457,28.212  C  44.38,29.438  25.165,30  -0,30  z " />
<path transform="translate( 0, 0 )" style="stroke: hsl(215.2, 55%, 50%);" id="1033"  d=" M  -0,30  L  0,285  L  0,500  L  -0,750  L  295,750  L  295,285  C  277.5,285  264.094,278.292  247.901,262.099  C  231.708,245.906  58.457,28.212  58.457,28.212  C  44.38,29.438  25.165,30  -0,30  z " />
<path transform="translate( 0, 0 )" style="stroke: hsl(242.1, 55%, 50%);" id="1163"  d=" M  -0,30  L  0,285  L  0,500  L  -0,750  L  300,750  L  300,285  C  281.25,285  265.878,277.986  248.946,261.054  C  232.014,244.122  58.457,28.212  58.457,28.212  C  44.38,29.438  25.165,30  -0,30  z " />
<path transform="translate( 0, 0 )" style="stroke: hsl(269, 55%, 50%);" id="1293"  d=" M  -0,30  L  0,285  L  0,500  L  -0,750  L  305,750  L  305,285  C  285,285  267.577,277.695  249.941,260.059  C  232.305,242.423  58.457,28.212  58.457,28.212  C  44.38,29.438  25.165,30  -0,30  z " />
<path transform="translate( 0, 0 )" style="stroke: hsl(295.9, 55%, 50%);" id="1423"  d=" M  -0,30  L  0,285  L  0,500  L  -0,750  L  310,750  L  310,285  C  288.75,285  269.199,277.417  250.891,259.109  C  232.583,240.801  58.457,28.212  58.457,28.212  C  44.38,29.438  25.165,30  -0,30  z " />
    </g>
    <!-- End of group #back -->
    
    <!-- Start of group #sleeve -->
    <g id="sleeve"  transform=" translate(267.76 178.451)  translate(170 0) " >
        <path class="hidden" id="4"  d=" M  -262.76,-173.451  L  259.611,-173.451  L  259.611,693.126  L  -262.76,693.126  z " />
<path transform="translate( 0, 0 )" style="stroke: hsl(26.9, 55%, 50%);" id="124"  d=" M  -142.5,660.864  L  -244.515,79.614  C  -211.672,79.614  -144.681,-53.146  -32.905,-173.451  C  -23.106,-138.076  -14.199,-130.753  0,-130.753  C  8.8,-130.753  30.605,-130.775  54.241,-138.269  C  155.648,-35.834  212.455,79.614  241.283,79.614  L  142.5,660.864  z " />
<path transform="translate( 0, 0 )" style="stroke: hsl(53.8, 55%, 50%);" id="254"  d=" M  -142.5,663.967  L  -246.078,82.717  C  -212.887,82.717  -145.008,-51.08  -32.905,-173.451  C  -23.106,-138.076  -14.199,-130.753  0,-130.753  C  8.8,-130.753  30.605,-130.775  54.241,-138.269  C  156.01,-33.797  213.684,82.717  242.853,82.717  L  142.5,663.967  z " />
<path transform="translate( 0, 0 )" style="stroke: hsl(80.7, 55%, 50%);" id="384"  d=" M  -142.5,667.099  L  -247.71,85.849  C  -214.164,85.849  -145.38,-49.023  -32.905,-173.451  C  -23.106,-138.076  -14.199,-130.753  0,-130.753  C  8.8,-130.753  30.605,-130.775  54.241,-138.269  C  156.416,-31.765  214.973,85.849  244.491,85.849  L  142.5,667.099  z " />
<path transform="translate( 0, 0 )" style="stroke: hsl(107.6, 55%, 50%);" id="514"  d=" M  -142.5,670.259  L  -249.406,89.009  C  -215.5,89.009  -145.796,-46.972  -32.905,-173.451  C  -23.106,-138.076  -14.199,-130.753  0,-130.753  C  8.8,-130.753  30.605,-130.775  54.241,-138.269  C  156.863,-29.739  216.321,89.009  246.194,89.009  L  142.5,670.259  z " />
<path transform="translate( 0, 0 )" style="stroke: hsl(134.5, 55%, 50%);" id="644"  d=" M  -142.5,673.446  L  -251.162,92.196  C  -216.889,92.196  -146.251,-44.927  -32.905,-173.451  C  -23.106,-138.076  -14.199,-130.753  0,-130.753  C  8.8,-130.753  30.605,-130.775  54.241,-138.269  C  157.348,-27.717  217.724,92.196  247.958,92.196  L  142.5,673.446  z " />
<path transform="translate( 0, 0 )" style="stroke: hsl(161.4, 55%, 50%);" id="774"  d=" M  -142.5,676.662  L  -252.973,95.412  C  -218.328,95.412  -146.743,-42.885  -32.905,-173.451  C  -23.106,-138.076  -14.199,-130.753  0,-130.753  C  8.8,-130.753  30.605,-130.775  54.241,-138.269  C  157.869,-25.694  219.175,95.412  249.777,95.412  L  142.5,676.662  z " />
<path transform="translate( 0, 0 )" style="stroke: hsl(188.3, 55%, 50%);" id="904"  d=" M  -142.5,679.904  L  -254.838,98.654  C  -219.816,98.654  -147.27,-40.845  -32.905,-173.451  C  -23.106,-138.076  -14.199,-130.753  0,-130.753  C  8.8,-130.753  30.605,-130.775  54.241,-138.269  C  158.424,-23.674  220.676,98.654  251.651,98.654  L  142.5,679.904  z " />
<path transform="translate( 0, 0 )" style="stroke: hsl(215.2, 55%, 50%);" id="1034"  d=" M  -142.5,683.173  L  -256.752,101.923  C  -221.347,101.923  -147.831,-38.806  -32.905,-173.451  C  -23.106,-138.076  -14.199,-130.753  0,-130.753  C  8.8,-130.753  30.605,-130.775  54.241,-138.269  C  159.01,-21.654  222.221,101.923  253.574,101.923  L  142.5,683.173  z " />
<path transform="translate( 0, 0 )" style="stroke: hsl(242.1, 55%, 50%);" id="1164"  d=" M  -142.5,686.466  L  -258.712,105.216  C  -222.92,105.216  -148.421,-36.768  -32.905,-173.451  C  -23.106,-138.076  -14.199,-130.753  0,-130.753  C  8.8,-130.753  30.605,-130.775  54.241,-138.269  C  159.626,-19.632  223.806,105.216  255.543,105.216  L  142.5,686.466  z " />
<path transform="translate( 0, 0 )" style="stroke: hsl(269, 55%, 50%);" id="1294"  d=" M  -142.5,689.784  L  -260.716,108.534  C  -224.532,108.534  -149.041,-34.729  -32.905,-173.451  C  -23.106,-138.076  -14.199,-130.753  0,-130.753  C  8.8,-130.753  30.605,-130.775  54.241,-138.269  C  160.269,-17.609  225.432,108.534  257.557,108.534  L  142.5,689.784  z " />
<path transform="translate( 0, 0 )" style="stroke: hsl(295.9, 55%, 50%);" id="1424"  d=" M  -142.5,693.126  L  -262.76,111.876  C  -226.18,111.876  -149.688,-32.689  -32.905,-173.451  C  -23.106,-138.076  -14.199,-130.753  0,-130.753  C  8.8,-130.753  30.605,-130.775  54.241,-138.269  C  160.938,-15.584  227.093,111.876  259.611,111.876  L  142.5,693.126  z " />
    </g>
    <!-- End of group #sleeve -->
    
    <!-- Start of group #pocket -->
    <g id="pocket"  transform=" translate(5 -568.5)  translate(1572.371 723.679) " >
        <path class="hidden" id="5"  d=" M  0,573.5  L  201.5,573.5  L  201.5,750  L  0,750  z " />
<path transform="translate( 0, 0 )" style="stroke: hsl(26.9, 55%, 50%);" id="125"  d=" M  0,606  L  144,606  C  144,676.5  169,700  169,700  L  144,750  L  -0,750  z " />
<path transform="translate( 0, 0 )" style="stroke: hsl(53.8, 55%, 50%);" id="255"  d=" M  0,602.75  L  147.25,602.75  C  147.25,675.687  172.25,700  172.25,700  L  147.25,750  L  -0,750  z " />
<path transform="translate( 0, 0 )" style="stroke: hsl(80.7, 55%, 50%);" id="385"  d=" M  0,599.5  L  150.5,599.5  C  150.5,674.875  175.5,700  175.5,700  L  150.5,750  L  -0,750  z " />
<path transform="translate( 0, 0 )" style="stroke: hsl(107.6, 55%, 50%);" id="515"  d=" M  0,596.25  L  153.75,596.25  C  153.75,674.062  178.75,700  178.75,700  L  153.75,750  L  -0,750  z " />
<path transform="translate( 0, 0 )" style="stroke: hsl(134.5, 55%, 50%);" id="645"  d=" M  0,593  L  157,593  C  157,673.25  182,700  182,700  L  157,750  L  -0,750  z " />
<path transform="translate( 0, 0 )" style="stroke: hsl(161.4, 55%, 50%);" id="775"  d=" M  0,589.75  L  160.25,589.75  C  160.25,672.437  185.25,700  185.25,700  L  160.25,750  L  -0,750  z " />
<path transform="translate( 0, 0 )" style="stroke: hsl(188.3, 55%, 50%);" id="905"  d=" M  0,586.5  L  163.5,586.5  C  163.5,671.625  188.5,700  188.5,700  L  163.5,750  L  -0,750  z " />
<path transform="translate( 0, 0 )" style="stroke: hsl(215.2, 55%, 50%);" id="1035"  d=" M  0,583.25  L  166.75,583.25  C  166.75,670.812  191.75,700  191.75,700  L  166.75,750  L  -0,750  z " />
<path transform="translate( 0, 0 )" style="stroke: hsl(242.1, 55%, 50%);" id="1165"  d=" M  0,580  L  170,580  C  170,670  195,700  195,700  L  170,750  L  -0,750  z " />
<path transform="translate( 0, 0 )" style="stroke: hsl(269, 55%, 50%);" id="1295"  d=" M  0,576.75  L  173.25,576.75  C  173.25,669.187  198.25,700  198.25,700  L  173.25,750  L  -0,750  z " />
<path transform="translate( 0, 0 )" style="stroke: hsl(295.9, 55%, 50%);" id="1425"  d=" M  0,573.5  L  176.5,573.5  C  176.5,668.375  201.5,700  201.5,700  L  176.5,750  L  -0,750  z " />
    </g>
    <!-- End of group #pocket -->
    
    <!-- Start of group #pocketFacing -->
    <g id="pocketFacing"  transform=" translate(-114 -601)  translate(1742.371 442.25) " >
        <path class="hidden" id="6"  d=" M  119,606  L  169,606  L  169,754.861  L  119,754.861  z " />
<path transform="translate( 0, 0 )" style="stroke: hsl(26.9, 55%, 50%);" id="126"  d=" M  119,606  C  119,698.861  157.82,722.361  157.82,722.361  L  169,700  C  169,700  144,676.5  144,606  z " />
<path transform="translate( -3.25, 3.25 )" style="stroke: hsl(53.8, 55%, 50%);" id="256"  d=" M  122.25,602.75  C  122.25,698.048  161.07,722.361  161.07,722.361  L  172.25,700  C  172.25,700  147.25,675.687  147.25,602.75  z " />
<path transform="translate( -6.5, 6.5 )" style="stroke: hsl(80.7, 55%, 50%);" id="386"  d=" M  125.5,599.5  C  125.5,697.236  164.32,722.361  164.32,722.361  L  175.5,700  C  175.5,700  150.5,674.875  150.5,599.5  z " />
<path transform="translate( -9.75, 9.75 )" style="stroke: hsl(107.6, 55%, 50%);" id="516"  d=" M  128.75,596.25  C  128.75,696.423  167.57,722.361  167.57,722.361  L  178.75,700  C  178.75,700  153.75,674.062  153.75,596.25  z " />
<path transform="translate( -13, 13 )" style="stroke: hsl(134.5, 55%, 50%);" id="646"  d=" M  132,593  C  132,695.611  170.82,722.361  170.82,722.361  L  182,700  C  182,700  157,673.25  157,593  z " />
<path transform="translate( -16.25, 16.25 )" style="stroke: hsl(161.4, 55%, 50%);" id="776"  d=" M  135.25,589.75  C  135.25,694.798  174.07,722.361  174.07,722.361  L  185.25,700  C  185.25,700  160.25,672.437  160.25,589.75  z " />
<path transform="translate( -19.5, 19.5 )" style="stroke: hsl(188.3, 55%, 50%);" id="906"  d=" M  138.5,586.5  C  138.5,693.986  177.32,722.361  177.32,722.361  L  188.5,700  C  188.5,700  163.5,671.625  163.5,586.5  z " />
<path transform="translate( -22.75, 22.75 )" style="stroke: hsl(215.2, 55%, 50%);" id="1036"  d=" M  141.75,583.25  C  141.75,693.173  180.57,722.361  180.57,722.361  L  191.75,700  C  191.75,700  166.75,670.812  166.75,583.25  z " />
<path transform="translate( -26, 26 )" style="stroke: hsl(242.1, 55%, 50%);" id="1166"  d=" M  145,580  C  145,692.361  183.82,722.361  183.82,722.361  L  195,700  C  195,700  170,670  170,580  z " />
<path transform="translate( -29.25, 29.25 )" style="stroke: hsl(269, 55%, 50%);" id="1296"  d=" M  148.25,576.75  C  148.25,691.548  187.07,722.361  187.07,722.361  L  198.25,700  C  198.25,700  173.25,669.187  173.25,576.75  z " />
<path transform="translate( -32.5, 32.5 )" style="stroke: hsl(295.9, 55%, 50%);" id="1426"  d=" M  151.5,573.5  C  151.5,690.736  190.32,722.361  190.32,722.361  L  201.5,700  C  201.5,700  176.5,668.375  176.5,573.5  z " />
    </g>
    <!-- End of group #pocketFacing -->
    
    <!-- Start of group #hoodSide -->
    <g id="hoodSide"  transform=" translate(-5.487 358.25)  translate(1572.371 0) " >
        <path class="hidden" id="7"  d=" M  10.487,-353.25  L  331.671,-353.25  L  331.671,79  L  10.487,79  z " />
<path transform="translate( 0, 0 )" style="stroke: hsl(26.9, 55%, 50%);" id="127"  d=" M  30,0  C  30,0  -50,-353.25  113.935,-353.25  C  222.803,-353.25  331.671,-278.25  331.671,-278.25  C  195.001,-76.846  241.024,-19.498  256.671,-0  C  272.318,19.498  331.671,54  331.671,79  C  140.836,79  140.836,0  30,0  z " />
<path transform="translate( 0, 0 )" style="stroke: hsl(53.8, 55%, 50%);" id="257"  d=" M  30,0  C  30,0  -50,-353.25  113.935,-353.25  C  222.803,-353.25  331.671,-278.25  331.671,-278.25  C  195.001,-76.846  241.024,-19.498  256.671,-0  C  272.318,19.498  331.671,54  331.671,79  C  140.836,79  140.836,0  30,0  z " />
<path transform="translate( 0, 0 )" style="stroke: hsl(80.7, 55%, 50%);" id="387"  d=" M  30,0  C  30,0  -50,-353.25  113.935,-353.25  C  222.803,-353.25  331.671,-278.25  331.671,-278.25  C  195.001,-76.846  241.024,-19.498  256.671,-0  C  272.318,19.498  331.671,54  331.671,79  C  140.836,79  140.836,0  30,0  z " />
<path transform="translate( 0, 0 )" style="stroke: hsl(107.6, 55%, 50%);" id="517"  d=" M  30,0  C  30,0  -50,-353.25  113.935,-353.25  C  222.803,-353.25  331.671,-278.25  331.671,-278.25  C  195.001,-76.846  241.024,-19.498  256.671,-0  C  272.318,19.498  331.671,54  331.671,79  C  140.836,79  140.836,0  30,0  z " />
<path transform="translate( 0, 0 )" style="stroke: hsl(134.5, 55%, 50%);" id="647"  d=" M  30,0  C  30,0  -50,-353.25  113.935,-353.25  C  222.803,-353.25  331.671,-278.25  331.671,-278.25  C  195.001,-76.846  241.024,-19.498  256.671,-0  C  272.318,19.498  331.671,54  331.671,79  C  140.836,79  140.836,0  30,0  z " />
<path transform="translate( 0, 0 )" style="stroke: hsl(161.4, 55%, 50%);" id="777"  d=" M  30,0  C  30,0  -50,-353.25  113.935,-353.25  C  222.803,-353.25  331.671,-278.25  331.671,-278.25  C  195.001,-76.846  241.024,-19.498  256.671,-0  C  272.318,19.498  331.671,54  331.671,79  C  140.836,79  140.836,0  30,0  z " />
<path transform="translate( 0, 0 )" style="stroke: hsl(188.3, 55%, 50%);" id="907"  d=" M  30,0  C  30,0  -50,-353.25  113.935,-353.25  C  222.803,-353.25  331.671,-278.25  331.671,-278.25  C  195.001,-76.846  241.024,-19.498  256.671,-0  C  272.318,19.498  331.671,54  331.671,79  C  140.836,79  140.836,0  30,0  z " />
<path transform="translate( 0, 0 )" style="stroke: hsl(215.2, 55%, 50%);" id="1037"  d=" M  30,0  C  30,0  -50,-353.25  113.935,-353.25  C  222.803,-353.25  331.671,-278.25  331.671,-278.25  C  195.001,-76.846  241.024,-19.498  256.671,-0  C  272.318,19.498  331.671,54  331.671,79  C  140.836,79  140.836,0  30,0  z " />
<path transform="translate( 0, 0 )" style="stroke: hsl(242.1, 55%, 50%);" id="1167"  d=" M  30,0  C  30,0  -50,-353.25  113.935,-353.25  C  222.803,-353.25  331.671,-278.25  331.671,-278.25  C  195.001,-76.846  241.024,-19.498  256.671,-0  C  272.318,19.498  331.671,54  331.671,79  C  140.836,79  140.836,0  30,0  z " />
<path transform="translate( 0, 0 )" style="stroke: hsl(269, 55%, 50%);" id="1297"  d=" M  30,0  C  30,0  -50,-353.25  113.935,-353.25  C  222.803,-353.25  331.671,-278.25  331.671,-278.25  C  195.001,-76.846  241.024,-19.498  256.671,-0  C  272.318,19.498  331.671,54  331.671,79  C  140.836,79  140.836,0  30,0  z " />
<path transform="translate( 0, 0 )" style="stroke: hsl(295.9, 55%, 50%);" id="1427"  d=" M  30,0  C  30,0  -50,-353.25  113.935,-353.25  C  222.803,-353.25  331.671,-278.25  331.671,-278.25  C  195.001,-76.846  241.024,-19.498  256.671,-0  C  272.318,19.498  331.671,54  331.671,79  C  140.836,79  140.836,0  30,0  z " />
    </g>
    <!-- End of group #hoodSide -->
    
    <!-- Start of group #hoodCenter -->
    <g id="hoodCenter"  transform=" translate(5 5)  translate(1342.371 0) " >
        <path class="hidden" id="8"  d=" M  0,0  L  160,0  L  160,640.766  L  0,640.766  z " />
<path transform="translate( 0, 0 )" style="stroke: hsl(26.9, 55%, 50%);" id="128"  d=" M  0,0  L  160,0  L  160,640.766  L  0,640.766  z " />
<path transform="translate( 0, 0 )" style="stroke: hsl(53.8, 55%, 50%);" id="258"  d=" M  0,0  L  160,0  L  160,640.766  L  0,640.766  z " />
<path transform="translate( 0, 0 )" style="stroke: hsl(80.7, 55%, 50%);" id="388"  d=" M  0,0  L  160,0  L  160,640.766  L  0,640.766  z " />
<path transform="translate( 0, 0 )" style="stroke: hsl(107.6, 55%, 50%);" id="518"  d=" M  0,0  L  160,0  L  160,640.766  L  0,640.766  z " />
<path transform="translate( 0, 0 )" style="stroke: hsl(134.5, 55%, 50%);" id="648"  d=" M  0,0  L  160,0  L  160,640.766  L  0,640.766  z " />
<path transform="translate( 0, 0 )" style="stroke: hsl(161.4, 55%, 50%);" id="778"  d=" M  0,0  L  160,0  L  160,640.766  L  0,640.766  z " />
<path transform="translate( 0, 0 )" style="stroke: hsl(188.3, 55%, 50%);" id="908"  d=" M  0,0  L  160,0  L  160,640.766  L  0,640.766  z " />
<path transform="translate( 0, 0 )" style="stroke: hsl(215.2, 55%, 50%);" id="1038"  d=" M  0,0  L  160,0  L  160,640.766  L  0,640.766  z " />
<path transform="translate( 0, 0 )" style="stroke: hsl(242.1, 55%, 50%);" id="1168"  d=" M  0,0  L  160,0  L  160,640.766  L  0,640.766  z " />
<path transform="translate( 0, 0 )" style="stroke: hsl(269, 55%, 50%);" id="1298"  d=" M  0,0  L  160,0  L  160,640.766  L  0,640.766  z " />
<path transform="translate( 0, 0 )" style="stroke: hsl(295.9, 55%, 50%);" id="1428"  d=" M  0,0  L  160,0  L  160,640.766  L  0,640.766  z " />
    </g>
    <!-- End of group #hoodCenter -->
    
    <!-- Start of group #cuff -->
    <g id="cuff"  transform=" translate(5 5)  translate(1572.371 442.25) " >
        <path class="hidden" id="9"  d=" M  0,0  L  160,0  L  160,271.429  L  0,271.429  z " />
<path transform="translate( 0, 0 )" style="stroke: hsl(26.9, 55%, 50%);" id="129"  d=" M  0,0  L  160,0  L  160,271.429  L  0,271.429  z " />
<path transform="translate( 0, 0 )" style="stroke: hsl(53.8, 55%, 50%);" id="259"  d=" M  0,0  L  160,0  L  160,271.429  L  0,271.429  z " />
<path transform="translate( 0, 0 )" style="stroke: hsl(80.7, 55%, 50%);" id="389"  d=" M  0,0  L  160,0  L  160,271.429  L  0,271.429  z " />
<path transform="translate( 0, 0 )" style="stroke: hsl(107.6, 55%, 50%);" id="519"  d=" M  0,0  L  160,0  L  160,271.429  L  0,271.429  z " />
<path transform="translate( 0, 0 )" style="stroke: hsl(134.5, 55%, 50%);" id="649"  d=" M  0,0  L  160,0  L  160,271.429  L  0,271.429  z " />
<path transform="translate( 0, 0 )" style="stroke: hsl(161.4, 55%, 50%);" id="779"  d=" M  0,0  L  160,0  L  160,271.429  L  0,271.429  z " />
<path transform="translate( 0, 0 )" style="stroke: hsl(188.3, 55%, 50%);" id="909"  d=" M  0,0  L  160,0  L  160,271.429  L  0,271.429  z " />
<path transform="translate( 0, 0 )" style="stroke: hsl(215.2, 55%, 50%);" id="1039"  d=" M  0,0  L  160,0  L  160,271.429  L  0,271.429  z " />
<path transform="translate( 0, 0 )" style="stroke: hsl(242.1, 55%, 50%);" id="1169"  d=" M  0,0  L  160,0  L  160,271.429  L  0,271.429  z " />
<path transform="translate( 0, 0 )" style="stroke: hsl(269, 55%, 50%);" id="1299"  d=" M  0,0  L  160,0  L  160,271.429  L  0,271.429  z " />
<path transform="translate( 0, 0 )" style="stroke: hsl(295.9, 55%, 50%);" id="1429"  d=" M  0,0  L  160,0  L  160,271.429  L  0,271.429  z " />
    </g>
    <!-- End of group #cuff -->
    
    <!-- Start of group #waistband -->
    <g id="waistband"  transform=" translate(5 5)  translate(0 0) " >
        <path class="hidden" id="10"  d=" M  0,0  L  160,0  L  160,1180.952  L  0,1180.952  z " />
<path transform="translate( 0, 0 )" style="stroke: hsl(26.9, 55%, 50%);" id="130"  d=" M  0,0  L  160,0  L  160,990.476  L  0,990.476  z " />
<path transform="translate( 0, 0 )" style="stroke: hsl(53.8, 55%, 50%);" id="260"  d=" M  0,0  L  160,0  L  160,1009.524  L  0,1009.524  z " />
<path transform="translate( 0, 0 )" style="stroke: hsl(80.7, 55%, 50%);" id="390"  d=" M  0,0  L  160,0  L  160,1028.571  L  0,1028.571  z " />
<path transform="translate( 0, 0 )" style="stroke: hsl(107.6, 55%, 50%);" id="520"  d=" M  0,0  L  160,0  L  160,1047.619  L  0,1047.619  z " />
<path transform="translate( 0, 0 )" style="stroke: hsl(134.5, 55%, 50%);" id="650"  d=" M  0,0  L  160,0  L  160,1066.667  L  0,1066.667  z " />
<path transform="translate( 0, 0 )" style="stroke: hsl(161.4, 55%, 50%);" id="780"  d=" M  0,0  L  160,0  L  160,1085.714  L  0,1085.714  z " />
<path transform="translate( 0, 0 )" style="stroke: hsl(188.3, 55%, 50%);" id="910"  d=" M  0,0  L  160,0  L  160,1104.762  L  0,1104.762  z " />
<path transform="translate( 0, 0 )" style="stroke: hsl(215.2, 55%, 50%);" id="1040"  d=" M  0,0  L  160,0  L  160,1123.81  L  0,1123.81  z " />
<path transform="translate( 0, 0 )" style="stroke: hsl(242.1, 55%, 50%);" id="1170"  d=" M  0,0  L  160,0  L  160,1142.857  L  0,1142.857  z " />
<path transform="translate( 0, 0 )" style="stroke: hsl(269, 55%, 50%);" id="1300"  d=" M  0,0  L  160,0  L  160,1161.905  L  0,1161.905  z " />
<path transform="translate( 0, 0 )" style="stroke: hsl(295.9, 55%, 50%);" id="1430"  d=" M  0,0  L  160,0  L  160,1180.952  L  0,1180.952  z " />
    </g>
    <!-- End of group #waistband -->
    
    <!-- Start of group #neckBinding -->
    <g id="neckBinding"  transform=" translate(5 5)  translate(1512.371 0) " >
        <path class="hidden" id="11"  d=" M  0,0  L  50,0  L  50,563.343  L  0,563.343  z " />
<path transform="translate( 0, 0 )" style="stroke: hsl(26.9, 55%, 50%);" id="131"  d=" M  0,0  L  50,0  L  50,563.343  L  0,563.343  z " />
<path transform="translate( 0, 0 )" style="stroke: hsl(53.8, 55%, 50%);" id="261"  d=" M  0,0  L  50,0  L  50,563.343  L  0,563.343  z " />
<path transform="translate( 0, 0 )" style="stroke: hsl(80.7, 55%, 50%);" id="391"  d=" M  0,0  L  50,0  L  50,563.343  L  0,563.343  z " />
<path transform="translate( 0, 0 )" style="stroke: hsl(107.6, 55%, 50%);" id="521"  d=" M  0,0  L  50,0  L  50,563.343  L  0,563.343  z " />
<path transform="translate( 0, 0 )" style="stroke: hsl(134.5, 55%, 50%);" id="651"  d=" M  0,0  L  50,0  L  50,563.343  L  0,563.343  z " />
<path transform="translate( 0, 0 )" style="stroke: hsl(161.4, 55%, 50%);" id="781"  d=" M  0,0  L  50,0  L  50,563.343  L  0,563.343  z " />
<path transform="translate( 0, 0 )" style="stroke: hsl(188.3, 55%, 50%);" id="911"  d=" M  0,0  L  50,0  L  50,563.343  L  0,563.343  z " />
<path transform="translate( 0, 0 )" style="stroke: hsl(215.2, 55%, 50%);" id="1041"  d=" M  0,0  L  50,0  L  50,563.343  L  0,563.343  z " />
<path transform="translate( 0, 0 )" style="stroke: hsl(242.1, 55%, 50%);" id="1171"  d=" M  0,0  L  50,0  L  50,563.343  L  0,563.343  z " />
<path transform="translate( 0, 0 )" style="stroke: hsl(269, 55%, 50%);" id="1301"  d=" M  0,0  L  50,0  L  50,563.343  L  0,563.343  z " />
<path transform="translate( 0, 0 )" style="stroke: hsl(295.9, 55%, 50%);" id="1431"  d=" M  0,0  L  50,0  L  50,563.343  L  0,563.343  z " />
    </g>
    <!-- End of group #neckBinding -->
    
    <!-- Start of group #sampler-front -->
    <g id="sampler-front" >
    </g>
    <!-- End of group #sampler-front -->
    
    <!-- Start of group #sampler-back -->
    <g id="sampler-back" >
    </g>
    <!-- End of group #sampler-back -->
    
    <!-- Start of group #sampler-sleeve -->
    <g id="sampler-sleeve" >
    </g>
    <!-- End of group #sampler-sleeve -->
    
    <!-- Start of group #sampler-pocket -->
    <g id="sampler-pocket" >
    </g>
    <!-- End of group #sampler-pocket -->
    
    <!-- Start of group #sampler-pocketFacing -->
    <g id="sampler-pocketFacing" >
    </g>
    <!-- End of group #sampler-pocketFacing -->
    
    <!-- Start of group #sampler-hoodSide -->
    <g id="sampler-hoodSide" >
    </g>
    <!-- End of group #sampler-hoodSide -->
    
    <!-- Start of group #sampler-hoodCenter -->
    <g id="sampler-hoodCenter" >
    </g>
    <!-- End of group #sampler-hoodCenter -->
    
    <!-- Start of group #sampler-cuff -->
    <g id="sampler-cuff" >
    </g>
    <!-- End of group #sampler-cuff -->
    
    <!-- Start of group #sampler-waistband -->
    <g id="sampler-waistband" >
    </g>
    <!-- End of group #sampler-waistband -->
    
    <!-- Start of group #sampler-neckBinding -->
    <g id="sampler-neckBinding" >
    </g>
    <!-- End of group #sampler-neckBinding -->
</g>
<!-- End of group #patternContainer -->

</svg>

