<?xml version="1.0" encoding="UTF-8" standalone="no"?>
<svg
    xmlns="http://www.w3.org/2000/svg"
    xmlns:svg="http://www.w3.org/2000/svg"
    xmlns:xlink="http://www.w3.org/1999/xlink"
    xmlns:freesewing="http://freesewing.org/namespaces/freesewing" viewBox ="0 0 1834 1096"
    width ="1834mm"
    height ="1096mm"
    freesewing:version ="1.5.0"
    freesewing:origin ="joost.core.freesewing.org" 
>

<style type="text/css">
    <![CDATA[
    path { fill: none; stroke: #000000; stroke-opacity:1; stroke-width: 0.5; stroke-miterlimit:4; stroke-dashoffset:0; stroke-linecap:round; stroke-linejoin:round; }
    path.hidden { fill: none; stroke: none; }]]>
</style>


<!-- Start of group #patternContainer -->
<g id="patternContainer" >
    
    <!-- Start of group #backBlock -->
    <g id="backBlock" >
    </g>
    <!-- End of group #backBlock -->
    
    <!-- Start of group #frontBlock -->
    <g id="frontBlock" >
    </g>
    <!-- End of group #frontBlock -->
    
    <!-- Start of group #sleeveBlock -->
    <g id="sleeveBlock" >
    </g>
    <!-- End of group #sleeveBlock -->
    
    <!-- Start of group #front -->
    <g id="front"  transform=" translate(5 -50.608)  translate(977.75 0) " >
        <path class="hidden" id="2"  d=" M  0,55.608  L  285,55.608  L  285,750  L  0,750  z " />
<path transform="translate( 0, 0 )" style="stroke: hsl(26.9, 55%, 50%);" id="122"  d=" M  -0,109  L  0,285  L  0,500  L  -0,750  L  285,750  L  285,285  C  270,285  260.252,278.952  245.65,264.35  C  231.048,249.748  89.156,55.608  89.156,55.608  C  75,82.128  48.595,109  -0,109  z " />
<path transform="translate( 0, 0 )" style="stroke: hsl(53.8, 55%, 50%);" id="252"  d=" M  -0,109  L  0,285  L  0,500  L  -0,750  L  285,750  L  285,285  C  270,285  260.252,278.952  245.65,264.35  C  231.048,249.748  89.156,55.608  89.156,55.608  C  75,82.128  48.595,109  -0,109  z " />
<path transform="translate( 0, 0 )" style="stroke: hsl(80.7, 55%, 50%);" id="382"  d=" M  -0,109  L  0,285  L  0,500  L  -0,750  L  285,750  L  285,285  C  270,285  260.252,278.952  245.65,264.35  C  231.048,249.748  89.156,55.608  89.156,55.608  C  75,82.128  48.595,109  -0,109  z " />
<path transform="translate( 0, 0 )" style="stroke: hsl(107.6, 55%, 50%);" id="512"  d=" M  -0,109  L  0,285  L  0,500  L  -0,750  L  285,750  L  285,285  C  270,285  260.252,278.952  245.65,264.35  C  231.048,249.748  89.156,55.608  89.156,55.608  C  75,82.128  48.595,109  -0,109  z " />
<path transform="translate( 0, 0 )" style="stroke: hsl(134.5, 55%, 50%);" id="642"  d=" M  -0,109  L  0,285  L  0,500  L  -0,750  L  285,750  L  285,285  C  270,285  260.252,278.952  245.65,264.35  C  231.048,249.748  89.156,55.608  89.156,55.608  C  75,82.128  48.595,109  -0,109  z " />
<path transform="translate( 0, 0 )" style="stroke: hsl(161.4, 55%, 50%);" id="772"  d=" M  -0,109  L  0,285  L  0,500  L  -0,750  L  285,750  L  285,285  C  270,285  260.252,278.952  245.65,264.35  C  231.048,249.748  89.156,55.608  89.156,55.608  C  75,82.128  48.595,109  -0,109  z " />
<path transform="translate( 0, 0 )" style="stroke: hsl(188.3, 55%, 50%);" id="902"  d=" M  -0,109  L  0,285  L  0,500  L  -0,750  L  285,750  L  285,285  C  270,285  260.252,278.952  245.65,264.35  C  231.048,249.748  89.156,55.608  89.156,55.608  C  75,82.128  48.595,109  -0,109  z " />
<path transform="translate( 0, 0 )" style="stroke: hsl(215.2, 55%, 50%);" id="1032"  d=" M  -0,109  L  0,285  L  0,500  L  -0,750  L  285,750  L  285,285  C  270,285  260.252,278.952  245.65,264.35  C  231.048,249.748  89.156,55.608  89.156,55.608  C  75,82.128  48.595,109  -0,109  z " />
<path transform="translate( 0, 0 )" style="stroke: hsl(242.1, 55%, 50%);" id="1162"  d=" M  -0,109  L  0,285  L  0,500  L  -0,750  L  285,750  L  285,285  C  270,285  260.252,278.952  245.65,264.35  C  231.048,249.748  89.156,55.608  89.156,55.608  C  75,82.128  48.595,109  -0,109  z " />
<path transform="translate( 0, 0 )" style="stroke: hsl(269, 55%, 50%);" id="1292"  d=" M  -0,109  L  0,285  L  0,500  L  -0,750  L  285,750  L  285,285  C  270,285  260.252,278.952  245.65,264.35  C  231.048,249.748  89.156,55.608  89.156,55.608  C  75,82.128  48.595,109  -0,109  z " />
<path transform="translate( 0, 0 )" style="stroke: hsl(295.9, 55%, 50%);" id="1422"  d=" M  -0,109  L  0,285  L  0,500  L  -0,750  L  285,750  L  285,285  C  270,285  260.252,278.952  245.65,264.35  C  231.048,249.748  89.156,55.608  89.156,55.608  C  75,82.128  48.595,109  -0,109  z " />
    </g>
    <!-- End of group #front -->
    
    <!-- Start of group #back -->
    <g id="back"  transform=" translate(5 -23.212)  translate(682.75 0) " >
        <path class="hidden" id="3"  d=" M  0,28.212  L  285,28.212  L  285,750  L  0,750  z " />
<path transform="translate( 0, 0 )" style="stroke: hsl(26.9, 55%, 50%);" id="123"  d=" M  -0,30  L  0,285  L  0,500  L  -0,750  L  285,750  L  285,285  C  270,285  260.252,278.952  245.65,264.35  C  231.048,249.748  58.457,28.212  58.457,28.212  C  44.38,29.438  25.165,30  -0,30  z " />
<path transform="translate( 0, 0 )" style="stroke: hsl(53.8, 55%, 50%);" id="253"  d=" M  -0,30  L  0,285  L  0,500  L  -0,750  L  285,750  L  285,285  C  270,285  260.252,278.952  245.65,264.35  C  231.048,249.748  58.457,28.212  58.457,28.212  C  44.38,29.438  25.165,30  -0,30  z " />
<path transform="translate( 0, 0 )" style="stroke: hsl(80.7, 55%, 50%);" id="383"  d=" M  -0,30  L  0,285  L  0,500  L  -0,750  L  285,750  L  285,285  C  270,285  260.252,278.952  245.65,264.35  C  231.048,249.748  58.457,28.212  58.457,28.212  C  44.38,29.438  25.165,30  -0,30  z " />
<path transform="translate( 0, 0 )" style="stroke: hsl(107.6, 55%, 50%);" id="513"  d=" M  -0,30  L  0,285  L  0,500  L  -0,750  L  285,750  L  285,285  C  270,285  260.252,278.952  245.65,264.35  C  231.048,249.748  58.457,28.212  58.457,28.212  C  44.38,29.438  25.165,30  -0,30  z " />
<path transform="translate( 0, 0 )" style="stroke: hsl(134.5, 55%, 50%);" id="643"  d=" M  -0,30  L  0,285  L  0,500  L  -0,750  L  285,750  L  285,285  C  270,285  260.252,278.952  245.65,264.35  C  231.048,249.748  58.457,28.212  58.457,28.212  C  44.38,29.438  25.165,30  -0,30  z " />
<path transform="translate( 0, 0 )" style="stroke: hsl(161.4, 55%, 50%);" id="773"  d=" M  -0,30  L  0,285  L  0,500  L  -0,750  L  285,750  L  285,285  C  270,285  260.252,278.952  245.65,264.35  C  231.048,249.748  58.457,28.212  58.457,28.212  C  44.38,29.438  25.165,30  -0,30  z " />
<path transform="translate( 0, 0 )" style="stroke: hsl(188.3, 55%, 50%);" id="903"  d=" M  -0,30  L  0,285  L  0,500  L  -0,750  L  285,750  L  285,285  C  270,285  260.252,278.952  245.65,264.35  C  231.048,249.748  58.457,28.212  58.457,28.212  C  44.38,29.438  25.165,30  -0,30  z " />
<path transform="translate( 0, 0 )" style="stroke: hsl(215.2, 55%, 50%);" id="1033"  d=" M  -0,30  L  0,285  L  0,500  L  -0,750  L  285,750  L  285,285  C  270,285  260.252,278.952  245.65,264.35  C  231.048,249.748  58.457,28.212  58.457,28.212  C  44.38,29.438  25.165,30  -0,30  z " />
<path transform="translate( 0, 0 )" style="stroke: hsl(242.1, 55%, 50%);" id="1163"  d=" M  -0,30  L  0,285  L  0,500  L  -0,750  L  285,750  L  285,285  C  270,285  260.252,278.952  245.65,264.35  C  231.048,249.748  58.457,28.212  58.457,28.212  C  44.38,29.438  25.165,30  -0,30  z " />
<path transform="translate( 0, 0 )" style="stroke: hsl(269, 55%, 50%);" id="1293"  d=" M  -0,30  L  0,285  L  0,500  L  -0,750  L  285,750  L  285,285  C  270,285  260.252,278.952  245.65,264.35  C  231.048,249.748  58.457,28.212  58.457,28.212  C  44.38,29.438  25.165,30  -0,30  z " />
<path transform="translate( 0, 0 )" style="stroke: hsl(295.9, 55%, 50%);" id="1423"  d=" M  -0,30  L  0,285  L  0,500  L  -0,750  L  285,750  L  285,285  C  270,285  260.252,278.952  245.65,264.35  C  231.048,249.748  58.457,28.212  58.457,28.212  C  44.38,29.438  25.165,30  -0,30  z " />
    </g>
    <!-- End of group #back -->
    
    <!-- Start of group #sleeve -->
    <g id="sleeve"  transform=" translate(257.973 178.451)  translate(170 0) " >
        <path class="hidden" id="4"  d=" M  -252.973,-173.451  L  249.777,-173.451  L  249.777,676.662  L  -252.973,676.662  z " />
<path transform="translate( 0, 0 )" style="stroke: hsl(26.9, 55%, 50%);" id="124"  d=" M  -125,676.662  L  -252.973,95.412  C  -218.328,95.412  -146.743,-42.885  -32.905,-173.451  C  -23.106,-138.076  -14.199,-130.753  0,-130.753  C  8.8,-130.753  30.605,-130.775  54.241,-138.269  C  157.869,-25.694  219.175,95.412  249.777,95.412  L  125,676.662  z " />
<path transform="translate( 0, 0 )" style="stroke: hsl(53.8, 55%, 50%);" id="254"  d=" M  -130,676.662  L  -252.973,95.412  C  -218.328,95.412  -146.743,-42.885  -32.905,-173.451  C  -23.106,-138.076  -14.199,-130.753  0,-130.753  C  8.8,-130.753  30.605,-130.775  54.241,-138.269  C  157.869,-25.694  219.175,95.412  249.777,95.412  L  130,676.662  z " />
<path transform="translate( 0, 0 )" style="stroke: hsl(80.7, 55%, 50%);" id="384"  d=" M  -135,676.662  L  -252.973,95.412  C  -218.328,95.412  -146.743,-42.885  -32.905,-173.451  C  -23.106,-138.076  -14.199,-130.753  0,-130.753  C  8.8,-130.753  30.605,-130.775  54.241,-138.269  C  157.869,-25.694  219.175,95.412  249.777,95.412  L  135,676.662  z " />
<path transform="translate( 0, 0 )" style="stroke: hsl(107.6, 55%, 50%);" id="514"  d=" M  -140,676.662  L  -252.973,95.412  C  -218.328,95.412  -146.743,-42.885  -32.905,-173.451  C  -23.106,-138.076  -14.199,-130.753  0,-130.753  C  8.8,-130.753  30.605,-130.775  54.241,-138.269  C  157.869,-25.694  219.175,95.412  249.777,95.412  L  140,676.662  z " />
<path transform="translate( 0, 0 )" style="stroke: hsl(134.5, 55%, 50%);" id="644"  d=" M  -145,676.662  L  -252.973,95.412  C  -218.328,95.412  -146.743,-42.885  -32.905,-173.451  C  -23.106,-138.076  -14.199,-130.753  0,-130.753  C  8.8,-130.753  30.605,-130.775  54.241,-138.269  C  157.869,-25.694  219.175,95.412  249.777,95.412  L  145,676.662  z " />
<path transform="translate( 0, 0 )" style="stroke: hsl(161.4, 55%, 50%);" id="774"  d=" M  -150,676.662  L  -252.973,95.412  C  -218.328,95.412  -146.743,-42.885  -32.905,-173.451  C  -23.106,-138.076  -14.199,-130.753  0,-130.753  C  8.8,-130.753  30.605,-130.775  54.241,-138.269  C  157.869,-25.694  219.175,95.412  249.777,95.412  L  150,676.662  z " />
<path transform="translate( 0, 0 )" style="stroke: hsl(188.3, 55%, 50%);" id="904"  d=" M  -155,676.662  L  -252.973,95.412  C  -218.328,95.412  -146.743,-42.885  -32.905,-173.451  C  -23.106,-138.076  -14.199,-130.753  0,-130.753  C  8.8,-130.753  30.605,-130.775  54.241,-138.269  C  157.869,-25.694  219.175,95.412  249.777,95.412  L  155,676.662  z " />
<path transform="translate( 0, 0 )" style="stroke: hsl(215.2, 55%, 50%);" id="1034"  d=" M  -160,676.662  L  -252.973,95.412  C  -218.328,95.412  -146.743,-42.885  -32.905,-173.451  C  -23.106,-138.076  -14.199,-130.753  0,-130.753  C  8.8,-130.753  30.605,-130.775  54.241,-138.269  C  157.869,-25.694  219.175,95.412  249.777,95.412  L  160,676.662  z " />
<path transform="translate( 0, 0 )" style="stroke: hsl(242.1, 55%, 50%);" id="1164"  d=" M  -165,676.662  L  -252.973,95.412  C  -218.328,95.412  -146.743,-42.885  -32.905,-173.451  C  -23.106,-138.076  -14.199,-130.753  0,-130.753  C  8.8,-130.753  30.605,-130.775  54.241,-138.269  C  157.869,-25.694  219.175,95.412  249.777,95.412  L  165,676.662  z " />
<path transform="translate( 0, 0 )" style="stroke: hsl(269, 55%, 50%);" id="1294"  d=" M  -170,676.662  L  -252.973,95.412  C  -218.328,95.412  -146.743,-42.885  -32.905,-173.451  C  -23.106,-138.076  -14.199,-130.753  0,-130.753  C  8.8,-130.753  30.605,-130.775  54.241,-138.269  C  157.869,-25.694  219.175,95.412  249.777,95.412  L  170,676.662  z " />
<path transform="translate( 0, 0 )" style="stroke: hsl(295.9, 55%, 50%);" id="1424"  d=" M  -175,676.662  L  -252.973,95.412  C  -218.328,95.412  -146.743,-42.885  -32.905,-173.451  C  -23.106,-138.076  -14.199,-130.753  0,-130.753  C  8.8,-130.753  30.605,-130.775  54.241,-138.269  C  157.869,-25.694  219.175,95.412  249.777,95.412  L  175,676.662  z " />
    </g>
    <!-- End of group #sleeve -->
    
    <!-- Start of group #pocket -->
    <g id="pocket"  transform=" translate(5 -584.75)  translate(1502.75 785.583) " >
        <path class="hidden" id="5"  d=" M  0,589.75  L  185.25,589.75  L  185.25,750  L  0,750  z " />
<path transform="translate( 0, 0 )" style="stroke: hsl(26.9, 55%, 50%);" id="125"  d=" M  0,589.75  L  160.25,589.75  C  160.25,672.437  185.25,700  185.25,700  L  160.25,750  L  -0,750  z " />
<path transform="translate( 0, 0 )" style="stroke: hsl(53.8, 55%, 50%);" id="255"  d=" M  0,589.75  L  160.25,589.75  C  160.25,672.437  185.25,700  185.25,700  L  160.25,750  L  -0,750  z " />
<path transform="translate( 0, 0 )" style="stroke: hsl(80.7, 55%, 50%);" id="385"  d=" M  0,589.75  L  160.25,589.75  C  160.25,672.437  185.25,700  185.25,700  L  160.25,750  L  -0,750  z " />
<path transform="translate( 0, 0 )" style="stroke: hsl(107.6, 55%, 50%);" id="515"  d=" M  0,589.75  L  160.25,589.75  C  160.25,672.437  185.25,700  185.25,700  L  160.25,750  L  -0,750  z " />
<path transform="translate( 0, 0 )" style="stroke: hsl(134.5, 55%, 50%);" id="645"  d=" M  0,589.75  L  160.25,589.75  C  160.25,672.437  185.25,700  185.25,700  L  160.25,750  L  -0,750  z " />
<path transform="translate( 0, 0 )" style="stroke: hsl(161.4, 55%, 50%);" id="775"  d=" M  0,589.75  L  160.25,589.75  C  160.25,672.437  185.25,700  185.25,700  L  160.25,750  L  -0,750  z " />
<path transform="translate( 0, 0 )" style="stroke: hsl(188.3, 55%, 50%);" id="905"  d=" M  0,589.75  L  160.25,589.75  C  160.25,672.437  185.25,700  185.25,700  L  160.25,750  L  -0,750  z " />
<path transform="translate( 0, 0 )" style="stroke: hsl(215.2, 55%, 50%);" id="1035"  d=" M  0,589.75  L  160.25,589.75  C  160.25,672.437  185.25,700  185.25,700  L  160.25,750  L  -0,750  z " />
<path transform="translate( 0, 0 )" style="stroke: hsl(242.1, 55%, 50%);" id="1165"  d=" M  0,589.75  L  160.25,589.75  C  160.25,672.437  185.25,700  185.25,700  L  160.25,750  L  -0,750  z " />
<path transform="translate( 0, 0 )" style="stroke: hsl(269, 55%, 50%);" id="1295"  d=" M  0,589.75  L  160.25,589.75  C  160.25,672.437  185.25,700  185.25,700  L  160.25,750  L  -0,750  z " />
<path transform="translate( 0, 0 )" style="stroke: hsl(295.9, 55%, 50%);" id="1425"  d=" M  0,589.75  L  160.25,589.75  C  160.25,672.437  185.25,700  185.25,700  L  160.25,750  L  -0,750  z " />
    </g>
    <!-- End of group #pocket -->
    
    <!-- Start of group #pocketFacing -->
    <g id="pocketFacing"  transform=" translate(-130.25 -584.75)  translate(1672.75 442.25) " >
        <path class="hidden" id="6"  d=" M  135.25,589.75  L  185.25,589.75  L  185.25,722.361  L  135.25,722.361  z " />
<path transform="translate( 0, 0 )" style="stroke: hsl(26.9, 55%, 50%);" id="126"  d=" M  135.25,589.75  C  135.25,694.798  174.07,722.361  174.07,722.361  L  185.25,700  C  185.25,700  160.25,672.437  160.25,589.75  z " />
<path transform="translate( 0, 0 )" style="stroke: hsl(53.8, 55%, 50%);" id="256"  d=" M  135.25,589.75  C  135.25,694.798  174.07,722.361  174.07,722.361  L  185.25,700  C  185.25,700  160.25,672.437  160.25,589.75  z " />
<path transform="translate( 0, 0 )" style="stroke: hsl(80.7, 55%, 50%);" id="386"  d=" M  135.25,589.75  C  135.25,694.798  174.07,722.361  174.07,722.361  L  185.25,700  C  185.25,700  160.25,672.437  160.25,589.75  z " />
<path transform="translate( 0, 0 )" style="stroke: hsl(107.6, 55%, 50%);" id="516"  d=" M  135.25,589.75  C  135.25,694.798  174.07,722.361  174.07,722.361  L  185.25,700  C  185.25,700  160.25,672.437  160.25,589.75  z " />
<path transform="translate( 0, 0 )" style="stroke: hsl(134.5, 55%, 50%);" id="646"  d=" M  135.25,589.75  C  135.25,694.798  174.07,722.361  174.07,722.361  L  185.25,700  C  185.25,700  160.25,672.437  160.25,589.75  z " />
<path transform="translate( 0, 0 )" style="stroke: hsl(161.4, 55%, 50%);" id="776"  d=" M  135.25,589.75  C  135.25,694.798  174.07,722.361  174.07,722.361  L  185.25,700  C  185.25,700  160.25,672.437  160.25,589.75  z " />
<path transform="translate( 0, 0 )" style="stroke: hsl(188.3, 55%, 50%);" id="906"  d=" M  135.25,589.75  C  135.25,694.798  174.07,722.361  174.07,722.361  L  185.25,700  C  185.25,700  160.25,672.437  160.25,589.75  z " />
<path transform="translate( 0, 0 )" style="stroke: hsl(215.2, 55%, 50%);" id="1036"  d=" M  135.25,589.75  C  135.25,694.798  174.07,722.361  174.07,722.361  L  185.25,700  C  185.25,700  160.25,672.437  160.25,589.75  z " />
<path transform="translate( 0, 0 )" style="stroke: hsl(242.1, 55%, 50%);" id="1166"  d=" M  135.25,589.75  C  135.25,694.798  174.07,722.361  174.07,722.361  L  185.25,700  C  185.25,700  160.25,672.437  160.25,589.75  z " />
<path transform="translate( 0, 0 )" style="stroke: hsl(269, 55%, 50%);" id="1296"  d=" M  135.25,589.75  C  135.25,694.798  174.07,722.361  174.07,722.361  L  185.25,700  C  185.25,700  160.25,672.437  160.25,589.75  z " />
<path transform="translate( 0, 0 )" style="stroke: hsl(295.9, 55%, 50%);" id="1426"  d=" M  135.25,589.75  C  135.25,694.798  174.07,722.361  174.07,722.361  L  185.25,700  C  185.25,700  160.25,672.437  160.25,589.75  z " />
    </g>
    <!-- End of group #pocketFacing -->
    
    <!-- Start of group #hoodSide -->
    <g id="hoodSide"  transform=" translate(-5.487 358.25)  translate(1502.75 0) " >
        <path class="hidden" id="7"  d=" M  10.487,-353.25  L  331.671,-353.25  L  331.671,79  L  10.487,79  z " />
<path transform="translate( 0, 0 )" style="stroke: hsl(26.9, 55%, 50%);" id="127"  d=" M  30,0  C  30,0  -50,-353.25  113.935,-353.25  C  222.803,-353.25  331.671,-278.25  331.671,-278.25  C  195.001,-76.846  241.024,-19.498  256.671,-0  C  272.318,19.498  331.671,54  331.671,79  C  140.836,79  140.836,0  30,0  z " />
<path transform="translate( 0, 0 )" style="stroke: hsl(53.8, 55%, 50%);" id="257"  d=" M  30,0  C  30,0  -50,-353.25  113.935,-353.25  C  222.803,-353.25  331.671,-278.25  331.671,-278.25  C  195.001,-76.846  241.024,-19.498  256.671,-0  C  272.318,19.498  331.671,54  331.671,79  C  140.836,79  140.836,0  30,0  z " />
<path transform="translate( 0, 0 )" style="stroke: hsl(80.7, 55%, 50%);" id="387"  d=" M  30,0  C  30,0  -50,-353.25  113.935,-353.25  C  222.803,-353.25  331.671,-278.25  331.671,-278.25  C  195.001,-76.846  241.024,-19.498  256.671,-0  C  272.318,19.498  331.671,54  331.671,79  C  140.836,79  140.836,0  30,0  z " />
<path transform="translate( 0, 0 )" style="stroke: hsl(107.6, 55%, 50%);" id="517"  d=" M  30,0  C  30,0  -50,-353.25  113.935,-353.25  C  222.803,-353.25  331.671,-278.25  331.671,-278.25  C  195.001,-76.846  241.024,-19.498  256.671,-0  C  272.318,19.498  331.671,54  331.671,79  C  140.836,79  140.836,0  30,0  z " />
<path transform="translate( 0, 0 )" style="stroke: hsl(134.5, 55%, 50%);" id="647"  d=" M  30,0  C  30,0  -50,-353.25  113.935,-353.25  C  222.803,-353.25  331.671,-278.25  331.671,-278.25  C  195.001,-76.846  241.024,-19.498  256.671,-0  C  272.318,19.498  331.671,54  331.671,79  C  140.836,79  140.836,0  30,0  z " />
<path transform="translate( 0, 0 )" style="stroke: hsl(161.4, 55%, 50%);" id="777"  d=" M  30,0  C  30,0  -50,-353.25  113.935,-353.25  C  222.803,-353.25  331.671,-278.25  331.671,-278.25  C  195.001,-76.846  241.024,-19.498  256.671,-0  C  272.318,19.498  331.671,54  331.671,79  C  140.836,79  140.836,0  30,0  z " />
<path transform="translate( 0, 0 )" style="stroke: hsl(188.3, 55%, 50%);" id="907"  d=" M  30,0  C  30,0  -50,-353.25  113.935,-353.25  C  222.803,-353.25  331.671,-278.25  331.671,-278.25  C  195.001,-76.846  241.024,-19.498  256.671,-0  C  272.318,19.498  331.671,54  331.671,79  C  140.836,79  140.836,0  30,0  z " />
<path transform="translate( 0, 0 )" style="stroke: hsl(215.2, 55%, 50%);" id="1037"  d=" M  30,0  C  30,0  -50,-353.25  113.935,-353.25  C  222.803,-353.25  331.671,-278.25  331.671,-278.25  C  195.001,-76.846  241.024,-19.498  256.671,-0  C  272.318,19.498  331.671,54  331.671,79  C  140.836,79  140.836,0  30,0  z " />
<path transform="translate( 0, 0 )" style="stroke: hsl(242.1, 55%, 50%);" id="1167"  d=" M  30,0  C  30,0  -50,-353.25  113.935,-353.25  C  222.803,-353.25  331.671,-278.25  331.671,-278.25  C  195.001,-76.846  241.024,-19.498  256.671,-0  C  272.318,19.498  331.671,54  331.671,79  C  140.836,79  140.836,0  30,0  z " />
<path transform="translate( 0, 0 )" style="stroke: hsl(269, 55%, 50%);" id="1297"  d=" M  30,0  C  30,0  -50,-353.25  113.935,-353.25  C  222.803,-353.25  331.671,-278.25  331.671,-278.25  C  195.001,-76.846  241.024,-19.498  256.671,-0  C  272.318,19.498  331.671,54  331.671,79  C  140.836,79  140.836,0  30,0  z " />
<path transform="translate( 0, 0 )" style="stroke: hsl(295.9, 55%, 50%);" id="1427"  d=" M  30,0  C  30,0  -50,-353.25  113.935,-353.25  C  222.803,-353.25  331.671,-278.25  331.671,-278.25  C  195.001,-76.846  241.024,-19.498  256.671,-0  C  272.318,19.498  331.671,54  331.671,79  C  140.836,79  140.836,0  30,0  z " />
    </g>
    <!-- End of group #hoodSide -->
    
    <!-- Start of group #hoodCenter -->
    <g id="hoodCenter"  transform=" translate(5 5)  translate(1272.75 0) " >
        <path class="hidden" id="8"  d=" M  0,0  L  160,0  L  160,640.766  L  0,640.766  z " />
<path transform="translate( 0, 0 )" style="stroke: hsl(26.9, 55%, 50%);" id="128"  d=" M  0,0  L  160,0  L  160,640.766  L  0,640.766  z " />
<path transform="translate( 0, 0 )" style="stroke: hsl(53.8, 55%, 50%);" id="258"  d=" M  0,0  L  160,0  L  160,640.766  L  0,640.766  z " />
<path transform="translate( 0, 0 )" style="stroke: hsl(80.7, 55%, 50%);" id="388"  d=" M  0,0  L  160,0  L  160,640.766  L  0,640.766  z " />
<path transform="translate( 0, 0 )" style="stroke: hsl(107.6, 55%, 50%);" id="518"  d=" M  0,0  L  160,0  L  160,640.766  L  0,640.766  z " />
<path transform="translate( 0, 0 )" style="stroke: hsl(134.5, 55%, 50%);" id="648"  d=" M  0,0  L  160,0  L  160,640.766  L  0,640.766  z " />
<path transform="translate( 0, 0 )" style="stroke: hsl(161.4, 55%, 50%);" id="778"  d=" M  0,0  L  160,0  L  160,640.766  L  0,640.766  z " />
<path transform="translate( 0, 0 )" style="stroke: hsl(188.3, 55%, 50%);" id="908"  d=" M  0,0  L  160,0  L  160,640.766  L  0,640.766  z " />
<path transform="translate( 0, 0 )" style="stroke: hsl(215.2, 55%, 50%);" id="1038"  d=" M  0,0  L  160,0  L  160,640.766  L  0,640.766  z " />
<path transform="translate( 0, 0 )" style="stroke: hsl(242.1, 55%, 50%);" id="1168"  d=" M  0,0  L  160,0  L  160,640.766  L  0,640.766  z " />
<path transform="translate( 0, 0 )" style="stroke: hsl(269, 55%, 50%);" id="1298"  d=" M  0,0  L  160,0  L  160,640.766  L  0,640.766  z " />
<path transform="translate( 0, 0 )" style="stroke: hsl(295.9, 55%, 50%);" id="1428"  d=" M  0,0  L  160,0  L  160,640.766  L  0,640.766  z " />
    </g>
    <!-- End of group #hoodCenter -->
    
    <!-- Start of group #cuff -->
    <g id="cuff"  transform=" translate(5 5)  translate(1502.75 442.25) " >
        <path class="hidden" id="9"  d=" M  0,0  L  160,0  L  160,333.333  L  0,333.333  z " />
<path transform="translate( 0, 0 )" style="stroke: hsl(26.9, 55%, 50%);" id="129"  d=" M  0,0  L  160,0  L  160,238.095  L  0,238.095  z " />
<path transform="translate( 0, 0 )" style="stroke: hsl(53.8, 55%, 50%);" id="259"  d=" M  0,0  L  160,0  L  160,247.619  L  0,247.619  z " />
<path transform="translate( 0, 0 )" style="stroke: hsl(80.7, 55%, 50%);" id="389"  d=" M  0,0  L  160,0  L  160,257.143  L  0,257.143  z " />
<path transform="translate( 0, 0 )" style="stroke: hsl(107.6, 55%, 50%);" id="519"  d=" M  0,0  L  160,0  L  160,266.667  L  0,266.667  z " />
<path transform="translate( 0, 0 )" style="stroke: hsl(134.5, 55%, 50%);" id="649"  d=" M  0,0  L  160,0  L  160,276.19  L  0,276.19  z " />
<path transform="translate( 0, 0 )" style="stroke: hsl(161.4, 55%, 50%);" id="779"  d=" M  0,0  L  160,0  L  160,285.714  L  0,285.714  z " />
<path transform="translate( 0, 0 )" style="stroke: hsl(188.3, 55%, 50%);" id="909"  d=" M  0,0  L  160,0  L  160,295.238  L  0,295.238  z " />
<path transform="translate( 0, 0 )" style="stroke: hsl(215.2, 55%, 50%);" id="1039"  d=" M  0,0  L  160,0  L  160,304.762  L  0,304.762  z " />
<path transform="translate( 0, 0 )" style="stroke: hsl(242.1, 55%, 50%);" id="1169"  d=" M  0,0  L  160,0  L  160,314.286  L  0,314.286  z " />
<path transform="translate( 0, 0 )" style="stroke: hsl(269, 55%, 50%);" id="1299"  d=" M  0,0  L  160,0  L  160,323.81  L  0,323.81  z " />
<path transform="translate( 0, 0 )" style="stroke: hsl(295.9, 55%, 50%);" id="1429"  d=" M  0,0  L  160,0  L  160,333.333  L  0,333.333  z " />
    </g>
    <!-- End of group #cuff -->
    
    <!-- Start of group #waistband -->
    <g id="waistband"  transform=" translate(5 5)  translate(0 0) " >
        <path class="hidden" id="10"  d=" M  0,0  L  160,0  L  160,1085.714  L  0,1085.714  z " />
<path transform="translate( 0, 0 )" style="stroke: hsl(26.9, 55%, 50%);" id="130"  d=" M  0,0  L  160,0  L  160,1085.714  L  0,1085.714  z " />
<path transform="translate( 0, 0 )" style="stroke: hsl(53.8, 55%, 50%);" id="260"  d=" M  0,0  L  160,0  L  160,1085.714  L  0,1085.714  z " />
<path transform="translate( 0, 0 )" style="stroke: hsl(80.7, 55%, 50%);" id="390"  d=" M  0,0  L  160,0  L  160,1085.714  L  0,1085.714  z " />
<path transform="translate( 0, 0 )" style="stroke: hsl(107.6, 55%, 50%);" id="520"  d=" M  0,0  L  160,0  L  160,1085.714  L  0,1085.714  z " />
<path transform="translate( 0, 0 )" style="stroke: hsl(134.5, 55%, 50%);" id="650"  d=" M  0,0  L  160,0  L  160,1085.714  L  0,1085.714  z " />
<path transform="translate( 0, 0 )" style="stroke: hsl(161.4, 55%, 50%);" id="780"  d=" M  0,0  L  160,0  L  160,1085.714  L  0,1085.714  z " />
<path transform="translate( 0, 0 )" style="stroke: hsl(188.3, 55%, 50%);" id="910"  d=" M  0,0  L  160,0  L  160,1085.714  L  0,1085.714  z " />
<path transform="translate( 0, 0 )" style="stroke: hsl(215.2, 55%, 50%);" id="1040"  d=" M  0,0  L  160,0  L  160,1085.714  L  0,1085.714  z " />
<path transform="translate( 0, 0 )" style="stroke: hsl(242.1, 55%, 50%);" id="1170"  d=" M  0,0  L  160,0  L  160,1085.714  L  0,1085.714  z " />
<path transform="translate( 0, 0 )" style="stroke: hsl(269, 55%, 50%);" id="1300"  d=" M  0,0  L  160,0  L  160,1085.714  L  0,1085.714  z " />
<path transform="translate( 0, 0 )" style="stroke: hsl(295.9, 55%, 50%);" id="1430"  d=" M  0,0  L  160,0  L  160,1085.714  L  0,1085.714  z " />
    </g>
    <!-- End of group #waistband -->
    
    <!-- Start of group #neckBinding -->
    <g id="neckBinding"  transform=" translate(5 5)  translate(1442.75 0) " >
        <path class="hidden" id="11"  d=" M  0,0  L  50,0  L  50,563.343  L  0,563.343  z " />
<path transform="translate( 0, 0 )" style="stroke: hsl(26.9, 55%, 50%);" id="131"  d=" M  0,0  L  50,0  L  50,563.343  L  0,563.343  z " />
<path transform="translate( 0, 0 )" style="stroke: hsl(53.8, 55%, 50%);" id="261"  d=" M  0,0  L  50,0  L  50,563.343  L  0,563.343  z " />
<path transform="translate( 0, 0 )" style="stroke: hsl(80.7, 55%, 50%);" id="391"  d=" M  0,0  L  50,0  L  50,563.343  L  0,563.343  z " />
<path transform="translate( 0, 0 )" style="stroke: hsl(107.6, 55%, 50%);" id="521"  d=" M  0,0  L  50,0  L  50,563.343  L  0,563.343  z " />
<path transform="translate( 0, 0 )" style="stroke: hsl(134.5, 55%, 50%);" id="651"  d=" M  0,0  L  50,0  L  50,563.343  L  0,563.343  z " />
<path transform="translate( 0, 0 )" style="stroke: hsl(161.4, 55%, 50%);" id="781"  d=" M  0,0  L  50,0  L  50,563.343  L  0,563.343  z " />
<path transform="translate( 0, 0 )" style="stroke: hsl(188.3, 55%, 50%);" id="911"  d=" M  0,0  L  50,0  L  50,563.343  L  0,563.343  z " />
<path transform="translate( 0, 0 )" style="stroke: hsl(215.2, 55%, 50%);" id="1041"  d=" M  0,0  L  50,0  L  50,563.343  L  0,563.343  z " />
<path transform="translate( 0, 0 )" style="stroke: hsl(242.1, 55%, 50%);" id="1171"  d=" M  0,0  L  50,0  L  50,563.343  L  0,563.343  z " />
<path transform="translate( 0, 0 )" style="stroke: hsl(269, 55%, 50%);" id="1301"  d=" M  0,0  L  50,0  L  50,563.343  L  0,563.343  z " />
<path transform="translate( 0, 0 )" style="stroke: hsl(295.9, 55%, 50%);" id="1431"  d=" M  0,0  L  50,0  L  50,563.343  L  0,563.343  z " />
    </g>
    <!-- End of group #neckBinding -->
    
    <!-- Start of group #sampler-front -->
    <g id="sampler-front" >
    </g>
    <!-- End of group #sampler-front -->
    
    <!-- Start of group #sampler-back -->
    <g id="sampler-back" >
    </g>
    <!-- End of group #sampler-back -->
    
    <!-- Start of group #sampler-sleeve -->
    <g id="sampler-sleeve" >
    </g>
    <!-- End of group #sampler-sleeve -->
    
    <!-- Start of group #sampler-pocket -->
    <g id="sampler-pocket" >
    </g>
    <!-- End of group #sampler-pocket -->
    
    <!-- Start of group #sampler-pocketFacing -->
    <g id="sampler-pocketFacing" >
    </g>
    <!-- End of group #sampler-pocketFacing -->
    
    <!-- Start of group #sampler-hoodSide -->
    <g id="sampler-hoodSide" >
    </g>
    <!-- End of group #sampler-hoodSide -->
    
    <!-- Start of group #sampler-hoodCenter -->
    <g id="sampler-hoodCenter" >
    </g>
    <!-- End of group #sampler-hoodCenter -->
    
    <!-- Start of group #sampler-cuff -->
    <g id="sampler-cuff" >
    </g>
    <!-- End of group #sampler-cuff -->
    
    <!-- Start of group #sampler-waistband -->
    <g id="sampler-waistband" >
    </g>
    <!-- End of group #sampler-waistband -->
    
    <!-- Start of group #sampler-neckBinding -->
    <g id="sampler-neckBinding" >
    </g>
    <!-- End of group #sampler-neckBinding -->
</g>
<!-- End of group #patternContainer -->

</svg>

