<?xml version="1.0" encoding="UTF-8" standalone="no"?>
<svg
    xmlns="http://www.w3.org/2000/svg"
    xmlns:svg="http://www.w3.org/2000/svg"
    xmlns:xlink="http://www.w3.org/1999/xlink"
    xmlns:freesewing="http://freesewing.org/namespaces/freesewing" viewBox ="0 0 1054 770"
    width ="1054mm"
    height ="770mm"
    freesewing:version ="1.5.0"
    freesewing:origin ="joost.core.freesewing.org" 
>

<style type="text/css">
    <![CDATA[
    path { fill: none; stroke: #000000; stroke-opacity:1; stroke-width: 0.5; stroke-miterlimit:4; stroke-dashoffset:0; stroke-linecap:round; stroke-linejoin:round; }
    path.hidden { fill: none; stroke: none; }]]>
</style>


<!-- Start of group #patternContainer -->
<g id="patternContainer" >
    
    <!-- Start of group #backBlock -->
    <g id="backBlock" >
    </g>
    <!-- End of group #backBlock -->
    
    <!-- Start of group #frontBlock -->
    <g id="frontBlock" >
    </g>
    <!-- End of group #frontBlock -->
    
    <!-- Start of group #sleeveBlock -->
    <g id="sleeveBlock" >
    </g>
    <!-- End of group #sleeveBlock -->
    
    <!-- Start of group #back -->
    <g id="back"  transform=" translate(5 5)  translate(453.91 0) " >
        <path class="hidden" id="2"  d=" M  0,0  L  290,0  L  290,740  L  0,740  z " />
<path transform="translate( 0, 0 )" style="stroke: hsl(26.9, 55%, 50%);" id="17"  d=" M  0,20  L  0,253.75  L  0,500  L  0,740  L  275,740  C  275,620  258.75,560  258.75,500  C  258.75,376.875  290,253.75  290,253.75  C  273.75,253.75  260.653,247.633  245.885,232.865  C  231.117,218.097  225,173.333  225,136.875  C  225,100.417  232.944,37.286  235,27.5  L  104.132,0  C  100.019,19.573  0,20  0,20  z " />
<path transform="translate( 0, 0 )" style="stroke: hsl(53.8, 55%, 50%);" id="35"  d=" M  0,20  L  0,258.15  L  0,500  L  0,740  L  275,740  C  275,620  258.75,560  258.75,500  C  258.75,379.075  290,258.15  290,258.15  C  273.75,258.15  260.89,251.992  246.024,237.126  C  231.158,222.26  225,176.267  225,139.075  C  225,101.883  232.944,37.286  235,27.5  L  104.132,0  C  100.019,19.573  0,20  0,20  z " />
<path transform="translate( 0, 0 )" style="stroke: hsl(80.7, 55%, 50%);" id="53"  d=" M  0,20  L  0,262.55  L  0,500  L  0,740  L  275,740  C  275,620  258.75,560  258.75,500  C  258.75,381.275  290,262.55  290,262.55  C  273.75,262.55  261.121,256.353  246.159,241.391  C  231.197,226.429  225,179.2  225,141.275  C  225,103.35  232.944,37.286  235,27.5  L  104.132,0  C  100.019,19.573  0,20  0,20  z " />
<path transform="translate( 0, 0 )" style="stroke: hsl(107.6, 55%, 50%);" id="71"  d=" M  0,20  L  0,266.95  L  0,500  L  0,740  L  275,740  C  275,620  258.75,560  258.75,500  C  258.75,383.475  290,266.95  290,266.95  C  273.75,266.95  261.348,260.714  246.292,245.658  C  231.236,230.602  225,182.133  225,143.475  C  225,104.817  232.944,37.286  235,27.5  L  104.132,0  C  100.019,19.573  0,20  0,20  z " />
<path transform="translate( 0, 0 )" style="stroke: hsl(134.5, 55%, 50%);" id="89"  d=" M  0,20  L  0,271.35  L  0,500  L  0,740  L  275,740  C  275,620  258.75,560  258.75,500  C  258.75,385.675  290,271.35  290,271.35  C  273.75,271.35  261.568,265.076  246.421,249.929  C  231.274,234.782  225,185.067  225,145.675  C  225,106.283  232.944,37.286  235,27.5  L  104.132,0  C  100.019,19.573  0,20  0,20  z " />
<path transform="translate( 0, 0 )" style="stroke: hsl(161.4, 55%, 50%);" id="107"  d=" M  0,20  L  0,275.75  L  0,500  L  0,740  L  275,740  C  275,620  258.75,560  258.75,500  C  258.75,387.875  290,275.75  290,275.75  C  273.75,275.75  261.785,269.439  246.548,254.202  C  231.311,238.965  225,188  225,147.875  C  225,107.75  232.944,37.286  235,27.5  L  104.132,0  C  100.019,19.573  0,20  0,20  z " />
<path transform="translate( 0, 0 )" style="stroke: hsl(188.3, 55%, 50%);" id="125"  d=" M  0,20  L  0,280.15  L  0,500  L  0,740  L  275,740  C  275,620  258.75,560  258.75,500  C  258.75,390.075  290,280.15  290,280.15  C  273.75,280.15  261.995,273.803  246.671,258.479  C  231.347,243.155  225,190.933  225,150.075  C  225,109.217  232.944,37.286  235,27.5  L  104.132,0  C  100.019,19.573  0,20  0,20  z " />
<path transform="translate( 0, 0 )" style="stroke: hsl(215.2, 55%, 50%);" id="143"  d=" M  0,20  L  0,284.55  L  0,500  L  0,740  L  275,740  C  275,620  258.75,560  258.75,500  C  258.75,392.275  290,284.55  290,284.55  C  273.75,284.55  262.201,278.167  246.792,262.758  C  231.383,247.349  225,193.867  225,152.275  C  225,110.683  232.944,37.286  235,27.5  L  104.132,0  C  100.019,19.573  0,20  0,20  z " />
<path transform="translate( 0, 0 )" style="stroke: hsl(242.1, 55%, 50%);" id="161"  d=" M  0,20  L  0,288.95  L  0,500  L  0,740  L  275,740  C  275,620  258.75,560  258.75,500  C  258.75,394.475  290,288.95  290,288.95  C  273.75,288.95  262.403,282.533  246.91,267.04  C  231.417,251.547  225,196.8  225,154.475  C  225,112.15  232.944,37.286  235,27.5  L  104.132,0  C  100.019,19.573  0,20  0,20  z " />
<path transform="translate( 0, 0 )" style="stroke: hsl(269, 55%, 50%);" id="179"  d=" M  0,20  L  0,293.35  L  0,500  L  0,740  L  275,740  C  275,620  258.75,560  258.75,500  C  258.75,396.675  290,293.35  290,293.35  C  273.75,293.35  262.599,286.899  247.025,271.325  C  231.451,255.751  225,199.733  225,156.675  C  225,113.617  232.944,37.286  235,27.5  L  104.132,0  C  100.019,19.573  0,20  0,20  z " />
<path transform="translate( 0, 0 )" style="stroke: hsl(295.9, 55%, 50%);" id="197"  d=" M  0,20  L  0,297.75  L  0,500  L  0,740  L  275,740  C  275,620  258.75,560  258.75,500  C  258.75,398.875  290,297.75  290,297.75  C  273.75,297.75  262.794,291.266  247.139,275.611  C  231.484,259.956  225,202.667  225,158.875  C  225,115.083  232.944,37.286  235,27.5  L  104.132,0  C  100.019,19.573  0,20  0,20  z " />
    </g>
    <!-- End of group #back -->
    
    <!-- Start of group #front -->
    <g id="front"  transform=" translate(5 5)  translate(753.91 0) " >
        <path class="hidden" id="3"  d=" M  0,0  L  290,0  L  290,740  L  0,740  z " />
<path transform="translate( 0, 0 )" style="stroke: hsl(26.9, 55%, 50%);" id="18"  d=" M  0,99.167  L  0,253.75  L  0,500  L  0,740  L  275,740  C  275,620  258.75,560  258.75,500  C  258.75,376.875  290,253.75  290,253.75  C  273.75,253.75  260.653,247.633  245.885,232.865  C  231.117,218.097  227.5,173.333  227.5,136.875  C  227.5,100.417  232.944,37.286  235,27.5  L  104.132,0  C  100.019,19.573  104.132,99.167  0,99.167  z " />
<path transform="translate( 0, 0 )" style="stroke: hsl(53.8, 55%, 50%);" id="36"  d=" M  0,99.167  L  0,258.15  L  0,500  L  0,740  L  275,740  C  275,620  258.75,560  258.75,500  C  258.75,379.075  290,258.15  290,258.15  C  273.75,258.15  260.89,251.992  246.024,237.126  C  231.158,222.26  227.5,176.267  227.5,139.075  C  227.5,101.883  232.944,37.286  235,27.5  L  104.132,0  C  100.019,19.573  104.132,99.167  0,99.167  z " />
<path transform="translate( 0, 0 )" style="stroke: hsl(80.7, 55%, 50%);" id="54"  d=" M  0,99.167  L  0,262.55  L  0,500  L  0,740  L  275,740  C  275,620  258.75,560  258.75,500  C  258.75,381.275  290,262.55  290,262.55  C  273.75,262.55  261.121,256.353  246.159,241.391  C  231.197,226.429  227.5,179.2  227.5,141.275  C  227.5,103.35  232.944,37.286  235,27.5  L  104.132,0  C  100.019,19.573  104.132,99.167  0,99.167  z " />
<path transform="translate( 0, 0 )" style="stroke: hsl(107.6, 55%, 50%);" id="72"  d=" M  0,99.167  L  0,266.95  L  0,500  L  0,740  L  275,740  C  275,620  258.75,560  258.75,500  C  258.75,383.475  290,266.95  290,266.95  C  273.75,266.95  261.348,260.714  246.292,245.658  C  231.236,230.602  227.5,182.133  227.5,143.475  C  227.5,104.817  232.944,37.286  235,27.5  L  104.132,0  C  100.019,19.573  104.132,99.167  0,99.167  z " />
<path transform="translate( 0, 0 )" style="stroke: hsl(134.5, 55%, 50%);" id="90"  d=" M  0,99.167  L  0,271.35  L  0,500  L  0,740  L  275,740  C  275,620  258.75,560  258.75,500  C  258.75,385.675  290,271.35  290,271.35  C  273.75,271.35  261.568,265.076  246.421,249.929  C  231.274,234.782  227.5,185.067  227.5,145.675  C  227.5,106.283  232.944,37.286  235,27.5  L  104.132,0  C  100.019,19.573  104.132,99.167  0,99.167  z " />
<path transform="translate( 0, 0 )" style="stroke: hsl(161.4, 55%, 50%);" id="108"  d=" M  0,99.167  L  0,275.75  L  0,500  L  0,740  L  275,740  C  275,620  258.75,560  258.75,500  C  258.75,387.875  290,275.75  290,275.75  C  273.75,275.75  261.785,269.439  246.548,254.202  C  231.311,238.965  227.5,188  227.5,147.875  C  227.5,107.75  232.944,37.286  235,27.5  L  104.132,0  C  100.019,19.573  104.132,99.167  0,99.167  z " />
<path transform="translate( 0, 0 )" style="stroke: hsl(188.3, 55%, 50%);" id="126"  d=" M  0,99.167  L  0,280.15  L  0,500  L  0,740  L  275,740  C  275,620  258.75,560  258.75,500  C  258.75,390.075  290,280.15  290,280.15  C  273.75,280.15  261.995,273.803  246.671,258.479  C  231.347,243.155  227.5,190.933  227.5,150.075  C  227.5,109.217  232.944,37.286  235,27.5  L  104.132,0  C  100.019,19.573  104.132,99.167  0,99.167  z " />
<path transform="translate( 0, 0 )" style="stroke: hsl(215.2, 55%, 50%);" id="144"  d=" M  0,99.167  L  0,284.55  L  0,500  L  0,740  L  275,740  C  275,620  258.75,560  258.75,500  C  258.75,392.275  290,284.55  290,284.55  C  273.75,284.55  262.201,278.167  246.792,262.758  C  231.383,247.349  227.5,193.867  227.5,152.275  C  227.5,110.683  232.944,37.286  235,27.5  L  104.132,0  C  100.019,19.573  104.132,99.167  0,99.167  z " />
<path transform="translate( 0, 0 )" style="stroke: hsl(242.1, 55%, 50%);" id="162"  d=" M  0,99.167  L  0,288.95  L  0,500  L  0,740  L  275,740  C  275,620  258.75,560  258.75,500  C  258.75,394.475  290,288.95  290,288.95  C  273.75,288.95  262.403,282.533  246.91,267.04  C  231.417,251.547  227.5,196.8  227.5,154.475  C  227.5,112.15  232.944,37.286  235,27.5  L  104.132,0  C  100.019,19.573  104.132,99.167  0,99.167  z " />
<path transform="translate( 0, 0 )" style="stroke: hsl(269, 55%, 50%);" id="180"  d=" M  0,99.167  L  0,293.35  L  0,500  L  0,740  L  275,740  C  275,620  258.75,560  258.75,500  C  258.75,396.675  290,293.35  290,293.35  C  273.75,293.35  262.599,286.899  247.025,271.325  C  231.451,255.751  227.5,199.733  227.5,156.675  C  227.5,113.617  232.944,37.286  235,27.5  L  104.132,0  C  100.019,19.573  104.132,99.167  0,99.167  z " />
<path transform="translate( 0, 0 )" style="stroke: hsl(295.9, 55%, 50%);" id="198"  d=" M  0,99.167  L  0,297.75  L  0,500  L  0,740  L  275,740  C  275,620  258.75,560  258.75,500  C  258.75,398.875  290,297.75  290,297.75  C  273.75,297.75  262.794,291.266  247.139,275.611  C  231.484,259.956  227.5,202.667  227.5,158.875  C  227.5,115.083  232.944,37.286  235,27.5  L  104.132,0  C  100.019,19.573  104.132,99.167  0,99.167  z " />
    </g>
    <!-- End of group #front -->
    
    <!-- Start of group #sleeve -->
    <g id="sleeve"  transform=" translate(226.955 5)  translate(0 0) " >
        <path class="hidden" id="4"  d=" M  -221.955,0  L  221.955,0  L  221.955,760  L  -221.955,760  z " />
<path transform="translate( 0, 0 )" style="stroke: hsl(26.9, 55%, 50%);" id="19"  d=" M  -125,760  L  -185.602,161.916  C  -185.602,161.916  -152.265,132.402  -135.488,113.792  C  -118.711,95.182  -92.801,58.972  -92.801,58.972  C  -92.801,58.972  -75.592,30.264  -54.445,16.826  C  -33.298,3.388  -25.056,-0  5,0  C  25.056,0  42.791,3.527  62.775,18.642  C  82.759,33.757  97.801,73.972  97.801,73.972  C  97.801,73.972  113.383,110.81  131.086,128.542  C  148.789,146.274  185.602,161.916  185.602,161.916  L  125,760  z " />
<path transform="translate( 0, 0 )" style="stroke: hsl(53.8, 55%, 50%);" id="37"  d=" M  -125,760  L  -189.106,163.733  C  -189.106,163.733  -155.286,133.918  -138.127,115.016  C  -120.968,96.114  -94.553,59.578  -94.553,59.578  C  -94.553,59.578  -76.871,30.707  -55.272,17.098  C  -33.673,3.489  -25.529,-0  5,0  C  25.529,0  43.135,3.575  63.567,18.881  C  83.999,34.187  99.553,74.578  99.553,74.578  C  99.553,74.578  115.655,111.775  133.747,129.786  C  151.839,147.797  189.106,163.733  189.106,163.733  L  125,760  z " />
<path transform="translate( 0, 0 )" style="stroke: hsl(80.7, 55%, 50%);" id="55"  d=" M  -125,760  L  -192.913,166.638  C  -192.913,166.638  -158.504,136.225  -140.985,116.956  C  -123.466,97.687  -96.457,60.546  -96.457,60.546  C  -96.457,60.546  -78.262,31.414  -56.204,17.568  C  -34.146,3.722  -26.043,-0  5,0  C  26.043,0  43.577,3.771  64.465,19.325  C  85.353,34.879  101.457,75.546  101.457,75.546  C  101.457,75.546  118.148,113.342  136.6,131.72  C  155.052,150.098  192.913,166.638  192.913,166.638  L  125,760  z " />
<path transform="translate( 0, 0 )" style="stroke: hsl(107.6, 55%, 50%);" id="73"  d=" M  -125,760  L  -196.465,168.624  C  -196.465,168.624  -161.558,137.863  -143.659,118.29  C  -125.76,98.717  -98.233,61.208  -98.233,61.208  C  -98.233,61.208  -79.559,31.899  -57.048,17.873  C  -34.537,3.847  -26.523,-0  5,0  C  26.523,0  43.937,3.848  65.276,19.6  C  86.615,35.352  103.233,76.208  103.233,76.208  C  103.233,76.208  120.452,114.397  139.289,133.069  C  158.126,151.741  196.465,168.624  196.465,168.624  L  125,760  z " />
<path transform="translate( 0, 0 )" style="stroke: hsl(134.5, 55%, 50%);" id="91"  d=" M  -125,760  L  -199.931,170.301  C  -199.931,170.301  -164.556,139.274  -146.27,119.421  C  -127.984,99.568  -99.966,61.767  -99.966,61.767  C  -99.966,61.767  -80.829,32.31  -57.868,18.123  C  -34.907,3.936  -26.991,-0  5,0  C  26.991,0  44.274,3.885  66.06,19.818  C  87.846,35.751  104.966,76.767  104.966,76.767  C  104.966,76.767  122.692,115.281  141.922,134.221  C  161.152,153.161  199.931,170.301  199.931,170.301  L  125,760  z " />
<path transform="translate( 0, 0 )" style="stroke: hsl(161.4, 55%, 50%);" id="109"  d=" M  -125,760  L  -203.861,173.649  C  -203.861,173.649  -167.853,141.903  -149.217,121.652  C  -130.581,101.401  -101.931,62.883  -101.931,62.883  C  -101.931,62.883  -82.263,33.125  -58.841,18.675  C  -35.419,4.225  -27.521,-0  5,0  C  27.521,0  44.761,4.148  67.007,20.351  C  89.253,36.554  106.931,77.883  106.931,77.883  C  106.931,77.883  125.277,117.094  144.854,136.436  C  164.431,155.778  203.861,173.649  203.861,173.649  L  125,760  z " />
<path transform="translate( 0, 0 )" style="stroke: hsl(188.3, 55%, 50%);" id="127"  d=" M  -125,760  L  -207.304,175.244  C  -207.304,175.244  -170.835,143.253  -151.811,122.728  C  -132.787,102.203  -103.652,63.415  -103.652,63.415  C  -103.652,63.415  -83.527,33.518  -59.654,18.913  C  -35.781,4.308  -27.986,-0  5,0  C  27.986,0  45.093,4.18  67.786,20.558  C  90.479,36.936  108.652,78.415  108.652,78.415  C  108.652,78.415  127.498,117.931  147.471,137.535  C  167.444,157.139  207.304,175.244  207.304,175.244  L  125,760  z " />
<path transform="translate( 0, 0 )" style="stroke: hsl(215.2, 55%, 50%);" id="145"  d=" M  -125,760  L  -211.148,178.283  C  -211.148,178.283  -174.077,145.658  -154.695,124.756  C  -135.313,103.854  -105.574,64.428  -105.574,64.428  C  -105.574,64.428  -84.933,34.259  -60.601,19.41  C  -36.269,4.561  -28.505,-0  5,0  C  28.505,0  45.554,4.404  68.705,21.034  C  91.856,37.664  110.574,79.428  110.574,79.428  C  110.574,79.428  130.017,119.571  150.346,139.553  C  170.675,159.535  211.148,178.283  211.148,178.283  L  125,760  z " />
<path transform="translate( 0, 0 )" style="stroke: hsl(242.1, 55%, 50%);" id="163"  d=" M  -125,760  L  -214.645,180.072  C  -214.645,180.072  -177.094,147.148  -157.328,125.959  C  -137.562,104.77  -107.323,65.024  -107.323,65.024  C  -107.323,65.024  -86.218,34.698  -61.435,19.683  C  -36.652,4.668  -28.977,-0  5,0  C  28.977,0  45.907,4.466  69.507,21.28  C  93.107,38.094  112.323,80.024  112.323,80.024  C  112.323,80.024  132.278,120.515  152.997,140.773  C  173.716,161.031  214.645,180.072  214.645,180.072  L  125,760  z " />
<path transform="translate( 0, 0 )" style="stroke: hsl(269, 55%, 50%);" id="181"  d=" M  -125,760  L  -218.4,182.789  C  -218.4,182.789  -180.277,149.315  -160.147,127.773  C  -140.017,106.231  -109.2,65.93  -109.2,65.93  C  -109.2,65.93  -87.593,35.363  -62.353,20.124  C  -37.113,4.885  -29.484,-0  5,0  C  29.484,0  46.343,4.651  70.399,21.699  C  94.455,38.747  114.2,80.93  114.2,80.93  C  114.2,80.93  134.731,121.976  155.815,142.586  C  176.899,163.196  218.4,182.789  218.4,182.789  L  125,760  z " />
<path transform="translate( 0, 0 )" style="stroke: hsl(295.9, 55%, 50%);" id="199"  d=" M  -125,760  L  -221.955,184.787  C  -221.955,184.787  -183.333,150.959  -162.822,129.115  C  -142.311,107.271  -110.978,66.596  -110.978,66.596  C  -110.978,66.596  -88.9,35.854  -63.207,20.436  C  -37.514,5.018  -29.964,-0  5,0  C  29.964,0  46.716,4.745  71.223,21.987  C  95.73,39.229  115.978,81.596  115.978,81.596  C  115.978,81.596  137.035,123.035  158.503,143.939  C  179.971,164.843  221.955,184.787  221.955,184.787  L  125,760  z " />
    </g>
    <!-- End of group #sleeve -->
    
    <!-- Start of group #sampler-back -->
    <g id="sampler-back" >
    </g>
    <!-- End of group #sampler-back -->
    
    <!-- Start of group #sampler-front -->
    <g id="sampler-front" >
    </g>
    <!-- End of group #sampler-front -->
    
    <!-- Start of group #sampler-sleeve -->
    <g id="sampler-sleeve" >
    </g>
    <!-- End of group #sampler-sleeve -->
</g>
<!-- End of group #patternContainer -->

</svg>

