<?xml version="1.0" encoding="UTF-8" standalone="no"?>
<svg
    width ="3537.6094521993"
    height ="2794.4787428278"
    viewbox ="0 0 3537.6094521993 2794.4787428278" xmlns:dc="http://purl.org/dc/elements/1.1/"
    xmlns:cc="http://creativecommons.org/ns#"
    xmlns:rdf="http://www.w3.org/1999/02/22-rdf-syntax-ns#"
    xmlns:svg="http://www.w3.org/2000/svg"
    xmlns="http://www.w3.org/2000/svg"
    xmlns:xlink="http://www.w3.org/1999/xlink"
    xmlns:sodipodi="http://sodipodi.sourceforge.net/DTD/sodipodi-0.dtd"
    xmlns:inkscape="http://www.inkscape.org/namespaces/inkscape" 
>

<style type="text/css">
    <![CDATA[
    path { fill: none; stroke: #000000; stroke-opacity:1; stroke-width: 0.5; stroke-miterlimit:4; stroke-dashoffset:0; stroke-linecap:round; stroke-linejoin:round; }
    path.hidden { fill: none; stroke: none; }]]>
</style>


<!-- Start of group #patternScaleContainer -->
<g id="patternScaleContainer"  transform=" scale(3.54330709 ) " >
    
    <!-- Start of group #backBlock -->
    <g id="backBlock"  transform=" translate(5 5)  translate(423.392 0) " >
        <path class="hidden" id="2"  d=" M  0,0  L  277.5,0  L  277.5,740  L  0,740  z " />
<path transform="translate( 0, 0 )" style="stroke: hsl(26.9, 55%, 50%);" id="17"  d=" M  0,20  L  0,282  L  0,500  L  0,740  L  277.5,740  L  277.5,282  C  264.375,282  256.991,276.511  243.74,263.26  C  230.489,250.009  225,192.167  225,151  C  225,109.833  232.944,37.286  235,27.5  L  104.132,0  C  100.019,19.573  0,20  0,20  z " />
<path transform="translate( 0, 0 )" style="stroke: hsl(53.8, 55%, 50%);" id="35"  d=" M  0,20  L  0,282  L  0,500  L  0,740  L  277.5,740  L  277.5,282  C  264.375,282  256.991,276.511  243.74,263.26  C  230.489,250.009  225,192.167  225,151  C  225,109.833  232.944,37.286  235,27.5  L  104.132,0  C  100.019,19.573  0,20  0,20  z " />
<path transform="translate( 0, 0 )" style="stroke: hsl(80.7, 55%, 50%);" id="53"  d=" M  0,20  L  0,282  L  0,500  L  0,740  L  277.5,740  L  277.5,282  C  264.375,282  256.991,276.511  243.74,263.26  C  230.489,250.009  225,192.167  225,151  C  225,109.833  232.944,37.286  235,27.5  L  104.132,0  C  100.019,19.573  0,20  0,20  z " />
<path transform="translate( 0, 0 )" style="stroke: hsl(107.6, 55%, 50%);" id="71"  d=" M  0,20  L  0,282  L  0,500  L  0,740  L  277.5,740  L  277.5,282  C  264.375,282  256.991,276.511  243.74,263.26  C  230.489,250.009  225,192.167  225,151  C  225,109.833  232.944,37.286  235,27.5  L  104.132,0  C  100.019,19.573  0,20  0,20  z " />
<path transform="translate( 0, 0 )" style="stroke: hsl(134.5, 55%, 50%);" id="89"  d=" M  0,20  L  0,282  L  0,500  L  0,740  L  277.5,740  L  277.5,282  C  264.375,282  256.991,276.511  243.74,263.26  C  230.489,250.009  225,192.167  225,151  C  225,109.833  232.944,37.286  235,27.5  L  104.132,0  C  100.019,19.573  0,20  0,20  z " />
<path transform="translate( 0, 0 )" style="stroke: hsl(161.4, 55%, 50%);" id="107"  d=" M  0,20  L  0,282  L  0,500  L  0,740  L  277.5,740  L  277.5,282  C  264.375,282  256.991,276.511  243.74,263.26  C  230.489,250.009  225,192.167  225,151  C  225,109.833  232.944,37.286  235,27.5  L  104.132,0  C  100.019,19.573  0,20  0,20  z " />
<path transform="translate( 0, 0 )" style="stroke: hsl(188.3, 55%, 50%);" id="125"  d=" M  0,20  L  0,282  L  0,500  L  0,740  L  277.5,740  L  277.5,282  C  264.375,282  256.991,276.511  243.74,263.26  C  230.489,250.009  225,192.167  225,151  C  225,109.833  232.944,37.286  235,27.5  L  104.132,0  C  100.019,19.573  0,20  0,20  z " />
<path transform="translate( 0, 0 )" style="stroke: hsl(215.2, 55%, 50%);" id="143"  d=" M  0,20  L  0,282  L  0,500  L  0,740  L  277.5,740  L  277.5,282  C  264.375,282  256.991,276.511  243.74,263.26  C  230.489,250.009  225,192.167  225,151  C  225,109.833  232.944,37.286  235,27.5  L  104.132,0  C  100.019,19.573  0,20  0,20  z " />
<path transform="translate( 0, 0 )" style="stroke: hsl(242.1, 55%, 50%);" id="161"  d=" M  0,20  L  0,282  L  0,500  L  0,740  L  277.5,740  L  277.5,282  C  264.375,282  256.991,276.511  243.74,263.26  C  230.489,250.009  225,192.167  225,151  C  225,109.833  232.944,37.286  235,27.5  L  104.132,0  C  100.019,19.573  0,20  0,20  z " />
<path transform="translate( 0, 0 )" style="stroke: hsl(269, 55%, 50%);" id="179"  d=" M  0,20  L  0,282  L  0,500  L  0,740  L  277.5,740  L  277.5,282  C  264.375,282  256.991,276.511  243.74,263.26  C  230.489,250.009  225,192.167  225,151  C  225,109.833  232.944,37.286  235,27.5  L  104.132,0  C  100.019,19.573  0,20  0,20  z " />
<path transform="translate( 0, 0 )" style="stroke: hsl(295.9, 55%, 50%);" id="197"  d=" M  0,20  L  0,282  L  0,500  L  0,740  L  277.5,740  L  277.5,282  C  264.375,282  256.991,276.511  243.74,263.26  C  230.489,250.009  225,192.167  225,151  C  225,109.833  232.944,37.286  235,27.5  L  104.132,0  C  100.019,19.573  0,20  0,20  z " />
    </g>
    <!-- End of group #backBlock -->
    
    <!-- Start of group #frontBlock -->
    <g id="frontBlock"  transform=" translate(5 5)  translate(710.892 0) " >
        <path class="hidden" id="3"  d=" M  0,0  L  277.5,0  L  277.5,740  L  0,740  z " />
<path transform="translate( 0, 0 )" style="stroke: hsl(26.9, 55%, 50%);" id="18"  d=" M  0,99.167  L  0,282  L  0,500  L  0,740  L  277.5,740  L  277.5,282  C  264.375,282  256.991,276.511  243.74,263.26  C  230.489,250.009  220,192.167  220,151  C  220,109.833  232.944,37.286  235,27.5  L  104.132,0  C  100.019,19.573  104.132,99.167  0,99.167  z " />
<path transform="translate( 0, 0 )" style="stroke: hsl(53.8, 55%, 50%);" id="36"  d=" M  0,99.167  L  0,282  L  0,500  L  0,740  L  277.5,740  L  277.5,282  C  264.375,282  256.991,276.511  243.74,263.26  C  230.489,250.009  220,192.167  220,151  C  220,109.833  232.944,37.286  235,27.5  L  104.132,0  C  100.019,19.573  104.132,99.167  0,99.167  z " />
<path transform="translate( 0, 0 )" style="stroke: hsl(80.7, 55%, 50%);" id="54"  d=" M  0,99.167  L  0,282  L  0,500  L  0,740  L  277.5,740  L  277.5,282  C  264.375,282  256.991,276.511  243.74,263.26  C  230.489,250.009  220,192.167  220,151  C  220,109.833  232.944,37.286  235,27.5  L  104.132,0  C  100.019,19.573  104.132,99.167  0,99.167  z " />
<path transform="translate( 0, 0 )" style="stroke: hsl(107.6, 55%, 50%);" id="72"  d=" M  0,99.167  L  0,282  L  0,500  L  0,740  L  277.5,740  L  277.5,282  C  264.375,282  256.991,276.511  243.74,263.26  C  230.489,250.009  220,192.167  220,151  C  220,109.833  232.944,37.286  235,27.5  L  104.132,0  C  100.019,19.573  104.132,99.167  0,99.167  z " />
<path transform="translate( 0, 0 )" style="stroke: hsl(134.5, 55%, 50%);" id="90"  d=" M  0,99.167  L  0,282  L  0,500  L  0,740  L  277.5,740  L  277.5,282  C  264.375,282  256.991,276.511  243.74,263.26  C  230.489,250.009  220,192.167  220,151  C  220,109.833  232.944,37.286  235,27.5  L  104.132,0  C  100.019,19.573  104.132,99.167  0,99.167  z " />
<path transform="translate( 0, 0 )" style="stroke: hsl(161.4, 55%, 50%);" id="108"  d=" M  0,99.167  L  0,282  L  0,500  L  0,740  L  277.5,740  L  277.5,282  C  264.375,282  256.991,276.511  243.74,263.26  C  230.489,250.009  220,192.167  220,151  C  220,109.833  232.944,37.286  235,27.5  L  104.132,0  C  100.019,19.573  104.132,99.167  0,99.167  z " />
<path transform="translate( 0, 0 )" style="stroke: hsl(188.3, 55%, 50%);" id="126"  d=" M  0,99.167  L  0,282  L  0,500  L  0,740  L  277.5,740  L  277.5,282  C  264.375,282  256.991,276.511  243.74,263.26  C  230.489,250.009  220,192.167  220,151  C  220,109.833  232.944,37.286  235,27.5  L  104.132,0  C  100.019,19.573  104.132,99.167  0,99.167  z " />
<path transform="translate( 0, 0 )" style="stroke: hsl(215.2, 55%, 50%);" id="144"  d=" M  0,99.167  L  0,282  L  0,500  L  0,740  L  277.5,740  L  277.5,282  C  264.375,282  256.991,276.511  243.74,263.26  C  230.489,250.009  220,192.167  220,151  C  220,109.833  232.944,37.286  235,27.5  L  104.132,0  C  100.019,19.573  104.132,99.167  0,99.167  z " />
<path transform="translate( 0, 0 )" style="stroke: hsl(242.1, 55%, 50%);" id="162"  d=" M  0,99.167  L  0,282  L  0,500  L  0,740  L  277.5,740  L  277.5,282  C  264.375,282  256.991,276.511  243.74,263.26  C  230.489,250.009  220,192.167  220,151  C  220,109.833  232.944,37.286  235,27.5  L  104.132,0  C  100.019,19.573  104.132,99.167  0,99.167  z " />
<path transform="translate( 0, 0 )" style="stroke: hsl(269, 55%, 50%);" id="180"  d=" M  0,99.167  L  0,282  L  0,500  L  0,740  L  277.5,740  L  277.5,282  C  264.375,282  256.991,276.511  243.74,263.26  C  230.489,250.009  220,192.167  220,151  C  220,109.833  232.944,37.286  235,27.5  L  104.132,0  C  100.019,19.573  104.132,99.167  0,99.167  z " />
<path transform="translate( 0, 0 )" style="stroke: hsl(295.9, 55%, 50%);" id="198"  d=" M  0,99.167  L  0,282  L  0,500  L  0,740  L  277.5,740  L  277.5,282  C  264.375,282  256.991,276.511  243.74,263.26  C  230.489,250.009  220,192.167  220,151  C  220,109.833  232.944,37.286  235,27.5  L  104.132,0  C  100.019,19.573  104.132,99.167  0,99.167  z " />
    </g>
    <!-- End of group #frontBlock -->
    
    <!-- Start of group #sleeveBlock -->
    <g id="sleeveBlock"  transform=" translate(211.696 5)  translate(0 0) " >
        <path class="hidden" id="4"  d=" M  -206.696,0  L  206.696,0  L  206.696,778.664  L  -206.696,778.664  z " />
<path transform="translate( 0, 0 )" style="stroke: hsl(26.9, 55%, 50%);" id="19"  d=" M  -125,760  L  -189.347,186.065  C  -189.347,186.065  -154.009,149.663  -138.098,129.656  C  -122.187,109.649  -94.674,67.022  -94.674,67.022  C  -94.674,67.022  -76.867,36.038  -56.004,21.268  C  -35.141,6.498  -25.562,-0  5,0  C  25.562,0  44.714,7.008  64.452,23.251  C  84.19,39.494  99.674,82.022  99.674,82.022  C  99.674,82.022  116.461,124.474  133.149,143.837  C  149.837,163.2  189.347,186.065  189.347,186.065  L  125,760  z " />
<path transform="translate( 0, 1.972 )" style="stroke: hsl(53.8, 55%, 50%);" id="37"  d=" M  -125,760  L  -191.337,184.093  C  -191.337,184.093  -155.913,148.429  -139.623,128.382  C  -123.333,108.335  -95.669,66.364  -95.669,66.364  C  -95.669,66.364  -77.609,35.58  -56.385,20.857  C  -35.161,6.134  -25.831,-0  5,0  C  25.831,0  44.703,6.557  64.793,22.794  C  84.883,39.031  100.669,81.364  100.669,81.364  C  100.669,81.364  117.664,123.288  134.757,142.655  C  151.85,162.022  191.337,184.093  191.337,184.093  L  125,760  z " />
<path transform="translate( 0, 3.922 )" style="stroke: hsl(80.7, 55%, 50%);" id="55"  d=" M  -125,760  L  -193.265,182.143  C  -193.265,182.143  -157.765,147.199  -141.102,127.122  C  -124.439,107.045  -96.633,65.714  -96.633,65.714  C  -96.633,65.714  -78.327,35.125  -56.752,20.453  C  -35.177,5.781  -26.091,-0  5,0  C  26.091,0  44.689,6.12  65.121,22.346  C  85.553,38.572  101.633,80.714  101.633,80.714  C  101.633,80.714  118.828,122.124  136.318,141.484  C  153.808,160.844  193.265,182.143  193.265,182.143  L  125,760  z " />
<path transform="translate( 0, 5.851 )" style="stroke: hsl(107.6, 55%, 50%);" id="73"  d=" M  -125,760  L  -195.129,180.214  C  -195.129,180.214  -159.562,145.973  -142.532,125.875  C  -125.502,105.777  -97.565,65.071  -97.565,65.071  C  -97.565,65.071  -79.022,34.674  -57.106,20.057  C  -35.19,5.44  -26.343,-0  5,0  C  26.343,0  44.671,5.695  65.436,21.906  C  86.201,38.117  102.565,80.071  102.565,80.071  C  102.565,80.071  119.951,120.98  137.832,140.325  C  155.713,159.67  195.129,180.214  195.129,180.214  L  125,760  z " />
<path transform="translate( 0, 7.761 )" style="stroke: hsl(134.5, 55%, 50%);" id="91"  d=" M  -125,760  L  -196.933,178.304  C  -196.933,178.304  -161.308,144.75  -143.918,124.64  C  -126.528,104.53  -98.467,64.435  -98.467,64.435  C  -98.467,64.435  -79.693,34.225  -57.447,19.667  C  -35.201,5.109  -26.586,-0  5,0  C  26.586,0  44.652,5.284  65.74,21.474  C  86.828,37.664  103.467,79.435  103.467,79.435  C  103.467,79.435  121.036,119.855  139.3,139.175  C  157.564,158.495  196.933,178.304  196.933,178.304  L  125,760  z " />
<path transform="translate( 0, 9.632 )" style="stroke: hsl(161.4, 55%, 50%);" id="109"  d=" M  -125,760  L  -198.697,176.433  C  -198.697,176.433  -163.018,143.546  -145.273,123.43  C  -127.528,103.314  -99.349,63.811  -99.349,63.811  C  -99.349,63.811  -80.351,33.781  -57.781,19.285  C  -35.211,4.789  -26.824,-0  5,0  C  26.824,0  44.632,4.886  66.037,21.052  C  87.442,37.218  104.349,78.811  104.349,78.811  C  104.349,78.811  122.096,118.758  140.737,138.046  C  159.378,157.334  198.697,176.433  198.697,176.433  L  125,760  z " />
<path transform="translate( 0, 11.484 )" style="stroke: hsl(188.3, 55%, 50%);" id="127"  d=" M  -125,760  L  -200.402,174.581  C  -200.402,174.581  -164.678,142.345  -146.585,122.232  C  -128.492,102.119  -100.201,63.194  -100.201,63.194  C  -100.201,63.194  -80.986,33.341  -58.103,18.909  C  -35.22,4.477  -27.054,-0  5,0  C  27.054,0  44.609,4.499  66.322,20.638  C  88.035,36.777  105.201,78.194  105.201,78.194  C  105.201,78.194  123.119,117.681  142.13,136.929  C  161.141,156.177  200.402,174.581  200.402,174.581  L  125,760  z " />
<path transform="translate( 0, 13.316 )" style="stroke: hsl(215.2, 55%, 50%);" id="145"  d=" M  -125,760  L  -202.049,172.749  C  -202.049,172.749  -166.288,141.149  -147.852,121.045  C  -129.416,100.941  -101.025,62.583  -101.025,62.583  C  -101.025,62.583  -81.6,32.905  -58.412,18.54  C  -35.224,4.175  -27.277,-0  5,0  C  27.277,0  44.582,4.123  66.595,20.231  C  88.608,36.339  106.025,77.583  106.025,77.583  C  106.025,77.583  124.104,116.619  143.478,135.82  C  162.852,155.021  202.049,172.749  202.049,172.749  L  125,760  z " />
<path transform="translate( 0, 15.129 )" style="stroke: hsl(242.1, 55%, 50%);" id="163"  d=" M  -125,760  L  -203.639,170.936  C  -203.639,170.936  -167.847,139.958  -149.077,119.872  C  -130.307,99.786  -101.82,61.979  -101.82,61.979  C  -101.82,61.979  -82.192,32.471  -58.709,18.177  C  -35.226,3.883  -27.491,-0  5,0  C  27.491,0  44.554,3.757  66.857,19.83  C  89.16,35.903  106.82,76.979  106.82,76.979  C  106.82,76.979  125.056,115.578  144.784,134.723  C  164.512,153.868  203.639,170.936  203.639,170.936  L  125,760  z " />
<path transform="translate( 0, 16.906 )" style="stroke: hsl(269, 55%, 50%);" id="181"  d=" M  -125,760  L  -205.194,169.159  C  -205.194,169.159  -169.375,138.784  -150.275,118.721  C  -131.175,98.658  -102.597,61.386  -102.597,61.386  C  -102.597,61.386  -82.772,32.044  -59.001,17.821  C  -35.23,3.598  -27.701,-0  5,0  C  27.701,0  44.525,3.403  67.113,19.439  C  89.701,35.475  107.597,76.386  107.597,76.386  C  107.597,76.386  125.984,114.56  146.061,133.645  C  166.138,152.73  205.194,169.159  205.194,169.159  L  125,760  z " />
<path transform="translate( 0, 18.664 )" style="stroke: hsl(295.9, 55%, 50%);" id="199"  d=" M  -125,760  L  -206.696,167.401  C  -206.696,167.401  -170.855,137.615  -151.432,117.581  C  -132.009,97.547  -103.348,60.8  -103.348,60.8  C  -103.348,60.8  -83.331,31.62  -59.28,17.471  C  -35.229,3.322  -27.904,-0  5,0  C  27.904,0  44.495,3.058  67.359,19.054  C  90.223,35.05  108.348,75.8  108.348,75.8  C  108.348,75.8  126.88,113.559  147.299,132.577  C  167.718,151.595  206.696,167.401  206.696,167.401  L  125,760  z " />
    </g>
    <!-- End of group #sleeveBlock -->
    
    <!-- Start of group #back -->
    <g id="back"  transform=" translate(0 0)  translate(998.392 0) " >
    </g>
    <!-- End of group #back -->
    
    <!-- Start of group #front -->
    <g id="front"  transform=" translate(0 0)  translate(998.392 0) " >
    </g>
    <!-- End of group #front -->
    
    <!-- Start of group #sleeve -->
    <g id="sleeve"  transform=" translate(0 0)  translate(998.392 0) " >
    </g>
    <!-- End of group #sleeve -->
    
    <!-- Start of group #sampler-backBlock -->
    <g id="sampler-backBlock"  transform=" translate(0 0)  translate(998.392 0) " >
    </g>
    <!-- End of group #sampler-backBlock -->
    
    <!-- Start of group #sampler-frontBlock -->
    <g id="sampler-frontBlock"  transform=" translate(0 0)  translate(998.392 0) " >
    </g>
    <!-- End of group #sampler-frontBlock -->
    
    <!-- Start of group #sampler-sleeveBlock -->
    <g id="sampler-sleeveBlock"  transform=" translate(0 0)  translate(998.392 0) " >
    </g>
    <!-- End of group #sampler-sleeveBlock -->
</g>
<!-- End of group #patternScaleContainer -->

</svg>

