<?xml version="1.0" encoding="UTF-8" standalone="no"?>
<svg
    xmlns="http://www.w3.org/2000/svg"
    xmlns:svg="http://www.w3.org/2000/svg"
    xmlns:xlink="http://www.w3.org/1999/xlink"
    xmlns:freesewing="http://freesewing.org/namespaces/freesewing" viewBox ="0 0 1018 850"
    width ="1018mm"
    height ="850mm"
    freesewing:version ="1.5.0"
    freesewing:origin ="joost.core.freesewing.org" 
>

<style type="text/css">
    <![CDATA[
    path { fill: none; stroke: #000000; stroke-opacity:1; stroke-width: 0.5; stroke-miterlimit:4; stroke-dashoffset:0; stroke-linecap:round; stroke-linejoin:round; }
    path.hidden { fill: none; stroke: none; }]]>
</style>


<!-- Start of group #patternContainer -->
<g id="patternContainer" >
    
    <!-- Start of group #backBlock -->
    <g id="backBlock" >
    </g>
    <!-- End of group #backBlock -->
    
    <!-- Start of group #frontBlock -->
    <g id="frontBlock" >
    </g>
    <!-- End of group #frontBlock -->
    
    <!-- Start of group #sleeveBlock -->
    <g id="sleeveBlock" >
    </g>
    <!-- End of group #sleeveBlock -->
    
    <!-- Start of group #back -->
    <g id="back"  transform=" translate(5 225)  translate(0 0) " >
        <path class="hidden" id="2"  d=" M  0,-220  L  290,-220  L  290,620  L  0,620  z " />
<path transform="translate( 0, 0 )" style="stroke: hsl(26.9, 55%, 50%);" id="17"  d=" M  0,20  L  0,275.75  L  0,500  L  0,620  L  275,620  C  275,620  258.75,560  258.75,500  C  258.75,387.875  290,275.75  290,275.75  C  273.75,275.75  261.785,269.439  246.548,254.202  C  231.311,238.965  225,188  225,147.875  C  225,107.75  232.944,37.286  235,27.5  L  104.132,0  C  100.019,19.573  0,20  0,20  z " />
<path transform="translate( 0, -22 )" style="stroke: hsl(53.8, 55%, 50%);" id="35"  d=" M  0,20  L  0,275.75  L  0,500  L  0,642  L  275,642  C  275,620  258.75,560  258.75,500  C  258.75,387.875  290,275.75  290,275.75  C  273.75,275.75  261.785,269.439  246.548,254.202  C  231.311,238.965  225,188  225,147.875  C  225,107.75  232.944,37.286  235,27.5  L  104.132,0  C  100.019,19.573  0,20  0,20  z " />
<path transform="translate( 0, -44 )" style="stroke: hsl(80.7, 55%, 50%);" id="53"  d=" M  0,20  L  0,275.75  L  0,500  L  0,664  L  275,664  C  275,620  258.75,560  258.75,500  C  258.75,387.875  290,275.75  290,275.75  C  273.75,275.75  261.785,269.439  246.548,254.202  C  231.311,238.965  225,188  225,147.875  C  225,107.75  232.944,37.286  235,27.5  L  104.132,0  C  100.019,19.573  0,20  0,20  z " />
<path transform="translate( 0, -66 )" style="stroke: hsl(107.6, 55%, 50%);" id="71"  d=" M  0,20  L  0,275.75  L  0,500  L  0,686  L  275,686  C  275,620  258.75,560  258.75,500  C  258.75,387.875  290,275.75  290,275.75  C  273.75,275.75  261.785,269.439  246.548,254.202  C  231.311,238.965  225,188  225,147.875  C  225,107.75  232.944,37.286  235,27.5  L  104.132,0  C  100.019,19.573  0,20  0,20  z " />
<path transform="translate( 0, -88 )" style="stroke: hsl(134.5, 55%, 50%);" id="89"  d=" M  0,20  L  0,275.75  L  0,500  L  0,708  L  275,708  C  275,620  258.75,560  258.75,500  C  258.75,387.875  290,275.75  290,275.75  C  273.75,275.75  261.785,269.439  246.548,254.202  C  231.311,238.965  225,188  225,147.875  C  225,107.75  232.944,37.286  235,27.5  L  104.132,0  C  100.019,19.573  0,20  0,20  z " />
<path transform="translate( 0, -110 )" style="stroke: hsl(161.4, 55%, 50%);" id="107"  d=" M  0,20  L  0,275.75  L  0,500  L  0,730  L  275,730  C  275,620  258.75,560  258.75,500  C  258.75,387.875  290,275.75  290,275.75  C  273.75,275.75  261.785,269.439  246.548,254.202  C  231.311,238.965  225,188  225,147.875  C  225,107.75  232.944,37.286  235,27.5  L  104.132,0  C  100.019,19.573  0,20  0,20  z " />
<path transform="translate( 0, -132 )" style="stroke: hsl(188.3, 55%, 50%);" id="125"  d=" M  0,20  L  0,275.75  L  0,500  L  0,752  L  275,752  C  275,620  258.75,560  258.75,500  C  258.75,387.875  290,275.75  290,275.75  C  273.75,275.75  261.785,269.439  246.548,254.202  C  231.311,238.965  225,188  225,147.875  C  225,107.75  232.944,37.286  235,27.5  L  104.132,0  C  100.019,19.573  0,20  0,20  z " />
<path transform="translate( 0, -154 )" style="stroke: hsl(215.2, 55%, 50%);" id="143"  d=" M  0,20  L  0,275.75  L  0,500  L  0,774  L  275,774  C  275,620  258.75,560  258.75,500  C  258.75,387.875  290,275.75  290,275.75  C  273.75,275.75  261.785,269.439  246.548,254.202  C  231.311,238.965  225,188  225,147.875  C  225,107.75  232.944,37.286  235,27.5  L  104.132,0  C  100.019,19.573  0,20  0,20  z " />
<path transform="translate( 0, -176 )" style="stroke: hsl(242.1, 55%, 50%);" id="161"  d=" M  0,20  L  0,275.75  L  0,500  L  0,796  L  275,796  C  275,620  258.75,560  258.75,500  C  258.75,387.875  290,275.75  290,275.75  C  273.75,275.75  261.785,269.439  246.548,254.202  C  231.311,238.965  225,188  225,147.875  C  225,107.75  232.944,37.286  235,27.5  L  104.132,0  C  100.019,19.573  0,20  0,20  z " />
<path transform="translate( 0, -198 )" style="stroke: hsl(269, 55%, 50%);" id="179"  d=" M  0,20  L  0,275.75  L  0,500  L  0,818  L  275,818  C  275,620  258.75,560  258.75,500  C  258.75,387.875  290,275.75  290,275.75  C  273.75,275.75  261.785,269.439  246.548,254.202  C  231.311,238.965  225,188  225,147.875  C  225,107.75  232.944,37.286  235,27.5  L  104.132,0  C  100.019,19.573  0,20  0,20  z " />
<path transform="translate( 0, -220 )" style="stroke: hsl(295.9, 55%, 50%);" id="197"  d=" M  0,20  L  0,275.75  L  0,500  L  0,840  L  275,840  C  275,620  258.75,560  258.75,500  C  258.75,387.875  290,275.75  290,275.75  C  273.75,275.75  261.785,269.439  246.548,254.202  C  231.311,238.965  225,188  225,147.875  C  225,107.75  232.944,37.286  235,27.5  L  104.132,0  C  100.019,19.573  0,20  0,20  z " />
    </g>
    <!-- End of group #back -->
    
    <!-- Start of group #front -->
    <g id="front"  transform=" translate(5 225)  translate(300 0) " >
        <path class="hidden" id="3"  d=" M  0,-220  L  290,-220  L  290,620  L  0,620  z " />
<path transform="translate( 0, 0 )" style="stroke: hsl(26.9, 55%, 50%);" id="18"  d=" M  0,99.167  L  0,275.75  L  0,500  L  0,620  L  275,620  C  275,620  258.75,560  258.75,500  C  258.75,387.875  290,275.75  290,275.75  C  273.75,275.75  261.785,269.439  246.548,254.202  C  231.311,238.965  227.5,188  227.5,147.875  C  227.5,107.75  232.944,37.286  235,27.5  L  104.132,0  C  100.019,19.573  104.132,99.167  0,99.167  z " />
<path transform="translate( 0, -22 )" style="stroke: hsl(53.8, 55%, 50%);" id="36"  d=" M  0,99.167  L  0,275.75  L  0,500  L  0,642  L  275,642  C  275,620  258.75,560  258.75,500  C  258.75,387.875  290,275.75  290,275.75  C  273.75,275.75  261.785,269.439  246.548,254.202  C  231.311,238.965  227.5,188  227.5,147.875  C  227.5,107.75  232.944,37.286  235,27.5  L  104.132,0  C  100.019,19.573  104.132,99.167  0,99.167  z " />
<path transform="translate( 0, -44 )" style="stroke: hsl(80.7, 55%, 50%);" id="54"  d=" M  0,99.167  L  0,275.75  L  0,500  L  0,664  L  275,664  C  275,620  258.75,560  258.75,500  C  258.75,387.875  290,275.75  290,275.75  C  273.75,275.75  261.785,269.439  246.548,254.202  C  231.311,238.965  227.5,188  227.5,147.875  C  227.5,107.75  232.944,37.286  235,27.5  L  104.132,0  C  100.019,19.573  104.132,99.167  0,99.167  z " />
<path transform="translate( 0, -66 )" style="stroke: hsl(107.6, 55%, 50%);" id="72"  d=" M  0,99.167  L  0,275.75  L  0,500  L  0,686  L  275,686  C  275,620  258.75,560  258.75,500  C  258.75,387.875  290,275.75  290,275.75  C  273.75,275.75  261.785,269.439  246.548,254.202  C  231.311,238.965  227.5,188  227.5,147.875  C  227.5,107.75  232.944,37.286  235,27.5  L  104.132,0  C  100.019,19.573  104.132,99.167  0,99.167  z " />
<path transform="translate( 0, -88 )" style="stroke: hsl(134.5, 55%, 50%);" id="90"  d=" M  0,99.167  L  0,275.75  L  0,500  L  0,708  L  275,708  C  275,620  258.75,560  258.75,500  C  258.75,387.875  290,275.75  290,275.75  C  273.75,275.75  261.785,269.439  246.548,254.202  C  231.311,238.965  227.5,188  227.5,147.875  C  227.5,107.75  232.944,37.286  235,27.5  L  104.132,0  C  100.019,19.573  104.132,99.167  0,99.167  z " />
<path transform="translate( 0, -110 )" style="stroke: hsl(161.4, 55%, 50%);" id="108"  d=" M  0,99.167  L  0,275.75  L  0,500  L  0,730  L  275,730  C  275,620  258.75,560  258.75,500  C  258.75,387.875  290,275.75  290,275.75  C  273.75,275.75  261.785,269.439  246.548,254.202  C  231.311,238.965  227.5,188  227.5,147.875  C  227.5,107.75  232.944,37.286  235,27.5  L  104.132,0  C  100.019,19.573  104.132,99.167  0,99.167  z " />
<path transform="translate( 0, -132 )" style="stroke: hsl(188.3, 55%, 50%);" id="126"  d=" M  0,99.167  L  0,275.75  L  0,500  L  0,752  L  275,752  C  275,620  258.75,560  258.75,500  C  258.75,387.875  290,275.75  290,275.75  C  273.75,275.75  261.785,269.439  246.548,254.202  C  231.311,238.965  227.5,188  227.5,147.875  C  227.5,107.75  232.944,37.286  235,27.5  L  104.132,0  C  100.019,19.573  104.132,99.167  0,99.167  z " />
<path transform="translate( 0, -154 )" style="stroke: hsl(215.2, 55%, 50%);" id="144"  d=" M  0,99.167  L  0,275.75  L  0,500  L  0,774  L  275,774  C  275,620  258.75,560  258.75,500  C  258.75,387.875  290,275.75  290,275.75  C  273.75,275.75  261.785,269.439  246.548,254.202  C  231.311,238.965  227.5,188  227.5,147.875  C  227.5,107.75  232.944,37.286  235,27.5  L  104.132,0  C  100.019,19.573  104.132,99.167  0,99.167  z " />
<path transform="translate( 0, -176 )" style="stroke: hsl(242.1, 55%, 50%);" id="162"  d=" M  0,99.167  L  0,275.75  L  0,500  L  0,796  L  275,796  C  275,620  258.75,560  258.75,500  C  258.75,387.875  290,275.75  290,275.75  C  273.75,275.75  261.785,269.439  246.548,254.202  C  231.311,238.965  227.5,188  227.5,147.875  C  227.5,107.75  232.944,37.286  235,27.5  L  104.132,0  C  100.019,19.573  104.132,99.167  0,99.167  z " />
<path transform="translate( 0, -198 )" style="stroke: hsl(269, 55%, 50%);" id="180"  d=" M  0,99.167  L  0,275.75  L  0,500  L  0,818  L  275,818  C  275,620  258.75,560  258.75,500  C  258.75,387.875  290,275.75  290,275.75  C  273.75,275.75  261.785,269.439  246.548,254.202  C  231.311,238.965  227.5,188  227.5,147.875  C  227.5,107.75  232.944,37.286  235,27.5  L  104.132,0  C  100.019,19.573  104.132,99.167  0,99.167  z " />
<path transform="translate( 0, -220 )" style="stroke: hsl(295.9, 55%, 50%);" id="198"  d=" M  0,99.167  L  0,275.75  L  0,500  L  0,840  L  275,840  C  275,620  258.75,560  258.75,500  C  258.75,387.875  290,275.75  290,275.75  C  273.75,275.75  261.785,269.439  246.548,254.202  C  231.311,238.965  227.5,188  227.5,147.875  C  227.5,107.75  232.944,37.286  235,27.5  L  104.132,0  C  100.019,19.573  104.132,99.167  0,99.167  z " />
    </g>
    <!-- End of group #front -->
    
    <!-- Start of group #sleeve -->
    <g id="sleeve"  transform=" translate(208.861 5)  translate(600 0) " >
        <path class="hidden" id="4"  d=" M  -203.861,0  L  203.861,0  L  203.861,760  L  -203.861,760  z " />
<path transform="translate( 0, 0 )" style="stroke: hsl(26.9, 55%, 50%);" id="19"  d=" M  -125,760  L  -203.861,173.649  C  -203.861,173.649  -167.853,141.903  -149.217,121.652  C  -130.581,101.401  -101.931,62.883  -101.931,62.883  C  -101.931,62.883  -82.263,33.125  -58.841,18.675  C  -35.419,4.225  -27.521,-0  5,0  C  27.521,0  44.761,4.148  67.007,20.351  C  89.253,36.554  106.931,77.883  106.931,77.883  C  106.931,77.883  125.277,117.094  144.854,136.436  C  164.431,155.778  203.861,173.649  203.861,173.649  L  125,760  z " />
<path transform="translate( 0, 0 )" style="stroke: hsl(53.8, 55%, 50%);" id="37"  d=" M  -125,760  L  -203.861,173.649  C  -203.861,173.649  -167.853,141.903  -149.217,121.652  C  -130.581,101.401  -101.931,62.883  -101.931,62.883  C  -101.931,62.883  -82.263,33.125  -58.841,18.675  C  -35.419,4.225  -27.521,-0  5,0  C  27.521,0  44.761,4.148  67.007,20.351  C  89.253,36.554  106.931,77.883  106.931,77.883  C  106.931,77.883  125.277,117.094  144.854,136.436  C  164.431,155.778  203.861,173.649  203.861,173.649  L  125,760  z " />
<path transform="translate( 0, 0 )" style="stroke: hsl(80.7, 55%, 50%);" id="55"  d=" M  -125,760  L  -203.861,173.649  C  -203.861,173.649  -167.853,141.903  -149.217,121.652  C  -130.581,101.401  -101.931,62.883  -101.931,62.883  C  -101.931,62.883  -82.263,33.125  -58.841,18.675  C  -35.419,4.225  -27.521,-0  5,0  C  27.521,0  44.761,4.148  67.007,20.351  C  89.253,36.554  106.931,77.883  106.931,77.883  C  106.931,77.883  125.277,117.094  144.854,136.436  C  164.431,155.778  203.861,173.649  203.861,173.649  L  125,760  z " />
<path transform="translate( 0, 0 )" style="stroke: hsl(107.6, 55%, 50%);" id="73"  d=" M  -125,760  L  -203.861,173.649  C  -203.861,173.649  -167.853,141.903  -149.217,121.652  C  -130.581,101.401  -101.931,62.883  -101.931,62.883  C  -101.931,62.883  -82.263,33.125  -58.841,18.675  C  -35.419,4.225  -27.521,-0  5,0  C  27.521,0  44.761,4.148  67.007,20.351  C  89.253,36.554  106.931,77.883  106.931,77.883  C  106.931,77.883  125.277,117.094  144.854,136.436  C  164.431,155.778  203.861,173.649  203.861,173.649  L  125,760  z " />
<path transform="translate( 0, 0 )" style="stroke: hsl(134.5, 55%, 50%);" id="91"  d=" M  -125,760  L  -203.861,173.649  C  -203.861,173.649  -167.853,141.903  -149.217,121.652  C  -130.581,101.401  -101.931,62.883  -101.931,62.883  C  -101.931,62.883  -82.263,33.125  -58.841,18.675  C  -35.419,4.225  -27.521,-0  5,0  C  27.521,0  44.761,4.148  67.007,20.351  C  89.253,36.554  106.931,77.883  106.931,77.883  C  106.931,77.883  125.277,117.094  144.854,136.436  C  164.431,155.778  203.861,173.649  203.861,173.649  L  125,760  z " />
<path transform="translate( 0, 0 )" style="stroke: hsl(161.4, 55%, 50%);" id="109"  d=" M  -125,760  L  -203.861,173.649  C  -203.861,173.649  -167.853,141.903  -149.217,121.652  C  -130.581,101.401  -101.931,62.883  -101.931,62.883  C  -101.931,62.883  -82.263,33.125  -58.841,18.675  C  -35.419,4.225  -27.521,-0  5,0  C  27.521,0  44.761,4.148  67.007,20.351  C  89.253,36.554  106.931,77.883  106.931,77.883  C  106.931,77.883  125.277,117.094  144.854,136.436  C  164.431,155.778  203.861,173.649  203.861,173.649  L  125,760  z " />
<path transform="translate( 0, 0 )" style="stroke: hsl(188.3, 55%, 50%);" id="127"  d=" M  -125,760  L  -203.861,173.649  C  -203.861,173.649  -167.853,141.903  -149.217,121.652  C  -130.581,101.401  -101.931,62.883  -101.931,62.883  C  -101.931,62.883  -82.263,33.125  -58.841,18.675  C  -35.419,4.225  -27.521,-0  5,0  C  27.521,0  44.761,4.148  67.007,20.351  C  89.253,36.554  106.931,77.883  106.931,77.883  C  106.931,77.883  125.277,117.094  144.854,136.436  C  164.431,155.778  203.861,173.649  203.861,173.649  L  125,760  z " />
<path transform="translate( 0, 0 )" style="stroke: hsl(215.2, 55%, 50%);" id="145"  d=" M  -125,760  L  -203.861,173.649  C  -203.861,173.649  -167.853,141.903  -149.217,121.652  C  -130.581,101.401  -101.931,62.883  -101.931,62.883  C  -101.931,62.883  -82.263,33.125  -58.841,18.675  C  -35.419,4.225  -27.521,-0  5,0  C  27.521,0  44.761,4.148  67.007,20.351  C  89.253,36.554  106.931,77.883  106.931,77.883  C  106.931,77.883  125.277,117.094  144.854,136.436  C  164.431,155.778  203.861,173.649  203.861,173.649  L  125,760  z " />
<path transform="translate( 0, 0 )" style="stroke: hsl(242.1, 55%, 50%);" id="163"  d=" M  -125,760  L  -203.861,173.649  C  -203.861,173.649  -167.853,141.903  -149.217,121.652  C  -130.581,101.401  -101.931,62.883  -101.931,62.883  C  -101.931,62.883  -82.263,33.125  -58.841,18.675  C  -35.419,4.225  -27.521,-0  5,0  C  27.521,0  44.761,4.148  67.007,20.351  C  89.253,36.554  106.931,77.883  106.931,77.883  C  106.931,77.883  125.277,117.094  144.854,136.436  C  164.431,155.778  203.861,173.649  203.861,173.649  L  125,760  z " />
<path transform="translate( 0, 0 )" style="stroke: hsl(269, 55%, 50%);" id="181"  d=" M  -125,760  L  -203.861,173.649  C  -203.861,173.649  -167.853,141.903  -149.217,121.652  C  -130.581,101.401  -101.931,62.883  -101.931,62.883  C  -101.931,62.883  -82.263,33.125  -58.841,18.675  C  -35.419,4.225  -27.521,-0  5,0  C  27.521,0  44.761,4.148  67.007,20.351  C  89.253,36.554  106.931,77.883  106.931,77.883  C  106.931,77.883  125.277,117.094  144.854,136.436  C  164.431,155.778  203.861,173.649  203.861,173.649  L  125,760  z " />
<path transform="translate( 0, 0 )" style="stroke: hsl(295.9, 55%, 50%);" id="199"  d=" M  -125,760  L  -203.861,173.649  C  -203.861,173.649  -167.853,141.903  -149.217,121.652  C  -130.581,101.401  -101.931,62.883  -101.931,62.883  C  -101.931,62.883  -82.263,33.125  -58.841,18.675  C  -35.419,4.225  -27.521,-0  5,0  C  27.521,0  44.761,4.148  67.007,20.351  C  89.253,36.554  106.931,77.883  106.931,77.883  C  106.931,77.883  125.277,117.094  144.854,136.436  C  164.431,155.778  203.861,173.649  203.861,173.649  L  125,760  z " />
    </g>
    <!-- End of group #sleeve -->
    
    <!-- Start of group #sampler-back -->
    <g id="sampler-back" >
    </g>
    <!-- End of group #sampler-back -->
    
    <!-- Start of group #sampler-front -->
    <g id="sampler-front" >
    </g>
    <!-- End of group #sampler-front -->
    
    <!-- Start of group #sampler-sleeve -->
    <g id="sampler-sleeve" >
    </g>
    <!-- End of group #sampler-sleeve -->
</g>
<!-- End of group #patternContainer -->

</svg>

