<?xml version="1.0" encoding="UTF-8" standalone="no"?>
<!-- Created with Inkscape (http://www.inkscape.org/) -->

<svg
   xmlns:dc="http://purl.org/dc/elements/1.1/"
   xmlns:cc="http://creativecommons.org/ns#"
   xmlns:rdf="http://www.w3.org/1999/02/22-rdf-syntax-ns#"
   xmlns:svg="http://www.w3.org/2000/svg"
   xmlns="http://www.w3.org/2000/svg"
   xmlns:sodipodi="http://sodipodi.sourceforge.net/DTD/sodipodi-0.dtd"
   xmlns:inkscape="http://www.inkscape.org/namespaces/inkscape"
   width="1000.725037"
   height="1119.096558"
   id="svg2865"
   version="1.1"
   inkscape:version="0.47 r22583"
   sodipodi:docname="New document 3">
  <defs
     id="defs2867">
    <inkscape:perspective
       sodipodi:type="inkscape:persp3d"
       inkscape:vp_x="0 : 526.1810913 : 1"
       inkscape:vp_y="0 : 1000 : 0"
       inkscape:vp_z="744.0944824 : 526.1810913 : 1"
       inkscape:persp3d-origin="372.0472412 : 350.7873942 : 1"
       id="perspective2873" />
    <inkscape:perspective
       id="perspective2860"
       inkscape:persp3d-origin="0.5 : 0.3333333333 : 1"
       inkscape:vp_z="1 : 0.5 : 1"
       inkscape:vp_y="0 : 1000 : 0"
       inkscape:vp_x="0 : 0.5 : 1"
       sodipodi:type="inkscape:persp3d" />
  </defs>
  <sodipodi:namedview
     id="base"
     pagecolor="#ffffff"
     bordercolor="#666666"
     borderopacity="1.0"
     inkscape:pageopacity="0.0"
     inkscape:pageshadow="2"
     inkscape:zoom="0.35"
     inkscape:cx="298.2196684"
     inkscape:cy="508.1196997"
     inkscape:document-units="px"
     inkscape:current-layer="layer1"
     showgrid="false"
     inkscape:window-width="1920"
     inkscape:window-height="1061"
     inkscape:window-x="-4"
     inkscape:window-y="-4"
     inkscape:window-maximized="0" />
  <metadata
     id="metadata2870">
    <rdf:RDF>
      <cc:Work
         rdf:about="">
        <dc:format>image/svg+xml</dc:format>
        <dc:type
           rdf:resource="http://purl.org/dc/dcmitype/StillImage" />
        <dc:title></dc:title>
      </cc:Work>
    </rdf:RDF>
  </metadata>
  <g
     inkscape:label="Layer 1"
     inkscape:groupmode="layer"
     id="layer1"
     transform="translate(-76.78033165,78.61465949)">
    <path
       id="path2987"
       d="M 581.1242007,1039.608665 C 548.3038787,1037.753304 516.7291317,1033.15995 488.2412087,1026.096458 446.2386397,1015.682051 423.3274127,1007.612764 383.9028537,989.3487035 320.4443677,959.7984955 278.4501487,923.3041435 238.8463857,866.9422934 229.9729727,853.8510944 228.6186027,851.5908074 218.9045647,833.6616854 209.1675997,815.6902454 208.0509577,813.2999364 197.5968427,788.0498524 187.8793617,764.5789784 180.9849397,740.2674044 174.3158337,713.9840884 169.6727947,695.6856134 169.0297307,677.1029344 167.8157347,658.4810274 167.7379237,658.4279934 164.9601467,657.4975674 161.6428977,656.4134144 152.1621367,653.4846034 142.2978657,648.0866954 137.2117857,639.1881814 142.9395287,627.3049444 155.6783807,623.1998364 167.6742607,621.0913034 174.5793867,620.2233304 175.2161647,619.2097344 175.2081697,609.0991524 175.4882507,584.5178824 170.7742327,560.0928544 153.0536147,542.3288124 133.7683497,523.4668464 102.2667027,530.6415784 86.14582071,549.9310124 82.80695271,553.9671714 79.44511671,560.1965564 77.50538271,562.7006144 75.75983671,562.0023964 76.81164171,552.7773594 84.60304771,542.4491664 116.5546177,500.0945564 157.8112777,510.5051694 179.3978247,552.8106514 186.5143387,569.4220784 189.4653727,583.7985414 190.6632877,607.6922684 190.9037977,612.4894974 191.3822647,616.4102464 191.7962787,616.9764444 192.3069917,617.6748854 195.8769747,618.5443234 204.2190537,620.0019004 258.3672597,629.4629904 259.1390907,629.5250954 322.3787237,629.5096254 365.9523557,629.4989664 383.3529907,629.1568394 415.7561777,627.6736634 423.4652487,627.3207994 423.8162567,627.2479734 424.4435407,625.8712344 425.3543257,623.8722804 424.3220657,616.9241894 420.6434337,600.2928944 414.9916727,574.7409794 409.4153337,557.7964884 402.0847217,543.8996494 399.1626497,538.3601964 398.0449507,536.8476854 395.3129887,534.7358834 393.5133767,533.3447864 391.2670877,532.0279774 390.3212347,531.8096414 384.2598927,530.4104714 377.2442837,524.7424464 374.8650077,519.3223034 373.3402947,515.8489094 371.6011437,501.6527024 372.0025697,495.9570144 372.4121867,490.1451064 374.8178957,483.5643674 379.5157437,475.4049704 384.8699477,466.1055884 386.2944847,463.0679304 386.7046467,460.0754684 387.2706917,455.9457194 385.9078937,445.3004124 382.6880807,428.7006144 380.1977047,415.8614384 378.1920477,401.1482394 377.0561757,387.3857764 376.7208167,383.3225064 377.6036517,374.5346474 378.8628037,369.4023504 379.9144287,365.1159274 379.5589477,364.0687704 377.8045537,366.2850174 372.8151677,372.5878844 370.1143887,385.2623114 370.8280057,399.0251094 371.2074447,406.3429414 372.0761117,410.4686144 377.0127397,428.3990464 379.2197807,436.4152884 379.3672367,445.6747504 377.3794667,451.4275924 375.9968357,455.4290894 370.1765357,464.3810594 369.0872977,464.1814474 368.7745417,464.1241314 368.3157497,463.7170144 368.0677597,463.2767424 363.3405967,454.8843174 359.3070257,445.7676134 357.5732857,439.5570674 355.8367707,433.3365774 352.5421107,417.2778004 349.5301217,400.3532074 346.2050197,381.6692074 341.7442977,358.7695924 338.3687897,343.0552584 333.2047817,319.0147514 327.8529327,285.9862744 326.6411107,270.6789014 325.7122457,258.9457594 325.2906357,236.1943434 325.8754987,229.3640634 326.6307837,220.5435184 333.8912867,194.0025734 339.2399397,180.5100234 345.1660387,165.5608024 359.2853537,140.3680114 370.3001507,125.0899534 372.3058507,122.3079494 375.1297697,118.3882994 376.5755257,116.3796184 388.5024657,99.80876441 406.2530987,82.04487341 433.3599917,59.55274141 444.6736577,50.16514741 474.5143207,27.31340041 475.4593227,27.31340041 475.7520347,27.31340041 476.4782487,26.77557741 477.0731327,26.11823841 479.8389887,23.06200141 494.5289507,14.32348336 503.9227527,10.14638736 506.4106897,9.04008836 510.8889767,6.97633436 513.8745017,5.56026836 516.8600267,4.14420236 522.4239587,1.71336036 526.2387957,0.1583973596 533.7376667,-2.89821064 532.7846107,-2.07119464 539.5077947,-11.35581264 558.6960127,-36.47261464 586.1356817,-50.67718364 615.5029697,-60.55201564 639.8492927,-68.52013564 664.8094577,-72.30567464 690.2918727,-72.45872164 742.1785097,-72.23781564 772.6045087,-48.94057664 824.1881327,-62.53806364 833.3236787,-65.48057364 844.7366327,-71.73805164 849.3109427,-76.31236164 850.7818447,-77.78326364 852.1662807,-78.80575864 852.3874667,-78.58457164 853.0366237,-77.93541564 843.0284827,-68.58182764 837.4571317,-64.63070964 819.6300837,-51.98803764 808.7156897,-47.80156664 788.6497547,-45.90949864 783.1506277,-45.39097264 777.7014017,-44.82204964 776.5403647,-44.64522664 772.8332207,-44.08063864 776.1894887,-43.40996064 787.7885467,-42.39751864 824.9092617,-39.54004364 861.5994377,-28.58665464 895.3469207,-12.80113964 912.6386997,-4.12821364 929.5891927,9.11393536 947.3730397,27.84296441 960.4827917,41.15869241 970.5634497,56.80564741 980.4050147,72.54862341 989.5966957,87.20374141 1000.955771,111.6435884 1006.755451,129.2434364 1019.726575,168.6059194 1024.329569,207.1189124 1025.930224,289.6776944 1025.990733,303.4539554 1027.002536,317.1899194 1027.755543,330.9376154 1029.909785,370.9335344 1033.06084,385.3464844 1050.513693,435.0335454 1054.941616,447.6395354 1056.289995,450.7904194 1060.647732,458.7147224 1064.780078,466.2291604 1069.421929,473.0639504 1074.290628,478.8028984 1076.058743,480.8870524 1077.505383,482.7549804 1077.505383,482.9538484 1077.505383,484.9675784 1065.121489,473.1393044 1059.155547,465.4273044 1053.441144,458.0404594 1041.161588,437.4642964 1036.157762,426.8912054 1029.50911,412.8425924 1017.711046,375.7590414 1015.433998,361.7524834 1013.740976,351.3383844 1010.755845,318.7157374 1009.639056,298.4231714 1007.547422,260.4172014 1002.954844,225.7244724 996.6247467,200.1119534 988.4152137,168.9251754 975.9712707,138.6816234 959.1226437,111.1493474 949.0384367,97.01835441 931.4832847,74.23935841 922.5027367,63.63254541 906.9647487,45.22111141 888.9333777,28.86875641 869.4675507,14.67754936 845.0559977,-2.26797964 817.0880347,-12.17540564 788.3461247,-18.86609464 757.9511507,-25.03830064 740.3373327,-26.67101064 709.2906657,-26.19412664 670.0069367,-25.59072064 636.7143557,-20.33120464 611.4511327,-10.73757264 594.1905907,-4.18293464 585.7879897,-0.0233976404 574.0396637,7.78221736 563.7925987,14.59039036 550.1568187,26.10074341 551.1554847,27.09940941 551.3903567,27.33428141 553.5475557,26.15809441 555.9492607,24.48565941 613.1594077,-11.87160164 656.6677027,-22.69647664 722.5596647,-22.44541364 738.2931337,-21.86486164 762.8289527,-20.02323564 771.4137057,-18.77849264 810.0760857,-14.27193264 844.8912847,1.10075836 875.4547187,24.84112841 883.3728897,31.42281141 903.7905767,51.36833141 911.3258867,59.88276141 935.8777777,86.31137941 955.7612017,116.7833684 972.6946927,148.5437984 985.7468407,172.7563934 992.4845587,199.7314384 997.5494557,226.6064794 1000.360125,242.0399744 1000.910525,246.9169724 1000.88789,256.1878074 1000.864362,265.8243674 1000.301865,265.5391844 997.0441677,254.2390544 994.1481127,242.2755034 989.0918367,231.0779904 984.9672217,219.5397524 979.0340207,202.6643804 969.6454227,180.7733214 962.6665337,167.5420324 945.3185847,135.6293004 923.1755177,107.0343064 897.9681747,80.98536341 894.0276477,77.17446941 886.7394107,70.90339241 881.7720927,67.04963741 861.2748097,51.14319541 839.2207497,37.43119441 815.7442247,26.39241541 790.4937417,15.39718236 763.5764577,10.58030936 736.4317997,7.05174936 700.0033477,4.49262936 663.2894167,7.07190936 627.6083607,14.68444536 605.0425617,19.68854736 583.3244137,28.69044641 563.9236247,41.22921741 554.5432867,47.57470141 551.7171427,49.79343641 554.2556047,48.81933741 554.8460607,48.59275841 559.8438417,45.73164541 565.3617837,42.46130941 587.0836307,28.27508641 611.9567447,21.95529441 637.0700817,17.07977536 663.0778657,13.33196336 689.4667387,12.59492636 715.6235967,14.90891536 785.0210527,18.97400236 819.0927627,30.52072541 873.9468787,69.88089741 896.3245537,87.39653241 915.0965527,109.2639714 931.6295457,132.2591184 939.2582857,143.2861354 948.9838817,159.7079664 967.2947827,192.4804664 973.6455847,203.8470104 982.0527787,221.7958504 985.5841647,231.5271654 991.0840197,246.6829204 999.6964597,275.3295694 1000.890815,282.4400594 1003.945006,308.2631434 1005.863412,334.1957144 1009.635738,359.9430744 1010.469265,364.9189494 1012.238424,376.8060604 1013.567203,386.3588774 1014.895983,395.9116944 1016.926913,408.8037324 1018.080382,415.0078524 1021.873967,435.4122564 1026.243339,460.4960794 1027.767263,470.6185874 1031.650682,496.4137904 1036.657045,519.3229654 1045.824403,553.2482624 1052.149756,576.6562594 1057.385695,598.1229154 1059.652852,609.9430754 1064.117388,633.2195964 1064.389773,635.5635064 1064.681834,653.2181054 1064.86821,664.4842984 1064.754214,669.6535694 1064.319387,669.6535694 1063.970501,669.6535694 1062.838625,666.8716034 1061.804107,663.4714224 1057.196521,648.3275254 1050.839411,628.8562944 1047.970733,621.1010964 1041.955796,604.8402874 1038.330522,595.0914714 1034.962074,586.1191904 1025.016324,559.6274474 1016.642218,531.8529514 1011.230953,507.4099024 1005.282066,480.5383784 1002.239566,462.9668364 996.0882227,419.9551374 988.2762757,365.3320874 983.6385127,339.0197204 977.0060187,311.6921704 965.3899777,263.8311504 954.4108377,233.6045484 939.7631267,209.1589974 926.1125907,185.3517874 911.4313197,162.2647874 894.7552477,140.4486734 877.9841527,119.5048074 845.3822737,90.33994241 826.6084807,79.48619941 810.6559037,70.26349241 794.2072947,63.77131041 767.8669017,56.30119641 744.4987407,50.44135541 720.2365287,45.66635241 696.0600147,45.41906441 663.9634847,45.45740741 638.5375357,48.77494141 608.0103507,56.90763441 592.7578657,60.97102241 571.3625137,69.08303241 569.9745197,71.32885441 569.3553717,72.33065641 570.4316077,72.09365541 580.6954797,68.96795341 623.5017227,54.20702141 666.3401427,46.41921941 711.4016427,51.16749241 757.9514967,58.98650041 803.3143067,76.45656641 843.4884947,101.2824744 864.8482307,115.7577374 884.4593857,133.1424394 900.3894107,153.5033084 914.2045077,174.5478554 927.2897567,196.2256834 936.9746227,219.6376704 952.9193687,258.1821564 965.7824047,297.1028794 972.5533567,338.2301674 977.2571147,365.5499174 982.1059987,392.8210424 986.1149057,420.2567054 990.0842897,447.9808634 993.1649727,465.5824264 997.2517917,483.8875864 1003.085879,512.6446354 1011.155921,540.8211674 1020.138318,568.7359244 1027.591865,591.1921424 1030.949519,599.7781424 1039.790802,618.9901194 1046.046172,631.9897244 1051.028987,645.4912664 1056.054451,658.9847174 1062.268657,674.9530844 1067.550072,691.0384074 1067.064984,708.2396154 1066.334804,729.6938264 1063.357809,748.0566644 1055.218687,781.3105034 1052.313869,796.0728254 1047.549881,810.2932404 1042.250095,824.3580324 1038.935865,832.4547324 1035.1526,840.3411454 1034.582688,840.3411454 1033.735498,840.3411454 1033.975522,838.8515704 1037.048562,825.0380204 1041.534609,804.8728964 1044.323361,788.9894214 1046.751546,769.7741974 1048.331612,757.2704974 1048.986258,734.9763064 1048.00899,726.9515194 1047.214709,720.4293204 1041.342862,690.4939374 1039.431832,683.2241364 1037.378381,675.4125484 1029.236992,654.4245604 1017.903143,627.7245314 1007.569932,601.1223464 995.9877867,574.7804934 989.4637897,546.9153304 987.7900457,537.9383854 983.4138447,512.7645794 980.3943587,494.7440404 979.0325717,486.6167784 976.3219547,471.1463314 974.3707667,460.3652704 969.3098407,432.4017194 968.9599627,430.3119974 962.0004517,386.4810724 951.8898437,322.8045634 944.0717157,286.0631034 932.6747767,248.6644254 922.6807567,215.8693844 908.4134547,190.2836284 883.9476957,161.2814524 872.8155147,148.0851534 860.1062217,137.2701004 842.5837907,126.0825754 833.3924307,120.2141794 810.2673667,108.8937694 796.5270707,103.5364344 776.4977937,95.72702941 739.3577747,87.10363341 715.9251657,84.82179241 702.2102207,83.48624641 657.6353877,83.26210341 647.1676257,84.47604641 630.8901747,86.36373841 599.0514797,92.98081341 597.1639147,94.86837841 596.2944537,95.73783941 598.0027857,95.63035041 600.8132497,94.63876141 602.1056157,94.18278741 604.6502947,93.61744141 606.4680907,93.38243541 608.2858877,93.14742841 613.1658167,92.42055741 617.3123787,91.76716441 662.2495787,84.68620141 687.0563947,83.75004541 717.4330057,87.98882541 748.2608507,93.61525041 780.1501477,99.32996341 809.2284677,111.4961644 828.7039557,121.2226314 843.2925167,130.6771734 857.6621977,142.8850544 869.7277377,153.1354324 875.4596047,159.4776974 884.8524257,172.9708194 892.1184137,183.4086694 895.2501157,188.6521274 900.5058297,199.1795564 908.2675727,214.7266734 911.7717137,223.1099614 919.8034907,245.3471764 921.2412647,249.3278754 923.9324487,256.7499404 925.7838987,261.8406544 929.4966237,272.0490954 935.1772587,290.9905654 936.9843407,299.1873314 940.0040797,312.8846014 943.8460977,334.8967754 945.7464287,349.3881894 946.8991997,358.1789014 948.3946577,369.5781774 949.0696707,374.7199144 951.0058897,389.4685774 956.7149377,426.4612744 957.7727857,431.1131594 963.4825637,455.5876204 971.0550467,479.5511074 976.4600867,504.0926524 977.6799597,509.7319774 980.4017217,521.5383704 982.5084467,530.3290824 987.0402107,549.2387224 988.4156077,555.9124984 988.0732267,557.3308064 987.9035377,558.0337374 987.3746617,557.3894924 986.4547217,555.3592394 985.7031717,553.7006144 981.2091497,544.2012174 976.4680047,534.2494684 962.9052167,505.6566724 950.3206697,476.5435694 939.5088337,446.7947034 934.0562237,430.8599934 927.0170847,404.7142434 923.1084017,385.8779364 919.1954297,367.0209654 918.8332587,363.4758694 918.2714627,338.5317354 917.9838237,325.7603244 917.5781597,312.8682854 917.3699897,309.8827614 915.4083457,281.7494194 907.9112117,249.0410904 898.9820167,229.6601304 887.4746917,204.6832984 876.7749587,189.0736384 858.3278257,170.3504184 845.3106087,156.1220774 829.8026007,145.0705144 812.0194267,137.7675824 779.9604707,125.4563054 745.4379507,121.3393124 711.3018737,121.5730274 681.7719577,122.0438904 669.0223297,123.4490814 643.8503767,129.0071474 625.5570067,133.0463954 610.9987017,137.3316844 605.5442667,140.2826874 602.9220467,141.7013834 604.2093627,141.5435004 614.1346817,139.2291154 622.2116767,137.3457224 637.4231637,134.3672184 651.2108597,131.9693684 671.6867597,128.4083574 710.9867827,125.6999914 731.0035727,126.4704444 759.7605527,127.5773104 785.4046447,131.7493314 800.6658167,137.8037504 816.4854987,143.9526214 831.9537177,151.4328284 844.9195917,162.5102574 867.1960597,182.0849224 883.0426067,201.5269074 893.5108487,222.1264284 899.4417657,233.7973524 903.9310307,251.1382744 906.1583147,270.9804694 908.4628077,291.5104954 908.8681687,297.3482164 908.8386787,309.5811934 909.5366767,329.9181694 903.2184917,349.0946894 896.8706967,368.0854154 891.5654397,383.7369354 887.2160137,399.6758564 883.3464307,415.7331834 878.6574277,435.1817614 878.2866927,438.3569424 878.6633497,455.8417484 878.4073447,472.6304024 882.0601007,489.0403124 885.0945307,505.4497094 885.7522767,509.0157524 886.4511567,512.6045834 886.6475957,513.4248884 887.0044957,514.9152554 887.0038067,514.9154894 885.7092887,513.7439674 884.2229507,512.3988504 874.2297097,495.9703254 870.6124177,488.9252624 861.2965927,465.2009834 853.6722347,437.4641674 860.2244137,412.1143654 863.0247627,401.5444004 866.2189517,391.5498564 876.6088667,360.8477794 884.0645227,338.8164064 885.0518847,334.8671404 887.2396397,318.3266694 888.5195647,308.6498254 887.9833347,284.3102714 886.2610757,273.9094684 883.0197507,254.3349594 876.6172097,237.5339014 866.8143787,222.8789364 861.5868037,215.0638544 848.0580717,198.3348044 842.2775977,192.5378044 834.7432807,184.9819484 825.0486427,177.8721574 816.4340827,173.5848544 807.5626177,169.1696944 806.4615337,169.3206934 809.3708407,174.5534774 812.9756567,181.0372284 819.4704407,199.3597644 821.4236567,208.5558614 829.3640547,245.9407034 831.0807567,271.2934294 828.1029937,307.1981734 826.7301397,325.5954534 822.1785557,343.5197384 818.1631367,361.4703164 813.2391417,382.0371994 811.1330667,403.2535804 804.0729147,423.2723874 797.4250727,440.9362754 789.9029237,458.3496894 777.0838767,472.4279964 776.3897887,472.4279964 772.5042587,466.2771794 770.4162547,461.8731114 769.4726137,459.8827614 768.7028467,457.3043534 768.7056617,456.1433164 768.7084757,454.9822784 770.2010247,446.7406504 772.0224357,437.8285864 775.5540157,420.5487584 775.7498667,418.2741544 774.7039027,406.6861384 773.7823147,396.4760684 773.2345717,393.9608364 769.3181317,381.9547264 765.4252897,370.0209584 761.5132017,361.2404354 759.6431467,360.2396114 758.1556937,359.4435504 758.0068157,360.5550954 759.3449987,362.4656204 760.8449357,364.6070804 763.7559527,373.1337094 764.7173217,378.2016374 766.9511597,389.9774704 766.5781807,402.1569094 763.2724427,425.3833644 759.3215927,453.1424514 759.4123427,457.2720614 764.1366757,464.7104964 765.6737647,467.1306344 769.4782777,472.5639114 772.5911487,476.7844454 781.5287507,488.1291134 784.8141167,503.7215264 780.1942057,517.5641784 776.5872407,528.0517054 767.6210167,535.7862444 757.3663327,539.3857064 L 752.1133437,541.0614104 C 747.2944437,551.6380394 742.5891327,562.2504964 738.5490027,573.1517604 731.5493597,592.1620434 721.3527747,625.9468094 721.7652947,628.7619184 721.8915197,629.6233014 722.5662997,630.2290654 723.7502607,630.5438634 724.7368127,630.8061724 746.0426037,631.1668644 771.0964607,631.3454004 862.8551797,631.9992814 885.5973067,632.7094504 933.6573727,636.4216894 953.5381177,637.9573104 960.1447677,638.8436984 959.1469437,639.8415214 958.9758847,640.0125814 956.1562767,640.2564964 952.8811497,640.3835554 937.4633867,640.9816874 888.8875177,643.1133154 877.5656967,643.6885814 865.1225367,644.3208224 851.1048347,644.8932004 818.1567697,646.1143974 809.0343327,646.4525144 789.4241767,647.0022014 774.5786427,647.3359254 749.9829587,647.8888304 714.4724037,649.4939474 713.8870987,650.0792514 713.7557037,650.2106474 712.6386797,654.1936514 711.4048247,658.9303724 708.4331947,670.3383434 706.2878127,677.2435584 703.6696037,683.8272724 701.7018497,688.7753624 701.0013997,689.7825784 695.7506067,695.2144354 678.7190117,712.8333324 640.7241127,742.2842444 620.9411057,753.2013774 L 615.2014017,756.3687974 609.4716067,756.1174764 C 589.5986437,755.2458024 541.0877197,754.2684824 538.3015227,754.6836554 533.6016277,755.3839914 530.9130587,754.6327334 521.2031667,749.9059214 505.7577427,742.3870304 488.7111207,731.8902904 477.0831867,722.7383114 453.7827277,704.3992594 443.2347067,694.4647884 440.2517127,688.0492274 439.4805147,686.3906024 437.0389387,677.7818384 434.8259907,668.9186404 432.6130407,660.0554414 430.4481177,652.3202184 430.0150497,651.7292554 429.2709817,650.7139024 426.6777737,650.6582364 382.8900397,650.7176604 327.7220137,650.7925294 307.0266127,651.6791954 279.2544777,655.1577814 276.6006777,655.4901814 271.7152737,656.0532434 268.3980237,656.4090304 265.0807747,656.7648164 256.3956117,657.8472274 249.0976617,658.8143864 232.7001397,660.9874674 197.0477907,664.2253424 189.5174687,664.2253424 186.9791537,664.2253424 186.4268237,679.2390294 188.4569567,693.0527034 192.6579747,720.3533624 201.1328717,746.7499424 211.1801537,772.4001834 223.6362857,804.4668494 242.0305187,833.6626704 262.7360207,860.9642534 278.1123577,881.2325744 301.5066197,906.6057894 319.7168167,922.7651335 355.2289127,953.6746935 398.7167187,974.8221515 443.6091217,988.6144285 480.9674767,1001.246141 519.9819617,1006.901449 558.8081567,1012.77406 600.1169437,1018.773685 642.5583717,1018.508433 683.8496797,1012.480915 724.7479917,1007.038077 763.6857057,992.7597345 801.8720897,977.7094145 825.5870757,968.1224795 855.5352067,951.4235185 875.1531507,936.8481805 909.8914747,912.2056084 934.4058977,878.5947784 957.0194907,843.3116934 980.3806787,808.8410854 990.2215397,768.5394854 1002.122945,729.3264494 1007.252738,708.4350734 1010.035651,686.9374604 1010.199405,665.4316154 1010.262923,641.4488564 1009.169765,633.2975814 1002.636572,609.0383704 1002.011219,606.7162954 1001.347457,602.6451254 1001.161546,599.9913254 1000.849755,595.5406434 1000.896969,595.2570824 1001.770004,596.3370014 1002.290566,596.9809224 1002.721046,598.3379794 1002.726627,599.3526834 1002.739906,601.7674014 1005.491868,608.3094804 1016.442042,631.9575504 1025.453034,651.4177474 1027.1006,654.9994474 1028.938004,662.0207314 1033.944565,681.1523394 1037.699248,700.5033444 1037.960534,720.3170194 1038.664654,745.5499214 1030.138957,769.5778984 1019.514927,792.0853174 1009.25099,813.0875924 1004.161596,822.1737854 989.2762887,846.0709404 977.1568407,865.5277304 958.6099817,891.2990794 947.1725707,904.5751624 939.6134077,913.3495324 920.0086527,933.0171295 912.5476017,939.3111185 883.8247387,963.5411365 863.8186297,976.7888085 832.9336097,992.0300145 799.7302747,1008.415267 783.8095657,1014.223827 739.4474817,1026.137776 716.3722767,1032.334888 683.7997467,1037.793252 656.8178067,1039.9845 646.7185577,1040.804677 598.0021597,1040.562789 581.1242007,1039.608665 z M 595.0072577,662.9113954 C 598.5719197,656.7598524 600.9844617,650.7098194 600.1881537,649.9190494 599.9275407,649.6602484 595.9802747,649.4485034 591.4164527,649.4485034 581.9729127,649.4485034 581.1242007,649.7688464 581.1242007,653.3332694 581.1242007,657.2995414 584.0025297,665.2525664 586.4410877,668.0242014 587.0951347,668.7675844 588.0609147,669.0522894 589.5100347,668.9289064 591.4951367,668.7598874 591.8316867,668.3914844 595.0072577,662.9113954 z M 574.7646757,666.4871044 C 575.8931637,663.7781094 577.8698967,651.7230544 577.2820957,651.1346824 577.0184027,650.8707334 573.9073907,650.6547754 570.3687357,650.6547754 L 563.9348157,650.6547754 564.0362137,653.5633984 C 564.1410597,656.5708984 565.7331157,660.4081404 569.0228477,665.5823994 571.3261667,669.2051754 573.4903567,669.5461744 574.7646757,666.4871044 z M 542.6346847,662.0137244 C 544.1953277,660.6013604 543.9984497,658.6956404 541.8488567,654.4071784 540.8143667,652.3433564 539.8583407,650.5356024 539.7243557,650.3899444 539.1761437,649.7939754 529.5115087,650.4559734 528.8271017,651.1363734 527.7889727,652.1684224 530.8792927,657.1003274 534.8691667,660.7790244 537.5155547,663.2190164 538.2737857,663.6145094 539.7697867,663.3351904 540.7431947,663.1534444 542.0323987,662.5587854 542.6346847,662.0137244 z M 610.0173467,660.0883064 C 612.3686337,657.5643314 616.4647887,648.6612264 615.6497297,647.8461674 615.3739647,647.5704024 613.3072817,647.2752924 611.0571007,647.1903674 605.6769077,646.9873104 605.2496527,647.5420094 605.2496527,654.7300904 605.2496527,660.0089934 605.8521887,662.4159334 607.1736697,662.4159334 607.5450867,662.4159334 608.8247407,661.3685014 610.0173467,660.0883064 z M 555.2087017,661.1992984 C 556.3670007,660.5793954 558.2050207,655.5368944 558.2050207,652.9790724 558.2050207,650.9935504 556.2130767,650.1938654 551.0780767,650.1178914 544.0066247,650.0132654 543.7711367,652.0583804 550.0968157,658.6397184 553.3883617,662.0642954 553.4937967,662.1170874 555.2087017,661.1992984 z M 625.0307187,658.5344054 C 627.5285197,656.2777934 631.1845137,649.7928484 631.1845137,647.6189034 631.1845137,645.9797674 630.4834267,645.6752624 625.5444817,645.1692524 620.5387377,644.6563984 619.4462747,645.2801664 618.5092337,649.1861914 617.1916427,654.6785274 618.7682077,660.6065254 621.5464997,660.6065254 622.2013467,660.6065254 623.7692457,659.6740714 625.0307187,658.5344054 z M 521.4533567,653.3476684 C 522.6279817,652.7190284 522.9309177,651.2621614 522.2538807,649.4978324 521.9694667,648.7566594 520.9681367,648.5437984 517.7659537,648.5437984 515.4989477,648.5437984 513.5007657,648.7757574 513.3255497,649.0592634 512.9257967,649.7060764 515.1108397,651.7844324 517.4933197,653.0235374 519.6382627,654.1391024 519.9299407,654.1629764 521.4533567,653.3476684 z M 640.0919147,652.4353984 C 645.0199037,650.3763534 646.7876487,646.6282374 643.1718477,645.9050774 638.3676587,644.9442394 635.9724777,645.7702804 634.8270437,648.7829994 633.8905057,651.2462804 634.0557737,652.1434364 635.5572517,652.7469584 637.4295077,653.4995124 637.5678857,653.4900054 640.0919147,652.4353984 z M 213.8441397,641.5922424 C 215.9554817,640.5004254 216.0291287,639.9509154 214.3753807,637.6284404 212.7631077,635.3642124 211.5653947,634.7574414 206.0204277,633.3957544 200.3978077,632.0149984 194.3618597,631.8934614 193.3271847,633.1401684 192.2475707,634.4410244 191.8140767,638.7255274 192.6590607,639.7436704 194.3233787,641.7490524 210.7663397,643.1838354 213.8441397,641.5922424 z M 173.2961457,636.5693624 173.4898047,634.5466754 170.2804637,634.9856814 C 166.4817087,635.5053124 164.3570107,636.2346554 164.3570107,637.0190194 164.3570107,637.9554664 167.4932577,638.8344034 170.3883737,638.7093164 172.9995837,638.5964964 173.1098297,638.5153604 173.2961457,636.5693624 z M 642.6006287,626.8743674 C 643.9282947,625.5467004 644.2638757,623.4064194 644.7352097,613.2603244 645.1876567,603.5208324 643.4241597,596.6740764 640.4631437,596.6740764 639.2317247,596.6740764 637.2749687,599.0587424 635.2688267,603.0043024 632.6432697,608.1680924 631.4646807,611.9116854 630.5694227,617.9311814 629.8319527,622.8897454 629.8539067,623.2812714 630.9364987,624.4775214 633.9915517,627.8533164 640.3210407,629.1539554 642.6006287,626.8743674 z M 572.2726207,626.2909454 C 574.2143517,626.0487434 576.0511987,625.4645914 576.3798047,624.9847824 577.1336187,623.8841174 576.6341107,607.9948514 575.7566847,605.1633864 574.7314987,601.8551004 572.3488527,599.8316844 568.5496837,599.0429794 565.4028397,598.3896974 565.1376407,598.4269774 564.1364787,599.6633594 562.0631967,602.2237544 556.4255137,622.6577044 557.2206807,624.7298764 557.9205127,626.5536104 564.6071537,627.2470964 572.2726207,626.2909454 z M 527.5958527,624.3342234 C 528.5213477,623.8419174 528.6513417,622.7684944 528.6513417,615.6185554 L 528.6513417,607.4643424 526.2968307,603.9971724 C 523.4322397,599.7788744 520.1424397,597.4765384 516.5683327,597.1887734 512.5968907,596.8690174 512.2045027,597.9712574 512.6358797,608.2352434 513.0972457,619.2127344 513.7483067,622.5383924 515.7864707,624.3286204 517.2891217,625.6484784 517.7176027,625.7172514 521.9706747,625.3212054 524.4840037,625.0871654 527.0153337,624.6430234 527.5958527,624.3342234 z M 600.2737777,624.1151584 C 604.0261287,622.9895994 604.0291937,622.9743364 602.2529227,614.2580284 600.9852947,608.0376704 598.8712767,602.1896104 597.1735347,600.2067924 596.3073707,599.1951864 595.7110697,599.0622254 593.6047797,599.4110454 592.2139237,599.6413834 590.6088847,600.0750524 590.0380267,600.3747554 588.6189027,601.1198024 585.4491757,611.3768924 584.6190807,617.9102154 583.6875987,625.2415064 584.2233547,625.7386904 592.5837897,625.3015144 595.0717277,625.1714174 598.5322217,624.6375574 600.2737777,624.1151584 z M 619.4128637,623.4910334 C 621.3709707,622.9810114 623.3278737,622.2692504 623.7615367,621.9093424 624.3284037,621.4388834 624.5500147,619.2747814 624.5500147,614.2096014 624.5500147,607.8203884 624.4030837,606.8693864 622.9723577,603.9982924 619.9749457,597.9832714 616.6230287,597.5537704 614.0625867,602.8566304 612.1440017,606.8301594 609.4946687,615.8887544 609.0477737,620.0032684 L 608.7084497,623.1273934 611.0502207,623.5206954 C 612.3381957,623.7370104 613.6634037,624.0060474 613.9951287,624.1185554 615.1266607,624.5023244 615.8534537,624.4181424 619.4128637,623.4910334 z M 548.4417697,623.0467464 C 548.7925427,622.6240914 550.0523877,618.8256924 551.2414257,614.6058604 L 553.4033137,606.9334374 551.8460487,603.8603234 C 550.9895527,602.1701104 549.1855517,599.5903424 547.8371557,598.1275064 544.7077607,594.7325144 542.8123077,594.5942304 540.1993017,597.5702804 538.1230457,599.9350054 537.1710997,602.7405594 535.2873127,612.0467784 L 533.9840877,618.4849284 535.5204907,620.8065884 C 537.1882577,623.3267544 537.9140147,623.5733784 544.1082507,623.7248414 546.4657987,623.7824884 548.0349327,623.5369554 548.4417697,623.0467464 z M 656.2241757,622.6884324 C 657.5563047,622.0832754 659.6180337,620.6643264 660.8057967,619.5352124 L 662.9653647,617.4822784 663.3381007,610.2446434 C 663.7466637,602.3113484 663.2130917,598.6995874 661.2187657,595.8988154 659.9909117,594.1744524 659.9004817,594.1463884 659.0811267,595.2353954 657.5821887,597.2276404 653.1016207,606.5155144 652.1314667,609.6415064 651.1890357,612.6781744 650.3651287,621.6601174 650.9004817,623.0612894 651.3059107,624.1224174 653.3886597,623.9765464 656.2241757,622.6884324 z M 508.5274457,622.3133294 C 508.7171307,621.8190204 508.6032847,617.8542724 508.2744567,613.5027784 L 507.6765867,605.5909714 504.2115357,602.0893824 C 500.0722667,597.9064674 495.4504417,595.1927844 493.3594007,595.7176024 490.6385347,596.4004964 490.6141607,601.5494984 493.2784287,612.8230184 494.2420007,616.9002554 495.2382897,619.5459734 496.3676257,621.0266094 L 498.0345607,623.2120734 503.1085637,623.2120734 C 507.0474437,623.2120734 508.2597197,623.0110124 508.5274457,622.3133294 z M 487.4203097,618.3869834 C 488.6470827,615.7290674 486.4124537,600.3531164 484.4237607,597.7684464 482.5536847,595.3379384 477.6316867,591.8489854 476.0729547,591.8489854 473.9715267,591.8489854 472.5596647,593.8380844 472.5596647,596.7986774 472.5596647,599.9950734 475.4515057,613.4513504 476.6703807,615.9266094 478.7097097,620.0680234 485.8863007,621.7105554 487.4203097,618.3869834 z M 676.6746397,616.9375114 C 679.0917797,615.9275654 679.5090957,614.8407864 681.2450817,605.0351374 682.5958847,597.4051804 682.3007737,593.5096334 680.2588467,592.0165404 678.5485227,590.7659214 678.0456577,591.0731254 675.6068437,594.8584774 671.5761697,601.1146014 669.8299117,606.4272434 669.8059987,612.5064044 L 669.7852377,617.7838474 672.2171547,617.7838474 C 673.5547097,617.7838474 675.5605777,617.4029964 676.6746397,616.9375114 z M 469.0791057,612.9587564 C 468.8549187,608.4048884 466.5515957,594.6890234 465.8972427,594.0113444 464.9419657,593.0220154 458.6194007,592.7952044 458.0279647,593.7290464 456.5457927,596.0693044 457.9629007,602.9489144 461.7246687,611.6753704 463.1688917,615.0256444 465.4199407,616.7160324 468.0361427,616.4148674 469.1022367,616.2921434 469.2234377,615.8905154 469.0791057,612.9587564 z M 690.2107237,611.8154004 C 691.3654387,611.0838514 692.5595067,606.1070874 693.7363397,597.1209604 694.8908377,588.3053854 694.7063077,587.6749884 691.3003507,588.7990554 689.7659987,589.3054374 688.9888847,590.0299734 688.4811817,591.4274854 687.7923347,593.3236164 686.5915827,611.0183904 687.0917127,611.9032684 687.4348977,612.5104634 689.1917217,612.4609704 690.2107237,611.8154004 z M 452.8481737,591.3966334 C 454.1019067,588.8794794 455.2638997,579.5311844 454.8155907,575.5686554 454.4406807,572.2548914 450.0184227,558.6687994 448.1777867,555.1759474 445.4013047,549.9072074 431.6597657,540.5823994 426.6719467,540.5823994 424.1013287,540.5823994 424.7535777,542.9378024 430.5633957,554.6351994 437.8170567,569.2396074 449.3344717,591.3079124 450.2212967,592.3013384 451.2496267,593.4532784 451.9426967,593.2145834 452.8481737,591.3966334 z M 703.4387477,587.1746794 C 705.5886797,584.1171804 706.6853287,581.4644514 708.8358247,574.1194764 714.6812267,554.1546264 715.7917357,548.6812784 714.1267107,548.0423484 712.3782597,547.3714044 708.8164387,548.8795964 702.9312207,552.7828884 L 697.2279397,556.5655114 696.5321777,559.8827614 C 695.3427237,565.5538304 695.5825357,571.8676644 697.2576837,578.9840594 699.2186307,587.3145854 699.8235027,588.8333044 701.1804287,588.8333044 701.7810447,588.8333044 702.7972887,588.0869234 703.4387477,587.1746794 z M 566.7029707,520.3248994 C 568.6857467,518.3633884 571.4059347,514.9109824 572.7478337,512.6528864 574.0897327,510.3947894 575.4171777,508.6306164 575.6977107,508.7325004 576.1997577,508.9148324 578.3625317,511.5157964 582.7940117,517.2665524 586.2938497,521.8083104 590.5364857,523.6804264 598.3293967,524.1217334 606.3346047,524.5750644 609.8732507,523.3894424 616.0612547,518.1806844 623.7903187,511.6747374 623.9295977,509.8590334 617.6593647,497.3470064 613.6532917,489.3530324 612.8186547,487.0442254 609.7412797,475.4436784 607.8492917,468.3115914 605.5432897,459.2193114 604.6168307,455.2386114 602.1443647,444.6151954 598.8827617,432.6234744 596.4145447,425.0817964 594.3260417,418.7003424 592.1658087,415.1300474 590.3931657,415.1300474 589.3136427,415.1300474 585.0716467,421.2499254 583.4660497,425.1237174 582.7193987,426.9251484 581.8191817,428.3985604 581.4655667,428.3979674 580.6530697,428.3966044 578.0501747,424.2740654 576.1349207,419.9551374 575.3258417,418.1306504 574.0519387,416.0950654 573.3040257,415.4316154 L 571.9441857,414.2253424 570.0108327,416.4590234 C 566.7609377,420.2137574 565.1702767,423.8558014 559.5091807,440.5040264 553.3834587,458.5186314 551.5538997,463.2637834 543.1308617,482.9828824 535.8102507,500.1210994 534.8747427,503.2874944 534.4200957,512.4660354 534.0310607,520.3200034 534.3212197,521.2820374 537.0790987,521.2820374 537.9841547,521.2820374 539.5744617,521.5782814 540.6131147,521.9403584 543.2096167,522.8455034 555.9892277,524.2434234 559.8975527,524.0498184 562.9148937,523.9003504 563.3040997,523.6873194 566.7029707,520.3248994 z M 464.8772547,481.1434734 C 477.8580737,479.9221474 481.5907657,479.0295834 490.5100487,475.0141384 503.9272467,469.7405434 511.3717317,457.6148814 517.6328947,445.2868624 523.7582597,430.7254684 529.9142677,414.8653794 530.0751027,398.8453664 530.0426907,390.6625444 528.3459097,384.0565244 524.3507877,376.5590854 521.8491257,371.8643444 518.4768447,368.5244694 508.8995707,361.2563514 496.3278557,353.1377164 464.8851917,355.1308294 449.6404847,357.7505054 435.9633447,360.3026514 432.0382017,361.4038014 427.3244417,364.0109884 424.8365037,365.3870704 418.9034767,368.4869764 414.1399367,370.8996684 405.1098557,375.4733254 400.8096217,378.4859574 398.9526657,381.5394774 398.3490947,382.5319714 397.1268967,385.6314504 396.2366707,388.4272094 394.6493327,393.4122554 394.6237307,393.7453374 394.9107277,405.6772834 394.7468257,417.8635154 397.7098177,429.7043264 399.6076047,441.6640404 400.6559877,448.4621994 402.1643437,456.2693774 402.9595087,459.0133224 403.7546727,461.7572694 404.4052617,464.5545154 404.4052617,465.2294264 407.0196287,473.6907274 416.6669367,479.9627404 424.9367007,482.2835124 427.5555727,482.8525674 455.0546757,482.0676504 464.8772547,481.1434734 z M 721.9565287,475.6304624 C 729.7569847,473.1950124 740.4387537,461.2833194 743.9349807,451.1213614 744.5545257,449.3206224 745.3729677,445.8462844 745.7537397,443.4006104 746.1345127,440.9549364 746.9948257,435.4255844 747.6655447,431.1131594 749.7270397,417.8586814 749.7942777,409.7945814 747.9371037,398.5437984 745.0971987,381.3396244 742.5336177,373.2966464 738.2778957,368.2390084 737.4284057,367.2294464 736.7333677,366.0974384 736.7333677,365.7234344 736.7333677,364.6255294 729.7565927,360.4329204 724.6571067,358.4663504 698.8489247,351.0004344 670.1447537,351.8134714 644.4535127,359.1434774 632.5132047,363.0078784 626.7087567,369.4942324 624.0378647,381.9575504 619.7971747,400.4069384 625.0252937,418.9669104 631.4630907,436.2398184 635.3577567,446.5241904 645.3148557,465.0126584 648.6053737,468.0698304 656.9887137,475.5436844 667.4770607,480.2058864 678.8322827,479.8365554 693.2555437,478.6411814 707.8212907,479.1509944 721.9565287,475.6304624 z M 571.2947267,-16.33172364 C 585.0178687,-24.06449564 617.1801867,-36.81157464 633.8317387,-41.11738364 648.6598227,-44.95167464 683.9681687,-47.48676864 717.1314377,-47.09819464 727.2901157,-46.97916564 734.6964997,-47.10935664 734.0192547,-47.39505164 733.3558047,-47.67492864 729.1489287,-48.41582664 724.6706417,-49.04149464 718.2225077,-49.94237264 713.0771427,-50.17106064 699.9420527,-50.14057064 666.2477977,-50.06235664 646.1610547,-47.94197864 625.1531507,-42.24577264 609.8542187,-38.09753164 574.6920587,-21.48236464 567.2520647,-14.88578764 564.7577027,-12.67419264 564.8839247,-12.71933864 571.2947267,-16.33172364 z"
       style="fill:#333333;fill-opacity:1"
       sodipodi:nodetypes="csccsssccccccccscsssssssssssssssssssssssssssssssssssssccccsssssccccsccsssssssscccccsssscccccccscccccccccscccccssccsssssssssssssccsccssccccscccccccccsssssccsssssssssssssccssssssssccsssccsssscccsssssccsscccccssccssssssssccccsssssssssscccccssssssssssssscccsssssssssssccccccccccccssssssccssssssccsssssccscccsccsssssccssssccsssccssssccssssccsssccssssccccssccsssssccssssscccccssssccssssssccsssscccscccccsscccscccccsssscccccsscccccssssccssscccccssssccssssccsssssccsscccssccssssssssssssscccsssssscccccsccssssccsccccssssssccccccccsssssssc" />
  </g>
</svg>
